<?xml version="1.0" encoding="utf-8" standalone="no"?>
<!DOCTYPE svg PUBLIC "-//W3C//DTD SVG 1.1//EN"
  "http://www.w3.org/Graphics/SVG/1.1/DTD/svg11.dtd">
<!-- Created with matplotlib (http://matplotlib.org/) -->
<svg height="353pt" version="1.1" viewBox="0 0 508 353" width="508pt" xmlns="http://www.w3.org/2000/svg" xmlns:xlink="http://www.w3.org/1999/xlink">
 <defs>
  <style type="text/css">
*{stroke-linecap:butt;stroke-linejoin:round;}
  </style>
 </defs>
 <g id="figure_1">
  <g id="patch_1">
   <path d="M 0 353.548374 
L 508.008609 353.548374 
L 508.008609 0 
L 0 0 
z
" style="fill:#ffffff;"/>
  </g>
  <g id="axes_1">
   <g id="patch_2">
    <path d="M 54.408609 306.18 
L 500.808609 306.18 
L 500.808609 7.2 
L 54.408609 7.2 
z
" style="fill:#eaeaf2;"/>
   </g>
   <g id="matplotlib.axis_1">
    <g id="xtick_1">
     <g id="line2d_1"/>
     <g id="text_1">
      <!-- $-2$ -->
      <defs>
       <path d="M 9.796875 28.078125 
C 8 27.484375 7.796875 24.78125 9.796875 24.28125 
C 10.296875 24.078125 10.90625 24.1875 11.5 24.1875 
L 64.703125 24.1875 
C 65.90625 24.1875 67.796875 23.78125 68.796875 24.78125 
C 69.90625 25.875 69.296875 27.875 67.703125 28.1875 
C 66.5 28.375 65.09375 28.1875 63.90625 28.1875 
L 11.40625 28.1875 
C 10.90625 28.1875 10.296875 28.28125 9.796875 28.078125 
" id="Computer_Modern_Bright_Math_Symbols-0"/>
       <path d="M 7.296875 45.96875 
C 8.703125 51.59375 11.09375 57.984375 16.796875 60.5 
C 19.203125 61.5 21.796875 61.703125 24.40625 61.5 
C 29.296875 61.09375 34.09375 59.09375 37.09375 55.09375 
C 39.296875 52.078125 40.09375 48.375 39.703125 44.78125 
C 38.5 34.34375 28.296875 26.84375 21.703125 21.234375 
C 17.90625 18.03125 7.09375 7.8125 7.09375 7.8125 
L 5.40625 6.203125 
C 4.5 5.3125 4.40625 5.3125 4.40625 3.5 
L 4.40625 0 
L 46.40625 0 
L 46.40625 5.625 
L 10.203125 5.625 
C 13.40625 8.734375 26.703125 20.515625 28.5 21.921875 
C 34.296875 26.65625 40.796875 31.375 44.296875 38.21875 
C 48.203125 46.0625 46.5 55.9375 39.90625 61.765625 
C 35.90625 65.296875 30.40625 67 25.09375 67 
C 20.203125 67 15.203125 66 11.296875 62.90625 
C 8.296875 60.390625 5.796875 56.6875 4.40625 52.875 
C 4.09375 52.28125 3.59375 51.28125 3.703125 50.578125 
C 3.796875 49.984375 4.40625 49.484375 4.703125 49.078125 
C 5.5 48.078125 6.296875 46.875 7.296875 45.96875 
" id="Computer_Modern_Bright-50"/>
      </defs>
      <g style="fill:#262626;" transform="translate(74.342022 324.249603)scale(0.16 -0.16)">
       <use transform="scale(0.996264)" xlink:href="#Computer_Modern_Bright_Math_Symbols-0"/>
       <use transform="translate(77.487468 0)scale(0.996264)" xlink:href="#Computer_Modern_Bright-50"/>
      </g>
     </g>
    </g>
    <g id="xtick_2">
     <g id="line2d_2"/>
     <g id="text_2">
      <!-- $0$ -->
      <defs>
       <path d="M 14.796875 63.859375 
C 11.90625 61.859375 9.90625 59.140625 8.40625 56.03125 
C 4.796875 49 4.40625 40.765625 4.40625 31.828125 
C 4.40625 20.578125 6.40625 10.25 12 4.3125 
C 17.296875 -1.203125 25.703125 -2.609375 32.796875 0.296875 
C 37.203125 2.015625 40.40625 5.71875 42.40625 9.734375 
C 46 16.875 46.40625 25.40625 46.40625 34.234375 
C 46.40625 37.046875 46.296875 39.859375 46 42.671875 
C 45.296875 49.40625 43 56.828125 39.296875 60.953125 
C 33.203125 67.6875 22.296875 69.1875 14.796875 63.859375 
M 34.90625 58.140625 
C 39.59375 53.125 40 43.484375 40 34.34375 
L 40 28.921875 
C 40 24.296875 39.203125 18.28125 38.203125 14.859375 
C 36.796875 10.140625 34.5 6.734375 29.90625 4.625 
C 24.296875 2.609375 18.5 4.515625 15.296875 8.9375 
C 11 14.65625 10.796875 24.796875 10.796875 33.734375 
C 10.796875 42.171875 10.90625 51.515625 15 57.03125 
C 19.5 63.0625 29.203125 64.0625 34.90625 58.140625 
" id="Computer_Modern_Bright-48"/>
      </defs>
      <g style="fill:#262626;" transform="translate(145.68227 324.249603)scale(0.16 -0.16)">
       <use transform="scale(0.996264)" xlink:href="#Computer_Modern_Bright-48"/>
      </g>
     </g>
    </g>
    <g id="xtick_3">
     <g id="line2d_3"/>
     <g id="text_3">
      <!-- $2$ -->
      <g style="fill:#262626;" transform="translate(210.823521 324.249603)scale(0.16 -0.16)">
       <use transform="scale(0.996264)" xlink:href="#Computer_Modern_Bright-50"/>
      </g>
     </g>
    </g>
    <g id="xtick_4">
     <g id="line2d_4"/>
     <g id="text_4">
      <!-- $4$ -->
      <defs>
       <path d="M 2.09375 18 
L 31 18 
L 31 0 
L 37.296875 0 
L 37.296875 18 
L 48.703125 18 
L 48.703125 23.328125 
L 37.296875 23.328125 
L 37.296875 66.46875 
L 31.90625 66.46875 
C 30.09375 66.46875 29.59375 66.578125 28.796875 65.0625 
C 24.796875 58.515625 3.703125 25.765625 3 24.859375 
C 2.203125 23.4375 2.09375 23.546875 2.09375 21.4375 
z
M 31.296875 60.875 
L 31.296875 23.328125 
L 8.59375 23.328125 
C 9.296875 24.734375 10.296875 26.03125 11.203125 27.4375 
C 16.203125 35.171875 28.09375 53.546875 30.59375 59.28125 
C 30.90625 59.78125 31 60.375 31.296875 60.875 
" id="Computer_Modern_Bright-52"/>
      </defs>
      <g style="fill:#262626;" transform="translate(275.964771 324.249603)scale(0.16 -0.16)">
       <use transform="scale(0.996264)" xlink:href="#Computer_Modern_Bright-52"/>
      </g>
     </g>
    </g>
    <g id="xtick_5">
     <g id="line2d_5"/>
     <g id="text_5">
      <!-- $6$ -->
      <defs>
       <path d="M 11.296875 32.625 
L 11.203125 32.625 
C 11.203125 41.765625 12.796875 52.421875 20.59375 58.25 
C 24.90625 61.375 30.703125 62.96875 38.203125 61.171875 
C 39.796875 60.765625 41.296875 60.15625 42.796875 59.765625 
L 42.796875 63.28125 
C 42.796875 63.671875 42.90625 64.375 42.59375 64.78125 
C 41.90625 65.6875 36.296875 66.59375 36.09375 66.59375 
C 27.40625 67.59375 21.703125 65.6875 16.40625 61.171875 
C 10 55.640625 6.296875 47.515625 5.09375 39.28125 
C 4 32.65625 4.90625 22 6.203125 16.78125 
C 8.296875 9.046875 12.296875 2.21875 19.703125 -0.390625 
C 24.09375 -2 29.5 -2 33.703125 0.015625 
C 37.09375 1.640625 39.90625 4.46875 42.09375 7.5 
C 45.59375 12.34375 46.5 18.21875 46.09375 24.171875 
C 45.90625 27.109375 45.5 30.046875 44.296875 32.765625 
C 42.40625 37.125 39.203125 41.671875 35.09375 43.6875 
C 33.203125 44.5 31.203125 44.5 29.203125 44.5 
C 23.90625 44.5 18.90625 42.1875 15.203125 38.359375 
C 13.59375 36.75 12 34.71875 11.296875 32.625 
M 24.40625 39.515625 
C 28.203125 39.8125 32.203125 39.21875 35.09375 36.5 
C 38.90625 32.890625 39.59375 27.765625 39.59375 22.8125 
C 39.59375 19.46875 39.703125 16.015625 38.703125 12.859375 
C 38.09375 11.234375 37.296875 9.828125 36.40625 8.5 
C 34.203125 5.5625 31.40625 4.125 26.796875 3.515625 
C 22.296875 3.515625 17.796875 5.3125 15.203125 9.125 
C 13.59375 11.328125 12.796875 14.046875 12.296875 16.640625 
C 11.703125 19.34375 11.296875 22.140625 11.5 24.859375 
C 12 31.984375 17 38.515625 24.40625 39.515625 
" id="Computer_Modern_Bright-54"/>
      </defs>
      <g style="fill:#262626;" transform="translate(341.106021 324.249603)scale(0.16 -0.16)">
       <use transform="scale(0.996264)" xlink:href="#Computer_Modern_Bright-54"/>
      </g>
     </g>
    </g>
    <g id="xtick_6">
     <g id="line2d_6"/>
     <g id="text_6">
      <!-- $8$ -->
      <defs>
       <path d="M 18.703125 36 
L 18.703125 35.90625 
C 12.5 34.09375 7.296875 30.6875 4.796875 24.84375 
C 2.203125 18.71875 4 11.28125 8.40625 6.453125 
C 13.09375 1.421875 19.5 -1 26.296875 -1 
C 36.296875 -1 45.90625 6.40625 47.09375 16.734375 
C 47.296875 18.265625 47.203125 19.890625 47 21.40625 
C 45.203125 29.21875 39.5 33.875 32.09375 35.90625 
C 32.90625 36.203125 33.796875 36.40625 34.59375 36.703125 
C 38.796875 38.421875 42.296875 40.921875 44.5 44.9375 
C 47.796875 51.375 44.59375 58.90625 39.203125 63.015625 
C 33.796875 67.140625 26.5 68.234375 19.90625 66.828125 
C 12 65.125 4.5 58.40625 5 49.765625 
C 5.203125 46.75 6.5 44.234375 8 42.4375 
C 10.296875 39.625 14.796875 36.609375 18.703125 36 
M 23.796875 62.5 
C 28.203125 62.5 33.703125 62 36.90625 58.578125 
C 40.703125 54.46875 40.90625 47.03125 37.09375 42.8125 
C 34.703125 40.203125 31.203125 38.890625 27.703125 38.59375 
C 22.796875 38.1875 17.203125 39 13.703125 42.8125 
C 9.796875 47.125 10.09375 54.96875 14.296875 58.984375 
C 16.90625 61.390625 20.40625 62.1875 23.796875 62.5 
M 23.703125 33.5 
C 28.40625 33.5 33.5 32.390625 36.90625 28.9375 
C 38.203125 27.53125 39.203125 25.8125 39.796875 24.015625 
C 41.5 18.75 40.703125 12.09375 36.796875 8.046875 
C 34.09375 5.328125 30.40625 4.3125 26.703125 4.015625 
C 22.203125 4.015625 17 5.109375 13.796875 8.5625 
C 9.40625 13.390625 8.5 23.40625 13.703125 29.0625 
C 16.296875 31.78125 20 33.203125 23.703125 33.5 
" id="Computer_Modern_Bright-56"/>
      </defs>
      <g style="fill:#262626;" transform="translate(406.247271 324.249603)scale(0.16 -0.16)">
       <use transform="scale(0.996264)" xlink:href="#Computer_Modern_Bright-56"/>
      </g>
     </g>
    </g>
    <g id="xtick_7">
     <g id="line2d_7"/>
     <g id="text_7">
      <!-- $10$ -->
      <defs>
       <path d="M 9.703125 60.015625 
L 9.703125 55 
C 15.203125 55 19 56 23.40625 57.90625 
L 23.40625 5.015625 
L 10.296875 5.015625 
L 10.296875 0 
L 43 0 
L 43 5.015625 
L 29.90625 5.015625 
L 29.90625 67 
C 27.5 67 27.90625 66.359375 26 64.875 
C 21.90625 61.71875 16.203125 60.015625 9.703125 60.015625 
" id="Computer_Modern_Bright-49"/>
      </defs>
      <g style="fill:#262626;" transform="translate(467.204246 324.249603)scale(0.16 -0.16)">
       <use transform="scale(0.996264)" xlink:href="#Computer_Modern_Bright-49"/>
       <use transform="translate(50.643218 0)scale(0.996264)" xlink:href="#Computer_Modern_Bright-48"/>
      </g>
     </g>
    </g>
    <g id="text_8">
     <!-- Predicted Additive Effect -->
     <defs>
      <path d="M 8 70 
L 8 0.5 
L 15 0.5 
L 15 30 
L 29.09375 30 
C 31.296875 30 33.5 30 35.59375 30 
C 43 30.609375 49.203125 33.640625 53.40625 38.171875 
C 57.703125 42.90625 59.59375 50.15625 56.796875 56.296875 
C 53.59375 64.046875 46 68.984375 36.296875 70 
C 33.40625 70 30.40625 70 27.5 70 
z
M 14.90625 35.21875 
L 14.90625 64.671875 
L 28.59375 64.671875 
C 37.296875 64.671875 45.203125 63.671875 49.203125 57.65625 
C 51.90625 53.625 52.296875 48 50.09375 43.671875 
C 48.90625 41.34375 47.09375 39.546875 44.90625 38.234375 
C 40 35.21875 34.296875 35.21875 28.796875 35.21875 
z
" id="Computer_Modern_Bright-80"/>
      <path d="M 12.5 34.75 
L 12.40625 34.75 
L 12.40625 47.390625 
L 6.40625 47.390625 
L 6.40625 0 
L 12.703125 0 
L 12.703125 22.890625 
C 12.703125 24.40625 12.703125 25.90625 12.90625 27.40625 
C 14.296875 35.953125 21.703125 42.28125 31.40625 42.28125 
L 31.40625 48 
C 25 48 19.09375 44.890625 15.296875 39.765625 
C 14.203125 38.265625 13 36.546875 12.5 34.75 
" id="Computer_Modern_Bright-114"/>
      <path d="M 41.796875 10.9375 
C 39.5 9.234375 38.796875 8.328125 35.90625 6.8125 
C 29.796875 3.5 22.59375 3.5 17.40625 7.171875 
C 12.40625 10.765625 9.5 16.640625 9.5 25 
L 42.5 25 
C 42.5 32.421875 40.796875 38.859375 36.59375 43.375 
C 32 47.890625 24.796875 49.296875 18.703125 47.390625 
C 16.40625 46.6875 14.296875 45.484375 12.40625 43.96875 
C 6.09375 38.859375 3.40625 30.71875 3.5 22.78125 
C 3.703125 12.34375 10.796875 1.90625 21.296875 -0.3125 
C 26.796875 -1.421875 32.59375 -0.203125 37.5 2.296875 
C 38.40625 2.796875 41.703125 4.609375 42.09375 5.515625 
C 42.40625 6.015625 41.796875 10.9375 41.796875 10.9375 
M 37.203125 28.90625 
L 10 28.90625 
C 11.203125 36.234375 17.203125 43.96875 25.296875 43.0625 
C 31.90625 42.46875 35.40625 37.75 36.703125 31.828125 
C 36.90625 30.8125 37 29.921875 37.203125 28.90625 
" id="Computer_Modern_Bright-101"/>
      <path d="M 35.59375 69.6875 
L 35.59375 41.375 
C 33.703125 43.484375 31.796875 45.484375 29.203125 46.6875 
C 20.296875 50.40625 11.703125 45.59375 7.296875 37.65625 
C 2.203125 28.21875 2.796875 15.765625 8.90625 6.921875 
C 13.203125 0.796875 20.296875 -2.203125 27.796875 0.5 
C 30.703125 1.609375 34.203125 4.515625 35.40625 7.125 
L 35.5 7.125 
L 35.5 0 
L 41.90625 0 
L 41.90625 69.6875 
z
M 35.203125 37.453125 
C 35.703125 36.546875 35.5 35.34375 35.5 34.34375 
L 35.5 13.65625 
C 35.5 11.34375 35.40625 11.140625 34.09375 9.34375 
C 32.296875 6.625 29.5 4.71875 26.203125 4.421875 
C 21.40625 4.015625 16.5 6.328125 13.703125 10.25 
C 12.09375 12.546875 11.203125 15.359375 10.703125 18.171875 
C 10.5 19.28125 10.5 20.28125 10.40625 21.390625 
C 9.796875 28.015625 11.203125 35.84375 17 40.0625 
C 18 40.765625 19.09375 41.265625 20.203125 41.765625 
C 26 43.984375 32.40625 43.375 35.203125 37.453125 
" id="Computer_Modern_Bright-100"/>
      <path d="M 6.40625 70 
L 6.40625 63.671875 
L 12.703125 63.671875 
L 12.703125 70 
z
M 6.40625 47.390625 
L 6.40625 0 
L 12.703125 0 
L 12.703125 47.390625 
z
" id="Computer_Modern_Bright-105"/>
      <path d="M 42.40625 11.25 
C 40.5 9.84375 38.796875 8.328125 36.703125 7.125 
C 32 4.625 24.796875 3.421875 19.40625 5.921875 
C 11.59375 9.9375 9.5 19.6875 10.59375 27.71875 
C 10.796875 29.328125 11.09375 30.921875 11.59375 32.4375 
C 13.796875 38.96875 19.296875 44.078125 28.296875 43.078125 
C 33.09375 42.671875 35.5 41.875 39.296875 39.765625 
C 40 39.359375 40.59375 38.859375 41.40625 38.65625 
C 41.5 39.859375 41.796875 41.171875 42 42.375 
C 42.296875 43.984375 42.296875 44.1875 40.796875 44.890625 
C 39.703125 45.390625 38.59375 45.984375 37.40625 46.390625 
C 32.796875 48.40625 25.203125 49 20 47.5 
C 12.90625 45.484375 7.59375 39.359375 5.296875 32.53125 
C 4.203125 29.421875 3.90625 26.109375 3.90625 22.796875 
C 4 12.25 11.203125 1.90625 21.703125 -0.203125 
C 27.5 -1.40625 34.203125 0.296875 38.203125 2.40625 
C 39.203125 2.90625 42.203125 4.71875 42.703125 5.625 
C 43 6.125 42.40625 11.25 42.40625 11.25 
" id="Computer_Modern_Bright-99"/>
      <path d="M 10.796875 60.5 
L 10.796875 47.015625 
L 1.09375 47.015625 
L 1.09375 42 
L 10.703125 42 
L 10.703125 15.015625 
C 10.703125 10.578125 10.40625 5.234375 13.296875 1.515625 
C 15 -0.703125 17.296875 -1.296875 20.796875 -1 
C 23.703125 -1 26.59375 -0.390625 29.296875 0.65625 
C 30.203125 1.0625 33.5 2.515625 33.90625 3.234375 
C 34.09375 3.640625 32.796875 8.09375 32.796875 8.09375 
L 30.40625 6.265625 
C 27.296875 4.34375 21.09375 2.328125 18.5 5.96875 
C 16.203125 9.09375 16.796875 13.75 16.796875 17.375 
L 16.796875 42 
L 32.296875 42 
L 32.296875 47.015625 
L 16.796875 47.015625 
L 16.796875 60.5 
z
" id="Computer_Modern_Bright-116"/>
      <path d="M 2.09375 0.09375 
L 6.59375 0.09375 
L 8.40625 0.296875 
C 11.40625 6.796875 13.5 14.203125 16.203125 21 
C 26.09375 21 36.90625 21 46.296875 21 
L 47.09375 19.6875 
C 48.796875 14.546875 50.796875 9.59375 52.59375 4.546875 
C 53.09375 3.015625 53.59375 1.515625 54.40625 0.296875 
C 56.59375 0 59.203125 0 61.59375 0 
C 59.90625 4.90625 36.703125 67.203125 36 68.890625 
C 35.90625 69.296875 35.703125 69.890625 35.203125 70 
C 34.59375 70.09375 34 70 33.40625 70 
L 30.09375 70 
C 28.59375 70 28 70.1875 27.59375 68.609375 
C 27.203125 67.59375 2.09375 0.09375 2.09375 0.09375 
M 31.40625 63.171875 
C 35.59375 50.71875 40.09375 38.46875 44.5 26.21875 
L 18.203125 26.21875 
L 26.90625 50.109375 
z
" id="Computer_Modern_Bright-65"/>
      <path d="M 0.703125 47.5 
C 1.203125 45.5 4.203125 37.578125 4.40625 37.078125 
C 5.40625 34.28125 17.296875 0.609375 17.59375 0.296875 
C 17.90625 -0.203125 18.796875 0 19.296875 0 
L 22.796875 0 
C 24.09375 0 24.90625 -0.296875 25.203125 0.90625 
C 28.40625 9.328125 40.09375 42.703125 41.796875 47.5 
L 35.59375 47.5 
C 30.796875 33.984375 25.90625 20.4375 21.40625 6.609375 
L 11 36.203125 
C 9.5 39.796875 8.59375 43.890625 6.90625 47.203125 
C 5.09375 47.5 2.796875 47.5 0.703125 47.5 
" id="Computer_Modern_Bright-118"/>
      <path d="M 8 69.328125 
L 8 0 
L 55.40625 0 
L 55.40625 5.625 
L 15 5.625 
L 15 33.671875 
L 51.09375 33.671875 
L 51.09375 39 
L 15 39 
L 15 64 
L 54 64 
L 54 69.328125 
z
" id="Computer_Modern_Bright-69"/>
      <path d="M 10.59375 47.015625 
L 2 47.015625 
L 2 42 
L 10.59375 42 
L 10.59375 -0.5 
L 16.90625 -0.5 
L 16.90625 42 
L 29.296875 42 
L 29.296875 47.015625 
L 16.796875 47.015625 
L 16.796875 55.78125 
C 16.796875 57.1875 16.5 58.921875 17.09375 60.328125 
C 19.203125 64.75 26.296875 65.5625 32.09375 64.5625 
C 33.296875 64.359375 34.40625 63.953125 35.59375 63.75 
L 35.59375 69.390625 
C 28.796875 70.5 21.296875 70.5 15.703125 65.921875 
C 14.796875 65.125 14 64.34375 13.296875 63.328125 
C 11.203125 60.75 10.59375 57.875 10.59375 53.390625 
z
M 38.09375 -0.5 
L 44.40625 -0.5 
L 44.40625 42 
L 56.796875 42 
L 56.796875 47.015625 
L 44.296875 47.015625 
L 44.296875 55.78125 
C 44.296875 57.1875 44 58.921875 44.59375 60.328125 
C 46.703125 64.75 53.796875 65.5625 59.59375 64.5625 
C 60.796875 64.359375 61.90625 63.953125 63.09375 63.75 
L 63.09375 69.390625 
C 57.59375 70.09375 51.5 70.796875 46.296875 68.1875 
C 42.203125 65.96875 38.59375 62.25 38.09375 56.609375 
C 38 55.1875 38.09375 53.78125 38.09375 52.375 
z
" id="Computer_Modern_Bright-11"/>
     </defs>
     <g style="fill:#262626;" transform="translate(186.951533 343.359582)scale(0.18 -0.18)">
      <use transform="scale(0.996264)" xlink:href="#Computer_Modern_Bright-80"/>
      <use transform="translate(62.888907 0)scale(0.996264)" xlink:href="#Computer_Modern_Bright-114"/>
      <use transform="translate(94.852266 0)scale(0.996264)" xlink:href="#Computer_Modern_Bright-101"/>
      <use transform="translate(139.683934 0)scale(0.996264)" xlink:href="#Computer_Modern_Bright-100"/>
      <use transform="translate(187.836431 0)scale(0.996264)" xlink:href="#Computer_Modern_Bright-105"/>
      <use transform="translate(206.931389 0)scale(0.996264)" xlink:href="#Computer_Modern_Bright-99"/>
      <use transform="translate(251.763057 0)scale(0.996264)" xlink:href="#Computer_Modern_Bright-116"/>
      <use transform="translate(287.877445 0)scale(0.996264)" xlink:href="#Computer_Modern_Bright-101"/>
      <use transform="translate(332.709113 0)scale(0.996264)" xlink:href="#Computer_Modern_Bright-100"/>
      <use transform="translate(412.326821 0)scale(0.996264)" xlink:href="#Computer_Modern_Bright-65"/>
      <use transform="translate(475.838439 0)scale(0.996264)" xlink:href="#Computer_Modern_Bright-100"/>
      <use transform="translate(523.990936 0)scale(0.996264)" xlink:href="#Computer_Modern_Bright-100"/>
      <use transform="translate(572.143433 0)scale(0.996264)" xlink:href="#Computer_Modern_Bright-105"/>
      <use transform="translate(591.238392 0)scale(0.996264)" xlink:href="#Computer_Modern_Bright-116"/>
      <use transform="translate(627.35278 0)scale(0.996264)" xlink:href="#Computer_Modern_Bright-105"/>
      <use transform="translate(646.447739 0)scale(0.996264)" xlink:href="#Computer_Modern_Bright-118"/>
      <use transform="translate(688.788777 0)scale(0.996264)" xlink:href="#Computer_Modern_Bright-101"/>
      <use transform="translate(765.085656 0)scale(0.996264)" xlink:href="#Computer_Modern_Bright-69"/>
      <use transform="translate(823.823443 0)scale(0.996264)" xlink:href="#Computer_Modern_Bright-11"/>
      <use transform="translate(881.52351 0)scale(0.996264)" xlink:href="#Computer_Modern_Bright-101"/>
      <use transform="translate(926.355178 0)scale(0.996264)" xlink:href="#Computer_Modern_Bright-99"/>
      <use transform="translate(971.186846 0)scale(0.996264)" xlink:href="#Computer_Modern_Bright-116"/>
     </g>
    </g>
   </g>
   <g id="matplotlib.axis_2">
    <g id="ytick_1">
     <g id="line2d_8"/>
     <g id="text_9">
      <!-- $-8$ -->
      <g style="fill:#262626;" transform="translate(26.642062 309.935684)scale(0.16 -0.16)">
       <use transform="scale(0.996264)" xlink:href="#Computer_Modern_Bright_Math_Symbols-0"/>
       <use transform="translate(77.487468 0)scale(0.996264)" xlink:href="#Computer_Modern_Bright-56"/>
      </g>
     </g>
    </g>
    <g id="ytick_2">
     <g id="line2d_9"/>
     <g id="text_10">
      <!-- $-6$ -->
      <g style="fill:#262626;" transform="translate(26.642062 250.151331)scale(0.16 -0.16)">
       <use transform="scale(0.996264)" xlink:href="#Computer_Modern_Bright_Math_Symbols-0"/>
       <use transform="translate(77.487468 0)scale(0.996264)" xlink:href="#Computer_Modern_Bright-54"/>
      </g>
     </g>
    </g>
    <g id="ytick_3">
     <g id="line2d_10"/>
     <g id="text_11">
      <!-- $-4$ -->
      <g style="fill:#262626;" transform="translate(26.642062 190.366978)scale(0.16 -0.16)">
       <use transform="scale(0.996264)" xlink:href="#Computer_Modern_Bright_Math_Symbols-0"/>
       <use transform="translate(77.487468 0)scale(0.996264)" xlink:href="#Computer_Modern_Bright-52"/>
      </g>
     </g>
    </g>
    <g id="ytick_4">
     <g id="line2d_11"/>
     <g id="text_12">
      <!-- $-2$ -->
      <g style="fill:#262626;" transform="translate(26.642062 130.582625)scale(0.16 -0.16)">
       <use transform="scale(0.996264)" xlink:href="#Computer_Modern_Bright_Math_Symbols-0"/>
       <use transform="translate(77.487468 0)scale(0.996264)" xlink:href="#Computer_Modern_Bright-50"/>
      </g>
     </g>
    </g>
    <g id="ytick_5">
     <g id="line2d_12"/>
     <g id="text_13">
      <!-- $0$ -->
      <g style="fill:#262626;" transform="translate(39.040058 70.798272)scale(0.16 -0.16)">
       <use transform="scale(0.996264)" xlink:href="#Computer_Modern_Bright-48"/>
      </g>
     </g>
    </g>
    <g id="text_14">
     <!-- Deviation from Additive Effect -->
     <defs>
      <path d="M 8 70 
L 8 0 
L 28.203125 0 
C 31.40625 0 34.59375 0 37.703125 0.296875 
C 45.703125 1.109375 52.59375 5.015625 57.203125 9.828125 
C 70.09375 23.171875 70 46.125 57.296875 59.671875 
C 52.703125 64.578125 46.5 68.5 38.703125 69.5 
C 34.90625 70 31 70 27.203125 70 
z
M 14.90625 5.3125 
L 14.90625 64.5625 
L 27.796875 64.5625 
C 30.5 64.5625 33.203125 64.5625 35.90625 64.359375 
C 40.40625 63.859375 44.796875 62.359375 48.5 59.734375 
C 56.59375 54.125 60 44.171875 60 34.640625 
C 60 26.609375 57.796875 18.375 51.90625 12.640625 
C 47.90625 8.9375 42.5 6.21875 36 5.515625 
C 33.40625 5.3125 30.703125 5.3125 28.09375 5.3125 
z
" id="Computer_Modern_Bright-68"/>
      <path d="M 7.90625 39.015625 
C 9.59375 39.859375 11 41.09375 12.703125 41.921875 
C 15.40625 43.15625 18.203125 44 21.203125 44 
C 22.59375 44.09375 24.203125 44.296875 25.59375 44 
C 28.09375 43.59375 30.296875 42.078125 31.796875 39.953125 
C 33.296875 37.515625 33.90625 35.390625 33.90625 31.46875 
L 33.90625 27.015625 
C 29.09375 27.015625 24.296875 26.609375 19.703125 25.390625 
C 13.90625 24.078125 7.59375 21.125 5.5 15.84375 
C 3.40625 10.78125 5.59375 4.078125 10.09375 1.03125 
C 12.296875 -0.5 14.90625 -0.5 17.5 -0.296875 
C 21.703125 0 25.90625 1.015625 29.5 3.25 
C 31.203125 4.25 32.90625 5.578125 33.90625 7.296875 
L 34 7.296875 
L 34 0.203125 
L 40.296875 0.203125 
L 40.296875 26.890625 
C 40.296875 29.8125 40.59375 32.953125 40 35.890625 
C 39.40625 39.921875 36.90625 43.265625 34 45.59375 
C 30.59375 48.21875 26.703125 49.109375 21.5 48.71875 
C 16.703125 48.71875 13 47.5 9.40625 45.765625 
C 8.90625 45.5625 7.90625 45.234375 7.59375 44.640625 
C 7.296875 44.21875 7.5 43.515625 7.5 43 
C 7.703125 41.671875 7.796875 40.34375 7.90625 39.015625 
M 33.90625 24 
L 33.90625 16.375 
C 33.90625 14.0625 34 11.953125 32.703125 9.953125 
C 31.59375 8.34375 30.09375 7.234375 28.5 6.4375 
C 22.796875 3.515625 14.09375 4.421875 11.59375 9.25 
C 9.59375 12.75 11.703125 16.875 14.59375 19.1875 
C 18.90625 22.5 27.296875 24 33.90625 24 
" id="Computer_Modern_Bright-97"/>
      <path d="M 10.703125 42.078125 
C 1.796875 33.234375 0.796875 17.875 8.5 7.9375 
C 9.59375 6.421875 10.90625 5.125 12.40625 4.015625 
C 16.09375 1 21.5 -1.203125 27.796875 -0.5 
C 37.796875 0.703125 44.703125 8.84375 46.796875 17.375 
C 49.59375 29.328125 43.703125 42.671875 32.703125 46.890625 
C 24.09375 50.40625 15.5 46.890625 10.703125 42.078125 
M 35.703125 39.359375 
C 40.5 35.03125 41.40625 28.109375 41 21.984375 
C 40.703125 17.265625 39.40625 12.34375 36.09375 8.828125 
C 30.703125 3 20.703125 3 14.90625 8.625 
C 11.90625 11.84375 10.09375 16.453125 9.796875 21.984375 
C 9.296875 30.109375 11.296875 38.75 19.296875 41.96875 
C 25.203125 44.578125 32 42.671875 35.703125 39.359375 
" id="Computer_Modern_Bright-111"/>
      <path d="M 12.59375 37.28125 
L 12.5 37.28125 
L 12.5 47.390625 
L 6.40625 47.390625 
L 6.40625 0 
L 12.796875 0 
L 12.796875 21.9375 
C 12.796875 26.84375 12.5 31.875 14.703125 36.46875 
C 15.796875 38.78125 17.5 40.78125 19.796875 41.984375 
C 21.703125 42.890625 23.703125 42.890625 25.796875 42.6875 
C 28.796875 42.6875 31.703125 41.890625 33.59375 39.375 
C 35.40625 37.0625 35.5 34.0625 35.5 31.25 
L 35.5 0 
L 41.90625 0 
L 41.90625 26.859375 
C 41.90625 31.875 42.40625 37.375 40 41.890625 
C 38.09375 45.5 34.40625 47.203125 30.5 47.703125 
C 28.5 48 26.40625 48 24.40625 47.609375 
C 19.203125 46.5 14.40625 42.296875 12.59375 37.28125 
" id="Computer_Modern_Bright-110"/>
      <path d="M 10.59375 47.015625 
L 2 47.015625 
L 2 42 
L 10.59375 42 
L 10.59375 -0.5 
L 16.90625 -0.5 
L 16.90625 42 
L 29.296875 42 
L 29.296875 47.015625 
L 16.796875 47.015625 
L 16.796875 55.78125 
C 16.796875 57.1875 16.5 58.921875 17.09375 60.328125 
C 19.203125 64.75 26.296875 65.5625 32.09375 64.5625 
C 33.296875 64.359375 34.40625 63.953125 35.59375 63.75 
L 35.59375 69.390625 
C 28.796875 70.5 21.296875 70.5 15.703125 65.921875 
C 14.796875 65.125 14 64.34375 13.296875 63.328125 
C 11.203125 60.75 10.59375 57.875 10.59375 53.390625 
z
" id="Computer_Modern_Bright-102"/>
      <path d="M 12.59375 37.359375 
L 12.5 37.359375 
L 12.5 47.390625 
L 6.40625 47.390625 
L 6.40625 0 
L 12.796875 0 
L 12.796875 22.046875 
C 12.796875 26.953125 12.5 31.875 14.703125 36.375 
C 16.59375 40.28125 19.90625 43.390625 25.796875 42.78125 
C 28.796875 42.78125 31.796875 41.984375 33.703125 39.453125 
C 35.5 37.140625 35.59375 34.140625 35.59375 31.3125 
L 35.59375 0 
L 42 0 
L 42 22.046875 
C 42 26.953125 41.703125 31.875 43.90625 36.375 
C 45.796875 40.28125 49.09375 43.390625 55 42.78125 
C 58 42.78125 61 41.984375 62.90625 39.453125 
C 64.703125 37.140625 64.796875 34.140625 64.796875 31.3125 
L 64.796875 0 
L 71.203125 0 
L 71.203125 26.5625 
C 71.203125 31.375 71.796875 36.78125 69.703125 41.1875 
C 67.59375 45.296875 64.203125 47.5 58.703125 47.5 
C 55.5 47.796875 52.296875 47.3125 49.40625 45.84375 
C 45.90625 43.921875 43.296875 40.75 41.703125 37.265625 
C 41 40.578125 40.203125 42.828125 38 45 
C 35.703125 47.0625 32.59375 48 29.59375 48 
C 22.296875 48.59375 17.703125 45.5625 14.59375 41 
C 13.796875 39.875 13 38.671875 12.59375 37.359375 
" id="Computer_Modern_Bright-109"/>
     </defs>
     <g style="fill:#262626;" transform="translate(19.65327 267.065543)rotate(-90)scale(0.18 -0.18)">
      <use transform="scale(0.996264)" xlink:href="#Computer_Modern_Bright-68"/>
      <use transform="translate(71.606187 0)scale(0.996264)" xlink:href="#Computer_Modern_Bright-101"/>
      <use transform="translate(116.437855 0)scale(0.996264)" xlink:href="#Computer_Modern_Bright-118"/>
      <use transform="translate(158.778893 0)scale(0.996264)" xlink:href="#Computer_Modern_Bright-105"/>
      <use transform="translate(177.873851 0)scale(0.996264)" xlink:href="#Computer_Modern_Bright-97"/>
      <use transform="translate(224.365934 0)scale(0.996264)" xlink:href="#Computer_Modern_Bright-116"/>
      <use transform="translate(260.480322 0)scale(0.996264)" xlink:href="#Computer_Modern_Bright-105"/>
      <use transform="translate(279.57528 0)scale(0.996264)" xlink:href="#Computer_Modern_Bright-111"/>
      <use transform="translate(330.218498 0)scale(0.996264)" xlink:href="#Computer_Modern_Bright-110"/>
      <use transform="translate(409.836207 0)scale(0.996264)" xlink:href="#Computer_Modern_Bright-102"/>
      <use transform="translate(440.139151 0)scale(0.996264)" xlink:href="#Computer_Modern_Bright-114"/>
      <use transform="translate(472.10251 0)scale(0.996264)" xlink:href="#Computer_Modern_Bright-111"/>
      <use transform="translate(522.745728 0)scale(0.996264)" xlink:href="#Computer_Modern_Bright-109"/>
      <use transform="translate(631.421066 0)scale(0.996264)" xlink:href="#Computer_Modern_Bright-65"/>
      <use transform="translate(694.932683 0)scale(0.996264)" xlink:href="#Computer_Modern_Bright-100"/>
      <use transform="translate(743.08518 0)scale(0.996264)" xlink:href="#Computer_Modern_Bright-100"/>
      <use transform="translate(791.237677 0)scale(0.996264)" xlink:href="#Computer_Modern_Bright-105"/>
      <use transform="translate(810.332636 0)scale(0.996264)" xlink:href="#Computer_Modern_Bright-116"/>
      <use transform="translate(846.447024 0)scale(0.996264)" xlink:href="#Computer_Modern_Bright-105"/>
      <use transform="translate(865.541983 0)scale(0.996264)" xlink:href="#Computer_Modern_Bright-118"/>
      <use transform="translate(907.883021 0)scale(0.996264)" xlink:href="#Computer_Modern_Bright-101"/>
      <use transform="translate(984.1799 0)scale(0.996264)" xlink:href="#Computer_Modern_Bright-69"/>
      <use transform="translate(1042.917687 0)scale(0.996264)" xlink:href="#Computer_Modern_Bright-11"/>
      <use transform="translate(1100.617755 0)scale(0.996264)" xlink:href="#Computer_Modern_Bright-101"/>
      <use transform="translate(1145.449422 0)scale(0.996264)" xlink:href="#Computer_Modern_Bright-99"/>
      <use transform="translate(1190.28109 0)scale(0.996264)" xlink:href="#Computer_Modern_Bright-116"/>
     </g>
    </g>
   </g>
   <g id="PathCollection_1">
    <path clip-path="url(#pd582bddb52)" d="M 149.643405 99.025363 
C 150.313265 99.025363 150.955779 98.759225 151.429441 98.285563 
C 151.903104 97.8119 152.169242 97.169386 152.169242 96.499527 
C 152.169242 95.829667 151.903104 95.187153 151.429441 94.713491 
C 150.955779 94.239828 150.313265 93.97369 149.643405 93.97369 
C 148.973546 93.97369 148.331031 94.239828 147.857369 94.713491 
C 147.383707 95.187153 147.117569 95.829667 147.117569 96.499527 
C 147.117569 97.169386 147.383707 97.8119 147.857369 98.285563 
C 148.331031 98.759225 148.973546 99.025363 149.643405 99.025363 
z
" style="fill:#33a02c;fill-opacity:0.9;stroke:#33a02c;stroke-opacity:0.9;stroke-width:0.3;"/>
    <path clip-path="url(#pd582bddb52)" d="M 220.224732 111.193641 
C 221.079421 111.193641 221.899218 110.85407 222.503574 110.249714 
C 223.10793 109.645358 223.447501 108.825561 223.447501 107.970872 
C 223.447501 107.116184 223.10793 106.296387 222.503574 105.692031 
C 221.899218 105.087675 221.079421 104.748104 220.224732 104.748104 
C 219.370044 104.748104 218.550246 105.087675 217.945891 105.692031 
C 217.341535 106.296387 217.001964 107.116184 217.001964 107.970872 
C 217.001964 108.825561 217.341535 109.645358 217.945891 110.249714 
C 218.550246 110.85407 219.370044 111.193641 220.224732 111.193641 
z
" style="fill:#33a02c;fill-opacity:0.9;stroke:#33a02c;stroke-opacity:0.9;stroke-width:0.3;"/>
    <path clip-path="url(#pd582bddb52)" d="M 123.820506 56.012178 
C 125.118688 56.012178 126.363873 55.496406 127.281826 54.578453 
C 128.199779 53.6605 128.715552 52.415314 128.715552 51.117133 
C 128.715552 49.818952 128.199779 48.573766 127.281826 47.655814 
C 126.363873 46.737861 125.118688 46.222088 123.820506 46.222088 
C 122.522325 46.222088 121.27714 46.737861 120.359187 47.655814 
C 119.441234 48.573766 118.925461 49.818952 118.925461 51.117133 
C 118.925461 52.415314 119.441234 53.6605 120.359187 54.578453 
C 121.27714 55.496406 122.522325 56.012178 123.820506 56.012178 
z
" style="fill:#33a02c;fill-opacity:0.9;stroke:#33a02c;stroke-opacity:0.9;stroke-width:0.3;"/>
    <path clip-path="url(#pd582bddb52)" d="M 120.661938 56.287733 
C 121.858379 56.287733 123.005978 55.812382 123.85199 54.966371 
C 124.698001 54.120359 125.173352 52.97276 125.173352 51.776319 
C 125.173352 50.579878 124.698001 49.43228 123.85199 48.586268 
C 123.005978 47.740256 121.858379 47.264905 120.661938 47.264905 
C 119.465498 47.264905 118.317899 47.740256 117.471887 48.586268 
C 116.625876 49.43228 116.150525 50.579878 116.150525 51.776319 
C 116.150525 52.97276 116.625876 54.120359 117.471887 54.966371 
C 118.317899 55.812382 119.465498 56.287733 120.661938 56.287733 
z
" style="fill:#33a02c;fill-opacity:0.9;stroke:#33a02c;stroke-opacity:0.9;stroke-width:0.3;"/>
    <path clip-path="url(#pd582bddb52)" d="M 166.977582 75.516581 
C 168.403876 75.516581 169.771944 74.949909 170.780486 73.941367 
C 171.789027 72.932825 172.3557 71.564757 172.3557 70.138463 
C 172.3557 68.71217 171.789027 67.344101 170.780486 66.33556 
C 169.771944 65.327018 168.403876 64.760345 166.977582 64.760345 
C 165.551288 64.760345 164.18322 65.327018 163.174678 66.33556 
C 162.166137 67.344101 161.599464 68.71217 161.599464 70.138463 
C 161.599464 71.564757 162.166137 72.932825 163.174678 73.941367 
C 164.18322 74.949909 165.551288 75.516581 166.977582 75.516581 
z
" style="fill:#33a02c;fill-opacity:0.9;stroke:#33a02c;stroke-opacity:0.9;stroke-width:0.3;"/>
    <path clip-path="url(#pd582bddb52)" d="M 420.026624 216.615453 
C 420.807334 216.615453 421.556173 216.305274 422.108219 215.753228 
C 422.660264 215.201183 422.970444 214.452344 422.970444 213.671633 
C 422.970444 212.890923 422.660264 212.142084 422.108219 211.590038 
C 421.556173 211.037993 420.807334 210.727813 420.026624 210.727813 
C 419.245914 210.727813 418.497074 211.037993 417.945029 211.590038 
C 417.392983 212.142084 417.082804 212.890923 417.082804 213.671633 
C 417.082804 214.452344 417.392983 215.201183 417.945029 215.753228 
C 418.497074 216.305274 419.245914 216.615453 420.026624 216.615453 
z
" style="fill:#33a02c;fill-opacity:0.9;stroke:#33a02c;stroke-opacity:0.9;stroke-width:0.3;"/>
    <path clip-path="url(#pd582bddb52)" d="M 205.091138 98.4586 
C 206.412415 98.4586 207.679754 97.933651 208.614039 96.999367 
C 209.548323 96.065082 210.073272 94.797743 210.073272 93.476466 
C 210.073272 92.155188 209.548323 90.887849 208.614039 89.953565 
C 207.679754 89.01928 206.412415 88.494331 205.091138 88.494331 
C 203.76986 88.494331 202.502521 89.01928 201.568237 89.953565 
C 200.633952 90.887849 200.109003 92.155188 200.109003 93.476466 
C 200.109003 94.797743 200.633952 96.065082 201.568237 96.999367 
C 202.502521 97.933651 203.76986 98.4586 205.091138 98.4586 
z
" style="fill:#33a02c;fill-opacity:0.9;stroke:#33a02c;stroke-opacity:0.9;stroke-width:0.3;"/>
    <path clip-path="url(#pd582bddb52)" d="M 147.737005 85.917729 
C 148.831227 85.917729 149.88078 85.48299 150.654512 84.709258 
C 151.428243 83.935526 151.862982 82.885973 151.862982 81.791751 
C 151.862982 80.697529 151.428243 79.647976 150.654512 78.874244 
C 149.88078 78.100512 148.831227 77.665773 147.737005 77.665773 
C 146.642783 77.665773 145.59323 78.100512 144.819498 78.874244 
C 144.045766 79.647976 143.611027 80.697529 143.611027 81.791751 
C 143.611027 82.885973 144.045766 83.935526 144.819498 84.709258 
C 145.59323 85.48299 146.642783 85.917729 147.737005 85.917729 
z
" style="fill:#33a02c;fill-opacity:0.9;stroke:#33a02c;stroke-opacity:0.9;stroke-width:0.3;"/>
    <path clip-path="url(#pd582bddb52)" d="M 303.694973 183.068934 
C 304.756887 183.068934 305.775451 182.647031 306.526337 181.896144 
C 307.277224 181.145258 307.699127 180.126694 307.699127 179.06478 
C 307.699127 178.002866 307.277224 176.984302 306.526337 176.233415 
C 305.775451 175.482528 304.756887 175.060626 303.694973 175.060626 
C 302.633059 175.060626 301.614495 175.482528 300.863608 176.233415 
C 300.112722 176.984302 299.690819 178.002866 299.690819 179.06478 
C 299.690819 180.126694 300.112722 181.145258 300.863608 181.896144 
C 301.614495 182.647031 302.633059 183.068934 303.694973 183.068934 
z
" style="fill:#33a02c;fill-opacity:0.9;stroke:#33a02c;stroke-opacity:0.9;stroke-width:0.3;"/>
    <path clip-path="url(#pd582bddb52)" d="M 212.165097 84.149651 
C 213.101607 84.149651 213.999885 83.777572 214.662097 83.11536 
C 215.324309 82.453148 215.696388 81.554869 215.696388 80.61836 
C 215.696388 79.681851 215.324309 78.783572 214.662097 78.12136 
C 213.999885 77.459148 213.101607 77.087069 212.165097 77.087069 
C 211.228588 77.087069 210.33031 77.459148 209.668098 78.12136 
C 209.005886 78.783572 208.633807 79.681851 208.633807 80.61836 
C 208.633807 81.554869 209.005886 82.453148 209.668098 83.11536 
C 210.33031 83.777572 211.228588 84.149651 212.165097 84.149651 
z
" style="fill:#33a02c;fill-opacity:0.9;stroke:#33a02c;stroke-opacity:0.9;stroke-width:0.3;"/>
    <path clip-path="url(#pd582bddb52)" d="M 218.45634 104.34292 
C 219.229446 104.34292 219.970991 104.035762 220.51766 103.489093 
C 221.064328 102.942425 221.371486 102.20088 221.371486 101.427774 
C 221.371486 100.654668 221.064328 99.913123 220.51766 99.366455 
C 219.970991 98.819787 219.229446 98.512628 218.45634 98.512628 
C 217.683235 98.512628 216.941689 98.819787 216.395021 99.366455 
C 215.848353 99.913123 215.541195 100.654668 215.541195 101.427774 
C 215.541195 102.20088 215.848353 102.942425 216.395021 103.489093 
C 216.941689 104.035762 217.683235 104.34292 218.45634 104.34292 
z
" style="fill:#33a02c;fill-opacity:0.9;stroke:#33a02c;stroke-opacity:0.9;stroke-width:0.3;"/>
    <path clip-path="url(#pd582bddb52)" d="M 185.958509 112.800258 
C 187.370731 112.800258 188.725303 112.239176 189.723894 111.240584 
C 190.722486 110.241993 191.283568 108.887421 191.283568 107.475199 
C 191.283568 106.062977 190.722486 104.708406 189.723894 103.709814 
C 188.725303 102.711222 187.370731 102.15014 185.958509 102.15014 
C 184.546287 102.15014 183.191716 102.711222 182.193124 103.709814 
C 181.194532 104.708406 180.63345 106.062977 180.63345 107.475199 
C 180.63345 108.887421 181.194532 110.241993 182.193124 111.240584 
C 183.191716 112.239176 184.546287 112.800258 185.958509 112.800258 
z
" style="fill:#33a02c;fill-opacity:0.9;stroke:#33a02c;stroke-opacity:0.9;stroke-width:0.3;"/>
    <path clip-path="url(#pd582bddb52)" d="M 262.854096 130.964469 
C 263.589814 130.964469 264.295497 130.672166 264.815728 130.151935 
C 265.335959 129.631704 265.628262 128.926021 265.628262 128.190303 
C 265.628262 127.454586 265.335959 126.748902 264.815728 126.228671 
C 264.295497 125.708441 263.589814 125.416137 262.854096 125.416137 
C 262.118379 125.416137 261.412695 125.708441 260.892465 126.228671 
C 260.372234 126.748902 260.07993 127.454586 260.07993 128.190303 
C 260.07993 128.926021 260.372234 129.631704 260.892465 130.151935 
C 261.412695 130.672166 262.118379 130.964469 262.854096 130.964469 
z
" style="fill:#33a02c;fill-opacity:0.9;stroke:#33a02c;stroke-opacity:0.9;stroke-width:0.3;"/>
    <path clip-path="url(#pd582bddb52)" d="M 96.241941 43.413248 
C 97.267713 43.413248 98.251611 43.005704 98.976941 42.280374 
C 99.702272 41.555043 100.109815 40.571146 100.109815 39.545374 
C 100.109815 38.519602 99.702272 37.535704 98.976941 36.810374 
C 98.251611 36.085043 97.267713 35.6775 96.241941 35.6775 
C 95.216169 35.6775 94.232272 36.085043 93.506941 36.810374 
C 92.781611 37.535704 92.374067 38.519602 92.374067 39.545374 
C 92.374067 40.571146 92.781611 41.555043 93.506941 42.280374 
C 94.232272 43.005704 95.216169 43.413248 96.241941 43.413248 
z
" style="fill:#33a02c;fill-opacity:0.9;stroke:#33a02c;stroke-opacity:0.9;stroke-width:0.3;"/>
    <path clip-path="url(#pd582bddb52)" d="M 119.366128 28.652688 
C 120.474012 28.652688 121.536669 28.212521 122.320062 27.429129 
C 123.103454 26.645736 123.543621 25.583079 123.543621 24.475195 
C 123.543621 23.367311 123.103454 22.304653 122.320062 21.521261 
C 121.536669 20.737868 120.474012 20.297701 119.366128 20.297701 
C 118.258244 20.297701 117.195586 20.737868 116.412194 21.521261 
C 115.628801 22.304653 115.188634 23.367311 115.188634 24.475195 
C 115.188634 25.583079 115.628801 26.645736 116.412194 27.429129 
C 117.195586 28.212521 118.258244 28.652688 119.366128 28.652688 
z
" style="fill:#33a02c;fill-opacity:0.9;stroke:#33a02c;stroke-opacity:0.9;stroke-width:0.3;"/>
    <path clip-path="url(#pd582bddb52)" d="M 90.98483 53.487867 
C 92.14204 53.487867 93.25201 53.028103 94.070281 52.209832 
C 94.888552 51.391561 95.348316 50.281591 95.348316 49.124382 
C 95.348316 47.967172 94.888552 46.857202 94.070281 46.038931 
C 93.25201 45.22066 92.14204 44.760896 90.98483 44.760896 
C 89.82762 44.760896 88.717651 45.22066 87.89938 46.038931 
C 87.081109 46.857202 86.621345 47.967172 86.621345 49.124382 
C 86.621345 50.281591 87.081109 51.391561 87.89938 52.209832 
C 88.717651 53.028103 89.82762 53.487867 90.98483 53.487867 
z
" style="fill:#33a02c;fill-opacity:0.9;stroke:#33a02c;stroke-opacity:0.9;stroke-width:0.3;"/>
    <path clip-path="url(#pd582bddb52)" d="M 250.658639 195.127778 
C 251.471941 195.127778 252.252041 194.80465 252.827132 194.229559 
C 253.402223 193.654468 253.725351 192.874367 253.725351 192.061066 
C 253.725351 191.247764 253.402223 190.467664 252.827132 189.892572 
C 252.252041 189.317481 251.471941 188.994353 250.658639 188.994353 
C 249.845337 188.994353 249.065237 189.317481 248.490146 189.892572 
C 247.915055 190.467664 247.591927 191.247764 247.591927 192.061066 
C 247.591927 192.874367 247.915055 193.654468 248.490146 194.229559 
C 249.065237 194.80465 249.845337 195.127778 250.658639 195.127778 
z
" style="fill:#33a02c;fill-opacity:0.9;stroke:#33a02c;stroke-opacity:0.9;stroke-width:0.3;"/>
    <path clip-path="url(#pd582bddb52)" d="M 114.718902 51.091632 
C 115.755523 51.091632 116.749827 50.679778 117.482828 49.946776 
C 118.21583 49.213775 118.627684 48.219471 118.627684 47.18285 
C 118.627684 46.146229 118.21583 45.151926 117.482828 44.418924 
C 116.749827 43.685922 115.755523 43.274069 114.718902 43.274069 
C 113.682281 43.274069 112.687978 43.685922 111.954976 44.418924 
C 111.221974 45.151926 110.81012 46.146229 110.81012 47.18285 
C 110.81012 48.219471 111.221974 49.213775 111.954976 49.946776 
C 112.687978 50.679778 113.682281 51.091632 114.718902 51.091632 
z
" style="fill:#33a02c;fill-opacity:0.9;stroke:#33a02c;stroke-opacity:0.9;stroke-width:0.3;"/>
    <path clip-path="url(#pd582bddb52)" d="M 95.270285 41.058168 
C 96.134113 41.058168 96.962678 40.714965 97.573498 40.104146 
C 98.184317 39.493327 98.52752 38.664762 98.52752 37.800933 
C 98.52752 36.937104 98.184317 36.108539 97.573498 35.49772 
C 96.962678 34.886901 96.134113 34.543698 95.270285 34.543698 
C 94.406456 34.543698 93.577891 34.886901 92.967072 35.49772 
C 92.356252 36.108539 92.01305 36.937104 92.01305 37.800933 
C 92.01305 38.664762 92.356252 39.493327 92.967072 40.104146 
C 93.577891 40.714965 94.406456 41.058168 95.270285 41.058168 
z
" style="fill:#33a02c;fill-opacity:0.9;stroke:#33a02c;stroke-opacity:0.9;stroke-width:0.3;"/>
    <path clip-path="url(#pd582bddb52)" d="M 106.908928 40.957922 
C 108.162638 40.957922 109.365169 40.459817 110.251676 39.57331 
C 111.138183 38.686803 111.636288 37.484272 111.636288 36.230562 
C 111.636288 34.976851 111.138183 33.774321 110.251676 32.887813 
C 109.365169 32.001306 108.162638 31.503202 106.908928 31.503202 
C 105.655217 31.503202 104.452687 32.001306 103.566179 32.887813 
C 102.679672 33.774321 102.181568 34.976851 102.181568 36.230562 
C 102.181568 37.484272 102.679672 38.686803 103.566179 39.57331 
C 104.452687 40.459817 105.655217 40.957922 106.908928 40.957922 
z
" style="fill:#33a02c;fill-opacity:0.9;stroke:#33a02c;stroke-opacity:0.9;stroke-width:0.3;"/>
    <path clip-path="url(#pd582bddb52)" d="M 195.37596 101.031466 
C 196.549439 101.031466 197.675012 100.565238 198.504786 99.735464 
C 199.334561 98.905689 199.800789 97.780116 199.800789 96.606638 
C 199.800789 95.433159 199.334561 94.307586 198.504786 93.477812 
C 197.675012 92.648037 196.549439 92.181809 195.37596 92.181809 
C 194.202482 92.181809 193.076909 92.648037 192.247134 93.477812 
C 191.41736 94.307586 190.951132 95.433159 190.951132 96.606638 
C 190.951132 97.780116 191.41736 98.905689 192.247134 99.735464 
C 193.076909 100.565238 194.202482 101.031466 195.37596 101.031466 
z
" style="fill:#33a02c;fill-opacity:0.9;stroke:#33a02c;stroke-opacity:0.9;stroke-width:0.3;"/>
    <path clip-path="url(#pd582bddb52)" d="M 140.997359 53.025873 
C 142.329624 53.025873 143.607503 52.496558 144.549557 51.554504 
C 145.491611 50.61245 146.020926 49.334571 146.020926 48.002306 
C 146.020926 46.67004 145.491611 45.392161 144.549557 44.450107 
C 143.607503 43.508053 142.329624 42.978739 140.997359 42.978739 
C 139.665093 42.978739 138.387214 43.508053 137.44516 44.450107 
C 136.503106 45.392161 135.973792 46.67004 135.973792 48.002306 
C 135.973792 49.334571 136.503106 50.61245 137.44516 51.554504 
C 138.387214 52.496558 139.665093 53.025873 140.997359 53.025873 
z
" style="fill:#33a02c;fill-opacity:0.9;stroke:#33a02c;stroke-opacity:0.9;stroke-width:0.3;"/>
    <path clip-path="url(#pd582bddb52)" d="M 227.743723 115.899347 
C 228.513944 115.899347 229.252722 115.593335 229.797351 115.048707 
C 230.34198 114.504078 230.647992 113.7653 230.647992 112.995079 
C 230.647992 112.224858 230.34198 111.486079 229.797351 110.941451 
C 229.252722 110.396822 228.513944 110.09081 227.743723 110.09081 
C 226.973502 110.09081 226.234723 110.396822 225.690095 110.941451 
C 225.145466 111.486079 224.839454 112.224858 224.839454 112.995079 
C 224.839454 113.7653 225.145466 114.504078 225.690095 115.048707 
C 226.234723 115.593335 226.973502 115.899347 227.743723 115.899347 
z
" style="fill:#33a02c;fill-opacity:0.9;stroke:#33a02c;stroke-opacity:0.9;stroke-width:0.3;"/>
    <path clip-path="url(#pd582bddb52)" d="M 280.90531 218.647468 
C 282.200205 218.647468 283.442238 218.133001 284.357867 217.217372 
C 285.273496 216.301743 285.787963 215.059709 285.787963 213.764815 
C 285.787963 212.46992 285.273496 211.227886 284.357867 210.312257 
C 283.442238 209.396628 282.200205 208.882161 280.90531 208.882161 
C 279.610415 208.882161 278.368382 209.396628 277.452753 210.312257 
C 276.537124 211.227886 276.022657 212.46992 276.022657 213.764815 
C 276.022657 215.059709 276.537124 216.301743 277.452753 217.217372 
C 278.368382 218.133001 279.610415 218.647468 280.90531 218.647468 
z
" style="fill:#33a02c;fill-opacity:0.9;stroke:#33a02c;stroke-opacity:0.9;stroke-width:0.3;"/>
    <path clip-path="url(#pd582bddb52)" d="M 203.08898 93.433567 
C 203.9468 93.433567 204.769601 93.092752 205.376172 92.486181 
C 205.982743 91.879611 206.323558 91.056809 206.323558 90.198989 
C 206.323558 89.341168 205.982743 88.518367 205.376172 87.911796 
C 204.769601 87.305226 203.9468 86.96441 203.08898 86.96441 
C 202.231159 86.96441 201.408358 87.305226 200.801787 87.911796 
C 200.195217 88.518367 199.854401 89.341168 199.854401 90.198989 
C 199.854401 91.056809 200.195217 91.879611 200.801787 92.486181 
C 201.408358 93.092752 202.231159 93.433567 203.08898 93.433567 
z
" style="fill:#33a02c;fill-opacity:0.9;stroke:#33a02c;stroke-opacity:0.9;stroke-width:0.3;"/>
    <path clip-path="url(#pd582bddb52)" d="M 216.399859 105.077963 
C 217.386896 105.077963 218.33364 104.685809 219.03158 103.987869 
C 219.729521 103.289928 220.121675 102.343185 220.121675 101.356148 
C 220.121675 100.369111 219.729521 99.422367 219.03158 98.724426 
C 218.33364 98.026486 217.386896 97.634332 216.399859 97.634332 
C 215.412822 97.634332 214.466079 98.026486 213.768138 98.724426 
C 213.070197 99.422367 212.678043 100.369111 212.678043 101.356148 
C 212.678043 102.343185 213.070197 103.289928 213.768138 103.987869 
C 214.466079 104.685809 215.412822 105.077963 216.399859 105.077963 
z
" style="fill:#33a02c;fill-opacity:0.9;stroke:#33a02c;stroke-opacity:0.9;stroke-width:0.3;"/>
    <path clip-path="url(#pd582bddb52)" d="M 216.399859 105.077963 
C 217.386896 105.077963 218.33364 104.685809 219.03158 103.987869 
C 219.729521 103.289928 220.121675 102.343185 220.121675 101.356148 
C 220.121675 100.369111 219.729521 99.422367 219.03158 98.724426 
C 218.33364 98.026486 217.386896 97.634332 216.399859 97.634332 
C 215.412822 97.634332 214.466079 98.026486 213.768138 98.724426 
C 213.070197 99.422367 212.678043 100.369111 212.678043 101.356148 
C 212.678043 102.343185 213.070197 103.289928 213.768138 103.987869 
C 214.466079 104.685809 215.412822 105.077963 216.399859 105.077963 
z
" style="fill:#33a02c;fill-opacity:0.9;stroke:#33a02c;stroke-opacity:0.9;stroke-width:0.3;"/>
    <path clip-path="url(#pd582bddb52)" d="M 464.232387 174.944468 
C 464.636124 174.944468 465.02338 174.784061 465.308866 174.498576 
C 465.594351 174.21309 465.754758 173.825834 465.754758 173.422097 
C 465.754758 173.018359 465.594351 172.631104 465.308866 172.345618 
C 465.02338 172.060132 464.636124 171.899726 464.232387 171.899726 
C 463.828649 171.899726 463.441394 172.060132 463.155908 172.345618 
C 462.870423 172.631104 462.710016 173.018359 462.710016 173.422097 
C 462.710016 173.825834 462.870423 174.21309 463.155908 174.498576 
C 463.441394 174.784061 463.828649 174.944468 464.232387 174.944468 
z
" style="fill:#33a02c;fill-opacity:0.9;stroke:#33a02c;stroke-opacity:0.9;stroke-width:0.3;"/>
    <path clip-path="url(#pd582bddb52)" d="M 254.910842 141.599483 
C 255.705749 141.599483 256.468206 141.283663 257.030291 140.721578 
C 257.592375 140.159494 257.908195 139.397037 257.908195 138.60213 
C 257.908195 137.807222 257.592375 137.044766 257.030291 136.482681 
C 256.468206 135.920597 255.705749 135.604777 254.910842 135.604777 
C 254.115935 135.604777 253.353478 135.920597 252.791393 136.482681 
C 252.229309 137.044766 251.913489 137.807222 251.913489 138.60213 
C 251.913489 139.397037 252.229309 140.159494 252.791393 140.721578 
C 253.353478 141.283663 254.115935 141.599483 254.910842 141.599483 
z
" style="fill:#33a02c;fill-opacity:0.9;stroke:#33a02c;stroke-opacity:0.9;stroke-width:0.3;"/>
    <path clip-path="url(#pd582bddb52)" d="M 102.340641 45.490425 
C 103.723803 45.490425 105.050501 44.940889 106.028545 43.962845 
C 107.006588 42.984802 107.556124 41.658104 107.556124 40.274942 
C 107.556124 38.891779 107.006588 37.565082 106.028545 36.587038 
C 105.050501 35.608995 103.723803 35.059459 102.340641 35.059459 
C 100.957479 35.059459 99.630781 35.608995 98.652738 36.587038 
C 97.674694 37.565082 97.125158 38.891779 97.125158 40.274942 
C 97.125158 41.658104 97.674694 42.984802 98.652738 43.962845 
C 99.630781 44.940889 100.957479 45.490425 102.340641 45.490425 
z
" style="fill:#33a02c;fill-opacity:0.9;stroke:#33a02c;stroke-opacity:0.9;stroke-width:0.3;"/>
    <path clip-path="url(#pd582bddb52)" d="M 274.039011 153.456565 
C 274.744952 153.456565 275.422074 153.176092 275.92125 152.676916 
C 276.420426 152.17774 276.700899 151.500618 276.700899 150.794677 
C 276.700899 150.088736 276.420426 149.411613 275.92125 148.912438 
C 275.422074 148.413262 274.744952 148.132789 274.039011 148.132789 
C 273.33307 148.132789 272.655947 148.413262 272.156772 148.912438 
C 271.657596 149.411613 271.377123 150.088736 271.377123 150.794677 
C 271.377123 151.500618 271.657596 152.17774 272.156772 152.676916 
C 272.655947 153.176092 273.33307 153.456565 274.039011 153.456565 
z
" style="fill:#33a02c;fill-opacity:0.9;stroke:#33a02c;stroke-opacity:0.9;stroke-width:0.3;"/>
    <path clip-path="url(#pd582bddb52)" d="M 247.714163 148.498662 
C 249.08304 148.498662 250.396036 147.954801 251.363978 146.986859 
C 252.33192 146.018917 252.87578 144.705921 252.87578 143.337044 
C 252.87578 141.968167 252.33192 140.655172 251.363978 139.68723 
C 250.396036 138.719288 249.08304 138.175427 247.714163 138.175427 
C 246.345286 138.175427 245.03229 138.719288 244.064348 139.68723 
C 243.096406 140.655172 242.552546 141.968167 242.552546 143.337044 
C 242.552546 144.705921 243.096406 146.018917 244.064348 146.986859 
C 245.03229 147.954801 246.345286 148.498662 247.714163 148.498662 
z
" style="fill:#33a02c;fill-opacity:0.9;stroke:#33a02c;stroke-opacity:0.9;stroke-width:0.3;"/>
    <path clip-path="url(#pd582bddb52)" d="M 220.318767 106.83674 
C 221.163911 106.83674 221.974555 106.500961 222.572162 105.903353 
C 223.169769 105.305746 223.505549 104.495103 223.505549 103.649958 
C 223.505549 102.804814 223.169769 101.994171 222.572162 101.396563 
C 221.974555 100.798956 221.163911 100.463177 220.318767 100.463177 
C 219.473623 100.463177 218.662979 100.798956 218.065372 101.396563 
C 217.467765 101.994171 217.131985 102.804814 217.131985 103.649958 
C 217.131985 104.495103 217.467765 105.305746 218.065372 105.903353 
C 218.662979 106.500961 219.473623 106.83674 220.318767 106.83674 
z
" style="fill:#33a02c;fill-opacity:0.9;stroke:#33a02c;stroke-opacity:0.9;stroke-width:0.3;"/>
    <path clip-path="url(#pd582bddb52)" d="M 175.014789 76.256564 
C 176.193706 76.256564 177.324495 75.788176 178.158115 74.954556 
C 178.991734 74.120937 179.460123 72.990147 179.460123 71.811231 
C 179.460123 70.632315 178.991734 69.501525 178.158115 68.667906 
C 177.324495 67.834286 176.193706 67.365898 175.014789 67.365898 
C 173.835873 67.365898 172.705084 67.834286 171.871464 68.667906 
C 171.037844 69.501525 170.569456 70.632315 170.569456 71.811231 
C 170.569456 72.990147 171.037844 74.120937 171.871464 74.954556 
C 172.705084 75.788176 173.835873 76.256564 175.014789 76.256564 
z
" style="fill:#33a02c;fill-opacity:0.9;stroke:#33a02c;stroke-opacity:0.9;stroke-width:0.3;"/>
    <path clip-path="url(#pd582bddb52)" d="M 168.927524 75.076456 
C 170.339696 75.076456 171.694219 74.515394 172.692775 73.516838 
C 173.691331 72.518282 174.252393 71.163759 174.252393 69.751587 
C 174.252393 68.339416 173.691331 66.984893 172.692775 65.986337 
C 171.694219 64.987781 170.339696 64.426719 168.927524 64.426719 
C 167.515353 64.426719 166.16083 64.987781 165.162274 65.986337 
C 164.163718 66.984893 163.602656 68.339416 163.602656 69.751587 
C 163.602656 71.163759 164.163718 72.518282 165.162274 73.516838 
C 166.16083 74.515394 167.515353 75.076456 168.927524 75.076456 
z
" style="fill:#33a02c;fill-opacity:0.9;stroke:#33a02c;stroke-opacity:0.9;stroke-width:0.3;"/>
    <path clip-path="url(#pd582bddb52)" d="M 250.055967 113.25746 
C 251.160527 113.25746 252.219996 112.818614 253.001038 112.037572 
C 253.78208 111.25653 254.220926 110.197061 254.220926 109.092501 
C 254.220926 107.987941 253.78208 106.928472 253.001038 106.14743 
C 252.219996 105.366389 251.160527 104.927542 250.055967 104.927542 
C 248.951407 104.927542 247.891938 105.366389 247.110896 106.14743 
C 246.329855 106.928472 245.891008 107.987941 245.891008 109.092501 
C 245.891008 110.197061 246.329855 111.25653 247.110896 112.037572 
C 247.891938 112.818614 248.951407 113.25746 250.055967 113.25746 
z
" style="fill:#33a02c;fill-opacity:0.9;stroke:#33a02c;stroke-opacity:0.9;stroke-width:0.3;"/>
    <path clip-path="url(#pd582bddb52)" d="M 223.998101 194.484773 
C 224.745057 194.484773 225.46152 194.188004 225.989698 193.659826 
C 226.517876 193.131649 226.814645 192.415185 226.814645 191.668229 
C 226.814645 190.921273 226.517876 190.20481 225.989698 189.676632 
C 225.46152 189.148454 224.745057 188.851685 223.998101 188.851685 
C 223.251145 188.851685 222.534681 189.148454 222.006504 189.676632 
C 221.478326 190.20481 221.181557 190.921273 221.181557 191.668229 
C 221.181557 192.415185 221.478326 193.131649 222.006504 193.659826 
C 222.534681 194.188004 223.251145 194.484773 223.998101 194.484773 
z
" style="fill:#33a02c;fill-opacity:0.9;stroke:#33a02c;stroke-opacity:0.9;stroke-width:0.3;"/>
    <path clip-path="url(#pd582bddb52)" d="M 244.608511 101.869827 
C 245.334326 101.869827 246.030512 101.581458 246.54374 101.068229 
C 247.056969 100.555 247.345338 99.858815 247.345338 99.133 
C 247.345338 98.407185 247.056969 97.711 246.54374 97.197771 
C 246.030512 96.684543 245.334326 96.396173 244.608511 96.396173 
C 243.882697 96.396173 243.186511 96.684543 242.673283 97.197771 
C 242.160054 97.711 241.871685 98.407185 241.871685 99.133 
C 241.871685 99.858815 242.160054 100.555 242.673283 101.068229 
C 243.186511 101.581458 243.882697 101.869827 244.608511 101.869827 
z
" style="fill:#33a02c;fill-opacity:0.9;stroke:#33a02c;stroke-opacity:0.9;stroke-width:0.3;"/>
   </g>
   <g id="line2d_13">
    <path clip-path="url(#pd582bddb52)" d="M 74.699518 30.77064 
L 480.517699 216.993482 
L 480.517699 216.993482 
" style="fill:none;stroke:#1f78b4;stroke-dasharray:5.6,2.4;stroke-dashoffset:0;stroke-width:2;"/>
   </g>
   <g id="line2d_14">
    <path clip-path="url(#pd582bddb52)" d="M 87.727768 20.79 
L 467.489449 292.59 
L 467.489449 292.59 
" style="fill:none;stroke:#33a02c;stroke-linecap:round;stroke-width:2.3;"/>
   </g>
   <g id="patch_3">
    <path d="M 54.408609 306.18 
L 54.408609 7.2 
" style="fill:none;"/>
   </g>
   <g id="patch_4">
    <path d="M 500.808609 306.18 
L 500.808609 7.2 
" style="fill:none;"/>
   </g>
   <g id="patch_5">
    <path d="M 54.408609 306.18 
L 500.808609 306.18 
" style="fill:none;"/>
   </g>
   <g id="patch_6">
    <path d="M 54.408609 7.2 
L 500.808609 7.2 
" style="fill:none;"/>
   </g>
   <g id="legend_1">
    <g id="line2d_15">
     <path d="M 324.18954 24.7 
L 352.18954 24.7 
" style="fill:none;stroke:#1f78b4;stroke-dasharray:5.6,2.4;stroke-dashoffset:0;stroke-width:2;"/>
    </g>
    <g id="line2d_16"/>
    <g id="text_15">
     <!-- Unbranched Pathway -->
     <defs>
      <path d="M 8 69.5 
L 8 32.75 
C 8 25.71875 7.203125 18.390625 10.703125 11.96875 
C 12.90625 7.84375 16.09375 4.4375 20.09375 2.125 
C 29.90625 -3.609375 43.5 -2.203125 51.296875 6.4375 
C 54.796875 10.359375 57.296875 15.171875 57.796875 21.796875 
C 57.90625 23.40625 57.796875 24.921875 57.796875 26.515625 
L 57.796875 69.5 
L 51.40625 69.5 
L 51.40625 25.90625 
C 51.40625 24.59375 51.5 23.1875 51.40625 21.890625 
C 51.203125 18.890625 50.59375 15.921875 49.40625 13.25 
C 43.90625 1 25 1 18 11.890625 
C 14.203125 17.78125 15 25.0625 15 31.65625 
L 15 69.5 
z
" id="Computer_Modern_Bright-85"/>
      <path d="M 6.40625 69.6875 
L 6.40625 0 
L 12.796875 0 
L 12.796875 6.328125 
L 12.90625 6.328125 
C 14 4.109375 16.5 2.015625 18.59375 0.90625 
C 25.796875 -2.90625 34.40625 0.90625 39.09375 7.03125 
C 48.59375 19.578125 44.796875 40.875 32.296875 46.796875 
C 27.40625 49 21.5 48 17.09375 44.984375 
C 15.40625 43.78125 14 42.375 12.703125 40.765625 
L 12.703125 69.6875 
z
M 21.90625 42.984375 
C 26.59375 43.375 31.5 41.265625 34.296875 37.453125 
C 36.203125 34.9375 37.203125 31.9375 37.703125 28.8125 
C 38.703125 21.484375 37.90625 12.25 31.40625 7.4375 
C 30.296875 6.625 29.09375 6.03125 27.796875 5.515625 
C 22.40625 3.515625 17 4.109375 14 8.84375 
C 13.09375 10.4375 12.796875 10.546875 12.796875 12.953125 
L 12.796875 33.734375 
C 12.796875 34.75 12.59375 35.953125 13 36.859375 
C 14.59375 40.171875 18.296875 42.671875 21.90625 42.984375 
" id="Computer_Modern_Bright-98"/>
      <path d="M 6.40625 69.6875 
L 6.40625 0 
L 12.796875 0 
L 12.796875 21.984375 
C 12.796875 26.90625 12.5 31.9375 14.703125 36.546875 
C 15.796875 38.859375 17.5 40.875 19.796875 42.078125 
C 21.703125 42.984375 23.703125 42.984375 25.796875 42.78125 
C 28.796875 42.78125 31.703125 41.984375 33.59375 39.453125 
C 35.40625 37.140625 35.5 34.140625 35.5 31.3125 
L 35.5 0 
L 41.90625 0 
L 41.90625 27.21875 
C 41.90625 32.234375 42.40625 37.75 39.90625 42.28125 
C 37.90625 45.6875 34.40625 47.296875 30.703125 47.796875 
C 28.703125 48 26.703125 48 24.703125 47.703125 
C 21.09375 47.015625 18 45.03125 15.59375 42.34375 
C 14.5 41.046875 13.203125 39.46875 12.796875 37.765625 
L 12.703125 37.765625 
L 12.703125 69.6875 
z
" id="Computer_Modern_Bright-104"/>
      <path d="M 0.703125 47.5 
C 0.90625 46.203125 14.40625 0.90625 14.40625 0.90625 
C 14.703125 0 15.203125 0 16.5 0 
L 19.59375 0 
C 20.09375 0 20.796875 -0.09375 21.09375 0.296875 
C 21.40625 0.609375 22.296875 3.8125 22.296875 3.8125 
C 25.296875 14.625 30.5 30.96875 32.5 41.09375 
L 32.59375 41.09375 
C 32.59375 39.6875 33.09375 38.28125 33.40625 36.890625 
C 35 29.765625 43.5 1 43.90625 0.296875 
C 44.203125 -0.203125 45 0 45.5 0 
L 49.296875 0 
C 49.796875 0 50.5 -0.09375 50.90625 0.109375 
C 51.203125 0.296875 51.296875 0.703125 51.40625 1 
C 54.40625 11.640625 64.703125 45.203125 65.09375 47.5 
C 63 47.5 60.90625 47.5 59.09375 47.203125 
L 58.703125 46.1875 
C 54.90625 33 50.796875 20.203125 47.40625 6.609375 
L 47.296875 6.609375 
L 46.203125 11.21875 
L 35.703125 47.5 
L 29.796875 47.5 
C 26 33.875 21.59375 20.84375 18.40625 6.609375 
L 16.703125 13.609375 
C 13.40625 24.8125 10.296875 36.203125 6.90625 47.203125 
C 5.09375 47.5 2.796875 47.5 0.703125 47.5 
" id="Computer_Modern_Bright-119"/>
      <path d="M 0.703125 47.65625 
C 1.296875 45.75 5.40625 35.609375 5.5 35.3125 
L 17.40625 4.578125 
L 18.40625 2.078125 
C 19 0.671875 19.203125 0.46875 18.59375 -1.140625 
L 17.5 -4.046875 
C 16.59375 -6.46875 15.59375 -8.96875 13.703125 -10.484375 
C 10.296875 -13.296875 4.90625 -11.6875 0.796875 -10.78125 
L 1.296875 -16.5 
C 3.203125 -16.796875 5.09375 -17 7 -17 
C 11.296875 -17.515625 14.09375 -16.5 16.703125 -14.296875 
C 20 -11.484375 21.59375 -7.5625 23.09375 -3.546875 
L 26.203125 5.078125 
L 36.40625 32.90625 
C 38.09375 37.921875 40.203125 42.640625 41.796875 47.65625 
L 37.296875 47.65625 
C 36.796875 47.65625 36 47.859375 35.59375 47.46875 
C 35.40625 47.15625 35.296875 46.765625 35.203125 46.453125 
L 34.40625 44.34375 
C 33.40625 41.734375 32.5 39.234375 31.59375 36.609375 
L 25.796875 20.25 
C 24.296875 15.828125 22.59375 11.3125 21.796875 6.6875 
C 20.703125 11.3125 19.203125 15.734375 17.59375 20.140625 
C 16.296875 23.5625 8.5 44.546875 7.5 46.5625 
C 7.09375 47.65625 6.703125 47.65625 5.203125 47.65625 
z
" id="Computer_Modern_Bright-121"/>
     </defs>
     <g style="fill:#262626;" transform="translate(363.38954 29.6)scale(0.14 -0.14)">
      <use transform="scale(0.996264)" xlink:href="#Computer_Modern_Bright-85"/>
      <use transform="translate(65.587132 0)scale(0.996264)" xlink:href="#Computer_Modern_Bright-110"/>
      <use transform="translate(113.739629 0)scale(0.996264)" xlink:href="#Computer_Modern_Bright-98"/>
      <use transform="translate(158.986397 0)scale(0.996264)" xlink:href="#Computer_Modern_Bright-114"/>
      <use transform="translate(190.949756 0)scale(0.996264)" xlink:href="#Computer_Modern_Bright-97"/>
      <use transform="translate(237.441838 0)scale(0.996264)" xlink:href="#Computer_Modern_Bright-110"/>
      <use transform="translate(285.594335 0)scale(0.996264)" xlink:href="#Computer_Modern_Bright-99"/>
      <use transform="translate(330.426003 0)scale(0.996264)" xlink:href="#Computer_Modern_Bright-104"/>
      <use transform="translate(378.5785 0)scale(0.996264)" xlink:href="#Computer_Modern_Bright-101"/>
      <use transform="translate(423.410167 0)scale(0.996264)" xlink:href="#Computer_Modern_Bright-100"/>
      <use transform="translate(503.027876 0)scale(0.996264)" xlink:href="#Computer_Modern_Bright-80"/>
      <use transform="translate(563.011054 0)scale(0.996264)" xlink:href="#Computer_Modern_Bright-97"/>
      <use transform="translate(609.503136 0)scale(0.996264)" xlink:href="#Computer_Modern_Bright-116"/>
      <use transform="translate(645.617524 0)scale(0.996264)" xlink:href="#Computer_Modern_Bright-104"/>
      <use transform="translate(693.770021 0)scale(0.996264)" xlink:href="#Computer_Modern_Bright-119"/>
      <use transform="translate(756.451332 0)scale(0.996264)" xlink:href="#Computer_Modern_Bright-97"/>
      <use transform="translate(800.037685 0)scale(0.996264)" xlink:href="#Computer_Modern_Bright-121"/>
     </g>
    </g>
    <g id="line2d_17">
     <path d="M 324.18954 43.824611 
L 352.18954 43.824611 
" style="fill:none;stroke:#33a02c;stroke-linecap:round;stroke-width:2.3;"/>
    </g>
    <g id="line2d_18"/>
    <g id="text_16">
     <!-- fit -->
     <defs>
      <path d="M 10.59375 47.015625 
L 2 47.015625 
L 2 42 
L 10.59375 42 
L 10.59375 0 
L 16.90625 0 
L 16.90625 42 
L 30.09375 42 
L 30.09375 47.015625 
L 16.796875 47.015625 
L 16.796875 55.203125 
C 16.796875 59.25 16.40625 61.421875 18.90625 63.703125 
C 21.90625 65.96875 25.703125 65.96875 30.09375 64.078125 
L 30.09375 69.90625 
C 27.703125 70.3125 25.203125 70.703125 22.703125 70.515625 
C 20 70.3125 17.09375 68.96875 15.5 67.328125 
C 12.796875 65.15625 11 60.9375 10.59375 57.03125 
C 10.5 55.671875 10.59375 54.4375 10.59375 53.109375 
z
M 38.09375 70 
L 38.09375 63.671875 
L 44.40625 63.671875 
L 44.40625 70 
z
M 38.09375 47.390625 
L 38.09375 0 
L 44.40625 0 
L 44.40625 47.390625 
z
" id="Computer_Modern_Bright-12"/>
     </defs>
     <g style="fill:#262626;" transform="translate(363.38954 48.724611)scale(0.14 -0.14)">
      <use transform="scale(0.996264)" xlink:href="#Computer_Modern_Bright-12"/>
      <use transform="translate(50.643218 0)scale(0.996264)" xlink:href="#Computer_Modern_Bright-116"/>
     </g>
    </g>
    <g id="PathCollection_2">
     <defs>
      <path d="M 0 3.952326 
C 1.048169 3.952326 2.053549 3.535884 2.794717 2.794717 
C 3.535884 2.053549 3.952326 1.048169 3.952326 0 
C 3.952326 -1.048169 3.535884 -2.053549 2.794717 -2.794717 
C 2.053549 -3.535884 1.048169 -3.952326 0 -3.952326 
C -1.048169 -3.952326 -2.053549 -3.535884 -2.794717 -2.794717 
C -3.535884 -2.053549 -3.952326 -1.048169 -3.952326 0 
C -3.952326 1.048169 -3.535884 2.053549 -2.794717 2.794717 
C -2.053549 3.535884 -1.048169 3.952326 0 3.952326 
z
" id="mce02e05a58" style="stroke:#33a02c;stroke-opacity:0.9;stroke-width:0.3;"/>
     </defs>
     <g>
      <use style="fill:#33a02c;fill-opacity:0.9;stroke:#33a02c;stroke-opacity:0.9;stroke-width:0.3;" x="338.18954" xlink:href="#mce02e05a58" y="64.174222"/>
     </g>
    </g>
    <g id="text_17">
     <!-- b -->
     <g style="fill:#262626;" transform="translate(363.38954 67.849222)scale(0.14 -0.14)">
      <use transform="scale(0.996264)" xlink:href="#Computer_Modern_Bright-98"/>
     </g>
    </g>
   </g>
  </g>
 </g>
 <defs>
  <clipPath id="pd582bddb52">
   <rect height="298.98" width="446.4" x="54.408609" y="7.2"/>
  </clipPath>
 </defs>
</svg>
