<?xml version="1.0" encoding="utf-8" standalone="no"?>
<!DOCTYPE svg PUBLIC "-//W3C//DTD SVG 1.1//EN"
  "http://www.w3.org/Graphics/SVG/1.1/DTD/svg11.dtd">
<!-- Created with matplotlib (http://matplotlib.org/) -->
<svg height="353pt" version="1.1" viewBox="0 0 508 353" width="508pt" xmlns="http://www.w3.org/2000/svg" xmlns:xlink="http://www.w3.org/1999/xlink">
 <defs>
  <style type="text/css">
*{stroke-linecap:butt;stroke-linejoin:round;}
  </style>
 </defs>
 <g id="figure_1">
  <g id="patch_1">
   <path d="M 0 353.548374 
L 508.008609 353.548374 
L 508.008609 0 
L 0 0 
z
" style="fill:#ffffff;"/>
  </g>
  <g id="axes_1">
   <g id="patch_2">
    <path d="M 54.408609 306.18 
L 500.808609 306.18 
L 500.808609 7.2 
L 54.408609 7.2 
z
" style="fill:#eaeaf2;"/>
   </g>
   <g id="matplotlib.axis_1">
    <g id="xtick_1">
     <g id="line2d_1"/>
     <g id="text_1">
      <!-- $-7.5$ -->
      <defs>
       <path d="M 9.796875 28.078125 
C 8 27.484375 7.796875 24.78125 9.796875 24.28125 
C 10.296875 24.078125 10.90625 24.1875 11.5 24.1875 
L 64.703125 24.1875 
C 65.90625 24.1875 67.796875 23.78125 68.796875 24.78125 
C 69.90625 25.875 69.296875 27.875 67.703125 28.1875 
C 66.5 28.375 65.09375 28.1875 63.90625 28.1875 
L 11.40625 28.1875 
C 10.90625 28.1875 10.296875 28.28125 9.796875 28.078125 
" id="Computer_Modern_Bright_Math_Symbols-0"/>
       <path d="M 3.59375 65.625 
L 3.59375 60 
L 42.796875 60 
L 39.09375 56.375 
C 35.796875 52.859375 32.796875 49.125 30.09375 45.109375 
C 21.09375 31.515625 16.203125 15.3125 16.203125 -1 
L 22.90625 -1 
C 22.90625 13.703125 26.59375 28.390625 33.59375 41.375 
C 37 47.921875 40.59375 52.640625 45.296875 58.171875 
C 45.90625 58.78125 46.796875 59.484375 47.09375 60.28125 
C 47.296875 60.78125 47.203125 61.484375 47.203125 62.109375 
L 47.203125 65.625 
z
" id="Computer_Modern_Bright-55"/>
       <path d="M 10.703125 7.8125 
L 10.703125 0 
L 18.5 0 
L 18.5 7.8125 
z
" id="Computer_Modern_Bright_Math_Slanted-58"/>
       <path d="M 8.40625 66.328125 
L 8.40625 30.453125 
L 12.203125 30.453125 
C 12.703125 30.453125 13.40625 30.359375 13.796875 30.5625 
C 14.296875 30.859375 14.59375 31.5625 14.90625 31.96875 
C 15.59375 32.859375 16.40625 33.5625 17.203125 34.265625 
C 20.796875 37.28125 27.703125 38.484375 32.296875 36.171875 
C 38.59375 33.171875 39.796875 25.21875 39.296875 19 
C 39 15.0625 37.796875 11.453125 35.5 9.140625 
C 30.203125 3.5 21.296875 3.5 14.796875 6.796875 
C 11.59375 8.40625 8.90625 10.921875 6.90625 13.921875 
L 6.796875 13.921875 
C 6.5 13.421875 4.203125 9.90625 4.203125 9.296875 
C 4.203125 8.890625 4.5 8.59375 4.703125 8.296875 
C 7.703125 4.78125 11.59375 2.0625 16.09375 0.5625 
C 25 -2.25 35 -0.046875 41.296875 7.1875 
C 48.796875 15.921875 47.796875 30.15625 39.09375 37.765625 
C 36.5 40.1875 32.90625 41.890625 28.59375 42.28125 
C 22.796875 43.09375 17.59375 40.28125 14.5 37.671875 
L 14.5 61 
L 42.90625 61 
L 42.90625 66.328125 
z
" id="Computer_Modern_Bright-53"/>
      </defs>
      <g style="fill:#262626;" transform="translate(82.444218 324.249603)scale(0.16 -0.16)">
       <use transform="scale(0.996264)" xlink:href="#Computer_Modern_Bright_Math_Symbols-0"/>
       <use transform="translate(77.487468 0)scale(0.996264)" xlink:href="#Computer_Modern_Bright-55"/>
       <use transform="translate(128.130685 0)scale(0.996264)" xlink:href="#Computer_Modern_Bright_Math_Slanted-58"/>
       <use transform="translate(157.188132 0)scale(0.996264)" xlink:href="#Computer_Modern_Bright-53"/>
      </g>
     </g>
    </g>
    <g id="xtick_2">
     <g id="line2d_2"/>
     <g id="text_2">
      <!-- $-5.0$ -->
      <defs>
       <path d="M 14.796875 63.859375 
C 11.90625 61.859375 9.90625 59.140625 8.40625 56.03125 
C 4.796875 49 4.40625 40.765625 4.40625 31.828125 
C 4.40625 20.578125 6.40625 10.25 12 4.3125 
C 17.296875 -1.203125 25.703125 -2.609375 32.796875 0.296875 
C 37.203125 2.015625 40.40625 5.71875 42.40625 9.734375 
C 46 16.875 46.40625 25.40625 46.40625 34.234375 
C 46.40625 37.046875 46.296875 39.859375 46 42.671875 
C 45.296875 49.40625 43 56.828125 39.296875 60.953125 
C 33.203125 67.6875 22.296875 69.1875 14.796875 63.859375 
M 34.90625 58.140625 
C 39.59375 53.125 40 43.484375 40 34.34375 
L 40 28.921875 
C 40 24.296875 39.203125 18.28125 38.203125 14.859375 
C 36.796875 10.140625 34.5 6.734375 29.90625 4.625 
C 24.296875 2.609375 18.5 4.515625 15.296875 8.9375 
C 11 14.65625 10.796875 24.796875 10.796875 33.734375 
C 10.796875 42.171875 10.90625 51.515625 15 57.03125 
C 19.5 63.0625 29.203125 64.0625 34.90625 58.140625 
" id="Computer_Modern_Bright-48"/>
      </defs>
      <g style="fill:#262626;" transform="translate(136.430339 324.249603)scale(0.16 -0.16)">
       <use transform="scale(0.996264)" xlink:href="#Computer_Modern_Bright_Math_Symbols-0"/>
       <use transform="translate(77.487468 0)scale(0.996264)" xlink:href="#Computer_Modern_Bright-53"/>
       <use transform="translate(128.130685 0)scale(0.996264)" xlink:href="#Computer_Modern_Bright_Math_Slanted-58"/>
       <use transform="translate(157.188132 0)scale(0.996264)" xlink:href="#Computer_Modern_Bright-48"/>
      </g>
     </g>
    </g>
    <g id="xtick_3">
     <g id="line2d_3"/>
     <g id="text_3">
      <!-- $-2.5$ -->
      <defs>
       <path d="M 7.296875 45.96875 
C 8.703125 51.59375 11.09375 57.984375 16.796875 60.5 
C 19.203125 61.5 21.796875 61.703125 24.40625 61.5 
C 29.296875 61.09375 34.09375 59.09375 37.09375 55.09375 
C 39.296875 52.078125 40.09375 48.375 39.703125 44.78125 
C 38.5 34.34375 28.296875 26.84375 21.703125 21.234375 
C 17.90625 18.03125 7.09375 7.8125 7.09375 7.8125 
L 5.40625 6.203125 
C 4.5 5.3125 4.40625 5.3125 4.40625 3.5 
L 4.40625 0 
L 46.40625 0 
L 46.40625 5.625 
L 10.203125 5.625 
C 13.40625 8.734375 26.703125 20.515625 28.5 21.921875 
C 34.296875 26.65625 40.796875 31.375 44.296875 38.21875 
C 48.203125 46.0625 46.5 55.9375 39.90625 61.765625 
C 35.90625 65.296875 30.40625 67 25.09375 67 
C 20.203125 67 15.203125 66 11.296875 62.90625 
C 8.296875 60.390625 5.796875 56.6875 4.40625 52.875 
C 4.09375 52.28125 3.59375 51.28125 3.703125 50.578125 
C 3.796875 49.984375 4.40625 49.484375 4.703125 49.078125 
C 5.5 48.078125 6.296875 46.875 7.296875 45.96875 
" id="Computer_Modern_Bright-50"/>
      </defs>
      <g style="fill:#262626;" transform="translate(190.41646 324.249603)scale(0.16 -0.16)">
       <use transform="scale(0.996264)" xlink:href="#Computer_Modern_Bright_Math_Symbols-0"/>
       <use transform="translate(77.487468 0)scale(0.996264)" xlink:href="#Computer_Modern_Bright-50"/>
       <use transform="translate(128.130685 0)scale(0.996264)" xlink:href="#Computer_Modern_Bright_Math_Slanted-58"/>
       <use transform="translate(157.188132 0)scale(0.996264)" xlink:href="#Computer_Modern_Bright-53"/>
      </g>
     </g>
    </g>
    <g id="xtick_4">
     <g id="line2d_4"/>
     <g id="text_4">
      <!-- $0.0$ -->
      <g style="fill:#262626;" transform="translate(250.60158 324.249603)scale(0.16 -0.16)">
       <use transform="scale(0.996264)" xlink:href="#Computer_Modern_Bright-48"/>
       <use transform="translate(50.643218 0)scale(0.996264)" xlink:href="#Computer_Modern_Bright_Math_Slanted-58"/>
       <use transform="translate(79.700665 0)scale(0.996264)" xlink:href="#Computer_Modern_Bright-48"/>
      </g>
     </g>
    </g>
    <g id="xtick_5">
     <g id="line2d_5"/>
     <g id="text_5">
      <!-- $2.5$ -->
      <g style="fill:#262626;" transform="translate(304.587701 324.249603)scale(0.16 -0.16)">
       <use transform="scale(0.996264)" xlink:href="#Computer_Modern_Bright-50"/>
       <use transform="translate(50.643218 0)scale(0.996264)" xlink:href="#Computer_Modern_Bright_Math_Slanted-58"/>
       <use transform="translate(79.700665 0)scale(0.996264)" xlink:href="#Computer_Modern_Bright-53"/>
      </g>
     </g>
    </g>
    <g id="xtick_6">
     <g id="line2d_6"/>
     <g id="text_6">
      <!-- $5.0$ -->
      <g style="fill:#262626;" transform="translate(358.573822 324.249603)scale(0.16 -0.16)">
       <use transform="scale(0.996264)" xlink:href="#Computer_Modern_Bright-53"/>
       <use transform="translate(50.643218 0)scale(0.996264)" xlink:href="#Computer_Modern_Bright_Math_Slanted-58"/>
       <use transform="translate(79.700665 0)scale(0.996264)" xlink:href="#Computer_Modern_Bright-48"/>
      </g>
     </g>
    </g>
    <g id="xtick_7">
     <g id="line2d_7"/>
     <g id="text_7">
      <!-- $7.5$ -->
      <g style="fill:#262626;" transform="translate(412.559943 324.249603)scale(0.16 -0.16)">
       <use transform="scale(0.996264)" xlink:href="#Computer_Modern_Bright-55"/>
       <use transform="translate(50.643218 0)scale(0.996264)" xlink:href="#Computer_Modern_Bright_Math_Slanted-58"/>
       <use transform="translate(79.700665 0)scale(0.996264)" xlink:href="#Computer_Modern_Bright-53"/>
      </g>
     </g>
    </g>
    <g id="xtick_8">
     <g id="line2d_8"/>
     <g id="text_8">
      <!-- $10.0$ -->
      <defs>
       <path d="M 9.703125 60.015625 
L 9.703125 55 
C 15.203125 55 19 56 23.40625 57.90625 
L 23.40625 5.015625 
L 10.296875 5.015625 
L 10.296875 0 
L 43 0 
L 43 5.015625 
L 29.90625 5.015625 
L 29.90625 67 
C 27.5 67 27.90625 66.359375 26 64.875 
C 21.90625 61.71875 16.203125 60.015625 9.703125 60.015625 
" id="Computer_Modern_Bright-49"/>
      </defs>
      <g style="fill:#262626;" transform="translate(462.361788 324.249603)scale(0.16 -0.16)">
       <use transform="scale(0.996264)" xlink:href="#Computer_Modern_Bright-49"/>
       <use transform="translate(50.643218 0)scale(0.996264)" xlink:href="#Computer_Modern_Bright-48"/>
       <use transform="translate(101.286436 0)scale(0.996264)" xlink:href="#Computer_Modern_Bright_Math_Slanted-58"/>
       <use transform="translate(130.343883 0)scale(0.996264)" xlink:href="#Computer_Modern_Bright-48"/>
      </g>
     </g>
    </g>
    <g id="text_9">
     <!-- Predicted Additive Effect -->
     <defs>
      <path d="M 8 70 
L 8 0.5 
L 15 0.5 
L 15 30 
L 29.09375 30 
C 31.296875 30 33.5 30 35.59375 30 
C 43 30.609375 49.203125 33.640625 53.40625 38.171875 
C 57.703125 42.90625 59.59375 50.15625 56.796875 56.296875 
C 53.59375 64.046875 46 68.984375 36.296875 70 
C 33.40625 70 30.40625 70 27.5 70 
z
M 14.90625 35.21875 
L 14.90625 64.671875 
L 28.59375 64.671875 
C 37.296875 64.671875 45.203125 63.671875 49.203125 57.65625 
C 51.90625 53.625 52.296875 48 50.09375 43.671875 
C 48.90625 41.34375 47.09375 39.546875 44.90625 38.234375 
C 40 35.21875 34.296875 35.21875 28.796875 35.21875 
z
" id="Computer_Modern_Bright-80"/>
      <path d="M 12.5 34.75 
L 12.40625 34.75 
L 12.40625 47.390625 
L 6.40625 47.390625 
L 6.40625 0 
L 12.703125 0 
L 12.703125 22.890625 
C 12.703125 24.40625 12.703125 25.90625 12.90625 27.40625 
C 14.296875 35.953125 21.703125 42.28125 31.40625 42.28125 
L 31.40625 48 
C 25 48 19.09375 44.890625 15.296875 39.765625 
C 14.203125 38.265625 13 36.546875 12.5 34.75 
" id="Computer_Modern_Bright-114"/>
      <path d="M 41.796875 10.9375 
C 39.5 9.234375 38.796875 8.328125 35.90625 6.8125 
C 29.796875 3.5 22.59375 3.5 17.40625 7.171875 
C 12.40625 10.765625 9.5 16.640625 9.5 25 
L 42.5 25 
C 42.5 32.421875 40.796875 38.859375 36.59375 43.375 
C 32 47.890625 24.796875 49.296875 18.703125 47.390625 
C 16.40625 46.6875 14.296875 45.484375 12.40625 43.96875 
C 6.09375 38.859375 3.40625 30.71875 3.5 22.78125 
C 3.703125 12.34375 10.796875 1.90625 21.296875 -0.3125 
C 26.796875 -1.421875 32.59375 -0.203125 37.5 2.296875 
C 38.40625 2.796875 41.703125 4.609375 42.09375 5.515625 
C 42.40625 6.015625 41.796875 10.9375 41.796875 10.9375 
M 37.203125 28.90625 
L 10 28.90625 
C 11.203125 36.234375 17.203125 43.96875 25.296875 43.0625 
C 31.90625 42.46875 35.40625 37.75 36.703125 31.828125 
C 36.90625 30.8125 37 29.921875 37.203125 28.90625 
" id="Computer_Modern_Bright-101"/>
      <path d="M 35.59375 69.6875 
L 35.59375 41.375 
C 33.703125 43.484375 31.796875 45.484375 29.203125 46.6875 
C 20.296875 50.40625 11.703125 45.59375 7.296875 37.65625 
C 2.203125 28.21875 2.796875 15.765625 8.90625 6.921875 
C 13.203125 0.796875 20.296875 -2.203125 27.796875 0.5 
C 30.703125 1.609375 34.203125 4.515625 35.40625 7.125 
L 35.5 7.125 
L 35.5 0 
L 41.90625 0 
L 41.90625 69.6875 
z
M 35.203125 37.453125 
C 35.703125 36.546875 35.5 35.34375 35.5 34.34375 
L 35.5 13.65625 
C 35.5 11.34375 35.40625 11.140625 34.09375 9.34375 
C 32.296875 6.625 29.5 4.71875 26.203125 4.421875 
C 21.40625 4.015625 16.5 6.328125 13.703125 10.25 
C 12.09375 12.546875 11.203125 15.359375 10.703125 18.171875 
C 10.5 19.28125 10.5 20.28125 10.40625 21.390625 
C 9.796875 28.015625 11.203125 35.84375 17 40.0625 
C 18 40.765625 19.09375 41.265625 20.203125 41.765625 
C 26 43.984375 32.40625 43.375 35.203125 37.453125 
" id="Computer_Modern_Bright-100"/>
      <path d="M 6.40625 70 
L 6.40625 63.671875 
L 12.703125 63.671875 
L 12.703125 70 
z
M 6.40625 47.390625 
L 6.40625 0 
L 12.703125 0 
L 12.703125 47.390625 
z
" id="Computer_Modern_Bright-105"/>
      <path d="M 42.40625 11.25 
C 40.5 9.84375 38.796875 8.328125 36.703125 7.125 
C 32 4.625 24.796875 3.421875 19.40625 5.921875 
C 11.59375 9.9375 9.5 19.6875 10.59375 27.71875 
C 10.796875 29.328125 11.09375 30.921875 11.59375 32.4375 
C 13.796875 38.96875 19.296875 44.078125 28.296875 43.078125 
C 33.09375 42.671875 35.5 41.875 39.296875 39.765625 
C 40 39.359375 40.59375 38.859375 41.40625 38.65625 
C 41.5 39.859375 41.796875 41.171875 42 42.375 
C 42.296875 43.984375 42.296875 44.1875 40.796875 44.890625 
C 39.703125 45.390625 38.59375 45.984375 37.40625 46.390625 
C 32.796875 48.40625 25.203125 49 20 47.5 
C 12.90625 45.484375 7.59375 39.359375 5.296875 32.53125 
C 4.203125 29.421875 3.90625 26.109375 3.90625 22.796875 
C 4 12.25 11.203125 1.90625 21.703125 -0.203125 
C 27.5 -1.40625 34.203125 0.296875 38.203125 2.40625 
C 39.203125 2.90625 42.203125 4.71875 42.703125 5.625 
C 43 6.125 42.40625 11.25 42.40625 11.25 
" id="Computer_Modern_Bright-99"/>
      <path d="M 10.796875 60.5 
L 10.796875 47.015625 
L 1.09375 47.015625 
L 1.09375 42 
L 10.703125 42 
L 10.703125 15.015625 
C 10.703125 10.578125 10.40625 5.234375 13.296875 1.515625 
C 15 -0.703125 17.296875 -1.296875 20.796875 -1 
C 23.703125 -1 26.59375 -0.390625 29.296875 0.65625 
C 30.203125 1.0625 33.5 2.515625 33.90625 3.234375 
C 34.09375 3.640625 32.796875 8.09375 32.796875 8.09375 
L 30.40625 6.265625 
C 27.296875 4.34375 21.09375 2.328125 18.5 5.96875 
C 16.203125 9.09375 16.796875 13.75 16.796875 17.375 
L 16.796875 42 
L 32.296875 42 
L 32.296875 47.015625 
L 16.796875 47.015625 
L 16.796875 60.5 
z
" id="Computer_Modern_Bright-116"/>
      <path d="M 2.09375 0.09375 
L 6.59375 0.09375 
L 8.40625 0.296875 
C 11.40625 6.796875 13.5 14.203125 16.203125 21 
C 26.09375 21 36.90625 21 46.296875 21 
L 47.09375 19.6875 
C 48.796875 14.546875 50.796875 9.59375 52.59375 4.546875 
C 53.09375 3.015625 53.59375 1.515625 54.40625 0.296875 
C 56.59375 0 59.203125 0 61.59375 0 
C 59.90625 4.90625 36.703125 67.203125 36 68.890625 
C 35.90625 69.296875 35.703125 69.890625 35.203125 70 
C 34.59375 70.09375 34 70 33.40625 70 
L 30.09375 70 
C 28.59375 70 28 70.1875 27.59375 68.609375 
C 27.203125 67.59375 2.09375 0.09375 2.09375 0.09375 
M 31.40625 63.171875 
C 35.59375 50.71875 40.09375 38.46875 44.5 26.21875 
L 18.203125 26.21875 
L 26.90625 50.109375 
z
" id="Computer_Modern_Bright-65"/>
      <path d="M 0.703125 47.5 
C 1.203125 45.5 4.203125 37.578125 4.40625 37.078125 
C 5.40625 34.28125 17.296875 0.609375 17.59375 0.296875 
C 17.90625 -0.203125 18.796875 0 19.296875 0 
L 22.796875 0 
C 24.09375 0 24.90625 -0.296875 25.203125 0.90625 
C 28.40625 9.328125 40.09375 42.703125 41.796875 47.5 
L 35.59375 47.5 
C 30.796875 33.984375 25.90625 20.4375 21.40625 6.609375 
L 11 36.203125 
C 9.5 39.796875 8.59375 43.890625 6.90625 47.203125 
C 5.09375 47.5 2.796875 47.5 0.703125 47.5 
" id="Computer_Modern_Bright-118"/>
      <path d="M 8 69.328125 
L 8 0 
L 55.40625 0 
L 55.40625 5.625 
L 15 5.625 
L 15 33.671875 
L 51.09375 33.671875 
L 51.09375 39 
L 15 39 
L 15 64 
L 54 64 
L 54 69.328125 
z
" id="Computer_Modern_Bright-69"/>
      <path d="M 10.59375 47.015625 
L 2 47.015625 
L 2 42 
L 10.59375 42 
L 10.59375 -0.5 
L 16.90625 -0.5 
L 16.90625 42 
L 29.296875 42 
L 29.296875 47.015625 
L 16.796875 47.015625 
L 16.796875 55.78125 
C 16.796875 57.1875 16.5 58.921875 17.09375 60.328125 
C 19.203125 64.75 26.296875 65.5625 32.09375 64.5625 
C 33.296875 64.359375 34.40625 63.953125 35.59375 63.75 
L 35.59375 69.390625 
C 28.796875 70.5 21.296875 70.5 15.703125 65.921875 
C 14.796875 65.125 14 64.34375 13.296875 63.328125 
C 11.203125 60.75 10.59375 57.875 10.59375 53.390625 
z
M 38.09375 -0.5 
L 44.40625 -0.5 
L 44.40625 42 
L 56.796875 42 
L 56.796875 47.015625 
L 44.296875 47.015625 
L 44.296875 55.78125 
C 44.296875 57.1875 44 58.921875 44.59375 60.328125 
C 46.703125 64.75 53.796875 65.5625 59.59375 64.5625 
C 60.796875 64.359375 61.90625 63.953125 63.09375 63.75 
L 63.09375 69.390625 
C 57.59375 70.09375 51.5 70.796875 46.296875 68.1875 
C 42.203125 65.96875 38.59375 62.25 38.09375 56.609375 
C 38 55.1875 38.09375 53.78125 38.09375 52.375 
z
" id="Computer_Modern_Bright-11"/>
     </defs>
     <g style="fill:#262626;" transform="translate(186.951533 343.359582)scale(0.18 -0.18)">
      <use transform="scale(0.996264)" xlink:href="#Computer_Modern_Bright-80"/>
      <use transform="translate(62.888907 0)scale(0.996264)" xlink:href="#Computer_Modern_Bright-114"/>
      <use transform="translate(94.852266 0)scale(0.996264)" xlink:href="#Computer_Modern_Bright-101"/>
      <use transform="translate(139.683934 0)scale(0.996264)" xlink:href="#Computer_Modern_Bright-100"/>
      <use transform="translate(187.836431 0)scale(0.996264)" xlink:href="#Computer_Modern_Bright-105"/>
      <use transform="translate(206.931389 0)scale(0.996264)" xlink:href="#Computer_Modern_Bright-99"/>
      <use transform="translate(251.763057 0)scale(0.996264)" xlink:href="#Computer_Modern_Bright-116"/>
      <use transform="translate(287.877445 0)scale(0.996264)" xlink:href="#Computer_Modern_Bright-101"/>
      <use transform="translate(332.709113 0)scale(0.996264)" xlink:href="#Computer_Modern_Bright-100"/>
      <use transform="translate(412.326821 0)scale(0.996264)" xlink:href="#Computer_Modern_Bright-65"/>
      <use transform="translate(475.838439 0)scale(0.996264)" xlink:href="#Computer_Modern_Bright-100"/>
      <use transform="translate(523.990936 0)scale(0.996264)" xlink:href="#Computer_Modern_Bright-100"/>
      <use transform="translate(572.143433 0)scale(0.996264)" xlink:href="#Computer_Modern_Bright-105"/>
      <use transform="translate(591.238392 0)scale(0.996264)" xlink:href="#Computer_Modern_Bright-116"/>
      <use transform="translate(627.35278 0)scale(0.996264)" xlink:href="#Computer_Modern_Bright-105"/>
      <use transform="translate(646.447739 0)scale(0.996264)" xlink:href="#Computer_Modern_Bright-118"/>
      <use transform="translate(688.788777 0)scale(0.996264)" xlink:href="#Computer_Modern_Bright-101"/>
      <use transform="translate(765.085656 0)scale(0.996264)" xlink:href="#Computer_Modern_Bright-69"/>
      <use transform="translate(823.823443 0)scale(0.996264)" xlink:href="#Computer_Modern_Bright-11"/>
      <use transform="translate(881.52351 0)scale(0.996264)" xlink:href="#Computer_Modern_Bright-101"/>
      <use transform="translate(926.355178 0)scale(0.996264)" xlink:href="#Computer_Modern_Bright-99"/>
      <use transform="translate(971.186846 0)scale(0.996264)" xlink:href="#Computer_Modern_Bright-116"/>
     </g>
    </g>
   </g>
   <g id="matplotlib.axis_2">
    <g id="ytick_1">
     <g id="line2d_9"/>
     <g id="text_10">
      <!-- $-8$ -->
      <defs>
       <path d="M 18.703125 36 
L 18.703125 35.90625 
C 12.5 34.09375 7.296875 30.6875 4.796875 24.84375 
C 2.203125 18.71875 4 11.28125 8.40625 6.453125 
C 13.09375 1.421875 19.5 -1 26.296875 -1 
C 36.296875 -1 45.90625 6.40625 47.09375 16.734375 
C 47.296875 18.265625 47.203125 19.890625 47 21.40625 
C 45.203125 29.21875 39.5 33.875 32.09375 35.90625 
C 32.90625 36.203125 33.796875 36.40625 34.59375 36.703125 
C 38.796875 38.421875 42.296875 40.921875 44.5 44.9375 
C 47.796875 51.375 44.59375 58.90625 39.203125 63.015625 
C 33.796875 67.140625 26.5 68.234375 19.90625 66.828125 
C 12 65.125 4.5 58.40625 5 49.765625 
C 5.203125 46.75 6.5 44.234375 8 42.4375 
C 10.296875 39.625 14.796875 36.609375 18.703125 36 
M 23.796875 62.5 
C 28.203125 62.5 33.703125 62 36.90625 58.578125 
C 40.703125 54.46875 40.90625 47.03125 37.09375 42.8125 
C 34.703125 40.203125 31.203125 38.890625 27.703125 38.59375 
C 22.796875 38.1875 17.203125 39 13.703125 42.8125 
C 9.796875 47.125 10.09375 54.96875 14.296875 58.984375 
C 16.90625 61.390625 20.40625 62.1875 23.796875 62.5 
M 23.703125 33.5 
C 28.40625 33.5 33.5 32.390625 36.90625 28.9375 
C 38.203125 27.53125 39.203125 25.8125 39.796875 24.015625 
C 41.5 18.75 40.703125 12.09375 36.796875 8.046875 
C 34.09375 5.328125 30.40625 4.3125 26.703125 4.015625 
C 22.203125 4.015625 17 5.109375 13.796875 8.5625 
C 9.40625 13.390625 8.5 23.40625 13.703125 29.0625 
C 16.296875 31.78125 20 33.203125 23.703125 33.5 
" id="Computer_Modern_Bright-56"/>
      </defs>
      <g style="fill:#262626;" transform="translate(26.642062 296.398135)scale(0.16 -0.16)">
       <use transform="scale(0.996264)" xlink:href="#Computer_Modern_Bright_Math_Symbols-0"/>
       <use transform="translate(77.487468 0)scale(0.996264)" xlink:href="#Computer_Modern_Bright-56"/>
      </g>
     </g>
    </g>
    <g id="ytick_2">
     <g id="line2d_10"/>
     <g id="text_11">
      <!-- $-6$ -->
      <defs>
       <path d="M 11.296875 32.625 
L 11.203125 32.625 
C 11.203125 41.765625 12.796875 52.421875 20.59375 58.25 
C 24.90625 61.375 30.703125 62.96875 38.203125 61.171875 
C 39.796875 60.765625 41.296875 60.15625 42.796875 59.765625 
L 42.796875 63.28125 
C 42.796875 63.671875 42.90625 64.375 42.59375 64.78125 
C 41.90625 65.6875 36.296875 66.59375 36.09375 66.59375 
C 27.40625 67.59375 21.703125 65.6875 16.40625 61.171875 
C 10 55.640625 6.296875 47.515625 5.09375 39.28125 
C 4 32.65625 4.90625 22 6.203125 16.78125 
C 8.296875 9.046875 12.296875 2.21875 19.703125 -0.390625 
C 24.09375 -2 29.5 -2 33.703125 0.015625 
C 37.09375 1.640625 39.90625 4.46875 42.09375 7.5 
C 45.59375 12.34375 46.5 18.21875 46.09375 24.171875 
C 45.90625 27.109375 45.5 30.046875 44.296875 32.765625 
C 42.40625 37.125 39.203125 41.671875 35.09375 43.6875 
C 33.203125 44.5 31.203125 44.5 29.203125 44.5 
C 23.90625 44.5 18.90625 42.1875 15.203125 38.359375 
C 13.59375 36.75 12 34.71875 11.296875 32.625 
M 24.40625 39.515625 
C 28.203125 39.8125 32.203125 39.21875 35.09375 36.5 
C 38.90625 32.890625 39.59375 27.765625 39.59375 22.8125 
C 39.59375 19.46875 39.703125 16.015625 38.703125 12.859375 
C 38.09375 11.234375 37.296875 9.828125 36.40625 8.5 
C 34.203125 5.5625 31.40625 4.125 26.796875 3.515625 
C 22.296875 3.515625 17.796875 5.3125 15.203125 9.125 
C 13.59375 11.328125 12.796875 14.046875 12.296875 16.640625 
C 11.703125 19.34375 11.296875 22.140625 11.5 24.859375 
C 12 31.984375 17 38.515625 24.40625 39.515625 
" id="Computer_Modern_Bright-54"/>
      </defs>
      <g style="fill:#262626;" transform="translate(26.642062 260.00176)scale(0.16 -0.16)">
       <use transform="scale(0.996264)" xlink:href="#Computer_Modern_Bright_Math_Symbols-0"/>
       <use transform="translate(77.487468 0)scale(0.996264)" xlink:href="#Computer_Modern_Bright-54"/>
      </g>
     </g>
    </g>
    <g id="ytick_3">
     <g id="line2d_11"/>
     <g id="text_12">
      <!-- $-4$ -->
      <defs>
       <path d="M 2.09375 18 
L 31 18 
L 31 0 
L 37.296875 0 
L 37.296875 18 
L 48.703125 18 
L 48.703125 23.328125 
L 37.296875 23.328125 
L 37.296875 66.46875 
L 31.90625 66.46875 
C 30.09375 66.46875 29.59375 66.578125 28.796875 65.0625 
C 24.796875 58.515625 3.703125 25.765625 3 24.859375 
C 2.203125 23.4375 2.09375 23.546875 2.09375 21.4375 
z
M 31.296875 60.875 
L 31.296875 23.328125 
L 8.59375 23.328125 
C 9.296875 24.734375 10.296875 26.03125 11.203125 27.4375 
C 16.203125 35.171875 28.09375 53.546875 30.59375 59.28125 
C 30.90625 59.78125 31 60.375 31.296875 60.875 
" id="Computer_Modern_Bright-52"/>
      </defs>
      <g style="fill:#262626;" transform="translate(26.642062 223.605385)scale(0.16 -0.16)">
       <use transform="scale(0.996264)" xlink:href="#Computer_Modern_Bright_Math_Symbols-0"/>
       <use transform="translate(77.487468 0)scale(0.996264)" xlink:href="#Computer_Modern_Bright-52"/>
      </g>
     </g>
    </g>
    <g id="ytick_4">
     <g id="line2d_12"/>
     <g id="text_13">
      <!-- $-2$ -->
      <g style="fill:#262626;" transform="translate(26.642062 187.20901)scale(0.16 -0.16)">
       <use transform="scale(0.996264)" xlink:href="#Computer_Modern_Bright_Math_Symbols-0"/>
       <use transform="translate(77.487468 0)scale(0.996264)" xlink:href="#Computer_Modern_Bright-50"/>
      </g>
     </g>
    </g>
    <g id="ytick_5">
     <g id="line2d_13"/>
     <g id="text_14">
      <!-- $0$ -->
      <g style="fill:#262626;" transform="translate(39.040058 150.812635)scale(0.16 -0.16)">
       <use transform="scale(0.996264)" xlink:href="#Computer_Modern_Bright-48"/>
      </g>
     </g>
    </g>
    <g id="ytick_6">
     <g id="line2d_14"/>
     <g id="text_15">
      <!-- $2$ -->
      <g style="fill:#262626;" transform="translate(39.040058 114.41626)scale(0.16 -0.16)">
       <use transform="scale(0.996264)" xlink:href="#Computer_Modern_Bright-50"/>
      </g>
     </g>
    </g>
    <g id="ytick_7">
     <g id="line2d_15"/>
     <g id="text_16">
      <!-- $4$ -->
      <g style="fill:#262626;" transform="translate(39.040058 78.019885)scale(0.16 -0.16)">
       <use transform="scale(0.996264)" xlink:href="#Computer_Modern_Bright-52"/>
      </g>
     </g>
    </g>
    <g id="ytick_8">
     <g id="line2d_16"/>
     <g id="text_17">
      <!-- $6$ -->
      <g style="fill:#262626;" transform="translate(39.040058 41.62351)scale(0.16 -0.16)">
       <use transform="scale(0.996264)" xlink:href="#Computer_Modern_Bright-54"/>
      </g>
     </g>
    </g>
    <g id="text_18">
     <!-- Deviation from Additive Effect -->
     <defs>
      <path d="M 8 70 
L 8 0 
L 28.203125 0 
C 31.40625 0 34.59375 0 37.703125 0.296875 
C 45.703125 1.109375 52.59375 5.015625 57.203125 9.828125 
C 70.09375 23.171875 70 46.125 57.296875 59.671875 
C 52.703125 64.578125 46.5 68.5 38.703125 69.5 
C 34.90625 70 31 70 27.203125 70 
z
M 14.90625 5.3125 
L 14.90625 64.5625 
L 27.796875 64.5625 
C 30.5 64.5625 33.203125 64.5625 35.90625 64.359375 
C 40.40625 63.859375 44.796875 62.359375 48.5 59.734375 
C 56.59375 54.125 60 44.171875 60 34.640625 
C 60 26.609375 57.796875 18.375 51.90625 12.640625 
C 47.90625 8.9375 42.5 6.21875 36 5.515625 
C 33.40625 5.3125 30.703125 5.3125 28.09375 5.3125 
z
" id="Computer_Modern_Bright-68"/>
      <path d="M 7.90625 39.015625 
C 9.59375 39.859375 11 41.09375 12.703125 41.921875 
C 15.40625 43.15625 18.203125 44 21.203125 44 
C 22.59375 44.09375 24.203125 44.296875 25.59375 44 
C 28.09375 43.59375 30.296875 42.078125 31.796875 39.953125 
C 33.296875 37.515625 33.90625 35.390625 33.90625 31.46875 
L 33.90625 27.015625 
C 29.09375 27.015625 24.296875 26.609375 19.703125 25.390625 
C 13.90625 24.078125 7.59375 21.125 5.5 15.84375 
C 3.40625 10.78125 5.59375 4.078125 10.09375 1.03125 
C 12.296875 -0.5 14.90625 -0.5 17.5 -0.296875 
C 21.703125 0 25.90625 1.015625 29.5 3.25 
C 31.203125 4.25 32.90625 5.578125 33.90625 7.296875 
L 34 7.296875 
L 34 0.203125 
L 40.296875 0.203125 
L 40.296875 26.890625 
C 40.296875 29.8125 40.59375 32.953125 40 35.890625 
C 39.40625 39.921875 36.90625 43.265625 34 45.59375 
C 30.59375 48.21875 26.703125 49.109375 21.5 48.71875 
C 16.703125 48.71875 13 47.5 9.40625 45.765625 
C 8.90625 45.5625 7.90625 45.234375 7.59375 44.640625 
C 7.296875 44.21875 7.5 43.515625 7.5 43 
C 7.703125 41.671875 7.796875 40.34375 7.90625 39.015625 
M 33.90625 24 
L 33.90625 16.375 
C 33.90625 14.0625 34 11.953125 32.703125 9.953125 
C 31.59375 8.34375 30.09375 7.234375 28.5 6.4375 
C 22.796875 3.515625 14.09375 4.421875 11.59375 9.25 
C 9.59375 12.75 11.703125 16.875 14.59375 19.1875 
C 18.90625 22.5 27.296875 24 33.90625 24 
" id="Computer_Modern_Bright-97"/>
      <path d="M 10.703125 42.078125 
C 1.796875 33.234375 0.796875 17.875 8.5 7.9375 
C 9.59375 6.421875 10.90625 5.125 12.40625 4.015625 
C 16.09375 1 21.5 -1.203125 27.796875 -0.5 
C 37.796875 0.703125 44.703125 8.84375 46.796875 17.375 
C 49.59375 29.328125 43.703125 42.671875 32.703125 46.890625 
C 24.09375 50.40625 15.5 46.890625 10.703125 42.078125 
M 35.703125 39.359375 
C 40.5 35.03125 41.40625 28.109375 41 21.984375 
C 40.703125 17.265625 39.40625 12.34375 36.09375 8.828125 
C 30.703125 3 20.703125 3 14.90625 8.625 
C 11.90625 11.84375 10.09375 16.453125 9.796875 21.984375 
C 9.296875 30.109375 11.296875 38.75 19.296875 41.96875 
C 25.203125 44.578125 32 42.671875 35.703125 39.359375 
" id="Computer_Modern_Bright-111"/>
      <path d="M 12.59375 37.28125 
L 12.5 37.28125 
L 12.5 47.390625 
L 6.40625 47.390625 
L 6.40625 0 
L 12.796875 0 
L 12.796875 21.9375 
C 12.796875 26.84375 12.5 31.875 14.703125 36.46875 
C 15.796875 38.78125 17.5 40.78125 19.796875 41.984375 
C 21.703125 42.890625 23.703125 42.890625 25.796875 42.6875 
C 28.796875 42.6875 31.703125 41.890625 33.59375 39.375 
C 35.40625 37.0625 35.5 34.0625 35.5 31.25 
L 35.5 0 
L 41.90625 0 
L 41.90625 26.859375 
C 41.90625 31.875 42.40625 37.375 40 41.890625 
C 38.09375 45.5 34.40625 47.203125 30.5 47.703125 
C 28.5 48 26.40625 48 24.40625 47.609375 
C 19.203125 46.5 14.40625 42.296875 12.59375 37.28125 
" id="Computer_Modern_Bright-110"/>
      <path d="M 10.59375 47.015625 
L 2 47.015625 
L 2 42 
L 10.59375 42 
L 10.59375 -0.5 
L 16.90625 -0.5 
L 16.90625 42 
L 29.296875 42 
L 29.296875 47.015625 
L 16.796875 47.015625 
L 16.796875 55.78125 
C 16.796875 57.1875 16.5 58.921875 17.09375 60.328125 
C 19.203125 64.75 26.296875 65.5625 32.09375 64.5625 
C 33.296875 64.359375 34.40625 63.953125 35.59375 63.75 
L 35.59375 69.390625 
C 28.796875 70.5 21.296875 70.5 15.703125 65.921875 
C 14.796875 65.125 14 64.34375 13.296875 63.328125 
C 11.203125 60.75 10.59375 57.875 10.59375 53.390625 
z
" id="Computer_Modern_Bright-102"/>
      <path d="M 12.59375 37.359375 
L 12.5 37.359375 
L 12.5 47.390625 
L 6.40625 47.390625 
L 6.40625 0 
L 12.796875 0 
L 12.796875 22.046875 
C 12.796875 26.953125 12.5 31.875 14.703125 36.375 
C 16.59375 40.28125 19.90625 43.390625 25.796875 42.78125 
C 28.796875 42.78125 31.796875 41.984375 33.703125 39.453125 
C 35.5 37.140625 35.59375 34.140625 35.59375 31.3125 
L 35.59375 0 
L 42 0 
L 42 22.046875 
C 42 26.953125 41.703125 31.875 43.90625 36.375 
C 45.796875 40.28125 49.09375 43.390625 55 42.78125 
C 58 42.78125 61 41.984375 62.90625 39.453125 
C 64.703125 37.140625 64.796875 34.140625 64.796875 31.3125 
L 64.796875 0 
L 71.203125 0 
L 71.203125 26.5625 
C 71.203125 31.375 71.796875 36.78125 69.703125 41.1875 
C 67.59375 45.296875 64.203125 47.5 58.703125 47.5 
C 55.5 47.796875 52.296875 47.3125 49.40625 45.84375 
C 45.90625 43.921875 43.296875 40.75 41.703125 37.265625 
C 41 40.578125 40.203125 42.828125 38 45 
C 35.703125 47.0625 32.59375 48 29.59375 48 
C 22.296875 48.59375 17.703125 45.5625 14.59375 41 
C 13.796875 39.875 13 38.671875 12.59375 37.359375 
" id="Computer_Modern_Bright-109"/>
     </defs>
     <g style="fill:#262626;" transform="translate(19.65327 267.065543)rotate(-90)scale(0.18 -0.18)">
      <use transform="scale(0.996264)" xlink:href="#Computer_Modern_Bright-68"/>
      <use transform="translate(71.606187 0)scale(0.996264)" xlink:href="#Computer_Modern_Bright-101"/>
      <use transform="translate(116.437855 0)scale(0.996264)" xlink:href="#Computer_Modern_Bright-118"/>
      <use transform="translate(158.778893 0)scale(0.996264)" xlink:href="#Computer_Modern_Bright-105"/>
      <use transform="translate(177.873851 0)scale(0.996264)" xlink:href="#Computer_Modern_Bright-97"/>
      <use transform="translate(224.365934 0)scale(0.996264)" xlink:href="#Computer_Modern_Bright-116"/>
      <use transform="translate(260.480322 0)scale(0.996264)" xlink:href="#Computer_Modern_Bright-105"/>
      <use transform="translate(279.57528 0)scale(0.996264)" xlink:href="#Computer_Modern_Bright-111"/>
      <use transform="translate(330.218498 0)scale(0.996264)" xlink:href="#Computer_Modern_Bright-110"/>
      <use transform="translate(409.836207 0)scale(0.996264)" xlink:href="#Computer_Modern_Bright-102"/>
      <use transform="translate(440.139151 0)scale(0.996264)" xlink:href="#Computer_Modern_Bright-114"/>
      <use transform="translate(472.10251 0)scale(0.996264)" xlink:href="#Computer_Modern_Bright-111"/>
      <use transform="translate(522.745728 0)scale(0.996264)" xlink:href="#Computer_Modern_Bright-109"/>
      <use transform="translate(631.421066 0)scale(0.996264)" xlink:href="#Computer_Modern_Bright-65"/>
      <use transform="translate(694.932683 0)scale(0.996264)" xlink:href="#Computer_Modern_Bright-100"/>
      <use transform="translate(743.08518 0)scale(0.996264)" xlink:href="#Computer_Modern_Bright-100"/>
      <use transform="translate(791.237677 0)scale(0.996264)" xlink:href="#Computer_Modern_Bright-105"/>
      <use transform="translate(810.332636 0)scale(0.996264)" xlink:href="#Computer_Modern_Bright-116"/>
      <use transform="translate(846.447024 0)scale(0.996264)" xlink:href="#Computer_Modern_Bright-105"/>
      <use transform="translate(865.541983 0)scale(0.996264)" xlink:href="#Computer_Modern_Bright-118"/>
      <use transform="translate(907.883021 0)scale(0.996264)" xlink:href="#Computer_Modern_Bright-101"/>
      <use transform="translate(984.1799 0)scale(0.996264)" xlink:href="#Computer_Modern_Bright-69"/>
      <use transform="translate(1042.917687 0)scale(0.996264)" xlink:href="#Computer_Modern_Bright-11"/>
      <use transform="translate(1100.617755 0)scale(0.996264)" xlink:href="#Computer_Modern_Bright-101"/>
      <use transform="translate(1145.449422 0)scale(0.996264)" xlink:href="#Computer_Modern_Bright-99"/>
      <use transform="translate(1190.28109 0)scale(0.996264)" xlink:href="#Computer_Modern_Bright-116"/>
     </g>
    </g>
   </g>
   <g id="PathCollection_1">
    <path clip-path="url(#p39d6ce9335)" d="M 396.548454 220.813778 
C 397.057186 220.813778 397.545151 220.611656 397.904879 220.251929 
C 398.264606 219.892201 398.466728 219.404236 398.466728 218.895504 
C 398.466728 218.386772 398.264606 217.898808 397.904879 217.53908 
C 397.545151 217.179352 397.057186 216.977231 396.548454 216.977231 
C 396.039722 216.977231 395.551758 217.179352 395.19203 217.53908 
C 394.832302 217.898808 394.630181 218.386772 394.630181 218.895504 
C 394.630181 219.404236 394.832302 219.892201 395.19203 220.251929 
C 395.551758 220.611656 396.039722 220.813778 396.548454 220.813778 
z
" style="fill:#33a02c;fill-opacity:0.9;stroke:#33a02c;stroke-opacity:0.9;stroke-width:0.3;"/>
    <path clip-path="url(#p39d6ce9335)" d="M 261.146783 166.505787 
C 261.733311 166.505787 262.295896 166.272756 262.710634 165.858018 
C 263.125372 165.44328 263.358403 164.880695 263.358403 164.294167 
C 263.358403 163.707639 263.125372 163.145054 262.710634 162.730316 
C 262.295896 162.315578 261.733311 162.082548 261.146783 162.082548 
C 260.560255 162.082548 259.99767 162.315578 259.582932 162.730316 
C 259.168194 163.145054 258.935163 163.707639 258.935163 164.294167 
C 258.935163 164.880695 259.168194 165.44328 259.582932 165.858018 
C 259.99767 166.272756 260.560255 166.505787 261.146783 166.505787 
z
" style="fill:#33a02c;fill-opacity:0.9;stroke:#33a02c;stroke-opacity:0.9;stroke-width:0.3;"/>
    <path clip-path="url(#p39d6ce9335)" d="M 307.942472 173.77603 
C 308.604995 173.77603 309.240472 173.512806 309.708946 173.044332 
C 310.177421 172.575857 310.440644 171.94038 310.440644 171.277857 
C 310.440644 170.615334 310.177421 169.979857 309.708946 169.511383 
C 309.240472 169.042908 308.604995 168.779685 307.942472 168.779685 
C 307.279949 168.779685 306.644472 169.042908 306.175997 169.511383 
C 305.707522 169.979857 305.444299 170.615334 305.444299 171.277857 
C 305.444299 171.94038 305.707522 172.575857 306.175997 173.044332 
C 306.644472 173.512806 307.279949 173.77603 307.942472 173.77603 
z
" style="fill:#33a02c;fill-opacity:0.9;stroke:#33a02c;stroke-opacity:0.9;stroke-width:0.3;"/>
    <path clip-path="url(#p39d6ce9335)" d="M 244.026103 139.744457 
C 244.842619 139.744457 245.625803 139.420051 246.203167 138.842687 
C 246.780531 138.265323 247.104936 137.48214 247.104936 136.665623 
C 247.104936 135.849107 246.780531 135.065924 246.203167 134.48856 
C 245.625803 133.911195 244.842619 133.58679 244.026103 133.58679 
C 243.209587 133.58679 242.426403 133.911195 241.849039 134.48856 
C 241.271675 135.065924 240.94727 135.849107 240.94727 136.665623 
C 240.94727 137.48214 241.271675 138.265323 241.849039 138.842687 
C 242.426403 139.420051 243.209587 139.744457 244.026103 139.744457 
z
" style="fill:#33a02c;fill-opacity:0.9;stroke:#33a02c;stroke-opacity:0.9;stroke-width:0.3;"/>
    <path clip-path="url(#p39d6ce9335)" d="M 241.93196 140.022658 
C 242.715828 140.022658 243.467696 139.711224 244.021974 139.156946 
C 244.576252 138.602668 244.887686 137.8508 244.887686 137.066932 
C 244.887686 136.283064 244.576252 135.531196 244.021974 134.976918 
C 243.467696 134.42264 242.715828 134.111206 241.93196 134.111206 
C 241.148093 134.111206 240.396225 134.42264 239.841947 134.976918 
C 239.287668 135.531196 238.976234 136.283064 238.976234 137.066932 
C 238.976234 137.8508 239.287668 138.602668 239.841947 139.156946 
C 240.396225 139.711224 241.148093 140.022658 241.93196 140.022658 
z
" style="fill:#33a02c;fill-opacity:0.9;stroke:#33a02c;stroke-opacity:0.9;stroke-width:0.3;"/>
    <path clip-path="url(#p39d6ce9335)" d="M 272.639408 151.47288 
C 273.495266 151.47288 274.316185 151.132844 274.921368 150.527661 
C 275.526551 149.922478 275.866587 149.101559 275.866587 148.245701 
C 275.866587 147.389843 275.526551 146.568924 274.921368 145.963741 
C 274.316185 145.358559 273.495266 145.018523 272.639408 145.018523 
C 271.783551 145.018523 270.962631 145.358559 270.357449 145.963741 
C 269.752266 146.568924 269.41223 147.389843 269.41223 148.245701 
C 269.41223 149.101559 269.752266 149.922478 270.357449 150.527661 
C 270.962631 151.132844 271.783551 151.47288 272.639408 151.47288 
z
" style="fill:#33a02c;fill-opacity:0.9;stroke:#33a02c;stroke-opacity:0.9;stroke-width:0.3;"/>
    <path clip-path="url(#p39d6ce9335)" d="M 440.411886 238.015491 
C 441.045088 238.015491 441.65244 237.763918 442.100181 237.316176 
C 442.547923 236.868435 442.799496 236.261083 442.799496 235.627881 
C 442.799496 234.994679 442.547923 234.387327 442.100181 233.939586 
C 441.65244 233.491844 441.045088 233.240271 440.411886 233.240271 
C 439.778684 233.240271 439.171332 233.491844 438.723591 233.939586 
C 438.275849 234.387327 438.024276 234.994679 438.024276 235.627881 
C 438.024276 236.261083 438.275849 236.868435 438.723591 237.316176 
C 439.171332 237.763918 439.778684 238.015491 440.411886 238.015491 
z
" style="fill:#33a02c;fill-opacity:0.9;stroke:#33a02c;stroke-opacity:0.9;stroke-width:0.3;"/>
    <path clip-path="url(#p39d6ce9335)" d="M 297.908841 165.559845 
C 298.732588 165.559845 299.522708 165.232567 300.105186 164.65009 
C 300.687663 164.067612 301.014941 163.277492 301.014941 162.453745 
C 301.014941 161.629997 300.687663 160.839877 300.105186 160.2574 
C 299.522708 159.674922 298.732588 159.347644 297.908841 159.347644 
C 297.085093 159.347644 296.294973 159.674922 295.712496 160.2574 
C 295.130018 160.839877 294.80274 161.629997 294.80274 162.453745 
C 294.80274 163.277492 295.130018 164.067612 295.712496 164.65009 
C 296.294973 165.232567 297.085093 165.559845 297.908841 165.559845 
z
" style="fill:#33a02c;fill-opacity:0.9;stroke:#33a02c;stroke-opacity:0.9;stroke-width:0.3;"/>
    <path clip-path="url(#p39d6ce9335)" d="M 259.882832 158.166802 
C 260.632467 158.166802 261.3515 157.868969 261.881572 157.338897 
C 262.411644 156.808825 262.709477 156.089792 262.709477 155.340157 
C 262.709477 154.590522 262.411644 153.871489 261.881572 153.341417 
C 261.3515 152.811345 260.632467 152.513512 259.882832 152.513512 
C 259.133197 152.513512 258.414164 152.811345 257.884092 153.341417 
C 257.354021 153.871489 257.056187 154.590522 257.056187 155.340157 
C 257.056187 156.089792 257.354021 156.808825 257.884092 157.338897 
C 258.414164 157.868969 259.133197 158.166802 259.882832 158.166802 
z
" style="fill:#33a02c;fill-opacity:0.9;stroke:#33a02c;stroke-opacity:0.9;stroke-width:0.3;"/>
    <path clip-path="url(#p39d6ce9335)" d="M 363.283559 217.344027 
C 364.022044 217.344027 364.730382 217.050624 365.25257 216.528436 
C 365.774758 216.006248 366.068161 215.29791 366.068161 214.559425 
C 366.068161 213.82094 365.774758 213.112601 365.25257 212.590413 
C 364.730382 212.068226 364.022044 211.774822 363.283559 211.774822 
C 362.545074 211.774822 361.836735 212.068226 361.314548 212.590413 
C 360.79236 213.112601 360.498956 213.82094 360.498956 214.559425 
C 360.498956 215.29791 360.79236 216.006248 361.314548 216.528436 
C 361.836735 217.050624 362.545074 217.344027 363.283559 217.344027 
z
" style="fill:#33a02c;fill-opacity:0.9;stroke:#33a02c;stroke-opacity:0.9;stroke-width:0.3;"/>
    <path clip-path="url(#p39d6ce9335)" d="M 302.598903 157.24082 
C 303.292414 157.24082 303.957613 156.965285 304.447999 156.474899 
C 304.938385 155.984513 305.21392 155.319314 305.21392 154.625803 
C 305.21392 153.932292 304.938385 153.267093 304.447999 152.776707 
C 303.957613 152.28632 303.292414 152.010786 302.598903 152.010786 
C 301.905392 152.010786 301.240193 152.28632 300.749806 152.776707 
C 300.25942 153.267093 299.983886 153.932292 299.983886 154.625803 
C 299.983886 155.319314 300.25942 155.984513 300.749806 156.474899 
C 301.240193 156.965285 301.905392 157.24082 302.598903 157.24082 
z
" style="fill:#33a02c;fill-opacity:0.9;stroke:#33a02c;stroke-opacity:0.9;stroke-width:0.3;"/>
    <path clip-path="url(#p39d6ce9335)" d="M 306.770021 169.67041 
C 307.400131 169.67041 308.004519 169.420064 308.450074 168.974509 
C 308.895629 168.528954 309.145975 167.924566 309.145975 167.294456 
C 309.145975 166.664346 308.895629 166.059958 308.450074 165.614403 
C 308.004519 165.168848 307.400131 164.918503 306.770021 164.918503 
C 306.139911 164.918503 305.535523 165.168848 305.089968 165.614403 
C 304.644413 166.059958 304.394067 166.664346 304.394067 167.294456 
C 304.394067 167.924566 304.644413 168.528954 305.089968 168.974509 
C 305.535523 169.420064 306.139911 169.67041 306.770021 169.67041 
z
" style="fill:#33a02c;fill-opacity:0.9;stroke:#33a02c;stroke-opacity:0.9;stroke-width:0.3;"/>
    <path clip-path="url(#p39d6ce9335)" d="M 285.223835 174.187314 
C 286.075461 174.187314 286.89232 173.84896 287.49451 173.246769 
C 288.096701 172.644579 288.435055 171.82772 288.435055 170.976094 
C 288.435055 170.124469 288.096701 169.307609 287.49451 168.705419 
C 286.89232 168.103229 286.075461 167.764875 285.223835 167.764875 
C 284.37221 167.764875 283.55535 168.103229 282.95316 168.705419 
C 282.35097 169.307609 282.012616 170.124469 282.012616 170.976094 
C 282.012616 171.82772 282.35097 172.644579 282.95316 173.246769 
C 283.55535 173.84896 284.37221 174.187314 285.223835 174.187314 
z
" style="fill:#33a02c;fill-opacity:0.9;stroke:#33a02c;stroke-opacity:0.9;stroke-width:0.3;"/>
    <path clip-path="url(#p39d6ce9335)" d="M 336.205902 185.905122 
C 336.820587 185.905122 337.410179 185.660905 337.844827 185.226257 
C 338.279475 184.791609 338.523692 184.202017 338.523692 183.587332 
C 338.523692 182.972647 338.279475 182.383055 337.844827 181.948407 
C 337.410179 181.513759 336.820587 181.269542 336.205902 181.269542 
C 335.591217 181.269542 335.001625 181.513759 334.566977 181.948407 
C 334.132329 182.383055 333.888112 182.972647 333.888112 183.587332 
C 333.888112 184.202017 334.132329 184.791609 334.566977 185.226257 
C 335.001625 185.660905 335.591217 185.905122 336.205902 185.905122 
z
" style="fill:#33a02c;fill-opacity:0.9;stroke:#33a02c;stroke-opacity:0.9;stroke-width:0.3;"/>
    <path clip-path="url(#p39d6ce9335)" d="M 225.741409 132.357608 
C 226.467219 132.357608 227.163398 132.069241 227.676623 131.556016 
C 228.189848 131.042791 228.478215 130.346611 228.478215 129.620802 
C 228.478215 128.894992 228.189848 128.198813 227.676623 127.685588 
C 227.163398 127.172363 226.467219 126.883996 225.741409 126.883996 
C 225.0156 126.883996 224.31942 127.172363 223.806195 127.685588 
C 223.29297 128.198813 223.004603 128.894992 223.004603 129.620802 
C 223.004603 130.346611 223.29297 131.042791 223.806195 131.556016 
C 224.31942 132.069241 225.0156 132.357608 225.741409 132.357608 
z
" style="fill:#33a02c;fill-opacity:0.9;stroke:#33a02c;stroke-opacity:0.9;stroke-width:0.3;"/>
    <path clip-path="url(#p39d6ce9335)" d="M 241.072833 123.290399 
C 241.827133 123.290399 242.550641 122.990712 243.084012 122.457341 
C 243.617383 121.92397 243.91707 121.200463 243.91707 120.446162 
C 243.91707 119.691862 243.617383 118.968354 243.084012 118.434983 
C 242.550641 117.901613 241.827133 117.601926 241.072833 117.601926 
C 240.318533 117.601926 239.595025 117.901613 239.061654 118.434983 
C 238.528283 118.968354 238.228596 119.691862 238.228596 120.446162 
C 238.228596 121.200463 238.528283 121.92397 239.061654 122.457341 
C 239.595025 122.990712 240.318533 123.290399 241.072833 123.290399 
z
" style="fill:#33a02c;fill-opacity:0.9;stroke:#33a02c;stroke-opacity:0.9;stroke-width:0.3;"/>
    <path clip-path="url(#p39d6ce9335)" d="M 222.255925 138.359311 
C 223.026834 138.359311 223.766272 138.053025 224.311387 137.50791 
C 224.856502 136.962795 225.162788 136.223357 225.162788 135.452447 
C 225.162788 134.681538 224.856502 133.9421 224.311387 133.396985 
C 223.766272 132.85187 223.026834 132.545584 222.255925 132.545584 
C 221.485016 132.545584 220.745577 132.85187 220.200462 133.396985 
C 219.655347 133.9421 219.349061 134.681538 219.349061 135.452447 
C 219.349061 136.223357 219.655347 136.962795 220.200462 137.50791 
C 220.745577 138.053025 221.485016 138.359311 222.255925 138.359311 
z
" style="fill:#33a02c;fill-opacity:0.9;stroke:#33a02c;stroke-opacity:0.9;stroke-width:0.3;"/>
    <path clip-path="url(#p39d6ce9335)" d="M 328.120268 224.908427 
C 328.766551 224.908427 329.386451 224.651656 329.843442 224.194665 
C 330.300434 223.737673 330.557205 223.117773 330.557205 222.47149 
C 330.557205 221.825207 330.300434 221.205306 329.843442 220.748315 
C 329.386451 220.291324 328.766551 220.034553 328.120268 220.034553 
C 327.473984 220.034553 326.854084 220.291324 326.397093 220.748315 
C 325.940101 221.205306 325.68333 221.825207 325.68333 222.47149 
C 325.68333 223.117773 325.940101 223.737673 326.397093 224.194665 
C 326.854084 224.651656 327.473984 224.908427 328.120268 224.908427 
z
" style="fill:#33a02c;fill-opacity:0.9;stroke:#33a02c;stroke-opacity:0.9;stroke-width:0.3;"/>
    <path clip-path="url(#p39d6ce9335)" d="M 237.991705 137.021695 
C 238.721342 137.021695 239.421194 136.731807 239.937125 136.215875 
C 240.453057 135.699943 240.742945 135.000092 240.742945 134.270454 
C 240.742945 133.540817 240.453057 132.840965 239.937125 132.325034 
C 239.421194 131.809102 238.721342 131.519214 237.991705 131.519214 
C 237.262067 131.519214 236.562216 131.809102 236.046284 132.325034 
C 235.530352 132.840965 235.240464 133.540817 235.240464 134.270454 
C 235.240464 135.000092 235.530352 135.699943 236.046284 136.215875 
C 236.562216 136.731807 237.262067 137.021695 237.991705 137.021695 
z
" style="fill:#33a02c;fill-opacity:0.9;stroke:#33a02c;stroke-opacity:0.9;stroke-width:0.3;"/>
    <path clip-path="url(#p39d6ce9335)" d="M 225.097197 131.070291 
C 225.763254 131.070291 226.40212 130.805664 226.873093 130.334691 
C 227.344066 129.863719 227.608692 129.224852 227.608692 128.558796 
C 227.608692 127.89274 227.344066 127.253874 226.873093 126.782901 
C 226.40212 126.311928 225.763254 126.047301 225.097197 126.047301 
C 224.431141 126.047301 223.792275 126.311928 223.321302 126.782901 
C 222.850329 127.253874 222.585702 127.89274 222.585702 128.558796 
C 222.585702 129.224852 222.850329 129.863719 223.321302 130.334691 
C 223.792275 130.805664 224.431141 131.070291 225.097197 131.070291 
z
" style="fill:#33a02c;fill-opacity:0.9;stroke:#33a02c;stroke-opacity:0.9;stroke-width:0.3;"/>
    <path clip-path="url(#p39d6ce9335)" d="M 232.813662 130.628402 
C 233.616071 130.628402 234.385723 130.309602 234.953112 129.742213 
C 235.520501 129.174824 235.839301 128.405172 235.839301 127.602763 
C 235.839301 126.800354 235.520501 126.030702 234.953112 125.463313 
C 234.385723 124.895924 233.616071 124.577124 232.813662 124.577124 
C 232.011253 124.577124 231.241601 124.895924 230.674212 125.463313 
C 230.106823 126.030702 229.788023 126.800354 229.788023 127.602763 
C 229.788023 128.405172 230.106823 129.174824 230.674212 129.742213 
C 231.241601 130.309602 232.011253 130.628402 232.813662 130.628402 
z
" style="fill:#33a02c;fill-opacity:0.9;stroke:#33a02c;stroke-opacity:0.9;stroke-width:0.3;"/>
    <path clip-path="url(#p39d6ce9335)" d="M 291.467641 167.2866 
C 292.24395 167.2866 292.988568 166.978169 293.537501 166.429236 
C 294.086435 165.880302 294.394866 165.135685 294.394866 164.359376 
C 294.394866 163.583067 294.086435 162.838449 293.537501 162.289515 
C 292.988568 161.740582 292.24395 161.432151 291.467641 161.432151 
C 290.691332 161.432151 289.946714 161.740582 289.397781 162.289515 
C 288.848848 162.838449 288.540417 163.583067 288.540417 164.359376 
C 288.540417 165.135685 288.848848 165.880302 289.397781 166.429236 
C 289.946714 166.978169 290.691332 167.2866 291.467641 167.2866 
z
" style="fill:#33a02c;fill-opacity:0.9;stroke:#33a02c;stroke-opacity:0.9;stroke-width:0.3;"/>
    <path clip-path="url(#p39d6ce9335)" d="M 255.414421 137.888324 
C 256.241587 137.888324 257.034986 137.559687 257.61988 136.974793 
C 258.204775 136.389898 258.533411 135.5965 258.533411 134.769334 
C 258.533411 133.942168 258.204775 133.14877 257.61988 132.563875 
C 257.034986 131.978981 256.241587 131.650345 255.414421 131.650345 
C 254.587256 131.650345 253.793857 131.978981 253.208963 132.563875 
C 252.624068 133.14877 252.295432 133.942168 252.295432 134.769334 
C 252.295432 135.5965 252.624068 136.389898 253.208963 136.974793 
C 253.793857 137.559687 254.587256 137.888324 255.414421 137.888324 
z
" style="fill:#33a02c;fill-opacity:0.9;stroke:#33a02c;stroke-opacity:0.9;stroke-width:0.3;"/>
    <path clip-path="url(#p39d6ce9335)" d="M 312.927591 176.708082 
C 313.556525 176.708082 314.159783 176.458204 314.604507 176.013481 
C 315.04923 175.568758 315.299108 174.965499 315.299108 174.336566 
C 315.299108 173.707632 315.04923 173.104373 314.604507 172.65965 
C 314.159783 172.214927 313.556525 171.965049 312.927591 171.965049 
C 312.298657 171.965049 311.695399 172.214927 311.250675 172.65965 
C 310.805952 173.104373 310.556074 173.707632 310.556074 174.336566 
C 310.556074 174.965499 310.805952 175.568758 311.250675 176.013481 
C 311.695399 176.458204 312.298657 176.708082 312.927591 176.708082 
z
" style="fill:#33a02c;fill-opacity:0.9;stroke:#33a02c;stroke-opacity:0.9;stroke-width:0.3;"/>
    <path clip-path="url(#p39d6ce9335)" d="M 298.513297 220.88176 
C 299.049965 220.88176 299.564725 220.66854 299.944207 220.289058 
C 300.323688 219.909576 300.536909 219.394817 300.536909 218.858148 
C 300.536909 218.32148 300.323688 217.80672 299.944207 217.427239 
C 299.564725 217.047757 299.049965 216.834536 298.513297 216.834536 
C 297.976629 216.834536 297.461869 217.047757 297.082387 217.427239 
C 296.702905 217.80672 296.489685 218.32148 296.489685 218.858148 
C 296.489685 219.394817 296.702905 219.909576 297.082387 220.289058 
C 297.461869 220.66854 297.976629 220.88176 298.513297 220.88176 
z
" style="fill:#33a02c;fill-opacity:0.9;stroke:#33a02c;stroke-opacity:0.9;stroke-width:0.3;"/>
    <path clip-path="url(#p39d6ce9335)" d="M 348.173926 238.759543 
C 348.989408 238.759543 349.771599 238.435549 350.348232 237.858916 
C 350.924865 237.282283 351.248859 236.500091 351.248859 235.684609 
C 351.248859 234.869127 350.924865 234.086936 350.348232 233.510303 
C 349.771599 232.93367 348.989408 232.609675 348.173926 232.609675 
C 347.358444 232.609675 346.576252 232.93367 345.999619 233.510303 
C 345.422986 234.086936 345.098992 234.869127 345.098992 235.684609 
C 345.098992 236.500091 345.422986 237.282283 345.999619 237.858916 
C 346.576252 238.435549 347.358444 238.759543 348.173926 238.759543 
z
" style="fill:#33a02c;fill-opacity:0.9;stroke:#33a02c;stroke-opacity:0.9;stroke-width:0.3;"/>
    <path clip-path="url(#p39d6ce9335)" d="M 296.581402 162.961181 
C 297.245138 162.961181 297.881778 162.697476 298.351111 162.228144 
C 298.820443 161.758811 299.084148 161.122171 299.084148 160.458435 
C 299.084148 159.794699 298.820443 159.158059 298.351111 158.688727 
C 297.881778 158.219395 297.245138 157.95569 296.581402 157.95569 
C 295.917666 157.95569 295.281026 158.219395 294.811694 158.688727 
C 294.342362 159.158059 294.078657 159.794699 294.078657 160.458435 
C 294.078657 161.122171 294.342362 161.758811 294.811694 162.228144 
C 295.281026 162.697476 295.917666 162.961181 296.581402 162.961181 
z
" style="fill:#33a02c;fill-opacity:0.9;stroke:#33a02c;stroke-opacity:0.9;stroke-width:0.3;"/>
    <path clip-path="url(#p39d6ce9335)" d="M 305.406566 169.935485 
C 306.11854 169.935485 306.801448 169.652615 307.30489 169.149174 
C 307.808331 168.645733 308.091201 167.962824 308.091201 167.25085 
C 308.091201 166.538877 307.808331 165.855968 307.30489 165.352527 
C 306.801448 164.849085 306.11854 164.566215 305.406566 164.566215 
C 304.694593 164.566215 304.011684 164.849085 303.508243 165.352527 
C 303.004801 165.855968 302.721931 166.538877 302.721931 167.25085 
C 302.721931 167.962824 303.004801 168.645733 303.508243 169.149174 
C 304.011684 169.652615 304.694593 169.935485 305.406566 169.935485 
z
" style="fill:#33a02c;fill-opacity:0.9;stroke:#33a02c;stroke-opacity:0.9;stroke-width:0.3;"/>
    <path clip-path="url(#p39d6ce9335)" d="M 305.406566 169.935485 
C 306.11854 169.935485 306.801448 169.652615 307.30489 169.149174 
C 307.808331 168.645733 308.091201 167.962824 308.091201 167.25085 
C 308.091201 166.538877 307.808331 165.855968 307.30489 165.352527 
C 306.801448 164.849085 306.11854 164.566215 305.406566 164.566215 
C 304.694593 164.566215 304.011684 164.849085 303.508243 165.352527 
C 303.004801 165.855968 302.721931 166.538877 302.721931 167.25085 
C 302.721931 167.962824 303.004801 168.645733 303.508243 169.149174 
C 304.011684 169.652615 304.694593 169.935485 305.406566 169.935485 
z
" style="fill:#33a02c;fill-opacity:0.9;stroke:#33a02c;stroke-opacity:0.9;stroke-width:0.3;"/>
    <path clip-path="url(#p39d6ce9335)" d="M 469.720475 212.841183 
C 470.175827 212.841183 470.612589 212.66027 470.934571 212.338288 
C 471.256553 212.016306 471.437466 211.579543 471.437466 211.124191 
C 471.437466 210.66884 471.256553 210.232077 470.934571 209.910095 
C 470.612589 209.588113 470.175827 209.4072 469.720475 209.4072 
C 469.265124 209.4072 468.828361 209.588113 468.506379 209.910095 
C 468.184397 210.232077 468.003484 210.66884 468.003484 211.124191 
C 468.003484 211.579543 468.184397 212.016306 468.506379 212.338288 
C 468.828361 212.66027 469.265124 212.841183 469.720475 212.841183 
z
" style="fill:#33a02c;fill-opacity:0.9;stroke:#33a02c;stroke-opacity:0.9;stroke-width:0.3;"/>
    <path clip-path="url(#p39d6ce9335)" d="M 330.939494 192.335215 
C 331.578427 192.335215 332.191277 192.081364 332.643071 191.62957 
C 333.094865 191.177776 333.348716 190.564926 333.348716 189.925993 
C 333.348716 189.28706 333.094865 188.67421 332.643071 188.222416 
C 332.191277 187.770622 331.578427 187.516771 330.939494 187.516771 
C 330.300561 187.516771 329.687711 187.770622 329.235917 188.222416 
C 328.784123 188.67421 328.530273 189.28706 328.530273 189.925993 
C 328.530273 190.564926 328.784123 191.177776 329.235917 191.62957 
C 329.687711 192.081364 330.300561 192.335215 330.939494 192.335215 
z
" style="fill:#33a02c;fill-opacity:0.9;stroke:#33a02c;stroke-opacity:0.9;stroke-width:0.3;"/>
    <path clip-path="url(#p39d6ce9335)" d="M 229.78487 133.242967 
C 230.627688 133.242967 231.4361 132.908112 232.032062 132.31215 
C 232.628024 131.716188 232.962879 130.907776 232.962879 130.064959 
C 232.962879 129.222141 232.628024 128.413729 232.032062 127.817767 
C 231.4361 127.221805 230.627688 126.88695 229.78487 126.88695 
C 228.942053 126.88695 228.133641 127.221805 227.537679 127.817767 
C 226.941717 128.413729 226.606862 129.222141 226.606862 130.064959 
C 226.606862 130.907776 226.941717 131.716188 227.537679 132.31215 
C 228.133641 132.908112 228.942053 133.242967 229.78487 133.242967 
z
" style="fill:#33a02c;fill-opacity:0.9;stroke:#33a02c;stroke-opacity:0.9;stroke-width:0.3;"/>
    <path clip-path="url(#p39d6ce9335)" d="M 443.098841 215.722659 
C 443.513954 215.722659 443.912121 215.557733 444.20565 215.264204 
C 444.49918 214.970675 444.664106 214.572508 444.664106 214.157395 
C 444.664106 213.742282 444.49918 213.344115 444.20565 213.050586 
C 443.912121 212.757057 443.513954 212.59213 443.098841 212.59213 
C 442.683728 212.59213 442.285561 212.757057 441.992032 213.050586 
C 441.698503 213.344115 441.533577 213.742282 441.533577 214.157395 
C 441.533577 214.572508 441.698503 214.970675 441.992032 215.264204 
C 442.285561 215.557733 442.683728 215.722659 443.098841 215.722659 
z
" style="fill:#33a02c;fill-opacity:0.9;stroke:#33a02c;stroke-opacity:0.9;stroke-width:0.3;"/>
    <path clip-path="url(#p39d6ce9335)" d="M 343.621543 199.619148 
C 344.223661 199.619148 344.801198 199.379924 345.22696 198.954163 
C 345.652721 198.528402 345.891945 197.950864 345.891945 197.348747 
C 345.891945 196.746629 345.652721 196.169091 345.22696 195.74333 
C 344.801198 195.317569 344.223661 195.078345 343.621543 195.078345 
C 343.019426 195.078345 342.441888 195.317569 342.016127 195.74333 
C 341.590365 196.169091 341.351141 196.746629 341.351141 197.348747 
C 341.351141 197.950864 341.590365 198.528402 342.016127 198.954163 
C 342.441888 199.379924 343.019426 199.619148 343.621543 199.619148 
z
" style="fill:#33a02c;fill-opacity:0.9;stroke:#33a02c;stroke-opacity:0.9;stroke-width:0.3;"/>
    <path clip-path="url(#p39d6ce9335)" d="M 326.168069 195.970137 
C 327.006523 195.970137 327.810749 195.637016 328.403626 195.044139 
C 328.996502 194.451262 329.329624 193.647036 329.329624 192.808582 
C 329.329624 191.970128 328.996502 191.165902 328.403626 190.573025 
C 327.810749 189.980149 327.006523 189.647027 326.168069 189.647027 
C 325.329615 189.647027 324.525388 189.980149 323.932512 190.573025 
C 323.339635 191.165902 323.006514 191.970128 323.006514 192.808582 
C 323.006514 193.647036 323.339635 194.451262 323.932512 195.044139 
C 324.525388 195.637016 325.329615 195.970137 326.168069 195.970137 
z
" style="fill:#33a02c;fill-opacity:0.9;stroke:#33a02c;stroke-opacity:0.9;stroke-width:0.3;"/>
    <path clip-path="url(#p39d6ce9335)" d="M 308.004817 171.131494 
C 308.663631 171.131494 309.29555 170.869745 309.761401 170.403893 
C 310.227253 169.938042 310.489002 169.306123 310.489002 168.647309 
C 310.489002 167.988496 310.227253 167.356577 309.761401 166.890725 
C 309.29555 166.424873 308.663631 166.163124 308.004817 166.163124 
C 307.346003 166.163124 306.714084 166.424873 306.248233 166.890725 
C 305.782381 167.356577 305.520632 167.988496 305.520632 168.647309 
C 305.520632 169.306123 305.782381 169.938042 306.248233 170.403893 
C 306.714084 170.869745 307.346003 171.131494 308.004817 171.131494 
z
" style="fill:#33a02c;fill-opacity:0.9;stroke:#33a02c;stroke-opacity:0.9;stroke-width:0.3;"/>
    <path clip-path="url(#p39d6ce9335)" d="M 450.474272 211.890617 
C 450.933853 211.890617 451.374673 211.708024 451.699646 211.383051 
C 452.024618 211.058078 452.207212 210.617259 452.207212 210.157678 
C 452.207212 209.698097 452.024618 209.257277 451.699646 208.932304 
C 451.374673 208.607331 450.933853 208.424738 450.474272 208.424738 
C 450.014691 208.424738 449.573872 208.607331 449.248899 208.932304 
C 448.923926 209.257277 448.741333 209.698097 448.741333 210.157678 
C 448.741333 210.617259 448.923926 211.058078 449.248899 211.383051 
C 449.573872 211.708024 450.014691 211.890617 450.474272 211.890617 
z
" style="fill:#33a02c;fill-opacity:0.9;stroke:#33a02c;stroke-opacity:0.9;stroke-width:0.3;"/>
    <path clip-path="url(#p39d6ce9335)" d="M 277.968107 152.198072 
C 278.746213 152.198072 279.492554 151.888927 280.042758 151.338723 
C 280.592962 150.78852 280.902107 150.042178 280.902107 149.264073 
C 280.902107 148.485967 280.592962 147.739626 280.042758 147.189422 
C 279.492554 146.639218 278.746213 146.330074 277.968107 146.330074 
C 277.190002 146.330074 276.44366 146.639218 275.893457 147.189422 
C 275.343253 147.739626 275.034108 148.485967 275.034108 149.264073 
C 275.034108 150.042178 275.343253 150.78852 275.893457 151.338723 
C 276.44366 151.888927 277.190002 152.198072 277.968107 152.198072 
z
" style="fill:#33a02c;fill-opacity:0.9;stroke:#33a02c;stroke-opacity:0.9;stroke-width:0.3;"/>
    <path clip-path="url(#p39d6ce9335)" d="M 113.617737 82.886143 
C 114.129408 82.886143 114.62019 82.682854 114.981996 82.321048 
C 115.343802 81.959243 115.54709 81.46846 115.54709 80.95679 
C 115.54709 80.445119 115.343802 79.954336 114.981996 79.592531 
C 114.62019 79.230725 114.129408 79.027436 113.617737 79.027436 
C 113.106067 79.027436 112.615284 79.230725 112.253478 79.592531 
C 111.891673 79.954336 111.688384 80.445119 111.688384 80.95679 
C 111.688384 81.46846 111.891673 81.959243 112.253478 82.321048 
C 112.615284 82.682854 113.106067 82.886143 113.617737 82.886143 
z
" style="fill:#33a02c;fill-opacity:0.9;stroke:#33a02c;stroke-opacity:0.9;stroke-width:0.3;"/>
    <path clip-path="url(#p39d6ce9335)" d="M 380.709713 196.739571 
C 381.183419 196.739571 381.637787 196.551365 381.972748 196.216404 
C 382.307709 195.881443 382.495915 195.427075 382.495915 194.953369 
C 382.495915 194.479663 382.307709 194.025295 381.972748 193.690334 
C 381.637787 193.355373 381.183419 193.167167 380.709713 193.167167 
C 380.236007 193.167167 379.781638 193.355373 379.446678 193.690334 
C 379.111717 194.025295 378.923511 194.479663 378.923511 194.953369 
C 378.923511 195.427075 379.111717 195.881443 379.446678 196.216404 
C 379.781638 196.551365 380.236007 196.739571 380.709713 196.739571 
z
" style="fill:#33a02c;fill-opacity:0.9;stroke:#33a02c;stroke-opacity:0.9;stroke-width:0.3;"/>
    <path clip-path="url(#p39d6ce9335)" d="M 273.932228 151.221336 
C 274.783838 151.221336 275.600683 150.882987 276.202862 150.280808 
C 276.805042 149.678629 277.14339 148.861784 277.14339 148.010173 
C 277.14339 147.158563 276.805042 146.341718 276.202862 145.739539 
C 275.600683 145.137359 274.783838 144.799011 273.932228 144.799011 
C 273.080617 144.799011 272.263772 145.137359 271.661593 145.739539 
C 271.059414 146.341718 270.721065 147.158563 270.721065 148.010173 
C 270.721065 148.861784 271.059414 149.678629 271.661593 150.280808 
C 272.263772 150.882987 273.080617 151.221336 273.932228 151.221336 
z
" style="fill:#33a02c;fill-opacity:0.9;stroke:#33a02c;stroke-opacity:0.9;stroke-width:0.3;"/>
    <path clip-path="url(#p39d6ce9335)" d="M 327.720694 174.800665 
C 328.473862 174.800665 329.196283 174.501428 329.728853 173.968858 
C 330.261423 173.436288 330.56066 172.713866 330.56066 171.960698 
C 330.56066 171.207531 330.261423 170.485109 329.728853 169.952539 
C 329.196283 169.419969 328.473862 169.120732 327.720694 169.120732 
C 326.967526 169.120732 326.245104 169.419969 325.712534 169.952539 
C 325.179964 170.485109 324.880728 171.207531 324.880728 171.960698 
C 324.880728 172.713866 325.179964 173.436288 325.712534 173.968858 
C 326.245104 174.501428 326.967526 174.800665 327.720694 174.800665 
z
" style="fill:#33a02c;fill-opacity:0.9;stroke:#33a02c;stroke-opacity:0.9;stroke-width:0.3;"/>
    <path clip-path="url(#p39d6ce9335)" d="M 310.444229 224.567759 
C 311.063592 224.567759 311.65767 224.321684 312.095625 223.883729 
C 312.53358 223.445774 312.779655 222.851695 312.779655 222.232333 
C 312.779655 221.612971 312.53358 221.018893 312.095625 220.580938 
C 311.65767 220.142983 311.063592 219.896907 310.444229 219.896907 
C 309.824867 219.896907 309.230789 220.142983 308.792834 220.580938 
C 308.354879 221.018893 308.108804 221.612971 308.108804 222.232333 
C 308.108804 222.851695 308.354879 223.445774 308.792834 223.883729 
C 309.230789 224.321684 309.824867 224.567759 310.444229 224.567759 
z
" style="fill:#33a02c;fill-opacity:0.9;stroke:#33a02c;stroke-opacity:0.9;stroke-width:0.3;"/>
    <path clip-path="url(#p39d6ce9335)" d="M 324.10901 168.199549 
C 324.719544 168.199549 325.305155 167.956982 325.736868 167.525269 
C 326.168581 167.093556 326.411149 166.507945 326.411149 165.897411 
C 326.411149 165.286877 326.168581 164.701266 325.736868 164.269553 
C 325.305155 163.83784 324.719544 163.595272 324.10901 163.595272 
C 323.498476 163.595272 322.912865 163.83784 322.481152 164.269553 
C 322.049439 164.701266 321.806871 165.286877 321.806871 165.897411 
C 321.806871 166.507945 322.049439 167.093556 322.481152 167.525269 
C 322.912865 167.956982 323.498476 168.199549 324.10901 168.199549 
z
" style="fill:#33a02c;fill-opacity:0.9;stroke:#33a02c;stroke-opacity:0.9;stroke-width:0.3;"/>
    <path clip-path="url(#p39d6ce9335)" d="M 85.496742 72.783531 
C 85.915869 72.783531 86.317886 72.61701 86.614253 72.320642 
C 86.910621 72.024275 87.077142 71.622258 87.077142 71.203131 
C 87.077142 70.784004 86.910621 70.381987 86.614253 70.085619 
C 86.317886 69.789252 85.915869 69.622731 85.496742 69.622731 
C 85.077615 69.622731 84.675598 69.789252 84.379231 70.085619 
C 84.082863 70.381987 83.916342 70.784004 83.916342 71.203131 
C 83.916342 71.622258 84.082863 72.024275 84.379231 72.320642 
C 84.675598 72.61701 85.077615 72.783531 85.496742 72.783531 
z
" style="fill:#33a02c;fill-opacity:0.9;stroke:#33a02c;stroke-opacity:0.9;stroke-width:0.3;"/>
   </g>
   <g id="line2d_17">
    <path clip-path="url(#p39d6ce9335)" d="M 74.699518 66.653584 
L 480.517699 237.650203 
L 480.517699 237.650203 
" style="fill:none;stroke:#1f78b4;stroke-dasharray:5.6,2.4;stroke-dashoffset:0;stroke-width:2;"/>
   </g>
   <g id="line2d_18">
    <path clip-path="url(#p39d6ce9335)" d="M 83.337297 20.79 
L 471.87992 292.59 
L 471.87992 292.59 
" style="fill:none;stroke:#33a02c;stroke-linecap:round;stroke-width:2.3;"/>
   </g>
   <g id="patch_3">
    <path d="M 54.408609 306.18 
L 54.408609 7.2 
" style="fill:none;"/>
   </g>
   <g id="patch_4">
    <path d="M 500.808609 306.18 
L 500.808609 7.2 
" style="fill:none;"/>
   </g>
   <g id="patch_5">
    <path d="M 54.408609 306.18 
L 500.808609 306.18 
" style="fill:none;"/>
   </g>
   <g id="patch_6">
    <path d="M 54.408609 7.2 
L 500.808609 7.2 
" style="fill:none;"/>
   </g>
   <g id="legend_1">
    <g id="line2d_19">
     <path d="M 324.18954 24.7 
L 352.18954 24.7 
" style="fill:none;stroke:#1f78b4;stroke-dasharray:5.6,2.4;stroke-dashoffset:0;stroke-width:2;"/>
    </g>
    <g id="line2d_20"/>
    <g id="text_19">
     <!-- Unbranched Pathway -->
     <defs>
      <path d="M 8 69.5 
L 8 32.75 
C 8 25.71875 7.203125 18.390625 10.703125 11.96875 
C 12.90625 7.84375 16.09375 4.4375 20.09375 2.125 
C 29.90625 -3.609375 43.5 -2.203125 51.296875 6.4375 
C 54.796875 10.359375 57.296875 15.171875 57.796875 21.796875 
C 57.90625 23.40625 57.796875 24.921875 57.796875 26.515625 
L 57.796875 69.5 
L 51.40625 69.5 
L 51.40625 25.90625 
C 51.40625 24.59375 51.5 23.1875 51.40625 21.890625 
C 51.203125 18.890625 50.59375 15.921875 49.40625 13.25 
C 43.90625 1 25 1 18 11.890625 
C 14.203125 17.78125 15 25.0625 15 31.65625 
L 15 69.5 
z
" id="Computer_Modern_Bright-85"/>
      <path d="M 6.40625 69.6875 
L 6.40625 0 
L 12.796875 0 
L 12.796875 6.328125 
L 12.90625 6.328125 
C 14 4.109375 16.5 2.015625 18.59375 0.90625 
C 25.796875 -2.90625 34.40625 0.90625 39.09375 7.03125 
C 48.59375 19.578125 44.796875 40.875 32.296875 46.796875 
C 27.40625 49 21.5 48 17.09375 44.984375 
C 15.40625 43.78125 14 42.375 12.703125 40.765625 
L 12.703125 69.6875 
z
M 21.90625 42.984375 
C 26.59375 43.375 31.5 41.265625 34.296875 37.453125 
C 36.203125 34.9375 37.203125 31.9375 37.703125 28.8125 
C 38.703125 21.484375 37.90625 12.25 31.40625 7.4375 
C 30.296875 6.625 29.09375 6.03125 27.796875 5.515625 
C 22.40625 3.515625 17 4.109375 14 8.84375 
C 13.09375 10.4375 12.796875 10.546875 12.796875 12.953125 
L 12.796875 33.734375 
C 12.796875 34.75 12.59375 35.953125 13 36.859375 
C 14.59375 40.171875 18.296875 42.671875 21.90625 42.984375 
" id="Computer_Modern_Bright-98"/>
      <path d="M 6.40625 69.6875 
L 6.40625 0 
L 12.796875 0 
L 12.796875 21.984375 
C 12.796875 26.90625 12.5 31.9375 14.703125 36.546875 
C 15.796875 38.859375 17.5 40.875 19.796875 42.078125 
C 21.703125 42.984375 23.703125 42.984375 25.796875 42.78125 
C 28.796875 42.78125 31.703125 41.984375 33.59375 39.453125 
C 35.40625 37.140625 35.5 34.140625 35.5 31.3125 
L 35.5 0 
L 41.90625 0 
L 41.90625 27.21875 
C 41.90625 32.234375 42.40625 37.75 39.90625 42.28125 
C 37.90625 45.6875 34.40625 47.296875 30.703125 47.796875 
C 28.703125 48 26.703125 48 24.703125 47.703125 
C 21.09375 47.015625 18 45.03125 15.59375 42.34375 
C 14.5 41.046875 13.203125 39.46875 12.796875 37.765625 
L 12.703125 37.765625 
L 12.703125 69.6875 
z
" id="Computer_Modern_Bright-104"/>
      <path d="M 0.703125 47.5 
C 0.90625 46.203125 14.40625 0.90625 14.40625 0.90625 
C 14.703125 0 15.203125 0 16.5 0 
L 19.59375 0 
C 20.09375 0 20.796875 -0.09375 21.09375 0.296875 
C 21.40625 0.609375 22.296875 3.8125 22.296875 3.8125 
C 25.296875 14.625 30.5 30.96875 32.5 41.09375 
L 32.59375 41.09375 
C 32.59375 39.6875 33.09375 38.28125 33.40625 36.890625 
C 35 29.765625 43.5 1 43.90625 0.296875 
C 44.203125 -0.203125 45 0 45.5 0 
L 49.296875 0 
C 49.796875 0 50.5 -0.09375 50.90625 0.109375 
C 51.203125 0.296875 51.296875 0.703125 51.40625 1 
C 54.40625 11.640625 64.703125 45.203125 65.09375 47.5 
C 63 47.5 60.90625 47.5 59.09375 47.203125 
L 58.703125 46.1875 
C 54.90625 33 50.796875 20.203125 47.40625 6.609375 
L 47.296875 6.609375 
L 46.203125 11.21875 
L 35.703125 47.5 
L 29.796875 47.5 
C 26 33.875 21.59375 20.84375 18.40625 6.609375 
L 16.703125 13.609375 
C 13.40625 24.8125 10.296875 36.203125 6.90625 47.203125 
C 5.09375 47.5 2.796875 47.5 0.703125 47.5 
" id="Computer_Modern_Bright-119"/>
      <path d="M 0.703125 47.65625 
C 1.296875 45.75 5.40625 35.609375 5.5 35.3125 
L 17.40625 4.578125 
L 18.40625 2.078125 
C 19 0.671875 19.203125 0.46875 18.59375 -1.140625 
L 17.5 -4.046875 
C 16.59375 -6.46875 15.59375 -8.96875 13.703125 -10.484375 
C 10.296875 -13.296875 4.90625 -11.6875 0.796875 -10.78125 
L 1.296875 -16.5 
C 3.203125 -16.796875 5.09375 -17 7 -17 
C 11.296875 -17.515625 14.09375 -16.5 16.703125 -14.296875 
C 20 -11.484375 21.59375 -7.5625 23.09375 -3.546875 
L 26.203125 5.078125 
L 36.40625 32.90625 
C 38.09375 37.921875 40.203125 42.640625 41.796875 47.65625 
L 37.296875 47.65625 
C 36.796875 47.65625 36 47.859375 35.59375 47.46875 
C 35.40625 47.15625 35.296875 46.765625 35.203125 46.453125 
L 34.40625 44.34375 
C 33.40625 41.734375 32.5 39.234375 31.59375 36.609375 
L 25.796875 20.25 
C 24.296875 15.828125 22.59375 11.3125 21.796875 6.6875 
C 20.703125 11.3125 19.203125 15.734375 17.59375 20.140625 
C 16.296875 23.5625 8.5 44.546875 7.5 46.5625 
C 7.09375 47.65625 6.703125 47.65625 5.203125 47.65625 
z
" id="Computer_Modern_Bright-121"/>
     </defs>
     <g style="fill:#262626;" transform="translate(363.38954 29.6)scale(0.14 -0.14)">
      <use transform="scale(0.996264)" xlink:href="#Computer_Modern_Bright-85"/>
      <use transform="translate(65.587132 0)scale(0.996264)" xlink:href="#Computer_Modern_Bright-110"/>
      <use transform="translate(113.739629 0)scale(0.996264)" xlink:href="#Computer_Modern_Bright-98"/>
      <use transform="translate(158.986397 0)scale(0.996264)" xlink:href="#Computer_Modern_Bright-114"/>
      <use transform="translate(190.949756 0)scale(0.996264)" xlink:href="#Computer_Modern_Bright-97"/>
      <use transform="translate(237.441838 0)scale(0.996264)" xlink:href="#Computer_Modern_Bright-110"/>
      <use transform="translate(285.594335 0)scale(0.996264)" xlink:href="#Computer_Modern_Bright-99"/>
      <use transform="translate(330.426003 0)scale(0.996264)" xlink:href="#Computer_Modern_Bright-104"/>
      <use transform="translate(378.5785 0)scale(0.996264)" xlink:href="#Computer_Modern_Bright-101"/>
      <use transform="translate(423.410167 0)scale(0.996264)" xlink:href="#Computer_Modern_Bright-100"/>
      <use transform="translate(503.027876 0)scale(0.996264)" xlink:href="#Computer_Modern_Bright-80"/>
      <use transform="translate(563.011054 0)scale(0.996264)" xlink:href="#Computer_Modern_Bright-97"/>
      <use transform="translate(609.503136 0)scale(0.996264)" xlink:href="#Computer_Modern_Bright-116"/>
      <use transform="translate(645.617524 0)scale(0.996264)" xlink:href="#Computer_Modern_Bright-104"/>
      <use transform="translate(693.770021 0)scale(0.996264)" xlink:href="#Computer_Modern_Bright-119"/>
      <use transform="translate(756.451332 0)scale(0.996264)" xlink:href="#Computer_Modern_Bright-97"/>
      <use transform="translate(800.037685 0)scale(0.996264)" xlink:href="#Computer_Modern_Bright-121"/>
     </g>
    </g>
    <g id="line2d_21">
     <path d="M 324.18954 43.824611 
L 352.18954 43.824611 
" style="fill:none;stroke:#33a02c;stroke-linecap:round;stroke-width:2.3;"/>
    </g>
    <g id="line2d_22"/>
    <g id="text_20">
     <!-- fit -->
     <defs>
      <path d="M 10.59375 47.015625 
L 2 47.015625 
L 2 42 
L 10.59375 42 
L 10.59375 0 
L 16.90625 0 
L 16.90625 42 
L 30.09375 42 
L 30.09375 47.015625 
L 16.796875 47.015625 
L 16.796875 55.203125 
C 16.796875 59.25 16.40625 61.421875 18.90625 63.703125 
C 21.90625 65.96875 25.703125 65.96875 30.09375 64.078125 
L 30.09375 69.90625 
C 27.703125 70.3125 25.203125 70.703125 22.703125 70.515625 
C 20 70.3125 17.09375 68.96875 15.5 67.328125 
C 12.796875 65.15625 11 60.9375 10.59375 57.03125 
C 10.5 55.671875 10.59375 54.4375 10.59375 53.109375 
z
M 38.09375 70 
L 38.09375 63.671875 
L 44.40625 63.671875 
L 44.40625 70 
z
M 38.09375 47.390625 
L 38.09375 0 
L 44.40625 0 
L 44.40625 47.390625 
z
" id="Computer_Modern_Bright-12"/>
     </defs>
     <g style="fill:#262626;" transform="translate(363.38954 48.724611)scale(0.14 -0.14)">
      <use transform="scale(0.996264)" xlink:href="#Computer_Modern_Bright-12"/>
      <use transform="translate(50.643218 0)scale(0.996264)" xlink:href="#Computer_Modern_Bright-116"/>
     </g>
    </g>
    <g id="PathCollection_2">
     <defs>
      <path d="M 0 2.536211 
C 0.672611 2.536211 1.317764 2.26898 1.793372 1.793372 
C 2.26898 1.317764 2.536211 0.672611 2.536211 0 
C 2.536211 -0.672611 2.26898 -1.317764 1.793372 -1.793372 
C 1.317764 -2.26898 0.672611 -2.536211 0 -2.536211 
C -0.672611 -2.536211 -1.317764 -2.26898 -1.793372 -1.793372 
C -2.26898 -1.317764 -2.536211 -0.672611 -2.536211 0 
C -2.536211 0.672611 -2.26898 1.317764 -1.793372 1.793372 
C -1.317764 2.26898 -0.672611 2.536211 0 2.536211 
z
" id="m5d0f950fca" style="stroke:#33a02c;stroke-opacity:0.9;stroke-width:0.3;"/>
     </defs>
     <g>
      <use style="fill:#33a02c;fill-opacity:0.9;stroke:#33a02c;stroke-opacity:0.9;stroke-width:0.3;" x="338.18954" xlink:href="#m5d0f950fca" y="64.174222"/>
     </g>
    </g>
    <g id="text_21">
     <!-- b -->
     <g style="fill:#262626;" transform="translate(363.38954 67.849222)scale(0.14 -0.14)">
      <use transform="scale(0.996264)" xlink:href="#Computer_Modern_Bright-98"/>
     </g>
    </g>
   </g>
  </g>
 </g>
 <defs>
  <clipPath id="p39d6ce9335">
   <rect height="298.98" width="446.4" x="54.408609" y="7.2"/>
  </clipPath>
 </defs>
</svg>
