<?xml version="1.0" encoding="utf-8" standalone="no"?>
<!DOCTYPE svg PUBLIC "-//W3C//DTD SVG 1.1//EN"
  "http://www.w3.org/Graphics/SVG/1.1/DTD/svg11.dtd">
<!-- Created with matplotlib (http://matplotlib.org/) -->
<svg height="334pt" version="1.1" viewBox="0 0 509 334" width="509pt" xmlns="http://www.w3.org/2000/svg" xmlns:xlink="http://www.w3.org/1999/xlink">
 <defs>
  <style type="text/css">
*{stroke-linecap:butt;stroke-linejoin:round;}
  </style>
 </defs>
 <g id="figure_1">
  <g id="patch_1">
   <path d="M 0 334.106313 
L 509.95284 334.106313 
L 509.95284 0 
L 0 0 
z
" style="fill:#ffffff;"/>
  </g>
  <g id="axes_1">
   <g id="patch_2">
    <path d="M 56.35284 306.18 
L 502.75284 306.18 
L 502.75284 7.2 
L 56.35284 7.2 
z
" style="fill:#eaeaf2;"/>
   </g>
   <g id="matplotlib.axis_1">
    <g id="xtick_1">
     <g id="line2d_1"/>
     <g id="text_1">
      <!-- $-10.0$ -->
      <defs>
       <path d="M 9.796875 28.078125 
C 8 27.484375 7.796875 24.78125 9.796875 24.28125 
C 10.296875 24.078125 10.90625 24.1875 11.5 24.1875 
L 64.703125 24.1875 
C 65.90625 24.1875 67.796875 23.78125 68.796875 24.78125 
C 69.90625 25.875 69.296875 27.875 67.703125 28.1875 
C 66.5 28.375 65.09375 28.1875 63.90625 28.1875 
L 11.40625 28.1875 
C 10.90625 28.1875 10.296875 28.28125 9.796875 28.078125 
" id="Computer_Modern_Bright_Math_Symbols-0"/>
       <path d="M 9.703125 60.015625 
L 9.703125 55 
C 15.203125 55 19 56 23.40625 57.90625 
L 23.40625 5.015625 
L 10.296875 5.015625 
L 10.296875 0 
L 43 0 
L 43 5.015625 
L 29.90625 5.015625 
L 29.90625 67 
C 27.5 67 27.90625 66.359375 26 64.875 
C 21.90625 61.71875 16.203125 60.015625 9.703125 60.015625 
" id="Computer_Modern_Bright-49"/>
       <path d="M 14.796875 63.859375 
C 11.90625 61.859375 9.90625 59.140625 8.40625 56.03125 
C 4.796875 49 4.40625 40.765625 4.40625 31.828125 
C 4.40625 20.578125 6.40625 10.25 12 4.3125 
C 17.296875 -1.203125 25.703125 -2.609375 32.796875 0.296875 
C 37.203125 2.015625 40.40625 5.71875 42.40625 9.734375 
C 46 16.875 46.40625 25.40625 46.40625 34.234375 
C 46.40625 37.046875 46.296875 39.859375 46 42.671875 
C 45.296875 49.40625 43 56.828125 39.296875 60.953125 
C 33.203125 67.6875 22.296875 69.1875 14.796875 63.859375 
M 34.90625 58.140625 
C 39.59375 53.125 40 43.484375 40 34.34375 
L 40 28.921875 
C 40 24.296875 39.203125 18.28125 38.203125 14.859375 
C 36.796875 10.140625 34.5 6.734375 29.90625 4.625 
C 24.296875 2.609375 18.5 4.515625 15.296875 8.9375 
C 11 14.65625 10.796875 24.796875 10.796875 33.734375 
C 10.796875 42.171875 10.90625 51.515625 15 57.03125 
C 19.5 63.0625 29.203125 64.0625 34.90625 58.140625 
" id="Computer_Modern_Bright-48"/>
       <path d="M 10.703125 7.8125 
L 10.703125 0 
L 18.5 0 
L 18.5 7.8125 
z
" id="Computer_Modern_Bright_Math_Slanted-58"/>
      </defs>
      <g style="fill:#262626;" transform="translate(55.567329 324.249603)scale(0.16 -0.16)">
       <use transform="scale(0.996264)" xlink:href="#Computer_Modern_Bright_Math_Symbols-0"/>
       <use transform="translate(77.487468 0)scale(0.996264)" xlink:href="#Computer_Modern_Bright-49"/>
       <use transform="translate(128.130685 0)scale(0.996264)" xlink:href="#Computer_Modern_Bright-48"/>
       <use transform="translate(178.773903 0)scale(0.996264)" xlink:href="#Computer_Modern_Bright_Math_Slanted-58"/>
       <use transform="translate(207.83135 0)scale(0.996264)" xlink:href="#Computer_Modern_Bright-48"/>
      </g>
     </g>
    </g>
    <g id="xtick_2">
     <g id="line2d_2"/>
     <g id="text_2">
      <!-- $-7.5$ -->
      <defs>
       <path d="M 3.59375 65.625 
L 3.59375 60 
L 42.796875 60 
L 39.09375 56.375 
C 35.796875 52.859375 32.796875 49.125 30.09375 45.109375 
C 21.09375 31.515625 16.203125 15.3125 16.203125 -1 
L 22.90625 -1 
C 22.90625 13.703125 26.59375 28.390625 33.59375 41.375 
C 37 47.921875 40.59375 52.640625 45.296875 58.171875 
C 45.90625 58.78125 46.796875 59.484375 47.09375 60.28125 
C 47.296875 60.78125 47.203125 61.484375 47.203125 62.109375 
L 47.203125 65.625 
z
" id="Computer_Modern_Bright-55"/>
       <path d="M 8.40625 66.328125 
L 8.40625 30.453125 
L 12.203125 30.453125 
C 12.703125 30.453125 13.40625 30.359375 13.796875 30.5625 
C 14.296875 30.859375 14.59375 31.5625 14.90625 31.96875 
C 15.59375 32.859375 16.40625 33.5625 17.203125 34.265625 
C 20.796875 37.28125 27.703125 38.484375 32.296875 36.171875 
C 38.59375 33.171875 39.796875 25.21875 39.296875 19 
C 39 15.0625 37.796875 11.453125 35.5 9.140625 
C 30.203125 3.5 21.296875 3.5 14.796875 6.796875 
C 11.59375 8.40625 8.90625 10.921875 6.90625 13.921875 
L 6.796875 13.921875 
C 6.5 13.421875 4.203125 9.90625 4.203125 9.296875 
C 4.203125 8.890625 4.5 8.59375 4.703125 8.296875 
C 7.703125 4.78125 11.59375 2.0625 16.09375 0.5625 
C 25 -2.25 35 -0.046875 41.296875 7.1875 
C 48.796875 15.921875 47.796875 30.15625 39.09375 37.765625 
C 36.5 40.1875 32.90625 41.890625 28.59375 42.28125 
C 22.796875 43.09375 17.59375 40.28125 14.5 37.671875 
L 14.5 61 
L 42.90625 61 
L 42.90625 66.328125 
z
" id="Computer_Modern_Bright-53"/>
      </defs>
      <g style="fill:#262626;" transform="translate(110.478877 324.249603)scale(0.16 -0.16)">
       <use transform="scale(0.996264)" xlink:href="#Computer_Modern_Bright_Math_Symbols-0"/>
       <use transform="translate(77.487468 0)scale(0.996264)" xlink:href="#Computer_Modern_Bright-55"/>
       <use transform="translate(128.130685 0)scale(0.996264)" xlink:href="#Computer_Modern_Bright_Math_Slanted-58"/>
       <use transform="translate(157.188132 0)scale(0.996264)" xlink:href="#Computer_Modern_Bright-53"/>
      </g>
     </g>
    </g>
    <g id="xtick_3">
     <g id="line2d_3"/>
     <g id="text_3">
      <!-- $-5.0$ -->
      <g style="fill:#262626;" transform="translate(161.20615 324.249603)scale(0.16 -0.16)">
       <use transform="scale(0.996264)" xlink:href="#Computer_Modern_Bright_Math_Symbols-0"/>
       <use transform="translate(77.487468 0)scale(0.996264)" xlink:href="#Computer_Modern_Bright-53"/>
       <use transform="translate(128.130685 0)scale(0.996264)" xlink:href="#Computer_Modern_Bright_Math_Slanted-58"/>
       <use transform="translate(157.188132 0)scale(0.996264)" xlink:href="#Computer_Modern_Bright-48"/>
      </g>
     </g>
    </g>
    <g id="xtick_4">
     <g id="line2d_4"/>
     <g id="text_4">
      <!-- $-2.5$ -->
      <defs>
       <path d="M 7.296875 45.96875 
C 8.703125 51.59375 11.09375 57.984375 16.796875 60.5 
C 19.203125 61.5 21.796875 61.703125 24.40625 61.5 
C 29.296875 61.09375 34.09375 59.09375 37.09375 55.09375 
C 39.296875 52.078125 40.09375 48.375 39.703125 44.78125 
C 38.5 34.34375 28.296875 26.84375 21.703125 21.234375 
C 17.90625 18.03125 7.09375 7.8125 7.09375 7.8125 
L 5.40625 6.203125 
C 4.5 5.3125 4.40625 5.3125 4.40625 3.5 
L 4.40625 0 
L 46.40625 0 
L 46.40625 5.625 
L 10.203125 5.625 
C 13.40625 8.734375 26.703125 20.515625 28.5 21.921875 
C 34.296875 26.65625 40.796875 31.375 44.296875 38.21875 
C 48.203125 46.0625 46.5 55.9375 39.90625 61.765625 
C 35.90625 65.296875 30.40625 67 25.09375 67 
C 20.203125 67 15.203125 66 11.296875 62.90625 
C 8.296875 60.390625 5.796875 56.6875 4.40625 52.875 
C 4.09375 52.28125 3.59375 51.28125 3.703125 50.578125 
C 3.796875 49.984375 4.40625 49.484375 4.703125 49.078125 
C 5.5 48.078125 6.296875 46.875 7.296875 45.96875 
" id="Computer_Modern_Bright-50"/>
      </defs>
      <g style="fill:#262626;" transform="translate(211.933423 324.249603)scale(0.16 -0.16)">
       <use transform="scale(0.996264)" xlink:href="#Computer_Modern_Bright_Math_Symbols-0"/>
       <use transform="translate(77.487468 0)scale(0.996264)" xlink:href="#Computer_Modern_Bright-50"/>
       <use transform="translate(128.130685 0)scale(0.996264)" xlink:href="#Computer_Modern_Bright_Math_Slanted-58"/>
       <use transform="translate(157.188132 0)scale(0.996264)" xlink:href="#Computer_Modern_Bright-53"/>
      </g>
     </g>
    </g>
    <g id="xtick_5">
     <g id="line2d_5"/>
     <g id="text_5">
      <!-- $0.0$ -->
      <g style="fill:#262626;" transform="translate(268.859693 324.249603)scale(0.16 -0.16)">
       <use transform="scale(0.996264)" xlink:href="#Computer_Modern_Bright-48"/>
       <use transform="translate(50.643218 0)scale(0.996264)" xlink:href="#Computer_Modern_Bright_Math_Slanted-58"/>
       <use transform="translate(79.700665 0)scale(0.996264)" xlink:href="#Computer_Modern_Bright-48"/>
      </g>
     </g>
    </g>
    <g id="xtick_6">
     <g id="line2d_6"/>
     <g id="text_6">
      <!-- $2.5$ -->
      <g style="fill:#262626;" transform="translate(319.586966 324.249603)scale(0.16 -0.16)">
       <use transform="scale(0.996264)" xlink:href="#Computer_Modern_Bright-50"/>
       <use transform="translate(50.643218 0)scale(0.996264)" xlink:href="#Computer_Modern_Bright_Math_Slanted-58"/>
       <use transform="translate(79.700665 0)scale(0.996264)" xlink:href="#Computer_Modern_Bright-53"/>
      </g>
     </g>
    </g>
    <g id="xtick_7">
     <g id="line2d_7"/>
     <g id="text_7">
      <!-- $5.0$ -->
      <g style="fill:#262626;" transform="translate(370.314239 324.249603)scale(0.16 -0.16)">
       <use transform="scale(0.996264)" xlink:href="#Computer_Modern_Bright-53"/>
       <use transform="translate(50.643218 0)scale(0.996264)" xlink:href="#Computer_Modern_Bright_Math_Slanted-58"/>
       <use transform="translate(79.700665 0)scale(0.996264)" xlink:href="#Computer_Modern_Bright-48"/>
      </g>
     </g>
    </g>
    <g id="xtick_8">
     <g id="line2d_8"/>
     <g id="text_8">
      <!-- $7.5$ -->
      <g style="fill:#262626;" transform="translate(421.041512 324.249603)scale(0.16 -0.16)">
       <use transform="scale(0.996264)" xlink:href="#Computer_Modern_Bright-55"/>
       <use transform="translate(50.643218 0)scale(0.996264)" xlink:href="#Computer_Modern_Bright_Math_Slanted-58"/>
       <use transform="translate(79.700665 0)scale(0.996264)" xlink:href="#Computer_Modern_Bright-53"/>
      </g>
     </g>
    </g>
    <g id="xtick_9">
     <g id="line2d_9"/>
     <g id="text_9">
      <!-- $10.0$ -->
      <g style="fill:#262626;" transform="translate(467.584509 324.249603)scale(0.16 -0.16)">
       <use transform="scale(0.996264)" xlink:href="#Computer_Modern_Bright-49"/>
       <use transform="translate(50.643218 0)scale(0.996264)" xlink:href="#Computer_Modern_Bright-48"/>
       <use transform="translate(101.286436 0)scale(0.996264)" xlink:href="#Computer_Modern_Bright_Math_Slanted-58"/>
       <use transform="translate(130.343883 0)scale(0.996264)" xlink:href="#Computer_Modern_Bright-48"/>
      </g>
     </g>
    </g>
   </g>
   <g id="matplotlib.axis_2">
    <g id="ytick_1">
     <g id="line2d_10"/>
     <g id="text_10">
      <!-- $-10.0$ -->
      <g style="fill:#262626;" transform="translate(7.2 298.124802)scale(0.16 -0.16)">
       <use transform="scale(0.996264)" xlink:href="#Computer_Modern_Bright_Math_Symbols-0"/>
       <use transform="translate(77.487468 0)scale(0.996264)" xlink:href="#Computer_Modern_Bright-49"/>
       <use transform="translate(128.130685 0)scale(0.996264)" xlink:href="#Computer_Modern_Bright-48"/>
       <use transform="translate(178.773903 0)scale(0.996264)" xlink:href="#Computer_Modern_Bright_Math_Slanted-58"/>
       <use transform="translate(207.83135 0)scale(0.996264)" xlink:href="#Computer_Modern_Bright-48"/>
      </g>
     </g>
    </g>
    <g id="ytick_2">
     <g id="line2d_11"/>
     <g id="text_11">
      <!-- $-7.5$ -->
      <g style="fill:#262626;" transform="translate(15.568551 264.149802)scale(0.16 -0.16)">
       <use transform="scale(0.996264)" xlink:href="#Computer_Modern_Bright_Math_Symbols-0"/>
       <use transform="translate(77.487468 0)scale(0.996264)" xlink:href="#Computer_Modern_Bright-55"/>
       <use transform="translate(128.130685 0)scale(0.996264)" xlink:href="#Computer_Modern_Bright_Math_Slanted-58"/>
       <use transform="translate(157.188132 0)scale(0.996264)" xlink:href="#Computer_Modern_Bright-53"/>
      </g>
     </g>
    </g>
    <g id="ytick_3">
     <g id="line2d_12"/>
     <g id="text_12">
      <!-- $-5.0$ -->
      <g style="fill:#262626;" transform="translate(15.568551 230.174802)scale(0.16 -0.16)">
       <use transform="scale(0.996264)" xlink:href="#Computer_Modern_Bright_Math_Symbols-0"/>
       <use transform="translate(77.487468 0)scale(0.996264)" xlink:href="#Computer_Modern_Bright-53"/>
       <use transform="translate(128.130685 0)scale(0.996264)" xlink:href="#Computer_Modern_Bright_Math_Slanted-58"/>
       <use transform="translate(157.188132 0)scale(0.996264)" xlink:href="#Computer_Modern_Bright-48"/>
      </g>
     </g>
    </g>
    <g id="ytick_4">
     <g id="line2d_13"/>
     <g id="text_13">
      <!-- $-2.5$ -->
      <g style="fill:#262626;" transform="translate(15.568551 196.199802)scale(0.16 -0.16)">
       <use transform="scale(0.996264)" xlink:href="#Computer_Modern_Bright_Math_Symbols-0"/>
       <use transform="translate(77.487468 0)scale(0.996264)" xlink:href="#Computer_Modern_Bright-50"/>
       <use transform="translate(128.130685 0)scale(0.996264)" xlink:href="#Computer_Modern_Bright_Math_Slanted-58"/>
       <use transform="translate(157.188132 0)scale(0.996264)" xlink:href="#Computer_Modern_Bright-53"/>
      </g>
     </g>
    </g>
    <g id="ytick_5">
     <g id="line2d_14"/>
     <g id="text_14">
      <!-- $0.0$ -->
      <g style="fill:#262626;" transform="translate(27.966547 162.224802)scale(0.16 -0.16)">
       <use transform="scale(0.996264)" xlink:href="#Computer_Modern_Bright-48"/>
       <use transform="translate(50.643218 0)scale(0.996264)" xlink:href="#Computer_Modern_Bright_Math_Slanted-58"/>
       <use transform="translate(79.700665 0)scale(0.996264)" xlink:href="#Computer_Modern_Bright-48"/>
      </g>
     </g>
    </g>
    <g id="ytick_6">
     <g id="line2d_15"/>
     <g id="text_15">
      <!-- $2.5$ -->
      <g style="fill:#262626;" transform="translate(27.966547 128.249802)scale(0.16 -0.16)">
       <use transform="scale(0.996264)" xlink:href="#Computer_Modern_Bright-50"/>
       <use transform="translate(50.643218 0)scale(0.996264)" xlink:href="#Computer_Modern_Bright_Math_Slanted-58"/>
       <use transform="translate(79.700665 0)scale(0.996264)" xlink:href="#Computer_Modern_Bright-53"/>
      </g>
     </g>
    </g>
    <g id="ytick_7">
     <g id="line2d_16"/>
     <g id="text_16">
      <!-- $5.0$ -->
      <g style="fill:#262626;" transform="translate(27.966547 94.274802)scale(0.16 -0.16)">
       <use transform="scale(0.996264)" xlink:href="#Computer_Modern_Bright-53"/>
       <use transform="translate(50.643218 0)scale(0.996264)" xlink:href="#Computer_Modern_Bright_Math_Slanted-58"/>
       <use transform="translate(79.700665 0)scale(0.996264)" xlink:href="#Computer_Modern_Bright-48"/>
      </g>
     </g>
    </g>
    <g id="ytick_8">
     <g id="line2d_17"/>
     <g id="text_17">
      <!-- $7.5$ -->
      <g style="fill:#262626;" transform="translate(27.966547 60.299802)scale(0.16 -0.16)">
       <use transform="scale(0.996264)" xlink:href="#Computer_Modern_Bright-55"/>
       <use transform="translate(50.643218 0)scale(0.996264)" xlink:href="#Computer_Modern_Bright_Math_Slanted-58"/>
       <use transform="translate(79.700665 0)scale(0.996264)" xlink:href="#Computer_Modern_Bright-53"/>
      </g>
     </g>
    </g>
    <g id="ytick_9">
     <g id="line2d_18"/>
     <g id="text_18">
      <!-- $10.0$ -->
      <g style="fill:#262626;" transform="translate(19.597996 26.324802)scale(0.16 -0.16)">
       <use transform="scale(0.996264)" xlink:href="#Computer_Modern_Bright-49"/>
       <use transform="translate(50.643218 0)scale(0.996264)" xlink:href="#Computer_Modern_Bright-48"/>
       <use transform="translate(101.286436 0)scale(0.996264)" xlink:href="#Computer_Modern_Bright_Math_Slanted-58"/>
       <use transform="translate(130.343883 0)scale(0.996264)" xlink:href="#Computer_Modern_Bright-48"/>
      </g>
     </g>
    </g>
   </g>
   <g id="line2d_19">
    <path clip-path="url(#p05d6e405e0)" d="M 76.643749 88.74 
L 84.925753 91.513469 
L 93.207756 94.286939 
L 101.48976 97.060408 
L 109.771764 99.833878 
L 118.053768 102.607347 
L 126.335771 105.380816 
L 134.617775 108.154286 
L 142.899779 110.927755 
L 151.181782 113.701224 
L 159.463786 116.474694 
L 167.74579 119.248163 
L 176.027794 122.021633 
L 184.309797 124.795102 
L 192.591801 127.568571 
L 200.873805 130.342041 
L 209.155808 133.11551 
L 217.437812 135.88898 
L 225.719816 138.662449 
L 234.00182 141.435918 
L 242.283823 144.209388 
L 250.565827 146.982857 
L 258.847831 149.756327 
L 267.129834 152.529796 
L 275.411838 155.303265 
L 283.693842 158.076735 
L 291.975846 160.850204 
L 300.257849 163.623673 
L 308.539853 166.397143 
L 316.821857 169.170612 
L 325.10386 171.944082 
L 333.385864 174.717551 
L 341.667868 177.49102 
L 349.949871 180.26449 
L 358.231875 183.037959 
L 366.513879 185.811429 
L 374.795883 188.584898 
L 383.077886 191.358367 
L 391.35989 194.131837 
L 399.641894 196.905306 
L 407.923897 199.678776 
L 416.205901 202.452245 
L 424.487905 205.225714 
L 432.769909 207.999184 
L 441.051912 210.772653 
L 449.333916 213.546122 
L 457.61592 216.319592 
L 465.897923 219.093061 
L 474.179927 221.866531 
L 482.461931 224.64 
" style="fill:none;stroke:#1f78b4;stroke-linecap:round;stroke-width:5;"/>
   </g>
   <g id="line2d_20">
    <path clip-path="url(#p05d6e405e0)" d="M 76.643749 122.715 
L 84.925753 124.101735 
L 93.207756 125.488469 
L 101.48976 126.875204 
L 109.771764 128.261939 
L 118.053768 129.648673 
L 126.335771 131.035408 
L 134.617775 132.422143 
L 142.899779 133.808878 
L 151.181782 135.195612 
L 159.463786 136.582347 
L 167.74579 137.969082 
L 176.027794 139.355816 
L 184.309797 140.742551 
L 192.591801 142.129286 
L 200.873805 143.51602 
L 209.155808 144.902755 
L 217.437812 146.28949 
L 225.719816 147.676224 
L 234.00182 149.062959 
L 242.283823 150.449694 
L 250.565827 151.836429 
L 258.847831 153.223163 
L 267.129834 154.609898 
L 275.411838 155.996633 
L 283.693842 157.383367 
L 291.975846 158.770102 
L 300.257849 160.156837 
L 308.539853 161.543571 
L 316.821857 162.930306 
L 325.10386 164.317041 
L 333.385864 165.703776 
L 341.667868 167.09051 
L 349.949871 168.477245 
L 358.231875 169.86398 
L 366.513879 171.250714 
L 374.795883 172.637449 
L 383.077886 174.024184 
L 391.35989 175.410918 
L 399.641894 176.797653 
L 407.923897 178.184388 
L 416.205901 179.571122 
L 424.487905 180.957857 
L 432.769909 182.344592 
L 441.051912 183.731327 
L 449.333916 185.118061 
L 457.61592 186.504796 
L 465.897923 187.891531 
L 474.179927 189.278265 
L 482.461931 190.665 
" style="fill:none;stroke:#33a02c;stroke-dasharray:5.6,2.4;stroke-dashoffset:0;stroke-width:2;"/>
   </g>
   <g id="line2d_21">
    <path clip-path="url(#p05d6e405e0)" d="M 76.643749 20.79 
L 84.925753 26.336939 
L 93.207756 31.883878 
L 101.48976 37.430816 
L 109.771764 42.977755 
L 118.053768 48.524694 
L 126.335771 54.071633 
L 134.617775 59.618571 
L 142.899779 65.16551 
L 151.181782 70.712449 
L 159.463786 76.259388 
L 167.74579 81.806327 
L 176.027794 87.353265 
L 184.309797 92.900204 
L 192.591801 98.447143 
L 200.873805 103.994082 
L 209.155808 109.54102 
L 217.437812 115.087959 
L 225.719816 120.634898 
L 234.00182 126.181837 
L 242.283823 131.728776 
L 250.565827 137.275714 
L 258.847831 142.822653 
L 267.129834 148.369592 
L 275.411838 153.916531 
L 283.693842 159.463469 
L 291.975846 165.010408 
L 300.257849 170.557347 
L 308.539853 176.104286 
L 316.821857 181.651224 
L 325.10386 187.198163 
L 333.385864 192.745102 
L 341.667868 198.292041 
L 349.949871 203.83898 
L 358.231875 209.385918 
L 366.513879 214.932857 
L 374.795883 220.479796 
L 383.077886 226.026735 
L 391.35989 231.573673 
L 399.641894 237.120612 
L 407.923897 242.667551 
L 416.205901 248.21449 
L 424.487905 253.761429 
L 432.769909 259.308367 
L 441.051912 264.855306 
L 449.333916 270.402245 
L 457.61592 275.949184 
L 465.897923 281.496122 
L 474.179927 287.043061 
L 482.461931 292.59 
" style="fill:none;stroke:#e31a1c;stroke-linecap:round;stroke-width:2;"/>
   </g>
   <g id="line2d_22">
    <path clip-path="url(#p05d6e405e0)" d="M 76.643749 156.69 
L 84.925753 156.69 
L 93.207756 156.69 
L 101.48976 156.69 
L 109.771764 156.69 
L 118.053768 156.69 
L 126.335771 156.69 
L 134.617775 156.69 
L 142.899779 156.69 
L 151.181782 156.69 
L 159.463786 156.69 
L 167.74579 156.69 
L 176.027794 156.69 
L 184.309797 156.69 
L 192.591801 156.69 
L 200.873805 156.69 
L 209.155808 156.69 
L 217.437812 156.69 
L 225.719816 156.69 
L 234.00182 156.69 
L 242.283823 156.69 
L 250.565827 156.69 
L 258.847831 156.69 
L 267.129834 156.69 
L 275.411838 156.69 
L 283.693842 156.69 
L 291.975846 156.69 
L 300.257849 156.69 
L 308.539853 156.69 
L 316.821857 156.69 
L 325.10386 156.69 
L 333.385864 156.69 
L 341.667868 156.69 
L 349.949871 156.69 
L 358.231875 156.69 
L 366.513879 156.69 
L 374.795883 156.69 
L 383.077886 156.69 
L 391.35989 156.69 
L 399.641894 156.69 
L 407.923897 156.69 
L 416.205901 156.69 
L 424.487905 156.69 
L 432.769909 156.69 
L 441.051912 156.69 
L 449.333916 156.69 
L 457.61592 156.69 
L 465.897923 156.69 
L 474.179927 156.69 
L 482.461931 156.69 
" style="fill:none;stroke:#ff7f00;stroke-linecap:round;stroke-width:5;"/>
   </g>
   <g id="line2d_23">
    <path clip-path="url(#p05d6e405e0)" d="M 76.643749 292.59 
L 84.925753 287.043061 
L 93.207756 281.496122 
L 101.48976 275.949184 
L 109.771764 270.402245 
L 118.053768 264.855306 
L 126.335771 259.308367 
L 134.617775 253.761429 
L 142.899779 248.21449 
L 151.181782 242.667551 
L 159.463786 237.120612 
L 167.74579 231.573673 
L 176.027794 226.026735 
L 184.309797 220.479796 
L 192.591801 214.932857 
L 200.873805 209.385918 
L 209.155808 203.83898 
L 217.437812 198.292041 
L 225.719816 192.745102 
L 234.00182 187.198163 
L 242.283823 181.651224 
L 250.565827 176.104286 
L 258.847831 170.557347 
L 267.129834 165.010408 
L 275.411838 159.463469 
L 283.693842 153.916531 
L 291.975846 148.369592 
L 300.257849 142.822653 
L 308.539853 137.275714 
L 316.821857 131.728776 
L 325.10386 126.181837 
L 333.385864 120.634898 
L 341.667868 115.087959 
L 349.949871 109.54102 
L 358.231875 103.994082 
L 366.513879 98.447143 
L 374.795883 92.900204 
L 383.077886 87.353265 
L 391.35989 81.806327 
L 399.641894 76.259388 
L 407.923897 70.712449 
L 416.205901 65.16551 
L 424.487905 59.618571 
L 432.769909 54.071633 
L 441.051912 48.524694 
L 449.333916 42.977755 
L 457.61592 37.430816 
L 465.897923 31.883878 
L 474.179927 26.336939 
L 482.461931 20.79 
" style="fill:none;stroke:#6a3d9a;stroke-linecap:round;"/>
   </g>
   <g id="patch_3">
    <path d="M 56.35284 306.18 
L 56.35284 7.2 
" style="fill:none;"/>
   </g>
   <g id="patch_4">
    <path d="M 502.75284 306.18 
L 502.75284 7.2 
" style="fill:none;"/>
   </g>
   <g id="patch_5">
    <path d="M 56.35284 306.18 
L 502.75284 306.18 
" style="fill:none;"/>
   </g>
   <g id="patch_6">
    <path d="M 56.35284 7.2 
L 502.75284 7.2 
" style="fill:none;"/>
   </g>
   <g id="legend_1">
    <g id="text_19">
     <!-- Genetic Interaction -->
     <defs>
      <path d="M 62.09375 33.3125 
L 40 33.3125 
L 40 28 
L 55.703125 28 
L 55.703125 9.59375 
C 55.703125 9.09375 55.796875 8.390625 55.5 7.984375 
C 55.203125 7.390625 53.90625 7.1875 53.296875 6.984375 
C 48.703125 5.6875 41.90625 4.375 36.5 5.375 
C 29.203125 6.578125 23 11.40625 19.203125 17.71875 
C 11.59375 30.140625 13 47.5625 23.40625 57.96875 
C 26.5 61.09375 30.296875 63.5 35 64.59375 
C 41.5 66.203125 49.09375 64.59375 53.90625 62.296875 
C 56.09375 61.28125 58 59.875 60 58.578125 
L 61.203125 65.59375 
C 58.5 66.796875 55.90625 68 53 68.890625 
C 48.59375 70.09375 44.09375 70.5 39.59375 70.5 
C 27.703125 70.5 18.5 63.109375 13.59375 56.03125 
C 6.296875 45.0625 5.40625 30.3125 11.296875 18.53125 
C 14.59375 11.65625 20 6.578125 26.796875 3.078125 
C 35.203125 -1 45.09375 -1 53.90625 1.53125 
C 55.09375 1.828125 61.703125 3.921875 62 4.859375 
C 62.09375 5.171875 62.09375 5.59375 62.09375 5.90625 
z
" id="Computer_Modern_Bright-71"/>
      <path d="M 41.796875 10.9375 
C 39.5 9.234375 38.796875 8.328125 35.90625 6.8125 
C 29.796875 3.5 22.59375 3.5 17.40625 7.171875 
C 12.40625 10.765625 9.5 16.640625 9.5 25 
L 42.5 25 
C 42.5 32.421875 40.796875 38.859375 36.59375 43.375 
C 32 47.890625 24.796875 49.296875 18.703125 47.390625 
C 16.40625 46.6875 14.296875 45.484375 12.40625 43.96875 
C 6.09375 38.859375 3.40625 30.71875 3.5 22.78125 
C 3.703125 12.34375 10.796875 1.90625 21.296875 -0.3125 
C 26.796875 -1.421875 32.59375 -0.203125 37.5 2.296875 
C 38.40625 2.796875 41.703125 4.609375 42.09375 5.515625 
C 42.40625 6.015625 41.796875 10.9375 41.796875 10.9375 
M 37.203125 28.90625 
L 10 28.90625 
C 11.203125 36.234375 17.203125 43.96875 25.296875 43.0625 
C 31.90625 42.46875 35.40625 37.75 36.703125 31.828125 
C 36.90625 30.8125 37 29.921875 37.203125 28.90625 
" id="Computer_Modern_Bright-101"/>
      <path d="M 12.59375 37.28125 
L 12.5 37.28125 
L 12.5 47.390625 
L 6.40625 47.390625 
L 6.40625 0 
L 12.796875 0 
L 12.796875 21.9375 
C 12.796875 26.84375 12.5 31.875 14.703125 36.46875 
C 15.796875 38.78125 17.5 40.78125 19.796875 41.984375 
C 21.703125 42.890625 23.703125 42.890625 25.796875 42.6875 
C 28.796875 42.6875 31.703125 41.890625 33.59375 39.375 
C 35.40625 37.0625 35.5 34.0625 35.5 31.25 
L 35.5 0 
L 41.90625 0 
L 41.90625 26.859375 
C 41.90625 31.875 42.40625 37.375 40 41.890625 
C 38.09375 45.5 34.40625 47.203125 30.5 47.703125 
C 28.5 48 26.40625 48 24.40625 47.609375 
C 19.203125 46.5 14.40625 42.296875 12.59375 37.28125 
" id="Computer_Modern_Bright-110"/>
      <path d="M 10.796875 60.5 
L 10.796875 47.015625 
L 1.09375 47.015625 
L 1.09375 42 
L 10.703125 42 
L 10.703125 15.015625 
C 10.703125 10.578125 10.40625 5.234375 13.296875 1.515625 
C 15 -0.703125 17.296875 -1.296875 20.796875 -1 
C 23.703125 -1 26.59375 -0.390625 29.296875 0.65625 
C 30.203125 1.0625 33.5 2.515625 33.90625 3.234375 
C 34.09375 3.640625 32.796875 8.09375 32.796875 8.09375 
L 30.40625 6.265625 
C 27.296875 4.34375 21.09375 2.328125 18.5 5.96875 
C 16.203125 9.09375 16.796875 13.75 16.796875 17.375 
L 16.796875 42 
L 32.296875 42 
L 32.296875 47.015625 
L 16.796875 47.015625 
L 16.796875 60.5 
z
" id="Computer_Modern_Bright-116"/>
      <path d="M 6.40625 70 
L 6.40625 63.671875 
L 12.703125 63.671875 
L 12.703125 70 
z
M 6.40625 47.390625 
L 6.40625 0 
L 12.703125 0 
L 12.703125 47.390625 
z
" id="Computer_Modern_Bright-105"/>
      <path d="M 42.40625 11.25 
C 40.5 9.84375 38.796875 8.328125 36.703125 7.125 
C 32 4.625 24.796875 3.421875 19.40625 5.921875 
C 11.59375 9.9375 9.5 19.6875 10.59375 27.71875 
C 10.796875 29.328125 11.09375 30.921875 11.59375 32.4375 
C 13.796875 38.96875 19.296875 44.078125 28.296875 43.078125 
C 33.09375 42.671875 35.5 41.875 39.296875 39.765625 
C 40 39.359375 40.59375 38.859375 41.40625 38.65625 
C 41.5 39.859375 41.796875 41.171875 42 42.375 
C 42.296875 43.984375 42.296875 44.1875 40.796875 44.890625 
C 39.703125 45.390625 38.59375 45.984375 37.40625 46.390625 
C 32.796875 48.40625 25.203125 49 20 47.5 
C 12.90625 45.484375 7.59375 39.359375 5.296875 32.53125 
C 4.203125 29.421875 3.90625 26.109375 3.90625 22.796875 
C 4 12.25 11.203125 1.90625 21.703125 -0.203125 
C 27.5 -1.40625 34.203125 0.296875 38.203125 2.40625 
C 39.203125 2.90625 42.203125 4.71875 42.703125 5.625 
C 43 6.125 42.40625 11.25 42.40625 11.25 
" id="Computer_Modern_Bright-99"/>
      <path d="M 8 69.6875 
L 8 0 
L 15 0 
L 15 69.6875 
z
" id="Computer_Modern_Bright-73"/>
      <path d="M 12.5 34.75 
L 12.40625 34.75 
L 12.40625 47.390625 
L 6.40625 47.390625 
L 6.40625 0 
L 12.703125 0 
L 12.703125 22.890625 
C 12.703125 24.40625 12.703125 25.90625 12.90625 27.40625 
C 14.296875 35.953125 21.703125 42.28125 31.40625 42.28125 
L 31.40625 48 
C 25 48 19.09375 44.890625 15.296875 39.765625 
C 14.203125 38.265625 13 36.546875 12.5 34.75 
" id="Computer_Modern_Bright-114"/>
      <path d="M 7.90625 39.015625 
C 9.59375 39.859375 11 41.09375 12.703125 41.921875 
C 15.40625 43.15625 18.203125 44 21.203125 44 
C 22.59375 44.09375 24.203125 44.296875 25.59375 44 
C 28.09375 43.59375 30.296875 42.078125 31.796875 39.953125 
C 33.296875 37.515625 33.90625 35.390625 33.90625 31.46875 
L 33.90625 27.015625 
C 29.09375 27.015625 24.296875 26.609375 19.703125 25.390625 
C 13.90625 24.078125 7.59375 21.125 5.5 15.84375 
C 3.40625 10.78125 5.59375 4.078125 10.09375 1.03125 
C 12.296875 -0.5 14.90625 -0.5 17.5 -0.296875 
C 21.703125 0 25.90625 1.015625 29.5 3.25 
C 31.203125 4.25 32.90625 5.578125 33.90625 7.296875 
L 34 7.296875 
L 34 0.203125 
L 40.296875 0.203125 
L 40.296875 26.890625 
C 40.296875 29.8125 40.59375 32.953125 40 35.890625 
C 39.40625 39.921875 36.90625 43.265625 34 45.59375 
C 30.59375 48.21875 26.703125 49.109375 21.5 48.71875 
C 16.703125 48.71875 13 47.5 9.40625 45.765625 
C 8.90625 45.5625 7.90625 45.234375 7.59375 44.640625 
C 7.296875 44.21875 7.5 43.515625 7.5 43 
C 7.703125 41.671875 7.796875 40.34375 7.90625 39.015625 
M 33.90625 24 
L 33.90625 16.375 
C 33.90625 14.0625 34 11.953125 32.703125 9.953125 
C 31.59375 8.34375 30.09375 7.234375 28.5 6.4375 
C 22.796875 3.515625 14.09375 4.421875 11.59375 9.25 
C 9.59375 12.75 11.703125 16.875 14.59375 19.1875 
C 18.90625 22.5 27.296875 24 33.90625 24 
" id="Computer_Modern_Bright-97"/>
      <path d="M 10.703125 42.078125 
C 1.796875 33.234375 0.796875 17.875 8.5 7.9375 
C 9.59375 6.421875 10.90625 5.125 12.40625 4.015625 
C 16.09375 1 21.5 -1.203125 27.796875 -0.5 
C 37.796875 0.703125 44.703125 8.84375 46.796875 17.375 
C 49.59375 29.328125 43.703125 42.671875 32.703125 46.890625 
C 24.09375 50.40625 15.5 46.890625 10.703125 42.078125 
M 35.703125 39.359375 
C 40.5 35.03125 41.40625 28.109375 41 21.984375 
C 40.703125 17.265625 39.40625 12.34375 36.09375 8.828125 
C 30.703125 3 20.703125 3 14.90625 8.625 
C 11.90625 11.84375 10.09375 16.453125 9.796875 21.984375 
C 9.296875 30.109375 11.296875 38.75 19.296875 41.96875 
C 25.203125 44.578125 32 42.671875 35.703125 39.359375 
" id="Computer_Modern_Bright-111"/>
     </defs>
     <g style="fill:#262626;" transform="translate(314.996953 30.869603)scale(0.16 -0.16)">
      <use transform="scale(0.996264)" xlink:href="#Computer_Modern_Bright-71"/>
      <use transform="translate(68.077762 0)scale(0.996264)" xlink:href="#Computer_Modern_Bright-101"/>
      <use transform="translate(112.90943 0)scale(0.996264)" xlink:href="#Computer_Modern_Bright-110"/>
      <use transform="translate(161.061927 0)scale(0.996264)" xlink:href="#Computer_Modern_Bright-101"/>
      <use transform="translate(205.893594 0)scale(0.996264)" xlink:href="#Computer_Modern_Bright-116"/>
      <use transform="translate(242.007982 0)scale(0.996264)" xlink:href="#Computer_Modern_Bright-105"/>
      <use transform="translate(261.102941 0)scale(0.996264)" xlink:href="#Computer_Modern_Bright-99"/>
      <use transform="translate(337.39982 0)scale(0.996264)" xlink:href="#Computer_Modern_Bright-73"/>
      <use transform="translate(360.2308 0)scale(0.996264)" xlink:href="#Computer_Modern_Bright-110"/>
      <use transform="translate(408.383297 0)scale(0.996264)" xlink:href="#Computer_Modern_Bright-116"/>
      <use transform="translate(444.497684 0)scale(0.996264)" xlink:href="#Computer_Modern_Bright-101"/>
      <use transform="translate(489.329352 0)scale(0.996264)" xlink:href="#Computer_Modern_Bright-114"/>
      <use transform="translate(521.292711 0)scale(0.996264)" xlink:href="#Computer_Modern_Bright-97"/>
      <use transform="translate(567.784793 0)scale(0.996264)" xlink:href="#Computer_Modern_Bright-99"/>
      <use transform="translate(612.616461 0)scale(0.996264)" xlink:href="#Computer_Modern_Bright-116"/>
      <use transform="translate(648.730849 0)scale(0.996264)" xlink:href="#Computer_Modern_Bright-105"/>
      <use transform="translate(667.825808 0)scale(0.996264)" xlink:href="#Computer_Modern_Bright-111"/>
      <use transform="translate(718.469025 0)scale(0.996264)" xlink:href="#Computer_Modern_Bright-110"/>
     </g>
    </g>
    <g id="line2d_24">
     <path d="M 269.473795 46.087085 
L 297.473795 46.087085 
" style="fill:none;stroke:#1f78b4;stroke-linecap:round;stroke-width:5;"/>
    </g>
    <g id="line2d_25"/>
    <g id="text_20">
     <!-- unbranched linear, $s=-1/2$ -->
     <defs>
      <path d="M 6.40625 47 
L 6.40625 12.96875 
C 6.40625 10.046875 6.5 7.140625 7.703125 4.421875 
C 9.59375 0.515625 13.59375 -1 17.703125 -1 
C 23.203125 -1 28.703125 0.8125 32.703125 4.734375 
C 33.796875 5.828125 34.796875 6.9375 35.5 8.34375 
L 35.59375 8.34375 
L 35.59375 -0.390625 
L 41.90625 -0.390625 
L 41.90625 47 
L 35.5 47 
L 35.5 22.90625 
C 35.5 18.6875 36.09375 14.0625 33.90625 10.25 
C 32.296875 7.4375 29.5 5.234375 26.40625 4.234375 
C 24.296875 3.625 22.09375 3.625 19.90625 3.828125 
C 17.796875 4.03125 15.5 4.234375 14.09375 6.03125 
C 12.09375 8.453125 12.796875 14.171875 12.796875 17.6875 
L 12.796875 47 
z
" id="Computer_Modern_Bright-117"/>
      <path d="M 6.40625 69.6875 
L 6.40625 0 
L 12.796875 0 
L 12.796875 6.328125 
L 12.90625 6.328125 
C 14 4.109375 16.5 2.015625 18.59375 0.90625 
C 25.796875 -2.90625 34.40625 0.90625 39.09375 7.03125 
C 48.59375 19.578125 44.796875 40.875 32.296875 46.796875 
C 27.40625 49 21.5 48 17.09375 44.984375 
C 15.40625 43.78125 14 42.375 12.703125 40.765625 
L 12.703125 69.6875 
z
M 21.90625 42.984375 
C 26.59375 43.375 31.5 41.265625 34.296875 37.453125 
C 36.203125 34.9375 37.203125 31.9375 37.703125 28.8125 
C 38.703125 21.484375 37.90625 12.25 31.40625 7.4375 
C 30.296875 6.625 29.09375 6.03125 27.796875 5.515625 
C 22.40625 3.515625 17 4.109375 14 8.84375 
C 13.09375 10.4375 12.796875 10.546875 12.796875 12.953125 
L 12.796875 33.734375 
C 12.796875 34.75 12.59375 35.953125 13 36.859375 
C 14.59375 40.171875 18.296875 42.671875 21.90625 42.984375 
" id="Computer_Modern_Bright-98"/>
      <path d="M 6.40625 69.6875 
L 6.40625 0 
L 12.796875 0 
L 12.796875 21.984375 
C 12.796875 26.90625 12.5 31.9375 14.703125 36.546875 
C 15.796875 38.859375 17.5 40.875 19.796875 42.078125 
C 21.703125 42.984375 23.703125 42.984375 25.796875 42.78125 
C 28.796875 42.78125 31.703125 41.984375 33.59375 39.453125 
C 35.40625 37.140625 35.5 34.140625 35.5 31.3125 
L 35.5 0 
L 41.90625 0 
L 41.90625 27.21875 
C 41.90625 32.234375 42.40625 37.75 39.90625 42.28125 
C 37.90625 45.6875 34.40625 47.296875 30.703125 47.796875 
C 28.703125 48 26.703125 48 24.703125 47.703125 
C 21.09375 47.015625 18 45.03125 15.59375 42.34375 
C 14.5 41.046875 13.203125 39.46875 12.796875 37.765625 
L 12.703125 37.765625 
L 12.703125 69.6875 
z
" id="Computer_Modern_Bright-104"/>
      <path d="M 35.59375 69.6875 
L 35.59375 41.375 
C 33.703125 43.484375 31.796875 45.484375 29.203125 46.6875 
C 20.296875 50.40625 11.703125 45.59375 7.296875 37.65625 
C 2.203125 28.21875 2.796875 15.765625 8.90625 6.921875 
C 13.203125 0.796875 20.296875 -2.203125 27.796875 0.5 
C 30.703125 1.609375 34.203125 4.515625 35.40625 7.125 
L 35.5 7.125 
L 35.5 0 
L 41.90625 0 
L 41.90625 69.6875 
z
M 35.203125 37.453125 
C 35.703125 36.546875 35.5 35.34375 35.5 34.34375 
L 35.5 13.65625 
C 35.5 11.34375 35.40625 11.140625 34.09375 9.34375 
C 32.296875 6.625 29.5 4.71875 26.203125 4.421875 
C 21.40625 4.015625 16.5 6.328125 13.703125 10.25 
C 12.09375 12.546875 11.203125 15.359375 10.703125 18.171875 
C 10.5 19.28125 10.5 20.28125 10.40625 21.390625 
C 9.796875 28.015625 11.203125 35.84375 17 40.0625 
C 18 40.765625 19.09375 41.265625 20.203125 41.765625 
C 26 43.984375 32.40625 43.375 35.203125 37.453125 
" id="Computer_Modern_Bright-100"/>
      <path d="M 6.40625 69.6875 
L 6.40625 0 
L 12.703125 0 
L 12.703125 69.6875 
z
" id="Computer_Modern_Bright-108"/>
      <path d="M 9.90625 7.828125 
L 9.90625 0 
L 12.296875 0 
L 9.796875 -11 
L 13.796875 -11 
C 15.09375 -7.34375 16.40625 -3.765625 17.59375 -0.09375 
C 17.703125 2.40625 17.703125 5.125 17.703125 7.828125 
z
" id="Computer_Modern_Bright-44"/>
      <path d="M 6 10.125 
L 3.703125 4.3125 
C 5.59375 3.15625 7.5 2.078125 9.59375 1.234375 
C 15.5 -1 23.796875 -1 29.90625 1.296875 
C 34.59375 3.078125 38.09375 6.65625 39.90625 11.328125 
C 41.296875 14.890625 41.203125 18.765625 39.40625 21.546875 
C 36.703125 26.03125 32.09375 27.203125 26.09375 28.3125 
C 23.09375 28.890625 19.703125 29.40625 17.796875 32.09375 
C 15.703125 34.96875 17.296875 38.734375 19.703125 40.921875 
C 22.296875 43.203125 26.40625 44 31 44 
C 33.59375 44 36.203125 43.578125 38.703125 42.625 
C 40.40625 41.875 41.90625 40.953125 43.5 40.09375 
L 45.59375 45.5625 
C 41.59375 47.375 38.90625 48.5 33.59375 48.5 
C 27 49 20.09375 47.703125 15.796875 43.828125 
C 11.09375 39.546875 8.5 31.375 13.40625 26.515625 
C 16.703125 22.828125 21.796875 22.328125 26.40625 21.34375 
C 29.703125 20.640625 33.40625 19.65625 34.59375 16.0625 
C 35 14.671875 34.796875 13.171875 34.296875 11.875 
C 32.703125 7.109375 27.90625 4.71875 21.59375 4.71875 
C 17.703125 4.71875 13.90625 5.515625 10.40625 7.21875 
C 8.796875 8.015625 7.40625 9.125 6 10.125 
" id="Computer_Modern_Bright_Math_Slanted-115"/>
      <path d="M 6.296875 37.921875 
C 4.296875 37.328125 4.40625 34.515625 6.5 34.109375 
C 7.09375 33.90625 7.796875 34 8.40625 34 
L 68.5 34 
C 69.296875 34 70.09375 34 70.703125 34.609375 
C 71.90625 35.71875 71.09375 37.828125 69.5 38.03125 
C 68.09375 38.125 66.703125 38.03125 65.296875 38.03125 
L 8 38.03125 
C 7.5 38.03125 6.796875 38.125 6.296875 37.921875 
M 5.09375 18.015625 
C 4.40625 16.90625 5.09375 15.390625 6.296875 15.09375 
C 6.90625 14.890625 7.5 15 8.09375 15 
L 68.59375 15 
C 69.40625 15 70.09375 15 70.703125 15.59375 
C 72 16.796875 71.09375 18.8125 69.40625 19.015625 
C 68 19.109375 66.59375 19.015625 65.203125 19.015625 
L 8.09375 19.015625 
C 6.796875 19.015625 5.796875 19.109375 5.09375 18.015625 
" id="Computer_Modern_Bright-61"/>
      <path d="M 41.796875 75.046875 
C 40.703125 74.75 40.40625 73.84375 40 72.84375 
L 39.09375 70.328125 
L 6.5 -17.4375 
C 6 -18.734375 4.90625 -20.640625 6.296875 -21.734375 
C 6.703125 -22.140625 7.296875 -22.25 7.90625 -22.25 
C 8.90625 -22.046875 9.40625 -21.234375 9.703125 -20.34375 
L 38.40625 56.90625 
L 43.90625 71.734375 
C 44.09375 72.234375 44.296875 72.84375 44.296875 73.4375 
C 44.09375 74.546875 42.90625 75.4375 41.796875 75.046875 
" id="Computer_Modern_Bright_Math_Slanted-61"/>
     </defs>
     <g style="fill:#262626;" transform="translate(308.673795 50.987085)scale(0.14 -0.14)">
      <use transform="scale(0.996264)" xlink:href="#Computer_Modern_Bright-117"/>
      <use transform="translate(48.152497 0)scale(0.996264)" xlink:href="#Computer_Modern_Bright-110"/>
      <use transform="translate(96.304994 0)scale(0.996264)" xlink:href="#Computer_Modern_Bright-98"/>
      <use transform="translate(141.551761 0)scale(0.996264)" xlink:href="#Computer_Modern_Bright-114"/>
      <use transform="translate(173.51512 0)scale(0.996264)" xlink:href="#Computer_Modern_Bright-97"/>
      <use transform="translate(220.007203 0)scale(0.996264)" xlink:href="#Computer_Modern_Bright-110"/>
      <use transform="translate(268.1597 0)scale(0.996264)" xlink:href="#Computer_Modern_Bright-99"/>
      <use transform="translate(312.991367 0)scale(0.996264)" xlink:href="#Computer_Modern_Bright-104"/>
      <use transform="translate(361.143864 0)scale(0.996264)" xlink:href="#Computer_Modern_Bright-101"/>
      <use transform="translate(405.975532 0)scale(0.996264)" xlink:href="#Computer_Modern_Bright-100"/>
      <use transform="translate(485.59324 0)scale(0.996264)" xlink:href="#Computer_Modern_Bright-108"/>
      <use transform="translate(504.688199 0)scale(0.996264)" xlink:href="#Computer_Modern_Bright-105"/>
      <use transform="translate(523.783158 0)scale(0.996264)" xlink:href="#Computer_Modern_Bright-110"/>
      <use transform="translate(571.935655 0)scale(0.996264)" xlink:href="#Computer_Modern_Bright-101"/>
      <use transform="translate(616.767323 0)scale(0.996264)" xlink:href="#Computer_Modern_Bright-97"/>
      <use transform="translate(660.353676 0)scale(0.996264)" xlink:href="#Computer_Modern_Bright-114"/>
      <use transform="translate(692.317034 0)scale(0.996264)" xlink:href="#Computer_Modern_Bright-44"/>
      <use transform="translate(751.179369 0)scale(0.996264)" xlink:href="#Computer_Modern_Bright_Math_Slanted-115"/>
      <use transform="translate(827.209001 0)scale(0.996264)" xlink:href="#Computer_Modern_Bright-61"/>
      <use transform="translate(930.709121 0)scale(0.996264)" xlink:href="#Computer_Modern_Bright_Math_Symbols-0"/>
      <use transform="translate(1008.196588 0)scale(0.996264)" xlink:href="#Computer_Modern_Bright-49"/>
      <use transform="translate(1058.839806 0)scale(0.996264)" xlink:href="#Computer_Modern_Bright_Math_Slanted-61"/>
      <use transform="translate(1108.653189 0)scale(0.996264)" xlink:href="#Computer_Modern_Bright-50"/>
     </g>
    </g>
    <g id="line2d_26">
     <path d="M 269.473795 66.647348 
L 297.473795 66.647348 
" style="fill:none;stroke:#33a02c;stroke-dasharray:5.6,2.4;stroke-dashoffset:0;stroke-width:2;"/>
    </g>
    <g id="line2d_27"/>
    <g id="text_21">
     <!-- branched linear, $-1/2 &lt; s &lt; 0$ -->
     <defs>
      <path d="M 15.40625 26.34375 
L 15.40625 26.546875 
C 16.40625 26.953125 21.40625 29.359375 22.90625 30.0625 
L 36.09375 36.375 
C 40.90625 38.578125 45.5 41.078125 50.296875 43.28125 
C 55.59375 45.6875 60.90625 48.296875 66.203125 50.890625 
C 66.90625 51.203125 67.90625 51.5 68.40625 52.09375 
C 69.40625 53.09375 69 54.8125 67.796875 55.3125 
C 66.59375 55.90625 65.40625 54.90625 64.296875 54.40625 
L 22.90625 34.5625 
L 12.09375 29.359375 
C 10.796875 28.75 8.703125 28.15625 8.703125 26.453125 
C 8.703125 24.75 10.796875 24.140625 12.09375 23.546875 
L 22.90625 18.328125 
L 56.5 2.203125 
L 64.296875 -1.5 
C 65.40625 -2 66.59375 -3 67.796875 -2.40625 
C 69 -1.90625 69.40625 -0.203125 68.40625 0.796875 
C 67.90625 1.40625 66.90625 1.703125 66.203125 2 
C 60.90625 4.609375 55.59375 7.21875 50.296875 9.625 
C 45.5 11.828125 40.90625 14.328125 36.09375 16.53125 
C 33.796875 17.640625 16.796875 25.75 15.40625 26.34375 
" id="Computer_Modern_Bright_Math_Slanted-60"/>
     </defs>
     <g style="fill:#262626;" transform="translate(308.673795 71.547348)scale(0.14 -0.14)">
      <use transform="scale(0.996264)" xlink:href="#Computer_Modern_Bright-98"/>
      <use transform="translate(45.246767 0)scale(0.996264)" xlink:href="#Computer_Modern_Bright-114"/>
      <use transform="translate(77.210126 0)scale(0.996264)" xlink:href="#Computer_Modern_Bright-97"/>
      <use transform="translate(123.702209 0)scale(0.996264)" xlink:href="#Computer_Modern_Bright-110"/>
      <use transform="translate(171.854706 0)scale(0.996264)" xlink:href="#Computer_Modern_Bright-99"/>
      <use transform="translate(216.686373 0)scale(0.996264)" xlink:href="#Computer_Modern_Bright-104"/>
      <use transform="translate(264.83887 0)scale(0.996264)" xlink:href="#Computer_Modern_Bright-101"/>
      <use transform="translate(309.670538 0)scale(0.996264)" xlink:href="#Computer_Modern_Bright-100"/>
      <use transform="translate(389.288246 0)scale(0.996264)" xlink:href="#Computer_Modern_Bright-108"/>
      <use transform="translate(408.383205 0)scale(0.996264)" xlink:href="#Computer_Modern_Bright-105"/>
      <use transform="translate(427.478164 0)scale(0.996264)" xlink:href="#Computer_Modern_Bright-110"/>
      <use transform="translate(475.630661 0)scale(0.996264)" xlink:href="#Computer_Modern_Bright-101"/>
      <use transform="translate(520.462329 0)scale(0.996264)" xlink:href="#Computer_Modern_Bright-97"/>
      <use transform="translate(564.048682 0)scale(0.996264)" xlink:href="#Computer_Modern_Bright-114"/>
      <use transform="translate(596.01204 0)scale(0.996264)" xlink:href="#Computer_Modern_Bright-44"/>
      <use transform="translate(654.874376 0)scale(0.996264)" xlink:href="#Computer_Modern_Bright_Math_Symbols-0"/>
      <use transform="translate(732.361843 0)scale(0.996264)" xlink:href="#Computer_Modern_Bright-49"/>
      <use transform="translate(783.005061 0)scale(0.996264)" xlink:href="#Computer_Modern_Bright_Math_Slanted-61"/>
      <use transform="translate(832.818444 0)scale(0.996264)" xlink:href="#Computer_Modern_Bright-50"/>
      <use transform="translate(911.13567 0)scale(0.996264)" xlink:href="#Computer_Modern_Bright_Math_Slanted-60"/>
      <use transform="translate(1016.297147 0)scale(0.996264)" xlink:href="#Computer_Modern_Bright_Math_Slanted-115"/>
      <use transform="translate(1092.326779 0)scale(0.996264)" xlink:href="#Computer_Modern_Bright_Math_Slanted-60"/>
      <use transform="translate(1197.488255 0)scale(0.996264)" xlink:href="#Computer_Modern_Bright-48"/>
     </g>
    </g>
    <g id="line2d_28">
     <path d="M 269.473795 86.54684 
L 297.473795 86.54684 
" style="fill:none;stroke:#e31a1c;stroke-linecap:round;stroke-width:2;"/>
    </g>
    <g id="line2d_29"/>
    <g id="text_22">
     <!-- inhibitory, $s = 0$ -->
     <defs>
      <path d="M 0.703125 47.65625 
C 1.296875 45.75 5.40625 35.609375 5.5 35.3125 
L 17.40625 4.578125 
L 18.40625 2.078125 
C 19 0.671875 19.203125 0.46875 18.59375 -1.140625 
L 17.5 -4.046875 
C 16.59375 -6.46875 15.59375 -8.96875 13.703125 -10.484375 
C 10.296875 -13.296875 4.90625 -11.6875 0.796875 -10.78125 
L 1.296875 -16.5 
C 3.203125 -16.796875 5.09375 -17 7 -17 
C 11.296875 -17.515625 14.09375 -16.5 16.703125 -14.296875 
C 20 -11.484375 21.59375 -7.5625 23.09375 -3.546875 
L 26.203125 5.078125 
L 36.40625 32.90625 
C 38.09375 37.921875 40.203125 42.640625 41.796875 47.65625 
L 37.296875 47.65625 
C 36.796875 47.65625 36 47.859375 35.59375 47.46875 
C 35.40625 47.15625 35.296875 46.765625 35.203125 46.453125 
L 34.40625 44.34375 
C 33.40625 41.734375 32.5 39.234375 31.59375 36.609375 
L 25.796875 20.25 
C 24.296875 15.828125 22.59375 11.3125 21.796875 6.6875 
C 20.703125 11.3125 19.203125 15.734375 17.59375 20.140625 
C 16.296875 23.5625 8.5 44.546875 7.5 46.5625 
C 7.09375 47.65625 6.703125 47.65625 5.203125 47.65625 
z
" id="Computer_Modern_Bright-121"/>
     </defs>
     <g style="fill:#262626;" transform="translate(308.673795 91.44684)scale(0.14 -0.14)">
      <use transform="scale(0.996264)" xlink:href="#Computer_Modern_Bright-105"/>
      <use transform="translate(19.094959 0)scale(0.996264)" xlink:href="#Computer_Modern_Bright-110"/>
      <use transform="translate(67.247456 0)scale(0.996264)" xlink:href="#Computer_Modern_Bright-104"/>
      <use transform="translate(115.399953 0)scale(0.996264)" xlink:href="#Computer_Modern_Bright-105"/>
      <use transform="translate(134.494912 0)scale(0.996264)" xlink:href="#Computer_Modern_Bright-98"/>
      <use transform="translate(182.647409 0)scale(0.996264)" xlink:href="#Computer_Modern_Bright-105"/>
      <use transform="translate(201.742367 0)scale(0.996264)" xlink:href="#Computer_Modern_Bright-116"/>
      <use transform="translate(237.856755 0)scale(0.996264)" xlink:href="#Computer_Modern_Bright-111"/>
      <use transform="translate(285.594244 0)scale(0.996264)" xlink:href="#Computer_Modern_Bright-114"/>
      <use transform="translate(317.557603 0)scale(0.996264)" xlink:href="#Computer_Modern_Bright-121"/>
      <use transform="translate(351.181361 0)scale(0.996264)" xlink:href="#Computer_Modern_Bright-44"/>
      <use transform="translate(410.043696 0)scale(0.996264)" xlink:href="#Computer_Modern_Bright_Math_Slanted-115"/>
      <use transform="translate(486.073328 0)scale(0.996264)" xlink:href="#Computer_Modern_Bright-61"/>
      <use transform="translate(589.573447 0)scale(0.996264)" xlink:href="#Computer_Modern_Bright-48"/>
     </g>
    </g>
    <g id="line2d_30">
     <path d="M 269.473795 106.332223 
L 297.473795 106.332223 
" style="fill:none;stroke:#ff7f00;stroke-linecap:round;stroke-width:5;"/>
    </g>
    <g id="line2d_31"/>
    <g id="text_23">
     <!-- additive (convergent), $s = 0$ -->
     <defs>
      <path d="M 0.703125 47.5 
C 1.203125 45.5 4.203125 37.578125 4.40625 37.078125 
C 5.40625 34.28125 17.296875 0.609375 17.59375 0.296875 
C 17.90625 -0.203125 18.796875 0 19.296875 0 
L 22.796875 0 
C 24.09375 0 24.90625 -0.296875 25.203125 0.90625 
C 28.40625 9.328125 40.09375 42.703125 41.796875 47.5 
L 35.59375 47.5 
C 30.796875 33.984375 25.90625 20.4375 21.40625 6.609375 
L 11 36.203125 
C 9.5 39.796875 8.59375 43.890625 6.90625 47.203125 
C 5.09375 47.5 2.796875 47.5 0.703125 47.5 
" id="Computer_Modern_Bright-118"/>
      <path d="M 34.203125 -22 
C 33.40625 -21.09375 32.40625 -20.28125 31.5 -19.484375 
C 30.703125 -18.78125 30 -17.984375 29.296875 -17.171875 
C 19.296875 -6.125 14.09375 11.546875 14.90625 30.328125 
C 15.296875 40.5625 17.296875 51 22.09375 60.25 
C 24.296875 64.359375 28.09375 70.1875 31.5 73.09375 
C 32.40625 73.90625 33.40625 74.703125 34.203125 75.609375 
L 30.90625 75.609375 
C 30.40625 75.609375 29.703125 75.703125 29.203125 75.515625 
C 28 74.90625 25 71.890625 24.59375 71.484375 
C 15 61.859375 9.296875 47.296875 8.5 30.328125 
C 8 18.171875 10 5.8125 15.40625 -5.03125 
C 17.796875 -9.84375 21 -14.265625 24.796875 -18.078125 
C 25.796875 -19.078125 28 -21.296875 29.203125 -21.890625 
C 29.703125 -22.09375 30.40625 -22 30.90625 -22 
z
" id="Computer_Modern_Bright-40"/>
      <path d="M 35.40625 11.984375 
L 35.5 11.984375 
L 35.5 2.65625 
C 35.5 -0.15625 35.5 -2.859375 34.59375 -5.5625 
C 33.09375 -9.1875 30.5 -12.5 26.203125 -13.09375 
C 25 -13.203125 23.703125 -13.09375 22.5 -13 
C 16 -13 11.703125 -11.046875 6.5 -8.671875 
L 6.5 -12.484375 
C 6.5 -14.40625 6.796875 -14.5 8.703125 -15.109375 
C 13.796875 -17.21875 23 -19.3125 29.296875 -17.71875 
C 36.296875 -15.90625 41.40625 -9.28125 41.90625 -1.21875 
C 42 0.1875 41.90625 1.703125 41.90625 3.125 
L 41.90625 48 
L 35.59375 48 
L 35.59375 39.984375 
C 34.09375 42.484375 32.5 44.796875 29.90625 46.40625 
C 22.90625 50.625 13.40625 46 9.5 40.578125 
C 3.09375 32.640625 1.90625 20.34375 7 11.484375 
C 8 9.78125 9.203125 8.171875 10.59375 6.765625 
C 15.40625 2.046875 23.59375 -0.46875 29.5 3.75 
C 31.90625 5.359375 34.703125 9.078125 35.40625 11.984375 
M 25.5 43 
C 26.40625 43 27.40625 43 28.296875 42.796875 
C 31.90625 42.09375 33.90625 38.875 35.09375 35.65625 
C 35.796875 33.453125 35.59375 31.046875 35.59375 28.734375 
C 35.59375 23.71875 35.5 18.5 33.796875 13.765625 
C 32.59375 10.265625 30.09375 7.140625 26.203125 6.75 
C 24.90625 6.640625 23.59375 6.84375 22.296875 7.140625 
C 16.203125 8.546875 12 13.765625 10.703125 19.796875 
C 8.90625 28.53125 13.203125 39.171875 22 42.1875 
C 23.09375 42.59375 24.296875 42.890625 25.5 43 
" id="Computer_Modern_Bright-103"/>
      <path d="M 5 75.609375 
C 5.796875 74.703125 6.796875 73.90625 7.703125 73.09375 
C 8.5 72.390625 9.203125 71.59375 9.90625 70.78125 
C 18.59375 60.75 23.59375 47.09375 24.296875 30.328125 
C 24.796875 17.875 22.90625 4.921875 17.203125 -6.328125 
C 15.296875 -10.25 12.796875 -13.96875 9.90625 -17.171875 
C 9.203125 -17.984375 8.5 -18.78125 7.703125 -19.484375 
C 6.796875 -20.28125 5.796875 -21.09375 5 -22 
L 8.296875 -22 
C 8.796875 -22 9.5 -22.09375 10 -21.890625 
C 11.203125 -21.296875 14.203125 -18.28125 14.59375 -17.875 
C 24.203125 -8.234375 29.90625 6.328125 30.703125 23.296875 
C 31.203125 35.4375 29.203125 47.796875 23.796875 58.640625 
C 21.40625 63.453125 18.203125 67.875 14.40625 71.6875 
C 13.40625 72.703125 11.203125 74.90625 10 75.515625 
C 9.5 75.703125 8.796875 75.609375 8.296875 75.609375 
z
" id="Computer_Modern_Bright-41"/>
     </defs>
     <g style="fill:#262626;" transform="translate(308.673795 111.232223)scale(0.14 -0.14)">
      <use transform="scale(0.996264)" xlink:href="#Computer_Modern_Bright-97"/>
      <use transform="translate(46.492082 0)scale(0.996264)" xlink:href="#Computer_Modern_Bright-100"/>
      <use transform="translate(94.644579 0)scale(0.996264)" xlink:href="#Computer_Modern_Bright-100"/>
      <use transform="translate(142.797076 0)scale(0.996264)" xlink:href="#Computer_Modern_Bright-105"/>
      <use transform="translate(161.892035 0)scale(0.996264)" xlink:href="#Computer_Modern_Bright-116"/>
      <use transform="translate(198.006423 0)scale(0.996264)" xlink:href="#Computer_Modern_Bright-105"/>
      <use transform="translate(217.101382 0)scale(0.996264)" xlink:href="#Computer_Modern_Bright-118"/>
      <use transform="translate(259.44242 0)scale(0.996264)" xlink:href="#Computer_Modern_Bright-101"/>
      <use transform="translate(335.739299 0)scale(0.996264)" xlink:href="#Computer_Modern_Bright-40"/>
      <use transform="translate(374.759508 0)scale(0.996264)" xlink:href="#Computer_Modern_Bright-99"/>
      <use transform="translate(419.591175 0)scale(0.996264)" xlink:href="#Computer_Modern_Bright-111"/>
      <use transform="translate(470.234393 0)scale(0.996264)" xlink:href="#Computer_Modern_Bright-110"/>
      <use transform="translate(518.38689 0)scale(0.996264)" xlink:href="#Computer_Modern_Bright-118"/>
      <use transform="translate(560.727928 0)scale(0.996264)" xlink:href="#Computer_Modern_Bright-101"/>
      <use transform="translate(605.559596 0)scale(0.996264)" xlink:href="#Computer_Modern_Bright-114"/>
      <use transform="translate(637.522955 0)scale(0.996264)" xlink:href="#Computer_Modern_Bright-103"/>
      <use transform="translate(685.675452 0)scale(0.996264)" xlink:href="#Computer_Modern_Bright-101"/>
      <use transform="translate(730.507119 0)scale(0.996264)" xlink:href="#Computer_Modern_Bright-110"/>
      <use transform="translate(778.659616 0)scale(0.996264)" xlink:href="#Computer_Modern_Bright-116"/>
      <use transform="translate(814.774004 0)scale(0.996264)" xlink:href="#Computer_Modern_Bright-41"/>
      <use transform="translate(853.794213 0)scale(0.996264)" xlink:href="#Computer_Modern_Bright-44"/>
      <use transform="translate(912.656548 0)scale(0.996264)" xlink:href="#Computer_Modern_Bright_Math_Slanted-115"/>
      <use transform="translate(988.68618 0)scale(0.996264)" xlink:href="#Computer_Modern_Bright-61"/>
      <use transform="translate(1092.186299 0)scale(0.996264)" xlink:href="#Computer_Modern_Bright-48"/>
     </g>
    </g>
    <g id="line2d_32">
     <path d="M 269.473795 126.231714 
L 297.473795 126.231714 
" style="fill:none;stroke:#6a3d9a;stroke-linecap:round;"/>
    </g>
    <g id="line2d_33"/>
    <g id="text_24">
     <!-- synthetic, $s &gt; 0$ -->
     <defs>
      <path d="M 3.09375 9.640625 
C 2.90625 8.234375 2.59375 6.9375 2.40625 5.53125 
C 2.203125 4.421875 1.90625 3.921875 2.90625 3.421875 
C 7 1.015625 11.90625 -0.296875 17.703125 -0.796875 
C 24.203125 -1.40625 32.40625 0.109375 35.59375 6.53125 
C 36.5 8.34375 37 10.34375 37.09375 12.359375 
C 37.5 19.578125 31.796875 24.203125 26.90625 25.90625 
C 21.40625 28.015625 13.90625 27.3125 10.09375 31.53125 
C 8.09375 33.84375 8 37.265625 9.90625 39.671875 
C 13.90625 45.296875 26.796875 42.875 31.90625 40.375 
C 32.703125 39.96875 33.40625 39.46875 34.296875 39.265625 
L 35.203125 44.6875 
C 30.5 46.796875 26.40625 48 19.90625 48 
C 14.296875 48 9.203125 46.703125 6 43.484375 
C 2.796875 40.171875 1.703125 34.640625 3.59375 30.4375 
C 5.40625 26.40625 9.203125 23.796875 13.296875 22.5 
C 19.203125 20.390625 25.90625 21.390625 29.796875 16.578125 
C 32 13.765625 31.59375 9.546875 29.09375 7.03125 
C 24.296875 2.609375 14.09375 4.21875 8.5 6.625 
C 6.59375 7.4375 4.90625 8.640625 3.09375 9.640625 
" id="Computer_Modern_Bright-115"/>
      <path d="M 62.59375 26.546875 
L 62.59375 26.34375 
C 60.296875 25.546875 58 24.25 55.796875 23.140625 
L 27.09375 9.625 
L 11.09375 2 
C 10.40625 1.703125 9.40625 1.296875 8.90625 0.796875 
C 8 -0.203125 8.203125 -1.703125 9.296875 -2.296875 
C 10.5 -3 11.703125 -2.109375 12.796875 -1.609375 
L 21 2.203125 
C 25.203125 4.3125 55 18.328125 55 18.328125 
L 66 23.546875 
C 67.296875 24.140625 69.40625 24.75 69.40625 26.453125 
C 69.40625 28.15625 67.296875 28.75 66 29.359375 
L 55 34.5625 
L 33.703125 44.6875 
C 29.5 46.6875 25.203125 48.59375 21 50.703125 
L 12.796875 54.5 
C 11.703125 55 10.5 55.90625 9.296875 55.203125 
C 8.203125 54.609375 8 53.09375 8.90625 52.09375 
C 9.40625 51.59375 10.40625 51.203125 11.09375 50.890625 
L 41.59375 36.46875 
L 55.796875 29.75 
C 58 28.65625 60.296875 27.359375 62.59375 26.546875 
" id="Computer_Modern_Bright_Math_Slanted-62"/>
     </defs>
     <g style="fill:#262626;" transform="translate(308.673795 131.131714)scale(0.14 -0.14)">
      <use transform="scale(0.996264)" xlink:href="#Computer_Modern_Bright-115"/>
      <use transform="translate(38.439029 0)scale(0.996264)" xlink:href="#Computer_Modern_Bright-121"/>
      <use transform="translate(80.780067 0)scale(0.996264)" xlink:href="#Computer_Modern_Bright-110"/>
      <use transform="translate(128.932564 0)scale(0.996264)" xlink:href="#Computer_Modern_Bright-116"/>
      <use transform="translate(165.046952 0)scale(0.996264)" xlink:href="#Computer_Modern_Bright-104"/>
      <use transform="translate(213.199449 0)scale(0.996264)" xlink:href="#Computer_Modern_Bright-101"/>
      <use transform="translate(258.031117 0)scale(0.996264)" xlink:href="#Computer_Modern_Bright-116"/>
      <use transform="translate(294.145505 0)scale(0.996264)" xlink:href="#Computer_Modern_Bright-105"/>
      <use transform="translate(313.240464 0)scale(0.996264)" xlink:href="#Computer_Modern_Bright-99"/>
      <use transform="translate(358.072131 0)scale(0.996264)" xlink:href="#Computer_Modern_Bright-44"/>
      <use transform="translate(416.934466 0)scale(0.996264)" xlink:href="#Computer_Modern_Bright_Math_Slanted-115"/>
      <use transform="translate(492.964098 0)scale(0.996264)" xlink:href="#Computer_Modern_Bright_Math_Slanted-62"/>
      <use transform="translate(598.125575 0)scale(0.996264)" xlink:href="#Computer_Modern_Bright-48"/>
     </g>
    </g>
   </g>
  </g>
 </g>
 <defs>
  <clipPath id="p05d6e405e0">
   <rect height="298.98" width="446.4" x="56.35284" y="7.2"/>
  </clipPath>
 </defs>
</svg>
