<?xml version="1.0" encoding="utf-8" standalone="no"?>
<!DOCTYPE svg PUBLIC "-//W3C//DTD SVG 1.1//EN"
  "http://www.w3.org/Graphics/SVG/1.1/DTD/svg11.dtd">
<!-- Created with matplotlib (http://matplotlib.org/) -->
<svg height="353pt" version="1.1" viewBox="0 0 508 353" width="508pt" xmlns="http://www.w3.org/2000/svg" xmlns:xlink="http://www.w3.org/1999/xlink">
 <defs>
  <style type="text/css">
*{stroke-linecap:butt;stroke-linejoin:round;}
  </style>
 </defs>
 <g id="figure_1">
  <g id="patch_1">
   <path d="M 0 353.548374 
L 508.008609 353.548374 
L 508.008609 0 
L 0 0 
z
" style="fill:#ffffff;"/>
  </g>
  <g id="axes_1">
   <g id="patch_2">
    <path d="M 54.408609 306.18 
L 500.808609 306.18 
L 500.808609 7.2 
L 54.408609 7.2 
z
" style="fill:#eaeaf2;"/>
   </g>
   <g id="matplotlib.axis_1">
    <g id="xtick_1">
     <g id="line2d_1"/>
     <g id="text_1">
      <!-- $-7.5$ -->
      <defs>
       <path d="M 9.796875 28.078125 
C 8 27.484375 7.796875 24.78125 9.796875 24.28125 
C 10.296875 24.078125 10.90625 24.1875 11.5 24.1875 
L 64.703125 24.1875 
C 65.90625 24.1875 67.796875 23.78125 68.796875 24.78125 
C 69.90625 25.875 69.296875 27.875 67.703125 28.1875 
C 66.5 28.375 65.09375 28.1875 63.90625 28.1875 
L 11.40625 28.1875 
C 10.90625 28.1875 10.296875 28.28125 9.796875 28.078125 
" id="Computer_Modern_Bright_Math_Symbols-0"/>
       <path d="M 3.59375 65.625 
L 3.59375 60 
L 42.796875 60 
L 39.09375 56.375 
C 35.796875 52.859375 32.796875 49.125 30.09375 45.109375 
C 21.09375 31.515625 16.203125 15.3125 16.203125 -1 
L 22.90625 -1 
C 22.90625 13.703125 26.59375 28.390625 33.59375 41.375 
C 37 47.921875 40.59375 52.640625 45.296875 58.171875 
C 45.90625 58.78125 46.796875 59.484375 47.09375 60.28125 
C 47.296875 60.78125 47.203125 61.484375 47.203125 62.109375 
L 47.203125 65.625 
z
" id="Computer_Modern_Bright-55"/>
       <path d="M 10.703125 7.8125 
L 10.703125 0 
L 18.5 0 
L 18.5 7.8125 
z
" id="Computer_Modern_Bright_Math_Slanted-58"/>
       <path d="M 8.40625 66.328125 
L 8.40625 30.453125 
L 12.203125 30.453125 
C 12.703125 30.453125 13.40625 30.359375 13.796875 30.5625 
C 14.296875 30.859375 14.59375 31.5625 14.90625 31.96875 
C 15.59375 32.859375 16.40625 33.5625 17.203125 34.265625 
C 20.796875 37.28125 27.703125 38.484375 32.296875 36.171875 
C 38.59375 33.171875 39.796875 25.21875 39.296875 19 
C 39 15.0625 37.796875 11.453125 35.5 9.140625 
C 30.203125 3.5 21.296875 3.5 14.796875 6.796875 
C 11.59375 8.40625 8.90625 10.921875 6.90625 13.921875 
L 6.796875 13.921875 
C 6.5 13.421875 4.203125 9.90625 4.203125 9.296875 
C 4.203125 8.890625 4.5 8.59375 4.703125 8.296875 
C 7.703125 4.78125 11.59375 2.0625 16.09375 0.5625 
C 25 -2.25 35 -0.046875 41.296875 7.1875 
C 48.796875 15.921875 47.796875 30.15625 39.09375 37.765625 
C 36.5 40.1875 32.90625 41.890625 28.59375 42.28125 
C 22.796875 43.09375 17.59375 40.28125 14.5 37.671875 
L 14.5 61 
L 42.90625 61 
L 42.90625 66.328125 
z
" id="Computer_Modern_Bright-53"/>
      </defs>
      <g style="fill:#262626;" transform="translate(82.444218 324.249603)scale(0.16 -0.16)">
       <use transform="scale(0.996264)" xlink:href="#Computer_Modern_Bright_Math_Symbols-0"/>
       <use transform="translate(77.487468 0)scale(0.996264)" xlink:href="#Computer_Modern_Bright-55"/>
       <use transform="translate(128.130685 0)scale(0.996264)" xlink:href="#Computer_Modern_Bright_Math_Slanted-58"/>
       <use transform="translate(157.188132 0)scale(0.996264)" xlink:href="#Computer_Modern_Bright-53"/>
      </g>
     </g>
    </g>
    <g id="xtick_2">
     <g id="line2d_2"/>
     <g id="text_2">
      <!-- $-5.0$ -->
      <defs>
       <path d="M 14.796875 63.859375 
C 11.90625 61.859375 9.90625 59.140625 8.40625 56.03125 
C 4.796875 49 4.40625 40.765625 4.40625 31.828125 
C 4.40625 20.578125 6.40625 10.25 12 4.3125 
C 17.296875 -1.203125 25.703125 -2.609375 32.796875 0.296875 
C 37.203125 2.015625 40.40625 5.71875 42.40625 9.734375 
C 46 16.875 46.40625 25.40625 46.40625 34.234375 
C 46.40625 37.046875 46.296875 39.859375 46 42.671875 
C 45.296875 49.40625 43 56.828125 39.296875 60.953125 
C 33.203125 67.6875 22.296875 69.1875 14.796875 63.859375 
M 34.90625 58.140625 
C 39.59375 53.125 40 43.484375 40 34.34375 
L 40 28.921875 
C 40 24.296875 39.203125 18.28125 38.203125 14.859375 
C 36.796875 10.140625 34.5 6.734375 29.90625 4.625 
C 24.296875 2.609375 18.5 4.515625 15.296875 8.9375 
C 11 14.65625 10.796875 24.796875 10.796875 33.734375 
C 10.796875 42.171875 10.90625 51.515625 15 57.03125 
C 19.5 63.0625 29.203125 64.0625 34.90625 58.140625 
" id="Computer_Modern_Bright-48"/>
      </defs>
      <g style="fill:#262626;" transform="translate(136.430339 324.249603)scale(0.16 -0.16)">
       <use transform="scale(0.996264)" xlink:href="#Computer_Modern_Bright_Math_Symbols-0"/>
       <use transform="translate(77.487468 0)scale(0.996264)" xlink:href="#Computer_Modern_Bright-53"/>
       <use transform="translate(128.130685 0)scale(0.996264)" xlink:href="#Computer_Modern_Bright_Math_Slanted-58"/>
       <use transform="translate(157.188132 0)scale(0.996264)" xlink:href="#Computer_Modern_Bright-48"/>
      </g>
     </g>
    </g>
    <g id="xtick_3">
     <g id="line2d_3"/>
     <g id="text_3">
      <!-- $-2.5$ -->
      <defs>
       <path d="M 7.296875 45.96875 
C 8.703125 51.59375 11.09375 57.984375 16.796875 60.5 
C 19.203125 61.5 21.796875 61.703125 24.40625 61.5 
C 29.296875 61.09375 34.09375 59.09375 37.09375 55.09375 
C 39.296875 52.078125 40.09375 48.375 39.703125 44.78125 
C 38.5 34.34375 28.296875 26.84375 21.703125 21.234375 
C 17.90625 18.03125 7.09375 7.8125 7.09375 7.8125 
L 5.40625 6.203125 
C 4.5 5.3125 4.40625 5.3125 4.40625 3.5 
L 4.40625 0 
L 46.40625 0 
L 46.40625 5.625 
L 10.203125 5.625 
C 13.40625 8.734375 26.703125 20.515625 28.5 21.921875 
C 34.296875 26.65625 40.796875 31.375 44.296875 38.21875 
C 48.203125 46.0625 46.5 55.9375 39.90625 61.765625 
C 35.90625 65.296875 30.40625 67 25.09375 67 
C 20.203125 67 15.203125 66 11.296875 62.90625 
C 8.296875 60.390625 5.796875 56.6875 4.40625 52.875 
C 4.09375 52.28125 3.59375 51.28125 3.703125 50.578125 
C 3.796875 49.984375 4.40625 49.484375 4.703125 49.078125 
C 5.5 48.078125 6.296875 46.875 7.296875 45.96875 
" id="Computer_Modern_Bright-50"/>
      </defs>
      <g style="fill:#262626;" transform="translate(190.41646 324.249603)scale(0.16 -0.16)">
       <use transform="scale(0.996264)" xlink:href="#Computer_Modern_Bright_Math_Symbols-0"/>
       <use transform="translate(77.487468 0)scale(0.996264)" xlink:href="#Computer_Modern_Bright-50"/>
       <use transform="translate(128.130685 0)scale(0.996264)" xlink:href="#Computer_Modern_Bright_Math_Slanted-58"/>
       <use transform="translate(157.188132 0)scale(0.996264)" xlink:href="#Computer_Modern_Bright-53"/>
      </g>
     </g>
    </g>
    <g id="xtick_4">
     <g id="line2d_4"/>
     <g id="text_4">
      <!-- $0.0$ -->
      <g style="fill:#262626;" transform="translate(250.60158 324.249603)scale(0.16 -0.16)">
       <use transform="scale(0.996264)" xlink:href="#Computer_Modern_Bright-48"/>
       <use transform="translate(50.643218 0)scale(0.996264)" xlink:href="#Computer_Modern_Bright_Math_Slanted-58"/>
       <use transform="translate(79.700665 0)scale(0.996264)" xlink:href="#Computer_Modern_Bright-48"/>
      </g>
     </g>
    </g>
    <g id="xtick_5">
     <g id="line2d_5"/>
     <g id="text_5">
      <!-- $2.5$ -->
      <g style="fill:#262626;" transform="translate(304.587701 324.249603)scale(0.16 -0.16)">
       <use transform="scale(0.996264)" xlink:href="#Computer_Modern_Bright-50"/>
       <use transform="translate(50.643218 0)scale(0.996264)" xlink:href="#Computer_Modern_Bright_Math_Slanted-58"/>
       <use transform="translate(79.700665 0)scale(0.996264)" xlink:href="#Computer_Modern_Bright-53"/>
      </g>
     </g>
    </g>
    <g id="xtick_6">
     <g id="line2d_6"/>
     <g id="text_6">
      <!-- $5.0$ -->
      <g style="fill:#262626;" transform="translate(358.573822 324.249603)scale(0.16 -0.16)">
       <use transform="scale(0.996264)" xlink:href="#Computer_Modern_Bright-53"/>
       <use transform="translate(50.643218 0)scale(0.996264)" xlink:href="#Computer_Modern_Bright_Math_Slanted-58"/>
       <use transform="translate(79.700665 0)scale(0.996264)" xlink:href="#Computer_Modern_Bright-48"/>
      </g>
     </g>
    </g>
    <g id="xtick_7">
     <g id="line2d_7"/>
     <g id="text_7">
      <!-- $7.5$ -->
      <g style="fill:#262626;" transform="translate(412.559943 324.249603)scale(0.16 -0.16)">
       <use transform="scale(0.996264)" xlink:href="#Computer_Modern_Bright-55"/>
       <use transform="translate(50.643218 0)scale(0.996264)" xlink:href="#Computer_Modern_Bright_Math_Slanted-58"/>
       <use transform="translate(79.700665 0)scale(0.996264)" xlink:href="#Computer_Modern_Bright-53"/>
      </g>
     </g>
    </g>
    <g id="xtick_8">
     <g id="line2d_8"/>
     <g id="text_8">
      <!-- $10.0$ -->
      <defs>
       <path d="M 9.703125 60.015625 
L 9.703125 55 
C 15.203125 55 19 56 23.40625 57.90625 
L 23.40625 5.015625 
L 10.296875 5.015625 
L 10.296875 0 
L 43 0 
L 43 5.015625 
L 29.90625 5.015625 
L 29.90625 67 
C 27.5 67 27.90625 66.359375 26 64.875 
C 21.90625 61.71875 16.203125 60.015625 9.703125 60.015625 
" id="Computer_Modern_Bright-49"/>
      </defs>
      <g style="fill:#262626;" transform="translate(462.361788 324.249603)scale(0.16 -0.16)">
       <use transform="scale(0.996264)" xlink:href="#Computer_Modern_Bright-49"/>
       <use transform="translate(50.643218 0)scale(0.996264)" xlink:href="#Computer_Modern_Bright-48"/>
       <use transform="translate(101.286436 0)scale(0.996264)" xlink:href="#Computer_Modern_Bright_Math_Slanted-58"/>
       <use transform="translate(130.343883 0)scale(0.996264)" xlink:href="#Computer_Modern_Bright-48"/>
      </g>
     </g>
    </g>
    <g id="text_9">
     <!-- Predicted Additive Effect -->
     <defs>
      <path d="M 8 70 
L 8 0.5 
L 15 0.5 
L 15 30 
L 29.09375 30 
C 31.296875 30 33.5 30 35.59375 30 
C 43 30.609375 49.203125 33.640625 53.40625 38.171875 
C 57.703125 42.90625 59.59375 50.15625 56.796875 56.296875 
C 53.59375 64.046875 46 68.984375 36.296875 70 
C 33.40625 70 30.40625 70 27.5 70 
z
M 14.90625 35.21875 
L 14.90625 64.671875 
L 28.59375 64.671875 
C 37.296875 64.671875 45.203125 63.671875 49.203125 57.65625 
C 51.90625 53.625 52.296875 48 50.09375 43.671875 
C 48.90625 41.34375 47.09375 39.546875 44.90625 38.234375 
C 40 35.21875 34.296875 35.21875 28.796875 35.21875 
z
" id="Computer_Modern_Bright-80"/>
      <path d="M 12.5 34.75 
L 12.40625 34.75 
L 12.40625 47.390625 
L 6.40625 47.390625 
L 6.40625 0 
L 12.703125 0 
L 12.703125 22.890625 
C 12.703125 24.40625 12.703125 25.90625 12.90625 27.40625 
C 14.296875 35.953125 21.703125 42.28125 31.40625 42.28125 
L 31.40625 48 
C 25 48 19.09375 44.890625 15.296875 39.765625 
C 14.203125 38.265625 13 36.546875 12.5 34.75 
" id="Computer_Modern_Bright-114"/>
      <path d="M 41.796875 10.9375 
C 39.5 9.234375 38.796875 8.328125 35.90625 6.8125 
C 29.796875 3.5 22.59375 3.5 17.40625 7.171875 
C 12.40625 10.765625 9.5 16.640625 9.5 25 
L 42.5 25 
C 42.5 32.421875 40.796875 38.859375 36.59375 43.375 
C 32 47.890625 24.796875 49.296875 18.703125 47.390625 
C 16.40625 46.6875 14.296875 45.484375 12.40625 43.96875 
C 6.09375 38.859375 3.40625 30.71875 3.5 22.78125 
C 3.703125 12.34375 10.796875 1.90625 21.296875 -0.3125 
C 26.796875 -1.421875 32.59375 -0.203125 37.5 2.296875 
C 38.40625 2.796875 41.703125 4.609375 42.09375 5.515625 
C 42.40625 6.015625 41.796875 10.9375 41.796875 10.9375 
M 37.203125 28.90625 
L 10 28.90625 
C 11.203125 36.234375 17.203125 43.96875 25.296875 43.0625 
C 31.90625 42.46875 35.40625 37.75 36.703125 31.828125 
C 36.90625 30.8125 37 29.921875 37.203125 28.90625 
" id="Computer_Modern_Bright-101"/>
      <path d="M 35.59375 69.6875 
L 35.59375 41.375 
C 33.703125 43.484375 31.796875 45.484375 29.203125 46.6875 
C 20.296875 50.40625 11.703125 45.59375 7.296875 37.65625 
C 2.203125 28.21875 2.796875 15.765625 8.90625 6.921875 
C 13.203125 0.796875 20.296875 -2.203125 27.796875 0.5 
C 30.703125 1.609375 34.203125 4.515625 35.40625 7.125 
L 35.5 7.125 
L 35.5 0 
L 41.90625 0 
L 41.90625 69.6875 
z
M 35.203125 37.453125 
C 35.703125 36.546875 35.5 35.34375 35.5 34.34375 
L 35.5 13.65625 
C 35.5 11.34375 35.40625 11.140625 34.09375 9.34375 
C 32.296875 6.625 29.5 4.71875 26.203125 4.421875 
C 21.40625 4.015625 16.5 6.328125 13.703125 10.25 
C 12.09375 12.546875 11.203125 15.359375 10.703125 18.171875 
C 10.5 19.28125 10.5 20.28125 10.40625 21.390625 
C 9.796875 28.015625 11.203125 35.84375 17 40.0625 
C 18 40.765625 19.09375 41.265625 20.203125 41.765625 
C 26 43.984375 32.40625 43.375 35.203125 37.453125 
" id="Computer_Modern_Bright-100"/>
      <path d="M 6.40625 70 
L 6.40625 63.671875 
L 12.703125 63.671875 
L 12.703125 70 
z
M 6.40625 47.390625 
L 6.40625 0 
L 12.703125 0 
L 12.703125 47.390625 
z
" id="Computer_Modern_Bright-105"/>
      <path d="M 42.40625 11.25 
C 40.5 9.84375 38.796875 8.328125 36.703125 7.125 
C 32 4.625 24.796875 3.421875 19.40625 5.921875 
C 11.59375 9.9375 9.5 19.6875 10.59375 27.71875 
C 10.796875 29.328125 11.09375 30.921875 11.59375 32.4375 
C 13.796875 38.96875 19.296875 44.078125 28.296875 43.078125 
C 33.09375 42.671875 35.5 41.875 39.296875 39.765625 
C 40 39.359375 40.59375 38.859375 41.40625 38.65625 
C 41.5 39.859375 41.796875 41.171875 42 42.375 
C 42.296875 43.984375 42.296875 44.1875 40.796875 44.890625 
C 39.703125 45.390625 38.59375 45.984375 37.40625 46.390625 
C 32.796875 48.40625 25.203125 49 20 47.5 
C 12.90625 45.484375 7.59375 39.359375 5.296875 32.53125 
C 4.203125 29.421875 3.90625 26.109375 3.90625 22.796875 
C 4 12.25 11.203125 1.90625 21.703125 -0.203125 
C 27.5 -1.40625 34.203125 0.296875 38.203125 2.40625 
C 39.203125 2.90625 42.203125 4.71875 42.703125 5.625 
C 43 6.125 42.40625 11.25 42.40625 11.25 
" id="Computer_Modern_Bright-99"/>
      <path d="M 10.796875 60.5 
L 10.796875 47.015625 
L 1.09375 47.015625 
L 1.09375 42 
L 10.703125 42 
L 10.703125 15.015625 
C 10.703125 10.578125 10.40625 5.234375 13.296875 1.515625 
C 15 -0.703125 17.296875 -1.296875 20.796875 -1 
C 23.703125 -1 26.59375 -0.390625 29.296875 0.65625 
C 30.203125 1.0625 33.5 2.515625 33.90625 3.234375 
C 34.09375 3.640625 32.796875 8.09375 32.796875 8.09375 
L 30.40625 6.265625 
C 27.296875 4.34375 21.09375 2.328125 18.5 5.96875 
C 16.203125 9.09375 16.796875 13.75 16.796875 17.375 
L 16.796875 42 
L 32.296875 42 
L 32.296875 47.015625 
L 16.796875 47.015625 
L 16.796875 60.5 
z
" id="Computer_Modern_Bright-116"/>
      <path d="M 2.09375 0.09375 
L 6.59375 0.09375 
L 8.40625 0.296875 
C 11.40625 6.796875 13.5 14.203125 16.203125 21 
C 26.09375 21 36.90625 21 46.296875 21 
L 47.09375 19.6875 
C 48.796875 14.546875 50.796875 9.59375 52.59375 4.546875 
C 53.09375 3.015625 53.59375 1.515625 54.40625 0.296875 
C 56.59375 0 59.203125 0 61.59375 0 
C 59.90625 4.90625 36.703125 67.203125 36 68.890625 
C 35.90625 69.296875 35.703125 69.890625 35.203125 70 
C 34.59375 70.09375 34 70 33.40625 70 
L 30.09375 70 
C 28.59375 70 28 70.1875 27.59375 68.609375 
C 27.203125 67.59375 2.09375 0.09375 2.09375 0.09375 
M 31.40625 63.171875 
C 35.59375 50.71875 40.09375 38.46875 44.5 26.21875 
L 18.203125 26.21875 
L 26.90625 50.109375 
z
" id="Computer_Modern_Bright-65"/>
      <path d="M 0.703125 47.5 
C 1.203125 45.5 4.203125 37.578125 4.40625 37.078125 
C 5.40625 34.28125 17.296875 0.609375 17.59375 0.296875 
C 17.90625 -0.203125 18.796875 0 19.296875 0 
L 22.796875 0 
C 24.09375 0 24.90625 -0.296875 25.203125 0.90625 
C 28.40625 9.328125 40.09375 42.703125 41.796875 47.5 
L 35.59375 47.5 
C 30.796875 33.984375 25.90625 20.4375 21.40625 6.609375 
L 11 36.203125 
C 9.5 39.796875 8.59375 43.890625 6.90625 47.203125 
C 5.09375 47.5 2.796875 47.5 0.703125 47.5 
" id="Computer_Modern_Bright-118"/>
      <path d="M 8 69.328125 
L 8 0 
L 55.40625 0 
L 55.40625 5.625 
L 15 5.625 
L 15 33.671875 
L 51.09375 33.671875 
L 51.09375 39 
L 15 39 
L 15 64 
L 54 64 
L 54 69.328125 
z
" id="Computer_Modern_Bright-69"/>
      <path d="M 10.59375 47.015625 
L 2 47.015625 
L 2 42 
L 10.59375 42 
L 10.59375 -0.5 
L 16.90625 -0.5 
L 16.90625 42 
L 29.296875 42 
L 29.296875 47.015625 
L 16.796875 47.015625 
L 16.796875 55.78125 
C 16.796875 57.1875 16.5 58.921875 17.09375 60.328125 
C 19.203125 64.75 26.296875 65.5625 32.09375 64.5625 
C 33.296875 64.359375 34.40625 63.953125 35.59375 63.75 
L 35.59375 69.390625 
C 28.796875 70.5 21.296875 70.5 15.703125 65.921875 
C 14.796875 65.125 14 64.34375 13.296875 63.328125 
C 11.203125 60.75 10.59375 57.875 10.59375 53.390625 
z
M 38.09375 -0.5 
L 44.40625 -0.5 
L 44.40625 42 
L 56.796875 42 
L 56.796875 47.015625 
L 44.296875 47.015625 
L 44.296875 55.78125 
C 44.296875 57.1875 44 58.921875 44.59375 60.328125 
C 46.703125 64.75 53.796875 65.5625 59.59375 64.5625 
C 60.796875 64.359375 61.90625 63.953125 63.09375 63.75 
L 63.09375 69.390625 
C 57.59375 70.09375 51.5 70.796875 46.296875 68.1875 
C 42.203125 65.96875 38.59375 62.25 38.09375 56.609375 
C 38 55.1875 38.09375 53.78125 38.09375 52.375 
z
" id="Computer_Modern_Bright-11"/>
     </defs>
     <g style="fill:#262626;" transform="translate(186.951533 343.359582)scale(0.18 -0.18)">
      <use transform="scale(0.996264)" xlink:href="#Computer_Modern_Bright-80"/>
      <use transform="translate(62.888907 0)scale(0.996264)" xlink:href="#Computer_Modern_Bright-114"/>
      <use transform="translate(94.852266 0)scale(0.996264)" xlink:href="#Computer_Modern_Bright-101"/>
      <use transform="translate(139.683934 0)scale(0.996264)" xlink:href="#Computer_Modern_Bright-100"/>
      <use transform="translate(187.836431 0)scale(0.996264)" xlink:href="#Computer_Modern_Bright-105"/>
      <use transform="translate(206.931389 0)scale(0.996264)" xlink:href="#Computer_Modern_Bright-99"/>
      <use transform="translate(251.763057 0)scale(0.996264)" xlink:href="#Computer_Modern_Bright-116"/>
      <use transform="translate(287.877445 0)scale(0.996264)" xlink:href="#Computer_Modern_Bright-101"/>
      <use transform="translate(332.709113 0)scale(0.996264)" xlink:href="#Computer_Modern_Bright-100"/>
      <use transform="translate(412.326821 0)scale(0.996264)" xlink:href="#Computer_Modern_Bright-65"/>
      <use transform="translate(475.838439 0)scale(0.996264)" xlink:href="#Computer_Modern_Bright-100"/>
      <use transform="translate(523.990936 0)scale(0.996264)" xlink:href="#Computer_Modern_Bright-100"/>
      <use transform="translate(572.143433 0)scale(0.996264)" xlink:href="#Computer_Modern_Bright-105"/>
      <use transform="translate(591.238392 0)scale(0.996264)" xlink:href="#Computer_Modern_Bright-116"/>
      <use transform="translate(627.35278 0)scale(0.996264)" xlink:href="#Computer_Modern_Bright-105"/>
      <use transform="translate(646.447739 0)scale(0.996264)" xlink:href="#Computer_Modern_Bright-118"/>
      <use transform="translate(688.788777 0)scale(0.996264)" xlink:href="#Computer_Modern_Bright-101"/>
      <use transform="translate(765.085656 0)scale(0.996264)" xlink:href="#Computer_Modern_Bright-69"/>
      <use transform="translate(823.823443 0)scale(0.996264)" xlink:href="#Computer_Modern_Bright-11"/>
      <use transform="translate(881.52351 0)scale(0.996264)" xlink:href="#Computer_Modern_Bright-101"/>
      <use transform="translate(926.355178 0)scale(0.996264)" xlink:href="#Computer_Modern_Bright-99"/>
      <use transform="translate(971.186846 0)scale(0.996264)" xlink:href="#Computer_Modern_Bright-116"/>
     </g>
    </g>
   </g>
   <g id="matplotlib.axis_2">
    <g id="ytick_1">
     <g id="line2d_9"/>
     <g id="text_10">
      <!-- $-6$ -->
      <defs>
       <path d="M 11.296875 32.625 
L 11.203125 32.625 
C 11.203125 41.765625 12.796875 52.421875 20.59375 58.25 
C 24.90625 61.375 30.703125 62.96875 38.203125 61.171875 
C 39.796875 60.765625 41.296875 60.15625 42.796875 59.765625 
L 42.796875 63.28125 
C 42.796875 63.671875 42.90625 64.375 42.59375 64.78125 
C 41.90625 65.6875 36.296875 66.59375 36.09375 66.59375 
C 27.40625 67.59375 21.703125 65.6875 16.40625 61.171875 
C 10 55.640625 6.296875 47.515625 5.09375 39.28125 
C 4 32.65625 4.90625 22 6.203125 16.78125 
C 8.296875 9.046875 12.296875 2.21875 19.703125 -0.390625 
C 24.09375 -2 29.5 -2 33.703125 0.015625 
C 37.09375 1.640625 39.90625 4.46875 42.09375 7.5 
C 45.59375 12.34375 46.5 18.21875 46.09375 24.171875 
C 45.90625 27.109375 45.5 30.046875 44.296875 32.765625 
C 42.40625 37.125 39.203125 41.671875 35.09375 43.6875 
C 33.203125 44.5 31.203125 44.5 29.203125 44.5 
C 23.90625 44.5 18.90625 42.1875 15.203125 38.359375 
C 13.59375 36.75 12 34.71875 11.296875 32.625 
M 24.40625 39.515625 
C 28.203125 39.8125 32.203125 39.21875 35.09375 36.5 
C 38.90625 32.890625 39.59375 27.765625 39.59375 22.8125 
C 39.59375 19.46875 39.703125 16.015625 38.703125 12.859375 
C 38.09375 11.234375 37.296875 9.828125 36.40625 8.5 
C 34.203125 5.5625 31.40625 4.125 26.796875 3.515625 
C 22.296875 3.515625 17.796875 5.3125 15.203125 9.125 
C 13.59375 11.328125 12.796875 14.046875 12.296875 16.640625 
C 11.703125 19.34375 11.296875 22.140625 11.5 24.859375 
C 12 31.984375 17 38.515625 24.40625 39.515625 
" id="Computer_Modern_Bright-54"/>
      </defs>
      <g style="fill:#262626;" transform="translate(26.642062 273.745653)scale(0.16 -0.16)">
       <use transform="scale(0.996264)" xlink:href="#Computer_Modern_Bright_Math_Symbols-0"/>
       <use transform="translate(77.487468 0)scale(0.996264)" xlink:href="#Computer_Modern_Bright-54"/>
      </g>
     </g>
    </g>
    <g id="ytick_2">
     <g id="line2d_10"/>
     <g id="text_11">
      <!-- $-4$ -->
      <defs>
       <path d="M 2.09375 18 
L 31 18 
L 31 0 
L 37.296875 0 
L 37.296875 18 
L 48.703125 18 
L 48.703125 23.328125 
L 37.296875 23.328125 
L 37.296875 66.46875 
L 31.90625 66.46875 
C 30.09375 66.46875 29.59375 66.578125 28.796875 65.0625 
C 24.796875 58.515625 3.703125 25.765625 3 24.859375 
C 2.203125 23.4375 2.09375 23.546875 2.09375 21.4375 
z
M 31.296875 60.875 
L 31.296875 23.328125 
L 8.59375 23.328125 
C 9.296875 24.734375 10.296875 26.03125 11.203125 27.4375 
C 16.203125 35.171875 28.09375 53.546875 30.59375 59.28125 
C 30.90625 59.78125 31 60.375 31.296875 60.875 
" id="Computer_Modern_Bright-52"/>
      </defs>
      <g style="fill:#262626;" transform="translate(26.642062 232.76798)scale(0.16 -0.16)">
       <use transform="scale(0.996264)" xlink:href="#Computer_Modern_Bright_Math_Symbols-0"/>
       <use transform="translate(77.487468 0)scale(0.996264)" xlink:href="#Computer_Modern_Bright-52"/>
      </g>
     </g>
    </g>
    <g id="ytick_3">
     <g id="line2d_11"/>
     <g id="text_12">
      <!-- $-2$ -->
      <g style="fill:#262626;" transform="translate(26.642062 191.790308)scale(0.16 -0.16)">
       <use transform="scale(0.996264)" xlink:href="#Computer_Modern_Bright_Math_Symbols-0"/>
       <use transform="translate(77.487468 0)scale(0.996264)" xlink:href="#Computer_Modern_Bright-50"/>
      </g>
     </g>
    </g>
    <g id="ytick_4">
     <g id="line2d_12"/>
     <g id="text_13">
      <!-- $0$ -->
      <g style="fill:#262626;" transform="translate(39.040058 150.812635)scale(0.16 -0.16)">
       <use transform="scale(0.996264)" xlink:href="#Computer_Modern_Bright-48"/>
      </g>
     </g>
    </g>
    <g id="ytick_5">
     <g id="line2d_13"/>
     <g id="text_14">
      <!-- $2$ -->
      <g style="fill:#262626;" transform="translate(39.040058 109.834962)scale(0.16 -0.16)">
       <use transform="scale(0.996264)" xlink:href="#Computer_Modern_Bright-50"/>
      </g>
     </g>
    </g>
    <g id="ytick_6">
     <g id="line2d_14"/>
     <g id="text_15">
      <!-- $4$ -->
      <g style="fill:#262626;" transform="translate(39.040058 68.857289)scale(0.16 -0.16)">
       <use transform="scale(0.996264)" xlink:href="#Computer_Modern_Bright-52"/>
      </g>
     </g>
    </g>
    <g id="ytick_7">
     <g id="line2d_15"/>
     <g id="text_16">
      <!-- $6$ -->
      <g style="fill:#262626;" transform="translate(39.040058 27.879617)scale(0.16 -0.16)">
       <use transform="scale(0.996264)" xlink:href="#Computer_Modern_Bright-54"/>
      </g>
     </g>
    </g>
    <g id="text_17">
     <!-- Deviation from Additive Effect -->
     <defs>
      <path d="M 8 70 
L 8 0 
L 28.203125 0 
C 31.40625 0 34.59375 0 37.703125 0.296875 
C 45.703125 1.109375 52.59375 5.015625 57.203125 9.828125 
C 70.09375 23.171875 70 46.125 57.296875 59.671875 
C 52.703125 64.578125 46.5 68.5 38.703125 69.5 
C 34.90625 70 31 70 27.203125 70 
z
M 14.90625 5.3125 
L 14.90625 64.5625 
L 27.796875 64.5625 
C 30.5 64.5625 33.203125 64.5625 35.90625 64.359375 
C 40.40625 63.859375 44.796875 62.359375 48.5 59.734375 
C 56.59375 54.125 60 44.171875 60 34.640625 
C 60 26.609375 57.796875 18.375 51.90625 12.640625 
C 47.90625 8.9375 42.5 6.21875 36 5.515625 
C 33.40625 5.3125 30.703125 5.3125 28.09375 5.3125 
z
" id="Computer_Modern_Bright-68"/>
      <path d="M 7.90625 39.015625 
C 9.59375 39.859375 11 41.09375 12.703125 41.921875 
C 15.40625 43.15625 18.203125 44 21.203125 44 
C 22.59375 44.09375 24.203125 44.296875 25.59375 44 
C 28.09375 43.59375 30.296875 42.078125 31.796875 39.953125 
C 33.296875 37.515625 33.90625 35.390625 33.90625 31.46875 
L 33.90625 27.015625 
C 29.09375 27.015625 24.296875 26.609375 19.703125 25.390625 
C 13.90625 24.078125 7.59375 21.125 5.5 15.84375 
C 3.40625 10.78125 5.59375 4.078125 10.09375 1.03125 
C 12.296875 -0.5 14.90625 -0.5 17.5 -0.296875 
C 21.703125 0 25.90625 1.015625 29.5 3.25 
C 31.203125 4.25 32.90625 5.578125 33.90625 7.296875 
L 34 7.296875 
L 34 0.203125 
L 40.296875 0.203125 
L 40.296875 26.890625 
C 40.296875 29.8125 40.59375 32.953125 40 35.890625 
C 39.40625 39.921875 36.90625 43.265625 34 45.59375 
C 30.59375 48.21875 26.703125 49.109375 21.5 48.71875 
C 16.703125 48.71875 13 47.5 9.40625 45.765625 
C 8.90625 45.5625 7.90625 45.234375 7.59375 44.640625 
C 7.296875 44.21875 7.5 43.515625 7.5 43 
C 7.703125 41.671875 7.796875 40.34375 7.90625 39.015625 
M 33.90625 24 
L 33.90625 16.375 
C 33.90625 14.0625 34 11.953125 32.703125 9.953125 
C 31.59375 8.34375 30.09375 7.234375 28.5 6.4375 
C 22.796875 3.515625 14.09375 4.421875 11.59375 9.25 
C 9.59375 12.75 11.703125 16.875 14.59375 19.1875 
C 18.90625 22.5 27.296875 24 33.90625 24 
" id="Computer_Modern_Bright-97"/>
      <path d="M 10.703125 42.078125 
C 1.796875 33.234375 0.796875 17.875 8.5 7.9375 
C 9.59375 6.421875 10.90625 5.125 12.40625 4.015625 
C 16.09375 1 21.5 -1.203125 27.796875 -0.5 
C 37.796875 0.703125 44.703125 8.84375 46.796875 17.375 
C 49.59375 29.328125 43.703125 42.671875 32.703125 46.890625 
C 24.09375 50.40625 15.5 46.890625 10.703125 42.078125 
M 35.703125 39.359375 
C 40.5 35.03125 41.40625 28.109375 41 21.984375 
C 40.703125 17.265625 39.40625 12.34375 36.09375 8.828125 
C 30.703125 3 20.703125 3 14.90625 8.625 
C 11.90625 11.84375 10.09375 16.453125 9.796875 21.984375 
C 9.296875 30.109375 11.296875 38.75 19.296875 41.96875 
C 25.203125 44.578125 32 42.671875 35.703125 39.359375 
" id="Computer_Modern_Bright-111"/>
      <path d="M 12.59375 37.28125 
L 12.5 37.28125 
L 12.5 47.390625 
L 6.40625 47.390625 
L 6.40625 0 
L 12.796875 0 
L 12.796875 21.9375 
C 12.796875 26.84375 12.5 31.875 14.703125 36.46875 
C 15.796875 38.78125 17.5 40.78125 19.796875 41.984375 
C 21.703125 42.890625 23.703125 42.890625 25.796875 42.6875 
C 28.796875 42.6875 31.703125 41.890625 33.59375 39.375 
C 35.40625 37.0625 35.5 34.0625 35.5 31.25 
L 35.5 0 
L 41.90625 0 
L 41.90625 26.859375 
C 41.90625 31.875 42.40625 37.375 40 41.890625 
C 38.09375 45.5 34.40625 47.203125 30.5 47.703125 
C 28.5 48 26.40625 48 24.40625 47.609375 
C 19.203125 46.5 14.40625 42.296875 12.59375 37.28125 
" id="Computer_Modern_Bright-110"/>
      <path d="M 10.59375 47.015625 
L 2 47.015625 
L 2 42 
L 10.59375 42 
L 10.59375 -0.5 
L 16.90625 -0.5 
L 16.90625 42 
L 29.296875 42 
L 29.296875 47.015625 
L 16.796875 47.015625 
L 16.796875 55.78125 
C 16.796875 57.1875 16.5 58.921875 17.09375 60.328125 
C 19.203125 64.75 26.296875 65.5625 32.09375 64.5625 
C 33.296875 64.359375 34.40625 63.953125 35.59375 63.75 
L 35.59375 69.390625 
C 28.796875 70.5 21.296875 70.5 15.703125 65.921875 
C 14.796875 65.125 14 64.34375 13.296875 63.328125 
C 11.203125 60.75 10.59375 57.875 10.59375 53.390625 
z
" id="Computer_Modern_Bright-102"/>
      <path d="M 12.59375 37.359375 
L 12.5 37.359375 
L 12.5 47.390625 
L 6.40625 47.390625 
L 6.40625 0 
L 12.796875 0 
L 12.796875 22.046875 
C 12.796875 26.953125 12.5 31.875 14.703125 36.375 
C 16.59375 40.28125 19.90625 43.390625 25.796875 42.78125 
C 28.796875 42.78125 31.796875 41.984375 33.703125 39.453125 
C 35.5 37.140625 35.59375 34.140625 35.59375 31.3125 
L 35.59375 0 
L 42 0 
L 42 22.046875 
C 42 26.953125 41.703125 31.875 43.90625 36.375 
C 45.796875 40.28125 49.09375 43.390625 55 42.78125 
C 58 42.78125 61 41.984375 62.90625 39.453125 
C 64.703125 37.140625 64.796875 34.140625 64.796875 31.3125 
L 64.796875 0 
L 71.203125 0 
L 71.203125 26.5625 
C 71.203125 31.375 71.796875 36.78125 69.703125 41.1875 
C 67.59375 45.296875 64.203125 47.5 58.703125 47.5 
C 55.5 47.796875 52.296875 47.3125 49.40625 45.84375 
C 45.90625 43.921875 43.296875 40.75 41.703125 37.265625 
C 41 40.578125 40.203125 42.828125 38 45 
C 35.703125 47.0625 32.59375 48 29.59375 48 
C 22.296875 48.59375 17.703125 45.5625 14.59375 41 
C 13.796875 39.875 13 38.671875 12.59375 37.359375 
" id="Computer_Modern_Bright-109"/>
     </defs>
     <g style="fill:#262626;" transform="translate(19.65327 267.065543)rotate(-90)scale(0.18 -0.18)">
      <use transform="scale(0.996264)" xlink:href="#Computer_Modern_Bright-68"/>
      <use transform="translate(71.606187 0)scale(0.996264)" xlink:href="#Computer_Modern_Bright-101"/>
      <use transform="translate(116.437855 0)scale(0.996264)" xlink:href="#Computer_Modern_Bright-118"/>
      <use transform="translate(158.778893 0)scale(0.996264)" xlink:href="#Computer_Modern_Bright-105"/>
      <use transform="translate(177.873851 0)scale(0.996264)" xlink:href="#Computer_Modern_Bright-97"/>
      <use transform="translate(224.365934 0)scale(0.996264)" xlink:href="#Computer_Modern_Bright-116"/>
      <use transform="translate(260.480322 0)scale(0.996264)" xlink:href="#Computer_Modern_Bright-105"/>
      <use transform="translate(279.57528 0)scale(0.996264)" xlink:href="#Computer_Modern_Bright-111"/>
      <use transform="translate(330.218498 0)scale(0.996264)" xlink:href="#Computer_Modern_Bright-110"/>
      <use transform="translate(409.836207 0)scale(0.996264)" xlink:href="#Computer_Modern_Bright-102"/>
      <use transform="translate(440.139151 0)scale(0.996264)" xlink:href="#Computer_Modern_Bright-114"/>
      <use transform="translate(472.10251 0)scale(0.996264)" xlink:href="#Computer_Modern_Bright-111"/>
      <use transform="translate(522.745728 0)scale(0.996264)" xlink:href="#Computer_Modern_Bright-109"/>
      <use transform="translate(631.421066 0)scale(0.996264)" xlink:href="#Computer_Modern_Bright-65"/>
      <use transform="translate(694.932683 0)scale(0.996264)" xlink:href="#Computer_Modern_Bright-100"/>
      <use transform="translate(743.08518 0)scale(0.996264)" xlink:href="#Computer_Modern_Bright-100"/>
      <use transform="translate(791.237677 0)scale(0.996264)" xlink:href="#Computer_Modern_Bright-105"/>
      <use transform="translate(810.332636 0)scale(0.996264)" xlink:href="#Computer_Modern_Bright-116"/>
      <use transform="translate(846.447024 0)scale(0.996264)" xlink:href="#Computer_Modern_Bright-105"/>
      <use transform="translate(865.541983 0)scale(0.996264)" xlink:href="#Computer_Modern_Bright-118"/>
      <use transform="translate(907.883021 0)scale(0.996264)" xlink:href="#Computer_Modern_Bright-101"/>
      <use transform="translate(984.1799 0)scale(0.996264)" xlink:href="#Computer_Modern_Bright-69"/>
      <use transform="translate(1042.917687 0)scale(0.996264)" xlink:href="#Computer_Modern_Bright-11"/>
      <use transform="translate(1100.617755 0)scale(0.996264)" xlink:href="#Computer_Modern_Bright-101"/>
      <use transform="translate(1145.449422 0)scale(0.996264)" xlink:href="#Computer_Modern_Bright-99"/>
      <use transform="translate(1190.28109 0)scale(0.996264)" xlink:href="#Computer_Modern_Bright-116"/>
     </g>
    </g>
   </g>
   <g id="PathCollection_1">
    <path clip-path="url(#pb5bd82830f)" d="M 396.548454 230.062161 
C 397.0524 230.062161 397.535774 229.861942 397.892118 229.505598 
C 398.248461 229.149254 398.448681 228.665881 398.448681 228.161934 
C 398.448681 227.657988 398.248461 227.174615 397.892118 226.818271 
C 397.535774 226.461927 397.0524 226.261707 396.548454 226.261707 
C 396.044508 226.261707 395.561134 226.461927 395.204791 226.818271 
C 394.848447 227.174615 394.648227 227.657988 394.648227 228.161934 
C 394.648227 228.665881 394.848447 229.149254 395.204791 229.505598 
C 395.561134 229.861942 396.044508 230.062161 396.548454 230.062161 
z
" style="fill:#33a02c;fill-opacity:0.9;stroke:#33a02c;stroke-opacity:0.9;stroke-width:0.3;"/>
    <path clip-path="url(#pb5bd82830f)" d="M 261.146783 169.213634 
C 261.816643 169.213634 262.459157 168.947496 262.932819 168.473834 
C 263.406481 168.000172 263.672619 167.357658 263.672619 166.687798 
C 263.672619 166.017938 263.406481 165.375424 262.932819 164.901762 
C 262.459157 164.4281 261.816643 164.161962 261.146783 164.161962 
C 260.476923 164.161962 259.834409 164.4281 259.360747 164.901762 
C 258.887085 165.375424 258.620947 166.017938 258.620947 166.687798 
C 258.620947 167.357658 258.887085 168.000172 259.360747 168.473834 
C 259.834409 168.947496 260.476923 169.213634 261.146783 169.213634 
z
" style="fill:#33a02c;fill-opacity:0.9;stroke:#33a02c;stroke-opacity:0.9;stroke-width:0.3;"/>
    <path clip-path="url(#pb5bd82830f)" d="M 307.942472 177.773311 
C 308.79716 177.773311 309.616957 177.433739 310.221313 176.829383 
C 310.825669 176.225028 311.16524 175.40523 311.16524 174.550542 
C 311.16524 173.695854 310.825669 172.876056 310.221313 172.2717 
C 309.616957 171.667344 308.79716 171.327773 307.942472 171.327773 
C 307.087783 171.327773 306.267986 171.667344 305.66363 172.2717 
C 305.059274 172.876056 304.719703 173.695854 304.719703 174.550542 
C 304.719703 175.40523 305.059274 176.225028 305.66363 176.829383 
C 306.267986 177.433739 307.087783 177.773311 307.942472 177.773311 
z
" style="fill:#33a02c;fill-opacity:0.9;stroke:#33a02c;stroke-opacity:0.9;stroke-width:0.3;"/>
    <path clip-path="url(#pb5bd82830f)" d="M 244.026103 140.476629 
C 245.324284 140.476629 246.56947 139.960857 247.487423 139.042904 
C 248.405375 138.124951 248.921148 136.879765 248.921148 135.581584 
C 248.921148 134.283403 248.405375 133.038217 247.487423 132.120265 
C 246.56947 131.202312 245.324284 130.686539 244.026103 130.686539 
C 242.727922 130.686539 241.482736 131.202312 240.564783 132.120265 
C 239.646831 133.038217 239.131058 134.283403 239.131058 135.581584 
C 239.131058 136.879765 239.646831 138.124951 240.564783 139.042904 
C 241.482736 139.960857 242.727922 140.476629 244.026103 140.476629 
z
" style="fill:#33a02c;fill-opacity:0.9;stroke:#33a02c;stroke-opacity:0.9;stroke-width:0.3;"/>
    <path clip-path="url(#pb5bd82830f)" d="M 241.93196 140.544821 
C 243.128401 140.544821 244.276 140.06947 245.122012 139.223458 
C 245.968023 138.377447 246.443374 137.229848 246.443374 136.033407 
C 246.443374 134.836966 245.968023 133.689367 245.122012 132.843355 
C 244.276 131.997344 243.128401 131.521993 241.93196 131.521993 
C 240.735519 131.521993 239.58792 131.997344 238.741909 132.843355 
C 237.895897 133.689367 237.420546 134.836966 237.420546 136.033407 
C 237.420546 137.229848 237.895897 138.377447 238.741909 139.223458 
C 239.58792 140.06947 240.735519 140.544821 241.93196 140.544821 
z
" style="fill:#33a02c;fill-opacity:0.9;stroke:#33a02c;stroke-opacity:0.9;stroke-width:0.3;"/>
    <path clip-path="url(#pb5bd82830f)" d="M 272.639408 153.997392 
C 274.065702 153.997392 275.43377 153.430719 276.442312 152.422177 
C 277.450854 151.413636 278.017526 150.045567 278.017526 148.619274 
C 278.017526 147.19298 277.450854 145.824912 276.442312 144.81637 
C 275.43377 143.807828 274.065702 143.241156 272.639408 143.241156 
C 271.213115 143.241156 269.845046 143.807828 268.836505 144.81637 
C 267.827963 145.824912 267.26129 147.19298 267.26129 148.619274 
C 267.26129 150.045567 267.827963 151.413636 268.836505 152.422177 
C 269.845046 153.430719 271.213115 153.997392 272.639408 153.997392 
z
" style="fill:#33a02c;fill-opacity:0.9;stroke:#33a02c;stroke-opacity:0.9;stroke-width:0.3;"/>
    <path clip-path="url(#pb5bd82830f)" d="M 440.411886 249.944275 
C 441.192596 249.944275 441.941436 249.634096 442.493481 249.08205 
C 443.045527 248.530005 443.355706 247.781165 443.355706 247.000455 
C 443.355706 246.219745 443.045527 245.470905 442.493481 244.91886 
C 441.941436 244.366814 441.192596 244.056635 440.411886 244.056635 
C 439.631176 244.056635 438.882336 244.366814 438.330291 244.91886 
C 437.778246 245.470905 437.468066 246.219745 437.468066 247.000455 
C 437.468066 247.781165 437.778246 248.530005 438.330291 249.08205 
C 438.882336 249.634096 439.631176 249.944275 440.411886 249.944275 
z
" style="fill:#33a02c;fill-opacity:0.9;stroke:#33a02c;stroke-opacity:0.9;stroke-width:0.3;"/>
    <path clip-path="url(#pb5bd82830f)" d="M 297.908841 169.597852 
C 299.230118 169.597852 300.497457 169.072902 301.431742 168.138618 
C 302.366026 167.204334 302.890975 165.936995 302.890975 164.615717 
C 302.890975 163.29444 302.366026 162.027101 301.431742 161.092816 
C 300.497457 160.158532 299.230118 159.633583 297.908841 159.633583 
C 296.587563 159.633583 295.320224 160.158532 294.38594 161.092816 
C 293.451656 162.027101 292.926706 163.29444 292.926706 164.615717 
C 292.926706 165.936995 293.451656 167.204334 294.38594 168.138618 
C 295.320224 169.072902 296.587563 169.597852 297.908841 169.597852 
z
" style="fill:#33a02c;fill-opacity:0.9;stroke:#33a02c;stroke-opacity:0.9;stroke-width:0.3;"/>
    <path clip-path="url(#pb5bd82830f)" d="M 259.882832 160.732703 
C 260.977054 160.732703 262.026607 160.297964 262.800339 159.524232 
C 263.574071 158.7505 264.00881 157.700947 264.00881 156.606725 
C 264.00881 155.512503 263.574071 154.46295 262.800339 153.689218 
C 262.026607 152.915486 260.977054 152.480747 259.882832 152.480747 
C 258.78861 152.480747 257.739057 152.915486 256.965325 153.689218 
C 256.191594 154.46295 255.756855 155.512503 255.756855 156.606725 
C 255.756855 157.700947 256.191594 158.7505 256.965325 159.524232 
C 257.739057 160.297964 258.78861 160.732703 259.882832 160.732703 
z
" style="fill:#33a02c;fill-opacity:0.9;stroke:#33a02c;stroke-opacity:0.9;stroke-width:0.3;"/>
    <path clip-path="url(#pb5bd82830f)" d="M 363.283559 227.284217 
C 364.345473 227.284217 365.364037 226.862314 366.114923 226.111427 
C 366.86581 225.36054 367.287713 224.341976 367.287713 223.280062 
C 367.287713 222.218148 366.86581 221.199585 366.114923 220.448698 
C 365.364037 219.697811 364.345473 219.275908 363.283559 219.275908 
C 362.221645 219.275908 361.203081 219.697811 360.452194 220.448698 
C 359.701308 221.199585 359.279405 222.218148 359.279405 223.280062 
C 359.279405 224.341976 359.701308 225.36054 360.452194 226.111427 
C 361.203081 226.862314 362.221645 227.284217 363.283559 227.284217 
z
" style="fill:#33a02c;fill-opacity:0.9;stroke:#33a02c;stroke-opacity:0.9;stroke-width:0.3;"/>
    <path clip-path="url(#pb5bd82830f)" d="M 302.598903 159.333745 
C 303.535412 159.333745 304.433691 158.961666 305.095903 158.299454 
C 305.758115 157.637242 306.130194 156.738963 306.130194 155.802454 
C 306.130194 154.865945 305.758115 153.967666 305.095903 153.305454 
C 304.433691 152.643242 303.535412 152.271163 302.598903 152.271163 
C 301.662394 152.271163 300.764115 152.643242 300.101903 153.305454 
C 299.439691 153.967666 299.067612 154.865945 299.067612 155.802454 
C 299.067612 156.738963 299.439691 157.637242 300.101903 158.299454 
C 300.764115 158.961666 301.662394 159.333745 302.598903 159.333745 
z
" style="fill:#33a02c;fill-opacity:0.9;stroke:#33a02c;stroke-opacity:0.9;stroke-width:0.3;"/>
    <path clip-path="url(#pb5bd82830f)" d="M 306.770021 172.980886 
C 307.543127 172.980886 308.284672 172.673728 308.83134 172.12706 
C 309.378009 171.580392 309.685167 170.838846 309.685167 170.065741 
C 309.685167 169.292635 309.378009 168.551089 308.83134 168.004421 
C 308.284672 167.457753 307.543127 167.150595 306.770021 167.150595 
C 305.996915 167.150595 305.25537 167.457753 304.708702 168.004421 
C 304.162033 168.551089 303.854875 169.292635 303.854875 170.065741 
C 303.854875 170.838846 304.162033 171.580392 304.708702 172.12706 
C 305.25537 172.673728 305.996915 172.980886 306.770021 172.980886 
z
" style="fill:#33a02c;fill-opacity:0.9;stroke:#33a02c;stroke-opacity:0.9;stroke-width:0.3;"/>
    <path clip-path="url(#pb5bd82830f)" d="M 285.223835 179.535854 
C 286.636057 179.535854 287.990629 178.974772 288.98922 177.97618 
C 289.987812 176.977588 290.548894 175.623017 290.548894 174.210795 
C 290.548894 172.798573 289.987812 171.444002 288.98922 170.44541 
C 287.990629 169.446818 286.636057 168.885736 285.223835 168.885736 
C 283.811613 168.885736 282.457042 169.446818 281.45845 170.44541 
C 280.459858 171.444002 279.898776 172.798573 279.898776 174.210795 
C 279.898776 175.623017 280.459858 176.977588 281.45845 177.97618 
C 282.457042 178.974772 283.811613 179.535854 285.223835 179.535854 
z
" style="fill:#33a02c;fill-opacity:0.9;stroke:#33a02c;stroke-opacity:0.9;stroke-width:0.3;"/>
    <path clip-path="url(#pb5bd82830f)" d="M 336.205902 191.183605 
C 336.94162 191.183605 337.647303 190.891302 338.167534 190.371071 
C 338.687765 189.85084 338.980068 189.145157 338.980068 188.409439 
C 338.980068 187.673722 338.687765 186.968038 338.167534 186.447807 
C 337.647303 185.927577 336.94162 185.635273 336.205902 185.635273 
C 335.470185 185.635273 334.764501 185.927577 334.244271 186.447807 
C 333.72404 186.968038 333.431736 187.673722 333.431736 188.409439 
C 333.431736 189.145157 333.72404 189.85084 334.244271 190.371071 
C 334.764501 190.891302 335.470185 191.183605 336.205902 191.183605 
z
" style="fill:#33a02c;fill-opacity:0.9;stroke:#33a02c;stroke-opacity:0.9;stroke-width:0.3;"/>
    <path clip-path="url(#pb5bd82830f)" d="M 225.741409 131.517888 
C 226.767181 131.517888 227.751079 131.110345 228.476409 130.385014 
C 229.20174 129.659684 229.609283 128.675787 229.609283 127.650014 
C 229.609283 126.624242 229.20174 125.640345 228.476409 124.915014 
C 227.751079 124.189684 226.767181 123.78214 225.741409 123.78214 
C 224.715637 123.78214 223.73174 124.189684 223.006409 124.915014 
C 222.281079 125.640345 221.873535 126.624242 221.873535 127.650014 
C 221.873535 128.675787 222.281079 129.659684 223.006409 130.385014 
C 223.73174 131.110345 224.715637 131.517888 225.741409 131.517888 
z
" style="fill:#33a02c;fill-opacity:0.9;stroke:#33a02c;stroke-opacity:0.9;stroke-width:0.3;"/>
    <path clip-path="url(#pb5bd82830f)" d="M 241.072833 121.498035 
C 242.180717 121.498035 243.243375 121.057868 244.026767 120.274475 
C 244.81016 119.491083 245.250327 118.428426 245.250327 117.320541 
C 245.250327 116.212657 244.81016 115.15 244.026767 114.366607 
C 243.243375 113.583215 242.180717 113.143048 241.072833 113.143048 
C 239.964949 113.143048 238.902291 113.583215 238.118899 114.366607 
C 237.335507 115.15 236.895339 116.212657 236.895339 117.320541 
C 236.895339 118.428426 237.335507 119.491083 238.118899 120.274475 
C 238.902291 121.057868 239.964949 121.498035 241.072833 121.498035 
z
" style="fill:#33a02c;fill-opacity:0.9;stroke:#33a02c;stroke-opacity:0.9;stroke-width:0.3;"/>
    <path clip-path="url(#pb5bd82830f)" d="M 222.255925 138.579189 
C 223.413135 138.579189 224.523104 138.119424 225.341375 137.301153 
C 226.159646 136.482882 226.61941 135.372913 226.61941 134.215703 
C 226.61941 133.058493 226.159646 131.948524 225.341375 131.130253 
C 224.523104 130.311982 223.413135 129.852217 222.255925 129.852217 
C 221.098715 129.852217 219.988745 130.311982 219.170474 131.130253 
C 218.352203 131.948524 217.892439 133.058493 217.892439 134.215703 
C 217.892439 135.372913 218.352203 136.482882 219.170474 137.301153 
C 219.988745 138.119424 221.098715 138.579189 222.255925 138.579189 
z
" style="fill:#33a02c;fill-opacity:0.9;stroke:#33a02c;stroke-opacity:0.9;stroke-width:0.3;"/>
    <path clip-path="url(#pb5bd82830f)" d="M 328.120268 235.25475 
C 328.933569 235.25475 329.71367 234.931622 330.288761 234.356531 
C 330.863852 233.78144 331.18698 233.001339 331.18698 232.188038 
C 331.18698 231.374736 330.863852 230.594636 330.288761 230.019545 
C 329.71367 229.444454 328.933569 229.121326 328.120268 229.121326 
C 327.306966 229.121326 326.526866 229.444454 325.951775 230.019545 
C 325.376683 230.594636 325.053555 231.374736 325.053555 232.188038 
C 325.053555 233.001339 325.376683 233.78144 325.951775 234.356531 
C 326.526866 234.931622 327.306966 235.25475 328.120268 235.25475 
z
" style="fill:#33a02c;fill-opacity:0.9;stroke:#33a02c;stroke-opacity:0.9;stroke-width:0.3;"/>
    <path clip-path="url(#pb5bd82830f)" d="M 237.991705 136.793711 
C 239.028326 136.793711 240.022629 136.381857 240.755631 135.648856 
C 241.488633 134.915854 241.900487 133.921551 241.900487 132.884929 
C 241.900487 131.848308 241.488633 130.854005 240.755631 130.121003 
C 240.022629 129.388002 239.028326 128.976148 237.991705 128.976148 
C 236.955084 128.976148 235.96078 129.388002 235.227779 130.121003 
C 234.494777 130.854005 234.082923 131.848308 234.082923 132.884929 
C 234.082923 133.921551 234.494777 134.915854 235.227779 135.648856 
C 235.96078 136.381857 236.955084 136.793711 237.991705 136.793711 
z
" style="fill:#33a02c;fill-opacity:0.9;stroke:#33a02c;stroke-opacity:0.9;stroke-width:0.3;"/>
    <path clip-path="url(#pb5bd82830f)" d="M 225.097197 129.711566 
C 225.961026 129.711566 226.789591 129.368364 227.40041 128.757544 
C 228.011229 128.146725 228.354432 127.31816 228.354432 126.454331 
C 228.354432 125.590503 228.011229 124.761938 227.40041 124.151118 
C 226.789591 123.540299 225.961026 123.197096 225.097197 123.197096 
C 224.233368 123.197096 223.404803 123.540299 222.793984 124.151118 
C 222.183165 124.761938 221.839962 125.590503 221.839962 126.454331 
C 221.839962 127.31816 222.183165 128.146725 222.793984 128.757544 
C 223.404803 129.368364 224.233368 129.711566 225.097197 129.711566 
z
" style="fill:#33a02c;fill-opacity:0.9;stroke:#33a02c;stroke-opacity:0.9;stroke-width:0.3;"/>
    <path clip-path="url(#pb5bd82830f)" d="M 232.813662 130.10532 
C 234.067372 130.10532 235.269903 129.607216 236.15641 128.720709 
C 237.042917 127.834201 237.541022 126.631671 237.541022 125.37796 
C 237.541022 124.12425 237.042917 122.921719 236.15641 122.035212 
C 235.269903 121.148705 234.067372 120.6506 232.813662 120.6506 
C 231.559951 120.6506 230.357421 121.148705 229.470914 122.035212 
C 228.584406 122.921719 228.086302 124.12425 228.086302 125.37796 
C 228.086302 126.631671 228.584406 127.834201 229.470914 128.720709 
C 230.357421 129.607216 231.559951 130.10532 232.813662 130.10532 
z
" style="fill:#33a02c;fill-opacity:0.9;stroke:#33a02c;stroke-opacity:0.9;stroke-width:0.3;"/>
    <path clip-path="url(#pb5bd82830f)" d="M 291.467641 171.186043 
C 292.641119 171.186043 293.766693 170.719815 294.596467 169.89004 
C 295.426242 169.060266 295.892469 167.934693 295.892469 166.761214 
C 295.892469 165.587736 295.426242 164.462163 294.596467 163.632388 
C 293.766693 162.802614 292.641119 162.336386 291.467641 162.336386 
C 290.294163 162.336386 289.16859 162.802614 288.338815 163.632388 
C 287.509041 164.462163 287.042813 165.587736 287.042813 166.761214 
C 287.042813 167.934693 287.509041 169.060266 288.338815 169.89004 
C 289.16859 170.719815 290.294163 171.186043 291.467641 171.186043 
z
" style="fill:#33a02c;fill-opacity:0.9;stroke:#33a02c;stroke-opacity:0.9;stroke-width:0.3;"/>
    <path clip-path="url(#pb5bd82830f)" d="M 255.414421 138.470172 
C 256.746687 138.470172 258.024566 137.940857 258.96662 136.998803 
C 259.908674 136.056749 260.437989 134.77887 260.437989 133.446605 
C 260.437989 132.114339 259.908674 130.83646 258.96662 129.894406 
C 258.024566 128.952352 256.746687 128.423037 255.414421 128.423037 
C 254.082156 128.423037 252.804277 128.952352 251.862223 129.894406 
C 250.920169 130.83646 250.390854 132.114339 250.390854 133.446605 
C 250.390854 134.77887 250.920169 136.056749 251.862223 136.998803 
C 252.804277 137.940857 254.082156 138.470172 255.414421 138.470172 
z
" style="fill:#33a02c;fill-opacity:0.9;stroke:#33a02c;stroke-opacity:0.9;stroke-width:0.3;"/>
    <path clip-path="url(#pb5bd82830f)" d="M 312.927591 180.898526 
C 313.697812 180.898526 314.436591 180.592513 314.981219 180.047885 
C 315.525848 179.503256 315.83186 178.764478 315.83186 177.994257 
C 315.83186 177.224036 315.525848 176.485257 314.981219 175.940629 
C 314.436591 175.396 313.697812 175.089988 312.927591 175.089988 
C 312.15737 175.089988 311.418591 175.396 310.873963 175.940629 
C 310.329334 176.485257 310.023322 177.224036 310.023322 177.994257 
C 310.023322 178.764478 310.329334 179.503256 310.873963 180.047885 
C 311.418591 180.592513 312.15737 180.898526 312.927591 180.898526 
z
" style="fill:#33a02c;fill-opacity:0.9;stroke:#33a02c;stroke-opacity:0.9;stroke-width:0.3;"/>
    <path clip-path="url(#pb5bd82830f)" d="M 298.513297 230.234528 
C 299.074109 230.234528 299.612027 230.011715 300.008582 229.615161 
C 300.405136 229.218607 300.627949 228.680689 300.627949 228.119877 
C 300.627949 227.559064 300.405136 227.021146 300.008582 226.624592 
C 299.612027 226.228038 299.074109 226.005225 298.513297 226.005225 
C 297.952485 226.005225 297.414566 226.228038 297.018012 226.624592 
C 296.621458 227.021146 296.398645 227.559064 296.398645 228.119877 
C 296.398645 228.680689 296.621458 229.218607 297.018012 229.615161 
C 297.414566 230.011715 297.952485 230.234528 298.513297 230.234528 
z
" style="fill:#33a02c;fill-opacity:0.9;stroke:#33a02c;stroke-opacity:0.9;stroke-width:0.3;"/>
    <path clip-path="url(#pb5bd82830f)" d="M 348.173926 251.946977 
C 349.46882 251.946977 350.710854 251.43251 351.626483 250.516881 
C 352.542112 249.601252 353.056579 248.359219 353.056579 247.064324 
C 353.056579 245.769429 352.542112 244.527395 351.626483 243.611766 
C 350.710854 242.696137 349.46882 242.18167 348.173926 242.18167 
C 346.879031 242.18167 345.636997 242.696137 344.721368 243.611766 
C 343.805739 244.527395 343.291272 245.769429 343.291272 247.064324 
C 343.291272 248.359219 343.805739 249.601252 344.721368 250.516881 
C 345.636997 251.43251 346.879031 251.946977 348.173926 251.946977 
z
" style="fill:#33a02c;fill-opacity:0.9;stroke:#33a02c;stroke-opacity:0.9;stroke-width:0.3;"/>
    <path clip-path="url(#pb5bd82830f)" d="M 296.581402 165.603832 
C 297.439223 165.603832 298.262024 165.263017 298.868595 164.656446 
C 299.475165 164.049875 299.815981 163.227074 299.815981 162.369254 
C 299.815981 161.511433 299.475165 160.688632 298.868595 160.082061 
C 298.262024 159.475491 297.439223 159.134675 296.581402 159.134675 
C 295.723582 159.134675 294.90078 159.475491 294.29421 160.082061 
C 293.687639 160.688632 293.346824 161.511433 293.346824 162.369254 
C 293.346824 163.227074 293.687639 164.049875 294.29421 164.656446 
C 294.90078 165.263017 295.723582 165.603832 296.581402 165.603832 
z
" style="fill:#33a02c;fill-opacity:0.9;stroke:#33a02c;stroke-opacity:0.9;stroke-width:0.3;"/>
    <path clip-path="url(#pb5bd82830f)" d="M 305.406566 173.738462 
C 306.393603 173.738462 307.340347 173.346308 308.038287 172.648367 
C 308.736228 171.950426 309.128382 171.003683 309.128382 170.016646 
C 309.128382 169.029609 308.736228 168.082865 308.038287 167.384925 
C 307.340347 166.686984 306.393603 166.29483 305.406566 166.29483 
C 304.419529 166.29483 303.472786 166.686984 302.774845 167.384925 
C 302.076904 168.082865 301.68475 169.029609 301.68475 170.016646 
C 301.68475 171.003683 302.076904 171.950426 302.774845 172.648367 
C 303.472786 173.346308 304.419529 173.738462 305.406566 173.738462 
z
" style="fill:#33a02c;fill-opacity:0.9;stroke:#33a02c;stroke-opacity:0.9;stroke-width:0.3;"/>
    <path clip-path="url(#pb5bd82830f)" d="M 305.406566 173.738462 
C 306.393603 173.738462 307.340347 173.346308 308.038287 172.648367 
C 308.736228 171.950426 309.128382 171.003683 309.128382 170.016646 
C 309.128382 169.029609 308.736228 168.082865 308.038287 167.384925 
C 307.340347 166.686984 306.393603 166.29483 305.406566 166.29483 
C 304.419529 166.29483 303.472786 166.686984 302.774845 167.384925 
C 302.076904 168.082865 301.68475 169.029609 301.68475 170.016646 
C 301.68475 171.003683 302.076904 171.950426 302.774845 172.648367 
C 303.472786 173.346308 304.419529 173.738462 305.406566 173.738462 
z
" style="fill:#33a02c;fill-opacity:0.9;stroke:#33a02c;stroke-opacity:0.9;stroke-width:0.3;"/>
    <path clip-path="url(#pb5bd82830f)" d="M 469.720475 220.934799 
C 470.124213 220.934799 470.511469 220.774393 470.796954 220.488907 
C 471.08244 220.203422 471.242846 219.816166 471.242846 219.412428 
C 471.242846 219.008691 471.08244 218.621435 470.796954 218.335949 
C 470.511469 218.050464 470.124213 217.890057 469.720475 217.890057 
C 469.316738 217.890057 468.929482 218.050464 468.643996 218.335949 
C 468.358511 218.621435 468.198104 219.008691 468.198104 219.412428 
C 468.198104 219.816166 468.358511 220.203422 468.643996 220.488907 
C 468.929482 220.774393 469.316738 220.934799 469.720475 220.934799 
z
" style="fill:#33a02c;fill-opacity:0.9;stroke:#33a02c;stroke-opacity:0.9;stroke-width:0.3;"/>
    <path clip-path="url(#pb5bd82830f)" d="M 330.939494 198.543315 
C 331.734402 198.543315 332.496859 198.227495 333.058943 197.665411 
C 333.621027 197.103327 333.936847 196.34087 333.936847 195.545962 
C 333.936847 194.751055 333.621027 193.988598 333.058943 193.426514 
C 332.496859 192.864429 331.734402 192.548609 330.939494 192.548609 
C 330.144587 192.548609 329.38213 192.864429 328.820046 193.426514 
C 328.257961 193.988598 327.942141 194.751055 327.942141 195.545962 
C 327.942141 196.34087 328.257961 197.103327 328.820046 197.665411 
C 329.38213 198.227495 330.144587 198.543315 330.939494 198.543315 
z
" style="fill:#33a02c;fill-opacity:0.9;stroke:#33a02c;stroke-opacity:0.9;stroke-width:0.3;"/>
    <path clip-path="url(#pb5bd82830f)" d="M 229.78487 133.365561 
C 231.168033 133.365561 232.494731 132.816025 233.472774 131.837982 
C 234.450817 130.859938 235.000354 129.533241 235.000354 128.150078 
C 235.000354 126.766916 234.450817 125.440218 233.472774 124.462175 
C 232.494731 123.484131 231.168033 122.934595 229.78487 122.934595 
C 228.401708 122.934595 227.07501 123.484131 226.096967 124.462175 
C 225.118924 125.440218 224.569387 126.766916 224.569387 128.150078 
C 224.569387 129.533241 225.118924 130.859938 226.096967 131.837982 
C 227.07501 132.816025 228.401708 133.365561 229.78487 133.365561 
z
" style="fill:#33a02c;fill-opacity:0.9;stroke:#33a02c;stroke-opacity:0.9;stroke-width:0.3;"/>
    <path clip-path="url(#pb5bd82830f)" d="M 443.098841 224.09263 
C 443.434377 224.09263 443.756215 223.95932 443.993474 223.722061 
C 444.230733 223.484802 444.364043 223.162964 444.364043 222.827428 
C 444.364043 222.491893 444.230733 222.170055 443.993474 221.932795 
C 443.756215 221.695536 443.434377 221.562226 443.098841 221.562226 
C 442.763306 221.562226 442.441468 221.695536 442.204208 221.932795 
C 441.966949 222.170055 441.833639 222.491893 441.833639 222.827428 
C 441.833639 223.162964 441.966949 223.484802 442.204208 223.722061 
C 442.441468 223.95932 442.763306 224.09263 443.098841 224.09263 
z
" style="fill:#33a02c;fill-opacity:0.9;stroke:#33a02c;stroke-opacity:0.9;stroke-width:0.3;"/>
    <path clip-path="url(#pb5bd82830f)" d="M 343.621543 206.564924 
C 344.327484 206.564924 345.004607 206.28445 345.503782 205.785275 
C 346.002958 205.286099 346.283431 204.608976 346.283431 203.903035 
C 346.283431 203.197094 346.002958 202.519972 345.503782 202.020796 
C 345.004607 201.521621 344.327484 201.241147 343.621543 201.241147 
C 342.915602 201.241147 342.23848 201.521621 341.739304 202.020796 
C 341.240128 202.519972 340.959655 203.197094 340.959655 203.903035 
C 340.959655 204.608976 341.240128 205.286099 341.739304 205.785275 
C 342.23848 206.28445 342.915602 206.564924 343.621543 206.564924 
z
" style="fill:#33a02c;fill-opacity:0.9;stroke:#33a02c;stroke-opacity:0.9;stroke-width:0.3;"/>
    <path clip-path="url(#pb5bd82830f)" d="M 326.168069 203.953007 
C 327.536946 203.953007 328.849941 203.409147 329.817883 202.441205 
C 330.785826 201.473262 331.329686 200.160267 331.329686 198.79139 
C 331.329686 197.422513 330.785826 196.109517 329.817883 195.141575 
C 328.849941 194.173633 327.536946 193.629772 326.168069 193.629772 
C 324.799192 193.629772 323.486196 194.173633 322.518254 195.141575 
C 321.550312 196.109517 321.006451 197.422513 321.006451 198.79139 
C 321.006451 200.160267 321.550312 201.473262 322.518254 202.441205 
C 323.486196 203.409147 324.799192 203.953007 326.168069 203.953007 
z
" style="fill:#33a02c;fill-opacity:0.9;stroke:#33a02c;stroke-opacity:0.9;stroke-width:0.3;"/>
    <path clip-path="url(#pb5bd82830f)" d="M 308.004817 174.775662 
C 308.849961 174.775662 309.660605 174.439883 310.258212 173.842275 
C 310.855819 173.244668 311.191599 172.434025 311.191599 171.58888 
C 311.191599 170.743736 310.855819 169.933093 310.258212 169.335486 
C 309.660605 168.737878 308.849961 168.402099 308.004817 168.402099 
C 307.159673 168.402099 306.349029 168.737878 305.751422 169.335486 
C 305.153815 169.933093 304.818035 170.743736 304.818035 171.58888 
C 304.818035 172.434025 305.153815 173.244668 305.751422 173.842275 
C 306.349029 174.439883 307.159673 174.775662 308.004817 174.775662 
z
" style="fill:#33a02c;fill-opacity:0.9;stroke:#33a02c;stroke-opacity:0.9;stroke-width:0.3;"/>
    <path clip-path="url(#pb5bd82830f)" d="M 450.474272 219.875041 
C 450.885545 219.875041 451.280028 219.71164 451.570842 219.420827 
C 451.861656 219.130013 452.025056 218.73553 452.025056 218.324257 
C 452.025056 217.912984 451.861656 217.518501 451.570842 217.227687 
C 451.280028 216.936874 450.885545 216.773473 450.474272 216.773473 
C 450.063 216.773473 449.668516 216.936874 449.377703 217.227687 
C 449.086889 217.518501 448.923489 217.912984 448.923489 218.324257 
C 448.923489 218.73553 449.086889 219.130013 449.377703 219.420827 
C 449.668516 219.71164 450.063 219.875041 450.474272 219.875041 
z
" style="fill:#33a02c;fill-opacity:0.9;stroke:#33a02c;stroke-opacity:0.9;stroke-width:0.3;"/>
    <path clip-path="url(#pb5bd82830f)" d="M 277.968107 154.211163 
C 279.147024 154.211163 280.277813 153.742775 281.111433 152.909155 
C 281.945052 152.075536 282.413441 150.944746 282.413441 149.76583 
C 282.413441 148.586914 281.945052 147.456124 281.111433 146.622505 
C 280.277813 145.788885 279.147024 145.320497 277.968107 145.320497 
C 276.789191 145.320497 275.658402 145.788885 274.824782 146.622505 
C 273.991162 147.456124 273.522774 148.586914 273.522774 149.76583 
C 273.522774 150.944746 273.991162 152.075536 274.824782 152.909155 
C 275.658402 153.742775 276.789191 154.211163 277.968107 154.211163 
z
" style="fill:#33a02c;fill-opacity:0.9;stroke:#33a02c;stroke-opacity:0.9;stroke-width:0.3;"/>
    <path clip-path="url(#pb5bd82830f)" d="M 113.617737 74.782789 
C 114.127521 74.782789 114.616495 74.58025 114.976967 74.219778 
C 115.337439 73.859306 115.539978 73.370332 115.539978 72.860548 
C 115.539978 72.350764 115.337439 71.86179 114.976967 71.501318 
C 114.616495 71.140846 114.127521 70.938307 113.617737 70.938307 
C 113.107953 70.938307 112.618979 71.140846 112.258507 71.501318 
C 111.898035 71.86179 111.695496 72.350764 111.695496 72.860548 
C 111.695496 73.370332 111.898035 73.859306 112.258507 74.219778 
C 112.618979 74.58025 113.107953 74.782789 113.617737 74.782789 
z
" style="fill:#33a02c;fill-opacity:0.9;stroke:#33a02c;stroke-opacity:0.9;stroke-width:0.3;"/>
    <path clip-path="url(#pb5bd82830f)" d="M 380.709713 202.853722 
C 381.146655 202.853722 381.56576 202.680123 381.874725 202.371158 
C 382.183689 202.062193 382.357288 201.643088 382.357288 201.206146 
C 382.357288 200.769204 382.183689 200.350099 381.874725 200.041134 
C 381.56576 199.73217 381.146655 199.558571 380.709713 199.558571 
C 380.272771 199.558571 379.853666 199.73217 379.544701 200.041134 
C 379.235736 200.350099 379.062137 200.769204 379.062137 201.206146 
C 379.062137 201.643088 379.235736 202.062193 379.544701 202.371158 
C 379.853666 202.680123 380.272771 202.853722 380.709713 202.853722 
z
" style="fill:#33a02c;fill-opacity:0.9;stroke:#33a02c;stroke-opacity:0.9;stroke-width:0.3;"/>
    <path clip-path="url(#pb5bd82830f)" d="M 273.932228 153.678968 
C 275.344399 153.678968 276.698922 153.117906 277.697478 152.11935 
C 278.696034 151.120794 279.257096 149.766271 279.257096 148.354099 
C 279.257096 146.941928 278.696034 145.587405 277.697478 144.588849 
C 276.698922 143.590293 275.344399 143.029231 273.932228 143.029231 
C 272.520056 143.029231 271.165533 143.590293 270.166977 144.588849 
C 269.168421 145.587405 268.607359 146.941928 268.607359 148.354099 
C 268.607359 149.766271 269.168421 151.120794 270.166977 152.11935 
C 271.165533 153.117906 272.520056 153.678968 273.932228 153.678968 
z
" style="fill:#33a02c;fill-opacity:0.9;stroke:#33a02c;stroke-opacity:0.9;stroke-width:0.3;"/>
    <path clip-path="url(#pb5bd82830f)" d="M 327.720694 179.484293 
C 328.825254 179.484293 329.884723 179.045446 330.665764 178.264404 
C 331.446806 177.483363 331.885653 176.423894 331.885653 175.319334 
C 331.885653 174.214774 331.446806 173.155305 330.665764 172.374263 
C 329.884723 171.593221 328.825254 171.154375 327.720694 171.154375 
C 326.616134 171.154375 325.556665 171.593221 324.775623 172.374263 
C 323.994581 173.155305 323.555735 174.214774 323.555735 175.319334 
C 323.555735 176.423894 323.994581 177.483363 324.775623 178.264404 
C 325.556665 179.045446 326.616134 179.484293 327.720694 179.484293 
z
" style="fill:#33a02c;fill-opacity:0.9;stroke:#33a02c;stroke-opacity:0.9;stroke-width:0.3;"/>
    <path clip-path="url(#pb5bd82830f)" d="M 310.444229 234.735322 
C 311.191186 234.735322 311.907649 234.438553 312.435827 233.910375 
C 312.964004 233.382198 313.260773 232.665734 313.260773 231.918778 
C 313.260773 231.171822 312.964004 230.455359 312.435827 229.927181 
C 311.907649 229.399003 311.191186 229.102234 310.444229 229.102234 
C 309.697273 229.102234 308.98081 229.399003 308.452632 229.927181 
C 307.924454 230.455359 307.627686 231.171822 307.627686 231.918778 
C 307.627686 232.665734 307.924454 233.382198 308.452632 233.910375 
C 308.98081 234.438553 309.697273 234.735322 310.444229 234.735322 
z
" style="fill:#33a02c;fill-opacity:0.9;stroke:#33a02c;stroke-opacity:0.9;stroke-width:0.3;"/>
    <path clip-path="url(#pb5bd82830f)" d="M 324.10901 171.229673 
C 324.834825 171.229673 325.53101 170.941303 326.044239 170.428075 
C 326.557467 169.914846 326.845837 169.218661 326.845837 168.492846 
C 326.845837 167.767031 326.557467 167.070846 326.044239 166.557617 
C 325.53101 166.044388 324.834825 165.756019 324.10901 165.756019 
C 323.383195 165.756019 322.68701 166.044388 322.173781 166.557617 
C 321.660553 167.070846 321.372183 167.767031 321.372183 168.492846 
C 321.372183 169.218661 321.660553 169.914846 322.173781 170.428075 
C 322.68701 170.941303 323.383195 171.229673 324.10901 171.229673 
z
" style="fill:#33a02c;fill-opacity:0.9;stroke:#33a02c;stroke-opacity:0.9;stroke-width:0.3;"/>
    <path clip-path="url(#pb5bd82830f)" d="M 85.496742 63.168961 
C 85.838798 63.168961 86.16689 63.033061 86.40876 62.791191 
C 86.650629 62.549321 86.78653 62.221229 86.78653 61.879173 
C 86.78653 61.537117 86.650629 61.209025 86.40876 60.967155 
C 86.16689 60.725285 85.838798 60.589385 85.496742 60.589385 
C 85.154686 60.589385 84.826594 60.725285 84.584724 60.967155 
C 84.342854 61.209025 84.206954 61.537117 84.206954 61.879173 
C 84.206954 62.221229 84.342854 62.549321 84.584724 62.791191 
C 84.826594 63.033061 85.154686 63.168961 85.496742 63.168961 
z
" style="fill:#33a02c;fill-opacity:0.9;stroke:#33a02c;stroke-opacity:0.9;stroke-width:0.3;"/>
   </g>
   <g id="line2d_16">
    <path clip-path="url(#pb5bd82830f)" d="M 74.699518 56.756964 
L 480.517699 249.277332 
L 480.517699 249.277332 
" style="fill:none;stroke:#1f78b4;stroke-dasharray:5.6,2.4;stroke-dashoffset:0;stroke-width:2;"/>
   </g>
   <g id="line2d_17">
    <path clip-path="url(#pb5bd82830f)" d="M 83.337297 20.79 
L 471.87992 292.59 
L 471.87992 292.59 
" style="fill:none;stroke:#33a02c;stroke-linecap:round;stroke-width:2.3;"/>
   </g>
   <g id="patch_3">
    <path d="M 54.408609 306.18 
L 54.408609 7.2 
" style="fill:none;"/>
   </g>
   <g id="patch_4">
    <path d="M 500.808609 306.18 
L 500.808609 7.2 
" style="fill:none;"/>
   </g>
   <g id="patch_5">
    <path d="M 54.408609 306.18 
L 500.808609 306.18 
" style="fill:none;"/>
   </g>
   <g id="patch_6">
    <path d="M 54.408609 7.2 
L 500.808609 7.2 
" style="fill:none;"/>
   </g>
   <g id="legend_1">
    <g id="line2d_18">
     <path d="M 324.18954 24.7 
L 352.18954 24.7 
" style="fill:none;stroke:#1f78b4;stroke-dasharray:5.6,2.4;stroke-dashoffset:0;stroke-width:2;"/>
    </g>
    <g id="line2d_19"/>
    <g id="text_18">
     <!-- Unbranched Pathway -->
     <defs>
      <path d="M 8 69.5 
L 8 32.75 
C 8 25.71875 7.203125 18.390625 10.703125 11.96875 
C 12.90625 7.84375 16.09375 4.4375 20.09375 2.125 
C 29.90625 -3.609375 43.5 -2.203125 51.296875 6.4375 
C 54.796875 10.359375 57.296875 15.171875 57.796875 21.796875 
C 57.90625 23.40625 57.796875 24.921875 57.796875 26.515625 
L 57.796875 69.5 
L 51.40625 69.5 
L 51.40625 25.90625 
C 51.40625 24.59375 51.5 23.1875 51.40625 21.890625 
C 51.203125 18.890625 50.59375 15.921875 49.40625 13.25 
C 43.90625 1 25 1 18 11.890625 
C 14.203125 17.78125 15 25.0625 15 31.65625 
L 15 69.5 
z
" id="Computer_Modern_Bright-85"/>
      <path d="M 6.40625 69.6875 
L 6.40625 0 
L 12.796875 0 
L 12.796875 6.328125 
L 12.90625 6.328125 
C 14 4.109375 16.5 2.015625 18.59375 0.90625 
C 25.796875 -2.90625 34.40625 0.90625 39.09375 7.03125 
C 48.59375 19.578125 44.796875 40.875 32.296875 46.796875 
C 27.40625 49 21.5 48 17.09375 44.984375 
C 15.40625 43.78125 14 42.375 12.703125 40.765625 
L 12.703125 69.6875 
z
M 21.90625 42.984375 
C 26.59375 43.375 31.5 41.265625 34.296875 37.453125 
C 36.203125 34.9375 37.203125 31.9375 37.703125 28.8125 
C 38.703125 21.484375 37.90625 12.25 31.40625 7.4375 
C 30.296875 6.625 29.09375 6.03125 27.796875 5.515625 
C 22.40625 3.515625 17 4.109375 14 8.84375 
C 13.09375 10.4375 12.796875 10.546875 12.796875 12.953125 
L 12.796875 33.734375 
C 12.796875 34.75 12.59375 35.953125 13 36.859375 
C 14.59375 40.171875 18.296875 42.671875 21.90625 42.984375 
" id="Computer_Modern_Bright-98"/>
      <path d="M 6.40625 69.6875 
L 6.40625 0 
L 12.796875 0 
L 12.796875 21.984375 
C 12.796875 26.90625 12.5 31.9375 14.703125 36.546875 
C 15.796875 38.859375 17.5 40.875 19.796875 42.078125 
C 21.703125 42.984375 23.703125 42.984375 25.796875 42.78125 
C 28.796875 42.78125 31.703125 41.984375 33.59375 39.453125 
C 35.40625 37.140625 35.5 34.140625 35.5 31.3125 
L 35.5 0 
L 41.90625 0 
L 41.90625 27.21875 
C 41.90625 32.234375 42.40625 37.75 39.90625 42.28125 
C 37.90625 45.6875 34.40625 47.296875 30.703125 47.796875 
C 28.703125 48 26.703125 48 24.703125 47.703125 
C 21.09375 47.015625 18 45.03125 15.59375 42.34375 
C 14.5 41.046875 13.203125 39.46875 12.796875 37.765625 
L 12.703125 37.765625 
L 12.703125 69.6875 
z
" id="Computer_Modern_Bright-104"/>
      <path d="M 0.703125 47.5 
C 0.90625 46.203125 14.40625 0.90625 14.40625 0.90625 
C 14.703125 0 15.203125 0 16.5 0 
L 19.59375 0 
C 20.09375 0 20.796875 -0.09375 21.09375 0.296875 
C 21.40625 0.609375 22.296875 3.8125 22.296875 3.8125 
C 25.296875 14.625 30.5 30.96875 32.5 41.09375 
L 32.59375 41.09375 
C 32.59375 39.6875 33.09375 38.28125 33.40625 36.890625 
C 35 29.765625 43.5 1 43.90625 0.296875 
C 44.203125 -0.203125 45 0 45.5 0 
L 49.296875 0 
C 49.796875 0 50.5 -0.09375 50.90625 0.109375 
C 51.203125 0.296875 51.296875 0.703125 51.40625 1 
C 54.40625 11.640625 64.703125 45.203125 65.09375 47.5 
C 63 47.5 60.90625 47.5 59.09375 47.203125 
L 58.703125 46.1875 
C 54.90625 33 50.796875 20.203125 47.40625 6.609375 
L 47.296875 6.609375 
L 46.203125 11.21875 
L 35.703125 47.5 
L 29.796875 47.5 
C 26 33.875 21.59375 20.84375 18.40625 6.609375 
L 16.703125 13.609375 
C 13.40625 24.8125 10.296875 36.203125 6.90625 47.203125 
C 5.09375 47.5 2.796875 47.5 0.703125 47.5 
" id="Computer_Modern_Bright-119"/>
      <path d="M 0.703125 47.65625 
C 1.296875 45.75 5.40625 35.609375 5.5 35.3125 
L 17.40625 4.578125 
L 18.40625 2.078125 
C 19 0.671875 19.203125 0.46875 18.59375 -1.140625 
L 17.5 -4.046875 
C 16.59375 -6.46875 15.59375 -8.96875 13.703125 -10.484375 
C 10.296875 -13.296875 4.90625 -11.6875 0.796875 -10.78125 
L 1.296875 -16.5 
C 3.203125 -16.796875 5.09375 -17 7 -17 
C 11.296875 -17.515625 14.09375 -16.5 16.703125 -14.296875 
C 20 -11.484375 21.59375 -7.5625 23.09375 -3.546875 
L 26.203125 5.078125 
L 36.40625 32.90625 
C 38.09375 37.921875 40.203125 42.640625 41.796875 47.65625 
L 37.296875 47.65625 
C 36.796875 47.65625 36 47.859375 35.59375 47.46875 
C 35.40625 47.15625 35.296875 46.765625 35.203125 46.453125 
L 34.40625 44.34375 
C 33.40625 41.734375 32.5 39.234375 31.59375 36.609375 
L 25.796875 20.25 
C 24.296875 15.828125 22.59375 11.3125 21.796875 6.6875 
C 20.703125 11.3125 19.203125 15.734375 17.59375 20.140625 
C 16.296875 23.5625 8.5 44.546875 7.5 46.5625 
C 7.09375 47.65625 6.703125 47.65625 5.203125 47.65625 
z
" id="Computer_Modern_Bright-121"/>
     </defs>
     <g style="fill:#262626;" transform="translate(363.38954 29.6)scale(0.14 -0.14)">
      <use transform="scale(0.996264)" xlink:href="#Computer_Modern_Bright-85"/>
      <use transform="translate(65.587132 0)scale(0.996264)" xlink:href="#Computer_Modern_Bright-110"/>
      <use transform="translate(113.739629 0)scale(0.996264)" xlink:href="#Computer_Modern_Bright-98"/>
      <use transform="translate(158.986397 0)scale(0.996264)" xlink:href="#Computer_Modern_Bright-114"/>
      <use transform="translate(190.949756 0)scale(0.996264)" xlink:href="#Computer_Modern_Bright-97"/>
      <use transform="translate(237.441838 0)scale(0.996264)" xlink:href="#Computer_Modern_Bright-110"/>
      <use transform="translate(285.594335 0)scale(0.996264)" xlink:href="#Computer_Modern_Bright-99"/>
      <use transform="translate(330.426003 0)scale(0.996264)" xlink:href="#Computer_Modern_Bright-104"/>
      <use transform="translate(378.5785 0)scale(0.996264)" xlink:href="#Computer_Modern_Bright-101"/>
      <use transform="translate(423.410167 0)scale(0.996264)" xlink:href="#Computer_Modern_Bright-100"/>
      <use transform="translate(503.027876 0)scale(0.996264)" xlink:href="#Computer_Modern_Bright-80"/>
      <use transform="translate(563.011054 0)scale(0.996264)" xlink:href="#Computer_Modern_Bright-97"/>
      <use transform="translate(609.503136 0)scale(0.996264)" xlink:href="#Computer_Modern_Bright-116"/>
      <use transform="translate(645.617524 0)scale(0.996264)" xlink:href="#Computer_Modern_Bright-104"/>
      <use transform="translate(693.770021 0)scale(0.996264)" xlink:href="#Computer_Modern_Bright-119"/>
      <use transform="translate(756.451332 0)scale(0.996264)" xlink:href="#Computer_Modern_Bright-97"/>
      <use transform="translate(800.037685 0)scale(0.996264)" xlink:href="#Computer_Modern_Bright-121"/>
     </g>
    </g>
    <g id="line2d_20">
     <path d="M 324.18954 43.824611 
L 352.18954 43.824611 
" style="fill:none;stroke:#33a02c;stroke-linecap:round;stroke-width:2.3;"/>
    </g>
    <g id="line2d_21"/>
    <g id="text_19">
     <!-- fit -->
     <defs>
      <path d="M 10.59375 47.015625 
L 2 47.015625 
L 2 42 
L 10.59375 42 
L 10.59375 0 
L 16.90625 0 
L 16.90625 42 
L 30.09375 42 
L 30.09375 47.015625 
L 16.796875 47.015625 
L 16.796875 55.203125 
C 16.796875 59.25 16.40625 61.421875 18.90625 63.703125 
C 21.90625 65.96875 25.703125 65.96875 30.09375 64.078125 
L 30.09375 69.90625 
C 27.703125 70.3125 25.203125 70.703125 22.703125 70.515625 
C 20 70.3125 17.09375 68.96875 15.5 67.328125 
C 12.796875 65.15625 11 60.9375 10.59375 57.03125 
C 10.5 55.671875 10.59375 54.4375 10.59375 53.109375 
z
M 38.09375 70 
L 38.09375 63.671875 
L 44.40625 63.671875 
L 44.40625 70 
z
M 38.09375 47.390625 
L 38.09375 0 
L 44.40625 0 
L 44.40625 47.390625 
z
" id="Computer_Modern_Bright-12"/>
     </defs>
     <g style="fill:#262626;" transform="translate(363.38954 48.724611)scale(0.14 -0.14)">
      <use transform="scale(0.996264)" xlink:href="#Computer_Modern_Bright-12"/>
      <use transform="translate(50.643218 0)scale(0.996264)" xlink:href="#Computer_Modern_Bright-116"/>
     </g>
    </g>
    <g id="PathCollection_2">
     <defs>
      <path d="M 0 3.906718 
C 1.036074 3.906718 2.029852 3.495081 2.762467 2.762467 
C 3.495081 2.029852 3.906718 1.036074 3.906718 0 
C 3.906718 -1.036074 3.495081 -2.029852 2.762467 -2.762467 
C 2.029852 -3.495081 1.036074 -3.906718 0 -3.906718 
C -1.036074 -3.906718 -2.029852 -3.495081 -2.762467 -2.762467 
C -3.495081 -2.029852 -3.906718 -1.036074 -3.906718 0 
C -3.906718 1.036074 -3.495081 2.029852 -2.762467 2.762467 
C -2.029852 3.495081 -1.036074 3.906718 0 3.906718 
z
" id="mc95321e5ec" style="stroke:#33a02c;stroke-opacity:0.9;stroke-width:0.3;"/>
     </defs>
     <g>
      <use style="fill:#33a02c;fill-opacity:0.9;stroke:#33a02c;stroke-opacity:0.9;stroke-width:0.3;" x="338.18954" xlink:href="#mc95321e5ec" y="64.174222"/>
     </g>
    </g>
    <g id="text_20">
     <!-- b -->
     <g style="fill:#262626;" transform="translate(363.38954 67.849222)scale(0.14 -0.14)">
      <use transform="scale(0.996264)" xlink:href="#Computer_Modern_Bright-98"/>
     </g>
    </g>
   </g>
  </g>
 </g>
 <defs>
  <clipPath id="pb5bd82830f">
   <rect height="298.98" width="446.4" x="54.408609" y="7.2"/>
  </clipPath>
 </defs>
</svg>
