<?xml version="1.0" encoding="utf-8" standalone="no"?>
<!DOCTYPE svg PUBLIC "-//W3C//DTD SVG 1.1//EN"
  "http://www.w3.org/Graphics/SVG/1.1/DTD/svg11.dtd">
<!-- Created with matplotlib (http://matplotlib.org/) -->
<svg height="349pt" version="1.1" viewBox="0 0 500 349" width="500pt" xmlns="http://www.w3.org/2000/svg" xmlns:xlink="http://www.w3.org/1999/xlink">
 <defs>
  <style type="text/css">
*{stroke-linecap:butt;stroke-linejoin:round;}
  </style>
 </defs>
 <g id="figure_1">
  <g id="patch_1">
   <path d="M 0 349.177041 
L 500.471443 349.177041 
L 500.471443 -0 
L 0 -0 
z
" style="fill:#ffffff;"/>
  </g>
  <g id="axes_1">
   <g id="patch_2">
    <path d="M 46.871443 306.18 
L 493.271443 306.18 
L 493.271443 7.2 
L 46.871443 7.2 
z
" style="fill:#eaeaf2;"/>
   </g>
   <g id="matplotlib.axis_1">
    <g id="xtick_1">
     <g id="line2d_1"/>
     <g id="text_1">
      <!-- $-2$ -->
      <defs>
       <path d="M 65.90625 23 
C 67.59375 23 69.40625 23 69.40625 25 
C 69.40625 27 67.59375 27 65.90625 27 
L 11.796875 27 
C 10.09375 27 8.296875 27 8.296875 25 
C 8.296875 23 10.09375 23 11.796875 23 
z
" id="CMSY10-0"/>
       <path d="M 41.703125 15.453125 
L 39.90625 15.453125 
C 38.90625 8.375 38.09375 7.171875 37.703125 6.5625 
C 37.203125 5.765625 30 5.765625 28.59375 5.765625 
L 9.40625 5.765625 
C 13 9.671875 20 16.75 28.5 24.953125 
C 34.59375 30.734375 41.703125 37.53125 41.703125 47.421875 
C 41.703125 59.21875 32.296875 66 21.796875 66 
C 10.796875 66 4.09375 56.3125 4.09375 47.34375 
C 4.09375 43.4375 7 42.9375 8.203125 42.9375 
C 9.203125 42.9375 12.203125 43.546875 12.203125 47.03125 
C 12.203125 50.109375 9.59375 51 8.203125 51 
C 7.59375 51 7 50.90625 6.59375 50.703125 
C 8.5 59.21875 14.296875 63.40625 20.40625 63.40625 
C 29.09375 63.40625 34.796875 56.515625 34.796875 47.421875 
C 34.796875 38.734375 29.703125 31.25 24 24.75 
L 4.09375 2.28125 
L 4.09375 0 
L 39.296875 0 
z
" id="CMR17-50"/>
      </defs>
      <g style="fill:#262626;" transform="translate(57.588833 320.098498)scale(0.1 -0.1)">
       <use transform="scale(0.996264)" xlink:href="#CMSY10-0"/>
       <use transform="translate(77.487468 0)scale(0.996264)" xlink:href="#CMR17-50"/>
      </g>
     </g>
    </g>
    <g id="xtick_2">
     <g id="line2d_2"/>
     <g id="text_2">
      <!-- $0$ -->
      <defs>
       <path d="M 42 31.640625 
C 42 37.75 41.90625 48.125 37.703125 56.109375 
C 34 63.109375 28.09375 65.59375 22.90625 65.59375 
C 18.09375 65.59375 12 63.40625 8.203125 56.203125 
C 4.203125 48.71875 3.796875 39.4375 3.796875 31.640625 
C 3.796875 25.953125 3.90625 17.28125 7 9.671875 
C 11.296875 -0.609375 19 -2 22.90625 -2 
C 27.5 -2 34.5 -0.109375 38.59375 9.375 
C 41.59375 16.28125 42 24.359375 42 31.640625 
M 22.90625 -0.40625 
C 16.5 -0.40625 12.703125 5.078125 11.296875 12.6875 
C 10.203125 18.5625 10.203125 27.15625 10.203125 32.75 
C 10.203125 40.4375 10.203125 46.828125 11.5 52.921875 
C 13.40625 61.390625 19 64 22.90625 64 
C 27 64 32.296875 61.296875 34.203125 53.125 
C 35.5 47.4375 35.59375 40.734375 35.59375 32.75 
C 35.59375 26.25 35.59375 18.265625 34.40625 12.375 
C 32.296875 1.484375 26.40625 -0.40625 22.90625 -0.40625 
" id="CMR17-48"/>
      </defs>
      <g style="fill:#262626;" transform="translate(131.073976 320.098498)scale(0.1 -0.1)">
       <use transform="scale(0.996264)" xlink:href="#CMR17-48"/>
      </g>
     </g>
    </g>
    <g id="xtick_3">
     <g id="line2d_3"/>
     <g id="text_3">
      <!-- $2$ -->
      <g style="fill:#262626;" transform="translate(200.684748 320.098498)scale(0.1 -0.1)">
       <use transform="scale(0.996264)" xlink:href="#CMR17-50"/>
      </g>
     </g>
    </g>
    <g id="xtick_4">
     <g id="line2d_4"/>
     <g id="text_4">
      <!-- $4$ -->
      <defs>
       <path d="M 33.59375 64.40625 
C 33.59375 66.5 33.5 66.5 31.703125 66.5 
L 2 19.59375 
L 2 17 
L 27.796875 17 
L 27.796875 7.140625 
C 27.796875 3.5 27.59375 2.5 20.59375 2.5 
L 18.703125 2.5 
L 18.703125 0 
C 21.90625 0 27.296875 0 30.703125 0 
C 34.09375 0 39.5 0 42.703125 0 
L 42.703125 2.5 
L 40.796875 2.5 
C 33.796875 2.5 33.59375 3.5 33.59375 7.140625 
L 33.59375 17 
L 43.796875 17 
L 43.796875 19.59375 
L 33.59375 19.59375 
z
M 28.09375 57.859375 
L 28.09375 19.59375 
L 4 19.59375 
z
" id="CMR17-52"/>
      </defs>
      <g style="fill:#262626;" transform="translate(270.29552 320.098498)scale(0.1 -0.1)">
       <use transform="scale(0.996264)" xlink:href="#CMR17-52"/>
      </g>
     </g>
    </g>
    <g id="xtick_5">
     <g id="line2d_5"/>
     <g id="text_5">
      <!-- $6$ -->
      <defs>
       <path d="M 10.59375 34 
C 10.59375 57.65625 21.796875 63 28.296875 63 
C 30.40625 63 35.5 62.640625 37.5 59 
C 35.90625 59 32.90625 59 32.90625 55.515625 
C 32.90625 52.828125 35.09375 51.921875 36.5 51.921875 
C 37.40625 51.921875 40.09375 52.3125 40.09375 55.625 
C 40.09375 61.78125 35.09375 65.296875 28.203125 65.296875 
C 16.296875 65.296875 3.796875 52.96875 3.796875 31 
C 3.796875 3.953125 15.09375 -2 23.09375 -2 
C 32.796875 -2 42 6.671875 42 20.046875 
C 42 32.515625 33.90625 41.59375 23.703125 41.59375 
C 17.59375 41.59375 13.09375 37.609375 10.59375 30.625 
z
M 23.09375 0.390625 
C 10.796875 0.390625 10.796875 18.75 10.796875 22.4375 
C 10.796875 29.625 14.203125 40 23.5 40 
C 25.203125 40 30.09375 40 33.40625 33.125 
C 35.203125 29.21875 35.203125 25.140625 35.203125 20.140625 
C 35.203125 14.75 35.203125 10.78125 33.09375 6.78125 
C 30.90625 2.671875 27.703125 0.390625 23.09375 0.390625 
" id="CMR17-54"/>
      </defs>
      <g style="fill:#262626;" transform="translate(339.906291 320.098498)scale(0.1 -0.1)">
       <use transform="scale(0.996264)" xlink:href="#CMR17-54"/>
      </g>
     </g>
    </g>
    <g id="xtick_6">
     <g id="line2d_6"/>
     <g id="text_6">
      <!-- $8$ -->
      <defs>
       <path d="M 27.203125 35.375 
C 33.5 38.546875 39.90625 43.328125 39.90625 50.984375 
C 39.90625 60.015625 31.09375 65.296875 23 65.296875 
C 13.90625 65.296875 5.90625 58.734375 5.90625 49.6875 
C 5.90625 47.203125 6.5 42.921875 10.40625 39.140625 
C 11.40625 38.15625 15.59375 35.171875 18.296875 33.28125 
C 13.796875 30.984375 3.296875 25.53125 3.296875 14.59375 
C 3.296875 4.359375 13.09375 -2 22.796875 -2 
C 33.5 -2 42.5 5.65625 42.5 15.78125 
C 42.5 24.84375 36.40625 29.015625 32.40625 31.703125 
z
M 14.09375 44.09375 
C 13.296875 44.59375 9.296875 47.671875 9.296875 52.359375 
C 9.296875 58.421875 15.59375 63 22.796875 63 
C 30.703125 63 36.5 57.4375 36.5 50.96875 
C 36.5 41.703125 26.09375 36.421875 25.59375 36.421875 
C 25.5 36.421875 25.40625 36.421875 24.59375 37.03125 
z
M 32.5 23.734375 
C 34 22.640625 38.796875 19.375 38.796875 13.296875 
C 38.796875 5.953125 31.40625 0.390625 23 0.390625 
C 13.90625 0.390625 7 6.84375 7 14.6875 
C 7 22.546875 13.09375 29.09375 20 32.1875 
z
" id="CMR17-56"/>
      </defs>
      <g style="fill:#262626;" transform="translate(409.517063 320.098498)scale(0.1 -0.1)">
       <use transform="scale(0.996264)" xlink:href="#CMR17-56"/>
      </g>
     </g>
    </g>
    <g id="xtick_7">
     <g id="line2d_7"/>
     <g id="text_7">
      <!-- $10$ -->
      <defs>
       <path d="M 26.59375 63.40625 
C 26.59375 65.5 26.5 65.5 25.09375 65.5 
C 21.203125 61.1875 15.296875 59.796875 9.703125 59.796875 
C 9.40625 59.796875 8.90625 59.796875 8.796875 59.5 
C 8.703125 59.296875 8.703125 59.09375 8.703125 57 
C 11.796875 57 17 57.59375 21 59.984375 
L 21 7.203125 
C 21 3.6875 20.796875 2.5 12.203125 2.5 
L 9.203125 2.5 
L 9.203125 0 
C 14 0 19 0 23.796875 0 
C 28.59375 0 33.59375 0 38.40625 0 
L 38.40625 2.5 
L 35.40625 2.5 
C 26.796875 2.5 26.59375 3.59375 26.59375 7.15625 
z
" id="CMR17-49"/>
      </defs>
      <g style="fill:#262626;" transform="translate(476.637167 320.098498)scale(0.1 -0.1)">
       <use transform="scale(0.996264)" xlink:href="#CMR17-49"/>
       <use transform="translate(45.690477 0)scale(0.996264)" xlink:href="#CMR17-48"/>
      </g>
     </g>
    </g>
    <g id="text_8">
     <!-- Predicted Additive Effect -->
     <defs>
      <path d="M 32.90625 29 
C 44.90625 29 54.703125 38.328125 54.703125 49.34375 
C 54.703125 60.15625 45.296875 69.578125 32.296875 69.578125 
L 8.90625 69.578125 
L 8.90625 0 
L 17.296875 0 
L 17.296875 29 
z
M 30.09375 64 
C 41.703125 64 46.796875 56.671875 46.796875 49.328125 
C 46.796875 42.5 42.09375 34.78125 30.09375 34.78125 
L 17.09375 34.78125 
L 17.09375 64 
z
" id="CMSS17-80"/>
      <path d="M 14.90625 21.296875 
C 14.90625 30.703125 21.796875 37 30.59375 37 
L 30.59375 43.578125 
C 24.203125 43.578125 18.203125 40.390625 14.59375 35.203125 
L 14.59375 43.09375 
L 7.5 43.09375 
L 7.5 0 
L 14.90625 0 
z
" id="CMSS17-114"/>
      <path d="M 39.09375 21.515625 
C 39.09375 24.84375 38.90625 31.296875 35.703125 36.640625 
C 32.203125 42.390625 26.5 44 22.203125 44 
C 11.796875 44 3 34.1875 3 21.484375 
C 3 9.09375 12.09375 -1 23.59375 -1 
C 28.09375 -1 33.59375 0.296875 38.59375 3.875 
C 38.59375 4.28125 38.40625 6.46875 38.296875 6.5625 
C 38.296875 6.765625 38 9.84375 38 10.25 
C 33.203125 6.359375 27.703125 5.078125 23.703125 5.078125 
C 17.296875 5.078125 10.40625 10.421875 10.09375 21.515625 
z
M 10.90625 27 
C 12.203125 32.5625 16.59375 37.828125 22.203125 37.828125 
C 23.703125 37.828125 30.703125 37.828125 32.5 27 
z
" id="CMSS17-101"/>
      <path d="M 40.796875 69 
L 33.40625 69 
L 33.40625 38.09375 
C 30.296875 40.671875 25.203125 43.0625 19.59375 43.0625 
C 10.5 43.0625 3.296875 33.296875 3.296875 21.046875 
C 3.296875 8.78125 10.40625 -1 19.296875 -1 
C 26.203125 -1 30.796875 2.6875 33.203125 4.78125 
L 33.203125 -0.203125 
L 40.796875 -0.203125 
z
M 33.203125 13.0625 
C 33.203125 11.671875 33.203125 10.203125 30.09375 7.53125 
C 28.09375 5.859375 25.703125 5.078125 23.40625 5.078125 
C 18 5.078125 10.90625 9 10.90625 20.9375 
C 10.90625 33.34375 18.90625 37 24.40625 37 
C 28.09375 37 31.09375 35.21875 33.203125 32.265625 
z
" id="CMSS17-100"/>
      <path d="M 15.296875 65.359375 
L 6.90625 65.359375 
L 6.90625 57 
L 15.296875 57 
z
M 14.796875 42.796875 
L 7.40625 42.796875 
L 7.40625 0 
L 14.796875 0 
z
" id="CMSS17-105"/>
      <path d="M 38.5 39.703125 
C 38.5 40.390625 33.90625 42.40625 32.703125 42.796875 
C 29.40625 44 25.203125 44 24.09375 44 
C 11.09375 44 3.296875 32.703125 3.296875 21.296875 
C 3.296875 9.296875 12 -1 23.703125 -1 
C 30.40625 -1 35.203125 1.1875 39.09375 3.78125 
L 38.5 10.375 
C 34.203125 7.078125 29.203125 5.265625 23.796875 5.265625 
C 16 5.265625 10.90625 12.09375 10.90625 21.390625 
C 10.90625 28.609375 14.203125 37.71875 24.203125 37.71875 
C 29.703125 37.71875 32.796875 36.609375 37.40625 33.515625 
z
" id="CMSS17-99"/>
      <path d="M 16.703125 37 
L 29.703125 37 
L 29.703125 42.765625 
L 16.703125 42.765625 
L 16.703125 55 
L 9.59375 55 
L 9.59375 42.765625 
L 1.703125 42.765625 
L 1.703125 37 
L 9.40625 37 
L 9.40625 11.703125 
C 9.40625 6 10.703125 -1 17.296875 -1 
C 22.296875 -1 26.90625 0.390625 31.296875 2.6875 
L 29.703125 8.5625 
C 27.296875 6.46875 24.40625 5.265625 21.296875 5.265625 
C 16.90625 5.265625 16.703125 10.875 16.703125 13.375 
z
" id="CMSS17-116"/>
      <path d="M 35.5 69 
L 26.90625 69 
L 2.59375 0 
L 10.203125 0 
L 17.203125 20 
L 44 20 
L 51.09375 0 
L 59.796875 0 
z
M 42.09375 25.578125 
L 19.09375 25.578125 
C 23.90625 39.5 29.90625 56.84375 30.59375 61.328125 
L 30.703125 61.328125 
C 31.40625 57.234375 33.40625 51.265625 35.09375 46.1875 
z
" id="CMSS17-65"/>
      <path d="M 41.796875 43 
L 34 43 
L 27.296875 24.3125 
C 25.203125 18.203125 22.203125 9.796875 21.703125 5.5 
L 21.59375 5.5 
C 21.40625 7.3125 20.59375 9.90625 20.09375 11.703125 
C 19.5 13.90625 18.703125 16.5 18.09375 18.3125 
L 9.296875 43 
L 1.296875 43 
L 17.09375 0 
L 26 0 
z
" id="CMSS17-118"/>
      <path d="M 30.59375 6.765625 
C 22.59375 6.765625 19 6.765625 17.203125 6.765625 
L 17.203125 32.921875 
L 48.203125 32.921875 
L 48.203125 39 
L 17.203125 39 
L 17.203125 62.640625 
L 30.09375 62.640625 
C 31.296875 62.640625 32.5 62.640625 33.703125 62.640625 
L 50.796875 62.640625 
L 50.796875 69 
L 8.796875 69 
L 8.796875 0 
L 52.09375 0 
L 52.09375 6.765625 
z
" id="CMSS17-69"/>
      <path d="M 16.796875 37 
L 27.09375 37 
L 27.09375 42.765625 
L 16.59375 42.765625 
L 16.59375 55.609375 
C 16.59375 62.515625 21.796875 63.9375 25.203125 63.9375 
C 28.703125 63.9375 31.59375 63.03125 32.703125 62.640625 
L 32.703125 69.203125 
C 31.59375 69.40625 28.59375 70 25.296875 70 
C 16.09375 70 9.40625 62.484375 9.40625 52.484375 
L 9.40625 42.765625 
L 2.5 42.765625 
L 2.5 37 
L 9.40625 37 
L 9.40625 0 
L 16.796875 0 
z
M 42.796875 37 
L 53.09375 37 
L 53.09375 42.765625 
L 42.59375 42.765625 
L 42.59375 55.609375 
C 42.59375 62.515625 47.796875 63.9375 51.203125 63.9375 
C 54.703125 63.9375 57.59375 63.03125 58.703125 62.640625 
L 58.703125 69.203125 
C 57.59375 69.40625 54.59375 70 51.296875 70 
C 42.09375 70 35.40625 62.515625 35.40625 52.546875 
L 35.40625 0 
L 42.796875 0 
z
" id="CMSS17-11"/>
     </defs>
     <g style="fill:#262626;" transform="translate(181.821631 338.488977)scale(0.18 -0.18)">
      <use transform="scale(0.996264)" xlink:href="#CMSS17-80"/>
      <use transform="translate(59.735586 0)scale(0.996264)" xlink:href="#CMSS17-114"/>
      <use transform="translate(91.645359 0)scale(0.996264)" xlink:href="#CMSS17-101"/>
      <use transform="translate(133.284181 0)scale(0.996264)" xlink:href="#CMSS17-100"/>
      <use transform="translate(181.489124 0)scale(0.996264)" xlink:href="#CMSS17-105"/>
      <use transform="translate(203.669847 0)scale(0.996264)" xlink:href="#CMSS17-99"/>
      <use transform="translate(245.308669 0)scale(0.996264)" xlink:href="#CMSS17-116"/>
      <use transform="translate(279.140236 0)scale(0.996264)" xlink:href="#CMSS17-101"/>
      <use transform="translate(320.779058 0)scale(0.996264)" xlink:href="#CMSS17-100"/>
      <use transform="translate(400.213114 0)scale(0.996264)" xlink:href="#CMSS17-65"/>
      <use transform="translate(462.430969 0)scale(0.996264)" xlink:href="#CMSS17-100"/>
      <use transform="translate(510.635912 0)scale(0.996264)" xlink:href="#CMSS17-100"/>
      <use transform="translate(558.840855 0)scale(0.996264)" xlink:href="#CMSS17-105"/>
      <use transform="translate(581.021578 0)scale(0.996264)" xlink:href="#CMSS17-116"/>
      <use transform="translate(614.853145 0)scale(0.996264)" xlink:href="#CMSS17-105"/>
      <use transform="translate(637.033868 0)scale(0.996264)" xlink:href="#CMSS17-118"/>
      <use transform="translate(680.034009 0)scale(0.996264)" xlink:href="#CMSS17-101"/>
      <use transform="translate(752.901944 0)scale(0.996264)" xlink:href="#CMSS17-69"/>
      <use transform="translate(808.793957 0)scale(0.996264)" xlink:href="#CMSS17-11"/>
      <use transform="translate(863.444928 0)scale(0.996264)" xlink:href="#CMSS17-101"/>
      <use transform="translate(905.08375 0)scale(0.996264)" xlink:href="#CMSS17-99"/>
      <use transform="translate(946.722572 0)scale(0.996264)" xlink:href="#CMSS17-116"/>
     </g>
    </g>
   </g>
   <g id="matplotlib.axis_2">
    <g id="ytick_1">
     <g id="line2d_8"/>
     <g id="text_9">
      <!-- $-6$ -->
      <g style="fill:#262626;" transform="translate(27.141364 250.678124)scale(0.1 -0.1)">
       <use transform="scale(0.996264)" xlink:href="#CMSY10-0"/>
       <use transform="translate(77.487468 0)scale(0.996264)" xlink:href="#CMR17-54"/>
      </g>
     </g>
    </g>
    <g id="ytick_2">
     <g id="line2d_9"/>
     <g id="text_10">
      <!-- $-4$ -->
      <g style="fill:#262626;" transform="translate(27.141364 190.026322)scale(0.1 -0.1)">
       <use transform="scale(0.996264)" xlink:href="#CMSY10-0"/>
       <use transform="translate(77.487468 0)scale(0.996264)" xlink:href="#CMR17-52"/>
      </g>
     </g>
    </g>
    <g id="ytick_3">
     <g id="line2d_10"/>
     <g id="text_11">
      <!-- $-2$ -->
      <g style="fill:#262626;" transform="translate(27.141364 129.374521)scale(0.1 -0.1)">
       <use transform="scale(0.996264)" xlink:href="#CMSY10-0"/>
       <use transform="translate(77.487468 0)scale(0.996264)" xlink:href="#CMR17-50"/>
      </g>
     </g>
    </g>
    <g id="ytick_4">
     <g id="line2d_11"/>
     <g id="text_12">
      <!-- $0$ -->
      <g style="fill:#262626;" transform="translate(34.890108 68.722719)scale(0.1 -0.1)">
       <use transform="scale(0.996264)" xlink:href="#CMR17-48"/>
      </g>
     </g>
    </g>
    <g id="text_13">
     <!-- Deviation from Additive Effect -->
     <defs>
      <path d="M 8.90625 69 
L 8.90625 0 
L 33.5 0 
C 49.90625 0 62.5 15.3125 62.5 33.90625 
C 62.5 53.09375 49.90625 69 33.5 69 
z
M 17.09375 5.578125 
L 17.09375 63.421875 
L 31.296875 63.421875 
C 44.703125 63.421875 54.296875 51.203125 54.296875 33.90625 
C 54.296875 17.296875 44.796875 5.578125 31.296875 5.578125 
z
" id="CMSS17-68"/>
      <path d="M 37.59375 27.984375 
C 37.59375 37.375 30.90625 43.875 21.90625 43.875 
C 17.5 43.875 12.703125 43.078125 7.203125 39.890625 
L 7.796875 33.359375 
C 10.296875 35.125 14.59375 38 21.796875 38 
C 26.90625 38 30 34.0625 30 27.84375 
L 30 24 
C 14 24 4 19.34375 4 11.34375 
C 4 7.203125 6.5 -1 14.796875 -1 
C 16.296875 -1 24.40625 -1 30.203125 3.390625 
L 30.203125 -0.296875 
L 37.59375 -0.296875 
z
M 30 12.75 
C 30 10.953125 30 8.5625 27 6.78125 
C 24.40625 5.078125 21.09375 5.078125 19.703125 5.078125 
C 14.703125 5.078125 11.296875 7.984375 11.296875 11.625 
C 11.296875 18.921875 26.90625 18.921875 30 18.921875 
z
" id="CMSS17-97"/>
      <path d="M 44.203125 21.1875 
C 44.203125 34 34.703125 44 23.5 44 
C 12 44 2.703125 33.703125 2.703125 21.1875 
C 2.703125 8.5 12.296875 -1 23.40625 -1 
C 34.796875 -1 44.203125 8.796875 44.203125 21.1875 
M 23.5 5.265625 
C 16.40625 5.265625 10.296875 11.078125 10.296875 22 
C 10.296875 33.609375 17.40625 37.921875 23.40625 37.921875 
C 29.90625 37.921875 36.59375 33.21875 36.59375 22 
C 36.59375 10.671875 30.09375 5.265625 23.5 5.265625 
" id="CMSS17-111"/>
      <path d="M 40.90625 29.328125 
C 40.90625 35.671875 39.40625 44 28.09375 44 
C 21.703125 44 17.5 40.71875 14.703125 37.328125 
L 14.703125 43.09375 
L 7.40625 43.09375 
L 7.40625 0 
L 15 0 
L 15 24.359375 
C 15 30.6875 17.40625 37.9375 24.203125 37.9375 
C 33 37.9375 33.296875 32 33.296875 28.578125 
L 33.296875 0 
L 40.90625 0 
z
" id="CMSS17-110"/>
      <path d="M 16.796875 37 
L 26.90625 37 
L 26.90625 42.765625 
L 16.59375 42.765625 
L 16.59375 55.609375 
C 16.59375 62.71875 22 63.9375 25.09375 63.9375 
C 26.09375 63.9375 28.90625 63.9375 32.5 62.640625 
L 32.5 69.203125 
C 30.203125 69.703125 27.40625 70 25.203125 70 
C 15.90625 70 9.40625 62.390625 9.40625 52.484375 
L 9.40625 42.765625 
L 2.5 42.765625 
L 2.5 37 
L 9.40625 37 
L 9.40625 0 
L 16.796875 0 
z
" id="CMSS17-102"/>
      <path d="M 67 29.328125 
C 67 36.0625 65.296875 44 54.09375 44 
C 46.59375 44 42.09375 39.3125 40.09375 36.421875 
C 38.296875 41.71875 34.09375 44 28.09375 44 
C 21.296875 44 17 40.125 14.703125 37.328125 
L 14.703125 43.09375 
L 7.40625 43.09375 
L 7.40625 0 
L 15 0 
L 15 24.359375 
C 15 30.296875 17.203125 37.9375 24.296875 37.9375 
C 33.40625 37.9375 33.40625 31.5 33.40625 28.578125 
L 33.40625 0 
L 41 0 
L 41 24.359375 
C 41 30.296875 43.203125 37.9375 50.296875 37.9375 
C 59.40625 37.9375 59.40625 31.5 59.40625 28.578125 
L 59.40625 0 
L 67 0 
z
" id="CMSS17-109"/>
     </defs>
     <g style="fill:#262626;" transform="translate(19.6533 264.217771)rotate(-90)scale(0.18 -0.18)">
      <use transform="scale(0.996264)" xlink:href="#CMSS17-68"/>
      <use transform="translate(67.542842 0)scale(0.996264)" xlink:href="#CMSS17-101"/>
      <use transform="translate(109.181664 0)scale(0.996264)" xlink:href="#CMSS17-118"/>
      <use transform="translate(152.181805 0)scale(0.996264)" xlink:href="#CMSS17-105"/>
      <use transform="translate(174.362528 0)scale(0.996264)" xlink:href="#CMSS17-97"/>
      <use transform="translate(219.284449 0)scale(0.996264)" xlink:href="#CMSS17-116"/>
      <use transform="translate(253.116016 0)scale(0.996264)" xlink:href="#CMSS17-105"/>
      <use transform="translate(275.296739 0)scale(0.996264)" xlink:href="#CMSS17-111"/>
      <use transform="translate(322.140362 0)scale(0.996264)" xlink:href="#CMSS17-110"/>
      <use transform="translate(401.574418 0)scale(0.996264)" xlink:href="#CMSS17-102"/>
      <use transform="translate(430.201077 0)scale(0.996264)" xlink:href="#CMSS17-114"/>
      <use transform="translate(462.11085 0)scale(0.996264)" xlink:href="#CMSS17-111"/>
      <use transform="translate(508.954473 0)scale(0.996264)" xlink:href="#CMSS17-109"/>
      <use transform="translate(614.41284 0)scale(0.996264)" xlink:href="#CMSS17-65"/>
      <use transform="translate(676.630695 0)scale(0.996264)" xlink:href="#CMSS17-100"/>
      <use transform="translate(724.835638 0)scale(0.996264)" xlink:href="#CMSS17-100"/>
      <use transform="translate(773.040581 0)scale(0.996264)" xlink:href="#CMSS17-105"/>
      <use transform="translate(795.221305 0)scale(0.996264)" xlink:href="#CMSS17-116"/>
      <use transform="translate(829.052871 0)scale(0.996264)" xlink:href="#CMSS17-105"/>
      <use transform="translate(851.233594 0)scale(0.996264)" xlink:href="#CMSS17-118"/>
      <use transform="translate(894.233736 0)scale(0.996264)" xlink:href="#CMSS17-101"/>
      <use transform="translate(967.101671 0)scale(0.996264)" xlink:href="#CMSS17-69"/>
      <use transform="translate(1022.993684 0)scale(0.996264)" xlink:href="#CMSS17-11"/>
      <use transform="translate(1077.644654 0)scale(0.996264)" xlink:href="#CMSS17-101"/>
      <use transform="translate(1119.283476 0)scale(0.996264)" xlink:href="#CMSS17-99"/>
      <use transform="translate(1160.922298 0)scale(0.996264)" xlink:href="#CMSS17-116"/>
     </g>
    </g>
   </g>
   <g id="PathCollection_1">
    <path clip-path="url(#p988b9bf7e7)" d="M 133.326193 99.478587 
C 133.996053 99.478587 134.638567 99.212449 135.112229 98.738786 
C 135.585891 98.265124 135.852029 97.62261 135.852029 96.95275 
C 135.852029 96.282891 135.585891 95.640376 135.112229 95.166714 
C 134.638567 94.693052 133.996053 94.426914 133.326193 94.426914 
C 132.656333 94.426914 132.013819 94.693052 131.540157 95.166714 
C 131.066495 95.640376 130.800357 96.282891 130.800357 96.95275 
C 130.800357 97.62261 131.066495 98.265124 131.540157 98.738786 
C 132.013819 99.212449 132.656333 99.478587 133.326193 99.478587 
z
" style="fill:#404588;"/>
    <path clip-path="url(#p988b9bf7e7)" d="M 208.7503 111.81331 
C 209.604989 111.81331 210.424786 111.473738 211.029142 110.869382 
C 211.633498 110.265027 211.973069 109.445229 211.973069 108.590541 
C 211.973069 107.735853 211.633498 106.916055 211.029142 106.311699 
C 210.424786 105.707343 209.604989 105.367772 208.7503 105.367772 
C 207.895612 105.367772 207.075815 105.707343 206.471459 106.311699 
C 205.867103 106.916055 205.527532 107.735853 205.527532 108.590541 
C 205.527532 109.445229 205.867103 110.265027 206.471459 110.869382 
C 207.075815 111.473738 207.895612 111.81331 208.7503 111.81331 
z
" style="fill:#d5e21a;"/>
    <path clip-path="url(#p988b9bf7e7)" d="M 105.731514 55.80692 
C 107.029695 55.80692 108.274881 55.291148 109.192833 54.373195 
C 110.110786 53.455242 110.626559 52.210056 110.626559 50.911875 
C 110.626559 49.613694 110.110786 48.368508 109.192833 47.450556 
C 108.274881 46.532603 107.029695 46.01683 105.731514 46.01683 
C 104.433333 46.01683 103.188147 46.532603 102.270194 47.450556 
C 101.352241 48.368508 100.836469 49.613694 100.836469 50.911875 
C 100.836469 52.210056 101.352241 53.455242 102.270194 54.373195 
C 103.188147 55.291148 104.433333 55.80692 105.731514 55.80692 
z
" style="fill:#6ccd5a;"/>
    <path clip-path="url(#p988b9bf7e7)" d="M 102.356228 56.09204 
C 103.552669 56.09204 104.700268 55.616689 105.546279 54.770677 
C 106.392291 53.924666 106.867642 52.777067 106.867642 51.580626 
C 106.867642 50.384185 106.392291 49.236586 105.546279 48.390575 
C 104.700268 47.544563 103.552669 47.069212 102.356228 47.069212 
C 101.159787 47.069212 100.012188 47.544563 99.166176 48.390575 
C 98.320165 49.236586 97.844814 50.384185 97.844814 51.580626 
C 97.844814 52.777067 98.320165 53.924666 99.166176 54.770677 
C 100.012188 55.616689 101.159787 56.09204 102.356228 56.09204 
z
" style="fill:#5ec962;"/>
    <path clip-path="url(#p988b9bf7e7)" d="M 151.849716 75.587316 
C 153.276009 75.587316 154.644078 75.020643 155.652619 74.012101 
C 156.661161 73.003559 157.227834 71.635491 157.227834 70.209198 
C 157.227834 68.782904 156.661161 67.414836 155.652619 66.406294 
C 154.644078 65.397752 153.276009 64.83108 151.849716 64.83108 
C 150.423422 64.83108 149.055354 65.397752 148.046812 66.406294 
C 147.03827 67.414836 146.471598 68.782904 146.471598 70.209198 
C 146.471598 71.635491 147.03827 73.003559 148.046812 74.012101 
C 149.055354 75.020643 150.423422 75.587316 151.849716 75.587316 
z
" style="fill:#c0df25;"/>
    <path clip-path="url(#p988b9bf7e7)" d="M 422.261153 218.7688 
C 423.041863 218.7688 423.790702 218.458621 424.342748 217.906575 
C 424.894793 217.35453 425.204973 216.60569 425.204973 215.82498 
C 425.204973 215.04427 424.894793 214.29543 424.342748 213.743385 
C 423.790702 213.19134 423.041863 212.88116 422.261153 212.88116 
C 421.480442 212.88116 420.731603 213.19134 420.179558 213.743385 
C 419.627512 214.29543 419.317333 215.04427 419.317333 215.82498 
C 419.317333 216.60569 419.627512 217.35453 420.179558 217.906575 
C 420.731603 218.458621 421.480442 218.7688 422.261153 218.7688 
z
" style="fill:#440154;"/>
    <path clip-path="url(#p988b9bf7e7)" d="M 192.578348 98.86796 
C 193.899625 98.86796 195.166965 98.343011 196.101249 97.408727 
C 197.035533 96.474442 197.560482 95.207103 197.560482 93.885826 
C 197.560482 92.564548 197.035533 91.297209 196.101249 90.362925 
C 195.166965 89.42864 193.899625 88.903691 192.578348 88.903691 
C 191.25707 88.903691 189.989731 89.42864 189.055447 90.362925 
C 188.121163 91.297209 187.596214 92.564548 187.596214 93.885826 
C 187.596214 95.207103 188.121163 96.474442 189.055447 97.408727 
C 189.989731 98.343011 191.25707 98.86796 192.578348 98.86796 
z
" style="fill:#fde725;"/>
    <path clip-path="url(#p988b9bf7e7)" d="M 131.288989 86.157548 
C 132.383211 86.157548 133.432764 85.722809 134.206496 84.949077 
C 134.980228 84.175345 135.414967 83.125792 135.414967 82.03157 
C 135.414967 80.937348 134.980228 79.887795 134.206496 79.114063 
C 133.432764 78.340332 132.383211 77.905593 131.288989 77.905593 
C 130.194767 77.905593 129.145214 78.340332 128.371482 79.114063 
C 127.59775 79.887795 127.163011 80.937348 127.163011 82.03157 
C 127.163011 83.125792 127.59775 84.175345 128.371482 84.949077 
C 129.145214 85.722809 130.194767 86.157548 131.288989 86.157548 
z
" style="fill:#1f948c;"/>
    <path clip-path="url(#p988b9bf7e7)" d="M 297.947665 184.720148 
C 299.009579 184.720148 300.028143 184.298245 300.77903 183.547358 
C 301.529916 182.796472 301.951819 181.777908 301.951819 180.715994 
C 301.951819 179.65408 301.529916 178.635516 300.77903 177.884629 
C 300.028143 177.133743 299.009579 176.71184 297.947665 176.71184 
C 296.885751 176.71184 295.867187 177.133743 295.116301 177.884629 
C 294.365414 178.635516 293.943511 179.65408 293.943511 180.715994 
C 293.943511 181.777908 294.365414 182.796472 295.116301 183.547358 
C 295.867187 184.298245 296.885751 184.720148 297.947665 184.720148 
z
" style="fill:#472d7b;"/>
    <path clip-path="url(#p988b9bf7e7)" d="M 200.137672 84.372445 
C 201.074181 84.372445 201.972459 84.000366 202.634671 83.338153 
C 203.296883 82.675941 203.668962 81.777663 203.668962 80.841154 
C 203.668962 79.904645 203.296883 79.006366 202.634671 78.344154 
C 201.972459 77.681942 201.074181 77.309863 200.137672 77.309863 
C 199.201162 77.309863 198.302884 77.681942 197.640672 78.344154 
C 196.97846 79.006366 196.606381 79.904645 196.606381 80.841154 
C 196.606381 81.777663 196.97846 82.675941 197.640672 83.338153 
C 198.302884 84.000366 199.201162 84.372445 200.137672 84.372445 
z
" style="fill:#1e9d89;"/>
    <path clip-path="url(#p988b9bf7e7)" d="M 206.860574 104.86765 
C 207.63368 104.86765 208.375225 104.560492 208.921893 104.013824 
C 209.468562 103.467156 209.77572 102.72561 209.77572 101.952505 
C 209.77572 101.179399 209.468562 100.437854 208.921893 99.891185 
C 208.375225 99.344517 207.63368 99.037359 206.860574 99.037359 
C 206.087468 99.037359 205.345923 99.344517 204.799255 99.891185 
C 204.252587 100.437854 203.945428 101.179399 203.945428 101.952505 
C 203.945428 102.72561 204.252587 103.467156 204.799255 104.013824 
C 205.345923 104.560492 206.087468 104.86765 206.860574 104.86765 
z
" style="fill:#efe51c;"/>
    <path clip-path="url(#p988b9bf7e7)" d="M 172.132977 113.412734 
C 173.545199 113.412734 174.89977 112.851653 175.898362 111.853061 
C 176.896954 110.854469 177.458036 109.499898 177.458036 108.087676 
C 177.458036 106.675453 176.896954 105.320882 175.898362 104.32229 
C 174.89977 103.323699 173.545199 102.762617 172.132977 102.762617 
C 170.720755 102.762617 169.366183 103.323699 168.367592 104.32229 
C 167.369 105.320882 166.807918 106.675453 166.807918 108.087676 
C 166.807918 109.499898 167.369 110.854469 168.367592 111.853061 
C 169.366183 112.851653 170.720755 113.412734 172.132977 113.412734 
z
" style="fill:#26828e;"/>
    <path clip-path="url(#p988b9bf7e7)" d="M 254.304583 131.877514 
C 255.040301 131.877514 255.745984 131.58521 256.266215 131.06498 
C 256.786446 130.544749 257.078749 129.839065 257.078749 129.103348 
C 257.078749 128.36763 256.786446 127.661947 256.266215 127.141716 
C 255.745984 126.621485 255.040301 126.329182 254.304583 126.329182 
C 253.568866 126.329182 252.863182 126.621485 252.342951 127.141716 
C 251.822721 127.661947 251.530417 128.36763 251.530417 129.103348 
C 251.530417 129.839065 251.822721 130.544749 252.342951 131.06498 
C 252.863182 131.58521 253.568866 131.877514 254.304583 131.877514 
z
" style="fill:#24aa83;"/>
    <path clip-path="url(#p988b9bf7e7)" d="M 76.260707 43.040088 
C 77.286479 43.040088 78.270376 42.632544 78.995707 41.907214 
C 79.721037 41.181883 80.128581 40.197986 80.128581 39.172214 
C 80.128581 38.146442 79.721037 37.162544 78.995707 36.437214 
C 78.270376 35.711883 77.286479 35.30434 76.260707 35.30434 
C 75.234935 35.30434 74.251037 35.711883 73.525707 36.437214 
C 72.800376 37.162544 72.392833 38.146442 72.392833 39.172214 
C 72.392833 40.197986 72.800376 41.181883 73.525707 41.907214 
C 74.251037 42.632544 75.234935 43.040088 76.260707 43.040088 
z
" style="fill:#23a983;"/>
    <path clip-path="url(#p988b9bf7e7)" d="M 100.971508 28.060866 
C 102.079392 28.060866 103.14205 27.620699 103.925442 26.837306 
C 104.708835 26.053914 105.149002 24.991256 105.149002 23.883372 
C 105.149002 22.775488 104.708835 21.712831 103.925442 20.929438 
C 103.14205 20.146046 102.079392 19.705879 100.971508 19.705879 
C 99.863624 19.705879 98.800966 20.146046 98.017574 20.929438 
C 97.234182 21.712831 96.794014 22.775488 96.794014 23.883372 
C 96.794014 24.991256 97.234182 26.053914 98.017574 26.837306 
C 98.800966 27.620699 99.863624 28.060866 100.971508 28.060866 
z
" style="fill:#3a538b;"/>
    <path clip-path="url(#p988b9bf7e7)" d="M 70.642891 53.253695 
C 71.800101 53.253695 72.91007 52.793931 73.728341 51.97566 
C 74.546612 51.157389 75.006377 50.047419 75.006377 48.890209 
C 75.006377 47.733 74.546612 46.62303 73.728341 45.804759 
C 72.91007 44.986488 71.800101 44.526724 70.642891 44.526724 
C 69.485681 44.526724 68.375712 44.986488 67.557441 45.804759 
C 66.73917 46.62303 66.279405 47.733 66.279405 48.890209 
C 66.279405 50.047419 66.73917 51.157389 67.557441 51.97566 
C 68.375712 52.793931 69.485681 53.253695 70.642891 53.253695 
z
" style="fill:#2c728e;"/>
    <path clip-path="url(#p988b9bf7e7)" d="M 241.272362 196.967563 
C 242.085663 196.967563 242.865764 196.644435 243.440855 196.069344 
C 244.015946 195.494253 244.339074 194.714153 244.339074 193.900851 
C 244.339074 193.087549 244.015946 192.307449 243.440855 191.732358 
C 242.865764 191.157267 242.085663 190.834139 241.272362 190.834139 
C 240.45906 190.834139 239.67896 191.157267 239.103869 191.732358 
C 238.528778 192.307449 238.205649 193.087549 238.205649 193.900851 
C 238.205649 194.714153 238.528778 195.494253 239.103869 196.069344 
C 239.67896 196.644435 240.45906 196.967563 241.272362 196.967563 
z
" style="fill:#482475;"/>
    <path clip-path="url(#p988b9bf7e7)" d="M 96.005423 50.829289 
C 97.042044 50.829289 98.036348 50.417435 98.769349 49.684433 
C 99.502351 48.951432 99.914205 47.957128 99.914205 46.920507 
C 99.914205 45.883886 99.502351 44.889583 98.769349 44.156581 
C 98.036348 43.423579 97.042044 43.011726 96.005423 43.011726 
C 94.968802 43.011726 93.974499 43.423579 93.241497 44.156581 
C 92.508495 44.889583 92.096642 45.883886 92.096642 46.920507 
C 92.096642 47.957128 92.508495 48.951432 93.241497 49.684433 
C 93.974499 50.417435 94.968802 50.829289 96.005423 50.829289 
z
" style="fill:#52c569;"/>
    <path clip-path="url(#p988b9bf7e7)" d="M 75.222382 40.659697 
C 76.086211 40.659697 76.914776 40.316494 77.525595 39.705675 
C 78.136414 39.094856 78.479617 38.266291 78.479617 37.402462 
C 78.479617 36.538633 78.136414 35.710068 77.525595 35.099249 
C 76.914776 34.48843 76.086211 34.145227 75.222382 34.145227 
C 74.358553 34.145227 73.529989 34.48843 72.919169 35.099249 
C 72.30835 35.710068 71.965147 36.538633 71.965147 37.402462 
C 71.965147 38.266291 72.30835 39.094856 72.919169 39.705675 
C 73.529989 40.316494 74.358553 40.659697 75.222382 40.659697 
z
" style="fill:#22a884;"/>
    <path clip-path="url(#p988b9bf7e7)" d="M 87.659585 40.536665 
C 88.913295 40.536665 90.115826 40.038561 91.002333 39.152053 
C 91.88884 38.265546 92.386945 37.063016 92.386945 35.809305 
C 92.386945 34.555595 91.88884 33.353064 91.002333 32.466557 
C 90.115826 31.58005 88.913295 31.081945 87.659585 31.081945 
C 86.405874 31.081945 85.203344 31.58005 84.316837 32.466557 
C 83.430329 33.353064 82.932225 34.555595 82.932225 35.809305 
C 82.932225 37.063016 83.430329 38.265546 84.316837 39.152053 
C 85.203344 40.038561 86.405874 40.536665 87.659585 40.536665 
z
" style="fill:#2cb17e;"/>
    <path clip-path="url(#p988b9bf7e7)" d="M 182.196585 101.486243 
C 183.370064 101.486243 184.495637 101.020016 185.325411 100.190241 
C 186.155186 99.360467 186.621414 98.234893 186.621414 97.061415 
C 186.621414 95.887937 186.155186 94.762364 185.325411 93.932589 
C 184.495637 93.102815 183.370064 92.636587 182.196585 92.636587 
C 181.023107 92.636587 179.897534 93.102815 179.067759 93.932589 
C 178.237985 94.762364 177.771757 95.887937 177.771757 97.061415 
C 177.771757 98.234893 178.237985 99.360467 179.067759 100.190241 
C 179.897534 101.020016 181.023107 101.486243 182.196585 101.486243 
z
" style="fill:#cae11f;"/>
    <path clip-path="url(#p988b9bf7e7)" d="M 124.086917 52.77542 
C 125.419183 52.77542 126.697062 52.246105 127.639116 51.304051 
C 128.58117 50.361997 129.110485 49.084118 129.110485 47.751853 
C 129.110485 46.419587 128.58117 45.141708 127.639116 44.199654 
C 126.697062 43.2576 125.419183 42.728286 124.086917 42.728286 
C 122.754652 42.728286 121.476773 43.2576 120.534719 44.199654 
C 119.592665 45.141708 119.06335 46.419587 119.06335 47.751853 
C 119.06335 49.084118 119.592665 50.361997 120.534719 51.304051 
C 121.476773 52.246105 122.754652 52.77542 124.086917 52.77542 
z
" style="fill:#31b57b;"/>
    <path clip-path="url(#p988b9bf7e7)" d="M 216.78519 116.591915 
C 217.555411 116.591915 218.294189 116.285903 218.838818 115.741274 
C 219.383446 115.196646 219.689458 114.457867 219.689458 113.687646 
C 219.689458 112.917425 219.383446 112.178647 218.838818 111.634018 
C 218.294189 111.08939 217.555411 110.783378 216.78519 110.783378 
C 216.014969 110.783378 215.27619 111.08939 214.731562 111.634018 
C 214.186933 112.178647 213.880921 112.917425 213.880921 113.687646 
C 213.880921 114.457867 214.186933 115.196646 214.731562 115.741274 
C 215.27619 116.285903 216.014969 116.591915 216.78519 116.591915 
z
" style="fill:#b5de2b;"/>
    <path clip-path="url(#p988b9bf7e7)" d="M 273.594341 220.802167 
C 274.889235 220.802167 276.131269 220.2877 277.046898 219.372071 
C 277.962527 218.456442 278.476994 217.214408 278.476994 215.919513 
C 278.476994 214.624619 277.962527 213.382585 277.046898 212.466956 
C 276.131269 211.551327 274.889235 211.03686 273.594341 211.03686 
C 272.299446 211.03686 271.057412 211.551327 270.141783 212.466956 
C 269.226154 213.382585 268.711687 214.624619 268.711687 215.919513 
C 268.711687 217.214408 269.226154 218.456442 270.141783 219.372071 
C 271.057412 220.2877 272.299446 220.802167 273.594341 220.802167 
z
" style="fill:#481f70;"/>
    <path clip-path="url(#p988b9bf7e7)" d="M 190.438816 93.795372 
C 191.296637 93.795372 192.119438 93.454557 192.726009 92.847986 
C 193.332579 92.241416 193.673395 91.418614 193.673395 90.560794 
C 193.673395 89.702973 193.332579 88.880172 192.726009 88.273601 
C 192.119438 87.667031 191.296637 87.326215 190.438816 87.326215 
C 189.580996 87.326215 188.758194 87.667031 188.151624 88.273601 
C 187.545053 88.880172 187.204238 89.702973 187.204238 90.560794 
C 187.204238 91.418614 187.545053 92.241416 188.151624 92.847986 
C 188.758194 93.454557 189.580996 93.795372 190.438816 93.795372 
z
" style="fill:#f4e61e;"/>
    <path clip-path="url(#p988b9bf7e7)" d="M 204.662992 105.601655 
C 205.650029 105.601655 206.596773 105.209501 207.294713 104.51156 
C 207.992654 103.813619 208.384808 102.866876 208.384808 101.879839 
C 208.384808 100.892802 207.992654 99.946058 207.294713 99.248118 
C 206.596773 98.550177 205.650029 98.158023 204.662992 98.158023 
C 203.675955 98.158023 202.729212 98.550177 202.031271 99.248118 
C 201.33333 99.946058 200.941176 100.892802 200.941176 101.879839 
C 200.941176 102.866876 201.33333 103.813619 202.031271 104.51156 
C 202.729212 105.209501 203.675955 105.601655 204.662992 105.601655 
z
" style="fill:#f4e61e;"/>
    <path clip-path="url(#p988b9bf7e7)" d="M 204.662992 105.601655 
C 205.650029 105.601655 206.596773 105.209501 207.294713 104.51156 
C 207.992654 103.813619 208.384808 102.866876 208.384808 101.879839 
C 208.384808 100.892802 207.992654 99.946058 207.294713 99.248118 
C 206.596773 98.550177 205.650029 98.158023 204.662992 98.158023 
C 203.675955 98.158023 202.729212 98.550177 202.031271 99.248118 
C 201.33333 99.946058 200.941176 100.892802 200.941176 101.879839 
C 200.941176 102.866876 201.33333 103.813619 202.031271 104.51156 
C 202.729212 105.209501 203.675955 105.601655 204.662992 105.601655 
z
" style="fill:#f4e61e;"/>
    <path clip-path="url(#p988b9bf7e7)" d="M 469.499996 176.513809 
C 469.903733 176.513809 470.290989 176.353402 470.576474 176.067917 
C 470.86196 175.782431 471.022367 175.395175 471.022367 174.991438 
C 471.022367 174.5877 470.86196 174.200445 470.576474 173.914959 
C 470.290989 173.629474 469.903733 173.469067 469.499996 173.469067 
C 469.096258 173.469067 468.709002 173.629474 468.423517 173.914959 
C 468.138031 174.200445 467.977625 174.5877 467.977625 174.991438 
C 467.977625 175.395175 468.138031 175.782431 468.423517 176.067917 
C 468.709002 176.353402 469.096258 176.513809 469.499996 176.513809 
z
" style="fill:#440154;"/>
    <path clip-path="url(#p988b9bf7e7)" d="M 245.81632 142.663599 
C 246.611227 142.663599 247.373684 142.347779 247.935769 141.785695 
C 248.497853 141.22361 248.813673 140.461153 248.813673 139.666246 
C 248.813673 138.871339 248.497853 138.108882 247.935769 137.546798 
C 247.373684 136.984713 246.611227 136.668893 245.81632 136.668893 
C 245.021413 136.668893 244.258956 136.984713 243.696871 137.546798 
C 243.134787 138.108882 242.818967 138.871339 242.818967 139.666246 
C 242.818967 140.461153 243.134787 141.22361 243.696871 141.785695 
C 244.258956 142.347779 245.021413 142.663599 245.81632 142.663599 
z
" style="fill:#1f958b;"/>
    <path clip-path="url(#p988b9bf7e7)" d="M 82.777855 45.127851 
C 84.161018 45.127851 85.487715 44.578314 86.465759 43.600271 
C 87.443802 42.622228 87.993339 41.29553 87.993339 39.912368 
C 87.993339 38.529205 87.443802 37.202508 86.465759 36.224464 
C 85.487715 35.246421 84.161018 34.696885 82.777855 34.696885 
C 81.394693 34.696885 80.067995 35.246421 79.089952 36.224464 
C 78.111909 37.202508 77.562372 38.529205 77.562372 39.912368 
C 77.562372 41.29553 78.111909 42.622228 79.089952 43.600271 
C 80.067995 44.578314 81.394693 45.127851 82.777855 45.127851 
z
" style="fill:#31b57b;"/>
    <path clip-path="url(#p988b9bf7e7)" d="M 266.256926 154.697591 
C 266.962867 154.697591 267.639989 154.417117 268.139165 153.917942 
C 268.63834 153.418766 268.918814 152.741644 268.918814 152.035703 
C 268.918814 151.329762 268.63834 150.652639 268.139165 150.153463 
C 267.639989 149.654288 266.962867 149.373814 266.256926 149.373814 
C 265.550985 149.373814 264.873862 149.654288 264.374686 150.153463 
C 263.875511 150.652639 263.595037 151.329762 263.595037 152.035703 
C 263.595037 152.741644 263.875511 153.418766 264.374686 153.917942 
C 264.873862 154.417117 265.550985 154.697591 266.256926 154.697591 
z
" style="fill:#2c738e;"/>
    <path clip-path="url(#p988b9bf7e7)" d="M 238.125857 149.63148 
C 239.494734 149.63148 240.80773 149.08762 241.775672 148.119677 
C 242.743614 147.151735 243.287475 145.83874 243.287475 144.469863 
C 243.287475 143.100986 242.743614 141.78799 241.775672 140.820048 
C 240.80773 139.852106 239.494734 139.308245 238.125857 139.308245 
C 236.75698 139.308245 235.443984 139.852106 234.476042 140.820048 
C 233.5081 141.78799 232.96424 143.100986 232.96424 144.469863 
C 232.96424 145.83874 233.5081 147.151735 234.476042 148.119677 
C 235.443984 149.08762 236.75698 149.63148 238.125857 149.63148 
z
" style="fill:#2e6f8e;"/>
    <path clip-path="url(#p988b9bf7e7)" d="M 208.850787 107.393713 
C 209.695932 107.393713 210.506575 107.057934 211.104182 106.460327 
C 211.701789 105.862719 212.037569 105.052076 212.037569 104.206932 
C 212.037569 103.361787 211.701789 102.551144 211.104182 101.953537 
C 210.506575 101.35593 209.695932 101.02015 208.850787 101.02015 
C 208.005643 101.02015 207.195 101.35593 206.597392 101.953537 
C 205.999785 102.551144 205.664006 103.361787 205.664006 104.206932 
C 205.664006 105.052076 205.999785 105.862719 206.597392 106.460327 
C 207.195 107.057934 208.005643 107.393713 208.850787 107.393713 
z
" style="fill:#eae51a;"/>
    <path clip-path="url(#p988b9bf7e7)" d="M 160.438378 76.35157 
C 161.617294 76.35157 162.748084 75.883182 163.581704 75.049562 
C 164.415323 74.215942 164.883712 73.085153 164.883712 71.906237 
C 164.883712 70.72732 164.415323 69.596531 163.581704 68.762911 
C 162.748084 67.929292 161.617294 67.460903 160.438378 67.460903 
C 159.259462 67.460903 158.128672 67.929292 157.295053 68.762911 
C 156.461433 69.596531 155.993045 70.72732 155.993045 71.906237 
C 155.993045 73.085153 156.461433 74.215942 157.295053 75.049562 
C 158.128672 75.883182 159.259462 76.35157 160.438378 76.35157 
z
" style="fill:#b5de2b;"/>
    <path clip-path="url(#p988b9bf7e7)" d="M 153.933449 75.141577 
C 155.345621 75.141577 156.700144 74.580515 157.6987 73.581959 
C 158.697256 72.583403 159.258318 71.22888 159.258318 69.816708 
C 159.258318 68.404537 158.697256 67.050014 157.6987 66.051458 
C 156.700144 65.052902 155.345621 64.49184 153.933449 64.49184 
C 152.521278 64.49184 151.166755 65.052902 150.168199 66.051458 
C 149.169642 67.050014 148.608581 68.404537 148.608581 69.816708 
C 148.608581 71.22888 149.169642 72.583403 150.168199 73.581959 
C 151.166755 74.580515 152.521278 75.141577 153.933449 75.141577 
z
" style="fill:#b8de29;"/>
    <path clip-path="url(#p988b9bf7e7)" d="M 240.628339 113.893403 
C 241.732899 113.893403 242.792368 113.454556 243.573409 112.673515 
C 244.354451 111.892473 244.793298 110.833004 244.793298 109.728444 
C 244.793298 108.623884 244.354451 107.564415 243.573409 106.783373 
C 242.792368 106.002331 241.732899 105.563485 240.628339 105.563485 
C 239.523779 105.563485 238.46431 106.002331 237.683268 106.783373 
C 236.902226 107.564415 236.46338 108.623884 236.46338 109.728444 
C 236.46338 110.833004 236.902226 111.892473 237.683268 112.673515 
C 238.46431 113.454556 239.523779 113.893403 240.628339 113.893403 
z
" style="fill:#22a884;"/>
    <path clip-path="url(#p988b9bf7e7)" d="M 212.78257 196.318859 
C 213.529526 196.318859 214.24599 196.02209 214.774168 195.493912 
C 215.302345 194.965734 215.599114 194.249271 215.599114 193.502315 
C 215.599114 192.755359 215.302345 192.038895 214.774168 191.510718 
C 214.24599 190.98254 213.529526 190.685771 212.78257 190.685771 
C 212.035614 190.685771 211.319151 190.98254 210.790973 191.510718 
C 210.262795 192.038895 209.966026 192.755359 209.966026 193.502315 
C 209.966026 194.249271 210.262795 194.965734 210.790973 195.493912 
C 211.319151 196.02209 212.035614 196.318859 212.78257 196.318859 
z
" style="fill:#481a6c;"/>
    <path clip-path="url(#p988b9bf7e7)" d="M 234.807118 102.361261 
C 235.532933 102.361261 236.229118 102.072892 236.742347 101.559663 
C 237.255576 101.046434 237.543945 100.350249 237.543945 99.624434 
C 237.543945 98.898619 237.255576 98.202434 236.742347 97.689206 
C 236.229118 97.175977 235.532933 96.887608 234.807118 96.887608 
C 234.081303 96.887608 233.385118 97.175977 232.871889 97.689206 
C 232.358661 98.202434 232.070291 98.898619 232.070291 99.624434 
C 232.070291 100.350249 232.358661 101.046434 232.871889 101.559663 
C 233.385118 102.072892 234.081303 102.361261 234.807118 102.361261 
z
" style="fill:#24868e;"/>
   </g>
   <g id="line2d_12">
    <path clip-path="url(#p988b9bf7e7)" d="M 133.326193 65.159589 
L 208.7503 98.018067 
L 105.731514 53.13798 
L 102.356228 51.667538 
L 151.849716 73.229353 
L 422.261153 191.033972 
L 192.578348 90.972763 
L 131.288989 64.272082 
L 297.947665 136.876858 
L 200.137672 94.265979 
L 206.860574 97.194809 
L 172.132977 82.065747 
L 254.304583 117.863769 
L 76.260707 40.299036 
L 100.971508 51.064286 
L 70.642891 37.851637 
L 241.272362 112.186288 
L 96.005423 48.900813 
L 75.222382 39.846691 
L 87.659585 45.264952 
L 182.196585 86.449953 
L 124.086917 61.134503 
L 216.78519 101.518463 
L 273.594341 126.267343 
L 190.438816 90.040677 
L 204.662992 96.237433 
L 204.662992 96.237433 
L 469.499996 211.613552 
L 245.81632 114.165861 
L 82.777855 43.138229 
L 266.256926 123.070802 
L 238.125857 110.815515 
L 208.850787 98.061844 
L 160.438378 76.971 
L 153.933449 74.137131 
L 240.628339 111.90572 
L 212.78257 99.774724 
L 234.807118 109.369708 
" style="fill:none;stroke:#000000;stroke-linecap:round;stroke-width:1.5;"/>
   </g>
   <g id="line2d_13">
    <path clip-path="url(#p988b9bf7e7)" d="M 67.162352 20.79 
L 472.980534 292.59 
L 472.980534 292.59 
" style="fill:none;stroke:#ff0000;stroke-linecap:round;stroke-width:2;"/>
   </g>
   <g id="patch_3">
    <path d="M 46.871443 306.18 
L 46.871443 7.2 
" style="fill:none;"/>
   </g>
   <g id="patch_4">
    <path d="M 493.271443 306.18 
L 493.271443 7.2 
" style="fill:none;"/>
   </g>
   <g id="patch_5">
    <path d="M 46.871443 306.18 
L 493.271443 306.18 
" style="fill:none;"/>
   </g>
   <g id="patch_6">
    <path d="M 46.871443 7.2 
L 493.271443 7.2 
" style="fill:none;"/>
   </g>
   <g id="legend_1">
    <g id="line2d_14">
     <path d="M 368.337144 19.7 
L 388.337144 19.7 
" style="fill:none;stroke:#000000;stroke-linecap:round;stroke-width:1.5;"/>
    </g>
    <g id="line2d_15"/>
    <g id="text_14">
     <!-- Unbranched Pathway -->
     <defs>
      <path d="M 55.5 68.5 
L 47.90625 68.5 
L 47.90625 22.640625 
C 47.90625 9.4375 39.796875 3.578125 32.40625 3.578125 
C 24.796875 3.578125 17.203125 9.734375 17.203125 22.546875 
L 17.203125 68.5 
L 8.796875 68.5 
L 8.796875 22.71875 
C 8.796875 8.421875 19.90625 -2 32.296875 -2 
C 44.703125 -2 55.5 8.421875 55.5 22.71875 
z
" id="CMSS17-85"/>
      <path d="M 14.90625 69 
L 7.5 69 
L 7.5 -0.203125 
L 15.09375 -0.203125 
L 15.09375 4.28125 
C 18.90625 0.59375 23.5 -1 27.59375 -1 
C 37.203125 -1 45 8.578125 45 21.125 
C 45 32.59375 39 43.0625 30.09375 43.0625 
C 23.796875 43.0625 18.203125 40.484375 14.90625 37.796875 
z
M 15.09375 31.96875 
C 17.296875 34.71875 20.40625 37 24.796875 37 
C 30.703125 37 37.40625 32.765625 37.40625 21.125 
C 37.40625 8.71875 29.40625 5.078125 23.90625 5.078125 
C 21.90625 5.078125 19.796875 5.5625 17.796875 7.25 
C 15.09375 9.609375 15.09375 11.078125 15.09375 12.453125 
z
" id="CMSS17-98"/>
      <path d="M 40.90625 29.546875 
C 40.90625 35.8125 39.40625 44.0625 28.09375 44.0625 
C 21.796875 44.0625 17.703125 40.984375 14.796875 37.609375 
L 14.796875 69.5 
L 7.40625 69.5 
L 7.40625 0.5 
L 15 0.5 
L 15 24.578125 
C 15 30.828125 17.40625 38 24.203125 38 
C 33 38 33.296875 32.125 33.296875 28.734375 
L 33.296875 0.5 
L 40.90625 0.5 
z
" id="CMSS17-104"/>
      <path d="M 62.703125 43 
L 55.09375 43 
L 49.796875 25.015625 
C 48.703125 21.21875 45.59375 10.703125 45.203125 5.796875 
L 45.09375 5.796875 
C 44.90625 8.8125 43.203125 16 40.40625 25.515625 
L 35.296875 43 
L 28.40625 43 
L 23.40625 25.90625 
C 20.90625 17.203125 19 9.796875 18.796875 5.796875 
L 18.703125 5.796875 
C 18.296875 11.703125 14.203125 25.515625 13.59375 27.703125 
L 9.09375 43 
L 1.296875 43 
L 14.296875 0 
L 21.90625 0 
C 27.09375 17.125 31.09375 30.359375 31.40625 37.03125 
C 31.59375 33.75 33.296875 26.671875 34.296875 23.1875 
L 40.90625 0 
L 49.703125 0 
z
" id="CMSS17-119"/>
      <path d="M 41.796875 43 
L 34 43 
C 25.5 20.21875 22.59375 10.96875 22.40625 5.984375 
L 22.296875 5.984375 
C 22 10.875 17.59375 22.8125 14.09375 31.359375 
L 9.40625 43 
L 1.296875 43 
L 19 0.203125 
C 17.90625 -2.78125 16.296875 -7.265625 15.796875 -8.265625 
C 13.59375 -13.828125 12.09375 -13.828125 10.5 -13.828125 
C 10.09375 -13.828125 6.90625 -13.828125 3.296875 -12.640625 
L 3.90625 -19.203125 
C 6.40625 -19.703125 8.90625 -20 10.703125 -20 
C 13.203125 -20 18.203125 -20 22.796875 -7.765625 
z
" id="CMSS17-121"/>
     </defs>
     <g style="fill:#262626;" transform="translate(396.337144 23.2)scale(0.1 -0.1)">
      <use transform="scale(0.996264)" xlink:href="#CMSS17-85"/>
      <use transform="translate(64.13974 0)scale(0.996264)" xlink:href="#CMSS17-110"/>
      <use transform="translate(112.344683 0)scale(0.996264)" xlink:href="#CMSS17-98"/>
      <use transform="translate(157.947173 0)scale(0.996264)" xlink:href="#CMSS17-114"/>
      <use transform="translate(189.856945 0)scale(0.996264)" xlink:href="#CMSS17-97"/>
      <use transform="translate(234.778866 0)scale(0.996264)" xlink:href="#CMSS17-110"/>
      <use transform="translate(282.983809 0)scale(0.996264)" xlink:href="#CMSS17-99"/>
      <use transform="translate(324.622631 0)scale(0.996264)" xlink:href="#CMSS17-104"/>
      <use transform="translate(372.827574 0)scale(0.996264)" xlink:href="#CMSS17-101"/>
      <use transform="translate(414.466396 0)scale(0.996264)" xlink:href="#CMSS17-100"/>
      <use transform="translate(493.900452 0)scale(0.996264)" xlink:href="#CMSS17-80"/>
      <use transform="translate(551.033584 0)scale(0.996264)" xlink:href="#CMSS17-97"/>
      <use transform="translate(595.955505 0)scale(0.996264)" xlink:href="#CMSS17-116"/>
      <use transform="translate(629.787072 0)scale(0.996264)" xlink:href="#CMSS17-104"/>
      <use transform="translate(677.992015 0)scale(0.996264)" xlink:href="#CMSS17-119"/>
      <use transform="translate(739.209106 0)scale(0.996264)" xlink:href="#CMSS17-97"/>
      <use transform="translate(781.528573 0)scale(0.996264)" xlink:href="#CMSS17-121"/>
     </g>
    </g>
    <g id="line2d_16">
     <path d="M 368.337144 33.637178 
L 388.337144 33.637178 
" style="fill:none;stroke:#ff0000;stroke-linecap:round;stroke-width:2;"/>
    </g>
    <g id="line2d_17"/>
    <g id="text_15">
     <!-- fit -->
     <defs>
      <path d="M 43 69 
L 35 69 
L 35 61.03125 
L 43 61.03125 
z
M 42.703125 42.765625 
L 35.296875 42.765625 
L 35.296875 0 
L 42.703125 0 
z
M 16.796875 37 
L 27.703125 37 
L 27.703125 42.765625 
L 16.59375 42.765625 
L 16.59375 55.90625 
C 16.59375 61.234375 19 63.9375 22.203125 63.9375 
C 24.09375 63.9375 26 63.375 27.703125 62.375 
L 27.703125 68.90625 
C 26.90625 69.1875 24.59375 70 22.203125 70 
C 14.703125 70 9.40625 62.390625 9.40625 52.6875 
L 9.40625 42.765625 
L 2.5 42.765625 
L 2.5 37 
L 9.40625 37 
L 9.40625 0 
L 16.796875 0 
z
" id="CMSS17-12"/>
     </defs>
     <g style="fill:#262626;" transform="translate(396.337144 37.137178)scale(0.1 -0.1)">
      <use transform="scale(0.996264)" xlink:href="#CMSS17-12"/>
      <use transform="translate(50.126737 0)scale(0.996264)" xlink:href="#CMSS17-116"/>
     </g>
    </g>
    <g id="PathCollection_2">
     <path d="M 378.337144 52.401683 
C 379.385313 52.401683 380.390693 51.985241 381.13186 51.244073 
C 381.873028 50.502906 382.28947 49.497526 382.28947 48.449357 
C 382.28947 47.401187 381.873028 46.395807 381.13186 45.65464 
C 380.390693 44.913472 379.385313 44.49703 378.337144 44.49703 
C 377.288974 44.49703 376.283594 44.913472 375.542427 45.65464 
C 374.801259 46.395807 374.384817 47.401187 374.384817 48.449357 
C 374.384817 49.497526 374.801259 50.502906 375.542427 51.244073 
C 376.283594 51.985241 377.288974 52.401683 378.337144 52.401683 
z
" style="fill:#4c72b0;"/>
    </g>
    <g id="text_16">
     <!-- b -->
     <g style="fill:#262626;" transform="translate(396.337144 51.074357)scale(0.1 -0.1)">
      <use transform="scale(0.996264)" xlink:href="#CMSS17-98"/>
     </g>
    </g>
   </g>
  </g>
 </g>
 <defs>
  <clipPath id="p988b9bf7e7">
   <rect height="298.98" width="446.4" x="46.871443" y="7.2"/>
  </clipPath>
 </defs>
</svg>
