<?xml version="1.0" encoding="utf-8" standalone="no"?>
<!DOCTYPE svg PUBLIC "-//W3C//DTD SVG 1.1//EN"
  "http://www.w3.org/Graphics/SVG/1.1/DTD/svg11.dtd">
<!-- Created with matplotlib (http://matplotlib.org/) -->
<svg height="353pt" version="1.1" viewBox="0 0 508 353" width="508pt" xmlns="http://www.w3.org/2000/svg" xmlns:xlink="http://www.w3.org/1999/xlink">
 <defs>
  <style type="text/css">
*{stroke-linecap:butt;stroke-linejoin:round;}
  </style>
 </defs>
 <g id="figure_1">
  <g id="patch_1">
   <path d="M 0 353.548374 
L 508.008609 353.548374 
L 508.008609 0 
L 0 0 
z
" style="fill:#ffffff;"/>
  </g>
  <g id="axes_1">
   <g id="patch_2">
    <path d="M 54.408609 306.18 
L 500.808609 306.18 
L 500.808609 7.2 
L 54.408609 7.2 
z
" style="fill:#eaeaf2;"/>
   </g>
   <g id="matplotlib.axis_1">
    <g id="xtick_1">
     <g id="line2d_1"/>
     <g id="text_1">
      <!-- $-2$ -->
      <defs>
       <path d="M 9.796875 28.078125 
C 8 27.484375 7.796875 24.78125 9.796875 24.28125 
C 10.296875 24.078125 10.90625 24.1875 11.5 24.1875 
L 64.703125 24.1875 
C 65.90625 24.1875 67.796875 23.78125 68.796875 24.78125 
C 69.90625 25.875 69.296875 27.875 67.703125 28.1875 
C 66.5 28.375 65.09375 28.1875 63.90625 28.1875 
L 11.40625 28.1875 
C 10.90625 28.1875 10.296875 28.28125 9.796875 28.078125 
" id="Computer_Modern_Bright_Math_Symbols-0"/>
       <path d="M 7.296875 45.96875 
C 8.703125 51.59375 11.09375 57.984375 16.796875 60.5 
C 19.203125 61.5 21.796875 61.703125 24.40625 61.5 
C 29.296875 61.09375 34.09375 59.09375 37.09375 55.09375 
C 39.296875 52.078125 40.09375 48.375 39.703125 44.78125 
C 38.5 34.34375 28.296875 26.84375 21.703125 21.234375 
C 17.90625 18.03125 7.09375 7.8125 7.09375 7.8125 
L 5.40625 6.203125 
C 4.5 5.3125 4.40625 5.3125 4.40625 3.5 
L 4.40625 0 
L 46.40625 0 
L 46.40625 5.625 
L 10.203125 5.625 
C 13.40625 8.734375 26.703125 20.515625 28.5 21.921875 
C 34.296875 26.65625 40.796875 31.375 44.296875 38.21875 
C 48.203125 46.0625 46.5 55.9375 39.90625 61.765625 
C 35.90625 65.296875 30.40625 67 25.09375 67 
C 20.203125 67 15.203125 66 11.296875 62.90625 
C 8.296875 60.390625 5.796875 56.6875 4.40625 52.875 
C 4.09375 52.28125 3.59375 51.28125 3.703125 50.578125 
C 3.796875 49.984375 4.40625 49.484375 4.703125 49.078125 
C 5.5 48.078125 6.296875 46.875 7.296875 45.96875 
" id="Computer_Modern_Bright-50"/>
      </defs>
      <g style="fill:#262626;" transform="translate(61.107764 324.249603)scale(0.16 -0.16)">
       <use transform="scale(0.996264)" xlink:href="#Computer_Modern_Bright_Math_Symbols-0"/>
       <use transform="translate(77.487468 0)scale(0.996264)" xlink:href="#Computer_Modern_Bright-50"/>
      </g>
     </g>
    </g>
    <g id="xtick_2">
     <g id="line2d_2"/>
     <g id="text_2">
      <!-- $0$ -->
      <defs>
       <path d="M 14.796875 63.859375 
C 11.90625 61.859375 9.90625 59.140625 8.40625 56.03125 
C 4.796875 49 4.40625 40.765625 4.40625 31.828125 
C 4.40625 20.578125 6.40625 10.25 12 4.3125 
C 17.296875 -1.203125 25.703125 -2.609375 32.796875 0.296875 
C 37.203125 2.015625 40.40625 5.71875 42.40625 9.734375 
C 46 16.875 46.40625 25.40625 46.40625 34.234375 
C 46.40625 37.046875 46.296875 39.859375 46 42.671875 
C 45.296875 49.40625 43 56.828125 39.296875 60.953125 
C 33.203125 67.6875 22.296875 69.1875 14.796875 63.859375 
M 34.90625 58.140625 
C 39.59375 53.125 40 43.484375 40 34.34375 
L 40 28.921875 
C 40 24.296875 39.203125 18.28125 38.203125 14.859375 
C 36.796875 10.140625 34.5 6.734375 29.90625 4.625 
C 24.296875 2.609375 18.5 4.515625 15.296875 8.9375 
C 11 14.65625 10.796875 24.796875 10.796875 33.734375 
C 10.796875 42.171875 10.90625 51.515625 15 57.03125 
C 19.5 63.0625 29.203125 64.0625 34.90625 58.140625 
" id="Computer_Modern_Bright-48"/>
      </defs>
      <g style="fill:#262626;" transform="translate(136.917534 324.249603)scale(0.16 -0.16)">
       <use transform="scale(0.996264)" xlink:href="#Computer_Modern_Bright-48"/>
      </g>
     </g>
    </g>
    <g id="xtick_3">
     <g id="line2d_3"/>
     <g id="text_3">
      <!-- $2$ -->
      <g style="fill:#262626;" transform="translate(206.528305 324.249603)scale(0.16 -0.16)">
       <use transform="scale(0.996264)" xlink:href="#Computer_Modern_Bright-50"/>
      </g>
     </g>
    </g>
    <g id="xtick_4">
     <g id="line2d_4"/>
     <g id="text_4">
      <!-- $4$ -->
      <defs>
       <path d="M 2.09375 18 
L 31 18 
L 31 0 
L 37.296875 0 
L 37.296875 18 
L 48.703125 18 
L 48.703125 23.328125 
L 37.296875 23.328125 
L 37.296875 66.46875 
L 31.90625 66.46875 
C 30.09375 66.46875 29.59375 66.578125 28.796875 65.0625 
C 24.796875 58.515625 3.703125 25.765625 3 24.859375 
C 2.203125 23.4375 2.09375 23.546875 2.09375 21.4375 
z
M 31.296875 60.875 
L 31.296875 23.328125 
L 8.59375 23.328125 
C 9.296875 24.734375 10.296875 26.03125 11.203125 27.4375 
C 16.203125 35.171875 28.09375 53.546875 30.59375 59.28125 
C 30.90625 59.78125 31 60.375 31.296875 60.875 
" id="Computer_Modern_Bright-52"/>
      </defs>
      <g style="fill:#262626;" transform="translate(276.139077 324.249603)scale(0.16 -0.16)">
       <use transform="scale(0.996264)" xlink:href="#Computer_Modern_Bright-52"/>
      </g>
     </g>
    </g>
    <g id="xtick_5">
     <g id="line2d_5"/>
     <g id="text_5">
      <!-- $6$ -->
      <defs>
       <path d="M 11.296875 32.625 
L 11.203125 32.625 
C 11.203125 41.765625 12.796875 52.421875 20.59375 58.25 
C 24.90625 61.375 30.703125 62.96875 38.203125 61.171875 
C 39.796875 60.765625 41.296875 60.15625 42.796875 59.765625 
L 42.796875 63.28125 
C 42.796875 63.671875 42.90625 64.375 42.59375 64.78125 
C 41.90625 65.6875 36.296875 66.59375 36.09375 66.59375 
C 27.40625 67.59375 21.703125 65.6875 16.40625 61.171875 
C 10 55.640625 6.296875 47.515625 5.09375 39.28125 
C 4 32.65625 4.90625 22 6.203125 16.78125 
C 8.296875 9.046875 12.296875 2.21875 19.703125 -0.390625 
C 24.09375 -2 29.5 -2 33.703125 0.015625 
C 37.09375 1.640625 39.90625 4.46875 42.09375 7.5 
C 45.59375 12.34375 46.5 18.21875 46.09375 24.171875 
C 45.90625 27.109375 45.5 30.046875 44.296875 32.765625 
C 42.40625 37.125 39.203125 41.671875 35.09375 43.6875 
C 33.203125 44.5 31.203125 44.5 29.203125 44.5 
C 23.90625 44.5 18.90625 42.1875 15.203125 38.359375 
C 13.59375 36.75 12 34.71875 11.296875 32.625 
M 24.40625 39.515625 
C 28.203125 39.8125 32.203125 39.21875 35.09375 36.5 
C 38.90625 32.890625 39.59375 27.765625 39.59375 22.8125 
C 39.59375 19.46875 39.703125 16.015625 38.703125 12.859375 
C 38.09375 11.234375 37.296875 9.828125 36.40625 8.5 
C 34.203125 5.5625 31.40625 4.125 26.796875 3.515625 
C 22.296875 3.515625 17.796875 5.3125 15.203125 9.125 
C 13.59375 11.328125 12.796875 14.046875 12.296875 16.640625 
C 11.703125 19.34375 11.296875 22.140625 11.5 24.859375 
C 12 31.984375 17 38.515625 24.40625 39.515625 
" id="Computer_Modern_Bright-54"/>
      </defs>
      <g style="fill:#262626;" transform="translate(345.749849 324.249603)scale(0.16 -0.16)">
       <use transform="scale(0.996264)" xlink:href="#Computer_Modern_Bright-54"/>
      </g>
     </g>
    </g>
    <g id="xtick_6">
     <g id="line2d_6"/>
     <g id="text_6">
      <!-- $8$ -->
      <defs>
       <path d="M 18.703125 36 
L 18.703125 35.90625 
C 12.5 34.09375 7.296875 30.6875 4.796875 24.84375 
C 2.203125 18.71875 4 11.28125 8.40625 6.453125 
C 13.09375 1.421875 19.5 -1 26.296875 -1 
C 36.296875 -1 45.90625 6.40625 47.09375 16.734375 
C 47.296875 18.265625 47.203125 19.890625 47 21.40625 
C 45.203125 29.21875 39.5 33.875 32.09375 35.90625 
C 32.90625 36.203125 33.796875 36.40625 34.59375 36.703125 
C 38.796875 38.421875 42.296875 40.921875 44.5 44.9375 
C 47.796875 51.375 44.59375 58.90625 39.203125 63.015625 
C 33.796875 67.140625 26.5 68.234375 19.90625 66.828125 
C 12 65.125 4.5 58.40625 5 49.765625 
C 5.203125 46.75 6.5 44.234375 8 42.4375 
C 10.296875 39.625 14.796875 36.609375 18.703125 36 
M 23.796875 62.5 
C 28.203125 62.5 33.703125 62 36.90625 58.578125 
C 40.703125 54.46875 40.90625 47.03125 37.09375 42.8125 
C 34.703125 40.203125 31.203125 38.890625 27.703125 38.59375 
C 22.796875 38.1875 17.203125 39 13.703125 42.8125 
C 9.796875 47.125 10.09375 54.96875 14.296875 58.984375 
C 16.90625 61.390625 20.40625 62.1875 23.796875 62.5 
M 23.703125 33.5 
C 28.40625 33.5 33.5 32.390625 36.90625 28.9375 
C 38.203125 27.53125 39.203125 25.8125 39.796875 24.015625 
C 41.5 18.75 40.703125 12.09375 36.796875 8.046875 
C 34.09375 5.328125 30.40625 4.3125 26.703125 4.015625 
C 22.203125 4.015625 17 5.109375 13.796875 8.5625 
C 9.40625 13.390625 8.5 23.40625 13.703125 29.0625 
C 16.296875 31.78125 20 33.203125 23.703125 33.5 
" id="Computer_Modern_Bright-56"/>
      </defs>
      <g style="fill:#262626;" transform="translate(415.360621 324.249603)scale(0.16 -0.16)">
       <use transform="scale(0.996264)" xlink:href="#Computer_Modern_Bright-56"/>
      </g>
     </g>
    </g>
    <g id="xtick_7">
     <g id="line2d_7"/>
     <g id="text_7">
      <!-- $10$ -->
      <defs>
       <path d="M 9.703125 60.015625 
L 9.703125 55 
C 15.203125 55 19 56 23.40625 57.90625 
L 23.40625 5.015625 
L 10.296875 5.015625 
L 10.296875 0 
L 43 0 
L 43 5.015625 
L 29.90625 5.015625 
L 29.90625 67 
C 27.5 67 27.90625 66.359375 26 64.875 
C 21.90625 61.71875 16.203125 60.015625 9.703125 60.015625 
" id="Computer_Modern_Bright-49"/>
      </defs>
      <g style="fill:#262626;" transform="translate(480.787117 324.249603)scale(0.16 -0.16)">
       <use transform="scale(0.996264)" xlink:href="#Computer_Modern_Bright-49"/>
       <use transform="translate(50.643218 0)scale(0.996264)" xlink:href="#Computer_Modern_Bright-48"/>
      </g>
     </g>
    </g>
    <g id="text_8">
     <!-- Predicted Additive Effect -->
     <defs>
      <path d="M 8 70 
L 8 0.5 
L 15 0.5 
L 15 30 
L 29.09375 30 
C 31.296875 30 33.5 30 35.59375 30 
C 43 30.609375 49.203125 33.640625 53.40625 38.171875 
C 57.703125 42.90625 59.59375 50.15625 56.796875 56.296875 
C 53.59375 64.046875 46 68.984375 36.296875 70 
C 33.40625 70 30.40625 70 27.5 70 
z
M 14.90625 35.21875 
L 14.90625 64.671875 
L 28.59375 64.671875 
C 37.296875 64.671875 45.203125 63.671875 49.203125 57.65625 
C 51.90625 53.625 52.296875 48 50.09375 43.671875 
C 48.90625 41.34375 47.09375 39.546875 44.90625 38.234375 
C 40 35.21875 34.296875 35.21875 28.796875 35.21875 
z
" id="Computer_Modern_Bright-80"/>
      <path d="M 12.5 34.75 
L 12.40625 34.75 
L 12.40625 47.390625 
L 6.40625 47.390625 
L 6.40625 0 
L 12.703125 0 
L 12.703125 22.890625 
C 12.703125 24.40625 12.703125 25.90625 12.90625 27.40625 
C 14.296875 35.953125 21.703125 42.28125 31.40625 42.28125 
L 31.40625 48 
C 25 48 19.09375 44.890625 15.296875 39.765625 
C 14.203125 38.265625 13 36.546875 12.5 34.75 
" id="Computer_Modern_Bright-114"/>
      <path d="M 41.796875 10.9375 
C 39.5 9.234375 38.796875 8.328125 35.90625 6.8125 
C 29.796875 3.5 22.59375 3.5 17.40625 7.171875 
C 12.40625 10.765625 9.5 16.640625 9.5 25 
L 42.5 25 
C 42.5 32.421875 40.796875 38.859375 36.59375 43.375 
C 32 47.890625 24.796875 49.296875 18.703125 47.390625 
C 16.40625 46.6875 14.296875 45.484375 12.40625 43.96875 
C 6.09375 38.859375 3.40625 30.71875 3.5 22.78125 
C 3.703125 12.34375 10.796875 1.90625 21.296875 -0.3125 
C 26.796875 -1.421875 32.59375 -0.203125 37.5 2.296875 
C 38.40625 2.796875 41.703125 4.609375 42.09375 5.515625 
C 42.40625 6.015625 41.796875 10.9375 41.796875 10.9375 
M 37.203125 28.90625 
L 10 28.90625 
C 11.203125 36.234375 17.203125 43.96875 25.296875 43.0625 
C 31.90625 42.46875 35.40625 37.75 36.703125 31.828125 
C 36.90625 30.8125 37 29.921875 37.203125 28.90625 
" id="Computer_Modern_Bright-101"/>
      <path d="M 35.59375 69.6875 
L 35.59375 41.375 
C 33.703125 43.484375 31.796875 45.484375 29.203125 46.6875 
C 20.296875 50.40625 11.703125 45.59375 7.296875 37.65625 
C 2.203125 28.21875 2.796875 15.765625 8.90625 6.921875 
C 13.203125 0.796875 20.296875 -2.203125 27.796875 0.5 
C 30.703125 1.609375 34.203125 4.515625 35.40625 7.125 
L 35.5 7.125 
L 35.5 0 
L 41.90625 0 
L 41.90625 69.6875 
z
M 35.203125 37.453125 
C 35.703125 36.546875 35.5 35.34375 35.5 34.34375 
L 35.5 13.65625 
C 35.5 11.34375 35.40625 11.140625 34.09375 9.34375 
C 32.296875 6.625 29.5 4.71875 26.203125 4.421875 
C 21.40625 4.015625 16.5 6.328125 13.703125 10.25 
C 12.09375 12.546875 11.203125 15.359375 10.703125 18.171875 
C 10.5 19.28125 10.5 20.28125 10.40625 21.390625 
C 9.796875 28.015625 11.203125 35.84375 17 40.0625 
C 18 40.765625 19.09375 41.265625 20.203125 41.765625 
C 26 43.984375 32.40625 43.375 35.203125 37.453125 
" id="Computer_Modern_Bright-100"/>
      <path d="M 6.40625 70 
L 6.40625 63.671875 
L 12.703125 63.671875 
L 12.703125 70 
z
M 6.40625 47.390625 
L 6.40625 0 
L 12.703125 0 
L 12.703125 47.390625 
z
" id="Computer_Modern_Bright-105"/>
      <path d="M 42.40625 11.25 
C 40.5 9.84375 38.796875 8.328125 36.703125 7.125 
C 32 4.625 24.796875 3.421875 19.40625 5.921875 
C 11.59375 9.9375 9.5 19.6875 10.59375 27.71875 
C 10.796875 29.328125 11.09375 30.921875 11.59375 32.4375 
C 13.796875 38.96875 19.296875 44.078125 28.296875 43.078125 
C 33.09375 42.671875 35.5 41.875 39.296875 39.765625 
C 40 39.359375 40.59375 38.859375 41.40625 38.65625 
C 41.5 39.859375 41.796875 41.171875 42 42.375 
C 42.296875 43.984375 42.296875 44.1875 40.796875 44.890625 
C 39.703125 45.390625 38.59375 45.984375 37.40625 46.390625 
C 32.796875 48.40625 25.203125 49 20 47.5 
C 12.90625 45.484375 7.59375 39.359375 5.296875 32.53125 
C 4.203125 29.421875 3.90625 26.109375 3.90625 22.796875 
C 4 12.25 11.203125 1.90625 21.703125 -0.203125 
C 27.5 -1.40625 34.203125 0.296875 38.203125 2.40625 
C 39.203125 2.90625 42.203125 4.71875 42.703125 5.625 
C 43 6.125 42.40625 11.25 42.40625 11.25 
" id="Computer_Modern_Bright-99"/>
      <path d="M 10.796875 60.5 
L 10.796875 47.015625 
L 1.09375 47.015625 
L 1.09375 42 
L 10.703125 42 
L 10.703125 15.015625 
C 10.703125 10.578125 10.40625 5.234375 13.296875 1.515625 
C 15 -0.703125 17.296875 -1.296875 20.796875 -1 
C 23.703125 -1 26.59375 -0.390625 29.296875 0.65625 
C 30.203125 1.0625 33.5 2.515625 33.90625 3.234375 
C 34.09375 3.640625 32.796875 8.09375 32.796875 8.09375 
L 30.40625 6.265625 
C 27.296875 4.34375 21.09375 2.328125 18.5 5.96875 
C 16.203125 9.09375 16.796875 13.75 16.796875 17.375 
L 16.796875 42 
L 32.296875 42 
L 32.296875 47.015625 
L 16.796875 47.015625 
L 16.796875 60.5 
z
" id="Computer_Modern_Bright-116"/>
      <path d="M 2.09375 0.09375 
L 6.59375 0.09375 
L 8.40625 0.296875 
C 11.40625 6.796875 13.5 14.203125 16.203125 21 
C 26.09375 21 36.90625 21 46.296875 21 
L 47.09375 19.6875 
C 48.796875 14.546875 50.796875 9.59375 52.59375 4.546875 
C 53.09375 3.015625 53.59375 1.515625 54.40625 0.296875 
C 56.59375 0 59.203125 0 61.59375 0 
C 59.90625 4.90625 36.703125 67.203125 36 68.890625 
C 35.90625 69.296875 35.703125 69.890625 35.203125 70 
C 34.59375 70.09375 34 70 33.40625 70 
L 30.09375 70 
C 28.59375 70 28 70.1875 27.59375 68.609375 
C 27.203125 67.59375 2.09375 0.09375 2.09375 0.09375 
M 31.40625 63.171875 
C 35.59375 50.71875 40.09375 38.46875 44.5 26.21875 
L 18.203125 26.21875 
L 26.90625 50.109375 
z
" id="Computer_Modern_Bright-65"/>
      <path d="M 0.703125 47.5 
C 1.203125 45.5 4.203125 37.578125 4.40625 37.078125 
C 5.40625 34.28125 17.296875 0.609375 17.59375 0.296875 
C 17.90625 -0.203125 18.796875 0 19.296875 0 
L 22.796875 0 
C 24.09375 0 24.90625 -0.296875 25.203125 0.90625 
C 28.40625 9.328125 40.09375 42.703125 41.796875 47.5 
L 35.59375 47.5 
C 30.796875 33.984375 25.90625 20.4375 21.40625 6.609375 
L 11 36.203125 
C 9.5 39.796875 8.59375 43.890625 6.90625 47.203125 
C 5.09375 47.5 2.796875 47.5 0.703125 47.5 
" id="Computer_Modern_Bright-118"/>
      <path d="M 8 69.328125 
L 8 0 
L 55.40625 0 
L 55.40625 5.625 
L 15 5.625 
L 15 33.671875 
L 51.09375 33.671875 
L 51.09375 39 
L 15 39 
L 15 64 
L 54 64 
L 54 69.328125 
z
" id="Computer_Modern_Bright-69"/>
      <path d="M 10.59375 47.015625 
L 2 47.015625 
L 2 42 
L 10.59375 42 
L 10.59375 -0.5 
L 16.90625 -0.5 
L 16.90625 42 
L 29.296875 42 
L 29.296875 47.015625 
L 16.796875 47.015625 
L 16.796875 55.78125 
C 16.796875 57.1875 16.5 58.921875 17.09375 60.328125 
C 19.203125 64.75 26.296875 65.5625 32.09375 64.5625 
C 33.296875 64.359375 34.40625 63.953125 35.59375 63.75 
L 35.59375 69.390625 
C 28.796875 70.5 21.296875 70.5 15.703125 65.921875 
C 14.796875 65.125 14 64.34375 13.296875 63.328125 
C 11.203125 60.75 10.59375 57.875 10.59375 53.390625 
z
M 38.09375 -0.5 
L 44.40625 -0.5 
L 44.40625 42 
L 56.796875 42 
L 56.796875 47.015625 
L 44.296875 47.015625 
L 44.296875 55.78125 
C 44.296875 57.1875 44 58.921875 44.59375 60.328125 
C 46.703125 64.75 53.796875 65.5625 59.59375 64.5625 
C 60.796875 64.359375 61.90625 63.953125 63.09375 63.75 
L 63.09375 69.390625 
C 57.59375 70.09375 51.5 70.796875 46.296875 68.1875 
C 42.203125 65.96875 38.59375 62.25 38.09375 56.609375 
C 38 55.1875 38.09375 53.78125 38.09375 52.375 
z
" id="Computer_Modern_Bright-11"/>
     </defs>
     <g style="fill:#262626;" transform="translate(186.951533 343.359582)scale(0.18 -0.18)">
      <use transform="scale(0.996264)" xlink:href="#Computer_Modern_Bright-80"/>
      <use transform="translate(62.888907 0)scale(0.996264)" xlink:href="#Computer_Modern_Bright-114"/>
      <use transform="translate(94.852266 0)scale(0.996264)" xlink:href="#Computer_Modern_Bright-101"/>
      <use transform="translate(139.683934 0)scale(0.996264)" xlink:href="#Computer_Modern_Bright-100"/>
      <use transform="translate(187.836431 0)scale(0.996264)" xlink:href="#Computer_Modern_Bright-105"/>
      <use transform="translate(206.931389 0)scale(0.996264)" xlink:href="#Computer_Modern_Bright-99"/>
      <use transform="translate(251.763057 0)scale(0.996264)" xlink:href="#Computer_Modern_Bright-116"/>
      <use transform="translate(287.877445 0)scale(0.996264)" xlink:href="#Computer_Modern_Bright-101"/>
      <use transform="translate(332.709113 0)scale(0.996264)" xlink:href="#Computer_Modern_Bright-100"/>
      <use transform="translate(412.326821 0)scale(0.996264)" xlink:href="#Computer_Modern_Bright-65"/>
      <use transform="translate(475.838439 0)scale(0.996264)" xlink:href="#Computer_Modern_Bright-100"/>
      <use transform="translate(523.990936 0)scale(0.996264)" xlink:href="#Computer_Modern_Bright-100"/>
      <use transform="translate(572.143433 0)scale(0.996264)" xlink:href="#Computer_Modern_Bright-105"/>
      <use transform="translate(591.238392 0)scale(0.996264)" xlink:href="#Computer_Modern_Bright-116"/>
      <use transform="translate(627.35278 0)scale(0.996264)" xlink:href="#Computer_Modern_Bright-105"/>
      <use transform="translate(646.447739 0)scale(0.996264)" xlink:href="#Computer_Modern_Bright-118"/>
      <use transform="translate(688.788777 0)scale(0.996264)" xlink:href="#Computer_Modern_Bright-101"/>
      <use transform="translate(765.085656 0)scale(0.996264)" xlink:href="#Computer_Modern_Bright-69"/>
      <use transform="translate(823.823443 0)scale(0.996264)" xlink:href="#Computer_Modern_Bright-11"/>
      <use transform="translate(881.52351 0)scale(0.996264)" xlink:href="#Computer_Modern_Bright-101"/>
      <use transform="translate(926.355178 0)scale(0.996264)" xlink:href="#Computer_Modern_Bright-99"/>
      <use transform="translate(971.186846 0)scale(0.996264)" xlink:href="#Computer_Modern_Bright-116"/>
     </g>
    </g>
   </g>
   <g id="matplotlib.axis_2">
    <g id="ytick_1">
     <g id="line2d_8"/>
     <g id="text_9">
      <!-- $-8$ -->
      <g style="fill:#262626;" transform="translate(26.642062 309.935684)scale(0.16 -0.16)">
       <use transform="scale(0.996264)" xlink:href="#Computer_Modern_Bright_Math_Symbols-0"/>
       <use transform="translate(77.487468 0)scale(0.996264)" xlink:href="#Computer_Modern_Bright-56"/>
      </g>
     </g>
    </g>
    <g id="ytick_2">
     <g id="line2d_9"/>
     <g id="text_10">
      <!-- $-6$ -->
      <g style="fill:#262626;" transform="translate(26.642062 250.151331)scale(0.16 -0.16)">
       <use transform="scale(0.996264)" xlink:href="#Computer_Modern_Bright_Math_Symbols-0"/>
       <use transform="translate(77.487468 0)scale(0.996264)" xlink:href="#Computer_Modern_Bright-54"/>
      </g>
     </g>
    </g>
    <g id="ytick_3">
     <g id="line2d_10"/>
     <g id="text_11">
      <!-- $-4$ -->
      <g style="fill:#262626;" transform="translate(26.642062 190.366978)scale(0.16 -0.16)">
       <use transform="scale(0.996264)" xlink:href="#Computer_Modern_Bright_Math_Symbols-0"/>
       <use transform="translate(77.487468 0)scale(0.996264)" xlink:href="#Computer_Modern_Bright-52"/>
      </g>
     </g>
    </g>
    <g id="ytick_4">
     <g id="line2d_11"/>
     <g id="text_12">
      <!-- $-2$ -->
      <g style="fill:#262626;" transform="translate(26.642062 130.582625)scale(0.16 -0.16)">
       <use transform="scale(0.996264)" xlink:href="#Computer_Modern_Bright_Math_Symbols-0"/>
       <use transform="translate(77.487468 0)scale(0.996264)" xlink:href="#Computer_Modern_Bright-50"/>
      </g>
     </g>
    </g>
    <g id="ytick_5">
     <g id="line2d_12"/>
     <g id="text_13">
      <!-- $0$ -->
      <g style="fill:#262626;" transform="translate(39.040058 70.798272)scale(0.16 -0.16)">
       <use transform="scale(0.996264)" xlink:href="#Computer_Modern_Bright-48"/>
      </g>
     </g>
    </g>
    <g id="text_14">
     <!-- Deviation from Additive Effect -->
     <defs>
      <path d="M 8 70 
L 8 0 
L 28.203125 0 
C 31.40625 0 34.59375 0 37.703125 0.296875 
C 45.703125 1.109375 52.59375 5.015625 57.203125 9.828125 
C 70.09375 23.171875 70 46.125 57.296875 59.671875 
C 52.703125 64.578125 46.5 68.5 38.703125 69.5 
C 34.90625 70 31 70 27.203125 70 
z
M 14.90625 5.3125 
L 14.90625 64.5625 
L 27.796875 64.5625 
C 30.5 64.5625 33.203125 64.5625 35.90625 64.359375 
C 40.40625 63.859375 44.796875 62.359375 48.5 59.734375 
C 56.59375 54.125 60 44.171875 60 34.640625 
C 60 26.609375 57.796875 18.375 51.90625 12.640625 
C 47.90625 8.9375 42.5 6.21875 36 5.515625 
C 33.40625 5.3125 30.703125 5.3125 28.09375 5.3125 
z
" id="Computer_Modern_Bright-68"/>
      <path d="M 7.90625 39.015625 
C 9.59375 39.859375 11 41.09375 12.703125 41.921875 
C 15.40625 43.15625 18.203125 44 21.203125 44 
C 22.59375 44.09375 24.203125 44.296875 25.59375 44 
C 28.09375 43.59375 30.296875 42.078125 31.796875 39.953125 
C 33.296875 37.515625 33.90625 35.390625 33.90625 31.46875 
L 33.90625 27.015625 
C 29.09375 27.015625 24.296875 26.609375 19.703125 25.390625 
C 13.90625 24.078125 7.59375 21.125 5.5 15.84375 
C 3.40625 10.78125 5.59375 4.078125 10.09375 1.03125 
C 12.296875 -0.5 14.90625 -0.5 17.5 -0.296875 
C 21.703125 0 25.90625 1.015625 29.5 3.25 
C 31.203125 4.25 32.90625 5.578125 33.90625 7.296875 
L 34 7.296875 
L 34 0.203125 
L 40.296875 0.203125 
L 40.296875 26.890625 
C 40.296875 29.8125 40.59375 32.953125 40 35.890625 
C 39.40625 39.921875 36.90625 43.265625 34 45.59375 
C 30.59375 48.21875 26.703125 49.109375 21.5 48.71875 
C 16.703125 48.71875 13 47.5 9.40625 45.765625 
C 8.90625 45.5625 7.90625 45.234375 7.59375 44.640625 
C 7.296875 44.21875 7.5 43.515625 7.5 43 
C 7.703125 41.671875 7.796875 40.34375 7.90625 39.015625 
M 33.90625 24 
L 33.90625 16.375 
C 33.90625 14.0625 34 11.953125 32.703125 9.953125 
C 31.59375 8.34375 30.09375 7.234375 28.5 6.4375 
C 22.796875 3.515625 14.09375 4.421875 11.59375 9.25 
C 9.59375 12.75 11.703125 16.875 14.59375 19.1875 
C 18.90625 22.5 27.296875 24 33.90625 24 
" id="Computer_Modern_Bright-97"/>
      <path d="M 10.703125 42.078125 
C 1.796875 33.234375 0.796875 17.875 8.5 7.9375 
C 9.59375 6.421875 10.90625 5.125 12.40625 4.015625 
C 16.09375 1 21.5 -1.203125 27.796875 -0.5 
C 37.796875 0.703125 44.703125 8.84375 46.796875 17.375 
C 49.59375 29.328125 43.703125 42.671875 32.703125 46.890625 
C 24.09375 50.40625 15.5 46.890625 10.703125 42.078125 
M 35.703125 39.359375 
C 40.5 35.03125 41.40625 28.109375 41 21.984375 
C 40.703125 17.265625 39.40625 12.34375 36.09375 8.828125 
C 30.703125 3 20.703125 3 14.90625 8.625 
C 11.90625 11.84375 10.09375 16.453125 9.796875 21.984375 
C 9.296875 30.109375 11.296875 38.75 19.296875 41.96875 
C 25.203125 44.578125 32 42.671875 35.703125 39.359375 
" id="Computer_Modern_Bright-111"/>
      <path d="M 12.59375 37.28125 
L 12.5 37.28125 
L 12.5 47.390625 
L 6.40625 47.390625 
L 6.40625 0 
L 12.796875 0 
L 12.796875 21.9375 
C 12.796875 26.84375 12.5 31.875 14.703125 36.46875 
C 15.796875 38.78125 17.5 40.78125 19.796875 41.984375 
C 21.703125 42.890625 23.703125 42.890625 25.796875 42.6875 
C 28.796875 42.6875 31.703125 41.890625 33.59375 39.375 
C 35.40625 37.0625 35.5 34.0625 35.5 31.25 
L 35.5 0 
L 41.90625 0 
L 41.90625 26.859375 
C 41.90625 31.875 42.40625 37.375 40 41.890625 
C 38.09375 45.5 34.40625 47.203125 30.5 47.703125 
C 28.5 48 26.40625 48 24.40625 47.609375 
C 19.203125 46.5 14.40625 42.296875 12.59375 37.28125 
" id="Computer_Modern_Bright-110"/>
      <path d="M 10.59375 47.015625 
L 2 47.015625 
L 2 42 
L 10.59375 42 
L 10.59375 -0.5 
L 16.90625 -0.5 
L 16.90625 42 
L 29.296875 42 
L 29.296875 47.015625 
L 16.796875 47.015625 
L 16.796875 55.78125 
C 16.796875 57.1875 16.5 58.921875 17.09375 60.328125 
C 19.203125 64.75 26.296875 65.5625 32.09375 64.5625 
C 33.296875 64.359375 34.40625 63.953125 35.59375 63.75 
L 35.59375 69.390625 
C 28.796875 70.5 21.296875 70.5 15.703125 65.921875 
C 14.796875 65.125 14 64.34375 13.296875 63.328125 
C 11.203125 60.75 10.59375 57.875 10.59375 53.390625 
z
" id="Computer_Modern_Bright-102"/>
      <path d="M 12.59375 37.359375 
L 12.5 37.359375 
L 12.5 47.390625 
L 6.40625 47.390625 
L 6.40625 0 
L 12.796875 0 
L 12.796875 22.046875 
C 12.796875 26.953125 12.5 31.875 14.703125 36.375 
C 16.59375 40.28125 19.90625 43.390625 25.796875 42.78125 
C 28.796875 42.78125 31.796875 41.984375 33.703125 39.453125 
C 35.5 37.140625 35.59375 34.140625 35.59375 31.3125 
L 35.59375 0 
L 42 0 
L 42 22.046875 
C 42 26.953125 41.703125 31.875 43.90625 36.375 
C 45.796875 40.28125 49.09375 43.390625 55 42.78125 
C 58 42.78125 61 41.984375 62.90625 39.453125 
C 64.703125 37.140625 64.796875 34.140625 64.796875 31.3125 
L 64.796875 0 
L 71.203125 0 
L 71.203125 26.5625 
C 71.203125 31.375 71.796875 36.78125 69.703125 41.1875 
C 67.59375 45.296875 64.203125 47.5 58.703125 47.5 
C 55.5 47.796875 52.296875 47.3125 49.40625 45.84375 
C 45.90625 43.921875 43.296875 40.75 41.703125 37.265625 
C 41 40.578125 40.203125 42.828125 38 45 
C 35.703125 47.0625 32.59375 48 29.59375 48 
C 22.296875 48.59375 17.703125 45.5625 14.59375 41 
C 13.796875 39.875 13 38.671875 12.59375 37.359375 
" id="Computer_Modern_Bright-109"/>
     </defs>
     <g style="fill:#262626;" transform="translate(19.65327 267.065543)rotate(-90)scale(0.18 -0.18)">
      <use transform="scale(0.996264)" xlink:href="#Computer_Modern_Bright-68"/>
      <use transform="translate(71.606187 0)scale(0.996264)" xlink:href="#Computer_Modern_Bright-101"/>
      <use transform="translate(116.437855 0)scale(0.996264)" xlink:href="#Computer_Modern_Bright-118"/>
      <use transform="translate(158.778893 0)scale(0.996264)" xlink:href="#Computer_Modern_Bright-105"/>
      <use transform="translate(177.873851 0)scale(0.996264)" xlink:href="#Computer_Modern_Bright-97"/>
      <use transform="translate(224.365934 0)scale(0.996264)" xlink:href="#Computer_Modern_Bright-116"/>
      <use transform="translate(260.480322 0)scale(0.996264)" xlink:href="#Computer_Modern_Bright-105"/>
      <use transform="translate(279.57528 0)scale(0.996264)" xlink:href="#Computer_Modern_Bright-111"/>
      <use transform="translate(330.218498 0)scale(0.996264)" xlink:href="#Computer_Modern_Bright-110"/>
      <use transform="translate(409.836207 0)scale(0.996264)" xlink:href="#Computer_Modern_Bright-102"/>
      <use transform="translate(440.139151 0)scale(0.996264)" xlink:href="#Computer_Modern_Bright-114"/>
      <use transform="translate(472.10251 0)scale(0.996264)" xlink:href="#Computer_Modern_Bright-111"/>
      <use transform="translate(522.745728 0)scale(0.996264)" xlink:href="#Computer_Modern_Bright-109"/>
      <use transform="translate(631.421066 0)scale(0.996264)" xlink:href="#Computer_Modern_Bright-65"/>
      <use transform="translate(694.932683 0)scale(0.996264)" xlink:href="#Computer_Modern_Bright-100"/>
      <use transform="translate(743.08518 0)scale(0.996264)" xlink:href="#Computer_Modern_Bright-100"/>
      <use transform="translate(791.237677 0)scale(0.996264)" xlink:href="#Computer_Modern_Bright-105"/>
      <use transform="translate(810.332636 0)scale(0.996264)" xlink:href="#Computer_Modern_Bright-116"/>
      <use transform="translate(846.447024 0)scale(0.996264)" xlink:href="#Computer_Modern_Bright-105"/>
      <use transform="translate(865.541983 0)scale(0.996264)" xlink:href="#Computer_Modern_Bright-118"/>
      <use transform="translate(907.883021 0)scale(0.996264)" xlink:href="#Computer_Modern_Bright-101"/>
      <use transform="translate(984.1799 0)scale(0.996264)" xlink:href="#Computer_Modern_Bright-69"/>
      <use transform="translate(1042.917687 0)scale(0.996264)" xlink:href="#Computer_Modern_Bright-11"/>
      <use transform="translate(1100.617755 0)scale(0.996264)" xlink:href="#Computer_Modern_Bright-101"/>
      <use transform="translate(1145.449422 0)scale(0.996264)" xlink:href="#Computer_Modern_Bright-99"/>
      <use transform="translate(1190.28109 0)scale(0.996264)" xlink:href="#Computer_Modern_Bright-116"/>
     </g>
    </g>
   </g>
   <g id="PathCollection_1">
    <path clip-path="url(#p2d64810519)" d="M 140.863358 99.025363 
C 141.533218 99.025363 142.175732 98.759225 142.649394 98.285563 
C 143.123057 97.8119 143.389195 97.169386 143.389195 96.499527 
C 143.389195 95.829667 143.123057 95.187153 142.649394 94.713491 
C 142.175732 94.239828 141.533218 93.97369 140.863358 93.97369 
C 140.193499 93.97369 139.550985 94.239828 139.077322 94.713491 
C 138.60366 95.187153 138.337522 95.829667 138.337522 96.499527 
C 138.337522 97.169386 138.60366 97.8119 139.077322 98.285563 
C 139.550985 98.759225 140.193499 99.025363 140.863358 99.025363 
z
" style="fill:#404588;"/>
    <path clip-path="url(#p2d64810519)" d="M 216.287466 111.193641 
C 217.142154 111.193641 217.961951 110.85407 218.566307 110.249714 
C 219.170663 109.645358 219.510234 108.825561 219.510234 107.970872 
C 219.510234 107.116184 219.170663 106.296387 218.566307 105.692031 
C 217.961951 105.087675 217.142154 104.748104 216.287466 104.748104 
C 215.432777 104.748104 214.61298 105.087675 214.008624 105.692031 
C 213.404268 106.296387 213.064697 107.116184 213.064697 107.970872 
C 213.064697 108.825561 213.404268 109.645358 214.008624 110.249714 
C 214.61298 110.85407 215.432777 111.193641 216.287466 111.193641 
z
" style="fill:#d5e21a;"/>
    <path clip-path="url(#p2d64810519)" d="M 113.268679 56.012178 
C 114.56686 56.012178 115.812046 55.496406 116.729999 54.578453 
C 117.647951 53.6605 118.163724 52.415314 118.163724 51.117133 
C 118.163724 49.818952 117.647951 48.573766 116.729999 47.655814 
C 115.812046 46.737861 114.56686 46.222088 113.268679 46.222088 
C 111.970498 46.222088 110.725312 46.737861 109.80736 47.655814 
C 108.889407 48.573766 108.373634 49.818952 108.373634 51.117133 
C 108.373634 52.415314 108.889407 53.6605 109.80736 54.578453 
C 110.725312 55.496406 111.970498 56.012178 113.268679 56.012178 
z
" style="fill:#6ccd5a;"/>
    <path clip-path="url(#p2d64810519)" d="M 109.893393 56.287733 
C 111.089834 56.287733 112.237433 55.812382 113.083444 54.966371 
C 113.929456 54.120359 114.404807 52.97276 114.404807 51.776319 
C 114.404807 50.579878 113.929456 49.43228 113.083444 48.586268 
C 112.237433 47.740256 111.089834 47.264905 109.893393 47.264905 
C 108.696952 47.264905 107.549353 47.740256 106.703342 48.586268 
C 105.85733 49.43228 105.381979 50.579878 105.381979 51.776319 
C 105.381979 52.97276 105.85733 54.120359 106.703342 54.966371 
C 107.549353 55.812382 108.696952 56.287733 109.893393 56.287733 
z
" style="fill:#5ec962;"/>
    <path clip-path="url(#p2d64810519)" d="M 159.386881 75.516581 
C 160.813175 75.516581 162.181243 74.949909 163.189785 73.941367 
C 164.198327 72.932825 164.764999 71.564757 164.764999 70.138463 
C 164.764999 68.71217 164.198327 67.344101 163.189785 66.33556 
C 162.181243 65.327018 160.813175 64.760345 159.386881 64.760345 
C 157.960588 64.760345 156.592519 65.327018 155.583977 66.33556 
C 154.575436 67.344101 154.008763 68.71217 154.008763 70.138463 
C 154.008763 71.564757 154.575436 72.932825 155.583977 73.941367 
C 156.592519 74.949909 157.960588 75.516581 159.386881 75.516581 
z
" style="fill:#c0df25;"/>
    <path clip-path="url(#p2d64810519)" d="M 429.798318 216.615453 
C 430.579028 216.615453 431.327868 216.305274 431.879913 215.753228 
C 432.431958 215.201183 432.742138 214.452344 432.742138 213.671633 
C 432.742138 212.890923 432.431958 212.142084 431.879913 211.590038 
C 431.327868 211.037993 430.579028 210.727813 429.798318 210.727813 
C 429.017608 210.727813 428.268768 211.037993 427.716723 211.590038 
C 427.164677 212.142084 426.854498 212.890923 426.854498 213.671633 
C 426.854498 214.452344 427.164677 215.201183 427.716723 215.753228 
C 428.268768 216.305274 429.017608 216.615453 429.798318 216.615453 
z
" style="fill:#440154;"/>
    <path clip-path="url(#p2d64810519)" d="M 200.115513 98.4586 
C 201.436791 98.4586 202.70413 97.933651 203.638414 96.999367 
C 204.572698 96.065082 205.097648 94.797743 205.097648 93.476466 
C 205.097648 92.155188 204.572698 90.887849 203.638414 89.953565 
C 202.70413 89.01928 201.436791 88.494331 200.115513 88.494331 
C 198.794236 88.494331 197.526897 89.01928 196.592612 89.953565 
C 195.658328 90.887849 195.133379 92.155188 195.133379 93.476466 
C 195.133379 94.797743 195.658328 96.065082 196.592612 96.999367 
C 197.526897 97.933651 198.794236 98.4586 200.115513 98.4586 
z
" style="fill:#fde725;"/>
    <path clip-path="url(#p2d64810519)" d="M 138.826154 85.917729 
C 139.920377 85.917729 140.969929 85.48299 141.743661 84.709258 
C 142.517393 83.935526 142.952132 82.885973 142.952132 81.791751 
C 142.952132 80.697529 142.517393 79.647976 141.743661 78.874244 
C 140.969929 78.100512 139.920377 77.665773 138.826154 77.665773 
C 137.731932 77.665773 136.682379 78.100512 135.908648 78.874244 
C 135.134916 79.647976 134.700177 80.697529 134.700177 81.791751 
C 134.700177 82.885973 135.134916 83.935526 135.908648 84.709258 
C 136.682379 85.48299 137.731932 85.917729 138.826154 85.917729 
z
" style="fill:#1f948c;"/>
    <path clip-path="url(#p2d64810519)" d="M 305.484831 183.068934 
C 306.546745 183.068934 307.565308 182.647031 308.316195 181.896144 
C 309.067082 181.145258 309.488985 180.126694 309.488985 179.06478 
C 309.488985 178.002866 309.067082 176.984302 308.316195 176.233415 
C 307.565308 175.482528 306.546745 175.060626 305.484831 175.060626 
C 304.422917 175.060626 303.404353 175.482528 302.653466 176.233415 
C 301.902579 176.984302 301.480677 178.002866 301.480677 179.06478 
C 301.480677 180.126694 301.902579 181.145258 302.653466 181.896144 
C 303.404353 182.647031 304.422917 183.068934 305.484831 183.068934 
z
" style="fill:#472d7b;"/>
    <path clip-path="url(#p2d64810519)" d="M 207.674837 84.149651 
C 208.611346 84.149651 209.509625 83.777572 210.171837 83.11536 
C 210.834049 82.453148 211.206128 81.554869 211.206128 80.61836 
C 211.206128 79.681851 210.834049 78.783572 210.171837 78.12136 
C 209.509625 77.459148 208.611346 77.087069 207.674837 77.087069 
C 206.738328 77.087069 205.840049 77.459148 205.177837 78.12136 
C 204.515625 78.783572 204.143546 79.681851 204.143546 80.61836 
C 204.143546 81.554869 204.515625 82.453148 205.177837 83.11536 
C 205.840049 83.777572 206.738328 84.149651 207.674837 84.149651 
z
" style="fill:#1e9d89;"/>
    <path clip-path="url(#p2d64810519)" d="M 214.397739 104.34292 
C 215.170845 104.34292 215.91239 104.035762 216.459059 103.489093 
C 217.005727 102.942425 217.312885 102.20088 217.312885 101.427774 
C 217.312885 100.654668 217.005727 99.913123 216.459059 99.366455 
C 215.91239 98.819787 215.170845 98.512628 214.397739 98.512628 
C 213.624634 98.512628 212.883088 98.819787 212.33642 99.366455 
C 211.789752 99.913123 211.482594 100.654668 211.482594 101.427774 
C 211.482594 102.20088 211.789752 102.942425 212.33642 103.489093 
C 212.883088 104.035762 213.624634 104.34292 214.397739 104.34292 
z
" style="fill:#efe51c;"/>
    <path clip-path="url(#p2d64810519)" d="M 179.670142 112.800258 
C 181.082364 112.800258 182.436936 112.239176 183.435527 111.240584 
C 184.434119 110.241993 184.995201 108.887421 184.995201 107.475199 
C 184.995201 106.062977 184.434119 104.708406 183.435527 103.709814 
C 182.436936 102.711222 181.082364 102.15014 179.670142 102.15014 
C 178.25792 102.15014 176.903349 102.711222 175.904757 103.709814 
C 174.906165 104.708406 174.345083 106.062977 174.345083 107.475199 
C 174.345083 108.887421 174.906165 110.241993 175.904757 111.240584 
C 176.903349 112.239176 178.25792 112.800258 179.670142 112.800258 
z
" style="fill:#26828e;"/>
    <path clip-path="url(#p2d64810519)" d="M 261.841748 130.964469 
C 262.577466 130.964469 263.283149 130.672166 263.80338 130.151935 
C 264.323611 129.631704 264.615915 128.926021 264.615915 128.190303 
C 264.615915 127.454586 264.323611 126.748902 263.80338 126.228671 
C 263.283149 125.708441 262.577466 125.416137 261.841748 125.416137 
C 261.106031 125.416137 260.400348 125.708441 259.880117 126.228671 
C 259.359886 126.748902 259.067582 127.454586 259.067582 128.190303 
C 259.067582 128.926021 259.359886 129.631704 259.880117 130.151935 
C 260.400348 130.672166 261.106031 130.964469 261.841748 130.964469 
z
" style="fill:#24aa83;"/>
    <path clip-path="url(#p2d64810519)" d="M 83.797872 43.413248 
C 84.823644 43.413248 85.807542 43.005704 86.532872 42.280374 
C 87.258203 41.555043 87.665746 40.571146 87.665746 39.545374 
C 87.665746 38.519602 87.258203 37.535704 86.532872 36.810374 
C 85.807542 36.085043 84.823644 35.6775 83.797872 35.6775 
C 82.7721 35.6775 81.788202 36.085043 81.062872 36.810374 
C 80.337542 37.535704 79.929998 38.519602 79.929998 39.545374 
C 79.929998 40.571146 80.337542 41.555043 81.062872 42.280374 
C 81.788202 43.005704 82.7721 43.413248 83.797872 43.413248 
z
" style="fill:#23a983;"/>
    <path clip-path="url(#p2d64810519)" d="M 108.508673 28.652688 
C 109.616558 28.652688 110.679215 28.212521 111.462607 27.429129 
C 112.246 26.645736 112.686167 25.583079 112.686167 24.475195 
C 112.686167 23.367311 112.246 22.304653 111.462607 21.521261 
C 110.679215 20.737868 109.616558 20.297701 108.508673 20.297701 
C 107.400789 20.297701 106.338132 20.737868 105.554739 21.521261 
C 104.771347 22.304653 104.33118 23.367311 104.33118 24.475195 
C 104.33118 25.583079 104.771347 26.645736 105.554739 27.429129 
C 106.338132 28.212521 107.400789 28.652688 108.508673 28.652688 
z
" style="fill:#3a538b;"/>
    <path clip-path="url(#p2d64810519)" d="M 78.180056 53.487867 
C 79.337266 53.487867 80.447236 53.028103 81.265507 52.209832 
C 82.083778 51.391561 82.543542 50.281591 82.543542 49.124382 
C 82.543542 47.967172 82.083778 46.857202 81.265507 46.038931 
C 80.447236 45.22066 79.337266 44.760896 78.180056 44.760896 
C 77.022846 44.760896 75.912877 45.22066 75.094606 46.038931 
C 74.276335 46.857202 73.816571 47.967172 73.816571 49.124382 
C 73.816571 50.281591 74.276335 51.391561 75.094606 52.209832 
C 75.912877 53.028103 77.022846 53.487867 78.180056 53.487867 
z
" style="fill:#2c728e;"/>
    <path clip-path="url(#p2d64810519)" d="M 248.809527 195.127778 
C 249.622829 195.127778 250.402929 194.80465 250.97802 194.229559 
C 251.553111 193.654468 251.876239 192.874367 251.876239 192.061066 
C 251.876239 191.247764 251.553111 190.467664 250.97802 189.892572 
C 250.402929 189.317481 249.622829 188.994353 248.809527 188.994353 
C 247.996225 188.994353 247.216125 189.317481 246.641034 189.892572 
C 246.065943 190.467664 245.742815 191.247764 245.742815 192.061066 
C 245.742815 192.874367 246.065943 193.654468 246.641034 194.229559 
C 247.216125 194.80465 247.996225 195.127778 248.809527 195.127778 
z
" style="fill:#482475;"/>
    <path clip-path="url(#p2d64810519)" d="M 103.542589 51.091632 
C 104.57921 51.091632 105.573513 50.679778 106.306515 49.946776 
C 107.039517 49.213775 107.45137 48.219471 107.45137 47.18285 
C 107.45137 46.146229 107.039517 45.151926 106.306515 44.418924 
C 105.573513 43.685922 104.57921 43.274069 103.542589 43.274069 
C 102.505968 43.274069 101.511664 43.685922 100.778663 44.418924 
C 100.045661 45.151926 99.633807 46.146229 99.633807 47.18285 
C 99.633807 48.219471 100.045661 49.213775 100.778663 49.946776 
C 101.511664 50.679778 102.505968 51.091632 103.542589 51.091632 
z
" style="fill:#52c569;"/>
    <path clip-path="url(#p2d64810519)" d="M 82.759548 41.058168 
C 83.623376 41.058168 84.451941 40.714965 85.062761 40.104146 
C 85.67358 39.493327 86.016783 38.664762 86.016783 37.800933 
C 86.016783 36.937104 85.67358 36.108539 85.062761 35.49772 
C 84.451941 34.886901 83.623376 34.543698 82.759548 34.543698 
C 81.895719 34.543698 81.067154 34.886901 80.456335 35.49772 
C 79.845515 36.108539 79.502313 36.937104 79.502313 37.800933 
C 79.502313 38.664762 79.845515 39.493327 80.456335 40.104146 
C 81.067154 40.714965 81.895719 41.058168 82.759548 41.058168 
z
" style="fill:#22a884;"/>
    <path clip-path="url(#p2d64810519)" d="M 95.19675 40.957922 
C 96.450461 40.957922 97.652991 40.459817 98.539499 39.57331 
C 99.426006 38.686803 99.92411 37.484272 99.92411 36.230562 
C 99.92411 34.976851 99.426006 33.774321 98.539499 32.887813 
C 97.652991 32.001306 96.450461 31.503202 95.19675 31.503202 
C 93.94304 31.503202 92.740509 32.001306 91.854002 32.887813 
C 90.967495 33.774321 90.46939 34.976851 90.46939 36.230562 
C 90.46939 37.484272 90.967495 38.686803 91.854002 39.57331 
C 92.740509 40.459817 93.94304 40.957922 95.19675 40.957922 
z
" style="fill:#2cb17e;"/>
    <path clip-path="url(#p2d64810519)" d="M 189.733751 101.031466 
C 190.907229 101.031466 192.032802 100.565238 192.862577 99.735464 
C 193.692351 98.905689 194.158579 97.780116 194.158579 96.606638 
C 194.158579 95.433159 193.692351 94.307586 192.862577 93.477812 
C 192.032802 92.648037 190.907229 92.181809 189.733751 92.181809 
C 188.560273 92.181809 187.434699 92.648037 186.604925 93.477812 
C 185.77515 94.307586 185.308923 95.433159 185.308923 96.606638 
C 185.308923 97.780116 185.77515 98.905689 186.604925 99.735464 
C 187.434699 100.565238 188.560273 101.031466 189.733751 101.031466 
z
" style="fill:#cae11f;"/>
    <path clip-path="url(#p2d64810519)" d="M 131.624083 53.025873 
C 132.956348 53.025873 134.234227 52.496558 135.176281 51.554504 
C 136.118335 50.61245 136.64765 49.334571 136.64765 48.002306 
C 136.64765 46.67004 136.118335 45.392161 135.176281 44.450107 
C 134.234227 43.508053 132.956348 42.978739 131.624083 42.978739 
C 130.291817 42.978739 129.013938 43.508053 128.071884 44.450107 
C 127.12983 45.392161 126.600516 46.67004 126.600516 48.002306 
C 126.600516 49.334571 127.12983 50.61245 128.071884 51.554504 
C 129.013938 52.496558 130.291817 53.025873 131.624083 53.025873 
z
" style="fill:#31b57b;"/>
    <path clip-path="url(#p2d64810519)" d="M 224.322355 115.899347 
C 225.092576 115.899347 225.831355 115.593335 226.375983 115.048707 
C 226.920612 114.504078 227.226624 113.7653 227.226624 112.995079 
C 227.226624 112.224858 226.920612 111.486079 226.375983 110.941451 
C 225.831355 110.396822 225.092576 110.09081 224.322355 110.09081 
C 223.552134 110.09081 222.813355 110.396822 222.268727 110.941451 
C 221.724098 111.486079 221.418086 112.224858 221.418086 112.995079 
C 221.418086 113.7653 221.724098 114.504078 222.268727 115.048707 
C 222.813355 115.593335 223.552134 115.899347 224.322355 115.899347 
z
" style="fill:#b5de2b;"/>
    <path clip-path="url(#p2d64810519)" d="M 281.131506 218.647468 
C 282.426401 218.647468 283.668434 218.133001 284.584063 217.217372 
C 285.499692 216.301743 286.014159 215.059709 286.014159 213.764815 
C 286.014159 212.46992 285.499692 211.227886 284.584063 210.312257 
C 283.668434 209.396628 282.426401 208.882161 281.131506 208.882161 
C 279.836611 208.882161 278.594577 209.396628 277.678948 210.312257 
C 276.76332 211.227886 276.248852 212.46992 276.248852 213.764815 
C 276.248852 215.059709 276.76332 216.301743 277.678948 217.217372 
C 278.594577 218.133001 279.836611 218.647468 281.131506 218.647468 
z
" style="fill:#481f70;"/>
    <path clip-path="url(#p2d64810519)" d="M 197.975982 93.433567 
C 198.833802 93.433567 199.656603 93.092752 200.263174 92.486181 
C 200.869745 91.879611 201.21056 91.056809 201.21056 90.198989 
C 201.21056 89.341168 200.869745 88.518367 200.263174 87.911796 
C 199.656603 87.305226 198.833802 86.96441 197.975982 86.96441 
C 197.118161 86.96441 196.29536 87.305226 195.688789 87.911796 
C 195.082219 88.518367 194.741403 89.341168 194.741403 90.198989 
C 194.741403 91.056809 195.082219 91.879611 195.688789 92.486181 
C 196.29536 93.092752 197.118161 93.433567 197.975982 93.433567 
z
" style="fill:#f4e61e;"/>
    <path clip-path="url(#p2d64810519)" d="M 212.200157 105.077963 
C 213.187195 105.077963 214.133938 104.685809 214.831879 103.987869 
C 215.529819 103.289928 215.921973 102.343185 215.921973 101.356148 
C 215.921973 100.369111 215.529819 99.422367 214.831879 98.724426 
C 214.133938 98.026486 213.187195 97.634332 212.200157 97.634332 
C 211.21312 97.634332 210.266377 98.026486 209.568436 98.724426 
C 208.870496 99.422367 208.478342 100.369111 208.478342 101.356148 
C 208.478342 102.343185 208.870496 103.289928 209.568436 103.987869 
C 210.266377 104.685809 211.21312 105.077963 212.200157 105.077963 
z
" style="fill:#f4e61e;"/>
    <path clip-path="url(#p2d64810519)" d="M 212.200157 105.077963 
C 213.187195 105.077963 214.133938 104.685809 214.831879 103.987869 
C 215.529819 103.289928 215.921973 102.343185 215.921973 101.356148 
C 215.921973 100.369111 215.529819 99.422367 214.831879 98.724426 
C 214.133938 98.026486 213.187195 97.634332 212.200157 97.634332 
C 211.21312 97.634332 210.266377 98.026486 209.568436 98.724426 
C 208.870496 99.422367 208.478342 100.369111 208.478342 101.356148 
C 208.478342 102.343185 208.870496 103.289928 209.568436 103.987869 
C 210.266377 104.685809 211.21312 105.077963 212.200157 105.077963 
z
" style="fill:#f4e61e;"/>
    <path clip-path="url(#p2d64810519)" d="M 477.037161 174.944468 
C 477.440898 174.944468 477.828154 174.784061 478.11364 174.498576 
C 478.399125 174.21309 478.559532 173.825834 478.559532 173.422097 
C 478.559532 173.018359 478.399125 172.631104 478.11364 172.345618 
C 477.828154 172.060132 477.440898 171.899726 477.037161 171.899726 
C 476.633423 171.899726 476.246168 172.060132 475.960682 172.345618 
C 475.675197 172.631104 475.51479 173.018359 475.51479 173.422097 
C 475.51479 173.825834 475.675197 174.21309 475.960682 174.498576 
C 476.246168 174.784061 476.633423 174.944468 477.037161 174.944468 
z
" style="fill:#440154;"/>
    <path clip-path="url(#p2d64810519)" d="M 253.353485 141.599483 
C 254.148393 141.599483 254.91085 141.283663 255.472934 140.721578 
C 256.035018 140.159494 256.350838 139.397037 256.350838 138.60213 
C 256.350838 137.807222 256.035018 137.044766 255.472934 136.482681 
C 254.91085 135.920597 254.148393 135.604777 253.353485 135.604777 
C 252.558578 135.604777 251.796121 135.920597 251.234037 136.482681 
C 250.671952 137.044766 250.356132 137.807222 250.356132 138.60213 
C 250.356132 139.397037 250.671952 140.159494 251.234037 140.721578 
C 251.796121 141.283663 252.558578 141.599483 253.353485 141.599483 
z
" style="fill:#1f958b;"/>
    <path clip-path="url(#p2d64810519)" d="M 90.315021 45.490425 
C 91.698183 45.490425 93.024881 44.940889 94.002924 43.962845 
C 94.980968 42.984802 95.530504 41.658104 95.530504 40.274942 
C 95.530504 38.891779 94.980968 37.565082 94.002924 36.587038 
C 93.024881 35.608995 91.698183 35.059459 90.315021 35.059459 
C 88.931858 35.059459 87.605161 35.608995 86.627117 36.587038 
C 85.649074 37.565082 85.099538 38.891779 85.099538 40.274942 
C 85.099538 41.658104 85.649074 42.984802 86.627117 43.962845 
C 87.605161 44.940889 88.931858 45.490425 90.315021 45.490425 
z
" style="fill:#31b57b;"/>
    <path clip-path="url(#p2d64810519)" d="M 273.794091 153.456565 
C 274.500032 153.456565 275.177154 153.176092 275.67633 152.676916 
C 276.175506 152.17774 276.455979 151.500618 276.455979 150.794677 
C 276.455979 150.088736 276.175506 149.411613 275.67633 148.912438 
C 275.177154 148.413262 274.500032 148.132789 273.794091 148.132789 
C 273.08815 148.132789 272.411027 148.413262 271.911852 148.912438 
C 271.412676 149.411613 271.132203 150.088736 271.132203 150.794677 
C 271.132203 151.500618 271.412676 152.17774 271.911852 152.676916 
C 272.411027 153.176092 273.08815 153.456565 273.794091 153.456565 
z
" style="fill:#2c738e;"/>
    <path clip-path="url(#p2d64810519)" d="M 245.663022 148.498662 
C 247.031899 148.498662 248.344895 147.954801 249.312837 146.986859 
C 250.280779 146.018917 250.82464 144.705921 250.82464 143.337044 
C 250.82464 141.968167 250.280779 140.655172 249.312837 139.68723 
C 248.344895 138.719288 247.031899 138.175427 245.663022 138.175427 
C 244.294145 138.175427 242.98115 138.719288 242.013208 139.68723 
C 241.045265 140.655172 240.501405 141.968167 240.501405 143.337044 
C 240.501405 144.705921 241.045265 146.018917 242.013208 146.986859 
C 242.98115 147.954801 244.294145 148.498662 245.663022 148.498662 
z
" style="fill:#2e6f8e;"/>
    <path clip-path="url(#p2d64810519)" d="M 216.387952 106.83674 
C 217.233097 106.83674 218.04374 106.500961 218.641347 105.903353 
C 219.238955 105.305746 219.574734 104.495103 219.574734 103.649958 
C 219.574734 102.804814 219.238955 101.994171 218.641347 101.396563 
C 218.04374 100.798956 217.233097 100.463177 216.387952 100.463177 
C 215.542808 100.463177 214.732165 100.798956 214.134558 101.396563 
C 213.53695 101.994171 213.201171 102.804814 213.201171 103.649958 
C 213.201171 104.495103 213.53695 105.305746 214.134558 105.903353 
C 214.732165 106.500961 215.542808 106.83674 216.387952 106.83674 
z
" style="fill:#eae51a;"/>
    <path clip-path="url(#p2d64810519)" d="M 167.975543 76.256564 
C 169.15446 76.256564 170.285249 75.788176 171.118869 74.954556 
C 171.952488 74.120937 172.420877 72.990147 172.420877 71.811231 
C 172.420877 70.632315 171.952488 69.501525 171.118869 68.667906 
C 170.285249 67.834286 169.15446 67.365898 167.975543 67.365898 
C 166.796627 67.365898 165.665838 67.834286 164.832218 68.667906 
C 163.998599 69.501525 163.53021 70.632315 163.53021 71.811231 
C 163.53021 72.990147 163.998599 74.120937 164.832218 74.954556 
C 165.665838 75.788176 166.796627 76.256564 167.975543 76.256564 
z
" style="fill:#b5de2b;"/>
    <path clip-path="url(#p2d64810519)" d="M 161.470614 75.076456 
C 162.882786 75.076456 164.237309 74.515394 165.235865 73.516838 
C 166.234421 72.518282 166.795483 71.163759 166.795483 69.751587 
C 166.795483 68.339416 166.234421 66.984893 165.235865 65.986337 
C 164.237309 64.987781 162.882786 64.426719 161.470614 64.426719 
C 160.058443 64.426719 158.70392 64.987781 157.705364 65.986337 
C 156.706808 66.984893 156.145746 68.339416 156.145746 69.751587 
C 156.145746 71.163759 156.706808 72.518282 157.705364 73.516838 
C 158.70392 74.515394 160.058443 75.076456 161.470614 75.076456 
z
" style="fill:#b8de29;"/>
    <path clip-path="url(#p2d64810519)" d="M 248.165504 113.25746 
C 249.270064 113.25746 250.329533 112.818614 251.110575 112.037572 
C 251.891617 111.25653 252.330463 110.197061 252.330463 109.092501 
C 252.330463 107.987941 251.891617 106.928472 251.110575 106.14743 
C 250.329533 105.366389 249.270064 104.927542 248.165504 104.927542 
C 247.060944 104.927542 246.001475 105.366389 245.220433 106.14743 
C 244.439392 106.928472 244.000545 107.987941 244.000545 109.092501 
C 244.000545 110.197061 244.439392 111.25653 245.220433 112.037572 
C 246.001475 112.818614 247.060944 113.25746 248.165504 113.25746 
z
" style="fill:#22a884;"/>
    <path clip-path="url(#p2d64810519)" d="M 220.319736 194.484773 
C 221.066692 194.484773 221.783155 194.188004 222.311333 193.659826 
C 222.839511 193.131649 223.13628 192.415185 223.13628 191.668229 
C 223.13628 190.921273 222.839511 190.20481 222.311333 189.676632 
C 221.783155 189.148454 221.066692 188.851685 220.319736 188.851685 
C 219.572779 188.851685 218.856316 189.148454 218.328138 189.676632 
C 217.799961 190.20481 217.503192 190.921273 217.503192 191.668229 
C 217.503192 192.415185 217.799961 193.131649 218.328138 193.659826 
C 218.856316 194.188004 219.572779 194.484773 220.319736 194.484773 
z
" style="fill:#481a6c;"/>
    <path clip-path="url(#p2d64810519)" d="M 242.344283 101.869827 
C 243.070098 101.869827 243.766284 101.581458 244.279512 101.068229 
C 244.792741 100.555 245.08111 99.858815 245.08111 99.133 
C 245.08111 98.407185 244.792741 97.711 244.279512 97.197771 
C 243.766284 96.684543 243.070098 96.396173 242.344283 96.396173 
C 241.618469 96.396173 240.922283 96.684543 240.409055 97.197771 
C 239.895826 97.711 239.607457 98.407185 239.607457 99.133 
C 239.607457 99.858815 239.895826 100.555 240.409055 101.068229 
C 240.922283 101.581458 241.618469 101.869827 242.344283 101.869827 
z
" style="fill:#24868e;"/>
   </g>
   <g id="line2d_13">
    <path clip-path="url(#p2d64810519)" d="M 140.863358 65.161075 
L 216.287466 97.549607 
L 113.268679 53.3114 
L 109.893393 51.861989 
L 159.386881 73.115424 
L 429.798318 189.235189 
L 200.115513 90.605066 
L 138.826154 64.286261 
L 305.484831 135.852636 
L 207.674837 93.851182 
L 214.397739 96.738123 
L 179.670142 81.825439 
L 261.841748 117.111474 
L 83.797872 40.65608 
L 108.508673 51.267364 
L 78.180056 38.243684 
L 248.809527 111.515193 
L 103.542589 49.134834 
L 82.759548 40.210204 
L 95.19675 45.550973 
L 189.733751 86.146942 
L 131.624083 61.193556 
L 224.322355 100.99994 
L 281.131506 125.394859 
L 197.975982 89.686311 
L 212.200157 95.79444 
L 212.200157 95.79444 
L 477.037161 209.520438 
L 253.353485 113.466454 
L 90.315021 43.454667 
L 273.794091 122.244035 
L 245.663022 110.164025 
L 216.387952 97.592758 
L 167.975543 76.803558 
L 161.470614 74.010219 
L 248.165504 111.238637 
L 220.319736 99.28114 
L 242.344283 108.738896 
" style="fill:none;stroke:#000000;stroke-linecap:round;stroke-width:1.5;"/>
   </g>
   <g id="line2d_14">
    <path clip-path="url(#p2d64810519)" d="M 74.699518 20.79 
L 480.517699 292.59 
L 480.517699 292.59 
" style="fill:none;stroke:#ff0000;stroke-linecap:round;stroke-width:2;"/>
   </g>
   <g id="patch_3">
    <path d="M 54.408609 306.18 
L 54.408609 7.2 
" style="fill:none;"/>
   </g>
   <g id="patch_4">
    <path d="M 500.808609 306.18 
L 500.808609 7.2 
" style="fill:none;"/>
   </g>
   <g id="patch_5">
    <path d="M 54.408609 306.18 
L 500.808609 306.18 
" style="fill:none;"/>
   </g>
   <g id="patch_6">
    <path d="M 54.408609 7.2 
L 500.808609 7.2 
" style="fill:none;"/>
   </g>
   <g id="legend_1">
    <g id="line2d_15">
     <path d="M 324.18954 24.7 
L 352.18954 24.7 
" style="fill:none;stroke:#000000;stroke-linecap:round;stroke-width:1.5;"/>
    </g>
    <g id="line2d_16"/>
    <g id="text_15">
     <!-- Unbranched Pathway -->
     <defs>
      <path d="M 8 69.5 
L 8 32.75 
C 8 25.71875 7.203125 18.390625 10.703125 11.96875 
C 12.90625 7.84375 16.09375 4.4375 20.09375 2.125 
C 29.90625 -3.609375 43.5 -2.203125 51.296875 6.4375 
C 54.796875 10.359375 57.296875 15.171875 57.796875 21.796875 
C 57.90625 23.40625 57.796875 24.921875 57.796875 26.515625 
L 57.796875 69.5 
L 51.40625 69.5 
L 51.40625 25.90625 
C 51.40625 24.59375 51.5 23.1875 51.40625 21.890625 
C 51.203125 18.890625 50.59375 15.921875 49.40625 13.25 
C 43.90625 1 25 1 18 11.890625 
C 14.203125 17.78125 15 25.0625 15 31.65625 
L 15 69.5 
z
" id="Computer_Modern_Bright-85"/>
      <path d="M 6.40625 69.6875 
L 6.40625 0 
L 12.796875 0 
L 12.796875 6.328125 
L 12.90625 6.328125 
C 14 4.109375 16.5 2.015625 18.59375 0.90625 
C 25.796875 -2.90625 34.40625 0.90625 39.09375 7.03125 
C 48.59375 19.578125 44.796875 40.875 32.296875 46.796875 
C 27.40625 49 21.5 48 17.09375 44.984375 
C 15.40625 43.78125 14 42.375 12.703125 40.765625 
L 12.703125 69.6875 
z
M 21.90625 42.984375 
C 26.59375 43.375 31.5 41.265625 34.296875 37.453125 
C 36.203125 34.9375 37.203125 31.9375 37.703125 28.8125 
C 38.703125 21.484375 37.90625 12.25 31.40625 7.4375 
C 30.296875 6.625 29.09375 6.03125 27.796875 5.515625 
C 22.40625 3.515625 17 4.109375 14 8.84375 
C 13.09375 10.4375 12.796875 10.546875 12.796875 12.953125 
L 12.796875 33.734375 
C 12.796875 34.75 12.59375 35.953125 13 36.859375 
C 14.59375 40.171875 18.296875 42.671875 21.90625 42.984375 
" id="Computer_Modern_Bright-98"/>
      <path d="M 6.40625 69.6875 
L 6.40625 0 
L 12.796875 0 
L 12.796875 21.984375 
C 12.796875 26.90625 12.5 31.9375 14.703125 36.546875 
C 15.796875 38.859375 17.5 40.875 19.796875 42.078125 
C 21.703125 42.984375 23.703125 42.984375 25.796875 42.78125 
C 28.796875 42.78125 31.703125 41.984375 33.59375 39.453125 
C 35.40625 37.140625 35.5 34.140625 35.5 31.3125 
L 35.5 0 
L 41.90625 0 
L 41.90625 27.21875 
C 41.90625 32.234375 42.40625 37.75 39.90625 42.28125 
C 37.90625 45.6875 34.40625 47.296875 30.703125 47.796875 
C 28.703125 48 26.703125 48 24.703125 47.703125 
C 21.09375 47.015625 18 45.03125 15.59375 42.34375 
C 14.5 41.046875 13.203125 39.46875 12.796875 37.765625 
L 12.703125 37.765625 
L 12.703125 69.6875 
z
" id="Computer_Modern_Bright-104"/>
      <path d="M 0.703125 47.5 
C 0.90625 46.203125 14.40625 0.90625 14.40625 0.90625 
C 14.703125 0 15.203125 0 16.5 0 
L 19.59375 0 
C 20.09375 0 20.796875 -0.09375 21.09375 0.296875 
C 21.40625 0.609375 22.296875 3.8125 22.296875 3.8125 
C 25.296875 14.625 30.5 30.96875 32.5 41.09375 
L 32.59375 41.09375 
C 32.59375 39.6875 33.09375 38.28125 33.40625 36.890625 
C 35 29.765625 43.5 1 43.90625 0.296875 
C 44.203125 -0.203125 45 0 45.5 0 
L 49.296875 0 
C 49.796875 0 50.5 -0.09375 50.90625 0.109375 
C 51.203125 0.296875 51.296875 0.703125 51.40625 1 
C 54.40625 11.640625 64.703125 45.203125 65.09375 47.5 
C 63 47.5 60.90625 47.5 59.09375 47.203125 
L 58.703125 46.1875 
C 54.90625 33 50.796875 20.203125 47.40625 6.609375 
L 47.296875 6.609375 
L 46.203125 11.21875 
L 35.703125 47.5 
L 29.796875 47.5 
C 26 33.875 21.59375 20.84375 18.40625 6.609375 
L 16.703125 13.609375 
C 13.40625 24.8125 10.296875 36.203125 6.90625 47.203125 
C 5.09375 47.5 2.796875 47.5 0.703125 47.5 
" id="Computer_Modern_Bright-119"/>
      <path d="M 0.703125 47.65625 
C 1.296875 45.75 5.40625 35.609375 5.5 35.3125 
L 17.40625 4.578125 
L 18.40625 2.078125 
C 19 0.671875 19.203125 0.46875 18.59375 -1.140625 
L 17.5 -4.046875 
C 16.59375 -6.46875 15.59375 -8.96875 13.703125 -10.484375 
C 10.296875 -13.296875 4.90625 -11.6875 0.796875 -10.78125 
L 1.296875 -16.5 
C 3.203125 -16.796875 5.09375 -17 7 -17 
C 11.296875 -17.515625 14.09375 -16.5 16.703125 -14.296875 
C 20 -11.484375 21.59375 -7.5625 23.09375 -3.546875 
L 26.203125 5.078125 
L 36.40625 32.90625 
C 38.09375 37.921875 40.203125 42.640625 41.796875 47.65625 
L 37.296875 47.65625 
C 36.796875 47.65625 36 47.859375 35.59375 47.46875 
C 35.40625 47.15625 35.296875 46.765625 35.203125 46.453125 
L 34.40625 44.34375 
C 33.40625 41.734375 32.5 39.234375 31.59375 36.609375 
L 25.796875 20.25 
C 24.296875 15.828125 22.59375 11.3125 21.796875 6.6875 
C 20.703125 11.3125 19.203125 15.734375 17.59375 20.140625 
C 16.296875 23.5625 8.5 44.546875 7.5 46.5625 
C 7.09375 47.65625 6.703125 47.65625 5.203125 47.65625 
z
" id="Computer_Modern_Bright-121"/>
     </defs>
     <g style="fill:#262626;" transform="translate(363.38954 29.6)scale(0.14 -0.14)">
      <use transform="scale(0.996264)" xlink:href="#Computer_Modern_Bright-85"/>
      <use transform="translate(65.587132 0)scale(0.996264)" xlink:href="#Computer_Modern_Bright-110"/>
      <use transform="translate(113.739629 0)scale(0.996264)" xlink:href="#Computer_Modern_Bright-98"/>
      <use transform="translate(158.986397 0)scale(0.996264)" xlink:href="#Computer_Modern_Bright-114"/>
      <use transform="translate(190.949756 0)scale(0.996264)" xlink:href="#Computer_Modern_Bright-97"/>
      <use transform="translate(237.441838 0)scale(0.996264)" xlink:href="#Computer_Modern_Bright-110"/>
      <use transform="translate(285.594335 0)scale(0.996264)" xlink:href="#Computer_Modern_Bright-99"/>
      <use transform="translate(330.426003 0)scale(0.996264)" xlink:href="#Computer_Modern_Bright-104"/>
      <use transform="translate(378.5785 0)scale(0.996264)" xlink:href="#Computer_Modern_Bright-101"/>
      <use transform="translate(423.410167 0)scale(0.996264)" xlink:href="#Computer_Modern_Bright-100"/>
      <use transform="translate(503.027876 0)scale(0.996264)" xlink:href="#Computer_Modern_Bright-80"/>
      <use transform="translate(563.011054 0)scale(0.996264)" xlink:href="#Computer_Modern_Bright-97"/>
      <use transform="translate(609.503136 0)scale(0.996264)" xlink:href="#Computer_Modern_Bright-116"/>
      <use transform="translate(645.617524 0)scale(0.996264)" xlink:href="#Computer_Modern_Bright-104"/>
      <use transform="translate(693.770021 0)scale(0.996264)" xlink:href="#Computer_Modern_Bright-119"/>
      <use transform="translate(756.451332 0)scale(0.996264)" xlink:href="#Computer_Modern_Bright-97"/>
      <use transform="translate(800.037685 0)scale(0.996264)" xlink:href="#Computer_Modern_Bright-121"/>
     </g>
    </g>
    <g id="line2d_17">
     <path d="M 324.18954 43.824611 
L 352.18954 43.824611 
" style="fill:none;stroke:#ff0000;stroke-linecap:round;stroke-width:2;"/>
    </g>
    <g id="line2d_18"/>
    <g id="text_16">
     <!-- fit -->
     <defs>
      <path d="M 10.59375 47.015625 
L 2 47.015625 
L 2 42 
L 10.59375 42 
L 10.59375 0 
L 16.90625 0 
L 16.90625 42 
L 30.09375 42 
L 30.09375 47.015625 
L 16.796875 47.015625 
L 16.796875 55.203125 
C 16.796875 59.25 16.40625 61.421875 18.90625 63.703125 
C 21.90625 65.96875 25.703125 65.96875 30.09375 64.078125 
L 30.09375 69.90625 
C 27.703125 70.3125 25.203125 70.703125 22.703125 70.515625 
C 20 70.3125 17.09375 68.96875 15.5 67.328125 
C 12.796875 65.15625 11 60.9375 10.59375 57.03125 
C 10.5 55.671875 10.59375 54.4375 10.59375 53.109375 
z
M 38.09375 70 
L 38.09375 63.671875 
L 44.40625 63.671875 
L 44.40625 70 
z
M 38.09375 47.390625 
L 38.09375 0 
L 44.40625 0 
L 44.40625 47.390625 
z
" id="Computer_Modern_Bright-12"/>
     </defs>
     <g style="fill:#262626;" transform="translate(363.38954 48.724611)scale(0.14 -0.14)">
      <use transform="scale(0.996264)" xlink:href="#Computer_Modern_Bright-12"/>
      <use transform="translate(50.643218 0)scale(0.996264)" xlink:href="#Computer_Modern_Bright-116"/>
     </g>
    </g>
    <g id="PathCollection_2">
     <path d="M 338.18954 68.126548 
C 339.237709 68.126548 340.243089 67.710106 340.984257 66.968939 
C 341.725424 66.227771 342.141866 65.222391 342.141866 64.174222 
C 342.141866 63.126053 341.725424 62.120673 340.984257 61.379505 
C 340.243089 60.638338 339.237709 60.221896 338.18954 60.221896 
C 337.141371 60.221896 336.135991 60.638338 335.394823 61.379505 
C 334.653656 62.120673 334.237214 63.126053 334.237214 64.174222 
C 334.237214 65.222391 334.653656 66.227771 335.394823 66.968939 
C 336.135991 67.710106 337.141371 68.126548 338.18954 68.126548 
z
" style="fill:#4c72b0;"/>
    </g>
    <g id="text_17">
     <!-- b -->
     <g style="fill:#262626;" transform="translate(363.38954 67.849222)scale(0.14 -0.14)">
      <use transform="scale(0.996264)" xlink:href="#Computer_Modern_Bright-98"/>
     </g>
    </g>
   </g>
  </g>
 </g>
 <defs>
  <clipPath id="p2d64810519">
   <rect height="298.98" width="446.4" x="54.408609" y="7.2"/>
  </clipPath>
 </defs>
</svg>
