<?xml version="1.0" encoding="utf-8" standalone="no"?>
<!DOCTYPE svg PUBLIC "-//W3C//DTD SVG 1.1//EN"
  "http://www.w3.org/Graphics/SVG/1.1/DTD/svg11.dtd">
<!-- Created with matplotlib (http://matplotlib.org/) -->
<svg height="368pt" version="1.1" viewBox="0 0 500 368" width="500pt" xmlns="http://www.w3.org/2000/svg" xmlns:xlink="http://www.w3.org/1999/xlink">
 <defs>
  <style type="text/css">
*{stroke-linecap:butt;stroke-linejoin:round;}
  </style>
 </defs>
 <g id="figure_1">
  <g id="patch_1">
   <path d="M 0 368.521038 
L 500.471443 368.521038 
L 500.471443 -0 
L 0 -0 
z
" style="fill:#ffffff;"/>
  </g>
  <g id="axes_1">
   <g id="patch_2">
    <path d="M 46.871443 325.523997 
L 493.271443 325.523997 
L 493.271443 26.543997 
L 46.871443 26.543997 
z
" style="fill:#eaeaf2;"/>
   </g>
   <g id="matplotlib.axis_1">
    <g id="xtick_1">
     <g id="line2d_1"/>
     <g id="text_1">
      <!-- $-2$ -->
      <defs>
       <path d="M 65.90625 23 
C 67.59375 23 69.40625 23 69.40625 25 
C 69.40625 27 67.59375 27 65.90625 27 
L 11.796875 27 
C 10.09375 27 8.296875 27 8.296875 25 
C 8.296875 23 10.09375 23 11.796875 23 
z
" id="CMSY10-0"/>
       <path d="M 41.703125 15.453125 
L 39.90625 15.453125 
C 38.90625 8.375 38.09375 7.171875 37.703125 6.5625 
C 37.203125 5.765625 30 5.765625 28.59375 5.765625 
L 9.40625 5.765625 
C 13 9.671875 20 16.75 28.5 24.953125 
C 34.59375 30.734375 41.703125 37.53125 41.703125 47.421875 
C 41.703125 59.21875 32.296875 66 21.796875 66 
C 10.796875 66 4.09375 56.3125 4.09375 47.34375 
C 4.09375 43.4375 7 42.9375 8.203125 42.9375 
C 9.203125 42.9375 12.203125 43.546875 12.203125 47.03125 
C 12.203125 50.109375 9.59375 51 8.203125 51 
C 7.59375 51 7 50.90625 6.59375 50.703125 
C 8.5 59.21875 14.296875 63.40625 20.40625 63.40625 
C 29.09375 63.40625 34.796875 56.515625 34.796875 47.421875 
C 34.796875 38.734375 29.703125 31.25 24 24.75 
L 4.09375 2.28125 
L 4.09375 0 
L 39.296875 0 
z
" id="CMR17-50"/>
      </defs>
      <g style="fill:#262626;" transform="translate(57.588833 339.442496)scale(0.1 -0.1)">
       <use transform="scale(0.996264)" xlink:href="#CMSY10-0"/>
       <use transform="translate(77.487468 0)scale(0.996264)" xlink:href="#CMR17-50"/>
      </g>
     </g>
    </g>
    <g id="xtick_2">
     <g id="line2d_2"/>
     <g id="text_2">
      <!-- $0$ -->
      <defs>
       <path d="M 42 31.640625 
C 42 37.75 41.90625 48.125 37.703125 56.109375 
C 34 63.109375 28.09375 65.59375 22.90625 65.59375 
C 18.09375 65.59375 12 63.40625 8.203125 56.203125 
C 4.203125 48.71875 3.796875 39.4375 3.796875 31.640625 
C 3.796875 25.953125 3.90625 17.28125 7 9.671875 
C 11.296875 -0.609375 19 -2 22.90625 -2 
C 27.5 -2 34.5 -0.109375 38.59375 9.375 
C 41.59375 16.28125 42 24.359375 42 31.640625 
M 22.90625 -0.40625 
C 16.5 -0.40625 12.703125 5.078125 11.296875 12.6875 
C 10.203125 18.5625 10.203125 27.15625 10.203125 32.75 
C 10.203125 40.4375 10.203125 46.828125 11.5 52.921875 
C 13.40625 61.390625 19 64 22.90625 64 
C 27 64 32.296875 61.296875 34.203125 53.125 
C 35.5 47.4375 35.59375 40.734375 35.59375 32.75 
C 35.59375 26.25 35.59375 18.265625 34.40625 12.375 
C 32.296875 1.484375 26.40625 -0.40625 22.90625 -0.40625 
" id="CMR17-48"/>
      </defs>
      <g style="fill:#262626;" transform="translate(131.073976 339.442496)scale(0.1 -0.1)">
       <use transform="scale(0.996264)" xlink:href="#CMR17-48"/>
      </g>
     </g>
    </g>
    <g id="xtick_3">
     <g id="line2d_3"/>
     <g id="text_3">
      <!-- $2$ -->
      <g style="fill:#262626;" transform="translate(200.684748 339.442496)scale(0.1 -0.1)">
       <use transform="scale(0.996264)" xlink:href="#CMR17-50"/>
      </g>
     </g>
    </g>
    <g id="xtick_4">
     <g id="line2d_4"/>
     <g id="text_4">
      <!-- $4$ -->
      <defs>
       <path d="M 33.59375 64.40625 
C 33.59375 66.5 33.5 66.5 31.703125 66.5 
L 2 19.59375 
L 2 17 
L 27.796875 17 
L 27.796875 7.140625 
C 27.796875 3.5 27.59375 2.5 20.59375 2.5 
L 18.703125 2.5 
L 18.703125 0 
C 21.90625 0 27.296875 0 30.703125 0 
C 34.09375 0 39.5 0 42.703125 0 
L 42.703125 2.5 
L 40.796875 2.5 
C 33.796875 2.5 33.59375 3.5 33.59375 7.140625 
L 33.59375 17 
L 43.796875 17 
L 43.796875 19.59375 
L 33.59375 19.59375 
z
M 28.09375 57.859375 
L 28.09375 19.59375 
L 4 19.59375 
z
" id="CMR17-52"/>
      </defs>
      <g style="fill:#262626;" transform="translate(270.29552 339.442496)scale(0.1 -0.1)">
       <use transform="scale(0.996264)" xlink:href="#CMR17-52"/>
      </g>
     </g>
    </g>
    <g id="xtick_5">
     <g id="line2d_5"/>
     <g id="text_5">
      <!-- $6$ -->
      <defs>
       <path d="M 10.59375 34 
C 10.59375 57.65625 21.796875 63 28.296875 63 
C 30.40625 63 35.5 62.640625 37.5 59 
C 35.90625 59 32.90625 59 32.90625 55.515625 
C 32.90625 52.828125 35.09375 51.921875 36.5 51.921875 
C 37.40625 51.921875 40.09375 52.3125 40.09375 55.625 
C 40.09375 61.78125 35.09375 65.296875 28.203125 65.296875 
C 16.296875 65.296875 3.796875 52.96875 3.796875 31 
C 3.796875 3.953125 15.09375 -2 23.09375 -2 
C 32.796875 -2 42 6.671875 42 20.046875 
C 42 32.515625 33.90625 41.59375 23.703125 41.59375 
C 17.59375 41.59375 13.09375 37.609375 10.59375 30.625 
z
M 23.09375 0.390625 
C 10.796875 0.390625 10.796875 18.75 10.796875 22.4375 
C 10.796875 29.625 14.203125 40 23.5 40 
C 25.203125 40 30.09375 40 33.40625 33.125 
C 35.203125 29.21875 35.203125 25.140625 35.203125 20.140625 
C 35.203125 14.75 35.203125 10.78125 33.09375 6.78125 
C 30.90625 2.671875 27.703125 0.390625 23.09375 0.390625 
" id="CMR17-54"/>
      </defs>
      <g style="fill:#262626;" transform="translate(339.906291 339.442496)scale(0.1 -0.1)">
       <use transform="scale(0.996264)" xlink:href="#CMR17-54"/>
      </g>
     </g>
    </g>
    <g id="xtick_6">
     <g id="line2d_6"/>
     <g id="text_6">
      <!-- $8$ -->
      <defs>
       <path d="M 27.203125 35.375 
C 33.5 38.546875 39.90625 43.328125 39.90625 50.984375 
C 39.90625 60.015625 31.09375 65.296875 23 65.296875 
C 13.90625 65.296875 5.90625 58.734375 5.90625 49.6875 
C 5.90625 47.203125 6.5 42.921875 10.40625 39.140625 
C 11.40625 38.15625 15.59375 35.171875 18.296875 33.28125 
C 13.796875 30.984375 3.296875 25.53125 3.296875 14.59375 
C 3.296875 4.359375 13.09375 -2 22.796875 -2 
C 33.5 -2 42.5 5.65625 42.5 15.78125 
C 42.5 24.84375 36.40625 29.015625 32.40625 31.703125 
z
M 14.09375 44.09375 
C 13.296875 44.59375 9.296875 47.671875 9.296875 52.359375 
C 9.296875 58.421875 15.59375 63 22.796875 63 
C 30.703125 63 36.5 57.4375 36.5 50.96875 
C 36.5 41.703125 26.09375 36.421875 25.59375 36.421875 
C 25.5 36.421875 25.40625 36.421875 24.59375 37.03125 
z
M 32.5 23.734375 
C 34 22.640625 38.796875 19.375 38.796875 13.296875 
C 38.796875 5.953125 31.40625 0.390625 23 0.390625 
C 13.90625 0.390625 7 6.84375 7 14.6875 
C 7 22.546875 13.09375 29.09375 20 32.1875 
z
" id="CMR17-56"/>
      </defs>
      <g style="fill:#262626;" transform="translate(409.517063 339.442496)scale(0.1 -0.1)">
       <use transform="scale(0.996264)" xlink:href="#CMR17-56"/>
      </g>
     </g>
    </g>
    <g id="xtick_7">
     <g id="line2d_7"/>
     <g id="text_7">
      <!-- $10$ -->
      <defs>
       <path d="M 26.59375 63.40625 
C 26.59375 65.5 26.5 65.5 25.09375 65.5 
C 21.203125 61.1875 15.296875 59.796875 9.703125 59.796875 
C 9.40625 59.796875 8.90625 59.796875 8.796875 59.5 
C 8.703125 59.296875 8.703125 59.09375 8.703125 57 
C 11.796875 57 17 57.59375 21 59.984375 
L 21 7.203125 
C 21 3.6875 20.796875 2.5 12.203125 2.5 
L 9.203125 2.5 
L 9.203125 0 
C 14 0 19 0 23.796875 0 
C 28.59375 0 33.59375 0 38.40625 0 
L 38.40625 2.5 
L 35.40625 2.5 
C 26.796875 2.5 26.59375 3.59375 26.59375 7.15625 
z
" id="CMR17-49"/>
      </defs>
      <g style="fill:#262626;" transform="translate(476.637167 339.442496)scale(0.1 -0.1)">
       <use transform="scale(0.996264)" xlink:href="#CMR17-49"/>
       <use transform="translate(45.690477 0)scale(0.996264)" xlink:href="#CMR17-48"/>
      </g>
     </g>
    </g>
    <g id="text_8">
     <!-- Predicted Additive Effect, \beta_A + \beta_B -->
     <defs>
      <path d="M 32.90625 29 
C 44.90625 29 54.703125 38.328125 54.703125 49.34375 
C 54.703125 60.15625 45.296875 69.578125 32.296875 69.578125 
L 8.90625 69.578125 
L 8.90625 0 
L 17.296875 0 
L 17.296875 29 
z
M 30.09375 64 
C 41.703125 64 46.796875 56.671875 46.796875 49.328125 
C 46.796875 42.5 42.09375 34.78125 30.09375 34.78125 
L 17.09375 34.78125 
L 17.09375 64 
z
" id="CMSS17-80"/>
      <path d="M 14.90625 21.296875 
C 14.90625 30.703125 21.796875 37 30.59375 37 
L 30.59375 43.578125 
C 24.203125 43.578125 18.203125 40.390625 14.59375 35.203125 
L 14.59375 43.09375 
L 7.5 43.09375 
L 7.5 0 
L 14.90625 0 
z
" id="CMSS17-114"/>
      <path d="M 39.09375 21.515625 
C 39.09375 24.84375 38.90625 31.296875 35.703125 36.640625 
C 32.203125 42.390625 26.5 44 22.203125 44 
C 11.796875 44 3 34.1875 3 21.484375 
C 3 9.09375 12.09375 -1 23.59375 -1 
C 28.09375 -1 33.59375 0.296875 38.59375 3.875 
C 38.59375 4.28125 38.40625 6.46875 38.296875 6.5625 
C 38.296875 6.765625 38 9.84375 38 10.25 
C 33.203125 6.359375 27.703125 5.078125 23.703125 5.078125 
C 17.296875 5.078125 10.40625 10.421875 10.09375 21.515625 
z
M 10.90625 27 
C 12.203125 32.5625 16.59375 37.828125 22.203125 37.828125 
C 23.703125 37.828125 30.703125 37.828125 32.5 27 
z
" id="CMSS17-101"/>
      <path d="M 40.796875 69 
L 33.40625 69 
L 33.40625 38.09375 
C 30.296875 40.671875 25.203125 43.0625 19.59375 43.0625 
C 10.5 43.0625 3.296875 33.296875 3.296875 21.046875 
C 3.296875 8.78125 10.40625 -1 19.296875 -1 
C 26.203125 -1 30.796875 2.6875 33.203125 4.78125 
L 33.203125 -0.203125 
L 40.796875 -0.203125 
z
M 33.203125 13.0625 
C 33.203125 11.671875 33.203125 10.203125 30.09375 7.53125 
C 28.09375 5.859375 25.703125 5.078125 23.40625 5.078125 
C 18 5.078125 10.90625 9 10.90625 20.9375 
C 10.90625 33.34375 18.90625 37 24.40625 37 
C 28.09375 37 31.09375 35.21875 33.203125 32.265625 
z
" id="CMSS17-100"/>
      <path d="M 15.296875 65.359375 
L 6.90625 65.359375 
L 6.90625 57 
L 15.296875 57 
z
M 14.796875 42.796875 
L 7.40625 42.796875 
L 7.40625 0 
L 14.796875 0 
z
" id="CMSS17-105"/>
      <path d="M 38.5 39.703125 
C 38.5 40.390625 33.90625 42.40625 32.703125 42.796875 
C 29.40625 44 25.203125 44 24.09375 44 
C 11.09375 44 3.296875 32.703125 3.296875 21.296875 
C 3.296875 9.296875 12 -1 23.703125 -1 
C 30.40625 -1 35.203125 1.1875 39.09375 3.78125 
L 38.5 10.375 
C 34.203125 7.078125 29.203125 5.265625 23.796875 5.265625 
C 16 5.265625 10.90625 12.09375 10.90625 21.390625 
C 10.90625 28.609375 14.203125 37.71875 24.203125 37.71875 
C 29.703125 37.71875 32.796875 36.609375 37.40625 33.515625 
z
" id="CMSS17-99"/>
      <path d="M 16.703125 37 
L 29.703125 37 
L 29.703125 42.765625 
L 16.703125 42.765625 
L 16.703125 55 
L 9.59375 55 
L 9.59375 42.765625 
L 1.703125 42.765625 
L 1.703125 37 
L 9.40625 37 
L 9.40625 11.703125 
C 9.40625 6 10.703125 -1 17.296875 -1 
C 22.296875 -1 26.90625 0.390625 31.296875 2.6875 
L 29.703125 8.5625 
C 27.296875 6.46875 24.40625 5.265625 21.296875 5.265625 
C 16.90625 5.265625 16.703125 10.875 16.703125 13.375 
z
" id="CMSS17-116"/>
      <path d="M 35.5 69 
L 26.90625 69 
L 2.59375 0 
L 10.203125 0 
L 17.203125 20 
L 44 20 
L 51.09375 0 
L 59.796875 0 
z
M 42.09375 25.578125 
L 19.09375 25.578125 
C 23.90625 39.5 29.90625 56.84375 30.59375 61.328125 
L 30.703125 61.328125 
C 31.40625 57.234375 33.40625 51.265625 35.09375 46.1875 
z
" id="CMSS17-65"/>
      <path d="M 41.796875 43 
L 34 43 
L 27.296875 24.3125 
C 25.203125 18.203125 22.203125 9.796875 21.703125 5.5 
L 21.59375 5.5 
C 21.40625 7.3125 20.59375 9.90625 20.09375 11.703125 
C 19.5 13.90625 18.703125 16.5 18.09375 18.3125 
L 9.296875 43 
L 1.296875 43 
L 17.09375 0 
L 26 0 
z
" id="CMSS17-118"/>
      <path d="M 30.59375 6.765625 
C 22.59375 6.765625 19 6.765625 17.203125 6.765625 
L 17.203125 32.921875 
L 48.203125 32.921875 
L 48.203125 39 
L 17.203125 39 
L 17.203125 62.640625 
L 30.09375 62.640625 
C 31.296875 62.640625 32.5 62.640625 33.703125 62.640625 
L 50.796875 62.640625 
L 50.796875 69 
L 8.796875 69 
L 8.796875 0 
L 52.09375 0 
L 52.09375 6.765625 
z
" id="CMSS17-69"/>
      <path d="M 16.796875 37 
L 27.09375 37 
L 27.09375 42.765625 
L 16.59375 42.765625 
L 16.59375 55.609375 
C 16.59375 62.515625 21.796875 63.9375 25.203125 63.9375 
C 28.703125 63.9375 31.59375 63.03125 32.703125 62.640625 
L 32.703125 69.203125 
C 31.59375 69.40625 28.59375 70 25.296875 70 
C 16.09375 70 9.40625 62.484375 9.40625 52.484375 
L 9.40625 42.765625 
L 2.5 42.765625 
L 2.5 37 
L 9.40625 37 
L 9.40625 0 
L 16.796875 0 
z
M 42.796875 37 
L 53.09375 37 
L 53.09375 42.765625 
L 42.59375 42.765625 
L 42.59375 55.609375 
C 42.59375 62.515625 47.796875 63.9375 51.203125 63.9375 
C 54.703125 63.9375 57.59375 63.03125 58.703125 62.640625 
L 58.703125 69.203125 
C 57.59375 69.40625 54.59375 70 51.296875 70 
C 42.09375 70 35.40625 62.515625 35.40625 52.546875 
L 35.40625 0 
L 42.796875 0 
z
" id="CMSS17-11"/>
      <path d="M 17 0.09375 
L 17 7.96875 
L 9 7.96875 
L 9 0 
L 11.5 0 
L 8.90625 -12.5 
L 12.90625 -12.5 
z
" id="CMSS17-44"/>
      <path d="M 56.59375 57.828125 
C 56.59375 63.765625 51.5 70 42.40625 70 
C 29.5 70 21.296875 54.328125 18.703125 44 
L 2.90625 -18.3125 
C 2.703125 -19.109375 3.296875 -19.3125 3.796875 -19.3125 
C 4.5 -19.3125 5 -19.21875 5.09375 -18.71875 
L 12.09375 9.15625 
C 13.09375 3.578125 18.59375 -1 24.5 -1 
C 38.796875 -1 52.296875 10.15625 52.296875 24.984375 
C 52.296875 28.765625 51.40625 32.546875 49.296875 35.734375 
C 48.09375 37.625 46.59375 39.015625 45 40.21875 
C 52.203125 43.984375 56.59375 50 56.59375 57.828125 
M 39.203125 40.3125 
C 37.59375 39.71875 36 39.515625 34.09375 39.515625 
C 32.703125 39.515625 31.40625 39.421875 29.59375 40.015625 
C 30.59375 40.71875 32.09375 40.90625 34.203125 40.90625 
C 36 40.90625 37.796875 40.71875 39.203125 40.3125 
M 51.40625 58.71875 
C 51.40625 53.28125 48.703125 45.359375 42.203125 41.703125 
C 40.296875 42.46875 37.703125 43 35.5 43 
C 33.40625 43 27.40625 43 27.40625 39.921875 
C 27.40625 37.328125 32.90625 37.328125 34.59375 37.328125 
C 37.203125 37.328125 39.5 38 41.90625 38.8125 
C 45.09375 36.21875 46.5 32.828125 46.5 27.859375 
C 46.5 22.078125 44.90625 17.421875 43 13.140625 
C 39.703125 5.765625 31.90625 1 25 1 
C 17.703125 1 13.90625 6.75 13.90625 13.5 
C 13.90625 14.40625 13.90625 15.703125 14.296875 17.171875 
L 20.796875 43.296875 
C 24.09375 56.296875 32.5 68.015625 42.203125 68.015625 
C 49.40625 68.015625 51.40625 63.0625 51.40625 58.71875 
" id="CMMI12-12"/>
      <path d="M 17 10.796875 
C 13.5 4.90625 10.09375 2.90625 5.296875 2.90625 
C 4.203125 2.8125 3.40625 2.8125 3.40625 0.90625 
C 3.40625 0.375 3.90625 0 4.59375 0 
C 6.40625 0 10.90625 0 12.703125 0 
C 15.59375 0 18.796875 0 21.59375 0 
C 22.203125 0 23.40625 0 23.40625 1.90625 
C 23.40625 2.8125 22.59375 2.90625 22 2.90625 
C 19.703125 2.90625 17.796875 3.6875 17.796875 6.0625 
C 17.796875 7.4375 18.40625 8.53125 19.703125 10.703125 
L 27.296875 23.109375 
L 52.796875 23.109375 
C 52.90625 22.234375 52.90625 21.453125 53 20.5625 
C 53.296875 18 54.5 7.734375 54.5 5.875 
C 54.5 2.90625 49.40625 2.90625 47.796875 2.90625 
C 46.703125 2.90625 45.59375 2.90625 45.59375 1.09375 
C 45.59375 0 46.5 0 47.09375 0 
C 48.796875 0 50.796875 0 52.5 0 
L 58.203125 0 
C 64.296875 0 68.703125 0 68.796875 0 
C 69.5 0 70.59375 0 70.59375 1.90625 
C 70.59375 2.90625 69.703125 2.90625 68.203125 2.90625 
C 62.703125 2.90625 62.59375 3.8125 62.296875 6.78125 
L 56.203125 68.8125 
C 56 70.796875 55.59375 71 54.5 71 
C 53.5 71 52.90625 70.796875 52 69.296875 
z
M 29 26 
L 49.09375 59.671875 
L 52.5 26 
z
" id="CMMI12-65"/>
      <path d="M 37.703125 23 
L 64.203125 23 
C 65.59375 23 67.296875 23 67.296875 24.6875 
C 67.296875 26.484375 65.703125 26.484375 64.203125 26.484375 
L 37.703125 26.484375 
L 37.703125 52.90625 
C 37.703125 54.296875 37.703125 56 36 56 
C 34.203125 56 34.203125 54.40625 34.203125 52.90625 
L 34.203125 26.484375 
L 7.703125 26.484375 
C 6.296875 26.484375 4.59375 26.484375 4.59375 24.796875 
C 4.59375 23 6.203125 23 7.703125 23 
L 34.203125 23 
L 34.203125 -3.40625 
C 34.203125 -4.796875 34.203125 -6.5 35.90625 -6.5 
C 37.703125 -6.5 37.703125 -4.90625 37.703125 -3.40625 
z
" id="CMR17-43"/>
      <path d="M 36.59375 61.265625 
C 37.5 65 37.90625 65 41.796875 65 
L 54.796875 65 
C 66.09375 65 66.09375 55.375 66.09375 54.453125 
C 66.09375 46.34375 58 36 44.796875 36 
L 30.40625 36 
z
M 53.5 35.546875 
C 64.40625 37.53125 74.296875 45.09375 74.296875 54.265625 
C 74.296875 62.03125 67.40625 68 56.09375 68 
L 24 68 
C 22.09375 68 21.203125 68 21.203125 66.03125 
C 21.203125 65 22.09375 65 23.59375 65 
C 29.703125 65 29.703125 64.25 29.703125 63.1875 
C 29.703125 63 29.703125 62.390625 29.296875 60.890625 
L 15.796875 7.375 
C 14.90625 3.890625 14.703125 2.890625 7.703125 2.890625 
C 5.796875 2.890625 4.796875 2.890625 4.796875 1.09375 
C 4.796875 0 5.40625 0 7.40625 0 
L 41.703125 0 
C 57 0 68.796875 11.546875 68.796875 21.609375 
C 68.796875 29.78125 61.59375 34.75 53.5 35.546875 
M 39.296875 2.890625 
L 25.796875 2.890625 
C 24.40625 2.890625 24.203125 2.890625 23.59375 3 
C 22.5 3.09375 22.40625 3.296875 22.40625 4.078125 
C 22.40625 4.765625 22.59375 5.359375 22.796875 6.234375 
L 29.796875 34 
L 48.59375 34 
C 60.40625 34 60.40625 23.171875 60.40625 22.390625 
C 60.40625 12.9375 51.703125 2.890625 39.296875 2.890625 
" id="CMMI12-66"/>
     </defs>
     <g style="fill:#262626;" transform="translate(146.791844 357.832974)scale(0.18 -0.18)">
      <use transform="translate(0 14.943915)scale(0.996264)" xlink:href="#CMSS17-80"/>
      <use transform="translate(59.735586 14.943915)scale(0.996264)" xlink:href="#CMSS17-114"/>
      <use transform="translate(91.645359 14.943915)scale(0.996264)" xlink:href="#CMSS17-101"/>
      <use transform="translate(133.284181 14.943915)scale(0.996264)" xlink:href="#CMSS17-100"/>
      <use transform="translate(181.489124 14.943915)scale(0.996264)" xlink:href="#CMSS17-105"/>
      <use transform="translate(203.669847 14.943915)scale(0.996264)" xlink:href="#CMSS17-99"/>
      <use transform="translate(245.308669 14.943915)scale(0.996264)" xlink:href="#CMSS17-116"/>
      <use transform="translate(279.140236 14.943915)scale(0.996264)" xlink:href="#CMSS17-101"/>
      <use transform="translate(320.779058 14.943915)scale(0.996264)" xlink:href="#CMSS17-100"/>
      <use transform="translate(400.213114 14.943915)scale(0.996264)" xlink:href="#CMSS17-65"/>
      <use transform="translate(462.430969 14.943915)scale(0.996264)" xlink:href="#CMSS17-100"/>
      <use transform="translate(510.635912 14.943915)scale(0.996264)" xlink:href="#CMSS17-100"/>
      <use transform="translate(558.840855 14.943915)scale(0.996264)" xlink:href="#CMSS17-105"/>
      <use transform="translate(581.021578 14.943915)scale(0.996264)" xlink:href="#CMSS17-116"/>
      <use transform="translate(614.853145 14.943915)scale(0.996264)" xlink:href="#CMSS17-105"/>
      <use transform="translate(637.033868 14.943915)scale(0.996264)" xlink:href="#CMSS17-118"/>
      <use transform="translate(680.034009 14.943915)scale(0.996264)" xlink:href="#CMSS17-101"/>
      <use transform="translate(752.901944 14.943915)scale(0.996264)" xlink:href="#CMSS17-69"/>
      <use transform="translate(808.793957 14.943915)scale(0.996264)" xlink:href="#CMSS17-11"/>
      <use transform="translate(863.444928 14.943915)scale(0.996264)" xlink:href="#CMSS17-101"/>
      <use transform="translate(905.08375 14.943915)scale(0.996264)" xlink:href="#CMSS17-99"/>
      <use transform="translate(946.722572 14.943915)scale(0.996264)" xlink:href="#CMSS17-116"/>
      <use transform="translate(980.554138 14.943915)scale(0.996264)" xlink:href="#CMSS17-44"/>
      <use transform="translate(1037.807456 14.943915)scale(0.996264)" xlink:href="#CMMI12-12"/>
      <use transform="translate(1092.878193 0)scale(0.697382)" xlink:href="#CMMI12-65"/>
      <use transform="translate(1166.704828 14.943915)scale(0.996264)" xlink:href="#CMR17-43"/>
      <use transform="translate(1260.558824 14.943915)scale(0.996264)" xlink:href="#CMMI12-12"/>
      <use transform="translate(1315.629561 0)scale(0.697382)" xlink:href="#CMMI12-66"/>
     </g>
    </g>
   </g>
   <g id="matplotlib.axis_2">
    <g id="ytick_1">
     <g id="line2d_8"/>
     <g id="text_9">
      <!-- $-8$ -->
      <g style="fill:#262626;" transform="translate(27.141364 320.795263)scale(0.1 -0.1)">
       <use transform="scale(0.996264)" xlink:href="#CMSY10-0"/>
       <use transform="translate(77.487468 0)scale(0.996264)" xlink:href="#CMR17-56"/>
      </g>
     </g>
    </g>
    <g id="ytick_2">
     <g id="line2d_9"/>
     <g id="text_10">
      <!-- $-6$ -->
      <g style="fill:#262626;" transform="translate(27.141364 262.613127)scale(0.1 -0.1)">
       <use transform="scale(0.996264)" xlink:href="#CMSY10-0"/>
       <use transform="translate(77.487468 0)scale(0.996264)" xlink:href="#CMR17-54"/>
      </g>
     </g>
    </g>
    <g id="ytick_3">
     <g id="line2d_10"/>
     <g id="text_11">
      <!-- $-4$ -->
      <g style="fill:#262626;" transform="translate(27.141364 204.43099)scale(0.1 -0.1)">
       <use transform="scale(0.996264)" xlink:href="#CMSY10-0"/>
       <use transform="translate(77.487468 0)scale(0.996264)" xlink:href="#CMR17-52"/>
      </g>
     </g>
    </g>
    <g id="ytick_4">
     <g id="line2d_11"/>
     <g id="text_12">
      <!-- $-2$ -->
      <g style="fill:#262626;" transform="translate(27.141364 146.248854)scale(0.1 -0.1)">
       <use transform="scale(0.996264)" xlink:href="#CMSY10-0"/>
       <use transform="translate(77.487468 0)scale(0.996264)" xlink:href="#CMR17-50"/>
      </g>
     </g>
    </g>
    <g id="ytick_5">
     <g id="line2d_12"/>
     <g id="text_13">
      <!-- $0$ -->
      <g style="fill:#262626;" transform="translate(34.890108 88.066717)scale(0.1 -0.1)">
       <use transform="scale(0.996264)" xlink:href="#CMR17-48"/>
      </g>
     </g>
    </g>
    <g id="ytick_6">
     <g id="line2d_13"/>
     <g id="text_14">
      <!-- $2$ -->
      <g style="fill:#262626;" transform="translate(34.890108 29.88458)scale(0.1 -0.1)">
       <use transform="scale(0.996264)" xlink:href="#CMR17-50"/>
      </g>
     </g>
    </g>
    <g id="text_15">
     <!-- Deviation from Additive Effect, \beta_{AB} - \beta_A - \beta_B -->
     <defs>
      <path d="M 8.90625 69 
L 8.90625 0 
L 33.5 0 
C 49.90625 0 62.5 15.3125 62.5 33.90625 
C 62.5 53.09375 49.90625 69 33.5 69 
z
M 17.09375 5.578125 
L 17.09375 63.421875 
L 31.296875 63.421875 
C 44.703125 63.421875 54.296875 51.203125 54.296875 33.90625 
C 54.296875 17.296875 44.796875 5.578125 31.296875 5.578125 
z
" id="CMSS17-68"/>
      <path d="M 37.59375 27.984375 
C 37.59375 37.375 30.90625 43.875 21.90625 43.875 
C 17.5 43.875 12.703125 43.078125 7.203125 39.890625 
L 7.796875 33.359375 
C 10.296875 35.125 14.59375 38 21.796875 38 
C 26.90625 38 30 34.0625 30 27.84375 
L 30 24 
C 14 24 4 19.34375 4 11.34375 
C 4 7.203125 6.5 -1 14.796875 -1 
C 16.296875 -1 24.40625 -1 30.203125 3.390625 
L 30.203125 -0.296875 
L 37.59375 -0.296875 
z
M 30 12.75 
C 30 10.953125 30 8.5625 27 6.78125 
C 24.40625 5.078125 21.09375 5.078125 19.703125 5.078125 
C 14.703125 5.078125 11.296875 7.984375 11.296875 11.625 
C 11.296875 18.921875 26.90625 18.921875 30 18.921875 
z
" id="CMSS17-97"/>
      <path d="M 44.203125 21.1875 
C 44.203125 34 34.703125 44 23.5 44 
C 12 44 2.703125 33.703125 2.703125 21.1875 
C 2.703125 8.5 12.296875 -1 23.40625 -1 
C 34.796875 -1 44.203125 8.796875 44.203125 21.1875 
M 23.5 5.265625 
C 16.40625 5.265625 10.296875 11.078125 10.296875 22 
C 10.296875 33.609375 17.40625 37.921875 23.40625 37.921875 
C 29.90625 37.921875 36.59375 33.21875 36.59375 22 
C 36.59375 10.671875 30.09375 5.265625 23.5 5.265625 
" id="CMSS17-111"/>
      <path d="M 40.90625 29.328125 
C 40.90625 35.671875 39.40625 44 28.09375 44 
C 21.703125 44 17.5 40.71875 14.703125 37.328125 
L 14.703125 43.09375 
L 7.40625 43.09375 
L 7.40625 0 
L 15 0 
L 15 24.359375 
C 15 30.6875 17.40625 37.9375 24.203125 37.9375 
C 33 37.9375 33.296875 32 33.296875 28.578125 
L 33.296875 0 
L 40.90625 0 
z
" id="CMSS17-110"/>
      <path d="M 16.796875 37 
L 26.90625 37 
L 26.90625 42.765625 
L 16.59375 42.765625 
L 16.59375 55.609375 
C 16.59375 62.71875 22 63.9375 25.09375 63.9375 
C 26.09375 63.9375 28.90625 63.9375 32.5 62.640625 
L 32.5 69.203125 
C 30.203125 69.703125 27.40625 70 25.203125 70 
C 15.90625 70 9.40625 62.390625 9.40625 52.484375 
L 9.40625 42.765625 
L 2.5 42.765625 
L 2.5 37 
L 9.40625 37 
L 9.40625 0 
L 16.796875 0 
z
" id="CMSS17-102"/>
      <path d="M 67 29.328125 
C 67 36.0625 65.296875 44 54.09375 44 
C 46.59375 44 42.09375 39.3125 40.09375 36.421875 
C 38.296875 41.71875 34.09375 44 28.09375 44 
C 21.296875 44 17 40.125 14.703125 37.328125 
L 14.703125 43.09375 
L 7.40625 43.09375 
L 7.40625 0 
L 15 0 
L 15 24.359375 
C 15 30.296875 17.203125 37.9375 24.296875 37.9375 
C 33.40625 37.9375 33.40625 31.5 33.40625 28.578125 
L 33.40625 0 
L 41 0 
L 41 24.359375 
C 41 30.296875 43.203125 37.9375 50.296875 37.9375 
C 59.40625 37.9375 59.40625 31.5 59.40625 28.578125 
L 59.40625 0 
L 67 0 
z
" id="CMSS17-109"/>
     </defs>
     <g style="fill:#262626;" transform="translate(19.6533 344.867995)rotate(-90)scale(0.18 -0.18)">
      <use transform="translate(0 14.943915)scale(0.996264)" xlink:href="#CMSS17-68"/>
      <use transform="translate(67.542842 14.943915)scale(0.996264)" xlink:href="#CMSS17-101"/>
      <use transform="translate(109.181664 14.943915)scale(0.996264)" xlink:href="#CMSS17-118"/>
      <use transform="translate(152.181805 14.943915)scale(0.996264)" xlink:href="#CMSS17-105"/>
      <use transform="translate(174.362528 14.943915)scale(0.996264)" xlink:href="#CMSS17-97"/>
      <use transform="translate(219.284449 14.943915)scale(0.996264)" xlink:href="#CMSS17-116"/>
      <use transform="translate(253.116016 14.943915)scale(0.996264)" xlink:href="#CMSS17-105"/>
      <use transform="translate(275.296739 14.943915)scale(0.996264)" xlink:href="#CMSS17-111"/>
      <use transform="translate(322.140362 14.943915)scale(0.996264)" xlink:href="#CMSS17-110"/>
      <use transform="translate(401.574418 14.943915)scale(0.996264)" xlink:href="#CMSS17-102"/>
      <use transform="translate(430.201077 14.943915)scale(0.996264)" xlink:href="#CMSS17-114"/>
      <use transform="translate(462.11085 14.943915)scale(0.996264)" xlink:href="#CMSS17-111"/>
      <use transform="translate(508.954473 14.943915)scale(0.996264)" xlink:href="#CMSS17-109"/>
      <use transform="translate(614.41284 14.943915)scale(0.996264)" xlink:href="#CMSS17-65"/>
      <use transform="translate(676.630695 14.943915)scale(0.996264)" xlink:href="#CMSS17-100"/>
      <use transform="translate(724.835638 14.943915)scale(0.996264)" xlink:href="#CMSS17-100"/>
      <use transform="translate(773.040581 14.943915)scale(0.996264)" xlink:href="#CMSS17-105"/>
      <use transform="translate(795.221305 14.943915)scale(0.996264)" xlink:href="#CMSS17-116"/>
      <use transform="translate(829.052871 14.943915)scale(0.996264)" xlink:href="#CMSS17-105"/>
      <use transform="translate(851.233594 14.943915)scale(0.996264)" xlink:href="#CMSS17-118"/>
      <use transform="translate(894.233736 14.943915)scale(0.996264)" xlink:href="#CMSS17-101"/>
      <use transform="translate(967.101671 14.943915)scale(0.996264)" xlink:href="#CMSS17-69"/>
      <use transform="translate(1022.993684 14.943915)scale(0.996264)" xlink:href="#CMSS17-11"/>
      <use transform="translate(1077.644654 14.943915)scale(0.996264)" xlink:href="#CMSS17-101"/>
      <use transform="translate(1119.283476 14.943915)scale(0.996264)" xlink:href="#CMSS17-99"/>
      <use transform="translate(1160.922298 14.943915)scale(0.996264)" xlink:href="#CMSS17-116"/>
      <use transform="translate(1194.753865 14.943915)scale(0.996264)" xlink:href="#CMSS17-44"/>
      <use transform="translate(1252.007183 14.943915)scale(0.996264)" xlink:href="#CMMI12-12"/>
      <use transform="translate(1307.077919 0)scale(0.697382)" xlink:href="#CMMI12-65"/>
      <use transform="translate(1358.267216 0)scale(0.697382)" xlink:href="#CMMI12-66"/>
      <use transform="translate(1436.299181 14.943915)scale(0.996264)" xlink:href="#CMSY10-0"/>
      <use transform="translate(1535.925855 14.943915)scale(0.996264)" xlink:href="#CMMI12-12"/>
      <use transform="translate(1590.996592 0)scale(0.697382)" xlink:href="#CMMI12-65"/>
      <use transform="translate(1664.823228 14.943915)scale(0.996264)" xlink:href="#CMSY10-0"/>
      <use transform="translate(1764.449902 14.943915)scale(0.996264)" xlink:href="#CMMI12-12"/>
      <use transform="translate(1819.520639 0)scale(0.697382)" xlink:href="#CMMI12-66"/>
     </g>
    </g>
   </g>
   <g id="PathCollection_1">
    <path clip-path="url(#pd69f3de892)" d="M 133.326193 117.532237 
C 133.996053 117.532237 134.638567 117.266098 135.112229 116.792436 
C 135.585891 116.318774 135.852029 115.67626 135.852029 115.0064 
C 135.852029 114.33654 135.585891 113.694026 135.112229 113.220364 
C 134.638567 112.746702 133.996053 112.480564 133.326193 112.480564 
C 132.656333 112.480564 132.013819 112.746702 131.540157 113.220364 
C 131.066495 113.694026 130.800357 114.33654 130.800357 115.0064 
C 130.800357 115.67626 131.066495 116.318774 131.540157 116.792436 
C 132.013819 117.266098 132.656333 117.532237 133.326193 117.532237 
z
" style="fill:#404588;"/>
    <path clip-path="url(#pd69f3de892)" d="M 208.7503 129.393083 
C 209.604989 129.393083 210.424786 129.053512 211.029142 128.449156 
C 211.633498 127.8448 211.973069 127.025003 211.973069 126.170315 
C 211.973069 125.315626 211.633498 124.495829 211.029142 123.891473 
C 210.424786 123.287117 209.604989 122.947546 208.7503 122.947546 
C 207.895612 122.947546 207.075815 123.287117 206.471459 123.891473 
C 205.867103 124.495829 205.527532 125.315626 205.527532 126.170315 
C 205.527532 127.025003 205.867103 127.8448 206.471459 128.449156 
C 207.075815 129.053512 207.895612 129.393083 208.7503 129.393083 
z
" style="fill:#d5e21a;"/>
    <path clip-path="url(#pd69f3de892)" d="M 105.731514 75.735297 
C 107.029695 75.735297 108.274881 75.219524 109.192833 74.301571 
C 110.110786 73.383619 110.626559 72.138433 110.626559 70.840252 
C 110.626559 69.54207 110.110786 68.296885 109.192833 67.378932 
C 108.274881 66.460979 107.029695 65.945206 105.731514 65.945206 
C 104.433333 65.945206 103.188147 66.460979 102.270194 67.378932 
C 101.352241 68.296885 100.836469 69.54207 100.836469 70.840252 
C 100.836469 72.138433 101.352241 73.383619 102.270194 74.301571 
C 103.188147 75.219524 104.433333 75.735297 105.731514 75.735297 
z
" style="fill:#6ccd5a;"/>
    <path clip-path="url(#pd69f3de892)" d="M 102.356228 75.993185 
C 103.552669 75.993185 104.700268 75.517834 105.546279 74.671823 
C 106.392291 73.825811 106.867642 72.678212 106.867642 71.481771 
C 106.867642 70.285331 106.392291 69.137732 105.546279 68.29172 
C 104.700268 67.445709 103.552669 66.970358 102.356228 66.970358 
C 101.159787 66.970358 100.012188 67.445709 99.166176 68.29172 
C 98.320165 69.137732 97.844814 70.285331 97.844814 71.481771 
C 97.844814 72.678212 98.320165 73.825811 99.166176 74.671823 
C 100.012188 75.517834 101.159787 75.993185 102.356228 75.993185 
z
" style="fill:#5ec962;"/>
    <path clip-path="url(#pd69f3de892)" d="M 151.849716 94.729929 
C 153.276009 94.729929 154.644078 94.163257 155.652619 93.154715 
C 156.661161 92.146173 157.227834 90.778105 157.227834 89.351811 
C 157.227834 87.925518 156.661161 86.557449 155.652619 85.548908 
C 154.644078 84.540366 153.276009 83.973693 151.849716 83.973693 
C 150.423422 83.973693 149.055354 84.540366 148.046812 85.548908 
C 147.03827 86.557449 146.471598 87.925518 146.471598 89.351811 
C 146.471598 90.778105 147.03827 92.146173 148.046812 93.154715 
C 149.055354 94.163257 150.423422 94.729929 151.849716 94.729929 
z
" style="fill:#c0df25;"/>
    <path clip-path="url(#pd69f3de892)" d="M 422.261153 231.982123 
C 423.041863 231.982123 423.790702 231.671943 424.342748 231.119898 
C 424.894793 230.567852 425.204973 229.819013 425.204973 229.038303 
C 425.204973 228.257593 424.894793 227.508753 424.342748 226.956708 
C 423.790702 226.404662 423.041863 226.094483 422.261153 226.094483 
C 421.480442 226.094483 420.731603 226.404662 420.179558 226.956708 
C 419.627512 227.508753 419.317333 228.257593 419.317333 229.038303 
C 419.317333 229.819013 419.627512 230.567852 420.179558 231.119898 
C 420.731603 231.671943 421.480442 231.982123 422.261153 231.982123 
z
" style="fill:#440154;"/>
    <path clip-path="url(#pd69f3de892)" d="M 192.578348 117.046491 
C 193.899625 117.046491 195.166965 116.521542 196.101249 115.587258 
C 197.035533 114.652974 197.560482 113.385634 197.560482 112.064357 
C 197.560482 110.743079 197.035533 109.47574 196.101249 108.541456 
C 195.166965 107.607172 193.899625 107.082223 192.578348 107.082223 
C 191.25707 107.082223 189.989731 107.607172 189.055447 108.541456 
C 188.121163 109.47574 187.596214 110.743079 187.596214 112.064357 
C 187.596214 113.385634 188.121163 114.652974 189.055447 115.587258 
C 189.989731 116.521542 191.25707 117.046491 192.578348 117.046491 
z
" style="fill:#fde725;"/>
    <path clip-path="url(#pd69f3de892)" d="M 131.288989 104.81877 
C 132.383211 104.81877 133.432764 104.384031 134.206496 103.610299 
C 134.980228 102.836567 135.414967 101.787014 135.414967 100.692792 
C 135.414967 99.59857 134.980228 98.549017 134.206496 97.775285 
C 133.432764 97.001553 132.383211 96.566814 131.288989 96.566814 
C 130.194767 96.566814 129.145214 97.001553 128.371482 97.775285 
C 127.59775 98.549017 127.163011 99.59857 127.163011 100.692792 
C 127.163011 101.787014 127.59775 102.836567 128.371482 103.610299 
C 129.145214 104.384031 130.194767 104.81877 131.288989 104.81877 
z
" style="fill:#1f948c;"/>
    <path clip-path="url(#pd69f3de892)" d="M 297.947665 199.363064 
C 299.009579 199.363064 300.028143 198.941161 300.77903 198.190275 
C 301.529916 197.439388 301.951819 196.420824 301.951819 195.35891 
C 301.951819 194.296996 301.529916 193.278432 300.77903 192.527546 
C 300.028143 191.776659 299.009579 191.354756 297.947665 191.354756 
C 296.885751 191.354756 295.867187 191.776659 295.116301 192.527546 
C 294.365414 193.278432 293.943511 194.296996 293.943511 195.35891 
C 293.943511 196.420824 294.365414 197.439388 295.116301 198.190275 
C 295.867187 198.941161 296.885751 199.363064 297.947665 199.363064 
z
" style="fill:#472d7b;"/>
    <path clip-path="url(#pd69f3de892)" d="M 200.137672 103.082138 
C 201.074181 103.082138 201.972459 102.710059 202.634671 102.047847 
C 203.296883 101.385635 203.668962 100.487357 203.668962 99.550848 
C 203.668962 98.614338 203.296883 97.71606 202.634671 97.053848 
C 201.972459 96.391636 201.074181 96.019557 200.137672 96.019557 
C 199.201162 96.019557 198.302884 96.391636 197.640672 97.053848 
C 196.97846 97.71606 196.606381 98.614338 196.606381 99.550848 
C 196.606381 100.487357 196.97846 101.385635 197.640672 102.047847 
C 198.302884 102.710059 199.201162 103.082138 200.137672 103.082138 
z
" style="fill:#1e9d89;"/>
    <path clip-path="url(#pd69f3de892)" d="M 206.860574 122.717717 
C 207.63368 122.717717 208.375225 122.410558 208.921893 121.86389 
C 209.468562 121.317222 209.77572 120.575676 209.77572 119.802571 
C 209.77572 119.029465 209.468562 118.28792 208.921893 117.741252 
C 208.375225 117.194583 207.63368 116.887425 206.860574 116.887425 
C 206.087468 116.887425 205.345923 117.194583 204.799255 117.741252 
C 204.252587 118.28792 203.945428 119.029465 203.945428 119.802571 
C 203.945428 120.575676 204.252587 121.317222 204.799255 121.86389 
C 205.345923 122.410558 206.087468 122.717717 206.860574 122.717717 
z
" style="fill:#efe51c;"/>
    <path clip-path="url(#pd69f3de892)" d="M 172.132977 131.012984 
C 173.545199 131.012984 174.89977 130.451902 175.898362 129.453311 
C 176.896954 128.454719 177.458036 127.100148 177.458036 125.687925 
C 177.458036 124.275703 176.896954 122.921132 175.898362 121.92254 
C 174.89977 120.923948 173.545199 120.362867 172.132977 120.362867 
C 170.720755 120.362867 169.366183 120.923948 168.367592 121.92254 
C 167.369 122.921132 166.807918 124.275703 166.807918 125.687925 
C 166.807918 127.100148 167.369 128.454719 168.367592 129.453311 
C 169.366183 130.451902 170.720755 131.012984 172.132977 131.012984 
z
" style="fill:#26828e;"/>
    <path clip-path="url(#pd69f3de892)" d="M 254.304583 148.622032 
C 255.040301 148.622032 255.745984 148.329729 256.266215 147.809498 
C 256.786446 147.289267 257.078749 146.583583 257.078749 145.847866 
C 257.078749 145.112149 256.786446 144.406465 256.266215 143.886234 
C 255.745984 143.366004 255.040301 143.0737 254.304583 143.0737 
C 253.568866 143.0737 252.863182 143.366004 252.342951 143.886234 
C 251.822721 144.406465 251.530417 145.112149 251.530417 145.847866 
C 251.530417 146.583583 251.822721 147.289267 252.342951 147.809498 
C 252.863182 148.329729 253.568866 148.622032 254.304583 148.622032 
z
" style="fill:#24aa83;"/>
    <path clip-path="url(#pd69f3de892)" d="M 76.260707 63.446488 
C 77.286479 63.446488 78.270376 63.038945 78.995707 62.313614 
C 79.721037 61.588284 80.128581 60.604387 80.128581 59.578614 
C 80.128581 58.552842 79.721037 57.568945 78.995707 56.843614 
C 78.270376 56.118284 77.286479 55.71074 76.260707 55.71074 
C 75.234935 55.71074 74.251037 56.118284 73.525707 56.843614 
C 72.800376 57.568945 72.392833 58.552842 72.392833 59.578614 
C 72.392833 60.604387 72.800376 61.588284 73.525707 62.313614 
C 74.251037 63.038945 75.234935 63.446488 76.260707 63.446488 
z
" style="fill:#23a983;"/>
    <path clip-path="url(#pd69f3de892)" d="M 100.971508 49.089809 
C 102.079392 49.089809 103.14205 48.649642 103.925442 47.866249 
C 104.708835 47.082857 105.149002 46.020199 105.149002 44.912315 
C 105.149002 43.804431 104.708835 42.741773 103.925442 41.958381 
C 103.14205 41.174989 102.079392 40.734821 100.971508 40.734821 
C 99.863624 40.734821 98.800966 41.174989 98.017574 41.958381 
C 97.234182 42.741773 96.794014 43.804431 96.794014 44.912315 
C 96.794014 46.020199 97.234182 47.082857 98.017574 47.866249 
C 98.800966 48.649642 99.863624 49.089809 100.971508 49.089809 
z
" style="fill:#3a538b;"/>
    <path clip-path="url(#pd69f3de892)" d="M 70.642891 73.264391 
C 71.800101 73.264391 72.91007 72.804627 73.728341 71.986356 
C 74.546612 71.168085 75.006377 70.058115 75.006377 68.900905 
C 75.006377 67.743695 74.546612 66.633726 73.728341 65.815455 
C 72.91007 64.997184 71.800101 64.53742 70.642891 64.53742 
C 69.485681 64.53742 68.375712 64.997184 67.557441 65.815455 
C 66.73917 66.633726 66.279405 67.743695 66.279405 68.900905 
C 66.279405 70.058115 66.73917 71.168085 67.557441 71.986356 
C 68.375712 72.804627 69.485681 73.264391 70.642891 73.264391 
z
" style="fill:#2c728e;"/>
    <path clip-path="url(#pd69f3de892)" d="M 241.272362 211.073609 
C 242.085663 211.073609 242.865764 210.750481 243.440855 210.17539 
C 244.015946 209.600299 244.339074 208.820198 244.339074 208.006897 
C 244.339074 207.193595 244.015946 206.413495 243.440855 205.838404 
C 242.865764 205.263312 242.085663 204.940184 241.272362 204.940184 
C 240.45906 204.940184 239.67896 205.263312 239.103869 205.838404 
C 238.528778 206.413495 238.205649 207.193595 238.205649 208.006897 
C 238.205649 208.820198 238.528778 209.600299 239.103869 210.17539 
C 239.67896 210.750481 240.45906 211.073609 241.272362 211.073609 
z
" style="fill:#482475;"/>
    <path clip-path="url(#pd69f3de892)" d="M 96.005423 70.920189 
C 97.042044 70.920189 98.036348 70.508335 98.769349 69.775333 
C 99.502351 69.042331 99.914205 68.048028 99.914205 67.011407 
C 99.914205 65.974786 99.502351 64.980483 98.769349 64.247481 
C 98.036348 63.514479 97.042044 63.102625 96.005423 63.102625 
C 94.968802 63.102625 93.974499 63.514479 93.241497 64.247481 
C 92.508495 64.980483 92.096642 65.974786 92.096642 67.011407 
C 92.096642 68.048028 92.508495 69.042331 93.241497 69.775333 
C 93.974499 70.508335 94.968802 70.920189 96.005423 70.920189 
z
" style="fill:#52c569;"/>
    <path clip-path="url(#pd69f3de892)" d="M 75.222382 61.138159 
C 76.086211 61.138159 76.914776 60.794957 77.525595 60.184137 
C 78.136414 59.573318 78.479617 58.744753 78.479617 57.880924 
C 78.479617 57.017096 78.136414 56.188531 77.525595 55.577711 
C 76.914776 54.966892 76.086211 54.623689 75.222382 54.623689 
C 74.358553 54.623689 73.529989 54.966892 72.919169 55.577711 
C 72.30835 56.188531 71.965147 57.017096 71.965147 57.880924 
C 71.965147 58.744753 72.30835 59.573318 72.919169 60.184137 
C 73.529989 60.794957 74.358553 61.138159 75.222382 61.138159 
z
" style="fill:#22a884;"/>
    <path clip-path="url(#pd69f3de892)" d="M 87.659585 61.079999 
C 88.913295 61.079999 90.115826 60.581895 91.002333 59.695387 
C 91.88884 58.80888 92.386945 57.60635 92.386945 56.352639 
C 92.386945 55.098928 91.88884 53.896398 91.002333 53.009891 
C 90.115826 52.123383 88.913295 51.625279 87.659585 51.625279 
C 86.405874 51.625279 85.203344 52.123383 84.316837 53.009891 
C 83.430329 53.896398 82.932225 55.098928 82.932225 56.352639 
C 82.932225 57.60635 83.430329 58.80888 84.316837 59.695387 
C 85.203344 60.581895 86.405874 61.079999 87.659585 61.079999 
z
" style="fill:#2cb17e;"/>
    <path clip-path="url(#pd69f3de892)" d="M 182.196585 119.535469 
C 183.370064 119.535469 184.495637 119.069241 185.325411 118.239466 
C 186.155186 117.409692 186.621414 116.284119 186.621414 115.11064 
C 186.621414 113.937162 186.155186 112.811589 185.325411 111.981814 
C 184.495637 111.15204 183.370064 110.685812 182.196585 110.685812 
C 181.023107 110.685812 179.897534 111.15204 179.067759 111.981814 
C 178.237985 112.811589 177.771757 113.937162 177.771757 115.11064 
C 177.771757 116.284119 178.237985 117.409692 179.067759 118.239466 
C 179.897534 119.069241 181.023107 119.535469 182.196585 119.535469 
z
" style="fill:#cae11f;"/>
    <path clip-path="url(#pd69f3de892)" d="M 124.086917 72.832468 
C 125.419183 72.832468 126.697062 72.303154 127.639116 71.3611 
C 128.58117 70.419046 129.110485 69.141167 129.110485 67.808901 
C 129.110485 66.476636 128.58117 65.198757 127.639116 64.256703 
C 126.697062 63.314649 125.419183 62.785334 124.086917 62.785334 
C 122.754652 62.785334 121.476773 63.314649 120.534719 64.256703 
C 119.592665 65.198757 119.06335 66.476636 119.06335 67.808901 
C 119.06335 69.141167 119.592665 70.419046 120.534719 71.3611 
C 121.476773 72.303154 122.754652 72.832468 124.086917 72.832468 
z
" style="fill:#31b57b;"/>
    <path clip-path="url(#pd69f3de892)" d="M 216.78519 133.964141 
C 217.555411 133.964141 218.294189 133.658129 218.838818 133.113501 
C 219.383446 132.568872 219.689458 131.830093 219.689458 131.059872 
C 219.689458 130.289651 219.383446 129.550873 218.838818 129.006244 
C 218.294189 128.461616 217.555411 128.155604 216.78519 128.155604 
C 216.014969 128.155604 215.27619 128.461616 214.731562 129.006244 
C 214.186933 129.550873 213.880921 130.289651 213.880921 131.059872 
C 213.880921 131.830093 214.186933 132.568872 214.731562 133.113501 
C 215.27619 133.658129 216.014969 133.964141 216.78519 133.964141 
z
" style="fill:#b5de2b;"/>
    <path clip-path="url(#pd69f3de892)" d="M 273.594341 234.01164 
C 274.889235 234.01164 276.131269 233.497173 277.046898 232.581544 
C 277.962527 231.665915 278.476994 230.423882 278.476994 229.128987 
C 278.476994 227.834092 277.962527 226.592058 277.046898 225.676429 
C 276.131269 224.760801 274.889235 224.246333 273.594341 224.246333 
C 272.299446 224.246333 271.057412 224.760801 270.141783 225.676429 
C 269.226154 226.592058 268.711687 227.834092 268.711687 229.128987 
C 268.711687 230.423882 269.226154 231.665915 270.141783 232.581544 
C 271.057412 233.497173 272.299446 234.01164 273.594341 234.01164 
z
" style="fill:#481f70;"/>
    <path clip-path="url(#pd69f3de892)" d="M 190.438816 112.109295 
C 191.296637 112.109295 192.119438 111.768479 192.726009 111.161908 
C 193.332579 110.555338 193.673395 109.732536 193.673395 108.874716 
C 193.673395 108.016896 193.332579 107.194094 192.726009 106.587524 
C 192.119438 105.980953 191.296637 105.640138 190.438816 105.640138 
C 189.580996 105.640138 188.758194 105.980953 188.151624 106.587524 
C 187.545053 107.194094 187.204238 108.016896 187.204238 108.874716 
C 187.204238 109.732536 187.545053 110.555338 188.151624 111.161908 
C 188.758194 111.768479 189.580996 112.109295 190.438816 112.109295 
z
" style="fill:#f4e61e;"/>
    <path clip-path="url(#pd69f3de892)" d="M 204.662992 123.45468 
C 205.650029 123.45468 206.596773 123.062526 207.294713 122.364585 
C 207.992654 121.666644 208.384808 120.719901 208.384808 119.732864 
C 208.384808 118.745827 207.992654 117.799083 207.294713 117.101143 
C 206.596773 116.403202 205.650029 116.011048 204.662992 116.011048 
C 203.675955 116.011048 202.729212 116.403202 202.031271 117.101143 
C 201.33333 117.799083 200.941176 118.745827 200.941176 119.732864 
C 200.941176 120.719901 201.33333 121.666644 202.031271 122.364585 
C 202.729212 123.062526 203.675955 123.45468 204.662992 123.45468 
z
" style="fill:#f4e61e;"/>
    <path clip-path="url(#pd69f3de892)" d="M 204.662992 123.45468 
C 205.650029 123.45468 206.596773 123.062526 207.294713 122.364585 
C 207.992654 121.666644 208.384808 120.719901 208.384808 119.732864 
C 208.384808 118.745827 207.992654 117.799083 207.294713 117.101143 
C 206.596773 116.403202 205.650029 116.011048 204.662992 116.011048 
C 203.675955 116.011048 202.729212 116.403202 202.031271 117.101143 
C 201.33333 117.799083 200.941176 118.745827 200.941176 119.732864 
C 200.941176 120.719901 201.33333 121.666644 202.031271 122.364585 
C 202.729212 123.062526 203.675955 123.45468 204.662992 123.45468 
z
" style="fill:#f4e61e;"/>
    <path clip-path="url(#pd69f3de892)" d="M 469.499996 191.389822 
C 469.903733 191.389822 470.290989 191.229415 470.576474 190.94393 
C 470.86196 190.658444 471.022367 190.271189 471.022367 189.867451 
C 471.022367 189.463713 470.86196 189.076458 470.576474 188.790972 
C 470.290989 188.505487 469.903733 188.34508 469.499996 188.34508 
C 469.096258 188.34508 468.709002 188.505487 468.423517 188.790972 
C 468.138031 189.076458 467.977625 189.463713 467.977625 189.867451 
C 467.977625 190.271189 468.138031 190.658444 468.423517 190.94393 
C 468.709002 191.229415 469.096258 191.389822 469.499996 191.389822 
z
" style="fill:#440154;"/>
    <path clip-path="url(#pd69f3de892)" d="M 245.81632 158.978009 
C 246.611227 158.978009 247.373684 158.662189 247.935769 158.100105 
C 248.497853 157.538021 248.813673 156.775564 248.813673 155.980656 
C 248.813673 155.185749 248.497853 154.423292 247.935769 153.861208 
C 247.373684 153.299124 246.611227 152.983304 245.81632 152.983304 
C 245.021413 152.983304 244.258956 153.299124 243.696871 153.861208 
C 243.134787 154.423292 242.818967 155.185749 242.818967 155.980656 
C 242.818967 156.775564 243.134787 157.538021 243.696871 158.100105 
C 244.258956 158.662189 245.021413 158.978009 245.81632 158.978009 
z
" style="fill:#1f958b;"/>
    <path clip-path="url(#pd69f3de892)" d="M 82.777855 65.504113 
C 84.161018 65.504113 85.487715 64.954577 86.465759 63.976533 
C 87.443802 62.99849 87.993339 61.671792 87.993339 60.28863 
C 87.993339 58.905468 87.443802 57.57877 86.465759 56.600727 
C 85.487715 55.622683 84.161018 55.073147 82.777855 55.073147 
C 81.394693 55.073147 80.067995 55.622683 79.089952 56.600727 
C 78.111909 57.57877 77.562372 58.905468 77.562372 60.28863 
C 77.562372 61.671792 78.111909 62.99849 79.089952 63.976533 
C 80.067995 64.954577 81.394693 65.504113 82.777855 65.504113 
z
" style="fill:#31b57b;"/>
    <path clip-path="url(#pd69f3de892)" d="M 266.256926 170.508332 
C 266.962867 170.508332 267.639989 170.227859 268.139165 169.728683 
C 268.63834 169.229508 268.918814 168.552385 268.918814 167.846444 
C 268.918814 167.140503 268.63834 166.463381 268.139165 165.964205 
C 267.639989 165.465029 266.962867 165.184556 266.256926 165.184556 
C 265.550985 165.184556 264.873862 165.465029 264.374686 165.964205 
C 263.875511 166.463381 263.595037 167.140503 263.595037 167.846444 
C 263.595037 168.552385 263.875511 169.229508 264.374686 169.728683 
C 264.873862 170.227859 265.550985 170.508332 266.256926 170.508332 
z
" style="fill:#2c738e;"/>
    <path clip-path="url(#pd69f3de892)" d="M 238.125857 165.750293 
C 239.494734 165.750293 240.80773 165.206433 241.775672 164.23849 
C 242.743614 163.270548 243.287475 161.957553 243.287475 160.588676 
C 243.287475 159.219799 242.743614 157.906803 241.775672 156.938861 
C 240.80773 155.970919 239.494734 155.427058 238.125857 155.427058 
C 236.75698 155.427058 235.443984 155.970919 234.476042 156.938861 
C 233.5081 157.906803 232.96424 159.219799 232.96424 160.588676 
C 232.96424 161.957553 233.5081 163.270548 234.476042 164.23849 
C 235.443984 165.206433 236.75698 165.750293 238.125857 165.750293 
z
" style="fill:#2e6f8e;"/>
    <path clip-path="url(#pd69f3de892)" d="M 208.850787 125.151982 
C 209.695932 125.151982 210.506575 124.816203 211.104182 124.218596 
C 211.701789 123.620988 212.037569 122.810345 212.037569 121.965201 
C 212.037569 121.120056 211.701789 120.309413 211.104182 119.711806 
C 210.506575 119.114198 209.695932 118.778419 208.850787 118.778419 
C 208.005643 118.778419 207.195 119.114198 206.597392 119.711806 
C 205.999785 120.309413 205.664006 121.120056 205.664006 121.965201 
C 205.664006 122.810345 205.999785 123.620988 206.597392 124.218596 
C 207.195 124.816203 208.005643 125.151982 208.850787 125.151982 
z
" style="fill:#eae51a;"/>
    <path clip-path="url(#pd69f3de892)" d="M 160.438378 95.425082 
C 161.617294 95.425082 162.748084 94.956694 163.581704 94.123074 
C 164.415323 93.289455 164.883712 92.158665 164.883712 90.979749 
C 164.883712 89.800833 164.415323 88.670043 163.581704 87.836424 
C 162.748084 87.002804 161.617294 86.534416 160.438378 86.534416 
C 159.259462 86.534416 158.128672 87.002804 157.295053 87.836424 
C 156.461433 88.670043 155.993045 89.800833 155.993045 90.979749 
C 155.993045 92.158665 156.461433 93.289455 157.295053 94.123074 
C 158.128672 94.956694 159.259462 95.425082 160.438378 95.425082 
z
" style="fill:#b5de2b;"/>
    <path clip-path="url(#pd69f3de892)" d="M 153.933449 94.300172 
C 155.345621 94.300172 156.700144 93.73911 157.6987 92.740554 
C 158.697256 91.741998 159.258318 90.387475 159.258318 88.975304 
C 159.258318 87.563132 158.697256 86.208609 157.6987 85.210053 
C 156.700144 84.211497 155.345621 83.650435 153.933449 83.650435 
C 152.521278 83.650435 151.166755 84.211497 150.168199 85.210053 
C 149.169642 86.208609 148.608581 87.563132 148.608581 88.975304 
C 148.608581 90.387475 149.169642 91.741998 150.168199 92.740554 
C 151.166755 93.73911 152.521278 94.300172 153.933449 94.300172 
z
" style="fill:#b8de29;"/>
    <path clip-path="url(#pd69f3de892)" d="M 240.628339 131.426843 
C 241.732899 131.426843 242.792368 130.987996 243.573409 130.206954 
C 244.354451 129.425913 244.793298 128.366444 244.793298 127.261884 
C 244.793298 126.157324 244.354451 125.097855 243.573409 124.316813 
C 242.792368 123.535771 241.732899 123.096925 240.628339 123.096925 
C 239.523779 123.096925 238.46431 123.535771 237.683268 124.316813 
C 236.902226 125.097855 236.46338 126.157324 236.46338 127.261884 
C 236.46338 128.366444 236.902226 129.425913 237.683268 130.206954 
C 238.46431 130.987996 239.523779 131.426843 240.628339 131.426843 
z
" style="fill:#22a884;"/>
    <path clip-path="url(#pd69f3de892)" d="M 212.78257 210.441132 
C 213.529526 210.441132 214.24599 210.144363 214.774168 209.616186 
C 215.302345 209.088008 215.599114 208.371544 215.599114 207.624588 
C 215.599114 206.877632 215.302345 206.161169 214.774168 205.632991 
C 214.24599 205.104813 213.529526 204.808044 212.78257 204.808044 
C 212.035614 204.808044 211.319151 205.104813 210.790973 205.632991 
C 210.262795 206.161169 209.966026 206.877632 209.966026 207.624588 
C 209.966026 208.371544 210.262795 209.088008 210.790973 209.616186 
C 211.319151 210.144363 212.035614 210.441132 212.78257 210.441132 
z
" style="fill:#481a6c;"/>
    <path clip-path="url(#pd69f3de892)" d="M 234.807118 120.306124 
C 235.532933 120.306124 236.229118 120.017754 236.742347 119.504526 
C 237.255576 118.991297 237.543945 118.295112 237.543945 117.569297 
C 237.543945 116.843482 237.255576 116.147297 236.742347 115.634068 
C 236.229118 115.120839 235.532933 114.83247 234.807118 114.83247 
C 234.081303 114.83247 233.385118 115.120839 232.871889 115.634068 
C 232.358661 116.147297 232.070291 116.843482 232.070291 117.569297 
C 232.070291 118.295112 232.358661 118.991297 232.871889 119.504526 
C 233.385118 120.017754 234.081303 120.306124 234.807118 120.306124 
z
" style="fill:#24868e;"/>
   </g>
   <g id="line2d_14">
    <path clip-path="url(#pd69f3de892)" d="M 133.326193 84.507817 
L 208.7503 116.028339 
L 105.731514 72.975712 
L 102.356228 71.565145 
L 151.849716 92.24899 
L 422.261153 205.256753 
L 192.578348 109.269911 
L 131.288989 83.656448 
L 297.947665 153.304849 
L 200.137672 112.429031 
L 206.860574 115.238602 
L 172.132977 100.725577 
L 254.304583 135.065949 
L 76.260707 60.659554 
L 100.971508 70.986456 
L 70.642891 58.31181 
L 241.272362 129.619648 
L 96.005423 68.911077 
L 75.222382 60.225627 
L 87.659585 65.423264 
L 182.196585 104.931264 
L 124.086917 80.646627 
L 216.78519 119.386203 
L 273.594341 143.12734 
L 190.438816 108.375778 
L 204.662992 114.32021 
L 204.662992 114.32021 
L 469.499996 224.998359 
L 245.81632 131.518615 
L 82.777855 63.383139 
L 266.256926 140.060958 
L 238.125857 128.30469 
L 208.850787 116.070333 
L 160.438378 95.838282 
L 153.933449 93.119804 
L 240.628339 129.350504 
L 212.78257 117.713466 
L 234.807118 126.917755 
" style="fill:none;stroke:#000000;stroke-linecap:round;stroke-width:1.5;"/>
   </g>
   <g id="line2d_15">
    <path clip-path="url(#pd69f3de892)" d="M 67.162352 40.133997 
L 472.980534 311.933997 
L 472.980534 311.933997 
" style="fill:none;stroke:#ff0000;stroke-linecap:round;stroke-width:2;"/>
   </g>
   <g id="patch_3">
    <path d="M 46.871443 325.523997 
L 46.871443 26.543997 
" style="fill:none;"/>
   </g>
   <g id="patch_4">
    <path d="M 493.271443 325.523997 
L 493.271443 26.543997 
" style="fill:none;"/>
   </g>
   <g id="patch_5">
    <path d="M 46.871443 325.523997 
L 493.271443 325.523997 
" style="fill:none;"/>
   </g>
   <g id="patch_6">
    <path d="M 46.871443 26.543997 
L 493.271443 26.543997 
" style="fill:none;"/>
   </g>
   <g id="legend_1">
    <g id="line2d_16">
     <path d="M 368.337144 39.043997 
L 388.337144 39.043997 
" style="fill:none;stroke:#000000;stroke-linecap:round;stroke-width:1.5;"/>
    </g>
    <g id="line2d_17"/>
    <g id="text_16">
     <!-- Unbranched Pathway -->
     <defs>
      <path d="M 55.5 68.5 
L 47.90625 68.5 
L 47.90625 22.640625 
C 47.90625 9.4375 39.796875 3.578125 32.40625 3.578125 
C 24.796875 3.578125 17.203125 9.734375 17.203125 22.546875 
L 17.203125 68.5 
L 8.796875 68.5 
L 8.796875 22.71875 
C 8.796875 8.421875 19.90625 -2 32.296875 -2 
C 44.703125 -2 55.5 8.421875 55.5 22.71875 
z
" id="CMSS17-85"/>
      <path d="M 14.90625 69 
L 7.5 69 
L 7.5 -0.203125 
L 15.09375 -0.203125 
L 15.09375 4.28125 
C 18.90625 0.59375 23.5 -1 27.59375 -1 
C 37.203125 -1 45 8.578125 45 21.125 
C 45 32.59375 39 43.0625 30.09375 43.0625 
C 23.796875 43.0625 18.203125 40.484375 14.90625 37.796875 
z
M 15.09375 31.96875 
C 17.296875 34.71875 20.40625 37 24.796875 37 
C 30.703125 37 37.40625 32.765625 37.40625 21.125 
C 37.40625 8.71875 29.40625 5.078125 23.90625 5.078125 
C 21.90625 5.078125 19.796875 5.5625 17.796875 7.25 
C 15.09375 9.609375 15.09375 11.078125 15.09375 12.453125 
z
" id="CMSS17-98"/>
      <path d="M 40.90625 29.546875 
C 40.90625 35.8125 39.40625 44.0625 28.09375 44.0625 
C 21.796875 44.0625 17.703125 40.984375 14.796875 37.609375 
L 14.796875 69.5 
L 7.40625 69.5 
L 7.40625 0.5 
L 15 0.5 
L 15 24.578125 
C 15 30.828125 17.40625 38 24.203125 38 
C 33 38 33.296875 32.125 33.296875 28.734375 
L 33.296875 0.5 
L 40.90625 0.5 
z
" id="CMSS17-104"/>
      <path d="M 62.703125 43 
L 55.09375 43 
L 49.796875 25.015625 
C 48.703125 21.21875 45.59375 10.703125 45.203125 5.796875 
L 45.09375 5.796875 
C 44.90625 8.8125 43.203125 16 40.40625 25.515625 
L 35.296875 43 
L 28.40625 43 
L 23.40625 25.90625 
C 20.90625 17.203125 19 9.796875 18.796875 5.796875 
L 18.703125 5.796875 
C 18.296875 11.703125 14.203125 25.515625 13.59375 27.703125 
L 9.09375 43 
L 1.296875 43 
L 14.296875 0 
L 21.90625 0 
C 27.09375 17.125 31.09375 30.359375 31.40625 37.03125 
C 31.59375 33.75 33.296875 26.671875 34.296875 23.1875 
L 40.90625 0 
L 49.703125 0 
z
" id="CMSS17-119"/>
      <path d="M 41.796875 43 
L 34 43 
C 25.5 20.21875 22.59375 10.96875 22.40625 5.984375 
L 22.296875 5.984375 
C 22 10.875 17.59375 22.8125 14.09375 31.359375 
L 9.40625 43 
L 1.296875 43 
L 19 0.203125 
C 17.90625 -2.78125 16.296875 -7.265625 15.796875 -8.265625 
C 13.59375 -13.828125 12.09375 -13.828125 10.5 -13.828125 
C 10.09375 -13.828125 6.90625 -13.828125 3.296875 -12.640625 
L 3.90625 -19.203125 
C 6.40625 -19.703125 8.90625 -20 10.703125 -20 
C 13.203125 -20 18.203125 -20 22.796875 -7.765625 
z
" id="CMSS17-121"/>
     </defs>
     <g style="fill:#262626;" transform="translate(396.337144 42.543997)scale(0.1 -0.1)">
      <use transform="scale(0.996264)" xlink:href="#CMSS17-85"/>
      <use transform="translate(64.13974 0)scale(0.996264)" xlink:href="#CMSS17-110"/>
      <use transform="translate(112.344683 0)scale(0.996264)" xlink:href="#CMSS17-98"/>
      <use transform="translate(157.947173 0)scale(0.996264)" xlink:href="#CMSS17-114"/>
      <use transform="translate(189.856945 0)scale(0.996264)" xlink:href="#CMSS17-97"/>
      <use transform="translate(234.778866 0)scale(0.996264)" xlink:href="#CMSS17-110"/>
      <use transform="translate(282.983809 0)scale(0.996264)" xlink:href="#CMSS17-99"/>
      <use transform="translate(324.622631 0)scale(0.996264)" xlink:href="#CMSS17-104"/>
      <use transform="translate(372.827574 0)scale(0.996264)" xlink:href="#CMSS17-101"/>
      <use transform="translate(414.466396 0)scale(0.996264)" xlink:href="#CMSS17-100"/>
      <use transform="translate(493.900452 0)scale(0.996264)" xlink:href="#CMSS17-80"/>
      <use transform="translate(551.033584 0)scale(0.996264)" xlink:href="#CMSS17-97"/>
      <use transform="translate(595.955505 0)scale(0.996264)" xlink:href="#CMSS17-116"/>
      <use transform="translate(629.787072 0)scale(0.996264)" xlink:href="#CMSS17-104"/>
      <use transform="translate(677.992015 0)scale(0.996264)" xlink:href="#CMSS17-119"/>
      <use transform="translate(739.209106 0)scale(0.996264)" xlink:href="#CMSS17-97"/>
      <use transform="translate(781.528573 0)scale(0.996264)" xlink:href="#CMSS17-121"/>
     </g>
    </g>
    <g id="line2d_18">
     <path d="M 368.337144 52.981176 
L 388.337144 52.981176 
" style="fill:none;stroke:#ff0000;stroke-linecap:round;stroke-width:2;"/>
    </g>
    <g id="line2d_19"/>
    <g id="text_17">
     <!-- fit -->
     <defs>
      <path d="M 43 69 
L 35 69 
L 35 61.03125 
L 43 61.03125 
z
M 42.703125 42.765625 
L 35.296875 42.765625 
L 35.296875 0 
L 42.703125 0 
z
M 16.796875 37 
L 27.703125 37 
L 27.703125 42.765625 
L 16.59375 42.765625 
L 16.59375 55.90625 
C 16.59375 61.234375 19 63.9375 22.203125 63.9375 
C 24.09375 63.9375 26 63.375 27.703125 62.375 
L 27.703125 68.90625 
C 26.90625 69.1875 24.59375 70 22.203125 70 
C 14.703125 70 9.40625 62.390625 9.40625 52.6875 
L 9.40625 42.765625 
L 2.5 42.765625 
L 2.5 37 
L 9.40625 37 
L 9.40625 0 
L 16.796875 0 
z
" id="CMSS17-12"/>
     </defs>
     <g style="fill:#262626;" transform="translate(396.337144 56.481176)scale(0.1 -0.1)">
      <use transform="scale(0.996264)" xlink:href="#CMSS17-12"/>
      <use transform="translate(50.126737 0)scale(0.996264)" xlink:href="#CMSS17-116"/>
     </g>
    </g>
    <g id="PathCollection_2">
     <path d="M 378.337144 71.74568 
C 379.385313 71.74568 380.390693 71.329238 381.13186 70.588071 
C 381.873028 69.846903 382.28947 68.841523 382.28947 67.793354 
C 382.28947 66.745185 381.873028 65.739805 381.13186 64.998637 
C 380.390693 64.25747 379.385313 63.841028 378.337144 63.841028 
C 377.288974 63.841028 376.283594 64.25747 375.542427 64.998637 
C 374.801259 65.739805 374.384817 66.745185 374.384817 67.793354 
C 374.384817 68.841523 374.801259 69.846903 375.542427 70.588071 
C 376.283594 71.329238 377.288974 71.74568 378.337144 71.74568 
z
" style="fill:#4c72b0;"/>
    </g>
    <g id="text_18">
     <!-- b -->
     <g style="fill:#262626;" transform="translate(396.337144 70.418354)scale(0.1 -0.1)">
      <use transform="scale(0.996264)" xlink:href="#CMSS17-98"/>
     </g>
    </g>
   </g>
  </g>
 </g>
 <defs>
  <clipPath id="pd69f3de892">
   <rect height="298.98" width="446.4" x="46.871443" y="26.543997"/>
  </clipPath>
 </defs>
</svg>
