<?xml version="1.0" encoding="utf-8" standalone="no"?>
<!DOCTYPE svg PUBLIC "-//W3C//DTD SVG 1.1//EN"
  "http://www.w3.org/Graphics/SVG/1.1/DTD/svg11.dtd">
<!-- Created with matplotlib (http://matplotlib.org/) -->
<svg height="353pt" version="1.1" viewBox="0 0 508 353" width="508pt" xmlns="http://www.w3.org/2000/svg" xmlns:xlink="http://www.w3.org/1999/xlink">
 <defs>
  <style type="text/css">
*{stroke-linecap:butt;stroke-linejoin:round;}
  </style>
 </defs>
 <g id="figure_1">
  <g id="patch_1">
   <path d="M 0 353.548374 
L 508.008609 353.548374 
L 508.008609 0 
L 0 0 
z
" style="fill:#ffffff;"/>
  </g>
  <g id="axes_1">
   <g id="patch_2">
    <path d="M 54.408609 306.18 
L 500.808609 306.18 
L 500.808609 7.2 
L 54.408609 7.2 
z
" style="fill:#eaeaf2;"/>
   </g>
   <g id="matplotlib.axis_1">
    <g id="xtick_1">
     <g id="line2d_1"/>
     <g id="text_1">
      <!-- $-7.5$ -->
      <defs>
       <path d="M 9.796875 28.078125 
C 8 27.484375 7.796875 24.78125 9.796875 24.28125 
C 10.296875 24.078125 10.90625 24.1875 11.5 24.1875 
L 64.703125 24.1875 
C 65.90625 24.1875 67.796875 23.78125 68.796875 24.78125 
C 69.90625 25.875 69.296875 27.875 67.703125 28.1875 
C 66.5 28.375 65.09375 28.1875 63.90625 28.1875 
L 11.40625 28.1875 
C 10.90625 28.1875 10.296875 28.28125 9.796875 28.078125 
" id="Computer_Modern_Bright_Math_Symbols-0"/>
       <path d="M 3.59375 65.625 
L 3.59375 60 
L 42.796875 60 
L 39.09375 56.375 
C 35.796875 52.859375 32.796875 49.125 30.09375 45.109375 
C 21.09375 31.515625 16.203125 15.3125 16.203125 -1 
L 22.90625 -1 
C 22.90625 13.703125 26.59375 28.390625 33.59375 41.375 
C 37 47.921875 40.59375 52.640625 45.296875 58.171875 
C 45.90625 58.78125 46.796875 59.484375 47.09375 60.28125 
C 47.296875 60.78125 47.203125 61.484375 47.203125 62.109375 
L 47.203125 65.625 
z
" id="Computer_Modern_Bright-55"/>
       <path d="M 10.703125 7.8125 
L 10.703125 0 
L 18.5 0 
L 18.5 7.8125 
z
" id="Computer_Modern_Bright_Math_Slanted-58"/>
       <path d="M 8.40625 66.328125 
L 8.40625 30.453125 
L 12.203125 30.453125 
C 12.703125 30.453125 13.40625 30.359375 13.796875 30.5625 
C 14.296875 30.859375 14.59375 31.5625 14.90625 31.96875 
C 15.59375 32.859375 16.40625 33.5625 17.203125 34.265625 
C 20.796875 37.28125 27.703125 38.484375 32.296875 36.171875 
C 38.59375 33.171875 39.796875 25.21875 39.296875 19 
C 39 15.0625 37.796875 11.453125 35.5 9.140625 
C 30.203125 3.5 21.296875 3.5 14.796875 6.796875 
C 11.59375 8.40625 8.90625 10.921875 6.90625 13.921875 
L 6.796875 13.921875 
C 6.5 13.421875 4.203125 9.90625 4.203125 9.296875 
C 4.203125 8.890625 4.5 8.59375 4.703125 8.296875 
C 7.703125 4.78125 11.59375 2.0625 16.09375 0.5625 
C 25 -2.25 35 -0.046875 41.296875 7.1875 
C 48.796875 15.921875 47.796875 30.15625 39.09375 37.765625 
C 36.5 40.1875 32.90625 41.890625 28.59375 42.28125 
C 22.796875 43.09375 17.59375 40.28125 14.5 37.671875 
L 14.5 61 
L 42.90625 61 
L 42.90625 66.328125 
z
" id="Computer_Modern_Bright-53"/>
      </defs>
      <g style="fill:#262626;" transform="translate(82.444218 324.249603)scale(0.16 -0.16)">
       <use transform="scale(0.996264)" xlink:href="#Computer_Modern_Bright_Math_Symbols-0"/>
       <use transform="translate(77.487468 0)scale(0.996264)" xlink:href="#Computer_Modern_Bright-55"/>
       <use transform="translate(128.130685 0)scale(0.996264)" xlink:href="#Computer_Modern_Bright_Math_Slanted-58"/>
       <use transform="translate(157.188132 0)scale(0.996264)" xlink:href="#Computer_Modern_Bright-53"/>
      </g>
     </g>
    </g>
    <g id="xtick_2">
     <g id="line2d_2"/>
     <g id="text_2">
      <!-- $-5.0$ -->
      <defs>
       <path d="M 14.796875 63.859375 
C 11.90625 61.859375 9.90625 59.140625 8.40625 56.03125 
C 4.796875 49 4.40625 40.765625 4.40625 31.828125 
C 4.40625 20.578125 6.40625 10.25 12 4.3125 
C 17.296875 -1.203125 25.703125 -2.609375 32.796875 0.296875 
C 37.203125 2.015625 40.40625 5.71875 42.40625 9.734375 
C 46 16.875 46.40625 25.40625 46.40625 34.234375 
C 46.40625 37.046875 46.296875 39.859375 46 42.671875 
C 45.296875 49.40625 43 56.828125 39.296875 60.953125 
C 33.203125 67.6875 22.296875 69.1875 14.796875 63.859375 
M 34.90625 58.140625 
C 39.59375 53.125 40 43.484375 40 34.34375 
L 40 28.921875 
C 40 24.296875 39.203125 18.28125 38.203125 14.859375 
C 36.796875 10.140625 34.5 6.734375 29.90625 4.625 
C 24.296875 2.609375 18.5 4.515625 15.296875 8.9375 
C 11 14.65625 10.796875 24.796875 10.796875 33.734375 
C 10.796875 42.171875 10.90625 51.515625 15 57.03125 
C 19.5 63.0625 29.203125 64.0625 34.90625 58.140625 
" id="Computer_Modern_Bright-48"/>
      </defs>
      <g style="fill:#262626;" transform="translate(136.430339 324.249603)scale(0.16 -0.16)">
       <use transform="scale(0.996264)" xlink:href="#Computer_Modern_Bright_Math_Symbols-0"/>
       <use transform="translate(77.487468 0)scale(0.996264)" xlink:href="#Computer_Modern_Bright-53"/>
       <use transform="translate(128.130685 0)scale(0.996264)" xlink:href="#Computer_Modern_Bright_Math_Slanted-58"/>
       <use transform="translate(157.188132 0)scale(0.996264)" xlink:href="#Computer_Modern_Bright-48"/>
      </g>
     </g>
    </g>
    <g id="xtick_3">
     <g id="line2d_3"/>
     <g id="text_3">
      <!-- $-2.5$ -->
      <defs>
       <path d="M 7.296875 45.96875 
C 8.703125 51.59375 11.09375 57.984375 16.796875 60.5 
C 19.203125 61.5 21.796875 61.703125 24.40625 61.5 
C 29.296875 61.09375 34.09375 59.09375 37.09375 55.09375 
C 39.296875 52.078125 40.09375 48.375 39.703125 44.78125 
C 38.5 34.34375 28.296875 26.84375 21.703125 21.234375 
C 17.90625 18.03125 7.09375 7.8125 7.09375 7.8125 
L 5.40625 6.203125 
C 4.5 5.3125 4.40625 5.3125 4.40625 3.5 
L 4.40625 0 
L 46.40625 0 
L 46.40625 5.625 
L 10.203125 5.625 
C 13.40625 8.734375 26.703125 20.515625 28.5 21.921875 
C 34.296875 26.65625 40.796875 31.375 44.296875 38.21875 
C 48.203125 46.0625 46.5 55.9375 39.90625 61.765625 
C 35.90625 65.296875 30.40625 67 25.09375 67 
C 20.203125 67 15.203125 66 11.296875 62.90625 
C 8.296875 60.390625 5.796875 56.6875 4.40625 52.875 
C 4.09375 52.28125 3.59375 51.28125 3.703125 50.578125 
C 3.796875 49.984375 4.40625 49.484375 4.703125 49.078125 
C 5.5 48.078125 6.296875 46.875 7.296875 45.96875 
" id="Computer_Modern_Bright-50"/>
      </defs>
      <g style="fill:#262626;" transform="translate(190.41646 324.249603)scale(0.16 -0.16)">
       <use transform="scale(0.996264)" xlink:href="#Computer_Modern_Bright_Math_Symbols-0"/>
       <use transform="translate(77.487468 0)scale(0.996264)" xlink:href="#Computer_Modern_Bright-50"/>
       <use transform="translate(128.130685 0)scale(0.996264)" xlink:href="#Computer_Modern_Bright_Math_Slanted-58"/>
       <use transform="translate(157.188132 0)scale(0.996264)" xlink:href="#Computer_Modern_Bright-53"/>
      </g>
     </g>
    </g>
    <g id="xtick_4">
     <g id="line2d_4"/>
     <g id="text_4">
      <!-- $0.0$ -->
      <g style="fill:#262626;" transform="translate(250.60158 324.249603)scale(0.16 -0.16)">
       <use transform="scale(0.996264)" xlink:href="#Computer_Modern_Bright-48"/>
       <use transform="translate(50.643218 0)scale(0.996264)" xlink:href="#Computer_Modern_Bright_Math_Slanted-58"/>
       <use transform="translate(79.700665 0)scale(0.996264)" xlink:href="#Computer_Modern_Bright-48"/>
      </g>
     </g>
    </g>
    <g id="xtick_5">
     <g id="line2d_5"/>
     <g id="text_5">
      <!-- $2.5$ -->
      <g style="fill:#262626;" transform="translate(304.587701 324.249603)scale(0.16 -0.16)">
       <use transform="scale(0.996264)" xlink:href="#Computer_Modern_Bright-50"/>
       <use transform="translate(50.643218 0)scale(0.996264)" xlink:href="#Computer_Modern_Bright_Math_Slanted-58"/>
       <use transform="translate(79.700665 0)scale(0.996264)" xlink:href="#Computer_Modern_Bright-53"/>
      </g>
     </g>
    </g>
    <g id="xtick_6">
     <g id="line2d_6"/>
     <g id="text_6">
      <!-- $5.0$ -->
      <g style="fill:#262626;" transform="translate(358.573822 324.249603)scale(0.16 -0.16)">
       <use transform="scale(0.996264)" xlink:href="#Computer_Modern_Bright-53"/>
       <use transform="translate(50.643218 0)scale(0.996264)" xlink:href="#Computer_Modern_Bright_Math_Slanted-58"/>
       <use transform="translate(79.700665 0)scale(0.996264)" xlink:href="#Computer_Modern_Bright-48"/>
      </g>
     </g>
    </g>
    <g id="xtick_7">
     <g id="line2d_7"/>
     <g id="text_7">
      <!-- $7.5$ -->
      <g style="fill:#262626;" transform="translate(412.559943 324.249603)scale(0.16 -0.16)">
       <use transform="scale(0.996264)" xlink:href="#Computer_Modern_Bright-55"/>
       <use transform="translate(50.643218 0)scale(0.996264)" xlink:href="#Computer_Modern_Bright_Math_Slanted-58"/>
       <use transform="translate(79.700665 0)scale(0.996264)" xlink:href="#Computer_Modern_Bright-53"/>
      </g>
     </g>
    </g>
    <g id="xtick_8">
     <g id="line2d_8"/>
     <g id="text_8">
      <!-- $10.0$ -->
      <defs>
       <path d="M 9.703125 60.015625 
L 9.703125 55 
C 15.203125 55 19 56 23.40625 57.90625 
L 23.40625 5.015625 
L 10.296875 5.015625 
L 10.296875 0 
L 43 0 
L 43 5.015625 
L 29.90625 5.015625 
L 29.90625 67 
C 27.5 67 27.90625 66.359375 26 64.875 
C 21.90625 61.71875 16.203125 60.015625 9.703125 60.015625 
" id="Computer_Modern_Bright-49"/>
      </defs>
      <g style="fill:#262626;" transform="translate(462.361788 324.249603)scale(0.16 -0.16)">
       <use transform="scale(0.996264)" xlink:href="#Computer_Modern_Bright-49"/>
       <use transform="translate(50.643218 0)scale(0.996264)" xlink:href="#Computer_Modern_Bright-48"/>
       <use transform="translate(101.286436 0)scale(0.996264)" xlink:href="#Computer_Modern_Bright_Math_Slanted-58"/>
       <use transform="translate(130.343883 0)scale(0.996264)" xlink:href="#Computer_Modern_Bright-48"/>
      </g>
     </g>
    </g>
    <g id="text_9">
     <!-- Predicted Additive Effect -->
     <defs>
      <path d="M 8 70 
L 8 0.5 
L 15 0.5 
L 15 30 
L 29.09375 30 
C 31.296875 30 33.5 30 35.59375 30 
C 43 30.609375 49.203125 33.640625 53.40625 38.171875 
C 57.703125 42.90625 59.59375 50.15625 56.796875 56.296875 
C 53.59375 64.046875 46 68.984375 36.296875 70 
C 33.40625 70 30.40625 70 27.5 70 
z
M 14.90625 35.21875 
L 14.90625 64.671875 
L 28.59375 64.671875 
C 37.296875 64.671875 45.203125 63.671875 49.203125 57.65625 
C 51.90625 53.625 52.296875 48 50.09375 43.671875 
C 48.90625 41.34375 47.09375 39.546875 44.90625 38.234375 
C 40 35.21875 34.296875 35.21875 28.796875 35.21875 
z
" id="Computer_Modern_Bright-80"/>
      <path d="M 12.5 34.75 
L 12.40625 34.75 
L 12.40625 47.390625 
L 6.40625 47.390625 
L 6.40625 0 
L 12.703125 0 
L 12.703125 22.890625 
C 12.703125 24.40625 12.703125 25.90625 12.90625 27.40625 
C 14.296875 35.953125 21.703125 42.28125 31.40625 42.28125 
L 31.40625 48 
C 25 48 19.09375 44.890625 15.296875 39.765625 
C 14.203125 38.265625 13 36.546875 12.5 34.75 
" id="Computer_Modern_Bright-114"/>
      <path d="M 41.796875 10.9375 
C 39.5 9.234375 38.796875 8.328125 35.90625 6.8125 
C 29.796875 3.5 22.59375 3.5 17.40625 7.171875 
C 12.40625 10.765625 9.5 16.640625 9.5 25 
L 42.5 25 
C 42.5 32.421875 40.796875 38.859375 36.59375 43.375 
C 32 47.890625 24.796875 49.296875 18.703125 47.390625 
C 16.40625 46.6875 14.296875 45.484375 12.40625 43.96875 
C 6.09375 38.859375 3.40625 30.71875 3.5 22.78125 
C 3.703125 12.34375 10.796875 1.90625 21.296875 -0.3125 
C 26.796875 -1.421875 32.59375 -0.203125 37.5 2.296875 
C 38.40625 2.796875 41.703125 4.609375 42.09375 5.515625 
C 42.40625 6.015625 41.796875 10.9375 41.796875 10.9375 
M 37.203125 28.90625 
L 10 28.90625 
C 11.203125 36.234375 17.203125 43.96875 25.296875 43.0625 
C 31.90625 42.46875 35.40625 37.75 36.703125 31.828125 
C 36.90625 30.8125 37 29.921875 37.203125 28.90625 
" id="Computer_Modern_Bright-101"/>
      <path d="M 35.59375 69.6875 
L 35.59375 41.375 
C 33.703125 43.484375 31.796875 45.484375 29.203125 46.6875 
C 20.296875 50.40625 11.703125 45.59375 7.296875 37.65625 
C 2.203125 28.21875 2.796875 15.765625 8.90625 6.921875 
C 13.203125 0.796875 20.296875 -2.203125 27.796875 0.5 
C 30.703125 1.609375 34.203125 4.515625 35.40625 7.125 
L 35.5 7.125 
L 35.5 0 
L 41.90625 0 
L 41.90625 69.6875 
z
M 35.203125 37.453125 
C 35.703125 36.546875 35.5 35.34375 35.5 34.34375 
L 35.5 13.65625 
C 35.5 11.34375 35.40625 11.140625 34.09375 9.34375 
C 32.296875 6.625 29.5 4.71875 26.203125 4.421875 
C 21.40625 4.015625 16.5 6.328125 13.703125 10.25 
C 12.09375 12.546875 11.203125 15.359375 10.703125 18.171875 
C 10.5 19.28125 10.5 20.28125 10.40625 21.390625 
C 9.796875 28.015625 11.203125 35.84375 17 40.0625 
C 18 40.765625 19.09375 41.265625 20.203125 41.765625 
C 26 43.984375 32.40625 43.375 35.203125 37.453125 
" id="Computer_Modern_Bright-100"/>
      <path d="M 6.40625 70 
L 6.40625 63.671875 
L 12.703125 63.671875 
L 12.703125 70 
z
M 6.40625 47.390625 
L 6.40625 0 
L 12.703125 0 
L 12.703125 47.390625 
z
" id="Computer_Modern_Bright-105"/>
      <path d="M 42.40625 11.25 
C 40.5 9.84375 38.796875 8.328125 36.703125 7.125 
C 32 4.625 24.796875 3.421875 19.40625 5.921875 
C 11.59375 9.9375 9.5 19.6875 10.59375 27.71875 
C 10.796875 29.328125 11.09375 30.921875 11.59375 32.4375 
C 13.796875 38.96875 19.296875 44.078125 28.296875 43.078125 
C 33.09375 42.671875 35.5 41.875 39.296875 39.765625 
C 40 39.359375 40.59375 38.859375 41.40625 38.65625 
C 41.5 39.859375 41.796875 41.171875 42 42.375 
C 42.296875 43.984375 42.296875 44.1875 40.796875 44.890625 
C 39.703125 45.390625 38.59375 45.984375 37.40625 46.390625 
C 32.796875 48.40625 25.203125 49 20 47.5 
C 12.90625 45.484375 7.59375 39.359375 5.296875 32.53125 
C 4.203125 29.421875 3.90625 26.109375 3.90625 22.796875 
C 4 12.25 11.203125 1.90625 21.703125 -0.203125 
C 27.5 -1.40625 34.203125 0.296875 38.203125 2.40625 
C 39.203125 2.90625 42.203125 4.71875 42.703125 5.625 
C 43 6.125 42.40625 11.25 42.40625 11.25 
" id="Computer_Modern_Bright-99"/>
      <path d="M 10.796875 60.5 
L 10.796875 47.015625 
L 1.09375 47.015625 
L 1.09375 42 
L 10.703125 42 
L 10.703125 15.015625 
C 10.703125 10.578125 10.40625 5.234375 13.296875 1.515625 
C 15 -0.703125 17.296875 -1.296875 20.796875 -1 
C 23.703125 -1 26.59375 -0.390625 29.296875 0.65625 
C 30.203125 1.0625 33.5 2.515625 33.90625 3.234375 
C 34.09375 3.640625 32.796875 8.09375 32.796875 8.09375 
L 30.40625 6.265625 
C 27.296875 4.34375 21.09375 2.328125 18.5 5.96875 
C 16.203125 9.09375 16.796875 13.75 16.796875 17.375 
L 16.796875 42 
L 32.296875 42 
L 32.296875 47.015625 
L 16.796875 47.015625 
L 16.796875 60.5 
z
" id="Computer_Modern_Bright-116"/>
      <path d="M 2.09375 0.09375 
L 6.59375 0.09375 
L 8.40625 0.296875 
C 11.40625 6.796875 13.5 14.203125 16.203125 21 
C 26.09375 21 36.90625 21 46.296875 21 
L 47.09375 19.6875 
C 48.796875 14.546875 50.796875 9.59375 52.59375 4.546875 
C 53.09375 3.015625 53.59375 1.515625 54.40625 0.296875 
C 56.59375 0 59.203125 0 61.59375 0 
C 59.90625 4.90625 36.703125 67.203125 36 68.890625 
C 35.90625 69.296875 35.703125 69.890625 35.203125 70 
C 34.59375 70.09375 34 70 33.40625 70 
L 30.09375 70 
C 28.59375 70 28 70.1875 27.59375 68.609375 
C 27.203125 67.59375 2.09375 0.09375 2.09375 0.09375 
M 31.40625 63.171875 
C 35.59375 50.71875 40.09375 38.46875 44.5 26.21875 
L 18.203125 26.21875 
L 26.90625 50.109375 
z
" id="Computer_Modern_Bright-65"/>
      <path d="M 0.703125 47.5 
C 1.203125 45.5 4.203125 37.578125 4.40625 37.078125 
C 5.40625 34.28125 17.296875 0.609375 17.59375 0.296875 
C 17.90625 -0.203125 18.796875 0 19.296875 0 
L 22.796875 0 
C 24.09375 0 24.90625 -0.296875 25.203125 0.90625 
C 28.40625 9.328125 40.09375 42.703125 41.796875 47.5 
L 35.59375 47.5 
C 30.796875 33.984375 25.90625 20.4375 21.40625 6.609375 
L 11 36.203125 
C 9.5 39.796875 8.59375 43.890625 6.90625 47.203125 
C 5.09375 47.5 2.796875 47.5 0.703125 47.5 
" id="Computer_Modern_Bright-118"/>
      <path d="M 8 69.328125 
L 8 0 
L 55.40625 0 
L 55.40625 5.625 
L 15 5.625 
L 15 33.671875 
L 51.09375 33.671875 
L 51.09375 39 
L 15 39 
L 15 64 
L 54 64 
L 54 69.328125 
z
" id="Computer_Modern_Bright-69"/>
      <path d="M 10.59375 47.015625 
L 2 47.015625 
L 2 42 
L 10.59375 42 
L 10.59375 -0.5 
L 16.90625 -0.5 
L 16.90625 42 
L 29.296875 42 
L 29.296875 47.015625 
L 16.796875 47.015625 
L 16.796875 55.78125 
C 16.796875 57.1875 16.5 58.921875 17.09375 60.328125 
C 19.203125 64.75 26.296875 65.5625 32.09375 64.5625 
C 33.296875 64.359375 34.40625 63.953125 35.59375 63.75 
L 35.59375 69.390625 
C 28.796875 70.5 21.296875 70.5 15.703125 65.921875 
C 14.796875 65.125 14 64.34375 13.296875 63.328125 
C 11.203125 60.75 10.59375 57.875 10.59375 53.390625 
z
M 38.09375 -0.5 
L 44.40625 -0.5 
L 44.40625 42 
L 56.796875 42 
L 56.796875 47.015625 
L 44.296875 47.015625 
L 44.296875 55.78125 
C 44.296875 57.1875 44 58.921875 44.59375 60.328125 
C 46.703125 64.75 53.796875 65.5625 59.59375 64.5625 
C 60.796875 64.359375 61.90625 63.953125 63.09375 63.75 
L 63.09375 69.390625 
C 57.59375 70.09375 51.5 70.796875 46.296875 68.1875 
C 42.203125 65.96875 38.59375 62.25 38.09375 56.609375 
C 38 55.1875 38.09375 53.78125 38.09375 52.375 
z
" id="Computer_Modern_Bright-11"/>
     </defs>
     <g style="fill:#262626;" transform="translate(186.951533 343.359582)scale(0.18 -0.18)">
      <use transform="scale(0.996264)" xlink:href="#Computer_Modern_Bright-80"/>
      <use transform="translate(62.888907 0)scale(0.996264)" xlink:href="#Computer_Modern_Bright-114"/>
      <use transform="translate(94.852266 0)scale(0.996264)" xlink:href="#Computer_Modern_Bright-101"/>
      <use transform="translate(139.683934 0)scale(0.996264)" xlink:href="#Computer_Modern_Bright-100"/>
      <use transform="translate(187.836431 0)scale(0.996264)" xlink:href="#Computer_Modern_Bright-105"/>
      <use transform="translate(206.931389 0)scale(0.996264)" xlink:href="#Computer_Modern_Bright-99"/>
      <use transform="translate(251.763057 0)scale(0.996264)" xlink:href="#Computer_Modern_Bright-116"/>
      <use transform="translate(287.877445 0)scale(0.996264)" xlink:href="#Computer_Modern_Bright-101"/>
      <use transform="translate(332.709113 0)scale(0.996264)" xlink:href="#Computer_Modern_Bright-100"/>
      <use transform="translate(412.326821 0)scale(0.996264)" xlink:href="#Computer_Modern_Bright-65"/>
      <use transform="translate(475.838439 0)scale(0.996264)" xlink:href="#Computer_Modern_Bright-100"/>
      <use transform="translate(523.990936 0)scale(0.996264)" xlink:href="#Computer_Modern_Bright-100"/>
      <use transform="translate(572.143433 0)scale(0.996264)" xlink:href="#Computer_Modern_Bright-105"/>
      <use transform="translate(591.238392 0)scale(0.996264)" xlink:href="#Computer_Modern_Bright-116"/>
      <use transform="translate(627.35278 0)scale(0.996264)" xlink:href="#Computer_Modern_Bright-105"/>
      <use transform="translate(646.447739 0)scale(0.996264)" xlink:href="#Computer_Modern_Bright-118"/>
      <use transform="translate(688.788777 0)scale(0.996264)" xlink:href="#Computer_Modern_Bright-101"/>
      <use transform="translate(765.085656 0)scale(0.996264)" xlink:href="#Computer_Modern_Bright-69"/>
      <use transform="translate(823.823443 0)scale(0.996264)" xlink:href="#Computer_Modern_Bright-11"/>
      <use transform="translate(881.52351 0)scale(0.996264)" xlink:href="#Computer_Modern_Bright-101"/>
      <use transform="translate(926.355178 0)scale(0.996264)" xlink:href="#Computer_Modern_Bright-99"/>
      <use transform="translate(971.186846 0)scale(0.996264)" xlink:href="#Computer_Modern_Bright-116"/>
     </g>
    </g>
   </g>
   <g id="matplotlib.axis_2">
    <g id="ytick_1">
     <g id="line2d_9"/>
     <g id="text_10">
      <!-- $-6$ -->
      <defs>
       <path d="M 11.296875 32.625 
L 11.203125 32.625 
C 11.203125 41.765625 12.796875 52.421875 20.59375 58.25 
C 24.90625 61.375 30.703125 62.96875 38.203125 61.171875 
C 39.796875 60.765625 41.296875 60.15625 42.796875 59.765625 
L 42.796875 63.28125 
C 42.796875 63.671875 42.90625 64.375 42.59375 64.78125 
C 41.90625 65.6875 36.296875 66.59375 36.09375 66.59375 
C 27.40625 67.59375 21.703125 65.6875 16.40625 61.171875 
C 10 55.640625 6.296875 47.515625 5.09375 39.28125 
C 4 32.65625 4.90625 22 6.203125 16.78125 
C 8.296875 9.046875 12.296875 2.21875 19.703125 -0.390625 
C 24.09375 -2 29.5 -2 33.703125 0.015625 
C 37.09375 1.640625 39.90625 4.46875 42.09375 7.5 
C 45.59375 12.34375 46.5 18.21875 46.09375 24.171875 
C 45.90625 27.109375 45.5 30.046875 44.296875 32.765625 
C 42.40625 37.125 39.203125 41.671875 35.09375 43.6875 
C 33.203125 44.5 31.203125 44.5 29.203125 44.5 
C 23.90625 44.5 18.90625 42.1875 15.203125 38.359375 
C 13.59375 36.75 12 34.71875 11.296875 32.625 
M 24.40625 39.515625 
C 28.203125 39.8125 32.203125 39.21875 35.09375 36.5 
C 38.90625 32.890625 39.59375 27.765625 39.59375 22.8125 
C 39.59375 19.46875 39.703125 16.015625 38.703125 12.859375 
C 38.09375 11.234375 37.296875 9.828125 36.40625 8.5 
C 34.203125 5.5625 31.40625 4.125 26.796875 3.515625 
C 22.296875 3.515625 17.796875 5.3125 15.203125 9.125 
C 13.59375 11.328125 12.796875 14.046875 12.296875 16.640625 
C 11.703125 19.34375 11.296875 22.140625 11.5 24.859375 
C 12 31.984375 17 38.515625 24.40625 39.515625 
" id="Computer_Modern_Bright-54"/>
      </defs>
      <g style="fill:#262626;" transform="translate(26.642062 273.745653)scale(0.16 -0.16)">
       <use transform="scale(0.996264)" xlink:href="#Computer_Modern_Bright_Math_Symbols-0"/>
       <use transform="translate(77.487468 0)scale(0.996264)" xlink:href="#Computer_Modern_Bright-54"/>
      </g>
     </g>
    </g>
    <g id="ytick_2">
     <g id="line2d_10"/>
     <g id="text_11">
      <!-- $-4$ -->
      <defs>
       <path d="M 2.09375 18 
L 31 18 
L 31 0 
L 37.296875 0 
L 37.296875 18 
L 48.703125 18 
L 48.703125 23.328125 
L 37.296875 23.328125 
L 37.296875 66.46875 
L 31.90625 66.46875 
C 30.09375 66.46875 29.59375 66.578125 28.796875 65.0625 
C 24.796875 58.515625 3.703125 25.765625 3 24.859375 
C 2.203125 23.4375 2.09375 23.546875 2.09375 21.4375 
z
M 31.296875 60.875 
L 31.296875 23.328125 
L 8.59375 23.328125 
C 9.296875 24.734375 10.296875 26.03125 11.203125 27.4375 
C 16.203125 35.171875 28.09375 53.546875 30.59375 59.28125 
C 30.90625 59.78125 31 60.375 31.296875 60.875 
" id="Computer_Modern_Bright-52"/>
      </defs>
      <g style="fill:#262626;" transform="translate(26.642062 232.76798)scale(0.16 -0.16)">
       <use transform="scale(0.996264)" xlink:href="#Computer_Modern_Bright_Math_Symbols-0"/>
       <use transform="translate(77.487468 0)scale(0.996264)" xlink:href="#Computer_Modern_Bright-52"/>
      </g>
     </g>
    </g>
    <g id="ytick_3">
     <g id="line2d_11"/>
     <g id="text_12">
      <!-- $-2$ -->
      <g style="fill:#262626;" transform="translate(26.642062 191.790308)scale(0.16 -0.16)">
       <use transform="scale(0.996264)" xlink:href="#Computer_Modern_Bright_Math_Symbols-0"/>
       <use transform="translate(77.487468 0)scale(0.996264)" xlink:href="#Computer_Modern_Bright-50"/>
      </g>
     </g>
    </g>
    <g id="ytick_4">
     <g id="line2d_12"/>
     <g id="text_13">
      <!-- $0$ -->
      <g style="fill:#262626;" transform="translate(39.040058 150.812635)scale(0.16 -0.16)">
       <use transform="scale(0.996264)" xlink:href="#Computer_Modern_Bright-48"/>
      </g>
     </g>
    </g>
    <g id="ytick_5">
     <g id="line2d_13"/>
     <g id="text_14">
      <!-- $2$ -->
      <g style="fill:#262626;" transform="translate(39.040058 109.834962)scale(0.16 -0.16)">
       <use transform="scale(0.996264)" xlink:href="#Computer_Modern_Bright-50"/>
      </g>
     </g>
    </g>
    <g id="ytick_6">
     <g id="line2d_14"/>
     <g id="text_15">
      <!-- $4$ -->
      <g style="fill:#262626;" transform="translate(39.040058 68.857289)scale(0.16 -0.16)">
       <use transform="scale(0.996264)" xlink:href="#Computer_Modern_Bright-52"/>
      </g>
     </g>
    </g>
    <g id="ytick_7">
     <g id="line2d_15"/>
     <g id="text_16">
      <!-- $6$ -->
      <g style="fill:#262626;" transform="translate(39.040058 27.879617)scale(0.16 -0.16)">
       <use transform="scale(0.996264)" xlink:href="#Computer_Modern_Bright-54"/>
      </g>
     </g>
    </g>
    <g id="text_17">
     <!-- Deviation from Additive Effect -->
     <defs>
      <path d="M 8 70 
L 8 0 
L 28.203125 0 
C 31.40625 0 34.59375 0 37.703125 0.296875 
C 45.703125 1.109375 52.59375 5.015625 57.203125 9.828125 
C 70.09375 23.171875 70 46.125 57.296875 59.671875 
C 52.703125 64.578125 46.5 68.5 38.703125 69.5 
C 34.90625 70 31 70 27.203125 70 
z
M 14.90625 5.3125 
L 14.90625 64.5625 
L 27.796875 64.5625 
C 30.5 64.5625 33.203125 64.5625 35.90625 64.359375 
C 40.40625 63.859375 44.796875 62.359375 48.5 59.734375 
C 56.59375 54.125 60 44.171875 60 34.640625 
C 60 26.609375 57.796875 18.375 51.90625 12.640625 
C 47.90625 8.9375 42.5 6.21875 36 5.515625 
C 33.40625 5.3125 30.703125 5.3125 28.09375 5.3125 
z
" id="Computer_Modern_Bright-68"/>
      <path d="M 7.90625 39.015625 
C 9.59375 39.859375 11 41.09375 12.703125 41.921875 
C 15.40625 43.15625 18.203125 44 21.203125 44 
C 22.59375 44.09375 24.203125 44.296875 25.59375 44 
C 28.09375 43.59375 30.296875 42.078125 31.796875 39.953125 
C 33.296875 37.515625 33.90625 35.390625 33.90625 31.46875 
L 33.90625 27.015625 
C 29.09375 27.015625 24.296875 26.609375 19.703125 25.390625 
C 13.90625 24.078125 7.59375 21.125 5.5 15.84375 
C 3.40625 10.78125 5.59375 4.078125 10.09375 1.03125 
C 12.296875 -0.5 14.90625 -0.5 17.5 -0.296875 
C 21.703125 0 25.90625 1.015625 29.5 3.25 
C 31.203125 4.25 32.90625 5.578125 33.90625 7.296875 
L 34 7.296875 
L 34 0.203125 
L 40.296875 0.203125 
L 40.296875 26.890625 
C 40.296875 29.8125 40.59375 32.953125 40 35.890625 
C 39.40625 39.921875 36.90625 43.265625 34 45.59375 
C 30.59375 48.21875 26.703125 49.109375 21.5 48.71875 
C 16.703125 48.71875 13 47.5 9.40625 45.765625 
C 8.90625 45.5625 7.90625 45.234375 7.59375 44.640625 
C 7.296875 44.21875 7.5 43.515625 7.5 43 
C 7.703125 41.671875 7.796875 40.34375 7.90625 39.015625 
M 33.90625 24 
L 33.90625 16.375 
C 33.90625 14.0625 34 11.953125 32.703125 9.953125 
C 31.59375 8.34375 30.09375 7.234375 28.5 6.4375 
C 22.796875 3.515625 14.09375 4.421875 11.59375 9.25 
C 9.59375 12.75 11.703125 16.875 14.59375 19.1875 
C 18.90625 22.5 27.296875 24 33.90625 24 
" id="Computer_Modern_Bright-97"/>
      <path d="M 10.703125 42.078125 
C 1.796875 33.234375 0.796875 17.875 8.5 7.9375 
C 9.59375 6.421875 10.90625 5.125 12.40625 4.015625 
C 16.09375 1 21.5 -1.203125 27.796875 -0.5 
C 37.796875 0.703125 44.703125 8.84375 46.796875 17.375 
C 49.59375 29.328125 43.703125 42.671875 32.703125 46.890625 
C 24.09375 50.40625 15.5 46.890625 10.703125 42.078125 
M 35.703125 39.359375 
C 40.5 35.03125 41.40625 28.109375 41 21.984375 
C 40.703125 17.265625 39.40625 12.34375 36.09375 8.828125 
C 30.703125 3 20.703125 3 14.90625 8.625 
C 11.90625 11.84375 10.09375 16.453125 9.796875 21.984375 
C 9.296875 30.109375 11.296875 38.75 19.296875 41.96875 
C 25.203125 44.578125 32 42.671875 35.703125 39.359375 
" id="Computer_Modern_Bright-111"/>
      <path d="M 12.59375 37.28125 
L 12.5 37.28125 
L 12.5 47.390625 
L 6.40625 47.390625 
L 6.40625 0 
L 12.796875 0 
L 12.796875 21.9375 
C 12.796875 26.84375 12.5 31.875 14.703125 36.46875 
C 15.796875 38.78125 17.5 40.78125 19.796875 41.984375 
C 21.703125 42.890625 23.703125 42.890625 25.796875 42.6875 
C 28.796875 42.6875 31.703125 41.890625 33.59375 39.375 
C 35.40625 37.0625 35.5 34.0625 35.5 31.25 
L 35.5 0 
L 41.90625 0 
L 41.90625 26.859375 
C 41.90625 31.875 42.40625 37.375 40 41.890625 
C 38.09375 45.5 34.40625 47.203125 30.5 47.703125 
C 28.5 48 26.40625 48 24.40625 47.609375 
C 19.203125 46.5 14.40625 42.296875 12.59375 37.28125 
" id="Computer_Modern_Bright-110"/>
      <path d="M 10.59375 47.015625 
L 2 47.015625 
L 2 42 
L 10.59375 42 
L 10.59375 -0.5 
L 16.90625 -0.5 
L 16.90625 42 
L 29.296875 42 
L 29.296875 47.015625 
L 16.796875 47.015625 
L 16.796875 55.78125 
C 16.796875 57.1875 16.5 58.921875 17.09375 60.328125 
C 19.203125 64.75 26.296875 65.5625 32.09375 64.5625 
C 33.296875 64.359375 34.40625 63.953125 35.59375 63.75 
L 35.59375 69.390625 
C 28.796875 70.5 21.296875 70.5 15.703125 65.921875 
C 14.796875 65.125 14 64.34375 13.296875 63.328125 
C 11.203125 60.75 10.59375 57.875 10.59375 53.390625 
z
" id="Computer_Modern_Bright-102"/>
      <path d="M 12.59375 37.359375 
L 12.5 37.359375 
L 12.5 47.390625 
L 6.40625 47.390625 
L 6.40625 0 
L 12.796875 0 
L 12.796875 22.046875 
C 12.796875 26.953125 12.5 31.875 14.703125 36.375 
C 16.59375 40.28125 19.90625 43.390625 25.796875 42.78125 
C 28.796875 42.78125 31.796875 41.984375 33.703125 39.453125 
C 35.5 37.140625 35.59375 34.140625 35.59375 31.3125 
L 35.59375 0 
L 42 0 
L 42 22.046875 
C 42 26.953125 41.703125 31.875 43.90625 36.375 
C 45.796875 40.28125 49.09375 43.390625 55 42.78125 
C 58 42.78125 61 41.984375 62.90625 39.453125 
C 64.703125 37.140625 64.796875 34.140625 64.796875 31.3125 
L 64.796875 0 
L 71.203125 0 
L 71.203125 26.5625 
C 71.203125 31.375 71.796875 36.78125 69.703125 41.1875 
C 67.59375 45.296875 64.203125 47.5 58.703125 47.5 
C 55.5 47.796875 52.296875 47.3125 49.40625 45.84375 
C 45.90625 43.921875 43.296875 40.75 41.703125 37.265625 
C 41 40.578125 40.203125 42.828125 38 45 
C 35.703125 47.0625 32.59375 48 29.59375 48 
C 22.296875 48.59375 17.703125 45.5625 14.59375 41 
C 13.796875 39.875 13 38.671875 12.59375 37.359375 
" id="Computer_Modern_Bright-109"/>
     </defs>
     <g style="fill:#262626;" transform="translate(19.65327 267.065543)rotate(-90)scale(0.18 -0.18)">
      <use transform="scale(0.996264)" xlink:href="#Computer_Modern_Bright-68"/>
      <use transform="translate(71.606187 0)scale(0.996264)" xlink:href="#Computer_Modern_Bright-101"/>
      <use transform="translate(116.437855 0)scale(0.996264)" xlink:href="#Computer_Modern_Bright-118"/>
      <use transform="translate(158.778893 0)scale(0.996264)" xlink:href="#Computer_Modern_Bright-105"/>
      <use transform="translate(177.873851 0)scale(0.996264)" xlink:href="#Computer_Modern_Bright-97"/>
      <use transform="translate(224.365934 0)scale(0.996264)" xlink:href="#Computer_Modern_Bright-116"/>
      <use transform="translate(260.480322 0)scale(0.996264)" xlink:href="#Computer_Modern_Bright-105"/>
      <use transform="translate(279.57528 0)scale(0.996264)" xlink:href="#Computer_Modern_Bright-111"/>
      <use transform="translate(330.218498 0)scale(0.996264)" xlink:href="#Computer_Modern_Bright-110"/>
      <use transform="translate(409.836207 0)scale(0.996264)" xlink:href="#Computer_Modern_Bright-102"/>
      <use transform="translate(440.139151 0)scale(0.996264)" xlink:href="#Computer_Modern_Bright-114"/>
      <use transform="translate(472.10251 0)scale(0.996264)" xlink:href="#Computer_Modern_Bright-111"/>
      <use transform="translate(522.745728 0)scale(0.996264)" xlink:href="#Computer_Modern_Bright-109"/>
      <use transform="translate(631.421066 0)scale(0.996264)" xlink:href="#Computer_Modern_Bright-65"/>
      <use transform="translate(694.932683 0)scale(0.996264)" xlink:href="#Computer_Modern_Bright-100"/>
      <use transform="translate(743.08518 0)scale(0.996264)" xlink:href="#Computer_Modern_Bright-100"/>
      <use transform="translate(791.237677 0)scale(0.996264)" xlink:href="#Computer_Modern_Bright-105"/>
      <use transform="translate(810.332636 0)scale(0.996264)" xlink:href="#Computer_Modern_Bright-116"/>
      <use transform="translate(846.447024 0)scale(0.996264)" xlink:href="#Computer_Modern_Bright-105"/>
      <use transform="translate(865.541983 0)scale(0.996264)" xlink:href="#Computer_Modern_Bright-118"/>
      <use transform="translate(907.883021 0)scale(0.996264)" xlink:href="#Computer_Modern_Bright-101"/>
      <use transform="translate(984.1799 0)scale(0.996264)" xlink:href="#Computer_Modern_Bright-69"/>
      <use transform="translate(1042.917687 0)scale(0.996264)" xlink:href="#Computer_Modern_Bright-11"/>
      <use transform="translate(1100.617755 0)scale(0.996264)" xlink:href="#Computer_Modern_Bright-101"/>
      <use transform="translate(1145.449422 0)scale(0.996264)" xlink:href="#Computer_Modern_Bright-99"/>
      <use transform="translate(1190.28109 0)scale(0.996264)" xlink:href="#Computer_Modern_Bright-116"/>
     </g>
    </g>
   </g>
   <g id="PathCollection_1">
    <path clip-path="url(#p945cc83377)" d="M 396.548454 230.080208 
C 397.057186 230.080208 397.545151 229.878087 397.904879 229.518359 
C 398.264606 229.158631 398.466728 228.670667 398.466728 228.161934 
C 398.466728 227.653202 398.264606 227.165238 397.904879 226.80551 
C 397.545151 226.445782 397.057186 226.243661 396.548454 226.243661 
C 396.039722 226.243661 395.551758 226.445782 395.19203 226.80551 
C 394.832302 227.165238 394.630181 227.653202 394.630181 228.161934 
C 394.630181 228.670667 394.832302 229.158631 395.19203 229.518359 
C 395.551758 229.878087 396.039722 230.080208 396.548454 230.080208 
z
" style="fill:#33a02c;fill-opacity:0.9;stroke:#33a02c;stroke-opacity:0.9;stroke-width:0.3;"/>
    <path clip-path="url(#p945cc83377)" d="M 261.146783 168.899418 
C 261.733311 168.899418 262.295896 168.666387 262.710634 168.251649 
C 263.125372 167.836911 263.358403 167.274326 263.358403 166.687798 
C 263.358403 166.10127 263.125372 165.538685 262.710634 165.123947 
C 262.295896 164.709209 261.733311 164.476178 261.146783 164.476178 
C 260.560255 164.476178 259.99767 164.709209 259.582932 165.123947 
C 259.168194 165.538685 258.935163 166.10127 258.935163 166.687798 
C 258.935163 167.274326 259.168194 167.836911 259.582932 168.251649 
C 259.99767 168.666387 260.560255 168.899418 261.146783 168.899418 
z
" style="fill:#33a02c;fill-opacity:0.9;stroke:#33a02c;stroke-opacity:0.9;stroke-width:0.3;"/>
    <path clip-path="url(#p945cc83377)" d="M 307.942472 177.048714 
C 308.604995 177.048714 309.240472 176.785491 309.708946 176.317016 
C 310.177421 175.848542 310.440644 175.213065 310.440644 174.550542 
C 310.440644 173.888019 310.177421 173.252542 309.708946 172.784067 
C 309.240472 172.315593 308.604995 172.052369 307.942472 172.052369 
C 307.279949 172.052369 306.644472 172.315593 306.175997 172.784067 
C 305.707522 173.252542 305.444299 173.888019 305.444299 174.550542 
C 305.444299 175.213065 305.707522 175.848542 306.175997 176.317016 
C 306.644472 176.785491 307.279949 177.048714 307.942472 177.048714 
z
" style="fill:#33a02c;fill-opacity:0.9;stroke:#33a02c;stroke-opacity:0.9;stroke-width:0.3;"/>
    <path clip-path="url(#p945cc83377)" d="M 244.026103 138.660417 
C 244.842619 138.660417 245.625803 138.336012 246.203167 137.758648 
C 246.780531 137.181284 247.104936 136.3981 247.104936 135.581584 
C 247.104936 134.765068 246.780531 133.981884 246.203167 133.40452 
C 245.625803 132.827156 244.842619 132.502751 244.026103 132.502751 
C 243.209587 132.502751 242.426403 132.827156 241.849039 133.40452 
C 241.271675 133.981884 240.94727 134.765068 240.94727 135.581584 
C 240.94727 136.3981 241.271675 137.181284 241.849039 137.758648 
C 242.426403 138.336012 243.209587 138.660417 244.026103 138.660417 
z
" style="fill:#33a02c;fill-opacity:0.9;stroke:#33a02c;stroke-opacity:0.9;stroke-width:0.3;"/>
    <path clip-path="url(#p945cc83377)" d="M 241.93196 138.989133 
C 242.715828 138.989133 243.467696 138.677699 244.021974 138.12342 
C 244.576252 137.569142 244.887686 136.817274 244.887686 136.033407 
C 244.887686 135.249539 244.576252 134.497671 244.021974 133.943393 
C 243.467696 133.389115 242.715828 133.077681 241.93196 133.077681 
C 241.148093 133.077681 240.396225 133.389115 239.841947 133.943393 
C 239.287668 134.497671 238.976234 135.249539 238.976234 136.033407 
C 238.976234 136.817274 239.287668 137.569142 239.841947 138.12342 
C 240.396225 138.677699 241.148093 138.989133 241.93196 138.989133 
z
" style="fill:#33a02c;fill-opacity:0.9;stroke:#33a02c;stroke-opacity:0.9;stroke-width:0.3;"/>
    <path clip-path="url(#p945cc83377)" d="M 272.639408 151.846452 
C 273.495266 151.846452 274.316185 151.506416 274.921368 150.901234 
C 275.526551 150.296051 275.866587 149.475131 275.866587 148.619274 
C 275.866587 147.763416 275.526551 146.942497 274.921368 146.337314 
C 274.316185 145.732131 273.495266 145.392095 272.639408 145.392095 
C 271.783551 145.392095 270.962631 145.732131 270.357449 146.337314 
C 269.752266 146.942497 269.41223 147.763416 269.41223 148.619274 
C 269.41223 149.475131 269.752266 150.296051 270.357449 150.901234 
C 270.962631 151.506416 271.783551 151.846452 272.639408 151.846452 
z
" style="fill:#33a02c;fill-opacity:0.9;stroke:#33a02c;stroke-opacity:0.9;stroke-width:0.3;"/>
    <path clip-path="url(#p945cc83377)" d="M 440.411886 249.388065 
C 441.045088 249.388065 441.65244 249.136492 442.100181 248.68875 
C 442.547923 248.241009 442.799496 247.633657 442.799496 247.000455 
C 442.799496 246.367253 442.547923 245.759901 442.100181 245.31216 
C 441.65244 244.864418 441.045088 244.612845 440.411886 244.612845 
C 439.778684 244.612845 439.171332 244.864418 438.723591 245.31216 
C 438.275849 245.759901 438.024276 246.367253 438.024276 247.000455 
C 438.024276 247.633657 438.275849 248.241009 438.723591 248.68875 
C 439.171332 249.136492 439.778684 249.388065 440.411886 249.388065 
z
" style="fill:#33a02c;fill-opacity:0.9;stroke:#33a02c;stroke-opacity:0.9;stroke-width:0.3;"/>
    <path clip-path="url(#p945cc83377)" d="M 297.908841 167.721818 
C 298.732588 167.721818 299.522708 167.39454 300.105186 166.812062 
C 300.687663 166.229585 301.014941 165.439465 301.014941 164.615717 
C 301.014941 163.79197 300.687663 163.00185 300.105186 162.419372 
C 299.522708 161.836895 298.732588 161.509617 297.908841 161.509617 
C 297.085093 161.509617 296.294973 161.836895 295.712496 162.419372 
C 295.130018 163.00185 294.80274 163.79197 294.80274 164.615717 
C 294.80274 165.439465 295.130018 166.229585 295.712496 166.812062 
C 296.294973 167.39454 297.085093 167.721818 297.908841 167.721818 
z
" style="fill:#33a02c;fill-opacity:0.9;stroke:#33a02c;stroke-opacity:0.9;stroke-width:0.3;"/>
    <path clip-path="url(#p945cc83377)" d="M 259.882832 159.43337 
C 260.632467 159.43337 261.3515 159.135537 261.881572 158.605465 
C 262.411644 158.075393 262.709477 157.35636 262.709477 156.606725 
C 262.709477 155.85709 262.411644 155.138057 261.881572 154.607985 
C 261.3515 154.077913 260.632467 153.78008 259.882832 153.78008 
C 259.133197 153.78008 258.414164 154.077913 257.884092 154.607985 
C 257.354021 155.138057 257.056187 155.85709 257.056187 156.606725 
C 257.056187 157.35636 257.354021 158.075393 257.884092 158.605465 
C 258.414164 159.135537 259.133197 159.43337 259.882832 159.43337 
z
" style="fill:#33a02c;fill-opacity:0.9;stroke:#33a02c;stroke-opacity:0.9;stroke-width:0.3;"/>
    <path clip-path="url(#p945cc83377)" d="M 363.283559 226.064665 
C 364.022044 226.064665 364.730382 225.771262 365.25257 225.249074 
C 365.774758 224.726886 366.068161 224.018548 366.068161 223.280062 
C 366.068161 222.541577 365.774758 221.833239 365.25257 221.311051 
C 364.730382 220.788863 364.022044 220.49546 363.283559 220.49546 
C 362.545074 220.49546 361.836735 220.788863 361.314548 221.311051 
C 360.79236 221.833239 360.498956 222.541577 360.498956 223.280062 
C 360.498956 224.018548 360.79236 224.726886 361.314548 225.249074 
C 361.836735 225.771262 362.545074 226.064665 363.283559 226.064665 
z
" style="fill:#33a02c;fill-opacity:0.9;stroke:#33a02c;stroke-opacity:0.9;stroke-width:0.3;"/>
    <path clip-path="url(#p945cc83377)" d="M 302.598903 158.417471 
C 303.292414 158.417471 303.957613 158.141937 304.447999 157.65155 
C 304.938385 157.161164 305.21392 156.495965 305.21392 155.802454 
C 305.21392 155.108943 304.938385 154.443744 304.447999 153.953358 
C 303.957613 153.462971 303.292414 153.187437 302.598903 153.187437 
C 301.905392 153.187437 301.240193 153.462971 300.749806 153.953358 
C 300.25942 154.443744 299.983886 155.108943 299.983886 155.802454 
C 299.983886 156.495965 300.25942 157.161164 300.749806 157.65155 
C 301.240193 158.141937 301.905392 158.417471 302.598903 158.417471 
z
" style="fill:#33a02c;fill-opacity:0.9;stroke:#33a02c;stroke-opacity:0.9;stroke-width:0.3;"/>
    <path clip-path="url(#p945cc83377)" d="M 306.770021 172.441694 
C 307.400131 172.441694 308.004519 172.191349 308.450074 171.745793 
C 308.895629 171.300238 309.145975 170.695851 309.145975 170.065741 
C 309.145975 169.43563 308.895629 168.831243 308.450074 168.385688 
C 308.004519 167.940132 307.400131 167.689787 306.770021 167.689787 
C 306.139911 167.689787 305.535523 167.940132 305.089968 168.385688 
C 304.644413 168.831243 304.394067 169.43563 304.394067 170.065741 
C 304.394067 170.695851 304.644413 171.300238 305.089968 171.745793 
C 305.535523 172.191349 306.139911 172.441694 306.770021 172.441694 
z
" style="fill:#33a02c;fill-opacity:0.9;stroke:#33a02c;stroke-opacity:0.9;stroke-width:0.3;"/>
    <path clip-path="url(#p945cc83377)" d="M 285.223835 177.422015 
C 286.075461 177.422015 286.89232 177.08366 287.49451 176.48147 
C 288.096701 175.87928 288.435055 175.062421 288.435055 174.210795 
C 288.435055 173.35917 288.096701 172.54231 287.49451 171.94012 
C 286.89232 171.33793 286.075461 170.999575 285.223835 170.999575 
C 284.37221 170.999575 283.55535 171.33793 282.95316 171.94012 
C 282.35097 172.54231 282.012616 173.35917 282.012616 174.210795 
C 282.012616 175.062421 282.35097 175.87928 282.95316 176.48147 
C 283.55535 177.08366 284.37221 177.422015 285.223835 177.422015 
z
" style="fill:#33a02c;fill-opacity:0.9;stroke:#33a02c;stroke-opacity:0.9;stroke-width:0.3;"/>
    <path clip-path="url(#p945cc83377)" d="M 336.205902 190.727229 
C 336.820587 190.727229 337.410179 190.483012 337.844827 190.048364 
C 338.279475 189.613716 338.523692 189.024124 338.523692 188.409439 
C 338.523692 187.794754 338.279475 187.205162 337.844827 186.770514 
C 337.410179 186.335866 336.820587 186.091649 336.205902 186.091649 
C 335.591217 186.091649 335.001625 186.335866 334.566977 186.770514 
C 334.132329 187.205162 333.888112 187.794754 333.888112 188.409439 
C 333.888112 189.024124 334.132329 189.613716 334.566977 190.048364 
C 335.001625 190.483012 335.591217 190.727229 336.205902 190.727229 
z
" style="fill:#33a02c;fill-opacity:0.9;stroke:#33a02c;stroke-opacity:0.9;stroke-width:0.3;"/>
    <path clip-path="url(#p945cc83377)" d="M 225.741409 130.38682 
C 226.467219 130.38682 227.163398 130.098453 227.676623 129.585228 
C 228.189848 129.072004 228.478215 128.375824 228.478215 127.650014 
C 228.478215 126.924205 228.189848 126.228025 227.676623 125.7148 
C 227.163398 125.201576 226.467219 124.913208 225.741409 124.913208 
C 225.0156 124.913208 224.31942 125.201576 223.806195 125.7148 
C 223.29297 126.228025 223.004603 126.924205 223.004603 127.650014 
C 223.004603 128.375824 223.29297 129.072004 223.806195 129.585228 
C 224.31942 130.098453 225.0156 130.38682 225.741409 130.38682 
z
" style="fill:#33a02c;fill-opacity:0.9;stroke:#33a02c;stroke-opacity:0.9;stroke-width:0.3;"/>
    <path clip-path="url(#p945cc83377)" d="M 241.072833 120.164778 
C 241.827133 120.164778 242.550641 119.865091 243.084012 119.33172 
C 243.617383 118.798349 243.91707 118.074842 243.91707 117.320541 
C 243.91707 116.566241 243.617383 115.842733 243.084012 115.309362 
C 242.550641 114.775991 241.827133 114.476305 241.072833 114.476305 
C 240.318533 114.476305 239.595025 114.775991 239.061654 115.309362 
C 238.528283 115.842733 238.228596 116.566241 238.228596 117.320541 
C 238.228596 118.074842 238.528283 118.798349 239.061654 119.33172 
C 239.595025 119.865091 240.318533 120.164778 241.072833 120.164778 
z
" style="fill:#33a02c;fill-opacity:0.9;stroke:#33a02c;stroke-opacity:0.9;stroke-width:0.3;"/>
    <path clip-path="url(#p945cc83377)" d="M 222.255925 137.122566 
C 223.026834 137.122566 223.766272 136.816281 224.311387 136.271166 
C 224.856502 135.726051 225.162788 134.986612 225.162788 134.215703 
C 225.162788 133.444794 224.856502 132.705355 224.311387 132.16024 
C 223.766272 131.615125 223.026834 131.30884 222.255925 131.30884 
C 221.485016 131.30884 220.745577 131.615125 220.200462 132.16024 
C 219.655347 132.705355 219.349061 133.444794 219.349061 134.215703 
C 219.349061 134.986612 219.655347 135.726051 220.200462 136.271166 
C 220.745577 136.816281 221.485016 137.122566 222.255925 137.122566 
z
" style="fill:#33a02c;fill-opacity:0.9;stroke:#33a02c;stroke-opacity:0.9;stroke-width:0.3;"/>
    <path clip-path="url(#p945cc83377)" d="M 328.120268 234.624975 
C 328.766551 234.624975 329.386451 234.368204 329.843442 233.911213 
C 330.300434 233.454221 330.557205 232.834321 330.557205 232.188038 
C 330.557205 231.541755 330.300434 230.921854 329.843442 230.464863 
C 329.386451 230.007872 328.766551 229.751101 328.120268 229.751101 
C 327.473984 229.751101 326.854084 230.007872 326.397093 230.464863 
C 325.940101 230.921854 325.68333 231.541755 325.68333 232.188038 
C 325.68333 232.834321 325.940101 233.454221 326.397093 233.911213 
C 326.854084 234.368204 327.473984 234.624975 328.120268 234.624975 
z
" style="fill:#33a02c;fill-opacity:0.9;stroke:#33a02c;stroke-opacity:0.9;stroke-width:0.3;"/>
    <path clip-path="url(#p945cc83377)" d="M 237.991705 135.63617 
C 238.721342 135.63617 239.421194 135.346282 239.937125 134.83035 
C 240.453057 134.314419 240.742945 133.614567 240.742945 132.884929 
C 240.742945 132.155292 240.453057 131.45544 239.937125 130.939509 
C 239.421194 130.423577 238.721342 130.133689 237.991705 130.133689 
C 237.262067 130.133689 236.562216 130.423577 236.046284 130.939509 
C 235.530352 131.45544 235.240464 132.155292 235.240464 132.884929 
C 235.240464 133.614567 235.530352 134.314419 236.046284 134.83035 
C 236.562216 135.346282 237.262067 135.63617 237.991705 135.63617 
z
" style="fill:#33a02c;fill-opacity:0.9;stroke:#33a02c;stroke-opacity:0.9;stroke-width:0.3;"/>
    <path clip-path="url(#p945cc83377)" d="M 225.097197 128.965827 
C 225.763254 128.965827 226.40212 128.7012 226.873093 128.230227 
C 227.344066 127.759254 227.608692 127.120388 227.608692 126.454331 
C 227.608692 125.788275 227.344066 125.149409 226.873093 124.678436 
C 226.40212 124.207463 225.763254 123.942836 225.097197 123.942836 
C 224.431141 123.942836 223.792275 124.207463 223.321302 124.678436 
C 222.850329 125.149409 222.585702 125.788275 222.585702 126.454331 
C 222.585702 127.120388 222.850329 127.759254 223.321302 128.230227 
C 223.792275 128.7012 224.431141 128.965827 225.097197 128.965827 
z
" style="fill:#33a02c;fill-opacity:0.9;stroke:#33a02c;stroke-opacity:0.9;stroke-width:0.3;"/>
    <path clip-path="url(#p945cc83377)" d="M 232.813662 128.4036 
C 233.616071 128.4036 234.385723 128.084799 234.953112 127.51741 
C 235.520501 126.950022 235.839301 126.180369 235.839301 125.37796 
C 235.839301 124.575551 235.520501 123.805899 234.953112 123.23851 
C 234.385723 122.671121 233.616071 122.352321 232.813662 122.352321 
C 232.011253 122.352321 231.241601 122.671121 230.674212 123.23851 
C 230.106823 123.805899 229.788023 124.575551 229.788023 125.37796 
C 229.788023 126.180369 230.106823 126.950022 230.674212 127.51741 
C 231.241601 128.084799 232.011253 128.4036 232.813662 128.4036 
z
" style="fill:#33a02c;fill-opacity:0.9;stroke:#33a02c;stroke-opacity:0.9;stroke-width:0.3;"/>
    <path clip-path="url(#p945cc83377)" d="M 291.467641 169.688439 
C 292.24395 169.688439 292.988568 169.380008 293.537501 168.831075 
C 294.086435 168.282141 294.394866 167.537523 294.394866 166.761214 
C 294.394866 165.984905 294.086435 165.240288 293.537501 164.691354 
C 292.988568 164.142421 292.24395 163.83399 291.467641 163.83399 
C 290.691332 163.83399 289.946714 164.142421 289.397781 164.691354 
C 288.848848 165.240288 288.540417 165.984905 288.540417 166.761214 
C 288.540417 167.537523 288.848848 168.282141 289.397781 168.831075 
C 289.946714 169.380008 290.691332 169.688439 291.467641 169.688439 
z
" style="fill:#33a02c;fill-opacity:0.9;stroke:#33a02c;stroke-opacity:0.9;stroke-width:0.3;"/>
    <path clip-path="url(#p945cc83377)" d="M 255.414421 136.565594 
C 256.241587 136.565594 257.034986 136.236958 257.61988 135.652063 
C 258.204775 135.067169 258.533411 134.27377 258.533411 133.446605 
C 258.533411 132.619439 258.204775 131.82604 257.61988 131.241146 
C 257.034986 130.656251 256.241587 130.327615 255.414421 130.327615 
C 254.587256 130.327615 253.793857 130.656251 253.208963 131.241146 
C 252.624068 131.82604 252.295432 132.619439 252.295432 133.446605 
C 252.295432 134.27377 252.624068 135.067169 253.208963 135.652063 
C 253.793857 136.236958 254.587256 136.565594 255.414421 136.565594 
z
" style="fill:#33a02c;fill-opacity:0.9;stroke:#33a02c;stroke-opacity:0.9;stroke-width:0.3;"/>
    <path clip-path="url(#p945cc83377)" d="M 312.927591 180.365774 
C 313.556525 180.365774 314.159783 180.115896 314.604507 179.671172 
C 315.04923 179.226449 315.299108 178.62319 315.299108 177.994257 
C 315.299108 177.365323 315.04923 176.762064 314.604507 176.317341 
C 314.159783 175.872618 313.556525 175.62274 312.927591 175.62274 
C 312.298657 175.62274 311.695399 175.872618 311.250675 176.317341 
C 310.805952 176.762064 310.556074 177.365323 310.556074 177.994257 
C 310.556074 178.62319 310.805952 179.226449 311.250675 179.671172 
C 311.695399 180.115896 312.298657 180.365774 312.927591 180.365774 
z
" style="fill:#33a02c;fill-opacity:0.9;stroke:#33a02c;stroke-opacity:0.9;stroke-width:0.3;"/>
    <path clip-path="url(#p945cc83377)" d="M 298.513297 230.143489 
C 299.049965 230.143489 299.564725 229.930268 299.944207 229.550786 
C 300.323688 229.171305 300.536909 228.656545 300.536909 228.119877 
C 300.536909 227.583208 300.323688 227.068448 299.944207 226.688967 
C 299.564725 226.309485 299.049965 226.096265 298.513297 226.096265 
C 297.976629 226.096265 297.461869 226.309485 297.082387 226.688967 
C 296.702905 227.068448 296.489685 227.583208 296.489685 228.119877 
C 296.489685 228.656545 296.702905 229.171305 297.082387 229.550786 
C 297.461869 229.930268 297.976629 230.143489 298.513297 230.143489 
z
" style="fill:#33a02c;fill-opacity:0.9;stroke:#33a02c;stroke-opacity:0.9;stroke-width:0.3;"/>
    <path clip-path="url(#p945cc83377)" d="M 348.173926 250.139258 
C 348.989408 250.139258 349.771599 249.815263 350.348232 249.23863 
C 350.924865 248.661997 351.248859 247.879806 351.248859 247.064324 
C 351.248859 246.248842 350.924865 245.46665 350.348232 244.890017 
C 349.771599 244.313384 348.989408 243.98939 348.173926 243.98939 
C 347.358444 243.98939 346.576252 244.313384 345.999619 244.890017 
C 345.422986 245.46665 345.098992 246.248842 345.098992 247.064324 
C 345.098992 247.879806 345.422986 248.661997 345.999619 249.23863 
C 346.576252 249.815263 347.358444 250.139258 348.173926 250.139258 
z
" style="fill:#33a02c;fill-opacity:0.9;stroke:#33a02c;stroke-opacity:0.9;stroke-width:0.3;"/>
    <path clip-path="url(#p945cc83377)" d="M 296.581402 164.871999 
C 297.245138 164.871999 297.881778 164.608294 298.351111 164.138962 
C 298.820443 163.66963 299.084148 163.032989 299.084148 162.369254 
C 299.084148 161.705518 298.820443 161.068877 298.351111 160.599545 
C 297.881778 160.130213 297.245138 159.866508 296.581402 159.866508 
C 295.917666 159.866508 295.281026 160.130213 294.811694 160.599545 
C 294.342362 161.068877 294.078657 161.705518 294.078657 162.369254 
C 294.078657 163.032989 294.342362 163.66963 294.811694 164.138962 
C 295.281026 164.608294 295.917666 164.871999 296.581402 164.871999 
z
" style="fill:#33a02c;fill-opacity:0.9;stroke:#33a02c;stroke-opacity:0.9;stroke-width:0.3;"/>
    <path clip-path="url(#p945cc83377)" d="M 305.406566 172.701281 
C 306.11854 172.701281 306.801448 172.418411 307.30489 171.91497 
C 307.808331 171.411528 308.091201 170.728619 308.091201 170.016646 
C 308.091201 169.304672 307.808331 168.621764 307.30489 168.118322 
C 306.801448 167.614881 306.11854 167.332011 305.406566 167.332011 
C 304.694593 167.332011 304.011684 167.614881 303.508243 168.118322 
C 303.004801 168.621764 302.721931 169.304672 302.721931 170.016646 
C 302.721931 170.728619 303.004801 171.411528 303.508243 171.91497 
C 304.011684 172.418411 304.694593 172.701281 305.406566 172.701281 
z
" style="fill:#33a02c;fill-opacity:0.9;stroke:#33a02c;stroke-opacity:0.9;stroke-width:0.3;"/>
    <path clip-path="url(#p945cc83377)" d="M 305.406566 172.701281 
C 306.11854 172.701281 306.801448 172.418411 307.30489 171.91497 
C 307.808331 171.411528 308.091201 170.728619 308.091201 170.016646 
C 308.091201 169.304672 307.808331 168.621764 307.30489 168.118322 
C 306.801448 167.614881 306.11854 167.332011 305.406566 167.332011 
C 304.694593 167.332011 304.011684 167.614881 303.508243 168.118322 
C 303.004801 168.621764 302.721931 169.304672 302.721931 170.016646 
C 302.721931 170.728619 303.004801 171.411528 303.508243 171.91497 
C 304.011684 172.418411 304.694593 172.701281 305.406566 172.701281 
z
" style="fill:#33a02c;fill-opacity:0.9;stroke:#33a02c;stroke-opacity:0.9;stroke-width:0.3;"/>
    <path clip-path="url(#p945cc83377)" d="M 469.720475 221.129419 
C 470.175827 221.129419 470.612589 220.948506 470.934571 220.626524 
C 471.256553 220.304542 471.437466 219.86778 471.437466 219.412428 
C 471.437466 218.957077 471.256553 218.520314 470.934571 218.198332 
C 470.612589 217.87635 470.175827 217.695437 469.720475 217.695437 
C 469.265124 217.695437 468.828361 217.87635 468.506379 218.198332 
C 468.184397 218.520314 468.003484 218.957077 468.003484 219.412428 
C 468.003484 219.86778 468.184397 220.304542 468.506379 220.626524 
C 468.828361 220.948506 469.265124 221.129419 469.720475 221.129419 
z
" style="fill:#33a02c;fill-opacity:0.9;stroke:#33a02c;stroke-opacity:0.9;stroke-width:0.3;"/>
    <path clip-path="url(#p945cc83377)" d="M 330.939494 197.955184 
C 331.578427 197.955184 332.191277 197.701333 332.643071 197.249539 
C 333.094865 196.797745 333.348716 196.184895 333.348716 195.545962 
C 333.348716 194.907029 333.094865 194.294179 332.643071 193.842385 
C 332.191277 193.390592 331.578427 193.136741 330.939494 193.136741 
C 330.300561 193.136741 329.687711 193.390592 329.235917 193.842385 
C 328.784123 194.294179 328.530273 194.907029 328.530273 195.545962 
C 328.530273 196.184895 328.784123 196.797745 329.235917 197.249539 
C 329.687711 197.701333 330.300561 197.955184 330.939494 197.955184 
z
" style="fill:#33a02c;fill-opacity:0.9;stroke:#33a02c;stroke-opacity:0.9;stroke-width:0.3;"/>
    <path clip-path="url(#p945cc83377)" d="M 229.78487 131.328087 
C 230.627688 131.328087 231.4361 130.993232 232.032062 130.39727 
C 232.628024 129.801308 232.962879 128.992896 232.962879 128.150078 
C 232.962879 127.30726 232.628024 126.498849 232.032062 125.902887 
C 231.4361 125.306925 230.627688 124.97207 229.78487 124.97207 
C 228.942053 124.97207 228.133641 125.306925 227.537679 125.902887 
C 226.941717 126.498849 226.606862 127.30726 226.606862 128.150078 
C 226.606862 128.992896 226.941717 129.801308 227.537679 130.39727 
C 228.133641 130.993232 228.942053 131.328087 229.78487 131.328087 
z
" style="fill:#33a02c;fill-opacity:0.9;stroke:#33a02c;stroke-opacity:0.9;stroke-width:0.3;"/>
    <path clip-path="url(#p945cc83377)" d="M 443.098841 224.392693 
C 443.513954 224.392693 443.912121 224.227767 444.20565 223.934237 
C 444.49918 223.640708 444.664106 223.242541 444.664106 222.827428 
C 444.664106 222.412315 444.49918 222.014148 444.20565 221.720619 
C 443.912121 221.42709 443.513954 221.262164 443.098841 221.262164 
C 442.683728 221.262164 442.285561 221.42709 441.992032 221.720619 
C 441.698503 222.014148 441.533577 222.412315 441.533577 222.827428 
C 441.533577 223.242541 441.698503 223.640708 441.992032 223.934237 
C 442.285561 224.227767 442.683728 224.392693 443.098841 224.392693 
z
" style="fill:#33a02c;fill-opacity:0.9;stroke:#33a02c;stroke-opacity:0.9;stroke-width:0.3;"/>
    <path clip-path="url(#p945cc83377)" d="M 343.621543 206.173437 
C 344.223661 206.173437 344.801198 205.934213 345.22696 205.508452 
C 345.652721 205.082691 345.891945 204.505153 345.891945 203.903035 
C 345.891945 203.300918 345.652721 202.72338 345.22696 202.297619 
C 344.801198 201.871858 344.223661 201.632634 343.621543 201.632634 
C 343.019426 201.632634 342.441888 201.871858 342.016127 202.297619 
C 341.590365 202.72338 341.351141 203.300918 341.351141 203.903035 
C 341.351141 204.505153 341.590365 205.082691 342.016127 205.508452 
C 342.441888 205.934213 343.019426 206.173437 343.621543 206.173437 
z
" style="fill:#33a02c;fill-opacity:0.9;stroke:#33a02c;stroke-opacity:0.9;stroke-width:0.3;"/>
    <path clip-path="url(#p945cc83377)" d="M 326.168069 201.952945 
C 327.006523 201.952945 327.810749 201.619823 328.403626 201.026947 
C 328.996502 200.43407 329.329624 199.629844 329.329624 198.79139 
C 329.329624 197.952936 328.996502 197.14871 328.403626 196.555833 
C 327.810749 195.962956 327.006523 195.629835 326.168069 195.629835 
C 325.329615 195.629835 324.525388 195.962956 323.932512 196.555833 
C 323.339635 197.14871 323.006514 197.952936 323.006514 198.79139 
C 323.006514 199.629844 323.339635 200.43407 323.932512 201.026947 
C 324.525388 201.619823 325.329615 201.952945 326.168069 201.952945 
z
" style="fill:#33a02c;fill-opacity:0.9;stroke:#33a02c;stroke-opacity:0.9;stroke-width:0.3;"/>
    <path clip-path="url(#p945cc83377)" d="M 308.004817 174.073066 
C 308.663631 174.073066 309.29555 173.811316 309.761401 173.345465 
C 310.227253 172.879613 310.489002 172.247694 310.489002 171.58888 
C 310.489002 170.930067 310.227253 170.298148 309.761401 169.832296 
C 309.29555 169.366445 308.663631 169.104695 308.004817 169.104695 
C 307.346003 169.104695 306.714084 169.366445 306.248233 169.832296 
C 305.782381 170.298148 305.520632 170.930067 305.520632 171.58888 
C 305.520632 172.247694 305.782381 172.879613 306.248233 173.345465 
C 306.714084 173.811316 307.346003 174.073066 308.004817 174.073066 
z
" style="fill:#33a02c;fill-opacity:0.9;stroke:#33a02c;stroke-opacity:0.9;stroke-width:0.3;"/>
    <path clip-path="url(#p945cc83377)" d="M 450.474272 220.057197 
C 450.933853 220.057197 451.374673 219.874603 451.699646 219.54963 
C 452.024618 219.224658 452.207212 218.783838 452.207212 218.324257 
C 452.207212 217.864676 452.024618 217.423856 451.699646 217.098884 
C 451.374673 216.773911 450.933853 216.591317 450.474272 216.591317 
C 450.014691 216.591317 449.573872 216.773911 449.248899 217.098884 
C 448.923926 217.423856 448.741333 217.864676 448.741333 218.324257 
C 448.741333 218.783838 448.923926 219.224658 449.248899 219.54963 
C 449.573872 219.874603 450.014691 220.057197 450.474272 220.057197 
z
" style="fill:#33a02c;fill-opacity:0.9;stroke:#33a02c;stroke-opacity:0.9;stroke-width:0.3;"/>
    <path clip-path="url(#p945cc83377)" d="M 277.968107 152.699829 
C 278.746213 152.699829 279.492554 152.390685 280.042758 151.840481 
C 280.592962 151.290277 280.902107 150.543936 280.902107 149.76583 
C 280.902107 148.987724 280.592962 148.241383 280.042758 147.691179 
C 279.492554 147.140976 278.746213 146.831831 277.968107 146.831831 
C 277.190002 146.831831 276.44366 147.140976 275.893457 147.691179 
C 275.343253 148.241383 275.034108 148.987724 275.034108 149.76583 
C 275.034108 150.543936 275.343253 151.290277 275.893457 151.840481 
C 276.44366 152.390685 277.190002 152.699829 277.968107 152.699829 
z
" style="fill:#33a02c;fill-opacity:0.9;stroke:#33a02c;stroke-opacity:0.9;stroke-width:0.3;"/>
    <path clip-path="url(#p945cc83377)" d="M 113.617737 74.789901 
C 114.129408 74.789901 114.62019 74.586612 114.981996 74.224807 
C 115.343802 73.863001 115.54709 73.372218 115.54709 72.860548 
C 115.54709 72.348877 115.343802 71.858095 114.981996 71.496289 
C 114.62019 71.134483 114.129408 70.931195 113.617737 70.931195 
C 113.106067 70.931195 112.615284 71.134483 112.253478 71.496289 
C 111.891673 71.858095 111.688384 72.348877 111.688384 72.860548 
C 111.688384 73.372218 111.891673 73.863001 112.253478 74.224807 
C 112.615284 74.586612 113.106067 74.789901 113.617737 74.789901 
z
" style="fill:#33a02c;fill-opacity:0.9;stroke:#33a02c;stroke-opacity:0.9;stroke-width:0.3;"/>
    <path clip-path="url(#p945cc83377)" d="M 380.709713 202.992348 
C 381.183419 202.992348 381.637787 202.804142 381.972748 202.469181 
C 382.307709 202.134221 382.495915 201.679852 382.495915 201.206146 
C 382.495915 200.73244 382.307709 200.278072 381.972748 199.943111 
C 381.637787 199.60815 381.183419 199.419945 380.709713 199.419945 
C 380.236007 199.419945 379.781638 199.60815 379.446678 199.943111 
C 379.111717 200.278072 378.923511 200.73244 378.923511 201.206146 
C 378.923511 201.679852 379.111717 202.134221 379.446678 202.469181 
C 379.781638 202.804142 380.236007 202.992348 380.709713 202.992348 
z
" style="fill:#33a02c;fill-opacity:0.9;stroke:#33a02c;stroke-opacity:0.9;stroke-width:0.3;"/>
    <path clip-path="url(#p945cc83377)" d="M 273.932228 151.565262 
C 274.783838 151.565262 275.600683 151.226913 276.202862 150.624734 
C 276.805042 150.022555 277.14339 149.20571 277.14339 148.354099 
C 277.14339 147.502489 276.805042 146.685644 276.202862 146.083465 
C 275.600683 145.481285 274.783838 145.142937 273.932228 145.142937 
C 273.080617 145.142937 272.263772 145.481285 271.661593 146.083465 
C 271.059414 146.685644 270.721065 147.502489 270.721065 148.354099 
C 270.721065 149.20571 271.059414 150.022555 271.661593 150.624734 
C 272.263772 151.226913 273.080617 151.565262 273.932228 151.565262 
z
" style="fill:#33a02c;fill-opacity:0.9;stroke:#33a02c;stroke-opacity:0.9;stroke-width:0.3;"/>
    <path clip-path="url(#p945cc83377)" d="M 327.720694 178.1593 
C 328.473862 178.1593 329.196283 177.860063 329.728853 177.327493 
C 330.261423 176.794923 330.56066 176.072502 330.56066 175.319334 
C 330.56066 174.566166 330.261423 173.843745 329.728853 173.311174 
C 329.196283 172.778604 328.473862 172.479368 327.720694 172.479368 
C 326.967526 172.479368 326.245104 172.778604 325.712534 173.311174 
C 325.179964 173.843745 324.880728 174.566166 324.880728 175.319334 
C 324.880728 176.072502 325.179964 176.794923 325.712534 177.327493 
C 326.245104 177.860063 326.967526 178.1593 327.720694 178.1593 
z
" style="fill:#33a02c;fill-opacity:0.9;stroke:#33a02c;stroke-opacity:0.9;stroke-width:0.3;"/>
    <path clip-path="url(#p945cc83377)" d="M 310.444229 234.254204 
C 311.063592 234.254204 311.65767 234.008129 312.095625 233.570174 
C 312.53358 233.132218 312.779655 232.53814 312.779655 231.918778 
C 312.779655 231.299416 312.53358 230.705338 312.095625 230.267383 
C 311.65767 229.829427 311.063592 229.583352 310.444229 229.583352 
C 309.824867 229.583352 309.230789 229.829427 308.792834 230.267383 
C 308.354879 230.705338 308.108804 231.299416 308.108804 231.918778 
C 308.108804 232.53814 308.354879 233.132218 308.792834 233.570174 
C 309.230789 234.008129 309.824867 234.254204 310.444229 234.254204 
z
" style="fill:#33a02c;fill-opacity:0.9;stroke:#33a02c;stroke-opacity:0.9;stroke-width:0.3;"/>
    <path clip-path="url(#p945cc83377)" d="M 324.10901 170.794984 
C 324.719544 170.794984 325.305155 170.552417 325.736868 170.120704 
C 326.168581 169.688991 326.411149 169.10338 326.411149 168.492846 
C 326.411149 167.882311 326.168581 167.296701 325.736868 166.864988 
C 325.305155 166.433275 324.719544 166.190707 324.10901 166.190707 
C 323.498476 166.190707 322.912865 166.433275 322.481152 166.864988 
C 322.049439 167.296701 321.806871 167.882311 321.806871 168.492846 
C 321.806871 169.10338 322.049439 169.688991 322.481152 170.120704 
C 322.912865 170.552417 323.498476 170.794984 324.10901 170.794984 
z
" style="fill:#33a02c;fill-opacity:0.9;stroke:#33a02c;stroke-opacity:0.9;stroke-width:0.3;"/>
    <path clip-path="url(#p945cc83377)" d="M 85.496742 63.459573 
C 85.915869 63.459573 86.317886 63.293052 86.614253 62.996684 
C 86.910621 62.700317 87.077142 62.2983 87.077142 61.879173 
C 87.077142 61.460046 86.910621 61.058029 86.614253 60.761662 
C 86.317886 60.465294 85.915869 60.298773 85.496742 60.298773 
C 85.077615 60.298773 84.675598 60.465294 84.379231 60.761662 
C 84.082863 61.058029 83.916342 61.460046 83.916342 61.879173 
C 83.916342 62.2983 84.082863 62.700317 84.379231 62.996684 
C 84.675598 63.293052 85.077615 63.459573 85.496742 63.459573 
z
" style="fill:#33a02c;fill-opacity:0.9;stroke:#33a02c;stroke-opacity:0.9;stroke-width:0.3;"/>
   </g>
   <g id="line2d_16">
    <path clip-path="url(#p945cc83377)" d="M 74.699518 56.756964 
L 480.517699 249.277332 
L 480.517699 249.277332 
" style="fill:none;stroke:#1f78b4;stroke-dasharray:5.6,2.4;stroke-dashoffset:0;stroke-width:2;"/>
   </g>
   <g id="line2d_17">
    <path clip-path="url(#p945cc83377)" d="M 83.337297 20.79 
L 471.87992 292.59 
L 471.87992 292.59 
" style="fill:none;stroke:#33a02c;stroke-linecap:round;stroke-width:2.3;"/>
   </g>
   <g id="patch_3">
    <path d="M 54.408609 306.18 
L 54.408609 7.2 
" style="fill:none;"/>
   </g>
   <g id="patch_4">
    <path d="M 500.808609 306.18 
L 500.808609 7.2 
" style="fill:none;"/>
   </g>
   <g id="patch_5">
    <path d="M 54.408609 306.18 
L 500.808609 306.18 
" style="fill:none;"/>
   </g>
   <g id="patch_6">
    <path d="M 54.408609 7.2 
L 500.808609 7.2 
" style="fill:none;"/>
   </g>
   <g id="legend_1">
    <g id="line2d_18">
     <path d="M 324.18954 24.7 
L 352.18954 24.7 
" style="fill:none;stroke:#1f78b4;stroke-dasharray:5.6,2.4;stroke-dashoffset:0;stroke-width:2;"/>
    </g>
    <g id="line2d_19"/>
    <g id="text_18">
     <!-- Unbranched Pathway -->
     <defs>
      <path d="M 8 69.5 
L 8 32.75 
C 8 25.71875 7.203125 18.390625 10.703125 11.96875 
C 12.90625 7.84375 16.09375 4.4375 20.09375 2.125 
C 29.90625 -3.609375 43.5 -2.203125 51.296875 6.4375 
C 54.796875 10.359375 57.296875 15.171875 57.796875 21.796875 
C 57.90625 23.40625 57.796875 24.921875 57.796875 26.515625 
L 57.796875 69.5 
L 51.40625 69.5 
L 51.40625 25.90625 
C 51.40625 24.59375 51.5 23.1875 51.40625 21.890625 
C 51.203125 18.890625 50.59375 15.921875 49.40625 13.25 
C 43.90625 1 25 1 18 11.890625 
C 14.203125 17.78125 15 25.0625 15 31.65625 
L 15 69.5 
z
" id="Computer_Modern_Bright-85"/>
      <path d="M 6.40625 69.6875 
L 6.40625 0 
L 12.796875 0 
L 12.796875 6.328125 
L 12.90625 6.328125 
C 14 4.109375 16.5 2.015625 18.59375 0.90625 
C 25.796875 -2.90625 34.40625 0.90625 39.09375 7.03125 
C 48.59375 19.578125 44.796875 40.875 32.296875 46.796875 
C 27.40625 49 21.5 48 17.09375 44.984375 
C 15.40625 43.78125 14 42.375 12.703125 40.765625 
L 12.703125 69.6875 
z
M 21.90625 42.984375 
C 26.59375 43.375 31.5 41.265625 34.296875 37.453125 
C 36.203125 34.9375 37.203125 31.9375 37.703125 28.8125 
C 38.703125 21.484375 37.90625 12.25 31.40625 7.4375 
C 30.296875 6.625 29.09375 6.03125 27.796875 5.515625 
C 22.40625 3.515625 17 4.109375 14 8.84375 
C 13.09375 10.4375 12.796875 10.546875 12.796875 12.953125 
L 12.796875 33.734375 
C 12.796875 34.75 12.59375 35.953125 13 36.859375 
C 14.59375 40.171875 18.296875 42.671875 21.90625 42.984375 
" id="Computer_Modern_Bright-98"/>
      <path d="M 6.40625 69.6875 
L 6.40625 0 
L 12.796875 0 
L 12.796875 21.984375 
C 12.796875 26.90625 12.5 31.9375 14.703125 36.546875 
C 15.796875 38.859375 17.5 40.875 19.796875 42.078125 
C 21.703125 42.984375 23.703125 42.984375 25.796875 42.78125 
C 28.796875 42.78125 31.703125 41.984375 33.59375 39.453125 
C 35.40625 37.140625 35.5 34.140625 35.5 31.3125 
L 35.5 0 
L 41.90625 0 
L 41.90625 27.21875 
C 41.90625 32.234375 42.40625 37.75 39.90625 42.28125 
C 37.90625 45.6875 34.40625 47.296875 30.703125 47.796875 
C 28.703125 48 26.703125 48 24.703125 47.703125 
C 21.09375 47.015625 18 45.03125 15.59375 42.34375 
C 14.5 41.046875 13.203125 39.46875 12.796875 37.765625 
L 12.703125 37.765625 
L 12.703125 69.6875 
z
" id="Computer_Modern_Bright-104"/>
      <path d="M 0.703125 47.5 
C 0.90625 46.203125 14.40625 0.90625 14.40625 0.90625 
C 14.703125 0 15.203125 0 16.5 0 
L 19.59375 0 
C 20.09375 0 20.796875 -0.09375 21.09375 0.296875 
C 21.40625 0.609375 22.296875 3.8125 22.296875 3.8125 
C 25.296875 14.625 30.5 30.96875 32.5 41.09375 
L 32.59375 41.09375 
C 32.59375 39.6875 33.09375 38.28125 33.40625 36.890625 
C 35 29.765625 43.5 1 43.90625 0.296875 
C 44.203125 -0.203125 45 0 45.5 0 
L 49.296875 0 
C 49.796875 0 50.5 -0.09375 50.90625 0.109375 
C 51.203125 0.296875 51.296875 0.703125 51.40625 1 
C 54.40625 11.640625 64.703125 45.203125 65.09375 47.5 
C 63 47.5 60.90625 47.5 59.09375 47.203125 
L 58.703125 46.1875 
C 54.90625 33 50.796875 20.203125 47.40625 6.609375 
L 47.296875 6.609375 
L 46.203125 11.21875 
L 35.703125 47.5 
L 29.796875 47.5 
C 26 33.875 21.59375 20.84375 18.40625 6.609375 
L 16.703125 13.609375 
C 13.40625 24.8125 10.296875 36.203125 6.90625 47.203125 
C 5.09375 47.5 2.796875 47.5 0.703125 47.5 
" id="Computer_Modern_Bright-119"/>
      <path d="M 0.703125 47.65625 
C 1.296875 45.75 5.40625 35.609375 5.5 35.3125 
L 17.40625 4.578125 
L 18.40625 2.078125 
C 19 0.671875 19.203125 0.46875 18.59375 -1.140625 
L 17.5 -4.046875 
C 16.59375 -6.46875 15.59375 -8.96875 13.703125 -10.484375 
C 10.296875 -13.296875 4.90625 -11.6875 0.796875 -10.78125 
L 1.296875 -16.5 
C 3.203125 -16.796875 5.09375 -17 7 -17 
C 11.296875 -17.515625 14.09375 -16.5 16.703125 -14.296875 
C 20 -11.484375 21.59375 -7.5625 23.09375 -3.546875 
L 26.203125 5.078125 
L 36.40625 32.90625 
C 38.09375 37.921875 40.203125 42.640625 41.796875 47.65625 
L 37.296875 47.65625 
C 36.796875 47.65625 36 47.859375 35.59375 47.46875 
C 35.40625 47.15625 35.296875 46.765625 35.203125 46.453125 
L 34.40625 44.34375 
C 33.40625 41.734375 32.5 39.234375 31.59375 36.609375 
L 25.796875 20.25 
C 24.296875 15.828125 22.59375 11.3125 21.796875 6.6875 
C 20.703125 11.3125 19.203125 15.734375 17.59375 20.140625 
C 16.296875 23.5625 8.5 44.546875 7.5 46.5625 
C 7.09375 47.65625 6.703125 47.65625 5.203125 47.65625 
z
" id="Computer_Modern_Bright-121"/>
     </defs>
     <g style="fill:#262626;" transform="translate(363.38954 29.6)scale(0.14 -0.14)">
      <use transform="scale(0.996264)" xlink:href="#Computer_Modern_Bright-85"/>
      <use transform="translate(65.587132 0)scale(0.996264)" xlink:href="#Computer_Modern_Bright-110"/>
      <use transform="translate(113.739629 0)scale(0.996264)" xlink:href="#Computer_Modern_Bright-98"/>
      <use transform="translate(158.986397 0)scale(0.996264)" xlink:href="#Computer_Modern_Bright-114"/>
      <use transform="translate(190.949756 0)scale(0.996264)" xlink:href="#Computer_Modern_Bright-97"/>
      <use transform="translate(237.441838 0)scale(0.996264)" xlink:href="#Computer_Modern_Bright-110"/>
      <use transform="translate(285.594335 0)scale(0.996264)" xlink:href="#Computer_Modern_Bright-99"/>
      <use transform="translate(330.426003 0)scale(0.996264)" xlink:href="#Computer_Modern_Bright-104"/>
      <use transform="translate(378.5785 0)scale(0.996264)" xlink:href="#Computer_Modern_Bright-101"/>
      <use transform="translate(423.410167 0)scale(0.996264)" xlink:href="#Computer_Modern_Bright-100"/>
      <use transform="translate(503.027876 0)scale(0.996264)" xlink:href="#Computer_Modern_Bright-80"/>
      <use transform="translate(563.011054 0)scale(0.996264)" xlink:href="#Computer_Modern_Bright-97"/>
      <use transform="translate(609.503136 0)scale(0.996264)" xlink:href="#Computer_Modern_Bright-116"/>
      <use transform="translate(645.617524 0)scale(0.996264)" xlink:href="#Computer_Modern_Bright-104"/>
      <use transform="translate(693.770021 0)scale(0.996264)" xlink:href="#Computer_Modern_Bright-119"/>
      <use transform="translate(756.451332 0)scale(0.996264)" xlink:href="#Computer_Modern_Bright-97"/>
      <use transform="translate(800.037685 0)scale(0.996264)" xlink:href="#Computer_Modern_Bright-121"/>
     </g>
    </g>
    <g id="line2d_20">
     <path d="M 324.18954 43.824611 
L 352.18954 43.824611 
" style="fill:none;stroke:#33a02c;stroke-linecap:round;stroke-width:2.3;"/>
    </g>
    <g id="line2d_21"/>
    <g id="text_19">
     <!-- fit -->
     <defs>
      <path d="M 10.59375 47.015625 
L 2 47.015625 
L 2 42 
L 10.59375 42 
L 10.59375 0 
L 16.90625 0 
L 16.90625 42 
L 30.09375 42 
L 30.09375 47.015625 
L 16.796875 47.015625 
L 16.796875 55.203125 
C 16.796875 59.25 16.40625 61.421875 18.90625 63.703125 
C 21.90625 65.96875 25.703125 65.96875 30.09375 64.078125 
L 30.09375 69.90625 
C 27.703125 70.3125 25.203125 70.703125 22.703125 70.515625 
C 20 70.3125 17.09375 68.96875 15.5 67.328125 
C 12.796875 65.15625 11 60.9375 10.59375 57.03125 
C 10.5 55.671875 10.59375 54.4375 10.59375 53.109375 
z
M 38.09375 70 
L 38.09375 63.671875 
L 44.40625 63.671875 
L 44.40625 70 
z
M 38.09375 47.390625 
L 38.09375 0 
L 44.40625 0 
L 44.40625 47.390625 
z
" id="Computer_Modern_Bright-12"/>
     </defs>
     <g style="fill:#262626;" transform="translate(363.38954 48.724611)scale(0.14 -0.14)">
      <use transform="scale(0.996264)" xlink:href="#Computer_Modern_Bright-12"/>
      <use transform="translate(50.643218 0)scale(0.996264)" xlink:href="#Computer_Modern_Bright-116"/>
     </g>
    </g>
    <g id="PathCollection_2">
     <defs>
      <path d="M 0 2.536211 
C 0.672611 2.536211 1.317764 2.26898 1.793372 1.793372 
C 2.26898 1.317764 2.536211 0.672611 2.536211 0 
C 2.536211 -0.672611 2.26898 -1.317764 1.793372 -1.793372 
C 1.317764 -2.26898 0.672611 -2.536211 0 -2.536211 
C -0.672611 -2.536211 -1.317764 -2.26898 -1.793372 -1.793372 
C -2.26898 -1.317764 -2.536211 -0.672611 -2.536211 0 
C -2.536211 0.672611 -2.26898 1.317764 -1.793372 1.793372 
C -1.317764 2.26898 -0.672611 2.536211 0 2.536211 
z
" id="m4bf686d270" style="stroke:#33a02c;stroke-opacity:0.9;stroke-width:0.3;"/>
     </defs>
     <g>
      <use style="fill:#33a02c;fill-opacity:0.9;stroke:#33a02c;stroke-opacity:0.9;stroke-width:0.3;" x="338.18954" xlink:href="#m4bf686d270" y="64.174222"/>
     </g>
    </g>
    <g id="text_20">
     <!-- b -->
     <g style="fill:#262626;" transform="translate(363.38954 67.849222)scale(0.14 -0.14)">
      <use transform="scale(0.996264)" xlink:href="#Computer_Modern_Bright-98"/>
     </g>
    </g>
   </g>
  </g>
 </g>
 <defs>
  <clipPath id="p945cc83377">
   <rect height="298.98" width="446.4" x="54.408609" y="7.2"/>
  </clipPath>
 </defs>
</svg>
