<?xml version="1.0" encoding="utf-8" standalone="no"?>
<!DOCTYPE svg PUBLIC "-//W3C//DTD SVG 1.1//EN"
  "http://www.w3.org/Graphics/SVG/1.1/DTD/svg11.dtd">
<!-- Created with matplotlib (http://matplotlib.org/) -->
<svg height="390pt" version="1.1" viewBox="0 0 660 390" width="660pt" xmlns="http://www.w3.org/2000/svg" xmlns:xlink="http://www.w3.org/1999/xlink">
 <defs>
  <style type="text/css">
*{stroke-linecap:butt;stroke-linejoin:round;}
  </style>
 </defs>
 <g id="figure_1">
  <g id="patch_1">
   <path d="M 0 390.990442 
L 660.767696 390.990442 
L 660.767696 0 
L 0 0 
z
" style="fill:#ffffff;"/>
  </g>
  <g id="axes_1">
   <g id="patch_2">
    <path d="M 58.421393 334.064814 
L 504.821393 334.064814 
L 504.821393 35.084814 
L 58.421393 35.084814 
z
" style="fill:#eaeaf2;"/>
   </g>
   <g id="matplotlib.axis_1">
    <g id="xtick_1">
     <g id="line2d_1"/>
     <g id="text_1">
      <!-- \emph{nlp-31} -->
      <defs>
       <path d="M 20.5 37.578125 
L 20.40625 37.578125 
C 21.09375 40.921875 21.90625 44.25 22.5 47.6875 
L 16.40625 47.6875 
L 6.40625 0 
L 10.90625 0 
C 11.796875 0 13 -0.296875 13 1.015625 
C 13.203125 1.71875 13.296875 2.328125 13.40625 3.03125 
C 14.40625 7.78125 19 29.5 19.296875 30.40625 
C 20.40625 33.953125 22.40625 37.375 25.09375 39.90625 
C 28 42.4375 31.203125 43.84375 36.59375 42.9375 
C 38.796875 42.53125 40.90625 41.625 42 39.5 
C 43.5 36.46875 42.40625 32.9375 41.796875 29.90625 
L 35.5 0 
L 40.203125 0 
C 41.203125 0 42.09375 -0.203125 42.09375 1.109375 
C 42.703125 3.125 44.09375 10.625 44.09375 10.625 
L 48.59375 31.703125 
C 49.296875 35.546875 50.296875 40 48.40625 43.640625 
C 46.59375 46.984375 43 48 39.59375 48.296875 
C 38.09375 48.296875 36.5 48.296875 35 48.046875 
C 30.796875 47.390625 27 45.0625 24 42.03125 
C 22.703125 40.71875 21.40625 39.296875 20.5 37.578125 
" id="Computer_Modern_Bright_Slanted-110"/>
       <path d="M 21.09375 70 
L 6.40625 0 
C 8.5 0 10.796875 0 12.59375 0.296875 
L 13 1.40625 
C 14 6.4375 15.09375 11.375 16.203125 16.40625 
L 27.40625 70 
z
" id="Computer_Modern_Bright_Slanted-108"/>
       <path d="M 21.296875 40.734375 
L 22.09375 44.5625 
L 22.703125 47.5 
L 16.40625 47.5 
L 2.90625 -17 
L 9.296875 -17 
C 10.90625 -9.15625 12.59375 -1.4375 14.09375 6.515625 
C 14.90625 4.890625 15.796875 3.375 17.09375 2.171875 
C 22.296875 -2.578125 30.296875 -0.453125 35.59375 2.984375 
C 42.90625 7.828125 47.796875 15.84375 49.5 24.453125 
C 50 26.890625 50.296875 29.421875 50.203125 31.859375 
C 49.90625 39.265625 46.5 47.59375 37.90625 48.5 
C 30.59375 48.5 24.90625 44.359375 21.296875 40.734375 
M 34.5 42.859375 
C 35.40625 42.65625 36.40625 42.34375 37.203125 41.84375 
C 42.40625 38.90625 43.796875 32.65625 43.5 27.09375 
C 43.09375 19.921875 39.203125 12.953125 33.59375 8.546875 
C 30.703125 6.171875 27.09375 4.5 23.40625 4.5 
C 19.09375 4.5 15.796875 6.921875 15.203125 11.125 
C 15.203125 12.234375 15.59375 13.546875 15.90625 14.671875 
C 16.40625 16.890625 20.09375 34.46875 20.09375 34.671875 
C 20.40625 37.09375 21.09375 37.5 22.703125 39.109375 
C 25.5 41.734375 29.796875 44.171875 34.5 42.859375 
" id="Computer_Modern_Bright_Slanted-112"/>
       <path d="M 5.90625 26.0625 
L 4.90625 21 
L 32.796875 21 
L 33.796875 26.0625 
z
" id="Computer_Modern_Bright_Slanted-45"/>
       <path d="M 18.796875 50.609375 
C 19.90625 51.734375 20.703125 53.078125 21.703125 54.203125 
C 26.09375 58.96875 34.203125 63.8125 42.59375 61.796875 
C 45.703125 61.09375 48.5 58.96875 49 55.640625 
C 49.296875 53.28125 48.203125 50.296875 47.5 48.859375 
C 44.796875 43.921875 40.703125 40.3125 34.796875 38.78125 
C 32.5 38.265625 26.703125 38.265625 24.703125 38.265625 
L 23.703125 33 
L 30.59375 33 
C 36.09375 33 39 32.296875 42.09375 29.171875 
C 45.703125 24.921875 44.796875 18.359375 42.5 13.703125 
C 40.90625 10.78125 39.203125 8.5625 36.296875 6.734375 
C 29.5 2.1875 20.09375 3.203125 13.703125 7.84375 
C 11.09375 9.765625 9.296875 12.296875 7.796875 15.125 
C 7.40625 14.421875 5.796875 10.671875 5.90625 9.96875 
C 5.90625 9.46875 6.296875 8.953125 6.5 8.5625 
C 9.703125 3.703125 14.40625 0.265625 20.5 -0.9375 
C 31.203125 -3.0625 42.796875 2.1875 48.5 11.6875 
C 51.40625 16.640625 52.703125 22.90625 49.703125 28.15625 
C 48 31.6875 43.5 34.828125 39.59375 35.53125 
C 41.09375 36.234375 42.59375 36.9375 44 37.75 
C 48.40625 40.375 52.59375 44.625 54.5 49.671875 
C 55.296875 51.5 55.796875 53.515625 55.703125 55.53125 
C 55.40625 61.59375 50.203125 65.640625 44.703125 66.75 
C 38.203125 68.15625 31.40625 66.453125 25.796875 63.21875 
C 23.203125 61.703125 20.90625 59.78125 18.796875 57.65625 
C 18.296875 57.15625 17 55.9375 16.796875 55.125 
C 16.796875 54.609375 18.296875 51.640625 18.796875 50.609375 
" id="Computer_Modern_Bright_Slanted-51"/>
       <path d="M 22.5 61 
L 21.5 55.9375 
C 26.296875 55.9375 31.40625 56.546875 35.703125 58.875 
L 24.5 5.046875 
C 20.296875 5.046875 15.296875 5.5625 11.5 5.046875 
C 10.90625 3.578125 10.703125 1.671875 10.296875 0 
C 21.09375 0 32.59375 0 42.796875 0 
C 43.40625 1.453125 43.703125 3.296875 44.09375 5.046875 
L 31 5.046875 
C 35.203125 26.0625 39.796875 46.59375 44.09375 67.5 
C 41.703125 67.5 42 67.09375 40 65.59375 
C 35.59375 62.59375 28.90625 61 22.5 61 
" id="Computer_Modern_Bright_Slanted-49"/>
      </defs>
      <g style="fill:#262626;" transform="translate(111.191199 381.677047)rotate(-45)scale(0.18 -0.18)">
       <use transform="scale(0.996264)" xlink:href="#Computer_Modern_Bright_Slanted-110"/>
       <use transform="translate(48.152497 0)scale(0.996264)" xlink:href="#Computer_Modern_Bright_Slanted-108"/>
       <use transform="translate(67.247456 0)scale(0.996264)" xlink:href="#Computer_Modern_Bright_Slanted-112"/>
       <use transform="translate(115.399953 0)scale(0.996264)" xlink:href="#Computer_Modern_Bright_Slanted-45"/>
       <use transform="translate(148.608626 0)scale(0.996264)" xlink:href="#Computer_Modern_Bright_Slanted-51"/>
       <use transform="translate(199.251844 0)scale(0.996264)" xlink:href="#Computer_Modern_Bright_Slanted-49"/>
      </g>
     </g>
    </g>
    <g id="xtick_2">
     <g id="line2d_2"/>
     <g id="text_2">
      <!-- \emph{ftn-1} -->
      <defs>
       <path d="M 12 48.046875 
L 11 43 
L 19.59375 43 
C 16.5 29 13.59375 14.59375 10.59375 0.5 
C 12.703125 0.5 15 0.5 16.796875 0.796875 
L 17.09375 1.5 
C 19.296875 12.25 21.703125 22.703125 23.90625 33.4375 
C 24.703125 36.453125 25 39.984375 26 42.796875 
L 27 43 
L 38.296875 43 
L 39.296875 48.046875 
L 26.796875 48.046875 
C 27.703125 50.9375 28.09375 54.03125 28.703125 56.921875 
C 29 58.21875 29.09375 59.703125 29.796875 60.90625 
C 30.703125 62.609375 32.5 63.703125 34.203125 64.5 
C 37.703125 66 41.5 66 45.203125 65.4375 
C 46.59375 65.265625 47.90625 64.796875 49.203125 64.609375 
L 50.296875 70.234375 
C 46.703125 70.75 42.90625 71.15625 39.296875 70.75 
C 34.203125 70.03125 29.5 67.546875 26.09375 63.734375 
C 23.40625 60.640625 22.703125 58.046875 21.703125 53.34375 
C 21.59375 52.4375 21 48.546875 20.40625 48.25 
C 19.90625 47.84375 18.703125 48.046875 18.09375 48.046875 
z
" id="Computer_Modern_Bright_Slanted-102"/>
       <path d="M 11.09375 48.046875 
L 10.09375 43 
L 19.703125 43 
C 18.90625 39.765625 18.296875 36.421875 17.59375 33.1875 
L 13.59375 14.40625 
C 13.09375 11.984375 12.703125 9.546875 12.703125 7.03125 
C 12.703125 5.3125 13 3.484375 13.90625 2.078125 
C 15.5 -0.140625 18 -0.453125 20.5 -0.140625 
C 25.40625 0.265625 29.5 1.375 33.40625 3.390625 
C 34.296875 3.890625 35.09375 4.09375 34.796875 5.609375 
C 34.703125 6.71875 34.703125 7.9375 34.59375 9.046875 
C 32.90625 7.9375 31.296875 6.828125 29.40625 6.125 
C 27.59375 5.515625 24.296875 4.296875 22 5.109375 
C 19.5 5.8125 19 8.75 19.203125 11.0625 
C 19.40625 13.5 20.09375 15.8125 20.59375 18.140625 
L 24.90625 38.953125 
L 25.5 41.578125 
C 25.796875 42.6875 25.703125 43 27.09375 43 
L 41.296875 43 
L 42.296875 48.046875 
L 26.796875 48.046875 
L 29.703125 61.5 
C 27.703125 61.5 25.5 61.5 23.796875 61.203125 
C 22.296875 57.359375 22.203125 52.109375 20.703125 48.25 
L 19.90625 48.046875 
z
" id="Computer_Modern_Bright_Slanted-116"/>
      </defs>
      <g style="fill:#262626;" transform="translate(266.896215 375.125552)rotate(-45)scale(0.18 -0.18)">
       <use transform="scale(0.996264)" xlink:href="#Computer_Modern_Bright_Slanted-102"/>
       <use transform="translate(30.302944 0)scale(0.996264)" xlink:href="#Computer_Modern_Bright_Slanted-116"/>
       <use transform="translate(66.417332 0)scale(0.996264)" xlink:href="#Computer_Modern_Bright_Slanted-110"/>
       <use transform="translate(114.569829 0)scale(0.996264)" xlink:href="#Computer_Modern_Bright_Slanted-45"/>
       <use transform="translate(147.778503 0)scale(0.996264)" xlink:href="#Computer_Modern_Bright_Slanted-49"/>
      </g>
     </g>
    </g>
    <g id="xtick_3">
     <g id="line2d_3"/>
     <g id="text_3">
      <!-- \emph{ftn-2} -->
      <defs>
       <path d="M 17.09375 46.46875 
C 19.796875 53.140625 25.09375 60.3125 32 61.828125 
C 38.40625 63.234375 46.796875 61.109375 49.40625 54.34375 
C 50.296875 51.515625 50.203125 48.484375 49.203125 45.453125 
C 45.5 34.234375 33.796875 27.171875 25.09375 20.703125 
L 9.296875 8.375 
L 6.90625 6.5625 
C 6.5 6.15625 5.90625 5.859375 5.59375 5.453125 
C 5.203125 4.828125 4.40625 0 4.40625 0 
C 18.203125 0 33 0 46.203125 0 
C 46.90625 1.6875 47.203125 3.765625 47.59375 5.75 
L 11.40625 5.75 
L 19.796875 12.109375 
L 34.59375 23.125 
C 41.59375 28.078125 49.296875 33.03125 53.703125 40.609375 
C 57.5 47.078125 58.296875 55.859375 53.203125 61.828125 
C 50.703125 64.546875 47.5 66.171875 43.5 67.078125 
C 37.703125 68.296875 31.40625 67.484375 26.203125 64.546875 
C 21.59375 61.71875 18.5 58.078125 15.59375 53.4375 
C 15.203125 52.828125 14.5 51.921875 14.5 51.109375 
C 14.5 50.609375 14.796875 50.109375 15.09375 49.703125 
C 15.703125 48.59375 16.296875 47.375 17.09375 46.46875 
" id="Computer_Modern_Bright_Slanted-50"/>
      </defs>
      <g style="fill:#262626;" transform="translate(419.325483 375.125552)rotate(-45)scale(0.18 -0.18)">
       <use transform="scale(0.996264)" xlink:href="#Computer_Modern_Bright_Slanted-102"/>
       <use transform="translate(30.302944 0)scale(0.996264)" xlink:href="#Computer_Modern_Bright_Slanted-116"/>
       <use transform="translate(66.417332 0)scale(0.996264)" xlink:href="#Computer_Modern_Bright_Slanted-110"/>
       <use transform="translate(114.569829 0)scale(0.996264)" xlink:href="#Computer_Modern_Bright_Slanted-45"/>
       <use transform="translate(147.778503 0)scale(0.996264)" xlink:href="#Computer_Modern_Bright_Slanted-50"/>
      </g>
     </g>
    </g>
   </g>
   <g id="matplotlib.axis_2">
    <g id="ytick_1">
     <g id="line2d_4"/>
     <g id="text_4">
      <!-- $-2$ -->
      <defs>
       <path d="M 9.796875 28.078125 
C 8 27.484375 7.796875 24.78125 9.796875 24.28125 
C 10.296875 24.078125 10.90625 24.1875 11.5 24.1875 
L 64.703125 24.1875 
C 65.90625 24.1875 67.796875 23.78125 68.796875 24.78125 
C 69.90625 25.875 69.296875 27.875 67.703125 28.1875 
C 66.5 28.375 65.09375 28.1875 63.90625 28.1875 
L 11.40625 28.1875 
C 10.90625 28.1875 10.296875 28.28125 9.796875 28.078125 
" id="Computer_Modern_Bright_Math_Symbols-0"/>
       <path d="M 7.296875 45.96875 
C 8.703125 51.59375 11.09375 57.984375 16.796875 60.5 
C 19.203125 61.5 21.796875 61.703125 24.40625 61.5 
C 29.296875 61.09375 34.09375 59.09375 37.09375 55.09375 
C 39.296875 52.078125 40.09375 48.375 39.703125 44.78125 
C 38.5 34.34375 28.296875 26.84375 21.703125 21.234375 
C 17.90625 18.03125 7.09375 7.8125 7.09375 7.8125 
L 5.40625 6.203125 
C 4.5 5.3125 4.40625 5.3125 4.40625 3.5 
L 4.40625 0 
L 46.40625 0 
L 46.40625 5.625 
L 10.203125 5.625 
C 13.40625 8.734375 26.703125 20.515625 28.5 21.921875 
C 34.296875 26.65625 40.796875 31.375 44.296875 38.21875 
C 48.203125 46.0625 46.5 55.9375 39.90625 61.765625 
C 35.90625 65.296875 30.40625 67 25.09375 67 
C 20.203125 67 15.203125 66 11.296875 62.90625 
C 8.296875 60.390625 5.796875 56.6875 4.40625 52.875 
C 4.09375 52.28125 3.59375 51.28125 3.703125 50.578125 
C 3.796875 49.984375 4.40625 49.484375 4.703125 49.078125 
C 5.5 48.078125 6.296875 46.875 7.296875 45.96875 
" id="Computer_Modern_Bright-50"/>
      </defs>
      <g style="fill:#262626;" transform="translate(28.357872 326.20817)scale(0.18 -0.18)">
       <use transform="scale(0.996264)" xlink:href="#Computer_Modern_Bright_Math_Symbols-0"/>
       <use transform="translate(77.487468 0)scale(0.996264)" xlink:href="#Computer_Modern_Bright-50"/>
      </g>
     </g>
    </g>
    <g id="ytick_2">
     <g id="line2d_5"/>
     <g id="text_5">
      <!-- $-1$ -->
      <defs>
       <path d="M 9.703125 60.015625 
L 9.703125 55 
C 15.203125 55 19 56 23.40625 57.90625 
L 23.40625 5.015625 
L 10.296875 5.015625 
L 10.296875 0 
L 43 0 
L 43 5.015625 
L 29.90625 5.015625 
L 29.90625 67 
C 27.5 67 27.90625 66.359375 26 64.875 
C 21.90625 61.71875 16.203125 60.015625 9.703125 60.015625 
" id="Computer_Modern_Bright-49"/>
      </defs>
      <g style="fill:#262626;" transform="translate(28.357872 288.131797)scale(0.18 -0.18)">
       <use transform="scale(0.996264)" xlink:href="#Computer_Modern_Bright_Math_Symbols-0"/>
       <use transform="translate(77.487468 0)scale(0.996264)" xlink:href="#Computer_Modern_Bright-49"/>
      </g>
     </g>
    </g>
    <g id="ytick_3">
     <g id="line2d_6"/>
     <g id="text_6">
      <!-- $0$ -->
      <defs>
       <path d="M 14.796875 63.859375 
C 11.90625 61.859375 9.90625 59.140625 8.40625 56.03125 
C 4.796875 49 4.40625 40.765625 4.40625 31.828125 
C 4.40625 20.578125 6.40625 10.25 12 4.3125 
C 17.296875 -1.203125 25.703125 -2.609375 32.796875 0.296875 
C 37.203125 2.015625 40.40625 5.71875 42.40625 9.734375 
C 46 16.875 46.40625 25.40625 46.40625 34.234375 
C 46.40625 37.046875 46.296875 39.859375 46 42.671875 
C 45.296875 49.40625 43 56.828125 39.296875 60.953125 
C 33.203125 67.6875 22.296875 69.1875 14.796875 63.859375 
M 34.90625 58.140625 
C 39.59375 53.125 40 43.484375 40 34.34375 
L 40 28.921875 
C 40 24.296875 39.203125 18.28125 38.203125 14.859375 
C 36.796875 10.140625 34.5 6.734375 29.90625 4.625 
C 24.296875 2.609375 18.5 4.515625 15.296875 8.9375 
C 11 14.65625 10.796875 24.796875 10.796875 33.734375 
C 10.796875 42.171875 10.90625 51.515625 15 57.03125 
C 19.5 63.0625 29.203125 64.0625 34.90625 58.140625 
" id="Computer_Modern_Bright-48"/>
      </defs>
      <g style="fill:#262626;" transform="translate(42.305613 250.055425)scale(0.18 -0.18)">
       <use transform="scale(0.996264)" xlink:href="#Computer_Modern_Bright-48"/>
      </g>
     </g>
    </g>
    <g id="ytick_4">
     <g id="line2d_7"/>
     <g id="text_7">
      <!-- $1$ -->
      <g style="fill:#262626;" transform="translate(42.305613 211.979052)scale(0.18 -0.18)">
       <use transform="scale(0.996264)" xlink:href="#Computer_Modern_Bright-49"/>
      </g>
     </g>
    </g>
    <g id="ytick_5">
     <g id="line2d_8"/>
     <g id="text_8">
      <!-- $2$ -->
      <g style="fill:#262626;" transform="translate(42.305613 173.90268)scale(0.18 -0.18)">
       <use transform="scale(0.996264)" xlink:href="#Computer_Modern_Bright-50"/>
      </g>
     </g>
    </g>
    <g id="ytick_6">
     <g id="line2d_9"/>
     <g id="text_9">
      <!-- $3$ -->
      <defs>
       <path d="M 8.09375 50.71875 
C 8.90625 51.921875 9.5 53.234375 10.40625 54.4375 
C 12.5 57.25 15.40625 59.453125 18.703125 60.765625 
C 23.90625 62.875 31.5 62.875 35.59375 58.21875 
C 39.203125 54.078125 37.703125 47.609375 34.40625 43.78125 
C 31.40625 40.25 27.5 38.53125 21.703125 38.53125 
C 20 38.53125 18.40625 38.03125 16.703125 38.03125 
L 16.703125 33 
L 23.59375 33 
C 29.40625 33 33.203125 32.109375 36.40625 28.6875 
C 41.90625 22.859375 41.40625 12.515625 35.296875 7.203125 
C 32.203125 4.59375 27.90625 3.78125 23.90625 4.078125 
C 16.09375 4.6875 9.203125 8.8125 4.59375 15.234375 
C 4.09375 14.234375 4.09375 12.828125 3.90625 11.71875 
C 3.59375 10.109375 3.59375 10.109375 4.59375 8.8125 
C 7.5 4.890625 13.203125 1.28125 17.703125 -0.03125 
C 25.703125 -2.4375 35 -1.34375 41.203125 4.78125 
C 42.40625 6 43.5 7.296875 44.40625 8.703125 
C 48.09375 14.53125 48.203125 22.15625 44.09375 27.78125 
C 42.40625 30.09375 40.203125 31.90625 37.703125 33.3125 
C 36 34.3125 34 35.3125 32 35.515625 
C 37.796875 38.234375 43.203125 42.828125 44.203125 50.359375 
C 45.09375 57.375 41 61.6875 36.796875 64.1875 
C 30.296875 68 21.796875 68 15.09375 64.671875 
C 12 63.171875 9.203125 60.96875 7.09375 58.25 
C 6.703125 57.75 5.203125 56.046875 5.203125 55.234375 
C 5.203125 54.734375 5.59375 54.234375 5.90625 53.828125 
z
" id="Computer_Modern_Bright-51"/>
      </defs>
      <g style="fill:#262626;" transform="translate(42.305613 135.826308)scale(0.18 -0.18)">
       <use transform="scale(0.996264)" xlink:href="#Computer_Modern_Bright-51"/>
      </g>
     </g>
    </g>
    <g id="ytick_7">
     <g id="line2d_10"/>
     <g id="text_10">
      <!-- $4$ -->
      <defs>
       <path d="M 2.09375 18 
L 31 18 
L 31 0 
L 37.296875 0 
L 37.296875 18 
L 48.703125 18 
L 48.703125 23.328125 
L 37.296875 23.328125 
L 37.296875 66.46875 
L 31.90625 66.46875 
C 30.09375 66.46875 29.59375 66.578125 28.796875 65.0625 
C 24.796875 58.515625 3.703125 25.765625 3 24.859375 
C 2.203125 23.4375 2.09375 23.546875 2.09375 21.4375 
z
M 31.296875 60.875 
L 31.296875 23.328125 
L 8.59375 23.328125 
C 9.296875 24.734375 10.296875 26.03125 11.203125 27.4375 
C 16.203125 35.171875 28.09375 53.546875 30.59375 59.28125 
C 30.90625 59.78125 31 60.375 31.296875 60.875 
" id="Computer_Modern_Bright-52"/>
      </defs>
      <g style="fill:#262626;" transform="translate(42.305613 97.749935)scale(0.18 -0.18)">
       <use transform="scale(0.996264)" xlink:href="#Computer_Modern_Bright-52"/>
      </g>
     </g>
    </g>
    <g id="ytick_8">
     <g id="line2d_11"/>
     <g id="text_11">
      <!-- $5$ -->
      <defs>
       <path d="M 8.40625 66.328125 
L 8.40625 30.453125 
L 12.203125 30.453125 
C 12.703125 30.453125 13.40625 30.359375 13.796875 30.5625 
C 14.296875 30.859375 14.59375 31.5625 14.90625 31.96875 
C 15.59375 32.859375 16.40625 33.5625 17.203125 34.265625 
C 20.796875 37.28125 27.703125 38.484375 32.296875 36.171875 
C 38.59375 33.171875 39.796875 25.21875 39.296875 19 
C 39 15.0625 37.796875 11.453125 35.5 9.140625 
C 30.203125 3.5 21.296875 3.5 14.796875 6.796875 
C 11.59375 8.40625 8.90625 10.921875 6.90625 13.921875 
L 6.796875 13.921875 
C 6.5 13.421875 4.203125 9.90625 4.203125 9.296875 
C 4.203125 8.890625 4.5 8.59375 4.703125 8.296875 
C 7.703125 4.78125 11.59375 2.0625 16.09375 0.5625 
C 25 -2.25 35 -0.046875 41.296875 7.1875 
C 48.796875 15.921875 47.796875 30.15625 39.09375 37.765625 
C 36.5 40.1875 32.90625 41.890625 28.59375 42.28125 
C 22.796875 43.09375 17.59375 40.28125 14.5 37.671875 
L 14.5 61 
L 42.90625 61 
L 42.90625 66.328125 
z
" id="Computer_Modern_Bright-53"/>
      </defs>
      <g style="fill:#262626;" transform="translate(42.305613 59.673563)scale(0.18 -0.18)">
       <use transform="scale(0.996264)" xlink:href="#Computer_Modern_Bright-53"/>
      </g>
     </g>
    </g>
    <g id="text_12">
     <!-- Regression Coefficient, $\beta$ -->
     <defs>
      <path d="M 8 69.328125 
L 8 -0.5 
L 14.90625 -0.5 
L 14.90625 32 
L 32 32 
C 32.5 32 33.09375 32.109375 33.5 31.8125 
C 34.203125 31.296875 34.59375 30.28125 35.09375 29.578125 
L 49.59375 7.484375 
L 53.296875 1.828125 
C 53.796875 1.125 54.296875 -0.09375 55 -0.40625 
C 55.59375 -0.703125 56.59375 -0.5 57.203125 -0.5 
L 61.90625 -0.5 
L 39.796875 32.703125 
C 45 33.71875 50.203125 35.921875 54 39.734375 
C 57.09375 42.828125 59.203125 46.75 59 51.171875 
C 58.703125 54.703125 57.296875 57.734375 55.5 59.9375 
C 51.09375 65.1875 43.59375 68.71875 35.59375 69.328125 
C 32.5 69.328125 29.5 69.328125 26.40625 69.328125 
z
M 14.90625 37.03125 
L 14.90625 64 
L 29.09375 64 
C 37.90625 64 46.203125 63 50.40625 56.96875 
C 53.203125 52.828125 53 47.203125 49.796875 43.28125 
C 48.703125 41.875 47.296875 40.765625 45.796875 39.953125 
C 40.703125 37.03125 34.796875 37.03125 29.09375 37.03125 
z
" id="Computer_Modern_Bright-82"/>
      <path d="M 41.796875 10.9375 
C 39.5 9.234375 38.796875 8.328125 35.90625 6.8125 
C 29.796875 3.5 22.59375 3.5 17.40625 7.171875 
C 12.40625 10.765625 9.5 16.640625 9.5 25 
L 42.5 25 
C 42.5 32.421875 40.796875 38.859375 36.59375 43.375 
C 32 47.890625 24.796875 49.296875 18.703125 47.390625 
C 16.40625 46.6875 14.296875 45.484375 12.40625 43.96875 
C 6.09375 38.859375 3.40625 30.71875 3.5 22.78125 
C 3.703125 12.34375 10.796875 1.90625 21.296875 -0.3125 
C 26.796875 -1.421875 32.59375 -0.203125 37.5 2.296875 
C 38.40625 2.796875 41.703125 4.609375 42.09375 5.515625 
C 42.40625 6.015625 41.796875 10.9375 41.796875 10.9375 
M 37.203125 28.90625 
L 10 28.90625 
C 11.203125 36.234375 17.203125 43.96875 25.296875 43.0625 
C 31.90625 42.46875 35.40625 37.75 36.703125 31.828125 
C 36.90625 30.8125 37 29.921875 37.203125 28.90625 
" id="Computer_Modern_Bright-101"/>
      <path d="M 35.40625 11.984375 
L 35.5 11.984375 
L 35.5 2.65625 
C 35.5 -0.15625 35.5 -2.859375 34.59375 -5.5625 
C 33.09375 -9.1875 30.5 -12.5 26.203125 -13.09375 
C 25 -13.203125 23.703125 -13.09375 22.5 -13 
C 16 -13 11.703125 -11.046875 6.5 -8.671875 
L 6.5 -12.484375 
C 6.5 -14.40625 6.796875 -14.5 8.703125 -15.109375 
C 13.796875 -17.21875 23 -19.3125 29.296875 -17.71875 
C 36.296875 -15.90625 41.40625 -9.28125 41.90625 -1.21875 
C 42 0.1875 41.90625 1.703125 41.90625 3.125 
L 41.90625 48 
L 35.59375 48 
L 35.59375 39.984375 
C 34.09375 42.484375 32.5 44.796875 29.90625 46.40625 
C 22.90625 50.625 13.40625 46 9.5 40.578125 
C 3.09375 32.640625 1.90625 20.34375 7 11.484375 
C 8 9.78125 9.203125 8.171875 10.59375 6.765625 
C 15.40625 2.046875 23.59375 -0.46875 29.5 3.75 
C 31.90625 5.359375 34.703125 9.078125 35.40625 11.984375 
M 25.5 43 
C 26.40625 43 27.40625 43 28.296875 42.796875 
C 31.90625 42.09375 33.90625 38.875 35.09375 35.65625 
C 35.796875 33.453125 35.59375 31.046875 35.59375 28.734375 
C 35.59375 23.71875 35.5 18.5 33.796875 13.765625 
C 32.59375 10.265625 30.09375 7.140625 26.203125 6.75 
C 24.90625 6.640625 23.59375 6.84375 22.296875 7.140625 
C 16.203125 8.546875 12 13.765625 10.703125 19.796875 
C 8.90625 28.53125 13.203125 39.171875 22 42.1875 
C 23.09375 42.59375 24.296875 42.890625 25.5 43 
" id="Computer_Modern_Bright-103"/>
      <path d="M 12.5 34.75 
L 12.40625 34.75 
L 12.40625 47.390625 
L 6.40625 47.390625 
L 6.40625 0 
L 12.703125 0 
L 12.703125 22.890625 
C 12.703125 24.40625 12.703125 25.90625 12.90625 27.40625 
C 14.296875 35.953125 21.703125 42.28125 31.40625 42.28125 
L 31.40625 48 
C 25 48 19.09375 44.890625 15.296875 39.765625 
C 14.203125 38.265625 13 36.546875 12.5 34.75 
" id="Computer_Modern_Bright-114"/>
      <path d="M 3.09375 9.640625 
C 2.90625 8.234375 2.59375 6.9375 2.40625 5.53125 
C 2.203125 4.421875 1.90625 3.921875 2.90625 3.421875 
C 7 1.015625 11.90625 -0.296875 17.703125 -0.796875 
C 24.203125 -1.40625 32.40625 0.109375 35.59375 6.53125 
C 36.5 8.34375 37 10.34375 37.09375 12.359375 
C 37.5 19.578125 31.796875 24.203125 26.90625 25.90625 
C 21.40625 28.015625 13.90625 27.3125 10.09375 31.53125 
C 8.09375 33.84375 8 37.265625 9.90625 39.671875 
C 13.90625 45.296875 26.796875 42.875 31.90625 40.375 
C 32.703125 39.96875 33.40625 39.46875 34.296875 39.265625 
L 35.203125 44.6875 
C 30.5 46.796875 26.40625 48 19.90625 48 
C 14.296875 48 9.203125 46.703125 6 43.484375 
C 2.796875 40.171875 1.703125 34.640625 3.59375 30.4375 
C 5.40625 26.40625 9.203125 23.796875 13.296875 22.5 
C 19.203125 20.390625 25.90625 21.390625 29.796875 16.578125 
C 32 13.765625 31.59375 9.546875 29.09375 7.03125 
C 24.296875 2.609375 14.09375 4.21875 8.5 6.625 
C 6.59375 7.4375 4.90625 8.640625 3.09375 9.640625 
" id="Computer_Modern_Bright-115"/>
      <path d="M 6.40625 70 
L 6.40625 63.671875 
L 12.703125 63.671875 
L 12.703125 70 
z
M 6.40625 47.390625 
L 6.40625 0 
L 12.703125 0 
L 12.703125 47.390625 
z
" id="Computer_Modern_Bright-105"/>
      <path d="M 10.703125 42.078125 
C 1.796875 33.234375 0.796875 17.875 8.5 7.9375 
C 9.59375 6.421875 10.90625 5.125 12.40625 4.015625 
C 16.09375 1 21.5 -1.203125 27.796875 -0.5 
C 37.796875 0.703125 44.703125 8.84375 46.796875 17.375 
C 49.59375 29.328125 43.703125 42.671875 32.703125 46.890625 
C 24.09375 50.40625 15.5 46.890625 10.703125 42.078125 
M 35.703125 39.359375 
C 40.5 35.03125 41.40625 28.109375 41 21.984375 
C 40.703125 17.265625 39.40625 12.34375 36.09375 8.828125 
C 30.703125 3 20.703125 3 14.90625 8.625 
C 11.90625 11.84375 10.09375 16.453125 9.796875 21.984375 
C 9.296875 30.109375 11.296875 38.75 19.296875 41.96875 
C 25.203125 44.578125 32 42.671875 35.703125 39.359375 
" id="Computer_Modern_Bright-111"/>
      <path d="M 12.59375 37.28125 
L 12.5 37.28125 
L 12.5 47.390625 
L 6.40625 47.390625 
L 6.40625 0 
L 12.796875 0 
L 12.796875 21.9375 
C 12.796875 26.84375 12.5 31.875 14.703125 36.46875 
C 15.796875 38.78125 17.5 40.78125 19.796875 41.984375 
C 21.703125 42.890625 23.703125 42.890625 25.796875 42.6875 
C 28.796875 42.6875 31.703125 41.890625 33.59375 39.375 
C 35.40625 37.0625 35.5 34.0625 35.5 31.25 
L 35.5 0 
L 41.90625 0 
L 41.90625 26.859375 
C 41.90625 31.875 42.40625 37.375 40 41.890625 
C 38.09375 45.5 34.40625 47.203125 30.5 47.703125 
C 28.5 48 26.40625 48 24.40625 47.609375 
C 19.203125 46.5 14.40625 42.296875 12.59375 37.28125 
" id="Computer_Modern_Bright-110"/>
      <path d="M 60.5 10.875 
C 58.5 9.859375 56.703125 8.453125 54.703125 7.453125 
C 50 5.046875 44 4.140625 37.5 4.734375 
C 31.703125 5.546875 26.90625 8.359375 23.40625 11.875 
C 12.203125 23.15625 11.40625 42.96875 21.296875 55.34375 
C 25.5 60.875 31.90625 65 41.296875 65 
C 45.09375 65 49 64.296875 52.5 62.890625 
C 54.59375 61.96875 56.59375 60.765625 58.59375 59.765625 
L 59.796875 66.8125 
C 57.59375 67.671875 55.296875 68.5625 53 69.09375 
C 47.40625 70.625 38.90625 70.625 33.09375 69.21875 
C 22.90625 66.921875 15.5 59.828125 11.296875 51.625 
C 5.5 40.015625 6.203125 25.515625 13.203125 14.59375 
C 15 11.703125 17.296875 9.109375 19.90625 6.890625 
C 25.90625 1.6875 33.296875 -1.3125 43.59375 -0.5 
C 49.796875 -0.5 53.40625 0.515625 58.203125 3.203125 
C 58.703125 3.5 60.59375 4.515625 60.90625 4.9375 
C 61.09375 5.4375 60.59375 9.53125 60.5 10.875 
" id="Computer_Modern_Bright-67"/>
      <path d="M 10.59375 47.015625 
L 2 47.015625 
L 2 42 
L 10.59375 42 
L 10.59375 0 
L 16.90625 0 
L 16.90625 42 
L 30.09375 42 
L 30.09375 47.015625 
L 16.796875 47.015625 
L 16.796875 56.234375 
C 16.796875 57.890625 16.59375 59.65625 17.296875 61.21875 
C 19.5 65.875 25.40625 65.875 29.59375 65.078125 
C 30.59375 64.875 31.703125 64.46875 32.703125 64.265625 
L 32.703125 69.90625 
C 27.703125 70.609375 22.296875 71.21875 17.703125 68.46875 
C 15.796875 67.4375 14.203125 65.6875 13 63.921875 
C 11.09375 60.9375 10.59375 58.78125 10.59375 53.71875 
z
M 38.09375 0 
L 44.40625 0 
L 44.40625 42 
L 57.59375 42 
L 57.59375 47.015625 
L 44.296875 47.015625 
L 44.296875 55.234375 
C 44.296875 56.890625 44.09375 58.65625 44.40625 60.328125 
C 44.90625 62.296875 46.09375 63.65625 47.703125 64.671875 
C 50.796875 66.171875 54.40625 65.078125 57.59375 64.171875 
L 57.59375 70 
C 55.09375 70.1875 52.703125 70.6875 50.203125 70.5 
C 43.40625 70 38.59375 64.046875 38.09375 57.3125 
C 38 55.890625 38.09375 54.375 38.09375 52.96875 
z
M 65.59375 70 
L 65.59375 63.671875 
L 71.90625 63.671875 
L 71.90625 70 
z
M 65.59375 47.390625 
L 65.59375 0 
L 71.90625 0 
L 71.90625 47.390625 
z
" id="Computer_Modern_Bright-14"/>
      <path d="M 42.40625 11.25 
C 40.5 9.84375 38.796875 8.328125 36.703125 7.125 
C 32 4.625 24.796875 3.421875 19.40625 5.921875 
C 11.59375 9.9375 9.5 19.6875 10.59375 27.71875 
C 10.796875 29.328125 11.09375 30.921875 11.59375 32.4375 
C 13.796875 38.96875 19.296875 44.078125 28.296875 43.078125 
C 33.09375 42.671875 35.5 41.875 39.296875 39.765625 
C 40 39.359375 40.59375 38.859375 41.40625 38.65625 
C 41.5 39.859375 41.796875 41.171875 42 42.375 
C 42.296875 43.984375 42.296875 44.1875 40.796875 44.890625 
C 39.703125 45.390625 38.59375 45.984375 37.40625 46.390625 
C 32.796875 48.40625 25.203125 49 20 47.5 
C 12.90625 45.484375 7.59375 39.359375 5.296875 32.53125 
C 4.203125 29.421875 3.90625 26.109375 3.90625 22.796875 
C 4 12.25 11.203125 1.90625 21.703125 -0.203125 
C 27.5 -1.40625 34.203125 0.296875 38.203125 2.40625 
C 39.203125 2.90625 42.203125 4.71875 42.703125 5.625 
C 43 6.125 42.40625 11.25 42.40625 11.25 
" id="Computer_Modern_Bright-99"/>
      <path d="M 10.796875 60.5 
L 10.796875 47.015625 
L 1.09375 47.015625 
L 1.09375 42 
L 10.703125 42 
L 10.703125 15.015625 
C 10.703125 10.578125 10.40625 5.234375 13.296875 1.515625 
C 15 -0.703125 17.296875 -1.296875 20.796875 -1 
C 23.703125 -1 26.59375 -0.390625 29.296875 0.65625 
C 30.203125 1.0625 33.5 2.515625 33.90625 3.234375 
C 34.09375 3.640625 32.796875 8.09375 32.796875 8.09375 
L 30.40625 6.265625 
C 27.296875 4.34375 21.09375 2.328125 18.5 5.96875 
C 16.203125 9.09375 16.796875 13.75 16.796875 17.375 
L 16.796875 42 
L 32.296875 42 
L 32.296875 47.015625 
L 16.796875 47.015625 
L 16.796875 60.5 
z
" id="Computer_Modern_Bright-116"/>
      <path d="M 9.90625 7.828125 
L 9.90625 0 
L 12.296875 0 
L 9.796875 -11 
L 13.796875 -11 
C 15.09375 -7.34375 16.40625 -3.765625 17.59375 -0.09375 
C 17.703125 2.40625 17.703125 5.125 17.703125 7.828125 
z
" id="Computer_Modern_Bright-44"/>
      <path d="M -3.40625 -17.296875 
L 3 -17.296875 
L 4.203125 -11.21875 
L 7.5 4.359375 
C 9.40625 2.34375 11.296875 0.515625 13.796875 -0.796875 
C 18.09375 -3.125 25.203125 -4.546875 31.40625 -3.125 
C 40.59375 -1.296875 49 5.484375 52.90625 14.1875 
C 56 21.265625 56.40625 30.28125 52.90625 37.359375 
C 51.703125 39.78125 49.90625 42.515625 47.5 43.9375 
C 51.40625 46.171875 55.09375 49.046875 57 53.4375 
C 57.796875 55.375 58.40625 57.828125 57.90625 60.390625 
C 56.40625 67.4375 50 70.5 43.203125 70.5 
C 39.703125 70.5 36 69.890625 32.59375 68.984375 
C 24.40625 66.5625 16.796875 61.3125 12.59375 53.765625 
C 10 49.03125 9.40625 43.484375 8.296875 38.234375 
C 7 32.390625 -3.40625 -16.6875 -3.40625 -17.296875 
M 39.5 65.59375 
C 43.40625 65.890625 47.90625 64.890625 49.90625 62.96875 
C 53.59375 59.3125 50.90625 52.328125 48.5 49.5 
C 47.703125 48.484375 45.40625 46.359375 44.09375 46.15625 
C 43.5 46.0625 42.90625 46.4375 42.296875 46.515625 
C 37.90625 47.875 28.703125 47.875 25.703125 45.984375 
C 25 45.59375 24.203125 44.640625 24.296875 43.703125 
C 24.59375 42.03125 27.59375 41.40625 29 41.3125 
C 32.40625 41 35.90625 41 39.296875 41.40625 
C 40 41.5 40.796875 41.703125 41.5 41.8125 
C 42.40625 42.015625 43.09375 42.3125 43.90625 41.703125 
C 48.5 38.265625 49.59375 31.484375 49.09375 26.125 
C 48.59375 19.4375 47 12.765625 42.40625 7.703125 
C 39.296875 4.5625 35.796875 2.4375 30.40625 1.53125 
C 23.203125 0.625 14.40625 3.25 11.40625 10.546875 
C 10 14.484375 10.09375 17.21875 11.203125 22.171875 
L 12.703125 28.953125 
L 15.59375 43.125 
C 16.296875 46.0625 16.703125 49.09375 18 51.828125 
C 21.90625 60.03125 30.796875 64.890625 39.5 65.59375 
" id="Computer_Modern_Bright_Math_Slanted-12"/>
     </defs>
     <g style="fill:#262626;" transform="translate(21.036997 285.36295)rotate(-90)scale(0.2 -0.2)">
      <use transform="scale(0.996264)" xlink:href="#Computer_Modern_Bright-82"/>
      <use transform="translate(63.719122 0)scale(0.996264)" xlink:href="#Computer_Modern_Bright-101"/>
      <use transform="translate(108.55079 0)scale(0.996264)" xlink:href="#Computer_Modern_Bright-103"/>
      <use transform="translate(156.703287 0)scale(0.996264)" xlink:href="#Computer_Modern_Bright-114"/>
      <use transform="translate(188.666646 0)scale(0.996264)" xlink:href="#Computer_Modern_Bright-101"/>
      <use transform="translate(233.498313 0)scale(0.996264)" xlink:href="#Computer_Modern_Bright-115"/>
      <use transform="translate(271.937343 0)scale(0.996264)" xlink:href="#Computer_Modern_Bright-115"/>
      <use transform="translate(310.376372 0)scale(0.996264)" xlink:href="#Computer_Modern_Bright-105"/>
      <use transform="translate(329.471331 0)scale(0.996264)" xlink:href="#Computer_Modern_Bright-111"/>
      <use transform="translate(380.114548 0)scale(0.996264)" xlink:href="#Computer_Modern_Bright-110"/>
      <use transform="translate(459.732257 0)scale(0.996264)" xlink:href="#Computer_Modern_Bright-67"/>
      <use transform="translate(524.90429 0)scale(0.996264)" xlink:href="#Computer_Modern_Bright-111"/>
      <use transform="translate(575.547507 0)scale(0.996264)" xlink:href="#Computer_Modern_Bright-101"/>
      <use transform="translate(620.379175 0)scale(0.996264)" xlink:href="#Computer_Modern_Bright-14"/>
      <use transform="translate(698.419608 0)scale(0.996264)" xlink:href="#Computer_Modern_Bright-99"/>
      <use transform="translate(743.251275 0)scale(0.996264)" xlink:href="#Computer_Modern_Bright-105"/>
      <use transform="translate(762.346234 0)scale(0.996264)" xlink:href="#Computer_Modern_Bright-101"/>
      <use transform="translate(807.177902 0)scale(0.996264)" xlink:href="#Computer_Modern_Bright-110"/>
      <use transform="translate(855.330399 0)scale(0.996264)" xlink:href="#Computer_Modern_Bright-116"/>
      <use transform="translate(891.444787 0)scale(0.996264)" xlink:href="#Computer_Modern_Bright-44"/>
      <use transform="translate(950.307122 0)scale(0.996264)" xlink:href="#Computer_Modern_Bright_Math_Slanted-12"/>
     </g>
    </g>
   </g>
   <g id="PolyCollection_1">
    <defs>
     <path d="M 47.533588 -147.161652 
L 47.533588 -56.925628 
L 199.962856 -56.925628 
L 199.962856 -147.161652 
L 199.962856 -147.161652 
L 47.533588 -147.161652 
z
" id="m2f9b1c49f1" style="stroke:#cfcfcf;stroke-width:0.3;"/>
    </defs>
    <g clip-path="url(#pd8eb311cb1)">
     <use style="fill:#cfcfcf;stroke:#cfcfcf;stroke-width:0.3;" x="0" xlink:href="#m2f9b1c49f1" y="390.990442"/>
    </g>
   </g>
   <g id="PolyCollection_2">
    <defs>
     <path d="M 47.533588 -147.161652 
L 47.533588 -355.905628 
L 199.962856 -355.905628 
L 199.962856 -147.161652 
L 199.962856 -147.161652 
L 47.533588 -147.161652 
z
" id="m3679e29800" style="stroke:#cfcfcf;stroke-width:0.3;"/>
    </defs>
    <g clip-path="url(#pd8eb311cb1)">
     <use style="fill:#cfcfcf;stroke:#cfcfcf;stroke-width:0.3;" x="0" xlink:href="#m3679e29800" y="390.990442"/>
    </g>
   </g>
   <g id="PolyCollection_3">
    <defs>
     <path d="M 352.392124 -147.161652 
L 352.392124 -56.925628 
L 504.821393 -56.925628 
L 504.821393 -147.161652 
L 504.821393 -147.161652 
L 352.392124 -147.161652 
z
" id="m1707082de8" style="stroke:#cfcfcf;stroke-width:0.3;"/>
    </defs>
    <g clip-path="url(#pd8eb311cb1)">
     <use style="fill:#cfcfcf;stroke:#cfcfcf;stroke-width:0.3;" x="0" xlink:href="#m1707082de8" y="390.990442"/>
    </g>
   </g>
   <g id="PolyCollection_4">
    <defs>
     <path d="M 352.392124 -147.161652 
L 352.392124 -355.905628 
L 504.821393 -355.905628 
L 504.821393 -147.161652 
L 504.821393 -147.161652 
L 352.392124 -147.161652 
z
" id="m6c2d4ec8f8" style="stroke:#cfcfcf;stroke-width:0.3;"/>
    </defs>
    <g clip-path="url(#pd8eb311cb1)">
     <use style="fill:#cfcfcf;stroke:#cfcfcf;stroke-width:0.3;" x="0" xlink:href="#m6c2d4ec8f8" y="390.990442"/>
    </g>
   </g>
   <g id="patch_3">
    <path clip-path="url(#pd8eb311cb1)" d="M 167.299441 283.008363 
L 189.075051 283.008363 
L 189.075051 243.82879 
L 167.299441 243.82879 
z
" style="fill:#377eb8;opacity:0.7;"/>
   </g>
   <g id="patch_4">
    <path clip-path="url(#pd8eb311cb1)" d="M 319.72871 243.82879 
L 341.50432 243.82879 
L 341.50432 115.682187 
L 319.72871 115.682187 
z
" style="fill:#377eb8;opacity:0.7;"/>
   </g>
   <g id="patch_5">
    <path clip-path="url(#pd8eb311cb1)" d="M 472.157978 243.82879 
L 493.933588 243.82879 
L 493.933588 215.303607 
L 472.157978 215.303607 
z
" style="fill:#377eb8;opacity:0.7;"/>
   </g>
   <g id="patch_6">
    <path clip-path="url(#pd8eb311cb1)" d="M 145.523832 243.82879 
L 167.299441 243.82879 
L 167.299441 168.107955 
L 145.523832 168.107955 
z
" style="fill:#e41a1c;opacity:0.7;"/>
   </g>
   <g id="patch_7">
    <path clip-path="url(#pd8eb311cb1)" d="M 297.9531 243.82879 
L 319.72871 243.82879 
L 319.72871 75.458961 
L 297.9531 75.458961 
z
" style="fill:#e41a1c;opacity:0.7;"/>
   </g>
   <g id="patch_8">
    <path clip-path="url(#pd8eb311cb1)" d="M 450.382368 243.82879 
L 472.157978 243.82879 
L 472.157978 210.335337 
L 450.382368 210.335337 
z
" style="fill:#e41a1c;opacity:0.7;"/>
   </g>
   <g id="patch_9">
    <path clip-path="url(#pd8eb311cb1)" d="M 80.197002 243.82879 
L 101.972612 243.82879 
L 101.972612 189.845519 
L 80.197002 189.845519 
z
" style="fill:#4daf4a;opacity:0.7;"/>
   </g>
   <g id="patch_10">
    <path clip-path="url(#pd8eb311cb1)" d="M 232.626271 243.82879 
L 254.40188 243.82879 
L 254.40188 64.492219 
L 232.626271 64.492219 
z
" style="fill:#4daf4a;opacity:0.7;"/>
   </g>
   <g id="patch_11">
    <path clip-path="url(#pd8eb311cb1)" d="M 385.055539 243.82879 
L 406.831149 243.82879 
L 406.831149 210.049812 
L 385.055539 210.049812 
z
" style="fill:#4daf4a;opacity:0.7;"/>
   </g>
   <g id="patch_12">
    <path clip-path="url(#pd8eb311cb1)" d="M 123.748222 280.639332 
L 145.523832 280.639332 
L 145.523832 243.82879 
L 123.748222 243.82879 
z
" style="fill:#984ea3;opacity:0.7;"/>
   </g>
   <g id="patch_13">
    <path clip-path="url(#pd8eb311cb1)" d="M 276.17749 243.82879 
L 297.9531 243.82879 
L 297.9531 104.375202 
L 276.17749 104.375202 
z
" style="fill:#984ea3;opacity:0.7;"/>
   </g>
   <g id="patch_14">
    <path clip-path="url(#pd8eb311cb1)" d="M 428.606759 243.82879 
L 450.382368 243.82879 
L 450.382368 213.938515 
L 428.606759 213.938515 
z
" style="fill:#984ea3;opacity:0.7;"/>
   </g>
   <g id="patch_15">
    <path clip-path="url(#pd8eb311cb1)" d="M 58.421393 243.82879 
L 80.197002 243.82879 
L 80.197002 198.179421 
L 58.421393 198.179421 
z
" style="fill:#ffff33;opacity:0.7;"/>
   </g>
   <g id="patch_16">
    <path clip-path="url(#pd8eb311cb1)" d="M 210.850661 243.82879 
L 232.626271 243.82879 
L 232.626271 218.846158 
L 210.850661 218.846158 
z
" style="fill:#ffff33;opacity:0.7;"/>
   </g>
   <g id="patch_17">
    <path clip-path="url(#pd8eb311cb1)" d="M 363.279929 243.82879 
L 385.055539 243.82879 
L 385.055539 242.032066 
L 363.279929 242.032066 
z
" style="fill:#ffff33;opacity:0.7;"/>
   </g>
   <g id="patch_18">
    <path clip-path="url(#pd8eb311cb1)" d="M 101.972612 292.230114 
L 123.748222 292.230114 
L 123.748222 243.82879 
L 101.972612 243.82879 
z
" style="fill:#ff7f00;opacity:0.7;"/>
   </g>
   <g id="patch_19">
    <path clip-path="url(#pd8eb311cb1)" d="M 254.40188 312.272683 
L 276.17749 312.272683 
L 276.17749 243.82879 
L 254.40188 243.82879 
z
" style="fill:#ff7f00;opacity:0.7;"/>
   </g>
   <g id="patch_20">
    <path clip-path="url(#pd8eb311cb1)" d="M 406.831149 262.983062 
L 428.606759 262.983062 
L 428.606759 243.82879 
L 406.831149 243.82879 
z
" style="fill:#ff7f00;opacity:0.7;"/>
   </g>
   <g id="LineCollection_1">
    <path clip-path="url(#pd8eb311cb1)" d="M 178.187246 292.13619 
L 178.187246 273.880536 
" style="fill:none;stroke:#333333;stroke-width:2;"/>
    <path clip-path="url(#pd8eb311cb1)" d="M 330.616515 123.884318 
L 330.616515 107.480056 
" style="fill:none;stroke:#333333;stroke-width:2;"/>
    <path clip-path="url(#pd8eb311cb1)" d="M 483.045783 218.266256 
L 483.045783 212.340958 
" style="fill:none;stroke:#333333;stroke-width:2;"/>
   </g>
   <g id="LineCollection_2">
    <path clip-path="url(#pd8eb311cb1)" d="M 156.411637 177.235782 
L 156.411637 158.980128 
" style="fill:none;stroke:#333333;stroke-width:2;"/>
    <path clip-path="url(#pd8eb311cb1)" d="M 308.840905 83.661092 
L 308.840905 67.25683 
" style="fill:none;stroke:#333333;stroke-width:2;"/>
    <path clip-path="url(#pd8eb311cb1)" d="M 461.270173 213.297985 
L 461.270173 207.372688 
" style="fill:none;stroke:#333333;stroke-width:2;"/>
   </g>
   <g id="LineCollection_3">
    <path clip-path="url(#pd8eb311cb1)" d="M 91.084807 198.973346 
L 91.084807 180.717692 
" style="fill:none;stroke:#333333;stroke-width:2;"/>
    <path clip-path="url(#pd8eb311cb1)" d="M 243.514076 72.69435 
L 243.514076 56.290088 
" style="fill:none;stroke:#333333;stroke-width:2;"/>
    <path clip-path="url(#pd8eb311cb1)" d="M 395.943344 213.012461 
L 395.943344 207.087163 
" style="fill:none;stroke:#333333;stroke-width:2;"/>
   </g>
   <g id="LineCollection_4">
    <path clip-path="url(#pd8eb311cb1)" d="M 134.636027 289.767159 
L 134.636027 271.511505 
" style="fill:none;stroke:#333333;stroke-width:2;"/>
    <path clip-path="url(#pd8eb311cb1)" d="M 287.065295 112.577333 
L 287.065295 96.173071 
" style="fill:none;stroke:#333333;stroke-width:2;"/>
    <path clip-path="url(#pd8eb311cb1)" d="M 439.494563 216.901163 
L 439.494563 210.975866 
" style="fill:none;stroke:#333333;stroke-width:2;"/>
   </g>
   <g id="LineCollection_5">
    <path clip-path="url(#pd8eb311cb1)" d="M 69.309198 207.307248 
L 69.309198 189.051594 
" style="fill:none;stroke:#333333;stroke-width:2;"/>
    <path clip-path="url(#pd8eb311cb1)" d="M 221.738466 227.048289 
L 221.738466 210.644027 
" style="fill:none;stroke:#333333;stroke-width:2;"/>
    <path clip-path="url(#pd8eb311cb1)" d="M 374.167734 244.994715 
L 374.167734 239.069418 
" style="fill:none;stroke:#333333;stroke-width:2;"/>
   </g>
   <g id="LineCollection_6">
    <path clip-path="url(#pd8eb311cb1)" d="M 112.860417 301.357941 
L 112.860417 283.102287 
" style="fill:none;stroke:#333333;stroke-width:2;"/>
    <path clip-path="url(#pd8eb311cb1)" d="M 265.289685 320.474814 
L 265.289685 304.070552 
" style="fill:none;stroke:#333333;stroke-width:2;"/>
    <path clip-path="url(#pd8eb311cb1)" d="M 417.718954 265.945711 
L 417.718954 260.020413 
" style="fill:none;stroke:#333333;stroke-width:2;"/>
   </g>
   <g id="line2d_12">
    <defs>
     <path d="M 0 -3.5 
L -0.785799 -1.081559 
L -3.328698 -1.081559 
L -1.271449 0.413119 
L -2.057248 2.831559 
L -0 1.336881 
L 2.057248 2.831559 
L 1.271449 0.413119 
L 3.328698 -1.081559 
L 0.785799 -1.081559 
z
" id="m2bcfc52a5d"/>
    </defs>
    <g clip-path="url(#pd8eb311cb1)">
     <use x="178.187246" xlink:href="#m2bcfc52a5d" y="266.265261"/>
     <use x="330.616515" xlink:href="#m2bcfc52a5d" y="99.864781"/>
     <use x="483.045783" xlink:href="#m2bcfc52a5d" y="204.725684"/>
    </g>
   </g>
   <g id="line2d_13">
    <g clip-path="url(#pd8eb311cb1)">
     <use x="156.411637" xlink:href="#m2bcfc52a5d" y="151.364853"/>
     <use x="308.840905" xlink:href="#m2bcfc52a5d" y="59.641555"/>
     <use x="461.270173" xlink:href="#m2bcfc52a5d" y="199.757414"/>
    </g>
   </g>
   <g id="line2d_14">
    <g clip-path="url(#pd8eb311cb1)">
     <use x="91.084807" xlink:href="#m2bcfc52a5d" y="173.102417"/>
     <use x="243.514076" xlink:href="#m2bcfc52a5d" y="48.674814"/>
     <use x="395.943344" xlink:href="#m2bcfc52a5d" y="199.471889"/>
    </g>
   </g>
   <g id="line2d_15">
    <g clip-path="url(#pd8eb311cb1)">
     <use x="134.636027" xlink:href="#m2bcfc52a5d" y="263.89623"/>
     <use x="287.065295" xlink:href="#m2bcfc52a5d" y="88.557796"/>
     <use x="439.494563" xlink:href="#m2bcfc52a5d" y="203.360592"/>
    </g>
   </g>
   <g id="line2d_16">
    <g clip-path="url(#pd8eb311cb1)">
     <use x="69.309198" xlink:href="#m2bcfc52a5d" y="181.436319"/>
     <use x="221.738466" xlink:href="#m2bcfc52a5d" y="203.028753"/>
    </g>
   </g>
   <g id="line2d_17">
    <g clip-path="url(#pd8eb311cb1)">
     <use x="112.860417" xlink:href="#m2bcfc52a5d" y="275.487012"/>
     <use x="265.289685" xlink:href="#m2bcfc52a5d" y="296.455278"/>
     <use x="417.718954" xlink:href="#m2bcfc52a5d" y="252.405139"/>
    </g>
   </g>
   <g id="patch_21">
    <path d="M 58.421393 334.064814 
L 58.421393 35.084814 
" style="fill:none;"/>
   </g>
   <g id="patch_22">
    <path d="M 504.821393 334.064814 
L 504.821393 35.084814 
" style="fill:none;"/>
   </g>
   <g id="patch_23">
    <path d="M 58.421393 334.064814 
L 504.821393 334.064814 
" style="fill:none;"/>
   </g>
   <g id="patch_24">
    <path d="M 58.421393 35.084814 
L 504.821393 35.084814 
" style="fill:none;"/>
   </g>
   <g id="legend_1">
    <g id="text_13">
     <!-- Genotype -->
     <defs>
      <path d="M 62.09375 33.3125 
L 40 33.3125 
L 40 28 
L 55.703125 28 
L 55.703125 9.59375 
C 55.703125 9.09375 55.796875 8.390625 55.5 7.984375 
C 55.203125 7.390625 53.90625 7.1875 53.296875 6.984375 
C 48.703125 5.6875 41.90625 4.375 36.5 5.375 
C 29.203125 6.578125 23 11.40625 19.203125 17.71875 
C 11.59375 30.140625 13 47.5625 23.40625 57.96875 
C 26.5 61.09375 30.296875 63.5 35 64.59375 
C 41.5 66.203125 49.09375 64.59375 53.90625 62.296875 
C 56.09375 61.28125 58 59.875 60 58.578125 
L 61.203125 65.59375 
C 58.5 66.796875 55.90625 68 53 68.890625 
C 48.59375 70.09375 44.09375 70.5 39.59375 70.5 
C 27.703125 70.5 18.5 63.109375 13.59375 56.03125 
C 6.296875 45.0625 5.40625 30.3125 11.296875 18.53125 
C 14.59375 11.65625 20 6.578125 26.796875 3.078125 
C 35.203125 -1 45.09375 -1 53.90625 1.53125 
C 55.09375 1.828125 61.703125 3.921875 62 4.859375 
C 62.09375 5.171875 62.09375 5.59375 62.09375 5.90625 
z
" id="Computer_Modern_Bright-71"/>
      <path d="M 0.703125 47.65625 
C 1.296875 45.75 5.40625 35.609375 5.5 35.3125 
L 17.40625 4.578125 
L 18.40625 2.078125 
C 19 0.671875 19.203125 0.46875 18.59375 -1.140625 
L 17.5 -4.046875 
C 16.59375 -6.46875 15.59375 -8.96875 13.703125 -10.484375 
C 10.296875 -13.296875 4.90625 -11.6875 0.796875 -10.78125 
L 1.296875 -16.5 
C 3.203125 -16.796875 5.09375 -17 7 -17 
C 11.296875 -17.515625 14.09375 -16.5 16.703125 -14.296875 
C 20 -11.484375 21.59375 -7.5625 23.09375 -3.546875 
L 26.203125 5.078125 
L 36.40625 32.90625 
C 38.09375 37.921875 40.203125 42.640625 41.796875 47.65625 
L 37.296875 47.65625 
C 36.796875 47.65625 36 47.859375 35.59375 47.46875 
C 35.40625 47.15625 35.296875 46.765625 35.203125 46.453125 
L 34.40625 44.34375 
C 33.40625 41.734375 32.5 39.234375 31.59375 36.609375 
L 25.796875 20.25 
C 24.296875 15.828125 22.59375 11.3125 21.796875 6.6875 
C 20.703125 11.3125 19.203125 15.734375 17.59375 20.140625 
C 16.296875 23.5625 8.5 44.546875 7.5 46.5625 
C 7.09375 47.65625 6.703125 47.65625 5.203125 47.65625 
z
" id="Computer_Modern_Bright-121"/>
      <path d="M 12.703125 40.53125 
L 12.703125 47.15625 
L 6.40625 47.15625 
L 6.40625 -17 
L 12.796875 -17 
L 12.796875 6.09375 
C 14.203125 4.078125 15.796875 2.28125 17.90625 1.078125 
C 25 -3.25 34 0.171875 38.90625 6.59375 
C 45.40625 14.96875 46.09375 27.5 41.59375 36.984375 
C 39 42.4375 34.09375 47.5 27.796875 48 
C 22.296875 48 18.09375 45.8125 15.09375 43.125 
C 14.203125 42.328125 13.5 41.4375 12.703125 40.53125 
M 21.90625 42.875 
C 26 43.171875 30 41.265625 32.796875 38.265625 
C 34.5 36.34375 35.796875 34.140625 36.59375 31.734375 
C 40.09375 22.296875 36.90625 9.234375 26.796875 5.328125 
C 21 3.109375 15.296875 5.125 13.09375 10.546875 
C 12.59375 11.546875 12.796875 12.859375 12.796875 13.953125 
L 12.796875 34.640625 
C 12.796875 36.953125 13 37.15625 14.5 38.859375 
C 16.296875 41.0625 19 42.578125 21.90625 42.875 
" id="Computer_Modern_Bright-112"/>
     </defs>
     <g style="fill:#262626;" transform="translate(549.437044 26.85327)scale(0.18 -0.18)">
      <use transform="scale(0.996264)" xlink:href="#Computer_Modern_Bright-71"/>
      <use transform="translate(68.077762 0)scale(0.996264)" xlink:href="#Computer_Modern_Bright-101"/>
      <use transform="translate(112.90943 0)scale(0.996264)" xlink:href="#Computer_Modern_Bright-110"/>
      <use transform="translate(161.061927 0)scale(0.996264)" xlink:href="#Computer_Modern_Bright-111"/>
      <use transform="translate(211.705144 0)scale(0.996264)" xlink:href="#Computer_Modern_Bright-116"/>
      <use transform="translate(244.913803 0)scale(0.996264)" xlink:href="#Computer_Modern_Bright-121"/>
      <use transform="translate(287.254841 0)scale(0.996264)" xlink:href="#Computer_Modern_Bright-112"/>
      <use transform="translate(335.407338 0)scale(0.996264)" xlink:href="#Computer_Modern_Bright-101"/>
     </g>
    </g>
    <g id="patch_25">
     <path d="M 520.949393 51.442062 
L 556.949393 51.442062 
L 556.949393 38.842062 
L 520.949393 38.842062 
z
" style="fill:#377eb8;opacity:0.7;"/>
    </g>
    <g id="text_14">
     <!-- \emph{egl-9;hif-1} -->
     <defs>
      <path d="M 44.09375 10.859375 
C 42.796875 9.953125 41.5 8.9375 40.09375 8.140625 
C 34.296875 4.59375 24.09375 1.765625 18.203125 7.53125 
C 14.40625 11.375 13.203125 17.53125 14.796875 25 
L 46.40625 25 
C 46.796875 25 47.40625 24.90625 47.703125 25.203125 
C 48.5 25.8125 48.703125 31.375 48.703125 31.46875 
C 48.703125 32.6875 48.796875 33.890625 48.703125 35.109375 
C 48.296875 40.46875 45.703125 45.3125 40.703125 47.140625 
C 34.296875 49.765625 27 47.84375 21.5 43.90625 
C 13.796875 38.4375 8.40625 29.046875 8 19.453125 
C 7.59375 11.875 10.5 5.515625 15.40625 2.171875 
C 23.40625 -3.484375 34.5 -0.15625 40.90625 3.6875 
C 41.703125 4.203125 42.90625 4.703125 43.40625 5.40625 
C 43.703125 5.90625 44.09375 10.859375 44.09375 10.859375 
M 43.296875 28.953125 
L 16.203125 28.953125 
C 16.59375 30.671875 17.703125 32.390625 18.703125 33.796875 
C 21.296875 37.84375 25.09375 41.46875 29.796875 42.796875 
C 33.59375 43.90625 38.296875 43.1875 41 40.0625 
C 43.203125 37.4375 43.703125 33.390625 43.296875 28.953125 
" id="Computer_Modern_Bright_Slanted-101"/>
      <path d="M 37.90625 12.09375 
L 38 12.09375 
C 37.703125 10.1875 37.203125 8.265625 36.796875 6.34375 
C 36.203125 3.3125 35.703125 0.171875 34.703125 -2.65625 
C 33.5 -5.984375 31.203125 -9.109375 28.296875 -11.140625 
C 25.90625 -12.75 23.796875 -13.265625 19.90625 -12.953125 
C 15.09375 -12.953125 11.59375 -12.03125 7.796875 -10.265625 
C 6.703125 -9.75 5.796875 -9.125 4.703125 -8.609375 
L 3.5 -14.171875 
C 8.09375 -16.25 12.203125 -18 18.40625 -18 
C 19.796875 -18.109375 21.203125 -18.203125 22.59375 -18.109375 
C 31.703125 -17.203125 38.5 -10.21875 41.09375 -2.828125 
C 41.796875 -1 42.09375 1.015625 42.5 2.953125 
L 44.203125 11.03125 
C 44.796875 13.78125 51.90625 47.390625 52 48.5 
L 45.703125 48.5 
L 44.09375 40.265625 
C 43.703125 40.984375 43.5 41.78125 43.203125 42.5 
C 42.5 43.90625 41.5 45.21875 40.296875 46.234375 
C 34.40625 51.1875 25 46.640625 21 43.5 
C 15.09375 38.953125 11 32.296875 9.203125 25.125 
C 6.90625 16.234375 9.5 8.0625 14.90625 4.328125 
C 18.796875 1.59375 24.796875 0.78125 30 3.71875 
C 32.90625 5.4375 36.40625 8.96875 37.90625 12.09375 
M 34.59375 43.5 
C 40.296875 43.5 42.703125 39.546875 42.703125 33.890625 
C 42.59375 33.1875 42.40625 32.375 42.296875 31.671875 
C 40.703125 24.59375 39.40625 17.53125 35.59375 12.0625 
C 33.703125 9.34375 30.90625 7.125 27.5 6.8125 
C 25 6.609375 22.40625 7.515625 20.796875 8.328125 
C 15.90625 11.15625 14.296875 17.21875 15.09375 22.578125 
C 16 28.9375 19.5 35.03125 24.5 39.0625 
C 27.40625 41.4375 30.90625 43.203125 34.59375 43.5 
M 38 12.21875 
C 38 12.21875 38.09375 12.21875 38.09375 12.21875 
C 38.09375 12.125 38 12.015625 38 12.21875 
" id="Computer_Modern_Bright_Slanted-103"/>
      <path d="M 46.5 33.03125 
L 46.59375 33.03125 
C 46.296875 31.3125 45.90625 29.59375 45.40625 27.96875 
C 42.703125 18.296875 37.09375 7.828125 26.90625 4.625 
C 21.5 3.015625 15.90625 4.03125 12.5 6.734375 
C 12.203125 6.9375 11.59375 7.640625 11.09375 7.546875 
C 10.703125 7.546875 10.296875 6.84375 10.09375 6.53125 
C 9.203125 5.421875 8.296875 4.328125 7.5 3.21875 
C 9.296875 1.796875 11.09375 0.484375 13.296875 -0.3125 
C 15.90625 -1.328125 20.5 -1.828125 23.59375 -1.234375 
C 29 -0.421875 34 2.515625 38.09375 6.03125 
C 47.5 14.375 53.09375 26.21875 54.59375 41.390625 
C 55.09375 45.90625 55.203125 50.515625 54.09375 55.046875 
C 53.203125 58.953125 51.703125 61.46875 48.90625 63.984375 
C 43.796875 68 36.296875 68 30.703125 65.453125 
C 25.40625 62.921875 19.90625 57.65625 17.203125 53.078125 
C 14.59375 48.609375 12.703125 41.40625 13.09375 34.90625 
C 13.5 30.8125 15.5 26.21875 18 23.703125 
C 20.296875 21.515625 23.09375 21 26.09375 21 
C 32.09375 21 38.203125 23.9375 42.5 28.171875 
C 43.90625 29.59375 45.59375 31.109375 46.5 33.03125 
M 43.90625 61.03125 
C 48.59375 58.484375 49.40625 52.515625 48.90625 47.640625 
C 48.703125 44.90625 48.5 42.171875 47.59375 39.53125 
C 45.796875 34.46875 42.09375 30 37.40625 27.578125 
C 32.40625 25.03125 24.59375 25.03125 21.5 29.765625 
C 18.90625 33.484375 19.296875 38 20.09375 42.234375 
C 20.796875 45.546875 21.5 48.96875 23 52.078125 
C 25 56.109375 28.59375 59.734375 32.90625 61.234375 
C 36.5 62.4375 40.59375 62.4375 43.90625 61.03125 
" id="Computer_Modern_Bright_Slanted-57"/>
      <path d="M 19.90625 47.875 
L 18.296875 40 
L 26.09375 40 
L 27.703125 47.875 
z
M 11.5 7.875 
L 9.90625 0 
L 12.296875 0 
C 10.703125 -3.65625 9 -7.234375 7.5 -11 
C 8.796875 -11 10.203125 -11.09375 11.296875 -10.796875 
L 12.296875 -9.5 
L 17.59375 0 
C 18.203125 2.59375 18.796875 5.1875 19.296875 7.875 
z
" id="Computer_Modern_Bright_Slanted-59"/>
      <path d="M 21.09375 70 
L 6.40625 0 
L 10.90625 0 
C 11.796875 0 13 -0.296875 13 1.015625 
C 13.203125 1.71875 13.296875 2.328125 13.40625 3.03125 
C 14.40625 7.78125 19 29.5 19.296875 30.40625 
C 20.40625 33.953125 22.40625 37.375 25.09375 39.90625 
C 28 42.4375 31.203125 43.84375 36.59375 42.9375 
C 38.796875 42.53125 40.90625 41.625 42 39.5 
C 43.5 36.46875 42.40625 32.9375 41.796875 29.90625 
L 35.5 0 
L 40.203125 0 
C 41.203125 0 42.09375 -0.203125 42.09375 1.109375 
C 42.703125 3.125 44.09375 10.625 44.09375 10.625 
L 48.59375 32 
C 49.40625 35.734375 50.296875 40.40625 48.203125 43.9375 
C 46.296875 46.984375 42.90625 48 39.59375 48.296875 
C 38.09375 48.296875 36.5 48.296875 35 48 
C 30.796875 47.3125 27.09375 45.09375 24.09375 42.09375 
C 22.90625 40.890625 21.5 39.59375 20.796875 37.984375 
L 20.703125 37.984375 
L 27.40625 70 
z
" id="Computer_Modern_Bright_Slanted-104"/>
      <path d="M 19.796875 64 
L 26.09375 64 
L 27.40625 70.359375 
C 25.296875 70.359375 23 70.359375 21.203125 70.046875 
C 20.5 68.265625 20.203125 66.09375 19.796875 64 
M 16.40625 47.890625 
L 6.40625 0 
C 8.5 0 10.796875 0 12.59375 0.296875 
L 13 1.40625 
L 22.703125 47.890625 
z
" id="Computer_Modern_Bright_Slanted-105"/>
     </defs>
     <g style="fill:#262626;" transform="translate(571.349393 51.442062)scale(0.18 -0.18)">
      <use transform="scale(0.996264)" xlink:href="#Computer_Modern_Bright_Slanted-101"/>
      <use transform="translate(44.831668 0)scale(0.996264)" xlink:href="#Computer_Modern_Bright_Slanted-103"/>
      <use transform="translate(92.984165 0)scale(0.996264)" xlink:href="#Computer_Modern_Bright_Slanted-108"/>
      <use transform="translate(112.079123 0)scale(0.996264)" xlink:href="#Computer_Modern_Bright_Slanted-45"/>
      <use transform="translate(145.287797 0)scale(0.996264)" xlink:href="#Computer_Modern_Bright_Slanted-57"/>
      <use transform="translate(195.931015 0)scale(0.996264)" xlink:href="#Computer_Modern_Bright_Slanted-59"/>
      <use transform="translate(223.328138 0)scale(0.996264)" xlink:href="#Computer_Modern_Bright_Slanted-104"/>
      <use transform="translate(271.480635 0)scale(0.996264)" xlink:href="#Computer_Modern_Bright_Slanted-105"/>
      <use transform="translate(290.575594 0)scale(0.996264)" xlink:href="#Computer_Modern_Bright_Slanted-102"/>
      <use transform="translate(320.878538 0)scale(0.996264)" xlink:href="#Computer_Modern_Bright_Slanted-45"/>
      <use transform="translate(354.087212 0)scale(0.996264)" xlink:href="#Computer_Modern_Bright_Slanted-49"/>
     </g>
    </g>
    <g id="patch_26">
     <path d="M 520.949393 76.030854 
L 556.949393 76.030854 
L 556.949393 63.430854 
L 520.949393 63.430854 
z
" style="fill:#e41a1c;opacity:0.7;"/>
    </g>
    <g id="text_15">
     <!-- \emph{egl-9;vhl-1} -->
     <defs>
      <path d="M 10.703125 48 
C 12.796875 33.046875 15.09375 18.171875 17.09375 3.125 
C 17.296875 2.109375 17.296875 0.90625 17.796875 0.203125 
C 19.90625 0 22.59375 0 24.703125 0 
L 25.296875 0.703125 
L 44.703125 35.109375 
L 51.796875 48 
C 49.703125 48 47.5 48 45.703125 47.703125 
C 44.90625 46.59375 44.296875 45.484375 43.59375 44.265625 
C 36.59375 31.84375 29.40625 19.515625 22.703125 6.6875 
C 21.59375 16.984375 20 26.6875 18.59375 36.6875 
C 18 40.328125 17.90625 44.46875 16.90625 47.703125 
C 15.09375 48 12.796875 48 10.703125 48 
" id="Computer_Modern_Bright_Slanted-118"/>
     </defs>
     <g style="fill:#262626;" transform="translate(571.349393 76.030854)scale(0.18 -0.18)">
      <use transform="scale(0.996264)" xlink:href="#Computer_Modern_Bright_Slanted-101"/>
      <use transform="translate(44.831668 0)scale(0.996264)" xlink:href="#Computer_Modern_Bright_Slanted-103"/>
      <use transform="translate(92.984165 0)scale(0.996264)" xlink:href="#Computer_Modern_Bright_Slanted-108"/>
      <use transform="translate(112.079123 0)scale(0.996264)" xlink:href="#Computer_Modern_Bright_Slanted-45"/>
      <use transform="translate(145.287797 0)scale(0.996264)" xlink:href="#Computer_Modern_Bright_Slanted-57"/>
      <use transform="translate(195.931015 0)scale(0.996264)" xlink:href="#Computer_Modern_Bright_Slanted-59"/>
      <use transform="translate(223.328138 0)scale(0.996264)" xlink:href="#Computer_Modern_Bright_Slanted-118"/>
      <use transform="translate(265.669176 0)scale(0.996264)" xlink:href="#Computer_Modern_Bright_Slanted-104"/>
      <use transform="translate(313.821673 0)scale(0.996264)" xlink:href="#Computer_Modern_Bright_Slanted-108"/>
      <use transform="translate(332.916632 0)scale(0.996264)" xlink:href="#Computer_Modern_Bright_Slanted-45"/>
      <use transform="translate(366.125306 0)scale(0.996264)" xlink:href="#Computer_Modern_Bright_Slanted-49"/>
     </g>
    </g>
    <g id="patch_27">
     <path d="M 520.949393 100.619646 
L 556.949393 100.619646 
L 556.949393 88.019646 
L 520.949393 88.019646 
z
" style="fill:#4daf4a;opacity:0.7;"/>
    </g>
    <g id="text_16">
     <!-- \emph{egl-9} -->
     <g style="fill:#262626;" transform="translate(571.349393 100.619646)scale(0.18 -0.18)">
      <use transform="scale(0.996264)" xlink:href="#Computer_Modern_Bright_Slanted-101"/>
      <use transform="translate(44.831668 0)scale(0.996264)" xlink:href="#Computer_Modern_Bright_Slanted-103"/>
      <use transform="translate(92.984165 0)scale(0.996264)" xlink:href="#Computer_Modern_Bright_Slanted-108"/>
      <use transform="translate(112.079123 0)scale(0.996264)" xlink:href="#Computer_Modern_Bright_Slanted-45"/>
      <use transform="translate(145.287797 0)scale(0.996264)" xlink:href="#Computer_Modern_Bright_Slanted-57"/>
     </g>
    </g>
    <g id="patch_28">
     <path d="M 520.949393 125.208438 
L 556.949393 125.208438 
L 556.949393 112.608438 
L 520.949393 112.608438 
z
" style="fill:#984ea3;opacity:0.7;"/>
    </g>
    <g id="text_17">
     <!-- \emph{hif-1} -->
     <g style="fill:#262626;" transform="translate(571.349393 125.208438)scale(0.18 -0.18)">
      <use transform="scale(0.996264)" xlink:href="#Computer_Modern_Bright_Slanted-104"/>
      <use transform="translate(48.152497 0)scale(0.996264)" xlink:href="#Computer_Modern_Bright_Slanted-105"/>
      <use transform="translate(67.247456 0)scale(0.996264)" xlink:href="#Computer_Modern_Bright_Slanted-102"/>
      <use transform="translate(97.5504 0)scale(0.996264)" xlink:href="#Computer_Modern_Bright_Slanted-45"/>
      <use transform="translate(130.759074 0)scale(0.996264)" xlink:href="#Computer_Modern_Bright_Slanted-49"/>
     </g>
    </g>
    <g id="patch_29">
     <path d="M 520.949393 149.79723 
L 556.949393 149.79723 
L 556.949393 137.19723 
L 520.949393 137.19723 
z
" style="fill:#ffff33;opacity:0.7;"/>
    </g>
    <g id="text_18">
     <!-- \emph{rhy-1} -->
     <defs>
      <path d="M 19.90625 35.53125 
L 19.796875 35.53125 
L 22.40625 48.15625 
L 16.40625 48.15625 
L 6.40625 0.5 
L 10.90625 0.5 
C 11.40625 0.5 12.203125 0.296875 12.59375 0.703125 
C 12.90625 0.90625 13.5 4.4375 13.796875 5.65625 
L 16.703125 19.578125 
C 17.5 23.109375 18 26.859375 19.59375 30.1875 
C 23.40625 37.84375 31.90625 43 40.40625 43 
L 41.5 48.765625 
C 34.90625 48.765625 28.59375 45.421875 24 40.78125 
C 22.5 39.265625 20.90625 37.453125 19.90625 35.53125 
M 19.703125 34.953125 
C 19.703125 34.953125 19.796875 34.953125 19.796875 34.953125 
C 19.796875 34.859375 19.703125 34.75 19.703125 34.953125 
" id="Computer_Modern_Bright_Slanted-114"/>
      <path d="M 10.703125 48 
C 11.203125 44.265625 12 40.625 12.703125 36.890625 
C 13.09375 34.359375 19 0.8125 19 0.515625 
C 19 -0.09375 18.59375 -0.59375 18.296875 -1.109375 
L 16.59375 -4.140625 
C 14.703125 -7.265625 12.796875 -10.5 9 -11.8125 
C 6 -12.71875 0.5 -11.40625 -1.5 -10.796875 
C -1.796875 -12.625 -2 -14.53125 -2.203125 -16.453125 
C 0.5 -16.859375 5.40625 -17.46875 8.09375 -16.96875 
C 15.203125 -15.34375 19.203125 -8.671875 22.5 -3.21875 
L 44.09375 34.359375 
L 49.203125 43.359375 
C 50.09375 44.859375 51.203125 46.375 51.796875 48 
C 49.703125 48 47.40625 48 45.59375 47.703125 
C 43.203125 44.078125 41.203125 40.046875 38.90625 36.21875 
C 33.59375 26.4375 27.703125 17.359375 23.203125 6.78125 
L 23.09375 6.78125 
C 23.40625 8.390625 23.09375 10.109375 22.90625 11.734375 
C 21.796875 22.546875 18.59375 39.71875 17.09375 48 
z
" id="Computer_Modern_Bright_Slanted-121"/>
     </defs>
     <g style="fill:#262626;" transform="translate(571.349393 149.79723)scale(0.18 -0.18)">
      <use transform="scale(0.996264)" xlink:href="#Computer_Modern_Bright_Slanted-114"/>
      <use transform="translate(31.963359 0)scale(0.996264)" xlink:href="#Computer_Modern_Bright_Slanted-104"/>
      <use transform="translate(80.115856 0)scale(0.996264)" xlink:href="#Computer_Modern_Bright_Slanted-121"/>
      <use transform="translate(122.456894 0)scale(0.996264)" xlink:href="#Computer_Modern_Bright_Slanted-45"/>
      <use transform="translate(155.665567 0)scale(0.996264)" xlink:href="#Computer_Modern_Bright_Slanted-49"/>
     </g>
    </g>
    <g id="patch_30">
     <path d="M 520.949393 174.386022 
L 556.949393 174.386022 
L 556.949393 161.786022 
L 520.949393 161.786022 
z
" style="fill:#ff7f00;opacity:0.7;"/>
    </g>
    <g id="text_19">
     <!-- \emph{vhl-1} -->
     <g style="fill:#262626;" transform="translate(571.349393 174.386022)scale(0.18 -0.18)">
      <use transform="scale(0.996264)" xlink:href="#Computer_Modern_Bright_Slanted-118"/>
      <use transform="translate(42.341038 0)scale(0.996264)" xlink:href="#Computer_Modern_Bright_Slanted-104"/>
      <use transform="translate(90.493535 0)scale(0.996264)" xlink:href="#Computer_Modern_Bright_Slanted-108"/>
      <use transform="translate(109.588494 0)scale(0.996264)" xlink:href="#Computer_Modern_Bright_Slanted-45"/>
      <use transform="translate(142.797167 0)scale(0.996264)" xlink:href="#Computer_Modern_Bright_Slanted-49"/>
     </g>
    </g>
   </g>
  </g>
 </g>
 <defs>
  <clipPath id="pd8eb311cb1">
   <rect height="298.98" width="446.4" x="58.421393" y="35.084814"/>
  </clipPath>
 </defs>
</svg>
