<?xml version="1.0" encoding="utf-8" standalone="no"?>
<!DOCTYPE svg PUBLIC "-//W3C//DTD SVG 1.1//EN"
  "http://www.w3.org/Graphics/SVG/1.1/DTD/svg11.dtd">
<!-- Created with matplotlib (http://matplotlib.org/) -->
<svg height="413pt" version="1.1" viewBox="0 0 646 413" width="646pt" xmlns="http://www.w3.org/2000/svg" xmlns:xlink="http://www.w3.org/1999/xlink">
 <defs>
  <style type="text/css">
*{stroke-linecap:butt;stroke-linejoin:round;}
  </style>
 </defs>
 <g id="figure_1">
  <g id="patch_1">
   <path d="M 0 413.786163 
L 646.819954 413.786163 
L 646.819954 0 
L 0 0 
z
" style="fill:#ffffff;"/>
  </g>
  <g id="axes_1">
   <g id="patch_2">
    <path d="M 44.473651 334.064814 
L 490.873651 334.064814 
L 490.873651 35.084814 
L 44.473651 35.084814 
z
" style="fill:#eaeaf2;"/>
   </g>
   <g id="matplotlib.axis_1">
    <g id="xtick_1">
     <g id="line2d_1"/>
     <g id="text_1">
      <!-- \emph{rhy-1} -->
      <defs>
       <path d="M 19.90625 35.53125 
L 19.796875 35.53125 
L 22.40625 48.15625 
L 16.40625 48.15625 
L 6.40625 0.5 
L 10.90625 0.5 
C 11.40625 0.5 12.203125 0.296875 12.59375 0.703125 
C 12.90625 0.90625 13.5 4.4375 13.796875 5.65625 
L 16.703125 19.578125 
C 17.5 23.109375 18 26.859375 19.59375 30.1875 
C 23.40625 37.84375 31.90625 43 40.40625 43 
L 41.5 48.765625 
C 34.90625 48.765625 28.59375 45.421875 24 40.78125 
C 22.5 39.265625 20.90625 37.453125 19.90625 35.53125 
M 19.703125 34.953125 
C 19.703125 34.953125 19.796875 34.953125 19.796875 34.953125 
C 19.796875 34.859375 19.703125 34.75 19.703125 34.953125 
" id="Computer_Modern_Bright_Slanted-114"/>
       <path d="M 21.09375 70 
L 6.40625 0 
L 10.90625 0 
C 11.796875 0 13 -0.296875 13 1.015625 
C 13.203125 1.71875 13.296875 2.328125 13.40625 3.03125 
C 14.40625 7.78125 19 29.5 19.296875 30.40625 
C 20.40625 33.953125 22.40625 37.375 25.09375 39.90625 
C 28 42.4375 31.203125 43.84375 36.59375 42.9375 
C 38.796875 42.53125 40.90625 41.625 42 39.5 
C 43.5 36.46875 42.40625 32.9375 41.796875 29.90625 
L 35.5 0 
L 40.203125 0 
C 41.203125 0 42.09375 -0.203125 42.09375 1.109375 
C 42.703125 3.125 44.09375 10.625 44.09375 10.625 
L 48.59375 32 
C 49.40625 35.734375 50.296875 40.40625 48.203125 43.9375 
C 46.296875 46.984375 42.90625 48 39.59375 48.296875 
C 38.09375 48.296875 36.5 48.296875 35 48 
C 30.796875 47.3125 27.09375 45.09375 24.09375 42.09375 
C 22.90625 40.890625 21.5 39.59375 20.796875 37.984375 
L 20.703125 37.984375 
L 27.40625 70 
z
" id="Computer_Modern_Bright_Slanted-104"/>
       <path d="M 10.703125 48 
C 11.203125 44.265625 12 40.625 12.703125 36.890625 
C 13.09375 34.359375 19 0.8125 19 0.515625 
C 19 -0.09375 18.59375 -0.59375 18.296875 -1.109375 
L 16.59375 -4.140625 
C 14.703125 -7.265625 12.796875 -10.5 9 -11.8125 
C 6 -12.71875 0.5 -11.40625 -1.5 -10.796875 
C -1.796875 -12.625 -2 -14.53125 -2.203125 -16.453125 
C 0.5 -16.859375 5.40625 -17.46875 8.09375 -16.96875 
C 15.203125 -15.34375 19.203125 -8.671875 22.5 -3.21875 
L 44.09375 34.359375 
L 49.203125 43.359375 
C 50.09375 44.859375 51.203125 46.375 51.796875 48 
C 49.703125 48 47.40625 48 45.59375 47.703125 
C 43.203125 44.078125 41.203125 40.046875 38.90625 36.21875 
C 33.59375 26.4375 27.703125 17.359375 23.203125 6.78125 
L 23.09375 6.78125 
C 23.40625 8.390625 23.09375 10.109375 22.90625 11.734375 
C 21.796875 22.546875 18.59375 39.71875 17.09375 48 
z
" id="Computer_Modern_Bright_Slanted-121"/>
       <path d="M 5.90625 26.0625 
L 4.90625 21 
L 32.796875 21 
L 33.796875 26.0625 
z
" id="Computer_Modern_Bright_Slanted-45"/>
       <path d="M 22.5 61 
L 21.5 55.9375 
C 26.296875 55.9375 31.40625 56.546875 35.703125 58.875 
L 24.5 5.046875 
C 20.296875 5.046875 15.296875 5.5625 11.5 5.046875 
C 10.90625 3.578125 10.703125 1.671875 10.296875 0 
C 21.09375 0 32.59375 0 42.796875 0 
C 43.40625 1.453125 43.703125 3.296875 44.09375 5.046875 
L 31 5.046875 
C 35.203125 26.0625 39.796875 46.59375 44.09375 67.5 
C 41.703125 67.5 42 67.09375 40 65.59375 
C 35.59375 62.59375 28.90625 61 22.5 61 
" id="Computer_Modern_Bright_Slanted-49"/>
      </defs>
      <g style="fill:#262626;" transform="translate(84.521141 376.129417)rotate(-45)scale(0.18 -0.18)">
       <use transform="scale(0.996264)" xlink:href="#Computer_Modern_Bright_Slanted-114"/>
       <use transform="translate(31.963359 0)scale(0.996264)" xlink:href="#Computer_Modern_Bright_Slanted-104"/>
       <use transform="translate(80.115856 0)scale(0.996264)" xlink:href="#Computer_Modern_Bright_Slanted-121"/>
       <use transform="translate(122.456894 0)scale(0.996264)" xlink:href="#Computer_Modern_Bright_Slanted-45"/>
       <use transform="translate(155.665567 0)scale(0.996264)" xlink:href="#Computer_Modern_Bright_Slanted-49"/>
      </g>
     </g>
    </g>
    <g id="xtick_2">
     <g id="line2d_2"/>
     <g id="text_2">
      <!-- \emph{egl-9} -->
      <defs>
       <path d="M 44.09375 10.859375 
C 42.796875 9.953125 41.5 8.9375 40.09375 8.140625 
C 34.296875 4.59375 24.09375 1.765625 18.203125 7.53125 
C 14.40625 11.375 13.203125 17.53125 14.796875 25 
L 46.40625 25 
C 46.796875 25 47.40625 24.90625 47.703125 25.203125 
C 48.5 25.8125 48.703125 31.375 48.703125 31.46875 
C 48.703125 32.6875 48.796875 33.890625 48.703125 35.109375 
C 48.296875 40.46875 45.703125 45.3125 40.703125 47.140625 
C 34.296875 49.765625 27 47.84375 21.5 43.90625 
C 13.796875 38.4375 8.40625 29.046875 8 19.453125 
C 7.59375 11.875 10.5 5.515625 15.40625 2.171875 
C 23.40625 -3.484375 34.5 -0.15625 40.90625 3.6875 
C 41.703125 4.203125 42.90625 4.703125 43.40625 5.40625 
C 43.703125 5.90625 44.09375 10.859375 44.09375 10.859375 
M 43.296875 28.953125 
L 16.203125 28.953125 
C 16.59375 30.671875 17.703125 32.390625 18.703125 33.796875 
C 21.296875 37.84375 25.09375 41.46875 29.796875 42.796875 
C 33.59375 43.90625 38.296875 43.1875 41 40.0625 
C 43.203125 37.4375 43.703125 33.390625 43.296875 28.953125 
" id="Computer_Modern_Bright_Slanted-101"/>
       <path d="M 37.90625 12.09375 
L 38 12.09375 
C 37.703125 10.1875 37.203125 8.265625 36.796875 6.34375 
C 36.203125 3.3125 35.703125 0.171875 34.703125 -2.65625 
C 33.5 -5.984375 31.203125 -9.109375 28.296875 -11.140625 
C 25.90625 -12.75 23.796875 -13.265625 19.90625 -12.953125 
C 15.09375 -12.953125 11.59375 -12.03125 7.796875 -10.265625 
C 6.703125 -9.75 5.796875 -9.125 4.703125 -8.609375 
L 3.5 -14.171875 
C 8.09375 -16.25 12.203125 -18 18.40625 -18 
C 19.796875 -18.109375 21.203125 -18.203125 22.59375 -18.109375 
C 31.703125 -17.203125 38.5 -10.21875 41.09375 -2.828125 
C 41.796875 -1 42.09375 1.015625 42.5 2.953125 
L 44.203125 11.03125 
C 44.796875 13.78125 51.90625 47.390625 52 48.5 
L 45.703125 48.5 
L 44.09375 40.265625 
C 43.703125 40.984375 43.5 41.78125 43.203125 42.5 
C 42.5 43.90625 41.5 45.21875 40.296875 46.234375 
C 34.40625 51.1875 25 46.640625 21 43.5 
C 15.09375 38.953125 11 32.296875 9.203125 25.125 
C 6.90625 16.234375 9.5 8.0625 14.90625 4.328125 
C 18.796875 1.59375 24.796875 0.78125 30 3.71875 
C 32.90625 5.4375 36.40625 8.96875 37.90625 12.09375 
M 34.59375 43.5 
C 40.296875 43.5 42.703125 39.546875 42.703125 33.890625 
C 42.59375 33.1875 42.40625 32.375 42.296875 31.671875 
C 40.703125 24.59375 39.40625 17.53125 35.59375 12.0625 
C 33.703125 9.34375 30.90625 7.125 27.5 6.8125 
C 25 6.609375 22.40625 7.515625 20.796875 8.328125 
C 15.90625 11.15625 14.296875 17.21875 15.09375 22.578125 
C 16 28.9375 19.5 35.03125 24.5 39.0625 
C 27.40625 41.4375 30.90625 43.203125 34.59375 43.5 
M 38 12.21875 
C 38 12.21875 38.09375 12.21875 38.09375 12.21875 
C 38.09375 12.125 38 12.015625 38 12.21875 
" id="Computer_Modern_Bright_Slanted-103"/>
       <path d="M 21.09375 70 
L 6.40625 0 
C 8.5 0 10.796875 0 12.59375 0.296875 
L 13 1.40625 
C 14 6.4375 15.09375 11.375 16.203125 16.40625 
L 27.40625 70 
z
" id="Computer_Modern_Bright_Slanted-108"/>
       <path d="M 46.5 33.03125 
L 46.59375 33.03125 
C 46.296875 31.3125 45.90625 29.59375 45.40625 27.96875 
C 42.703125 18.296875 37.09375 7.828125 26.90625 4.625 
C 21.5 3.015625 15.90625 4.03125 12.5 6.734375 
C 12.203125 6.9375 11.59375 7.640625 11.09375 7.546875 
C 10.703125 7.546875 10.296875 6.84375 10.09375 6.53125 
C 9.203125 5.421875 8.296875 4.328125 7.5 3.21875 
C 9.296875 1.796875 11.09375 0.484375 13.296875 -0.3125 
C 15.90625 -1.328125 20.5 -1.828125 23.59375 -1.234375 
C 29 -0.421875 34 2.515625 38.09375 6.03125 
C 47.5 14.375 53.09375 26.21875 54.59375 41.390625 
C 55.09375 45.90625 55.203125 50.515625 54.09375 55.046875 
C 53.203125 58.953125 51.703125 61.46875 48.90625 63.984375 
C 43.796875 68 36.296875 68 30.703125 65.453125 
C 25.40625 62.921875 19.90625 57.65625 17.203125 53.078125 
C 14.59375 48.609375 12.703125 41.40625 13.09375 34.90625 
C 13.5 30.8125 15.5 26.21875 18 23.703125 
C 20.296875 21.515625 23.09375 21 26.09375 21 
C 32.09375 21 38.203125 23.9375 42.5 28.171875 
C 43.90625 29.59375 45.59375 31.109375 46.5 33.03125 
M 43.90625 61.03125 
C 48.59375 58.484375 49.40625 52.515625 48.90625 47.640625 
C 48.703125 44.90625 48.5 42.171875 47.59375 39.53125 
C 45.796875 34.46875 42.09375 30 37.40625 27.578125 
C 32.40625 25.03125 24.59375 25.03125 21.5 29.765625 
C 18.90625 33.484375 19.296875 38 20.09375 42.234375 
C 20.796875 45.546875 21.5 48.96875 23 52.078125 
C 25 56.109375 28.59375 59.734375 32.90625 61.234375 
C 36.5 62.4375 40.59375 62.4375 43.90625 61.03125 
" id="Computer_Modern_Bright_Slanted-57"/>
      </defs>
      <g style="fill:#262626;" transform="translate(201.453205 374.808545)rotate(-45)scale(0.18 -0.18)">
       <use transform="scale(0.996264)" xlink:href="#Computer_Modern_Bright_Slanted-101"/>
       <use transform="translate(44.831668 0)scale(0.996264)" xlink:href="#Computer_Modern_Bright_Slanted-103"/>
       <use transform="translate(92.984165 0)scale(0.996264)" xlink:href="#Computer_Modern_Bright_Slanted-108"/>
       <use transform="translate(112.079123 0)scale(0.996264)" xlink:href="#Computer_Modern_Bright_Slanted-45"/>
       <use transform="translate(145.287797 0)scale(0.996264)" xlink:href="#Computer_Modern_Bright_Slanted-57"/>
      </g>
     </g>
    </g>
    <g id="xtick_3">
     <g id="line2d_3"/>
     <g id="text_3">
      <!-- \emph{nhr-57} -->
      <defs>
       <path d="M 20.5 37.578125 
L 20.40625 37.578125 
C 21.09375 40.921875 21.90625 44.25 22.5 47.6875 
L 16.40625 47.6875 
L 6.40625 0 
L 10.90625 0 
C 11.796875 0 13 -0.296875 13 1.015625 
C 13.203125 1.71875 13.296875 2.328125 13.40625 3.03125 
C 14.40625 7.78125 19 29.5 19.296875 30.40625 
C 20.40625 33.953125 22.40625 37.375 25.09375 39.90625 
C 28 42.4375 31.203125 43.84375 36.59375 42.9375 
C 38.796875 42.53125 40.90625 41.625 42 39.5 
C 43.5 36.46875 42.40625 32.9375 41.796875 29.90625 
L 35.5 0 
L 40.203125 0 
C 41.203125 0 42.09375 -0.203125 42.09375 1.109375 
C 42.703125 3.125 44.09375 10.625 44.09375 10.625 
L 48.59375 31.703125 
C 49.296875 35.546875 50.296875 40 48.40625 43.640625 
C 46.59375 46.984375 43 48 39.59375 48.296875 
C 38.09375 48.296875 36.5 48.296875 35 48.046875 
C 30.796875 47.390625 27 45.0625 24 42.03125 
C 22.703125 40.71875 21.40625 39.296875 20.5 37.578125 
" id="Computer_Modern_Bright_Slanted-110"/>
       <path d="M 22.296875 66.359375 
L 14.703125 30.109375 
L 18.40625 30.109375 
C 18.90625 30.109375 19.703125 30 20.203125 30.203125 
C 20.703125 30.40625 21.09375 31.125 21.5 31.515625 
C 24.40625 34.453125 27.796875 36.46875 32.90625 36.984375 
C 36.40625 37.28125 38.90625 36.875 41.09375 35.0625 
C 45.09375 31.828125 44.796875 25.96875 43.90625 21.515625 
C 43.703125 20.71875 43.59375 19.796875 43.296875 19 
C 42.09375 14.359375 39.5 9.921875 35.40625 7.1875 
C 28.703125 2.75 19.09375 2.75 13.09375 8.375 
C 11.59375 9.8125 10.59375 11.546875 9.703125 13.390625 
L 9.59375 13.390625 
L 5.796875 8.734375 
L 5.796875 8.625 
C 7.5 6.03125 9.203125 3.78125 11.703125 2.015625 
C 17.5 -2 25.203125 -2 31.703125 0.21875 
C 41.703125 3.546875 50.40625 12.71875 51.203125 23.703125 
C 51.703125 30.65625 49.203125 35.5 45.5 38.921875 
C 38.703125 44.484375 28.90625 42.265625 22.40625 37.40625 
C 22.703125 39.640625 23.296875 41.875 23.796875 44.09375 
C 24.703125 48.84375 26 54.625 27 59.390625 
C 27.09375 59.890625 27.09375 60.59375 27.59375 60.90625 
C 28 61.09375 28.90625 61 29.40625 61 
L 53.703125 61 
C 55 61 56 60.796875 56 62.515625 
C 56.296875 63.828125 56.703125 65.046875 56.796875 66.359375 
z
M 22.296875 37.375 
C 22.296875 37.375 22.40625 37.375 22.40625 37.375 
C 22.40625 37.28125 22.296875 37.171875 22.296875 37.375 
" id="Computer_Modern_Bright_Slanted-53"/>
       <path d="M 17.5 66.453125 
L 16.40625 61 
L 55.59375 61 
L 55.59375 60.890625 
C 53.90625 59.984375 52.40625 58.484375 51 57.265625 
C 37.703125 45.59375 26.59375 31.40625 20.09375 13.703125 
C 18.703125 10.078125 16.703125 3.921875 16.09375 0 
L 22.796875 0 
C 23.296875 3.4375 25.90625 11.515625 26.59375 13.34375 
C 32.296875 29.390625 42.09375 43.828125 53.5 55.34375 
L 57.703125 59.375 
C 58.40625 60.078125 59.40625 60.6875 59.90625 61.5 
C 60.40625 62.3125 61.09375 66.453125 61.09375 66.453125 
z
" id="Computer_Modern_Bright_Slanted-55"/>
      </defs>
      <g style="fill:#262626;" transform="translate(313.471642 383.314926)rotate(-45)scale(0.18 -0.18)">
       <use transform="scale(0.996264)" xlink:href="#Computer_Modern_Bright_Slanted-110"/>
       <use transform="translate(48.152497 0)scale(0.996264)" xlink:href="#Computer_Modern_Bright_Slanted-104"/>
       <use transform="translate(96.304994 0)scale(0.996264)" xlink:href="#Computer_Modern_Bright_Slanted-114"/>
       <use transform="translate(128.268353 0)scale(0.996264)" xlink:href="#Computer_Modern_Bright_Slanted-45"/>
       <use transform="translate(161.477026 0)scale(0.996264)" xlink:href="#Computer_Modern_Bright_Slanted-53"/>
       <use transform="translate(212.120244 0)scale(0.996264)" xlink:href="#Computer_Modern_Bright_Slanted-55"/>
      </g>
     </g>
    </g>
    <g id="xtick_4">
     <g id="line2d_4"/>
     <g id="text_4">
      <!-- \emph{lam-3} -->
      <defs>
       <path d="M 16 38.8125 
C 17.40625 39.40625 18.703125 40.3125 20.09375 41.015625 
C 23.40625 42.5 26.796875 43.484375 30.5 43.796875 
C 32.09375 44 33.90625 44 35.40625 43.59375 
C 39 42.703125 41 39.234375 41.09375 35.65625 
C 41.09375 33.375 40.203125 30.390625 39.796875 28.5 
C 39.796875 27.71875 39.5 27.015625 38.59375 27.015625 
L 36.90625 27.015625 
C 34.59375 26.71875 32.40625 26.71875 30.09375 26.421875 
C 24.5 25.625 18.59375 24.203125 13.90625 21.015625 
C 11.703125 19.609375 9.59375 17.703125 8.40625 15.390625 
C 5.90625 10.796875 6.203125 3.046875 11.59375 0.515625 
C 14.40625 -0.484375 16.90625 -0.28125 20.59375 0.21875 
C 26.203125 1.234375 31.40625 3.453125 35.5 7.5 
L 34 0.5 
L 38.59375 0.5 
C 39.59375 0.5 40.5 0.296875 40.5 1.59375 
C 40.703125 2.296875 47.296875 33.203125 47.5 34.8125 
C 47.796875 38.421875 46.703125 42.15625 44.203125 44.875 
C 41.90625 47.203125 38.796875 48.421875 35.59375 48.71875 
C 31.5 49.03125 25.59375 47.8125 22.90625 47 
C 21.703125 46.59375 17.59375 45.1875 16.90625 44.484375 
C 16.5 44.078125 16.296875 40.140625 16 38.8125 
M 38.90625 24 
C 38.40625 21.359375 37.796875 18.84375 37.296875 16.21875 
C 36.796875 14.09375 36.40625 12.078125 35.09375 10.359375 
C 31.703125 6.015625 25.59375 4.1875 20.296875 4.796875 
C 17.796875 5.09375 14.90625 6.109375 13.703125 8.53125 
C 11.90625 12.078125 14.703125 16.015625 17.296875 18.125 
C 22.203125 22.171875 30.90625 24 38.90625 24 
" id="Computer_Modern_Bright_Slanted-97"/>
       <path d="M 20.5 37.4375 
L 20.40625 37.4375 
C 21.09375 40.765625 21.90625 44.078125 22.5 47.5 
L 16.40625 47.5 
L 6.40625 0 
L 10.90625 0 
C 11.796875 0 13 -0.296875 13 1 
C 13.203125 1.703125 14.59375 8.46875 15.203125 11.203125 
C 15.796875 14.03125 18.703125 28.46875 19.40625 30.5 
C 20.5 34.03125 22.40625 37.46875 25.203125 39.890625 
C 27.90625 42.3125 31.40625 43.828125 36.5 42.921875 
C 38.796875 42.625 41.09375 41.609375 42.203125 39.390625 
C 43.59375 36.453125 42.5 32.921875 41.90625 29.890625 
L 35.59375 0 
L 40.09375 0 
C 41 0 42.203125 -0.296875 42.203125 1 
C 42.40625 1.703125 43.796875 8.46875 44.40625 11.203125 
C 45 14.03125 47.90625 28.46875 48.59375 30.5 
C 49.703125 34.03125 51.59375 37.46875 54.40625 39.890625 
C 57.09375 42.3125 60.59375 43.828125 65.703125 42.921875 
C 68 42.625 70.296875 41.609375 71.40625 39.390625 
C 72.796875 36.453125 71.703125 32.921875 71.09375 29.890625 
L 64.796875 0 
L 69.5 0 
C 70.5 0 71.40625 -0.203125 71.40625 1.109375 
C 71.59375 1.8125 74.90625 17.515625 77.90625 31.703125 
C 78.703125 35.515625 79.59375 40.0625 77.5 43.703125 
C 75.703125 46.734375 72.203125 47.75 68.90625 48.046875 
C 61.796875 48.765625 56.703125 45.421875 53.203125 41.890625 
C 51.90625 40.578125 50.40625 38.953125 49.59375 37.234375 
C 49.40625 39.453125 49.5 41.671875 48.296875 43.671875 
C 46.5 46.6875 43 47.703125 39.703125 48 
C 32.59375 48.71875 27.5 45.390625 24 41.875 
C 22.703125 40.5625 21.40625 39.046875 20.5 37.4375 
" id="Computer_Modern_Bright_Slanted-109"/>
       <path d="M 18.796875 50.609375 
C 19.90625 51.734375 20.703125 53.078125 21.703125 54.203125 
C 26.09375 58.96875 34.203125 63.8125 42.59375 61.796875 
C 45.703125 61.09375 48.5 58.96875 49 55.640625 
C 49.296875 53.28125 48.203125 50.296875 47.5 48.859375 
C 44.796875 43.921875 40.703125 40.3125 34.796875 38.78125 
C 32.5 38.265625 26.703125 38.265625 24.703125 38.265625 
L 23.703125 33 
L 30.59375 33 
C 36.09375 33 39 32.296875 42.09375 29.171875 
C 45.703125 24.921875 44.796875 18.359375 42.5 13.703125 
C 40.90625 10.78125 39.203125 8.5625 36.296875 6.734375 
C 29.5 2.1875 20.09375 3.203125 13.703125 7.84375 
C 11.09375 9.765625 9.296875 12.296875 7.796875 15.125 
C 7.40625 14.421875 5.796875 10.671875 5.90625 9.96875 
C 5.90625 9.46875 6.296875 8.953125 6.5 8.5625 
C 9.703125 3.703125 14.40625 0.265625 20.5 -0.9375 
C 31.203125 -3.0625 42.796875 2.1875 48.5 11.6875 
C 51.40625 16.640625 52.703125 22.90625 49.703125 28.15625 
C 48 31.6875 43.5 34.828125 39.59375 35.53125 
C 41.09375 36.234375 42.59375 36.9375 44 37.75 
C 48.40625 40.375 52.59375 44.625 54.5 49.671875 
C 55.296875 51.5 55.796875 53.515625 55.703125 55.53125 
C 55.40625 61.59375 50.203125 65.640625 44.703125 66.75 
C 38.203125 68.15625 31.40625 66.453125 25.796875 63.21875 
C 23.203125 61.703125 20.90625 59.78125 18.796875 57.65625 
C 18.296875 57.15625 17 55.9375 16.796875 55.125 
C 16.796875 54.609375 18.296875 51.640625 18.796875 50.609375 
" id="Computer_Modern_Bright_Slanted-51"/>
      </defs>
      <g style="fill:#262626;" transform="translate(432.04158 378.718307)rotate(-45)scale(0.18 -0.18)">
       <use transform="scale(0.996264)" xlink:href="#Computer_Modern_Bright_Slanted-108"/>
       <use transform="translate(19.094959 0)scale(0.996264)" xlink:href="#Computer_Modern_Bright_Slanted-97"/>
       <use transform="translate(65.587041 0)scale(0.996264)" xlink:href="#Computer_Modern_Bright_Slanted-109"/>
       <use transform="translate(142.797167 0)scale(0.996264)" xlink:href="#Computer_Modern_Bright_Slanted-45"/>
       <use transform="translate(176.005841 0)scale(0.996264)" xlink:href="#Computer_Modern_Bright_Slanted-51"/>
      </g>
     </g>
    </g>
    <g id="text_5">
     <!-- Genes selected for measurement -->
     <defs>
      <path d="M 62.09375 33.3125 
L 40 33.3125 
L 40 28 
L 55.703125 28 
L 55.703125 9.59375 
C 55.703125 9.09375 55.796875 8.390625 55.5 7.984375 
C 55.203125 7.390625 53.90625 7.1875 53.296875 6.984375 
C 48.703125 5.6875 41.90625 4.375 36.5 5.375 
C 29.203125 6.578125 23 11.40625 19.203125 17.71875 
C 11.59375 30.140625 13 47.5625 23.40625 57.96875 
C 26.5 61.09375 30.296875 63.5 35 64.59375 
C 41.5 66.203125 49.09375 64.59375 53.90625 62.296875 
C 56.09375 61.28125 58 59.875 60 58.578125 
L 61.203125 65.59375 
C 58.5 66.796875 55.90625 68 53 68.890625 
C 48.59375 70.09375 44.09375 70.5 39.59375 70.5 
C 27.703125 70.5 18.5 63.109375 13.59375 56.03125 
C 6.296875 45.0625 5.40625 30.3125 11.296875 18.53125 
C 14.59375 11.65625 20 6.578125 26.796875 3.078125 
C 35.203125 -1 45.09375 -1 53.90625 1.53125 
C 55.09375 1.828125 61.703125 3.921875 62 4.859375 
C 62.09375 5.171875 62.09375 5.59375 62.09375 5.90625 
z
" id="Computer_Modern_Bright-71"/>
      <path d="M 41.796875 10.9375 
C 39.5 9.234375 38.796875 8.328125 35.90625 6.8125 
C 29.796875 3.5 22.59375 3.5 17.40625 7.171875 
C 12.40625 10.765625 9.5 16.640625 9.5 25 
L 42.5 25 
C 42.5 32.421875 40.796875 38.859375 36.59375 43.375 
C 32 47.890625 24.796875 49.296875 18.703125 47.390625 
C 16.40625 46.6875 14.296875 45.484375 12.40625 43.96875 
C 6.09375 38.859375 3.40625 30.71875 3.5 22.78125 
C 3.703125 12.34375 10.796875 1.90625 21.296875 -0.3125 
C 26.796875 -1.421875 32.59375 -0.203125 37.5 2.296875 
C 38.40625 2.796875 41.703125 4.609375 42.09375 5.515625 
C 42.40625 6.015625 41.796875 10.9375 41.796875 10.9375 
M 37.203125 28.90625 
L 10 28.90625 
C 11.203125 36.234375 17.203125 43.96875 25.296875 43.0625 
C 31.90625 42.46875 35.40625 37.75 36.703125 31.828125 
C 36.90625 30.8125 37 29.921875 37.203125 28.90625 
" id="Computer_Modern_Bright-101"/>
      <path d="M 12.59375 37.28125 
L 12.5 37.28125 
L 12.5 47.390625 
L 6.40625 47.390625 
L 6.40625 0 
L 12.796875 0 
L 12.796875 21.9375 
C 12.796875 26.84375 12.5 31.875 14.703125 36.46875 
C 15.796875 38.78125 17.5 40.78125 19.796875 41.984375 
C 21.703125 42.890625 23.703125 42.890625 25.796875 42.6875 
C 28.796875 42.6875 31.703125 41.890625 33.59375 39.375 
C 35.40625 37.0625 35.5 34.0625 35.5 31.25 
L 35.5 0 
L 41.90625 0 
L 41.90625 26.859375 
C 41.90625 31.875 42.40625 37.375 40 41.890625 
C 38.09375 45.5 34.40625 47.203125 30.5 47.703125 
C 28.5 48 26.40625 48 24.40625 47.609375 
C 19.203125 46.5 14.40625 42.296875 12.59375 37.28125 
" id="Computer_Modern_Bright-110"/>
      <path d="M 3.09375 9.640625 
C 2.90625 8.234375 2.59375 6.9375 2.40625 5.53125 
C 2.203125 4.421875 1.90625 3.921875 2.90625 3.421875 
C 7 1.015625 11.90625 -0.296875 17.703125 -0.796875 
C 24.203125 -1.40625 32.40625 0.109375 35.59375 6.53125 
C 36.5 8.34375 37 10.34375 37.09375 12.359375 
C 37.5 19.578125 31.796875 24.203125 26.90625 25.90625 
C 21.40625 28.015625 13.90625 27.3125 10.09375 31.53125 
C 8.09375 33.84375 8 37.265625 9.90625 39.671875 
C 13.90625 45.296875 26.796875 42.875 31.90625 40.375 
C 32.703125 39.96875 33.40625 39.46875 34.296875 39.265625 
L 35.203125 44.6875 
C 30.5 46.796875 26.40625 48 19.90625 48 
C 14.296875 48 9.203125 46.703125 6 43.484375 
C 2.796875 40.171875 1.703125 34.640625 3.59375 30.4375 
C 5.40625 26.40625 9.203125 23.796875 13.296875 22.5 
C 19.203125 20.390625 25.90625 21.390625 29.796875 16.578125 
C 32 13.765625 31.59375 9.546875 29.09375 7.03125 
C 24.296875 2.609375 14.09375 4.21875 8.5 6.625 
C 6.59375 7.4375 4.90625 8.640625 3.09375 9.640625 
" id="Computer_Modern_Bright-115"/>
      <path d="M 6.40625 69.6875 
L 6.40625 0 
L 12.703125 0 
L 12.703125 69.6875 
z
" id="Computer_Modern_Bright-108"/>
      <path d="M 42.40625 11.25 
C 40.5 9.84375 38.796875 8.328125 36.703125 7.125 
C 32 4.625 24.796875 3.421875 19.40625 5.921875 
C 11.59375 9.9375 9.5 19.6875 10.59375 27.71875 
C 10.796875 29.328125 11.09375 30.921875 11.59375 32.4375 
C 13.796875 38.96875 19.296875 44.078125 28.296875 43.078125 
C 33.09375 42.671875 35.5 41.875 39.296875 39.765625 
C 40 39.359375 40.59375 38.859375 41.40625 38.65625 
C 41.5 39.859375 41.796875 41.171875 42 42.375 
C 42.296875 43.984375 42.296875 44.1875 40.796875 44.890625 
C 39.703125 45.390625 38.59375 45.984375 37.40625 46.390625 
C 32.796875 48.40625 25.203125 49 20 47.5 
C 12.90625 45.484375 7.59375 39.359375 5.296875 32.53125 
C 4.203125 29.421875 3.90625 26.109375 3.90625 22.796875 
C 4 12.25 11.203125 1.90625 21.703125 -0.203125 
C 27.5 -1.40625 34.203125 0.296875 38.203125 2.40625 
C 39.203125 2.90625 42.203125 4.71875 42.703125 5.625 
C 43 6.125 42.40625 11.25 42.40625 11.25 
" id="Computer_Modern_Bright-99"/>
      <path d="M 10.796875 60.5 
L 10.796875 47.015625 
L 1.09375 47.015625 
L 1.09375 42 
L 10.703125 42 
L 10.703125 15.015625 
C 10.703125 10.578125 10.40625 5.234375 13.296875 1.515625 
C 15 -0.703125 17.296875 -1.296875 20.796875 -1 
C 23.703125 -1 26.59375 -0.390625 29.296875 0.65625 
C 30.203125 1.0625 33.5 2.515625 33.90625 3.234375 
C 34.09375 3.640625 32.796875 8.09375 32.796875 8.09375 
L 30.40625 6.265625 
C 27.296875 4.34375 21.09375 2.328125 18.5 5.96875 
C 16.203125 9.09375 16.796875 13.75 16.796875 17.375 
L 16.796875 42 
L 32.296875 42 
L 32.296875 47.015625 
L 16.796875 47.015625 
L 16.796875 60.5 
z
" id="Computer_Modern_Bright-116"/>
      <path d="M 35.59375 69.6875 
L 35.59375 41.375 
C 33.703125 43.484375 31.796875 45.484375 29.203125 46.6875 
C 20.296875 50.40625 11.703125 45.59375 7.296875 37.65625 
C 2.203125 28.21875 2.796875 15.765625 8.90625 6.921875 
C 13.203125 0.796875 20.296875 -2.203125 27.796875 0.5 
C 30.703125 1.609375 34.203125 4.515625 35.40625 7.125 
L 35.5 7.125 
L 35.5 0 
L 41.90625 0 
L 41.90625 69.6875 
z
M 35.203125 37.453125 
C 35.703125 36.546875 35.5 35.34375 35.5 34.34375 
L 35.5 13.65625 
C 35.5 11.34375 35.40625 11.140625 34.09375 9.34375 
C 32.296875 6.625 29.5 4.71875 26.203125 4.421875 
C 21.40625 4.015625 16.5 6.328125 13.703125 10.25 
C 12.09375 12.546875 11.203125 15.359375 10.703125 18.171875 
C 10.5 19.28125 10.5 20.28125 10.40625 21.390625 
C 9.796875 28.015625 11.203125 35.84375 17 40.0625 
C 18 40.765625 19.09375 41.265625 20.203125 41.765625 
C 26 43.984375 32.40625 43.375 35.203125 37.453125 
" id="Computer_Modern_Bright-100"/>
      <path d="M 10.59375 47.015625 
L 2 47.015625 
L 2 42 
L 10.59375 42 
L 10.59375 -0.5 
L 16.90625 -0.5 
L 16.90625 42 
L 29.296875 42 
L 29.296875 47.015625 
L 16.796875 47.015625 
L 16.796875 55.78125 
C 16.796875 57.1875 16.5 58.921875 17.09375 60.328125 
C 19.203125 64.75 26.296875 65.5625 32.09375 64.5625 
C 33.296875 64.359375 34.40625 63.953125 35.59375 63.75 
L 35.59375 69.390625 
C 28.796875 70.5 21.296875 70.5 15.703125 65.921875 
C 14.796875 65.125 14 64.34375 13.296875 63.328125 
C 11.203125 60.75 10.59375 57.875 10.59375 53.390625 
z
" id="Computer_Modern_Bright-102"/>
      <path d="M 10.703125 42.078125 
C 1.796875 33.234375 0.796875 17.875 8.5 7.9375 
C 9.59375 6.421875 10.90625 5.125 12.40625 4.015625 
C 16.09375 1 21.5 -1.203125 27.796875 -0.5 
C 37.796875 0.703125 44.703125 8.84375 46.796875 17.375 
C 49.59375 29.328125 43.703125 42.671875 32.703125 46.890625 
C 24.09375 50.40625 15.5 46.890625 10.703125 42.078125 
M 35.703125 39.359375 
C 40.5 35.03125 41.40625 28.109375 41 21.984375 
C 40.703125 17.265625 39.40625 12.34375 36.09375 8.828125 
C 30.703125 3 20.703125 3 14.90625 8.625 
C 11.90625 11.84375 10.09375 16.453125 9.796875 21.984375 
C 9.296875 30.109375 11.296875 38.75 19.296875 41.96875 
C 25.203125 44.578125 32 42.671875 35.703125 39.359375 
" id="Computer_Modern_Bright-111"/>
      <path d="M 12.5 34.75 
L 12.40625 34.75 
L 12.40625 47.390625 
L 6.40625 47.390625 
L 6.40625 0 
L 12.703125 0 
L 12.703125 22.890625 
C 12.703125 24.40625 12.703125 25.90625 12.90625 27.40625 
C 14.296875 35.953125 21.703125 42.28125 31.40625 42.28125 
L 31.40625 48 
C 25 48 19.09375 44.890625 15.296875 39.765625 
C 14.203125 38.265625 13 36.546875 12.5 34.75 
" id="Computer_Modern_Bright-114"/>
      <path d="M 12.59375 37.359375 
L 12.5 37.359375 
L 12.5 47.390625 
L 6.40625 47.390625 
L 6.40625 0 
L 12.796875 0 
L 12.796875 22.046875 
C 12.796875 26.953125 12.5 31.875 14.703125 36.375 
C 16.59375 40.28125 19.90625 43.390625 25.796875 42.78125 
C 28.796875 42.78125 31.796875 41.984375 33.703125 39.453125 
C 35.5 37.140625 35.59375 34.140625 35.59375 31.3125 
L 35.59375 0 
L 42 0 
L 42 22.046875 
C 42 26.953125 41.703125 31.875 43.90625 36.375 
C 45.796875 40.28125 49.09375 43.390625 55 42.78125 
C 58 42.78125 61 41.984375 62.90625 39.453125 
C 64.703125 37.140625 64.796875 34.140625 64.796875 31.3125 
L 64.796875 0 
L 71.203125 0 
L 71.203125 26.5625 
C 71.203125 31.375 71.796875 36.78125 69.703125 41.1875 
C 67.59375 45.296875 64.203125 47.5 58.703125 47.5 
C 55.5 47.796875 52.296875 47.3125 49.40625 45.84375 
C 45.90625 43.921875 43.296875 40.75 41.703125 37.265625 
C 41 40.578125 40.203125 42.828125 38 45 
C 35.703125 47.0625 32.59375 48 29.59375 48 
C 22.296875 48.59375 17.703125 45.5625 14.59375 41 
C 13.796875 39.875 13 38.671875 12.59375 37.359375 
" id="Computer_Modern_Bright-109"/>
      <path d="M 7.90625 39.015625 
C 9.59375 39.859375 11 41.09375 12.703125 41.921875 
C 15.40625 43.15625 18.203125 44 21.203125 44 
C 22.59375 44.09375 24.203125 44.296875 25.59375 44 
C 28.09375 43.59375 30.296875 42.078125 31.796875 39.953125 
C 33.296875 37.515625 33.90625 35.390625 33.90625 31.46875 
L 33.90625 27.015625 
C 29.09375 27.015625 24.296875 26.609375 19.703125 25.390625 
C 13.90625 24.078125 7.59375 21.125 5.5 15.84375 
C 3.40625 10.78125 5.59375 4.078125 10.09375 1.03125 
C 12.296875 -0.5 14.90625 -0.5 17.5 -0.296875 
C 21.703125 0 25.90625 1.015625 29.5 3.25 
C 31.203125 4.25 32.90625 5.578125 33.90625 7.296875 
L 34 7.296875 
L 34 0.203125 
L 40.296875 0.203125 
L 40.296875 26.890625 
C 40.296875 29.8125 40.59375 32.953125 40 35.890625 
C 39.40625 39.921875 36.90625 43.265625 34 45.59375 
C 30.59375 48.21875 26.703125 49.109375 21.5 48.71875 
C 16.703125 48.71875 13 47.5 9.40625 45.765625 
C 8.90625 45.5625 7.90625 45.234375 7.59375 44.640625 
C 7.296875 44.21875 7.5 43.515625 7.5 43 
C 7.703125 41.671875 7.796875 40.34375 7.90625 39.015625 
M 33.90625 24 
L 33.90625 16.375 
C 33.90625 14.0625 34 11.953125 32.703125 9.953125 
C 31.59375 8.34375 30.09375 7.234375 28.5 6.4375 
C 22.796875 3.515625 14.09375 4.421875 11.59375 9.25 
C 9.59375 12.75 11.703125 16.875 14.59375 19.1875 
C 18.90625 22.5 27.296875 24 33.90625 24 
" id="Computer_Modern_Bright-97"/>
      <path d="M 6.40625 47 
L 6.40625 12.96875 
C 6.40625 10.046875 6.5 7.140625 7.703125 4.421875 
C 9.59375 0.515625 13.59375 -1 17.703125 -1 
C 23.203125 -1 28.703125 0.8125 32.703125 4.734375 
C 33.796875 5.828125 34.796875 6.9375 35.5 8.34375 
L 35.59375 8.34375 
L 35.59375 -0.390625 
L 41.90625 -0.390625 
L 41.90625 47 
L 35.5 47 
L 35.5 22.90625 
C 35.5 18.6875 36.09375 14.0625 33.90625 10.25 
C 32.296875 7.4375 29.5 5.234375 26.40625 4.234375 
C 24.296875 3.625 22.09375 3.625 19.90625 3.828125 
C 17.796875 4.03125 15.5 4.234375 14.09375 6.03125 
C 12.09375 8.453125 12.796875 14.171875 12.796875 17.6875 
L 12.796875 47 
z
" id="Computer_Modern_Bright-117"/>
     </defs>
     <g style="fill:#262626;" transform="translate(136.864845 403.265288)scale(0.2 -0.2)">
      <use transform="scale(0.996264)" xlink:href="#Computer_Modern_Bright-71"/>
      <use transform="translate(68.077762 0)scale(0.996264)" xlink:href="#Computer_Modern_Bright-101"/>
      <use transform="translate(112.90943 0)scale(0.996264)" xlink:href="#Computer_Modern_Bright-110"/>
      <use transform="translate(161.061927 0)scale(0.996264)" xlink:href="#Computer_Modern_Bright-101"/>
      <use transform="translate(205.893594 0)scale(0.996264)" xlink:href="#Computer_Modern_Bright-115"/>
      <use transform="translate(275.797835 0)scale(0.996264)" xlink:href="#Computer_Modern_Bright-115"/>
      <use transform="translate(314.236864 0)scale(0.996264)" xlink:href="#Computer_Modern_Bright-101"/>
      <use transform="translate(359.068532 0)scale(0.996264)" xlink:href="#Computer_Modern_Bright-108"/>
      <use transform="translate(378.163491 0)scale(0.996264)" xlink:href="#Computer_Modern_Bright-101"/>
      <use transform="translate(422.995159 0)scale(0.996264)" xlink:href="#Computer_Modern_Bright-99"/>
      <use transform="translate(467.826826 0)scale(0.996264)" xlink:href="#Computer_Modern_Bright-116"/>
      <use transform="translate(503.941214 0)scale(0.996264)" xlink:href="#Computer_Modern_Bright-101"/>
      <use transform="translate(548.772882 0)scale(0.996264)" xlink:href="#Computer_Modern_Bright-100"/>
      <use transform="translate(628.39059 0)scale(0.996264)" xlink:href="#Computer_Modern_Bright-102"/>
      <use transform="translate(658.693534 0)scale(0.996264)" xlink:href="#Computer_Modern_Bright-111"/>
      <use transform="translate(706.431023 0)scale(0.996264)" xlink:href="#Computer_Modern_Bright-114"/>
      <use transform="translate(769.859593 0)scale(0.996264)" xlink:href="#Computer_Modern_Bright-109"/>
      <use transform="translate(847.06972 0)scale(0.996264)" xlink:href="#Computer_Modern_Bright-101"/>
      <use transform="translate(891.901387 0)scale(0.996264)" xlink:href="#Computer_Modern_Bright-97"/>
      <use transform="translate(938.39347 0)scale(0.996264)" xlink:href="#Computer_Modern_Bright-115"/>
      <use transform="translate(976.832499 0)scale(0.996264)" xlink:href="#Computer_Modern_Bright-117"/>
      <use transform="translate(1024.984996 0)scale(0.996264)" xlink:href="#Computer_Modern_Bright-114"/>
      <use transform="translate(1056.948355 0)scale(0.996264)" xlink:href="#Computer_Modern_Bright-101"/>
      <use transform="translate(1101.780022 0)scale(0.996264)" xlink:href="#Computer_Modern_Bright-109"/>
      <use transform="translate(1178.990149 0)scale(0.996264)" xlink:href="#Computer_Modern_Bright-101"/>
      <use transform="translate(1223.821816 0)scale(0.996264)" xlink:href="#Computer_Modern_Bright-110"/>
      <use transform="translate(1271.974313 0)scale(0.996264)" xlink:href="#Computer_Modern_Bright-116"/>
     </g>
    </g>
   </g>
   <g id="matplotlib.axis_2">
    <g id="ytick_1">
     <g id="line2d_5"/>
     <g id="text_6">
      <!-- $0$ -->
      <defs>
       <path d="M 14.796875 63.859375 
C 11.90625 61.859375 9.90625 59.140625 8.40625 56.03125 
C 4.796875 49 4.40625 40.765625 4.40625 31.828125 
C 4.40625 20.578125 6.40625 10.25 12 4.3125 
C 17.296875 -1.203125 25.703125 -2.609375 32.796875 0.296875 
C 37.203125 2.015625 40.40625 5.71875 42.40625 9.734375 
C 46 16.875 46.40625 25.40625 46.40625 34.234375 
C 46.40625 37.046875 46.296875 39.859375 46 42.671875 
C 45.296875 49.40625 43 56.828125 39.296875 60.953125 
C 33.203125 67.6875 22.296875 69.1875 14.796875 63.859375 
M 34.90625 58.140625 
C 39.59375 53.125 40 43.484375 40 34.34375 
L 40 28.921875 
C 40 24.296875 39.203125 18.28125 38.203125 14.859375 
C 36.796875 10.140625 34.5 6.734375 29.90625 4.625 
C 24.296875 2.609375 18.5 4.515625 15.296875 8.9375 
C 11 14.65625 10.796875 24.796875 10.796875 33.734375 
C 10.796875 42.171875 10.90625 51.515625 15 57.03125 
C 19.5 63.0625 29.203125 64.0625 34.90625 58.140625 
" id="Computer_Modern_Bright-48"/>
      </defs>
      <g style="fill:#262626;" transform="translate(28.357872 301.569636)scale(0.18 -0.18)">
       <use transform="scale(0.996264)" xlink:href="#Computer_Modern_Bright-48"/>
      </g>
     </g>
    </g>
    <g id="ytick_2">
     <g id="line2d_6"/>
     <g id="text_7">
      <!-- $2$ -->
      <defs>
       <path d="M 7.296875 45.96875 
C 8.703125 51.59375 11.09375 57.984375 16.796875 60.5 
C 19.203125 61.5 21.796875 61.703125 24.40625 61.5 
C 29.296875 61.09375 34.09375 59.09375 37.09375 55.09375 
C 39.296875 52.078125 40.09375 48.375 39.703125 44.78125 
C 38.5 34.34375 28.296875 26.84375 21.703125 21.234375 
C 17.90625 18.03125 7.09375 7.8125 7.09375 7.8125 
L 5.40625 6.203125 
C 4.5 5.3125 4.40625 5.3125 4.40625 3.5 
L 4.40625 0 
L 46.40625 0 
L 46.40625 5.625 
L 10.203125 5.625 
C 13.40625 8.734375 26.703125 20.515625 28.5 21.921875 
C 34.296875 26.65625 40.796875 31.375 44.296875 38.21875 
C 48.203125 46.0625 46.5 55.9375 39.90625 61.765625 
C 35.90625 65.296875 30.40625 67 25.09375 67 
C 20.203125 67 15.203125 66 11.296875 62.90625 
C 8.296875 60.390625 5.796875 56.6875 4.40625 52.875 
C 4.09375 52.28125 3.59375 51.28125 3.703125 50.578125 
C 3.796875 49.984375 4.40625 49.484375 4.703125 49.078125 
C 5.5 48.078125 6.296875 46.875 7.296875 45.96875 
" id="Computer_Modern_Bright-50"/>
      </defs>
      <g style="fill:#262626;" transform="translate(28.357872 238.16952)scale(0.18 -0.18)">
       <use transform="scale(0.996264)" xlink:href="#Computer_Modern_Bright-50"/>
      </g>
     </g>
    </g>
    <g id="ytick_3">
     <g id="line2d_7"/>
     <g id="text_8">
      <!-- $4$ -->
      <defs>
       <path d="M 2.09375 18 
L 31 18 
L 31 0 
L 37.296875 0 
L 37.296875 18 
L 48.703125 18 
L 48.703125 23.328125 
L 37.296875 23.328125 
L 37.296875 66.46875 
L 31.90625 66.46875 
C 30.09375 66.46875 29.59375 66.578125 28.796875 65.0625 
C 24.796875 58.515625 3.703125 25.765625 3 24.859375 
C 2.203125 23.4375 2.09375 23.546875 2.09375 21.4375 
z
M 31.296875 60.875 
L 31.296875 23.328125 
L 8.59375 23.328125 
C 9.296875 24.734375 10.296875 26.03125 11.203125 27.4375 
C 16.203125 35.171875 28.09375 53.546875 30.59375 59.28125 
C 30.90625 59.78125 31 60.375 31.296875 60.875 
" id="Computer_Modern_Bright-52"/>
      </defs>
      <g style="fill:#262626;" transform="translate(28.357872 174.769403)scale(0.18 -0.18)">
       <use transform="scale(0.996264)" xlink:href="#Computer_Modern_Bright-52"/>
      </g>
     </g>
    </g>
    <g id="ytick_4">
     <g id="line2d_8"/>
     <g id="text_9">
      <!-- $6$ -->
      <defs>
       <path d="M 11.296875 32.625 
L 11.203125 32.625 
C 11.203125 41.765625 12.796875 52.421875 20.59375 58.25 
C 24.90625 61.375 30.703125 62.96875 38.203125 61.171875 
C 39.796875 60.765625 41.296875 60.15625 42.796875 59.765625 
L 42.796875 63.28125 
C 42.796875 63.671875 42.90625 64.375 42.59375 64.78125 
C 41.90625 65.6875 36.296875 66.59375 36.09375 66.59375 
C 27.40625 67.59375 21.703125 65.6875 16.40625 61.171875 
C 10 55.640625 6.296875 47.515625 5.09375 39.28125 
C 4 32.65625 4.90625 22 6.203125 16.78125 
C 8.296875 9.046875 12.296875 2.21875 19.703125 -0.390625 
C 24.09375 -2 29.5 -2 33.703125 0.015625 
C 37.09375 1.640625 39.90625 4.46875 42.09375 7.5 
C 45.59375 12.34375 46.5 18.21875 46.09375 24.171875 
C 45.90625 27.109375 45.5 30.046875 44.296875 32.765625 
C 42.40625 37.125 39.203125 41.671875 35.09375 43.6875 
C 33.203125 44.5 31.203125 44.5 29.203125 44.5 
C 23.90625 44.5 18.90625 42.1875 15.203125 38.359375 
C 13.59375 36.75 12 34.71875 11.296875 32.625 
M 24.40625 39.515625 
C 28.203125 39.8125 32.203125 39.21875 35.09375 36.5 
C 38.90625 32.890625 39.59375 27.765625 39.59375 22.8125 
C 39.59375 19.46875 39.703125 16.015625 38.703125 12.859375 
C 38.09375 11.234375 37.296875 9.828125 36.40625 8.5 
C 34.203125 5.5625 31.40625 4.125 26.796875 3.515625 
C 22.296875 3.515625 17.796875 5.3125 15.203125 9.125 
C 13.59375 11.328125 12.796875 14.046875 12.296875 16.640625 
C 11.703125 19.34375 11.296875 22.140625 11.5 24.859375 
C 12 31.984375 17 38.515625 24.40625 39.515625 
" id="Computer_Modern_Bright-54"/>
      </defs>
      <g style="fill:#262626;" transform="translate(28.357872 111.369287)scale(0.18 -0.18)">
       <use transform="scale(0.996264)" xlink:href="#Computer_Modern_Bright-54"/>
      </g>
     </g>
    </g>
    <g id="ytick_5">
     <g id="line2d_9"/>
     <g id="text_10">
      <!-- $8$ -->
      <defs>
       <path d="M 18.703125 36 
L 18.703125 35.90625 
C 12.5 34.09375 7.296875 30.6875 4.796875 24.84375 
C 2.203125 18.71875 4 11.28125 8.40625 6.453125 
C 13.09375 1.421875 19.5 -1 26.296875 -1 
C 36.296875 -1 45.90625 6.40625 47.09375 16.734375 
C 47.296875 18.265625 47.203125 19.890625 47 21.40625 
C 45.203125 29.21875 39.5 33.875 32.09375 35.90625 
C 32.90625 36.203125 33.796875 36.40625 34.59375 36.703125 
C 38.796875 38.421875 42.296875 40.921875 44.5 44.9375 
C 47.796875 51.375 44.59375 58.90625 39.203125 63.015625 
C 33.796875 67.140625 26.5 68.234375 19.90625 66.828125 
C 12 65.125 4.5 58.40625 5 49.765625 
C 5.203125 46.75 6.5 44.234375 8 42.4375 
C 10.296875 39.625 14.796875 36.609375 18.703125 36 
M 23.796875 62.5 
C 28.203125 62.5 33.703125 62 36.90625 58.578125 
C 40.703125 54.46875 40.90625 47.03125 37.09375 42.8125 
C 34.703125 40.203125 31.203125 38.890625 27.703125 38.59375 
C 22.796875 38.1875 17.203125 39 13.703125 42.8125 
C 9.796875 47.125 10.09375 54.96875 14.296875 58.984375 
C 16.90625 61.390625 20.40625 62.1875 23.796875 62.5 
M 23.703125 33.5 
C 28.40625 33.5 33.5 32.390625 36.90625 28.9375 
C 38.203125 27.53125 39.203125 25.8125 39.796875 24.015625 
C 41.5 18.75 40.703125 12.09375 36.796875 8.046875 
C 34.09375 5.328125 30.40625 4.3125 26.703125 4.015625 
C 22.203125 4.015625 17 5.109375 13.796875 8.5625 
C 9.40625 13.390625 8.5 23.40625 13.703125 29.0625 
C 16.296875 31.78125 20 33.203125 23.703125 33.5 
" id="Computer_Modern_Bright-56"/>
      </defs>
      <g style="fill:#262626;" transform="translate(28.357872 47.96917)scale(0.18 -0.18)">
       <use transform="scale(0.996264)" xlink:href="#Computer_Modern_Bright-56"/>
      </g>
     </g>
    </g>
    <g id="text_11">
     <!-- Regression Coefficient, $\beta$ -->
     <defs>
      <path d="M 8 69.328125 
L 8 -0.5 
L 14.90625 -0.5 
L 14.90625 32 
L 32 32 
C 32.5 32 33.09375 32.109375 33.5 31.8125 
C 34.203125 31.296875 34.59375 30.28125 35.09375 29.578125 
L 49.59375 7.484375 
L 53.296875 1.828125 
C 53.796875 1.125 54.296875 -0.09375 55 -0.40625 
C 55.59375 -0.703125 56.59375 -0.5 57.203125 -0.5 
L 61.90625 -0.5 
L 39.796875 32.703125 
C 45 33.71875 50.203125 35.921875 54 39.734375 
C 57.09375 42.828125 59.203125 46.75 59 51.171875 
C 58.703125 54.703125 57.296875 57.734375 55.5 59.9375 
C 51.09375 65.1875 43.59375 68.71875 35.59375 69.328125 
C 32.5 69.328125 29.5 69.328125 26.40625 69.328125 
z
M 14.90625 37.03125 
L 14.90625 64 
L 29.09375 64 
C 37.90625 64 46.203125 63 50.40625 56.96875 
C 53.203125 52.828125 53 47.203125 49.796875 43.28125 
C 48.703125 41.875 47.296875 40.765625 45.796875 39.953125 
C 40.703125 37.03125 34.796875 37.03125 29.09375 37.03125 
z
" id="Computer_Modern_Bright-82"/>
      <path d="M 35.40625 11.984375 
L 35.5 11.984375 
L 35.5 2.65625 
C 35.5 -0.15625 35.5 -2.859375 34.59375 -5.5625 
C 33.09375 -9.1875 30.5 -12.5 26.203125 -13.09375 
C 25 -13.203125 23.703125 -13.09375 22.5 -13 
C 16 -13 11.703125 -11.046875 6.5 -8.671875 
L 6.5 -12.484375 
C 6.5 -14.40625 6.796875 -14.5 8.703125 -15.109375 
C 13.796875 -17.21875 23 -19.3125 29.296875 -17.71875 
C 36.296875 -15.90625 41.40625 -9.28125 41.90625 -1.21875 
C 42 0.1875 41.90625 1.703125 41.90625 3.125 
L 41.90625 48 
L 35.59375 48 
L 35.59375 39.984375 
C 34.09375 42.484375 32.5 44.796875 29.90625 46.40625 
C 22.90625 50.625 13.40625 46 9.5 40.578125 
C 3.09375 32.640625 1.90625 20.34375 7 11.484375 
C 8 9.78125 9.203125 8.171875 10.59375 6.765625 
C 15.40625 2.046875 23.59375 -0.46875 29.5 3.75 
C 31.90625 5.359375 34.703125 9.078125 35.40625 11.984375 
M 25.5 43 
C 26.40625 43 27.40625 43 28.296875 42.796875 
C 31.90625 42.09375 33.90625 38.875 35.09375 35.65625 
C 35.796875 33.453125 35.59375 31.046875 35.59375 28.734375 
C 35.59375 23.71875 35.5 18.5 33.796875 13.765625 
C 32.59375 10.265625 30.09375 7.140625 26.203125 6.75 
C 24.90625 6.640625 23.59375 6.84375 22.296875 7.140625 
C 16.203125 8.546875 12 13.765625 10.703125 19.796875 
C 8.90625 28.53125 13.203125 39.171875 22 42.1875 
C 23.09375 42.59375 24.296875 42.890625 25.5 43 
" id="Computer_Modern_Bright-103"/>
      <path d="M 6.40625 70 
L 6.40625 63.671875 
L 12.703125 63.671875 
L 12.703125 70 
z
M 6.40625 47.390625 
L 6.40625 0 
L 12.703125 0 
L 12.703125 47.390625 
z
" id="Computer_Modern_Bright-105"/>
      <path d="M 60.5 10.875 
C 58.5 9.859375 56.703125 8.453125 54.703125 7.453125 
C 50 5.046875 44 4.140625 37.5 4.734375 
C 31.703125 5.546875 26.90625 8.359375 23.40625 11.875 
C 12.203125 23.15625 11.40625 42.96875 21.296875 55.34375 
C 25.5 60.875 31.90625 65 41.296875 65 
C 45.09375 65 49 64.296875 52.5 62.890625 
C 54.59375 61.96875 56.59375 60.765625 58.59375 59.765625 
L 59.796875 66.8125 
C 57.59375 67.671875 55.296875 68.5625 53 69.09375 
C 47.40625 70.625 38.90625 70.625 33.09375 69.21875 
C 22.90625 66.921875 15.5 59.828125 11.296875 51.625 
C 5.5 40.015625 6.203125 25.515625 13.203125 14.59375 
C 15 11.703125 17.296875 9.109375 19.90625 6.890625 
C 25.90625 1.6875 33.296875 -1.3125 43.59375 -0.5 
C 49.796875 -0.5 53.40625 0.515625 58.203125 3.203125 
C 58.703125 3.5 60.59375 4.515625 60.90625 4.9375 
C 61.09375 5.4375 60.59375 9.53125 60.5 10.875 
" id="Computer_Modern_Bright-67"/>
      <path d="M 10.59375 47.015625 
L 2 47.015625 
L 2 42 
L 10.59375 42 
L 10.59375 0 
L 16.90625 0 
L 16.90625 42 
L 30.09375 42 
L 30.09375 47.015625 
L 16.796875 47.015625 
L 16.796875 56.234375 
C 16.796875 57.890625 16.59375 59.65625 17.296875 61.21875 
C 19.5 65.875 25.40625 65.875 29.59375 65.078125 
C 30.59375 64.875 31.703125 64.46875 32.703125 64.265625 
L 32.703125 69.90625 
C 27.703125 70.609375 22.296875 71.21875 17.703125 68.46875 
C 15.796875 67.4375 14.203125 65.6875 13 63.921875 
C 11.09375 60.9375 10.59375 58.78125 10.59375 53.71875 
z
M 38.09375 0 
L 44.40625 0 
L 44.40625 42 
L 57.59375 42 
L 57.59375 47.015625 
L 44.296875 47.015625 
L 44.296875 55.234375 
C 44.296875 56.890625 44.09375 58.65625 44.40625 60.328125 
C 44.90625 62.296875 46.09375 63.65625 47.703125 64.671875 
C 50.796875 66.171875 54.40625 65.078125 57.59375 64.171875 
L 57.59375 70 
C 55.09375 70.1875 52.703125 70.6875 50.203125 70.5 
C 43.40625 70 38.59375 64.046875 38.09375 57.3125 
C 38 55.890625 38.09375 54.375 38.09375 52.96875 
z
M 65.59375 70 
L 65.59375 63.671875 
L 71.90625 63.671875 
L 71.90625 70 
z
M 65.59375 47.390625 
L 65.59375 0 
L 71.90625 0 
L 71.90625 47.390625 
z
" id="Computer_Modern_Bright-14"/>
      <path d="M 9.90625 7.828125 
L 9.90625 0 
L 12.296875 0 
L 9.796875 -11 
L 13.796875 -11 
C 15.09375 -7.34375 16.40625 -3.765625 17.59375 -0.09375 
C 17.703125 2.40625 17.703125 5.125 17.703125 7.828125 
z
" id="Computer_Modern_Bright-44"/>
      <path d="M -3.40625 -17.296875 
L 3 -17.296875 
L 4.203125 -11.21875 
L 7.5 4.359375 
C 9.40625 2.34375 11.296875 0.515625 13.796875 -0.796875 
C 18.09375 -3.125 25.203125 -4.546875 31.40625 -3.125 
C 40.59375 -1.296875 49 5.484375 52.90625 14.1875 
C 56 21.265625 56.40625 30.28125 52.90625 37.359375 
C 51.703125 39.78125 49.90625 42.515625 47.5 43.9375 
C 51.40625 46.171875 55.09375 49.046875 57 53.4375 
C 57.796875 55.375 58.40625 57.828125 57.90625 60.390625 
C 56.40625 67.4375 50 70.5 43.203125 70.5 
C 39.703125 70.5 36 69.890625 32.59375 68.984375 
C 24.40625 66.5625 16.796875 61.3125 12.59375 53.765625 
C 10 49.03125 9.40625 43.484375 8.296875 38.234375 
C 7 32.390625 -3.40625 -16.6875 -3.40625 -17.296875 
M 39.5 65.59375 
C 43.40625 65.890625 47.90625 64.890625 49.90625 62.96875 
C 53.59375 59.3125 50.90625 52.328125 48.5 49.5 
C 47.703125 48.484375 45.40625 46.359375 44.09375 46.15625 
C 43.5 46.0625 42.90625 46.4375 42.296875 46.515625 
C 37.90625 47.875 28.703125 47.875 25.703125 45.984375 
C 25 45.59375 24.203125 44.640625 24.296875 43.703125 
C 24.59375 42.03125 27.59375 41.40625 29 41.3125 
C 32.40625 41 35.90625 41 39.296875 41.40625 
C 40 41.5 40.796875 41.703125 41.5 41.8125 
C 42.40625 42.015625 43.09375 42.3125 43.90625 41.703125 
C 48.5 38.265625 49.59375 31.484375 49.09375 26.125 
C 48.59375 19.4375 47 12.765625 42.40625 7.703125 
C 39.296875 4.5625 35.796875 2.4375 30.40625 1.53125 
C 23.203125 0.625 14.40625 3.25 11.40625 10.546875 
C 10 14.484375 10.09375 17.21875 11.203125 22.171875 
L 12.703125 28.953125 
L 15.59375 43.125 
C 16.296875 46.0625 16.703125 49.09375 18 51.828125 
C 21.90625 60.03125 30.796875 64.890625 39.5 65.59375 
" id="Computer_Modern_Bright_Math_Slanted-12"/>
     </defs>
     <g style="fill:#262626;" transform="translate(21.036997 285.36295)rotate(-90)scale(0.2 -0.2)">
      <use transform="scale(0.996264)" xlink:href="#Computer_Modern_Bright-82"/>
      <use transform="translate(63.719122 0)scale(0.996264)" xlink:href="#Computer_Modern_Bright-101"/>
      <use transform="translate(108.55079 0)scale(0.996264)" xlink:href="#Computer_Modern_Bright-103"/>
      <use transform="translate(156.703287 0)scale(0.996264)" xlink:href="#Computer_Modern_Bright-114"/>
      <use transform="translate(188.666646 0)scale(0.996264)" xlink:href="#Computer_Modern_Bright-101"/>
      <use transform="translate(233.498313 0)scale(0.996264)" xlink:href="#Computer_Modern_Bright-115"/>
      <use transform="translate(271.937343 0)scale(0.996264)" xlink:href="#Computer_Modern_Bright-115"/>
      <use transform="translate(310.376372 0)scale(0.996264)" xlink:href="#Computer_Modern_Bright-105"/>
      <use transform="translate(329.471331 0)scale(0.996264)" xlink:href="#Computer_Modern_Bright-111"/>
      <use transform="translate(380.114548 0)scale(0.996264)" xlink:href="#Computer_Modern_Bright-110"/>
      <use transform="translate(459.732257 0)scale(0.996264)" xlink:href="#Computer_Modern_Bright-67"/>
      <use transform="translate(524.90429 0)scale(0.996264)" xlink:href="#Computer_Modern_Bright-111"/>
      <use transform="translate(575.547507 0)scale(0.996264)" xlink:href="#Computer_Modern_Bright-101"/>
      <use transform="translate(620.379175 0)scale(0.996264)" xlink:href="#Computer_Modern_Bright-14"/>
      <use transform="translate(698.419608 0)scale(0.996264)" xlink:href="#Computer_Modern_Bright-99"/>
      <use transform="translate(743.251275 0)scale(0.996264)" xlink:href="#Computer_Modern_Bright-105"/>
      <use transform="translate(762.346234 0)scale(0.996264)" xlink:href="#Computer_Modern_Bright-101"/>
      <use transform="translate(807.177902 0)scale(0.996264)" xlink:href="#Computer_Modern_Bright-110"/>
      <use transform="translate(855.330399 0)scale(0.996264)" xlink:href="#Computer_Modern_Bright-116"/>
      <use transform="translate(891.444787 0)scale(0.996264)" xlink:href="#Computer_Modern_Bright-44"/>
      <use transform="translate(950.307122 0)scale(0.996264)" xlink:href="#Computer_Modern_Bright_Math_Slanted-12"/>
     </g>
    </g>
   </g>
   <g id="PolyCollection_1">
    <defs>
     <path d="M 36.168535 -118.443161 
L 36.168535 -79.721349 
L 152.440163 -79.721349 
L 152.440163 -118.443161 
L 152.440163 -118.443161 
L 36.168535 -118.443161 
z
" id="mcda97fde10" style="stroke:#cfcfcf;stroke-width:0.3;"/>
    </defs>
    <g clip-path="url(#pe817b4addb)">
     <use style="fill:#cfcfcf;stroke:#cfcfcf;stroke-width:0.3;" x="0" xlink:href="#mcda97fde10" y="413.786163"/>
    </g>
   </g>
   <g id="PolyCollection_2">
    <defs>
     <path d="M 36.168535 -118.443161 
L 36.168535 -378.701349 
L 152.440163 -378.701349 
L 152.440163 -118.443161 
L 152.440163 -118.443161 
L 36.168535 -118.443161 
z
" id="m028b1c3eb3" style="stroke:#cfcfcf;stroke-width:0.3;"/>
    </defs>
    <g clip-path="url(#pe817b4addb)">
     <use style="fill:#cfcfcf;stroke:#cfcfcf;stroke-width:0.3;" x="0" xlink:href="#m028b1c3eb3" y="413.786163"/>
    </g>
   </g>
   <g id="PolyCollection_3">
    <defs>
     <path d="M 268.71179 -118.443161 
L 268.71179 -79.721349 
L 384.983418 -79.721349 
L 384.983418 -118.443161 
L 384.983418 -118.443161 
L 268.71179 -118.443161 
z
" id="m4902dfaddb" style="stroke:#cfcfcf;stroke-width:0.3;"/>
    </defs>
    <g clip-path="url(#pe817b4addb)">
     <use style="fill:#cfcfcf;stroke:#cfcfcf;stroke-width:0.3;" x="0" xlink:href="#m4902dfaddb" y="413.786163"/>
    </g>
   </g>
   <g id="PolyCollection_4">
    <defs>
     <path d="M 268.71179 -118.443161 
L 268.71179 -378.701349 
L 384.983418 -378.701349 
L 384.983418 -118.443161 
L 384.983418 -118.443161 
L 268.71179 -118.443161 
z
" id="m0d1e3bb3e2" style="stroke:#cfcfcf;stroke-width:0.3;"/>
    </defs>
    <g clip-path="url(#pe817b4addb)">
     <use style="fill:#cfcfcf;stroke:#cfcfcf;stroke-width:0.3;" x="0" xlink:href="#m0d1e3bb3e2" y="413.786163"/>
    </g>
   </g>
   <g id="patch_3">
    <path clip-path="url(#pe817b4addb)" d="M 127.524814 295.343001 
L 144.135046 295.343001 
L 144.135046 282.5614 
L 127.524814 282.5614 
z
" style="fill:#377eb8;opacity:0.7;"/>
   </g>
   <g id="patch_4">
    <path clip-path="url(#pe817b4addb)" d="M 243.796442 295.343001 
L 260.406674 295.343001 
L 260.406674 134.625153 
L 243.796442 134.625153 
z
" style="fill:#377eb8;opacity:0.7;"/>
   </g>
   <g id="patch_5">
    <path clip-path="url(#pe817b4addb)" d="M 360.06807 313.469089 
L 376.678302 313.469089 
L 376.678302 295.343001 
L 360.06807 295.343001 
z
" style="fill:#377eb8;opacity:0.7;"/>
   </g>
   <g id="patch_6">
    <path clip-path="url(#pe817b4addb)" d="M 476.339697 295.343001 
L 492.94993 295.343001 
L 492.94993 290.694352 
L 476.339697 290.694352 
z
" style="fill:#377eb8;opacity:0.7;"/>
   </g>
   <g id="patch_7">
    <path clip-path="url(#pe817b4addb)" d="M 110.914581 295.343001 
L 127.524814 295.343001 
L 127.524814 213.844422 
L 110.914581 213.844422 
z
" style="fill:#e41a1c;opacity:0.7;"/>
   </g>
   <g id="patch_8">
    <path clip-path="url(#pe817b4addb)" d="M 227.186209 295.343001 
L 243.796442 295.343001 
L 243.796442 130.25421 
L 227.186209 130.25421 
z
" style="fill:#e41a1c;opacity:0.7;"/>
   </g>
   <g id="patch_9">
    <path clip-path="url(#pe817b4addb)" d="M 343.457837 295.343001 
L 360.06807 295.343001 
L 360.06807 162.91772 
L 343.457837 162.91772 
z
" style="fill:#e41a1c;opacity:0.7;"/>
   </g>
   <g id="patch_10">
    <path clip-path="url(#pe817b4addb)" d="M 459.729465 297.839334 
L 476.339697 297.839334 
L 476.339697 295.343001 
L 459.729465 295.343001 
z
" style="fill:#e41a1c;opacity:0.7;"/>
   </g>
   <g id="patch_11">
    <path clip-path="url(#pe817b4addb)" d="M 61.083883 295.343001 
L 77.694116 295.343001 
L 77.694116 215.228889 
L 61.083883 215.228889 
z
" style="fill:#4daf4a;opacity:0.7;"/>
   </g>
   <g id="patch_12">
    <path clip-path="url(#pe817b4addb)" d="M 177.355511 295.343001 
L 193.965744 295.343001 
L 193.965744 107.064817 
L 177.355511 107.064817 
z
" style="fill:#4daf4a;opacity:0.7;"/>
   </g>
   <g id="patch_13">
    <path clip-path="url(#pe817b4addb)" d="M 293.627139 295.343001 
L 310.237372 295.343001 
L 310.237372 161.417986 
L 293.627139 161.417986 
z
" style="fill:#4daf4a;opacity:0.7;"/>
   </g>
   <g id="patch_14">
    <path clip-path="url(#pe817b4addb)" d="M 409.898767 308.354442 
L 426.509 308.354442 
L 426.509 295.343001 
L 409.898767 295.343001 
z
" style="fill:#4daf4a;opacity:0.7;"/>
   </g>
   <g id="patch_15">
    <path clip-path="url(#pe817b4addb)" d="M 94.304349 295.343001 
L 110.914581 295.343001 
L 110.914581 280.471518 
L 94.304349 280.471518 
z
" style="fill:#984ea3;opacity:0.7;"/>
   </g>
   <g id="patch_16">
    <path clip-path="url(#pe817b4addb)" d="M 210.575977 295.343001 
L 227.186209 295.343001 
L 227.186209 179.419671 
L 210.575977 179.419671 
z
" style="fill:#984ea3;opacity:0.7;"/>
   </g>
   <g id="patch_17">
    <path clip-path="url(#pe817b4addb)" d="M 326.847604 302.15224 
L 343.457837 302.15224 
L 343.457837 295.343001 
L 326.847604 295.343001 
z
" style="fill:#984ea3;opacity:0.7;"/>
   </g>
   <g id="patch_18">
    <path clip-path="url(#pe817b4addb)" d="M 443.119232 295.343001 
L 459.729465 295.343001 
L 459.729465 289.772106 
L 443.119232 289.772106 
z
" style="fill:#984ea3;opacity:0.7;"/>
   </g>
   <g id="patch_19">
    <path clip-path="url(#pe817b4addb)" d="M 44.473651 295.343001 
L 61.083883 295.343001 
L 61.083883 246.12329 
L 44.473651 246.12329 
z
" style="fill:#ffff33;opacity:0.7;"/>
   </g>
   <g id="patch_20">
    <path clip-path="url(#pe817b4addb)" d="M 160.745279 295.343001 
L 177.355511 295.343001 
L 177.355511 167.492123 
L 160.745279 167.492123 
z
" style="fill:#ffff33;opacity:0.7;"/>
   </g>
   <g id="patch_21">
    <path clip-path="url(#pe817b4addb)" d="M 277.016907 295.343001 
L 293.627139 295.343001 
L 293.627139 171.451797 
L 277.016907 171.451797 
z
" style="fill:#ffff33;opacity:0.7;"/>
   </g>
   <g id="patch_22">
    <path clip-path="url(#pe817b4addb)" d="M 393.288535 295.343001 
L 409.898767 295.343001 
L 409.898767 292.982954 
L 393.288535 292.982954 
z
" style="fill:#ffff33;opacity:0.7;"/>
   </g>
   <g id="patch_23">
    <path clip-path="url(#pe817b4addb)" d="M 77.694116 295.343001 
L 94.304349 295.343001 
L 94.304349 252.190501 
L 77.694116 252.190501 
z
" style="fill:#ff7f00;opacity:0.7;"/>
   </g>
   <g id="patch_24">
    <path clip-path="url(#pe817b4addb)" d="M 193.965744 295.343001 
L 210.575977 295.343001 
L 210.575977 177.250551 
L 193.965744 177.250551 
z
" style="fill:#ff7f00;opacity:0.7;"/>
   </g>
   <g id="patch_25">
    <path clip-path="url(#pe817b4addb)" d="M 310.237372 295.343001 
L 326.847604 295.343001 
L 326.847604 230.851619 
L 310.237372 230.851619 
z
" style="fill:#ff7f00;opacity:0.7;"/>
   </g>
   <g id="patch_26">
    <path clip-path="url(#pe817b4addb)" d="M 426.509 295.343001 
L 443.119232 295.343001 
L 443.119232 291.817022 
L 426.509 291.817022 
z
" style="fill:#ff7f00;opacity:0.7;"/>
   </g>
   <g id="LineCollection_1">
    <path clip-path="url(#pe817b4addb)" d="M 135.82993 284.925212 
L 135.82993 280.197588 
" style="fill:none;stroke:#333333;stroke-width:1.75;"/>
    <path clip-path="url(#pe817b4addb)" d="M 252.101558 186.675144 
L 252.101558 82.575161 
" style="fill:none;stroke:#333333;stroke-width:1.75;"/>
    <path clip-path="url(#pe817b4addb)" d="M 368.373186 320.474814 
L 368.373186 306.463363 
" style="fill:none;stroke:#333333;stroke-width:1.75;"/>
    <path clip-path="url(#pe817b4addb)" d="M 484.644814 295.806472 
L 484.644814 285.582232 
" style="fill:none;stroke:#333333;stroke-width:1.75;"/>
   </g>
   <g id="LineCollection_2">
    <path clip-path="url(#pe817b4addb)" d="M 119.219697 216.208235 
L 119.219697 211.48061 
" style="fill:none;stroke:#333333;stroke-width:1.75;"/>
    <path clip-path="url(#pe817b4addb)" d="M 235.491325 182.304201 
L 235.491325 78.204219 
" style="fill:none;stroke:#333333;stroke-width:1.75;"/>
    <path clip-path="url(#pe817b4addb)" d="M 351.762953 169.923445 
L 351.762953 155.911995 
" style="fill:none;stroke:#333333;stroke-width:1.75;"/>
    <path clip-path="url(#pe817b4addb)" d="M 468.034581 302.951454 
L 468.034581 292.727214 
" style="fill:none;stroke:#333333;stroke-width:1.75;"/>
   </g>
   <g id="LineCollection_3">
    <path clip-path="url(#pe817b4addb)" d="M 69.389 217.592702 
L 69.389 212.865077 
" style="fill:none;stroke:#333333;stroke-width:1.75;"/>
    <path clip-path="url(#pe817b4addb)" d="M 185.660628 159.114808 
L 185.660628 55.014826 
" style="fill:none;stroke:#333333;stroke-width:1.75;"/>
    <path clip-path="url(#pe817b4addb)" d="M 301.932256 168.423712 
L 301.932256 154.412261 
" style="fill:none;stroke:#333333;stroke-width:1.75;"/>
    <path clip-path="url(#pe817b4addb)" d="M 418.203883 313.466562 
L 418.203883 303.242322 
" style="fill:none;stroke:#333333;stroke-width:1.75;"/>
   </g>
   <g id="LineCollection_4">
    <path clip-path="url(#pe817b4addb)" d="M 102.609465 282.835331 
L 102.609465 278.107706 
" style="fill:none;stroke:#333333;stroke-width:1.75;"/>
    <path clip-path="url(#pe817b4addb)" d="M 218.881093 231.469662 
L 218.881093 127.36968 
" style="fill:none;stroke:#333333;stroke-width:1.75;"/>
    <path clip-path="url(#pe817b4addb)" d="M 335.152721 309.157965 
L 335.152721 295.146515 
" style="fill:none;stroke:#333333;stroke-width:1.75;"/>
    <path clip-path="url(#pe817b4addb)" d="M 451.424349 294.884226 
L 451.424349 284.659987 
" style="fill:none;stroke:#333333;stroke-width:1.75;"/>
   </g>
   <g id="LineCollection_5">
    <path clip-path="url(#pe817b4addb)" d="M 52.778767 248.487102 
L 52.778767 243.759477 
" style="fill:none;stroke:#333333;stroke-width:1.75;"/>
    <path clip-path="url(#pe817b4addb)" d="M 169.050395 219.542114 
L 169.050395 115.442132 
" style="fill:none;stroke:#333333;stroke-width:1.75;"/>
    <path clip-path="url(#pe817b4addb)" d="M 285.322023 178.457523 
L 285.322023 164.446072 
" style="fill:none;stroke:#333333;stroke-width:1.75;"/>
    <path clip-path="url(#pe817b4addb)" d="M 401.593651 298.095074 
L 401.593651 287.870834 
" style="fill:none;stroke:#333333;stroke-width:1.75;"/>
   </g>
   <g id="LineCollection_6">
    <path clip-path="url(#pe817b4addb)" d="M 85.999232 254.554314 
L 85.999232 249.826689 
" style="fill:none;stroke:#333333;stroke-width:1.75;"/>
    <path clip-path="url(#pe817b4addb)" d="M 202.27086 229.300542 
L 202.27086 125.200559 
" style="fill:none;stroke:#333333;stroke-width:1.75;"/>
    <path clip-path="url(#pe817b4addb)" d="M 318.542488 237.857344 
L 318.542488 223.845894 
" style="fill:none;stroke:#333333;stroke-width:1.75;"/>
    <path clip-path="url(#pe817b4addb)" d="M 434.814116 296.929142 
L 434.814116 286.704903 
" style="fill:none;stroke:#333333;stroke-width:1.75;"/>
   </g>
   <g id="line2d_10">
    <defs>
     <path d="M 0 -3.5 
L -0.785799 -1.081559 
L -3.328698 -1.081559 
L -1.271449 0.413119 
L -2.057248 2.831559 
L -0 1.336881 
L 2.057248 2.831559 
L 1.271449 0.413119 
L 3.328698 -1.081559 
L 0.785799 -1.081559 
z
" id="md5e8af3cb4"/>
    </defs>
    <g clip-path="url(#pe817b4addb)">
     <use x="135.82993" xlink:href="#md5e8af3cb4" y="273.857576"/>
     <use x="252.101558" xlink:href="#md5e8af3cb4" y="76.23515"/>
    </g>
   </g>
   <g id="line2d_11">
    <g clip-path="url(#pe817b4addb)">
     <use x="119.219697" xlink:href="#md5e8af3cb4" y="205.140599"/>
     <use x="235.491325" xlink:href="#md5e8af3cb4" y="71.864207"/>
     <use x="351.762953" xlink:href="#md5e8af3cb4" y="149.571983"/>
    </g>
   </g>
   <g id="line2d_12">
    <g clip-path="url(#pe817b4addb)">
     <use x="69.389" xlink:href="#md5e8af3cb4" y="206.525065"/>
     <use x="185.660628" xlink:href="#md5e8af3cb4" y="48.674814"/>
     <use x="301.932256" xlink:href="#md5e8af3cb4" y="148.072249"/>
     <use x="418.203883" xlink:href="#md5e8af3cb4" y="296.90231"/>
    </g>
   </g>
   <g id="line2d_13">
    <g clip-path="url(#pe817b4addb)">
     <use x="102.609465" xlink:href="#md5e8af3cb4" y="271.767694"/>
    </g>
   </g>
   <g id="line2d_14">
    <g clip-path="url(#pe817b4addb)">
     <use x="52.778767" xlink:href="#md5e8af3cb4" y="237.419466"/>
     <use x="169.050395" xlink:href="#md5e8af3cb4" y="109.10212"/>
     <use x="285.322023" xlink:href="#md5e8af3cb4" y="158.10606"/>
    </g>
   </g>
   <g id="line2d_15">
    <g clip-path="url(#pe817b4addb)">
     <use x="85.999232" xlink:href="#md5e8af3cb4" y="243.486677"/>
     <use x="318.542488" xlink:href="#md5e8af3cb4" y="217.505882"/>
    </g>
   </g>
   <g id="patch_27">
    <path d="M 44.473651 334.064814 
L 44.473651 35.084814 
" style="fill:none;"/>
   </g>
   <g id="patch_28">
    <path d="M 490.873651 334.064814 
L 490.873651 35.084814 
" style="fill:none;"/>
   </g>
   <g id="patch_29">
    <path d="M 44.473651 334.064814 
L 490.873651 334.064814 
" style="fill:none;"/>
   </g>
   <g id="patch_30">
    <path d="M 44.473651 35.084814 
L 490.873651 35.084814 
" style="fill:none;"/>
   </g>
   <g id="legend_1">
    <g id="text_12">
     <!-- Genotype -->
     <defs>
      <path d="M 0.703125 47.65625 
C 1.296875 45.75 5.40625 35.609375 5.5 35.3125 
L 17.40625 4.578125 
L 18.40625 2.078125 
C 19 0.671875 19.203125 0.46875 18.59375 -1.140625 
L 17.5 -4.046875 
C 16.59375 -6.46875 15.59375 -8.96875 13.703125 -10.484375 
C 10.296875 -13.296875 4.90625 -11.6875 0.796875 -10.78125 
L 1.296875 -16.5 
C 3.203125 -16.796875 5.09375 -17 7 -17 
C 11.296875 -17.515625 14.09375 -16.5 16.703125 -14.296875 
C 20 -11.484375 21.59375 -7.5625 23.09375 -3.546875 
L 26.203125 5.078125 
L 36.40625 32.90625 
C 38.09375 37.921875 40.203125 42.640625 41.796875 47.65625 
L 37.296875 47.65625 
C 36.796875 47.65625 36 47.859375 35.59375 47.46875 
C 35.40625 47.15625 35.296875 46.765625 35.203125 46.453125 
L 34.40625 44.34375 
C 33.40625 41.734375 32.5 39.234375 31.59375 36.609375 
L 25.796875 20.25 
C 24.296875 15.828125 22.59375 11.3125 21.796875 6.6875 
C 20.703125 11.3125 19.203125 15.734375 17.59375 20.140625 
C 16.296875 23.5625 8.5 44.546875 7.5 46.5625 
C 7.09375 47.65625 6.703125 47.65625 5.203125 47.65625 
z
" id="Computer_Modern_Bright-121"/>
      <path d="M 12.703125 40.53125 
L 12.703125 47.15625 
L 6.40625 47.15625 
L 6.40625 -17 
L 12.796875 -17 
L 12.796875 6.09375 
C 14.203125 4.078125 15.796875 2.28125 17.90625 1.078125 
C 25 -3.25 34 0.171875 38.90625 6.59375 
C 45.40625 14.96875 46.09375 27.5 41.59375 36.984375 
C 39 42.4375 34.09375 47.5 27.796875 48 
C 22.296875 48 18.09375 45.8125 15.09375 43.125 
C 14.203125 42.328125 13.5 41.4375 12.703125 40.53125 
M 21.90625 42.875 
C 26 43.171875 30 41.265625 32.796875 38.265625 
C 34.5 36.34375 35.796875 34.140625 36.59375 31.734375 
C 40.09375 22.296875 36.90625 9.234375 26.796875 5.328125 
C 21 3.109375 15.296875 5.125 13.09375 10.546875 
C 12.59375 11.546875 12.796875 12.859375 12.796875 13.953125 
L 12.796875 34.640625 
C 12.796875 36.953125 13 37.15625 14.5 38.859375 
C 16.296875 41.0625 19 42.578125 21.90625 42.875 
" id="Computer_Modern_Bright-112"/>
     </defs>
     <g style="fill:#262626;" transform="translate(535.489302 26.85327)scale(0.18 -0.18)">
      <use transform="scale(0.996264)" xlink:href="#Computer_Modern_Bright-71"/>
      <use transform="translate(68.077762 0)scale(0.996264)" xlink:href="#Computer_Modern_Bright-101"/>
      <use transform="translate(112.90943 0)scale(0.996264)" xlink:href="#Computer_Modern_Bright-110"/>
      <use transform="translate(161.061927 0)scale(0.996264)" xlink:href="#Computer_Modern_Bright-111"/>
      <use transform="translate(211.705144 0)scale(0.996264)" xlink:href="#Computer_Modern_Bright-116"/>
      <use transform="translate(244.913803 0)scale(0.996264)" xlink:href="#Computer_Modern_Bright-121"/>
      <use transform="translate(287.254841 0)scale(0.996264)" xlink:href="#Computer_Modern_Bright-112"/>
      <use transform="translate(335.407338 0)scale(0.996264)" xlink:href="#Computer_Modern_Bright-101"/>
     </g>
    </g>
    <g id="patch_31">
     <path d="M 507.001651 51.442062 
L 543.001651 51.442062 
L 543.001651 38.842062 
L 507.001651 38.842062 
z
" style="fill:#377eb8;opacity:0.7;"/>
    </g>
    <g id="text_13">
     <!-- \emph{egl-9;hif-1} -->
     <defs>
      <path d="M 19.90625 47.875 
L 18.296875 40 
L 26.09375 40 
L 27.703125 47.875 
z
M 11.5 7.875 
L 9.90625 0 
L 12.296875 0 
C 10.703125 -3.65625 9 -7.234375 7.5 -11 
C 8.796875 -11 10.203125 -11.09375 11.296875 -10.796875 
L 12.296875 -9.5 
L 17.59375 0 
C 18.203125 2.59375 18.796875 5.1875 19.296875 7.875 
z
" id="Computer_Modern_Bright_Slanted-59"/>
      <path d="M 19.796875 64 
L 26.09375 64 
L 27.40625 70.359375 
C 25.296875 70.359375 23 70.359375 21.203125 70.046875 
C 20.5 68.265625 20.203125 66.09375 19.796875 64 
M 16.40625 47.890625 
L 6.40625 0 
C 8.5 0 10.796875 0 12.59375 0.296875 
L 13 1.40625 
L 22.703125 47.890625 
z
" id="Computer_Modern_Bright_Slanted-105"/>
      <path d="M 12 48.046875 
L 11 43 
L 19.59375 43 
C 16.5 29 13.59375 14.59375 10.59375 0.5 
C 12.703125 0.5 15 0.5 16.796875 0.796875 
L 17.09375 1.5 
C 19.296875 12.25 21.703125 22.703125 23.90625 33.4375 
C 24.703125 36.453125 25 39.984375 26 42.796875 
L 27 43 
L 38.296875 43 
L 39.296875 48.046875 
L 26.796875 48.046875 
C 27.703125 50.9375 28.09375 54.03125 28.703125 56.921875 
C 29 58.21875 29.09375 59.703125 29.796875 60.90625 
C 30.703125 62.609375 32.5 63.703125 34.203125 64.5 
C 37.703125 66 41.5 66 45.203125 65.4375 
C 46.59375 65.265625 47.90625 64.796875 49.203125 64.609375 
L 50.296875 70.234375 
C 46.703125 70.75 42.90625 71.15625 39.296875 70.75 
C 34.203125 70.03125 29.5 67.546875 26.09375 63.734375 
C 23.40625 60.640625 22.703125 58.046875 21.703125 53.34375 
C 21.59375 52.4375 21 48.546875 20.40625 48.25 
C 19.90625 47.84375 18.703125 48.046875 18.09375 48.046875 
z
" id="Computer_Modern_Bright_Slanted-102"/>
     </defs>
     <g style="fill:#262626;" transform="translate(557.401651 51.442062)scale(0.18 -0.18)">
      <use transform="scale(0.996264)" xlink:href="#Computer_Modern_Bright_Slanted-101"/>
      <use transform="translate(44.831668 0)scale(0.996264)" xlink:href="#Computer_Modern_Bright_Slanted-103"/>
      <use transform="translate(92.984165 0)scale(0.996264)" xlink:href="#Computer_Modern_Bright_Slanted-108"/>
      <use transform="translate(112.079123 0)scale(0.996264)" xlink:href="#Computer_Modern_Bright_Slanted-45"/>
      <use transform="translate(145.287797 0)scale(0.996264)" xlink:href="#Computer_Modern_Bright_Slanted-57"/>
      <use transform="translate(195.931015 0)scale(0.996264)" xlink:href="#Computer_Modern_Bright_Slanted-59"/>
      <use transform="translate(223.328138 0)scale(0.996264)" xlink:href="#Computer_Modern_Bright_Slanted-104"/>
      <use transform="translate(271.480635 0)scale(0.996264)" xlink:href="#Computer_Modern_Bright_Slanted-105"/>
      <use transform="translate(290.575594 0)scale(0.996264)" xlink:href="#Computer_Modern_Bright_Slanted-102"/>
      <use transform="translate(320.878538 0)scale(0.996264)" xlink:href="#Computer_Modern_Bright_Slanted-45"/>
      <use transform="translate(354.087212 0)scale(0.996264)" xlink:href="#Computer_Modern_Bright_Slanted-49"/>
     </g>
    </g>
    <g id="patch_32">
     <path d="M 507.001651 76.030854 
L 543.001651 76.030854 
L 543.001651 63.430854 
L 507.001651 63.430854 
z
" style="fill:#e41a1c;opacity:0.7;"/>
    </g>
    <g id="text_14">
     <!-- \emph{egl-9;vhl-1} -->
     <defs>
      <path d="M 10.703125 48 
C 12.796875 33.046875 15.09375 18.171875 17.09375 3.125 
C 17.296875 2.109375 17.296875 0.90625 17.796875 0.203125 
C 19.90625 0 22.59375 0 24.703125 0 
L 25.296875 0.703125 
L 44.703125 35.109375 
L 51.796875 48 
C 49.703125 48 47.5 48 45.703125 47.703125 
C 44.90625 46.59375 44.296875 45.484375 43.59375 44.265625 
C 36.59375 31.84375 29.40625 19.515625 22.703125 6.6875 
C 21.59375 16.984375 20 26.6875 18.59375 36.6875 
C 18 40.328125 17.90625 44.46875 16.90625 47.703125 
C 15.09375 48 12.796875 48 10.703125 48 
" id="Computer_Modern_Bright_Slanted-118"/>
     </defs>
     <g style="fill:#262626;" transform="translate(557.401651 76.030854)scale(0.18 -0.18)">
      <use transform="scale(0.996264)" xlink:href="#Computer_Modern_Bright_Slanted-101"/>
      <use transform="translate(44.831668 0)scale(0.996264)" xlink:href="#Computer_Modern_Bright_Slanted-103"/>
      <use transform="translate(92.984165 0)scale(0.996264)" xlink:href="#Computer_Modern_Bright_Slanted-108"/>
      <use transform="translate(112.079123 0)scale(0.996264)" xlink:href="#Computer_Modern_Bright_Slanted-45"/>
      <use transform="translate(145.287797 0)scale(0.996264)" xlink:href="#Computer_Modern_Bright_Slanted-57"/>
      <use transform="translate(195.931015 0)scale(0.996264)" xlink:href="#Computer_Modern_Bright_Slanted-59"/>
      <use transform="translate(223.328138 0)scale(0.996264)" xlink:href="#Computer_Modern_Bright_Slanted-118"/>
      <use transform="translate(265.669176 0)scale(0.996264)" xlink:href="#Computer_Modern_Bright_Slanted-104"/>
      <use transform="translate(313.821673 0)scale(0.996264)" xlink:href="#Computer_Modern_Bright_Slanted-108"/>
      <use transform="translate(332.916632 0)scale(0.996264)" xlink:href="#Computer_Modern_Bright_Slanted-45"/>
      <use transform="translate(366.125306 0)scale(0.996264)" xlink:href="#Computer_Modern_Bright_Slanted-49"/>
     </g>
    </g>
    <g id="patch_33">
     <path d="M 507.001651 100.619646 
L 543.001651 100.619646 
L 543.001651 88.019646 
L 507.001651 88.019646 
z
" style="fill:#4daf4a;opacity:0.7;"/>
    </g>
    <g id="text_15">
     <!-- \emph{egl-9} -->
     <g style="fill:#262626;" transform="translate(557.401651 100.619646)scale(0.18 -0.18)">
      <use transform="scale(0.996264)" xlink:href="#Computer_Modern_Bright_Slanted-101"/>
      <use transform="translate(44.831668 0)scale(0.996264)" xlink:href="#Computer_Modern_Bright_Slanted-103"/>
      <use transform="translate(92.984165 0)scale(0.996264)" xlink:href="#Computer_Modern_Bright_Slanted-108"/>
      <use transform="translate(112.079123 0)scale(0.996264)" xlink:href="#Computer_Modern_Bright_Slanted-45"/>
      <use transform="translate(145.287797 0)scale(0.996264)" xlink:href="#Computer_Modern_Bright_Slanted-57"/>
     </g>
    </g>
    <g id="patch_34">
     <path d="M 507.001651 125.208438 
L 543.001651 125.208438 
L 543.001651 112.608438 
L 507.001651 112.608438 
z
" style="fill:#984ea3;opacity:0.7;"/>
    </g>
    <g id="text_16">
     <!-- \emph{hif-1} -->
     <g style="fill:#262626;" transform="translate(557.401651 125.208438)scale(0.18 -0.18)">
      <use transform="scale(0.996264)" xlink:href="#Computer_Modern_Bright_Slanted-104"/>
      <use transform="translate(48.152497 0)scale(0.996264)" xlink:href="#Computer_Modern_Bright_Slanted-105"/>
      <use transform="translate(67.247456 0)scale(0.996264)" xlink:href="#Computer_Modern_Bright_Slanted-102"/>
      <use transform="translate(97.5504 0)scale(0.996264)" xlink:href="#Computer_Modern_Bright_Slanted-45"/>
      <use transform="translate(130.759074 0)scale(0.996264)" xlink:href="#Computer_Modern_Bright_Slanted-49"/>
     </g>
    </g>
    <g id="patch_35">
     <path d="M 507.001651 149.79723 
L 543.001651 149.79723 
L 543.001651 137.19723 
L 507.001651 137.19723 
z
" style="fill:#ffff33;opacity:0.7;"/>
    </g>
    <g id="text_17">
     <!-- \emph{rhy-1} -->
     <g style="fill:#262626;" transform="translate(557.401651 149.79723)scale(0.18 -0.18)">
      <use transform="scale(0.996264)" xlink:href="#Computer_Modern_Bright_Slanted-114"/>
      <use transform="translate(31.963359 0)scale(0.996264)" xlink:href="#Computer_Modern_Bright_Slanted-104"/>
      <use transform="translate(80.115856 0)scale(0.996264)" xlink:href="#Computer_Modern_Bright_Slanted-121"/>
      <use transform="translate(122.456894 0)scale(0.996264)" xlink:href="#Computer_Modern_Bright_Slanted-45"/>
      <use transform="translate(155.665567 0)scale(0.996264)" xlink:href="#Computer_Modern_Bright_Slanted-49"/>
     </g>
    </g>
    <g id="patch_36">
     <path d="M 507.001651 174.386022 
L 543.001651 174.386022 
L 543.001651 161.786022 
L 507.001651 161.786022 
z
" style="fill:#ff7f00;opacity:0.7;"/>
    </g>
    <g id="text_18">
     <!-- \emph{vhl-1} -->
     <g style="fill:#262626;" transform="translate(557.401651 174.386022)scale(0.18 -0.18)">
      <use transform="scale(0.996264)" xlink:href="#Computer_Modern_Bright_Slanted-118"/>
      <use transform="translate(42.341038 0)scale(0.996264)" xlink:href="#Computer_Modern_Bright_Slanted-104"/>
      <use transform="translate(90.493535 0)scale(0.996264)" xlink:href="#Computer_Modern_Bright_Slanted-108"/>
      <use transform="translate(109.588494 0)scale(0.996264)" xlink:href="#Computer_Modern_Bright_Slanted-45"/>
      <use transform="translate(142.797167 0)scale(0.996264)" xlink:href="#Computer_Modern_Bright_Slanted-49"/>
     </g>
    </g>
   </g>
  </g>
 </g>
 <defs>
  <clipPath id="pe817b4addb">
   <rect height="298.98" width="446.4" x="44.473651" y="35.084814"/>
  </clipPath>
 </defs>
</svg>
