<?xml version="1.0" encoding="utf-8" standalone="no"?>
<!DOCTYPE svg PUBLIC "-//W3C//DTD SVG 1.1//EN"
  "http://www.w3.org/Graphics/SVG/1.1/DTD/svg11.dtd">
<!-- Created with matplotlib (http://matplotlib.org/) -->
<svg height="316pt" version="1.1" viewBox="0 0 460 316" width="460pt" xmlns="http://www.w3.org/2000/svg" xmlns:xlink="http://www.w3.org/1999/xlink">
 <defs>
  <style type="text/css">
*{stroke-linecap:butt;stroke-linejoin:round;}
  </style>
 </defs>
 <g id="figure_1">
  <g id="patch_1">
   <path d="M 0 316.8 
L 460.8 316.8 
L 460.8 0 
L 0 0 
z
" style="fill:#ffffff;"/>
  </g>
  <g id="axes_1">
   <g id="patch_2">
    <path d="M 339.549294 272.03619 
L 450.432 272.03619 
L 450.432 10.368 
L 339.549294 10.368 
z
" style="fill:#eaeaf2;"/>
   </g>
   <g id="matplotlib.axis_1">
    <g id="xtick_1">
     <g id="line2d_1"/>
     <g id="text_1">
      <!-- $0$ -->
      <defs>
       <path d="M 42 31.640625 
C 42 37.75 41.90625 48.125 37.703125 56.109375 
C 34 63.109375 28.09375 65.59375 22.90625 65.59375 
C 18.09375 65.59375 12 63.40625 8.203125 56.203125 
C 4.203125 48.71875 3.796875 39.4375 3.796875 31.640625 
C 3.796875 25.953125 3.90625 17.28125 7 9.671875 
C 11.296875 -0.609375 19 -2 22.90625 -2 
C 27.5 -2 34.5 -0.109375 38.59375 9.375 
C 41.59375 16.28125 42 24.359375 42 31.640625 
M 22.90625 -0.40625 
C 16.5 -0.40625 12.703125 5.078125 11.296875 12.6875 
C 10.203125 18.5625 10.203125 27.15625 10.203125 32.75 
C 10.203125 40.4375 10.203125 46.828125 11.5 52.921875 
C 13.40625 61.390625 19 64 22.90625 64 
C 27 64 32.296875 61.296875 34.203125 53.125 
C 35.5 47.4375 35.59375 40.734375 35.59375 32.75 
C 35.59375 26.25 35.59375 18.265625 34.40625 12.375 
C 32.296875 1.484375 26.40625 -0.40625 22.90625 -0.40625 
" id="CMR17-48"/>
      </defs>
      <g style="fill:#262626;" transform="translate(336.378925 286.630218)scale(0.13 -0.13)">
       <use transform="scale(0.996264)" xlink:href="#CMR17-48"/>
      </g>
     </g>
    </g>
    <g id="xtick_2">
     <g id="line2d_2"/>
     <g id="text_2">
      <!-- $5$ -->
      <defs>
       <path d="M 11.40625 57.6875 
C 12.40625 57.28125 16.5 56 20.703125 56 
C 30 56 35.09375 61.109375 38 64.0625 
C 38 64.953125 38 65.5 37.40625 65.5 
C 37.296875 65.5 37.09375 65.5 36.296875 65.046875 
C 32.796875 63.40625 28.703125 62.078125 23.703125 62.078125 
C 20.703125 62.078125 16.203125 62.484375 11.296875 64.671875 
C 10.203125 65.171875 10 65.171875 9.90625 65.171875 
C 9.40625 65.171875 9.296875 65.0625 9.296875 63.078125 
L 9.296875 34.421875 
C 9.296875 32.640625 9.296875 32.140625 10.296875 32.140625 
C 10.796875 32.140625 11 32.34375 11.5 33.03125 
C 14.703125 37.515625 19.09375 39.40625 24.09375 39.40625 
C 27.59375 39.40625 35.09375 37.21875 35.09375 20.140625 
C 35.09375 16.953125 35.09375 11.171875 32.09375 6.578125 
C 29.59375 2.484375 25.703125 0.390625 21.40625 0.390625 
C 14.796875 0.390625 8.09375 5 6.296875 12.71875 
C 6.703125 12.609375 7.5 12.421875 7.90625 12.421875 
C 9.203125 12.421875 11.703125 13.125 11.703125 16.21875 
C 11.703125 18.90625 9.796875 20 7.90625 20 
C 5.59375 20 4.09375 18.59375 4.09375 15.796875 
C 4.09375 7.09375 11 -2 21.59375 -2 
C 31.90625 -2 41.703125 6.875 41.703125 19.75 
C 41.703125 31.71875 33.90625 41 24.203125 41 
C 19.09375 41 14.796875 39.109375 11.40625 35.53125 
z
" id="CMR17-53"/>
      </defs>
      <g style="fill:#262626;" transform="translate(426.733562 286.630218)scale(0.13 -0.13)">
       <use transform="scale(0.996264)" xlink:href="#CMR17-53"/>
      </g>
     </g>
    </g>
    <g id="text_3">
     <!-- Enrichment Fold Change -->
     <defs>
      <path d="M 30.59375 6.765625 
C 22.59375 6.765625 19 6.765625 17.203125 6.765625 
L 17.203125 32.921875 
L 48.203125 32.921875 
L 48.203125 39 
L 17.203125 39 
L 17.203125 62.640625 
L 30.09375 62.640625 
C 31.296875 62.640625 32.5 62.640625 33.703125 62.640625 
L 50.796875 62.640625 
L 50.796875 69 
L 8.796875 69 
L 8.796875 0 
L 52.09375 0 
L 52.09375 6.765625 
z
" id="CMSS17-69"/>
      <path d="M 40.90625 29.328125 
C 40.90625 35.671875 39.40625 44 28.09375 44 
C 21.703125 44 17.5 40.71875 14.703125 37.328125 
L 14.703125 43.09375 
L 7.40625 43.09375 
L 7.40625 0 
L 15 0 
L 15 24.359375 
C 15 30.6875 17.40625 37.9375 24.203125 37.9375 
C 33 37.9375 33.296875 32 33.296875 28.578125 
L 33.296875 0 
L 40.90625 0 
z
" id="CMSS17-110"/>
      <path d="M 14.90625 21.296875 
C 14.90625 30.703125 21.796875 37 30.59375 37 
L 30.59375 43.578125 
C 24.203125 43.578125 18.203125 40.390625 14.59375 35.203125 
L 14.59375 43.09375 
L 7.5 43.09375 
L 7.5 0 
L 14.90625 0 
z
" id="CMSS17-114"/>
      <path d="M 15.296875 65.359375 
L 6.90625 65.359375 
L 6.90625 57 
L 15.296875 57 
z
M 14.796875 42.796875 
L 7.40625 42.796875 
L 7.40625 0 
L 14.796875 0 
z
" id="CMSS17-105"/>
      <path d="M 38.5 39.703125 
C 38.5 40.390625 33.90625 42.40625 32.703125 42.796875 
C 29.40625 44 25.203125 44 24.09375 44 
C 11.09375 44 3.296875 32.703125 3.296875 21.296875 
C 3.296875 9.296875 12 -1 23.703125 -1 
C 30.40625 -1 35.203125 1.1875 39.09375 3.78125 
L 38.5 10.375 
C 34.203125 7.078125 29.203125 5.265625 23.796875 5.265625 
C 16 5.265625 10.90625 12.09375 10.90625 21.390625 
C 10.90625 28.609375 14.203125 37.71875 24.203125 37.71875 
C 29.703125 37.71875 32.796875 36.609375 37.40625 33.515625 
z
" id="CMSS17-99"/>
      <path d="M 40.90625 29.546875 
C 40.90625 35.8125 39.40625 44.0625 28.09375 44.0625 
C 21.796875 44.0625 17.703125 40.984375 14.796875 37.609375 
L 14.796875 69.5 
L 7.40625 69.5 
L 7.40625 0.5 
L 15 0.5 
L 15 24.578125 
C 15 30.828125 17.40625 38 24.203125 38 
C 33 38 33.296875 32.125 33.296875 28.734375 
L 33.296875 0.5 
L 40.90625 0.5 
z
" id="CMSS17-104"/>
      <path d="M 67 29.328125 
C 67 36.0625 65.296875 44 54.09375 44 
C 46.59375 44 42.09375 39.3125 40.09375 36.421875 
C 38.296875 41.71875 34.09375 44 28.09375 44 
C 21.296875 44 17 40.125 14.703125 37.328125 
L 14.703125 43.09375 
L 7.40625 43.09375 
L 7.40625 0 
L 15 0 
L 15 24.359375 
C 15 30.296875 17.203125 37.9375 24.296875 37.9375 
C 33.40625 37.9375 33.40625 31.5 33.40625 28.578125 
L 33.40625 0 
L 41 0 
L 41 24.359375 
C 41 30.296875 43.203125 37.9375 50.296875 37.9375 
C 59.40625 37.9375 59.40625 31.5 59.40625 28.578125 
L 59.40625 0 
L 67 0 
z
" id="CMSS17-109"/>
      <path d="M 39.09375 21.515625 
C 39.09375 24.84375 38.90625 31.296875 35.703125 36.640625 
C 32.203125 42.390625 26.5 44 22.203125 44 
C 11.796875 44 3 34.1875 3 21.484375 
C 3 9.09375 12.09375 -1 23.59375 -1 
C 28.09375 -1 33.59375 0.296875 38.59375 3.875 
C 38.59375 4.28125 38.40625 6.46875 38.296875 6.5625 
C 38.296875 6.765625 38 9.84375 38 10.25 
C 33.203125 6.359375 27.703125 5.078125 23.703125 5.078125 
C 17.296875 5.078125 10.40625 10.421875 10.09375 21.515625 
z
M 10.90625 27 
C 12.203125 32.5625 16.59375 37.828125 22.203125 37.828125 
C 23.703125 37.828125 30.703125 37.828125 32.5 27 
z
" id="CMSS17-101"/>
      <path d="M 16.703125 37 
L 29.703125 37 
L 29.703125 42.765625 
L 16.703125 42.765625 
L 16.703125 55 
L 9.59375 55 
L 9.59375 42.765625 
L 1.703125 42.765625 
L 1.703125 37 
L 9.40625 37 
L 9.40625 11.703125 
C 9.40625 6 10.703125 -1 17.296875 -1 
C 22.296875 -1 26.90625 0.390625 31.296875 2.6875 
L 29.703125 8.5625 
C 27.296875 6.46875 24.40625 5.265625 21.296875 5.265625 
C 16.90625 5.265625 16.703125 10.875 16.703125 13.375 
z
" id="CMSS17-116"/>
      <path d="M 45.59375 31 
L 45.59375 37.078125 
L 17.203125 37.078125 
L 17.203125 62 
L 29.40625 62 
C 30.59375 62 31.796875 62 33 62 
L 49.5 62 
L 49.5 68.359375 
L 8.796875 68.359375 
L 8.796875 -0.5 
L 17.203125 -0.5 
L 17.203125 31 
z
" id="CMSS17-70"/>
      <path d="M 44.203125 21.1875 
C 44.203125 34 34.703125 44 23.5 44 
C 12 44 2.703125 33.703125 2.703125 21.1875 
C 2.703125 8.5 12.296875 -1 23.40625 -1 
C 34.796875 -1 44.203125 8.796875 44.203125 21.1875 
M 23.5 5.265625 
C 16.40625 5.265625 10.296875 11.078125 10.296875 22 
C 10.296875 33.609375 17.40625 37.921875 23.40625 37.921875 
C 29.90625 37.921875 36.59375 33.21875 36.59375 22 
C 36.59375 10.671875 30.09375 5.265625 23.5 5.265625 
" id="CMSS17-111"/>
      <path d="M 14.796875 69 
L 7.40625 69 
L 7.40625 0 
L 14.796875 0 
z
" id="CMSS17-108"/>
      <path d="M 40.796875 69 
L 33.40625 69 
L 33.40625 38.09375 
C 30.296875 40.671875 25.203125 43.0625 19.59375 43.0625 
C 10.5 43.0625 3.296875 33.296875 3.296875 21.046875 
C 3.296875 8.78125 10.40625 -1 19.296875 -1 
C 26.203125 -1 30.796875 2.6875 33.203125 4.78125 
L 33.203125 -0.203125 
L 40.796875 -0.203125 
z
M 33.203125 13.0625 
C 33.203125 11.671875 33.203125 10.203125 30.09375 7.53125 
C 28.09375 5.859375 25.703125 5.078125 23.40625 5.078125 
C 18 5.078125 10.90625 9 10.90625 20.9375 
C 10.90625 33.34375 18.90625 37 24.40625 37 
C 28.09375 37 31.09375 35.21875 33.203125 32.265625 
z
" id="CMSS17-100"/>
      <path d="M 54.703125 11.15625 
C 48 6.671875 44.90625 5.375 36.796875 5.375 
C 22.796875 5.375 14.59375 20.359375 14.59375 34.046875 
C 14.59375 48.625 23 63 37.203125 63 
C 43.59375 63 47.796875 61.21875 52.90625 58.046875 
L 54.296875 65.890625 
C 49.5 68.28125 43.40625 69.375 37.296875 69.375 
C 18.09375 69.375 6.203125 51.8125 6.203125 34.046875 
C 6.203125 14.484375 20.296875 -1 36.296875 -1 
C 44.90625 -1 47.90625 -0.296875 55.296875 4.375 
z
" id="CMSS17-67"/>
      <path d="M 37.59375 27.984375 
C 37.59375 37.375 30.90625 43.875 21.90625 43.875 
C 17.5 43.875 12.703125 43.078125 7.203125 39.890625 
L 7.796875 33.359375 
C 10.296875 35.125 14.59375 38 21.796875 38 
C 26.90625 38 30 34.0625 30 27.84375 
L 30 24 
C 14 24 4 19.34375 4 11.34375 
C 4 7.203125 6.5 -1 14.796875 -1 
C 16.296875 -1 24.40625 -1 30.203125 3.390625 
L 30.203125 -0.296875 
L 37.59375 -0.296875 
z
M 30 12.75 
C 30 10.953125 30 8.5625 27 6.78125 
C 24.40625 5.078125 21.09375 5.078125 19.703125 5.078125 
C 14.703125 5.078125 11.296875 7.984375 11.296875 11.625 
C 11.296875 18.921875 26.90625 18.921875 30 18.921875 
z
" id="CMSS17-97"/>
      <path d="M 44.5 43.875 
C 38.796875 43.875 33.90625 42.78125 29.90625 40.890625 
C 26.59375 43.390625 23.203125 43.875 20.90625 43.875 
C 12.203125 43.875 5.59375 36.703125 5.59375 28.34375 
C 5.59375 22.9375 8.59375 18.859375 8.796875 18.671875 
C 7 16.171875 6 13.484375 6 10.5 
C 6 7 7.40625 4.515625 8.5 3.125 
C 3.296875 -0.046875 2.59375 -4.90625 2.59375 -6.796875 
C 2.59375 -14.03125 11.703125 -20 23.40625 -20 
C 35.203125 -20 44.296875 -14.03125 44.296875 -6.6875 
C 44.296875 7 29 7 24.796875 7 
L 16.703125 7 
C 15.203125 7 11.203125 7 11.203125 12.359375 
C 11.203125 14.390625 12.09375 15.6875 12.203125 15.78125 
C 13.703125 14.6875 16.796875 13 20.90625 13 
C 29.203125 13 36.09375 19.96875 36.09375 28.546875 
C 36.09375 33.3125 33.90625 36.796875 33 38 
L 33.296875 38 
C 33.59375 38 37.796875 38 39.296875 38 
C 42.5 38 42.796875 37.953125 45.59375 37.796875 
z
M 20.90625 18.46875 
C 17.5 18.46875 12.703125 20.546875 12.703125 28.484375 
C 12.703125 37.109375 18.203125 38.5 20.796875 38.5 
C 24.203125 38.5 29 36.421875 29 28.484375 
C 29 19.859375 23.5 18.46875 20.90625 18.46875 
M 24.703125 -0.15625 
C 27.09375 -0.15625 37.203125 -0.15625 37.203125 -6.90625 
C 37.203125 -11.15625 31 -14.515625 23.5 -14.515625 
C 15.90625 -14.515625 9.703125 -11.25 9.703125 -6.796875 
C 9.703125 -6.296875 9.703125 -0.15625 16.59375 -0.15625 
z
" id="CMSS17-103"/>
     </defs>
     <g style="fill:#262626;" transform="translate(319.679383 303.526255)scale(0.15 -0.15)">
      <use transform="scale(0.996264)" xlink:href="#CMSS17-69"/>
      <use transform="translate(55.892013 0)scale(0.996264)" xlink:href="#CMSS17-110"/>
      <use transform="translate(104.096956 0)scale(0.996264)" xlink:href="#CMSS17-114"/>
      <use transform="translate(136.006729 0)scale(0.996264)" xlink:href="#CMSS17-105"/>
      <use transform="translate(158.187452 0)scale(0.996264)" xlink:href="#CMSS17-99"/>
      <use transform="translate(199.826274 0)scale(0.996264)" xlink:href="#CMSS17-104"/>
      <use transform="translate(248.031217 0)scale(0.996264)" xlink:href="#CMSS17-109"/>
      <use transform="translate(322.260472 0)scale(0.996264)" xlink:href="#CMSS17-101"/>
      <use transform="translate(363.899294 0)scale(0.996264)" xlink:href="#CMSS17-110"/>
      <use transform="translate(412.104237 0)scale(0.996264)" xlink:href="#CMSS17-116"/>
      <use transform="translate(477.164916 0)scale(0.996264)" xlink:href="#CMSS17-70"/>
      <use transform="translate(527.852022 0)scale(0.996264)" xlink:href="#CMSS17-111"/>
      <use transform="translate(574.695645 0)scale(0.996264)" xlink:href="#CMSS17-108"/>
      <use transform="translate(596.876368 0)scale(0.996264)" xlink:href="#CMSS17-100"/>
      <use transform="translate(676.310424 0)scale(0.996264)" xlink:href="#CMSS17-67"/>
      <use transform="translate(736.166196 0)scale(0.996264)" xlink:href="#CMSS17-104"/>
      <use transform="translate(784.371139 0)scale(0.996264)" xlink:href="#CMSS17-97"/>
      <use transform="translate(829.293059 0)scale(0.996264)" xlink:href="#CMSS17-110"/>
      <use transform="translate(877.498002 0)scale(0.996264)" xlink:href="#CMSS17-103"/>
      <use transform="translate(924.341626 0)scale(0.996264)" xlink:href="#CMSS17-101"/>
     </g>
    </g>
   </g>
   <g id="matplotlib.axis_2">
    <g id="ytick_1">
     <g id="line2d_3"/>
     <g id="text_4">
      <!-- oxoacid metabolic process -->
      <defs>
       <path d="M 24.796875 22.09375 
L 41.5 42.796875 
L 32.796875 42.796875 
L 21.296875 27.765625 
L 9.40625 42.796875 
L 0.5 42.796875 
L 17.796875 22.09375 
L 0 0 
L 8.796875 0 
L 21.296875 17.515625 
L 34.296875 0 
L 43.09375 0 
z
" id="CMSS17-120"/>
       <path d="M 14.90625 69 
L 7.5 69 
L 7.5 -0.203125 
L 15.09375 -0.203125 
L 15.09375 4.28125 
C 18.90625 0.59375 23.5 -1 27.59375 -1 
C 37.203125 -1 45 8.578125 45 21.125 
C 45 32.59375 39 43.0625 30.09375 43.0625 
C 23.796875 43.0625 18.203125 40.484375 14.90625 37.796875 
z
M 15.09375 31.96875 
C 17.296875 34.71875 20.40625 37 24.796875 37 
C 30.703125 37 37.40625 32.765625 37.40625 21.125 
C 37.40625 8.71875 29.40625 5.078125 23.90625 5.078125 
C 21.90625 5.078125 19.796875 5.5625 17.796875 7.25 
C 15.09375 9.609375 15.09375 11.078125 15.09375 12.453125 
z
" id="CMSS17-98"/>
       <path d="M 15.09375 5.203125 
C 18.40625 2.015625 22.90625 -0.078125 27.703125 -0.078125 
C 37 -0.078125 45 9.421875 45 22.0625 
C 45 33.734375 39 44 30.40625 44 
C 25.40625 44 19.40625 42.21875 14.90625 38.625 
L 14.90625 43.203125 
L 7.5 43.203125 
L 7.5 -19 
L 15.09375 -19 
z
M 15.09375 32.8125 
C 15.90625 34 19.296875 37.734375 24.796875 37.734375 
C 31.796875 37.734375 37.40625 30.625 37.40625 22.0625 
C 37.40625 12.296875 30.59375 6 23.90625 6 
C 21.90625 6 19.796875 6.484375 17.796875 8.171875 
C 15.09375 10.53125 15.09375 12 15.09375 13.390625 
z
" id="CMSS17-112"/>
       <path d="M 32.203125 41.046875 
C 26.296875 43.859375 21.703125 43.859375 18.703125 43.859375 
C 11.59375 43.859375 3.09375 41.375 3.09375 31.296875 
C 3.09375 21.234375 14.09375 19.03125 17.09375 18.421875 
C 21.703125 17.53125 26.796875 16.53125 26.796875 11.5625 
C 26.796875 5.265625 19.59375 5.265625 18.296875 5.265625 
C 14.296875 5.265625 8.796875 6.359375 3.796875 9.96875 
L 2.59375 3.28125 
C 8.296875 0 13.796875 -1 18.40625 -1 
C 30.703125 -1 33.796875 6.5 33.796875 12.203125 
C 33.796875 17.09375 31 20.390625 29.09375 21.890625 
C 25.796875 24.5 24.59375 24.796875 16.40625 26.5 
C 15 26.703125 10.09375 27.796875 10.09375 32.28125 
C 10.09375 38 16.40625 38 17.796875 38 
C 24.296875 38 28.296875 35.984375 31 34.5 
z
" id="CMSS17-115"/>
      </defs>
      <g style="fill:#262626;" transform="translate(196.902551 23.587287)scale(0.13 -0.13)">
       <use transform="scale(0.996264)" xlink:href="#CMSS17-111"/>
       <use transform="translate(44.24117 0)scale(0.996264)" xlink:href="#CMSS17-120"/>
       <use transform="translate(87.241311 0)scale(0.996264)" xlink:href="#CMSS17-111"/>
       <use transform="translate(134.084935 0)scale(0.996264)" xlink:href="#CMSS17-97"/>
       <use transform="translate(179.006855 0)scale(0.996264)" xlink:href="#CMSS17-99"/>
       <use transform="translate(220.645677 0)scale(0.996264)" xlink:href="#CMSS17-105"/>
       <use transform="translate(242.826401 0)scale(0.996264)" xlink:href="#CMSS17-100"/>
       <use transform="translate(322.260456 0)scale(0.996264)" xlink:href="#CMSS17-109"/>
       <use transform="translate(396.489711 0)scale(0.996264)" xlink:href="#CMSS17-101"/>
       <use transform="translate(438.128533 0)scale(0.996264)" xlink:href="#CMSS17-116"/>
       <use transform="translate(471.9601 0)scale(0.996264)" xlink:href="#CMSS17-97"/>
       <use transform="translate(516.88202 0)scale(0.996264)" xlink:href="#CMSS17-98"/>
       <use transform="translate(567.689402 0)scale(0.996264)" xlink:href="#CMSS17-111"/>
       <use transform="translate(614.533026 0)scale(0.996264)" xlink:href="#CMSS17-108"/>
       <use transform="translate(636.713749 0)scale(0.996264)" xlink:href="#CMSS17-105"/>
       <use transform="translate(658.894472 0)scale(0.996264)" xlink:href="#CMSS17-99"/>
       <use transform="translate(731.762406 0)scale(0.996264)" xlink:href="#CMSS17-112"/>
       <use transform="translate(777.364896 0)scale(0.996264)" xlink:href="#CMSS17-114"/>
       <use transform="translate(809.274668 0)scale(0.996264)" xlink:href="#CMSS17-111"/>
       <use transform="translate(858.72073 0)scale(0.996264)" xlink:href="#CMSS17-99"/>
       <use transform="translate(900.359553 0)scale(0.996264)" xlink:href="#CMSS17-101"/>
       <use transform="translate(941.998375 0)scale(0.996264)" xlink:href="#CMSS17-115"/>
       <use transform="translate(977.911917 0)scale(0.996264)" xlink:href="#CMSS17-115"/>
      </g>
     </g>
    </g>
    <g id="ytick_2">
     <g id="line2d_4"/>
     <g id="text_5">
      <!-- iron ion binding -->
      <g style="fill:#262626;" transform="translate(251.19751 41.031833)scale(0.13 -0.13)">
       <use transform="scale(0.996264)" xlink:href="#CMSS17-105"/>
       <use transform="translate(22.180723 0)scale(0.996264)" xlink:href="#CMSS17-114"/>
       <use transform="translate(54.090496 0)scale(0.996264)" xlink:href="#CMSS17-111"/>
       <use transform="translate(100.934119 0)scale(0.996264)" xlink:href="#CMSS17-110"/>
       <use transform="translate(180.368175 0)scale(0.996264)" xlink:href="#CMSS17-105"/>
       <use transform="translate(202.548898 0)scale(0.996264)" xlink:href="#CMSS17-111"/>
       <use transform="translate(249.392522 0)scale(0.996264)" xlink:href="#CMSS17-110"/>
       <use transform="translate(328.826577 0)scale(0.996264)" xlink:href="#CMSS17-98"/>
       <use transform="translate(377.031521 0)scale(0.996264)" xlink:href="#CMSS17-105"/>
       <use transform="translate(399.212244 0)scale(0.996264)" xlink:href="#CMSS17-110"/>
       <use transform="translate(447.417187 0)scale(0.996264)" xlink:href="#CMSS17-100"/>
       <use transform="translate(495.62213 0)scale(0.996264)" xlink:href="#CMSS17-105"/>
       <use transform="translate(517.802853 0)scale(0.996264)" xlink:href="#CMSS17-110"/>
       <use transform="translate(566.007796 0)scale(0.996264)" xlink:href="#CMSS17-103"/>
      </g>
     </g>
    </g>
    <g id="ytick_3">
     <g id="line2d_5"/>
     <g id="text_6">
      <!-- immune system process -->
      <defs>
       <path d="M 40.90625 42.796875 
L 33.296875 42.796875 
L 33.296875 15.1875 
C 33.296875 7.78125 27.90625 4.78125 22.203125 4.78125 
C 15.59375 4.78125 15 6.984375 15 11.078125 
L 15 42.796875 
L 7.40625 42.796875 
L 7.40625 10.59375 
C 7.40625 2.796875 10.09375 -1 17 -1 
C 20.40625 -1 28.09375 -0.203125 33.5 4.78125 
L 33.5 0 
L 40.90625 0 
z
" id="CMSS17-117"/>
       <path d="M 41.796875 43 
L 34 43 
C 25.5 20.21875 22.59375 10.96875 22.40625 5.984375 
L 22.296875 5.984375 
C 22 10.875 17.59375 22.8125 14.09375 31.359375 
L 9.40625 43 
L 1.296875 43 
L 19 0.203125 
C 17.90625 -2.78125 16.296875 -7.265625 15.796875 -8.265625 
C 13.59375 -13.828125 12.09375 -13.828125 10.5 -13.828125 
C 10.09375 -13.828125 6.90625 -13.828125 3.296875 -12.640625 
L 3.90625 -19.203125 
C 6.40625 -19.703125 8.90625 -20 10.703125 -20 
C 13.203125 -20 18.203125 -20 22.796875 -7.765625 
z
" id="CMSS17-121"/>
      </defs>
      <g style="fill:#262626;" transform="translate(209.889798 58.476379)scale(0.13 -0.13)">
       <use transform="scale(0.996264)" xlink:href="#CMSS17-105"/>
       <use transform="translate(22.180723 0)scale(0.996264)" xlink:href="#CMSS17-109"/>
       <use transform="translate(96.409977 0)scale(0.996264)" xlink:href="#CMSS17-109"/>
       <use transform="translate(170.639232 0)scale(0.996264)" xlink:href="#CMSS17-117"/>
       <use transform="translate(218.844175 0)scale(0.996264)" xlink:href="#CMSS17-110"/>
       <use transform="translate(267.049118 0)scale(0.996264)" xlink:href="#CMSS17-101"/>
       <use transform="translate(339.917053 0)scale(0.996264)" xlink:href="#CMSS17-115"/>
       <use transform="translate(375.830595 0)scale(0.996264)" xlink:href="#CMSS17-121"/>
       <use transform="translate(418.830737 0)scale(0.996264)" xlink:href="#CMSS17-115"/>
       <use transform="translate(454.744279 0)scale(0.996264)" xlink:href="#CMSS17-116"/>
       <use transform="translate(488.575845 0)scale(0.996264)" xlink:href="#CMSS17-101"/>
       <use transform="translate(530.214667 0)scale(0.996264)" xlink:href="#CMSS17-109"/>
       <use transform="translate(635.673035 0)scale(0.996264)" xlink:href="#CMSS17-112"/>
       <use transform="translate(681.275524 0)scale(0.996264)" xlink:href="#CMSS17-114"/>
       <use transform="translate(713.185296 0)scale(0.996264)" xlink:href="#CMSS17-111"/>
       <use transform="translate(762.631359 0)scale(0.996264)" xlink:href="#CMSS17-99"/>
       <use transform="translate(804.270181 0)scale(0.996264)" xlink:href="#CMSS17-101"/>
       <use transform="translate(845.909003 0)scale(0.996264)" xlink:href="#CMSS17-115"/>
       <use transform="translate(881.822545 0)scale(0.996264)" xlink:href="#CMSS17-115"/>
      </g>
     </g>
    </g>
    <g id="ytick_4">
     <g id="line2d_6"/>
     <g id="text_7">
      <!-- cytoplasm -->
      <g style="fill:#262626;" transform="translate(281.142848 75.920925)scale(0.13 -0.13)">
       <use transform="scale(0.996264)" xlink:href="#CMSS17-99"/>
       <use transform="translate(41.638822 0)scale(0.996264)" xlink:href="#CMSS17-121"/>
       <use transform="translate(84.638964 0)scale(0.996264)" xlink:href="#CMSS17-116"/>
       <use transform="translate(118.47053 0)scale(0.996264)" xlink:href="#CMSS17-111"/>
       <use transform="translate(165.314154 0)scale(0.996264)" xlink:href="#CMSS17-112"/>
       <use transform="translate(213.519097 0)scale(0.996264)" xlink:href="#CMSS17-108"/>
       <use transform="translate(235.69982 0)scale(0.996264)" xlink:href="#CMSS17-97"/>
       <use transform="translate(280.621741 0)scale(0.996264)" xlink:href="#CMSS17-115"/>
       <use transform="translate(316.535283 0)scale(0.996264)" xlink:href="#CMSS17-109"/>
      </g>
     </g>
    </g>
    <g id="ytick_5">
     <g id="line2d_7"/>
     <g id="text_8">
      <!-- catabolic process -->
      <g style="fill:#262626;" transform="translate(244.413076 93.365471)scale(0.13 -0.13)">
       <use transform="scale(0.996264)" xlink:href="#CMSS17-99"/>
       <use transform="translate(41.638822 0)scale(0.996264)" xlink:href="#CMSS17-97"/>
       <use transform="translate(86.560743 0)scale(0.996264)" xlink:href="#CMSS17-116"/>
       <use transform="translate(120.392309 0)scale(0.996264)" xlink:href="#CMSS17-97"/>
       <use transform="translate(165.31423 0)scale(0.996264)" xlink:href="#CMSS17-98"/>
       <use transform="translate(216.121612 0)scale(0.996264)" xlink:href="#CMSS17-111"/>
       <use transform="translate(262.965235 0)scale(0.996264)" xlink:href="#CMSS17-108"/>
       <use transform="translate(285.145958 0)scale(0.996264)" xlink:href="#CMSS17-105"/>
       <use transform="translate(307.326681 0)scale(0.996264)" xlink:href="#CMSS17-99"/>
       <use transform="translate(380.194616 0)scale(0.996264)" xlink:href="#CMSS17-112"/>
       <use transform="translate(425.797105 0)scale(0.996264)" xlink:href="#CMSS17-114"/>
       <use transform="translate(457.706878 0)scale(0.996264)" xlink:href="#CMSS17-111"/>
       <use transform="translate(507.15294 0)scale(0.996264)" xlink:href="#CMSS17-99"/>
       <use transform="translate(548.791762 0)scale(0.996264)" xlink:href="#CMSS17-101"/>
       <use transform="translate(590.430584 0)scale(0.996264)" xlink:href="#CMSS17-115"/>
       <use transform="translate(626.344126 0)scale(0.996264)" xlink:href="#CMSS17-115"/>
      </g>
     </g>
    </g>
    <g id="ytick_6">
     <g id="line2d_8"/>
     <g id="text_9">
      <!-- mitochondrion -->
      <g style="fill:#262626;" transform="translate(258.0329 110.810017)scale(0.13 -0.13)">
       <use transform="scale(0.996264)" xlink:href="#CMSS17-109"/>
       <use transform="translate(74.229254 0)scale(0.996264)" xlink:href="#CMSS17-105"/>
       <use transform="translate(96.409977 0)scale(0.996264)" xlink:href="#CMSS17-116"/>
       <use transform="translate(130.241544 0)scale(0.996264)" xlink:href="#CMSS17-111"/>
       <use transform="translate(179.687606 0)scale(0.996264)" xlink:href="#CMSS17-99"/>
       <use transform="translate(221.326428 0)scale(0.996264)" xlink:href="#CMSS17-104"/>
       <use transform="translate(269.531372 0)scale(0.996264)" xlink:href="#CMSS17-111"/>
       <use transform="translate(316.374995 0)scale(0.996264)" xlink:href="#CMSS17-110"/>
       <use transform="translate(364.579938 0)scale(0.996264)" xlink:href="#CMSS17-100"/>
       <use transform="translate(412.784881 0)scale(0.996264)" xlink:href="#CMSS17-114"/>
       <use transform="translate(444.694654 0)scale(0.996264)" xlink:href="#CMSS17-105"/>
       <use transform="translate(466.875377 0)scale(0.996264)" xlink:href="#CMSS17-111"/>
       <use transform="translate(513.719001 0)scale(0.996264)" xlink:href="#CMSS17-110"/>
      </g>
     </g>
    </g>
    <g id="ytick_7">
     <g id="line2d_9"/>
     <g id="text_10">
      <!-- oxidoreductase activity, acting on CH-OH group of donors -->
      <defs>
       <path d="M 41.796875 43 
L 34 43 
L 27.296875 24.3125 
C 25.203125 18.203125 22.203125 9.796875 21.703125 5.5 
L 21.59375 5.5 
C 21.40625 7.3125 20.59375 9.90625 20.09375 11.703125 
C 19.5 13.90625 18.703125 16.5 18.09375 18.3125 
L 9.296875 43 
L 1.296875 43 
L 17.09375 0 
L 26 0 
z
" id="CMSS17-118"/>
       <path d="M 17 0.09375 
L 17 7.96875 
L 9 7.96875 
L 9 0 
L 11.5 0 
L 8.90625 -12.5 
L 12.90625 -12.5 
z
" id="CMSS17-44"/>
       <path d="M 57.40625 69 
L 49 69 
L 49 39.078125 
L 17.203125 39.078125 
L 17.203125 69 
L 8.796875 69 
L 8.796875 0 
L 17.203125 0 
L 17.203125 33 
L 49 33 
L 49 0 
L 57.40625 0 
z
" id="CMSS17-72"/>
       <path d="M 26 19 
L 26 24.765625 
L 1 24.765625 
L 1 19 
z
" id="CMSS17-45"/>
       <path d="M 64 34.03125 
C 64 54.734375 50.296875 70.265625 34.59375 70.265625 
C 18.90625 70.265625 5.203125 54.640625 5.203125 34.03125 
C 5.203125 13.234375 19.09375 -2 34.59375 -2 
C 50.09375 -2 64 13.234375 64 34.03125 
M 34.59375 4.265625 
C 23.59375 4.265625 13.59375 16.515625 13.59375 35.328125 
C 13.59375 53.640625 24.203125 64 34.59375 64 
C 45 64 55.59375 53.640625 55.59375 35.328125 
C 55.59375 16.421875 45.5 4.265625 34.59375 4.265625 
" id="CMSS17-79"/>
       <path d="M 16.796875 37 
L 26.90625 37 
L 26.90625 42.765625 
L 16.59375 42.765625 
L 16.59375 55.609375 
C 16.59375 62.71875 22 63.9375 25.09375 63.9375 
C 26.09375 63.9375 28.90625 63.9375 32.5 62.640625 
L 32.5 69.203125 
C 30.203125 69.703125 27.40625 70 25.203125 70 
C 15.90625 70 9.40625 62.390625 9.40625 52.484375 
L 9.40625 42.765625 
L 2.5 42.765625 
L 2.5 37 
L 9.40625 37 
L 9.40625 0 
L 16.796875 0 
z
" id="CMSS17-102"/>
      </defs>
      <g style="fill:#262626;" transform="translate(27.651469 128.254563)scale(0.13 -0.13)">
       <use transform="scale(0.996264)" xlink:href="#CMSS17-111"/>
       <use transform="translate(44.24117 0)scale(0.996264)" xlink:href="#CMSS17-120"/>
       <use transform="translate(87.241311 0)scale(0.996264)" xlink:href="#CMSS17-105"/>
       <use transform="translate(109.422034 0)scale(0.996264)" xlink:href="#CMSS17-100"/>
       <use transform="translate(157.626977 0)scale(0.996264)" xlink:href="#CMSS17-111"/>
       <use transform="translate(201.868147 0)scale(0.996264)" xlink:href="#CMSS17-114"/>
       <use transform="translate(233.77792 0)scale(0.996264)" xlink:href="#CMSS17-101"/>
       <use transform="translate(275.416742 0)scale(0.996264)" xlink:href="#CMSS17-100"/>
       <use transform="translate(323.621685 0)scale(0.996264)" xlink:href="#CMSS17-117"/>
       <use transform="translate(371.826628 0)scale(0.996264)" xlink:href="#CMSS17-99"/>
       <use transform="translate(413.46545 0)scale(0.996264)" xlink:href="#CMSS17-116"/>
       <use transform="translate(447.297017 0)scale(0.996264)" xlink:href="#CMSS17-97"/>
       <use transform="translate(492.218937 0)scale(0.996264)" xlink:href="#CMSS17-115"/>
       <use transform="translate(528.132479 0)scale(0.996264)" xlink:href="#CMSS17-101"/>
       <use transform="translate(601.000414 0)scale(0.996264)" xlink:href="#CMSS17-97"/>
       <use transform="translate(645.922335 0)scale(0.996264)" xlink:href="#CMSS17-99"/>
       <use transform="translate(687.561157 0)scale(0.996264)" xlink:href="#CMSS17-116"/>
       <use transform="translate(721.392723 0)scale(0.996264)" xlink:href="#CMSS17-105"/>
       <use transform="translate(743.573446 0)scale(0.996264)" xlink:href="#CMSS17-118"/>
       <use transform="translate(786.573588 0)scale(0.996264)" xlink:href="#CMSS17-105"/>
       <use transform="translate(808.754311 0)scale(0.996264)" xlink:href="#CMSS17-116"/>
       <use transform="translate(839.983424 0)scale(0.996264)" xlink:href="#CMSS17-121"/>
       <use transform="translate(875.17631 0)scale(0.996264)" xlink:href="#CMSS17-44"/>
       <use transform="translate(932.429628 0)scale(0.996264)" xlink:href="#CMSS17-97"/>
       <use transform="translate(977.351549 0)scale(0.996264)" xlink:href="#CMSS17-99"/>
       <use transform="translate(1018.990371 0)scale(0.996264)" xlink:href="#CMSS17-116"/>
       <use transform="translate(1052.821937 0)scale(0.996264)" xlink:href="#CMSS17-105"/>
       <use transform="translate(1075.00266 0)scale(0.996264)" xlink:href="#CMSS17-110"/>
       <use transform="translate(1123.207603 0)scale(0.996264)" xlink:href="#CMSS17-103"/>
       <use transform="translate(1201.28034 0)scale(0.996264)" xlink:href="#CMSS17-111"/>
       <use transform="translate(1248.123963 0)scale(0.996264)" xlink:href="#CMSS17-110"/>
       <use transform="translate(1327.558019 0)scale(0.996264)" xlink:href="#CMSS17-67"/>
       <use transform="translate(1387.413791 0)scale(0.996264)" xlink:href="#CMSS17-72"/>
       <use transform="translate(1453.47531 0)scale(0.996264)" xlink:href="#CMSS17-45"/>
       <use transform="translate(1484.704423 0)scale(0.996264)" xlink:href="#CMSS17-79"/>
       <use transform="translate(1553.728678 0)scale(0.996264)" xlink:href="#CMSS17-72"/>
       <use transform="translate(1651.01931 0)scale(0.996264)" xlink:href="#CMSS17-103"/>
       <use transform="translate(1697.862933 0)scale(0.996264)" xlink:href="#CMSS17-114"/>
       <use transform="translate(1729.772706 0)scale(0.996264)" xlink:href="#CMSS17-111"/>
       <use transform="translate(1776.61633 0)scale(0.996264)" xlink:href="#CMSS17-117"/>
       <use transform="translate(1824.821273 0)scale(0.996264)" xlink:href="#CMSS17-112"/>
       <use transform="translate(1904.255329 0)scale(0.996264)" xlink:href="#CMSS17-111"/>
       <use transform="translate(1951.098952 0)scale(0.996264)" xlink:href="#CMSS17-102"/>
       <use transform="translate(2010.954724 0)scale(0.996264)" xlink:href="#CMSS17-100"/>
       <use transform="translate(2059.159667 0)scale(0.996264)" xlink:href="#CMSS17-111"/>
       <use transform="translate(2106.00329 0)scale(0.996264)" xlink:href="#CMSS17-110"/>
       <use transform="translate(2154.208233 0)scale(0.996264)" xlink:href="#CMSS17-111"/>
       <use transform="translate(2198.449403 0)scale(0.996264)" xlink:href="#CMSS17-114"/>
       <use transform="translate(2230.359176 0)scale(0.996264)" xlink:href="#CMSS17-115"/>
      </g>
     </g>
    </g>
    <g id="ytick_8">
     <g id="line2d_10"/>
     <g id="text_11">
      <!-- glycosyl compound metabolic process -->
      <g style="fill:#262626;" transform="translate(136.533673 145.699109)scale(0.13 -0.13)">
       <use transform="scale(0.996264)" xlink:href="#CMSS17-103"/>
       <use transform="translate(46.843624 0)scale(0.996264)" xlink:href="#CMSS17-108"/>
       <use transform="translate(69.024347 0)scale(0.996264)" xlink:href="#CMSS17-121"/>
       <use transform="translate(112.024488 0)scale(0.996264)" xlink:href="#CMSS17-99"/>
       <use transform="translate(153.66331 0)scale(0.996264)" xlink:href="#CMSS17-111"/>
       <use transform="translate(200.506934 0)scale(0.996264)" xlink:href="#CMSS17-115"/>
       <use transform="translate(236.420476 0)scale(0.996264)" xlink:href="#CMSS17-121"/>
       <use transform="translate(279.420618 0)scale(0.996264)" xlink:href="#CMSS17-108"/>
       <use transform="translate(332.830453 0)scale(0.996264)" xlink:href="#CMSS17-99"/>
       <use transform="translate(374.469275 0)scale(0.996264)" xlink:href="#CMSS17-111"/>
       <use transform="translate(421.312899 0)scale(0.996264)" xlink:href="#CMSS17-109"/>
       <use transform="translate(495.542153 0)scale(0.996264)" xlink:href="#CMSS17-112"/>
       <use transform="translate(546.349535 0)scale(0.996264)" xlink:href="#CMSS17-111"/>
       <use transform="translate(593.193159 0)scale(0.996264)" xlink:href="#CMSS17-117"/>
       <use transform="translate(641.398102 0)scale(0.996264)" xlink:href="#CMSS17-110"/>
       <use transform="translate(689.603045 0)scale(0.996264)" xlink:href="#CMSS17-100"/>
       <use transform="translate(769.037101 0)scale(0.996264)" xlink:href="#CMSS17-109"/>
       <use transform="translate(843.266355 0)scale(0.996264)" xlink:href="#CMSS17-101"/>
       <use transform="translate(884.905177 0)scale(0.996264)" xlink:href="#CMSS17-116"/>
       <use transform="translate(918.736744 0)scale(0.996264)" xlink:href="#CMSS17-97"/>
       <use transform="translate(963.658665 0)scale(0.996264)" xlink:href="#CMSS17-98"/>
       <use transform="translate(1014.466047 0)scale(0.996264)" xlink:href="#CMSS17-111"/>
       <use transform="translate(1061.30967 0)scale(0.996264)" xlink:href="#CMSS17-108"/>
       <use transform="translate(1083.490393 0)scale(0.996264)" xlink:href="#CMSS17-105"/>
       <use transform="translate(1105.671116 0)scale(0.996264)" xlink:href="#CMSS17-99"/>
       <use transform="translate(1178.539051 0)scale(0.996264)" xlink:href="#CMSS17-112"/>
       <use transform="translate(1224.14154 0)scale(0.996264)" xlink:href="#CMSS17-114"/>
       <use transform="translate(1256.051313 0)scale(0.996264)" xlink:href="#CMSS17-111"/>
       <use transform="translate(1305.497375 0)scale(0.996264)" xlink:href="#CMSS17-99"/>
       <use transform="translate(1347.136197 0)scale(0.996264)" xlink:href="#CMSS17-101"/>
       <use transform="translate(1388.775019 0)scale(0.996264)" xlink:href="#CMSS17-115"/>
       <use transform="translate(1424.688561 0)scale(0.996264)" xlink:href="#CMSS17-115"/>
      </g>
     </g>
    </g>
    <g id="ytick_9">
     <g id="line2d_11"/>
     <g id="text_12">
      <!-- lytic vacuole -->
      <g style="fill:#262626;" transform="translate(268.765678 163.143655)scale(0.13 -0.13)">
       <use transform="scale(0.996264)" xlink:href="#CMSS17-108"/>
       <use transform="translate(22.180723 0)scale(0.996264)" xlink:href="#CMSS17-121"/>
       <use transform="translate(65.180865 0)scale(0.996264)" xlink:href="#CMSS17-116"/>
       <use transform="translate(99.012431 0)scale(0.996264)" xlink:href="#CMSS17-105"/>
       <use transform="translate(121.193154 0)scale(0.996264)" xlink:href="#CMSS17-99"/>
       <use transform="translate(194.061089 0)scale(0.996264)" xlink:href="#CMSS17-118"/>
       <use transform="translate(237.061231 0)scale(0.996264)" xlink:href="#CMSS17-97"/>
       <use transform="translate(281.983152 0)scale(0.996264)" xlink:href="#CMSS17-99"/>
       <use transform="translate(323.621974 0)scale(0.996264)" xlink:href="#CMSS17-117"/>
       <use transform="translate(371.826917 0)scale(0.996264)" xlink:href="#CMSS17-111"/>
       <use transform="translate(418.67054 0)scale(0.996264)" xlink:href="#CMSS17-108"/>
       <use transform="translate(440.851263 0)scale(0.996264)" xlink:href="#CMSS17-101"/>
      </g>
     </g>
    </g>
    <g id="ytick_10">
     <g id="line2d_12"/>
     <g id="text_13">
      <!-- nucleoside phosphate metabolic process -->
      <g style="fill:#262626;" transform="translate(124.897013 180.588201)scale(0.13 -0.13)">
       <use transform="scale(0.996264)" xlink:href="#CMSS17-110"/>
       <use transform="translate(48.204943 0)scale(0.996264)" xlink:href="#CMSS17-117"/>
       <use transform="translate(96.409886 0)scale(0.996264)" xlink:href="#CMSS17-99"/>
       <use transform="translate(138.048708 0)scale(0.996264)" xlink:href="#CMSS17-108"/>
       <use transform="translate(160.229431 0)scale(0.996264)" xlink:href="#CMSS17-101"/>
       <use transform="translate(201.868253 0)scale(0.996264)" xlink:href="#CMSS17-111"/>
       <use transform="translate(248.711877 0)scale(0.996264)" xlink:href="#CMSS17-115"/>
       <use transform="translate(284.625419 0)scale(0.996264)" xlink:href="#CMSS17-105"/>
       <use transform="translate(306.806142 0)scale(0.996264)" xlink:href="#CMSS17-100"/>
       <use transform="translate(355.011085 0)scale(0.996264)" xlink:href="#CMSS17-101"/>
       <use transform="translate(427.87902 0)scale(0.996264)" xlink:href="#CMSS17-112"/>
       <use transform="translate(476.083963 0)scale(0.996264)" xlink:href="#CMSS17-104"/>
       <use transform="translate(524.288906 0)scale(0.996264)" xlink:href="#CMSS17-111"/>
       <use transform="translate(571.13253 0)scale(0.996264)" xlink:href="#CMSS17-115"/>
       <use transform="translate(607.046072 0)scale(0.996264)" xlink:href="#CMSS17-112"/>
       <use transform="translate(655.251015 0)scale(0.996264)" xlink:href="#CMSS17-104"/>
       <use transform="translate(703.455958 0)scale(0.996264)" xlink:href="#CMSS17-97"/>
       <use transform="translate(748.377879 0)scale(0.996264)" xlink:href="#CMSS17-116"/>
       <use transform="translate(782.209445 0)scale(0.996264)" xlink:href="#CMSS17-101"/>
       <use transform="translate(855.07738 0)scale(0.996264)" xlink:href="#CMSS17-109"/>
       <use transform="translate(929.306635 0)scale(0.996264)" xlink:href="#CMSS17-101"/>
       <use transform="translate(970.945457 0)scale(0.996264)" xlink:href="#CMSS17-116"/>
       <use transform="translate(1004.777023 0)scale(0.996264)" xlink:href="#CMSS17-97"/>
       <use transform="translate(1049.698944 0)scale(0.996264)" xlink:href="#CMSS17-98"/>
       <use transform="translate(1100.506326 0)scale(0.996264)" xlink:href="#CMSS17-111"/>
       <use transform="translate(1147.349949 0)scale(0.996264)" xlink:href="#CMSS17-108"/>
       <use transform="translate(1169.530672 0)scale(0.996264)" xlink:href="#CMSS17-105"/>
       <use transform="translate(1191.711395 0)scale(0.996264)" xlink:href="#CMSS17-99"/>
       <use transform="translate(1264.57933 0)scale(0.996264)" xlink:href="#CMSS17-112"/>
       <use transform="translate(1310.181819 0)scale(0.996264)" xlink:href="#CMSS17-114"/>
       <use transform="translate(1342.091592 0)scale(0.996264)" xlink:href="#CMSS17-111"/>
       <use transform="translate(1391.537654 0)scale(0.996264)" xlink:href="#CMSS17-99"/>
       <use transform="translate(1433.176476 0)scale(0.996264)" xlink:href="#CMSS17-101"/>
       <use transform="translate(1474.815298 0)scale(0.996264)" xlink:href="#CMSS17-115"/>
       <use transform="translate(1510.72884 0)scale(0.996264)" xlink:href="#CMSS17-115"/>
      </g>
     </g>
    </g>
    <g id="ytick_11">
     <g id="line2d_13"/>
     <g id="text_14">
      <!-- electron carrier activity -->
      <g style="fill:#262626;" transform="translate(212.883303 198.032747)scale(0.13 -0.13)">
       <use transform="scale(0.996264)" xlink:href="#CMSS17-101"/>
       <use transform="translate(41.638822 0)scale(0.996264)" xlink:href="#CMSS17-108"/>
       <use transform="translate(63.819545 0)scale(0.996264)" xlink:href="#CMSS17-101"/>
       <use transform="translate(105.458367 0)scale(0.996264)" xlink:href="#CMSS17-99"/>
       <use transform="translate(147.097189 0)scale(0.996264)" xlink:href="#CMSS17-116"/>
       <use transform="translate(180.928756 0)scale(0.996264)" xlink:href="#CMSS17-114"/>
       <use transform="translate(212.838528 0)scale(0.996264)" xlink:href="#CMSS17-111"/>
       <use transform="translate(259.682152 0)scale(0.996264)" xlink:href="#CMSS17-110"/>
       <use transform="translate(339.116208 0)scale(0.996264)" xlink:href="#CMSS17-99"/>
       <use transform="translate(380.75503 0)scale(0.996264)" xlink:href="#CMSS17-97"/>
       <use transform="translate(423.074497 0)scale(0.996264)" xlink:href="#CMSS17-114"/>
       <use transform="translate(454.984269 0)scale(0.996264)" xlink:href="#CMSS17-114"/>
       <use transform="translate(486.894042 0)scale(0.996264)" xlink:href="#CMSS17-105"/>
       <use transform="translate(509.074765 0)scale(0.996264)" xlink:href="#CMSS17-101"/>
       <use transform="translate(550.713587 0)scale(0.996264)" xlink:href="#CMSS17-114"/>
       <use transform="translate(613.852472 0)scale(0.996264)" xlink:href="#CMSS17-97"/>
       <use transform="translate(658.774393 0)scale(0.996264)" xlink:href="#CMSS17-99"/>
       <use transform="translate(700.413215 0)scale(0.996264)" xlink:href="#CMSS17-116"/>
       <use transform="translate(734.244782 0)scale(0.996264)" xlink:href="#CMSS17-105"/>
       <use transform="translate(756.425505 0)scale(0.996264)" xlink:href="#CMSS17-118"/>
       <use transform="translate(799.425646 0)scale(0.996264)" xlink:href="#CMSS17-105"/>
       <use transform="translate(821.606369 0)scale(0.996264)" xlink:href="#CMSS17-116"/>
       <use transform="translate(852.835482 0)scale(0.996264)" xlink:href="#CMSS17-121"/>
      </g>
     </g>
    </g>
    <g id="ytick_12">
     <g id="line2d_14"/>
     <g id="text_15">
      <!-- ribose phosphate metabolic process -->
      <g style="fill:#262626;" transform="translate(147.501805 215.477293)scale(0.13 -0.13)">
       <use transform="scale(0.996264)" xlink:href="#CMSS17-114"/>
       <use transform="translate(31.909773 0)scale(0.996264)" xlink:href="#CMSS17-105"/>
       <use transform="translate(54.090496 0)scale(0.996264)" xlink:href="#CMSS17-98"/>
       <use transform="translate(104.897877 0)scale(0.996264)" xlink:href="#CMSS17-111"/>
       <use transform="translate(151.741501 0)scale(0.996264)" xlink:href="#CMSS17-115"/>
       <use transform="translate(187.655043 0)scale(0.996264)" xlink:href="#CMSS17-101"/>
       <use transform="translate(260.522978 0)scale(0.996264)" xlink:href="#CMSS17-112"/>
       <use transform="translate(308.727921 0)scale(0.996264)" xlink:href="#CMSS17-104"/>
       <use transform="translate(356.932864 0)scale(0.996264)" xlink:href="#CMSS17-111"/>
       <use transform="translate(403.776488 0)scale(0.996264)" xlink:href="#CMSS17-115"/>
       <use transform="translate(439.69003 0)scale(0.996264)" xlink:href="#CMSS17-112"/>
       <use transform="translate(487.894973 0)scale(0.996264)" xlink:href="#CMSS17-104"/>
       <use transform="translate(536.099916 0)scale(0.996264)" xlink:href="#CMSS17-97"/>
       <use transform="translate(581.021836 0)scale(0.996264)" xlink:href="#CMSS17-116"/>
       <use transform="translate(614.853403 0)scale(0.996264)" xlink:href="#CMSS17-101"/>
       <use transform="translate(687.721338 0)scale(0.996264)" xlink:href="#CMSS17-109"/>
       <use transform="translate(761.950592 0)scale(0.996264)" xlink:href="#CMSS17-101"/>
       <use transform="translate(803.589414 0)scale(0.996264)" xlink:href="#CMSS17-116"/>
       <use transform="translate(837.420981 0)scale(0.996264)" xlink:href="#CMSS17-97"/>
       <use transform="translate(882.342902 0)scale(0.996264)" xlink:href="#CMSS17-98"/>
       <use transform="translate(933.150284 0)scale(0.996264)" xlink:href="#CMSS17-111"/>
       <use transform="translate(979.993907 0)scale(0.996264)" xlink:href="#CMSS17-108"/>
       <use transform="translate(1002.17463 0)scale(0.996264)" xlink:href="#CMSS17-105"/>
       <use transform="translate(1024.355353 0)scale(0.996264)" xlink:href="#CMSS17-99"/>
       <use transform="translate(1097.223288 0)scale(0.996264)" xlink:href="#CMSS17-112"/>
       <use transform="translate(1142.825777 0)scale(0.996264)" xlink:href="#CMSS17-114"/>
       <use transform="translate(1174.73555 0)scale(0.996264)" xlink:href="#CMSS17-111"/>
       <use transform="translate(1224.181612 0)scale(0.996264)" xlink:href="#CMSS17-99"/>
       <use transform="translate(1265.820434 0)scale(0.996264)" xlink:href="#CMSS17-101"/>
       <use transform="translate(1307.459256 0)scale(0.996264)" xlink:href="#CMSS17-115"/>
       <use transform="translate(1343.372798 0)scale(0.996264)" xlink:href="#CMSS17-115"/>
      </g>
     </g>
    </g>
    <g id="ytick_13">
     <g id="line2d_15"/>
     <g id="text_16">
      <!-- small molecule catabolic process -->
      <g style="fill:#262626;" transform="translate(163.283186 232.921839)scale(0.13 -0.13)">
       <use transform="scale(0.996264)" xlink:href="#CMSS17-115"/>
       <use transform="translate(35.913542 0)scale(0.996264)" xlink:href="#CMSS17-109"/>
       <use transform="translate(110.142796 0)scale(0.996264)" xlink:href="#CMSS17-97"/>
       <use transform="translate(155.064717 0)scale(0.996264)" xlink:href="#CMSS17-108"/>
       <use transform="translate(177.24544 0)scale(0.996264)" xlink:href="#CMSS17-108"/>
       <use transform="translate(230.655276 0)scale(0.996264)" xlink:href="#CMSS17-109"/>
       <use transform="translate(304.88453 0)scale(0.996264)" xlink:href="#CMSS17-111"/>
       <use transform="translate(351.728154 0)scale(0.996264)" xlink:href="#CMSS17-108"/>
       <use transform="translate(373.908877 0)scale(0.996264)" xlink:href="#CMSS17-101"/>
       <use transform="translate(415.547699 0)scale(0.996264)" xlink:href="#CMSS17-99"/>
       <use transform="translate(457.186521 0)scale(0.996264)" xlink:href="#CMSS17-117"/>
       <use transform="translate(505.391464 0)scale(0.996264)" xlink:href="#CMSS17-108"/>
       <use transform="translate(527.572187 0)scale(0.996264)" xlink:href="#CMSS17-101"/>
       <use transform="translate(600.440122 0)scale(0.996264)" xlink:href="#CMSS17-99"/>
       <use transform="translate(642.078944 0)scale(0.996264)" xlink:href="#CMSS17-97"/>
       <use transform="translate(687.000865 0)scale(0.996264)" xlink:href="#CMSS17-116"/>
       <use transform="translate(720.832431 0)scale(0.996264)" xlink:href="#CMSS17-97"/>
       <use transform="translate(765.754352 0)scale(0.996264)" xlink:href="#CMSS17-98"/>
       <use transform="translate(816.561734 0)scale(0.996264)" xlink:href="#CMSS17-111"/>
       <use transform="translate(863.405357 0)scale(0.996264)" xlink:href="#CMSS17-108"/>
       <use transform="translate(885.58608 0)scale(0.996264)" xlink:href="#CMSS17-105"/>
       <use transform="translate(907.766803 0)scale(0.996264)" xlink:href="#CMSS17-99"/>
       <use transform="translate(980.634738 0)scale(0.996264)" xlink:href="#CMSS17-112"/>
       <use transform="translate(1026.237227 0)scale(0.996264)" xlink:href="#CMSS17-114"/>
       <use transform="translate(1058.147 0)scale(0.996264)" xlink:href="#CMSS17-111"/>
       <use transform="translate(1107.593062 0)scale(0.996264)" xlink:href="#CMSS17-99"/>
       <use transform="translate(1149.231884 0)scale(0.996264)" xlink:href="#CMSS17-101"/>
       <use transform="translate(1190.870706 0)scale(0.996264)" xlink:href="#CMSS17-115"/>
       <use transform="translate(1226.784248 0)scale(0.996264)" xlink:href="#CMSS17-115"/>
      </g>
     </g>
    </g>
    <g id="ytick_14">
     <g id="line2d_16"/>
     <g id="text_17">
      <!-- pyridoxal phosphate binding -->
      <g style="fill:#262626;" transform="translate(187.058728 250.366385)scale(0.13 -0.13)">
       <use transform="scale(0.996264)" xlink:href="#CMSS17-112"/>
       <use transform="translate(45.602489 0)scale(0.996264)" xlink:href="#CMSS17-121"/>
       <use transform="translate(88.602631 0)scale(0.996264)" xlink:href="#CMSS17-114"/>
       <use transform="translate(120.512403 0)scale(0.996264)" xlink:href="#CMSS17-105"/>
       <use transform="translate(142.693126 0)scale(0.996264)" xlink:href="#CMSS17-100"/>
       <use transform="translate(190.89807 0)scale(0.996264)" xlink:href="#CMSS17-111"/>
       <use transform="translate(235.139239 0)scale(0.996264)" xlink:href="#CMSS17-120"/>
       <use transform="translate(278.139381 0)scale(0.996264)" xlink:href="#CMSS17-97"/>
       <use transform="translate(323.061301 0)scale(0.996264)" xlink:href="#CMSS17-108"/>
       <use transform="translate(376.471137 0)scale(0.996264)" xlink:href="#CMSS17-112"/>
       <use transform="translate(424.67608 0)scale(0.996264)" xlink:href="#CMSS17-104"/>
       <use transform="translate(472.881024 0)scale(0.996264)" xlink:href="#CMSS17-111"/>
       <use transform="translate(519.724647 0)scale(0.996264)" xlink:href="#CMSS17-115"/>
       <use transform="translate(555.638189 0)scale(0.996264)" xlink:href="#CMSS17-112"/>
       <use transform="translate(603.843132 0)scale(0.996264)" xlink:href="#CMSS17-104"/>
       <use transform="translate(652.048075 0)scale(0.996264)" xlink:href="#CMSS17-97"/>
       <use transform="translate(696.969996 0)scale(0.996264)" xlink:href="#CMSS17-116"/>
       <use transform="translate(730.801563 0)scale(0.996264)" xlink:href="#CMSS17-101"/>
       <use transform="translate(803.669497 0)scale(0.996264)" xlink:href="#CMSS17-98"/>
       <use transform="translate(851.874441 0)scale(0.996264)" xlink:href="#CMSS17-105"/>
       <use transform="translate(874.055164 0)scale(0.996264)" xlink:href="#CMSS17-110"/>
       <use transform="translate(922.260107 0)scale(0.996264)" xlink:href="#CMSS17-100"/>
       <use transform="translate(970.46505 0)scale(0.996264)" xlink:href="#CMSS17-105"/>
       <use transform="translate(992.645773 0)scale(0.996264)" xlink:href="#CMSS17-110"/>
       <use transform="translate(1040.850716 0)scale(0.996264)" xlink:href="#CMSS17-103"/>
      </g>
     </g>
    </g>
    <g id="ytick_15">
     <g id="line2d_17"/>
     <g id="text_18">
      <!-- respiratory chain -->
      <g style="fill:#262626;" transform="translate(246.666072 267.810931)scale(0.13 -0.13)">
       <use transform="scale(0.996264)" xlink:href="#CMSS17-114"/>
       <use transform="translate(31.909773 0)scale(0.996264)" xlink:href="#CMSS17-101"/>
       <use transform="translate(73.548595 0)scale(0.996264)" xlink:href="#CMSS17-115"/>
       <use transform="translate(109.462137 0)scale(0.996264)" xlink:href="#CMSS17-112"/>
       <use transform="translate(157.66708 0)scale(0.996264)" xlink:href="#CMSS17-105"/>
       <use transform="translate(179.847803 0)scale(0.996264)" xlink:href="#CMSS17-114"/>
       <use transform="translate(211.757575 0)scale(0.996264)" xlink:href="#CMSS17-97"/>
       <use transform="translate(256.679496 0)scale(0.996264)" xlink:href="#CMSS17-116"/>
       <use transform="translate(290.511063 0)scale(0.996264)" xlink:href="#CMSS17-111"/>
       <use transform="translate(334.752232 0)scale(0.996264)" xlink:href="#CMSS17-114"/>
       <use transform="translate(366.662005 0)scale(0.996264)" xlink:href="#CMSS17-121"/>
       <use transform="translate(440.891259 0)scale(0.996264)" xlink:href="#CMSS17-99"/>
       <use transform="translate(482.530081 0)scale(0.996264)" xlink:href="#CMSS17-104"/>
       <use transform="translate(530.735024 0)scale(0.996264)" xlink:href="#CMSS17-97"/>
       <use transform="translate(575.656945 0)scale(0.996264)" xlink:href="#CMSS17-105"/>
       <use transform="translate(597.837668 0)scale(0.996264)" xlink:href="#CMSS17-110"/>
      </g>
     </g>
    </g>
    <g id="text_19">
     <!-- Ontology Terms -->
     <defs>
      <path d="M 36.203125 62 
L 44.5 62 
C 45.703125 62 46.90625 62 48.09375 62 
L 60.59375 62 
L 60.59375 68.375 
L 3.40625 68.375 
L 3.40625 62 
L 15.90625 62 
C 17.09375 62 18.296875 62 19.5 62 
L 27.796875 62 
L 27.796875 -0.5 
L 36.203125 -0.5 
z
" id="CMSS17-84"/>
     </defs>
     <g style="fill:#262626;" transform="translate(20.745725 190.182762)rotate(-90)scale(0.15 -0.15)">
      <use transform="scale(0.996264)" xlink:href="#CMSS17-79"/>
      <use transform="translate(69.024255 0)scale(0.996264)" xlink:href="#CMSS17-110"/>
      <use transform="translate(117.229198 0)scale(0.996264)" xlink:href="#CMSS17-116"/>
      <use transform="translate(151.060765 0)scale(0.996264)" xlink:href="#CMSS17-111"/>
      <use transform="translate(197.904389 0)scale(0.996264)" xlink:href="#CMSS17-108"/>
      <use transform="translate(220.085112 0)scale(0.996264)" xlink:href="#CMSS17-111"/>
      <use transform="translate(266.928735 0)scale(0.996264)" xlink:href="#CMSS17-103"/>
      <use transform="translate(313.772359 0)scale(0.996264)" xlink:href="#CMSS17-121"/>
      <use transform="translate(388.001613 0)scale(0.996264)" xlink:href="#CMSS17-84"/>
      <use transform="translate(444.013812 0)scale(0.996264)" xlink:href="#CMSS17-101"/>
      <use transform="translate(485.652634 0)scale(0.996264)" xlink:href="#CMSS17-114"/>
      <use transform="translate(517.562406 0)scale(0.996264)" xlink:href="#CMSS17-109"/>
      <use transform="translate(591.791661 0)scale(0.996264)" xlink:href="#CMSS17-115"/>
     </g>
    </g>
   </g>
   <g id="patch_3">
    <path clip-path="url(#pfcf140ffdb)" d="M 339.549294 12.112455 
L 401.874957 12.112455 
L 401.874957 26.068091 
L 339.549294 26.068091 
z
" style="fill:#ea96a3;"/>
   </g>
   <g id="patch_4">
    <path clip-path="url(#pfcf140ffdb)" d="M 339.549294 29.557001 
L 439.042631 29.557001 
L 439.042631 43.512637 
L 339.549294 43.512637 
z
" style="fill:#e59471;"/>
   </g>
   <g id="patch_5">
    <path clip-path="url(#pfcf140ffdb)" d="M 339.549294 47.001547 
L 402.520923 47.001547 
L 402.520923 60.957183 
L 339.549294 60.957183 
z
" style="fill:#c6994b;"/>
   </g>
   <g id="patch_6">
    <path clip-path="url(#pfcf140ffdb)" d="M 339.549294 64.446093 
L 368.451052 64.446093 
L 368.451052 78.401729 
L 339.549294 78.401729 
z
" style="fill:#ab9e47;"/>
   </g>
   <g id="patch_7">
    <path clip-path="url(#pfcf140ffdb)" d="M 339.549294 81.890639 
L 379.977743 81.890639 
L 379.977743 95.846276 
L 339.549294 95.846276 
z
" style="fill:#91a446;"/>
   </g>
   <g id="patch_8">
    <path clip-path="url(#pfcf140ffdb)" d="M 339.549294 99.335185 
L 383.972518 99.335185 
L 383.972518 113.290822 
L 339.549294 113.290822 
z
" style="fill:#60ae47;"/>
   </g>
   <g id="patch_9">
    <path clip-path="url(#pfcf140ffdb)" d="M 339.549294 116.779731 
L 445.151871 116.779731 
L 445.151871 130.735368 
L 339.549294 130.735368 
z
" style="fill:#49ae83;"/>
   </g>
   <g id="patch_10">
    <path clip-path="url(#pfcf140ffdb)" d="M 339.549294 134.224277 
L 406.02061 134.224277 
L 406.02061 148.179914 
L 339.549294 148.179914 
z
" style="fill:#4aac9b;"/>
   </g>
   <g id="patch_11">
    <path clip-path="url(#pfcf140ffdb)" d="M 339.549294 151.668823 
L 417.218286 151.668823 
L 417.218286 165.62446 
L 339.549294 165.62446 
z
" style="fill:#4cabad;"/>
   </g>
   <g id="patch_12">
    <path clip-path="url(#pfcf140ffdb)" d="M 339.549294 169.113369 
L 392.099148 169.113369 
L 392.099148 183.069006 
L 339.549294 183.069006 
z
" style="fill:#50acc3;"/>
   </g>
   <g id="patch_13">
    <path clip-path="url(#pfcf140ffdb)" d="M 339.549294 186.557915 
L 426.786206 186.557915 
L 426.786206 200.513552 
L 339.549294 200.513552 
z
" style="fill:#6daee2;"/>
   </g>
   <g id="patch_14">
    <path clip-path="url(#pfcf140ffdb)" d="M 339.549294 204.002461 
L 394.27063 204.002461 
L 394.27063 217.958098 
L 339.549294 217.958098 
z
" style="fill:#adabeb;"/>
   </g>
   <g id="patch_15">
    <path clip-path="url(#pfcf140ffdb)" d="M 339.549294 221.447007 
L 408.34183 221.447007 
L 408.34183 235.402644 
L 339.549294 235.402644 
z
" style="fill:#ce9be9;"/>
   </g>
   <g id="patch_16">
    <path clip-path="url(#pfcf140ffdb)" d="M 339.549294 238.891553 
L 430.40736 238.891553 
L 430.40736 252.84719 
L 339.549294 252.84719 
z
" style="fill:#e78bdb;"/>
   </g>
   <g id="patch_17">
    <path clip-path="url(#pfcf140ffdb)" d="M 339.549294 256.336099 
L 422.574769 256.336099 
L 422.574769 270.291736 
L 339.549294 270.291736 
z
" style="fill:#e891bf;"/>
   </g>
   <g id="line2d_18">
    <path clip-path="url(#pfcf140ffdb)" d="M 0 0 
" style="fill:none;stroke:#424242;stroke-linecap:round;stroke-width:3.6;"/>
   </g>
   <g id="line2d_19">
    <path clip-path="url(#pfcf140ffdb)" d="M 0 0 
" style="fill:none;stroke:#424242;stroke-linecap:round;stroke-width:3.6;"/>
   </g>
   <g id="line2d_20">
    <path clip-path="url(#pfcf140ffdb)" d="M 0 0 
" style="fill:none;stroke:#424242;stroke-linecap:round;stroke-width:3.6;"/>
   </g>
   <g id="line2d_21">
    <path clip-path="url(#pfcf140ffdb)" d="M 0 0 
" style="fill:none;stroke:#424242;stroke-linecap:round;stroke-width:3.6;"/>
   </g>
   <g id="line2d_22">
    <path clip-path="url(#pfcf140ffdb)" d="M 0 0 
" style="fill:none;stroke:#424242;stroke-linecap:round;stroke-width:3.6;"/>
   </g>
   <g id="line2d_23">
    <path clip-path="url(#pfcf140ffdb)" d="M 0 0 
" style="fill:none;stroke:#424242;stroke-linecap:round;stroke-width:3.6;"/>
   </g>
   <g id="line2d_24">
    <path clip-path="url(#pfcf140ffdb)" d="M 0 0 
" style="fill:none;stroke:#424242;stroke-linecap:round;stroke-width:3.6;"/>
   </g>
   <g id="line2d_25">
    <path clip-path="url(#pfcf140ffdb)" d="M 0 0 
" style="fill:none;stroke:#424242;stroke-linecap:round;stroke-width:3.6;"/>
   </g>
   <g id="line2d_26">
    <path clip-path="url(#pfcf140ffdb)" d="M 0 0 
" style="fill:none;stroke:#424242;stroke-linecap:round;stroke-width:3.6;"/>
   </g>
   <g id="line2d_27">
    <path clip-path="url(#pfcf140ffdb)" d="M 0 0 
" style="fill:none;stroke:#424242;stroke-linecap:round;stroke-width:3.6;"/>
   </g>
   <g id="line2d_28">
    <path clip-path="url(#pfcf140ffdb)" d="M 0 0 
" style="fill:none;stroke:#424242;stroke-linecap:round;stroke-width:3.6;"/>
   </g>
   <g id="line2d_29">
    <path clip-path="url(#pfcf140ffdb)" d="M 0 0 
" style="fill:none;stroke:#424242;stroke-linecap:round;stroke-width:3.6;"/>
   </g>
   <g id="line2d_30">
    <path clip-path="url(#pfcf140ffdb)" d="M 0 0 
" style="fill:none;stroke:#424242;stroke-linecap:round;stroke-width:3.6;"/>
   </g>
   <g id="line2d_31">
    <path clip-path="url(#pfcf140ffdb)" d="M 0 0 
" style="fill:none;stroke:#424242;stroke-linecap:round;stroke-width:3.6;"/>
   </g>
   <g id="line2d_32">
    <path clip-path="url(#pfcf140ffdb)" d="M 0 0 
" style="fill:none;stroke:#424242;stroke-linecap:round;stroke-width:3.6;"/>
   </g>
   <g id="patch_18">
    <path d="M 339.549294 272.03619 
L 339.549294 10.368 
" style="fill:none;"/>
   </g>
   <g id="patch_19">
    <path d="M 450.432 272.03619 
L 450.432 10.368 
" style="fill:none;"/>
   </g>
   <g id="patch_20">
    <path d="M 339.549294 272.03619 
L 450.432 272.03619 
" style="fill:none;"/>
   </g>
   <g id="patch_21">
    <path d="M 339.549294 10.368 
L 450.432 10.368 
" style="fill:none;"/>
   </g>
  </g>
 </g>
 <defs>
  <clipPath id="pfcf140ffdb">
   <rect height="261.66819" width="110.882706" x="339.549294" y="10.368"/>
  </clipPath>
 </defs>
</svg>
