<?xml version="1.0" encoding="utf-8" standalone="no"?>
<!DOCTYPE svg PUBLIC "-//W3C//DTD SVG 1.1//EN"
  "http://www.w3.org/Graphics/SVG/1.1/DTD/svg11.dtd">
<!-- Created with matplotlib (http://matplotlib.org/) -->
<svg height="353pt" version="1.1" viewBox="0 0 508 353" width="508pt" xmlns="http://www.w3.org/2000/svg" xmlns:xlink="http://www.w3.org/1999/xlink">
 <defs>
  <style type="text/css">
*{stroke-linecap:butt;stroke-linejoin:round;}
  </style>
 </defs>
 <g id="figure_1">
  <g id="patch_1">
   <path d="M 0 353.548374 
L 508.628355 353.548374 
L 508.628355 0 
L 0 0 
z
" style="fill:#ffffff;"/>
  </g>
  <g id="axes_1">
   <g id="patch_2">
    <path d="M 55.028355 306.18 
L 501.428355 306.18 
L 501.428355 7.2 
L 55.028355 7.2 
z
" style="fill:#eaeaf2;"/>
   </g>
   <g id="matplotlib.axis_1">
    <g id="xtick_1">
     <g id="line2d_1"/>
     <g id="text_1">
      <!-- $-1.0$ -->
      <defs>
       <path d="M 9.796875 28.078125 
C 8 27.484375 7.796875 24.78125 9.796875 24.28125 
C 10.296875 24.078125 10.90625 24.1875 11.5 24.1875 
L 64.703125 24.1875 
C 65.90625 24.1875 67.796875 23.78125 68.796875 24.78125 
C 69.90625 25.875 69.296875 27.875 67.703125 28.1875 
C 66.5 28.375 65.09375 28.1875 63.90625 28.1875 
L 11.40625 28.1875 
C 10.90625 28.1875 10.296875 28.28125 9.796875 28.078125 
" id="Computer_Modern_Bright_Math_Symbols-0"/>
       <path d="M 9.703125 60.015625 
L 9.703125 55 
C 15.203125 55 19 56 23.40625 57.90625 
L 23.40625 5.015625 
L 10.296875 5.015625 
L 10.296875 0 
L 43 0 
L 43 5.015625 
L 29.90625 5.015625 
L 29.90625 67 
C 27.5 67 27.90625 66.359375 26 64.875 
C 21.90625 61.71875 16.203125 60.015625 9.703125 60.015625 
" id="Computer_Modern_Bright-49"/>
       <path d="M 10.703125 7.8125 
L 10.703125 0 
L 18.5 0 
L 18.5 7.8125 
z
" id="Computer_Modern_Bright_Math_Slanted-58"/>
       <path d="M 14.796875 63.859375 
C 11.90625 61.859375 9.90625 59.140625 8.40625 56.03125 
C 4.796875 49 4.40625 40.765625 4.40625 31.828125 
C 4.40625 20.578125 6.40625 10.25 12 4.3125 
C 17.296875 -1.203125 25.703125 -2.609375 32.796875 0.296875 
C 37.203125 2.015625 40.40625 5.71875 42.40625 9.734375 
C 46 16.875 46.40625 25.40625 46.40625 34.234375 
C 46.40625 37.046875 46.296875 39.859375 46 42.671875 
C 45.296875 49.40625 43 56.828125 39.296875 60.953125 
C 33.203125 67.6875 22.296875 69.1875 14.796875 63.859375 
M 34.90625 58.140625 
C 39.59375 53.125 40 43.484375 40 34.34375 
L 40 28.921875 
C 40 24.296875 39.203125 18.28125 38.203125 14.859375 
C 36.796875 10.140625 34.5 6.734375 29.90625 4.625 
C 24.296875 2.609375 18.5 4.515625 15.296875 8.9375 
C 11 14.65625 10.796875 24.796875 10.796875 33.734375 
C 10.796875 42.171875 10.90625 51.515625 15 57.03125 
C 19.5 63.0625 29.203125 64.0625 34.90625 58.140625 
" id="Computer_Modern_Bright-48"/>
      </defs>
      <g style="fill:#262626;" transform="translate(84.288033 324.249603)scale(0.16 -0.16)">
       <use transform="scale(0.996264)" xlink:href="#Computer_Modern_Bright_Math_Symbols-0"/>
       <use transform="translate(77.487468 0)scale(0.996264)" xlink:href="#Computer_Modern_Bright-49"/>
       <use transform="translate(128.130685 0)scale(0.996264)" xlink:href="#Computer_Modern_Bright_Math_Slanted-58"/>
       <use transform="translate(157.188132 0)scale(0.996264)" xlink:href="#Computer_Modern_Bright-48"/>
      </g>
     </g>
    </g>
    <g id="xtick_2">
     <g id="line2d_2"/>
     <g id="text_2">
      <!-- $-0.8$ -->
      <defs>
       <path d="M 18.703125 36 
L 18.703125 35.90625 
C 12.5 34.09375 7.296875 30.6875 4.796875 24.84375 
C 2.203125 18.71875 4 11.28125 8.40625 6.453125 
C 13.09375 1.421875 19.5 -1 26.296875 -1 
C 36.296875 -1 45.90625 6.40625 47.09375 16.734375 
C 47.296875 18.265625 47.203125 19.890625 47 21.40625 
C 45.203125 29.21875 39.5 33.875 32.09375 35.90625 
C 32.90625 36.203125 33.796875 36.40625 34.59375 36.703125 
C 38.796875 38.421875 42.296875 40.921875 44.5 44.9375 
C 47.796875 51.375 44.59375 58.90625 39.203125 63.015625 
C 33.796875 67.140625 26.5 68.234375 19.90625 66.828125 
C 12 65.125 4.5 58.40625 5 49.765625 
C 5.203125 46.75 6.5 44.234375 8 42.4375 
C 10.296875 39.625 14.796875 36.609375 18.703125 36 
M 23.796875 62.5 
C 28.203125 62.5 33.703125 62 36.90625 58.578125 
C 40.703125 54.46875 40.90625 47.03125 37.09375 42.8125 
C 34.703125 40.203125 31.203125 38.890625 27.703125 38.59375 
C 22.796875 38.1875 17.203125 39 13.703125 42.8125 
C 9.796875 47.125 10.09375 54.96875 14.296875 58.984375 
C 16.90625 61.390625 20.40625 62.1875 23.796875 62.5 
M 23.703125 33.5 
C 28.40625 33.5 33.5 32.390625 36.90625 28.9375 
C 38.203125 27.53125 39.203125 25.8125 39.796875 24.015625 
C 41.5 18.75 40.703125 12.09375 36.796875 8.046875 
C 34.09375 5.328125 30.40625 4.3125 26.703125 4.015625 
C 22.203125 4.015625 17 5.109375 13.796875 8.5625 
C 9.40625 13.390625 8.5 23.40625 13.703125 29.0625 
C 16.296875 31.78125 20 33.203125 23.703125 33.5 
" id="Computer_Modern_Bright-56"/>
      </defs>
      <g style="fill:#262626;" transform="translate(158.955144 324.249603)scale(0.16 -0.16)">
       <use transform="scale(0.996264)" xlink:href="#Computer_Modern_Bright_Math_Symbols-0"/>
       <use transform="translate(77.487468 0)scale(0.996264)" xlink:href="#Computer_Modern_Bright-48"/>
       <use transform="translate(128.130685 0)scale(0.996264)" xlink:href="#Computer_Modern_Bright_Math_Slanted-58"/>
       <use transform="translate(157.188132 0)scale(0.996264)" xlink:href="#Computer_Modern_Bright-56"/>
      </g>
     </g>
    </g>
    <g id="xtick_3">
     <g id="line2d_3"/>
     <g id="text_3">
      <!-- $-0.6$ -->
      <defs>
       <path d="M 11.296875 32.625 
L 11.203125 32.625 
C 11.203125 41.765625 12.796875 52.421875 20.59375 58.25 
C 24.90625 61.375 30.703125 62.96875 38.203125 61.171875 
C 39.796875 60.765625 41.296875 60.15625 42.796875 59.765625 
L 42.796875 63.28125 
C 42.796875 63.671875 42.90625 64.375 42.59375 64.78125 
C 41.90625 65.6875 36.296875 66.59375 36.09375 66.59375 
C 27.40625 67.59375 21.703125 65.6875 16.40625 61.171875 
C 10 55.640625 6.296875 47.515625 5.09375 39.28125 
C 4 32.65625 4.90625 22 6.203125 16.78125 
C 8.296875 9.046875 12.296875 2.21875 19.703125 -0.390625 
C 24.09375 -2 29.5 -2 33.703125 0.015625 
C 37.09375 1.640625 39.90625 4.46875 42.09375 7.5 
C 45.59375 12.34375 46.5 18.21875 46.09375 24.171875 
C 45.90625 27.109375 45.5 30.046875 44.296875 32.765625 
C 42.40625 37.125 39.203125 41.671875 35.09375 43.6875 
C 33.203125 44.5 31.203125 44.5 29.203125 44.5 
C 23.90625 44.5 18.90625 42.1875 15.203125 38.359375 
C 13.59375 36.75 12 34.71875 11.296875 32.625 
M 24.40625 39.515625 
C 28.203125 39.8125 32.203125 39.21875 35.09375 36.5 
C 38.90625 32.890625 39.59375 27.765625 39.59375 22.8125 
C 39.59375 19.46875 39.703125 16.015625 38.703125 12.859375 
C 38.09375 11.234375 37.296875 9.828125 36.40625 8.5 
C 34.203125 5.5625 31.40625 4.125 26.796875 3.515625 
C 22.296875 3.515625 17.796875 5.3125 15.203125 9.125 
C 13.59375 11.328125 12.796875 14.046875 12.296875 16.640625 
C 11.703125 19.34375 11.296875 22.140625 11.5 24.859375 
C 12 31.984375 17 38.515625 24.40625 39.515625 
" id="Computer_Modern_Bright-54"/>
      </defs>
      <g style="fill:#262626;" transform="translate(233.622256 324.249603)scale(0.16 -0.16)">
       <use transform="scale(0.996264)" xlink:href="#Computer_Modern_Bright_Math_Symbols-0"/>
       <use transform="translate(77.487468 0)scale(0.996264)" xlink:href="#Computer_Modern_Bright-48"/>
       <use transform="translate(128.130685 0)scale(0.996264)" xlink:href="#Computer_Modern_Bright_Math_Slanted-58"/>
       <use transform="translate(157.188132 0)scale(0.996264)" xlink:href="#Computer_Modern_Bright-54"/>
      </g>
     </g>
    </g>
    <g id="xtick_4">
     <g id="line2d_4"/>
     <g id="text_4">
      <!-- $-0.4$ -->
      <defs>
       <path d="M 2.09375 18 
L 31 18 
L 31 0 
L 37.296875 0 
L 37.296875 18 
L 48.703125 18 
L 48.703125 23.328125 
L 37.296875 23.328125 
L 37.296875 66.46875 
L 31.90625 66.46875 
C 30.09375 66.46875 29.59375 66.578125 28.796875 65.0625 
C 24.796875 58.515625 3.703125 25.765625 3 24.859375 
C 2.203125 23.4375 2.09375 23.546875 2.09375 21.4375 
z
M 31.296875 60.875 
L 31.296875 23.328125 
L 8.59375 23.328125 
C 9.296875 24.734375 10.296875 26.03125 11.203125 27.4375 
C 16.203125 35.171875 28.09375 53.546875 30.59375 59.28125 
C 30.90625 59.78125 31 60.375 31.296875 60.875 
" id="Computer_Modern_Bright-52"/>
      </defs>
      <g style="fill:#262626;" transform="translate(308.289367 324.249603)scale(0.16 -0.16)">
       <use transform="scale(0.996264)" xlink:href="#Computer_Modern_Bright_Math_Symbols-0"/>
       <use transform="translate(77.487468 0)scale(0.996264)" xlink:href="#Computer_Modern_Bright-48"/>
       <use transform="translate(128.130685 0)scale(0.996264)" xlink:href="#Computer_Modern_Bright_Math_Slanted-58"/>
       <use transform="translate(157.188132 0)scale(0.996264)" xlink:href="#Computer_Modern_Bright-52"/>
      </g>
     </g>
    </g>
    <g id="xtick_5">
     <g id="line2d_5"/>
     <g id="text_5">
      <!-- $-0.2$ -->
      <defs>
       <path d="M 7.296875 45.96875 
C 8.703125 51.59375 11.09375 57.984375 16.796875 60.5 
C 19.203125 61.5 21.796875 61.703125 24.40625 61.5 
C 29.296875 61.09375 34.09375 59.09375 37.09375 55.09375 
C 39.296875 52.078125 40.09375 48.375 39.703125 44.78125 
C 38.5 34.34375 28.296875 26.84375 21.703125 21.234375 
C 17.90625 18.03125 7.09375 7.8125 7.09375 7.8125 
L 5.40625 6.203125 
C 4.5 5.3125 4.40625 5.3125 4.40625 3.5 
L 4.40625 0 
L 46.40625 0 
L 46.40625 5.625 
L 10.203125 5.625 
C 13.40625 8.734375 26.703125 20.515625 28.5 21.921875 
C 34.296875 26.65625 40.796875 31.375 44.296875 38.21875 
C 48.203125 46.0625 46.5 55.9375 39.90625 61.765625 
C 35.90625 65.296875 30.40625 67 25.09375 67 
C 20.203125 67 15.203125 66 11.296875 62.90625 
C 8.296875 60.390625 5.796875 56.6875 4.40625 52.875 
C 4.09375 52.28125 3.59375 51.28125 3.703125 50.578125 
C 3.796875 49.984375 4.40625 49.484375 4.703125 49.078125 
C 5.5 48.078125 6.296875 46.875 7.296875 45.96875 
" id="Computer_Modern_Bright-50"/>
      </defs>
      <g style="fill:#262626;" transform="translate(382.956479 324.249603)scale(0.16 -0.16)">
       <use transform="scale(0.996264)" xlink:href="#Computer_Modern_Bright_Math_Symbols-0"/>
       <use transform="translate(77.487468 0)scale(0.996264)" xlink:href="#Computer_Modern_Bright-48"/>
       <use transform="translate(128.130685 0)scale(0.996264)" xlink:href="#Computer_Modern_Bright_Math_Slanted-58"/>
       <use transform="translate(157.188132 0)scale(0.996264)" xlink:href="#Computer_Modern_Bright-50"/>
      </g>
     </g>
    </g>
    <g id="xtick_6">
     <g id="line2d_6"/>
     <g id="text_6">
      <!-- $0.0$ -->
      <g style="fill:#262626;" transform="translate(463.822588 324.249603)scale(0.16 -0.16)">
       <use transform="scale(0.996264)" xlink:href="#Computer_Modern_Bright-48"/>
       <use transform="translate(50.643218 0)scale(0.996264)" xlink:href="#Computer_Modern_Bright_Math_Slanted-58"/>
       <use transform="translate(79.700665 0)scale(0.996264)" xlink:href="#Computer_Modern_Bright-48"/>
      </g>
     </g>
    </g>
    <g id="text_7">
     <!-- Epistasis Coefficient -->
     <defs>
      <path d="M 8 69.328125 
L 8 0 
L 55.40625 0 
L 55.40625 5.625 
L 15 5.625 
L 15 33.671875 
L 51.09375 33.671875 
L 51.09375 39 
L 15 39 
L 15 64 
L 54 64 
L 54 69.328125 
z
" id="Computer_Modern_Bright-69"/>
      <path d="M 12.703125 40.53125 
L 12.703125 47.15625 
L 6.40625 47.15625 
L 6.40625 -17 
L 12.796875 -17 
L 12.796875 6.09375 
C 14.203125 4.078125 15.796875 2.28125 17.90625 1.078125 
C 25 -3.25 34 0.171875 38.90625 6.59375 
C 45.40625 14.96875 46.09375 27.5 41.59375 36.984375 
C 39 42.4375 34.09375 47.5 27.796875 48 
C 22.296875 48 18.09375 45.8125 15.09375 43.125 
C 14.203125 42.328125 13.5 41.4375 12.703125 40.53125 
M 21.90625 42.875 
C 26 43.171875 30 41.265625 32.796875 38.265625 
C 34.5 36.34375 35.796875 34.140625 36.59375 31.734375 
C 40.09375 22.296875 36.90625 9.234375 26.796875 5.328125 
C 21 3.109375 15.296875 5.125 13.09375 10.546875 
C 12.59375 11.546875 12.796875 12.859375 12.796875 13.953125 
L 12.796875 34.640625 
C 12.796875 36.953125 13 37.15625 14.5 38.859375 
C 16.296875 41.0625 19 42.578125 21.90625 42.875 
" id="Computer_Modern_Bright-112"/>
      <path d="M 6.40625 70 
L 6.40625 63.671875 
L 12.703125 63.671875 
L 12.703125 70 
z
M 6.40625 47.390625 
L 6.40625 0 
L 12.703125 0 
L 12.703125 47.390625 
z
" id="Computer_Modern_Bright-105"/>
      <path d="M 3.09375 9.640625 
C 2.90625 8.234375 2.59375 6.9375 2.40625 5.53125 
C 2.203125 4.421875 1.90625 3.921875 2.90625 3.421875 
C 7 1.015625 11.90625 -0.296875 17.703125 -0.796875 
C 24.203125 -1.40625 32.40625 0.109375 35.59375 6.53125 
C 36.5 8.34375 37 10.34375 37.09375 12.359375 
C 37.5 19.578125 31.796875 24.203125 26.90625 25.90625 
C 21.40625 28.015625 13.90625 27.3125 10.09375 31.53125 
C 8.09375 33.84375 8 37.265625 9.90625 39.671875 
C 13.90625 45.296875 26.796875 42.875 31.90625 40.375 
C 32.703125 39.96875 33.40625 39.46875 34.296875 39.265625 
L 35.203125 44.6875 
C 30.5 46.796875 26.40625 48 19.90625 48 
C 14.296875 48 9.203125 46.703125 6 43.484375 
C 2.796875 40.171875 1.703125 34.640625 3.59375 30.4375 
C 5.40625 26.40625 9.203125 23.796875 13.296875 22.5 
C 19.203125 20.390625 25.90625 21.390625 29.796875 16.578125 
C 32 13.765625 31.59375 9.546875 29.09375 7.03125 
C 24.296875 2.609375 14.09375 4.21875 8.5 6.625 
C 6.59375 7.4375 4.90625 8.640625 3.09375 9.640625 
" id="Computer_Modern_Bright-115"/>
      <path d="M 10.796875 60.5 
L 10.796875 47.015625 
L 1.09375 47.015625 
L 1.09375 42 
L 10.703125 42 
L 10.703125 15.015625 
C 10.703125 10.578125 10.40625 5.234375 13.296875 1.515625 
C 15 -0.703125 17.296875 -1.296875 20.796875 -1 
C 23.703125 -1 26.59375 -0.390625 29.296875 0.65625 
C 30.203125 1.0625 33.5 2.515625 33.90625 3.234375 
C 34.09375 3.640625 32.796875 8.09375 32.796875 8.09375 
L 30.40625 6.265625 
C 27.296875 4.34375 21.09375 2.328125 18.5 5.96875 
C 16.203125 9.09375 16.796875 13.75 16.796875 17.375 
L 16.796875 42 
L 32.296875 42 
L 32.296875 47.015625 
L 16.796875 47.015625 
L 16.796875 60.5 
z
" id="Computer_Modern_Bright-116"/>
      <path d="M 7.90625 39.015625 
C 9.59375 39.859375 11 41.09375 12.703125 41.921875 
C 15.40625 43.15625 18.203125 44 21.203125 44 
C 22.59375 44.09375 24.203125 44.296875 25.59375 44 
C 28.09375 43.59375 30.296875 42.078125 31.796875 39.953125 
C 33.296875 37.515625 33.90625 35.390625 33.90625 31.46875 
L 33.90625 27.015625 
C 29.09375 27.015625 24.296875 26.609375 19.703125 25.390625 
C 13.90625 24.078125 7.59375 21.125 5.5 15.84375 
C 3.40625 10.78125 5.59375 4.078125 10.09375 1.03125 
C 12.296875 -0.5 14.90625 -0.5 17.5 -0.296875 
C 21.703125 0 25.90625 1.015625 29.5 3.25 
C 31.203125 4.25 32.90625 5.578125 33.90625 7.296875 
L 34 7.296875 
L 34 0.203125 
L 40.296875 0.203125 
L 40.296875 26.890625 
C 40.296875 29.8125 40.59375 32.953125 40 35.890625 
C 39.40625 39.921875 36.90625 43.265625 34 45.59375 
C 30.59375 48.21875 26.703125 49.109375 21.5 48.71875 
C 16.703125 48.71875 13 47.5 9.40625 45.765625 
C 8.90625 45.5625 7.90625 45.234375 7.59375 44.640625 
C 7.296875 44.21875 7.5 43.515625 7.5 43 
C 7.703125 41.671875 7.796875 40.34375 7.90625 39.015625 
M 33.90625 24 
L 33.90625 16.375 
C 33.90625 14.0625 34 11.953125 32.703125 9.953125 
C 31.59375 8.34375 30.09375 7.234375 28.5 6.4375 
C 22.796875 3.515625 14.09375 4.421875 11.59375 9.25 
C 9.59375 12.75 11.703125 16.875 14.59375 19.1875 
C 18.90625 22.5 27.296875 24 33.90625 24 
" id="Computer_Modern_Bright-97"/>
      <path d="M 60.5 10.875 
C 58.5 9.859375 56.703125 8.453125 54.703125 7.453125 
C 50 5.046875 44 4.140625 37.5 4.734375 
C 31.703125 5.546875 26.90625 8.359375 23.40625 11.875 
C 12.203125 23.15625 11.40625 42.96875 21.296875 55.34375 
C 25.5 60.875 31.90625 65 41.296875 65 
C 45.09375 65 49 64.296875 52.5 62.890625 
C 54.59375 61.96875 56.59375 60.765625 58.59375 59.765625 
L 59.796875 66.8125 
C 57.59375 67.671875 55.296875 68.5625 53 69.09375 
C 47.40625 70.625 38.90625 70.625 33.09375 69.21875 
C 22.90625 66.921875 15.5 59.828125 11.296875 51.625 
C 5.5 40.015625 6.203125 25.515625 13.203125 14.59375 
C 15 11.703125 17.296875 9.109375 19.90625 6.890625 
C 25.90625 1.6875 33.296875 -1.3125 43.59375 -0.5 
C 49.796875 -0.5 53.40625 0.515625 58.203125 3.203125 
C 58.703125 3.5 60.59375 4.515625 60.90625 4.9375 
C 61.09375 5.4375 60.59375 9.53125 60.5 10.875 
" id="Computer_Modern_Bright-67"/>
      <path d="M 10.703125 42.078125 
C 1.796875 33.234375 0.796875 17.875 8.5 7.9375 
C 9.59375 6.421875 10.90625 5.125 12.40625 4.015625 
C 16.09375 1 21.5 -1.203125 27.796875 -0.5 
C 37.796875 0.703125 44.703125 8.84375 46.796875 17.375 
C 49.59375 29.328125 43.703125 42.671875 32.703125 46.890625 
C 24.09375 50.40625 15.5 46.890625 10.703125 42.078125 
M 35.703125 39.359375 
C 40.5 35.03125 41.40625 28.109375 41 21.984375 
C 40.703125 17.265625 39.40625 12.34375 36.09375 8.828125 
C 30.703125 3 20.703125 3 14.90625 8.625 
C 11.90625 11.84375 10.09375 16.453125 9.796875 21.984375 
C 9.296875 30.109375 11.296875 38.75 19.296875 41.96875 
C 25.203125 44.578125 32 42.671875 35.703125 39.359375 
" id="Computer_Modern_Bright-111"/>
      <path d="M 41.796875 10.9375 
C 39.5 9.234375 38.796875 8.328125 35.90625 6.8125 
C 29.796875 3.5 22.59375 3.5 17.40625 7.171875 
C 12.40625 10.765625 9.5 16.640625 9.5 25 
L 42.5 25 
C 42.5 32.421875 40.796875 38.859375 36.59375 43.375 
C 32 47.890625 24.796875 49.296875 18.703125 47.390625 
C 16.40625 46.6875 14.296875 45.484375 12.40625 43.96875 
C 6.09375 38.859375 3.40625 30.71875 3.5 22.78125 
C 3.703125 12.34375 10.796875 1.90625 21.296875 -0.3125 
C 26.796875 -1.421875 32.59375 -0.203125 37.5 2.296875 
C 38.40625 2.796875 41.703125 4.609375 42.09375 5.515625 
C 42.40625 6.015625 41.796875 10.9375 41.796875 10.9375 
M 37.203125 28.90625 
L 10 28.90625 
C 11.203125 36.234375 17.203125 43.96875 25.296875 43.0625 
C 31.90625 42.46875 35.40625 37.75 36.703125 31.828125 
C 36.90625 30.8125 37 29.921875 37.203125 28.90625 
" id="Computer_Modern_Bright-101"/>
      <path d="M 10.59375 47.015625 
L 2 47.015625 
L 2 42 
L 10.59375 42 
L 10.59375 0 
L 16.90625 0 
L 16.90625 42 
L 30.09375 42 
L 30.09375 47.015625 
L 16.796875 47.015625 
L 16.796875 56.234375 
C 16.796875 57.890625 16.59375 59.65625 17.296875 61.21875 
C 19.5 65.875 25.40625 65.875 29.59375 65.078125 
C 30.59375 64.875 31.703125 64.46875 32.703125 64.265625 
L 32.703125 69.90625 
C 27.703125 70.609375 22.296875 71.21875 17.703125 68.46875 
C 15.796875 67.4375 14.203125 65.6875 13 63.921875 
C 11.09375 60.9375 10.59375 58.78125 10.59375 53.71875 
z
M 38.09375 0 
L 44.40625 0 
L 44.40625 42 
L 57.59375 42 
L 57.59375 47.015625 
L 44.296875 47.015625 
L 44.296875 55.234375 
C 44.296875 56.890625 44.09375 58.65625 44.40625 60.328125 
C 44.90625 62.296875 46.09375 63.65625 47.703125 64.671875 
C 50.796875 66.171875 54.40625 65.078125 57.59375 64.171875 
L 57.59375 70 
C 55.09375 70.1875 52.703125 70.6875 50.203125 70.5 
C 43.40625 70 38.59375 64.046875 38.09375 57.3125 
C 38 55.890625 38.09375 54.375 38.09375 52.96875 
z
M 65.59375 70 
L 65.59375 63.671875 
L 71.90625 63.671875 
L 71.90625 70 
z
M 65.59375 47.390625 
L 65.59375 0 
L 71.90625 0 
L 71.90625 47.390625 
z
" id="Computer_Modern_Bright-14"/>
      <path d="M 42.40625 11.25 
C 40.5 9.84375 38.796875 8.328125 36.703125 7.125 
C 32 4.625 24.796875 3.421875 19.40625 5.921875 
C 11.59375 9.9375 9.5 19.6875 10.59375 27.71875 
C 10.796875 29.328125 11.09375 30.921875 11.59375 32.4375 
C 13.796875 38.96875 19.296875 44.078125 28.296875 43.078125 
C 33.09375 42.671875 35.5 41.875 39.296875 39.765625 
C 40 39.359375 40.59375 38.859375 41.40625 38.65625 
C 41.5 39.859375 41.796875 41.171875 42 42.375 
C 42.296875 43.984375 42.296875 44.1875 40.796875 44.890625 
C 39.703125 45.390625 38.59375 45.984375 37.40625 46.390625 
C 32.796875 48.40625 25.203125 49 20 47.5 
C 12.90625 45.484375 7.59375 39.359375 5.296875 32.53125 
C 4.203125 29.421875 3.90625 26.109375 3.90625 22.796875 
C 4 12.25 11.203125 1.90625 21.703125 -0.203125 
C 27.5 -1.40625 34.203125 0.296875 38.203125 2.40625 
C 39.203125 2.90625 42.203125 4.71875 42.703125 5.625 
C 43 6.125 42.40625 11.25 42.40625 11.25 
" id="Computer_Modern_Bright-99"/>
      <path d="M 12.59375 37.28125 
L 12.5 37.28125 
L 12.5 47.390625 
L 6.40625 47.390625 
L 6.40625 0 
L 12.796875 0 
L 12.796875 21.9375 
C 12.796875 26.84375 12.5 31.875 14.703125 36.46875 
C 15.796875 38.78125 17.5 40.78125 19.796875 41.984375 
C 21.703125 42.890625 23.703125 42.890625 25.796875 42.6875 
C 28.796875 42.6875 31.703125 41.890625 33.59375 39.375 
C 35.40625 37.0625 35.5 34.0625 35.5 31.25 
L 35.5 0 
L 41.90625 0 
L 41.90625 26.859375 
C 41.90625 31.875 42.40625 37.375 40 41.890625 
C 38.09375 45.5 34.40625 47.203125 30.5 47.703125 
C 28.5 48 26.40625 48 24.40625 47.609375 
C 19.203125 46.5 14.40625 42.296875 12.59375 37.28125 
" id="Computer_Modern_Bright-110"/>
     </defs>
     <g style="fill:#262626;" transform="translate(205.672064 343.359582)scale(0.18 -0.18)">
      <use transform="scale(0.996264)" xlink:href="#Computer_Modern_Bright-69"/>
      <use transform="translate(58.737787 0)scale(0.996264)" xlink:href="#Computer_Modern_Bright-112"/>
      <use transform="translate(106.890284 0)scale(0.996264)" xlink:href="#Computer_Modern_Bright-105"/>
      <use transform="translate(125.985243 0)scale(0.996264)" xlink:href="#Computer_Modern_Bright-115"/>
      <use transform="translate(164.424272 0)scale(0.996264)" xlink:href="#Computer_Modern_Bright-116"/>
      <use transform="translate(200.53866 0)scale(0.996264)" xlink:href="#Computer_Modern_Bright-97"/>
      <use transform="translate(247.030742 0)scale(0.996264)" xlink:href="#Computer_Modern_Bright-115"/>
      <use transform="translate(285.469772 0)scale(0.996264)" xlink:href="#Computer_Modern_Bright-105"/>
      <use transform="translate(304.56473 0)scale(0.996264)" xlink:href="#Computer_Modern_Bright-115"/>
      <use transform="translate(374.468971 0)scale(0.996264)" xlink:href="#Computer_Modern_Bright-67"/>
      <use transform="translate(439.641004 0)scale(0.996264)" xlink:href="#Computer_Modern_Bright-111"/>
      <use transform="translate(490.284222 0)scale(0.996264)" xlink:href="#Computer_Modern_Bright-101"/>
      <use transform="translate(535.115889 0)scale(0.996264)" xlink:href="#Computer_Modern_Bright-14"/>
      <use transform="translate(613.156322 0)scale(0.996264)" xlink:href="#Computer_Modern_Bright-99"/>
      <use transform="translate(657.987989 0)scale(0.996264)" xlink:href="#Computer_Modern_Bright-105"/>
      <use transform="translate(677.082948 0)scale(0.996264)" xlink:href="#Computer_Modern_Bright-101"/>
      <use transform="translate(721.914616 0)scale(0.996264)" xlink:href="#Computer_Modern_Bright-110"/>
      <use transform="translate(770.067113 0)scale(0.996264)" xlink:href="#Computer_Modern_Bright-116"/>
     </g>
    </g>
   </g>
   <g id="matplotlib.axis_2">
    <g id="ytick_1">
     <g id="line2d_7"/>
     <g id="text_8">
      <!-- $0.0$ -->
      <g style="fill:#262626;" transform="translate(26.642062 298.124802)scale(0.16 -0.16)">
       <use transform="scale(0.996264)" xlink:href="#Computer_Modern_Bright-48"/>
       <use transform="translate(50.643218 0)scale(0.996264)" xlink:href="#Computer_Modern_Bright_Math_Slanted-58"/>
       <use transform="translate(79.700665 0)scale(0.996264)" xlink:href="#Computer_Modern_Bright-48"/>
      </g>
     </g>
    </g>
    <g id="ytick_2">
     <g id="line2d_8"/>
     <g id="text_9">
      <!-- $0.2$ -->
      <g style="fill:#262626;" transform="translate(26.642062 243.764728)scale(0.16 -0.16)">
       <use transform="scale(0.996264)" xlink:href="#Computer_Modern_Bright-48"/>
       <use transform="translate(50.643218 0)scale(0.996264)" xlink:href="#Computer_Modern_Bright_Math_Slanted-58"/>
       <use transform="translate(79.700665 0)scale(0.996264)" xlink:href="#Computer_Modern_Bright-50"/>
      </g>
     </g>
    </g>
    <g id="ytick_3">
     <g id="line2d_9"/>
     <g id="text_10">
      <!-- $0.4$ -->
      <g style="fill:#262626;" transform="translate(26.642062 189.404655)scale(0.16 -0.16)">
       <use transform="scale(0.996264)" xlink:href="#Computer_Modern_Bright-48"/>
       <use transform="translate(50.643218 0)scale(0.996264)" xlink:href="#Computer_Modern_Bright_Math_Slanted-58"/>
       <use transform="translate(79.700665 0)scale(0.996264)" xlink:href="#Computer_Modern_Bright-52"/>
      </g>
     </g>
    </g>
    <g id="ytick_4">
     <g id="line2d_10"/>
     <g id="text_11">
      <!-- $0.6$ -->
      <g style="fill:#262626;" transform="translate(26.642062 135.044582)scale(0.16 -0.16)">
       <use transform="scale(0.996264)" xlink:href="#Computer_Modern_Bright-48"/>
       <use transform="translate(50.643218 0)scale(0.996264)" xlink:href="#Computer_Modern_Bright_Math_Slanted-58"/>
       <use transform="translate(79.700665 0)scale(0.996264)" xlink:href="#Computer_Modern_Bright-54"/>
      </g>
     </g>
    </g>
    <g id="ytick_5">
     <g id="line2d_11"/>
     <g id="text_12">
      <!-- $0.8$ -->
      <g style="fill:#262626;" transform="translate(26.642062 80.684508)scale(0.16 -0.16)">
       <use transform="scale(0.996264)" xlink:href="#Computer_Modern_Bright-48"/>
       <use transform="translate(50.643218 0)scale(0.996264)" xlink:href="#Computer_Modern_Bright_Math_Slanted-58"/>
       <use transform="translate(79.700665 0)scale(0.996264)" xlink:href="#Computer_Modern_Bright-56"/>
      </g>
     </g>
    </g>
    <g id="ytick_6">
     <g id="line2d_12"/>
     <g id="text_13">
      <!-- $1.0$ -->
      <g style="fill:#262626;" transform="translate(26.642062 26.324435)scale(0.16 -0.16)">
       <use transform="scale(0.996264)" xlink:href="#Computer_Modern_Bright-49"/>
       <use transform="translate(50.643218 0)scale(0.996264)" xlink:href="#Computer_Modern_Bright_Math_Slanted-58"/>
       <use transform="translate(79.700665 0)scale(0.996264)" xlink:href="#Computer_Modern_Bright-48"/>
      </g>
     </g>
    </g>
    <g id="text_14">
     <!-- Cumulative Density Function -->
     <defs>
      <path d="M 6.40625 47 
L 6.40625 12.96875 
C 6.40625 10.046875 6.5 7.140625 7.703125 4.421875 
C 9.59375 0.515625 13.59375 -1 17.703125 -1 
C 23.203125 -1 28.703125 0.8125 32.703125 4.734375 
C 33.796875 5.828125 34.796875 6.9375 35.5 8.34375 
L 35.59375 8.34375 
L 35.59375 -0.390625 
L 41.90625 -0.390625 
L 41.90625 47 
L 35.5 47 
L 35.5 22.90625 
C 35.5 18.6875 36.09375 14.0625 33.90625 10.25 
C 32.296875 7.4375 29.5 5.234375 26.40625 4.234375 
C 24.296875 3.625 22.09375 3.625 19.90625 3.828125 
C 17.796875 4.03125 15.5 4.234375 14.09375 6.03125 
C 12.09375 8.453125 12.796875 14.171875 12.796875 17.6875 
L 12.796875 47 
z
" id="Computer_Modern_Bright-117"/>
      <path d="M 12.59375 37.359375 
L 12.5 37.359375 
L 12.5 47.390625 
L 6.40625 47.390625 
L 6.40625 0 
L 12.796875 0 
L 12.796875 22.046875 
C 12.796875 26.953125 12.5 31.875 14.703125 36.375 
C 16.59375 40.28125 19.90625 43.390625 25.796875 42.78125 
C 28.796875 42.78125 31.796875 41.984375 33.703125 39.453125 
C 35.5 37.140625 35.59375 34.140625 35.59375 31.3125 
L 35.59375 0 
L 42 0 
L 42 22.046875 
C 42 26.953125 41.703125 31.875 43.90625 36.375 
C 45.796875 40.28125 49.09375 43.390625 55 42.78125 
C 58 42.78125 61 41.984375 62.90625 39.453125 
C 64.703125 37.140625 64.796875 34.140625 64.796875 31.3125 
L 64.796875 0 
L 71.203125 0 
L 71.203125 26.5625 
C 71.203125 31.375 71.796875 36.78125 69.703125 41.1875 
C 67.59375 45.296875 64.203125 47.5 58.703125 47.5 
C 55.5 47.796875 52.296875 47.3125 49.40625 45.84375 
C 45.90625 43.921875 43.296875 40.75 41.703125 37.265625 
C 41 40.578125 40.203125 42.828125 38 45 
C 35.703125 47.0625 32.59375 48 29.59375 48 
C 22.296875 48.59375 17.703125 45.5625 14.59375 41 
C 13.796875 39.875 13 38.671875 12.59375 37.359375 
" id="Computer_Modern_Bright-109"/>
      <path d="M 6.40625 69.6875 
L 6.40625 0 
L 12.703125 0 
L 12.703125 69.6875 
z
" id="Computer_Modern_Bright-108"/>
      <path d="M 0.703125 47.5 
C 1.203125 45.5 4.203125 37.578125 4.40625 37.078125 
C 5.40625 34.28125 17.296875 0.609375 17.59375 0.296875 
C 17.90625 -0.203125 18.796875 0 19.296875 0 
L 22.796875 0 
C 24.09375 0 24.90625 -0.296875 25.203125 0.90625 
C 28.40625 9.328125 40.09375 42.703125 41.796875 47.5 
L 35.59375 47.5 
C 30.796875 33.984375 25.90625 20.4375 21.40625 6.609375 
L 11 36.203125 
C 9.5 39.796875 8.59375 43.890625 6.90625 47.203125 
C 5.09375 47.5 2.796875 47.5 0.703125 47.5 
" id="Computer_Modern_Bright-118"/>
      <path d="M 8 70 
L 8 0 
L 28.203125 0 
C 31.40625 0 34.59375 0 37.703125 0.296875 
C 45.703125 1.109375 52.59375 5.015625 57.203125 9.828125 
C 70.09375 23.171875 70 46.125 57.296875 59.671875 
C 52.703125 64.578125 46.5 68.5 38.703125 69.5 
C 34.90625 70 31 70 27.203125 70 
z
M 14.90625 5.3125 
L 14.90625 64.5625 
L 27.796875 64.5625 
C 30.5 64.5625 33.203125 64.5625 35.90625 64.359375 
C 40.40625 63.859375 44.796875 62.359375 48.5 59.734375 
C 56.59375 54.125 60 44.171875 60 34.640625 
C 60 26.609375 57.796875 18.375 51.90625 12.640625 
C 47.90625 8.9375 42.5 6.21875 36 5.515625 
C 33.40625 5.3125 30.703125 5.3125 28.09375 5.3125 
z
" id="Computer_Modern_Bright-68"/>
      <path d="M 0.703125 47.65625 
C 1.296875 45.75 5.40625 35.609375 5.5 35.3125 
L 17.40625 4.578125 
L 18.40625 2.078125 
C 19 0.671875 19.203125 0.46875 18.59375 -1.140625 
L 17.5 -4.046875 
C 16.59375 -6.46875 15.59375 -8.96875 13.703125 -10.484375 
C 10.296875 -13.296875 4.90625 -11.6875 0.796875 -10.78125 
L 1.296875 -16.5 
C 3.203125 -16.796875 5.09375 -17 7 -17 
C 11.296875 -17.515625 14.09375 -16.5 16.703125 -14.296875 
C 20 -11.484375 21.59375 -7.5625 23.09375 -3.546875 
L 26.203125 5.078125 
L 36.40625 32.90625 
C 38.09375 37.921875 40.203125 42.640625 41.796875 47.65625 
L 37.296875 47.65625 
C 36.796875 47.65625 36 47.859375 35.59375 47.46875 
C 35.40625 47.15625 35.296875 46.765625 35.203125 46.453125 
L 34.40625 44.34375 
C 33.40625 41.734375 32.5 39.234375 31.59375 36.609375 
L 25.796875 20.25 
C 24.296875 15.828125 22.59375 11.3125 21.796875 6.6875 
C 20.703125 11.3125 19.203125 15.734375 17.59375 20.140625 
C 16.296875 23.5625 8.5 44.546875 7.5 46.5625 
C 7.09375 47.65625 6.703125 47.65625 5.203125 47.65625 
z
" id="Computer_Modern_Bright-121"/>
      <path d="M 8 69.328125 
L 8 0 
L 15 0 
L 15 32 
L 48.09375 32 
L 48.09375 37.3125 
L 15 37.3125 
L 15 64 
L 52.40625 64 
L 52.40625 69.328125 
z
" id="Computer_Modern_Bright-70"/>
     </defs>
     <g style="fill:#262626;" transform="translate(19.65327 260.669538)rotate(-90)scale(0.18 -0.18)">
      <use transform="scale(0.996264)" xlink:href="#Computer_Modern_Bright-67"/>
      <use transform="translate(65.172032 0)scale(0.996264)" xlink:href="#Computer_Modern_Bright-117"/>
      <use transform="translate(113.324529 0)scale(0.996264)" xlink:href="#Computer_Modern_Bright-109"/>
      <use transform="translate(190.534656 0)scale(0.996264)" xlink:href="#Computer_Modern_Bright-117"/>
      <use transform="translate(238.687153 0)scale(0.996264)" xlink:href="#Computer_Modern_Bright-108"/>
      <use transform="translate(257.782112 0)scale(0.996264)" xlink:href="#Computer_Modern_Bright-97"/>
      <use transform="translate(304.274194 0)scale(0.996264)" xlink:href="#Computer_Modern_Bright-116"/>
      <use transform="translate(340.388582 0)scale(0.996264)" xlink:href="#Computer_Modern_Bright-105"/>
      <use transform="translate(359.483541 0)scale(0.996264)" xlink:href="#Computer_Modern_Bright-118"/>
      <use transform="translate(401.824579 0)scale(0.996264)" xlink:href="#Computer_Modern_Bright-101"/>
      <use transform="translate(478.121458 0)scale(0.996264)" xlink:href="#Computer_Modern_Bright-68"/>
      <use transform="translate(549.727645 0)scale(0.996264)" xlink:href="#Computer_Modern_Bright-101"/>
      <use transform="translate(594.559312 0)scale(0.996264)" xlink:href="#Computer_Modern_Bright-110"/>
      <use transform="translate(642.711809 0)scale(0.996264)" xlink:href="#Computer_Modern_Bright-115"/>
      <use transform="translate(681.150839 0)scale(0.996264)" xlink:href="#Computer_Modern_Bright-105"/>
      <use transform="translate(700.245798 0)scale(0.996264)" xlink:href="#Computer_Modern_Bright-116"/>
      <use transform="translate(733.454456 0)scale(0.996264)" xlink:href="#Computer_Modern_Bright-121"/>
      <use transform="translate(807.260706 0)scale(0.996264)" xlink:href="#Computer_Modern_Bright-70"/>
      <use transform="translate(860.187034 0)scale(0.996264)" xlink:href="#Computer_Modern_Bright-117"/>
      <use transform="translate(908.339531 0)scale(0.996264)" xlink:href="#Computer_Modern_Bright-110"/>
      <use transform="translate(956.492028 0)scale(0.996264)" xlink:href="#Computer_Modern_Bright-99"/>
      <use transform="translate(1001.323695 0)scale(0.996264)" xlink:href="#Computer_Modern_Bright-116"/>
      <use transform="translate(1037.438083 0)scale(0.996264)" xlink:href="#Computer_Modern_Bright-105"/>
      <use transform="translate(1056.533042 0)scale(0.996264)" xlink:href="#Computer_Modern_Bright-111"/>
      <use transform="translate(1107.17626 0)scale(0.996264)" xlink:href="#Computer_Modern_Bright-110"/>
     </g>
    </g>
   </g>
   <g id="PolyCollection_1">
    <path clip-path="url(#pa1b2e4689c)" d="M 301.301416 292.589633 
L 301.301416 292.59 
L 301.555412 292.59 
L 301.809409 292.59 
L 302.063405 292.59 
L 302.317401 292.59 
L 302.571397 292.59 
L 302.825393 292.59 
L 303.07939 292.59 
L 303.333386 292.59 
L 303.587382 292.59 
L 303.841378 292.59 
L 304.095374 292.59 
L 304.34937 292.59 
L 304.603367 292.59 
L 304.857363 292.59 
L 305.111359 292.59 
L 305.365355 292.59 
L 305.619351 292.59 
L 305.873347 292.59 
L 306.127344 292.59 
L 306.38134 292.59 
L 306.635336 292.59 
L 306.889332 292.59 
L 307.143328 292.59 
L 307.397325 292.59 
L 307.651321 292.59 
L 307.905317 292.59 
L 308.159313 292.59 
L 308.413309 292.59 
L 308.667305 292.59 
L 308.921302 292.59 
L 309.175298 292.59 
L 309.429294 292.59 
L 309.68329 292.59 
L 309.937286 292.59 
L 310.191283 292.59 
L 310.445279 292.59 
L 310.699275 292.59 
L 310.953271 292.59 
L 311.207267 292.59 
L 311.461263 292.59 
L 311.71526 292.59 
L 311.969256 292.59 
L 312.223252 292.59 
L 312.477248 292.59 
L 312.731244 292.59 
L 312.985241 292.59 
L 313.239237 292.59 
L 313.493233 292.59 
L 313.747229 292.59 
L 314.001225 292.59 
L 314.255221 292.59 
L 314.509218 292.59 
L 314.763214 292.59 
L 315.01721 292.59 
L 315.271206 292.59 
L 315.525202 292.59 
L 315.779199 292.59 
L 316.033195 292.59 
L 316.287191 292.59 
L 316.541187 292.59 
L 316.795183 292.59 
L 317.049179 292.59 
L 317.303176 292.59 
L 317.557172 292.59 
L 317.811168 292.59 
L 318.065164 292.59 
L 318.31916 292.59 
L 318.573156 292.59 
L 318.827153 292.59 
L 319.081149 292.59 
L 319.335145 292.59 
L 319.589141 292.59 
L 319.843137 292.59 
L 320.097134 292.59 
L 320.35113 292.59 
L 320.605126 292.59 
L 320.859122 292.59 
L 321.113118 292.59 
L 321.367114 292.59 
L 321.621111 292.59 
L 321.875107 292.59 
L 322.129103 292.59 
L 322.383099 292.59 
L 322.637095 292.59 
L 322.891092 292.59 
L 323.145088 292.59 
L 323.399084 292.59 
L 323.65308 292.59 
L 323.907076 292.59 
L 324.161072 292.59 
L 324.415069 292.59 
L 324.669065 292.59 
L 324.923061 292.59 
L 325.177057 292.59 
L 325.431053 292.59 
L 325.68505 292.59 
L 325.939046 292.59 
L 326.193042 292.59 
L 326.447038 292.59 
L 326.701034 292.59 
L 326.95503 292.59 
L 327.209027 292.59 
L 327.463023 292.59 
L 327.717019 292.59 
L 327.971015 292.59 
L 328.225011 292.59 
L 328.479007 292.59 
L 328.733004 292.59 
L 328.987 292.59 
L 329.240996 292.59 
L 329.494992 292.59 
L 329.748988 292.59 
L 330.002985 292.59 
L 330.256981 292.59 
L 330.510977 292.59 
L 330.764973 292.59 
L 331.018969 292.59 
L 331.272965 292.59 
L 331.526962 292.59 
L 331.780958 292.59 
L 332.034954 292.59 
L 332.28895 292.59 
L 332.542946 292.59 
L 332.796943 292.59 
L 333.050939 292.59 
L 333.304935 292.59 
L 333.558931 292.59 
L 333.558931 20.790038 
L 333.558931 20.790038 
L 333.304935 20.79053 
L 333.050939 20.791513 
L 332.796943 20.79337 
L 332.542946 20.796686 
L 332.28895 20.802281 
L 332.034954 20.811207 
L 331.780958 20.824684 
L 331.526962 20.843953 
L 331.272965 20.870076 
L 331.018969 20.903705 
L 330.764973 20.944917 
L 330.510977 20.993161 
L 330.256981 21.047402 
L 330.002985 21.106442 
L 329.748988 21.169371 
L 329.494992 21.236021 
L 329.240996 21.307328 
L 328.987 21.385471 
L 328.733004 21.473798 
L 328.479007 21.576548 
L 328.225011 21.698457 
L 327.971015 21.844376 
L 327.717019 22.018977 
L 327.463023 22.226668 
L 327.209027 22.471754 
L 326.95503 22.758856 
L 326.701034 23.09351 
L 326.447038 23.482746 
L 326.193042 23.935445 
L 325.939046 24.462226 
L 325.68505 25.074842 
L 325.431053 25.785222 
L 325.177057 26.604493 
L 324.923061 27.542394 
L 324.669065 28.607299 
L 324.415069 29.806853 
L 324.161072 31.148914 
L 323.907076 32.642348 
L 323.65308 34.297346 
L 323.399084 36.125127 
L 323.145088 38.137245 
L 322.891092 40.344894 
L 322.637095 42.758584 
L 322.383099 45.388332 
L 322.129103 48.244178 
L 321.875107 51.336555 
L 321.621111 54.675988 
L 321.367114 58.271828 
L 321.113118 62.130174 
L 320.859122 66.251605 
L 320.605126 70.629656 
L 320.35113 75.250856 
L 320.097134 80.096633 
L 319.843137 85.14661 
L 319.589141 90.382213 
L 319.335145 95.789233 
L 319.081149 101.358436 
L 318.827153 107.084065 
L 318.573156 112.961048 
L 318.31916 118.982244 
L 318.065164 125.136994 
L 317.811168 131.411578 
L 317.557172 137.791223 
L 317.303176 144.262487 
L 317.049179 150.814582 
L 316.795183 157.438629 
L 316.541187 164.124723 
L 316.287191 170.857709 
L 316.033195 177.613225 
L 315.779199 184.355694 
L 315.525202 191.039357 
L 315.271206 197.612573 
L 315.01721 204.024484 
L 314.763214 210.232363 
L 314.509218 216.207561 
L 314.255221 221.938208 
L 314.001225 227.427691 
L 313.747229 232.689149 
L 313.493233 237.737575 
L 313.239237 242.581936 
L 312.985241 247.219884 
L 312.731244 251.636775 
L 312.477248 255.809271 
L 312.223252 259.71216 
L 311.969256 263.325918 
L 311.71526 266.642376 
L 311.461263 269.666677 
L 311.207267 272.415219 
L 310.953271 274.910757 
L 310.699275 277.176721 
L 310.445279 279.232752 
L 310.191283 281.092692 
L 309.937286 282.765099 
L 309.68329 284.255479 
L 309.429294 285.56904 
L 309.175298 286.712917 
L 308.921302 287.69733 
L 308.667305 288.535603 
L 308.413309 289.24334 
L 308.159313 289.837156 
L 307.905317 290.333355 
L 307.651321 290.746832 
L 307.397325 291.090405 
L 307.143328 291.374613 
L 306.889332 291.607967 
L 306.635336 291.79748 
L 306.38134 291.949302 
L 306.127344 292.069249 
L 305.873347 292.163073 
L 305.619351 292.236451 
L 305.365355 292.294723 
L 305.111359 292.342514 
L 304.857363 292.383392 
L 304.603367 292.419692 
L 304.34937 292.452568 
L 304.095374 292.48225 
L 303.841378 292.508433 
L 303.587382 292.530676 
L 303.333386 292.548704 
L 303.07939 292.562567 
L 302.825393 292.572649 
L 302.571397 292.579569 
L 302.317401 292.584049 
L 302.063405 292.586781 
L 301.809409 292.58835 
L 301.555412 292.5892 
L 301.301416 292.589633 
z
" style="fill:#33a02c;fill-opacity:0.25;"/>
   </g>
   <g id="PolyCollection_2">
    <path clip-path="url(#pa1b2e4689c)" d="M 302.478758 292.589633 
L 302.478758 292.59 
L 302.725475 292.59 
L 302.972192 292.59 
L 303.218908 292.59 
L 303.465625 292.59 
L 303.712341 292.59 
L 303.959058 292.59 
L 304.205775 292.59 
L 304.452491 292.59 
L 304.699208 292.59 
L 304.945924 292.59 
L 305.192641 292.59 
L 305.439358 292.59 
L 305.686074 292.59 
L 305.932791 292.59 
L 306.179507 292.59 
L 306.426224 292.59 
L 306.672941 292.59 
L 306.919657 292.59 
L 307.166374 292.59 
L 307.41309 292.59 
L 307.659807 292.59 
L 307.906524 292.59 
L 308.15324 292.59 
L 308.399957 292.59 
L 308.646674 292.59 
L 308.89339 292.59 
L 309.140107 292.59 
L 309.386823 292.59 
L 309.63354 292.59 
L 309.880257 292.59 
L 310.126973 292.59 
L 310.37369 292.59 
L 310.620406 292.59 
L 310.867123 292.59 
L 311.11384 292.59 
L 311.360556 292.59 
L 311.607273 292.59 
L 311.853989 292.59 
L 312.100706 292.59 
L 312.347423 292.59 
L 312.594139 292.59 
L 312.840856 292.59 
L 313.087572 292.59 
L 313.334289 292.59 
L 313.581006 292.59 
L 313.827722 292.59 
L 314.074439 292.59 
L 314.321156 292.59 
L 314.567872 292.59 
L 314.814589 292.59 
L 315.061305 292.59 
L 315.308022 292.59 
L 315.554739 292.59 
L 315.801455 292.59 
L 316.048172 292.59 
L 316.294888 292.59 
L 316.541605 292.59 
L 316.788322 292.59 
L 317.035038 292.59 
L 317.281755 292.59 
L 317.528471 292.59 
L 317.775188 292.59 
L 318.021905 292.59 
L 318.268621 292.59 
L 318.515338 292.59 
L 318.762054 292.59 
L 319.008771 292.59 
L 319.255488 292.59 
L 319.502204 292.59 
L 319.748921 292.59 
L 319.995638 292.59 
L 320.242354 292.59 
L 320.489071 292.59 
L 320.735787 292.59 
L 320.982504 292.59 
L 321.229221 292.59 
L 321.475937 292.59 
L 321.722654 292.59 
L 321.96937 292.59 
L 322.216087 292.59 
L 322.462804 292.59 
L 322.70952 292.59 
L 322.956237 292.59 
L 323.202953 292.59 
L 323.44967 292.59 
L 323.696387 292.59 
L 323.943103 292.59 
L 324.18982 292.59 
L 324.436536 292.59 
L 324.683253 292.59 
L 324.92997 292.59 
L 325.176686 292.59 
L 325.423403 292.59 
L 325.67012 292.59 
L 325.916836 292.59 
L 326.163553 292.59 
L 326.410269 292.59 
L 326.656986 292.59 
L 326.903703 292.59 
L 327.150419 292.59 
L 327.397136 292.59 
L 327.643852 292.59 
L 327.890569 292.59 
L 328.137286 292.59 
L 328.384002 292.59 
L 328.630719 292.59 
L 328.877435 292.59 
L 329.124152 292.59 
L 329.370869 292.59 
L 329.617585 292.59 
L 329.864302 292.59 
L 330.111018 292.59 
L 330.357735 292.59 
L 330.604452 292.59 
L 330.851168 292.59 
L 331.097885 292.59 
L 331.344602 292.59 
L 331.591318 292.59 
L 331.838035 292.59 
L 332.084751 292.59 
L 332.331468 292.59 
L 332.578185 292.59 
L 332.824901 292.59 
L 333.071618 292.59 
L 333.318334 292.59 
L 333.565051 292.59 
L 333.811768 292.59 
L 333.811768 20.79 
L 333.811768 20.79 
L 333.565051 20.790491 
L 333.318334 20.791512 
L 333.071618 20.793483 
L 332.824901 20.797026 
L 332.578185 20.802954 
L 332.331468 20.812182 
L 332.084751 20.825551 
L 331.838035 20.843578 
L 331.591318 20.866208 
L 331.344602 20.892668 
L 331.097885 20.921522 
L 330.851168 20.950953 
L 330.604452 20.97922 
L 330.357735 21.005158 
L 330.111018 21.028585 
L 329.864302 21.050499 
L 329.617585 21.073024 
L 329.370869 21.099168 
L 329.124152 21.132453 
L 328.877435 21.176552 
L 328.630719 21.235019 
L 328.384002 21.311202 
L 328.137286 21.408365 
L 327.890569 21.529998 
L 327.643852 21.680231 
L 327.397136 21.86427 
L 327.150419 22.088806 
L 326.903703 22.362351 
L 326.656986 22.695468 
L 326.410269 23.100795 
L 326.163553 23.592729 
L 325.916836 24.186665 
L 325.67012 24.897877 
L 325.423403 25.740279 
L 325.176686 26.725464 
L 324.92997 27.862357 
L 324.683253 29.157661 
L 324.436536 30.617042 
L 324.18982 32.246886 
L 323.943103 34.056451 
L 323.696387 36.060198 
L 323.44967 38.279873 
L 323.202953 40.745589 
L 322.956237 43.494889 
L 322.70952 46.568963 
L 322.462804 50.005951 
L 322.216087 53.83245 
L 321.96937 58.055417 
L 321.722654 62.657109 
L 321.475937 67.595186 
L 321.229221 72.808787 
L 320.982504 78.229642 
L 320.735787 83.795609 
L 320.489071 89.463012 
L 320.242354 95.214238 
L 319.995638 101.058348 
L 319.748921 107.024691 
L 319.502204 113.151875 
L 319.255488 119.47586 
L 319.008771 126.020762 
L 318.762054 132.794298 
L 318.515338 139.787624 
L 318.268621 146.977764 
L 318.021905 154.330616 
L 317.775188 161.803405 
L 317.528471 169.346593 
L 317.281755 176.905901 
L 317.035038 184.424965 
L 316.788322 191.848512 
L 316.541605 199.125447 
L 316.294888 206.211097 
L 316.048172 213.068186 
L 315.801455 219.666457 
L 315.554739 225.981281 
L 315.308022 231.991782 
L 315.061305 237.679178 
L 314.814589 243.026007 
L 314.567872 248.016701 
L 314.321156 252.639494 
L 314.074439 256.889112 
L 313.827722 260.769294 
L 313.581006 264.29409 
L 313.334289 267.487234 
L 313.087572 270.379488 
L 312.840856 273.004549 
L 312.594139 275.394619 
L 312.347423 277.576841 
L 312.100706 279.571429 
L 311.853989 281.391664 
L 311.607273 283.045264 
L 311.360556 284.536337 
L 311.11384 285.867285 
L 310.867123 287.040328 
L 310.620406 288.058684 
L 310.37369 288.927481 
L 310.126973 289.654419 
L 309.880257 290.250038 
L 309.63354 290.727474 
L 309.386823 291.10174 
L 309.140107 291.388742 
L 308.89339 291.604298 
L 308.646674 291.763384 
L 308.399957 291.879628 
L 308.15324 291.96498 
L 307.906524 292.029456 
L 307.659807 292.080924 
L 307.41309 292.12502 
L 307.166374 292.165299 
L 306.919657 292.203643 
L 306.672941 292.240864 
L 306.426224 292.277294 
L 306.179507 292.313175 
L 305.932791 292.348755 
L 305.686074 292.384145 
L 305.439358 292.419085 
L 305.192641 292.452832 
L 304.945924 292.484254 
L 304.699208 292.512125 
L 304.452491 292.535473 
L 304.205775 292.553839 
L 303.959058 292.567357 
L 303.712341 292.576645 
L 303.465625 292.582595 
L 303.218908 292.586147 
L 302.972192 292.58812 
L 302.725475 292.589141 
L 302.478758 292.589633 
z
" style="fill:#0000ff;fill-opacity:0.25;"/>
   </g>
   <g id="PolyCollection_3">
    <path clip-path="url(#pa1b2e4689c)" d="M 231.669152 292.589581 
L 231.669152 292.59 
L 231.96161 292.59 
L 232.254067 292.59 
L 232.546525 292.59 
L 232.838982 292.59 
L 233.13144 292.59 
L 233.423897 292.59 
L 233.716355 292.59 
L 234.008812 292.59 
L 234.30127 292.59 
L 234.593727 292.59 
L 234.886185 292.59 
L 235.178642 292.59 
L 235.4711 292.59 
L 235.763557 292.59 
L 236.056015 292.59 
L 236.348472 292.59 
L 236.64093 292.59 
L 236.933388 292.59 
L 237.225845 292.59 
L 237.518303 292.59 
L 237.81076 292.59 
L 238.103218 292.59 
L 238.395675 292.59 
L 238.688133 292.59 
L 238.98059 292.59 
L 239.273048 292.59 
L 239.565505 292.59 
L 239.857963 292.59 
L 240.15042 292.59 
L 240.442878 292.59 
L 240.735335 292.59 
L 241.027793 292.59 
L 241.320251 292.59 
L 241.612708 292.59 
L 241.905166 292.59 
L 242.197623 292.59 
L 242.490081 292.59 
L 242.782538 292.59 
L 243.074996 292.59 
L 243.367453 292.59 
L 243.659911 292.59 
L 243.952368 292.59 
L 244.244826 292.59 
L 244.537283 292.59 
L 244.829741 292.59 
L 245.122198 292.59 
L 245.414656 292.59 
L 245.707114 292.59 
L 245.999571 292.59 
L 246.292029 292.59 
L 246.584486 292.59 
L 246.876944 292.59 
L 247.169401 292.59 
L 247.461859 292.59 
L 247.754316 292.59 
L 248.046774 292.59 
L 248.339231 292.59 
L 248.631689 292.59 
L 248.924146 292.59 
L 249.216604 292.59 
L 249.509061 292.59 
L 249.801519 292.59 
L 250.093977 292.59 
L 250.386434 292.59 
L 250.678892 292.59 
L 250.971349 292.59 
L 251.263807 292.59 
L 251.556264 292.59 
L 251.848722 292.59 
L 252.141179 292.59 
L 252.433637 292.59 
L 252.726094 292.59 
L 253.018552 292.59 
L 253.311009 292.59 
L 253.603467 292.59 
L 253.895924 292.59 
L 254.188382 292.59 
L 254.48084 292.59 
L 254.773297 292.59 
L 255.065755 292.59 
L 255.358212 292.59 
L 255.65067 292.59 
L 255.943127 292.59 
L 256.235585 292.59 
L 256.528042 292.59 
L 256.8205 292.59 
L 257.112957 292.59 
L 257.405415 292.59 
L 257.697872 292.59 
L 257.99033 292.59 
L 258.282787 292.59 
L 258.575245 292.59 
L 258.867702 292.59 
L 259.16016 292.59 
L 259.452618 292.59 
L 259.745075 292.59 
L 260.037533 292.59 
L 260.32999 292.59 
L 260.622448 292.59 
L 260.914905 292.59 
L 261.207363 292.59 
L 261.49982 292.59 
L 261.792278 292.59 
L 262.084735 292.59 
L 262.377193 292.59 
L 262.66965 292.59 
L 262.962108 292.59 
L 263.254565 292.59 
L 263.547023 292.59 
L 263.839481 292.59 
L 264.131938 292.59 
L 264.424396 292.59 
L 264.716853 292.59 
L 265.009311 292.59 
L 265.301768 292.59 
L 265.594226 292.59 
L 265.886683 292.59 
L 266.179141 292.59 
L 266.471598 292.59 
L 266.764056 292.59 
L 267.056513 292.59 
L 267.348971 292.59 
L 267.641428 292.59 
L 267.933886 292.59 
L 268.226344 292.59 
L 268.518801 292.59 
L 268.811259 292.59 
L 268.811259 20.790164 
L 268.811259 20.790164 
L 268.518801 20.790875 
L 268.226344 20.792361 
L 267.933886 20.795263 
L 267.641428 20.800563 
L 267.348971 20.809615 
L 267.056513 20.824089 
L 266.764056 20.845772 
L 266.471598 20.876272 
L 266.179141 20.916684 
L 265.886683 20.967393 
L 265.594226 21.028156 
L 265.301768 21.09856 
L 265.009311 21.17874 
L 264.716853 21.270152 
L 264.424396 21.376063 
L 264.131938 21.501568 
L 263.839481 21.653176 
L 263.547023 21.838257 
L 263.254565 22.064796 
L 262.962108 22.34176 
L 262.66965 22.680043 
L 262.377193 23.093569 
L 262.084735 23.599894 
L 261.792278 24.219739 
L 261.49982 24.975336 
L 261.207363 25.88804 
L 260.914905 26.97601 
L 260.622448 28.252851 
L 260.32999 29.727645 
L 260.037533 31.406304 
L 259.745075 33.293676 
L 259.452618 35.39578 
L 259.16016 37.721676 
L 258.867702 40.284774 
L 258.575245 43.103349 
L 258.282787 46.199935 
L 257.99033 49.599201 
L 257.697872 53.324284 
L 257.405415 57.392336 
L 257.112957 61.81074 
L 256.8205 66.575568 
L 256.528042 71.672995 
L 256.235585 77.083024 
L 255.943127 82.783736 
L 255.65067 88.75418 
L 255.358212 94.97491 
L 255.065755 101.426609 
L 254.773297 108.088173 
L 254.48084 114.935681 
L 254.188382 121.942778 
L 253.895924 129.08195 
L 253.603467 136.325508 
L 253.311009 143.645299 
L 253.018552 151.010987 
L 252.726094 158.38778 
L 252.433637 165.73501 
L 252.141179 173.00677 
L 251.848722 180.154928 
L 251.556264 187.133715 
L 251.263807 193.904409 
L 250.971349 200.438627 
L 250.678892 206.719342 
L 250.386434 212.739634 
L 250.093977 218.499745 
L 249.801519 224.003278 
L 249.509061 229.253409 
L 249.216604 234.249947 
L 248.924146 238.98807 
L 248.631689 243.459265 
L 248.339231 247.654359 
L 248.046774 251.567658 
L 247.754316 255.200574 
L 247.461859 258.563244 
L 247.169401 261.673426 
L 246.876944 264.553199 
L 246.584486 267.224764 
L 246.292029 269.706829 
L 245.999571 272.012543 
L 245.707114 274.149234 
L 245.414656 276.11963 
L 245.122198 277.924016 
L 244.829741 279.56272 
L 244.537283 281.038364 
L 244.244826 282.357358 
L 243.952368 283.5303 
L 243.659911 284.571206 
L 243.367453 285.495857 
L 243.074996 286.319835 
L 242.782538 287.056828 
L 242.490081 287.717635 
L 242.197623 288.310008 
L 241.905166 288.839204 
L 241.612708 289.308983 
L 241.320251 289.722714 
L 241.027793 290.084289 
L 240.735335 290.398592 
L 240.442878 290.671397 
L 240.15042 290.908774 
L 239.857963 291.116254 
L 239.565505 291.298104 
L 239.273048 291.457017 
L 238.98059 291.594319 
L 238.688133 291.710608 
L 238.395675 291.806537 
L 238.103218 291.883491 
L 237.81076 291.943955 
L 237.518303 291.991512 
L 237.225845 292.030525 
L 236.933388 292.065599 
L 236.64093 292.100961 
L 236.348472 292.13986 
L 236.056015 292.184103 
L 235.763557 292.233827 
L 235.4711 292.287584 
L 235.178642 292.342743 
L 234.886185 292.396122 
L 234.593727 292.444703 
L 234.30127 292.48623 
L 234.008812 292.519546 
L 233.716355 292.544623 
L 233.423897 292.562326 
L 233.13144 292.574044 
L 232.838982 292.581315 
L 232.546525 292.585542 
L 232.254067 292.587845 
L 231.96161 292.589019 
L 231.669152 292.589581 
z
" style="fill-opacity:0.25;"/>
   </g>
   <g id="PolyCollection_4">
    <path clip-path="url(#pa1b2e4689c)" d="M 281.074958 292.58954 
L 281.074958 292.59 
L 281.186221 292.59 
L 281.297483 292.59 
L 281.408745 292.59 
L 281.520007 292.59 
L 281.631269 292.59 
L 281.742531 292.59 
L 281.853793 292.59 
L 281.965055 292.59 
L 282.076317 292.59 
L 282.187579 292.59 
L 282.298841 292.59 
L 282.410103 292.59 
L 282.521365 292.59 
L 282.632627 292.59 
L 282.74389 292.59 
L 282.855152 292.59 
L 282.966414 292.59 
L 283.077676 292.59 
L 283.188938 292.59 
L 283.3002 292.59 
L 283.411462 292.59 
L 283.522724 292.59 
L 283.633986 292.59 
L 283.745248 292.59 
L 283.85651 292.59 
L 283.967772 292.59 
L 284.079034 292.59 
L 284.190297 292.59 
L 284.301559 292.59 
L 284.412821 292.59 
L 284.524083 292.59 
L 284.635345 292.59 
L 284.746607 292.59 
L 284.857869 292.59 
L 284.969131 292.59 
L 285.080393 292.59 
L 285.191655 292.59 
L 285.302917 292.59 
L 285.414179 292.59 
L 285.525441 292.59 
L 285.636703 292.59 
L 285.747966 292.59 
L 285.859228 292.59 
L 285.97049 292.59 
L 286.081752 292.59 
L 286.193014 292.59 
L 286.304276 292.59 
L 286.415538 292.59 
L 286.5268 292.59 
L 286.638062 292.59 
L 286.749324 292.59 
L 286.860586 292.59 
L 286.971848 292.59 
L 287.08311 292.59 
L 287.194372 292.59 
L 287.305635 292.59 
L 287.416897 292.59 
L 287.528159 292.59 
L 287.639421 292.59 
L 287.750683 292.59 
L 287.861945 292.59 
L 287.973207 292.59 
L 288.084469 292.59 
L 288.195731 292.59 
L 288.306993 292.59 
L 288.418255 292.59 
L 288.529517 292.59 
L 288.640779 292.59 
L 288.752041 292.59 
L 288.863304 292.59 
L 288.974566 292.59 
L 289.085828 292.59 
L 289.19709 292.59 
L 289.308352 292.59 
L 289.419614 292.59 
L 289.530876 292.59 
L 289.642138 292.59 
L 289.7534 292.59 
L 289.864662 292.59 
L 289.975924 292.59 
L 290.087186 292.59 
L 290.198448 292.59 
L 290.30971 292.59 
L 290.420973 292.59 
L 290.532235 292.59 
L 290.643497 292.59 
L 290.754759 292.59 
L 290.866021 292.59 
L 290.977283 292.59 
L 291.088545 292.59 
L 291.199807 292.59 
L 291.311069 292.59 
L 291.422331 292.59 
L 291.533593 292.59 
L 291.644855 292.59 
L 291.756117 292.59 
L 291.867379 292.59 
L 291.978642 292.59 
L 292.089904 292.59 
L 292.201166 292.59 
L 292.312428 292.59 
L 292.42369 292.59 
L 292.534952 292.59 
L 292.646214 292.59 
L 292.757476 292.59 
L 292.868738 292.59 
L 292.98 292.59 
L 293.091262 292.59 
L 293.202524 292.59 
L 293.313786 292.59 
L 293.425049 292.59 
L 293.536311 292.59 
L 293.647573 292.59 
L 293.758835 292.59 
L 293.870097 292.59 
L 293.981359 292.59 
L 294.092621 292.59 
L 294.203883 292.59 
L 294.315145 292.59 
L 294.426407 292.59 
L 294.537669 292.59 
L 294.648931 292.59 
L 294.760193 292.59 
L 294.871455 292.59 
L 294.982718 292.59 
L 295.09398 292.59 
L 295.205242 292.59 
L 295.205242 20.790003 
L 295.205242 20.790003 
L 295.09398 20.790427 
L 294.982718 20.791251 
L 294.871455 20.792766 
L 294.760193 20.795403 
L 294.648931 20.799755 
L 294.537669 20.806575 
L 294.426407 20.816746 
L 294.315145 20.831218 
L 294.203883 20.85095 
L 294.092621 20.876853 
L 293.981359 20.909798 
L 293.870097 20.95068 
L 293.758835 21.000546 
L 293.647573 21.060732 
L 293.536311 21.132983 
L 293.425049 21.219496 
L 293.313786 21.322919 
L 293.202524 21.446298 
L 293.091262 21.593049 
L 292.98 21.76695 
L 292.868738 21.972157 
L 292.757476 22.213217 
L 292.646214 22.495058 
L 292.534952 22.823017 
L 292.42369 23.20301 
L 292.312428 23.641946 
L 292.201166 24.148404 
L 292.089904 24.733454 
L 291.978642 25.411308 
L 291.867379 26.199424 
L 291.756117 27.117769 
L 291.644855 28.187164 
L 291.533593 29.426963 
L 291.422331 30.852598 
L 291.311069 32.473694 
L 291.199807 34.293338 
L 291.088545 36.308813 
L 290.977283 38.513683 
L 290.866021 40.900694 
L 290.754759 43.464699 
L 290.643497 46.204823 
L 290.532235 49.12534 
L 290.420973 52.235145 
L 290.30971 55.546127 
L 290.198448 59.071022 
L 290.087186 62.8213 
L 289.975924 66.805511 
L 289.864662 71.028242 
L 289.7534 75.489707 
L 289.642138 80.185936 
L 289.530876 85.1096 
L 289.419614 90.251459 
L 289.308352 95.602291 
L 289.19709 101.154842 
L 289.085828 106.905121 
L 288.974566 112.852286 
L 288.863304 118.996705 
L 288.752041 125.336383 
L 288.640779 131.862621 
L 288.529517 138.556238 
L 288.418255 145.385614 
L 288.306993 152.307271 
L 288.195731 159.268952 
L 288.084469 166.214414 
L 287.973207 173.088919 
L 287.861945 179.844432 
L 287.750683 186.443799 
L 287.639421 192.863356 
L 287.528159 199.093507 
L 287.416897 205.13686 
L 287.305635 211.003902 
L 287.194372 216.706791 
L 287.08311 222.252626 
L 286.971848 227.638022 
L 286.860586 232.846695 
L 286.749324 237.850956 
L 286.638062 242.616794 
L 286.5268 247.111066 
L 286.415538 251.308663 
L 286.304276 255.197571 
L 286.193014 258.780537 
L 286.081752 262.073125 
L 285.97049 265.099051 
L 285.859228 267.884381 
L 285.747966 270.45228 
L 285.636703 272.819631 
L 285.525441 274.99608 
L 285.414179 276.985323 
L 285.302917 278.787856 
L 285.191655 280.404173 
L 285.080393 281.837512 
L 284.969131 283.095532 
L 284.857869 284.190702 
L 284.746607 285.139568 
L 284.635345 285.961253 
L 284.524083 286.675681 
L 284.412821 287.301958 
L 284.301559 287.85717 
L 284.190297 288.355693 
L 284.079034 288.808938 
L 283.967772 289.225401 
L 283.85651 289.610873 
L 283.745248 289.968786 
L 283.633986 290.300675 
L 283.522724 290.60677 
L 283.411462 290.886661 
L 283.3002 291.139949 
L 283.188938 291.366728 
L 283.077676 291.567818 
L 282.966414 291.744716 
L 282.855152 291.899339 
L 282.74389 292.033689 
L 282.632627 292.149571 
L 282.521365 292.248455 
L 282.410103 292.331519 
L 282.298841 292.399804 
L 282.187579 292.454413 
L 282.076317 292.496664 
L 281.965055 292.528139 
L 281.853793 292.550628 
L 281.742531 292.56599 
L 281.631269 292.575998 
L 281.520007 292.582203 
L 281.408745 292.585861 
L 281.297483 292.587908 
L 281.186221 292.588994 
L 281.074958 292.58954 
z
" style="fill:#1f78b4;fill-opacity:0.25;"/>
   </g>
   <g id="PolyCollection_5">
    <path clip-path="url(#pa1b2e4689c)" d="M 467.956619 292.58961 
L 467.956619 292.59 
L 468.060405 292.59 
L 468.164191 292.59 
L 468.267977 292.59 
L 468.371763 292.59 
L 468.475549 292.59 
L 468.579335 292.59 
L 468.683121 292.59 
L 468.786907 292.59 
L 468.890693 292.59 
L 468.994479 292.59 
L 469.098265 292.59 
L 469.202051 292.59 
L 469.305837 292.59 
L 469.409623 292.59 
L 469.513409 292.59 
L 469.617195 292.59 
L 469.720981 292.59 
L 469.824767 292.59 
L 469.928554 292.59 
L 470.03234 292.59 
L 470.136126 292.59 
L 470.239912 292.59 
L 470.343698 292.59 
L 470.447484 292.59 
L 470.55127 292.59 
L 470.655056 292.59 
L 470.758842 292.59 
L 470.862628 292.59 
L 470.966414 292.59 
L 471.0702 292.59 
L 471.173986 292.59 
L 471.277772 292.59 
L 471.381558 292.59 
L 471.485344 292.59 
L 471.58913 292.59 
L 471.692916 292.59 
L 471.796702 292.59 
L 471.900488 292.59 
L 472.004274 292.59 
L 472.10806 292.59 
L 472.211846 292.59 
L 472.315632 292.59 
L 472.419418 292.59 
L 472.523204 292.59 
L 472.626991 292.59 
L 472.730777 292.59 
L 472.834563 292.59 
L 472.938349 292.59 
L 473.042135 292.59 
L 473.145921 292.59 
L 473.249707 292.59 
L 473.353493 292.59 
L 473.457279 292.59 
L 473.561065 292.59 
L 473.664851 292.59 
L 473.768637 292.59 
L 473.872423 292.59 
L 473.976209 292.59 
L 474.079995 292.59 
L 474.183781 292.59 
L 474.287567 292.59 
L 474.391353 292.59 
L 474.495139 292.59 
L 474.598925 292.59 
L 474.702711 292.59 
L 474.806497 292.59 
L 474.910283 292.59 
L 475.014069 292.59 
L 475.117855 292.59 
L 475.221642 292.59 
L 475.325428 292.59 
L 475.429214 292.59 
L 475.533 292.59 
L 475.636786 292.59 
L 475.740572 292.59 
L 475.844358 292.59 
L 475.948144 292.59 
L 476.05193 292.59 
L 476.155716 292.59 
L 476.259502 292.59 
L 476.363288 292.59 
L 476.467074 292.59 
L 476.57086 292.59 
L 476.674646 292.59 
L 476.778432 292.59 
L 476.882218 292.59 
L 476.986004 292.59 
L 477.08979 292.59 
L 477.193576 292.59 
L 477.297362 292.59 
L 477.401148 292.59 
L 477.504934 292.59 
L 477.60872 292.59 
L 477.712506 292.59 
L 477.816292 292.59 
L 477.920079 292.59 
L 478.023865 292.59 
L 478.127651 292.59 
L 478.231437 292.59 
L 478.335223 292.59 
L 478.439009 292.59 
L 478.542795 292.59 
L 478.646581 292.59 
L 478.750367 292.59 
L 478.854153 292.59 
L 478.957939 292.59 
L 479.061725 292.59 
L 479.165511 292.59 
L 479.269297 292.59 
L 479.373083 292.59 
L 479.476869 292.59 
L 479.580655 292.59 
L 479.684441 292.59 
L 479.788227 292.59 
L 479.892013 292.59 
L 479.995799 292.59 
L 480.099585 292.59 
L 480.203371 292.59 
L 480.307157 292.59 
L 480.410943 292.59 
L 480.51473 292.59 
L 480.618516 292.59 
L 480.722302 292.59 
L 480.826088 292.59 
L 480.929874 292.59 
L 481.03366 292.59 
L 481.137446 292.59 
L 481.137446 20.790473 
L 481.137446 20.790473 
L 481.03366 20.791361 
L 480.929874 20.793043 
L 480.826088 20.796094 
L 480.722302 20.801397 
L 480.618516 20.810231 
L 480.51473 20.824343 
L 480.410943 20.845974 
L 480.307157 20.877816 
L 480.203371 20.922879 
L 480.099585 20.984266 
L 479.995799 21.064892 
L 479.892013 21.167203 
L 479.788227 21.292971 
L 479.684441 21.44324 
L 479.580655 21.618478 
L 479.476869 21.818923 
L 479.373083 22.045071 
L 479.269297 22.298194 
L 479.165511 22.580771 
L 479.061725 22.896727 
L 478.957939 23.251417 
L 478.854153 23.651393 
L 478.750367 24.104008 
L 478.646581 24.616983 
L 478.542795 25.19803 
L 478.439009 25.854621 
L 478.335223 26.593915 
L 478.231437 27.422805 
L 478.127651 28.348036 
L 478.023865 29.376298 
L 477.920079 30.514255 
L 477.816292 31.768498 
L 477.712506 33.145483 
L 477.60872 34.651549 
L 477.504934 36.293076 
L 477.401148 38.076826 
L 477.297362 40.01038 
L 477.193576 42.10252 
L 477.08979 44.363367 
L 476.986004 46.804124 
L 476.882218 49.436357 
L 476.778432 52.270932 
L 476.674646 55.316778 
L 476.57086 58.579763 
L 476.467074 62.061923 
L 476.363288 65.761228 
L 476.259502 69.671943 
L 476.155716 73.785556 
L 476.05193 78.0921 
L 475.948144 82.581631 
L 475.844358 87.245543 
L 475.740572 92.077421 
L 475.636786 97.073185 
L 475.533 102.230447 
L 475.429214 107.547209 
L 475.325428 113.020216 
L 475.221642 118.643387 
L 475.117855 124.406694 
L 475.014069 130.295712 
L 474.910283 136.291826 
L 474.806497 142.372865 
L 474.702711 148.513871 
L 474.598925 154.687737 
L 474.495139 160.865615 
L 474.391353 167.01718 
L 474.287567 173.110978 
L 474.183781 179.115133 
L 474.079995 184.998552 
L 473.976209 190.73265 
L 473.872423 196.293333 
L 473.768637 201.662889 
L 473.664851 206.831314 
L 473.561065 211.796723 
L 473.457279 216.564661 
L 473.353493 221.146405 
L 473.249707 225.556583 
L 473.145921 229.810606 
L 473.042135 233.922365 
L 472.938349 237.902572 
L 472.834563 241.757861 
L 472.730777 245.49057 
L 472.626991 249.099034 
L 472.523204 252.578146 
L 472.419418 255.920083 
L 472.315632 259.115147 
L 472.211846 262.152754 
L 472.10806 265.022583 
L 472.004274 267.71583 
L 471.900488 270.226397 
L 471.796702 272.551796 
L 471.692916 274.693555 
L 471.58913 276.656992 
L 471.485344 278.450415 
L 471.381558 280.083948 
L 471.277772 281.568295 
L 471.173986 282.913764 
L 471.0702 284.129764 
L 470.966414 285.224803 
L 470.862628 286.206845 
L 470.758842 287.083781 
L 470.655056 287.863767 
L 470.55127 288.555263 
L 470.447484 289.166784 
L 470.343698 289.706458 
L 470.239912 290.181586 
L 470.136126 290.598363 
L 470.03234 290.961852 
L 469.928554 291.276188 
L 469.824767 291.544949 
L 469.720981 291.771541 
L 469.617195 291.959501 
L 469.513409 292.112653 
L 469.409623 292.235098 
L 469.305837 292.331089 
L 469.202051 292.404839 
L 469.098265 292.460344 
L 468.994479 292.501229 
L 468.890693 292.530672 
L 468.786907 292.551367 
L 468.683121 292.565538 
L 468.579335 292.574968 
L 468.475549 292.581053 
L 468.371763 292.584852 
L 468.267977 292.587141 
L 468.164191 292.58847 
L 468.060405 292.589212 
L 467.956619 292.58961 
z
" style="fill:#ff7f00;fill-opacity:0.25;"/>
   </g>
   <g id="PolyCollection_6">
    <path clip-path="url(#pa1b2e4689c)" d="M 75.319264 292.589633 
L 75.319264 292.59 
L 75.754006 292.59 
L 76.188749 292.59 
L 76.623491 292.59 
L 77.058234 292.59 
L 77.492976 292.59 
L 77.927719 292.59 
L 78.362461 292.59 
L 78.797204 292.59 
L 79.231946 292.59 
L 79.666689 292.59 
L 80.101431 292.59 
L 80.536174 292.59 
L 80.970916 292.59 
L 81.405659 292.59 
L 81.840401 292.59 
L 82.275144 292.59 
L 82.709886 292.59 
L 83.144629 292.59 
L 83.579371 292.59 
L 84.014114 292.59 
L 84.448856 292.59 
L 84.883598 292.59 
L 85.318341 292.59 
L 85.753083 292.59 
L 86.187826 292.59 
L 86.622568 292.59 
L 87.057311 292.59 
L 87.492053 292.59 
L 87.926796 292.59 
L 88.361538 292.59 
L 88.796281 292.59 
L 89.231023 292.59 
L 89.665766 292.59 
L 90.100508 292.59 
L 90.535251 292.59 
L 90.969993 292.59 
L 91.404736 292.59 
L 91.839478 292.59 
L 92.274221 292.59 
L 92.708963 292.59 
L 93.143706 292.59 
L 93.578448 292.59 
L 94.013191 292.59 
L 94.447933 292.59 
L 94.882675 292.59 
L 95.317418 292.59 
L 95.75216 292.59 
L 96.186903 292.59 
L 96.621645 292.59 
L 97.056388 292.59 
L 97.49113 292.59 
L 97.925873 292.59 
L 98.360615 292.59 
L 98.795358 292.59 
L 99.2301 292.59 
L 99.664843 292.59 
L 100.099585 292.59 
L 100.534328 292.59 
L 100.96907 292.59 
L 101.403813 292.59 
L 101.838555 292.59 
L 102.273298 292.59 
L 102.70804 292.59 
L 103.142783 292.59 
L 103.577525 292.59 
L 104.012268 292.59 
L 104.44701 292.59 
L 104.881752 292.59 
L 105.316495 292.59 
L 105.751237 292.59 
L 106.18598 292.59 
L 106.620722 292.59 
L 107.055465 292.59 
L 107.490207 292.59 
L 107.92495 292.59 
L 108.359692 292.59 
L 108.794435 292.59 
L 109.229177 292.59 
L 109.66392 292.59 
L 110.098662 292.59 
L 110.533405 292.59 
L 110.968147 292.59 
L 111.40289 292.59 
L 111.837632 292.59 
L 112.272375 292.59 
L 112.707117 292.59 
L 113.14186 292.59 
L 113.576602 292.59 
L 114.011345 292.59 
L 114.446087 292.59 
L 114.880829 292.59 
L 115.315572 292.59 
L 115.750314 292.59 
L 116.185057 292.59 
L 116.619799 292.59 
L 117.054542 292.59 
L 117.489284 292.59 
L 117.924027 292.59 
L 118.358769 292.59 
L 118.793512 292.59 
L 119.228254 292.59 
L 119.662997 292.59 
L 120.097739 292.59 
L 120.532482 292.59 
L 120.967224 292.59 
L 121.401967 292.59 
L 121.836709 292.59 
L 122.271452 292.59 
L 122.706194 292.59 
L 123.140937 292.59 
L 123.575679 292.59 
L 124.010422 292.59 
L 124.445164 292.59 
L 124.879906 292.59 
L 125.314649 292.59 
L 125.749391 292.59 
L 126.184134 292.59 
L 126.618876 292.59 
L 127.053619 292.59 
L 127.488361 292.59 
L 127.923104 292.59 
L 128.357846 292.59 
L 128.792589 292.59 
L 129.227331 292.59 
L 129.662074 292.59 
L 130.096816 292.59 
L 130.531559 292.59 
L 130.531559 20.79 
L 130.531559 20.79 
L 130.096816 20.790505 
L 129.662074 20.791568 
L 129.227331 20.79364 
L 128.792589 20.797392 
L 128.357846 20.803696 
L 127.923104 20.813521 
L 127.488361 20.827734 
L 127.053619 20.84681 
L 126.618876 20.870569 
L 126.184134 20.898028 
L 125.749391 20.927476 
L 125.314649 20.956783 
L 124.879906 20.983855 
L 124.445164 21.007079 
L 124.010422 21.025627 
L 123.575679 21.039541 
L 123.140937 21.049653 
L 122.706194 21.057475 
L 122.271452 21.065188 
L 121.836709 21.075818 
L 121.401967 21.09356 
L 120.967224 21.124105 
L 120.532482 21.174739 
L 120.097739 21.25399 
L 119.662997 21.370777 
L 119.228254 21.533238 
L 118.793512 21.747695 
L 118.358769 22.018234 
L 117.924027 22.34719 
L 117.489284 22.736375 
L 117.054542 23.188498 
L 116.619799 23.70812 
L 116.185057 24.301774 
L 115.750314 24.977324 
L 115.315572 25.743039 
L 114.880829 26.606836 
L 114.446087 27.575938 
L 114.011345 28.656931 
L 113.576602 29.856141 
L 113.14186 31.180367 
L 112.707117 32.638095 
L 112.272375 34.241082 
L 111.837632 36.005769 
L 111.40289 37.953608 
L 110.968147 40.109429 
L 110.533405 42.497702 
L 110.098662 45.137549 
L 109.66392 48.038346 
L 109.229177 51.19802 
L 108.794435 54.605465 
L 108.359692 58.247065 
L 107.92495 62.115527 
L 107.490207 66.218018 
L 107.055465 70.580387 
L 106.620722 75.245393 
L 106.18598 80.264761 
L 105.751237 85.686973 
L 105.316495 91.54411 
L 104.881752 97.841491 
L 104.44701 104.553098 
L 104.012268 111.624123 
L 103.577525 118.979833 
L 103.142783 126.537884 
L 102.70804 134.220092 
L 102.273298 141.959921 
L 101.838555 149.703744 
L 101.403813 157.406533 
L 100.96907 165.024939 
L 100.534328 172.511631 
L 100.099585 179.813792 
L 99.664843 186.87646 
L 99.2301 193.649022 
L 98.795358 200.092011 
L 98.360615 206.181773 
L 97.925873 211.912084 
L 97.49113 217.293272 
L 97.056388 222.349972 
L 96.621645 227.118156 
L 96.186903 231.641332 
L 95.75216 235.96552 
L 95.317418 240.133172 
L 94.882675 244.177157 
L 94.447933 248.116377 
L 94.013191 251.954174 
L 93.578448 255.679651 
L 93.143706 259.27106 
L 92.708963 262.70014 
L 92.274221 265.936598 
L 91.839478 268.952416 
L 91.404736 271.725765 
L 90.969993 274.244105 
L 90.535251 276.505819 
L 90.100508 278.519885 
L 89.665766 280.303609 
L 89.231023 281.879125 
L 88.796281 283.269736 
L 88.361538 284.497078 
L 87.926796 285.579672 
L 87.492053 286.532866 
L 87.057311 287.369719 
L 86.622568 288.102241 
L 86.187826 288.742384 
L 85.753083 289.302407 
L 85.318341 289.794459 
L 84.883598 290.229575 
L 84.448856 290.616487 
L 84.014114 290.960815 
L 83.579371 291.26508 
L 83.144629 291.529632 
L 82.709886 291.75421 
L 82.275144 291.939514 
L 81.840401 292.088195 
L 81.405659 292.20492 
L 80.970916 292.295612 
L 80.536174 292.36629 
L 80.101431 292.422044 
L 79.666689 292.466517 
L 79.231946 292.501961 
L 78.797204 292.529686 
L 78.362461 292.550601 
L 77.927719 292.565608 
L 77.492976 292.575755 
L 77.058234 292.582179 
L 76.623491 292.585973 
L 76.188749 292.58806 
L 75.754006 292.589126 
L 75.319264 292.589633 
z
" style="fill:#e31a1c;fill-opacity:0.25;"/>
   </g>
   <g id="line2d_13">
    <path clip-path="url(#pa1b2e4689c)" d="M 301.301416 292.589633 
L 304.095374 292.48225 
L 305.873347 292.163073 
L 306.635336 291.79748 
L 307.397325 291.090405 
L 307.905317 290.333355 
L 308.413309 289.24334 
L 308.921302 287.69733 
L 309.429294 285.56904 
L 310.191283 281.092692 
L 310.953271 274.910757 
L 311.71526 266.642376 
L 312.477248 255.809271 
L 313.493233 237.737575 
L 314.509218 216.207561 
L 315.779199 184.355694 
L 318.573156 112.961048 
L 320.097134 80.096633 
L 321.113118 62.130174 
L 322.129103 48.244178 
L 322.891092 40.344894 
L 323.65308 34.297346 
L 324.415069 29.806853 
L 325.177057 26.604493 
L 325.939046 24.462226 
L 326.701034 23.09351 
L 327.463023 22.226668 
L 328.225011 21.698457 
L 329.240996 21.307328 
L 331.018969 20.903705 
L 332.542946 20.796686 
L 333.558931 20.790038 
L 333.558931 20.790038 
" style="fill:none;stroke:#33a02c;stroke-linecap:round;stroke-width:2;"/>
   </g>
   <g id="line2d_14">
    <path clip-path="url(#pa1b2e4689c)" d="M 302.478758 292.589633 
L 304.945924 292.484254 
L 308.15324 291.96498 
L 308.89339 291.604298 
L 309.386823 291.10174 
L 309.880257 290.250038 
L 310.37369 288.927481 
L 310.867123 287.040328 
L 311.607273 283.045264 
L 312.347423 277.576841 
L 313.087572 270.379488 
L 313.827722 260.769294 
L 314.567872 248.016701 
L 315.554739 225.981281 
L 316.788322 191.848512 
L 319.502204 113.151875 
L 321.229221 72.808787 
L 322.216087 53.83245 
L 322.956237 43.494889 
L 323.696387 36.060198 
L 324.436536 30.617042 
L 325.176686 26.725464 
L 325.916836 24.186665 
L 326.410269 23.100795 
L 327.150419 22.088806 
L 327.890569 21.529998 
L 328.630719 21.235019 
L 329.864302 21.050499 
L 333.811768 20.79 
L 333.811768 20.79 
" style="fill:none;stroke:#0000ff;stroke-linecap:round;stroke-width:2;"/>
   </g>
   <g id="line2d_15">
    <path clip-path="url(#pa1b2e4689c)" d="M 231.669152 292.589581 
L 234.30127 292.48623 
L 238.395675 291.806537 
L 239.273048 291.457017 
L 240.15042 290.908774 
L 241.027793 290.084289 
L 241.905166 288.839204 
L 242.782538 287.056828 
L 243.659911 284.571206 
L 244.537283 281.038364 
L 245.414656 276.11963 
L 246.292029 269.706829 
L 247.169401 261.673426 
L 248.046774 251.567658 
L 248.924146 238.98807 
L 250.093977 218.499745 
L 251.263807 193.904409 
L 253.018552 151.010987 
L 255.065755 101.426609 
L 256.235585 77.083024 
L 257.405415 57.392336 
L 258.282787 46.199935 
L 259.16016 37.721676 
L 260.037533 31.406304 
L 260.914905 26.97601 
L 261.49982 24.975336 
L 262.084735 23.599894 
L 262.66965 22.680043 
L 263.254565 22.064796 
L 264.131938 21.501568 
L 265.301768 21.09856 
L 266.764056 20.845772 
L 268.811259 20.790164 
L 268.811259 20.790164 
" style="fill:none;stroke:#000000;stroke-linecap:round;stroke-width:2;"/>
   </g>
   <g id="line2d_16">
    <path clip-path="url(#pa1b2e4689c)" d="M 281.074958 292.58954 
L 282.076317 292.496664 
L 282.521365 292.248455 
L 282.966414 291.744716 
L 283.411462 290.886661 
L 283.967772 289.225401 
L 284.412821 287.301958 
L 284.857869 284.190702 
L 285.302917 278.787856 
L 285.747966 270.45228 
L 286.304276 255.197571 
L 286.860586 232.846695 
L 287.750683 186.443799 
L 289.642138 80.185936 
L 290.30971 55.546127 
L 290.977283 38.513683 
L 291.533593 29.426963 
L 291.978642 25.411308 
L 292.42369 23.20301 
L 292.868738 21.972157 
L 293.313786 21.322919 
L 293.870097 20.95068 
L 294.537669 20.806575 
L 295.205242 20.790003 
L 295.205242 20.790003 
" style="fill:none;stroke:#1f78b4;stroke-linecap:round;stroke-width:2;"/>
   </g>
   <g id="line2d_17">
    <path clip-path="url(#pa1b2e4689c)" d="M 467.956619 292.58961 
L 468.994479 292.501229 
L 469.409623 292.235098 
L 469.720981 291.771541 
L 470.136126 290.598363 
L 470.55127 288.555263 
L 470.966414 285.224803 
L 471.381558 280.083948 
L 471.900488 270.226397 
L 472.523204 252.578146 
L 473.353493 221.146405 
L 474.079995 184.998552 
L 476.05193 78.0921 
L 476.778432 52.270932 
L 477.401148 38.076826 
L 477.920079 30.514255 
L 478.439009 25.854621 
L 478.957939 23.251417 
L 479.476869 21.818923 
L 479.892013 21.167203 
L 480.307157 20.877816 
L 480.929874 20.793043 
L 481.137446 20.790473 
L 481.137446 20.790473 
" style="fill:none;stroke:#ff7f00;stroke-linecap:round;stroke-width:2;"/>
   </g>
   <g id="line2d_18">
    <path clip-path="url(#pa1b2e4689c)" d="M 75.319264 292.589633 
L 79.231946 292.501961 
L 80.970916 292.295612 
L 82.275144 291.939514 
L 83.579371 291.26508 
L 84.883598 290.229575 
L 85.753083 289.302407 
L 86.622568 288.102241 
L 87.492053 286.532866 
L 88.361538 284.497078 
L 89.231023 281.879125 
L 90.100508 278.519885 
L 90.969993 274.244105 
L 91.839478 268.952416 
L 93.143706 259.27106 
L 94.882675 244.177157 
L 96.621645 227.118156 
L 97.925873 211.912084 
L 99.2301 193.649022 
L 100.96907 165.024939 
L 104.881752 97.841491 
L 106.18598 80.264761 
L 107.490207 66.218018 
L 108.794435 54.605465 
L 110.098662 45.137549 
L 110.968147 40.109429 
L 111.837632 36.005769 
L 112.707117 32.638095 
L 113.576602 29.856141 
L 114.446087 27.575938 
L 115.315572 25.743039 
L 116.185057 24.301774 
L 117.054542 23.188498 
L 117.924027 22.34719 
L 118.793512 21.747695 
L 119.662997 21.370777 
L 120.967224 21.124105 
L 123.575679 21.039541 
L 130.531559 20.79 
L 130.531559 20.79 
" style="fill:none;stroke:#e31a1c;stroke-linecap:round;stroke-width:2;"/>
   </g>
   <g id="line2d_19">
    <path clip-path="url(#pa1b2e4689c)" d="M 316.927929 306.18 
L 316.927929 7.2 
" style="fill:none;stroke:#984ea3;stroke-dasharray:8.4,3.6;stroke-dashoffset:0;stroke-width:3;"/>
   </g>
   <g id="patch_3">
    <path d="M 55.028355 306.18 
L 55.028355 7.2 
" style="fill:none;"/>
   </g>
   <g id="patch_4">
    <path d="M 501.428355 306.18 
L 501.428355 7.2 
" style="fill:none;"/>
   </g>
   <g id="patch_5">
    <path d="M 55.028355 306.18 
L 501.428355 306.18 
" style="fill:none;"/>
   </g>
   <g id="patch_6">
    <path d="M 55.028355 7.2 
L 501.428355 7.2 
" style="fill:none;"/>
   </g>
   <g id="legend_1">
    <g id="line2d_20">
     <path d="M 67.628355 107.716167 
L 95.628355 107.716167 
" style="fill:none;stroke:#33a02c;stroke-linecap:round;stroke-width:2;"/>
    </g>
    <g id="line2d_21"/>
    <g id="text_15">
     <!-- actual -->
     <g style="fill:#262626;" transform="translate(106.828355 112.616167)scale(0.14 -0.14)">
      <use transform="scale(0.996264)" xlink:href="#Computer_Modern_Bright-97"/>
      <use transform="translate(46.492082 0)scale(0.996264)" xlink:href="#Computer_Modern_Bright-99"/>
      <use transform="translate(91.32375 0)scale(0.996264)" xlink:href="#Computer_Modern_Bright-116"/>
      <use transform="translate(127.438138 0)scale(0.996264)" xlink:href="#Computer_Modern_Bright-117"/>
      <use transform="translate(175.590635 0)scale(0.996264)" xlink:href="#Computer_Modern_Bright-97"/>
      <use transform="translate(222.082717 0)scale(0.996264)" xlink:href="#Computer_Modern_Bright-108"/>
     </g>
    </g>
    <g id="line2d_22">
     <path d="M 67.628355 126.840778 
L 95.628355 126.840778 
" style="fill:none;stroke:#0000ff;stroke-linecap:round;stroke-width:2;"/>
    </g>
    <g id="line2d_23"/>
    <g id="text_16">
     <!-- \emph{egl-9} $&gt;$ \emph{vhl-1} -->
     <defs>
      <path d="M 44.09375 10.859375 
C 42.796875 9.953125 41.5 8.9375 40.09375 8.140625 
C 34.296875 4.59375 24.09375 1.765625 18.203125 7.53125 
C 14.40625 11.375 13.203125 17.53125 14.796875 25 
L 46.40625 25 
C 46.796875 25 47.40625 24.90625 47.703125 25.203125 
C 48.5 25.8125 48.703125 31.375 48.703125 31.46875 
C 48.703125 32.6875 48.796875 33.890625 48.703125 35.109375 
C 48.296875 40.46875 45.703125 45.3125 40.703125 47.140625 
C 34.296875 49.765625 27 47.84375 21.5 43.90625 
C 13.796875 38.4375 8.40625 29.046875 8 19.453125 
C 7.59375 11.875 10.5 5.515625 15.40625 2.171875 
C 23.40625 -3.484375 34.5 -0.15625 40.90625 3.6875 
C 41.703125 4.203125 42.90625 4.703125 43.40625 5.40625 
C 43.703125 5.90625 44.09375 10.859375 44.09375 10.859375 
M 43.296875 28.953125 
L 16.203125 28.953125 
C 16.59375 30.671875 17.703125 32.390625 18.703125 33.796875 
C 21.296875 37.84375 25.09375 41.46875 29.796875 42.796875 
C 33.59375 43.90625 38.296875 43.1875 41 40.0625 
C 43.203125 37.4375 43.703125 33.390625 43.296875 28.953125 
" id="Computer_Modern_Bright_Slanted-101"/>
      <path d="M 37.90625 12.09375 
L 38 12.09375 
C 37.703125 10.1875 37.203125 8.265625 36.796875 6.34375 
C 36.203125 3.3125 35.703125 0.171875 34.703125 -2.65625 
C 33.5 -5.984375 31.203125 -9.109375 28.296875 -11.140625 
C 25.90625 -12.75 23.796875 -13.265625 19.90625 -12.953125 
C 15.09375 -12.953125 11.59375 -12.03125 7.796875 -10.265625 
C 6.703125 -9.75 5.796875 -9.125 4.703125 -8.609375 
L 3.5 -14.171875 
C 8.09375 -16.25 12.203125 -18 18.40625 -18 
C 19.796875 -18.109375 21.203125 -18.203125 22.59375 -18.109375 
C 31.703125 -17.203125 38.5 -10.21875 41.09375 -2.828125 
C 41.796875 -1 42.09375 1.015625 42.5 2.953125 
L 44.203125 11.03125 
C 44.796875 13.78125 51.90625 47.390625 52 48.5 
L 45.703125 48.5 
L 44.09375 40.265625 
C 43.703125 40.984375 43.5 41.78125 43.203125 42.5 
C 42.5 43.90625 41.5 45.21875 40.296875 46.234375 
C 34.40625 51.1875 25 46.640625 21 43.5 
C 15.09375 38.953125 11 32.296875 9.203125 25.125 
C 6.90625 16.234375 9.5 8.0625 14.90625 4.328125 
C 18.796875 1.59375 24.796875 0.78125 30 3.71875 
C 32.90625 5.4375 36.40625 8.96875 37.90625 12.09375 
M 34.59375 43.5 
C 40.296875 43.5 42.703125 39.546875 42.703125 33.890625 
C 42.59375 33.1875 42.40625 32.375 42.296875 31.671875 
C 40.703125 24.59375 39.40625 17.53125 35.59375 12.0625 
C 33.703125 9.34375 30.90625 7.125 27.5 6.8125 
C 25 6.609375 22.40625 7.515625 20.796875 8.328125 
C 15.90625 11.15625 14.296875 17.21875 15.09375 22.578125 
C 16 28.9375 19.5 35.03125 24.5 39.0625 
C 27.40625 41.4375 30.90625 43.203125 34.59375 43.5 
M 38 12.21875 
C 38 12.21875 38.09375 12.21875 38.09375 12.21875 
C 38.09375 12.125 38 12.015625 38 12.21875 
" id="Computer_Modern_Bright_Slanted-103"/>
      <path d="M 21.09375 70 
L 6.40625 0 
C 8.5 0 10.796875 0 12.59375 0.296875 
L 13 1.40625 
C 14 6.4375 15.09375 11.375 16.203125 16.40625 
L 27.40625 70 
z
" id="Computer_Modern_Bright_Slanted-108"/>
      <path d="M 5.90625 26.0625 
L 4.90625 21 
L 32.796875 21 
L 33.796875 26.0625 
z
" id="Computer_Modern_Bright_Slanted-45"/>
      <path d="M 46.5 33.03125 
L 46.59375 33.03125 
C 46.296875 31.3125 45.90625 29.59375 45.40625 27.96875 
C 42.703125 18.296875 37.09375 7.828125 26.90625 4.625 
C 21.5 3.015625 15.90625 4.03125 12.5 6.734375 
C 12.203125 6.9375 11.59375 7.640625 11.09375 7.546875 
C 10.703125 7.546875 10.296875 6.84375 10.09375 6.53125 
C 9.203125 5.421875 8.296875 4.328125 7.5 3.21875 
C 9.296875 1.796875 11.09375 0.484375 13.296875 -0.3125 
C 15.90625 -1.328125 20.5 -1.828125 23.59375 -1.234375 
C 29 -0.421875 34 2.515625 38.09375 6.03125 
C 47.5 14.375 53.09375 26.21875 54.59375 41.390625 
C 55.09375 45.90625 55.203125 50.515625 54.09375 55.046875 
C 53.203125 58.953125 51.703125 61.46875 48.90625 63.984375 
C 43.796875 68 36.296875 68 30.703125 65.453125 
C 25.40625 62.921875 19.90625 57.65625 17.203125 53.078125 
C 14.59375 48.609375 12.703125 41.40625 13.09375 34.90625 
C 13.5 30.8125 15.5 26.21875 18 23.703125 
C 20.296875 21.515625 23.09375 21 26.09375 21 
C 32.09375 21 38.203125 23.9375 42.5 28.171875 
C 43.90625 29.59375 45.59375 31.109375 46.5 33.03125 
M 43.90625 61.03125 
C 48.59375 58.484375 49.40625 52.515625 48.90625 47.640625 
C 48.703125 44.90625 48.5 42.171875 47.59375 39.53125 
C 45.796875 34.46875 42.09375 30 37.40625 27.578125 
C 32.40625 25.03125 24.59375 25.03125 21.5 29.765625 
C 18.90625 33.484375 19.296875 38 20.09375 42.234375 
C 20.796875 45.546875 21.5 48.96875 23 52.078125 
C 25 56.109375 28.59375 59.734375 32.90625 61.234375 
C 36.5 62.4375 40.59375 62.4375 43.90625 61.03125 
" id="Computer_Modern_Bright_Slanted-57"/>
      <path d="M 62.59375 26.546875 
L 62.59375 26.34375 
C 60.296875 25.546875 58 24.25 55.796875 23.140625 
L 27.09375 9.625 
L 11.09375 2 
C 10.40625 1.703125 9.40625 1.296875 8.90625 0.796875 
C 8 -0.203125 8.203125 -1.703125 9.296875 -2.296875 
C 10.5 -3 11.703125 -2.109375 12.796875 -1.609375 
L 21 2.203125 
C 25.203125 4.3125 55 18.328125 55 18.328125 
L 66 23.546875 
C 67.296875 24.140625 69.40625 24.75 69.40625 26.453125 
C 69.40625 28.15625 67.296875 28.75 66 29.359375 
L 55 34.5625 
L 33.703125 44.6875 
C 29.5 46.6875 25.203125 48.59375 21 50.703125 
L 12.796875 54.5 
C 11.703125 55 10.5 55.90625 9.296875 55.203125 
C 8.203125 54.609375 8 53.09375 8.90625 52.09375 
C 9.40625 51.59375 10.40625 51.203125 11.09375 50.890625 
L 41.59375 36.46875 
L 55.796875 29.75 
C 58 28.65625 60.296875 27.359375 62.59375 26.546875 
" id="Computer_Modern_Bright_Math_Slanted-62"/>
      <path d="M 10.703125 48 
C 12.796875 33.046875 15.09375 18.171875 17.09375 3.125 
C 17.296875 2.109375 17.296875 0.90625 17.796875 0.203125 
C 19.90625 0 22.59375 0 24.703125 0 
L 25.296875 0.703125 
L 44.703125 35.109375 
L 51.796875 48 
C 49.703125 48 47.5 48 45.703125 47.703125 
C 44.90625 46.59375 44.296875 45.484375 43.59375 44.265625 
C 36.59375 31.84375 29.40625 19.515625 22.703125 6.6875 
C 21.59375 16.984375 20 26.6875 18.59375 36.6875 
C 18 40.328125 17.90625 44.46875 16.90625 47.703125 
C 15.09375 48 12.796875 48 10.703125 48 
" id="Computer_Modern_Bright_Slanted-118"/>
      <path d="M 21.09375 70 
L 6.40625 0 
L 10.90625 0 
C 11.796875 0 13 -0.296875 13 1.015625 
C 13.203125 1.71875 13.296875 2.328125 13.40625 3.03125 
C 14.40625 7.78125 19 29.5 19.296875 30.40625 
C 20.40625 33.953125 22.40625 37.375 25.09375 39.90625 
C 28 42.4375 31.203125 43.84375 36.59375 42.9375 
C 38.796875 42.53125 40.90625 41.625 42 39.5 
C 43.5 36.46875 42.40625 32.9375 41.796875 29.90625 
L 35.5 0 
L 40.203125 0 
C 41.203125 0 42.09375 -0.203125 42.09375 1.109375 
C 42.703125 3.125 44.09375 10.625 44.09375 10.625 
L 48.59375 32 
C 49.40625 35.734375 50.296875 40.40625 48.203125 43.9375 
C 46.296875 46.984375 42.90625 48 39.59375 48.296875 
C 38.09375 48.296875 36.5 48.296875 35 48 
C 30.796875 47.3125 27.09375 45.09375 24.09375 42.09375 
C 22.90625 40.890625 21.5 39.59375 20.796875 37.984375 
L 20.703125 37.984375 
L 27.40625 70 
z
" id="Computer_Modern_Bright_Slanted-104"/>
      <path d="M 22.5 61 
L 21.5 55.9375 
C 26.296875 55.9375 31.40625 56.546875 35.703125 58.875 
L 24.5 5.046875 
C 20.296875 5.046875 15.296875 5.5625 11.5 5.046875 
C 10.90625 3.578125 10.703125 1.671875 10.296875 0 
C 21.09375 0 32.59375 0 42.796875 0 
C 43.40625 1.453125 43.703125 3.296875 44.09375 5.046875 
L 31 5.046875 
C 35.203125 26.0625 39.796875 46.59375 44.09375 67.5 
C 41.703125 67.5 42 67.09375 40 65.59375 
C 35.59375 62.59375 28.90625 61 22.5 61 
" id="Computer_Modern_Bright_Slanted-49"/>
     </defs>
     <g style="fill:#262626;" transform="translate(106.828355 131.740778)scale(0.14 -0.14)">
      <use transform="scale(0.996264)" xlink:href="#Computer_Modern_Bright_Slanted-101"/>
      <use transform="translate(44.831668 0)scale(0.996264)" xlink:href="#Computer_Modern_Bright_Slanted-103"/>
      <use transform="translate(92.984165 0)scale(0.996264)" xlink:href="#Computer_Modern_Bright_Slanted-108"/>
      <use transform="translate(112.079123 0)scale(0.996264)" xlink:href="#Computer_Modern_Bright_Slanted-45"/>
      <use transform="translate(145.287797 0)scale(0.996264)" xlink:href="#Computer_Modern_Bright_Slanted-57"/>
      <use transform="translate(238.372567 0)scale(0.996264)" xlink:href="#Computer_Modern_Bright_Math_Slanted-62"/>
      <use transform="translate(347.325246 0)scale(0.996264)" xlink:href="#Computer_Modern_Bright_Slanted-118"/>
      <use transform="translate(389.666284 0)scale(0.996264)" xlink:href="#Computer_Modern_Bright_Slanted-104"/>
      <use transform="translate(437.818781 0)scale(0.996264)" xlink:href="#Computer_Modern_Bright_Slanted-108"/>
      <use transform="translate(456.91374 0)scale(0.996264)" xlink:href="#Computer_Modern_Bright_Slanted-45"/>
      <use transform="translate(490.122414 0)scale(0.996264)" xlink:href="#Computer_Modern_Bright_Slanted-49"/>
     </g>
    </g>
    <g id="line2d_24">
     <path d="M 67.628355 145.965389 
L 95.628355 145.965389 
" style="fill:none;stroke:#000000;stroke-linecap:round;stroke-width:2;"/>
    </g>
    <g id="line2d_25"/>
    <g id="text_17">
     <!-- \emph{vhl-1} $&gt;$ \emph{egl-9} -->
     <g style="fill:#262626;" transform="translate(106.828355 150.865389)scale(0.14 -0.14)">
      <use transform="scale(0.996264)" xlink:href="#Computer_Modern_Bright_Slanted-118"/>
      <use transform="translate(42.341038 0)scale(0.996264)" xlink:href="#Computer_Modern_Bright_Slanted-104"/>
      <use transform="translate(90.493535 0)scale(0.996264)" xlink:href="#Computer_Modern_Bright_Slanted-108"/>
      <use transform="translate(109.588494 0)scale(0.996264)" xlink:href="#Computer_Modern_Bright_Slanted-45"/>
      <use transform="translate(142.797167 0)scale(0.996264)" xlink:href="#Computer_Modern_Bright_Slanted-49"/>
      <use transform="translate(235.881937 0)scale(0.996264)" xlink:href="#Computer_Modern_Bright_Math_Slanted-62"/>
      <use transform="translate(344.834617 0)scale(0.996264)" xlink:href="#Computer_Modern_Bright_Slanted-101"/>
      <use transform="translate(389.666284 0)scale(0.996264)" xlink:href="#Computer_Modern_Bright_Slanted-103"/>
      <use transform="translate(437.818781 0)scale(0.996264)" xlink:href="#Computer_Modern_Bright_Slanted-108"/>
      <use transform="translate(456.91374 0)scale(0.996264)" xlink:href="#Computer_Modern_Bright_Slanted-45"/>
      <use transform="translate(490.122414 0)scale(0.996264)" xlink:href="#Computer_Modern_Bright_Slanted-57"/>
     </g>
    </g>
    <g id="line2d_26">
     <path d="M 67.628355 165.09 
L 95.628355 165.09 
" style="fill:none;stroke:#1f78b4;stroke-linecap:round;stroke-width:2;"/>
    </g>
    <g id="line2d_27"/>
    <g id="text_18">
     <!-- Unbranched -->
     <defs>
      <path d="M 8 69.5 
L 8 32.75 
C 8 25.71875 7.203125 18.390625 10.703125 11.96875 
C 12.90625 7.84375 16.09375 4.4375 20.09375 2.125 
C 29.90625 -3.609375 43.5 -2.203125 51.296875 6.4375 
C 54.796875 10.359375 57.296875 15.171875 57.796875 21.796875 
C 57.90625 23.40625 57.796875 24.921875 57.796875 26.515625 
L 57.796875 69.5 
L 51.40625 69.5 
L 51.40625 25.90625 
C 51.40625 24.59375 51.5 23.1875 51.40625 21.890625 
C 51.203125 18.890625 50.59375 15.921875 49.40625 13.25 
C 43.90625 1 25 1 18 11.890625 
C 14.203125 17.78125 15 25.0625 15 31.65625 
L 15 69.5 
z
" id="Computer_Modern_Bright-85"/>
      <path d="M 6.40625 69.6875 
L 6.40625 0 
L 12.796875 0 
L 12.796875 6.328125 
L 12.90625 6.328125 
C 14 4.109375 16.5 2.015625 18.59375 0.90625 
C 25.796875 -2.90625 34.40625 0.90625 39.09375 7.03125 
C 48.59375 19.578125 44.796875 40.875 32.296875 46.796875 
C 27.40625 49 21.5 48 17.09375 44.984375 
C 15.40625 43.78125 14 42.375 12.703125 40.765625 
L 12.703125 69.6875 
z
M 21.90625 42.984375 
C 26.59375 43.375 31.5 41.265625 34.296875 37.453125 
C 36.203125 34.9375 37.203125 31.9375 37.703125 28.8125 
C 38.703125 21.484375 37.90625 12.25 31.40625 7.4375 
C 30.296875 6.625 29.09375 6.03125 27.796875 5.515625 
C 22.40625 3.515625 17 4.109375 14 8.84375 
C 13.09375 10.4375 12.796875 10.546875 12.796875 12.953125 
L 12.796875 33.734375 
C 12.796875 34.75 12.59375 35.953125 13 36.859375 
C 14.59375 40.171875 18.296875 42.671875 21.90625 42.984375 
" id="Computer_Modern_Bright-98"/>
      <path d="M 12.5 34.75 
L 12.40625 34.75 
L 12.40625 47.390625 
L 6.40625 47.390625 
L 6.40625 0 
L 12.703125 0 
L 12.703125 22.890625 
C 12.703125 24.40625 12.703125 25.90625 12.90625 27.40625 
C 14.296875 35.953125 21.703125 42.28125 31.40625 42.28125 
L 31.40625 48 
C 25 48 19.09375 44.890625 15.296875 39.765625 
C 14.203125 38.265625 13 36.546875 12.5 34.75 
" id="Computer_Modern_Bright-114"/>
      <path d="M 6.40625 69.6875 
L 6.40625 0 
L 12.796875 0 
L 12.796875 21.984375 
C 12.796875 26.90625 12.5 31.9375 14.703125 36.546875 
C 15.796875 38.859375 17.5 40.875 19.796875 42.078125 
C 21.703125 42.984375 23.703125 42.984375 25.796875 42.78125 
C 28.796875 42.78125 31.703125 41.984375 33.59375 39.453125 
C 35.40625 37.140625 35.5 34.140625 35.5 31.3125 
L 35.5 0 
L 41.90625 0 
L 41.90625 27.21875 
C 41.90625 32.234375 42.40625 37.75 39.90625 42.28125 
C 37.90625 45.6875 34.40625 47.296875 30.703125 47.796875 
C 28.703125 48 26.703125 48 24.703125 47.703125 
C 21.09375 47.015625 18 45.03125 15.59375 42.34375 
C 14.5 41.046875 13.203125 39.46875 12.796875 37.765625 
L 12.703125 37.765625 
L 12.703125 69.6875 
z
" id="Computer_Modern_Bright-104"/>
      <path d="M 35.59375 69.6875 
L 35.59375 41.375 
C 33.703125 43.484375 31.796875 45.484375 29.203125 46.6875 
C 20.296875 50.40625 11.703125 45.59375 7.296875 37.65625 
C 2.203125 28.21875 2.796875 15.765625 8.90625 6.921875 
C 13.203125 0.796875 20.296875 -2.203125 27.796875 0.5 
C 30.703125 1.609375 34.203125 4.515625 35.40625 7.125 
L 35.5 7.125 
L 35.5 0 
L 41.90625 0 
L 41.90625 69.6875 
z
M 35.203125 37.453125 
C 35.703125 36.546875 35.5 35.34375 35.5 34.34375 
L 35.5 13.65625 
C 35.5 11.34375 35.40625 11.140625 34.09375 9.34375 
C 32.296875 6.625 29.5 4.71875 26.203125 4.421875 
C 21.40625 4.015625 16.5 6.328125 13.703125 10.25 
C 12.09375 12.546875 11.203125 15.359375 10.703125 18.171875 
C 10.5 19.28125 10.5 20.28125 10.40625 21.390625 
C 9.796875 28.015625 11.203125 35.84375 17 40.0625 
C 18 40.765625 19.09375 41.265625 20.203125 41.765625 
C 26 43.984375 32.40625 43.375 35.203125 37.453125 
" id="Computer_Modern_Bright-100"/>
     </defs>
     <g style="fill:#262626;" transform="translate(106.828355 169.99)scale(0.14 -0.14)">
      <use transform="scale(0.996264)" xlink:href="#Computer_Modern_Bright-85"/>
      <use transform="translate(65.587132 0)scale(0.996264)" xlink:href="#Computer_Modern_Bright-110"/>
      <use transform="translate(113.739629 0)scale(0.996264)" xlink:href="#Computer_Modern_Bright-98"/>
      <use transform="translate(158.986397 0)scale(0.996264)" xlink:href="#Computer_Modern_Bright-114"/>
      <use transform="translate(190.949756 0)scale(0.996264)" xlink:href="#Computer_Modern_Bright-97"/>
      <use transform="translate(237.441838 0)scale(0.996264)" xlink:href="#Computer_Modern_Bright-110"/>
      <use transform="translate(285.594335 0)scale(0.996264)" xlink:href="#Computer_Modern_Bright-99"/>
      <use transform="translate(330.426003 0)scale(0.996264)" xlink:href="#Computer_Modern_Bright-104"/>
      <use transform="translate(378.5785 0)scale(0.996264)" xlink:href="#Computer_Modern_Bright-101"/>
      <use transform="translate(423.410167 0)scale(0.996264)" xlink:href="#Computer_Modern_Bright-100"/>
     </g>
    </g>
    <g id="line2d_28">
     <path d="M 67.628355 184.214611 
L 95.628355 184.214611 
" style="fill:none;stroke:#ff7f00;stroke-linecap:round;stroke-width:2;"/>
    </g>
    <g id="line2d_29"/>
    <g id="text_19">
     <!-- Additive -->
     <defs>
      <path d="M 2.09375 0.09375 
L 6.59375 0.09375 
L 8.40625 0.296875 
C 11.40625 6.796875 13.5 14.203125 16.203125 21 
C 26.09375 21 36.90625 21 46.296875 21 
L 47.09375 19.6875 
C 48.796875 14.546875 50.796875 9.59375 52.59375 4.546875 
C 53.09375 3.015625 53.59375 1.515625 54.40625 0.296875 
C 56.59375 0 59.203125 0 61.59375 0 
C 59.90625 4.90625 36.703125 67.203125 36 68.890625 
C 35.90625 69.296875 35.703125 69.890625 35.203125 70 
C 34.59375 70.09375 34 70 33.40625 70 
L 30.09375 70 
C 28.59375 70 28 70.1875 27.59375 68.609375 
C 27.203125 67.59375 2.09375 0.09375 2.09375 0.09375 
M 31.40625 63.171875 
C 35.59375 50.71875 40.09375 38.46875 44.5 26.21875 
L 18.203125 26.21875 
L 26.90625 50.109375 
z
" id="Computer_Modern_Bright-65"/>
     </defs>
     <g style="fill:#262626;" transform="translate(106.828355 189.114611)scale(0.14 -0.14)">
      <use transform="scale(0.996264)" xlink:href="#Computer_Modern_Bright-65"/>
      <use transform="translate(63.511618 0)scale(0.996264)" xlink:href="#Computer_Modern_Bright-100"/>
      <use transform="translate(111.664115 0)scale(0.996264)" xlink:href="#Computer_Modern_Bright-100"/>
      <use transform="translate(159.816612 0)scale(0.996264)" xlink:href="#Computer_Modern_Bright-105"/>
      <use transform="translate(178.911571 0)scale(0.996264)" xlink:href="#Computer_Modern_Bright-116"/>
      <use transform="translate(215.025959 0)scale(0.996264)" xlink:href="#Computer_Modern_Bright-105"/>
      <use transform="translate(234.120917 0)scale(0.996264)" xlink:href="#Computer_Modern_Bright-118"/>
      <use transform="translate(276.461955 0)scale(0.996264)" xlink:href="#Computer_Modern_Bright-101"/>
     </g>
    </g>
    <g id="line2d_30">
     <path d="M 67.628355 203.339222 
L 95.628355 203.339222 
" style="fill:none;stroke:#e31a1c;stroke-linecap:round;stroke-width:2;"/>
    </g>
    <g id="line2d_31"/>
    <g id="text_20">
     <!-- Suppression -->
     <defs>
      <path d="M 5.09375 13.015625 
C 4.90625 11.390625 4.5 9.671875 4.296875 8.046875 
C 4.09375 6.53125 3.59375 6.109375 4.90625 5.3125 
C 8.296875 3.390625 11.203125 2.0625 15.40625 0.75 
C 24.796875 -2 35.59375 -2 43.796875 4.140625 
C 45.09375 5.140625 46.296875 6.234375 47.40625 7.53125 
C 49.90625 10.890625 52.203125 14.96875 51.59375 20.53125 
C 50.90625 27.671875 46.09375 33.625 39.59375 36.609375 
C 30.703125 40.578125 16.203125 40.578125 12.203125 49.375 
C 9.09375 56.1875 14.59375 62.171875 20.796875 64.375 
C 26.90625 66.6875 34.90625 65.78125 40.09375 63.375 
C 42.5 62.265625 44.5 60.65625 46.703125 59.25 
C 46.90625 60.96875 47.296875 62.578125 47.59375 64.28125 
C 47.796875 65.375 48.09375 66.390625 46.90625 66.78125 
L 45 67.796875 
C 42.296875 69 39.5 69.90625 36.59375 70.5 
C 27.59375 72.203125 17.203125 71.203125 10.40625 64.484375 
C 7 61.0625 4.09375 56.4375 5.296875 49.515625 
C 6.703125 42.390625 12.296875 37.875 18.09375 35.65625 
C 21.5 34.359375 25.296875 33.65625 28.90625 32.75 
C 31 32.34375 33.203125 31.84375 35.296875 31.140625 
C 40.703125 29.125 45.40625 25.109375 45.40625 17.6875 
C 44.796875 11.296875 39.203125 6.625 33.296875 5.203125 
C 25.703125 3.265625 16.703125 6.015625 11.5 8.75 
C 9.203125 9.96875 7.203125 11.59375 5.09375 13.015625 
" id="Computer_Modern_Bright-83"/>
     </defs>
     <g style="fill:#262626;" transform="translate(106.828355 208.239222)scale(0.14 -0.14)">
      <use transform="scale(0.996264)" xlink:href="#Computer_Modern_Bright-83"/>
      <use transform="translate(56.454753 0)scale(0.996264)" xlink:href="#Computer_Modern_Bright-117"/>
      <use transform="translate(104.60725 0)scale(0.996264)" xlink:href="#Computer_Modern_Bright-112"/>
      <use transform="translate(152.759747 0)scale(0.996264)" xlink:href="#Computer_Modern_Bright-112"/>
      <use transform="translate(198.006514 0)scale(0.996264)" xlink:href="#Computer_Modern_Bright-114"/>
      <use transform="translate(229.969873 0)scale(0.996264)" xlink:href="#Computer_Modern_Bright-101"/>
      <use transform="translate(274.801541 0)scale(0.996264)" xlink:href="#Computer_Modern_Bright-115"/>
      <use transform="translate(313.24057 0)scale(0.996264)" xlink:href="#Computer_Modern_Bright-115"/>
      <use transform="translate(351.679599 0)scale(0.996264)" xlink:href="#Computer_Modern_Bright-105"/>
      <use transform="translate(370.774558 0)scale(0.996264)" xlink:href="#Computer_Modern_Bright-111"/>
      <use transform="translate(421.417776 0)scale(0.996264)" xlink:href="#Computer_Modern_Bright-110"/>
     </g>
    </g>
   </g>
  </g>
 </g>
 <defs>
  <clipPath id="pa1b2e4689c">
   <rect height="298.98" width="446.4" x="55.028355" y="7.2"/>
  </clipPath>
 </defs>
</svg>
