<?xml version="1.0" encoding="utf-8" standalone="no"?>
<!DOCTYPE svg PUBLIC "-//W3C//DTD SVG 1.1//EN"
  "http://www.w3.org/Graphics/SVG/1.1/DTD/svg11.dtd">
<!-- Created with matplotlib (http://matplotlib.org/) -->
<svg height="353pt" version="1.1" viewBox="0 0 503 353" width="503pt" xmlns="http://www.w3.org/2000/svg" xmlns:xlink="http://www.w3.org/1999/xlink">
 <defs>
  <style type="text/css">
*{stroke-linecap:butt;stroke-linejoin:round;}
  </style>
 </defs>
 <g id="figure_1">
  <g id="patch_1">
   <path d="M 0 353.548374 
L 503.979163 353.548374 
L 503.979163 0 
L 0 0 
z
" style="fill:#ffffff;"/>
  </g>
  <g id="axes_1">
   <g id="patch_2">
    <path d="M 50.379163 306.18 
L 496.779163 306.18 
L 496.779163 7.2 
L 50.379163 7.2 
z
" style="fill:#eaeaf2;"/>
   </g>
   <g id="matplotlib.axis_1">
    <g id="xtick_1">
     <g id="line2d_1"/>
     <g id="text_1">
      <!-- $-1.0$ -->
      <defs>
       <path d="M 9.796875 28.078125 
C 8 27.484375 7.796875 24.78125 9.796875 24.28125 
C 10.296875 24.078125 10.90625 24.1875 11.5 24.1875 
L 64.703125 24.1875 
C 65.90625 24.1875 67.796875 23.78125 68.796875 24.78125 
C 69.90625 25.875 69.296875 27.875 67.703125 28.1875 
C 66.5 28.375 65.09375 28.1875 63.90625 28.1875 
L 11.40625 28.1875 
C 10.90625 28.1875 10.296875 28.28125 9.796875 28.078125 
" id="Computer_Modern_Bright_Math_Symbols-0"/>
       <path d="M 9.703125 60.015625 
L 9.703125 55 
C 15.203125 55 19 56 23.40625 57.90625 
L 23.40625 5.015625 
L 10.296875 5.015625 
L 10.296875 0 
L 43 0 
L 43 5.015625 
L 29.90625 5.015625 
L 29.90625 67 
C 27.5 67 27.90625 66.359375 26 64.875 
C 21.90625 61.71875 16.203125 60.015625 9.703125 60.015625 
" id="Computer_Modern_Bright-49"/>
       <path d="M 10.703125 7.8125 
L 10.703125 0 
L 18.5 0 
L 18.5 7.8125 
z
" id="Computer_Modern_Bright_Math_Slanted-58"/>
       <path d="M 14.796875 63.859375 
C 11.90625 61.859375 9.90625 59.140625 8.40625 56.03125 
C 4.796875 49 4.40625 40.765625 4.40625 31.828125 
C 4.40625 20.578125 6.40625 10.25 12 4.3125 
C 17.296875 -1.203125 25.703125 -2.609375 32.796875 0.296875 
C 37.203125 2.015625 40.40625 5.71875 42.40625 9.734375 
C 46 16.875 46.40625 25.40625 46.40625 34.234375 
C 46.40625 37.046875 46.296875 39.859375 46 42.671875 
C 45.296875 49.40625 43 56.828125 39.296875 60.953125 
C 33.203125 67.6875 22.296875 69.1875 14.796875 63.859375 
M 34.90625 58.140625 
C 39.59375 53.125 40 43.484375 40 34.34375 
L 40 28.921875 
C 40 24.296875 39.203125 18.28125 38.203125 14.859375 
C 36.796875 10.140625 34.5 6.734375 29.90625 4.625 
C 24.296875 2.609375 18.5 4.515625 15.296875 8.9375 
C 11 14.65625 10.796875 24.796875 10.796875 33.734375 
C 10.796875 42.171875 10.90625 51.515625 15 57.03125 
C 19.5 63.0625 29.203125 64.0625 34.90625 58.140625 
" id="Computer_Modern_Bright-48"/>
      </defs>
      <g style="fill:#262626;" transform="translate(70.421839 324.249603)scale(0.16 -0.16)">
       <use transform="scale(0.996264)" xlink:href="#Computer_Modern_Bright_Math_Symbols-0"/>
       <use transform="translate(77.487468 0)scale(0.996264)" xlink:href="#Computer_Modern_Bright-49"/>
       <use transform="translate(128.130685 0)scale(0.996264)" xlink:href="#Computer_Modern_Bright_Math_Slanted-58"/>
       <use transform="translate(157.188132 0)scale(0.996264)" xlink:href="#Computer_Modern_Bright-48"/>
      </g>
     </g>
    </g>
    <g id="xtick_2">
     <g id="line2d_2"/>
     <g id="text_2">
      <!-- $-0.8$ -->
      <defs>
       <path d="M 18.703125 36 
L 18.703125 35.90625 
C 12.5 34.09375 7.296875 30.6875 4.796875 24.84375 
C 2.203125 18.71875 4 11.28125 8.40625 6.453125 
C 13.09375 1.421875 19.5 -1 26.296875 -1 
C 36.296875 -1 45.90625 6.40625 47.09375 16.734375 
C 47.296875 18.265625 47.203125 19.890625 47 21.40625 
C 45.203125 29.21875 39.5 33.875 32.09375 35.90625 
C 32.90625 36.203125 33.796875 36.40625 34.59375 36.703125 
C 38.796875 38.421875 42.296875 40.921875 44.5 44.9375 
C 47.796875 51.375 44.59375 58.90625 39.203125 63.015625 
C 33.796875 67.140625 26.5 68.234375 19.90625 66.828125 
C 12 65.125 4.5 58.40625 5 49.765625 
C 5.203125 46.75 6.5 44.234375 8 42.4375 
C 10.296875 39.625 14.796875 36.609375 18.703125 36 
M 23.796875 62.5 
C 28.203125 62.5 33.703125 62 36.90625 58.578125 
C 40.703125 54.46875 40.90625 47.03125 37.09375 42.8125 
C 34.703125 40.203125 31.203125 38.890625 27.703125 38.59375 
C 22.796875 38.1875 17.203125 39 13.703125 42.8125 
C 9.796875 47.125 10.09375 54.96875 14.296875 58.984375 
C 16.90625 61.390625 20.40625 62.1875 23.796875 62.5 
M 23.703125 33.5 
C 28.40625 33.5 33.5 32.390625 36.90625 28.9375 
C 38.203125 27.53125 39.203125 25.8125 39.796875 24.015625 
C 41.5 18.75 40.703125 12.09375 36.796875 8.046875 
C 34.09375 5.328125 30.40625 4.3125 26.703125 4.015625 
C 22.203125 4.015625 17 5.109375 13.796875 8.5625 
C 9.40625 13.390625 8.5 23.40625 13.703125 29.0625 
C 16.296875 31.78125 20 33.203125 23.703125 33.5 
" id="Computer_Modern_Bright-56"/>
      </defs>
      <g style="fill:#262626;" transform="translate(146.819852 324.249603)scale(0.16 -0.16)">
       <use transform="scale(0.996264)" xlink:href="#Computer_Modern_Bright_Math_Symbols-0"/>
       <use transform="translate(77.487468 0)scale(0.996264)" xlink:href="#Computer_Modern_Bright-48"/>
       <use transform="translate(128.130685 0)scale(0.996264)" xlink:href="#Computer_Modern_Bright_Math_Slanted-58"/>
       <use transform="translate(157.188132 0)scale(0.996264)" xlink:href="#Computer_Modern_Bright-56"/>
      </g>
     </g>
    </g>
    <g id="xtick_3">
     <g id="line2d_3"/>
     <g id="text_3">
      <!-- $-0.6$ -->
      <defs>
       <path d="M 11.296875 32.625 
L 11.203125 32.625 
C 11.203125 41.765625 12.796875 52.421875 20.59375 58.25 
C 24.90625 61.375 30.703125 62.96875 38.203125 61.171875 
C 39.796875 60.765625 41.296875 60.15625 42.796875 59.765625 
L 42.796875 63.28125 
C 42.796875 63.671875 42.90625 64.375 42.59375 64.78125 
C 41.90625 65.6875 36.296875 66.59375 36.09375 66.59375 
C 27.40625 67.59375 21.703125 65.6875 16.40625 61.171875 
C 10 55.640625 6.296875 47.515625 5.09375 39.28125 
C 4 32.65625 4.90625 22 6.203125 16.78125 
C 8.296875 9.046875 12.296875 2.21875 19.703125 -0.390625 
C 24.09375 -2 29.5 -2 33.703125 0.015625 
C 37.09375 1.640625 39.90625 4.46875 42.09375 7.5 
C 45.59375 12.34375 46.5 18.21875 46.09375 24.171875 
C 45.90625 27.109375 45.5 30.046875 44.296875 32.765625 
C 42.40625 37.125 39.203125 41.671875 35.09375 43.6875 
C 33.203125 44.5 31.203125 44.5 29.203125 44.5 
C 23.90625 44.5 18.90625 42.1875 15.203125 38.359375 
C 13.59375 36.75 12 34.71875 11.296875 32.625 
M 24.40625 39.515625 
C 28.203125 39.8125 32.203125 39.21875 35.09375 36.5 
C 38.90625 32.890625 39.59375 27.765625 39.59375 22.8125 
C 39.59375 19.46875 39.703125 16.015625 38.703125 12.859375 
C 38.09375 11.234375 37.296875 9.828125 36.40625 8.5 
C 34.203125 5.5625 31.40625 4.125 26.796875 3.515625 
C 22.296875 3.515625 17.796875 5.3125 15.203125 9.125 
C 13.59375 11.328125 12.796875 14.046875 12.296875 16.640625 
C 11.703125 19.34375 11.296875 22.140625 11.5 24.859375 
C 12 31.984375 17 38.515625 24.40625 39.515625 
" id="Computer_Modern_Bright-54"/>
      </defs>
      <g style="fill:#262626;" transform="translate(223.217865 324.249603)scale(0.16 -0.16)">
       <use transform="scale(0.996264)" xlink:href="#Computer_Modern_Bright_Math_Symbols-0"/>
       <use transform="translate(77.487468 0)scale(0.996264)" xlink:href="#Computer_Modern_Bright-48"/>
       <use transform="translate(128.130685 0)scale(0.996264)" xlink:href="#Computer_Modern_Bright_Math_Slanted-58"/>
       <use transform="translate(157.188132 0)scale(0.996264)" xlink:href="#Computer_Modern_Bright-54"/>
      </g>
     </g>
    </g>
    <g id="xtick_4">
     <g id="line2d_4"/>
     <g id="text_4">
      <!-- $-0.4$ -->
      <defs>
       <path d="M 2.09375 18 
L 31 18 
L 31 0 
L 37.296875 0 
L 37.296875 18 
L 48.703125 18 
L 48.703125 23.328125 
L 37.296875 23.328125 
L 37.296875 66.46875 
L 31.90625 66.46875 
C 30.09375 66.46875 29.59375 66.578125 28.796875 65.0625 
C 24.796875 58.515625 3.703125 25.765625 3 24.859375 
C 2.203125 23.4375 2.09375 23.546875 2.09375 21.4375 
z
M 31.296875 60.875 
L 31.296875 23.328125 
L 8.59375 23.328125 
C 9.296875 24.734375 10.296875 26.03125 11.203125 27.4375 
C 16.203125 35.171875 28.09375 53.546875 30.59375 59.28125 
C 30.90625 59.78125 31 60.375 31.296875 60.875 
" id="Computer_Modern_Bright-52"/>
      </defs>
      <g style="fill:#262626;" transform="translate(299.615877 324.249603)scale(0.16 -0.16)">
       <use transform="scale(0.996264)" xlink:href="#Computer_Modern_Bright_Math_Symbols-0"/>
       <use transform="translate(77.487468 0)scale(0.996264)" xlink:href="#Computer_Modern_Bright-48"/>
       <use transform="translate(128.130685 0)scale(0.996264)" xlink:href="#Computer_Modern_Bright_Math_Slanted-58"/>
       <use transform="translate(157.188132 0)scale(0.996264)" xlink:href="#Computer_Modern_Bright-52"/>
      </g>
     </g>
    </g>
    <g id="xtick_5">
     <g id="line2d_5"/>
     <g id="text_5">
      <!-- $-0.2$ -->
      <defs>
       <path d="M 7.296875 45.96875 
C 8.703125 51.59375 11.09375 57.984375 16.796875 60.5 
C 19.203125 61.5 21.796875 61.703125 24.40625 61.5 
C 29.296875 61.09375 34.09375 59.09375 37.09375 55.09375 
C 39.296875 52.078125 40.09375 48.375 39.703125 44.78125 
C 38.5 34.34375 28.296875 26.84375 21.703125 21.234375 
C 17.90625 18.03125 7.09375 7.8125 7.09375 7.8125 
L 5.40625 6.203125 
C 4.5 5.3125 4.40625 5.3125 4.40625 3.5 
L 4.40625 0 
L 46.40625 0 
L 46.40625 5.625 
L 10.203125 5.625 
C 13.40625 8.734375 26.703125 20.515625 28.5 21.921875 
C 34.296875 26.65625 40.796875 31.375 44.296875 38.21875 
C 48.203125 46.0625 46.5 55.9375 39.90625 61.765625 
C 35.90625 65.296875 30.40625 67 25.09375 67 
C 20.203125 67 15.203125 66 11.296875 62.90625 
C 8.296875 60.390625 5.796875 56.6875 4.40625 52.875 
C 4.09375 52.28125 3.59375 51.28125 3.703125 50.578125 
C 3.796875 49.984375 4.40625 49.484375 4.703125 49.078125 
C 5.5 48.078125 6.296875 46.875 7.296875 45.96875 
" id="Computer_Modern_Bright-50"/>
      </defs>
      <g style="fill:#262626;" transform="translate(376.01389 324.249603)scale(0.16 -0.16)">
       <use transform="scale(0.996264)" xlink:href="#Computer_Modern_Bright_Math_Symbols-0"/>
       <use transform="translate(77.487468 0)scale(0.996264)" xlink:href="#Computer_Modern_Bright-48"/>
       <use transform="translate(128.130685 0)scale(0.996264)" xlink:href="#Computer_Modern_Bright_Math_Slanted-58"/>
       <use transform="translate(157.188132 0)scale(0.996264)" xlink:href="#Computer_Modern_Bright-50"/>
      </g>
     </g>
    </g>
    <g id="xtick_6">
     <g id="line2d_6"/>
     <g id="text_6">
      <!-- $0.0$ -->
      <g style="fill:#262626;" transform="translate(458.610901 324.249603)scale(0.16 -0.16)">
       <use transform="scale(0.996264)" xlink:href="#Computer_Modern_Bright-48"/>
       <use transform="translate(50.643218 0)scale(0.996264)" xlink:href="#Computer_Modern_Bright_Math_Slanted-58"/>
       <use transform="translate(79.700665 0)scale(0.996264)" xlink:href="#Computer_Modern_Bright-48"/>
      </g>
     </g>
    </g>
    <g id="text_7">
     <!-- Epistasis Coefficient -->
     <defs>
      <path d="M 8 69.328125 
L 8 0 
L 55.40625 0 
L 55.40625 5.625 
L 15 5.625 
L 15 33.671875 
L 51.09375 33.671875 
L 51.09375 39 
L 15 39 
L 15 64 
L 54 64 
L 54 69.328125 
z
" id="Computer_Modern_Bright-69"/>
      <path d="M 12.703125 40.53125 
L 12.703125 47.15625 
L 6.40625 47.15625 
L 6.40625 -17 
L 12.796875 -17 
L 12.796875 6.09375 
C 14.203125 4.078125 15.796875 2.28125 17.90625 1.078125 
C 25 -3.25 34 0.171875 38.90625 6.59375 
C 45.40625 14.96875 46.09375 27.5 41.59375 36.984375 
C 39 42.4375 34.09375 47.5 27.796875 48 
C 22.296875 48 18.09375 45.8125 15.09375 43.125 
C 14.203125 42.328125 13.5 41.4375 12.703125 40.53125 
M 21.90625 42.875 
C 26 43.171875 30 41.265625 32.796875 38.265625 
C 34.5 36.34375 35.796875 34.140625 36.59375 31.734375 
C 40.09375 22.296875 36.90625 9.234375 26.796875 5.328125 
C 21 3.109375 15.296875 5.125 13.09375 10.546875 
C 12.59375 11.546875 12.796875 12.859375 12.796875 13.953125 
L 12.796875 34.640625 
C 12.796875 36.953125 13 37.15625 14.5 38.859375 
C 16.296875 41.0625 19 42.578125 21.90625 42.875 
" id="Computer_Modern_Bright-112"/>
      <path d="M 6.40625 70 
L 6.40625 63.671875 
L 12.703125 63.671875 
L 12.703125 70 
z
M 6.40625 47.390625 
L 6.40625 0 
L 12.703125 0 
L 12.703125 47.390625 
z
" id="Computer_Modern_Bright-105"/>
      <path d="M 3.09375 9.640625 
C 2.90625 8.234375 2.59375 6.9375 2.40625 5.53125 
C 2.203125 4.421875 1.90625 3.921875 2.90625 3.421875 
C 7 1.015625 11.90625 -0.296875 17.703125 -0.796875 
C 24.203125 -1.40625 32.40625 0.109375 35.59375 6.53125 
C 36.5 8.34375 37 10.34375 37.09375 12.359375 
C 37.5 19.578125 31.796875 24.203125 26.90625 25.90625 
C 21.40625 28.015625 13.90625 27.3125 10.09375 31.53125 
C 8.09375 33.84375 8 37.265625 9.90625 39.671875 
C 13.90625 45.296875 26.796875 42.875 31.90625 40.375 
C 32.703125 39.96875 33.40625 39.46875 34.296875 39.265625 
L 35.203125 44.6875 
C 30.5 46.796875 26.40625 48 19.90625 48 
C 14.296875 48 9.203125 46.703125 6 43.484375 
C 2.796875 40.171875 1.703125 34.640625 3.59375 30.4375 
C 5.40625 26.40625 9.203125 23.796875 13.296875 22.5 
C 19.203125 20.390625 25.90625 21.390625 29.796875 16.578125 
C 32 13.765625 31.59375 9.546875 29.09375 7.03125 
C 24.296875 2.609375 14.09375 4.21875 8.5 6.625 
C 6.59375 7.4375 4.90625 8.640625 3.09375 9.640625 
" id="Computer_Modern_Bright-115"/>
      <path d="M 10.796875 60.5 
L 10.796875 47.015625 
L 1.09375 47.015625 
L 1.09375 42 
L 10.703125 42 
L 10.703125 15.015625 
C 10.703125 10.578125 10.40625 5.234375 13.296875 1.515625 
C 15 -0.703125 17.296875 -1.296875 20.796875 -1 
C 23.703125 -1 26.59375 -0.390625 29.296875 0.65625 
C 30.203125 1.0625 33.5 2.515625 33.90625 3.234375 
C 34.09375 3.640625 32.796875 8.09375 32.796875 8.09375 
L 30.40625 6.265625 
C 27.296875 4.34375 21.09375 2.328125 18.5 5.96875 
C 16.203125 9.09375 16.796875 13.75 16.796875 17.375 
L 16.796875 42 
L 32.296875 42 
L 32.296875 47.015625 
L 16.796875 47.015625 
L 16.796875 60.5 
z
" id="Computer_Modern_Bright-116"/>
      <path d="M 7.90625 39.015625 
C 9.59375 39.859375 11 41.09375 12.703125 41.921875 
C 15.40625 43.15625 18.203125 44 21.203125 44 
C 22.59375 44.09375 24.203125 44.296875 25.59375 44 
C 28.09375 43.59375 30.296875 42.078125 31.796875 39.953125 
C 33.296875 37.515625 33.90625 35.390625 33.90625 31.46875 
L 33.90625 27.015625 
C 29.09375 27.015625 24.296875 26.609375 19.703125 25.390625 
C 13.90625 24.078125 7.59375 21.125 5.5 15.84375 
C 3.40625 10.78125 5.59375 4.078125 10.09375 1.03125 
C 12.296875 -0.5 14.90625 -0.5 17.5 -0.296875 
C 21.703125 0 25.90625 1.015625 29.5 3.25 
C 31.203125 4.25 32.90625 5.578125 33.90625 7.296875 
L 34 7.296875 
L 34 0.203125 
L 40.296875 0.203125 
L 40.296875 26.890625 
C 40.296875 29.8125 40.59375 32.953125 40 35.890625 
C 39.40625 39.921875 36.90625 43.265625 34 45.59375 
C 30.59375 48.21875 26.703125 49.109375 21.5 48.71875 
C 16.703125 48.71875 13 47.5 9.40625 45.765625 
C 8.90625 45.5625 7.90625 45.234375 7.59375 44.640625 
C 7.296875 44.21875 7.5 43.515625 7.5 43 
C 7.703125 41.671875 7.796875 40.34375 7.90625 39.015625 
M 33.90625 24 
L 33.90625 16.375 
C 33.90625 14.0625 34 11.953125 32.703125 9.953125 
C 31.59375 8.34375 30.09375 7.234375 28.5 6.4375 
C 22.796875 3.515625 14.09375 4.421875 11.59375 9.25 
C 9.59375 12.75 11.703125 16.875 14.59375 19.1875 
C 18.90625 22.5 27.296875 24 33.90625 24 
" id="Computer_Modern_Bright-97"/>
      <path d="M 60.5 10.875 
C 58.5 9.859375 56.703125 8.453125 54.703125 7.453125 
C 50 5.046875 44 4.140625 37.5 4.734375 
C 31.703125 5.546875 26.90625 8.359375 23.40625 11.875 
C 12.203125 23.15625 11.40625 42.96875 21.296875 55.34375 
C 25.5 60.875 31.90625 65 41.296875 65 
C 45.09375 65 49 64.296875 52.5 62.890625 
C 54.59375 61.96875 56.59375 60.765625 58.59375 59.765625 
L 59.796875 66.8125 
C 57.59375 67.671875 55.296875 68.5625 53 69.09375 
C 47.40625 70.625 38.90625 70.625 33.09375 69.21875 
C 22.90625 66.921875 15.5 59.828125 11.296875 51.625 
C 5.5 40.015625 6.203125 25.515625 13.203125 14.59375 
C 15 11.703125 17.296875 9.109375 19.90625 6.890625 
C 25.90625 1.6875 33.296875 -1.3125 43.59375 -0.5 
C 49.796875 -0.5 53.40625 0.515625 58.203125 3.203125 
C 58.703125 3.5 60.59375 4.515625 60.90625 4.9375 
C 61.09375 5.4375 60.59375 9.53125 60.5 10.875 
" id="Computer_Modern_Bright-67"/>
      <path d="M 10.703125 42.078125 
C 1.796875 33.234375 0.796875 17.875 8.5 7.9375 
C 9.59375 6.421875 10.90625 5.125 12.40625 4.015625 
C 16.09375 1 21.5 -1.203125 27.796875 -0.5 
C 37.796875 0.703125 44.703125 8.84375 46.796875 17.375 
C 49.59375 29.328125 43.703125 42.671875 32.703125 46.890625 
C 24.09375 50.40625 15.5 46.890625 10.703125 42.078125 
M 35.703125 39.359375 
C 40.5 35.03125 41.40625 28.109375 41 21.984375 
C 40.703125 17.265625 39.40625 12.34375 36.09375 8.828125 
C 30.703125 3 20.703125 3 14.90625 8.625 
C 11.90625 11.84375 10.09375 16.453125 9.796875 21.984375 
C 9.296875 30.109375 11.296875 38.75 19.296875 41.96875 
C 25.203125 44.578125 32 42.671875 35.703125 39.359375 
" id="Computer_Modern_Bright-111"/>
      <path d="M 41.796875 10.9375 
C 39.5 9.234375 38.796875 8.328125 35.90625 6.8125 
C 29.796875 3.5 22.59375 3.5 17.40625 7.171875 
C 12.40625 10.765625 9.5 16.640625 9.5 25 
L 42.5 25 
C 42.5 32.421875 40.796875 38.859375 36.59375 43.375 
C 32 47.890625 24.796875 49.296875 18.703125 47.390625 
C 16.40625 46.6875 14.296875 45.484375 12.40625 43.96875 
C 6.09375 38.859375 3.40625 30.71875 3.5 22.78125 
C 3.703125 12.34375 10.796875 1.90625 21.296875 -0.3125 
C 26.796875 -1.421875 32.59375 -0.203125 37.5 2.296875 
C 38.40625 2.796875 41.703125 4.609375 42.09375 5.515625 
C 42.40625 6.015625 41.796875 10.9375 41.796875 10.9375 
M 37.203125 28.90625 
L 10 28.90625 
C 11.203125 36.234375 17.203125 43.96875 25.296875 43.0625 
C 31.90625 42.46875 35.40625 37.75 36.703125 31.828125 
C 36.90625 30.8125 37 29.921875 37.203125 28.90625 
" id="Computer_Modern_Bright-101"/>
      <path d="M 10.59375 47.015625 
L 2 47.015625 
L 2 42 
L 10.59375 42 
L 10.59375 0 
L 16.90625 0 
L 16.90625 42 
L 30.09375 42 
L 30.09375 47.015625 
L 16.796875 47.015625 
L 16.796875 56.234375 
C 16.796875 57.890625 16.59375 59.65625 17.296875 61.21875 
C 19.5 65.875 25.40625 65.875 29.59375 65.078125 
C 30.59375 64.875 31.703125 64.46875 32.703125 64.265625 
L 32.703125 69.90625 
C 27.703125 70.609375 22.296875 71.21875 17.703125 68.46875 
C 15.796875 67.4375 14.203125 65.6875 13 63.921875 
C 11.09375 60.9375 10.59375 58.78125 10.59375 53.71875 
z
M 38.09375 0 
L 44.40625 0 
L 44.40625 42 
L 57.59375 42 
L 57.59375 47.015625 
L 44.296875 47.015625 
L 44.296875 55.234375 
C 44.296875 56.890625 44.09375 58.65625 44.40625 60.328125 
C 44.90625 62.296875 46.09375 63.65625 47.703125 64.671875 
C 50.796875 66.171875 54.40625 65.078125 57.59375 64.171875 
L 57.59375 70 
C 55.09375 70.1875 52.703125 70.6875 50.203125 70.5 
C 43.40625 70 38.59375 64.046875 38.09375 57.3125 
C 38 55.890625 38.09375 54.375 38.09375 52.96875 
z
M 65.59375 70 
L 65.59375 63.671875 
L 71.90625 63.671875 
L 71.90625 70 
z
M 65.59375 47.390625 
L 65.59375 0 
L 71.90625 0 
L 71.90625 47.390625 
z
" id="Computer_Modern_Bright-14"/>
      <path d="M 42.40625 11.25 
C 40.5 9.84375 38.796875 8.328125 36.703125 7.125 
C 32 4.625 24.796875 3.421875 19.40625 5.921875 
C 11.59375 9.9375 9.5 19.6875 10.59375 27.71875 
C 10.796875 29.328125 11.09375 30.921875 11.59375 32.4375 
C 13.796875 38.96875 19.296875 44.078125 28.296875 43.078125 
C 33.09375 42.671875 35.5 41.875 39.296875 39.765625 
C 40 39.359375 40.59375 38.859375 41.40625 38.65625 
C 41.5 39.859375 41.796875 41.171875 42 42.375 
C 42.296875 43.984375 42.296875 44.1875 40.796875 44.890625 
C 39.703125 45.390625 38.59375 45.984375 37.40625 46.390625 
C 32.796875 48.40625 25.203125 49 20 47.5 
C 12.90625 45.484375 7.59375 39.359375 5.296875 32.53125 
C 4.203125 29.421875 3.90625 26.109375 3.90625 22.796875 
C 4 12.25 11.203125 1.90625 21.703125 -0.203125 
C 27.5 -1.40625 34.203125 0.296875 38.203125 2.40625 
C 39.203125 2.90625 42.203125 4.71875 42.703125 5.625 
C 43 6.125 42.40625 11.25 42.40625 11.25 
" id="Computer_Modern_Bright-99"/>
      <path d="M 12.59375 37.28125 
L 12.5 37.28125 
L 12.5 47.390625 
L 6.40625 47.390625 
L 6.40625 0 
L 12.796875 0 
L 12.796875 21.9375 
C 12.796875 26.84375 12.5 31.875 14.703125 36.46875 
C 15.796875 38.78125 17.5 40.78125 19.796875 41.984375 
C 21.703125 42.890625 23.703125 42.890625 25.796875 42.6875 
C 28.796875 42.6875 31.703125 41.890625 33.59375 39.375 
C 35.40625 37.0625 35.5 34.0625 35.5 31.25 
L 35.5 0 
L 41.90625 0 
L 41.90625 26.859375 
C 41.90625 31.875 42.40625 37.375 40 41.890625 
C 38.09375 45.5 34.40625 47.203125 30.5 47.703125 
C 28.5 48 26.40625 48 24.40625 47.609375 
C 19.203125 46.5 14.40625 42.296875 12.59375 37.28125 
" id="Computer_Modern_Bright-110"/>
     </defs>
     <g style="fill:#262626;" transform="translate(201.022873 343.359582)scale(0.18 -0.18)">
      <use transform="scale(0.996264)" xlink:href="#Computer_Modern_Bright-69"/>
      <use transform="translate(58.737787 0)scale(0.996264)" xlink:href="#Computer_Modern_Bright-112"/>
      <use transform="translate(106.890284 0)scale(0.996264)" xlink:href="#Computer_Modern_Bright-105"/>
      <use transform="translate(125.985243 0)scale(0.996264)" xlink:href="#Computer_Modern_Bright-115"/>
      <use transform="translate(164.424272 0)scale(0.996264)" xlink:href="#Computer_Modern_Bright-116"/>
      <use transform="translate(200.53866 0)scale(0.996264)" xlink:href="#Computer_Modern_Bright-97"/>
      <use transform="translate(247.030742 0)scale(0.996264)" xlink:href="#Computer_Modern_Bright-115"/>
      <use transform="translate(285.469772 0)scale(0.996264)" xlink:href="#Computer_Modern_Bright-105"/>
      <use transform="translate(304.56473 0)scale(0.996264)" xlink:href="#Computer_Modern_Bright-115"/>
      <use transform="translate(374.468971 0)scale(0.996264)" xlink:href="#Computer_Modern_Bright-67"/>
      <use transform="translate(439.641004 0)scale(0.996264)" xlink:href="#Computer_Modern_Bright-111"/>
      <use transform="translate(490.284222 0)scale(0.996264)" xlink:href="#Computer_Modern_Bright-101"/>
      <use transform="translate(535.115889 0)scale(0.996264)" xlink:href="#Computer_Modern_Bright-14"/>
      <use transform="translate(613.156322 0)scale(0.996264)" xlink:href="#Computer_Modern_Bright-99"/>
      <use transform="translate(657.987989 0)scale(0.996264)" xlink:href="#Computer_Modern_Bright-105"/>
      <use transform="translate(677.082948 0)scale(0.996264)" xlink:href="#Computer_Modern_Bright-101"/>
      <use transform="translate(721.914616 0)scale(0.996264)" xlink:href="#Computer_Modern_Bright-110"/>
      <use transform="translate(770.067113 0)scale(0.996264)" xlink:href="#Computer_Modern_Bright-116"/>
     </g>
    </g>
   </g>
   <g id="matplotlib.axis_2">
    <g id="ytick_1">
     <g id="line2d_7"/>
     <g id="text_8">
      <!-- $0$ -->
      <g style="fill:#262626;" transform="translate(35.010613 298.124802)scale(0.16 -0.16)">
       <use transform="scale(0.996264)" xlink:href="#Computer_Modern_Bright-48"/>
      </g>
     </g>
    </g>
    <g id="ytick_2">
     <g id="line2d_8"/>
     <g id="text_9">
      <!-- $20$ -->
      <g style="fill:#262626;" transform="translate(26.642062 238.463309)scale(0.16 -0.16)">
       <use transform="scale(0.996264)" xlink:href="#Computer_Modern_Bright-50"/>
       <use transform="translate(50.643218 0)scale(0.996264)" xlink:href="#Computer_Modern_Bright-48"/>
      </g>
     </g>
    </g>
    <g id="ytick_3">
     <g id="line2d_9"/>
     <g id="text_10">
      <!-- $40$ -->
      <g style="fill:#262626;" transform="translate(26.642062 178.801817)scale(0.16 -0.16)">
       <use transform="scale(0.996264)" xlink:href="#Computer_Modern_Bright-52"/>
       <use transform="translate(50.643218 0)scale(0.996264)" xlink:href="#Computer_Modern_Bright-48"/>
      </g>
     </g>
    </g>
    <g id="ytick_4">
     <g id="line2d_10"/>
     <g id="text_11">
      <!-- $60$ -->
      <g style="fill:#262626;" transform="translate(26.642062 119.140324)scale(0.16 -0.16)">
       <use transform="scale(0.996264)" xlink:href="#Computer_Modern_Bright-54"/>
       <use transform="translate(50.643218 0)scale(0.996264)" xlink:href="#Computer_Modern_Bright-48"/>
      </g>
     </g>
    </g>
    <g id="ytick_5">
     <g id="line2d_11"/>
     <g id="text_12">
      <!-- $80$ -->
      <g style="fill:#262626;" transform="translate(26.642062 59.478831)scale(0.16 -0.16)">
       <use transform="scale(0.996264)" xlink:href="#Computer_Modern_Bright-56"/>
       <use transform="translate(50.643218 0)scale(0.996264)" xlink:href="#Computer_Modern_Bright-48"/>
      </g>
     </g>
    </g>
    <g id="text_13">
     <!-- Probability Density -->
     <defs>
      <path d="M 8 70 
L 8 0.5 
L 15 0.5 
L 15 30 
L 29.09375 30 
C 31.296875 30 33.5 30 35.59375 30 
C 43 30.609375 49.203125 33.640625 53.40625 38.171875 
C 57.703125 42.90625 59.59375 50.15625 56.796875 56.296875 
C 53.59375 64.046875 46 68.984375 36.296875 70 
C 33.40625 70 30.40625 70 27.5 70 
z
M 14.90625 35.21875 
L 14.90625 64.671875 
L 28.59375 64.671875 
C 37.296875 64.671875 45.203125 63.671875 49.203125 57.65625 
C 51.90625 53.625 52.296875 48 50.09375 43.671875 
C 48.90625 41.34375 47.09375 39.546875 44.90625 38.234375 
C 40 35.21875 34.296875 35.21875 28.796875 35.21875 
z
" id="Computer_Modern_Bright-80"/>
      <path d="M 12.5 34.75 
L 12.40625 34.75 
L 12.40625 47.390625 
L 6.40625 47.390625 
L 6.40625 0 
L 12.703125 0 
L 12.703125 22.890625 
C 12.703125 24.40625 12.703125 25.90625 12.90625 27.40625 
C 14.296875 35.953125 21.703125 42.28125 31.40625 42.28125 
L 31.40625 48 
C 25 48 19.09375 44.890625 15.296875 39.765625 
C 14.203125 38.265625 13 36.546875 12.5 34.75 
" id="Computer_Modern_Bright-114"/>
      <path d="M 6.40625 69.6875 
L 6.40625 0 
L 12.796875 0 
L 12.796875 6.328125 
L 12.90625 6.328125 
C 14 4.109375 16.5 2.015625 18.59375 0.90625 
C 25.796875 -2.90625 34.40625 0.90625 39.09375 7.03125 
C 48.59375 19.578125 44.796875 40.875 32.296875 46.796875 
C 27.40625 49 21.5 48 17.09375 44.984375 
C 15.40625 43.78125 14 42.375 12.703125 40.765625 
L 12.703125 69.6875 
z
M 21.90625 42.984375 
C 26.59375 43.375 31.5 41.265625 34.296875 37.453125 
C 36.203125 34.9375 37.203125 31.9375 37.703125 28.8125 
C 38.703125 21.484375 37.90625 12.25 31.40625 7.4375 
C 30.296875 6.625 29.09375 6.03125 27.796875 5.515625 
C 22.40625 3.515625 17 4.109375 14 8.84375 
C 13.09375 10.4375 12.796875 10.546875 12.796875 12.953125 
L 12.796875 33.734375 
C 12.796875 34.75 12.59375 35.953125 13 36.859375 
C 14.59375 40.171875 18.296875 42.671875 21.90625 42.984375 
" id="Computer_Modern_Bright-98"/>
      <path d="M 6.40625 69.6875 
L 6.40625 0 
L 12.703125 0 
L 12.703125 69.6875 
z
" id="Computer_Modern_Bright-108"/>
      <path d="M 0.703125 47.65625 
C 1.296875 45.75 5.40625 35.609375 5.5 35.3125 
L 17.40625 4.578125 
L 18.40625 2.078125 
C 19 0.671875 19.203125 0.46875 18.59375 -1.140625 
L 17.5 -4.046875 
C 16.59375 -6.46875 15.59375 -8.96875 13.703125 -10.484375 
C 10.296875 -13.296875 4.90625 -11.6875 0.796875 -10.78125 
L 1.296875 -16.5 
C 3.203125 -16.796875 5.09375 -17 7 -17 
C 11.296875 -17.515625 14.09375 -16.5 16.703125 -14.296875 
C 20 -11.484375 21.59375 -7.5625 23.09375 -3.546875 
L 26.203125 5.078125 
L 36.40625 32.90625 
C 38.09375 37.921875 40.203125 42.640625 41.796875 47.65625 
L 37.296875 47.65625 
C 36.796875 47.65625 36 47.859375 35.59375 47.46875 
C 35.40625 47.15625 35.296875 46.765625 35.203125 46.453125 
L 34.40625 44.34375 
C 33.40625 41.734375 32.5 39.234375 31.59375 36.609375 
L 25.796875 20.25 
C 24.296875 15.828125 22.59375 11.3125 21.796875 6.6875 
C 20.703125 11.3125 19.203125 15.734375 17.59375 20.140625 
C 16.296875 23.5625 8.5 44.546875 7.5 46.5625 
C 7.09375 47.65625 6.703125 47.65625 5.203125 47.65625 
z
" id="Computer_Modern_Bright-121"/>
      <path d="M 8 70 
L 8 0 
L 28.203125 0 
C 31.40625 0 34.59375 0 37.703125 0.296875 
C 45.703125 1.109375 52.59375 5.015625 57.203125 9.828125 
C 70.09375 23.171875 70 46.125 57.296875 59.671875 
C 52.703125 64.578125 46.5 68.5 38.703125 69.5 
C 34.90625 70 31 70 27.203125 70 
z
M 14.90625 5.3125 
L 14.90625 64.5625 
L 27.796875 64.5625 
C 30.5 64.5625 33.203125 64.5625 35.90625 64.359375 
C 40.40625 63.859375 44.796875 62.359375 48.5 59.734375 
C 56.59375 54.125 60 44.171875 60 34.640625 
C 60 26.609375 57.796875 18.375 51.90625 12.640625 
C 47.90625 8.9375 42.5 6.21875 36 5.515625 
C 33.40625 5.3125 30.703125 5.3125 28.09375 5.3125 
z
" id="Computer_Modern_Bright-68"/>
     </defs>
     <g style="fill:#262626;" transform="translate(19.65327 224.213938)rotate(-90)scale(0.18 -0.18)">
      <use transform="scale(0.996264)" xlink:href="#Computer_Modern_Bright-80"/>
      <use transform="translate(62.888907 0)scale(0.996264)" xlink:href="#Computer_Modern_Bright-114"/>
      <use transform="translate(94.852266 0)scale(0.996264)" xlink:href="#Computer_Modern_Bright-111"/>
      <use transform="translate(145.495484 0)scale(0.996264)" xlink:href="#Computer_Modern_Bright-98"/>
      <use transform="translate(193.647981 0)scale(0.996264)" xlink:href="#Computer_Modern_Bright-97"/>
      <use transform="translate(240.140063 0)scale(0.996264)" xlink:href="#Computer_Modern_Bright-98"/>
      <use transform="translate(288.29256 0)scale(0.996264)" xlink:href="#Computer_Modern_Bright-105"/>
      <use transform="translate(307.387519 0)scale(0.996264)" xlink:href="#Computer_Modern_Bright-108"/>
      <use transform="translate(326.482478 0)scale(0.996264)" xlink:href="#Computer_Modern_Bright-105"/>
      <use transform="translate(345.577437 0)scale(0.996264)" xlink:href="#Computer_Modern_Bright-116"/>
      <use transform="translate(378.786095 0)scale(0.996264)" xlink:href="#Computer_Modern_Bright-121"/>
      <use transform="translate(452.592345 0)scale(0.996264)" xlink:href="#Computer_Modern_Bright-68"/>
      <use transform="translate(524.198532 0)scale(0.996264)" xlink:href="#Computer_Modern_Bright-101"/>
      <use transform="translate(569.030199 0)scale(0.996264)" xlink:href="#Computer_Modern_Bright-110"/>
      <use transform="translate(617.182696 0)scale(0.996264)" xlink:href="#Computer_Modern_Bright-115"/>
      <use transform="translate(655.621726 0)scale(0.996264)" xlink:href="#Computer_Modern_Bright-105"/>
      <use transform="translate(674.716684 0)scale(0.996264)" xlink:href="#Computer_Modern_Bright-116"/>
      <use transform="translate(707.925343 0)scale(0.996264)" xlink:href="#Computer_Modern_Bright-121"/>
     </g>
    </g>
   </g>
   <g id="PolyCollection_1">
    <path clip-path="url(#pa3edcf9c7d)" d="M 301.740469 292.573025 
L 301.740469 292.59 
L 301.871809 292.59 
L 302.00315 292.59 
L 302.13449 292.59 
L 302.265831 292.59 
L 302.397172 292.59 
L 302.528512 292.59 
L 302.659853 292.59 
L 302.791193 292.59 
L 302.922534 292.59 
L 303.053874 292.59 
L 303.185215 292.59 
L 303.316555 292.59 
L 303.447896 292.59 
L 303.579236 292.59 
L 303.710577 292.59 
L 303.841918 292.59 
L 303.973258 292.59 
L 304.104599 292.59 
L 304.235939 292.59 
L 304.36728 292.59 
L 304.49862 292.59 
L 304.629961 292.59 
L 304.761301 292.59 
L 304.892642 292.59 
L 305.023982 292.59 
L 305.155323 292.59 
L 305.286664 292.59 
L 305.418004 292.59 
L 305.549345 292.59 
L 305.680685 292.59 
L 305.812026 292.59 
L 305.943366 292.59 
L 306.074707 292.59 
L 306.206047 292.59 
L 306.337388 292.59 
L 306.468728 292.59 
L 306.600069 292.59 
L 306.73141 292.59 
L 306.86275 292.59 
L 306.994091 292.59 
L 307.125431 292.59 
L 307.256772 292.59 
L 307.388112 292.59 
L 307.519453 292.59 
L 307.650793 292.59 
L 307.782134 292.59 
L 307.913474 292.59 
L 308.044815 292.59 
L 308.176156 292.59 
L 308.307496 292.59 
L 308.438837 292.59 
L 308.570177 292.59 
L 308.701518 292.59 
L 308.832858 292.59 
L 308.964199 292.59 
L 309.095539 292.59 
L 309.22688 292.59 
L 309.35822 292.59 
L 309.489561 292.59 
L 309.620902 292.59 
L 309.752242 292.59 
L 309.883583 292.59 
L 310.014923 292.59 
L 310.146264 292.59 
L 310.277604 292.59 
L 310.408945 292.59 
L 310.540285 292.59 
L 310.671626 292.59 
L 310.802966 292.59 
L 310.934307 292.59 
L 311.065648 292.59 
L 311.196988 292.59 
L 311.328329 292.59 
L 311.459669 292.59 
L 311.59101 292.59 
L 311.72235 292.59 
L 311.853691 292.59 
L 311.985031 292.59 
L 312.116372 292.59 
L 312.247712 292.59 
L 312.379053 292.59 
L 312.510394 292.59 
L 312.641734 292.59 
L 312.773075 292.59 
L 312.904415 292.59 
L 313.035756 292.59 
L 313.167096 292.59 
L 313.298437 292.59 
L 313.429777 292.59 
L 313.561118 292.59 
L 313.692458 292.59 
L 313.823799 292.59 
L 313.95514 292.59 
L 314.08648 292.59 
L 314.217821 292.59 
L 314.349161 292.59 
L 314.480502 292.59 
L 314.611842 292.59 
L 314.743183 292.59 
L 314.874523 292.59 
L 315.005864 292.59 
L 315.137204 292.59 
L 315.268545 292.59 
L 315.399886 292.59 
L 315.531226 292.59 
L 315.662567 292.59 
L 315.793907 292.59 
L 315.925248 292.59 
L 316.056588 292.59 
L 316.187929 292.59 
L 316.319269 292.59 
L 316.45061 292.59 
L 316.58195 292.59 
L 316.713291 292.59 
L 316.844632 292.59 
L 316.975972 292.59 
L 317.107313 292.59 
L 317.238653 292.59 
L 317.369994 292.59 
L 317.501334 292.59 
L 317.632675 292.59 
L 317.764015 292.59 
L 317.895356 292.59 
L 318.026696 292.59 
L 318.158037 292.59 
L 318.289377 292.59 
L 318.420718 292.59 
L 318.420718 292.574442 
L 318.420718 292.574442 
L 318.289377 292.567229 
L 318.158037 292.549805 
L 318.026696 292.518623 
L 317.895356 292.468935 
L 317.764015 292.396011 
L 317.632675 292.296716 
L 317.501334 292.171044 
L 317.369994 292.022876 
L 317.238653 291.859154 
L 317.107313 291.687084 
L 316.975972 291.509805 
L 316.844632 291.321884 
L 316.713291 291.106522 
L 316.58195 290.836106 
L 316.45061 290.476769 
L 316.319269 289.996311 
L 316.187929 289.373736 
L 316.056588 288.608115 
L 315.925248 287.724424 
L 315.793907 286.774277 
L 315.662567 285.830098 
L 315.531226 284.972389 
L 315.399886 284.271588 
L 315.268545 283.768252 
L 315.137204 283.456956 
L 315.005864 283.279271 
L 314.874523 283.128774 
L 314.743183 282.866946 
L 314.611842 282.34471 
L 314.480502 281.422497 
L 314.349161 279.983238 
L 314.217821 277.937063 
L 314.08648 275.22141 
L 313.95514 271.802803 
L 313.823799 267.684923 
L 313.692458 262.922075 
L 313.561118 257.630673 
L 313.429777 251.987704 
L 313.298437 246.207556 
L 313.167096 240.497026 
L 313.035756 234.999593 
L 312.904415 229.748369 
L 312.773075 224.647716 
L 312.641734 219.494658 
L 312.510394 214.036295 
L 312.379053 208.044973 
L 312.247712 201.385532 
L 312.116372 194.051746 
L 311.985031 186.160515 
L 311.853691 177.90746 
L 311.72235 169.500431 
L 311.59101 161.094137 
L 311.459669 152.748039 
L 311.328329 144.421841 
L 311.196988 136.010714 
L 311.065648 127.40939 
L 310.934307 118.584326 
L 310.802966 109.629868 
L 310.671626 100.789043 
L 310.540285 92.430737 
L 310.408945 84.988365 
L 310.277604 78.875889 
L 310.146264 74.402168 
L 310.014923 71.704081 
L 309.883583 70.714456 
L 309.752242 71.174306 
L 309.620902 72.690616 
L 309.489561 74.830495 
L 309.35822 77.230809 
L 309.22688 79.69324 
L 309.095539 82.23345 
L 308.964199 85.063865 
L 308.832858 88.511346 
L 308.701518 92.896063 
L 308.570177 98.414912 
L 308.438837 105.072344 
L 308.307496 112.682128 
L 308.176156 120.933575 
L 308.044815 129.489513 
L 307.913474 138.073396 
L 307.782134 146.513581 
L 307.650793 154.737065 
L 307.519453 162.729652 
L 307.388112 170.49192 
L 307.256772 178.01565 
L 307.125431 185.288163 
L 306.994091 192.313164 
L 306.86275 199.127072 
L 306.73141 205.794079 
L 306.600069 212.37781 
L 306.468728 218.903162 
L 306.337388 225.329313 
L 306.206047 231.550014 
L 306.074707 237.423384 
L 305.943366 242.818863 
L 305.812026 247.66137 
L 305.680685 251.95537 
L 305.549345 255.781554 
L 305.418004 259.270344 
L 305.286664 262.563926 
L 305.155323 265.779947 
L 305.023982 268.986447 
L 304.892642 272.192081 
L 304.761301 275.350816 
L 304.629961 278.377426 
L 304.49862 281.169046 
L 304.36728 283.628196 
L 304.235939 285.683141 
L 304.104599 287.302095 
L 303.973258 288.498772 
L 303.841918 289.328359 
L 303.710577 289.875034 
L 303.579236 290.234307 
L 303.447896 290.494748 
L 303.316555 290.723743 
L 303.185215 290.960439 
L 303.053874 291.216649 
L 302.922534 291.483988 
L 302.791193 291.74396 
L 302.659853 291.97744 
L 302.528512 292.171058 
L 302.397172 292.319657 
L 302.265831 292.425464 
L 302.13449 292.495443 
L 302.00315 292.538303 
L 301.871809 292.56214 
L 301.740469 292.573025 
z
" style="fill:#0000ff;fill-opacity:0.25;"/>
   </g>
   <g id="PolyCollection_2">
    <path clip-path="url(#pa3edcf9c7d)" d="M 281.787225 292.58151 
L 281.787225 292.59 
L 282.039384 292.59 
L 282.291544 292.59 
L 282.543704 292.59 
L 282.795863 292.59 
L 283.048023 292.59 
L 283.300182 292.59 
L 283.552342 292.59 
L 283.804502 292.59 
L 284.056661 292.59 
L 284.308821 292.59 
L 284.560981 292.59 
L 284.81314 292.59 
L 285.0653 292.59 
L 285.317459 292.59 
L 285.569619 292.59 
L 285.821779 292.59 
L 286.073938 292.59 
L 286.326098 292.59 
L 286.578257 292.59 
L 286.830417 292.59 
L 287.082577 292.59 
L 287.334736 292.59 
L 287.586896 292.59 
L 287.839056 292.59 
L 288.091215 292.59 
L 288.343375 292.59 
L 288.595534 292.59 
L 288.847694 292.59 
L 289.099854 292.59 
L 289.352013 292.59 
L 289.604173 292.59 
L 289.856332 292.59 
L 290.108492 292.59 
L 290.360652 292.59 
L 290.612811 292.59 
L 290.864971 292.59 
L 291.117131 292.59 
L 291.36929 292.59 
L 291.62145 292.59 
L 291.873609 292.59 
L 292.125769 292.59 
L 292.377929 292.59 
L 292.630088 292.59 
L 292.882248 292.59 
L 293.134407 292.59 
L 293.386567 292.59 
L 293.638727 292.59 
L 293.890886 292.59 
L 294.143046 292.59 
L 294.395206 292.59 
L 294.647365 292.59 
L 294.899525 292.59 
L 295.151684 292.59 
L 295.403844 292.59 
L 295.656004 292.59 
L 295.908163 292.59 
L 296.160323 292.59 
L 296.412483 292.59 
L 296.664642 292.59 
L 296.916802 292.59 
L 297.168961 292.59 
L 297.421121 292.59 
L 297.673281 292.59 
L 297.92544 292.59 
L 298.1776 292.59 
L 298.429759 292.59 
L 298.681919 292.59 
L 298.934079 292.59 
L 299.186238 292.59 
L 299.438398 292.59 
L 299.690558 292.59 
L 299.942717 292.59 
L 300.194877 292.59 
L 300.447036 292.59 
L 300.699196 292.59 
L 300.951356 292.59 
L 301.203515 292.59 
L 301.455675 292.59 
L 301.707834 292.59 
L 301.959994 292.59 
L 302.212154 292.59 
L 302.464313 292.59 
L 302.716473 292.59 
L 302.968633 292.59 
L 303.220792 292.59 
L 303.472952 292.59 
L 303.725111 292.59 
L 303.977271 292.59 
L 304.229431 292.59 
L 304.48159 292.59 
L 304.73375 292.59 
L 304.98591 292.59 
L 305.238069 292.59 
L 305.490229 292.59 
L 305.742388 292.59 
L 305.994548 292.59 
L 306.246708 292.59 
L 306.498867 292.59 
L 306.751027 292.59 
L 307.003186 292.59 
L 307.255346 292.59 
L 307.507506 292.59 
L 307.759665 292.59 
L 308.011825 292.59 
L 308.263985 292.59 
L 308.516144 292.59 
L 308.768304 292.59 
L 309.020463 292.59 
L 309.272623 292.59 
L 309.524783 292.59 
L 309.776942 292.59 
L 310.029102 292.59 
L 310.281261 292.59 
L 310.533421 292.59 
L 310.785581 292.59 
L 311.03774 292.59 
L 311.2899 292.59 
L 311.54206 292.59 
L 311.794219 292.59 
L 312.046379 292.59 
L 312.298538 292.59 
L 312.550698 292.59 
L 312.802858 292.59 
L 313.055017 292.59 
L 313.307177 292.59 
L 313.559336 292.59 
L 313.811496 292.59 
L 313.811496 292.581022 
L 313.811496 292.581022 
L 313.559336 292.574369 
L 313.307177 292.558787 
L 313.055017 292.528979 
L 312.802858 292.477026 
L 312.550698 292.39273 
L 312.298538 292.264611 
L 312.046379 292.081641 
L 311.794219 291.835483 
L 311.54206 291.522766 
L 311.2899 291.146704 
L 311.03774 290.717378 
L 310.785581 290.250118 
L 310.533421 289.76188 
L 310.281261 289.26603 
L 310.029102 288.766503 
L 309.776942 288.25257 
L 309.524783 287.695568 
L 309.272623 287.049001 
L 309.020463 286.253502 
L 308.768304 285.247542 
L 308.516144 283.982786 
L 308.263985 282.439786 
L 308.011825 280.637235 
L 307.759665 278.628763 
L 307.507506 276.486209 
L 307.255346 274.275023 
L 307.003186 272.031599 
L 306.751027 269.750911 
L 306.498867 267.387152 
L 306.246708 264.864423 
L 305.994548 262.092727 
L 305.742388 258.986279 
L 305.490229 255.482953 
L 305.238069 251.562678 
L 304.98591 247.259508 
L 304.73375 242.660886 
L 304.48159 237.890825 
L 304.229431 233.080148 
L 303.977271 228.332372 
L 303.725111 223.695493 
L 303.472952 219.148037 
L 303.220792 214.604685 
L 302.968633 209.943168 
L 302.716473 205.048752 
L 302.464313 199.864975 
L 302.212154 194.432761 
L 301.959994 188.900749 
L 301.707834 183.50034 
L 301.455675 178.495024 
L 301.203515 174.124731 
L 300.951356 170.5651 
L 300.699196 167.910424 
L 300.447036 166.177116 
L 300.194877 165.319791 
L 299.942717 165.254513 
L 299.690558 165.886859 
L 299.438398 167.141052 
L 299.186238 168.982483 
L 298.934079 171.425168 
L 298.681919 174.52096 
L 298.429759 178.334514 
L 298.1776 182.911233 
L 297.92544 188.243758 
L 297.673281 194.240819 
L 297.421121 200.705407 
L 297.168961 207.33487 
L 296.916802 213.755606 
L 296.664642 219.593868 
L 296.412483 224.565448 
L 296.160323 228.552552 
L 295.908163 231.636697 
L 295.656004 234.073161 
L 295.403844 236.216364 
L 295.151684 238.423864 
L 294.899525 240.971381 
L 294.647365 244.002572 
L 294.395206 247.521596 
L 294.143046 251.421456 
L 293.890886 255.531897 
L 293.638727 259.668687 
L 293.386567 263.670324 
L 293.134407 267.415834 
L 292.882248 270.825432 
L 292.630088 273.851443 
L 292.377929 276.468358 
L 292.125769 278.668015 
L 291.873609 280.460733 
L 291.62145 281.878649 
L 291.36929 282.975979 
L 291.117131 283.823127 
L 290.864971 284.495749 
L 290.612811 285.063259 
L 290.360652 285.581491 
L 290.108492 286.091314 
L 289.856332 286.621172 
L 289.604173 287.189638 
L 289.352013 287.805273 
L 289.099854 288.464244 
L 288.847694 289.14852 
L 288.595534 289.827525 
L 288.343375 290.46395 
L 288.091215 291.021948 
L 287.839056 291.474668 
L 287.586896 291.808717 
L 287.334736 292.024804 
L 287.082577 292.135452 
L 286.830417 292.161267 
L 286.578257 292.127001 
L 286.326098 292.057973 
L 286.073938 291.977025 
L 285.821779 291.9023 
L 285.569619 291.846245 
L 285.317459 291.816035 
L 285.0653 291.814922 
L 284.81314 291.843548 
L 284.560981 291.900397 
L 284.308821 291.98139 
L 284.056661 292.079439 
L 283.804502 292.184935 
L 283.552342 292.287453 
L 283.300182 292.378056 
L 283.048023 292.451146 
L 282.795863 292.505088 
L 282.543704 292.541538 
L 282.291544 292.564005 
L 282.039384 292.576326 
L 281.787225 292.58151 
z
" style="fill:#33a02c;fill-opacity:0.25;"/>
   </g>
   <g id="PolyCollection_3">
    <path clip-path="url(#pa3edcf9c7d)" d="M 463.850892 292.553796 
L 463.850892 292.59 
L 463.950399 292.59 
L 464.049906 292.59 
L 464.149413 292.59 
L 464.24892 292.59 
L 464.348426 292.59 
L 464.447933 292.59 
L 464.54744 292.59 
L 464.646947 292.59 
L 464.746454 292.59 
L 464.84596 292.59 
L 464.945467 292.59 
L 465.044974 292.59 
L 465.144481 292.59 
L 465.243987 292.59 
L 465.343494 292.59 
L 465.443001 292.59 
L 465.542508 292.59 
L 465.642015 292.59 
L 465.741521 292.59 
L 465.841028 292.59 
L 465.940535 292.59 
L 466.040042 292.59 
L 466.139549 292.59 
L 466.239055 292.59 
L 466.338562 292.59 
L 466.438069 292.59 
L 466.537576 292.59 
L 466.637082 292.59 
L 466.736589 292.59 
L 466.836096 292.59 
L 466.935603 292.59 
L 467.03511 292.59 
L 467.134616 292.59 
L 467.234123 292.59 
L 467.33363 292.59 
L 467.433137 292.59 
L 467.532644 292.59 
L 467.63215 292.59 
L 467.731657 292.59 
L 467.831164 292.59 
L 467.930671 292.59 
L 468.030177 292.59 
L 468.129684 292.59 
L 468.229191 292.59 
L 468.328698 292.59 
L 468.428205 292.59 
L 468.527711 292.59 
L 468.627218 292.59 
L 468.726725 292.59 
L 468.826232 292.59 
L 468.925739 292.59 
L 469.025245 292.59 
L 469.124752 292.59 
L 469.224259 292.59 
L 469.323766 292.59 
L 469.423272 292.59 
L 469.522779 292.59 
L 469.622286 292.59 
L 469.721793 292.59 
L 469.8213 292.59 
L 469.920806 292.59 
L 470.020313 292.59 
L 470.11982 292.59 
L 470.219327 292.59 
L 470.318834 292.59 
L 470.41834 292.59 
L 470.517847 292.59 
L 470.617354 292.59 
L 470.716861 292.59 
L 470.816367 292.59 
L 470.915874 292.59 
L 471.015381 292.59 
L 471.114888 292.59 
L 471.214395 292.59 
L 471.313901 292.59 
L 471.413408 292.59 
L 471.512915 292.59 
L 471.612422 292.59 
L 471.711929 292.59 
L 471.811435 292.59 
L 471.910942 292.59 
L 472.010449 292.59 
L 472.109956 292.59 
L 472.209462 292.59 
L 472.308969 292.59 
L 472.408476 292.59 
L 472.507983 292.59 
L 472.60749 292.59 
L 472.706996 292.59 
L 472.806503 292.59 
L 472.90601 292.59 
L 473.005517 292.59 
L 473.105024 292.59 
L 473.20453 292.59 
L 473.304037 292.59 
L 473.403544 292.59 
L 473.503051 292.59 
L 473.602557 292.59 
L 473.702064 292.59 
L 473.801571 292.59 
L 473.901078 292.59 
L 474.000585 292.59 
L 474.100091 292.59 
L 474.199598 292.59 
L 474.299105 292.59 
L 474.398612 292.59 
L 474.498119 292.59 
L 474.597625 292.59 
L 474.697132 292.59 
L 474.796639 292.59 
L 474.896146 292.59 
L 474.995652 292.59 
L 475.095159 292.59 
L 475.194666 292.59 
L 475.294173 292.59 
L 475.39368 292.59 
L 475.493186 292.59 
L 475.592693 292.59 
L 475.6922 292.59 
L 475.791707 292.59 
L 475.891214 292.59 
L 475.99072 292.59 
L 476.090227 292.59 
L 476.189734 292.59 
L 476.289241 292.59 
L 476.388747 292.59 
L 476.488254 292.59 
L 476.488254 292.562756 
L 476.488254 292.562756 
L 476.388747 292.557513 
L 476.289241 292.538174 
L 476.189734 292.501965 
L 476.090227 292.444476 
L 475.99072 292.36133 
L 475.891214 292.250274 
L 475.791707 292.113385 
L 475.6922 291.958732 
L 475.592693 291.80067 
L 475.493186 291.65819 
L 475.39368 291.551292 
L 475.294173 291.496218 
L 475.194666 291.500903 
L 475.095159 291.562105 
L 474.995652 291.665019 
L 474.896146 291.785222 
L 474.796639 291.891963 
L 474.697132 291.95157 
L 474.597625 291.930216 
L 474.498119 291.796159 
L 474.398612 291.52221 
L 474.299105 291.089151 
L 474.199598 290.489953 
L 474.100091 289.73333 
L 474.000585 288.844288 
L 473.901078 287.859552 
L 473.801571 286.817476 
L 473.702064 285.744581 
L 473.602557 284.643036 
L 473.503051 283.483749 
L 473.403544 282.207796 
L 473.304037 280.735368 
L 473.20453 278.978228 
L 473.105024 276.850753 
L 473.005517 274.276717 
L 472.90601 271.192703 
L 472.806503 267.551867 
L 472.706996 263.331126 
L 472.60749 258.540731 
L 472.507983 253.229985 
L 472.408476 247.480873 
L 472.308969 241.385297 
L 472.209462 235.010656 
L 472.109956 228.367764 
L 472.010449 221.398252 
L 471.910942 213.992049 
L 471.811435 206.031416 
L 471.711929 197.44356 
L 471.612422 188.237686 
L 471.512915 178.50883 
L 471.413408 168.407328 
L 471.313901 158.090482 
L 471.214395 147.682144 
L 471.114888 137.261162 
L 471.015381 126.883445 
L 470.915874 116.62349 
L 470.816367 106.610076 
L 470.716861 97.033464 
L 470.617354 88.116411 
L 470.517847 80.060239 
L 470.41834 72.990005 
L 470.318834 66.9229 
L 470.219327 61.772278 
L 470.11982 57.383012 
L 470.020313 53.580905 
L 469.920806 50.215227 
L 469.8213 47.179295 
L 469.721793 44.405218 
L 469.622286 41.840274 
L 469.522779 39.419689 
L 469.423272 37.052004 
L 469.323766 34.628575 
L 469.224259 32.059239 
L 469.124752 29.324598 
L 469.025245 26.52569 
L 468.925739 23.908713 
L 468.826232 21.84863 
L 468.726725 20.79 
L 468.627218 21.160627 
L 468.527711 23.285735 
L 468.428205 27.331075 
L 468.328698 33.291628 
L 468.229191 41.023843 
L 468.129684 50.302699 
L 468.030177 60.878154 
L 467.930671 72.51091 
L 467.831164 84.980676 
L 467.731657 98.073658 
L 467.63215 111.5635 
L 467.532644 125.199537 
L 467.433137 138.710407 
L 467.33363 151.823705 
L 467.234123 164.296402 
L 467.134616 175.947112 
L 467.03511 186.680038 
L 466.935603 196.491927 
L 466.836096 205.458058 
L 466.736589 213.700448 
L 466.637082 221.34852 
L 466.537576 228.505745 
L 466.438069 235.233003 
L 466.338562 241.551544 
L 466.239055 247.459566 
L 466.139549 252.951285 
L 466.040042 258.028499 
L 465.940535 262.700783 
L 465.841028 266.977705 
L 465.741521 270.860637 
L 465.642015 274.340934 
L 465.542508 277.406614 
L 465.443001 280.054169 
L 465.343494 282.299082 
L 465.243987 284.179297 
L 465.144481 285.749758 
L 465.044974 287.070638 
L 464.945467 288.194678 
L 464.84596 289.158902 
L 464.746454 289.983267 
L 464.646947 290.675405 
L 464.54744 291.238219 
L 464.447933 291.676686 
L 464.348426 292.001514 
L 464.24892 292.229223 
L 464.149413 292.379727 
L 464.049906 292.47308 
L 463.950399 292.52671 
L 463.850892 292.553796 
z
" style="fill:#ff7f00;fill-opacity:0.25;"/>
   </g>
   <g id="PolyCollection_4">
    <path clip-path="url(#pa3edcf9c7d)" d="M 70.670072 292.58241 
L 70.670072 292.59 
L 70.982807 292.59 
L 71.295542 292.59 
L 71.608277 292.59 
L 71.921012 292.59 
L 72.233747 292.59 
L 72.546482 292.59 
L 72.859217 292.59 
L 73.171952 292.59 
L 73.484686 292.59 
L 73.797421 292.59 
L 74.110156 292.59 
L 74.422891 292.59 
L 74.735626 292.59 
L 75.048361 292.59 
L 75.361096 292.59 
L 75.673831 292.59 
L 75.986565 292.59 
L 76.2993 292.59 
L 76.612035 292.59 
L 76.92477 292.59 
L 77.237505 292.59 
L 77.55024 292.59 
L 77.862975 292.59 
L 78.17571 292.59 
L 78.488445 292.59 
L 78.801179 292.59 
L 79.113914 292.59 
L 79.426649 292.59 
L 79.739384 292.59 
L 80.052119 292.59 
L 80.364854 292.59 
L 80.677589 292.59 
L 80.990324 292.59 
L 81.303058 292.59 
L 81.615793 292.59 
L 81.928528 292.59 
L 82.241263 292.59 
L 82.553998 292.59 
L 82.866733 292.59 
L 83.179468 292.59 
L 83.492203 292.59 
L 83.804938 292.59 
L 84.117672 292.59 
L 84.430407 292.59 
L 84.743142 292.59 
L 85.055877 292.59 
L 85.368612 292.59 
L 85.681347 292.59 
L 85.994082 292.59 
L 86.306817 292.59 
L 86.619551 292.59 
L 86.932286 292.59 
L 87.245021 292.59 
L 87.557756 292.59 
L 87.870491 292.59 
L 88.183226 292.59 
L 88.495961 292.59 
L 88.808696 292.59 
L 89.121431 292.59 
L 89.434165 292.59 
L 89.7469 292.59 
L 90.059635 292.59 
L 90.37237 292.59 
L 90.685105 292.59 
L 90.99784 292.59 
L 91.310575 292.59 
L 91.62331 292.59 
L 91.936045 292.59 
L 92.248779 292.59 
L 92.561514 292.59 
L 92.874249 292.59 
L 93.186984 292.59 
L 93.499719 292.59 
L 93.812454 292.59 
L 94.125189 292.59 
L 94.437924 292.59 
L 94.750658 292.59 
L 95.063393 292.59 
L 95.376128 292.59 
L 95.688863 292.59 
L 96.001598 292.59 
L 96.314333 292.59 
L 96.627068 292.59 
L 96.939803 292.59 
L 97.252538 292.59 
L 97.565272 292.59 
L 97.878007 292.59 
L 98.190742 292.59 
L 98.503477 292.59 
L 98.816212 292.59 
L 99.128947 292.59 
L 99.441682 292.59 
L 99.754417 292.59 
L 100.067151 292.59 
L 100.379886 292.59 
L 100.692621 292.59 
L 101.005356 292.59 
L 101.318091 292.59 
L 101.630826 292.59 
L 101.943561 292.59 
L 102.256296 292.59 
L 102.569031 292.59 
L 102.881765 292.59 
L 103.1945 292.59 
L 103.507235 292.59 
L 103.81997 292.59 
L 104.132705 292.59 
L 104.44544 292.59 
L 104.758175 292.59 
L 105.07091 292.59 
L 105.383644 292.59 
L 105.696379 292.59 
L 106.009114 292.59 
L 106.321849 292.59 
L 106.634584 292.59 
L 106.947319 292.59 
L 107.260054 292.59 
L 107.572789 292.59 
L 107.885524 292.59 
L 108.198258 292.59 
L 108.510993 292.59 
L 108.823728 292.59 
L 109.136463 292.59 
L 109.449198 292.59 
L 109.761933 292.59 
L 110.074668 292.59 
L 110.387403 292.59 
L 110.387403 292.582468 
L 110.387403 292.582468 
L 110.074668 292.576462 
L 109.761933 292.562226 
L 109.449198 292.535935 
L 109.136463 292.493509 
L 108.823728 292.432954 
L 108.510993 292.357105 
L 108.198258 292.275369 
L 107.885524 292.202825 
L 107.572789 292.156047 
L 107.260054 292.147031 
L 106.947319 292.178216 
L 106.634584 292.241406 
L 106.321849 292.321221 
L 106.009114 292.401053 
L 105.696379 292.468286 
L 105.383644 292.516478 
L 105.07091 292.544267 
L 104.758175 292.552501 
L 104.44544 292.541525 
L 104.132705 292.510039 
L 103.81997 292.45591 
L 103.507235 292.378289 
L 103.1945 292.27953 
L 102.881765 292.165219 
L 102.569031 292.04153 
L 102.256296 291.911119 
L 101.943561 291.770184 
L 101.630826 291.608955 
L 101.318091 291.415365 
L 101.005356 291.17936 
L 100.692621 290.895359 
L 100.379886 290.562714 
L 100.067151 290.185868 
L 99.754417 289.774953 
L 99.441682 289.345301 
L 99.128947 288.913882 
L 98.816212 288.493415 
L 98.503477 288.087679 
L 98.190742 287.690751 
L 97.878007 287.288874 
L 97.565272 286.861 
L 97.252538 286.376104 
L 96.939803 285.790325 
L 96.627068 285.049315 
L 96.314333 284.097589 
L 96.001598 282.88972 
L 95.688863 281.394344 
L 95.376128 279.585903 
L 95.063393 277.429296 
L 94.750658 274.870981 
L 94.437924 271.848262 
L 94.125189 268.315295 
L 93.812454 264.269592 
L 93.499719 259.75988 
L 93.186984 254.870145 
L 92.874249 249.69482 
L 92.561514 244.328166 
L 92.248779 238.877449 
L 91.936045 233.485163 
L 91.62331 228.332086 
L 91.310575 223.603563 
L 90.99784 219.427512 
L 90.685105 215.813508 
L 90.37237 212.624246 
L 90.059635 209.596646 
L 89.7469 206.410632 
L 89.434165 202.786006 
L 89.121431 198.574969 
L 88.808696 193.815589 
L 88.495961 188.725958 
L 88.183226 183.645798 
L 87.870491 178.955401 
L 87.557756 175.006319 
L 87.245021 172.084005 
L 86.932286 170.402467 
L 86.619551 170.116594 
L 86.306817 171.333336 
L 85.994082 174.107194 
L 85.681347 178.416711 
L 85.368612 184.132432 
L 85.055877 190.996059 
L 84.743142 198.629156 
L 84.430407 206.577713 
L 84.117672 214.382605 
L 83.804938 221.654306 
L 83.492203 228.129631 
L 83.179468 233.698653 
L 82.866733 238.403379 
L 82.553998 242.415728 
L 82.241263 245.998003 
L 81.928528 249.443522 
L 81.615793 253.000372 
L 81.303058 256.797453 
L 80.990324 260.804193 
L 80.677589 264.847588 
L 80.364854 268.683208 
L 80.052119 272.088267 
L 79.739384 274.934749 
L 79.426649 277.214615 
L 79.113914 279.016086 
L 78.801179 280.472476 
L 78.488445 281.711811 
L 78.17571 282.826656 
L 77.862975 283.868255 
L 77.55024 284.857022 
L 77.237505 285.79765 
L 76.92477 286.69014 
L 76.612035 287.533626 
L 76.2993 288.324689 
L 75.986565 289.054467 
L 75.673831 289.708667 
L 75.361096 290.271945 
L 75.048361 290.73472 
L 74.735626 291.098618 
L 74.422891 291.377538 
L 74.110156 291.59377 
L 73.797421 291.771078 
L 73.484686 291.927822 
L 73.171952 292.073014 
L 72.859217 292.206625 
L 72.546482 292.323385 
L 72.233747 292.417697 
L 71.921012 292.487161 
L 71.608277 292.533512 
L 71.295542 292.56138 
L 70.982807 292.576196 
L 70.670072 292.58241 
z
" style="fill:#e31a1c;fill-opacity:0.25;"/>
   </g>
   <g id="PolyCollection_5">
    <path clip-path="url(#pa3edcf9c7d)" d="M 227.278233 292.568814 
L 227.278233 292.59 
L 227.458932 292.59 
L 227.639632 292.59 
L 227.820331 292.59 
L 228.001031 292.59 
L 228.18173 292.59 
L 228.362429 292.59 
L 228.543129 292.59 
L 228.723828 292.59 
L 228.904528 292.59 
L 229.085227 292.59 
L 229.265926 292.59 
L 229.446626 292.59 
L 229.627325 292.59 
L 229.808025 292.59 
L 229.988724 292.59 
L 230.169423 292.59 
L 230.350123 292.59 
L 230.530822 292.59 
L 230.711522 292.59 
L 230.892221 292.59 
L 231.07292 292.59 
L 231.25362 292.59 
L 231.434319 292.59 
L 231.615019 292.59 
L 231.795718 292.59 
L 231.976417 292.59 
L 232.157117 292.59 
L 232.337816 292.59 
L 232.518516 292.59 
L 232.699215 292.59 
L 232.879914 292.59 
L 233.060614 292.59 
L 233.241313 292.59 
L 233.422012 292.59 
L 233.602712 292.59 
L 233.783411 292.59 
L 233.964111 292.59 
L 234.14481 292.59 
L 234.325509 292.59 
L 234.506209 292.59 
L 234.686908 292.59 
L 234.867608 292.59 
L 235.048307 292.59 
L 235.229006 292.59 
L 235.409706 292.59 
L 235.590405 292.59 
L 235.771105 292.59 
L 235.951804 292.59 
L 236.132503 292.59 
L 236.313203 292.59 
L 236.493902 292.59 
L 236.674602 292.59 
L 236.855301 292.59 
L 237.036 292.59 
L 237.2167 292.59 
L 237.397399 292.59 
L 237.578099 292.59 
L 237.758798 292.59 
L 237.939497 292.59 
L 238.120197 292.59 
L 238.300896 292.59 
L 238.481596 292.59 
L 238.662295 292.59 
L 238.842994 292.59 
L 239.023694 292.59 
L 239.204393 292.59 
L 239.385093 292.59 
L 239.565792 292.59 
L 239.746491 292.59 
L 239.927191 292.59 
L 240.10789 292.59 
L 240.28859 292.59 
L 240.469289 292.59 
L 240.649988 292.59 
L 240.830688 292.59 
L 241.011387 292.59 
L 241.192087 292.59 
L 241.372786 292.59 
L 241.553485 292.59 
L 241.734185 292.59 
L 241.914884 292.59 
L 242.095584 292.59 
L 242.276283 292.59 
L 242.456982 292.59 
L 242.637682 292.59 
L 242.818381 292.59 
L 242.99908 292.59 
L 243.17978 292.59 
L 243.360479 292.59 
L 243.541179 292.59 
L 243.721878 292.59 
L 243.902577 292.59 
L 244.083277 292.59 
L 244.263976 292.59 
L 244.444676 292.59 
L 244.625375 292.59 
L 244.806074 292.59 
L 244.986774 292.59 
L 245.167473 292.59 
L 245.348173 292.59 
L 245.528872 292.59 
L 245.709571 292.59 
L 245.890271 292.59 
L 246.07097 292.59 
L 246.25167 292.59 
L 246.432369 292.59 
L 246.613068 292.59 
L 246.793768 292.59 
L 246.974467 292.59 
L 247.155167 292.59 
L 247.335866 292.59 
L 247.516565 292.59 
L 247.697265 292.59 
L 247.877964 292.59 
L 248.058664 292.59 
L 248.239363 292.59 
L 248.420062 292.59 
L 248.600762 292.59 
L 248.781461 292.59 
L 248.962161 292.59 
L 249.14286 292.59 
L 249.323559 292.59 
L 249.504259 292.59 
L 249.684958 292.59 
L 249.865658 292.59 
L 250.046357 292.59 
L 250.227056 292.59 
L 250.227056 292.572941 
L 250.227056 292.572941 
L 250.046357 292.567411 
L 249.865658 292.551194 
L 249.684958 292.520802 
L 249.504259 292.471 
L 249.323559 292.395982 
L 249.14286 292.29113 
L 248.962161 292.155191 
L 248.781461 291.992306 
L 248.600762 291.812961 
L 248.420062 291.632968 
L 248.239363 291.470001 
L 248.058664 291.338142 
L 247.877964 291.241814 
L 247.697265 291.17103 
L 247.516565 291.099712 
L 247.335866 290.987828 
L 247.155167 290.786802 
L 246.974467 290.446485 
L 246.793768 289.921614 
L 246.613068 289.17605 
L 246.432369 288.184148 
L 246.25167 286.929648 
L 246.07097 285.403285 
L 245.890271 283.60051 
L 245.709571 281.520498 
L 245.528872 279.167066 
L 245.348173 276.551535 
L 245.167473 273.696902 
L 244.986774 270.642053 
L 244.806074 267.444183 
L 244.625375 264.177369 
L 244.444676 260.925661 
L 244.263976 257.770264 
L 244.083277 254.772267 
L 243.902577 251.954303 
L 243.721878 249.285794 
L 243.541179 246.676529 
L 243.360479 243.981917 
L 243.17978 241.02082 
L 242.99908 237.603868 
L 242.818381 233.567389 
L 242.637682 228.806287 
L 242.456982 223.298887 
L 242.276283 217.118087 
L 242.095584 210.425886 
L 241.914884 203.451764 
L 241.734185 196.458719 
L 241.553485 189.703355 
L 241.372786 183.397699 
L 241.192087 177.680207 
L 241.011387 172.601503 
L 240.830688 168.127113 
L 240.649988 164.155488 
L 240.469289 160.545985 
L 240.28859 157.149478 
L 240.10789 153.834597 
L 239.927191 150.505386 
L 239.746491 147.110377 
L 239.565792 143.646643 
L 239.385093 140.163119 
L 239.204393 136.76462 
L 239.023694 133.613017 
L 238.842994 130.918678 
L 238.662295 128.9168 
L 238.481596 127.830044 
L 238.300896 127.827377 
L 238.120197 128.993824 
L 237.939497 131.32325 
L 237.758798 134.73692 
L 237.578099 139.119311 
L 237.397399 144.355235 
L 237.2167 150.352749 
L 237.036 157.043852 
L 236.855301 164.365802 
L 236.674602 172.234429 
L 236.493902 180.523321 
L 236.313203 189.058631 
L 236.132503 197.631188 
L 235.951804 206.020136 
L 235.771105 214.019012 
L 235.590405 221.456903 
L 235.409706 228.211977 
L 235.229006 234.218838 
L 235.048307 239.472166 
L 234.867608 244.02694 
L 234.686908 247.992551 
L 234.506209 251.517237 
L 234.325509 254.762036 
L 234.14481 257.868682 
L 233.964111 260.930417 
L 233.783411 263.97558 
L 233.602712 266.969985 
L 233.422012 269.837252 
L 233.241313 272.489565 
L 233.060614 274.857979 
L 232.879914 276.912484 
L 232.699215 278.666784 
L 232.518516 280.168711 
L 232.337816 281.481894 
L 232.157117 282.666106 
L 231.976417 283.76252 
L 231.795718 284.787101 
L 231.615019 285.732137 
L 231.434319 286.573735 
L 231.25362 287.2824 
L 231.07292 287.83403 
L 230.892221 288.219245 
L 230.711522 288.449349 
L 230.530822 288.557607 
L 230.350123 288.595142 
L 230.169423 288.621966 
L 229.988724 288.695114 
L 229.808025 288.856992 
L 229.627325 289.127232 
L 229.446626 289.500295 
L 229.265926 289.949243 
L 229.085227 290.434139 
L 228.904528 290.912283 
L 228.723828 291.347296 
L 228.543129 291.714926 
L 228.362429 292.004793 
L 228.18173 292.218647 
L 228.001031 292.366531 
L 227.820331 292.462427 
L 227.639632 292.520586 
L 227.458932 292.553113 
L 227.278233 292.568814 
z
" style="fill-opacity:0.25;"/>
   </g>
   <g id="PolyCollection_6">
    <path clip-path="url(#pa3edcf9c7d)" d="M 268.889061 292.577303 
L 268.889061 292.59 
L 269.040179 292.59 
L 269.191296 292.59 
L 269.342413 292.59 
L 269.49353 292.59 
L 269.644647 292.59 
L 269.795764 292.59 
L 269.946881 292.59 
L 270.097998 292.59 
L 270.249115 292.59 
L 270.400233 292.59 
L 270.55135 292.59 
L 270.702467 292.59 
L 270.853584 292.59 
L 271.004701 292.59 
L 271.155818 292.59 
L 271.306935 292.59 
L 271.458052 292.59 
L 271.609169 292.59 
L 271.760287 292.59 
L 271.911404 292.59 
L 272.062521 292.59 
L 272.213638 292.59 
L 272.364755 292.59 
L 272.515872 292.59 
L 272.666989 292.59 
L 272.818106 292.59 
L 272.969224 292.59 
L 273.120341 292.59 
L 273.271458 292.59 
L 273.422575 292.59 
L 273.573692 292.59 
L 273.724809 292.59 
L 273.875926 292.59 
L 274.027043 292.59 
L 274.17816 292.59 
L 274.329278 292.59 
L 274.480395 292.59 
L 274.631512 292.59 
L 274.782629 292.59 
L 274.933746 292.59 
L 275.084863 292.59 
L 275.23598 292.59 
L 275.387097 292.59 
L 275.538215 292.59 
L 275.689332 292.59 
L 275.840449 292.59 
L 275.991566 292.59 
L 276.142683 292.59 
L 276.2938 292.59 
L 276.444917 292.59 
L 276.596034 292.59 
L 276.747151 292.59 
L 276.898269 292.59 
L 277.049386 292.59 
L 277.200503 292.59 
L 277.35162 292.59 
L 277.502737 292.59 
L 277.653854 292.59 
L 277.804971 292.59 
L 277.956088 292.59 
L 278.107205 292.59 
L 278.258323 292.59 
L 278.40944 292.59 
L 278.560557 292.59 
L 278.711674 292.59 
L 278.862791 292.59 
L 279.013908 292.59 
L 279.165025 292.59 
L 279.316142 292.59 
L 279.46726 292.59 
L 279.618377 292.59 
L 279.769494 292.59 
L 279.920611 292.59 
L 280.071728 292.59 
L 280.222845 292.59 
L 280.373962 292.59 
L 280.525079 292.59 
L 280.676196 292.59 
L 280.827314 292.59 
L 280.978431 292.59 
L 281.129548 292.59 
L 281.280665 292.59 
L 281.431782 292.59 
L 281.582899 292.59 
L 281.734016 292.59 
L 281.885133 292.59 
L 282.036251 292.59 
L 282.187368 292.59 
L 282.338485 292.59 
L 282.489602 292.59 
L 282.640719 292.59 
L 282.791836 292.59 
L 282.942953 292.59 
L 283.09407 292.59 
L 283.245187 292.59 
L 283.396305 292.59 
L 283.547422 292.59 
L 283.698539 292.59 
L 283.849656 292.59 
L 284.000773 292.59 
L 284.15189 292.59 
L 284.303007 292.59 
L 284.454124 292.59 
L 284.605241 292.59 
L 284.756359 292.59 
L 284.907476 292.59 
L 285.058593 292.59 
L 285.20971 292.59 
L 285.360827 292.59 
L 285.511944 292.59 
L 285.663061 292.59 
L 285.814178 292.59 
L 285.965296 292.59 
L 286.116413 292.59 
L 286.26753 292.59 
L 286.418647 292.59 
L 286.569764 292.59 
L 286.720881 292.59 
L 286.871998 292.59 
L 287.023115 292.59 
L 287.174232 292.59 
L 287.32535 292.59 
L 287.476467 292.59 
L 287.627584 292.59 
L 287.778701 292.59 
L 287.929818 292.59 
L 288.080935 292.59 
L 288.080935 292.577387 
L 288.080935 292.577387 
L 287.929818 292.570777 
L 287.778701 292.555856 
L 287.627584 292.529589 
L 287.476467 292.488159 
L 287.32535 292.428049 
L 287.174232 292.347526 
L 287.023115 292.248184 
L 286.871998 292.135867 
L 286.720881 292.020198 
L 286.569764 291.912131 
L 286.418647 291.819599 
L 286.26753 291.742157 
L 286.116413 291.666269 
L 285.965296 291.563145 
L 285.814178 291.390654 
L 285.663061 291.099908 
L 285.511944 290.645698 
L 285.360827 289.998467 
L 285.20971 289.154307 
L 285.058593 288.139141 
L 284.907476 287.004359 
L 284.756359 285.813858 
L 284.605241 284.625921 
L 284.454124 283.476113 
L 284.303007 282.367682 
L 284.15189 281.27316 
L 284.000773 280.145927 
L 283.849656 278.935902 
L 283.698539 277.601577 
L 283.547422 276.112561 
L 283.396305 274.441644 
L 283.245187 272.550617 
L 283.09407 270.37721 
L 282.942953 267.83005 
L 282.791836 264.795115 
L 282.640719 261.152597 
L 282.489602 256.799408 
L 282.338485 251.671175 
L 282.187368 245.758268 
L 282.036251 239.112466 
L 281.885133 231.843328 
L 281.734016 224.105575 
L 281.582899 216.080391 
L 281.431782 207.95434 
L 281.280665 199.89922 
L 281.129548 192.055027 
L 280.978431 184.516964 
L 280.827314 177.327076 
L 280.676196 170.471837 
L 280.525079 163.888033 
L 280.373962 157.479228 
L 280.222845 151.142792 
L 280.071728 144.803347 
L 279.920611 138.44414 
L 279.769494 132.125798 
L 279.618377 125.984019 
L 279.46726 120.204099 
L 279.316142 114.978961 
L 279.165025 110.464779 
L 279.013908 106.750721 
L 278.862791 103.854545 
L 278.711674 101.745083 
L 278.560557 100.380468 
L 278.40944 99.743404 
L 278.258323 99.856248 
L 278.107205 100.768938 
L 277.956088 102.526687 
L 277.804971 105.134554 
L 277.653854 108.537126 
L 277.502737 112.623546 
L 277.35162 117.255724 
L 277.200503 122.307193 
L 277.049386 127.696033 
L 276.898269 133.398378 
L 276.747151 139.43709 
L 276.596034 145.849978 
L 276.444917 152.650354 
L 276.2938 159.796759 
L 276.142683 167.186204 
L 275.991566 174.676036 
L 275.840449 182.126539 
L 275.689332 189.445619 
L 275.538215 196.614349 
L 275.387097 203.680091 
L 275.23598 210.718998 
L 275.084863 217.784232 
L 274.933746 224.862844 
L 274.782629 231.859814 
L 274.631512 238.615048 
L 274.480395 244.944879 
L 274.329278 250.690405 
L 274.17816 255.75443 
L 274.027043 260.115888 
L 273.875926 263.821227 
L 273.724809 266.961115 
L 273.573692 269.644147 
L 273.422575 271.976708 
L 273.271458 274.052112 
L 273.120341 275.946704 
L 272.969224 277.718499 
L 272.818106 279.405441 
L 272.666989 281.023511 
L 272.515872 282.567052 
L 272.364755 284.013457 
L 272.213638 285.332197 
L 272.062521 286.49568 
L 271.911404 287.488287 
L 271.760287 288.310693 
L 271.609169 288.978701 
L 271.458052 289.518068 
L 271.306935 289.957999 
L 271.155818 290.325763 
L 271.004701 290.643605 
L 270.853584 290.927758 
L 270.702467 291.18865 
L 270.55135 291.431502 
L 270.400233 291.657104 
L 270.249115 291.862938 
L 270.097998 292.044785 
L 269.946881 292.198605 
L 269.795764 292.32215 
L 269.644647 292.415833 
L 269.49353 292.482627 
L 269.342413 292.527232 
L 269.191296 292.554914 
L 269.040179 292.570434 
L 268.889061 292.577303 
z
" style="fill:#1f78b4;fill-opacity:0.25;"/>
   </g>
   <g id="line2d_12">
    <path clip-path="url(#pa3edcf9c7d)" d="M 301.740469 292.573025 
L 302.265831 292.425464 
L 302.659853 291.97744 
L 303.579236 290.234307 
L 303.841918 289.328359 
L 304.104599 287.302095 
L 304.49862 281.169046 
L 305.418004 259.270344 
L 305.943366 242.818863 
L 306.600069 212.37781 
L 307.650793 154.737065 
L 308.701518 92.896063 
L 309.095539 82.23345 
L 309.752242 71.174306 
L 309.883583 70.714456 
L 310.014923 71.704081 
L 310.277604 78.875889 
L 310.671626 100.789043 
L 312.247712 201.385532 
L 312.904415 229.748369 
L 314.217821 277.937063 
L 314.611842 282.34471 
L 314.874523 283.128774 
L 315.137204 283.456956 
L 315.399886 284.271588 
L 315.793907 286.774277 
L 316.319269 289.996311 
L 316.713291 291.106522 
L 317.369994 292.022876 
L 317.895356 292.468935 
L 318.420718 292.574442 
L 318.420718 292.574442 
" style="fill:none;stroke:#0000ff;stroke-linecap:round;stroke-width:2;"/>
   </g>
   <g id="line2d_13">
    <path clip-path="url(#pa3edcf9c7d)" d="M 281.787225 292.58151 
L 283.048023 292.451146 
L 285.317459 291.816035 
L 286.073938 291.977025 
L 286.830417 292.161267 
L 287.334736 292.024804 
L 287.839056 291.474668 
L 288.343375 290.46395 
L 290.360652 285.581491 
L 291.117131 283.823127 
L 291.62145 281.878649 
L 292.125769 278.668015 
L 292.630088 273.851443 
L 293.386567 263.670324 
L 294.899525 240.971381 
L 296.412483 224.565448 
L 296.916802 213.755606 
L 298.1776 182.911233 
L 298.681919 174.52096 
L 299.186238 168.982483 
L 299.690558 165.886859 
L 299.942717 165.254513 
L 300.194877 165.319791 
L 300.447036 166.177116 
L 300.699196 167.910424 
L 301.203515 174.124731 
L 301.959994 188.900749 
L 303.220792 214.604685 
L 305.742388 258.986279 
L 306.498867 267.387152 
L 308.011825 280.637235 
L 308.768304 285.247542 
L 309.272623 287.049001 
L 310.029102 288.766503 
L 311.54206 291.522766 
L 312.046379 292.081641 
L 312.550698 292.39273 
L 313.307177 292.558787 
L 313.811496 292.581022 
L 313.811496 292.581022 
" style="fill:none;stroke:#33a02c;stroke-linecap:round;stroke-width:2;"/>
   </g>
   <g id="line2d_14">
    <path clip-path="url(#pa3edcf9c7d)" d="M 463.850892 292.553796 
L 464.149413 292.379727 
L 464.348426 292.001514 
L 464.646947 290.675405 
L 464.945467 288.194678 
L 465.243987 284.179297 
L 465.542508 277.406614 
L 465.940535 262.700783 
L 466.438069 235.233003 
L 466.935603 196.491927 
L 467.433137 138.710407 
L 468.229191 41.023843 
L 468.527711 23.285735 
L 468.726725 20.79 
L 468.925739 23.908713 
L 470.11982 57.383012 
L 470.41834 72.990005 
L 470.816367 106.610076 
L 472.109956 228.367764 
L 472.806503 267.551867 
L 473.20453 278.978228 
L 473.602557 284.643036 
L 474.199598 290.489953 
L 474.498119 291.796159 
L 474.697132 291.95157 
L 474.995652 291.665019 
L 475.294173 291.496218 
L 475.493186 291.65819 
L 476.189734 292.501965 
L 476.488254 292.562756 
L 476.488254 292.562756 
" style="fill:none;stroke:#ff7f00;stroke-linecap:round;stroke-width:2;"/>
   </g>
   <g id="line2d_15">
    <path clip-path="url(#pa3edcf9c7d)" d="M 70.670072 292.58241 
L 71.921012 292.487161 
L 72.859217 292.206625 
L 74.110156 291.59377 
L 74.735626 291.098618 
L 75.361096 290.271945 
L 75.986565 289.054467 
L 76.92477 286.69014 
L 78.17571 282.826656 
L 78.801179 280.472476 
L 79.426649 277.214615 
L 80.052119 272.088267 
L 80.990324 260.804193 
L 82.241263 245.998003 
L 82.866733 238.403379 
L 83.492203 228.129631 
L 84.430407 206.577713 
L 85.368612 184.132432 
L 85.994082 174.107194 
L 86.306817 171.333336 
L 86.619551 170.116594 
L 86.932286 170.402467 
L 87.245021 172.084005 
L 87.870491 178.955401 
L 89.7469 206.410632 
L 90.99784 219.427512 
L 91.62331 228.332086 
L 94.125189 268.315295 
L 94.750658 274.870981 
L 95.376128 279.585903 
L 96.001598 282.88972 
L 96.627068 285.049315 
L 97.252538 286.376104 
L 98.190742 287.690751 
L 101.005356 291.17936 
L 101.943561 291.770184 
L 103.507235 292.378289 
L 104.44544 292.541525 
L 105.383644 292.516478 
L 107.885524 292.202825 
L 109.761933 292.562226 
L 110.387403 292.582468 
L 110.387403 292.582468 
" style="fill:none;stroke:#e31a1c;stroke-linecap:round;stroke-width:2;"/>
   </g>
   <g id="line2d_16">
    <path clip-path="url(#pa3edcf9c7d)" d="M 227.278233 292.568814 
L 227.820331 292.462427 
L 228.18173 292.218647 
L 228.543129 291.714926 
L 229.085227 290.434139 
L 229.627325 289.127232 
L 229.988724 288.695114 
L 230.892221 288.219245 
L 231.25362 287.2824 
L 231.795718 284.787101 
L 232.518516 280.168711 
L 233.060614 274.857979 
L 233.783411 263.97558 
L 234.867608 244.02694 
L 235.409706 228.211977 
L 236.132503 197.631188 
L 237.2167 150.352749 
L 237.758798 134.73692 
L 238.120197 128.993824 
L 238.300896 127.827377 
L 238.481596 127.830044 
L 238.662295 128.9168 
L 239.023694 133.613017 
L 240.469289 160.545985 
L 241.011387 172.601503 
L 241.553485 189.703355 
L 242.818381 233.567389 
L 243.360479 243.981917 
L 244.625375 264.177369 
L 245.528872 279.167066 
L 246.07097 285.403285 
L 246.613068 289.17605 
L 246.974467 290.446485 
L 247.335866 290.987828 
L 248.781461 291.992306 
L 249.323559 292.395982 
L 249.865658 292.551194 
L 250.227056 292.572941 
L 250.227056 292.572941 
" style="fill:none;stroke:#000000;stroke-linecap:round;stroke-width:2;"/>
   </g>
   <g id="line2d_17">
    <path clip-path="url(#pa3edcf9c7d)" d="M 268.889061 292.577303 
L 269.49353 292.482627 
L 269.946881 292.198605 
L 270.55135 291.431502 
L 271.155818 290.325763 
L 271.609169 288.978701 
L 272.062521 286.49568 
L 272.666989 281.023511 
L 273.422575 271.976708 
L 273.875926 263.821227 
L 274.329278 250.690405 
L 275.084863 217.784232 
L 277.200503 122.307193 
L 277.804971 105.134554 
L 278.107205 100.768938 
L 278.258323 99.856248 
L 278.40944 99.743404 
L 278.560557 100.380468 
L 278.862791 103.854545 
L 279.165025 110.464779 
L 279.618377 125.984019 
L 280.978431 184.516964 
L 282.489602 256.799408 
L 282.942953 267.83005 
L 283.396305 274.441644 
L 284.000773 280.145927 
L 285.511944 290.645698 
L 285.814178 291.390654 
L 286.26753 291.742157 
L 287.023115 292.248184 
L 287.627584 292.529589 
L 288.080935 292.577387 
L 288.080935 292.577387 
" style="fill:none;stroke:#1f78b4;stroke-linecap:round;stroke-width:2;"/>
   </g>
   <g id="line2d_18">
    <path clip-path="url(#pa3edcf9c7d)" d="M 299.807125 306.18 
L 299.807125 7.2 
" style="fill:none;stroke:#33a02c;stroke-dasharray:8.4,3.6;stroke-dashoffset:0;stroke-width:3;"/>
   </g>
   <g id="patch_3">
    <path d="M 50.379163 306.18 
L 50.379163 7.2 
" style="fill:none;"/>
   </g>
   <g id="patch_4">
    <path d="M 496.779163 306.18 
L 496.779163 7.2 
" style="fill:none;"/>
   </g>
   <g id="patch_5">
    <path d="M 50.379163 306.18 
L 496.779163 306.18 
" style="fill:none;"/>
   </g>
   <g id="patch_6">
    <path d="M 50.379163 7.2 
L 496.779163 7.2 
" style="fill:none;"/>
   </g>
   <g id="legend_1">
    <g id="line2d_19">
     <path d="M 62.979163 24.7 
L 90.979163 24.7 
" style="fill:none;stroke:#0000ff;stroke-linecap:round;stroke-width:2;"/>
    </g>
    <g id="line2d_20"/>
    <g id="text_14">
     <!-- \emph{egl-9} $&gt;$ \emph{vhl-1} -->
     <defs>
      <path d="M 44.09375 10.859375 
C 42.796875 9.953125 41.5 8.9375 40.09375 8.140625 
C 34.296875 4.59375 24.09375 1.765625 18.203125 7.53125 
C 14.40625 11.375 13.203125 17.53125 14.796875 25 
L 46.40625 25 
C 46.796875 25 47.40625 24.90625 47.703125 25.203125 
C 48.5 25.8125 48.703125 31.375 48.703125 31.46875 
C 48.703125 32.6875 48.796875 33.890625 48.703125 35.109375 
C 48.296875 40.46875 45.703125 45.3125 40.703125 47.140625 
C 34.296875 49.765625 27 47.84375 21.5 43.90625 
C 13.796875 38.4375 8.40625 29.046875 8 19.453125 
C 7.59375 11.875 10.5 5.515625 15.40625 2.171875 
C 23.40625 -3.484375 34.5 -0.15625 40.90625 3.6875 
C 41.703125 4.203125 42.90625 4.703125 43.40625 5.40625 
C 43.703125 5.90625 44.09375 10.859375 44.09375 10.859375 
M 43.296875 28.953125 
L 16.203125 28.953125 
C 16.59375 30.671875 17.703125 32.390625 18.703125 33.796875 
C 21.296875 37.84375 25.09375 41.46875 29.796875 42.796875 
C 33.59375 43.90625 38.296875 43.1875 41 40.0625 
C 43.203125 37.4375 43.703125 33.390625 43.296875 28.953125 
" id="Computer_Modern_Bright_Slanted-101"/>
      <path d="M 37.90625 12.09375 
L 38 12.09375 
C 37.703125 10.1875 37.203125 8.265625 36.796875 6.34375 
C 36.203125 3.3125 35.703125 0.171875 34.703125 -2.65625 
C 33.5 -5.984375 31.203125 -9.109375 28.296875 -11.140625 
C 25.90625 -12.75 23.796875 -13.265625 19.90625 -12.953125 
C 15.09375 -12.953125 11.59375 -12.03125 7.796875 -10.265625 
C 6.703125 -9.75 5.796875 -9.125 4.703125 -8.609375 
L 3.5 -14.171875 
C 8.09375 -16.25 12.203125 -18 18.40625 -18 
C 19.796875 -18.109375 21.203125 -18.203125 22.59375 -18.109375 
C 31.703125 -17.203125 38.5 -10.21875 41.09375 -2.828125 
C 41.796875 -1 42.09375 1.015625 42.5 2.953125 
L 44.203125 11.03125 
C 44.796875 13.78125 51.90625 47.390625 52 48.5 
L 45.703125 48.5 
L 44.09375 40.265625 
C 43.703125 40.984375 43.5 41.78125 43.203125 42.5 
C 42.5 43.90625 41.5 45.21875 40.296875 46.234375 
C 34.40625 51.1875 25 46.640625 21 43.5 
C 15.09375 38.953125 11 32.296875 9.203125 25.125 
C 6.90625 16.234375 9.5 8.0625 14.90625 4.328125 
C 18.796875 1.59375 24.796875 0.78125 30 3.71875 
C 32.90625 5.4375 36.40625 8.96875 37.90625 12.09375 
M 34.59375 43.5 
C 40.296875 43.5 42.703125 39.546875 42.703125 33.890625 
C 42.59375 33.1875 42.40625 32.375 42.296875 31.671875 
C 40.703125 24.59375 39.40625 17.53125 35.59375 12.0625 
C 33.703125 9.34375 30.90625 7.125 27.5 6.8125 
C 25 6.609375 22.40625 7.515625 20.796875 8.328125 
C 15.90625 11.15625 14.296875 17.21875 15.09375 22.578125 
C 16 28.9375 19.5 35.03125 24.5 39.0625 
C 27.40625 41.4375 30.90625 43.203125 34.59375 43.5 
M 38 12.21875 
C 38 12.21875 38.09375 12.21875 38.09375 12.21875 
C 38.09375 12.125 38 12.015625 38 12.21875 
" id="Computer_Modern_Bright_Slanted-103"/>
      <path d="M 21.09375 70 
L 6.40625 0 
C 8.5 0 10.796875 0 12.59375 0.296875 
L 13 1.40625 
C 14 6.4375 15.09375 11.375 16.203125 16.40625 
L 27.40625 70 
z
" id="Computer_Modern_Bright_Slanted-108"/>
      <path d="M 5.90625 26.0625 
L 4.90625 21 
L 32.796875 21 
L 33.796875 26.0625 
z
" id="Computer_Modern_Bright_Slanted-45"/>
      <path d="M 46.5 33.03125 
L 46.59375 33.03125 
C 46.296875 31.3125 45.90625 29.59375 45.40625 27.96875 
C 42.703125 18.296875 37.09375 7.828125 26.90625 4.625 
C 21.5 3.015625 15.90625 4.03125 12.5 6.734375 
C 12.203125 6.9375 11.59375 7.640625 11.09375 7.546875 
C 10.703125 7.546875 10.296875 6.84375 10.09375 6.53125 
C 9.203125 5.421875 8.296875 4.328125 7.5 3.21875 
C 9.296875 1.796875 11.09375 0.484375 13.296875 -0.3125 
C 15.90625 -1.328125 20.5 -1.828125 23.59375 -1.234375 
C 29 -0.421875 34 2.515625 38.09375 6.03125 
C 47.5 14.375 53.09375 26.21875 54.59375 41.390625 
C 55.09375 45.90625 55.203125 50.515625 54.09375 55.046875 
C 53.203125 58.953125 51.703125 61.46875 48.90625 63.984375 
C 43.796875 68 36.296875 68 30.703125 65.453125 
C 25.40625 62.921875 19.90625 57.65625 17.203125 53.078125 
C 14.59375 48.609375 12.703125 41.40625 13.09375 34.90625 
C 13.5 30.8125 15.5 26.21875 18 23.703125 
C 20.296875 21.515625 23.09375 21 26.09375 21 
C 32.09375 21 38.203125 23.9375 42.5 28.171875 
C 43.90625 29.59375 45.59375 31.109375 46.5 33.03125 
M 43.90625 61.03125 
C 48.59375 58.484375 49.40625 52.515625 48.90625 47.640625 
C 48.703125 44.90625 48.5 42.171875 47.59375 39.53125 
C 45.796875 34.46875 42.09375 30 37.40625 27.578125 
C 32.40625 25.03125 24.59375 25.03125 21.5 29.765625 
C 18.90625 33.484375 19.296875 38 20.09375 42.234375 
C 20.796875 45.546875 21.5 48.96875 23 52.078125 
C 25 56.109375 28.59375 59.734375 32.90625 61.234375 
C 36.5 62.4375 40.59375 62.4375 43.90625 61.03125 
" id="Computer_Modern_Bright_Slanted-57"/>
      <path d="M 62.59375 26.546875 
L 62.59375 26.34375 
C 60.296875 25.546875 58 24.25 55.796875 23.140625 
L 27.09375 9.625 
L 11.09375 2 
C 10.40625 1.703125 9.40625 1.296875 8.90625 0.796875 
C 8 -0.203125 8.203125 -1.703125 9.296875 -2.296875 
C 10.5 -3 11.703125 -2.109375 12.796875 -1.609375 
L 21 2.203125 
C 25.203125 4.3125 55 18.328125 55 18.328125 
L 66 23.546875 
C 67.296875 24.140625 69.40625 24.75 69.40625 26.453125 
C 69.40625 28.15625 67.296875 28.75 66 29.359375 
L 55 34.5625 
L 33.703125 44.6875 
C 29.5 46.6875 25.203125 48.59375 21 50.703125 
L 12.796875 54.5 
C 11.703125 55 10.5 55.90625 9.296875 55.203125 
C 8.203125 54.609375 8 53.09375 8.90625 52.09375 
C 9.40625 51.59375 10.40625 51.203125 11.09375 50.890625 
L 41.59375 36.46875 
L 55.796875 29.75 
C 58 28.65625 60.296875 27.359375 62.59375 26.546875 
" id="Computer_Modern_Bright_Math_Slanted-62"/>
      <path d="M 10.703125 48 
C 12.796875 33.046875 15.09375 18.171875 17.09375 3.125 
C 17.296875 2.109375 17.296875 0.90625 17.796875 0.203125 
C 19.90625 0 22.59375 0 24.703125 0 
L 25.296875 0.703125 
L 44.703125 35.109375 
L 51.796875 48 
C 49.703125 48 47.5 48 45.703125 47.703125 
C 44.90625 46.59375 44.296875 45.484375 43.59375 44.265625 
C 36.59375 31.84375 29.40625 19.515625 22.703125 6.6875 
C 21.59375 16.984375 20 26.6875 18.59375 36.6875 
C 18 40.328125 17.90625 44.46875 16.90625 47.703125 
C 15.09375 48 12.796875 48 10.703125 48 
" id="Computer_Modern_Bright_Slanted-118"/>
      <path d="M 21.09375 70 
L 6.40625 0 
L 10.90625 0 
C 11.796875 0 13 -0.296875 13 1.015625 
C 13.203125 1.71875 13.296875 2.328125 13.40625 3.03125 
C 14.40625 7.78125 19 29.5 19.296875 30.40625 
C 20.40625 33.953125 22.40625 37.375 25.09375 39.90625 
C 28 42.4375 31.203125 43.84375 36.59375 42.9375 
C 38.796875 42.53125 40.90625 41.625 42 39.5 
C 43.5 36.46875 42.40625 32.9375 41.796875 29.90625 
L 35.5 0 
L 40.203125 0 
C 41.203125 0 42.09375 -0.203125 42.09375 1.109375 
C 42.703125 3.125 44.09375 10.625 44.09375 10.625 
L 48.59375 32 
C 49.40625 35.734375 50.296875 40.40625 48.203125 43.9375 
C 46.296875 46.984375 42.90625 48 39.59375 48.296875 
C 38.09375 48.296875 36.5 48.296875 35 48 
C 30.796875 47.3125 27.09375 45.09375 24.09375 42.09375 
C 22.90625 40.890625 21.5 39.59375 20.796875 37.984375 
L 20.703125 37.984375 
L 27.40625 70 
z
" id="Computer_Modern_Bright_Slanted-104"/>
      <path d="M 22.5 61 
L 21.5 55.9375 
C 26.296875 55.9375 31.40625 56.546875 35.703125 58.875 
L 24.5 5.046875 
C 20.296875 5.046875 15.296875 5.5625 11.5 5.046875 
C 10.90625 3.578125 10.703125 1.671875 10.296875 0 
C 21.09375 0 32.59375 0 42.796875 0 
C 43.40625 1.453125 43.703125 3.296875 44.09375 5.046875 
L 31 5.046875 
C 35.203125 26.0625 39.796875 46.59375 44.09375 67.5 
C 41.703125 67.5 42 67.09375 40 65.59375 
C 35.59375 62.59375 28.90625 61 22.5 61 
" id="Computer_Modern_Bright_Slanted-49"/>
     </defs>
     <g style="fill:#262626;" transform="translate(102.179163 29.6)scale(0.14 -0.14)">
      <use transform="scale(0.996264)" xlink:href="#Computer_Modern_Bright_Slanted-101"/>
      <use transform="translate(44.831668 0)scale(0.996264)" xlink:href="#Computer_Modern_Bright_Slanted-103"/>
      <use transform="translate(92.984165 0)scale(0.996264)" xlink:href="#Computer_Modern_Bright_Slanted-108"/>
      <use transform="translate(112.079123 0)scale(0.996264)" xlink:href="#Computer_Modern_Bright_Slanted-45"/>
      <use transform="translate(145.287797 0)scale(0.996264)" xlink:href="#Computer_Modern_Bright_Slanted-57"/>
      <use transform="translate(238.372567 0)scale(0.996264)" xlink:href="#Computer_Modern_Bright_Math_Slanted-62"/>
      <use transform="translate(347.325246 0)scale(0.996264)" xlink:href="#Computer_Modern_Bright_Slanted-118"/>
      <use transform="translate(389.666284 0)scale(0.996264)" xlink:href="#Computer_Modern_Bright_Slanted-104"/>
      <use transform="translate(437.818781 0)scale(0.996264)" xlink:href="#Computer_Modern_Bright_Slanted-108"/>
      <use transform="translate(456.91374 0)scale(0.996264)" xlink:href="#Computer_Modern_Bright_Slanted-45"/>
      <use transform="translate(490.122414 0)scale(0.996264)" xlink:href="#Computer_Modern_Bright_Slanted-49"/>
     </g>
    </g>
    <g id="line2d_21">
     <path d="M 62.979163 43.824611 
L 90.979163 43.824611 
" style="fill:none;stroke:#33a02c;stroke-linecap:round;stroke-width:2;"/>
    </g>
    <g id="line2d_22"/>
    <g id="text_15">
     <!-- data -->
     <defs>
      <path d="M 35.59375 69.6875 
L 35.59375 41.375 
C 33.703125 43.484375 31.796875 45.484375 29.203125 46.6875 
C 20.296875 50.40625 11.703125 45.59375 7.296875 37.65625 
C 2.203125 28.21875 2.796875 15.765625 8.90625 6.921875 
C 13.203125 0.796875 20.296875 -2.203125 27.796875 0.5 
C 30.703125 1.609375 34.203125 4.515625 35.40625 7.125 
L 35.5 7.125 
L 35.5 0 
L 41.90625 0 
L 41.90625 69.6875 
z
M 35.203125 37.453125 
C 35.703125 36.546875 35.5 35.34375 35.5 34.34375 
L 35.5 13.65625 
C 35.5 11.34375 35.40625 11.140625 34.09375 9.34375 
C 32.296875 6.625 29.5 4.71875 26.203125 4.421875 
C 21.40625 4.015625 16.5 6.328125 13.703125 10.25 
C 12.09375 12.546875 11.203125 15.359375 10.703125 18.171875 
C 10.5 19.28125 10.5 20.28125 10.40625 21.390625 
C 9.796875 28.015625 11.203125 35.84375 17 40.0625 
C 18 40.765625 19.09375 41.265625 20.203125 41.765625 
C 26 43.984375 32.40625 43.375 35.203125 37.453125 
" id="Computer_Modern_Bright-100"/>
     </defs>
     <g style="fill:#262626;" transform="translate(102.179163 48.724611)scale(0.14 -0.14)">
      <use transform="scale(0.996264)" xlink:href="#Computer_Modern_Bright-100"/>
      <use transform="translate(48.152497 0)scale(0.996264)" xlink:href="#Computer_Modern_Bright-97"/>
      <use transform="translate(94.644579 0)scale(0.996264)" xlink:href="#Computer_Modern_Bright-116"/>
      <use transform="translate(130.758967 0)scale(0.996264)" xlink:href="#Computer_Modern_Bright-97"/>
     </g>
    </g>
    <g id="line2d_23">
     <path d="M 62.979163 62.949222 
L 90.979163 62.949222 
" style="fill:none;stroke:#ff7f00;stroke-linecap:round;stroke-width:2;"/>
    </g>
    <g id="line2d_24"/>
    <g id="text_16">
     <!-- Additive -->
     <defs>
      <path d="M 2.09375 0.09375 
L 6.59375 0.09375 
L 8.40625 0.296875 
C 11.40625 6.796875 13.5 14.203125 16.203125 21 
C 26.09375 21 36.90625 21 46.296875 21 
L 47.09375 19.6875 
C 48.796875 14.546875 50.796875 9.59375 52.59375 4.546875 
C 53.09375 3.015625 53.59375 1.515625 54.40625 0.296875 
C 56.59375 0 59.203125 0 61.59375 0 
C 59.90625 4.90625 36.703125 67.203125 36 68.890625 
C 35.90625 69.296875 35.703125 69.890625 35.203125 70 
C 34.59375 70.09375 34 70 33.40625 70 
L 30.09375 70 
C 28.59375 70 28 70.1875 27.59375 68.609375 
C 27.203125 67.59375 2.09375 0.09375 2.09375 0.09375 
M 31.40625 63.171875 
C 35.59375 50.71875 40.09375 38.46875 44.5 26.21875 
L 18.203125 26.21875 
L 26.90625 50.109375 
z
" id="Computer_Modern_Bright-65"/>
      <path d="M 0.703125 47.5 
C 1.203125 45.5 4.203125 37.578125 4.40625 37.078125 
C 5.40625 34.28125 17.296875 0.609375 17.59375 0.296875 
C 17.90625 -0.203125 18.796875 0 19.296875 0 
L 22.796875 0 
C 24.09375 0 24.90625 -0.296875 25.203125 0.90625 
C 28.40625 9.328125 40.09375 42.703125 41.796875 47.5 
L 35.59375 47.5 
C 30.796875 33.984375 25.90625 20.4375 21.40625 6.609375 
L 11 36.203125 
C 9.5 39.796875 8.59375 43.890625 6.90625 47.203125 
C 5.09375 47.5 2.796875 47.5 0.703125 47.5 
" id="Computer_Modern_Bright-118"/>
     </defs>
     <g style="fill:#262626;" transform="translate(102.179163 67.849222)scale(0.14 -0.14)">
      <use transform="scale(0.996264)" xlink:href="#Computer_Modern_Bright-65"/>
      <use transform="translate(63.511618 0)scale(0.996264)" xlink:href="#Computer_Modern_Bright-100"/>
      <use transform="translate(111.664115 0)scale(0.996264)" xlink:href="#Computer_Modern_Bright-100"/>
      <use transform="translate(159.816612 0)scale(0.996264)" xlink:href="#Computer_Modern_Bright-105"/>
      <use transform="translate(178.911571 0)scale(0.996264)" xlink:href="#Computer_Modern_Bright-116"/>
      <use transform="translate(215.025959 0)scale(0.996264)" xlink:href="#Computer_Modern_Bright-105"/>
      <use transform="translate(234.120917 0)scale(0.996264)" xlink:href="#Computer_Modern_Bright-118"/>
      <use transform="translate(276.461955 0)scale(0.996264)" xlink:href="#Computer_Modern_Bright-101"/>
     </g>
    </g>
    <g id="line2d_25">
     <path d="M 62.979163 82.073833 
L 90.979163 82.073833 
" style="fill:none;stroke:#e31a1c;stroke-linecap:round;stroke-width:2;"/>
    </g>
    <g id="line2d_26"/>
    <g id="text_17">
     <!-- Suppression -->
     <defs>
      <path d="M 5.09375 13.015625 
C 4.90625 11.390625 4.5 9.671875 4.296875 8.046875 
C 4.09375 6.53125 3.59375 6.109375 4.90625 5.3125 
C 8.296875 3.390625 11.203125 2.0625 15.40625 0.75 
C 24.796875 -2 35.59375 -2 43.796875 4.140625 
C 45.09375 5.140625 46.296875 6.234375 47.40625 7.53125 
C 49.90625 10.890625 52.203125 14.96875 51.59375 20.53125 
C 50.90625 27.671875 46.09375 33.625 39.59375 36.609375 
C 30.703125 40.578125 16.203125 40.578125 12.203125 49.375 
C 9.09375 56.1875 14.59375 62.171875 20.796875 64.375 
C 26.90625 66.6875 34.90625 65.78125 40.09375 63.375 
C 42.5 62.265625 44.5 60.65625 46.703125 59.25 
C 46.90625 60.96875 47.296875 62.578125 47.59375 64.28125 
C 47.796875 65.375 48.09375 66.390625 46.90625 66.78125 
L 45 67.796875 
C 42.296875 69 39.5 69.90625 36.59375 70.5 
C 27.59375 72.203125 17.203125 71.203125 10.40625 64.484375 
C 7 61.0625 4.09375 56.4375 5.296875 49.515625 
C 6.703125 42.390625 12.296875 37.875 18.09375 35.65625 
C 21.5 34.359375 25.296875 33.65625 28.90625 32.75 
C 31 32.34375 33.203125 31.84375 35.296875 31.140625 
C 40.703125 29.125 45.40625 25.109375 45.40625 17.6875 
C 44.796875 11.296875 39.203125 6.625 33.296875 5.203125 
C 25.703125 3.265625 16.703125 6.015625 11.5 8.75 
C 9.203125 9.96875 7.203125 11.59375 5.09375 13.015625 
" id="Computer_Modern_Bright-83"/>
      <path d="M 6.40625 47 
L 6.40625 12.96875 
C 6.40625 10.046875 6.5 7.140625 7.703125 4.421875 
C 9.59375 0.515625 13.59375 -1 17.703125 -1 
C 23.203125 -1 28.703125 0.8125 32.703125 4.734375 
C 33.796875 5.828125 34.796875 6.9375 35.5 8.34375 
L 35.59375 8.34375 
L 35.59375 -0.390625 
L 41.90625 -0.390625 
L 41.90625 47 
L 35.5 47 
L 35.5 22.90625 
C 35.5 18.6875 36.09375 14.0625 33.90625 10.25 
C 32.296875 7.4375 29.5 5.234375 26.40625 4.234375 
C 24.296875 3.625 22.09375 3.625 19.90625 3.828125 
C 17.796875 4.03125 15.5 4.234375 14.09375 6.03125 
C 12.09375 8.453125 12.796875 14.171875 12.796875 17.6875 
L 12.796875 47 
z
" id="Computer_Modern_Bright-117"/>
     </defs>
     <g style="fill:#262626;" transform="translate(102.179163 86.973833)scale(0.14 -0.14)">
      <use transform="scale(0.996264)" xlink:href="#Computer_Modern_Bright-83"/>
      <use transform="translate(56.454753 0)scale(0.996264)" xlink:href="#Computer_Modern_Bright-117"/>
      <use transform="translate(104.60725 0)scale(0.996264)" xlink:href="#Computer_Modern_Bright-112"/>
      <use transform="translate(152.759747 0)scale(0.996264)" xlink:href="#Computer_Modern_Bright-112"/>
      <use transform="translate(198.006514 0)scale(0.996264)" xlink:href="#Computer_Modern_Bright-114"/>
      <use transform="translate(229.969873 0)scale(0.996264)" xlink:href="#Computer_Modern_Bright-101"/>
      <use transform="translate(274.801541 0)scale(0.996264)" xlink:href="#Computer_Modern_Bright-115"/>
      <use transform="translate(313.24057 0)scale(0.996264)" xlink:href="#Computer_Modern_Bright-115"/>
      <use transform="translate(351.679599 0)scale(0.996264)" xlink:href="#Computer_Modern_Bright-105"/>
      <use transform="translate(370.774558 0)scale(0.996264)" xlink:href="#Computer_Modern_Bright-111"/>
      <use transform="translate(421.417776 0)scale(0.996264)" xlink:href="#Computer_Modern_Bright-110"/>
     </g>
    </g>
    <g id="line2d_27">
     <path d="M 62.979163 101.198444 
L 90.979163 101.198444 
" style="fill:none;stroke:#000000;stroke-linecap:round;stroke-width:2;"/>
    </g>
    <g id="line2d_28"/>
    <g id="text_18">
     <!-- \emph{vhl-1} $&gt;$ \emph{egl-9} -->
     <g style="fill:#262626;" transform="translate(102.179163 106.098444)scale(0.14 -0.14)">
      <use transform="scale(0.996264)" xlink:href="#Computer_Modern_Bright_Slanted-118"/>
      <use transform="translate(42.341038 0)scale(0.996264)" xlink:href="#Computer_Modern_Bright_Slanted-104"/>
      <use transform="translate(90.493535 0)scale(0.996264)" xlink:href="#Computer_Modern_Bright_Slanted-108"/>
      <use transform="translate(109.588494 0)scale(0.996264)" xlink:href="#Computer_Modern_Bright_Slanted-45"/>
      <use transform="translate(142.797167 0)scale(0.996264)" xlink:href="#Computer_Modern_Bright_Slanted-49"/>
      <use transform="translate(235.881937 0)scale(0.996264)" xlink:href="#Computer_Modern_Bright_Math_Slanted-62"/>
      <use transform="translate(344.834617 0)scale(0.996264)" xlink:href="#Computer_Modern_Bright_Slanted-101"/>
      <use transform="translate(389.666284 0)scale(0.996264)" xlink:href="#Computer_Modern_Bright_Slanted-103"/>
      <use transform="translate(437.818781 0)scale(0.996264)" xlink:href="#Computer_Modern_Bright_Slanted-108"/>
      <use transform="translate(456.91374 0)scale(0.996264)" xlink:href="#Computer_Modern_Bright_Slanted-45"/>
      <use transform="translate(490.122414 0)scale(0.996264)" xlink:href="#Computer_Modern_Bright_Slanted-57"/>
     </g>
    </g>
    <g id="line2d_29">
     <path d="M 62.979163 120.323055 
L 90.979163 120.323055 
" style="fill:none;stroke:#1f78b4;stroke-linecap:round;stroke-width:2;"/>
    </g>
    <g id="line2d_30"/>
    <g id="text_19">
     <!-- Unbranched -->
     <defs>
      <path d="M 8 69.5 
L 8 32.75 
C 8 25.71875 7.203125 18.390625 10.703125 11.96875 
C 12.90625 7.84375 16.09375 4.4375 20.09375 2.125 
C 29.90625 -3.609375 43.5 -2.203125 51.296875 6.4375 
C 54.796875 10.359375 57.296875 15.171875 57.796875 21.796875 
C 57.90625 23.40625 57.796875 24.921875 57.796875 26.515625 
L 57.796875 69.5 
L 51.40625 69.5 
L 51.40625 25.90625 
C 51.40625 24.59375 51.5 23.1875 51.40625 21.890625 
C 51.203125 18.890625 50.59375 15.921875 49.40625 13.25 
C 43.90625 1 25 1 18 11.890625 
C 14.203125 17.78125 15 25.0625 15 31.65625 
L 15 69.5 
z
" id="Computer_Modern_Bright-85"/>
      <path d="M 6.40625 69.6875 
L 6.40625 0 
L 12.796875 0 
L 12.796875 21.984375 
C 12.796875 26.90625 12.5 31.9375 14.703125 36.546875 
C 15.796875 38.859375 17.5 40.875 19.796875 42.078125 
C 21.703125 42.984375 23.703125 42.984375 25.796875 42.78125 
C 28.796875 42.78125 31.703125 41.984375 33.59375 39.453125 
C 35.40625 37.140625 35.5 34.140625 35.5 31.3125 
L 35.5 0 
L 41.90625 0 
L 41.90625 27.21875 
C 41.90625 32.234375 42.40625 37.75 39.90625 42.28125 
C 37.90625 45.6875 34.40625 47.296875 30.703125 47.796875 
C 28.703125 48 26.703125 48 24.703125 47.703125 
C 21.09375 47.015625 18 45.03125 15.59375 42.34375 
C 14.5 41.046875 13.203125 39.46875 12.796875 37.765625 
L 12.703125 37.765625 
L 12.703125 69.6875 
z
" id="Computer_Modern_Bright-104"/>
     </defs>
     <g style="fill:#262626;" transform="translate(102.179163 125.223055)scale(0.14 -0.14)">
      <use transform="scale(0.996264)" xlink:href="#Computer_Modern_Bright-85"/>
      <use transform="translate(65.587132 0)scale(0.996264)" xlink:href="#Computer_Modern_Bright-110"/>
      <use transform="translate(113.739629 0)scale(0.996264)" xlink:href="#Computer_Modern_Bright-98"/>
      <use transform="translate(158.986397 0)scale(0.996264)" xlink:href="#Computer_Modern_Bright-114"/>
      <use transform="translate(190.949756 0)scale(0.996264)" xlink:href="#Computer_Modern_Bright-97"/>
      <use transform="translate(237.441838 0)scale(0.996264)" xlink:href="#Computer_Modern_Bright-110"/>
      <use transform="translate(285.594335 0)scale(0.996264)" xlink:href="#Computer_Modern_Bright-99"/>
      <use transform="translate(330.426003 0)scale(0.996264)" xlink:href="#Computer_Modern_Bright-104"/>
      <use transform="translate(378.5785 0)scale(0.996264)" xlink:href="#Computer_Modern_Bright-101"/>
      <use transform="translate(423.410167 0)scale(0.996264)" xlink:href="#Computer_Modern_Bright-100"/>
     </g>
    </g>
   </g>
  </g>
 </g>
 <defs>
  <clipPath id="pa3edcf9c7d">
   <rect height="298.98" width="446.4" x="50.379163" y="7.2"/>
  </clipPath>
 </defs>
</svg>
