<?xml version="1.0" encoding="utf-8" standalone="no"?>
<!DOCTYPE svg PUBLIC "-//W3C//DTD SVG 1.1//EN"
  "http://www.w3.org/Graphics/SVG/1.1/DTD/svg11.dtd">
<!-- Created with matplotlib (http://matplotlib.org/) -->
<svg height="353pt" version="1.1" viewBox="0 0 503 353" width="503pt" xmlns="http://www.w3.org/2000/svg" xmlns:xlink="http://www.w3.org/1999/xlink">
 <defs>
  <style type="text/css">
*{stroke-linecap:butt;stroke-linejoin:round;}
  </style>
 </defs>
 <g id="figure_1">
  <g id="patch_1">
   <path d="M 0 353.548374 
L 503.979163 353.548374 
L 503.979163 0 
L 0 0 
z
" style="fill:#ffffff;"/>
  </g>
  <g id="axes_1">
   <g id="patch_2">
    <path d="M 50.379163 306.18 
L 496.779163 306.18 
L 496.779163 7.2 
L 50.379163 7.2 
z
" style="fill:#eaeaf2;"/>
   </g>
   <g id="matplotlib.axis_1">
    <g id="xtick_1">
     <g id="line2d_1"/>
     <g id="text_1">
      <!-- $-1.2$ -->
      <defs>
       <path d="M 9.796875 28.078125 
C 8 27.484375 7.796875 24.78125 9.796875 24.28125 
C 10.296875 24.078125 10.90625 24.1875 11.5 24.1875 
L 64.703125 24.1875 
C 65.90625 24.1875 67.796875 23.78125 68.796875 24.78125 
C 69.90625 25.875 69.296875 27.875 67.703125 28.1875 
C 66.5 28.375 65.09375 28.1875 63.90625 28.1875 
L 11.40625 28.1875 
C 10.90625 28.1875 10.296875 28.28125 9.796875 28.078125 
" id="Computer_Modern_Bright_Math_Symbols-0"/>
       <path d="M 9.703125 60.015625 
L 9.703125 55 
C 15.203125 55 19 56 23.40625 57.90625 
L 23.40625 5.015625 
L 10.296875 5.015625 
L 10.296875 0 
L 43 0 
L 43 5.015625 
L 29.90625 5.015625 
L 29.90625 67 
C 27.5 67 27.90625 66.359375 26 64.875 
C 21.90625 61.71875 16.203125 60.015625 9.703125 60.015625 
" id="Computer_Modern_Bright-49"/>
       <path d="M 10.703125 7.8125 
L 10.703125 0 
L 18.5 0 
L 18.5 7.8125 
z
" id="Computer_Modern_Bright_Math_Slanted-58"/>
       <path d="M 7.296875 45.96875 
C 8.703125 51.59375 11.09375 57.984375 16.796875 60.5 
C 19.203125 61.5 21.796875 61.703125 24.40625 61.5 
C 29.296875 61.09375 34.09375 59.09375 37.09375 55.09375 
C 39.296875 52.078125 40.09375 48.375 39.703125 44.78125 
C 38.5 34.34375 28.296875 26.84375 21.703125 21.234375 
C 17.90625 18.03125 7.09375 7.8125 7.09375 7.8125 
L 5.40625 6.203125 
C 4.5 5.3125 4.40625 5.3125 4.40625 3.5 
L 4.40625 0 
L 46.40625 0 
L 46.40625 5.625 
L 10.203125 5.625 
C 13.40625 8.734375 26.703125 20.515625 28.5 21.921875 
C 34.296875 26.65625 40.796875 31.375 44.296875 38.21875 
C 48.203125 46.0625 46.5 55.9375 39.90625 61.765625 
C 35.90625 65.296875 30.40625 67 25.09375 67 
C 20.203125 67 15.203125 66 11.296875 62.90625 
C 8.296875 60.390625 5.796875 56.6875 4.40625 52.875 
C 4.09375 52.28125 3.59375 51.28125 3.703125 50.578125 
C 3.796875 49.984375 4.40625 49.484375 4.703125 49.078125 
C 5.5 48.078125 6.296875 46.875 7.296875 45.96875 
" id="Computer_Modern_Bright-50"/>
      </defs>
      <g style="fill:#262626;" transform="translate(67.611752 324.249603)scale(0.16 -0.16)">
       <use transform="scale(0.996264)" xlink:href="#Computer_Modern_Bright_Math_Symbols-0"/>
       <use transform="translate(77.487468 0)scale(0.996264)" xlink:href="#Computer_Modern_Bright-49"/>
       <use transform="translate(128.130685 0)scale(0.996264)" xlink:href="#Computer_Modern_Bright_Math_Slanted-58"/>
       <use transform="translate(157.188132 0)scale(0.996264)" xlink:href="#Computer_Modern_Bright-50"/>
      </g>
     </g>
    </g>
    <g id="xtick_2">
     <g id="line2d_2"/>
     <g id="text_2">
      <!-- $-1.0$ -->
      <defs>
       <path d="M 14.796875 63.859375 
C 11.90625 61.859375 9.90625 59.140625 8.40625 56.03125 
C 4.796875 49 4.40625 40.765625 4.40625 31.828125 
C 4.40625 20.578125 6.40625 10.25 12 4.3125 
C 17.296875 -1.203125 25.703125 -2.609375 32.796875 0.296875 
C 37.203125 2.015625 40.40625 5.71875 42.40625 9.734375 
C 46 16.875 46.40625 25.40625 46.40625 34.234375 
C 46.40625 37.046875 46.296875 39.859375 46 42.671875 
C 45.296875 49.40625 43 56.828125 39.296875 60.953125 
C 33.203125 67.6875 22.296875 69.1875 14.796875 63.859375 
M 34.90625 58.140625 
C 39.59375 53.125 40 43.484375 40 34.34375 
L 40 28.921875 
C 40 24.296875 39.203125 18.28125 38.203125 14.859375 
C 36.796875 10.140625 34.5 6.734375 29.90625 4.625 
C 24.296875 2.609375 18.5 4.515625 15.296875 8.9375 
C 11 14.65625 10.796875 24.796875 10.796875 33.734375 
C 10.796875 42.171875 10.90625 51.515625 15 57.03125 
C 19.5 63.0625 29.203125 64.0625 34.90625 58.140625 
" id="Computer_Modern_Bright-48"/>
      </defs>
      <g style="fill:#262626;" transform="translate(129.214486 324.249603)scale(0.16 -0.16)">
       <use transform="scale(0.996264)" xlink:href="#Computer_Modern_Bright_Math_Symbols-0"/>
       <use transform="translate(77.487468 0)scale(0.996264)" xlink:href="#Computer_Modern_Bright-49"/>
       <use transform="translate(128.130685 0)scale(0.996264)" xlink:href="#Computer_Modern_Bright_Math_Slanted-58"/>
       <use transform="translate(157.188132 0)scale(0.996264)" xlink:href="#Computer_Modern_Bright-48"/>
      </g>
     </g>
    </g>
    <g id="xtick_3">
     <g id="line2d_3"/>
     <g id="text_3">
      <!-- $-0.8$ -->
      <defs>
       <path d="M 18.703125 36 
L 18.703125 35.90625 
C 12.5 34.09375 7.296875 30.6875 4.796875 24.84375 
C 2.203125 18.71875 4 11.28125 8.40625 6.453125 
C 13.09375 1.421875 19.5 -1 26.296875 -1 
C 36.296875 -1 45.90625 6.40625 47.09375 16.734375 
C 47.296875 18.265625 47.203125 19.890625 47 21.40625 
C 45.203125 29.21875 39.5 33.875 32.09375 35.90625 
C 32.90625 36.203125 33.796875 36.40625 34.59375 36.703125 
C 38.796875 38.421875 42.296875 40.921875 44.5 44.9375 
C 47.796875 51.375 44.59375 58.90625 39.203125 63.015625 
C 33.796875 67.140625 26.5 68.234375 19.90625 66.828125 
C 12 65.125 4.5 58.40625 5 49.765625 
C 5.203125 46.75 6.5 44.234375 8 42.4375 
C 10.296875 39.625 14.796875 36.609375 18.703125 36 
M 23.796875 62.5 
C 28.203125 62.5 33.703125 62 36.90625 58.578125 
C 40.703125 54.46875 40.90625 47.03125 37.09375 42.8125 
C 34.703125 40.203125 31.203125 38.890625 27.703125 38.59375 
C 22.796875 38.1875 17.203125 39 13.703125 42.8125 
C 9.796875 47.125 10.09375 54.96875 14.296875 58.984375 
C 16.90625 61.390625 20.40625 62.1875 23.796875 62.5 
M 23.703125 33.5 
C 28.40625 33.5 33.5 32.390625 36.90625 28.9375 
C 38.203125 27.53125 39.203125 25.8125 39.796875 24.015625 
C 41.5 18.75 40.703125 12.09375 36.796875 8.046875 
C 34.09375 5.328125 30.40625 4.3125 26.703125 4.015625 
C 22.203125 4.015625 17 5.109375 13.796875 8.5625 
C 9.40625 13.390625 8.5 23.40625 13.703125 29.0625 
C 16.296875 31.78125 20 33.203125 23.703125 33.5 
" id="Computer_Modern_Bright-56"/>
      </defs>
      <g style="fill:#262626;" transform="translate(190.81722 324.249603)scale(0.16 -0.16)">
       <use transform="scale(0.996264)" xlink:href="#Computer_Modern_Bright_Math_Symbols-0"/>
       <use transform="translate(77.487468 0)scale(0.996264)" xlink:href="#Computer_Modern_Bright-48"/>
       <use transform="translate(128.130685 0)scale(0.996264)" xlink:href="#Computer_Modern_Bright_Math_Slanted-58"/>
       <use transform="translate(157.188132 0)scale(0.996264)" xlink:href="#Computer_Modern_Bright-56"/>
      </g>
     </g>
    </g>
    <g id="xtick_4">
     <g id="line2d_4"/>
     <g id="text_4">
      <!-- $-0.6$ -->
      <defs>
       <path d="M 11.296875 32.625 
L 11.203125 32.625 
C 11.203125 41.765625 12.796875 52.421875 20.59375 58.25 
C 24.90625 61.375 30.703125 62.96875 38.203125 61.171875 
C 39.796875 60.765625 41.296875 60.15625 42.796875 59.765625 
L 42.796875 63.28125 
C 42.796875 63.671875 42.90625 64.375 42.59375 64.78125 
C 41.90625 65.6875 36.296875 66.59375 36.09375 66.59375 
C 27.40625 67.59375 21.703125 65.6875 16.40625 61.171875 
C 10 55.640625 6.296875 47.515625 5.09375 39.28125 
C 4 32.65625 4.90625 22 6.203125 16.78125 
C 8.296875 9.046875 12.296875 2.21875 19.703125 -0.390625 
C 24.09375 -2 29.5 -2 33.703125 0.015625 
C 37.09375 1.640625 39.90625 4.46875 42.09375 7.5 
C 45.59375 12.34375 46.5 18.21875 46.09375 24.171875 
C 45.90625 27.109375 45.5 30.046875 44.296875 32.765625 
C 42.40625 37.125 39.203125 41.671875 35.09375 43.6875 
C 33.203125 44.5 31.203125 44.5 29.203125 44.5 
C 23.90625 44.5 18.90625 42.1875 15.203125 38.359375 
C 13.59375 36.75 12 34.71875 11.296875 32.625 
M 24.40625 39.515625 
C 28.203125 39.8125 32.203125 39.21875 35.09375 36.5 
C 38.90625 32.890625 39.59375 27.765625 39.59375 22.8125 
C 39.59375 19.46875 39.703125 16.015625 38.703125 12.859375 
C 38.09375 11.234375 37.296875 9.828125 36.40625 8.5 
C 34.203125 5.5625 31.40625 4.125 26.796875 3.515625 
C 22.296875 3.515625 17.796875 5.3125 15.203125 9.125 
C 13.59375 11.328125 12.796875 14.046875 12.296875 16.640625 
C 11.703125 19.34375 11.296875 22.140625 11.5 24.859375 
C 12 31.984375 17 38.515625 24.40625 39.515625 
" id="Computer_Modern_Bright-54"/>
      </defs>
      <g style="fill:#262626;" transform="translate(252.419954 324.249603)scale(0.16 -0.16)">
       <use transform="scale(0.996264)" xlink:href="#Computer_Modern_Bright_Math_Symbols-0"/>
       <use transform="translate(77.487468 0)scale(0.996264)" xlink:href="#Computer_Modern_Bright-48"/>
       <use transform="translate(128.130685 0)scale(0.996264)" xlink:href="#Computer_Modern_Bright_Math_Slanted-58"/>
       <use transform="translate(157.188132 0)scale(0.996264)" xlink:href="#Computer_Modern_Bright-54"/>
      </g>
     </g>
    </g>
    <g id="xtick_5">
     <g id="line2d_5"/>
     <g id="text_5">
      <!-- $-0.4$ -->
      <defs>
       <path d="M 2.09375 18 
L 31 18 
L 31 0 
L 37.296875 0 
L 37.296875 18 
L 48.703125 18 
L 48.703125 23.328125 
L 37.296875 23.328125 
L 37.296875 66.46875 
L 31.90625 66.46875 
C 30.09375 66.46875 29.59375 66.578125 28.796875 65.0625 
C 24.796875 58.515625 3.703125 25.765625 3 24.859375 
C 2.203125 23.4375 2.09375 23.546875 2.09375 21.4375 
z
M 31.296875 60.875 
L 31.296875 23.328125 
L 8.59375 23.328125 
C 9.296875 24.734375 10.296875 26.03125 11.203125 27.4375 
C 16.203125 35.171875 28.09375 53.546875 30.59375 59.28125 
C 30.90625 59.78125 31 60.375 31.296875 60.875 
" id="Computer_Modern_Bright-52"/>
      </defs>
      <g style="fill:#262626;" transform="translate(314.022688 324.249603)scale(0.16 -0.16)">
       <use transform="scale(0.996264)" xlink:href="#Computer_Modern_Bright_Math_Symbols-0"/>
       <use transform="translate(77.487468 0)scale(0.996264)" xlink:href="#Computer_Modern_Bright-48"/>
       <use transform="translate(128.130685 0)scale(0.996264)" xlink:href="#Computer_Modern_Bright_Math_Slanted-58"/>
       <use transform="translate(157.188132 0)scale(0.996264)" xlink:href="#Computer_Modern_Bright-52"/>
      </g>
     </g>
    </g>
    <g id="xtick_6">
     <g id="line2d_6"/>
     <g id="text_6">
      <!-- $-0.2$ -->
      <g style="fill:#262626;" transform="translate(375.625423 324.249603)scale(0.16 -0.16)">
       <use transform="scale(0.996264)" xlink:href="#Computer_Modern_Bright_Math_Symbols-0"/>
       <use transform="translate(77.487468 0)scale(0.996264)" xlink:href="#Computer_Modern_Bright-48"/>
       <use transform="translate(128.130685 0)scale(0.996264)" xlink:href="#Computer_Modern_Bright_Math_Slanted-58"/>
       <use transform="translate(157.188132 0)scale(0.996264)" xlink:href="#Computer_Modern_Bright-50"/>
      </g>
     </g>
    </g>
    <g id="xtick_7">
     <g id="line2d_7"/>
     <g id="text_7">
      <!-- $0.0$ -->
      <g style="fill:#262626;" transform="translate(443.427155 324.249603)scale(0.16 -0.16)">
       <use transform="scale(0.996264)" xlink:href="#Computer_Modern_Bright-48"/>
       <use transform="translate(50.643218 0)scale(0.996264)" xlink:href="#Computer_Modern_Bright_Math_Slanted-58"/>
       <use transform="translate(79.700665 0)scale(0.996264)" xlink:href="#Computer_Modern_Bright-48"/>
      </g>
     </g>
    </g>
    <g id="text_8">
     <!-- Epistasis Coefficient -->
     <defs>
      <path d="M 8 69.328125 
L 8 0 
L 55.40625 0 
L 55.40625 5.625 
L 15 5.625 
L 15 33.671875 
L 51.09375 33.671875 
L 51.09375 39 
L 15 39 
L 15 64 
L 54 64 
L 54 69.328125 
z
" id="Computer_Modern_Bright-69"/>
      <path d="M 12.703125 40.53125 
L 12.703125 47.15625 
L 6.40625 47.15625 
L 6.40625 -17 
L 12.796875 -17 
L 12.796875 6.09375 
C 14.203125 4.078125 15.796875 2.28125 17.90625 1.078125 
C 25 -3.25 34 0.171875 38.90625 6.59375 
C 45.40625 14.96875 46.09375 27.5 41.59375 36.984375 
C 39 42.4375 34.09375 47.5 27.796875 48 
C 22.296875 48 18.09375 45.8125 15.09375 43.125 
C 14.203125 42.328125 13.5 41.4375 12.703125 40.53125 
M 21.90625 42.875 
C 26 43.171875 30 41.265625 32.796875 38.265625 
C 34.5 36.34375 35.796875 34.140625 36.59375 31.734375 
C 40.09375 22.296875 36.90625 9.234375 26.796875 5.328125 
C 21 3.109375 15.296875 5.125 13.09375 10.546875 
C 12.59375 11.546875 12.796875 12.859375 12.796875 13.953125 
L 12.796875 34.640625 
C 12.796875 36.953125 13 37.15625 14.5 38.859375 
C 16.296875 41.0625 19 42.578125 21.90625 42.875 
" id="Computer_Modern_Bright-112"/>
      <path d="M 6.40625 70 
L 6.40625 63.671875 
L 12.703125 63.671875 
L 12.703125 70 
z
M 6.40625 47.390625 
L 6.40625 0 
L 12.703125 0 
L 12.703125 47.390625 
z
" id="Computer_Modern_Bright-105"/>
      <path d="M 3.09375 9.640625 
C 2.90625 8.234375 2.59375 6.9375 2.40625 5.53125 
C 2.203125 4.421875 1.90625 3.921875 2.90625 3.421875 
C 7 1.015625 11.90625 -0.296875 17.703125 -0.796875 
C 24.203125 -1.40625 32.40625 0.109375 35.59375 6.53125 
C 36.5 8.34375 37 10.34375 37.09375 12.359375 
C 37.5 19.578125 31.796875 24.203125 26.90625 25.90625 
C 21.40625 28.015625 13.90625 27.3125 10.09375 31.53125 
C 8.09375 33.84375 8 37.265625 9.90625 39.671875 
C 13.90625 45.296875 26.796875 42.875 31.90625 40.375 
C 32.703125 39.96875 33.40625 39.46875 34.296875 39.265625 
L 35.203125 44.6875 
C 30.5 46.796875 26.40625 48 19.90625 48 
C 14.296875 48 9.203125 46.703125 6 43.484375 
C 2.796875 40.171875 1.703125 34.640625 3.59375 30.4375 
C 5.40625 26.40625 9.203125 23.796875 13.296875 22.5 
C 19.203125 20.390625 25.90625 21.390625 29.796875 16.578125 
C 32 13.765625 31.59375 9.546875 29.09375 7.03125 
C 24.296875 2.609375 14.09375 4.21875 8.5 6.625 
C 6.59375 7.4375 4.90625 8.640625 3.09375 9.640625 
" id="Computer_Modern_Bright-115"/>
      <path d="M 10.796875 60.5 
L 10.796875 47.015625 
L 1.09375 47.015625 
L 1.09375 42 
L 10.703125 42 
L 10.703125 15.015625 
C 10.703125 10.578125 10.40625 5.234375 13.296875 1.515625 
C 15 -0.703125 17.296875 -1.296875 20.796875 -1 
C 23.703125 -1 26.59375 -0.390625 29.296875 0.65625 
C 30.203125 1.0625 33.5 2.515625 33.90625 3.234375 
C 34.09375 3.640625 32.796875 8.09375 32.796875 8.09375 
L 30.40625 6.265625 
C 27.296875 4.34375 21.09375 2.328125 18.5 5.96875 
C 16.203125 9.09375 16.796875 13.75 16.796875 17.375 
L 16.796875 42 
L 32.296875 42 
L 32.296875 47.015625 
L 16.796875 47.015625 
L 16.796875 60.5 
z
" id="Computer_Modern_Bright-116"/>
      <path d="M 7.90625 39.015625 
C 9.59375 39.859375 11 41.09375 12.703125 41.921875 
C 15.40625 43.15625 18.203125 44 21.203125 44 
C 22.59375 44.09375 24.203125 44.296875 25.59375 44 
C 28.09375 43.59375 30.296875 42.078125 31.796875 39.953125 
C 33.296875 37.515625 33.90625 35.390625 33.90625 31.46875 
L 33.90625 27.015625 
C 29.09375 27.015625 24.296875 26.609375 19.703125 25.390625 
C 13.90625 24.078125 7.59375 21.125 5.5 15.84375 
C 3.40625 10.78125 5.59375 4.078125 10.09375 1.03125 
C 12.296875 -0.5 14.90625 -0.5 17.5 -0.296875 
C 21.703125 0 25.90625 1.015625 29.5 3.25 
C 31.203125 4.25 32.90625 5.578125 33.90625 7.296875 
L 34 7.296875 
L 34 0.203125 
L 40.296875 0.203125 
L 40.296875 26.890625 
C 40.296875 29.8125 40.59375 32.953125 40 35.890625 
C 39.40625 39.921875 36.90625 43.265625 34 45.59375 
C 30.59375 48.21875 26.703125 49.109375 21.5 48.71875 
C 16.703125 48.71875 13 47.5 9.40625 45.765625 
C 8.90625 45.5625 7.90625 45.234375 7.59375 44.640625 
C 7.296875 44.21875 7.5 43.515625 7.5 43 
C 7.703125 41.671875 7.796875 40.34375 7.90625 39.015625 
M 33.90625 24 
L 33.90625 16.375 
C 33.90625 14.0625 34 11.953125 32.703125 9.953125 
C 31.59375 8.34375 30.09375 7.234375 28.5 6.4375 
C 22.796875 3.515625 14.09375 4.421875 11.59375 9.25 
C 9.59375 12.75 11.703125 16.875 14.59375 19.1875 
C 18.90625 22.5 27.296875 24 33.90625 24 
" id="Computer_Modern_Bright-97"/>
      <path d="M 60.5 10.875 
C 58.5 9.859375 56.703125 8.453125 54.703125 7.453125 
C 50 5.046875 44 4.140625 37.5 4.734375 
C 31.703125 5.546875 26.90625 8.359375 23.40625 11.875 
C 12.203125 23.15625 11.40625 42.96875 21.296875 55.34375 
C 25.5 60.875 31.90625 65 41.296875 65 
C 45.09375 65 49 64.296875 52.5 62.890625 
C 54.59375 61.96875 56.59375 60.765625 58.59375 59.765625 
L 59.796875 66.8125 
C 57.59375 67.671875 55.296875 68.5625 53 69.09375 
C 47.40625 70.625 38.90625 70.625 33.09375 69.21875 
C 22.90625 66.921875 15.5 59.828125 11.296875 51.625 
C 5.5 40.015625 6.203125 25.515625 13.203125 14.59375 
C 15 11.703125 17.296875 9.109375 19.90625 6.890625 
C 25.90625 1.6875 33.296875 -1.3125 43.59375 -0.5 
C 49.796875 -0.5 53.40625 0.515625 58.203125 3.203125 
C 58.703125 3.5 60.59375 4.515625 60.90625 4.9375 
C 61.09375 5.4375 60.59375 9.53125 60.5 10.875 
" id="Computer_Modern_Bright-67"/>
      <path d="M 10.703125 42.078125 
C 1.796875 33.234375 0.796875 17.875 8.5 7.9375 
C 9.59375 6.421875 10.90625 5.125 12.40625 4.015625 
C 16.09375 1 21.5 -1.203125 27.796875 -0.5 
C 37.796875 0.703125 44.703125 8.84375 46.796875 17.375 
C 49.59375 29.328125 43.703125 42.671875 32.703125 46.890625 
C 24.09375 50.40625 15.5 46.890625 10.703125 42.078125 
M 35.703125 39.359375 
C 40.5 35.03125 41.40625 28.109375 41 21.984375 
C 40.703125 17.265625 39.40625 12.34375 36.09375 8.828125 
C 30.703125 3 20.703125 3 14.90625 8.625 
C 11.90625 11.84375 10.09375 16.453125 9.796875 21.984375 
C 9.296875 30.109375 11.296875 38.75 19.296875 41.96875 
C 25.203125 44.578125 32 42.671875 35.703125 39.359375 
" id="Computer_Modern_Bright-111"/>
      <path d="M 41.796875 10.9375 
C 39.5 9.234375 38.796875 8.328125 35.90625 6.8125 
C 29.796875 3.5 22.59375 3.5 17.40625 7.171875 
C 12.40625 10.765625 9.5 16.640625 9.5 25 
L 42.5 25 
C 42.5 32.421875 40.796875 38.859375 36.59375 43.375 
C 32 47.890625 24.796875 49.296875 18.703125 47.390625 
C 16.40625 46.6875 14.296875 45.484375 12.40625 43.96875 
C 6.09375 38.859375 3.40625 30.71875 3.5 22.78125 
C 3.703125 12.34375 10.796875 1.90625 21.296875 -0.3125 
C 26.796875 -1.421875 32.59375 -0.203125 37.5 2.296875 
C 38.40625 2.796875 41.703125 4.609375 42.09375 5.515625 
C 42.40625 6.015625 41.796875 10.9375 41.796875 10.9375 
M 37.203125 28.90625 
L 10 28.90625 
C 11.203125 36.234375 17.203125 43.96875 25.296875 43.0625 
C 31.90625 42.46875 35.40625 37.75 36.703125 31.828125 
C 36.90625 30.8125 37 29.921875 37.203125 28.90625 
" id="Computer_Modern_Bright-101"/>
      <path d="M 10.59375 47.015625 
L 2 47.015625 
L 2 42 
L 10.59375 42 
L 10.59375 0 
L 16.90625 0 
L 16.90625 42 
L 30.09375 42 
L 30.09375 47.015625 
L 16.796875 47.015625 
L 16.796875 56.234375 
C 16.796875 57.890625 16.59375 59.65625 17.296875 61.21875 
C 19.5 65.875 25.40625 65.875 29.59375 65.078125 
C 30.59375 64.875 31.703125 64.46875 32.703125 64.265625 
L 32.703125 69.90625 
C 27.703125 70.609375 22.296875 71.21875 17.703125 68.46875 
C 15.796875 67.4375 14.203125 65.6875 13 63.921875 
C 11.09375 60.9375 10.59375 58.78125 10.59375 53.71875 
z
M 38.09375 0 
L 44.40625 0 
L 44.40625 42 
L 57.59375 42 
L 57.59375 47.015625 
L 44.296875 47.015625 
L 44.296875 55.234375 
C 44.296875 56.890625 44.09375 58.65625 44.40625 60.328125 
C 44.90625 62.296875 46.09375 63.65625 47.703125 64.671875 
C 50.796875 66.171875 54.40625 65.078125 57.59375 64.171875 
L 57.59375 70 
C 55.09375 70.1875 52.703125 70.6875 50.203125 70.5 
C 43.40625 70 38.59375 64.046875 38.09375 57.3125 
C 38 55.890625 38.09375 54.375 38.09375 52.96875 
z
M 65.59375 70 
L 65.59375 63.671875 
L 71.90625 63.671875 
L 71.90625 70 
z
M 65.59375 47.390625 
L 65.59375 0 
L 71.90625 0 
L 71.90625 47.390625 
z
" id="Computer_Modern_Bright-14"/>
      <path d="M 42.40625 11.25 
C 40.5 9.84375 38.796875 8.328125 36.703125 7.125 
C 32 4.625 24.796875 3.421875 19.40625 5.921875 
C 11.59375 9.9375 9.5 19.6875 10.59375 27.71875 
C 10.796875 29.328125 11.09375 30.921875 11.59375 32.4375 
C 13.796875 38.96875 19.296875 44.078125 28.296875 43.078125 
C 33.09375 42.671875 35.5 41.875 39.296875 39.765625 
C 40 39.359375 40.59375 38.859375 41.40625 38.65625 
C 41.5 39.859375 41.796875 41.171875 42 42.375 
C 42.296875 43.984375 42.296875 44.1875 40.796875 44.890625 
C 39.703125 45.390625 38.59375 45.984375 37.40625 46.390625 
C 32.796875 48.40625 25.203125 49 20 47.5 
C 12.90625 45.484375 7.59375 39.359375 5.296875 32.53125 
C 4.203125 29.421875 3.90625 26.109375 3.90625 22.796875 
C 4 12.25 11.203125 1.90625 21.703125 -0.203125 
C 27.5 -1.40625 34.203125 0.296875 38.203125 2.40625 
C 39.203125 2.90625 42.203125 4.71875 42.703125 5.625 
C 43 6.125 42.40625 11.25 42.40625 11.25 
" id="Computer_Modern_Bright-99"/>
      <path d="M 12.59375 37.28125 
L 12.5 37.28125 
L 12.5 47.390625 
L 6.40625 47.390625 
L 6.40625 0 
L 12.796875 0 
L 12.796875 21.9375 
C 12.796875 26.84375 12.5 31.875 14.703125 36.46875 
C 15.796875 38.78125 17.5 40.78125 19.796875 41.984375 
C 21.703125 42.890625 23.703125 42.890625 25.796875 42.6875 
C 28.796875 42.6875 31.703125 41.890625 33.59375 39.375 
C 35.40625 37.0625 35.5 34.0625 35.5 31.25 
L 35.5 0 
L 41.90625 0 
L 41.90625 26.859375 
C 41.90625 31.875 42.40625 37.375 40 41.890625 
C 38.09375 45.5 34.40625 47.203125 30.5 47.703125 
C 28.5 48 26.40625 48 24.40625 47.609375 
C 19.203125 46.5 14.40625 42.296875 12.59375 37.28125 
" id="Computer_Modern_Bright-110"/>
     </defs>
     <g style="fill:#262626;" transform="translate(201.022873 343.359582)scale(0.18 -0.18)">
      <use transform="scale(0.996264)" xlink:href="#Computer_Modern_Bright-69"/>
      <use transform="translate(58.737787 0)scale(0.996264)" xlink:href="#Computer_Modern_Bright-112"/>
      <use transform="translate(106.890284 0)scale(0.996264)" xlink:href="#Computer_Modern_Bright-105"/>
      <use transform="translate(125.985243 0)scale(0.996264)" xlink:href="#Computer_Modern_Bright-115"/>
      <use transform="translate(164.424272 0)scale(0.996264)" xlink:href="#Computer_Modern_Bright-116"/>
      <use transform="translate(200.53866 0)scale(0.996264)" xlink:href="#Computer_Modern_Bright-97"/>
      <use transform="translate(247.030742 0)scale(0.996264)" xlink:href="#Computer_Modern_Bright-115"/>
      <use transform="translate(285.469772 0)scale(0.996264)" xlink:href="#Computer_Modern_Bright-105"/>
      <use transform="translate(304.56473 0)scale(0.996264)" xlink:href="#Computer_Modern_Bright-115"/>
      <use transform="translate(374.468971 0)scale(0.996264)" xlink:href="#Computer_Modern_Bright-67"/>
      <use transform="translate(439.641004 0)scale(0.996264)" xlink:href="#Computer_Modern_Bright-111"/>
      <use transform="translate(490.284222 0)scale(0.996264)" xlink:href="#Computer_Modern_Bright-101"/>
      <use transform="translate(535.115889 0)scale(0.996264)" xlink:href="#Computer_Modern_Bright-14"/>
      <use transform="translate(613.156322 0)scale(0.996264)" xlink:href="#Computer_Modern_Bright-99"/>
      <use transform="translate(657.987989 0)scale(0.996264)" xlink:href="#Computer_Modern_Bright-105"/>
      <use transform="translate(677.082948 0)scale(0.996264)" xlink:href="#Computer_Modern_Bright-101"/>
      <use transform="translate(721.914616 0)scale(0.996264)" xlink:href="#Computer_Modern_Bright-110"/>
      <use transform="translate(770.067113 0)scale(0.996264)" xlink:href="#Computer_Modern_Bright-116"/>
     </g>
    </g>
   </g>
   <g id="matplotlib.axis_2">
    <g id="ytick_1">
     <g id="line2d_8"/>
     <g id="text_9">
      <!-- $0$ -->
      <g style="fill:#262626;" transform="translate(35.010613 298.124802)scale(0.16 -0.16)">
       <use transform="scale(0.996264)" xlink:href="#Computer_Modern_Bright-48"/>
      </g>
     </g>
    </g>
    <g id="ytick_2">
     <g id="line2d_9"/>
     <g id="text_10">
      <!-- $10$ -->
      <g style="fill:#262626;" transform="translate(26.642062 236.400547)scale(0.16 -0.16)">
       <use transform="scale(0.996264)" xlink:href="#Computer_Modern_Bright-49"/>
       <use transform="translate(50.643218 0)scale(0.996264)" xlink:href="#Computer_Modern_Bright-48"/>
      </g>
     </g>
    </g>
    <g id="ytick_3">
     <g id="line2d_10"/>
     <g id="text_11">
      <!-- $20$ -->
      <g style="fill:#262626;" transform="translate(26.642062 174.676292)scale(0.16 -0.16)">
       <use transform="scale(0.996264)" xlink:href="#Computer_Modern_Bright-50"/>
       <use transform="translate(50.643218 0)scale(0.996264)" xlink:href="#Computer_Modern_Bright-48"/>
      </g>
     </g>
    </g>
    <g id="ytick_4">
     <g id="line2d_11"/>
     <g id="text_12">
      <!-- $30$ -->
      <defs>
       <path d="M 8.09375 50.71875 
C 8.90625 51.921875 9.5 53.234375 10.40625 54.4375 
C 12.5 57.25 15.40625 59.453125 18.703125 60.765625 
C 23.90625 62.875 31.5 62.875 35.59375 58.21875 
C 39.203125 54.078125 37.703125 47.609375 34.40625 43.78125 
C 31.40625 40.25 27.5 38.53125 21.703125 38.53125 
C 20 38.53125 18.40625 38.03125 16.703125 38.03125 
L 16.703125 33 
L 23.59375 33 
C 29.40625 33 33.203125 32.109375 36.40625 28.6875 
C 41.90625 22.859375 41.40625 12.515625 35.296875 7.203125 
C 32.203125 4.59375 27.90625 3.78125 23.90625 4.078125 
C 16.09375 4.6875 9.203125 8.8125 4.59375 15.234375 
C 4.09375 14.234375 4.09375 12.828125 3.90625 11.71875 
C 3.59375 10.109375 3.59375 10.109375 4.59375 8.8125 
C 7.5 4.890625 13.203125 1.28125 17.703125 -0.03125 
C 25.703125 -2.4375 35 -1.34375 41.203125 4.78125 
C 42.40625 6 43.5 7.296875 44.40625 8.703125 
C 48.09375 14.53125 48.203125 22.15625 44.09375 27.78125 
C 42.40625 30.09375 40.203125 31.90625 37.703125 33.3125 
C 36 34.3125 34 35.3125 32 35.515625 
C 37.796875 38.234375 43.203125 42.828125 44.203125 50.359375 
C 45.09375 57.375 41 61.6875 36.796875 64.1875 
C 30.296875 68 21.796875 68 15.09375 64.671875 
C 12 63.171875 9.203125 60.96875 7.09375 58.25 
C 6.703125 57.75 5.203125 56.046875 5.203125 55.234375 
C 5.203125 54.734375 5.59375 54.234375 5.90625 53.828125 
z
" id="Computer_Modern_Bright-51"/>
      </defs>
      <g style="fill:#262626;" transform="translate(26.642062 112.952037)scale(0.16 -0.16)">
       <use transform="scale(0.996264)" xlink:href="#Computer_Modern_Bright-51"/>
       <use transform="translate(50.643218 0)scale(0.996264)" xlink:href="#Computer_Modern_Bright-48"/>
      </g>
     </g>
    </g>
    <g id="ytick_5">
     <g id="line2d_12"/>
     <g id="text_13">
      <!-- $40$ -->
      <g style="fill:#262626;" transform="translate(26.642062 51.227782)scale(0.16 -0.16)">
       <use transform="scale(0.996264)" xlink:href="#Computer_Modern_Bright-52"/>
       <use transform="translate(50.643218 0)scale(0.996264)" xlink:href="#Computer_Modern_Bright-48"/>
      </g>
     </g>
    </g>
    <g id="text_14">
     <!-- Cumulative Density Function -->
     <defs>
      <path d="M 6.40625 47 
L 6.40625 12.96875 
C 6.40625 10.046875 6.5 7.140625 7.703125 4.421875 
C 9.59375 0.515625 13.59375 -1 17.703125 -1 
C 23.203125 -1 28.703125 0.8125 32.703125 4.734375 
C 33.796875 5.828125 34.796875 6.9375 35.5 8.34375 
L 35.59375 8.34375 
L 35.59375 -0.390625 
L 41.90625 -0.390625 
L 41.90625 47 
L 35.5 47 
L 35.5 22.90625 
C 35.5 18.6875 36.09375 14.0625 33.90625 10.25 
C 32.296875 7.4375 29.5 5.234375 26.40625 4.234375 
C 24.296875 3.625 22.09375 3.625 19.90625 3.828125 
C 17.796875 4.03125 15.5 4.234375 14.09375 6.03125 
C 12.09375 8.453125 12.796875 14.171875 12.796875 17.6875 
L 12.796875 47 
z
" id="Computer_Modern_Bright-117"/>
      <path d="M 12.59375 37.359375 
L 12.5 37.359375 
L 12.5 47.390625 
L 6.40625 47.390625 
L 6.40625 0 
L 12.796875 0 
L 12.796875 22.046875 
C 12.796875 26.953125 12.5 31.875 14.703125 36.375 
C 16.59375 40.28125 19.90625 43.390625 25.796875 42.78125 
C 28.796875 42.78125 31.796875 41.984375 33.703125 39.453125 
C 35.5 37.140625 35.59375 34.140625 35.59375 31.3125 
L 35.59375 0 
L 42 0 
L 42 22.046875 
C 42 26.953125 41.703125 31.875 43.90625 36.375 
C 45.796875 40.28125 49.09375 43.390625 55 42.78125 
C 58 42.78125 61 41.984375 62.90625 39.453125 
C 64.703125 37.140625 64.796875 34.140625 64.796875 31.3125 
L 64.796875 0 
L 71.203125 0 
L 71.203125 26.5625 
C 71.203125 31.375 71.796875 36.78125 69.703125 41.1875 
C 67.59375 45.296875 64.203125 47.5 58.703125 47.5 
C 55.5 47.796875 52.296875 47.3125 49.40625 45.84375 
C 45.90625 43.921875 43.296875 40.75 41.703125 37.265625 
C 41 40.578125 40.203125 42.828125 38 45 
C 35.703125 47.0625 32.59375 48 29.59375 48 
C 22.296875 48.59375 17.703125 45.5625 14.59375 41 
C 13.796875 39.875 13 38.671875 12.59375 37.359375 
" id="Computer_Modern_Bright-109"/>
      <path d="M 6.40625 69.6875 
L 6.40625 0 
L 12.703125 0 
L 12.703125 69.6875 
z
" id="Computer_Modern_Bright-108"/>
      <path d="M 0.703125 47.5 
C 1.203125 45.5 4.203125 37.578125 4.40625 37.078125 
C 5.40625 34.28125 17.296875 0.609375 17.59375 0.296875 
C 17.90625 -0.203125 18.796875 0 19.296875 0 
L 22.796875 0 
C 24.09375 0 24.90625 -0.296875 25.203125 0.90625 
C 28.40625 9.328125 40.09375 42.703125 41.796875 47.5 
L 35.59375 47.5 
C 30.796875 33.984375 25.90625 20.4375 21.40625 6.609375 
L 11 36.203125 
C 9.5 39.796875 8.59375 43.890625 6.90625 47.203125 
C 5.09375 47.5 2.796875 47.5 0.703125 47.5 
" id="Computer_Modern_Bright-118"/>
      <path d="M 8 70 
L 8 0 
L 28.203125 0 
C 31.40625 0 34.59375 0 37.703125 0.296875 
C 45.703125 1.109375 52.59375 5.015625 57.203125 9.828125 
C 70.09375 23.171875 70 46.125 57.296875 59.671875 
C 52.703125 64.578125 46.5 68.5 38.703125 69.5 
C 34.90625 70 31 70 27.203125 70 
z
M 14.90625 5.3125 
L 14.90625 64.5625 
L 27.796875 64.5625 
C 30.5 64.5625 33.203125 64.5625 35.90625 64.359375 
C 40.40625 63.859375 44.796875 62.359375 48.5 59.734375 
C 56.59375 54.125 60 44.171875 60 34.640625 
C 60 26.609375 57.796875 18.375 51.90625 12.640625 
C 47.90625 8.9375 42.5 6.21875 36 5.515625 
C 33.40625 5.3125 30.703125 5.3125 28.09375 5.3125 
z
" id="Computer_Modern_Bright-68"/>
      <path d="M 0.703125 47.65625 
C 1.296875 45.75 5.40625 35.609375 5.5 35.3125 
L 17.40625 4.578125 
L 18.40625 2.078125 
C 19 0.671875 19.203125 0.46875 18.59375 -1.140625 
L 17.5 -4.046875 
C 16.59375 -6.46875 15.59375 -8.96875 13.703125 -10.484375 
C 10.296875 -13.296875 4.90625 -11.6875 0.796875 -10.78125 
L 1.296875 -16.5 
C 3.203125 -16.796875 5.09375 -17 7 -17 
C 11.296875 -17.515625 14.09375 -16.5 16.703125 -14.296875 
C 20 -11.484375 21.59375 -7.5625 23.09375 -3.546875 
L 26.203125 5.078125 
L 36.40625 32.90625 
C 38.09375 37.921875 40.203125 42.640625 41.796875 47.65625 
L 37.296875 47.65625 
C 36.796875 47.65625 36 47.859375 35.59375 47.46875 
C 35.40625 47.15625 35.296875 46.765625 35.203125 46.453125 
L 34.40625 44.34375 
C 33.40625 41.734375 32.5 39.234375 31.59375 36.609375 
L 25.796875 20.25 
C 24.296875 15.828125 22.59375 11.3125 21.796875 6.6875 
C 20.703125 11.3125 19.203125 15.734375 17.59375 20.140625 
C 16.296875 23.5625 8.5 44.546875 7.5 46.5625 
C 7.09375 47.65625 6.703125 47.65625 5.203125 47.65625 
z
" id="Computer_Modern_Bright-121"/>
      <path d="M 8 69.328125 
L 8 0 
L 15 0 
L 15 32 
L 48.09375 32 
L 48.09375 37.3125 
L 15 37.3125 
L 15 64 
L 52.40625 64 
L 52.40625 69.328125 
z
" id="Computer_Modern_Bright-70"/>
     </defs>
     <g style="fill:#262626;" transform="translate(19.65327 260.669538)rotate(-90)scale(0.18 -0.18)">
      <use transform="scale(0.996264)" xlink:href="#Computer_Modern_Bright-67"/>
      <use transform="translate(65.172032 0)scale(0.996264)" xlink:href="#Computer_Modern_Bright-117"/>
      <use transform="translate(113.324529 0)scale(0.996264)" xlink:href="#Computer_Modern_Bright-109"/>
      <use transform="translate(190.534656 0)scale(0.996264)" xlink:href="#Computer_Modern_Bright-117"/>
      <use transform="translate(238.687153 0)scale(0.996264)" xlink:href="#Computer_Modern_Bright-108"/>
      <use transform="translate(257.782112 0)scale(0.996264)" xlink:href="#Computer_Modern_Bright-97"/>
      <use transform="translate(304.274194 0)scale(0.996264)" xlink:href="#Computer_Modern_Bright-116"/>
      <use transform="translate(340.388582 0)scale(0.996264)" xlink:href="#Computer_Modern_Bright-105"/>
      <use transform="translate(359.483541 0)scale(0.996264)" xlink:href="#Computer_Modern_Bright-118"/>
      <use transform="translate(401.824579 0)scale(0.996264)" xlink:href="#Computer_Modern_Bright-101"/>
      <use transform="translate(478.121458 0)scale(0.996264)" xlink:href="#Computer_Modern_Bright-68"/>
      <use transform="translate(549.727645 0)scale(0.996264)" xlink:href="#Computer_Modern_Bright-101"/>
      <use transform="translate(594.559312 0)scale(0.996264)" xlink:href="#Computer_Modern_Bright-110"/>
      <use transform="translate(642.711809 0)scale(0.996264)" xlink:href="#Computer_Modern_Bright-115"/>
      <use transform="translate(681.150839 0)scale(0.996264)" xlink:href="#Computer_Modern_Bright-105"/>
      <use transform="translate(700.245798 0)scale(0.996264)" xlink:href="#Computer_Modern_Bright-116"/>
      <use transform="translate(733.454456 0)scale(0.996264)" xlink:href="#Computer_Modern_Bright-121"/>
      <use transform="translate(807.260706 0)scale(0.996264)" xlink:href="#Computer_Modern_Bright-70"/>
      <use transform="translate(860.187034 0)scale(0.996264)" xlink:href="#Computer_Modern_Bright-117"/>
      <use transform="translate(908.339531 0)scale(0.996264)" xlink:href="#Computer_Modern_Bright-110"/>
      <use transform="translate(956.492028 0)scale(0.996264)" xlink:href="#Computer_Modern_Bright-99"/>
      <use transform="translate(1001.323695 0)scale(0.996264)" xlink:href="#Computer_Modern_Bright-116"/>
      <use transform="translate(1037.438083 0)scale(0.996264)" xlink:href="#Computer_Modern_Bright-105"/>
      <use transform="translate(1056.533042 0)scale(0.996264)" xlink:href="#Computer_Modern_Bright-111"/>
      <use transform="translate(1107.17626 0)scale(0.996264)" xlink:href="#Computer_Modern_Bright-110"/>
     </g>
    </g>
   </g>
   <g id="PolyCollection_1">
    <path clip-path="url(#paa91d3b960)" d="M 70.670072 292.589371 
L 70.670072 292.59 
L 72.460364 292.59 
L 74.250656 292.59 
L 76.040948 292.59 
L 77.83124 292.59 
L 79.621531 292.59 
L 81.411823 292.59 
L 83.202115 292.59 
L 84.992407 292.59 
L 86.782698 292.59 
L 88.57299 292.59 
L 90.363282 292.59 
L 92.153574 292.59 
L 93.943866 292.59 
L 95.734157 292.59 
L 97.524449 292.59 
L 99.314741 292.59 
L 101.105033 292.59 
L 102.895324 292.59 
L 104.685616 292.59 
L 106.475908 292.59 
L 108.2662 292.59 
L 110.056492 292.59 
L 111.846783 292.59 
L 113.637075 292.59 
L 115.427367 292.59 
L 117.217659 292.59 
L 119.007951 292.59 
L 120.798242 292.59 
L 122.588534 292.59 
L 124.378826 292.59 
L 126.169118 292.59 
L 127.959409 292.59 
L 129.749701 292.59 
L 131.539993 292.59 
L 133.330285 292.59 
L 135.120577 292.59 
L 136.910868 292.59 
L 138.70116 292.59 
L 140.491452 292.59 
L 142.281744 292.59 
L 144.072035 292.59 
L 145.862327 292.59 
L 147.652619 292.59 
L 149.442911 292.59 
L 151.233203 292.59 
L 153.023494 292.59 
L 154.813786 292.59 
L 156.604078 292.59 
L 158.39437 292.59 
L 160.184661 292.59 
L 161.974953 292.59 
L 163.765245 292.59 
L 165.555537 292.59 
L 167.345829 292.59 
L 169.13612 292.59 
L 170.926412 292.59 
L 172.716704 292.59 
L 174.506996 292.59 
L 176.297288 292.59 
L 178.087579 292.59 
L 179.877871 292.59 
L 181.668163 292.59 
L 183.458455 292.59 
L 185.248746 292.59 
L 187.039038 292.59 
L 188.82933 292.59 
L 190.619622 292.59 
L 192.409914 292.59 
L 194.200205 292.59 
L 195.990497 292.59 
L 197.780789 292.59 
L 199.571081 292.59 
L 201.361372 292.59 
L 203.151664 292.59 
L 204.941956 292.59 
L 206.732248 292.59 
L 208.52254 292.59 
L 210.312831 292.59 
L 212.103123 292.59 
L 213.893415 292.59 
L 215.683707 292.59 
L 217.473999 292.59 
L 219.26429 292.59 
L 221.054582 292.59 
L 222.844874 292.59 
L 224.635166 292.59 
L 226.425457 292.59 
L 228.215749 292.59 
L 230.006041 292.59 
L 231.796333 292.59 
L 233.586625 292.59 
L 235.376916 292.59 
L 237.167208 292.59 
L 238.9575 292.59 
L 240.747792 292.59 
L 242.538083 292.59 
L 244.328375 292.59 
L 246.118667 292.59 
L 247.908959 292.59 
L 249.699251 292.59 
L 251.489542 292.59 
L 253.279834 292.59 
L 255.070126 292.59 
L 256.860418 292.59 
L 258.650709 292.59 
L 260.441001 292.59 
L 262.231293 292.59 
L 264.021585 292.59 
L 265.811877 292.59 
L 267.602168 292.59 
L 269.39246 292.59 
L 271.182752 292.59 
L 272.973044 292.59 
L 274.763336 292.59 
L 276.553627 292.59 
L 278.343919 292.59 
L 280.134211 292.59 
L 281.924503 292.59 
L 283.714794 292.59 
L 285.505086 292.59 
L 287.295378 292.59 
L 289.08567 292.59 
L 290.875962 292.59 
L 292.666253 292.59 
L 294.456545 292.59 
L 296.246837 292.59 
L 298.037129 292.59 
L 298.037129 292.589264 
L 298.037129 292.589264 
L 296.246837 292.588744 
L 294.456545 292.587636 
L 292.666253 292.585623 
L 290.875962 292.582241 
L 289.08567 292.576887 
L 287.295378 292.568854 
L 285.505086 292.557386 
L 283.714794 292.541732 
L 281.924503 292.521163 
L 280.134211 292.494909 
L 278.343919 292.462 
L 276.553627 292.421017 
L 274.763336 292.369808 
L 272.973044 292.305274 
L 271.182752 292.223312 
L 269.39246 292.118971 
L 267.602168 291.986821 
L 265.811877 291.821433 
L 264.021585 291.61783 
L 262.231293 291.37173 
L 260.441001 291.079458 
L 258.650709 290.737536 
L 256.860418 290.3421 
L 255.070126 289.888476 
L 253.279834 289.371293 
L 251.489542 288.785375 
L 249.699251 288.127418 
L 247.908959 287.39803 
L 246.118667 286.603504 
L 244.328375 285.756595 
L 242.538083 284.87592 
L 240.747792 283.984 
L 238.9575 283.104521 
L 237.167208 282.259586 
L 235.376916 281.46772 
L 233.586625 280.743023 
L 231.796333 280.095453 
L 230.006041 279.53191 
L 228.215749 279.057616 
L 226.425457 278.677369 
L 224.635166 278.396386 
L 222.844874 278.220632 
L 221.054582 278.156661 
L 219.26429 278.211017 
L 217.473999 278.389237 
L 215.683707 278.694432 
L 213.893415 279.125502 
L 212.103123 279.675158 
L 210.312831 280.328204 
L 208.52254 281.060629 
L 206.732248 281.840039 
L 204.941956 282.627613 
L 203.151664 283.381268 
L 201.361372 284.059346 
L 199.571081 284.623946 
L 197.780789 285.043221 
L 195.990497 285.292411 
L 194.200205 285.353835 
L 192.409914 285.216425 
L 190.619622 284.875442 
L 188.82933 284.332773 
L 187.039038 283.597776 
L 185.248746 282.688224 
L 183.458455 281.630652 
L 181.668163 280.459572 
L 179.877871 279.215489 
L 178.087579 277.942229 
L 176.297288 276.684388 
L 174.506996 275.485574 
L 172.716704 274.387429 
L 170.926412 273.428755 
L 169.13612 272.643755 
L 167.345829 272.058836 
L 165.555537 271.688366 
L 163.765245 271.53075 
L 161.974953 271.56651 
L 160.184661 271.759654 
L 158.39437 272.0625 
L 156.604078 272.423026 
L 154.813786 272.793074 
L 153.023494 273.135631 
L 151.233203 273.4298 
L 149.442911 273.67264 
L 147.652619 273.877751 
L 145.862327 274.071017 
L 144.072035 274.284486 
L 142.281744 274.549729 
L 140.491452 274.892113 
L 138.70116 275.327121 
L 136.910868 275.859226 
L 135.120577 276.483118 
L 133.330285 277.18648 
L 131.539993 277.953361 
L 129.749701 278.767278 
L 127.959409 279.613529 
L 126.169118 280.480491 
L 124.378826 281.359909 
L 122.588534 282.246312 
L 120.798242 283.135813 
L 119.007951 284.024641 
L 117.217659 284.907803 
L 115.427367 285.778241 
L 113.637075 286.626678 
L 111.846783 287.442156 
L 110.056492 288.213069 
L 108.2662 288.92841 
L 106.475908 289.578942 
L 104.685616 290.1581 
L 102.895324 290.662483 
L 101.105033 291.091935 
L 99.314741 291.449261 
L 97.524449 291.739677 
L 95.734157 291.970112 
L 93.943866 292.148501 
L 92.153574 292.283122 
L 90.363282 292.38206 
L 88.57299 292.452799 
L 86.782698 292.501952 
L 84.992407 292.535107 
L 83.202115 292.556796 
L 81.411823 292.57054 
L 79.621531 292.578965 
L 77.83124 292.583953 
L 76.040948 292.586795 
L 74.250656 292.588336 
L 72.460364 292.589099 
L 70.670072 292.589371 
z
" style="fill:#33a02c;fill-opacity:0.25;"/>
   </g>
   <g id="PolyCollection_2">
    <path clip-path="url(#paa91d3b960)" d="M 107.628081 292.589309 
L 107.628081 292.59 
L 109.249847 292.59 
L 110.871614 292.59 
L 112.49338 292.59 
L 114.115146 292.59 
L 115.736912 292.59 
L 117.358679 292.59 
L 118.980445 292.59 
L 120.602211 292.59 
L 122.223977 292.59 
L 123.845743 292.59 
L 125.46751 292.59 
L 127.089276 292.59 
L 128.711042 292.59 
L 130.332808 292.59 
L 131.954575 292.59 
L 133.576341 292.59 
L 135.198107 292.59 
L 136.819873 292.59 
L 138.44164 292.59 
L 140.063406 292.59 
L 141.685172 292.59 
L 143.306938 292.59 
L 144.928705 292.59 
L 146.550471 292.59 
L 148.172237 292.59 
L 149.794003 292.59 
L 151.415769 292.59 
L 153.037536 292.59 
L 154.659302 292.59 
L 156.281068 292.59 
L 157.902834 292.59 
L 159.524601 292.59 
L 161.146367 292.59 
L 162.768133 292.59 
L 164.389899 292.59 
L 166.011666 292.59 
L 167.633432 292.59 
L 169.255198 292.59 
L 170.876964 292.59 
L 172.498731 292.59 
L 174.120497 292.59 
L 175.742263 292.59 
L 177.364029 292.59 
L 178.985796 292.59 
L 180.607562 292.59 
L 182.229328 292.59 
L 183.851094 292.59 
L 185.47286 292.59 
L 187.094627 292.59 
L 188.716393 292.59 
L 190.338159 292.59 
L 191.959925 292.59 
L 193.581692 292.59 
L 195.203458 292.59 
L 196.825224 292.59 
L 198.44699 292.59 
L 200.068757 292.59 
L 201.690523 292.59 
L 203.312289 292.59 
L 204.934055 292.59 
L 206.555822 292.59 
L 208.177588 292.59 
L 209.799354 292.59 
L 211.42112 292.59 
L 213.042886 292.59 
L 214.664653 292.59 
L 216.286419 292.59 
L 217.908185 292.59 
L 219.529951 292.59 
L 221.151718 292.59 
L 222.773484 292.59 
L 224.39525 292.59 
L 226.017016 292.59 
L 227.638783 292.59 
L 229.260549 292.59 
L 230.882315 292.59 
L 232.504081 292.59 
L 234.125848 292.59 
L 235.747614 292.59 
L 237.36938 292.59 
L 238.991146 292.59 
L 240.612913 292.59 
L 242.234679 292.59 
L 243.856445 292.59 
L 245.478211 292.59 
L 247.099977 292.59 
L 248.721744 292.59 
L 250.34351 292.59 
L 251.965276 292.59 
L 253.587042 292.59 
L 255.208809 292.59 
L 256.830575 292.59 
L 258.452341 292.59 
L 260.074107 292.59 
L 261.695874 292.59 
L 263.31764 292.59 
L 264.939406 292.59 
L 266.561172 292.59 
L 268.182939 292.59 
L 269.804705 292.59 
L 271.426471 292.59 
L 273.048237 292.59 
L 274.670003 292.59 
L 276.29177 292.59 
L 277.913536 292.59 
L 279.535302 292.59 
L 281.157068 292.59 
L 282.778835 292.59 
L 284.400601 292.59 
L 286.022367 292.59 
L 287.644133 292.59 
L 289.2659 292.59 
L 290.887666 292.59 
L 292.509432 292.59 
L 294.131198 292.59 
L 295.752965 292.59 
L 297.374731 292.59 
L 298.996497 292.59 
L 300.618263 292.59 
L 302.24003 292.59 
L 303.861796 292.59 
L 305.483562 292.59 
L 307.105328 292.59 
L 308.727094 292.59 
L 310.348861 292.59 
L 311.970627 292.59 
L 313.592393 292.59 
L 313.592393 292.589425 
L 313.592393 292.589425 
L 311.970627 292.589211 
L 310.348861 292.588609 
L 308.727094 292.587446 
L 307.105328 292.585405 
L 305.483562 292.58199 
L 303.861796 292.576448 
L 302.24003 292.567645 
L 300.618263 292.553871 
L 298.996497 292.532573 
L 297.374731 292.500002 
L 295.752965 292.450827 
L 294.131198 292.377774 
L 292.509432 292.271378 
L 290.887666 292.119916 
L 289.2659 291.909576 
L 287.644133 291.624837 
L 286.022367 291.249022 
L 284.400601 290.764946 
L 282.778835 290.155668 
L 281.157068 289.405411 
L 279.535302 288.500825 
L 277.913536 287.432782 
L 276.29177 286.198788 
L 274.670003 284.805818 
L 273.048237 283.273058 
L 271.426471 281.633748 
L 269.804705 279.935295 
L 268.182939 278.237125 
L 266.561172 276.606312 
L 264.939406 275.111667 
L 263.31764 273.817433 
L 261.695874 272.777822 
L 260.074107 272.033304 
L 258.452341 271.608962 
L 256.830575 271.514605 
L 255.208809 271.745938 
L 253.587042 272.28602 
L 251.965276 273.106556 
L 250.34351 274.168978 
L 248.721744 275.425642 
L 247.099977 276.821512 
L 245.478211 278.296552 
L 243.856445 279.788671 
L 242.234679 281.236824 
L 240.612913 282.583736 
L 238.991146 283.777863 
L 237.36938 284.774441 
L 235.747614 285.535763 
L 234.125848 286.031063 
L 232.504081 286.236476 
L 230.882315 286.135448 
L 229.260549 285.719773 
L 227.638783 284.991113 
L 226.017016 283.962632 
L 224.39525 282.660309 
L 222.773484 281.123585 
L 221.151718 279.405207 
L 219.529951 277.570256 
L 217.908185 275.694329 
L 216.286419 273.860699 
L 214.664653 272.156154 
L 213.042886 270.665271 
L 211.42112 269.463239 
L 209.799354 268.607962 
L 208.177588 268.132796 
L 206.555822 268.041597 
L 204.934055 268.30757 
L 203.312289 268.876576 
L 201.690523 269.674428 
L 200.068757 270.616653 
L 198.44699 271.618697 
L 196.825224 272.604718 
L 195.203458 273.513824 
L 193.581692 274.3035 
L 191.959925 274.950612 
L 190.338159 275.450655 
L 188.716393 275.815868 
L 187.094627 276.072546 
L 185.47286 276.25767 
L 183.851094 276.414785 
L 182.229328 276.58911 
L 180.607562 276.822074 
L 178.985796 277.145885 
L 177.364029 277.579097 
L 175.742263 278.124314 
L 174.120497 278.768829 
L 172.498731 279.488283 
L 170.876964 280.252488 
L 169.255198 281.031855 
L 167.633432 281.802698 
L 166.011666 282.550171 
L 164.389899 283.268406 
L 162.768133 283.958397 
L 161.146367 284.624679 
L 159.524601 285.272064 
L 157.902834 285.903325 
L 156.281068 286.518257 
L 154.659302 287.113966 
L 153.037536 287.685941 
L 151.415769 288.229352 
L 149.794003 288.740121 
L 148.172237 289.215538 
L 146.550471 289.654395 
L 144.928705 290.056736 
L 143.306938 290.423402 
L 141.685172 290.755519 
L 140.063406 291.054118 
L 138.44164 291.31997 
L 136.819873 291.553694 
L 135.198107 291.756052 
L 133.576341 291.928288 
L 131.954575 292.072341 
L 130.332808 292.190841 
L 128.711042 292.28688 
L 127.089276 292.363685 
L 125.46751 292.424312 
L 123.845743 292.471466 
L 122.223977 292.507464 
L 120.602211 292.534293 
L 118.980445 292.553696 
L 117.358679 292.567236 
L 115.736912 292.576306 
L 114.115146 292.582115 
L 112.49338 292.585657 
L 110.871614 292.587702 
L 109.249847 292.5888 
L 107.628081 292.589309 
z
" style="fill-opacity:0.25;"/>
   </g>
   <g id="PolyCollection_3">
    <path clip-path="url(#paa91d3b960)" d="M 434.426187 292.586826 
L 434.426187 292.59 
L 434.757385 292.59 
L 435.088582 292.59 
L 435.419779 292.59 
L 435.750977 292.59 
L 436.082174 292.59 
L 436.413372 292.59 
L 436.744569 292.59 
L 437.075766 292.59 
L 437.406964 292.59 
L 437.738161 292.59 
L 438.069358 292.59 
L 438.400556 292.59 
L 438.731753 292.59 
L 439.062951 292.59 
L 439.394148 292.59 
L 439.725345 292.59 
L 440.056543 292.59 
L 440.38774 292.59 
L 440.718937 292.59 
L 441.050135 292.59 
L 441.381332 292.59 
L 441.71253 292.59 
L 442.043727 292.59 
L 442.374924 292.59 
L 442.706122 292.59 
L 443.037319 292.59 
L 443.368517 292.59 
L 443.699714 292.59 
L 444.030911 292.59 
L 444.362109 292.59 
L 444.693306 292.59 
L 445.024503 292.59 
L 445.355701 292.59 
L 445.686898 292.59 
L 446.018096 292.59 
L 446.349293 292.59 
L 446.68049 292.59 
L 447.011688 292.59 
L 447.342885 292.59 
L 447.674082 292.59 
L 448.00528 292.59 
L 448.336477 292.59 
L 448.667675 292.59 
L 448.998872 292.59 
L 449.330069 292.59 
L 449.661267 292.59 
L 449.992464 292.59 
L 450.323661 292.59 
L 450.654859 292.59 
L 450.986056 292.59 
L 451.317254 292.59 
L 451.648451 292.59 
L 451.979648 292.59 
L 452.310846 292.59 
L 452.642043 292.59 
L 452.97324 292.59 
L 453.304438 292.59 
L 453.635635 292.59 
L 453.966833 292.59 
L 454.29803 292.59 
L 454.629227 292.59 
L 454.960425 292.59 
L 455.291622 292.59 
L 455.622819 292.59 
L 455.954017 292.59 
L 456.285214 292.59 
L 456.616412 292.59 
L 456.947609 292.59 
L 457.278806 292.59 
L 457.610004 292.59 
L 457.941201 292.59 
L 458.272398 292.59 
L 458.603596 292.59 
L 458.934793 292.59 
L 459.265991 292.59 
L 459.597188 292.59 
L 459.928385 292.59 
L 460.259583 292.59 
L 460.59078 292.59 
L 460.921978 292.59 
L 461.253175 292.59 
L 461.584372 292.59 
L 461.91557 292.59 
L 462.246767 292.59 
L 462.577964 292.59 
L 462.909162 292.59 
L 463.240359 292.59 
L 463.571557 292.59 
L 463.902754 292.59 
L 464.233951 292.59 
L 464.565149 292.59 
L 464.896346 292.59 
L 465.227543 292.59 
L 465.558741 292.59 
L 465.889938 292.59 
L 466.221136 292.59 
L 466.552333 292.59 
L 466.88353 292.59 
L 467.214728 292.59 
L 467.545925 292.59 
L 467.877122 292.59 
L 468.20832 292.59 
L 468.539517 292.59 
L 468.870715 292.59 
L 469.201912 292.59 
L 469.533109 292.59 
L 469.864307 292.59 
L 470.195504 292.59 
L 470.526701 292.59 
L 470.857899 292.59 
L 471.189096 292.59 
L 471.520294 292.59 
L 471.851491 292.59 
L 472.182688 292.59 
L 472.513886 292.59 
L 472.845083 292.59 
L 473.17628 292.59 
L 473.507478 292.59 
L 473.838675 292.59 
L 474.169873 292.59 
L 474.50107 292.59 
L 474.832267 292.59 
L 475.163465 292.59 
L 475.494662 292.59 
L 475.825859 292.59 
L 476.157057 292.59 
L 476.488254 292.59 
L 476.488254 292.587221 
L 476.488254 292.587221 
L 476.157057 292.584627 
L 475.825859 292.577948 
L 475.494662 292.564923 
L 475.163465 292.542974 
L 474.832267 292.51049 
L 474.50107 292.46813 
L 474.169873 292.41925 
L 473.838675 292.368798 
L 473.507478 292.321062 
L 473.17628 292.277699 
L 472.845083 292.237412 
L 472.513886 292.197414 
L 472.182688 292.155331 
L 471.851491 292.10948 
L 471.520294 292.056401 
L 471.189096 291.986601 
L 470.857899 291.881608 
L 470.526701 291.715473 
L 470.195504 291.461461 
L 469.864307 291.101377 
L 469.533109 290.633279 
L 469.201912 290.0739 
L 468.870715 289.454225 
L 468.539517 288.809429 
L 468.20832 288.1671 
L 467.877122 287.538904 
L 467.545925 286.919026 
L 467.214728 286.288435 
L 466.88353 285.620542 
L 466.552333 284.884254 
L 466.221136 284.04436 
L 465.889938 283.062184 
L 465.558741 281.897787 
L 465.227543 280.510602 
L 464.896346 278.854746 
L 464.565149 276.871978 
L 464.233951 274.493436 
L 463.902754 271.65936 
L 463.571557 268.350268 
L 463.240359 264.606609 
L 462.909162 260.516277 
L 462.577964 256.174022 
L 462.246767 251.642695 
L 461.91557 246.946306 
L 461.584372 242.095381 
L 461.253175 237.113562 
L 460.921978 232.032849 
L 460.59078 226.856975 
L 460.259583 221.528043 
L 459.928385 215.936936 
L 459.597188 209.986955 
L 459.265991 203.678376 
L 458.934793 197.16228 
L 458.603596 190.727454 
L 458.272398 184.719293 
L 457.941201 179.42144 
L 457.610004 174.947703 
L 457.278806 171.191487 
L 456.947609 167.858799 
L 456.616412 164.57212 
L 456.285214 160.999328 
L 455.954017 156.960656 
L 455.622819 152.491887 
L 455.291622 147.859663 
L 454.960425 143.518055 
L 454.629227 139.992073 
L 454.29803 137.708063 
L 453.966833 136.848186 
L 453.635635 137.322667 
L 453.304438 138.886116 
L 452.97324 141.313129 
L 452.642043 144.495217 
L 452.310846 148.389418 
L 451.979648 152.886838 
L 451.648451 157.747911 
L 451.317254 162.691 
L 450.986056 167.574749 
L 450.654859 172.517518 
L 450.323661 177.837054 
L 449.992464 183.834719 
L 449.661267 190.571329 
L 449.330069 197.788552 
L 448.998872 205.022814 
L 448.667675 211.828066 
L 448.336477 217.965948 
L 448.00528 223.463259 
L 447.674082 228.529954 
L 447.342885 233.408851 
L 447.011688 238.251014 
L 446.68049 243.076542 
L 446.349293 247.81695 
L 446.018096 252.385734 
L 445.686898 256.720583 
L 445.355701 260.78001 
L 445.024503 264.520833 
L 444.693306 267.893274 
L 444.362109 270.863542 
L 444.030911 273.440149 
L 443.699714 275.673945 
L 443.368517 277.627545 
L 443.037319 279.340457 
L 442.706122 280.821158 
L 442.374924 282.072489 
L 442.043727 283.125779 
L 441.71253 284.050601 
L 441.381332 284.928468 
L 441.050135 285.810816 
L 440.718937 286.695392 
L 440.38774 287.538568 
L 440.056543 288.290931 
L 439.725345 288.927949 
L 439.394148 289.457545 
L 439.062951 289.90763 
L 438.731753 290.308457 
L 438.400556 290.681209 
L 438.069358 291.034911 
L 437.738161 291.368232 
L 437.406964 291.673042 
L 437.075766 291.938551 
L 436.744569 292.155622 
L 436.413372 292.320264 
L 436.082174 292.435078 
L 435.750977 292.50819 
L 435.419779 292.550472 
L 435.088582 292.572563 
L 434.757385 292.582859 
L 434.426187 292.586826 
z
" style="fill:#ff7f00;fill-opacity:0.25;"/>
   </g>
   <g id="PolyCollection_4">
    <path clip-path="url(#paa91d3b960)" d="M 285.796958 292.585769 
L 285.796958 292.59 
L 286.047829 292.59 
L 286.298701 292.59 
L 286.549573 292.59 
L 286.800444 292.59 
L 287.051316 292.59 
L 287.302188 292.59 
L 287.553059 292.59 
L 287.803931 292.59 
L 288.054803 292.59 
L 288.305674 292.59 
L 288.556546 292.59 
L 288.807418 292.59 
L 289.058289 292.59 
L 289.309161 292.59 
L 289.560033 292.59 
L 289.810904 292.59 
L 290.061776 292.59 
L 290.312648 292.59 
L 290.563519 292.59 
L 290.814391 292.59 
L 291.065263 292.59 
L 291.316134 292.59 
L 291.567006 292.59 
L 291.817878 292.59 
L 292.06875 292.59 
L 292.319621 292.59 
L 292.570493 292.59 
L 292.821365 292.59 
L 293.072236 292.59 
L 293.323108 292.59 
L 293.57398 292.59 
L 293.824851 292.59 
L 294.075723 292.59 
L 294.326595 292.59 
L 294.577466 292.59 
L 294.828338 292.59 
L 295.07921 292.59 
L 295.330081 292.59 
L 295.580953 292.59 
L 295.831825 292.59 
L 296.082696 292.59 
L 296.333568 292.59 
L 296.58444 292.59 
L 296.835311 292.59 
L 297.086183 292.59 
L 297.337055 292.59 
L 297.587926 292.59 
L 297.838798 292.59 
L 298.08967 292.59 
L 298.340542 292.59 
L 298.591413 292.59 
L 298.842285 292.59 
L 299.093157 292.59 
L 299.344028 292.59 
L 299.5949 292.59 
L 299.845772 292.59 
L 300.096643 292.59 
L 300.347515 292.59 
L 300.598387 292.59 
L 300.849258 292.59 
L 301.10013 292.59 
L 301.351002 292.59 
L 301.601873 292.59 
L 301.852745 292.59 
L 302.103617 292.59 
L 302.354488 292.59 
L 302.60536 292.59 
L 302.856232 292.59 
L 303.107103 292.59 
L 303.357975 292.59 
L 303.608847 292.59 
L 303.859718 292.59 
L 304.11059 292.59 
L 304.361462 292.59 
L 304.612334 292.59 
L 304.863205 292.59 
L 305.114077 292.59 
L 305.364949 292.59 
L 305.61582 292.59 
L 305.866692 292.59 
L 306.117564 292.59 
L 306.368435 292.59 
L 306.619307 292.59 
L 306.870179 292.59 
L 307.12105 292.59 
L 307.371922 292.59 
L 307.622794 292.59 
L 307.873665 292.59 
L 308.124537 292.59 
L 308.375409 292.59 
L 308.62628 292.59 
L 308.877152 292.59 
L 309.128024 292.59 
L 309.378895 292.59 
L 309.629767 292.59 
L 309.880639 292.59 
L 310.13151 292.59 
L 310.382382 292.59 
L 310.633254 292.59 
L 310.884126 292.59 
L 311.134997 292.59 
L 311.385869 292.59 
L 311.636741 292.59 
L 311.887612 292.59 
L 312.138484 292.59 
L 312.389356 292.59 
L 312.640227 292.59 
L 312.891099 292.59 
L 313.141971 292.59 
L 313.392842 292.59 
L 313.643714 292.59 
L 313.894586 292.59 
L 314.145457 292.59 
L 314.396329 292.59 
L 314.647201 292.59 
L 314.898072 292.59 
L 315.148944 292.59 
L 315.399816 292.59 
L 315.650687 292.59 
L 315.901559 292.59 
L 316.152431 292.59 
L 316.403302 292.59 
L 316.654174 292.59 
L 316.905046 292.59 
L 317.155918 292.59 
L 317.406789 292.59 
L 317.657661 292.59 
L 317.657661 292.585769 
L 317.657661 292.585769 
L 317.406789 292.577291 
L 317.155918 292.553482 
L 316.905046 292.505206 
L 316.654174 292.432294 
L 316.403302 292.355021 
L 316.152431 292.309169 
L 315.901559 292.319829 
L 315.650687 292.377572 
L 315.399816 292.443312 
L 315.148944 292.475252 
L 314.898072 292.451489 
L 314.647201 292.376749 
L 314.396329 292.274825 
L 314.145457 292.16735 
L 313.894586 292.054318 
L 313.643714 291.926357 
L 313.392842 291.801886 
L 313.141971 291.733306 
L 312.891099 291.759584 
L 312.640227 291.863502 
L 312.389356 291.990975 
L 312.138484 292.10463 
L 311.887612 292.202425 
L 311.636741 292.286506 
L 311.385869 292.33071 
L 311.134997 292.28672 
L 310.884126 292.119153 
L 310.633254 291.834341 
L 310.382382 291.474826 
L 310.13151 291.077785 
L 309.880639 290.63142 
L 309.629767 290.070375 
L 309.378895 289.316855 
L 309.128024 288.34637 
L 308.877152 287.232816 
L 308.62628 286.096082 
L 308.375409 284.951812 
L 308.124537 283.637246 
L 307.873665 281.96041 
L 307.622794 279.931912 
L 307.371922 277.805354 
L 307.12105 275.873085 
L 306.870179 274.207681 
L 306.619307 272.542576 
L 306.368435 270.352972 
L 306.117564 267.086864 
L 305.866692 262.418133 
L 305.61582 256.34447 
L 305.364949 249.031004 
L 305.114077 240.53286 
L 304.863205 230.677157 
L 304.612334 219.249048 
L 304.361462 206.377182 
L 304.11059 192.825511 
L 303.859718 179.778493 
L 303.608847 167.979509 
L 303.357975 156.910814 
L 303.107103 145.082214 
L 302.856232 131.42121 
L 302.60536 116.28741 
L 302.354488 100.910924 
L 302.103617 86.066972 
L 301.852745 71.815669 
L 301.601873 58.50413 
L 301.351002 47.269507 
L 301.10013 39.051348 
L 300.849258 33.452688 
L 300.598387 29.077245 
L 300.347515 24.99777 
L 300.096643 21.734671 
L 299.845772 20.79 
L 299.5949 23.204325 
L 299.344028 28.537192 
L 299.093157 35.375249 
L 298.842285 42.947685 
L 298.591413 52.10958 
L 298.340542 64.522111 
L 298.08967 80.921012 
L 297.838798 100.382516 
L 297.587926 121.085205 
L 297.337055 141.334425 
L 297.086183 159.932992 
L 296.835311 176.194758 
L 296.58444 189.931966 
L 296.333568 201.272268 
L 296.082696 210.432107 
L 295.831825 217.783227 
L 295.580953 224.013918 
L 295.330081 229.956787 
L 295.07921 236.191105 
L 294.828338 242.835852 
L 294.577466 249.643881 
L 294.326595 256.212177 
L 294.075723 262.150111 
L 293.824851 267.187723 
L 293.57398 271.244785 
L 293.323108 274.425609 
L 293.072236 276.916728 
L 292.821365 278.876925 
L 292.570493 280.439663 
L 292.319621 281.792737 
L 292.06875 283.160067 
L 291.817878 284.643855 
L 291.567006 286.128969 
L 291.316134 287.399194 
L 291.065263 288.330156 
L 290.814391 288.952548 
L 290.563519 289.37884 
L 290.312648 289.713759 
L 290.061776 290.01 
L 289.810904 290.269831 
L 289.560033 290.490817 
L 289.309161 290.714765 
L 289.058289 291.008465 
L 288.807418 291.387672 
L 288.556546 291.78326 
L 288.305674 292.093652 
L 288.054803 292.261824 
L 287.803931 292.306403 
L 287.553059 292.296984 
L 287.302188 292.303199 
L 287.051316 292.353756 
L 286.800444 292.432078 
L 286.549573 292.505176 
L 286.298701 292.553479 
L 286.047829 292.577291 
L 285.796958 292.585769 
z
" style="fill:#1f78b4;fill-opacity:0.25;"/>
   </g>
   <g id="PolyCollection_5">
    <path clip-path="url(#paa91d3b960)" d="M 81.9462 292.588379 
L 81.9462 292.59 
L 82.825157 292.59 
L 83.704114 292.59 
L 84.583072 292.59 
L 85.462029 292.59 
L 86.340986 292.59 
L 87.219944 292.59 
L 88.098901 292.59 
L 88.977858 292.59 
L 89.856816 292.59 
L 90.735773 292.59 
L 91.61473 292.59 
L 92.493687 292.59 
L 93.372645 292.59 
L 94.251602 292.59 
L 95.130559 292.59 
L 96.009517 292.59 
L 96.888474 292.59 
L 97.767431 292.59 
L 98.646389 292.59 
L 99.525346 292.59 
L 100.404303 292.59 
L 101.283261 292.59 
L 102.162218 292.59 
L 103.041175 292.59 
L 103.920133 292.59 
L 104.79909 292.59 
L 105.678047 292.59 
L 106.557005 292.59 
L 107.435962 292.59 
L 108.314919 292.59 
L 109.193877 292.59 
L 110.072834 292.59 
L 110.951791 292.59 
L 111.830749 292.59 
L 112.709706 292.59 
L 113.588663 292.59 
L 114.467621 292.59 
L 115.346578 292.59 
L 116.225535 292.59 
L 117.104493 292.59 
L 117.98345 292.59 
L 118.862407 292.59 
L 119.741365 292.59 
L 120.620322 292.59 
L 121.499279 292.59 
L 122.378236 292.59 
L 123.257194 292.59 
L 124.136151 292.59 
L 125.015108 292.59 
L 125.894066 292.59 
L 126.773023 292.59 
L 127.65198 292.59 
L 128.530938 292.59 
L 129.409895 292.59 
L 130.288852 292.59 
L 131.16781 292.59 
L 132.046767 292.59 
L 132.925724 292.59 
L 133.804682 292.59 
L 134.683639 292.59 
L 135.562596 292.59 
L 136.441554 292.59 
L 137.320511 292.59 
L 138.199468 292.59 
L 139.078426 292.59 
L 139.957383 292.59 
L 140.83634 292.59 
L 141.715298 292.59 
L 142.594255 292.59 
L 143.473212 292.59 
L 144.35217 292.59 
L 145.231127 292.59 
L 146.110084 292.59 
L 146.989042 292.59 
L 147.867999 292.59 
L 148.746956 292.59 
L 149.625914 292.59 
L 150.504871 292.59 
L 151.383828 292.59 
L 152.262786 292.59 
L 153.141743 292.59 
L 154.0207 292.59 
L 154.899657 292.59 
L 155.778615 292.59 
L 156.657572 292.59 
L 157.536529 292.59 
L 158.415487 292.59 
L 159.294444 292.59 
L 160.173401 292.59 
L 161.052359 292.59 
L 161.931316 292.59 
L 162.810273 292.59 
L 163.689231 292.59 
L 164.568188 292.59 
L 165.447145 292.59 
L 166.326103 292.59 
L 167.20506 292.59 
L 168.084017 292.59 
L 168.962975 292.59 
L 169.841932 292.59 
L 170.720889 292.59 
L 171.599847 292.59 
L 172.478804 292.59 
L 173.357761 292.59 
L 174.236719 292.59 
L 175.115676 292.59 
L 175.994633 292.59 
L 176.873591 292.59 
L 177.752548 292.59 
L 178.631505 292.59 
L 179.510463 292.59 
L 180.38942 292.59 
L 181.268377 292.59 
L 182.147335 292.59 
L 183.026292 292.59 
L 183.905249 292.59 
L 184.784206 292.59 
L 185.663164 292.59 
L 186.542121 292.59 
L 187.421078 292.59 
L 188.300036 292.59 
L 189.178993 292.59 
L 190.05795 292.59 
L 190.936908 292.59 
L 191.815865 292.59 
L 192.694822 292.59 
L 193.57378 292.59 
L 193.57378 292.587347 
L 193.57378 292.587347 
L 192.694822 292.581835 
L 191.815865 292.56689 
L 190.936908 292.534352 
L 190.05795 292.475929 
L 189.178993 292.389075 
L 188.300036 292.281134 
L 187.421078 292.165438 
L 186.542121 292.049642 
L 185.663164 291.926403 
L 184.784206 291.777036 
L 183.905249 291.587053 
L 183.026292 291.360385 
L 182.147335 291.119192 
L 181.268377 290.888957 
L 180.38942 290.681771 
L 179.510463 290.490576 
L 178.631505 290.294519 
L 177.752548 290.066309 
L 176.873591 289.776011 
L 175.994633 289.394032 
L 175.115676 288.897368 
L 174.236719 288.277717 
L 173.357761 287.5475 
L 172.478804 286.74269 
L 171.599847 285.918682 
L 170.720889 285.127393 
L 169.841932 284.375256 
L 168.962975 283.596006 
L 168.084017 282.678929 
L 167.20506 281.54118 
L 166.326103 280.178979 
L 165.447145 278.650548 
L 164.568188 277.012614 
L 163.689231 275.268566 
L 162.810273 273.360844 
L 161.931316 271.198023 
L 161.052359 268.689255 
L 160.173401 265.76771 
L 159.294444 262.411331 
L 158.415487 258.68374 
L 157.536529 254.776217 
L 156.657572 250.971592 
L 155.778615 247.495213 
L 154.899657 244.364487 
L 154.0207 241.397315 
L 153.141743 238.382088 
L 152.262786 235.239863 
L 151.383828 232.050533 
L 150.504871 228.986471 
L 149.625914 226.253289 
L 148.746956 224.049782 
L 147.867999 222.509014 
L 146.989042 221.643516 
L 146.110084 221.37136 
L 145.231127 221.637818 
L 144.35217 222.522819 
L 143.473212 224.198127 
L 142.594255 226.741396 
L 141.715298 229.982714 
L 140.83634 233.546938 
L 139.957383 237.065262 
L 139.078426 240.370627 
L 138.199468 243.520464 
L 137.320511 246.65884 
L 136.441554 249.866617 
L 135.562596 253.128842 
L 134.683639 256.408664 
L 133.804682 259.712794 
L 132.925724 263.069329 
L 132.046767 266.450528 
L 131.16781 269.726322 
L 130.288852 272.694534 
L 129.409895 275.167802 
L 128.530938 277.060796 
L 127.65198 278.425425 
L 126.773023 279.418449 
L 125.894066 280.227373 
L 125.015108 280.997013 
L 124.136151 281.790883 
L 123.257194 282.602177 
L 122.378236 283.399426 
L 121.499279 284.164816 
L 120.620322 284.89346 
L 119.741365 285.570358 
L 118.862407 286.168573 
L 117.98345 286.677456 
L 117.104493 287.12338 
L 116.225535 287.554431 
L 115.346578 288.006749 
L 114.467621 288.486887 
L 113.588663 288.979078 
L 112.709706 289.461484 
L 111.830749 289.916037 
L 110.951791 290.328717 
L 110.072834 290.685242 
L 109.193877 290.969638 
L 108.314919 291.170884 
L 107.435962 291.294776 
L 106.557005 291.369565 
L 105.678047 291.435405 
L 104.79909 291.521635 
L 103.920133 291.63005 
L 103.041175 291.740199 
L 102.162218 291.832608 
L 101.283261 291.907444 
L 100.404303 291.98091 
L 99.525346 292.065437 
L 98.646389 292.155614 
L 97.767431 292.233509 
L 96.888474 292.28635 
L 96.009517 292.318386 
L 95.130559 292.346145 
L 94.251602 292.382927 
L 93.372645 292.427529 
L 92.493687 292.466287 
L 91.61473 292.484834 
L 90.735773 292.479409 
L 89.856816 292.460163 
L 88.977858 292.445011 
L 88.098901 292.448287 
L 87.219944 292.472213 
L 86.340986 292.50747 
L 85.462029 292.541378 
L 84.583072 292.565931 
L 83.704114 292.579973 
L 82.825157 292.586383 
L 81.9462 292.588379 
z
" style="fill:#e31a1c;fill-opacity:0.25;"/>
   </g>
   <g id="PolyCollection_6">
    <path clip-path="url(#paa91d3b960)" d="M 282.373206 292.588918 
L 282.373206 292.59 
L 283.807214 292.59 
L 285.241221 292.59 
L 286.675229 292.59 
L 288.109237 292.59 
L 289.543245 292.59 
L 290.977253 292.59 
L 292.41126 292.59 
L 293.845268 292.59 
L 295.279276 292.59 
L 296.713284 292.59 
L 298.147292 292.59 
L 299.581299 292.59 
L 301.015307 292.59 
L 302.449315 292.59 
L 303.883323 292.59 
L 305.31733 292.59 
L 306.751338 292.59 
L 308.185346 292.59 
L 309.619354 292.59 
L 311.053362 292.59 
L 312.487369 292.59 
L 313.921377 292.59 
L 315.355385 292.59 
L 316.789393 292.59 
L 318.223401 292.59 
L 319.657408 292.59 
L 321.091416 292.59 
L 322.525424 292.59 
L 323.959432 292.59 
L 325.39344 292.59 
L 326.827447 292.59 
L 328.261455 292.59 
L 329.695463 292.59 
L 331.129471 292.59 
L 332.563479 292.59 
L 333.997486 292.59 
L 335.431494 292.59 
L 336.865502 292.59 
L 338.29951 292.59 
L 339.733518 292.59 
L 341.167525 292.59 
L 342.601533 292.59 
L 344.035541 292.59 
L 345.469549 292.59 
L 346.903557 292.59 
L 348.337564 292.59 
L 349.771572 292.59 
L 351.20558 292.59 
L 352.639588 292.59 
L 354.073596 292.59 
L 355.507603 292.59 
L 356.941611 292.59 
L 358.375619 292.59 
L 359.809627 292.59 
L 361.243635 292.59 
L 362.677642 292.59 
L 364.11165 292.59 
L 365.545658 292.59 
L 366.979666 292.59 
L 368.413674 292.59 
L 369.847681 292.59 
L 371.281689 292.59 
L 372.715697 292.59 
L 374.149705 292.59 
L 375.583713 292.59 
L 377.01772 292.59 
L 378.451728 292.59 
L 379.885736 292.59 
L 381.319744 292.59 
L 382.753752 292.59 
L 384.187759 292.59 
L 385.621767 292.59 
L 387.055775 292.59 
L 388.489783 292.59 
L 389.923791 292.59 
L 391.357798 292.59 
L 392.791806 292.59 
L 394.225814 292.59 
L 395.659822 292.59 
L 397.093829 292.59 
L 398.527837 292.59 
L 399.961845 292.59 
L 401.395853 292.59 
L 402.829861 292.59 
L 404.263868 292.59 
L 405.697876 292.59 
L 407.131884 292.59 
L 408.565892 292.59 
L 409.9999 292.59 
L 411.433907 292.59 
L 412.867915 292.59 
L 414.301923 292.59 
L 415.735931 292.59 
L 417.169939 292.59 
L 418.603946 292.59 
L 420.037954 292.59 
L 421.471962 292.59 
L 422.90597 292.59 
L 424.339978 292.59 
L 425.773985 292.59 
L 427.207993 292.59 
L 428.642001 292.59 
L 430.076009 292.59 
L 431.510017 292.59 
L 432.944024 292.59 
L 434.378032 292.59 
L 435.81204 292.59 
L 437.246048 292.59 
L 438.680056 292.59 
L 440.114063 292.59 
L 441.548071 292.59 
L 442.982079 292.59 
L 444.416087 292.59 
L 445.850095 292.59 
L 447.284102 292.59 
L 448.71811 292.59 
L 450.152118 292.59 
L 451.586126 292.59 
L 453.020134 292.59 
L 454.454141 292.59 
L 455.888149 292.59 
L 457.322157 292.59 
L 458.756165 292.59 
L 460.190173 292.59 
L 461.62418 292.59 
L 463.058188 292.59 
L 464.492196 292.59 
L 464.492196 292.588796 
L 464.492196 292.588796 
L 463.058188 292.5879 
L 461.62418 292.585929 
L 460.190173 292.582312 
L 458.756165 292.576245 
L 457.322157 292.56677 
L 455.888149 292.552925 
L 454.454141 292.533928 
L 453.020134 292.509361 
L 451.586126 292.479244 
L 450.152118 292.443958 
L 448.71811 292.403981 
L 447.284102 292.359506 
L 445.850095 292.310062 
L 444.416087 292.254289 
L 442.982079 292.190005 
L 441.548071 292.114618 
L 440.114063 292.02584 
L 438.680056 291.922448 
L 437.246048 291.804755 
L 435.81204 291.674431 
L 434.378032 291.53357 
L 432.944024 291.383278 
L 431.510017 291.222423 
L 430.076009 291.047234 
L 428.642001 290.852113 
L 427.207993 290.631419 
L 425.773985 290.381493 
L 424.339978 290.102085 
L 422.90597 289.796671 
L 421.471962 289.471684 
L 420.037954 289.135114 
L 418.603946 288.794971 
L 417.169939 288.457934 
L 415.735931 288.128222 
L 414.301923 287.806627 
L 412.867915 287.489791 
L 411.433907 287.170026 
L 409.9999 286.836125 
L 408.565892 286.475377 
L 407.131884 286.076543 
L 405.697876 285.63303 
L 404.263868 285.145192 
L 402.829861 284.620873 
L 401.395853 284.073834 
L 399.961845 283.520485 
L 398.527837 282.975961 
L 397.093829 282.450935 
L 395.659822 281.950383 
L 394.225814 281.474872 
L 392.791806 281.023845 
L 391.357798 280.599352 
L 389.923791 280.208239 
L 388.489783 279.861277 
L 387.055775 279.56913 
L 385.621767 279.336527 
L 384.187759 279.156865 
L 382.753752 279.009209 
L 381.319744 278.858549 
L 379.885736 278.658966 
L 378.451728 278.358601 
L 377.01772 277.90534 
L 375.583713 277.252446 
L 374.149705 276.36387 
L 372.715697 275.219178 
L 371.281689 273.818154 
L 369.847681 272.18495 
L 368.413674 270.37138 
L 366.979666 268.458408 
L 365.545658 266.554444 
L 364.11165 264.789059 
L 362.677642 263.301547 
L 361.243635 262.225171 
L 359.809627 261.669425 
L 358.375619 261.703558 
L 356.941611 262.344558 
L 355.507603 263.551992 
L 354.073596 265.230837 
L 352.639588 267.24199 
L 351.20558 269.418712 
L 349.771572 271.586108 
L 348.337564 273.580131 
L 346.903557 275.262962 
L 345.469549 276.532806 
L 344.035541 277.327807 
L 342.601533 277.625199 
L 341.167525 277.437503 
L 339.733518 276.807406 
L 338.29951 275.802298 
L 336.865502 274.508762 
L 335.431494 273.026963 
L 333.997486 271.464978 
L 332.563479 269.933278 
L 331.129471 268.539619 
L 329.695463 267.384356 
L 328.261455 266.555981 
L 326.827447 266.126607 
L 325.39344 266.147426 
L 323.959432 266.644542 
L 322.525424 267.615851 
L 321.091416 269.029672 
L 319.657408 270.825704 
L 318.223401 272.918727 
L 316.789393 275.205264 
L 315.355385 277.572967 
L 313.921377 279.911778 
L 312.487369 282.125109 
L 311.053362 284.138831 
L 309.619354 285.906195 
L 308.185346 287.407872 
L 306.751338 288.647715 
L 305.31733 289.645989 
L 303.883323 290.432141 
L 302.449315 291.038799 
L 301.015307 291.497763 
L 299.581299 291.837919 
L 298.147292 292.084475 
L 296.713284 292.258899 
L 295.279276 292.379084 
L 293.845268 292.459588 
L 292.41126 292.511909 
L 290.977253 292.544834 
L 289.543245 292.564842 
L 288.109237 292.576544 
L 286.675229 292.5831 
L 285.241221 292.586585 
L 283.807214 292.588283 
L 282.373206 292.588918 
z
" style="fill:#0000ff;fill-opacity:0.25;"/>
   </g>
   <g id="line2d_13">
    <path clip-path="url(#paa91d3b960)" d="M 70.670072 292.589371 
L 86.782698 292.501952 
L 92.153574 292.283122 
L 95.734157 291.970112 
L 99.314741 291.449261 
L 102.895324 290.662483 
L 106.475908 289.578942 
L 110.056492 288.213069 
L 113.637075 286.626678 
L 120.798242 283.135813 
L 129.749701 278.767278 
L 133.330285 277.18648 
L 136.910868 275.859226 
L 140.491452 274.892113 
L 144.072035 274.284486 
L 153.023494 273.135631 
L 160.184661 271.759654 
L 161.974953 271.56651 
L 163.765245 271.53075 
L 165.555537 271.688366 
L 167.345829 272.058836 
L 169.13612 272.643755 
L 170.926412 273.428755 
L 172.716704 274.387429 
L 176.297288 276.684388 
L 183.458455 281.630652 
L 185.248746 282.688224 
L 187.039038 283.597776 
L 188.82933 284.332773 
L 190.619622 284.875442 
L 192.409914 285.216425 
L 194.200205 285.353835 
L 195.990497 285.292411 
L 197.780789 285.043221 
L 199.571081 284.623946 
L 203.151664 283.381268 
L 212.103123 279.675158 
L 213.893415 279.125502 
L 215.683707 278.694432 
L 217.473999 278.389237 
L 219.26429 278.211017 
L 221.054582 278.156661 
L 222.844874 278.220632 
L 226.425457 278.677369 
L 230.006041 279.53191 
L 233.586625 280.743023 
L 237.167208 282.259586 
L 249.699251 288.127418 
L 253.279834 289.371293 
L 256.860418 290.3421 
L 260.441001 291.079458 
L 264.021585 291.61783 
L 269.39246 292.118971 
L 274.763336 292.369808 
L 283.714794 292.541732 
L 298.037129 292.589264 
L 298.037129 292.589264 
" style="fill:none;stroke:#33a02c;stroke-linecap:round;stroke-width:2;"/>
   </g>
   <g id="line2d_14">
    <path clip-path="url(#paa91d3b960)" d="M 107.628081 292.589309 
L 122.223977 292.507464 
L 128.711042 292.28688 
L 133.576341 291.928288 
L 138.44164 291.31997 
L 143.306938 290.423402 
L 148.172237 289.215538 
L 153.037536 287.685941 
L 157.902834 285.903325 
L 164.389899 283.268406 
L 169.255198 281.031855 
L 174.120497 278.768829 
L 177.364029 277.579097 
L 180.607562 276.822074 
L 183.851094 276.414785 
L 187.094627 276.072546 
L 190.338159 275.450655 
L 191.959925 274.950612 
L 193.581692 274.3035 
L 196.825224 272.604718 
L 201.690523 269.674428 
L 203.312289 268.876576 
L 204.934055 268.30757 
L 206.555822 268.041597 
L 208.177588 268.132796 
L 209.799354 268.607962 
L 211.42112 269.463239 
L 213.042886 270.665271 
L 214.664653 272.156154 
L 217.908185 275.694329 
L 221.151718 279.405207 
L 222.773484 281.123585 
L 224.39525 282.660309 
L 226.017016 283.962632 
L 227.638783 284.991113 
L 229.260549 285.719773 
L 230.882315 286.135448 
L 232.504081 286.236476 
L 234.125848 286.031063 
L 235.747614 285.535763 
L 237.36938 284.774441 
L 238.991146 283.777863 
L 240.612913 282.583736 
L 243.856445 279.788671 
L 248.721744 275.425642 
L 250.34351 274.168978 
L 251.965276 273.106556 
L 253.587042 272.28602 
L 255.208809 271.745938 
L 256.830575 271.514605 
L 258.452341 271.608962 
L 260.074107 272.033304 
L 261.695874 272.777822 
L 263.31764 273.817433 
L 264.939406 275.111667 
L 268.182939 278.237125 
L 273.048237 283.273058 
L 276.29177 286.198788 
L 277.913536 287.432782 
L 279.535302 288.500825 
L 281.157068 289.405411 
L 282.778835 290.155668 
L 284.400601 290.764946 
L 287.644133 291.624837 
L 290.887666 292.119916 
L 294.131198 292.377774 
L 298.996497 292.532573 
L 310.348861 292.588609 
L 313.592393 292.589425 
L 313.592393 292.589425 
" style="fill:none;stroke:#000000;stroke-linecap:round;stroke-width:2;"/>
   </g>
   <g id="line2d_15">
    <path clip-path="url(#paa91d3b960)" d="M 434.426187 292.586826 
L 435.750977 292.50819 
L 436.413372 292.320264 
L 437.075766 291.938551 
L 438.069358 291.034911 
L 439.394148 289.457545 
L 440.056543 288.290931 
L 441.050135 285.810816 
L 442.374924 282.072489 
L 443.037319 279.340457 
L 443.699714 275.673945 
L 444.362109 270.863542 
L 445.024503 264.520833 
L 446.018096 252.385734 
L 448.00528 223.463259 
L 448.667675 211.828066 
L 450.654859 172.517518 
L 452.642043 144.495217 
L 453.304438 138.886116 
L 453.635635 137.322667 
L 453.966833 136.848186 
L 454.29803 137.708063 
L 454.629227 139.992073 
L 455.291622 147.859663 
L 456.285214 160.999328 
L 457.941201 179.42144 
L 458.603596 190.727454 
L 460.259583 221.528043 
L 461.91557 246.946306 
L 463.240359 264.606609 
L 463.902754 271.65936 
L 464.565149 276.871978 
L 465.227543 280.510602 
L 465.889938 283.062184 
L 466.552333 284.884254 
L 467.545925 286.919026 
L 469.864307 291.101377 
L 470.526701 291.715473 
L 471.189096 291.986601 
L 472.845083 292.237412 
L 476.488254 292.587221 
L 476.488254 292.587221 
" style="fill:none;stroke:#ff7f00;stroke-linecap:round;stroke-width:2;"/>
   </g>
   <g id="line2d_16">
    <path clip-path="url(#paa91d3b960)" d="M 285.796958 292.585769 
L 286.549573 292.505176 
L 287.553059 292.296984 
L 288.054803 292.261824 
L 288.305674 292.093652 
L 290.814391 288.952548 
L 291.065263 288.330156 
L 291.567006 286.128969 
L 293.072236 276.916728 
L 293.57398 271.244785 
L 294.075723 262.150111 
L 295.580953 224.013918 
L 296.082696 210.432107 
L 296.58444 189.931966 
L 297.086183 159.932992 
L 298.591413 52.10958 
L 299.344028 28.537192 
L 299.5949 23.204325 
L 299.845772 20.79 
L 300.096643 21.734671 
L 300.598387 29.077245 
L 301.10013 39.051348 
L 301.601873 58.50413 
L 302.60536 116.28741 
L 303.357975 156.910814 
L 304.11059 192.825511 
L 304.863205 230.677157 
L 305.61582 256.34447 
L 306.117564 267.086864 
L 306.619307 272.542576 
L 307.622794 279.931912 
L 308.124537 283.637246 
L 309.128024 288.34637 
L 309.629767 290.070375 
L 310.13151 291.077785 
L 310.884126 292.119153 
L 311.385869 292.33071 
L 312.138484 292.10463 
L 313.141971 291.733306 
L 313.643714 291.926357 
L 314.898072 292.451489 
L 315.399816 292.443312 
L 316.152431 292.309169 
L 317.657661 292.585769 
L 317.657661 292.585769 
" style="fill:none;stroke:#1f78b4;stroke-linecap:round;stroke-width:2;"/>
   </g>
   <g id="line2d_17">
    <path clip-path="url(#paa91d3b960)" d="M 81.9462 292.588379 
L 87.219944 292.472213 
L 90.735773 292.479409 
L 93.372645 292.427529 
L 100.404303 291.98091 
L 107.435962 291.294776 
L 109.193877 290.969638 
L 110.951791 290.328717 
L 113.588663 288.979078 
L 117.104493 287.12338 
L 118.862407 286.168573 
L 120.620322 284.89346 
L 123.257194 282.602177 
L 127.65198 278.425425 
L 128.530938 277.060796 
L 129.409895 275.167802 
L 130.288852 272.694534 
L 132.046767 266.450528 
L 136.441554 249.866617 
L 140.83634 233.546938 
L 142.594255 226.741396 
L 143.473212 224.198127 
L 144.35217 222.522819 
L 145.231127 221.637818 
L 146.110084 221.37136 
L 146.989042 221.643516 
L 147.867999 222.509014 
L 148.746956 224.049782 
L 149.625914 226.253289 
L 151.383828 232.050533 
L 154.0207 241.397315 
L 155.778615 247.495213 
L 157.536529 254.776217 
L 159.294444 262.411331 
L 161.052359 268.689255 
L 161.931316 271.198023 
L 163.689231 275.268566 
L 165.447145 278.650548 
L 167.20506 281.54118 
L 168.084017 282.678929 
L 169.841932 284.375256 
L 172.478804 286.74269 
L 174.236719 288.277717 
L 175.994633 289.394032 
L 177.752548 290.066309 
L 183.905249 291.587053 
L 186.542121 292.049642 
L 190.936908 292.534352 
L 193.57378 292.587347 
L 193.57378 292.587347 
" style="fill:none;stroke:#e31a1c;stroke-linecap:round;stroke-width:2;"/>
   </g>
   <g id="line2d_18">
    <path clip-path="url(#paa91d3b960)" d="M 282.373206 292.588918 
L 292.41126 292.511909 
L 296.713284 292.258899 
L 299.581299 291.837919 
L 301.015307 291.497763 
L 302.449315 291.038799 
L 303.883323 290.432141 
L 305.31733 289.645989 
L 306.751338 288.647715 
L 308.185346 287.407872 
L 309.619354 285.906195 
L 311.053362 284.138831 
L 312.487369 282.125109 
L 315.355385 277.572967 
L 318.223401 272.918727 
L 319.657408 270.825704 
L 321.091416 269.029672 
L 322.525424 267.615851 
L 323.959432 266.644542 
L 325.39344 266.147426 
L 326.827447 266.126607 
L 328.261455 266.555981 
L 329.695463 267.384356 
L 331.129471 268.539619 
L 333.997486 271.464978 
L 336.865502 274.508762 
L 338.29951 275.802298 
L 339.733518 276.807406 
L 341.167525 277.437503 
L 342.601533 277.625199 
L 344.035541 277.327807 
L 345.469549 276.532806 
L 346.903557 275.262962 
L 348.337564 273.580131 
L 351.20558 269.418712 
L 354.073596 265.230837 
L 355.507603 263.551992 
L 356.941611 262.344558 
L 358.375619 261.703558 
L 359.809627 261.669425 
L 361.243635 262.225171 
L 362.677642 263.301547 
L 364.11165 264.789059 
L 366.979666 268.458408 
L 369.847681 272.18495 
L 371.281689 273.818154 
L 372.715697 275.219178 
L 374.149705 276.36387 
L 375.583713 277.252446 
L 377.01772 277.90534 
L 378.451728 278.358601 
L 381.319744 278.858549 
L 387.055775 279.56913 
L 389.923791 280.208239 
L 394.225814 281.474872 
L 398.527837 282.975961 
L 405.697876 285.63303 
L 408.565892 286.475377 
L 414.301923 287.806627 
L 427.207993 290.631419 
L 431.510017 291.222423 
L 438.680056 291.922448 
L 444.416087 292.254289 
L 454.454141 292.533928 
L 464.492196 292.588796 
L 464.492196 292.588796 
" style="fill:none;stroke:#0000ff;stroke-linecap:round;stroke-width:2;"/>
   </g>
   <g id="line2d_19">
    <path clip-path="url(#paa91d3b960)" d="M 176.338758 306.18 
L 176.338758 7.2 
" style="fill:none;stroke:#33a02c;stroke-dasharray:8.4,3.6;stroke-dashoffset:0;stroke-width:3;"/>
   </g>
   <g id="patch_3">
    <path d="M 50.379163 306.18 
L 50.379163 7.2 
" style="fill:none;"/>
   </g>
   <g id="patch_4">
    <path d="M 496.779163 306.18 
L 496.779163 7.2 
" style="fill:none;"/>
   </g>
   <g id="patch_5">
    <path d="M 50.379163 306.18 
L 496.779163 306.18 
" style="fill:none;"/>
   </g>
   <g id="patch_6">
    <path d="M 50.379163 7.2 
L 496.779163 7.2 
" style="fill:none;"/>
   </g>
   <g id="legend_1">
    <g id="line2d_20">
     <path d="M 365.669154 24.7 
L 393.669154 24.7 
" style="fill:none;stroke:#33a02c;stroke-linecap:round;stroke-width:2;"/>
    </g>
    <g id="line2d_21"/>
    <g id="text_15">
     <!-- actual -->
     <g style="fill:#262626;" transform="translate(404.869154 29.6)scale(0.14 -0.14)">
      <use transform="scale(0.996264)" xlink:href="#Computer_Modern_Bright-97"/>
      <use transform="translate(46.492082 0)scale(0.996264)" xlink:href="#Computer_Modern_Bright-99"/>
      <use transform="translate(91.32375 0)scale(0.996264)" xlink:href="#Computer_Modern_Bright-116"/>
      <use transform="translate(127.438138 0)scale(0.996264)" xlink:href="#Computer_Modern_Bright-117"/>
      <use transform="translate(175.590635 0)scale(0.996264)" xlink:href="#Computer_Modern_Bright-97"/>
      <use transform="translate(222.082717 0)scale(0.996264)" xlink:href="#Computer_Modern_Bright-108"/>
     </g>
    </g>
    <g id="line2d_22">
     <path d="M 365.669154 43.824611 
L 393.669154 43.824611 
" style="fill:none;stroke:#000000;stroke-linecap:round;stroke-width:2;"/>
    </g>
    <g id="line2d_23"/>
    <g id="text_16">
     <!-- \emph{hif-1} $&gt;$ \emph{rhy-1} -->
     <defs>
      <path d="M 21.09375 70 
L 6.40625 0 
L 10.90625 0 
C 11.796875 0 13 -0.296875 13 1.015625 
C 13.203125 1.71875 13.296875 2.328125 13.40625 3.03125 
C 14.40625 7.78125 19 29.5 19.296875 30.40625 
C 20.40625 33.953125 22.40625 37.375 25.09375 39.90625 
C 28 42.4375 31.203125 43.84375 36.59375 42.9375 
C 38.796875 42.53125 40.90625 41.625 42 39.5 
C 43.5 36.46875 42.40625 32.9375 41.796875 29.90625 
L 35.5 0 
L 40.203125 0 
C 41.203125 0 42.09375 -0.203125 42.09375 1.109375 
C 42.703125 3.125 44.09375 10.625 44.09375 10.625 
L 48.59375 32 
C 49.40625 35.734375 50.296875 40.40625 48.203125 43.9375 
C 46.296875 46.984375 42.90625 48 39.59375 48.296875 
C 38.09375 48.296875 36.5 48.296875 35 48 
C 30.796875 47.3125 27.09375 45.09375 24.09375 42.09375 
C 22.90625 40.890625 21.5 39.59375 20.796875 37.984375 
L 20.703125 37.984375 
L 27.40625 70 
z
" id="Computer_Modern_Bright_Slanted-104"/>
      <path d="M 19.796875 64 
L 26.09375 64 
L 27.40625 70.359375 
C 25.296875 70.359375 23 70.359375 21.203125 70.046875 
C 20.5 68.265625 20.203125 66.09375 19.796875 64 
M 16.40625 47.890625 
L 6.40625 0 
C 8.5 0 10.796875 0 12.59375 0.296875 
L 13 1.40625 
L 22.703125 47.890625 
z
" id="Computer_Modern_Bright_Slanted-105"/>
      <path d="M 12 48.046875 
L 11 43 
L 19.59375 43 
C 16.5 29 13.59375 14.59375 10.59375 0.5 
C 12.703125 0.5 15 0.5 16.796875 0.796875 
L 17.09375 1.5 
C 19.296875 12.25 21.703125 22.703125 23.90625 33.4375 
C 24.703125 36.453125 25 39.984375 26 42.796875 
L 27 43 
L 38.296875 43 
L 39.296875 48.046875 
L 26.796875 48.046875 
C 27.703125 50.9375 28.09375 54.03125 28.703125 56.921875 
C 29 58.21875 29.09375 59.703125 29.796875 60.90625 
C 30.703125 62.609375 32.5 63.703125 34.203125 64.5 
C 37.703125 66 41.5 66 45.203125 65.4375 
C 46.59375 65.265625 47.90625 64.796875 49.203125 64.609375 
L 50.296875 70.234375 
C 46.703125 70.75 42.90625 71.15625 39.296875 70.75 
C 34.203125 70.03125 29.5 67.546875 26.09375 63.734375 
C 23.40625 60.640625 22.703125 58.046875 21.703125 53.34375 
C 21.59375 52.4375 21 48.546875 20.40625 48.25 
C 19.90625 47.84375 18.703125 48.046875 18.09375 48.046875 
z
" id="Computer_Modern_Bright_Slanted-102"/>
      <path d="M 5.90625 26.0625 
L 4.90625 21 
L 32.796875 21 
L 33.796875 26.0625 
z
" id="Computer_Modern_Bright_Slanted-45"/>
      <path d="M 22.5 61 
L 21.5 55.9375 
C 26.296875 55.9375 31.40625 56.546875 35.703125 58.875 
L 24.5 5.046875 
C 20.296875 5.046875 15.296875 5.5625 11.5 5.046875 
C 10.90625 3.578125 10.703125 1.671875 10.296875 0 
C 21.09375 0 32.59375 0 42.796875 0 
C 43.40625 1.453125 43.703125 3.296875 44.09375 5.046875 
L 31 5.046875 
C 35.203125 26.0625 39.796875 46.59375 44.09375 67.5 
C 41.703125 67.5 42 67.09375 40 65.59375 
C 35.59375 62.59375 28.90625 61 22.5 61 
" id="Computer_Modern_Bright_Slanted-49"/>
      <path d="M 62.59375 26.546875 
L 62.59375 26.34375 
C 60.296875 25.546875 58 24.25 55.796875 23.140625 
L 27.09375 9.625 
L 11.09375 2 
C 10.40625 1.703125 9.40625 1.296875 8.90625 0.796875 
C 8 -0.203125 8.203125 -1.703125 9.296875 -2.296875 
C 10.5 -3 11.703125 -2.109375 12.796875 -1.609375 
L 21 2.203125 
C 25.203125 4.3125 55 18.328125 55 18.328125 
L 66 23.546875 
C 67.296875 24.140625 69.40625 24.75 69.40625 26.453125 
C 69.40625 28.15625 67.296875 28.75 66 29.359375 
L 55 34.5625 
L 33.703125 44.6875 
C 29.5 46.6875 25.203125 48.59375 21 50.703125 
L 12.796875 54.5 
C 11.703125 55 10.5 55.90625 9.296875 55.203125 
C 8.203125 54.609375 8 53.09375 8.90625 52.09375 
C 9.40625 51.59375 10.40625 51.203125 11.09375 50.890625 
L 41.59375 36.46875 
L 55.796875 29.75 
C 58 28.65625 60.296875 27.359375 62.59375 26.546875 
" id="Computer_Modern_Bright_Math_Slanted-62"/>
      <path d="M 19.90625 35.53125 
L 19.796875 35.53125 
L 22.40625 48.15625 
L 16.40625 48.15625 
L 6.40625 0.5 
L 10.90625 0.5 
C 11.40625 0.5 12.203125 0.296875 12.59375 0.703125 
C 12.90625 0.90625 13.5 4.4375 13.796875 5.65625 
L 16.703125 19.578125 
C 17.5 23.109375 18 26.859375 19.59375 30.1875 
C 23.40625 37.84375 31.90625 43 40.40625 43 
L 41.5 48.765625 
C 34.90625 48.765625 28.59375 45.421875 24 40.78125 
C 22.5 39.265625 20.90625 37.453125 19.90625 35.53125 
M 19.703125 34.953125 
C 19.703125 34.953125 19.796875 34.953125 19.796875 34.953125 
C 19.796875 34.859375 19.703125 34.75 19.703125 34.953125 
" id="Computer_Modern_Bright_Slanted-114"/>
      <path d="M 10.703125 48 
C 11.203125 44.265625 12 40.625 12.703125 36.890625 
C 13.09375 34.359375 19 0.8125 19 0.515625 
C 19 -0.09375 18.59375 -0.59375 18.296875 -1.109375 
L 16.59375 -4.140625 
C 14.703125 -7.265625 12.796875 -10.5 9 -11.8125 
C 6 -12.71875 0.5 -11.40625 -1.5 -10.796875 
C -1.796875 -12.625 -2 -14.53125 -2.203125 -16.453125 
C 0.5 -16.859375 5.40625 -17.46875 8.09375 -16.96875 
C 15.203125 -15.34375 19.203125 -8.671875 22.5 -3.21875 
L 44.09375 34.359375 
L 49.203125 43.359375 
C 50.09375 44.859375 51.203125 46.375 51.796875 48 
C 49.703125 48 47.40625 48 45.59375 47.703125 
C 43.203125 44.078125 41.203125 40.046875 38.90625 36.21875 
C 33.59375 26.4375 27.703125 17.359375 23.203125 6.78125 
L 23.09375 6.78125 
C 23.40625 8.390625 23.09375 10.109375 22.90625 11.734375 
C 21.796875 22.546875 18.59375 39.71875 17.09375 48 
z
" id="Computer_Modern_Bright_Slanted-121"/>
     </defs>
     <g style="fill:#262626;" transform="translate(404.869154 48.724611)scale(0.14 -0.14)">
      <use transform="scale(0.996264)" xlink:href="#Computer_Modern_Bright_Slanted-104"/>
      <use transform="translate(48.152497 0)scale(0.996264)" xlink:href="#Computer_Modern_Bright_Slanted-105"/>
      <use transform="translate(67.247456 0)scale(0.996264)" xlink:href="#Computer_Modern_Bright_Slanted-102"/>
      <use transform="translate(97.5504 0)scale(0.996264)" xlink:href="#Computer_Modern_Bright_Slanted-45"/>
      <use transform="translate(130.759074 0)scale(0.996264)" xlink:href="#Computer_Modern_Bright_Slanted-49"/>
      <use transform="translate(223.843844 0)scale(0.996264)" xlink:href="#Computer_Modern_Bright_Math_Slanted-62"/>
      <use transform="translate(332.796523 0)scale(0.996264)" xlink:href="#Computer_Modern_Bright_Slanted-114"/>
      <use transform="translate(364.759882 0)scale(0.996264)" xlink:href="#Computer_Modern_Bright_Slanted-104"/>
      <use transform="translate(412.912379 0)scale(0.996264)" xlink:href="#Computer_Modern_Bright_Slanted-121"/>
      <use transform="translate(455.253417 0)scale(0.996264)" xlink:href="#Computer_Modern_Bright_Slanted-45"/>
      <use transform="translate(488.46209 0)scale(0.996264)" xlink:href="#Computer_Modern_Bright_Slanted-49"/>
     </g>
    </g>
    <g id="line2d_24">
     <path d="M 365.669154 62.949222 
L 393.669154 62.949222 
" style="fill:none;stroke:#ff7f00;stroke-linecap:round;stroke-width:2;"/>
    </g>
    <g id="line2d_25"/>
    <g id="text_17">
     <!-- Additive -->
     <defs>
      <path d="M 2.09375 0.09375 
L 6.59375 0.09375 
L 8.40625 0.296875 
C 11.40625 6.796875 13.5 14.203125 16.203125 21 
C 26.09375 21 36.90625 21 46.296875 21 
L 47.09375 19.6875 
C 48.796875 14.546875 50.796875 9.59375 52.59375 4.546875 
C 53.09375 3.015625 53.59375 1.515625 54.40625 0.296875 
C 56.59375 0 59.203125 0 61.59375 0 
C 59.90625 4.90625 36.703125 67.203125 36 68.890625 
C 35.90625 69.296875 35.703125 69.890625 35.203125 70 
C 34.59375 70.09375 34 70 33.40625 70 
L 30.09375 70 
C 28.59375 70 28 70.1875 27.59375 68.609375 
C 27.203125 67.59375 2.09375 0.09375 2.09375 0.09375 
M 31.40625 63.171875 
C 35.59375 50.71875 40.09375 38.46875 44.5 26.21875 
L 18.203125 26.21875 
L 26.90625 50.109375 
z
" id="Computer_Modern_Bright-65"/>
      <path d="M 35.59375 69.6875 
L 35.59375 41.375 
C 33.703125 43.484375 31.796875 45.484375 29.203125 46.6875 
C 20.296875 50.40625 11.703125 45.59375 7.296875 37.65625 
C 2.203125 28.21875 2.796875 15.765625 8.90625 6.921875 
C 13.203125 0.796875 20.296875 -2.203125 27.796875 0.5 
C 30.703125 1.609375 34.203125 4.515625 35.40625 7.125 
L 35.5 7.125 
L 35.5 0 
L 41.90625 0 
L 41.90625 69.6875 
z
M 35.203125 37.453125 
C 35.703125 36.546875 35.5 35.34375 35.5 34.34375 
L 35.5 13.65625 
C 35.5 11.34375 35.40625 11.140625 34.09375 9.34375 
C 32.296875 6.625 29.5 4.71875 26.203125 4.421875 
C 21.40625 4.015625 16.5 6.328125 13.703125 10.25 
C 12.09375 12.546875 11.203125 15.359375 10.703125 18.171875 
C 10.5 19.28125 10.5 20.28125 10.40625 21.390625 
C 9.796875 28.015625 11.203125 35.84375 17 40.0625 
C 18 40.765625 19.09375 41.265625 20.203125 41.765625 
C 26 43.984375 32.40625 43.375 35.203125 37.453125 
" id="Computer_Modern_Bright-100"/>
     </defs>
     <g style="fill:#262626;" transform="translate(404.869154 67.849222)scale(0.14 -0.14)">
      <use transform="scale(0.996264)" xlink:href="#Computer_Modern_Bright-65"/>
      <use transform="translate(63.511618 0)scale(0.996264)" xlink:href="#Computer_Modern_Bright-100"/>
      <use transform="translate(111.664115 0)scale(0.996264)" xlink:href="#Computer_Modern_Bright-100"/>
      <use transform="translate(159.816612 0)scale(0.996264)" xlink:href="#Computer_Modern_Bright-105"/>
      <use transform="translate(178.911571 0)scale(0.996264)" xlink:href="#Computer_Modern_Bright-116"/>
      <use transform="translate(215.025959 0)scale(0.996264)" xlink:href="#Computer_Modern_Bright-105"/>
      <use transform="translate(234.120917 0)scale(0.996264)" xlink:href="#Computer_Modern_Bright-118"/>
      <use transform="translate(276.461955 0)scale(0.996264)" xlink:href="#Computer_Modern_Bright-101"/>
     </g>
    </g>
    <g id="line2d_26">
     <path d="M 365.669154 82.073833 
L 393.669154 82.073833 
" style="fill:none;stroke:#1f78b4;stroke-linecap:round;stroke-width:2;"/>
    </g>
    <g id="line2d_27"/>
    <g id="text_18">
     <!-- Unbranched -->
     <defs>
      <path d="M 8 69.5 
L 8 32.75 
C 8 25.71875 7.203125 18.390625 10.703125 11.96875 
C 12.90625 7.84375 16.09375 4.4375 20.09375 2.125 
C 29.90625 -3.609375 43.5 -2.203125 51.296875 6.4375 
C 54.796875 10.359375 57.296875 15.171875 57.796875 21.796875 
C 57.90625 23.40625 57.796875 24.921875 57.796875 26.515625 
L 57.796875 69.5 
L 51.40625 69.5 
L 51.40625 25.90625 
C 51.40625 24.59375 51.5 23.1875 51.40625 21.890625 
C 51.203125 18.890625 50.59375 15.921875 49.40625 13.25 
C 43.90625 1 25 1 18 11.890625 
C 14.203125 17.78125 15 25.0625 15 31.65625 
L 15 69.5 
z
" id="Computer_Modern_Bright-85"/>
      <path d="M 6.40625 69.6875 
L 6.40625 0 
L 12.796875 0 
L 12.796875 6.328125 
L 12.90625 6.328125 
C 14 4.109375 16.5 2.015625 18.59375 0.90625 
C 25.796875 -2.90625 34.40625 0.90625 39.09375 7.03125 
C 48.59375 19.578125 44.796875 40.875 32.296875 46.796875 
C 27.40625 49 21.5 48 17.09375 44.984375 
C 15.40625 43.78125 14 42.375 12.703125 40.765625 
L 12.703125 69.6875 
z
M 21.90625 42.984375 
C 26.59375 43.375 31.5 41.265625 34.296875 37.453125 
C 36.203125 34.9375 37.203125 31.9375 37.703125 28.8125 
C 38.703125 21.484375 37.90625 12.25 31.40625 7.4375 
C 30.296875 6.625 29.09375 6.03125 27.796875 5.515625 
C 22.40625 3.515625 17 4.109375 14 8.84375 
C 13.09375 10.4375 12.796875 10.546875 12.796875 12.953125 
L 12.796875 33.734375 
C 12.796875 34.75 12.59375 35.953125 13 36.859375 
C 14.59375 40.171875 18.296875 42.671875 21.90625 42.984375 
" id="Computer_Modern_Bright-98"/>
      <path d="M 12.5 34.75 
L 12.40625 34.75 
L 12.40625 47.390625 
L 6.40625 47.390625 
L 6.40625 0 
L 12.703125 0 
L 12.703125 22.890625 
C 12.703125 24.40625 12.703125 25.90625 12.90625 27.40625 
C 14.296875 35.953125 21.703125 42.28125 31.40625 42.28125 
L 31.40625 48 
C 25 48 19.09375 44.890625 15.296875 39.765625 
C 14.203125 38.265625 13 36.546875 12.5 34.75 
" id="Computer_Modern_Bright-114"/>
      <path d="M 6.40625 69.6875 
L 6.40625 0 
L 12.796875 0 
L 12.796875 21.984375 
C 12.796875 26.90625 12.5 31.9375 14.703125 36.546875 
C 15.796875 38.859375 17.5 40.875 19.796875 42.078125 
C 21.703125 42.984375 23.703125 42.984375 25.796875 42.78125 
C 28.796875 42.78125 31.703125 41.984375 33.59375 39.453125 
C 35.40625 37.140625 35.5 34.140625 35.5 31.3125 
L 35.5 0 
L 41.90625 0 
L 41.90625 27.21875 
C 41.90625 32.234375 42.40625 37.75 39.90625 42.28125 
C 37.90625 45.6875 34.40625 47.296875 30.703125 47.796875 
C 28.703125 48 26.703125 48 24.703125 47.703125 
C 21.09375 47.015625 18 45.03125 15.59375 42.34375 
C 14.5 41.046875 13.203125 39.46875 12.796875 37.765625 
L 12.703125 37.765625 
L 12.703125 69.6875 
z
" id="Computer_Modern_Bright-104"/>
     </defs>
     <g style="fill:#262626;" transform="translate(404.869154 86.973833)scale(0.14 -0.14)">
      <use transform="scale(0.996264)" xlink:href="#Computer_Modern_Bright-85"/>
      <use transform="translate(65.587132 0)scale(0.996264)" xlink:href="#Computer_Modern_Bright-110"/>
      <use transform="translate(113.739629 0)scale(0.996264)" xlink:href="#Computer_Modern_Bright-98"/>
      <use transform="translate(158.986397 0)scale(0.996264)" xlink:href="#Computer_Modern_Bright-114"/>
      <use transform="translate(190.949756 0)scale(0.996264)" xlink:href="#Computer_Modern_Bright-97"/>
      <use transform="translate(237.441838 0)scale(0.996264)" xlink:href="#Computer_Modern_Bright-110"/>
      <use transform="translate(285.594335 0)scale(0.996264)" xlink:href="#Computer_Modern_Bright-99"/>
      <use transform="translate(330.426003 0)scale(0.996264)" xlink:href="#Computer_Modern_Bright-104"/>
      <use transform="translate(378.5785 0)scale(0.996264)" xlink:href="#Computer_Modern_Bright-101"/>
      <use transform="translate(423.410167 0)scale(0.996264)" xlink:href="#Computer_Modern_Bright-100"/>
     </g>
    </g>
    <g id="line2d_28">
     <path d="M 365.669154 101.198444 
L 393.669154 101.198444 
" style="fill:none;stroke:#e31a1c;stroke-linecap:round;stroke-width:2;"/>
    </g>
    <g id="line2d_29"/>
    <g id="text_19">
     <!-- Suppression -->
     <defs>
      <path d="M 5.09375 13.015625 
C 4.90625 11.390625 4.5 9.671875 4.296875 8.046875 
C 4.09375 6.53125 3.59375 6.109375 4.90625 5.3125 
C 8.296875 3.390625 11.203125 2.0625 15.40625 0.75 
C 24.796875 -2 35.59375 -2 43.796875 4.140625 
C 45.09375 5.140625 46.296875 6.234375 47.40625 7.53125 
C 49.90625 10.890625 52.203125 14.96875 51.59375 20.53125 
C 50.90625 27.671875 46.09375 33.625 39.59375 36.609375 
C 30.703125 40.578125 16.203125 40.578125 12.203125 49.375 
C 9.09375 56.1875 14.59375 62.171875 20.796875 64.375 
C 26.90625 66.6875 34.90625 65.78125 40.09375 63.375 
C 42.5 62.265625 44.5 60.65625 46.703125 59.25 
C 46.90625 60.96875 47.296875 62.578125 47.59375 64.28125 
C 47.796875 65.375 48.09375 66.390625 46.90625 66.78125 
L 45 67.796875 
C 42.296875 69 39.5 69.90625 36.59375 70.5 
C 27.59375 72.203125 17.203125 71.203125 10.40625 64.484375 
C 7 61.0625 4.09375 56.4375 5.296875 49.515625 
C 6.703125 42.390625 12.296875 37.875 18.09375 35.65625 
C 21.5 34.359375 25.296875 33.65625 28.90625 32.75 
C 31 32.34375 33.203125 31.84375 35.296875 31.140625 
C 40.703125 29.125 45.40625 25.109375 45.40625 17.6875 
C 44.796875 11.296875 39.203125 6.625 33.296875 5.203125 
C 25.703125 3.265625 16.703125 6.015625 11.5 8.75 
C 9.203125 9.96875 7.203125 11.59375 5.09375 13.015625 
" id="Computer_Modern_Bright-83"/>
     </defs>
     <g style="fill:#262626;" transform="translate(404.869154 106.098444)scale(0.14 -0.14)">
      <use transform="scale(0.996264)" xlink:href="#Computer_Modern_Bright-83"/>
      <use transform="translate(56.454753 0)scale(0.996264)" xlink:href="#Computer_Modern_Bright-117"/>
      <use transform="translate(104.60725 0)scale(0.996264)" xlink:href="#Computer_Modern_Bright-112"/>
      <use transform="translate(152.759747 0)scale(0.996264)" xlink:href="#Computer_Modern_Bright-112"/>
      <use transform="translate(198.006514 0)scale(0.996264)" xlink:href="#Computer_Modern_Bright-114"/>
      <use transform="translate(229.969873 0)scale(0.996264)" xlink:href="#Computer_Modern_Bright-101"/>
      <use transform="translate(274.801541 0)scale(0.996264)" xlink:href="#Computer_Modern_Bright-115"/>
      <use transform="translate(313.24057 0)scale(0.996264)" xlink:href="#Computer_Modern_Bright-115"/>
      <use transform="translate(351.679599 0)scale(0.996264)" xlink:href="#Computer_Modern_Bright-105"/>
      <use transform="translate(370.774558 0)scale(0.996264)" xlink:href="#Computer_Modern_Bright-111"/>
      <use transform="translate(421.417776 0)scale(0.996264)" xlink:href="#Computer_Modern_Bright-110"/>
     </g>
    </g>
    <g id="line2d_30">
     <path d="M 365.669154 120.323055 
L 393.669154 120.323055 
" style="fill:none;stroke:#0000ff;stroke-linecap:round;stroke-width:2;"/>
    </g>
    <g id="line2d_31"/>
    <g id="text_20">
     <!-- \emph{rhy-1} $&gt;$ \emph{hif-1} -->
     <g style="fill:#262626;" transform="translate(404.869154 125.223055)scale(0.14 -0.14)">
      <use transform="scale(0.996264)" xlink:href="#Computer_Modern_Bright_Slanted-114"/>
      <use transform="translate(31.963359 0)scale(0.996264)" xlink:href="#Computer_Modern_Bright_Slanted-104"/>
      <use transform="translate(80.115856 0)scale(0.996264)" xlink:href="#Computer_Modern_Bright_Slanted-121"/>
      <use transform="translate(122.456894 0)scale(0.996264)" xlink:href="#Computer_Modern_Bright_Slanted-45"/>
      <use transform="translate(155.665567 0)scale(0.996264)" xlink:href="#Computer_Modern_Bright_Slanted-49"/>
      <use transform="translate(248.750337 0)scale(0.996264)" xlink:href="#Computer_Modern_Bright_Math_Slanted-62"/>
      <use transform="translate(357.703017 0)scale(0.996264)" xlink:href="#Computer_Modern_Bright_Slanted-104"/>
      <use transform="translate(405.855514 0)scale(0.996264)" xlink:href="#Computer_Modern_Bright_Slanted-105"/>
      <use transform="translate(424.950473 0)scale(0.996264)" xlink:href="#Computer_Modern_Bright_Slanted-102"/>
      <use transform="translate(455.253417 0)scale(0.996264)" xlink:href="#Computer_Modern_Bright_Slanted-45"/>
      <use transform="translate(488.46209 0)scale(0.996264)" xlink:href="#Computer_Modern_Bright_Slanted-49"/>
     </g>
    </g>
   </g>
  </g>
 </g>
 <defs>
  <clipPath id="paa91d3b960">
   <rect height="298.98" width="446.4" x="50.379163" y="7.2"/>
  </clipPath>
 </defs>
</svg>
