<?xml version="1.0" encoding="utf-8" standalone="no"?>
<!DOCTYPE svg PUBLIC "-//W3C//DTD SVG 1.1//EN"
  "http://www.w3.org/Graphics/SVG/1.1/DTD/svg11.dtd">
<!-- Created with matplotlib (http://matplotlib.org/) -->
<svg height="353pt" version="1.1" viewBox="0 0 503 353" width="503pt" xmlns="http://www.w3.org/2000/svg" xmlns:xlink="http://www.w3.org/1999/xlink">
 <defs>
  <style type="text/css">
*{stroke-linecap:butt;stroke-linejoin:round;}
  </style>
 </defs>
 <g id="figure_1">
  <g id="patch_1">
   <path d="M 0 353.548374 
L 503.979163 353.548374 
L 503.979163 0 
L 0 0 
z
" style="fill:#ffffff;"/>
  </g>
  <g id="axes_1">
   <g id="patch_2">
    <path d="M 50.379163 306.18 
L 496.779163 306.18 
L 496.779163 7.2 
L 50.379163 7.2 
z
" style="fill:#eaeaf2;"/>
   </g>
   <g id="matplotlib.axis_1">
    <g id="xtick_1">
     <g id="line2d_1"/>
     <g id="text_1">
      <!-- $-1.0$ -->
      <defs>
       <path d="M 9.796875 28.078125 
C 8 27.484375 7.796875 24.78125 9.796875 24.28125 
C 10.296875 24.078125 10.90625 24.1875 11.5 24.1875 
L 64.703125 24.1875 
C 65.90625 24.1875 67.796875 23.78125 68.796875 24.78125 
C 69.90625 25.875 69.296875 27.875 67.703125 28.1875 
C 66.5 28.375 65.09375 28.1875 63.90625 28.1875 
L 11.40625 28.1875 
C 10.90625 28.1875 10.296875 28.28125 9.796875 28.078125 
" id="Computer_Modern_Bright_Math_Symbols-0"/>
       <path d="M 9.703125 60.015625 
L 9.703125 55 
C 15.203125 55 19 56 23.40625 57.90625 
L 23.40625 5.015625 
L 10.296875 5.015625 
L 10.296875 0 
L 43 0 
L 43 5.015625 
L 29.90625 5.015625 
L 29.90625 67 
C 27.5 67 27.90625 66.359375 26 64.875 
C 21.90625 61.71875 16.203125 60.015625 9.703125 60.015625 
" id="Computer_Modern_Bright-49"/>
       <path d="M 10.703125 7.8125 
L 10.703125 0 
L 18.5 0 
L 18.5 7.8125 
z
" id="Computer_Modern_Bright_Math_Slanted-58"/>
       <path d="M 14.796875 63.859375 
C 11.90625 61.859375 9.90625 59.140625 8.40625 56.03125 
C 4.796875 49 4.40625 40.765625 4.40625 31.828125 
C 4.40625 20.578125 6.40625 10.25 12 4.3125 
C 17.296875 -1.203125 25.703125 -2.609375 32.796875 0.296875 
C 37.203125 2.015625 40.40625 5.71875 42.40625 9.734375 
C 46 16.875 46.40625 25.40625 46.40625 34.234375 
C 46.40625 37.046875 46.296875 39.859375 46 42.671875 
C 45.296875 49.40625 43 56.828125 39.296875 60.953125 
C 33.203125 67.6875 22.296875 69.1875 14.796875 63.859375 
M 34.90625 58.140625 
C 39.59375 53.125 40 43.484375 40 34.34375 
L 40 28.921875 
C 40 24.296875 39.203125 18.28125 38.203125 14.859375 
C 36.796875 10.140625 34.5 6.734375 29.90625 4.625 
C 24.296875 2.609375 18.5 4.515625 15.296875 8.9375 
C 11 14.65625 10.796875 24.796875 10.796875 33.734375 
C 10.796875 42.171875 10.90625 51.515625 15 57.03125 
C 19.5 63.0625 29.203125 64.0625 34.90625 58.140625 
" id="Computer_Modern_Bright-48"/>
      </defs>
      <g style="fill:#262626;" transform="translate(81.632928 324.249603)scale(0.16 -0.16)">
       <use transform="scale(0.996264)" xlink:href="#Computer_Modern_Bright_Math_Symbols-0"/>
       <use transform="translate(77.487468 0)scale(0.996264)" xlink:href="#Computer_Modern_Bright-49"/>
       <use transform="translate(128.130685 0)scale(0.996264)" xlink:href="#Computer_Modern_Bright_Math_Slanted-58"/>
       <use transform="translate(157.188132 0)scale(0.996264)" xlink:href="#Computer_Modern_Bright-48"/>
      </g>
     </g>
    </g>
    <g id="xtick_2">
     <g id="line2d_2"/>
     <g id="text_2">
      <!-- $-0.8$ -->
      <defs>
       <path d="M 18.703125 36 
L 18.703125 35.90625 
C 12.5 34.09375 7.296875 30.6875 4.796875 24.84375 
C 2.203125 18.71875 4 11.28125 8.40625 6.453125 
C 13.09375 1.421875 19.5 -1 26.296875 -1 
C 36.296875 -1 45.90625 6.40625 47.09375 16.734375 
C 47.296875 18.265625 47.203125 19.890625 47 21.40625 
C 45.203125 29.21875 39.5 33.875 32.09375 35.90625 
C 32.90625 36.203125 33.796875 36.40625 34.59375 36.703125 
C 38.796875 38.421875 42.296875 40.921875 44.5 44.9375 
C 47.796875 51.375 44.59375 58.90625 39.203125 63.015625 
C 33.796875 67.140625 26.5 68.234375 19.90625 66.828125 
C 12 65.125 4.5 58.40625 5 49.765625 
C 5.203125 46.75 6.5 44.234375 8 42.4375 
C 10.296875 39.625 14.796875 36.609375 18.703125 36 
M 23.796875 62.5 
C 28.203125 62.5 33.703125 62 36.90625 58.578125 
C 40.703125 54.46875 40.90625 47.03125 37.09375 42.8125 
C 34.703125 40.203125 31.203125 38.890625 27.703125 38.59375 
C 22.796875 38.1875 17.203125 39 13.703125 42.8125 
C 9.796875 47.125 10.09375 54.96875 14.296875 58.984375 
C 16.90625 61.390625 20.40625 62.1875 23.796875 62.5 
M 23.703125 33.5 
C 28.40625 33.5 33.5 32.390625 36.90625 28.9375 
C 38.203125 27.53125 39.203125 25.8125 39.796875 24.015625 
C 41.5 18.75 40.703125 12.09375 36.796875 8.046875 
C 34.09375 5.328125 30.40625 4.3125 26.703125 4.015625 
C 22.203125 4.015625 17 5.109375 13.796875 8.5625 
C 9.40625 13.390625 8.5 23.40625 13.703125 29.0625 
C 16.296875 31.78125 20 33.203125 23.703125 33.5 
" id="Computer_Modern_Bright-56"/>
      </defs>
      <g style="fill:#262626;" transform="translate(155.137511 324.249603)scale(0.16 -0.16)">
       <use transform="scale(0.996264)" xlink:href="#Computer_Modern_Bright_Math_Symbols-0"/>
       <use transform="translate(77.487468 0)scale(0.996264)" xlink:href="#Computer_Modern_Bright-48"/>
       <use transform="translate(128.130685 0)scale(0.996264)" xlink:href="#Computer_Modern_Bright_Math_Slanted-58"/>
       <use transform="translate(157.188132 0)scale(0.996264)" xlink:href="#Computer_Modern_Bright-56"/>
      </g>
     </g>
    </g>
    <g id="xtick_3">
     <g id="line2d_3"/>
     <g id="text_3">
      <!-- $-0.6$ -->
      <defs>
       <path d="M 11.296875 32.625 
L 11.203125 32.625 
C 11.203125 41.765625 12.796875 52.421875 20.59375 58.25 
C 24.90625 61.375 30.703125 62.96875 38.203125 61.171875 
C 39.796875 60.765625 41.296875 60.15625 42.796875 59.765625 
L 42.796875 63.28125 
C 42.796875 63.671875 42.90625 64.375 42.59375 64.78125 
C 41.90625 65.6875 36.296875 66.59375 36.09375 66.59375 
C 27.40625 67.59375 21.703125 65.6875 16.40625 61.171875 
C 10 55.640625 6.296875 47.515625 5.09375 39.28125 
C 4 32.65625 4.90625 22 6.203125 16.78125 
C 8.296875 9.046875 12.296875 2.21875 19.703125 -0.390625 
C 24.09375 -2 29.5 -2 33.703125 0.015625 
C 37.09375 1.640625 39.90625 4.46875 42.09375 7.5 
C 45.59375 12.34375 46.5 18.21875 46.09375 24.171875 
C 45.90625 27.109375 45.5 30.046875 44.296875 32.765625 
C 42.40625 37.125 39.203125 41.671875 35.09375 43.6875 
C 33.203125 44.5 31.203125 44.5 29.203125 44.5 
C 23.90625 44.5 18.90625 42.1875 15.203125 38.359375 
C 13.59375 36.75 12 34.71875 11.296875 32.625 
M 24.40625 39.515625 
C 28.203125 39.8125 32.203125 39.21875 35.09375 36.5 
C 38.90625 32.890625 39.59375 27.765625 39.59375 22.8125 
C 39.59375 19.46875 39.703125 16.015625 38.703125 12.859375 
C 38.09375 11.234375 37.296875 9.828125 36.40625 8.5 
C 34.203125 5.5625 31.40625 4.125 26.796875 3.515625 
C 22.296875 3.515625 17.796875 5.3125 15.203125 9.125 
C 13.59375 11.328125 12.796875 14.046875 12.296875 16.640625 
C 11.703125 19.34375 11.296875 22.140625 11.5 24.859375 
C 12 31.984375 17 38.515625 24.40625 39.515625 
" id="Computer_Modern_Bright-54"/>
      </defs>
      <g style="fill:#262626;" transform="translate(228.642094 324.249603)scale(0.16 -0.16)">
       <use transform="scale(0.996264)" xlink:href="#Computer_Modern_Bright_Math_Symbols-0"/>
       <use transform="translate(77.487468 0)scale(0.996264)" xlink:href="#Computer_Modern_Bright-48"/>
       <use transform="translate(128.130685 0)scale(0.996264)" xlink:href="#Computer_Modern_Bright_Math_Slanted-58"/>
       <use transform="translate(157.188132 0)scale(0.996264)" xlink:href="#Computer_Modern_Bright-54"/>
      </g>
     </g>
    </g>
    <g id="xtick_4">
     <g id="line2d_4"/>
     <g id="text_4">
      <!-- $-0.4$ -->
      <defs>
       <path d="M 2.09375 18 
L 31 18 
L 31 0 
L 37.296875 0 
L 37.296875 18 
L 48.703125 18 
L 48.703125 23.328125 
L 37.296875 23.328125 
L 37.296875 66.46875 
L 31.90625 66.46875 
C 30.09375 66.46875 29.59375 66.578125 28.796875 65.0625 
C 24.796875 58.515625 3.703125 25.765625 3 24.859375 
C 2.203125 23.4375 2.09375 23.546875 2.09375 21.4375 
z
M 31.296875 60.875 
L 31.296875 23.328125 
L 8.59375 23.328125 
C 9.296875 24.734375 10.296875 26.03125 11.203125 27.4375 
C 16.203125 35.171875 28.09375 53.546875 30.59375 59.28125 
C 30.90625 59.78125 31 60.375 31.296875 60.875 
" id="Computer_Modern_Bright-52"/>
      </defs>
      <g style="fill:#262626;" transform="translate(302.146676 324.249603)scale(0.16 -0.16)">
       <use transform="scale(0.996264)" xlink:href="#Computer_Modern_Bright_Math_Symbols-0"/>
       <use transform="translate(77.487468 0)scale(0.996264)" xlink:href="#Computer_Modern_Bright-48"/>
       <use transform="translate(128.130685 0)scale(0.996264)" xlink:href="#Computer_Modern_Bright_Math_Slanted-58"/>
       <use transform="translate(157.188132 0)scale(0.996264)" xlink:href="#Computer_Modern_Bright-52"/>
      </g>
     </g>
    </g>
    <g id="xtick_5">
     <g id="line2d_5"/>
     <g id="text_5">
      <!-- $-0.2$ -->
      <defs>
       <path d="M 7.296875 45.96875 
C 8.703125 51.59375 11.09375 57.984375 16.796875 60.5 
C 19.203125 61.5 21.796875 61.703125 24.40625 61.5 
C 29.296875 61.09375 34.09375 59.09375 37.09375 55.09375 
C 39.296875 52.078125 40.09375 48.375 39.703125 44.78125 
C 38.5 34.34375 28.296875 26.84375 21.703125 21.234375 
C 17.90625 18.03125 7.09375 7.8125 7.09375 7.8125 
L 5.40625 6.203125 
C 4.5 5.3125 4.40625 5.3125 4.40625 3.5 
L 4.40625 0 
L 46.40625 0 
L 46.40625 5.625 
L 10.203125 5.625 
C 13.40625 8.734375 26.703125 20.515625 28.5 21.921875 
C 34.296875 26.65625 40.796875 31.375 44.296875 38.21875 
C 48.203125 46.0625 46.5 55.9375 39.90625 61.765625 
C 35.90625 65.296875 30.40625 67 25.09375 67 
C 20.203125 67 15.203125 66 11.296875 62.90625 
C 8.296875 60.390625 5.796875 56.6875 4.40625 52.875 
C 4.09375 52.28125 3.59375 51.28125 3.703125 50.578125 
C 3.796875 49.984375 4.40625 49.484375 4.703125 49.078125 
C 5.5 48.078125 6.296875 46.875 7.296875 45.96875 
" id="Computer_Modern_Bright-50"/>
      </defs>
      <g style="fill:#262626;" transform="translate(375.651259 324.249603)scale(0.16 -0.16)">
       <use transform="scale(0.996264)" xlink:href="#Computer_Modern_Bright_Math_Symbols-0"/>
       <use transform="translate(77.487468 0)scale(0.996264)" xlink:href="#Computer_Modern_Bright-48"/>
       <use transform="translate(128.130685 0)scale(0.996264)" xlink:href="#Computer_Modern_Bright_Math_Slanted-58"/>
       <use transform="translate(157.188132 0)scale(0.996264)" xlink:href="#Computer_Modern_Bright-50"/>
      </g>
     </g>
    </g>
    <g id="xtick_6">
     <g id="line2d_6"/>
     <g id="text_6">
      <!-- $0.0$ -->
      <g style="fill:#262626;" transform="translate(455.35484 324.249603)scale(0.16 -0.16)">
       <use transform="scale(0.996264)" xlink:href="#Computer_Modern_Bright-48"/>
       <use transform="translate(50.643218 0)scale(0.996264)" xlink:href="#Computer_Modern_Bright_Math_Slanted-58"/>
       <use transform="translate(79.700665 0)scale(0.996264)" xlink:href="#Computer_Modern_Bright-48"/>
      </g>
     </g>
    </g>
    <g id="text_7">
     <!-- Epistasis Coefficient -->
     <defs>
      <path d="M 8 69.328125 
L 8 0 
L 55.40625 0 
L 55.40625 5.625 
L 15 5.625 
L 15 33.671875 
L 51.09375 33.671875 
L 51.09375 39 
L 15 39 
L 15 64 
L 54 64 
L 54 69.328125 
z
" id="Computer_Modern_Bright-69"/>
      <path d="M 12.703125 40.53125 
L 12.703125 47.15625 
L 6.40625 47.15625 
L 6.40625 -17 
L 12.796875 -17 
L 12.796875 6.09375 
C 14.203125 4.078125 15.796875 2.28125 17.90625 1.078125 
C 25 -3.25 34 0.171875 38.90625 6.59375 
C 45.40625 14.96875 46.09375 27.5 41.59375 36.984375 
C 39 42.4375 34.09375 47.5 27.796875 48 
C 22.296875 48 18.09375 45.8125 15.09375 43.125 
C 14.203125 42.328125 13.5 41.4375 12.703125 40.53125 
M 21.90625 42.875 
C 26 43.171875 30 41.265625 32.796875 38.265625 
C 34.5 36.34375 35.796875 34.140625 36.59375 31.734375 
C 40.09375 22.296875 36.90625 9.234375 26.796875 5.328125 
C 21 3.109375 15.296875 5.125 13.09375 10.546875 
C 12.59375 11.546875 12.796875 12.859375 12.796875 13.953125 
L 12.796875 34.640625 
C 12.796875 36.953125 13 37.15625 14.5 38.859375 
C 16.296875 41.0625 19 42.578125 21.90625 42.875 
" id="Computer_Modern_Bright-112"/>
      <path d="M 6.40625 70 
L 6.40625 63.671875 
L 12.703125 63.671875 
L 12.703125 70 
z
M 6.40625 47.390625 
L 6.40625 0 
L 12.703125 0 
L 12.703125 47.390625 
z
" id="Computer_Modern_Bright-105"/>
      <path d="M 3.09375 9.640625 
C 2.90625 8.234375 2.59375 6.9375 2.40625 5.53125 
C 2.203125 4.421875 1.90625 3.921875 2.90625 3.421875 
C 7 1.015625 11.90625 -0.296875 17.703125 -0.796875 
C 24.203125 -1.40625 32.40625 0.109375 35.59375 6.53125 
C 36.5 8.34375 37 10.34375 37.09375 12.359375 
C 37.5 19.578125 31.796875 24.203125 26.90625 25.90625 
C 21.40625 28.015625 13.90625 27.3125 10.09375 31.53125 
C 8.09375 33.84375 8 37.265625 9.90625 39.671875 
C 13.90625 45.296875 26.796875 42.875 31.90625 40.375 
C 32.703125 39.96875 33.40625 39.46875 34.296875 39.265625 
L 35.203125 44.6875 
C 30.5 46.796875 26.40625 48 19.90625 48 
C 14.296875 48 9.203125 46.703125 6 43.484375 
C 2.796875 40.171875 1.703125 34.640625 3.59375 30.4375 
C 5.40625 26.40625 9.203125 23.796875 13.296875 22.5 
C 19.203125 20.390625 25.90625 21.390625 29.796875 16.578125 
C 32 13.765625 31.59375 9.546875 29.09375 7.03125 
C 24.296875 2.609375 14.09375 4.21875 8.5 6.625 
C 6.59375 7.4375 4.90625 8.640625 3.09375 9.640625 
" id="Computer_Modern_Bright-115"/>
      <path d="M 10.796875 60.5 
L 10.796875 47.015625 
L 1.09375 47.015625 
L 1.09375 42 
L 10.703125 42 
L 10.703125 15.015625 
C 10.703125 10.578125 10.40625 5.234375 13.296875 1.515625 
C 15 -0.703125 17.296875 -1.296875 20.796875 -1 
C 23.703125 -1 26.59375 -0.390625 29.296875 0.65625 
C 30.203125 1.0625 33.5 2.515625 33.90625 3.234375 
C 34.09375 3.640625 32.796875 8.09375 32.796875 8.09375 
L 30.40625 6.265625 
C 27.296875 4.34375 21.09375 2.328125 18.5 5.96875 
C 16.203125 9.09375 16.796875 13.75 16.796875 17.375 
L 16.796875 42 
L 32.296875 42 
L 32.296875 47.015625 
L 16.796875 47.015625 
L 16.796875 60.5 
z
" id="Computer_Modern_Bright-116"/>
      <path d="M 7.90625 39.015625 
C 9.59375 39.859375 11 41.09375 12.703125 41.921875 
C 15.40625 43.15625 18.203125 44 21.203125 44 
C 22.59375 44.09375 24.203125 44.296875 25.59375 44 
C 28.09375 43.59375 30.296875 42.078125 31.796875 39.953125 
C 33.296875 37.515625 33.90625 35.390625 33.90625 31.46875 
L 33.90625 27.015625 
C 29.09375 27.015625 24.296875 26.609375 19.703125 25.390625 
C 13.90625 24.078125 7.59375 21.125 5.5 15.84375 
C 3.40625 10.78125 5.59375 4.078125 10.09375 1.03125 
C 12.296875 -0.5 14.90625 -0.5 17.5 -0.296875 
C 21.703125 0 25.90625 1.015625 29.5 3.25 
C 31.203125 4.25 32.90625 5.578125 33.90625 7.296875 
L 34 7.296875 
L 34 0.203125 
L 40.296875 0.203125 
L 40.296875 26.890625 
C 40.296875 29.8125 40.59375 32.953125 40 35.890625 
C 39.40625 39.921875 36.90625 43.265625 34 45.59375 
C 30.59375 48.21875 26.703125 49.109375 21.5 48.71875 
C 16.703125 48.71875 13 47.5 9.40625 45.765625 
C 8.90625 45.5625 7.90625 45.234375 7.59375 44.640625 
C 7.296875 44.21875 7.5 43.515625 7.5 43 
C 7.703125 41.671875 7.796875 40.34375 7.90625 39.015625 
M 33.90625 24 
L 33.90625 16.375 
C 33.90625 14.0625 34 11.953125 32.703125 9.953125 
C 31.59375 8.34375 30.09375 7.234375 28.5 6.4375 
C 22.796875 3.515625 14.09375 4.421875 11.59375 9.25 
C 9.59375 12.75 11.703125 16.875 14.59375 19.1875 
C 18.90625 22.5 27.296875 24 33.90625 24 
" id="Computer_Modern_Bright-97"/>
      <path d="M 60.5 10.875 
C 58.5 9.859375 56.703125 8.453125 54.703125 7.453125 
C 50 5.046875 44 4.140625 37.5 4.734375 
C 31.703125 5.546875 26.90625 8.359375 23.40625 11.875 
C 12.203125 23.15625 11.40625 42.96875 21.296875 55.34375 
C 25.5 60.875 31.90625 65 41.296875 65 
C 45.09375 65 49 64.296875 52.5 62.890625 
C 54.59375 61.96875 56.59375 60.765625 58.59375 59.765625 
L 59.796875 66.8125 
C 57.59375 67.671875 55.296875 68.5625 53 69.09375 
C 47.40625 70.625 38.90625 70.625 33.09375 69.21875 
C 22.90625 66.921875 15.5 59.828125 11.296875 51.625 
C 5.5 40.015625 6.203125 25.515625 13.203125 14.59375 
C 15 11.703125 17.296875 9.109375 19.90625 6.890625 
C 25.90625 1.6875 33.296875 -1.3125 43.59375 -0.5 
C 49.796875 -0.5 53.40625 0.515625 58.203125 3.203125 
C 58.703125 3.5 60.59375 4.515625 60.90625 4.9375 
C 61.09375 5.4375 60.59375 9.53125 60.5 10.875 
" id="Computer_Modern_Bright-67"/>
      <path d="M 10.703125 42.078125 
C 1.796875 33.234375 0.796875 17.875 8.5 7.9375 
C 9.59375 6.421875 10.90625 5.125 12.40625 4.015625 
C 16.09375 1 21.5 -1.203125 27.796875 -0.5 
C 37.796875 0.703125 44.703125 8.84375 46.796875 17.375 
C 49.59375 29.328125 43.703125 42.671875 32.703125 46.890625 
C 24.09375 50.40625 15.5 46.890625 10.703125 42.078125 
M 35.703125 39.359375 
C 40.5 35.03125 41.40625 28.109375 41 21.984375 
C 40.703125 17.265625 39.40625 12.34375 36.09375 8.828125 
C 30.703125 3 20.703125 3 14.90625 8.625 
C 11.90625 11.84375 10.09375 16.453125 9.796875 21.984375 
C 9.296875 30.109375 11.296875 38.75 19.296875 41.96875 
C 25.203125 44.578125 32 42.671875 35.703125 39.359375 
" id="Computer_Modern_Bright-111"/>
      <path d="M 41.796875 10.9375 
C 39.5 9.234375 38.796875 8.328125 35.90625 6.8125 
C 29.796875 3.5 22.59375 3.5 17.40625 7.171875 
C 12.40625 10.765625 9.5 16.640625 9.5 25 
L 42.5 25 
C 42.5 32.421875 40.796875 38.859375 36.59375 43.375 
C 32 47.890625 24.796875 49.296875 18.703125 47.390625 
C 16.40625 46.6875 14.296875 45.484375 12.40625 43.96875 
C 6.09375 38.859375 3.40625 30.71875 3.5 22.78125 
C 3.703125 12.34375 10.796875 1.90625 21.296875 -0.3125 
C 26.796875 -1.421875 32.59375 -0.203125 37.5 2.296875 
C 38.40625 2.796875 41.703125 4.609375 42.09375 5.515625 
C 42.40625 6.015625 41.796875 10.9375 41.796875 10.9375 
M 37.203125 28.90625 
L 10 28.90625 
C 11.203125 36.234375 17.203125 43.96875 25.296875 43.0625 
C 31.90625 42.46875 35.40625 37.75 36.703125 31.828125 
C 36.90625 30.8125 37 29.921875 37.203125 28.90625 
" id="Computer_Modern_Bright-101"/>
      <path d="M 10.59375 47.015625 
L 2 47.015625 
L 2 42 
L 10.59375 42 
L 10.59375 0 
L 16.90625 0 
L 16.90625 42 
L 30.09375 42 
L 30.09375 47.015625 
L 16.796875 47.015625 
L 16.796875 56.234375 
C 16.796875 57.890625 16.59375 59.65625 17.296875 61.21875 
C 19.5 65.875 25.40625 65.875 29.59375 65.078125 
C 30.59375 64.875 31.703125 64.46875 32.703125 64.265625 
L 32.703125 69.90625 
C 27.703125 70.609375 22.296875 71.21875 17.703125 68.46875 
C 15.796875 67.4375 14.203125 65.6875 13 63.921875 
C 11.09375 60.9375 10.59375 58.78125 10.59375 53.71875 
z
M 38.09375 0 
L 44.40625 0 
L 44.40625 42 
L 57.59375 42 
L 57.59375 47.015625 
L 44.296875 47.015625 
L 44.296875 55.234375 
C 44.296875 56.890625 44.09375 58.65625 44.40625 60.328125 
C 44.90625 62.296875 46.09375 63.65625 47.703125 64.671875 
C 50.796875 66.171875 54.40625 65.078125 57.59375 64.171875 
L 57.59375 70 
C 55.09375 70.1875 52.703125 70.6875 50.203125 70.5 
C 43.40625 70 38.59375 64.046875 38.09375 57.3125 
C 38 55.890625 38.09375 54.375 38.09375 52.96875 
z
M 65.59375 70 
L 65.59375 63.671875 
L 71.90625 63.671875 
L 71.90625 70 
z
M 65.59375 47.390625 
L 65.59375 0 
L 71.90625 0 
L 71.90625 47.390625 
z
" id="Computer_Modern_Bright-14"/>
      <path d="M 42.40625 11.25 
C 40.5 9.84375 38.796875 8.328125 36.703125 7.125 
C 32 4.625 24.796875 3.421875 19.40625 5.921875 
C 11.59375 9.9375 9.5 19.6875 10.59375 27.71875 
C 10.796875 29.328125 11.09375 30.921875 11.59375 32.4375 
C 13.796875 38.96875 19.296875 44.078125 28.296875 43.078125 
C 33.09375 42.671875 35.5 41.875 39.296875 39.765625 
C 40 39.359375 40.59375 38.859375 41.40625 38.65625 
C 41.5 39.859375 41.796875 41.171875 42 42.375 
C 42.296875 43.984375 42.296875 44.1875 40.796875 44.890625 
C 39.703125 45.390625 38.59375 45.984375 37.40625 46.390625 
C 32.796875 48.40625 25.203125 49 20 47.5 
C 12.90625 45.484375 7.59375 39.359375 5.296875 32.53125 
C 4.203125 29.421875 3.90625 26.109375 3.90625 22.796875 
C 4 12.25 11.203125 1.90625 21.703125 -0.203125 
C 27.5 -1.40625 34.203125 0.296875 38.203125 2.40625 
C 39.203125 2.90625 42.203125 4.71875 42.703125 5.625 
C 43 6.125 42.40625 11.25 42.40625 11.25 
" id="Computer_Modern_Bright-99"/>
      <path d="M 12.59375 37.28125 
L 12.5 37.28125 
L 12.5 47.390625 
L 6.40625 47.390625 
L 6.40625 0 
L 12.796875 0 
L 12.796875 21.9375 
C 12.796875 26.84375 12.5 31.875 14.703125 36.46875 
C 15.796875 38.78125 17.5 40.78125 19.796875 41.984375 
C 21.703125 42.890625 23.703125 42.890625 25.796875 42.6875 
C 28.796875 42.6875 31.703125 41.890625 33.59375 39.375 
C 35.40625 37.0625 35.5 34.0625 35.5 31.25 
L 35.5 0 
L 41.90625 0 
L 41.90625 26.859375 
C 41.90625 31.875 42.40625 37.375 40 41.890625 
C 38.09375 45.5 34.40625 47.203125 30.5 47.703125 
C 28.5 48 26.40625 48 24.40625 47.609375 
C 19.203125 46.5 14.40625 42.296875 12.59375 37.28125 
" id="Computer_Modern_Bright-110"/>
     </defs>
     <g style="fill:#262626;" transform="translate(201.022873 343.359582)scale(0.18 -0.18)">
      <use transform="scale(0.996264)" xlink:href="#Computer_Modern_Bright-69"/>
      <use transform="translate(58.737787 0)scale(0.996264)" xlink:href="#Computer_Modern_Bright-112"/>
      <use transform="translate(106.890284 0)scale(0.996264)" xlink:href="#Computer_Modern_Bright-105"/>
      <use transform="translate(125.985243 0)scale(0.996264)" xlink:href="#Computer_Modern_Bright-115"/>
      <use transform="translate(164.424272 0)scale(0.996264)" xlink:href="#Computer_Modern_Bright-116"/>
      <use transform="translate(200.53866 0)scale(0.996264)" xlink:href="#Computer_Modern_Bright-97"/>
      <use transform="translate(247.030742 0)scale(0.996264)" xlink:href="#Computer_Modern_Bright-115"/>
      <use transform="translate(285.469772 0)scale(0.996264)" xlink:href="#Computer_Modern_Bright-105"/>
      <use transform="translate(304.56473 0)scale(0.996264)" xlink:href="#Computer_Modern_Bright-115"/>
      <use transform="translate(374.468971 0)scale(0.996264)" xlink:href="#Computer_Modern_Bright-67"/>
      <use transform="translate(439.641004 0)scale(0.996264)" xlink:href="#Computer_Modern_Bright-111"/>
      <use transform="translate(490.284222 0)scale(0.996264)" xlink:href="#Computer_Modern_Bright-101"/>
      <use transform="translate(535.115889 0)scale(0.996264)" xlink:href="#Computer_Modern_Bright-14"/>
      <use transform="translate(613.156322 0)scale(0.996264)" xlink:href="#Computer_Modern_Bright-99"/>
      <use transform="translate(657.987989 0)scale(0.996264)" xlink:href="#Computer_Modern_Bright-105"/>
      <use transform="translate(677.082948 0)scale(0.996264)" xlink:href="#Computer_Modern_Bright-101"/>
      <use transform="translate(721.914616 0)scale(0.996264)" xlink:href="#Computer_Modern_Bright-110"/>
      <use transform="translate(770.067113 0)scale(0.996264)" xlink:href="#Computer_Modern_Bright-116"/>
     </g>
    </g>
   </g>
   <g id="matplotlib.axis_2">
    <g id="ytick_1">
     <g id="line2d_7"/>
     <g id="text_8">
      <!-- $0$ -->
      <g style="fill:#262626;" transform="translate(35.010613 298.124802)scale(0.16 -0.16)">
       <use transform="scale(0.996264)" xlink:href="#Computer_Modern_Bright-48"/>
      </g>
     </g>
    </g>
    <g id="ytick_2">
     <g id="line2d_8"/>
     <g id="text_9">
      <!-- $20$ -->
      <g style="fill:#262626;" transform="translate(26.642062 233.779448)scale(0.16 -0.16)">
       <use transform="scale(0.996264)" xlink:href="#Computer_Modern_Bright-50"/>
       <use transform="translate(50.643218 0)scale(0.996264)" xlink:href="#Computer_Modern_Bright-48"/>
      </g>
     </g>
    </g>
    <g id="ytick_3">
     <g id="line2d_9"/>
     <g id="text_10">
      <!-- $40$ -->
      <g style="fill:#262626;" transform="translate(26.642062 169.434095)scale(0.16 -0.16)">
       <use transform="scale(0.996264)" xlink:href="#Computer_Modern_Bright-52"/>
       <use transform="translate(50.643218 0)scale(0.996264)" xlink:href="#Computer_Modern_Bright-48"/>
      </g>
     </g>
    </g>
    <g id="ytick_4">
     <g id="line2d_10"/>
     <g id="text_11">
      <!-- $60$ -->
      <g style="fill:#262626;" transform="translate(26.642062 105.088741)scale(0.16 -0.16)">
       <use transform="scale(0.996264)" xlink:href="#Computer_Modern_Bright-54"/>
       <use transform="translate(50.643218 0)scale(0.996264)" xlink:href="#Computer_Modern_Bright-48"/>
      </g>
     </g>
    </g>
    <g id="ytick_5">
     <g id="line2d_11"/>
     <g id="text_12">
      <!-- $80$ -->
      <g style="fill:#262626;" transform="translate(26.642062 40.743388)scale(0.16 -0.16)">
       <use transform="scale(0.996264)" xlink:href="#Computer_Modern_Bright-56"/>
       <use transform="translate(50.643218 0)scale(0.996264)" xlink:href="#Computer_Modern_Bright-48"/>
      </g>
     </g>
    </g>
    <g id="text_13">
     <!-- Cumulative Density Function -->
     <defs>
      <path d="M 6.40625 47 
L 6.40625 12.96875 
C 6.40625 10.046875 6.5 7.140625 7.703125 4.421875 
C 9.59375 0.515625 13.59375 -1 17.703125 -1 
C 23.203125 -1 28.703125 0.8125 32.703125 4.734375 
C 33.796875 5.828125 34.796875 6.9375 35.5 8.34375 
L 35.59375 8.34375 
L 35.59375 -0.390625 
L 41.90625 -0.390625 
L 41.90625 47 
L 35.5 47 
L 35.5 22.90625 
C 35.5 18.6875 36.09375 14.0625 33.90625 10.25 
C 32.296875 7.4375 29.5 5.234375 26.40625 4.234375 
C 24.296875 3.625 22.09375 3.625 19.90625 3.828125 
C 17.796875 4.03125 15.5 4.234375 14.09375 6.03125 
C 12.09375 8.453125 12.796875 14.171875 12.796875 17.6875 
L 12.796875 47 
z
" id="Computer_Modern_Bright-117"/>
      <path d="M 12.59375 37.359375 
L 12.5 37.359375 
L 12.5 47.390625 
L 6.40625 47.390625 
L 6.40625 0 
L 12.796875 0 
L 12.796875 22.046875 
C 12.796875 26.953125 12.5 31.875 14.703125 36.375 
C 16.59375 40.28125 19.90625 43.390625 25.796875 42.78125 
C 28.796875 42.78125 31.796875 41.984375 33.703125 39.453125 
C 35.5 37.140625 35.59375 34.140625 35.59375 31.3125 
L 35.59375 0 
L 42 0 
L 42 22.046875 
C 42 26.953125 41.703125 31.875 43.90625 36.375 
C 45.796875 40.28125 49.09375 43.390625 55 42.78125 
C 58 42.78125 61 41.984375 62.90625 39.453125 
C 64.703125 37.140625 64.796875 34.140625 64.796875 31.3125 
L 64.796875 0 
L 71.203125 0 
L 71.203125 26.5625 
C 71.203125 31.375 71.796875 36.78125 69.703125 41.1875 
C 67.59375 45.296875 64.203125 47.5 58.703125 47.5 
C 55.5 47.796875 52.296875 47.3125 49.40625 45.84375 
C 45.90625 43.921875 43.296875 40.75 41.703125 37.265625 
C 41 40.578125 40.203125 42.828125 38 45 
C 35.703125 47.0625 32.59375 48 29.59375 48 
C 22.296875 48.59375 17.703125 45.5625 14.59375 41 
C 13.796875 39.875 13 38.671875 12.59375 37.359375 
" id="Computer_Modern_Bright-109"/>
      <path d="M 6.40625 69.6875 
L 6.40625 0 
L 12.703125 0 
L 12.703125 69.6875 
z
" id="Computer_Modern_Bright-108"/>
      <path d="M 0.703125 47.5 
C 1.203125 45.5 4.203125 37.578125 4.40625 37.078125 
C 5.40625 34.28125 17.296875 0.609375 17.59375 0.296875 
C 17.90625 -0.203125 18.796875 0 19.296875 0 
L 22.796875 0 
C 24.09375 0 24.90625 -0.296875 25.203125 0.90625 
C 28.40625 9.328125 40.09375 42.703125 41.796875 47.5 
L 35.59375 47.5 
C 30.796875 33.984375 25.90625 20.4375 21.40625 6.609375 
L 11 36.203125 
C 9.5 39.796875 8.59375 43.890625 6.90625 47.203125 
C 5.09375 47.5 2.796875 47.5 0.703125 47.5 
" id="Computer_Modern_Bright-118"/>
      <path d="M 8 70 
L 8 0 
L 28.203125 0 
C 31.40625 0 34.59375 0 37.703125 0.296875 
C 45.703125 1.109375 52.59375 5.015625 57.203125 9.828125 
C 70.09375 23.171875 70 46.125 57.296875 59.671875 
C 52.703125 64.578125 46.5 68.5 38.703125 69.5 
C 34.90625 70 31 70 27.203125 70 
z
M 14.90625 5.3125 
L 14.90625 64.5625 
L 27.796875 64.5625 
C 30.5 64.5625 33.203125 64.5625 35.90625 64.359375 
C 40.40625 63.859375 44.796875 62.359375 48.5 59.734375 
C 56.59375 54.125 60 44.171875 60 34.640625 
C 60 26.609375 57.796875 18.375 51.90625 12.640625 
C 47.90625 8.9375 42.5 6.21875 36 5.515625 
C 33.40625 5.3125 30.703125 5.3125 28.09375 5.3125 
z
" id="Computer_Modern_Bright-68"/>
      <path d="M 0.703125 47.65625 
C 1.296875 45.75 5.40625 35.609375 5.5 35.3125 
L 17.40625 4.578125 
L 18.40625 2.078125 
C 19 0.671875 19.203125 0.46875 18.59375 -1.140625 
L 17.5 -4.046875 
C 16.59375 -6.46875 15.59375 -8.96875 13.703125 -10.484375 
C 10.296875 -13.296875 4.90625 -11.6875 0.796875 -10.78125 
L 1.296875 -16.5 
C 3.203125 -16.796875 5.09375 -17 7 -17 
C 11.296875 -17.515625 14.09375 -16.5 16.703125 -14.296875 
C 20 -11.484375 21.59375 -7.5625 23.09375 -3.546875 
L 26.203125 5.078125 
L 36.40625 32.90625 
C 38.09375 37.921875 40.203125 42.640625 41.796875 47.65625 
L 37.296875 47.65625 
C 36.796875 47.65625 36 47.859375 35.59375 47.46875 
C 35.40625 47.15625 35.296875 46.765625 35.203125 46.453125 
L 34.40625 44.34375 
C 33.40625 41.734375 32.5 39.234375 31.59375 36.609375 
L 25.796875 20.25 
C 24.296875 15.828125 22.59375 11.3125 21.796875 6.6875 
C 20.703125 11.3125 19.203125 15.734375 17.59375 20.140625 
C 16.296875 23.5625 8.5 44.546875 7.5 46.5625 
C 7.09375 47.65625 6.703125 47.65625 5.203125 47.65625 
z
" id="Computer_Modern_Bright-121"/>
      <path d="M 8 69.328125 
L 8 0 
L 15 0 
L 15 32 
L 48.09375 32 
L 48.09375 37.3125 
L 15 37.3125 
L 15 64 
L 52.40625 64 
L 52.40625 69.328125 
z
" id="Computer_Modern_Bright-70"/>
     </defs>
     <g style="fill:#262626;" transform="translate(19.65327 260.669538)rotate(-90)scale(0.18 -0.18)">
      <use transform="scale(0.996264)" xlink:href="#Computer_Modern_Bright-67"/>
      <use transform="translate(65.172032 0)scale(0.996264)" xlink:href="#Computer_Modern_Bright-117"/>
      <use transform="translate(113.324529 0)scale(0.996264)" xlink:href="#Computer_Modern_Bright-109"/>
      <use transform="translate(190.534656 0)scale(0.996264)" xlink:href="#Computer_Modern_Bright-117"/>
      <use transform="translate(238.687153 0)scale(0.996264)" xlink:href="#Computer_Modern_Bright-108"/>
      <use transform="translate(257.782112 0)scale(0.996264)" xlink:href="#Computer_Modern_Bright-97"/>
      <use transform="translate(304.274194 0)scale(0.996264)" xlink:href="#Computer_Modern_Bright-116"/>
      <use transform="translate(340.388582 0)scale(0.996264)" xlink:href="#Computer_Modern_Bright-105"/>
      <use transform="translate(359.483541 0)scale(0.996264)" xlink:href="#Computer_Modern_Bright-118"/>
      <use transform="translate(401.824579 0)scale(0.996264)" xlink:href="#Computer_Modern_Bright-101"/>
      <use transform="translate(478.121458 0)scale(0.996264)" xlink:href="#Computer_Modern_Bright-68"/>
      <use transform="translate(549.727645 0)scale(0.996264)" xlink:href="#Computer_Modern_Bright-101"/>
      <use transform="translate(594.559312 0)scale(0.996264)" xlink:href="#Computer_Modern_Bright-110"/>
      <use transform="translate(642.711809 0)scale(0.996264)" xlink:href="#Computer_Modern_Bright-115"/>
      <use transform="translate(681.150839 0)scale(0.996264)" xlink:href="#Computer_Modern_Bright-105"/>
      <use transform="translate(700.245798 0)scale(0.996264)" xlink:href="#Computer_Modern_Bright-116"/>
      <use transform="translate(733.454456 0)scale(0.996264)" xlink:href="#Computer_Modern_Bright-121"/>
      <use transform="translate(807.260706 0)scale(0.996264)" xlink:href="#Computer_Modern_Bright-70"/>
      <use transform="translate(860.187034 0)scale(0.996264)" xlink:href="#Computer_Modern_Bright-117"/>
      <use transform="translate(908.339531 0)scale(0.996264)" xlink:href="#Computer_Modern_Bright-110"/>
      <use transform="translate(956.492028 0)scale(0.996264)" xlink:href="#Computer_Modern_Bright-99"/>
      <use transform="translate(1001.323695 0)scale(0.996264)" xlink:href="#Computer_Modern_Bright-116"/>
      <use transform="translate(1037.438083 0)scale(0.996264)" xlink:href="#Computer_Modern_Bright-105"/>
      <use transform="translate(1056.533042 0)scale(0.996264)" xlink:href="#Computer_Modern_Bright-111"/>
      <use transform="translate(1107.17626 0)scale(0.996264)" xlink:href="#Computer_Modern_Bright-110"/>
     </g>
    </g>
   </g>
   <g id="PolyCollection_1">
    <path clip-path="url(#pdaf76add3e)" d="M 270.873699 292.588153 
L 270.873699 292.59 
L 271.313116 292.59 
L 271.752533 292.59 
L 272.19195 292.59 
L 272.631367 292.59 
L 273.070784 292.59 
L 273.510201 292.59 
L 273.949617 292.59 
L 274.389034 292.59 
L 274.828451 292.59 
L 275.267868 292.59 
L 275.707285 292.59 
L 276.146702 292.59 
L 276.586119 292.59 
L 277.025536 292.59 
L 277.464953 292.59 
L 277.90437 292.59 
L 278.343787 292.59 
L 278.783204 292.59 
L 279.22262 292.59 
L 279.662037 292.59 
L 280.101454 292.59 
L 280.540871 292.59 
L 280.980288 292.59 
L 281.419705 292.59 
L 281.859122 292.59 
L 282.298539 292.59 
L 282.737956 292.59 
L 283.177373 292.59 
L 283.61679 292.59 
L 284.056206 292.59 
L 284.495623 292.59 
L 284.93504 292.59 
L 285.374457 292.59 
L 285.813874 292.59 
L 286.253291 292.59 
L 286.692708 292.59 
L 287.132125 292.59 
L 287.571542 292.59 
L 288.010959 292.59 
L 288.450376 292.59 
L 288.889793 292.59 
L 289.329209 292.59 
L 289.768626 292.59 
L 290.208043 292.59 
L 290.64746 292.59 
L 291.086877 292.59 
L 291.526294 292.59 
L 291.965711 292.59 
L 292.405128 292.59 
L 292.844545 292.59 
L 293.283962 292.59 
L 293.723379 292.59 
L 294.162795 292.59 
L 294.602212 292.59 
L 295.041629 292.59 
L 295.481046 292.59 
L 295.920463 292.59 
L 296.35988 292.59 
L 296.799297 292.59 
L 297.238714 292.59 
L 297.678131 292.59 
L 298.117548 292.59 
L 298.556965 292.59 
L 298.996382 292.59 
L 299.435798 292.59 
L 299.875215 292.59 
L 300.314632 292.59 
L 300.754049 292.59 
L 301.193466 292.59 
L 301.632883 292.59 
L 302.0723 292.59 
L 302.511717 292.59 
L 302.951134 292.59 
L 303.390551 292.59 
L 303.829968 292.59 
L 304.269384 292.59 
L 304.708801 292.59 
L 305.148218 292.59 
L 305.587635 292.59 
L 306.027052 292.59 
L 306.466469 292.59 
L 306.905886 292.59 
L 307.345303 292.59 
L 307.78472 292.59 
L 308.224137 292.59 
L 308.663554 292.59 
L 309.102971 292.59 
L 309.542387 292.59 
L 309.981804 292.59 
L 310.421221 292.59 
L 310.860638 292.59 
L 311.300055 292.59 
L 311.739472 292.59 
L 312.178889 292.59 
L 312.618306 292.59 
L 313.057723 292.59 
L 313.49714 292.59 
L 313.936557 292.59 
L 314.375973 292.59 
L 314.81539 292.59 
L 315.254807 292.59 
L 315.694224 292.59 
L 316.133641 292.59 
L 316.573058 292.59 
L 317.012475 292.59 
L 317.451892 292.59 
L 317.891309 292.59 
L 318.330726 292.59 
L 318.770143 292.59 
L 319.209559 292.59 
L 319.648976 292.59 
L 320.088393 292.59 
L 320.52781 292.59 
L 320.967227 292.59 
L 321.406644 292.59 
L 321.846061 292.59 
L 322.285478 292.59 
L 322.724895 292.59 
L 323.164312 292.59 
L 323.603729 292.59 
L 324.043146 292.59 
L 324.482562 292.59 
L 324.921979 292.59 
L 325.361396 292.59 
L 325.800813 292.59 
L 326.24023 292.59 
L 326.679647 292.59 
L 326.679647 292.587038 
L 326.679647 292.587038 
L 326.24023 292.580167 
L 325.800813 292.560418 
L 325.361396 292.515935 
L 324.921979 292.435566 
L 324.482562 292.319429 
L 324.043146 292.185658 
L 323.603729 292.062088 
L 323.164312 291.966476 
L 322.724895 291.894555 
L 322.285478 291.825706 
L 321.846061 291.732827 
L 321.406644 291.584473 
L 320.967227 291.350896 
L 320.52781 291.025889 
L 320.088393 290.64309 
L 319.648976 290.249902 
L 319.209559 289.846118 
L 318.770143 289.35603 
L 318.330726 288.685766 
L 317.891309 287.813504 
L 317.451892 286.805069 
L 317.012475 285.735504 
L 316.573058 284.616439 
L 316.133641 283.417051 
L 315.694224 282.141523 
L 315.254807 280.846217 
L 314.81539 279.547626 
L 314.375973 278.117747 
L 313.936557 276.301984 
L 313.49714 273.858982 
L 313.057723 270.689738 
L 312.618306 266.865892 
L 312.178889 262.5886 
L 311.739472 258.127238 
L 311.300055 253.730179 
L 310.860638 249.511857 
L 310.421221 245.395333 
L 309.981804 241.191886 
L 309.542387 236.777246 
L 309.102971 232.213807 
L 308.663554 227.728634 
L 308.224137 223.598515 
L 307.78472 220.010443 
L 307.345303 216.927338 
L 306.905886 214.053661 
L 306.466469 211.01044 
L 306.027052 207.63586 
L 305.587635 204.147416 
L 305.148218 200.996177 
L 304.708801 198.546552 
L 304.269384 196.923843 
L 303.829968 196.195976 
L 303.390551 196.612852 
L 302.951134 198.51213 
L 302.511717 201.961572 
L 302.0723 206.610366 
L 301.632883 211.945149 
L 301.193466 217.596495 
L 300.754049 223.35346 
L 300.314632 229.034322 
L 299.875215 234.500893 
L 299.435798 239.753147 
L 298.996382 244.883889 
L 298.556965 249.924081 
L 298.117548 254.766685 
L 297.678131 259.21818 
L 297.238714 263.105612 
L 296.799297 266.388076 
L 296.35988 269.22038 
L 295.920463 271.888672 
L 295.481046 274.624729 
L 295.041629 277.448839 
L 294.602212 280.176309 
L 294.162795 282.552851 
L 293.723379 284.394191 
L 293.283962 285.664062 
L 292.844545 286.480525 
L 292.405128 287.046924 
L 291.965711 287.5404 
L 291.526294 288.036474 
L 291.086877 288.517472 
L 290.64746 288.932772 
L 290.208043 289.253144 
L 289.768626 289.497879 
L 289.329209 289.73287 
L 288.889793 290.033672 
L 288.450376 290.432431 
L 288.010959 290.895904 
L 287.571542 291.354001 
L 287.132125 291.746259 
L 286.692708 292.046655 
L 286.253291 292.259388 
L 285.813874 292.402011 
L 285.374457 292.492424 
L 284.93504 292.545082 
L 284.495623 292.572143 
L 284.056206 292.583994 
L 283.61679 292.588315 
L 283.177373 292.589609 
L 282.737956 292.589926 
L 282.298539 292.589988 
L 281.859122 292.589998 
L 281.419705 292.589992 
L 280.980288 292.589949 
L 280.540871 292.589732 
L 280.101454 292.588858 
L 279.662037 292.586034 
L 279.22262 292.578771 
L 278.783204 292.564074 
L 278.343787 292.541186 
L 277.90437 292.515058 
L 277.464953 292.496173 
L 277.025536 292.494079 
L 276.586119 292.509286 
L 276.146702 292.531837 
L 275.707285 292.54802 
L 275.267868 292.548642 
L 274.828451 292.533383 
L 274.389034 292.510894 
L 273.949617 292.494758 
L 273.510201 292.495461 
L 273.070784 292.513343 
L 272.631367 292.539318 
L 272.19195 292.562689 
L 271.752533 292.577994 
L 271.313116 292.585602 
L 270.873699 292.588153 
z
" style="fill:#33a02c;fill-opacity:0.25;"/>
   </g>
   <g id="PolyCollection_2">
    <path clip-path="url(#pdaf76add3e)" d="M 244.775224 292.586901 
L 244.775224 292.59 
L 244.960543 292.59 
L 245.145862 292.59 
L 245.331182 292.59 
L 245.516501 292.59 
L 245.70182 292.59 
L 245.887139 292.59 
L 246.072459 292.59 
L 246.257778 292.59 
L 246.443097 292.59 
L 246.628416 292.59 
L 246.813736 292.59 
L 246.999055 292.59 
L 247.184374 292.59 
L 247.369693 292.59 
L 247.555013 292.59 
L 247.740332 292.59 
L 247.925651 292.59 
L 248.110971 292.59 
L 248.29629 292.59 
L 248.481609 292.59 
L 248.666928 292.59 
L 248.852248 292.59 
L 249.037567 292.59 
L 249.222886 292.59 
L 249.408205 292.59 
L 249.593525 292.59 
L 249.778844 292.59 
L 249.964163 292.59 
L 250.149483 292.59 
L 250.334802 292.59 
L 250.520121 292.59 
L 250.70544 292.59 
L 250.89076 292.59 
L 251.076079 292.59 
L 251.261398 292.59 
L 251.446717 292.59 
L 251.632037 292.59 
L 251.817356 292.59 
L 252.002675 292.59 
L 252.187994 292.59 
L 252.373314 292.59 
L 252.558633 292.59 
L 252.743952 292.59 
L 252.929272 292.59 
L 253.114591 292.59 
L 253.29991 292.59 
L 253.485229 292.59 
L 253.670549 292.59 
L 253.855868 292.59 
L 254.041187 292.59 
L 254.226506 292.59 
L 254.411826 292.59 
L 254.597145 292.59 
L 254.782464 292.59 
L 254.967783 292.59 
L 255.153103 292.59 
L 255.338422 292.59 
L 255.523741 292.59 
L 255.709061 292.59 
L 255.89438 292.59 
L 256.079699 292.59 
L 256.265018 292.59 
L 256.450338 292.59 
L 256.635657 292.59 
L 256.820976 292.59 
L 257.006295 292.59 
L 257.191615 292.59 
L 257.376934 292.59 
L 257.562253 292.59 
L 257.747573 292.59 
L 257.932892 292.59 
L 258.118211 292.59 
L 258.30353 292.59 
L 258.48885 292.59 
L 258.674169 292.59 
L 258.859488 292.59 
L 259.044807 292.59 
L 259.230127 292.59 
L 259.415446 292.59 
L 259.600765 292.59 
L 259.786084 292.59 
L 259.971404 292.59 
L 260.156723 292.59 
L 260.342042 292.59 
L 260.527362 292.59 
L 260.712681 292.59 
L 260.898 292.59 
L 261.083319 292.59 
L 261.268639 292.59 
L 261.453958 292.59 
L 261.639277 292.59 
L 261.824596 292.59 
L 262.009916 292.59 
L 262.195235 292.59 
L 262.380554 292.59 
L 262.565874 292.59 
L 262.751193 292.59 
L 262.936512 292.59 
L 263.121831 292.59 
L 263.307151 292.59 
L 263.49247 292.59 
L 263.677789 292.59 
L 263.863108 292.59 
L 264.048428 292.59 
L 264.233747 292.59 
L 264.419066 292.59 
L 264.604385 292.59 
L 264.789705 292.59 
L 264.975024 292.59 
L 265.160343 292.59 
L 265.345663 292.59 
L 265.530982 292.59 
L 265.716301 292.59 
L 265.90162 292.59 
L 266.08694 292.59 
L 266.272259 292.59 
L 266.457578 292.59 
L 266.642897 292.59 
L 266.828217 292.59 
L 267.013536 292.59 
L 267.198855 292.59 
L 267.384175 292.59 
L 267.569494 292.59 
L 267.754813 292.59 
L 267.940132 292.59 
L 268.125452 292.59 
L 268.310771 292.59 
L 268.310771 292.587073 
L 268.310771 292.587073 
L 268.125452 292.584206 
L 267.940132 292.576891 
L 267.754813 292.562363 
L 267.569494 292.537122 
L 267.384175 292.498115 
L 267.198855 292.444136 
L 267.013536 292.376564 
L 266.828217 292.298483 
L 266.642897 292.212171 
L 266.457578 292.116403 
L 266.272259 292.005818 
L 266.08694 291.87385 
L 265.90162 291.718197 
L 265.716301 291.544991 
L 265.530982 291.367024 
L 265.345663 291.194214 
L 265.160343 291.019909 
L 264.975024 290.810664 
L 264.789705 290.506147 
L 264.604385 290.030552 
L 264.419066 289.3115 
L 264.233747 288.300096 
L 264.048428 286.986012 
L 263.863108 285.402909 
L 263.677789 283.621782 
L 263.49247 281.732817 
L 263.307151 279.818625 
L 263.121831 277.922879 
L 262.936512 276.021084 
L 262.751193 274.005507 
L 262.565874 271.698678 
L 262.380554 268.900358 
L 262.195235 265.451989 
L 262.009916 261.285742 
L 261.824596 256.429953 
L 261.639277 250.970003 
L 261.453958 244.993276 
L 261.268639 238.554579 
L 261.083319 231.679653 
L 260.898 224.398306 
L 260.712681 216.785893 
L 260.527362 208.993319 
L 260.342042 201.248335 
L 260.156723 193.814523 
L 259.971404 186.912923 
L 259.786084 180.643636 
L 259.600765 174.959262 
L 259.415446 169.711658 
L 259.230127 164.738631 
L 259.044807 159.930627 
L 258.859488 155.244582 
L 258.674169 150.681251 
L 258.48885 146.264805 
L 258.30353 142.046492 
L 258.118211 138.124172 
L 257.932892 134.654196 
L 257.747573 131.836576 
L 257.562253 129.870394 
L 257.376934 128.89597 
L 257.191615 128.953226 
L 257.006295 129.979889 
L 256.820976 131.849048 
L 256.635657 134.422004 
L 256.450338 137.587594 
L 256.265018 141.271641 
L 256.079699 145.416078 
L 255.89438 149.940958 
L 255.709061 154.714247 
L 255.523741 159.556458 
L 255.338422 164.288466 
L 255.153103 168.798429 
L 254.967783 173.084947 
L 254.782464 177.247871 
L 254.597145 181.43479 
L 254.411826 185.779637 
L 254.226506 190.368994 
L 254.041187 195.245521 
L 253.855868 200.428777 
L 253.670549 205.924043 
L 253.485229 211.706489 
L 253.29991 217.696464 
L 253.114591 223.756176 
L 252.929272 229.723275 
L 252.743952 235.463822 
L 252.558633 240.905769 
L 252.373314 246.026866 
L 252.187994 250.80941 
L 252.002675 255.204352 
L 251.817356 259.139967 
L 251.632037 262.570925 
L 251.446717 265.526882 
L 251.261398 268.118028 
L 251.076079 270.488691 
L 250.89076 272.749956 
L 250.70544 274.936395 
L 250.520121 277.011818 
L 250.334802 278.913374 
L 250.149483 280.600332 
L 249.964163 282.07767 
L 249.778844 283.386963 
L 249.593525 284.57812 
L 249.408205 285.682183 
L 249.222886 286.699048 
L 249.037567 287.603714 
L 248.852248 288.366215 
L 248.666928 288.974317 
L 248.481609 289.445886 
L 248.29629 289.82301 
L 248.110971 290.151953 
L 247.925651 290.463014 
L 247.740332 290.76326 
L 247.555013 291.043903 
L 247.369693 291.293481 
L 247.184374 291.50688 
L 246.999055 291.686848 
L 246.813736 291.840875 
L 246.628416 291.977273 
L 246.443097 292.102153 
L 246.257778 292.217616 
L 246.072459 292.321624 
L 245.887139 292.409848 
L 245.70182 292.47859 
L 245.516501 292.527044 
L 245.331182 292.557673 
L 245.145862 292.574936 
L 244.960543 292.583492 
L 244.775224 292.586901 
z
" style="fill-opacity:0.25;"/>
   </g>
   <g id="PolyCollection_3">
    <path clip-path="url(#pdaf76add3e)" d="M 456.33381 292.584828 
L 456.33381 292.59 
L 456.492506 292.59 
L 456.651203 292.59 
L 456.809899 292.59 
L 456.968596 292.59 
L 457.127292 292.59 
L 457.285989 292.59 
L 457.444685 292.59 
L 457.603381 292.59 
L 457.762078 292.59 
L 457.920774 292.59 
L 458.079471 292.59 
L 458.238167 292.59 
L 458.396863 292.59 
L 458.55556 292.59 
L 458.714256 292.59 
L 458.872953 292.59 
L 459.031649 292.59 
L 459.190345 292.59 
L 459.349042 292.59 
L 459.507738 292.59 
L 459.666435 292.59 
L 459.825131 292.59 
L 459.983828 292.59 
L 460.142524 292.59 
L 460.30122 292.59 
L 460.459917 292.59 
L 460.618613 292.59 
L 460.77731 292.59 
L 460.936006 292.59 
L 461.094702 292.59 
L 461.253399 292.59 
L 461.412095 292.59 
L 461.570792 292.59 
L 461.729488 292.59 
L 461.888184 292.59 
L 462.046881 292.59 
L 462.205577 292.59 
L 462.364274 292.59 
L 462.52297 292.59 
L 462.681666 292.59 
L 462.840363 292.59 
L 462.999059 292.59 
L 463.157756 292.59 
L 463.316452 292.59 
L 463.475149 292.59 
L 463.633845 292.59 
L 463.792541 292.59 
L 463.951238 292.59 
L 464.109934 292.59 
L 464.268631 292.59 
L 464.427327 292.59 
L 464.586023 292.59 
L 464.74472 292.59 
L 464.903416 292.59 
L 465.062113 292.59 
L 465.220809 292.59 
L 465.379505 292.59 
L 465.538202 292.59 
L 465.696898 292.59 
L 465.855595 292.59 
L 466.014291 292.59 
L 466.172988 292.59 
L 466.331684 292.59 
L 466.49038 292.59 
L 466.649077 292.59 
L 466.807773 292.59 
L 466.96647 292.59 
L 467.125166 292.59 
L 467.283862 292.59 
L 467.442559 292.59 
L 467.601255 292.59 
L 467.759952 292.59 
L 467.918648 292.59 
L 468.077344 292.59 
L 468.236041 292.59 
L 468.394737 292.59 
L 468.553434 292.59 
L 468.71213 292.59 
L 468.870827 292.59 
L 469.029523 292.59 
L 469.188219 292.59 
L 469.346916 292.59 
L 469.505612 292.59 
L 469.664309 292.59 
L 469.823005 292.59 
L 469.981701 292.59 
L 470.140398 292.59 
L 470.299094 292.59 
L 470.457791 292.59 
L 470.616487 292.59 
L 470.775183 292.59 
L 470.93388 292.59 
L 471.092576 292.59 
L 471.251273 292.59 
L 471.409969 292.59 
L 471.568666 292.59 
L 471.727362 292.59 
L 471.886058 292.59 
L 472.044755 292.59 
L 472.203451 292.59 
L 472.362148 292.59 
L 472.520844 292.59 
L 472.67954 292.59 
L 472.838237 292.59 
L 472.996933 292.59 
L 473.15563 292.59 
L 473.314326 292.59 
L 473.473022 292.59 
L 473.631719 292.59 
L 473.790415 292.59 
L 473.949112 292.59 
L 474.107808 292.59 
L 474.266504 292.59 
L 474.425201 292.59 
L 474.583897 292.59 
L 474.742594 292.59 
L 474.90129 292.59 
L 475.059987 292.59 
L 475.218683 292.59 
L 475.377379 292.59 
L 475.536076 292.59 
L 475.694772 292.59 
L 475.853469 292.59 
L 476.012165 292.59 
L 476.170861 292.59 
L 476.329558 292.59 
L 476.488254 292.59 
L 476.488254 292.585518 
L 476.488254 292.585518 
L 476.329558 292.580326 
L 476.170861 292.566166 
L 476.012165 292.53699 
L 475.853469 292.486252 
L 475.694772 292.411649 
L 475.536076 292.32045 
L 475.377379 292.230991 
L 475.218683 292.166226 
L 475.059987 292.140517 
L 474.90129 292.147652 
L 474.742594 292.159721 
L 474.583897 292.140032 
L 474.425201 292.063298 
L 474.266504 291.930416 
L 474.107808 291.767413 
L 473.949112 291.607484 
L 473.790415 291.466465 
L 473.631719 291.328155 
L 473.473022 291.150942 
L 473.314326 290.893161 
L 473.15563 290.540837 
L 472.996933 290.117609 
L 472.838237 289.666063 
L 472.67954 289.208825 
L 472.520844 288.715599 
L 472.362148 288.104163 
L 472.203451 287.281874 
L 472.044755 286.202003 
L 471.886058 284.893781 
L 471.727362 283.442424 
L 471.568666 281.931508 
L 471.409969 280.382338 
L 471.251273 278.718997 
L 471.092576 276.770958 
L 470.93388 274.316856 
L 470.775183 271.164077 
L 470.616487 267.231694 
L 470.457791 262.57905 
L 470.299094 257.346307 
L 470.140398 251.648466 
L 469.981701 245.515642 
L 469.823005 238.93091 
L 469.664309 231.919392 
L 469.505612 224.596545 
L 469.346916 217.133356 
L 469.188219 209.674848 
L 469.029523 202.279457 
L 468.870827 194.923485 
L 468.71213 187.564499 
L 468.553434 180.204478 
L 468.394737 172.880733 
L 468.236041 165.578566 
L 468.077344 158.156379 
L 467.918648 150.385656 
L 467.759952 142.099951 
L 467.601255 133.333071 
L 467.442559 124.336328 
L 467.283862 115.481443 
L 467.125166 107.146327 
L 466.96647 99.661982 
L 466.807773 93.316383 
L 466.649077 88.360117 
L 466.49038 84.976327 
L 466.331684 83.232044 
L 466.172988 83.061679 
L 466.014291 84.306353 
L 465.855595 86.765685 
L 465.696898 90.1973 
L 465.538202 94.273284 
L 465.379505 98.589553 
L 465.220809 102.797201 
L 465.062113 106.797642 
L 464.903416 110.858822 
L 464.74472 115.548011 
L 464.586023 121.480772 
L 464.427327 128.984958 
L 464.268631 137.854197 
L 464.109934 147.372297 
L 463.951238 156.655276 
L 463.792541 165.124657 
L 463.633845 172.793547 
L 463.475149 180.170368 
L 463.316452 187.87343 
L 463.157756 196.244637 
L 462.999059 205.198428 
L 462.840363 214.33325 
L 462.681666 223.168462 
L 462.52297 231.347992 
L 462.364274 238.724275 
L 462.205577 245.318535 
L 462.046881 251.21201 
L 461.888184 256.450098 
L 461.729488 261.022831 
L 461.570792 264.921727 
L 461.412095 268.209743 
L 461.253399 271.034609 
L 461.094702 273.572098 
L 460.936006 275.948157 
L 460.77731 278.198677 
L 460.618613 280.284491 
L 460.459917 282.137358 
L 460.30122 283.705567 
L 460.142524 284.982957 
L 459.983828 286.015473 
L 459.825131 286.882192 
L 459.666435 287.657516 
L 459.507738 288.377384 
L 459.349042 289.034326 
L 459.190345 289.603519 
L 459.031649 290.074315 
L 458.872953 290.459464 
L 458.714256 290.779805 
L 458.55556 291.046019 
L 458.396863 291.256629 
L 458.238167 291.410878 
L 458.079471 291.521419 
L 457.920774 291.615071 
L 457.762078 291.721407 
L 457.603381 291.857589 
L 457.444685 292.019876 
L 457.285989 292.187387 
L 457.127292 292.335019 
L 456.968596 292.44626 
L 456.809899 292.518215 
L 456.651203 292.558298 
L 456.492506 292.577453 
L 456.33381 292.584828 
z
" style="fill:#ff7f00;fill-opacity:0.25;"/>
   </g>
   <g id="PolyCollection_4">
    <path clip-path="url(#pdaf76add3e)" d="M 273.017072 292.585259 
L 273.017072 292.59 
L 273.144029 292.59 
L 273.270986 292.59 
L 273.397943 292.59 
L 273.5249 292.59 
L 273.651857 292.59 
L 273.778814 292.59 
L 273.905771 292.59 
L 274.032728 292.59 
L 274.159685 292.59 
L 274.286642 292.59 
L 274.413599 292.59 
L 274.540556 292.59 
L 274.667513 292.59 
L 274.79447 292.59 
L 274.921427 292.59 
L 275.048384 292.59 
L 275.175341 292.59 
L 275.302298 292.59 
L 275.429255 292.59 
L 275.556212 292.59 
L 275.683169 292.59 
L 275.810126 292.59 
L 275.937083 292.59 
L 276.06404 292.59 
L 276.190997 292.59 
L 276.317954 292.59 
L 276.444911 292.59 
L 276.571868 292.59 
L 276.698825 292.59 
L 276.825782 292.59 
L 276.952739 292.59 
L 277.079696 292.59 
L 277.206653 292.59 
L 277.33361 292.59 
L 277.460567 292.59 
L 277.587524 292.59 
L 277.714481 292.59 
L 277.841438 292.59 
L 277.968395 292.59 
L 278.095352 292.59 
L 278.222309 292.59 
L 278.349266 292.59 
L 278.476223 292.59 
L 278.60318 292.59 
L 278.730137 292.59 
L 278.857094 292.59 
L 278.984051 292.59 
L 279.111008 292.59 
L 279.237965 292.59 
L 279.364922 292.59 
L 279.491879 292.59 
L 279.618836 292.59 
L 279.745793 292.59 
L 279.87275 292.59 
L 279.999707 292.59 
L 280.126664 292.59 
L 280.253621 292.59 
L 280.380577 292.59 
L 280.507534 292.59 
L 280.634491 292.59 
L 280.761448 292.59 
L 280.888405 292.59 
L 281.015362 292.59 
L 281.142319 292.59 
L 281.269276 292.59 
L 281.396233 292.59 
L 281.52319 292.59 
L 281.650147 292.59 
L 281.777104 292.59 
L 281.904061 292.59 
L 282.031018 292.59 
L 282.157975 292.59 
L 282.284932 292.59 
L 282.411889 292.59 
L 282.538846 292.59 
L 282.665803 292.59 
L 282.79276 292.59 
L 282.919717 292.59 
L 283.046674 292.59 
L 283.173631 292.59 
L 283.300588 292.59 
L 283.427545 292.59 
L 283.554502 292.59 
L 283.681459 292.59 
L 283.808416 292.59 
L 283.935373 292.59 
L 284.06233 292.59 
L 284.189287 292.59 
L 284.316244 292.59 
L 284.443201 292.59 
L 284.570158 292.59 
L 284.697115 292.59 
L 284.824072 292.59 
L 284.951029 292.59 
L 285.077986 292.59 
L 285.204943 292.59 
L 285.3319 292.59 
L 285.458857 292.59 
L 285.585814 292.59 
L 285.712771 292.59 
L 285.839728 292.59 
L 285.966685 292.59 
L 286.093642 292.59 
L 286.220599 292.59 
L 286.347556 292.59 
L 286.474513 292.59 
L 286.60147 292.59 
L 286.728427 292.59 
L 286.855384 292.59 
L 286.982341 292.59 
L 287.109298 292.59 
L 287.236255 292.59 
L 287.363212 292.59 
L 287.490169 292.59 
L 287.617126 292.59 
L 287.744083 292.59 
L 287.87104 292.59 
L 287.997997 292.59 
L 288.124954 292.59 
L 288.251911 292.59 
L 288.378868 292.59 
L 288.505825 292.59 
L 288.632782 292.59 
L 288.759739 292.59 
L 288.886696 292.59 
L 289.013653 292.59 
L 289.14061 292.59 
L 289.14061 292.584792 
L 289.14061 292.584792 
L 289.013653 292.577217 
L 288.886696 292.556994 
L 288.759739 292.513982 
L 288.632782 292.43579 
L 288.505825 292.313288 
L 288.378868 292.147184 
L 288.251911 291.950157 
L 288.124954 291.739666 
L 287.997997 291.522697 
L 287.87104 291.280868 
L 287.744083 290.966333 
L 287.617126 290.514089 
L 287.490169 289.867035 
L 287.363212 289.001514 
L 287.236255 287.939065 
L 287.109298 286.737594 
L 286.982341 285.465961 
L 286.855384 284.172666 
L 286.728427 282.860478 
L 286.60147 281.47381 
L 286.474513 279.893917 
L 286.347556 277.932564 
L 286.220599 275.333637 
L 286.093642 271.815016 
L 285.966685 267.165751 
L 285.839728 261.355831 
L 285.712771 254.577457 
L 285.585814 247.167346 
L 285.458857 239.443799 
L 285.3319 231.567752 
L 285.204943 223.533728 
L 285.077986 215.286813 
L 284.951029 206.829267 
L 284.824072 198.182913 
L 284.697115 189.245241 
L 284.570158 179.724551 
L 284.443201 169.264732 
L 284.316244 157.659663 
L 284.189287 144.982245 
L 284.06233 131.58729 
L 283.935373 118.066856 
L 283.808416 105.169516 
L 283.681459 93.591216 
L 283.554502 83.641409 
L 283.427545 75.012522 
L 283.300588 66.913568 
L 283.173631 58.556539 
L 283.046674 49.677554 
L 282.919717 40.739751 
L 282.79276 32.698672 
L 282.665803 26.493952 
L 282.538846 22.589402 
L 282.411889 20.847386 
L 282.284932 20.79 
L 282.157975 22.000627 
L 282.031018 24.319247 
L 281.904061 27.716938 
L 281.777104 32.070811 
L 281.650147 37.130075 
L 281.52319 42.716261 
L 281.396233 48.951596 
L 281.269276 56.303704 
L 281.142319 65.390297 
L 281.015362 76.628329 
L 280.888405 89.902188 
L 280.761448 104.460784 
L 280.634491 119.158289 
L 280.507534 132.933304 
L 280.380577 145.251857 
L 280.253621 156.267809 
L 280.126664 166.63183 
L 279.999707 177.07035 
L 279.87275 187.97157 
L 279.745793 199.206013 
L 279.618836 210.259182 
L 279.491879 220.552319 
L 279.364922 229.726895 
L 279.237965 237.736238 
L 279.111008 244.746266 
L 278.984051 250.965101 
L 278.857094 256.525948 
L 278.730137 261.466064 
L 278.60318 265.767974 
L 278.476223 269.419064 
L 278.349266 272.469926 
L 278.222309 275.065981 
L 278.095352 277.410289 
L 277.968395 279.659125 
L 277.841438 281.83367 
L 277.714481 283.836413 
L 277.587524 285.557781 
L 277.460567 286.966921 
L 277.33361 288.110485 
L 277.206653 289.04813 
L 277.079696 289.805473 
L 276.952739 290.382585 
L 276.825782 290.78939 
L 276.698825 291.062747 
L 276.571868 291.253481 
L 276.444911 291.405466 
L 276.317954 291.548174 
L 276.190997 291.700402 
L 276.06404 291.870968 
L 275.937083 292.054033 
L 275.810126 292.229705 
L 275.683169 292.375118 
L 275.556212 292.47751 
L 275.429255 292.538629 
L 275.302298 292.569527 
L 275.175341 292.582526 
L 275.048384 292.586163 
L 274.921427 292.583881 
L 274.79447 292.574573 
L 274.667513 292.553822 
L 274.540556 292.516439 
L 274.413599 292.461079 
L 274.286642 292.395309 
L 274.159685 292.336611 
L 274.032728 292.30571 
L 273.905771 292.314959 
L 273.778814 292.360473 
L 273.651857 292.42472 
L 273.5249 292.487267 
L 273.397943 292.534854 
L 273.270986 292.564377 
L 273.144029 292.579464 
L 273.017072 292.585259 
z
" style="fill:#1f78b4;fill-opacity:0.25;"/>
   </g>
   <g id="PolyCollection_5">
    <path clip-path="url(#pdaf76add3e)" d="M 70.670072 292.588197 
L 70.670072 292.59 
L 71.079253 292.59 
L 71.488433 292.59 
L 71.897613 292.59 
L 72.306793 292.59 
L 72.715973 292.59 
L 73.125154 292.59 
L 73.534334 292.59 
L 73.943514 292.59 
L 74.352694 292.59 
L 74.761874 292.59 
L 75.171054 292.59 
L 75.580235 292.59 
L 75.989415 292.59 
L 76.398595 292.59 
L 76.807775 292.59 
L 77.216955 292.59 
L 77.626136 292.59 
L 78.035316 292.59 
L 78.444496 292.59 
L 78.853676 292.59 
L 79.262856 292.59 
L 79.672036 292.59 
L 80.081217 292.59 
L 80.490397 292.59 
L 80.899577 292.59 
L 81.308757 292.59 
L 81.717937 292.59 
L 82.127118 292.59 
L 82.536298 292.59 
L 82.945478 292.59 
L 83.354658 292.59 
L 83.763838 292.59 
L 84.173018 292.59 
L 84.582199 292.59 
L 84.991379 292.59 
L 85.400559 292.59 
L 85.809739 292.59 
L 86.218919 292.59 
L 86.6281 292.59 
L 87.03728 292.59 
L 87.44646 292.59 
L 87.85564 292.59 
L 88.26482 292.59 
L 88.674 292.59 
L 89.083181 292.59 
L 89.492361 292.59 
L 89.901541 292.59 
L 90.310721 292.59 
L 90.719901 292.59 
L 91.129082 292.59 
L 91.538262 292.59 
L 91.947442 292.59 
L 92.356622 292.59 
L 92.765802 292.59 
L 93.174982 292.59 
L 93.584163 292.59 
L 93.993343 292.59 
L 94.402523 292.59 
L 94.811703 292.59 
L 95.220883 292.59 
L 95.630064 292.59 
L 96.039244 292.59 
L 96.448424 292.59 
L 96.857604 292.59 
L 97.266784 292.59 
L 97.675964 292.59 
L 98.085145 292.59 
L 98.494325 292.59 
L 98.903505 292.59 
L 99.312685 292.59 
L 99.721865 292.59 
L 100.131046 292.59 
L 100.540226 292.59 
L 100.949406 292.59 
L 101.358586 292.59 
L 101.767766 292.59 
L 102.176946 292.59 
L 102.586127 292.59 
L 102.995307 292.59 
L 103.404487 292.59 
L 103.813667 292.59 
L 104.222847 292.59 
L 104.632028 292.59 
L 105.041208 292.59 
L 105.450388 292.59 
L 105.859568 292.59 
L 106.268748 292.59 
L 106.677929 292.59 
L 107.087109 292.59 
L 107.496289 292.59 
L 107.905469 292.59 
L 108.314649 292.59 
L 108.723829 292.59 
L 109.13301 292.59 
L 109.54219 292.59 
L 109.95137 292.59 
L 110.36055 292.59 
L 110.76973 292.59 
L 111.178911 292.59 
L 111.588091 292.59 
L 111.997271 292.59 
L 112.406451 292.59 
L 112.815631 292.59 
L 113.224811 292.59 
L 113.633992 292.59 
L 114.043172 292.59 
L 114.452352 292.59 
L 114.861532 292.59 
L 115.270712 292.59 
L 115.679893 292.59 
L 116.089073 292.59 
L 116.498253 292.59 
L 116.907433 292.59 
L 117.316613 292.59 
L 117.725793 292.59 
L 118.134974 292.59 
L 118.544154 292.59 
L 118.953334 292.59 
L 119.362514 292.59 
L 119.771694 292.59 
L 120.180875 292.59 
L 120.590055 292.59 
L 120.999235 292.59 
L 121.408415 292.59 
L 121.817595 292.59 
L 122.226775 292.59 
L 122.635956 292.59 
L 122.635956 292.587334 
L 122.635956 292.587334 
L 122.226775 292.582887 
L 121.817595 292.5717 
L 121.408415 292.548898 
L 120.999235 292.510039 
L 120.590055 292.455053 
L 120.180875 292.391557 
L 119.771694 292.333368 
L 119.362514 292.29253 
L 118.953334 292.269696 
L 118.544154 292.251717 
L 118.134974 292.220493 
L 117.725793 292.166621 
L 117.316613 292.096161 
L 116.907433 292.025155 
L 116.498253 291.96724 
L 116.089073 291.923415 
L 115.679893 291.87831 
L 115.270712 291.80257 
L 114.861532 291.660902 
L 114.452352 291.424951 
L 114.043172 291.085441 
L 113.633992 290.65444 
L 113.224811 290.153141 
L 112.815631 289.591462 
L 112.406451 288.954901 
L 111.997271 288.212747 
L 111.588091 287.34531 
L 111.178911 286.365536 
L 110.76973 285.307252 
L 110.36055 284.1827 
L 109.95137 282.949146 
L 109.54219 281.522654 
L 109.13301 279.83259 
L 108.723829 277.871472 
L 108.314649 275.700091 
L 107.905469 273.403991 
L 107.496289 271.030115 
L 107.087109 268.54567 
L 106.677929 265.851295 
L 106.268748 262.845323 
L 105.859568 259.493243 
L 105.450388 255.846078 
L 105.041208 251.993737 
L 104.632028 247.999875 
L 104.222847 243.882056 
L 103.813667 239.653264 
L 103.404487 235.37495 
L 102.995307 231.156376 
L 102.586127 227.091746 
L 102.176946 223.203194 
L 101.767766 219.466903 
L 101.358586 215.911423 
L 100.949406 212.681218 
L 100.540226 209.98261 
L 100.131046 207.963306 
L 99.721865 206.65341 
L 99.312685 206.011546 
L 98.903505 205.990945 
L 98.494325 206.540154 
L 98.085145 207.562071 
L 97.675964 208.909762 
L 97.266784 210.441073 
L 96.857604 212.087228 
L 96.448424 213.888338 
L 96.039244 215.976047 
L 95.630064 218.501113 
L 95.220883 221.530049 
L 94.811703 224.974607 
L 94.402523 228.620852 
L 93.993343 232.255279 
L 93.584163 235.79391 
L 93.174982 239.304377 
L 92.765802 242.904726 
L 92.356622 246.638094 
L 91.947442 250.435933 
L 91.538262 254.1827 
L 91.129082 257.798923 
L 90.719901 261.263977 
L 90.310721 264.574824 
L 89.901541 267.693639 
L 89.492361 270.536663 
L 89.083181 273.016422 
L 88.674 275.103199 
L 88.26482 276.853791 
L 87.85564 278.384214 
L 87.44646 279.812022 
L 87.03728 281.21313 
L 86.6281 282.612546 
L 86.218919 283.996066 
L 85.809739 285.326498 
L 85.400559 286.561895 
L 84.991379 287.67432 
L 84.582199 288.657575 
L 84.173018 289.516176 
L 83.763838 290.247111 
L 83.354658 290.834882 
L 82.945478 291.265912 
L 82.536298 291.547821 
L 82.127118 291.714918 
L 81.717937 291.815132 
L 81.308757 291.889533 
L 80.899577 291.959689 
L 80.490397 292.029742 
L 80.081217 292.097921 
L 79.672036 292.165973 
L 79.262856 292.239105 
L 78.853676 292.319227 
L 78.444496 292.400453 
L 78.035316 292.472074 
L 77.626136 292.525602 
L 77.216955 292.559112 
L 76.807775 292.576128 
L 76.398595 292.581636 
L 75.989415 292.578945 
L 75.580235 292.569137 
L 75.171054 292.552735 
L 74.761874 292.532107 
L 74.352694 292.512649 
L 73.943514 292.501228 
L 73.534334 292.502489 
L 73.125154 292.515886 
L 72.715973 292.536068 
L 72.306793 292.556273 
L 71.897613 292.571868 
L 71.488433 292.581593 
L 71.079253 292.586511 
L 70.670072 292.588197 
z
" style="fill:#e31a1c;fill-opacity:0.25;"/>
   </g>
   <g id="PolyCollection_6">
    <path clip-path="url(#pdaf76add3e)" d="M 289.078589 292.587013 
L 289.078589 292.59 
L 289.249867 292.59 
L 289.421144 292.59 
L 289.592422 292.59 
L 289.7637 292.59 
L 289.934977 292.59 
L 290.106255 292.59 
L 290.277533 292.59 
L 290.44881 292.59 
L 290.620088 292.59 
L 290.791366 292.59 
L 290.962643 292.59 
L 291.133921 292.59 
L 291.305199 292.59 
L 291.476476 292.59 
L 291.647754 292.59 
L 291.819032 292.59 
L 291.990309 292.59 
L 292.161587 292.59 
L 292.332865 292.59 
L 292.504142 292.59 
L 292.67542 292.59 
L 292.846698 292.59 
L 293.017975 292.59 
L 293.189253 292.59 
L 293.360531 292.59 
L 293.531808 292.59 
L 293.703086 292.59 
L 293.874364 292.59 
L 294.045642 292.59 
L 294.216919 292.59 
L 294.388197 292.59 
L 294.559475 292.59 
L 294.730752 292.59 
L 294.90203 292.59 
L 295.073308 292.59 
L 295.244585 292.59 
L 295.415863 292.59 
L 295.587141 292.59 
L 295.758418 292.59 
L 295.929696 292.59 
L 296.100974 292.59 
L 296.272251 292.59 
L 296.443529 292.59 
L 296.614807 292.59 
L 296.786084 292.59 
L 296.957362 292.59 
L 297.12864 292.59 
L 297.299917 292.59 
L 297.471195 292.59 
L 297.642473 292.59 
L 297.81375 292.59 
L 297.985028 292.59 
L 298.156306 292.59 
L 298.327583 292.59 
L 298.498861 292.59 
L 298.670139 292.59 
L 298.841416 292.59 
L 299.012694 292.59 
L 299.183972 292.59 
L 299.355249 292.59 
L 299.526527 292.59 
L 299.697805 292.59 
L 299.869082 292.59 
L 300.04036 292.59 
L 300.211638 292.59 
L 300.382915 292.59 
L 300.554193 292.59 
L 300.725471 292.59 
L 300.896749 292.59 
L 301.068026 292.59 
L 301.239304 292.59 
L 301.410582 292.59 
L 301.581859 292.59 
L 301.753137 292.59 
L 301.924415 292.59 
L 302.095692 292.59 
L 302.26697 292.59 
L 302.438248 292.59 
L 302.609525 292.59 
L 302.780803 292.59 
L 302.952081 292.59 
L 303.123358 292.59 
L 303.294636 292.59 
L 303.465914 292.59 
L 303.637191 292.59 
L 303.808469 292.59 
L 303.979747 292.59 
L 304.151024 292.59 
L 304.322302 292.59 
L 304.49358 292.59 
L 304.664857 292.59 
L 304.836135 292.59 
L 305.007413 292.59 
L 305.17869 292.59 
L 305.349968 292.59 
L 305.521246 292.59 
L 305.692523 292.59 
L 305.863801 292.59 
L 306.035079 292.59 
L 306.206356 292.59 
L 306.377634 292.59 
L 306.548912 292.59 
L 306.720189 292.59 
L 306.891467 292.59 
L 307.062745 292.59 
L 307.234023 292.59 
L 307.4053 292.59 
L 307.576578 292.59 
L 307.747856 292.59 
L 307.919133 292.59 
L 308.090411 292.59 
L 308.261689 292.59 
L 308.432966 292.59 
L 308.604244 292.59 
L 308.775522 292.59 
L 308.946799 292.59 
L 309.118077 292.59 
L 309.289355 292.59 
L 309.460632 292.59 
L 309.63191 292.59 
L 309.803188 292.59 
L 309.974465 292.59 
L 310.145743 292.59 
L 310.317021 292.59 
L 310.488298 292.59 
L 310.659576 292.59 
L 310.830854 292.59 
L 310.830854 292.586818 
L 310.830854 292.586818 
L 310.659576 292.582435 
L 310.488298 292.570886 
L 310.317021 292.546823 
L 310.145743 292.504155 
L 309.974465 292.439463 
L 309.803188 292.355692 
L 309.63191 292.262378 
L 309.460632 292.16909 
L 309.289355 292.073759 
L 309.118077 291.954374 
L 308.946799 291.774245 
L 308.775522 291.50254 
L 308.604244 291.137232 
L 308.432966 290.710502 
L 308.261689 290.267979 
L 308.090411 289.835679 
L 307.919133 289.400104 
L 307.747856 288.914948 
L 307.576578 288.326155 
L 307.4053 287.59744 
L 307.234023 286.724096 
L 307.062745 285.730889 
L 306.891467 284.654851 
L 306.720189 283.520567 
L 306.548912 282.322496 
L 306.377634 281.026048 
L 306.206356 279.585256 
L 306.035079 277.961662 
L 305.863801 276.127176 
L 305.692523 274.043724 
L 305.521246 271.630363 
L 305.349968 268.747252 
L 305.17869 265.227876 
L 305.007413 260.959671 
L 304.836135 255.965409 
L 304.664857 250.422165 
L 304.49358 244.596242 
L 304.322302 238.733727 
L 304.151024 232.971627 
L 303.979747 227.313498 
L 303.808469 221.676465 
L 303.637191 215.983076 
L 303.465914 210.242165 
L 303.294636 204.554523 
L 303.123358 199.021413 
L 302.952081 193.613679 
L 302.780803 188.102743 
L 302.609525 182.108462 
L 302.438248 175.230325 
L 302.26697 167.19432 
L 302.095692 157.981603 
L 301.924415 147.922668 
L 301.753137 137.699412 
L 301.581859 128.176886 
L 301.410582 120.077644 
L 301.239304 113.665886 
L 301.068026 108.663333 
L 300.896749 104.479542 
L 300.725471 100.608906 
L 300.554193 96.93812 
L 300.382915 93.812567 
L 300.211638 91.893125 
L 300.04036 91.913146 
L 299.869082 94.410749 
L 299.697805 99.49017 
L 299.526527 106.702322 
L 299.355249 115.139101 
L 299.183972 123.739275 
L 299.012694 131.668395 
L 298.841416 138.581893 
L 298.670139 144.653174 
L 298.498861 150.383356 
L 298.327583 156.314003 
L 298.156306 162.790466 
L 297.985028 169.87327 
L 297.81375 177.4022 
L 297.642473 185.137996 
L 297.471195 192.886792 
L 297.299917 200.553046 
L 297.12864 208.123197 
L 296.957362 215.612555 
L 296.786084 223.007923 
L 296.614807 230.229842 
L 296.443529 237.132176 
L 296.272251 243.543411 
L 296.100974 249.329425 
L 295.929696 254.439834 
L 295.758418 258.910455 
L 295.587141 262.827601 
L 295.415863 266.285714 
L 295.244585 269.365706 
L 295.073308 272.136331 
L 294.90203 274.661485 
L 294.730752 276.996793 
L 294.559475 279.173044 
L 294.388197 281.178967 
L 294.216919 282.960787 
L 294.045642 284.446561 
L 293.874364 285.585568 
L 293.703086 286.380815 
L 293.531808 286.89659 
L 293.360531 287.239924 
L 293.189253 287.529827 
L 293.017975 287.869115 
L 292.846698 288.324284 
L 292.67542 288.913126 
L 292.504142 289.602717 
L 292.332865 290.322689 
L 292.161587 290.992097 
L 291.990309 291.547974 
L 291.819032 291.961518 
L 291.647754 292.236685 
L 291.476476 292.39715 
L 291.305199 292.472024 
L 291.133921 292.48757 
L 290.962643 292.46614 
L 290.791366 292.42868 
L 290.620088 292.395581 
L 290.44881 292.38314 
L 290.277533 292.398012 
L 290.106255 292.435038 
L 289.934977 292.481305 
L 289.7637 292.523751 
L 289.592422 292.554906 
L 289.421144 292.573809 
L 289.249867 292.583349 
L 289.078589 292.587013 
z
" style="fill:#0000ff;fill-opacity:0.25;"/>
   </g>
   <g id="line2d_12">
    <path clip-path="url(#pdaf76add3e)" d="M 270.873699 292.588153 
L 285.813874 292.402011 
L 286.692708 292.046655 
L 287.571542 291.354001 
L 288.889793 290.033672 
L 291.086877 288.517472 
L 292.844545 286.480525 
L 293.283962 285.664062 
L 293.723379 284.394191 
L 294.162795 282.552851 
L 295.041629 277.448839 
L 297.238714 263.105612 
L 298.117548 254.766685 
L 299.875215 234.500893 
L 302.511717 201.961572 
L 302.951134 198.51213 
L 303.390551 196.612852 
L 303.829968 196.195976 
L 304.269384 196.923843 
L 304.708801 198.546552 
L 305.148218 200.996177 
L 308.224137 223.598515 
L 309.542387 236.777246 
L 312.618306 266.865892 
L 313.49714 273.858982 
L 314.375973 278.117747 
L 315.694224 282.141523 
L 317.012475 285.735504 
L 318.330726 288.685766 
L 319.209559 289.846118 
L 320.967227 291.350896 
L 321.846061 291.732827 
L 326.24023 292.580167 
L 326.679647 292.587038 
L 326.679647 292.587038 
" style="fill:none;stroke:#33a02c;stroke-linecap:round;stroke-width:2;"/>
   </g>
   <g id="line2d_13">
    <path clip-path="url(#pdaf76add3e)" d="M 244.775224 292.586901 
L 245.70182 292.47859 
L 246.443097 292.102153 
L 247.184374 291.50688 
L 247.740332 290.76326 
L 248.481609 289.445886 
L 248.852248 288.366215 
L 249.408205 285.682183 
L 250.149483 280.600332 
L 250.70544 274.936395 
L 251.446717 265.526882 
L 252.002675 255.204352 
L 252.743952 235.463822 
L 254.597145 181.43479 
L 255.89438 149.940958 
L 256.635657 134.422004 
L 257.006295 129.979889 
L 257.191615 128.953226 
L 257.376934 128.89597 
L 257.562253 129.870394 
L 257.932892 134.654196 
L 258.48885 146.264805 
L 259.600765 174.959262 
L 260.156723 193.814523 
L 261.824596 256.429953 
L 262.380554 268.900358 
L 262.936512 276.021084 
L 264.233747 288.300096 
L 264.604385 290.030552 
L 264.975024 290.810664 
L 265.90162 291.718197 
L 266.642897 292.212171 
L 267.569494 292.537122 
L 268.310771 292.587073 
L 268.310771 292.587073 
" style="fill:none;stroke:#000000;stroke-linecap:round;stroke-width:2;"/>
   </g>
   <g id="line2d_14">
    <path clip-path="url(#pdaf76add3e)" d="M 456.33381 292.584828 
L 456.968596 292.44626 
L 457.444685 292.019876 
L 458.079471 291.521419 
L 458.396863 291.256629 
L 458.872953 290.459464 
L 459.349042 289.034326 
L 459.983828 286.015473 
L 460.30122 283.705567 
L 460.77731 278.198677 
L 461.412095 268.209743 
L 461.888184 256.450098 
L 462.364274 238.724275 
L 462.999059 205.198428 
L 464.586023 121.480772 
L 465.062113 106.797642 
L 466.014291 84.306353 
L 466.172988 83.061679 
L 466.331684 83.232044 
L 466.49038 84.976327 
L 466.807773 93.316383 
L 467.283862 115.481443 
L 468.553434 180.204478 
L 470.299094 257.346307 
L 470.775183 271.164077 
L 471.251273 278.718997 
L 472.044755 286.202003 
L 472.520844 288.715599 
L 473.314326 290.893161 
L 473.790415 291.466465 
L 474.583897 292.140032 
L 475.536076 292.32045 
L 476.170861 292.566166 
L 476.488254 292.585518 
L 476.488254 292.585518 
" style="fill:none;stroke:#ff7f00;stroke-linecap:round;stroke-width:2;"/>
   </g>
   <g id="line2d_15">
    <path clip-path="url(#pdaf76add3e)" d="M 273.017072 292.585259 
L 273.5249 292.487267 
L 274.032728 292.30571 
L 275.429255 292.538629 
L 275.683169 292.375118 
L 276.698825 291.062747 
L 276.952739 290.382585 
L 277.206653 289.04813 
L 277.587524 285.557781 
L 278.095352 277.410289 
L 278.476223 269.419064 
L 278.857094 256.525948 
L 279.364922 229.726895 
L 279.999707 177.07035 
L 280.634491 119.158289 
L 281.269276 56.303704 
L 281.777104 32.070811 
L 282.157975 22.000627 
L 282.284932 20.79 
L 282.411889 20.847386 
L 282.538846 22.589402 
L 282.79276 32.698672 
L 283.681459 93.591216 
L 285.204943 223.533728 
L 285.966685 267.165751 
L 286.347556 277.932564 
L 286.855384 284.172666 
L 287.490169 289.867035 
L 287.87104 291.280868 
L 288.505825 292.313288 
L 288.886696 292.556994 
L 289.14061 292.584792 
L 289.14061 292.584792 
" style="fill:none;stroke:#1f78b4;stroke-linecap:round;stroke-width:2;"/>
   </g>
   <g id="line2d_16">
    <path clip-path="url(#pdaf76add3e)" d="M 70.670072 292.588197 
L 78.035316 292.472074 
L 82.127118 291.714918 
L 82.945478 291.265912 
L 83.763838 290.247111 
L 84.582199 288.657575 
L 85.400559 286.561895 
L 86.6281 282.612546 
L 88.26482 276.853791 
L 89.083181 273.016422 
L 89.901541 267.693639 
L 91.129082 257.798923 
L 95.630064 218.501113 
L 96.448424 213.888338 
L 97.675964 208.909762 
L 98.494325 206.540154 
L 98.903505 205.990945 
L 99.312685 206.011546 
L 99.721865 206.65341 
L 100.131046 207.963306 
L 100.540226 209.98261 
L 101.358586 215.911423 
L 102.586127 227.091746 
L 106.268748 262.845323 
L 107.087109 268.54567 
L 108.723829 277.871472 
L 109.54219 281.522654 
L 110.36055 284.1827 
L 111.588091 287.34531 
L 112.406451 288.954901 
L 113.224811 290.153141 
L 114.043172 291.085441 
L 114.861532 291.660902 
L 115.679893 291.87831 
L 122.635956 292.587334 
L 122.635956 292.587334 
" style="fill:none;stroke:#e31a1c;stroke-linecap:round;stroke-width:2;"/>
   </g>
   <g id="line2d_17">
    <path clip-path="url(#pdaf76add3e)" d="M 289.078589 292.587013 
L 289.934977 292.481305 
L 290.620088 292.395581 
L 291.305199 292.472024 
L 291.647754 292.236685 
L 291.990309 291.547974 
L 292.504142 289.602717 
L 293.017975 287.869115 
L 293.703086 286.380815 
L 294.045642 284.446561 
L 294.559475 279.173044 
L 295.244585 269.365706 
L 295.758418 258.910455 
L 296.272251 243.543411 
L 297.12864 208.123197 
L 298.670139 144.653174 
L 299.183972 123.739275 
L 299.869082 94.410749 
L 300.04036 91.913146 
L 300.211638 91.893125 
L 300.554193 96.93812 
L 301.239304 113.665886 
L 301.581859 128.176886 
L 302.609525 182.108462 
L 304.664857 250.422165 
L 305.17869 265.227876 
L 305.692523 274.043724 
L 306.377634 281.026048 
L 307.234023 286.724096 
L 307.747856 288.914948 
L 308.775522 291.50254 
L 309.118077 291.954374 
L 309.974465 292.439463 
L 310.659576 292.582435 
L 310.830854 292.586818 
L 310.830854 292.586818 
" style="fill:none;stroke:#0000ff;stroke-linecap:round;stroke-width:2;"/>
   </g>
   <g id="line2d_18">
    <path clip-path="url(#pdaf76add3e)" d="M 304.634335 306.18 
L 304.634335 7.2 
" style="fill:none;stroke:#33a02c;stroke-dasharray:8.4,3.6;stroke-dashoffset:0;stroke-width:3;"/>
   </g>
   <g id="patch_3">
    <path d="M 50.379163 306.18 
L 50.379163 7.2 
" style="fill:none;"/>
   </g>
   <g id="patch_4">
    <path d="M 496.779163 306.18 
L 496.779163 7.2 
" style="fill:none;"/>
   </g>
   <g id="patch_5">
    <path d="M 50.379163 306.18 
L 496.779163 306.18 
" style="fill:none;"/>
   </g>
   <g id="patch_6">
    <path d="M 50.379163 7.2 
L 496.779163 7.2 
" style="fill:none;"/>
   </g>
   <g id="legend_1">
    <g id="line2d_19">
     <path d="M 62.979163 24.7 
L 90.979163 24.7 
" style="fill:none;stroke:#33a02c;stroke-linecap:round;stroke-width:2;"/>
    </g>
    <g id="line2d_20"/>
    <g id="text_14">
     <!-- actual -->
     <g style="fill:#262626;" transform="translate(102.179163 29.6)scale(0.14 -0.14)">
      <use transform="scale(0.996264)" xlink:href="#Computer_Modern_Bright-97"/>
      <use transform="translate(46.492082 0)scale(0.996264)" xlink:href="#Computer_Modern_Bright-99"/>
      <use transform="translate(91.32375 0)scale(0.996264)" xlink:href="#Computer_Modern_Bright-116"/>
      <use transform="translate(127.438138 0)scale(0.996264)" xlink:href="#Computer_Modern_Bright-117"/>
      <use transform="translate(175.590635 0)scale(0.996264)" xlink:href="#Computer_Modern_Bright-97"/>
      <use transform="translate(222.082717 0)scale(0.996264)" xlink:href="#Computer_Modern_Bright-108"/>
     </g>
    </g>
    <g id="line2d_21">
     <path d="M 62.979163 43.824611 
L 90.979163 43.824611 
" style="fill:none;stroke:#000000;stroke-linecap:round;stroke-width:2;"/>
    </g>
    <g id="line2d_22"/>
    <g id="text_15">
     <!-- \emph{vhl-1} $&gt;$ \emph{rhy-1} -->
     <defs>
      <path d="M 10.703125 48 
C 12.796875 33.046875 15.09375 18.171875 17.09375 3.125 
C 17.296875 2.109375 17.296875 0.90625 17.796875 0.203125 
C 19.90625 0 22.59375 0 24.703125 0 
L 25.296875 0.703125 
L 44.703125 35.109375 
L 51.796875 48 
C 49.703125 48 47.5 48 45.703125 47.703125 
C 44.90625 46.59375 44.296875 45.484375 43.59375 44.265625 
C 36.59375 31.84375 29.40625 19.515625 22.703125 6.6875 
C 21.59375 16.984375 20 26.6875 18.59375 36.6875 
C 18 40.328125 17.90625 44.46875 16.90625 47.703125 
C 15.09375 48 12.796875 48 10.703125 48 
" id="Computer_Modern_Bright_Slanted-118"/>
      <path d="M 21.09375 70 
L 6.40625 0 
L 10.90625 0 
C 11.796875 0 13 -0.296875 13 1.015625 
C 13.203125 1.71875 13.296875 2.328125 13.40625 3.03125 
C 14.40625 7.78125 19 29.5 19.296875 30.40625 
C 20.40625 33.953125 22.40625 37.375 25.09375 39.90625 
C 28 42.4375 31.203125 43.84375 36.59375 42.9375 
C 38.796875 42.53125 40.90625 41.625 42 39.5 
C 43.5 36.46875 42.40625 32.9375 41.796875 29.90625 
L 35.5 0 
L 40.203125 0 
C 41.203125 0 42.09375 -0.203125 42.09375 1.109375 
C 42.703125 3.125 44.09375 10.625 44.09375 10.625 
L 48.59375 32 
C 49.40625 35.734375 50.296875 40.40625 48.203125 43.9375 
C 46.296875 46.984375 42.90625 48 39.59375 48.296875 
C 38.09375 48.296875 36.5 48.296875 35 48 
C 30.796875 47.3125 27.09375 45.09375 24.09375 42.09375 
C 22.90625 40.890625 21.5 39.59375 20.796875 37.984375 
L 20.703125 37.984375 
L 27.40625 70 
z
" id="Computer_Modern_Bright_Slanted-104"/>
      <path d="M 21.09375 70 
L 6.40625 0 
C 8.5 0 10.796875 0 12.59375 0.296875 
L 13 1.40625 
C 14 6.4375 15.09375 11.375 16.203125 16.40625 
L 27.40625 70 
z
" id="Computer_Modern_Bright_Slanted-108"/>
      <path d="M 5.90625 26.0625 
L 4.90625 21 
L 32.796875 21 
L 33.796875 26.0625 
z
" id="Computer_Modern_Bright_Slanted-45"/>
      <path d="M 22.5 61 
L 21.5 55.9375 
C 26.296875 55.9375 31.40625 56.546875 35.703125 58.875 
L 24.5 5.046875 
C 20.296875 5.046875 15.296875 5.5625 11.5 5.046875 
C 10.90625 3.578125 10.703125 1.671875 10.296875 0 
C 21.09375 0 32.59375 0 42.796875 0 
C 43.40625 1.453125 43.703125 3.296875 44.09375 5.046875 
L 31 5.046875 
C 35.203125 26.0625 39.796875 46.59375 44.09375 67.5 
C 41.703125 67.5 42 67.09375 40 65.59375 
C 35.59375 62.59375 28.90625 61 22.5 61 
" id="Computer_Modern_Bright_Slanted-49"/>
      <path d="M 62.59375 26.546875 
L 62.59375 26.34375 
C 60.296875 25.546875 58 24.25 55.796875 23.140625 
L 27.09375 9.625 
L 11.09375 2 
C 10.40625 1.703125 9.40625 1.296875 8.90625 0.796875 
C 8 -0.203125 8.203125 -1.703125 9.296875 -2.296875 
C 10.5 -3 11.703125 -2.109375 12.796875 -1.609375 
L 21 2.203125 
C 25.203125 4.3125 55 18.328125 55 18.328125 
L 66 23.546875 
C 67.296875 24.140625 69.40625 24.75 69.40625 26.453125 
C 69.40625 28.15625 67.296875 28.75 66 29.359375 
L 55 34.5625 
L 33.703125 44.6875 
C 29.5 46.6875 25.203125 48.59375 21 50.703125 
L 12.796875 54.5 
C 11.703125 55 10.5 55.90625 9.296875 55.203125 
C 8.203125 54.609375 8 53.09375 8.90625 52.09375 
C 9.40625 51.59375 10.40625 51.203125 11.09375 50.890625 
L 41.59375 36.46875 
L 55.796875 29.75 
C 58 28.65625 60.296875 27.359375 62.59375 26.546875 
" id="Computer_Modern_Bright_Math_Slanted-62"/>
      <path d="M 19.90625 35.53125 
L 19.796875 35.53125 
L 22.40625 48.15625 
L 16.40625 48.15625 
L 6.40625 0.5 
L 10.90625 0.5 
C 11.40625 0.5 12.203125 0.296875 12.59375 0.703125 
C 12.90625 0.90625 13.5 4.4375 13.796875 5.65625 
L 16.703125 19.578125 
C 17.5 23.109375 18 26.859375 19.59375 30.1875 
C 23.40625 37.84375 31.90625 43 40.40625 43 
L 41.5 48.765625 
C 34.90625 48.765625 28.59375 45.421875 24 40.78125 
C 22.5 39.265625 20.90625 37.453125 19.90625 35.53125 
M 19.703125 34.953125 
C 19.703125 34.953125 19.796875 34.953125 19.796875 34.953125 
C 19.796875 34.859375 19.703125 34.75 19.703125 34.953125 
" id="Computer_Modern_Bright_Slanted-114"/>
      <path d="M 10.703125 48 
C 11.203125 44.265625 12 40.625 12.703125 36.890625 
C 13.09375 34.359375 19 0.8125 19 0.515625 
C 19 -0.09375 18.59375 -0.59375 18.296875 -1.109375 
L 16.59375 -4.140625 
C 14.703125 -7.265625 12.796875 -10.5 9 -11.8125 
C 6 -12.71875 0.5 -11.40625 -1.5 -10.796875 
C -1.796875 -12.625 -2 -14.53125 -2.203125 -16.453125 
C 0.5 -16.859375 5.40625 -17.46875 8.09375 -16.96875 
C 15.203125 -15.34375 19.203125 -8.671875 22.5 -3.21875 
L 44.09375 34.359375 
L 49.203125 43.359375 
C 50.09375 44.859375 51.203125 46.375 51.796875 48 
C 49.703125 48 47.40625 48 45.59375 47.703125 
C 43.203125 44.078125 41.203125 40.046875 38.90625 36.21875 
C 33.59375 26.4375 27.703125 17.359375 23.203125 6.78125 
L 23.09375 6.78125 
C 23.40625 8.390625 23.09375 10.109375 22.90625 11.734375 
C 21.796875 22.546875 18.59375 39.71875 17.09375 48 
z
" id="Computer_Modern_Bright_Slanted-121"/>
     </defs>
     <g style="fill:#262626;" transform="translate(102.179163 48.724611)scale(0.14 -0.14)">
      <use transform="scale(0.996264)" xlink:href="#Computer_Modern_Bright_Slanted-118"/>
      <use transform="translate(42.341038 0)scale(0.996264)" xlink:href="#Computer_Modern_Bright_Slanted-104"/>
      <use transform="translate(90.493535 0)scale(0.996264)" xlink:href="#Computer_Modern_Bright_Slanted-108"/>
      <use transform="translate(109.588494 0)scale(0.996264)" xlink:href="#Computer_Modern_Bright_Slanted-45"/>
      <use transform="translate(142.797167 0)scale(0.996264)" xlink:href="#Computer_Modern_Bright_Slanted-49"/>
      <use transform="translate(235.881937 0)scale(0.996264)" xlink:href="#Computer_Modern_Bright_Math_Slanted-62"/>
      <use transform="translate(344.834617 0)scale(0.996264)" xlink:href="#Computer_Modern_Bright_Slanted-114"/>
      <use transform="translate(376.797976 0)scale(0.996264)" xlink:href="#Computer_Modern_Bright_Slanted-104"/>
      <use transform="translate(424.950473 0)scale(0.996264)" xlink:href="#Computer_Modern_Bright_Slanted-121"/>
      <use transform="translate(467.291511 0)scale(0.996264)" xlink:href="#Computer_Modern_Bright_Slanted-45"/>
      <use transform="translate(500.500184 0)scale(0.996264)" xlink:href="#Computer_Modern_Bright_Slanted-49"/>
     </g>
    </g>
    <g id="line2d_23">
     <path d="M 62.979163 62.949222 
L 90.979163 62.949222 
" style="fill:none;stroke:#ff7f00;stroke-linecap:round;stroke-width:2;"/>
    </g>
    <g id="line2d_24"/>
    <g id="text_16">
     <!-- Additive -->
     <defs>
      <path d="M 2.09375 0.09375 
L 6.59375 0.09375 
L 8.40625 0.296875 
C 11.40625 6.796875 13.5 14.203125 16.203125 21 
C 26.09375 21 36.90625 21 46.296875 21 
L 47.09375 19.6875 
C 48.796875 14.546875 50.796875 9.59375 52.59375 4.546875 
C 53.09375 3.015625 53.59375 1.515625 54.40625 0.296875 
C 56.59375 0 59.203125 0 61.59375 0 
C 59.90625 4.90625 36.703125 67.203125 36 68.890625 
C 35.90625 69.296875 35.703125 69.890625 35.203125 70 
C 34.59375 70.09375 34 70 33.40625 70 
L 30.09375 70 
C 28.59375 70 28 70.1875 27.59375 68.609375 
C 27.203125 67.59375 2.09375 0.09375 2.09375 0.09375 
M 31.40625 63.171875 
C 35.59375 50.71875 40.09375 38.46875 44.5 26.21875 
L 18.203125 26.21875 
L 26.90625 50.109375 
z
" id="Computer_Modern_Bright-65"/>
      <path d="M 35.59375 69.6875 
L 35.59375 41.375 
C 33.703125 43.484375 31.796875 45.484375 29.203125 46.6875 
C 20.296875 50.40625 11.703125 45.59375 7.296875 37.65625 
C 2.203125 28.21875 2.796875 15.765625 8.90625 6.921875 
C 13.203125 0.796875 20.296875 -2.203125 27.796875 0.5 
C 30.703125 1.609375 34.203125 4.515625 35.40625 7.125 
L 35.5 7.125 
L 35.5 0 
L 41.90625 0 
L 41.90625 69.6875 
z
M 35.203125 37.453125 
C 35.703125 36.546875 35.5 35.34375 35.5 34.34375 
L 35.5 13.65625 
C 35.5 11.34375 35.40625 11.140625 34.09375 9.34375 
C 32.296875 6.625 29.5 4.71875 26.203125 4.421875 
C 21.40625 4.015625 16.5 6.328125 13.703125 10.25 
C 12.09375 12.546875 11.203125 15.359375 10.703125 18.171875 
C 10.5 19.28125 10.5 20.28125 10.40625 21.390625 
C 9.796875 28.015625 11.203125 35.84375 17 40.0625 
C 18 40.765625 19.09375 41.265625 20.203125 41.765625 
C 26 43.984375 32.40625 43.375 35.203125 37.453125 
" id="Computer_Modern_Bright-100"/>
     </defs>
     <g style="fill:#262626;" transform="translate(102.179163 67.849222)scale(0.14 -0.14)">
      <use transform="scale(0.996264)" xlink:href="#Computer_Modern_Bright-65"/>
      <use transform="translate(63.511618 0)scale(0.996264)" xlink:href="#Computer_Modern_Bright-100"/>
      <use transform="translate(111.664115 0)scale(0.996264)" xlink:href="#Computer_Modern_Bright-100"/>
      <use transform="translate(159.816612 0)scale(0.996264)" xlink:href="#Computer_Modern_Bright-105"/>
      <use transform="translate(178.911571 0)scale(0.996264)" xlink:href="#Computer_Modern_Bright-116"/>
      <use transform="translate(215.025959 0)scale(0.996264)" xlink:href="#Computer_Modern_Bright-105"/>
      <use transform="translate(234.120917 0)scale(0.996264)" xlink:href="#Computer_Modern_Bright-118"/>
      <use transform="translate(276.461955 0)scale(0.996264)" xlink:href="#Computer_Modern_Bright-101"/>
     </g>
    </g>
    <g id="line2d_25">
     <path d="M 62.979163 82.073833 
L 90.979163 82.073833 
" style="fill:none;stroke:#1f78b4;stroke-linecap:round;stroke-width:2;"/>
    </g>
    <g id="line2d_26"/>
    <g id="text_17">
     <!-- Unbranched -->
     <defs>
      <path d="M 8 69.5 
L 8 32.75 
C 8 25.71875 7.203125 18.390625 10.703125 11.96875 
C 12.90625 7.84375 16.09375 4.4375 20.09375 2.125 
C 29.90625 -3.609375 43.5 -2.203125 51.296875 6.4375 
C 54.796875 10.359375 57.296875 15.171875 57.796875 21.796875 
C 57.90625 23.40625 57.796875 24.921875 57.796875 26.515625 
L 57.796875 69.5 
L 51.40625 69.5 
L 51.40625 25.90625 
C 51.40625 24.59375 51.5 23.1875 51.40625 21.890625 
C 51.203125 18.890625 50.59375 15.921875 49.40625 13.25 
C 43.90625 1 25 1 18 11.890625 
C 14.203125 17.78125 15 25.0625 15 31.65625 
L 15 69.5 
z
" id="Computer_Modern_Bright-85"/>
      <path d="M 6.40625 69.6875 
L 6.40625 0 
L 12.796875 0 
L 12.796875 6.328125 
L 12.90625 6.328125 
C 14 4.109375 16.5 2.015625 18.59375 0.90625 
C 25.796875 -2.90625 34.40625 0.90625 39.09375 7.03125 
C 48.59375 19.578125 44.796875 40.875 32.296875 46.796875 
C 27.40625 49 21.5 48 17.09375 44.984375 
C 15.40625 43.78125 14 42.375 12.703125 40.765625 
L 12.703125 69.6875 
z
M 21.90625 42.984375 
C 26.59375 43.375 31.5 41.265625 34.296875 37.453125 
C 36.203125 34.9375 37.203125 31.9375 37.703125 28.8125 
C 38.703125 21.484375 37.90625 12.25 31.40625 7.4375 
C 30.296875 6.625 29.09375 6.03125 27.796875 5.515625 
C 22.40625 3.515625 17 4.109375 14 8.84375 
C 13.09375 10.4375 12.796875 10.546875 12.796875 12.953125 
L 12.796875 33.734375 
C 12.796875 34.75 12.59375 35.953125 13 36.859375 
C 14.59375 40.171875 18.296875 42.671875 21.90625 42.984375 
" id="Computer_Modern_Bright-98"/>
      <path d="M 12.5 34.75 
L 12.40625 34.75 
L 12.40625 47.390625 
L 6.40625 47.390625 
L 6.40625 0 
L 12.703125 0 
L 12.703125 22.890625 
C 12.703125 24.40625 12.703125 25.90625 12.90625 27.40625 
C 14.296875 35.953125 21.703125 42.28125 31.40625 42.28125 
L 31.40625 48 
C 25 48 19.09375 44.890625 15.296875 39.765625 
C 14.203125 38.265625 13 36.546875 12.5 34.75 
" id="Computer_Modern_Bright-114"/>
      <path d="M 6.40625 69.6875 
L 6.40625 0 
L 12.796875 0 
L 12.796875 21.984375 
C 12.796875 26.90625 12.5 31.9375 14.703125 36.546875 
C 15.796875 38.859375 17.5 40.875 19.796875 42.078125 
C 21.703125 42.984375 23.703125 42.984375 25.796875 42.78125 
C 28.796875 42.78125 31.703125 41.984375 33.59375 39.453125 
C 35.40625 37.140625 35.5 34.140625 35.5 31.3125 
L 35.5 0 
L 41.90625 0 
L 41.90625 27.21875 
C 41.90625 32.234375 42.40625 37.75 39.90625 42.28125 
C 37.90625 45.6875 34.40625 47.296875 30.703125 47.796875 
C 28.703125 48 26.703125 48 24.703125 47.703125 
C 21.09375 47.015625 18 45.03125 15.59375 42.34375 
C 14.5 41.046875 13.203125 39.46875 12.796875 37.765625 
L 12.703125 37.765625 
L 12.703125 69.6875 
z
" id="Computer_Modern_Bright-104"/>
     </defs>
     <g style="fill:#262626;" transform="translate(102.179163 86.973833)scale(0.14 -0.14)">
      <use transform="scale(0.996264)" xlink:href="#Computer_Modern_Bright-85"/>
      <use transform="translate(65.587132 0)scale(0.996264)" xlink:href="#Computer_Modern_Bright-110"/>
      <use transform="translate(113.739629 0)scale(0.996264)" xlink:href="#Computer_Modern_Bright-98"/>
      <use transform="translate(158.986397 0)scale(0.996264)" xlink:href="#Computer_Modern_Bright-114"/>
      <use transform="translate(190.949756 0)scale(0.996264)" xlink:href="#Computer_Modern_Bright-97"/>
      <use transform="translate(237.441838 0)scale(0.996264)" xlink:href="#Computer_Modern_Bright-110"/>
      <use transform="translate(285.594335 0)scale(0.996264)" xlink:href="#Computer_Modern_Bright-99"/>
      <use transform="translate(330.426003 0)scale(0.996264)" xlink:href="#Computer_Modern_Bright-104"/>
      <use transform="translate(378.5785 0)scale(0.996264)" xlink:href="#Computer_Modern_Bright-101"/>
      <use transform="translate(423.410167 0)scale(0.996264)" xlink:href="#Computer_Modern_Bright-100"/>
     </g>
    </g>
    <g id="line2d_27">
     <path d="M 62.979163 101.198444 
L 90.979163 101.198444 
" style="fill:none;stroke:#e31a1c;stroke-linecap:round;stroke-width:2;"/>
    </g>
    <g id="line2d_28"/>
    <g id="text_18">
     <!-- Suppression -->
     <defs>
      <path d="M 5.09375 13.015625 
C 4.90625 11.390625 4.5 9.671875 4.296875 8.046875 
C 4.09375 6.53125 3.59375 6.109375 4.90625 5.3125 
C 8.296875 3.390625 11.203125 2.0625 15.40625 0.75 
C 24.796875 -2 35.59375 -2 43.796875 4.140625 
C 45.09375 5.140625 46.296875 6.234375 47.40625 7.53125 
C 49.90625 10.890625 52.203125 14.96875 51.59375 20.53125 
C 50.90625 27.671875 46.09375 33.625 39.59375 36.609375 
C 30.703125 40.578125 16.203125 40.578125 12.203125 49.375 
C 9.09375 56.1875 14.59375 62.171875 20.796875 64.375 
C 26.90625 66.6875 34.90625 65.78125 40.09375 63.375 
C 42.5 62.265625 44.5 60.65625 46.703125 59.25 
C 46.90625 60.96875 47.296875 62.578125 47.59375 64.28125 
C 47.796875 65.375 48.09375 66.390625 46.90625 66.78125 
L 45 67.796875 
C 42.296875 69 39.5 69.90625 36.59375 70.5 
C 27.59375 72.203125 17.203125 71.203125 10.40625 64.484375 
C 7 61.0625 4.09375 56.4375 5.296875 49.515625 
C 6.703125 42.390625 12.296875 37.875 18.09375 35.65625 
C 21.5 34.359375 25.296875 33.65625 28.90625 32.75 
C 31 32.34375 33.203125 31.84375 35.296875 31.140625 
C 40.703125 29.125 45.40625 25.109375 45.40625 17.6875 
C 44.796875 11.296875 39.203125 6.625 33.296875 5.203125 
C 25.703125 3.265625 16.703125 6.015625 11.5 8.75 
C 9.203125 9.96875 7.203125 11.59375 5.09375 13.015625 
" id="Computer_Modern_Bright-83"/>
     </defs>
     <g style="fill:#262626;" transform="translate(102.179163 106.098444)scale(0.14 -0.14)">
      <use transform="scale(0.996264)" xlink:href="#Computer_Modern_Bright-83"/>
      <use transform="translate(56.454753 0)scale(0.996264)" xlink:href="#Computer_Modern_Bright-117"/>
      <use transform="translate(104.60725 0)scale(0.996264)" xlink:href="#Computer_Modern_Bright-112"/>
      <use transform="translate(152.759747 0)scale(0.996264)" xlink:href="#Computer_Modern_Bright-112"/>
      <use transform="translate(198.006514 0)scale(0.996264)" xlink:href="#Computer_Modern_Bright-114"/>
      <use transform="translate(229.969873 0)scale(0.996264)" xlink:href="#Computer_Modern_Bright-101"/>
      <use transform="translate(274.801541 0)scale(0.996264)" xlink:href="#Computer_Modern_Bright-115"/>
      <use transform="translate(313.24057 0)scale(0.996264)" xlink:href="#Computer_Modern_Bright-115"/>
      <use transform="translate(351.679599 0)scale(0.996264)" xlink:href="#Computer_Modern_Bright-105"/>
      <use transform="translate(370.774558 0)scale(0.996264)" xlink:href="#Computer_Modern_Bright-111"/>
      <use transform="translate(421.417776 0)scale(0.996264)" xlink:href="#Computer_Modern_Bright-110"/>
     </g>
    </g>
    <g id="line2d_29">
     <path d="M 62.979163 120.323055 
L 90.979163 120.323055 
" style="fill:none;stroke:#0000ff;stroke-linecap:round;stroke-width:2;"/>
    </g>
    <g id="line2d_30"/>
    <g id="text_19">
     <!-- \emph{rhy-1} $&gt;$ \emph{vhl-1} -->
     <g style="fill:#262626;" transform="translate(102.179163 125.223055)scale(0.14 -0.14)">
      <use transform="scale(0.996264)" xlink:href="#Computer_Modern_Bright_Slanted-114"/>
      <use transform="translate(31.963359 0)scale(0.996264)" xlink:href="#Computer_Modern_Bright_Slanted-104"/>
      <use transform="translate(80.115856 0)scale(0.996264)" xlink:href="#Computer_Modern_Bright_Slanted-121"/>
      <use transform="translate(122.456894 0)scale(0.996264)" xlink:href="#Computer_Modern_Bright_Slanted-45"/>
      <use transform="translate(155.665567 0)scale(0.996264)" xlink:href="#Computer_Modern_Bright_Slanted-49"/>
      <use transform="translate(248.750337 0)scale(0.996264)" xlink:href="#Computer_Modern_Bright_Math_Slanted-62"/>
      <use transform="translate(357.703017 0)scale(0.996264)" xlink:href="#Computer_Modern_Bright_Slanted-118"/>
      <use transform="translate(400.044055 0)scale(0.996264)" xlink:href="#Computer_Modern_Bright_Slanted-104"/>
      <use transform="translate(448.196552 0)scale(0.996264)" xlink:href="#Computer_Modern_Bright_Slanted-108"/>
      <use transform="translate(467.291511 0)scale(0.996264)" xlink:href="#Computer_Modern_Bright_Slanted-45"/>
      <use transform="translate(500.500184 0)scale(0.996264)" xlink:href="#Computer_Modern_Bright_Slanted-49"/>
     </g>
    </g>
   </g>
  </g>
 </g>
 <defs>
  <clipPath id="pdaf76add3e">
   <rect height="298.98" width="446.4" x="50.379163" y="7.2"/>
  </clipPath>
 </defs>
</svg>
