<?xml version="1.0" encoding="utf-8" standalone="no"?>
<!DOCTYPE svg PUBLIC "-//W3C//DTD SVG 1.1//EN"
  "http://www.w3.org/Graphics/SVG/1.1/DTD/svg11.dtd">
<!-- Created with matplotlib (http://matplotlib.org/) -->
<svg height="353pt" version="1.1" viewBox="0 0 503 353" width="503pt" xmlns="http://www.w3.org/2000/svg" xmlns:xlink="http://www.w3.org/1999/xlink">
 <defs>
  <style type="text/css">
*{stroke-linecap:butt;stroke-linejoin:round;}
  </style>
 </defs>
 <g id="figure_1">
  <g id="patch_1">
   <path d="M 0 353.548374 
L 503.979163 353.548374 
L 503.979163 0 
L 0 0 
z
" style="fill:#ffffff;"/>
  </g>
  <g id="axes_1">
   <g id="patch_2">
    <path d="M 50.379163 306.18 
L 496.779163 306.18 
L 496.779163 7.2 
L 50.379163 7.2 
z
" style="fill:#eaeaf2;"/>
   </g>
   <g id="matplotlib.axis_1">
    <g id="xtick_1">
     <g id="line2d_1"/>
     <g id="text_1">
      <!-- $-1.0$ -->
      <defs>
       <path d="M 9.796875 28.078125 
C 8 27.484375 7.796875 24.78125 9.796875 24.28125 
C 10.296875 24.078125 10.90625 24.1875 11.5 24.1875 
L 64.703125 24.1875 
C 65.90625 24.1875 67.796875 23.78125 68.796875 24.78125 
C 69.90625 25.875 69.296875 27.875 67.703125 28.1875 
C 66.5 28.375 65.09375 28.1875 63.90625 28.1875 
L 11.40625 28.1875 
C 10.90625 28.1875 10.296875 28.28125 9.796875 28.078125 
" id="Computer_Modern_Bright_Math_Symbols-0"/>
       <path d="M 9.703125 60.015625 
L 9.703125 55 
C 15.203125 55 19 56 23.40625 57.90625 
L 23.40625 5.015625 
L 10.296875 5.015625 
L 10.296875 0 
L 43 0 
L 43 5.015625 
L 29.90625 5.015625 
L 29.90625 67 
C 27.5 67 27.90625 66.359375 26 64.875 
C 21.90625 61.71875 16.203125 60.015625 9.703125 60.015625 
" id="Computer_Modern_Bright-49"/>
       <path d="M 10.703125 7.8125 
L 10.703125 0 
L 18.5 0 
L 18.5 7.8125 
z
" id="Computer_Modern_Bright_Math_Slanted-58"/>
       <path d="M 14.796875 63.859375 
C 11.90625 61.859375 9.90625 59.140625 8.40625 56.03125 
C 4.796875 49 4.40625 40.765625 4.40625 31.828125 
C 4.40625 20.578125 6.40625 10.25 12 4.3125 
C 17.296875 -1.203125 25.703125 -2.609375 32.796875 0.296875 
C 37.203125 2.015625 40.40625 5.71875 42.40625 9.734375 
C 46 16.875 46.40625 25.40625 46.40625 34.234375 
C 46.40625 37.046875 46.296875 39.859375 46 42.671875 
C 45.296875 49.40625 43 56.828125 39.296875 60.953125 
C 33.203125 67.6875 22.296875 69.1875 14.796875 63.859375 
M 34.90625 58.140625 
C 39.59375 53.125 40 43.484375 40 34.34375 
L 40 28.921875 
C 40 24.296875 39.203125 18.28125 38.203125 14.859375 
C 36.796875 10.140625 34.5 6.734375 29.90625 4.625 
C 24.296875 2.609375 18.5 4.515625 15.296875 8.9375 
C 11 14.65625 10.796875 24.796875 10.796875 33.734375 
C 10.796875 42.171875 10.90625 51.515625 15 57.03125 
C 19.5 63.0625 29.203125 64.0625 34.90625 58.140625 
" id="Computer_Modern_Bright-48"/>
      </defs>
      <g style="fill:#262626;" transform="translate(86.55345 324.249603)scale(0.16 -0.16)">
       <use transform="scale(0.996264)" xlink:href="#Computer_Modern_Bright_Math_Symbols-0"/>
       <use transform="translate(77.487468 0)scale(0.996264)" xlink:href="#Computer_Modern_Bright-49"/>
       <use transform="translate(128.130685 0)scale(0.996264)" xlink:href="#Computer_Modern_Bright_Math_Slanted-58"/>
       <use transform="translate(157.188132 0)scale(0.996264)" xlink:href="#Computer_Modern_Bright-48"/>
      </g>
     </g>
    </g>
    <g id="xtick_2">
     <g id="line2d_2"/>
     <g id="text_2">
      <!-- $-0.8$ -->
      <defs>
       <path d="M 18.703125 36 
L 18.703125 35.90625 
C 12.5 34.09375 7.296875 30.6875 4.796875 24.84375 
C 2.203125 18.71875 4 11.28125 8.40625 6.453125 
C 13.09375 1.421875 19.5 -1 26.296875 -1 
C 36.296875 -1 45.90625 6.40625 47.09375 16.734375 
C 47.296875 18.265625 47.203125 19.890625 47 21.40625 
C 45.203125 29.21875 39.5 33.875 32.09375 35.90625 
C 32.90625 36.203125 33.796875 36.40625 34.59375 36.703125 
C 38.796875 38.421875 42.296875 40.921875 44.5 44.9375 
C 47.796875 51.375 44.59375 58.90625 39.203125 63.015625 
C 33.796875 67.140625 26.5 68.234375 19.90625 66.828125 
C 12 65.125 4.5 58.40625 5 49.765625 
C 5.203125 46.75 6.5 44.234375 8 42.4375 
C 10.296875 39.625 14.796875 36.609375 18.703125 36 
M 23.796875 62.5 
C 28.203125 62.5 33.703125 62 36.90625 58.578125 
C 40.703125 54.46875 40.90625 47.03125 37.09375 42.8125 
C 34.703125 40.203125 31.203125 38.890625 27.703125 38.59375 
C 22.796875 38.1875 17.203125 39 13.703125 42.8125 
C 9.796875 47.125 10.09375 54.96875 14.296875 58.984375 
C 16.90625 61.390625 20.40625 62.1875 23.796875 62.5 
M 23.703125 33.5 
C 28.40625 33.5 33.5 32.390625 36.90625 28.9375 
C 38.203125 27.53125 39.203125 25.8125 39.796875 24.015625 
C 41.5 18.75 40.703125 12.09375 36.796875 8.046875 
C 34.09375 5.328125 30.40625 4.3125 26.703125 4.015625 
C 22.203125 4.015625 17 5.109375 13.796875 8.5625 
C 9.40625 13.390625 8.5 23.40625 13.703125 29.0625 
C 16.296875 31.78125 20 33.203125 23.703125 33.5 
" id="Computer_Modern_Bright-56"/>
      </defs>
      <g style="fill:#262626;" transform="translate(158.362527 324.249603)scale(0.16 -0.16)">
       <use transform="scale(0.996264)" xlink:href="#Computer_Modern_Bright_Math_Symbols-0"/>
       <use transform="translate(77.487468 0)scale(0.996264)" xlink:href="#Computer_Modern_Bright-48"/>
       <use transform="translate(128.130685 0)scale(0.996264)" xlink:href="#Computer_Modern_Bright_Math_Slanted-58"/>
       <use transform="translate(157.188132 0)scale(0.996264)" xlink:href="#Computer_Modern_Bright-56"/>
      </g>
     </g>
    </g>
    <g id="xtick_3">
     <g id="line2d_3"/>
     <g id="text_3">
      <!-- $-0.6$ -->
      <defs>
       <path d="M 11.296875 32.625 
L 11.203125 32.625 
C 11.203125 41.765625 12.796875 52.421875 20.59375 58.25 
C 24.90625 61.375 30.703125 62.96875 38.203125 61.171875 
C 39.796875 60.765625 41.296875 60.15625 42.796875 59.765625 
L 42.796875 63.28125 
C 42.796875 63.671875 42.90625 64.375 42.59375 64.78125 
C 41.90625 65.6875 36.296875 66.59375 36.09375 66.59375 
C 27.40625 67.59375 21.703125 65.6875 16.40625 61.171875 
C 10 55.640625 6.296875 47.515625 5.09375 39.28125 
C 4 32.65625 4.90625 22 6.203125 16.78125 
C 8.296875 9.046875 12.296875 2.21875 19.703125 -0.390625 
C 24.09375 -2 29.5 -2 33.703125 0.015625 
C 37.09375 1.640625 39.90625 4.46875 42.09375 7.5 
C 45.59375 12.34375 46.5 18.21875 46.09375 24.171875 
C 45.90625 27.109375 45.5 30.046875 44.296875 32.765625 
C 42.40625 37.125 39.203125 41.671875 35.09375 43.6875 
C 33.203125 44.5 31.203125 44.5 29.203125 44.5 
C 23.90625 44.5 18.90625 42.1875 15.203125 38.359375 
C 13.59375 36.75 12 34.71875 11.296875 32.625 
M 24.40625 39.515625 
C 28.203125 39.8125 32.203125 39.21875 35.09375 36.5 
C 38.90625 32.890625 39.59375 27.765625 39.59375 22.8125 
C 39.59375 19.46875 39.703125 16.015625 38.703125 12.859375 
C 38.09375 11.234375 37.296875 9.828125 36.40625 8.5 
C 34.203125 5.5625 31.40625 4.125 26.796875 3.515625 
C 22.296875 3.515625 17.796875 5.3125 15.203125 9.125 
C 13.59375 11.328125 12.796875 14.046875 12.296875 16.640625 
C 11.703125 19.34375 11.296875 22.140625 11.5 24.859375 
C 12 31.984375 17 38.515625 24.40625 39.515625 
" id="Computer_Modern_Bright-54"/>
      </defs>
      <g style="fill:#262626;" transform="translate(230.171604 324.249603)scale(0.16 -0.16)">
       <use transform="scale(0.996264)" xlink:href="#Computer_Modern_Bright_Math_Symbols-0"/>
       <use transform="translate(77.487468 0)scale(0.996264)" xlink:href="#Computer_Modern_Bright-48"/>
       <use transform="translate(128.130685 0)scale(0.996264)" xlink:href="#Computer_Modern_Bright_Math_Slanted-58"/>
       <use transform="translate(157.188132 0)scale(0.996264)" xlink:href="#Computer_Modern_Bright-54"/>
      </g>
     </g>
    </g>
    <g id="xtick_4">
     <g id="line2d_4"/>
     <g id="text_4">
      <!-- $-0.4$ -->
      <defs>
       <path d="M 2.09375 18 
L 31 18 
L 31 0 
L 37.296875 0 
L 37.296875 18 
L 48.703125 18 
L 48.703125 23.328125 
L 37.296875 23.328125 
L 37.296875 66.46875 
L 31.90625 66.46875 
C 30.09375 66.46875 29.59375 66.578125 28.796875 65.0625 
C 24.796875 58.515625 3.703125 25.765625 3 24.859375 
C 2.203125 23.4375 2.09375 23.546875 2.09375 21.4375 
z
M 31.296875 60.875 
L 31.296875 23.328125 
L 8.59375 23.328125 
C 9.296875 24.734375 10.296875 26.03125 11.203125 27.4375 
C 16.203125 35.171875 28.09375 53.546875 30.59375 59.28125 
C 30.90625 59.78125 31 60.375 31.296875 60.875 
" id="Computer_Modern_Bright-52"/>
      </defs>
      <g style="fill:#262626;" transform="translate(301.98068 324.249603)scale(0.16 -0.16)">
       <use transform="scale(0.996264)" xlink:href="#Computer_Modern_Bright_Math_Symbols-0"/>
       <use transform="translate(77.487468 0)scale(0.996264)" xlink:href="#Computer_Modern_Bright-48"/>
       <use transform="translate(128.130685 0)scale(0.996264)" xlink:href="#Computer_Modern_Bright_Math_Slanted-58"/>
       <use transform="translate(157.188132 0)scale(0.996264)" xlink:href="#Computer_Modern_Bright-52"/>
      </g>
     </g>
    </g>
    <g id="xtick_5">
     <g id="line2d_5"/>
     <g id="text_5">
      <!-- $-0.2$ -->
      <defs>
       <path d="M 7.296875 45.96875 
C 8.703125 51.59375 11.09375 57.984375 16.796875 60.5 
C 19.203125 61.5 21.796875 61.703125 24.40625 61.5 
C 29.296875 61.09375 34.09375 59.09375 37.09375 55.09375 
C 39.296875 52.078125 40.09375 48.375 39.703125 44.78125 
C 38.5 34.34375 28.296875 26.84375 21.703125 21.234375 
C 17.90625 18.03125 7.09375 7.8125 7.09375 7.8125 
L 5.40625 6.203125 
C 4.5 5.3125 4.40625 5.3125 4.40625 3.5 
L 4.40625 0 
L 46.40625 0 
L 46.40625 5.625 
L 10.203125 5.625 
C 13.40625 8.734375 26.703125 20.515625 28.5 21.921875 
C 34.296875 26.65625 40.796875 31.375 44.296875 38.21875 
C 48.203125 46.0625 46.5 55.9375 39.90625 61.765625 
C 35.90625 65.296875 30.40625 67 25.09375 67 
C 20.203125 67 15.203125 66 11.296875 62.90625 
C 8.296875 60.390625 5.796875 56.6875 4.40625 52.875 
C 4.09375 52.28125 3.59375 51.28125 3.703125 50.578125 
C 3.796875 49.984375 4.40625 49.484375 4.703125 49.078125 
C 5.5 48.078125 6.296875 46.875 7.296875 45.96875 
" id="Computer_Modern_Bright-50"/>
      </defs>
      <g style="fill:#262626;" transform="translate(373.789757 324.249603)scale(0.16 -0.16)">
       <use transform="scale(0.996264)" xlink:href="#Computer_Modern_Bright_Math_Symbols-0"/>
       <use transform="translate(77.487468 0)scale(0.996264)" xlink:href="#Computer_Modern_Bright-48"/>
       <use transform="translate(128.130685 0)scale(0.996264)" xlink:href="#Computer_Modern_Bright_Math_Slanted-58"/>
       <use transform="translate(157.188132 0)scale(0.996264)" xlink:href="#Computer_Modern_Bright-50"/>
      </g>
     </g>
    </g>
    <g id="xtick_6">
     <g id="line2d_6"/>
     <g id="text_6">
      <!-- $0.0$ -->
      <g style="fill:#262626;" transform="translate(451.797831 324.249603)scale(0.16 -0.16)">
       <use transform="scale(0.996264)" xlink:href="#Computer_Modern_Bright-48"/>
       <use transform="translate(50.643218 0)scale(0.996264)" xlink:href="#Computer_Modern_Bright_Math_Slanted-58"/>
       <use transform="translate(79.700665 0)scale(0.996264)" xlink:href="#Computer_Modern_Bright-48"/>
      </g>
     </g>
    </g>
    <g id="text_7">
     <!-- Epistasis Coefficient -->
     <defs>
      <path d="M 8 69.328125 
L 8 0 
L 55.40625 0 
L 55.40625 5.625 
L 15 5.625 
L 15 33.671875 
L 51.09375 33.671875 
L 51.09375 39 
L 15 39 
L 15 64 
L 54 64 
L 54 69.328125 
z
" id="Computer_Modern_Bright-69"/>
      <path d="M 12.703125 40.53125 
L 12.703125 47.15625 
L 6.40625 47.15625 
L 6.40625 -17 
L 12.796875 -17 
L 12.796875 6.09375 
C 14.203125 4.078125 15.796875 2.28125 17.90625 1.078125 
C 25 -3.25 34 0.171875 38.90625 6.59375 
C 45.40625 14.96875 46.09375 27.5 41.59375 36.984375 
C 39 42.4375 34.09375 47.5 27.796875 48 
C 22.296875 48 18.09375 45.8125 15.09375 43.125 
C 14.203125 42.328125 13.5 41.4375 12.703125 40.53125 
M 21.90625 42.875 
C 26 43.171875 30 41.265625 32.796875 38.265625 
C 34.5 36.34375 35.796875 34.140625 36.59375 31.734375 
C 40.09375 22.296875 36.90625 9.234375 26.796875 5.328125 
C 21 3.109375 15.296875 5.125 13.09375 10.546875 
C 12.59375 11.546875 12.796875 12.859375 12.796875 13.953125 
L 12.796875 34.640625 
C 12.796875 36.953125 13 37.15625 14.5 38.859375 
C 16.296875 41.0625 19 42.578125 21.90625 42.875 
" id="Computer_Modern_Bright-112"/>
      <path d="M 6.40625 70 
L 6.40625 63.671875 
L 12.703125 63.671875 
L 12.703125 70 
z
M 6.40625 47.390625 
L 6.40625 0 
L 12.703125 0 
L 12.703125 47.390625 
z
" id="Computer_Modern_Bright-105"/>
      <path d="M 3.09375 9.640625 
C 2.90625 8.234375 2.59375 6.9375 2.40625 5.53125 
C 2.203125 4.421875 1.90625 3.921875 2.90625 3.421875 
C 7 1.015625 11.90625 -0.296875 17.703125 -0.796875 
C 24.203125 -1.40625 32.40625 0.109375 35.59375 6.53125 
C 36.5 8.34375 37 10.34375 37.09375 12.359375 
C 37.5 19.578125 31.796875 24.203125 26.90625 25.90625 
C 21.40625 28.015625 13.90625 27.3125 10.09375 31.53125 
C 8.09375 33.84375 8 37.265625 9.90625 39.671875 
C 13.90625 45.296875 26.796875 42.875 31.90625 40.375 
C 32.703125 39.96875 33.40625 39.46875 34.296875 39.265625 
L 35.203125 44.6875 
C 30.5 46.796875 26.40625 48 19.90625 48 
C 14.296875 48 9.203125 46.703125 6 43.484375 
C 2.796875 40.171875 1.703125 34.640625 3.59375 30.4375 
C 5.40625 26.40625 9.203125 23.796875 13.296875 22.5 
C 19.203125 20.390625 25.90625 21.390625 29.796875 16.578125 
C 32 13.765625 31.59375 9.546875 29.09375 7.03125 
C 24.296875 2.609375 14.09375 4.21875 8.5 6.625 
C 6.59375 7.4375 4.90625 8.640625 3.09375 9.640625 
" id="Computer_Modern_Bright-115"/>
      <path d="M 10.796875 60.5 
L 10.796875 47.015625 
L 1.09375 47.015625 
L 1.09375 42 
L 10.703125 42 
L 10.703125 15.015625 
C 10.703125 10.578125 10.40625 5.234375 13.296875 1.515625 
C 15 -0.703125 17.296875 -1.296875 20.796875 -1 
C 23.703125 -1 26.59375 -0.390625 29.296875 0.65625 
C 30.203125 1.0625 33.5 2.515625 33.90625 3.234375 
C 34.09375 3.640625 32.796875 8.09375 32.796875 8.09375 
L 30.40625 6.265625 
C 27.296875 4.34375 21.09375 2.328125 18.5 5.96875 
C 16.203125 9.09375 16.796875 13.75 16.796875 17.375 
L 16.796875 42 
L 32.296875 42 
L 32.296875 47.015625 
L 16.796875 47.015625 
L 16.796875 60.5 
z
" id="Computer_Modern_Bright-116"/>
      <path d="M 7.90625 39.015625 
C 9.59375 39.859375 11 41.09375 12.703125 41.921875 
C 15.40625 43.15625 18.203125 44 21.203125 44 
C 22.59375 44.09375 24.203125 44.296875 25.59375 44 
C 28.09375 43.59375 30.296875 42.078125 31.796875 39.953125 
C 33.296875 37.515625 33.90625 35.390625 33.90625 31.46875 
L 33.90625 27.015625 
C 29.09375 27.015625 24.296875 26.609375 19.703125 25.390625 
C 13.90625 24.078125 7.59375 21.125 5.5 15.84375 
C 3.40625 10.78125 5.59375 4.078125 10.09375 1.03125 
C 12.296875 -0.5 14.90625 -0.5 17.5 -0.296875 
C 21.703125 0 25.90625 1.015625 29.5 3.25 
C 31.203125 4.25 32.90625 5.578125 33.90625 7.296875 
L 34 7.296875 
L 34 0.203125 
L 40.296875 0.203125 
L 40.296875 26.890625 
C 40.296875 29.8125 40.59375 32.953125 40 35.890625 
C 39.40625 39.921875 36.90625 43.265625 34 45.59375 
C 30.59375 48.21875 26.703125 49.109375 21.5 48.71875 
C 16.703125 48.71875 13 47.5 9.40625 45.765625 
C 8.90625 45.5625 7.90625 45.234375 7.59375 44.640625 
C 7.296875 44.21875 7.5 43.515625 7.5 43 
C 7.703125 41.671875 7.796875 40.34375 7.90625 39.015625 
M 33.90625 24 
L 33.90625 16.375 
C 33.90625 14.0625 34 11.953125 32.703125 9.953125 
C 31.59375 8.34375 30.09375 7.234375 28.5 6.4375 
C 22.796875 3.515625 14.09375 4.421875 11.59375 9.25 
C 9.59375 12.75 11.703125 16.875 14.59375 19.1875 
C 18.90625 22.5 27.296875 24 33.90625 24 
" id="Computer_Modern_Bright-97"/>
      <path d="M 60.5 10.875 
C 58.5 9.859375 56.703125 8.453125 54.703125 7.453125 
C 50 5.046875 44 4.140625 37.5 4.734375 
C 31.703125 5.546875 26.90625 8.359375 23.40625 11.875 
C 12.203125 23.15625 11.40625 42.96875 21.296875 55.34375 
C 25.5 60.875 31.90625 65 41.296875 65 
C 45.09375 65 49 64.296875 52.5 62.890625 
C 54.59375 61.96875 56.59375 60.765625 58.59375 59.765625 
L 59.796875 66.8125 
C 57.59375 67.671875 55.296875 68.5625 53 69.09375 
C 47.40625 70.625 38.90625 70.625 33.09375 69.21875 
C 22.90625 66.921875 15.5 59.828125 11.296875 51.625 
C 5.5 40.015625 6.203125 25.515625 13.203125 14.59375 
C 15 11.703125 17.296875 9.109375 19.90625 6.890625 
C 25.90625 1.6875 33.296875 -1.3125 43.59375 -0.5 
C 49.796875 -0.5 53.40625 0.515625 58.203125 3.203125 
C 58.703125 3.5 60.59375 4.515625 60.90625 4.9375 
C 61.09375 5.4375 60.59375 9.53125 60.5 10.875 
" id="Computer_Modern_Bright-67"/>
      <path d="M 10.703125 42.078125 
C 1.796875 33.234375 0.796875 17.875 8.5 7.9375 
C 9.59375 6.421875 10.90625 5.125 12.40625 4.015625 
C 16.09375 1 21.5 -1.203125 27.796875 -0.5 
C 37.796875 0.703125 44.703125 8.84375 46.796875 17.375 
C 49.59375 29.328125 43.703125 42.671875 32.703125 46.890625 
C 24.09375 50.40625 15.5 46.890625 10.703125 42.078125 
M 35.703125 39.359375 
C 40.5 35.03125 41.40625 28.109375 41 21.984375 
C 40.703125 17.265625 39.40625 12.34375 36.09375 8.828125 
C 30.703125 3 20.703125 3 14.90625 8.625 
C 11.90625 11.84375 10.09375 16.453125 9.796875 21.984375 
C 9.296875 30.109375 11.296875 38.75 19.296875 41.96875 
C 25.203125 44.578125 32 42.671875 35.703125 39.359375 
" id="Computer_Modern_Bright-111"/>
      <path d="M 41.796875 10.9375 
C 39.5 9.234375 38.796875 8.328125 35.90625 6.8125 
C 29.796875 3.5 22.59375 3.5 17.40625 7.171875 
C 12.40625 10.765625 9.5 16.640625 9.5 25 
L 42.5 25 
C 42.5 32.421875 40.796875 38.859375 36.59375 43.375 
C 32 47.890625 24.796875 49.296875 18.703125 47.390625 
C 16.40625 46.6875 14.296875 45.484375 12.40625 43.96875 
C 6.09375 38.859375 3.40625 30.71875 3.5 22.78125 
C 3.703125 12.34375 10.796875 1.90625 21.296875 -0.3125 
C 26.796875 -1.421875 32.59375 -0.203125 37.5 2.296875 
C 38.40625 2.796875 41.703125 4.609375 42.09375 5.515625 
C 42.40625 6.015625 41.796875 10.9375 41.796875 10.9375 
M 37.203125 28.90625 
L 10 28.90625 
C 11.203125 36.234375 17.203125 43.96875 25.296875 43.0625 
C 31.90625 42.46875 35.40625 37.75 36.703125 31.828125 
C 36.90625 30.8125 37 29.921875 37.203125 28.90625 
" id="Computer_Modern_Bright-101"/>
      <path d="M 10.59375 47.015625 
L 2 47.015625 
L 2 42 
L 10.59375 42 
L 10.59375 0 
L 16.90625 0 
L 16.90625 42 
L 30.09375 42 
L 30.09375 47.015625 
L 16.796875 47.015625 
L 16.796875 56.234375 
C 16.796875 57.890625 16.59375 59.65625 17.296875 61.21875 
C 19.5 65.875 25.40625 65.875 29.59375 65.078125 
C 30.59375 64.875 31.703125 64.46875 32.703125 64.265625 
L 32.703125 69.90625 
C 27.703125 70.609375 22.296875 71.21875 17.703125 68.46875 
C 15.796875 67.4375 14.203125 65.6875 13 63.921875 
C 11.09375 60.9375 10.59375 58.78125 10.59375 53.71875 
z
M 38.09375 0 
L 44.40625 0 
L 44.40625 42 
L 57.59375 42 
L 57.59375 47.015625 
L 44.296875 47.015625 
L 44.296875 55.234375 
C 44.296875 56.890625 44.09375 58.65625 44.40625 60.328125 
C 44.90625 62.296875 46.09375 63.65625 47.703125 64.671875 
C 50.796875 66.171875 54.40625 65.078125 57.59375 64.171875 
L 57.59375 70 
C 55.09375 70.1875 52.703125 70.6875 50.203125 70.5 
C 43.40625 70 38.59375 64.046875 38.09375 57.3125 
C 38 55.890625 38.09375 54.375 38.09375 52.96875 
z
M 65.59375 70 
L 65.59375 63.671875 
L 71.90625 63.671875 
L 71.90625 70 
z
M 65.59375 47.390625 
L 65.59375 0 
L 71.90625 0 
L 71.90625 47.390625 
z
" id="Computer_Modern_Bright-14"/>
      <path d="M 42.40625 11.25 
C 40.5 9.84375 38.796875 8.328125 36.703125 7.125 
C 32 4.625 24.796875 3.421875 19.40625 5.921875 
C 11.59375 9.9375 9.5 19.6875 10.59375 27.71875 
C 10.796875 29.328125 11.09375 30.921875 11.59375 32.4375 
C 13.796875 38.96875 19.296875 44.078125 28.296875 43.078125 
C 33.09375 42.671875 35.5 41.875 39.296875 39.765625 
C 40 39.359375 40.59375 38.859375 41.40625 38.65625 
C 41.5 39.859375 41.796875 41.171875 42 42.375 
C 42.296875 43.984375 42.296875 44.1875 40.796875 44.890625 
C 39.703125 45.390625 38.59375 45.984375 37.40625 46.390625 
C 32.796875 48.40625 25.203125 49 20 47.5 
C 12.90625 45.484375 7.59375 39.359375 5.296875 32.53125 
C 4.203125 29.421875 3.90625 26.109375 3.90625 22.796875 
C 4 12.25 11.203125 1.90625 21.703125 -0.203125 
C 27.5 -1.40625 34.203125 0.296875 38.203125 2.40625 
C 39.203125 2.90625 42.203125 4.71875 42.703125 5.625 
C 43 6.125 42.40625 11.25 42.40625 11.25 
" id="Computer_Modern_Bright-99"/>
      <path d="M 12.59375 37.28125 
L 12.5 37.28125 
L 12.5 47.390625 
L 6.40625 47.390625 
L 6.40625 0 
L 12.796875 0 
L 12.796875 21.9375 
C 12.796875 26.84375 12.5 31.875 14.703125 36.46875 
C 15.796875 38.78125 17.5 40.78125 19.796875 41.984375 
C 21.703125 42.890625 23.703125 42.890625 25.796875 42.6875 
C 28.796875 42.6875 31.703125 41.890625 33.59375 39.375 
C 35.40625 37.0625 35.5 34.0625 35.5 31.25 
L 35.5 0 
L 41.90625 0 
L 41.90625 26.859375 
C 41.90625 31.875 42.40625 37.375 40 41.890625 
C 38.09375 45.5 34.40625 47.203125 30.5 47.703125 
C 28.5 48 26.40625 48 24.40625 47.609375 
C 19.203125 46.5 14.40625 42.296875 12.59375 37.28125 
" id="Computer_Modern_Bright-110"/>
     </defs>
     <g style="fill:#262626;" transform="translate(201.022873 343.359582)scale(0.18 -0.18)">
      <use transform="scale(0.996264)" xlink:href="#Computer_Modern_Bright-69"/>
      <use transform="translate(58.737787 0)scale(0.996264)" xlink:href="#Computer_Modern_Bright-112"/>
      <use transform="translate(106.890284 0)scale(0.996264)" xlink:href="#Computer_Modern_Bright-105"/>
      <use transform="translate(125.985243 0)scale(0.996264)" xlink:href="#Computer_Modern_Bright-115"/>
      <use transform="translate(164.424272 0)scale(0.996264)" xlink:href="#Computer_Modern_Bright-116"/>
      <use transform="translate(200.53866 0)scale(0.996264)" xlink:href="#Computer_Modern_Bright-97"/>
      <use transform="translate(247.030742 0)scale(0.996264)" xlink:href="#Computer_Modern_Bright-115"/>
      <use transform="translate(285.469772 0)scale(0.996264)" xlink:href="#Computer_Modern_Bright-105"/>
      <use transform="translate(304.56473 0)scale(0.996264)" xlink:href="#Computer_Modern_Bright-115"/>
      <use transform="translate(374.468971 0)scale(0.996264)" xlink:href="#Computer_Modern_Bright-67"/>
      <use transform="translate(439.641004 0)scale(0.996264)" xlink:href="#Computer_Modern_Bright-111"/>
      <use transform="translate(490.284222 0)scale(0.996264)" xlink:href="#Computer_Modern_Bright-101"/>
      <use transform="translate(535.115889 0)scale(0.996264)" xlink:href="#Computer_Modern_Bright-14"/>
      <use transform="translate(613.156322 0)scale(0.996264)" xlink:href="#Computer_Modern_Bright-99"/>
      <use transform="translate(657.987989 0)scale(0.996264)" xlink:href="#Computer_Modern_Bright-105"/>
      <use transform="translate(677.082948 0)scale(0.996264)" xlink:href="#Computer_Modern_Bright-101"/>
      <use transform="translate(721.914616 0)scale(0.996264)" xlink:href="#Computer_Modern_Bright-110"/>
      <use transform="translate(770.067113 0)scale(0.996264)" xlink:href="#Computer_Modern_Bright-116"/>
     </g>
    </g>
   </g>
   <g id="matplotlib.axis_2">
    <g id="ytick_1">
     <g id="line2d_7"/>
     <g id="text_8">
      <!-- $0$ -->
      <g style="fill:#262626;" transform="translate(35.010613 298.124802)scale(0.16 -0.16)">
       <use transform="scale(0.996264)" xlink:href="#Computer_Modern_Bright-48"/>
      </g>
     </g>
    </g>
    <g id="ytick_2">
     <g id="line2d_8"/>
     <g id="text_9">
      <!-- $10$ -->
      <g style="fill:#262626;" transform="translate(26.642062 253.540841)scale(0.16 -0.16)">
       <use transform="scale(0.996264)" xlink:href="#Computer_Modern_Bright-49"/>
       <use transform="translate(50.643218 0)scale(0.996264)" xlink:href="#Computer_Modern_Bright-48"/>
      </g>
     </g>
    </g>
    <g id="ytick_3">
     <g id="line2d_9"/>
     <g id="text_10">
      <!-- $20$ -->
      <g style="fill:#262626;" transform="translate(26.642062 208.956881)scale(0.16 -0.16)">
       <use transform="scale(0.996264)" xlink:href="#Computer_Modern_Bright-50"/>
       <use transform="translate(50.643218 0)scale(0.996264)" xlink:href="#Computer_Modern_Bright-48"/>
      </g>
     </g>
    </g>
    <g id="ytick_4">
     <g id="line2d_10"/>
     <g id="text_11">
      <!-- $30$ -->
      <defs>
       <path d="M 8.09375 50.71875 
C 8.90625 51.921875 9.5 53.234375 10.40625 54.4375 
C 12.5 57.25 15.40625 59.453125 18.703125 60.765625 
C 23.90625 62.875 31.5 62.875 35.59375 58.21875 
C 39.203125 54.078125 37.703125 47.609375 34.40625 43.78125 
C 31.40625 40.25 27.5 38.53125 21.703125 38.53125 
C 20 38.53125 18.40625 38.03125 16.703125 38.03125 
L 16.703125 33 
L 23.59375 33 
C 29.40625 33 33.203125 32.109375 36.40625 28.6875 
C 41.90625 22.859375 41.40625 12.515625 35.296875 7.203125 
C 32.203125 4.59375 27.90625 3.78125 23.90625 4.078125 
C 16.09375 4.6875 9.203125 8.8125 4.59375 15.234375 
C 4.09375 14.234375 4.09375 12.828125 3.90625 11.71875 
C 3.59375 10.109375 3.59375 10.109375 4.59375 8.8125 
C 7.5 4.890625 13.203125 1.28125 17.703125 -0.03125 
C 25.703125 -2.4375 35 -1.34375 41.203125 4.78125 
C 42.40625 6 43.5 7.296875 44.40625 8.703125 
C 48.09375 14.53125 48.203125 22.15625 44.09375 27.78125 
C 42.40625 30.09375 40.203125 31.90625 37.703125 33.3125 
C 36 34.3125 34 35.3125 32 35.515625 
C 37.796875 38.234375 43.203125 42.828125 44.203125 50.359375 
C 45.09375 57.375 41 61.6875 36.796875 64.1875 
C 30.296875 68 21.796875 68 15.09375 64.671875 
C 12 63.171875 9.203125 60.96875 7.09375 58.25 
C 6.703125 57.75 5.203125 56.046875 5.203125 55.234375 
C 5.203125 54.734375 5.59375 54.234375 5.90625 53.828125 
z
" id="Computer_Modern_Bright-51"/>
      </defs>
      <g style="fill:#262626;" transform="translate(26.642062 164.37292)scale(0.16 -0.16)">
       <use transform="scale(0.996264)" xlink:href="#Computer_Modern_Bright-51"/>
       <use transform="translate(50.643218 0)scale(0.996264)" xlink:href="#Computer_Modern_Bright-48"/>
      </g>
     </g>
    </g>
    <g id="ytick_5">
     <g id="line2d_11"/>
     <g id="text_12">
      <!-- $40$ -->
      <g style="fill:#262626;" transform="translate(26.642062 119.78896)scale(0.16 -0.16)">
       <use transform="scale(0.996264)" xlink:href="#Computer_Modern_Bright-52"/>
       <use transform="translate(50.643218 0)scale(0.996264)" xlink:href="#Computer_Modern_Bright-48"/>
      </g>
     </g>
    </g>
    <g id="ytick_6">
     <g id="line2d_12"/>
     <g id="text_13">
      <!-- $50$ -->
      <defs>
       <path d="M 8.40625 66.328125 
L 8.40625 30.453125 
L 12.203125 30.453125 
C 12.703125 30.453125 13.40625 30.359375 13.796875 30.5625 
C 14.296875 30.859375 14.59375 31.5625 14.90625 31.96875 
C 15.59375 32.859375 16.40625 33.5625 17.203125 34.265625 
C 20.796875 37.28125 27.703125 38.484375 32.296875 36.171875 
C 38.59375 33.171875 39.796875 25.21875 39.296875 19 
C 39 15.0625 37.796875 11.453125 35.5 9.140625 
C 30.203125 3.5 21.296875 3.5 14.796875 6.796875 
C 11.59375 8.40625 8.90625 10.921875 6.90625 13.921875 
L 6.796875 13.921875 
C 6.5 13.421875 4.203125 9.90625 4.203125 9.296875 
C 4.203125 8.890625 4.5 8.59375 4.703125 8.296875 
C 7.703125 4.78125 11.59375 2.0625 16.09375 0.5625 
C 25 -2.25 35 -0.046875 41.296875 7.1875 
C 48.796875 15.921875 47.796875 30.15625 39.09375 37.765625 
C 36.5 40.1875 32.90625 41.890625 28.59375 42.28125 
C 22.796875 43.09375 17.59375 40.28125 14.5 37.671875 
L 14.5 61 
L 42.90625 61 
L 42.90625 66.328125 
z
" id="Computer_Modern_Bright-53"/>
      </defs>
      <g style="fill:#262626;" transform="translate(26.642062 75.204999)scale(0.16 -0.16)">
       <use transform="scale(0.996264)" xlink:href="#Computer_Modern_Bright-53"/>
       <use transform="translate(50.643218 0)scale(0.996264)" xlink:href="#Computer_Modern_Bright-48"/>
      </g>
     </g>
    </g>
    <g id="ytick_7">
     <g id="line2d_13"/>
     <g id="text_14">
      <!-- $60$ -->
      <g style="fill:#262626;" transform="translate(26.642062 30.621039)scale(0.16 -0.16)">
       <use transform="scale(0.996264)" xlink:href="#Computer_Modern_Bright-54"/>
       <use transform="translate(50.643218 0)scale(0.996264)" xlink:href="#Computer_Modern_Bright-48"/>
      </g>
     </g>
    </g>
    <g id="text_15">
     <!-- Cumulative Density Function -->
     <defs>
      <path d="M 6.40625 47 
L 6.40625 12.96875 
C 6.40625 10.046875 6.5 7.140625 7.703125 4.421875 
C 9.59375 0.515625 13.59375 -1 17.703125 -1 
C 23.203125 -1 28.703125 0.8125 32.703125 4.734375 
C 33.796875 5.828125 34.796875 6.9375 35.5 8.34375 
L 35.59375 8.34375 
L 35.59375 -0.390625 
L 41.90625 -0.390625 
L 41.90625 47 
L 35.5 47 
L 35.5 22.90625 
C 35.5 18.6875 36.09375 14.0625 33.90625 10.25 
C 32.296875 7.4375 29.5 5.234375 26.40625 4.234375 
C 24.296875 3.625 22.09375 3.625 19.90625 3.828125 
C 17.796875 4.03125 15.5 4.234375 14.09375 6.03125 
C 12.09375 8.453125 12.796875 14.171875 12.796875 17.6875 
L 12.796875 47 
z
" id="Computer_Modern_Bright-117"/>
      <path d="M 12.59375 37.359375 
L 12.5 37.359375 
L 12.5 47.390625 
L 6.40625 47.390625 
L 6.40625 0 
L 12.796875 0 
L 12.796875 22.046875 
C 12.796875 26.953125 12.5 31.875 14.703125 36.375 
C 16.59375 40.28125 19.90625 43.390625 25.796875 42.78125 
C 28.796875 42.78125 31.796875 41.984375 33.703125 39.453125 
C 35.5 37.140625 35.59375 34.140625 35.59375 31.3125 
L 35.59375 0 
L 42 0 
L 42 22.046875 
C 42 26.953125 41.703125 31.875 43.90625 36.375 
C 45.796875 40.28125 49.09375 43.390625 55 42.78125 
C 58 42.78125 61 41.984375 62.90625 39.453125 
C 64.703125 37.140625 64.796875 34.140625 64.796875 31.3125 
L 64.796875 0 
L 71.203125 0 
L 71.203125 26.5625 
C 71.203125 31.375 71.796875 36.78125 69.703125 41.1875 
C 67.59375 45.296875 64.203125 47.5 58.703125 47.5 
C 55.5 47.796875 52.296875 47.3125 49.40625 45.84375 
C 45.90625 43.921875 43.296875 40.75 41.703125 37.265625 
C 41 40.578125 40.203125 42.828125 38 45 
C 35.703125 47.0625 32.59375 48 29.59375 48 
C 22.296875 48.59375 17.703125 45.5625 14.59375 41 
C 13.796875 39.875 13 38.671875 12.59375 37.359375 
" id="Computer_Modern_Bright-109"/>
      <path d="M 6.40625 69.6875 
L 6.40625 0 
L 12.703125 0 
L 12.703125 69.6875 
z
" id="Computer_Modern_Bright-108"/>
      <path d="M 0.703125 47.5 
C 1.203125 45.5 4.203125 37.578125 4.40625 37.078125 
C 5.40625 34.28125 17.296875 0.609375 17.59375 0.296875 
C 17.90625 -0.203125 18.796875 0 19.296875 0 
L 22.796875 0 
C 24.09375 0 24.90625 -0.296875 25.203125 0.90625 
C 28.40625 9.328125 40.09375 42.703125 41.796875 47.5 
L 35.59375 47.5 
C 30.796875 33.984375 25.90625 20.4375 21.40625 6.609375 
L 11 36.203125 
C 9.5 39.796875 8.59375 43.890625 6.90625 47.203125 
C 5.09375 47.5 2.796875 47.5 0.703125 47.5 
" id="Computer_Modern_Bright-118"/>
      <path d="M 8 70 
L 8 0 
L 28.203125 0 
C 31.40625 0 34.59375 0 37.703125 0.296875 
C 45.703125 1.109375 52.59375 5.015625 57.203125 9.828125 
C 70.09375 23.171875 70 46.125 57.296875 59.671875 
C 52.703125 64.578125 46.5 68.5 38.703125 69.5 
C 34.90625 70 31 70 27.203125 70 
z
M 14.90625 5.3125 
L 14.90625 64.5625 
L 27.796875 64.5625 
C 30.5 64.5625 33.203125 64.5625 35.90625 64.359375 
C 40.40625 63.859375 44.796875 62.359375 48.5 59.734375 
C 56.59375 54.125 60 44.171875 60 34.640625 
C 60 26.609375 57.796875 18.375 51.90625 12.640625 
C 47.90625 8.9375 42.5 6.21875 36 5.515625 
C 33.40625 5.3125 30.703125 5.3125 28.09375 5.3125 
z
" id="Computer_Modern_Bright-68"/>
      <path d="M 0.703125 47.65625 
C 1.296875 45.75 5.40625 35.609375 5.5 35.3125 
L 17.40625 4.578125 
L 18.40625 2.078125 
C 19 0.671875 19.203125 0.46875 18.59375 -1.140625 
L 17.5 -4.046875 
C 16.59375 -6.46875 15.59375 -8.96875 13.703125 -10.484375 
C 10.296875 -13.296875 4.90625 -11.6875 0.796875 -10.78125 
L 1.296875 -16.5 
C 3.203125 -16.796875 5.09375 -17 7 -17 
C 11.296875 -17.515625 14.09375 -16.5 16.703125 -14.296875 
C 20 -11.484375 21.59375 -7.5625 23.09375 -3.546875 
L 26.203125 5.078125 
L 36.40625 32.90625 
C 38.09375 37.921875 40.203125 42.640625 41.796875 47.65625 
L 37.296875 47.65625 
C 36.796875 47.65625 36 47.859375 35.59375 47.46875 
C 35.40625 47.15625 35.296875 46.765625 35.203125 46.453125 
L 34.40625 44.34375 
C 33.40625 41.734375 32.5 39.234375 31.59375 36.609375 
L 25.796875 20.25 
C 24.296875 15.828125 22.59375 11.3125 21.796875 6.6875 
C 20.703125 11.3125 19.203125 15.734375 17.59375 20.140625 
C 16.296875 23.5625 8.5 44.546875 7.5 46.5625 
C 7.09375 47.65625 6.703125 47.65625 5.203125 47.65625 
z
" id="Computer_Modern_Bright-121"/>
      <path d="M 8 69.328125 
L 8 0 
L 15 0 
L 15 32 
L 48.09375 32 
L 48.09375 37.3125 
L 15 37.3125 
L 15 64 
L 52.40625 64 
L 52.40625 69.328125 
z
" id="Computer_Modern_Bright-70"/>
     </defs>
     <g style="fill:#262626;" transform="translate(19.65327 260.669538)rotate(-90)scale(0.18 -0.18)">
      <use transform="scale(0.996264)" xlink:href="#Computer_Modern_Bright-67"/>
      <use transform="translate(65.172032 0)scale(0.996264)" xlink:href="#Computer_Modern_Bright-117"/>
      <use transform="translate(113.324529 0)scale(0.996264)" xlink:href="#Computer_Modern_Bright-109"/>
      <use transform="translate(190.534656 0)scale(0.996264)" xlink:href="#Computer_Modern_Bright-117"/>
      <use transform="translate(238.687153 0)scale(0.996264)" xlink:href="#Computer_Modern_Bright-108"/>
      <use transform="translate(257.782112 0)scale(0.996264)" xlink:href="#Computer_Modern_Bright-97"/>
      <use transform="translate(304.274194 0)scale(0.996264)" xlink:href="#Computer_Modern_Bright-116"/>
      <use transform="translate(340.388582 0)scale(0.996264)" xlink:href="#Computer_Modern_Bright-105"/>
      <use transform="translate(359.483541 0)scale(0.996264)" xlink:href="#Computer_Modern_Bright-118"/>
      <use transform="translate(401.824579 0)scale(0.996264)" xlink:href="#Computer_Modern_Bright-101"/>
      <use transform="translate(478.121458 0)scale(0.996264)" xlink:href="#Computer_Modern_Bright-68"/>
      <use transform="translate(549.727645 0)scale(0.996264)" xlink:href="#Computer_Modern_Bright-101"/>
      <use transform="translate(594.559312 0)scale(0.996264)" xlink:href="#Computer_Modern_Bright-110"/>
      <use transform="translate(642.711809 0)scale(0.996264)" xlink:href="#Computer_Modern_Bright-115"/>
      <use transform="translate(681.150839 0)scale(0.996264)" xlink:href="#Computer_Modern_Bright-105"/>
      <use transform="translate(700.245798 0)scale(0.996264)" xlink:href="#Computer_Modern_Bright-116"/>
      <use transform="translate(733.454456 0)scale(0.996264)" xlink:href="#Computer_Modern_Bright-121"/>
      <use transform="translate(807.260706 0)scale(0.996264)" xlink:href="#Computer_Modern_Bright-70"/>
      <use transform="translate(860.187034 0)scale(0.996264)" xlink:href="#Computer_Modern_Bright-117"/>
      <use transform="translate(908.339531 0)scale(0.996264)" xlink:href="#Computer_Modern_Bright-110"/>
      <use transform="translate(956.492028 0)scale(0.996264)" xlink:href="#Computer_Modern_Bright-99"/>
      <use transform="translate(1001.323695 0)scale(0.996264)" xlink:href="#Computer_Modern_Bright-116"/>
      <use transform="translate(1037.438083 0)scale(0.996264)" xlink:href="#Computer_Modern_Bright-105"/>
      <use transform="translate(1056.533042 0)scale(0.996264)" xlink:href="#Computer_Modern_Bright-111"/>
      <use transform="translate(1107.17626 0)scale(0.996264)" xlink:href="#Computer_Modern_Bright-110"/>
     </g>
    </g>
   </g>
   <g id="PolyCollection_1">
    <path clip-path="url(#p61493e2924)" d="M 252.878869 292.585722 
L 252.878869 292.59 
L 253.085102 292.59 
L 253.291335 292.59 
L 253.497568 292.59 
L 253.7038 292.59 
L 253.910033 292.59 
L 254.116266 292.59 
L 254.322499 292.59 
L 254.528731 292.59 
L 254.734964 292.59 
L 254.941197 292.59 
L 255.14743 292.59 
L 255.353662 292.59 
L 255.559895 292.59 
L 255.766128 292.59 
L 255.972361 292.59 
L 256.178593 292.59 
L 256.384826 292.59 
L 256.591059 292.59 
L 256.797292 292.59 
L 257.003524 292.59 
L 257.209757 292.59 
L 257.41599 292.59 
L 257.622223 292.59 
L 257.828455 292.59 
L 258.034688 292.59 
L 258.240921 292.59 
L 258.447154 292.59 
L 258.653386 292.59 
L 258.859619 292.59 
L 259.065852 292.59 
L 259.272085 292.59 
L 259.478318 292.59 
L 259.68455 292.59 
L 259.890783 292.59 
L 260.097016 292.59 
L 260.303249 292.59 
L 260.509481 292.59 
L 260.715714 292.59 
L 260.921947 292.59 
L 261.12818 292.59 
L 261.334412 292.59 
L 261.540645 292.59 
L 261.746878 292.59 
L 261.953111 292.59 
L 262.159343 292.59 
L 262.365576 292.59 
L 262.571809 292.59 
L 262.778042 292.59 
L 262.984274 292.59 
L 263.190507 292.59 
L 263.39674 292.59 
L 263.602973 292.59 
L 263.809205 292.59 
L 264.015438 292.59 
L 264.221671 292.59 
L 264.427904 292.59 
L 264.634136 292.59 
L 264.840369 292.59 
L 265.046602 292.59 
L 265.252835 292.59 
L 265.459067 292.59 
L 265.6653 292.59 
L 265.871533 292.59 
L 266.077766 292.59 
L 266.283998 292.59 
L 266.490231 292.59 
L 266.696464 292.59 
L 266.902697 292.59 
L 267.108929 292.59 
L 267.315162 292.59 
L 267.521395 292.59 
L 267.727628 292.59 
L 267.93386 292.59 
L 268.140093 292.59 
L 268.346326 292.59 
L 268.552559 292.59 
L 268.758791 292.59 
L 268.965024 292.59 
L 269.171257 292.59 
L 269.37749 292.59 
L 269.583723 292.59 
L 269.789955 292.59 
L 269.996188 292.59 
L 270.202421 292.59 
L 270.408654 292.59 
L 270.614886 292.59 
L 270.821119 292.59 
L 271.027352 292.59 
L 271.233585 292.59 
L 271.439817 292.59 
L 271.64605 292.59 
L 271.852283 292.59 
L 272.058516 292.59 
L 272.264748 292.59 
L 272.470981 292.59 
L 272.677214 292.59 
L 272.883447 292.59 
L 273.089679 292.59 
L 273.295912 292.59 
L 273.502145 292.59 
L 273.708378 292.59 
L 273.91461 292.59 
L 274.120843 292.59 
L 274.327076 292.59 
L 274.533309 292.59 
L 274.739541 292.59 
L 274.945774 292.59 
L 275.152007 292.59 
L 275.35824 292.59 
L 275.564472 292.59 
L 275.770705 292.59 
L 275.976938 292.59 
L 276.183171 292.59 
L 276.389403 292.59 
L 276.595636 292.59 
L 276.801869 292.59 
L 277.008102 292.59 
L 277.214334 292.59 
L 277.420567 292.59 
L 277.6268 292.59 
L 277.833033 292.59 
L 278.039265 292.59 
L 278.245498 292.59 
L 278.451731 292.59 
L 278.657964 292.59 
L 278.864196 292.59 
L 279.070429 292.59 
L 279.070429 292.586087 
L 279.070429 292.586087 
L 278.864196 292.581317 
L 278.657964 292.568912 
L 278.451731 292.544622 
L 278.245498 292.505406 
L 278.039265 292.453697 
L 277.833033 292.400278 
L 277.6268 292.361964 
L 277.420567 292.353403 
L 277.214334 292.378169 
L 277.008102 292.426389 
L 276.801869 292.481015 
L 276.595636 292.527402 
L 276.389403 292.559002 
L 276.183171 292.576768 
L 275.976938 292.585129 
L 275.770705 292.588443 
L 275.564472 292.589507 
L 275.35824 292.589563 
L 275.152007 292.588579 
L 274.945774 292.584968 
L 274.739541 292.574371 
L 274.533309 292.547903 
L 274.327076 292.491529 
L 274.120843 292.389127 
L 273.91461 292.229868 
L 273.708378 292.014667 
L 273.502145 291.752502 
L 273.295912 291.444487 
L 273.089679 291.070273 
L 272.883447 290.597261 
L 272.677214 290.011345 
L 272.470981 289.336833 
L 272.264748 288.61414 
L 272.058516 287.845665 
L 271.852283 286.95858 
L 271.64605 285.823989 
L 271.439817 284.325982 
L 271.233585 282.434746 
L 271.027352 280.228481 
L 270.821119 277.830992 
L 270.614886 275.287496 
L 270.408654 272.469516 
L 270.202421 269.112508 
L 269.996188 264.994196 
L 269.789955 260.118927 
L 269.583723 254.734731 
L 269.37749 249.146415 
L 269.171257 243.477415 
L 268.965024 237.578162 
L 268.758791 231.136378 
L 268.552559 223.872255 
L 268.346326 215.663183 
L 268.140093 206.535793 
L 267.93386 196.568854 
L 267.727628 185.794859 
L 267.521395 174.182862 
L 267.315162 161.744794 
L 267.108929 148.719254 
L 266.902697 135.690155 
L 266.696464 123.502823 
L 266.490231 112.990734 
L 266.283998 104.688756 
L 266.077766 98.702296 
L 265.871533 94.738509 
L 265.6653 92.193755 
L 265.459067 90.254064 
L 265.252835 88.076058 
L 265.046602 85.090784 
L 264.840369 81.316023 
L 264.634136 77.4415 
L 264.427904 74.521111 
L 264.221671 73.379041 
L 264.015438 74.117724 
L 263.809205 76.106751 
L 263.602973 78.462673 
L 263.39674 80.635447 
L 263.190507 82.693384 
L 262.984274 85.217993 
L 262.778042 88.996456 
L 262.571809 94.705271 
L 262.365576 102.665555 
L 262.159343 112.721167 
L 261.953111 124.301431 
L 261.746878 136.649457 
L 261.540645 149.075097 
L 261.334412 161.087742 
L 261.12818 172.393324 
L 260.921947 182.848418 
L 260.715714 192.443792 
L 260.509481 201.301378 
L 260.303249 209.634542 
L 260.097016 217.664152 
L 259.890783 225.53029 
L 259.68455 233.243671 
L 259.478318 240.695157 
L 259.272085 247.70731 
L 259.065852 254.088308 
L 258.859619 259.66439 
L 258.653386 264.3084 
L 258.447154 267.986685 
L 258.240921 270.803073 
L 258.034688 272.994178 
L 257.828455 274.861685 
L 257.622223 276.673305 
L 257.41599 278.58142 
L 257.209757 280.596628 
L 257.003524 282.623981 
L 256.797292 284.534914 
L 256.591059 286.23039 
L 256.384826 287.665522 
L 256.178593 288.83818 
L 255.972361 289.765594 
L 255.766128 290.470366 
L 255.559895 290.979877 
L 255.353662 291.329813 
L 255.14743 291.56334 
L 254.941197 291.725575 
L 254.734964 291.856601 
L 254.528731 291.98443 
L 254.322499 292.119557 
L 254.116266 292.255295 
L 253.910033 292.376011 
L 253.7038 292.468568 
L 253.497568 292.5293 
L 253.291335 292.56336 
L 253.085102 292.579592 
L 252.878869 292.585722 
z
" style="fill-opacity:0.25;"/>
   </g>
   <g id="PolyCollection_2">
    <path clip-path="url(#p61493e2924)" d="M 273.702946 292.583301 
L 273.702946 292.59 
L 273.850505 292.59 
L 273.998064 292.59 
L 274.145623 292.59 
L 274.293182 292.59 
L 274.440741 292.59 
L 274.588301 292.59 
L 274.73586 292.59 
L 274.883419 292.59 
L 275.030978 292.59 
L 275.178537 292.59 
L 275.326096 292.59 
L 275.473655 292.59 
L 275.621214 292.59 
L 275.768774 292.59 
L 275.916333 292.59 
L 276.063892 292.59 
L 276.211451 292.59 
L 276.35901 292.59 
L 276.506569 292.59 
L 276.654128 292.59 
L 276.801687 292.59 
L 276.949246 292.59 
L 277.096806 292.59 
L 277.244365 292.59 
L 277.391924 292.59 
L 277.539483 292.59 
L 277.687042 292.59 
L 277.834601 292.59 
L 277.98216 292.59 
L 278.129719 292.59 
L 278.277279 292.59 
L 278.424838 292.59 
L 278.572397 292.59 
L 278.719956 292.59 
L 278.867515 292.59 
L 279.015074 292.59 
L 279.162633 292.59 
L 279.310192 292.59 
L 279.457751 292.59 
L 279.605311 292.59 
L 279.75287 292.59 
L 279.900429 292.59 
L 280.047988 292.59 
L 280.195547 292.59 
L 280.343106 292.59 
L 280.490665 292.59 
L 280.638224 292.59 
L 280.785783 292.59 
L 280.933343 292.59 
L 281.080902 292.59 
L 281.228461 292.59 
L 281.37602 292.59 
L 281.523579 292.59 
L 281.671138 292.59 
L 281.818697 292.59 
L 281.966256 292.59 
L 282.113816 292.59 
L 282.261375 292.59 
L 282.408934 292.59 
L 282.556493 292.59 
L 282.704052 292.59 
L 282.851611 292.59 
L 282.99917 292.59 
L 283.146729 292.59 
L 283.294288 292.59 
L 283.441848 292.59 
L 283.589407 292.59 
L 283.736966 292.59 
L 283.884525 292.59 
L 284.032084 292.59 
L 284.179643 292.59 
L 284.327202 292.59 
L 284.474761 292.59 
L 284.62232 292.59 
L 284.76988 292.59 
L 284.917439 292.59 
L 285.064998 292.59 
L 285.212557 292.59 
L 285.360116 292.59 
L 285.507675 292.59 
L 285.655234 292.59 
L 285.802793 292.59 
L 285.950353 292.59 
L 286.097912 292.59 
L 286.245471 292.59 
L 286.39303 292.59 
L 286.540589 292.59 
L 286.688148 292.59 
L 286.835707 292.59 
L 286.983266 292.59 
L 287.130825 292.59 
L 287.278385 292.59 
L 287.425944 292.59 
L 287.573503 292.59 
L 287.721062 292.59 
L 287.868621 292.59 
L 288.01618 292.59 
L 288.163739 292.59 
L 288.311298 292.59 
L 288.458857 292.59 
L 288.606417 292.59 
L 288.753976 292.59 
L 288.901535 292.59 
L 289.049094 292.59 
L 289.196653 292.59 
L 289.344212 292.59 
L 289.491771 292.59 
L 289.63933 292.59 
L 289.78689 292.59 
L 289.934449 292.59 
L 290.082008 292.59 
L 290.229567 292.59 
L 290.377126 292.59 
L 290.524685 292.59 
L 290.672244 292.59 
L 290.819803 292.59 
L 290.967362 292.59 
L 291.114922 292.59 
L 291.262481 292.59 
L 291.41004 292.59 
L 291.557599 292.59 
L 291.705158 292.59 
L 291.852717 292.59 
L 292.000276 292.59 
L 292.147835 292.59 
L 292.295395 292.59 
L 292.442954 292.59 
L 292.442954 292.579468 
L 292.442954 292.579468 
L 292.295395 292.564952 
L 292.147835 292.531083 
L 292.000276 292.463465 
L 291.852717 292.343789 
L 291.705158 292.155114 
L 291.557599 291.889954 
L 291.41004 291.557595 
L 291.262481 291.185461 
L 291.114922 290.811344 
L 290.967362 290.468371 
L 290.819803 290.169453 
L 290.672244 289.899025 
L 290.524685 289.616441 
L 290.377126 289.269595 
L 290.229567 288.812033 
L 290.082008 288.214715 
L 289.934449 287.466038 
L 289.78689 286.560478 
L 289.63933 285.483326 
L 289.491771 284.201356 
L 289.344212 282.664714 
L 289.196653 280.817622 
L 289.049094 278.610912 
L 288.901535 276.010638 
L 288.753976 273.000658 
L 288.606417 269.578857 
L 288.458857 265.746307 
L 288.311298 261.489938 
L 288.163739 256.764665 
L 288.01618 251.487463 
L 287.868621 245.556574 
L 287.721062 238.898225 
L 287.573503 231.523128 
L 287.425944 223.55917 
L 287.278385 215.232151 
L 287.130825 206.795554 
L 286.983266 198.441596 
L 286.835707 190.232603 
L 286.688148 182.073211 
L 286.540589 173.726239 
L 286.39303 164.875023 
L 286.245471 155.2348 
L 286.097912 144.688607 
L 285.950353 133.381919 
L 285.802793 121.70581 
L 285.655234 110.160601 
L 285.507675 99.179292 
L 285.360116 89.020864 
L 285.212557 79.781865 
L 285.064998 71.476237 
L 284.917439 64.091077 
L 284.76988 57.573914 
L 284.62232 51.789328 
L 284.474761 46.517809 
L 284.327202 41.531016 
L 284.179643 36.706587 
L 284.032084 32.104843 
L 283.884525 27.951517 
L 283.736966 24.538362 
L 283.589407 22.113364 
L 283.441848 20.833166 
L 283.294288 20.79 
L 283.146729 22.058898 
L 282.99917 24.699972 
L 282.851611 28.702198 
L 282.704052 33.917728 
L 282.556493 40.054119 
L 282.408934 46.756111 
L 282.261375 53.750065 
L 282.113816 60.978879 
L 281.966256 68.644627 
L 281.818697 77.11054 
L 281.671138 86.689666 
L 281.523579 97.429296 
L 281.37602 109.025088 
L 281.228461 120.928111 
L 281.080902 132.581108 
L 280.933343 143.636459 
L 280.785783 154.035705 
L 280.638224 163.938192 
L 280.490665 173.578431 
L 280.343106 183.14308 
L 280.195547 192.707795 
L 280.047988 202.225357 
L 279.900429 211.545292 
L 279.75287 220.455525 
L 279.605311 228.738286 
L 279.457751 236.222986 
L 279.310192 242.817259 
L 279.162633 248.510995 
L 279.015074 253.36251 
L 278.867515 257.477722 
L 278.719956 260.987105 
L 278.572397 264.022855 
L 278.424838 266.701133 
L 278.277279 269.11414 
L 278.129719 271.331774 
L 277.98216 273.407656 
L 277.834601 275.38368 
L 277.687042 277.290265 
L 277.539483 279.143371 
L 277.391924 280.94188 
L 277.244365 282.668535 
L 277.096806 284.294616 
L 276.949246 285.786042 
L 276.801687 287.109174 
L 276.654128 288.236749 
L 276.506569 289.154369 
L 276.35901 289.86566 
L 276.211451 290.392831 
L 276.063892 290.771443 
L 275.916333 291.041667 
L 275.768774 291.24022 
L 275.621214 291.39607 
L 275.473655 291.530269 
L 275.326096 291.657792 
L 275.178537 291.788593 
L 275.030978 291.926814 
L 274.883419 292.069596 
L 274.73586 292.207941 
L 274.588301 292.330457 
L 274.440741 292.428238 
L 274.293182 292.498075 
L 274.145623 292.542543 
L 273.998064 292.567632 
L 273.850505 292.579729 
L 273.702946 292.583301 
z
" style="fill:#1f78b4;fill-opacity:0.25;"/>
   </g>
   <g id="PolyCollection_3">
    <path clip-path="url(#p61493e2924)" d="M 447.331007 292.586514 
L 447.331007 292.59 
L 447.560592 292.59 
L 447.790176 292.59 
L 448.019761 292.59 
L 448.249346 292.59 
L 448.47893 292.59 
L 448.708515 292.59 
L 448.938099 292.59 
L 449.167684 292.59 
L 449.397269 292.59 
L 449.626853 292.59 
L 449.856438 292.59 
L 450.086023 292.59 
L 450.315607 292.59 
L 450.545192 292.59 
L 450.774776 292.59 
L 451.004361 292.59 
L 451.233946 292.59 
L 451.46353 292.59 
L 451.693115 292.59 
L 451.9227 292.59 
L 452.152284 292.59 
L 452.381869 292.59 
L 452.611453 292.59 
L 452.841038 292.59 
L 453.070623 292.59 
L 453.300207 292.59 
L 453.529792 292.59 
L 453.759377 292.59 
L 453.988961 292.59 
L 454.218546 292.59 
L 454.44813 292.59 
L 454.677715 292.59 
L 454.9073 292.59 
L 455.136884 292.59 
L 455.366469 292.59 
L 455.596054 292.59 
L 455.825638 292.59 
L 456.055223 292.59 
L 456.284807 292.59 
L 456.514392 292.59 
L 456.743977 292.59 
L 456.973561 292.59 
L 457.203146 292.59 
L 457.432731 292.59 
L 457.662315 292.59 
L 457.8919 292.59 
L 458.121484 292.59 
L 458.351069 292.59 
L 458.580654 292.59 
L 458.810238 292.59 
L 459.039823 292.59 
L 459.269408 292.59 
L 459.498992 292.59 
L 459.728577 292.59 
L 459.958161 292.59 
L 460.187746 292.59 
L 460.417331 292.59 
L 460.646915 292.59 
L 460.8765 292.59 
L 461.106084 292.59 
L 461.335669 292.59 
L 461.565254 292.59 
L 461.794838 292.59 
L 462.024423 292.59 
L 462.254008 292.59 
L 462.483592 292.59 
L 462.713177 292.59 
L 462.942761 292.59 
L 463.172346 292.59 
L 463.401931 292.59 
L 463.631515 292.59 
L 463.8611 292.59 
L 464.090685 292.59 
L 464.320269 292.59 
L 464.549854 292.59 
L 464.779438 292.59 
L 465.009023 292.59 
L 465.238608 292.59 
L 465.468192 292.59 
L 465.697777 292.59 
L 465.927362 292.59 
L 466.156946 292.59 
L 466.386531 292.59 
L 466.616115 292.59 
L 466.8457 292.59 
L 467.075285 292.59 
L 467.304869 292.59 
L 467.534454 292.59 
L 467.764039 292.59 
L 467.993623 292.59 
L 468.223208 292.59 
L 468.452792 292.59 
L 468.682377 292.59 
L 468.911962 292.59 
L 469.141546 292.59 
L 469.371131 292.59 
L 469.600716 292.59 
L 469.8303 292.59 
L 470.059885 292.59 
L 470.289469 292.59 
L 470.519054 292.59 
L 470.748639 292.59 
L 470.978223 292.59 
L 471.207808 292.59 
L 471.437393 292.59 
L 471.666977 292.59 
L 471.896562 292.59 
L 472.126146 292.59 
L 472.355731 292.59 
L 472.585316 292.59 
L 472.8149 292.59 
L 473.044485 292.59 
L 473.27407 292.59 
L 473.503654 292.59 
L 473.733239 292.59 
L 473.962823 292.59 
L 474.192408 292.59 
L 474.421993 292.59 
L 474.651577 292.59 
L 474.881162 292.59 
L 475.110747 292.59 
L 475.340331 292.59 
L 475.569916 292.59 
L 475.7995 292.59 
L 476.029085 292.59 
L 476.25867 292.59 
L 476.488254 292.59 
L 476.488254 292.586336 
L 476.488254 292.586336 
L 476.25867 292.581269 
L 476.029085 292.567878 
L 475.7995 292.539989 
L 475.569916 292.490566 
L 475.340331 292.41556 
L 475.110747 292.318332 
L 474.881162 292.21142 
L 474.651577 292.113053 
L 474.421993 292.039145 
L 474.192408 291.994714 
L 473.962823 291.969297 
L 473.733239 291.939153 
L 473.503654 291.876323 
L 473.27407 291.760841 
L 473.044485 291.58847 
L 472.8149 291.366649 
L 472.585316 291.099753 
L 472.355731 290.776861 
L 472.126146 290.377348 
L 471.896562 289.893715 
L 471.666977 289.349563 
L 471.437393 288.789095 
L 471.207808 288.240143 
L 470.978223 287.679184 
L 470.748639 287.023915 
L 470.519054 286.15272 
L 470.289469 284.934661 
L 470.059885 283.261541 
L 469.8303 281.079787 
L 469.600716 278.406652 
L 469.371131 275.309231 
L 469.141546 271.85378 
L 468.911962 268.067668 
L 468.682377 263.945564 
L 468.452792 259.484281 
L 468.223208 254.705793 
L 467.993623 249.645401 
L 467.764039 244.310481 
L 467.534454 238.636532 
L 467.304869 232.48302 
L 467.075285 225.696628 
L 466.8457 218.208725 
L 466.616115 210.088357 
L 466.386531 201.512254 
L 466.156946 192.696053 
L 465.927362 183.848765 
L 465.697777 175.154984 
L 465.468192 166.74755 
L 465.238608 158.654841 
L 465.009023 150.754546 
L 464.779438 142.795781 
L 464.549854 134.536162 
L 464.320269 125.954025 
L 464.090685 117.379854 
L 463.8611 109.385379 
L 463.631515 102.457855 
L 463.401931 96.722315 
L 463.172346 91.980291 
L 462.942761 88.046327 
L 462.713177 85.068078 
L 462.483592 83.532102 
L 462.254008 83.958116 
L 462.024423 86.542813 
L 461.794838 91.002209 
L 461.565254 96.671904 
L 461.335669 102.782376 
L 461.106084 108.792683 
L 460.8765 114.638174 
L 460.646915 120.716887 
L 460.417331 127.552743 
L 460.187746 135.345128 
L 459.958161 143.770402 
L 459.728577 152.211549 
L 459.498992 160.220336 
L 459.269408 167.834239 
L 459.039823 175.522057 
L 458.810238 183.833886 
L 458.580654 193.024384 
L 458.351069 202.892008 
L 458.121484 212.895812 
L 457.8919 222.428709 
L 457.662315 231.062575 
L 457.432731 238.645381 
L 457.203146 245.24672 
L 456.973561 251.032014 
L 456.743977 256.155259 
L 456.514392 260.71046 
L 456.284807 264.730592 
L 456.055223 268.212268 
L 455.825638 271.156686 
L 455.596054 273.613673 
L 455.366469 275.700275 
L 455.136884 277.57363 
L 454.9073 279.372602 
L 454.677715 281.166866 
L 454.44813 282.943387 
L 454.218546 284.633215 
L 453.988961 286.159351 
L 453.759377 287.477804 
L 453.529792 288.590607 
L 453.300207 289.528945 
L 453.070623 290.324416 
L 452.841038 290.991169 
L 452.611453 291.528223 
L 452.381869 291.93354 
L 452.152284 292.215455 
L 451.9227 292.394384 
L 451.693115 292.497239 
L 451.46353 292.550342 
L 451.233946 292.574569 
L 451.004361 292.583585 
L 450.774776 292.584255 
L 450.545192 292.578018 
L 450.315607 292.562604 
L 450.086023 292.534555 
L 449.856438 292.493053 
L 449.626853 292.443869 
L 449.397269 292.40012 
L 449.167684 292.377262 
L 448.938099 292.384425 
L 448.708515 292.418605 
L 448.47893 292.466668 
L 448.249346 292.513376 
L 448.019761 292.548877 
L 447.790176 292.570893 
L 447.560592 292.58215 
L 447.331007 292.586514 
z
" style="fill:#ff7f00;fill-opacity:0.25;"/>
   </g>
   <g id="PolyCollection_4">
    <path clip-path="url(#p61493e2924)" d="M 70.670072 292.588527 
L 70.670072 292.59 
L 71.225628 292.59 
L 71.781184 292.59 
L 72.33674 292.59 
L 72.892296 292.59 
L 73.447852 292.59 
L 74.003408 292.59 
L 74.558964 292.59 
L 75.11452 292.59 
L 75.670076 292.59 
L 76.225632 292.59 
L 76.781188 292.59 
L 77.336744 292.59 
L 77.8923 292.59 
L 78.447856 292.59 
L 79.003412 292.59 
L 79.558968 292.59 
L 80.114524 292.59 
L 80.67008 292.59 
L 81.225636 292.59 
L 81.781192 292.59 
L 82.336748 292.59 
L 82.892304 292.59 
L 83.44786 292.59 
L 84.003416 292.59 
L 84.558972 292.59 
L 85.114528 292.59 
L 85.670084 292.59 
L 86.22564 292.59 
L 86.781196 292.59 
L 87.336752 292.59 
L 87.892308 292.59 
L 88.447864 292.59 
L 89.00342 292.59 
L 89.558976 292.59 
L 90.114532 292.59 
L 90.670088 292.59 
L 91.225644 292.59 
L 91.7812 292.59 
L 92.336756 292.59 
L 92.892312 292.59 
L 93.447868 292.59 
L 94.003424 292.59 
L 94.55898 292.59 
L 95.114536 292.59 
L 95.670092 292.59 
L 96.225648 292.59 
L 96.781204 292.59 
L 97.33676 292.59 
L 97.892316 292.59 
L 98.447872 292.59 
L 99.003428 292.59 
L 99.558984 292.59 
L 100.11454 292.59 
L 100.670096 292.59 
L 101.225652 292.59 
L 101.781208 292.59 
L 102.336764 292.59 
L 102.89232 292.59 
L 103.447876 292.59 
L 104.003432 292.59 
L 104.558988 292.59 
L 105.114544 292.59 
L 105.6701 292.59 
L 106.225656 292.59 
L 106.781212 292.59 
L 107.336768 292.59 
L 107.892324 292.59 
L 108.44788 292.59 
L 109.003436 292.59 
L 109.558992 292.59 
L 110.114548 292.59 
L 110.670104 292.59 
L 111.22566 292.59 
L 111.781216 292.59 
L 112.336772 292.59 
L 112.892328 292.59 
L 113.447884 292.59 
L 114.00344 292.59 
L 114.558996 292.59 
L 115.114552 292.59 
L 115.670108 292.59 
L 116.225664 292.59 
L 116.78122 292.59 
L 117.336776 292.59 
L 117.892332 292.59 
L 118.447888 292.59 
L 119.003444 292.59 
L 119.559 292.59 
L 120.114556 292.59 
L 120.670112 292.59 
L 121.225668 292.59 
L 121.781224 292.59 
L 122.33678 292.59 
L 122.892336 292.59 
L 123.447892 292.59 
L 124.003448 292.59 
L 124.559004 292.59 
L 125.11456 292.59 
L 125.670116 292.59 
L 126.225671 292.59 
L 126.781227 292.59 
L 127.336783 292.59 
L 127.892339 292.59 
L 128.447895 292.59 
L 129.003451 292.59 
L 129.559007 292.59 
L 130.114563 292.59 
L 130.670119 292.59 
L 131.225675 292.59 
L 131.781231 292.59 
L 132.336787 292.59 
L 132.892343 292.59 
L 133.447899 292.59 
L 134.003455 292.59 
L 134.559011 292.59 
L 135.114567 292.59 
L 135.670123 292.59 
L 136.225679 292.59 
L 136.781235 292.59 
L 137.336791 292.59 
L 137.892347 292.59 
L 138.447903 292.59 
L 139.003459 292.59 
L 139.559015 292.59 
L 140.114571 292.59 
L 140.670127 292.59 
L 141.225683 292.59 
L 141.225683 292.588528 
L 141.225683 292.588528 
L 140.670127 292.586523 
L 140.114571 292.581346 
L 139.559015 292.571201 
L 139.003459 292.554994 
L 138.447903 292.5342 
L 137.892347 292.513857 
L 137.336791 292.501024 
L 136.781235 292.500844 
L 136.225679 292.512973 
L 135.670123 292.53129 
L 135.114567 292.546969 
L 134.559011 292.552217 
L 134.003455 292.54245 
L 133.447899 292.517003 
L 132.892343 292.479096 
L 132.336787 292.434315 
L 131.781231 292.386079 
L 131.225675 292.328904 
L 130.670119 292.244031 
L 130.114563 292.102996 
L 129.559007 291.880627 
L 129.003451 291.571353 
L 128.447895 291.197133 
L 127.892339 290.797984 
L 127.336783 290.408636 
L 126.781227 290.038381 
L 126.225671 289.67069 
L 125.670116 289.281131 
L 125.11456 288.854163 
L 124.559004 288.382022 
L 124.003448 287.848092 
L 123.447892 287.210592 
L 122.892336 286.400659 
L 122.33678 285.340257 
L 121.781224 283.974775 
L 121.225668 282.301488 
L 120.670112 280.36991 
L 120.114556 278.248419 
L 119.559 275.981036 
L 119.003444 273.564986 
L 118.447888 270.958235 
L 117.892332 268.106993 
L 117.336776 264.979862 
L 116.78122 261.589449 
L 116.225664 257.978996 
L 115.670108 254.181578 
L 115.114552 250.200657 
L 114.558996 246.042609 
L 114.00344 241.758991 
L 113.447884 237.434388 
L 112.892328 233.133139 
L 112.336772 228.887722 
L 111.781216 224.760564 
L 111.22566 220.90171 
L 110.670104 217.511712 
L 110.114548 214.723959 
L 109.558992 212.512075 
L 109.003436 210.709187 
L 108.44788 209.131778 
L 107.892324 207.718881 
L 107.336768 206.584052 
L 106.781212 205.942436 
L 106.225656 205.971182 
L 105.6701 206.704968 
L 105.114544 208.023919 
L 104.558988 209.718927 
L 104.003432 211.591687 
L 103.447876 213.55268 
L 102.89232 215.672851 
L 102.336764 218.141962 
L 101.781208 221.138748 
L 101.225652 224.69826 
L 100.670096 228.676844 
L 100.11454 232.834116 
L 99.558984 236.957458 
L 99.003428 240.940221 
L 98.447872 244.781086 
L 97.892316 248.528191 
L 97.33676 252.214469 
L 96.781204 255.825252 
L 96.225648 259.309582 
L 95.670092 262.612093 
L 95.114536 265.697618 
L 94.55898 268.561546 
L 94.003424 271.227689 
L 93.447868 273.729658 
L 92.892312 276.081273 
L 92.336756 278.260721 
L 91.7812 280.226906 
L 91.225644 281.954436 
L 90.670088 283.454096 
L 90.114532 284.760989 
L 89.558976 285.905227 
L 89.00342 286.89605 
L 88.447864 287.733053 
L 87.892308 288.427793 
L 87.336752 289.011096 
L 86.781196 289.521579 
L 86.22564 289.989882 
L 85.670084 290.430356 
L 85.114528 290.840035 
L 84.558972 291.201794 
L 84.003416 291.492515 
L 83.44786 291.696253 
L 82.892304 291.816085 
L 82.336748 291.876466 
L 81.781192 291.914171 
L 81.225636 291.963376 
L 80.67008 292.042459 
L 80.114524 292.14825 
L 79.558968 292.26059 
L 79.003412 292.355272 
L 78.447856 292.417695 
L 77.8923 292.448486 
L 77.336744 292.458693 
L 76.781188 292.460421 
L 76.225632 292.461064 
L 75.670076 292.463974 
L 75.11452 292.471593 
L 74.558964 292.486092 
L 74.003408 292.507336 
L 73.447852 292.531762 
L 72.892296 292.554213 
L 72.33674 292.570987 
L 71.781184 292.581295 
L 71.225628 292.586513 
L 70.670072 292.588527 
z
" style="fill:#e31a1c;fill-opacity:0.25;"/>
   </g>
   <g id="PolyCollection_5">
    <path clip-path="url(#p61493e2924)" d="M 284.365144 292.584674 
L 284.365144 292.59 
L 284.541996 292.59 
L 284.718849 292.59 
L 284.895701 292.59 
L 285.072553 292.59 
L 285.249405 292.59 
L 285.426258 292.59 
L 285.60311 292.59 
L 285.779962 292.59 
L 285.956815 292.59 
L 286.133667 292.59 
L 286.310519 292.59 
L 286.487372 292.59 
L 286.664224 292.59 
L 286.841076 292.59 
L 287.017928 292.59 
L 287.194781 292.59 
L 287.371633 292.59 
L 287.548485 292.59 
L 287.725338 292.59 
L 287.90219 292.59 
L 288.079042 292.59 
L 288.255895 292.59 
L 288.432747 292.59 
L 288.609599 292.59 
L 288.786452 292.59 
L 288.963304 292.59 
L 289.140156 292.59 
L 289.317008 292.59 
L 289.493861 292.59 
L 289.670713 292.59 
L 289.847565 292.59 
L 290.024418 292.59 
L 290.20127 292.59 
L 290.378122 292.59 
L 290.554975 292.59 
L 290.731827 292.59 
L 290.908679 292.59 
L 291.085531 292.59 
L 291.262384 292.59 
L 291.439236 292.59 
L 291.616088 292.59 
L 291.792941 292.59 
L 291.969793 292.59 
L 292.146645 292.59 
L 292.323498 292.59 
L 292.50035 292.59 
L 292.677202 292.59 
L 292.854055 292.59 
L 293.030907 292.59 
L 293.207759 292.59 
L 293.384611 292.59 
L 293.561464 292.59 
L 293.738316 292.59 
L 293.915168 292.59 
L 294.092021 292.59 
L 294.268873 292.59 
L 294.445725 292.59 
L 294.622578 292.59 
L 294.79943 292.59 
L 294.976282 292.59 
L 295.153134 292.59 
L 295.329987 292.59 
L 295.506839 292.59 
L 295.683691 292.59 
L 295.860544 292.59 
L 296.037396 292.59 
L 296.214248 292.59 
L 296.391101 292.59 
L 296.567953 292.59 
L 296.744805 292.59 
L 296.921658 292.59 
L 297.09851 292.59 
L 297.275362 292.59 
L 297.452214 292.59 
L 297.629067 292.59 
L 297.805919 292.59 
L 297.982771 292.59 
L 298.159624 292.59 
L 298.336476 292.59 
L 298.513328 292.59 
L 298.690181 292.59 
L 298.867033 292.59 
L 299.043885 292.59 
L 299.220737 292.59 
L 299.39759 292.59 
L 299.574442 292.59 
L 299.751294 292.59 
L 299.928147 292.59 
L 300.104999 292.59 
L 300.281851 292.59 
L 300.458704 292.59 
L 300.635556 292.59 
L 300.812408 292.59 
L 300.989261 292.59 
L 301.166113 292.59 
L 301.342965 292.59 
L 301.519817 292.59 
L 301.69667 292.59 
L 301.873522 292.59 
L 302.050374 292.59 
L 302.227227 292.59 
L 302.404079 292.59 
L 302.580931 292.59 
L 302.757784 292.59 
L 302.934636 292.59 
L 303.111488 292.59 
L 303.288341 292.59 
L 303.465193 292.59 
L 303.642045 292.59 
L 303.818897 292.59 
L 303.99575 292.59 
L 304.172602 292.59 
L 304.349454 292.59 
L 304.526307 292.59 
L 304.703159 292.59 
L 304.880011 292.59 
L 305.056864 292.59 
L 305.233716 292.59 
L 305.410568 292.59 
L 305.58742 292.59 
L 305.764273 292.59 
L 305.941125 292.59 
L 306.117977 292.59 
L 306.29483 292.59 
L 306.471682 292.59 
L 306.648534 292.59 
L 306.825387 292.59 
L 306.825387 292.584998 
L 306.825387 292.584998 
L 306.648534 292.579962 
L 306.471682 292.566799 
L 306.29483 292.539994 
L 306.117977 292.492288 
L 305.941125 292.417044 
L 305.764273 292.311712 
L 305.58742 292.180762 
L 305.410568 292.035852 
L 305.233716 291.892134 
L 305.056864 291.762069 
L 304.880011 291.649669 
L 304.703159 291.547123 
L 304.526307 291.433612 
L 304.349454 291.275659 
L 304.172602 291.030628 
L 303.99575 290.656673 
L 303.818897 290.129125 
L 303.642045 289.455255 
L 303.465193 288.67388 
L 303.288341 287.832115 
L 303.111488 286.948434 
L 302.934636 285.986008 
L 302.757784 284.857208 
L 302.580931 283.458344 
L 302.404079 281.711236 
L 302.227227 279.585014 
L 302.050374 277.088821 
L 301.873522 274.246537 
L 301.69667 271.072359 
L 301.519817 267.560317 
L 301.342965 263.690386 
L 301.166113 259.445337 
L 300.989261 254.828347 
L 300.812408 249.872707 
L 300.635556 244.640043 
L 300.458704 239.206222 
L 300.281851 233.632425 
L 300.104999 227.92149 
L 299.928147 221.975482 
L 299.751294 215.588908 
L 299.574442 208.506205 
L 299.39759 200.532263 
L 299.220737 191.640495 
L 299.043885 182.017123 
L 298.867033 172.019736 
L 298.690181 162.074663 
L 298.513328 152.554281 
L 298.336476 143.667297 
L 298.159624 135.391415 
L 297.982771 127.483711 
L 297.805919 119.592169 
L 297.629067 111.444041 
L 297.452214 103.027143 
L 297.275362 94.659218 
L 297.09851 86.889455 
L 296.921658 80.274789 
L 296.744805 75.15536 
L 296.567953 71.552939 
L 296.391101 69.229254 
L 296.214248 67.837941 
L 296.037396 67.066596 
L 295.860544 66.709787 
L 295.683691 66.682024 
L 295.506839 67.008632 
L 295.329987 67.814717 
L 295.153134 69.304906 
L 294.976282 71.719883 
L 294.79943 75.269589 
L 294.622578 80.061087 
L 294.445725 86.048709 
L 294.268873 93.029982 
L 294.092021 100.694067 
L 293.915168 108.708144 
L 293.738316 116.811559 
L 293.561464 124.88347 
L 293.384611 132.957994 
L 293.207759 141.18019 
L 293.030907 149.720557 
L 292.854055 158.682496 
L 292.677202 168.036741 
L 292.50035 177.602146 
L 292.323498 187.075268 
L 292.146645 196.098526 
L 291.969793 204.346953 
L 291.792941 211.606151 
L 291.616088 217.815119 
L 291.439236 223.06208 
L 291.262384 227.54326 
L 291.085531 231.509168 
L 290.908679 235.219551 
L 290.731827 238.911196 
L 290.554975 242.768519 
L 290.378122 246.889709 
L 290.20127 251.258931 
L 290.024418 255.749157 
L 289.847565 260.171283 
L 289.670713 264.353453 
L 289.493861 268.205695 
L 289.317008 271.729138 
L 289.140156 274.968588 
L 288.963304 277.949407 
L 288.786452 280.64694 
L 288.609599 283.004476 
L 288.432747 284.975757 
L 288.255895 286.555132 
L 288.079042 287.777987 
L 287.90219 288.702011 
L 287.725338 289.390133 
L 287.548485 289.90475 
L 287.371633 290.306656 
L 287.194781 290.64847 
L 287.017928 290.962472 
L 286.841076 291.253399 
L 286.664224 291.505527 
L 286.487372 291.701436 
L 286.310519 291.839384 
L 286.133667 291.93723 
L 285.956815 292.021805 
L 285.779962 292.113332 
L 285.60311 292.216341 
L 285.426258 292.321636 
L 285.249405 292.415335 
L 285.072553 292.48756 
L 284.895701 292.535998 
L 284.718849 292.564378 
L 284.541996 292.578812 
L 284.365144 292.584674 
z
" style="fill:#0000ff;fill-opacity:0.25;"/>
   </g>
   <g id="PolyCollection_6">
    <path clip-path="url(#p61493e2924)" d="M 301.485909 292.587515 
L 301.485909 292.59 
L 301.782271 292.59 
L 302.078632 292.59 
L 302.374994 292.59 
L 302.671356 292.59 
L 302.967717 292.59 
L 303.264079 292.59 
L 303.56044 292.59 
L 303.856802 292.59 
L 304.153164 292.59 
L 304.449525 292.59 
L 304.745887 292.59 
L 305.042249 292.59 
L 305.33861 292.59 
L 305.634972 292.59 
L 305.931333 292.59 
L 306.227695 292.59 
L 306.524057 292.59 
L 306.820418 292.59 
L 307.11678 292.59 
L 307.413142 292.59 
L 307.709503 292.59 
L 308.005865 292.59 
L 308.302226 292.59 
L 308.598588 292.59 
L 308.89495 292.59 
L 309.191311 292.59 
L 309.487673 292.59 
L 309.784035 292.59 
L 310.080396 292.59 
L 310.376758 292.59 
L 310.673119 292.59 
L 310.969481 292.59 
L 311.265843 292.59 
L 311.562204 292.59 
L 311.858566 292.59 
L 312.154928 292.59 
L 312.451289 292.59 
L 312.747651 292.59 
L 313.044012 292.59 
L 313.340374 292.59 
L 313.636736 292.59 
L 313.933097 292.59 
L 314.229459 292.59 
L 314.52582 292.59 
L 314.822182 292.59 
L 315.118544 292.59 
L 315.414905 292.59 
L 315.711267 292.59 
L 316.007629 292.59 
L 316.30399 292.59 
L 316.600352 292.59 
L 316.896713 292.59 
L 317.193075 292.59 
L 317.489437 292.59 
L 317.785798 292.59 
L 318.08216 292.59 
L 318.378522 292.59 
L 318.674883 292.59 
L 318.971245 292.59 
L 319.267606 292.59 
L 319.563968 292.59 
L 319.86033 292.59 
L 320.156691 292.59 
L 320.453053 292.59 
L 320.749415 292.59 
L 321.045776 292.59 
L 321.342138 292.59 
L 321.638499 292.59 
L 321.934861 292.59 
L 322.231223 292.59 
L 322.527584 292.59 
L 322.823946 292.59 
L 323.120308 292.59 
L 323.416669 292.59 
L 323.713031 292.59 
L 324.009392 292.59 
L 324.305754 292.59 
L 324.602116 292.59 
L 324.898477 292.59 
L 325.194839 292.59 
L 325.491201 292.59 
L 325.787562 292.59 
L 326.083924 292.59 
L 326.380285 292.59 
L 326.676647 292.59 
L 326.973009 292.59 
L 327.26937 292.59 
L 327.565732 292.59 
L 327.862093 292.59 
L 328.158455 292.59 
L 328.454817 292.59 
L 328.751178 292.59 
L 329.04754 292.59 
L 329.343902 292.59 
L 329.640263 292.59 
L 329.936625 292.59 
L 330.232986 292.59 
L 330.529348 292.59 
L 330.82571 292.59 
L 331.122071 292.59 
L 331.418433 292.59 
L 331.714795 292.59 
L 332.011156 292.59 
L 332.307518 292.59 
L 332.603879 292.59 
L 332.900241 292.59 
L 333.196603 292.59 
L 333.492964 292.59 
L 333.789326 292.59 
L 334.085688 292.59 
L 334.382049 292.59 
L 334.678411 292.59 
L 334.974772 292.59 
L 335.271134 292.59 
L 335.567496 292.59 
L 335.863857 292.59 
L 336.160219 292.59 
L 336.456581 292.59 
L 336.752942 292.59 
L 337.049304 292.59 
L 337.345665 292.59 
L 337.642027 292.59 
L 337.938389 292.59 
L 338.23475 292.59 
L 338.531112 292.59 
L 338.827474 292.59 
L 339.123835 292.59 
L 339.123835 292.587492 
L 339.123835 292.587492 
L 338.827474 292.584847 
L 338.531112 292.578192 
L 338.23475 292.564935 
L 337.938389 292.541936 
L 337.642027 292.506934 
L 337.345665 292.460548 
L 337.049304 292.407904 
L 336.752942 292.358455 
L 336.456581 292.323148 
L 336.160219 292.309561 
L 335.863857 292.31716 
L 335.567496 292.335123 
L 335.271134 292.343942 
L 334.974772 292.320224 
L 334.678411 292.242851 
L 334.382049 292.098324 
L 334.085688 291.88333 
L 333.789326 291.603373 
L 333.492964 291.267989 
L 333.196603 290.885382 
L 332.900241 290.460208 
L 332.603879 289.995934 
L 332.307518 289.498712 
L 332.011156 288.977199 
L 331.714795 288.435413 
L 331.418433 287.86183 
L 331.122071 287.222073 
L 330.82571 286.460693 
L 330.529348 285.511257 
L 330.232986 284.308491 
L 329.936625 282.796411 
L 329.640263 280.932302 
L 329.343902 278.69256 
L 329.04754 276.085184 
L 328.751178 273.163497 
L 328.454817 270.026295 
L 328.158455 266.794483 
L 327.862093 263.573704 
L 327.565732 260.428017 
L 327.26937 257.382261 
L 326.973009 254.444286 
L 326.676647 251.618689 
L 326.380285 248.892255 
L 326.083924 246.201735 
L 325.787562 243.418205 
L 325.491201 240.375072 
L 325.194839 236.932502 
L 324.898477 233.039124 
L 324.602116 228.751254 
L 324.305754 224.200556 
L 324.009392 219.534288 
L 323.713031 214.860716 
L 323.416669 210.217736 
L 323.120308 205.568338 
L 322.823946 200.825765 
L 322.527584 195.912021 
L 322.231223 190.837712 
L 321.934861 185.763895 
L 321.638499 180.996415 
L 321.342138 176.892048 
L 321.045776 173.710951 
L 320.749415 171.490734 
L 320.453053 170.011461 
L 320.156691 168.871537 
L 319.86033 167.637155 
L 319.563968 165.998853 
L 319.267606 163.876567 
L 318.971245 161.441767 
L 318.674883 159.053041 
L 318.378522 157.127895 
L 318.08216 156.000858 
L 317.785798 155.831856 
L 317.489437 156.606861 
L 317.193075 158.217749 
L 316.896713 160.559274 
L 316.600352 163.579751 
L 316.30399 167.268466 
L 316.007629 171.613308 
L 315.711267 176.572312 
L 315.414905 182.071757 
L 315.118544 188.011248 
L 314.822182 194.258225 
L 314.52582 200.642528 
L 314.229459 206.97688 
L 313.933097 213.10841 
L 313.636736 218.970619 
L 313.340374 224.594352 
L 313.044012 230.064406 
L 312.747651 235.449514 
L 312.451289 240.751241 
L 312.154928 245.900418 
L 311.858566 250.796253 
L 311.562204 255.358608 
L 311.265843 259.5611 
L 310.969481 263.429151 
L 310.673119 267.01078 
L 310.376758 270.343422 
L 310.080396 273.43744 
L 309.784035 276.280341 
L 309.487673 278.850514 
L 309.191311 281.128085 
L 308.89495 283.100556 
L 308.598588 284.768309 
L 308.302226 286.151501 
L 308.005865 287.291655 
L 307.709503 288.240958 
L 307.413142 289.042749 
L 307.11678 289.716802 
L 306.820418 290.261039 
L 306.524057 290.668472 
L 306.227695 290.94649 
L 305.931333 291.125099 
L 305.634972 291.249875 
L 305.33861 291.365708 
L 305.042249 291.501811 
L 304.745887 291.665628 
L 304.449525 291.846835 
L 304.153164 292.027011 
L 303.856802 292.188947 
L 303.56044 292.321862 
L 303.264079 292.422266 
L 302.967717 292.492279 
L 302.671356 292.537281 
L 302.374994 292.563815 
L 302.078632 292.578058 
L 301.782271 292.584887 
L 301.485909 292.587515 
z
" style="fill:#33a02c;fill-opacity:0.25;"/>
   </g>
   <g id="line2d_14">
    <path clip-path="url(#p61493e2924)" d="M 252.878869 292.585722 
L 253.7038 292.468568 
L 254.528731 291.98443 
L 255.14743 291.56334 
L 255.559895 290.979877 
L 255.972361 289.765594 
L 256.384826 287.665522 
L 257.003524 282.623981 
L 258.447154 267.986685 
L 258.859619 259.66439 
L 259.478318 240.695157 
L 260.715714 192.443792 
L 261.540645 149.075097 
L 262.365576 102.665555 
L 262.778042 88.996456 
L 263.190507 82.693384 
L 264.221671 73.379041 
L 264.427904 74.521111 
L 264.840369 81.316023 
L 265.252835 88.076058 
L 265.871533 94.738509 
L 266.283998 104.688756 
L 266.696464 123.502823 
L 268.346326 215.663183 
L 268.965024 237.578162 
L 269.996188 264.994196 
L 270.614886 275.287496 
L 271.439817 284.325982 
L 271.852283 286.95858 
L 272.470981 289.336833 
L 273.089679 291.070273 
L 273.708378 292.014667 
L 274.120843 292.389127 
L 274.739541 292.574371 
L 276.389403 292.559002 
L 277.833033 292.400278 
L 278.864196 292.581317 
L 279.070429 292.586087 
L 279.070429 292.586087 
" style="fill:none;stroke:#000000;stroke-linecap:round;stroke-width:2;"/>
   </g>
   <g id="line2d_15">
    <path clip-path="url(#p61493e2924)" d="M 273.702946 292.583301 
L 274.293182 292.498075 
L 274.73586 292.207941 
L 275.916333 291.041667 
L 276.211451 290.392831 
L 276.506569 289.154369 
L 276.949246 285.786042 
L 277.687042 277.290265 
L 278.424838 266.701133 
L 278.867515 257.477722 
L 279.310192 242.817259 
L 279.900429 211.545292 
L 281.228461 120.928111 
L 281.966256 68.644627 
L 282.704052 33.917728 
L 283.146729 22.058898 
L 283.294288 20.79 
L 283.441848 20.833166 
L 283.589407 22.113364 
L 283.884525 27.951517 
L 284.62232 51.789328 
L 285.064998 71.476237 
L 285.655234 110.160601 
L 286.540589 173.726239 
L 288.01618 251.487463 
L 288.606417 269.578857 
L 289.196653 280.817622 
L 289.63933 285.483326 
L 290.082008 288.214715 
L 290.524685 289.616441 
L 291.262481 291.185461 
L 291.705158 292.155114 
L 292.000276 292.463465 
L 292.442954 292.579468 
L 292.442954 292.579468 
" style="fill:none;stroke:#1f78b4;stroke-linecap:round;stroke-width:2;"/>
   </g>
   <g id="line2d_16">
    <path clip-path="url(#p61493e2924)" d="M 447.331007 292.586514 
L 448.47893 292.466668 
L 449.167684 292.377262 
L 451.46353 292.550342 
L 451.9227 292.394384 
L 452.381869 291.93354 
L 452.841038 290.991169 
L 453.300207 289.528945 
L 453.759377 287.477804 
L 454.44813 282.943387 
L 455.596054 273.613673 
L 456.055223 268.212268 
L 456.743977 256.155259 
L 457.432731 238.645381 
L 458.121484 212.895812 
L 459.039823 175.522057 
L 461.106084 108.792683 
L 462.024423 86.542813 
L 462.254008 83.958116 
L 462.483592 83.532102 
L 462.713177 85.068078 
L 463.172346 91.980291 
L 463.631515 102.457855 
L 464.320269 125.954025 
L 467.075285 225.696628 
L 467.993623 249.645401 
L 468.911962 268.067668 
L 469.600716 278.406652 
L 470.059885 283.261541 
L 470.519054 286.15272 
L 470.978223 287.679184 
L 472.355731 290.776861 
L 473.044485 291.58847 
L 473.503654 291.876323 
L 476.488254 292.586336 
L 476.488254 292.586336 
" style="fill:none;stroke:#ff7f00;stroke-linecap:round;stroke-width:2;"/>
   </g>
   <g id="line2d_17">
    <path clip-path="url(#p61493e2924)" d="M 70.670072 292.588527 
L 77.336744 292.458693 
L 79.003412 292.355272 
L 82.336748 291.876466 
L 83.44786 291.696253 
L 84.558972 291.201794 
L 86.22564 289.989882 
L 87.336752 289.011096 
L 88.447864 287.733053 
L 89.558976 285.905227 
L 90.670088 283.454096 
L 91.7812 280.226906 
L 92.892312 276.081273 
L 94.55898 268.561546 
L 95.670092 262.612093 
L 97.33676 252.214469 
L 99.558984 236.957458 
L 101.781208 221.138748 
L 102.89232 215.672851 
L 104.558988 209.718927 
L 105.114544 208.023919 
L 105.6701 206.704968 
L 106.225656 205.971182 
L 106.781212 205.942436 
L 107.336768 206.584052 
L 107.892324 207.718881 
L 109.003436 210.709187 
L 109.558992 212.512075 
L 110.114548 214.723959 
L 110.670104 217.511712 
L 111.781216 224.760564 
L 116.78122 261.589449 
L 117.892332 268.106993 
L 119.003444 273.564986 
L 120.670112 280.36991 
L 121.781224 283.974775 
L 122.33678 285.340257 
L 122.892336 286.400659 
L 124.003448 287.848092 
L 125.11456 288.854163 
L 126.781227 290.038381 
L 129.559007 291.880627 
L 130.670119 292.244031 
L 132.892343 292.479096 
L 135.114567 292.546969 
L 138.447903 292.5342 
L 141.225683 292.588528 
L 141.225683 292.588528 
" style="fill:none;stroke:#e31a1c;stroke-linecap:round;stroke-width:2;"/>
   </g>
   <g id="line2d_18">
    <path clip-path="url(#p61493e2924)" d="M 284.365144 292.584674 
L 285.072553 292.48756 
L 286.133667 291.93723 
L 286.487372 291.701436 
L 287.017928 290.962472 
L 287.548485 289.90475 
L 287.90219 288.702011 
L 288.255895 286.555132 
L 288.609599 283.004476 
L 289.140156 274.968588 
L 289.847565 260.171283 
L 291.969793 204.346953 
L 293.030907 149.720557 
L 294.445725 86.048709 
L 294.976282 71.719883 
L 295.329987 67.814717 
L 295.683691 66.682024 
L 295.860544 66.709787 
L 296.037396 67.066596 
L 296.214248 67.837941 
L 296.391101 69.229254 
L 296.744805 75.15536 
L 297.09851 86.889455 
L 298.513328 152.554281 
L 299.751294 215.588908 
L 300.635556 244.640043 
L 301.519817 267.560317 
L 302.227227 279.585014 
L 302.757784 284.857208 
L 303.465193 288.67388 
L 303.99575 290.656673 
L 304.349454 291.275659 
L 305.056864 291.762069 
L 306.29483 292.539994 
L 306.825387 292.584998 
L 306.825387 292.584998 
" style="fill:none;stroke:#0000ff;stroke-linecap:round;stroke-width:2;"/>
   </g>
   <g id="line2d_19">
    <path clip-path="url(#p61493e2924)" d="M 301.485909 292.587515 
L 302.967717 292.492279 
L 303.856802 292.188947 
L 306.524057 290.668472 
L 307.11678 289.716802 
L 307.709503 288.240958 
L 308.302226 286.151501 
L 308.89495 283.100556 
L 309.487673 278.850514 
L 310.376758 270.343422 
L 311.265843 259.5611 
L 312.154928 245.900418 
L 313.933097 213.10841 
L 316.007629 171.613308 
L 316.600352 163.579751 
L 317.193075 158.217749 
L 317.489437 156.606861 
L 317.785798 155.831856 
L 318.08216 156.000858 
L 318.378522 157.127895 
L 318.971245 161.441767 
L 319.563968 165.998853 
L 320.156691 168.871537 
L 320.749415 171.490734 
L 321.045776 173.710951 
L 321.638499 180.996415 
L 325.194839 236.932502 
L 326.083924 246.201735 
L 327.565732 260.428017 
L 329.343902 278.69256 
L 329.936625 282.796411 
L 330.529348 285.511257 
L 331.122071 287.222073 
L 332.011156 288.977199 
L 333.196603 290.885382 
L 334.085688 291.88333 
L 334.678411 292.242851 
L 335.271134 292.343942 
L 336.752942 292.358455 
L 338.531112 292.578192 
L 339.123835 292.587492 
L 339.123835 292.587492 
" style="fill:none;stroke:#33a02c;stroke-linecap:round;stroke-width:2;"/>
   </g>
   <g id="line2d_20">
    <path clip-path="url(#p61493e2924)" d="M 319.112462 306.18 
L 319.112462 7.2 
" style="fill:none;stroke:#33a02c;stroke-dasharray:8.4,3.6;stroke-dashoffset:0;stroke-width:3;"/>
   </g>
   <g id="patch_3">
    <path d="M 50.379163 306.18 
L 50.379163 7.2 
" style="fill:none;"/>
   </g>
   <g id="patch_4">
    <path d="M 496.779163 306.18 
L 496.779163 7.2 
" style="fill:none;"/>
   </g>
   <g id="patch_5">
    <path d="M 50.379163 306.18 
L 496.779163 306.18 
" style="fill:none;"/>
   </g>
   <g id="patch_6">
    <path d="M 50.379163 7.2 
L 496.779163 7.2 
" style="fill:none;"/>
   </g>
   <g id="legend_1">
    <g id="line2d_21">
     <path d="M 62.979163 24.7 
L 90.979163 24.7 
" style="fill:none;stroke:#000000;stroke-linecap:round;stroke-width:2;"/>
    </g>
    <g id="line2d_22"/>
    <g id="text_16">
     <!-- \emph{vhl-1} $&gt;$ \emph{rhy-1} -->
     <defs>
      <path d="M 10.703125 48 
C 12.796875 33.046875 15.09375 18.171875 17.09375 3.125 
C 17.296875 2.109375 17.296875 0.90625 17.796875 0.203125 
C 19.90625 0 22.59375 0 24.703125 0 
L 25.296875 0.703125 
L 44.703125 35.109375 
L 51.796875 48 
C 49.703125 48 47.5 48 45.703125 47.703125 
C 44.90625 46.59375 44.296875 45.484375 43.59375 44.265625 
C 36.59375 31.84375 29.40625 19.515625 22.703125 6.6875 
C 21.59375 16.984375 20 26.6875 18.59375 36.6875 
C 18 40.328125 17.90625 44.46875 16.90625 47.703125 
C 15.09375 48 12.796875 48 10.703125 48 
" id="Computer_Modern_Bright_Slanted-118"/>
      <path d="M 21.09375 70 
L 6.40625 0 
L 10.90625 0 
C 11.796875 0 13 -0.296875 13 1.015625 
C 13.203125 1.71875 13.296875 2.328125 13.40625 3.03125 
C 14.40625 7.78125 19 29.5 19.296875 30.40625 
C 20.40625 33.953125 22.40625 37.375 25.09375 39.90625 
C 28 42.4375 31.203125 43.84375 36.59375 42.9375 
C 38.796875 42.53125 40.90625 41.625 42 39.5 
C 43.5 36.46875 42.40625 32.9375 41.796875 29.90625 
L 35.5 0 
L 40.203125 0 
C 41.203125 0 42.09375 -0.203125 42.09375 1.109375 
C 42.703125 3.125 44.09375 10.625 44.09375 10.625 
L 48.59375 32 
C 49.40625 35.734375 50.296875 40.40625 48.203125 43.9375 
C 46.296875 46.984375 42.90625 48 39.59375 48.296875 
C 38.09375 48.296875 36.5 48.296875 35 48 
C 30.796875 47.3125 27.09375 45.09375 24.09375 42.09375 
C 22.90625 40.890625 21.5 39.59375 20.796875 37.984375 
L 20.703125 37.984375 
L 27.40625 70 
z
" id="Computer_Modern_Bright_Slanted-104"/>
      <path d="M 21.09375 70 
L 6.40625 0 
C 8.5 0 10.796875 0 12.59375 0.296875 
L 13 1.40625 
C 14 6.4375 15.09375 11.375 16.203125 16.40625 
L 27.40625 70 
z
" id="Computer_Modern_Bright_Slanted-108"/>
      <path d="M 5.90625 26.0625 
L 4.90625 21 
L 32.796875 21 
L 33.796875 26.0625 
z
" id="Computer_Modern_Bright_Slanted-45"/>
      <path d="M 22.5 61 
L 21.5 55.9375 
C 26.296875 55.9375 31.40625 56.546875 35.703125 58.875 
L 24.5 5.046875 
C 20.296875 5.046875 15.296875 5.5625 11.5 5.046875 
C 10.90625 3.578125 10.703125 1.671875 10.296875 0 
C 21.09375 0 32.59375 0 42.796875 0 
C 43.40625 1.453125 43.703125 3.296875 44.09375 5.046875 
L 31 5.046875 
C 35.203125 26.0625 39.796875 46.59375 44.09375 67.5 
C 41.703125 67.5 42 67.09375 40 65.59375 
C 35.59375 62.59375 28.90625 61 22.5 61 
" id="Computer_Modern_Bright_Slanted-49"/>
      <path d="M 62.59375 26.546875 
L 62.59375 26.34375 
C 60.296875 25.546875 58 24.25 55.796875 23.140625 
L 27.09375 9.625 
L 11.09375 2 
C 10.40625 1.703125 9.40625 1.296875 8.90625 0.796875 
C 8 -0.203125 8.203125 -1.703125 9.296875 -2.296875 
C 10.5 -3 11.703125 -2.109375 12.796875 -1.609375 
L 21 2.203125 
C 25.203125 4.3125 55 18.328125 55 18.328125 
L 66 23.546875 
C 67.296875 24.140625 69.40625 24.75 69.40625 26.453125 
C 69.40625 28.15625 67.296875 28.75 66 29.359375 
L 55 34.5625 
L 33.703125 44.6875 
C 29.5 46.6875 25.203125 48.59375 21 50.703125 
L 12.796875 54.5 
C 11.703125 55 10.5 55.90625 9.296875 55.203125 
C 8.203125 54.609375 8 53.09375 8.90625 52.09375 
C 9.40625 51.59375 10.40625 51.203125 11.09375 50.890625 
L 41.59375 36.46875 
L 55.796875 29.75 
C 58 28.65625 60.296875 27.359375 62.59375 26.546875 
" id="Computer_Modern_Bright_Math_Slanted-62"/>
      <path d="M 19.90625 35.53125 
L 19.796875 35.53125 
L 22.40625 48.15625 
L 16.40625 48.15625 
L 6.40625 0.5 
L 10.90625 0.5 
C 11.40625 0.5 12.203125 0.296875 12.59375 0.703125 
C 12.90625 0.90625 13.5 4.4375 13.796875 5.65625 
L 16.703125 19.578125 
C 17.5 23.109375 18 26.859375 19.59375 30.1875 
C 23.40625 37.84375 31.90625 43 40.40625 43 
L 41.5 48.765625 
C 34.90625 48.765625 28.59375 45.421875 24 40.78125 
C 22.5 39.265625 20.90625 37.453125 19.90625 35.53125 
M 19.703125 34.953125 
C 19.703125 34.953125 19.796875 34.953125 19.796875 34.953125 
C 19.796875 34.859375 19.703125 34.75 19.703125 34.953125 
" id="Computer_Modern_Bright_Slanted-114"/>
      <path d="M 10.703125 48 
C 11.203125 44.265625 12 40.625 12.703125 36.890625 
C 13.09375 34.359375 19 0.8125 19 0.515625 
C 19 -0.09375 18.59375 -0.59375 18.296875 -1.109375 
L 16.59375 -4.140625 
C 14.703125 -7.265625 12.796875 -10.5 9 -11.8125 
C 6 -12.71875 0.5 -11.40625 -1.5 -10.796875 
C -1.796875 -12.625 -2 -14.53125 -2.203125 -16.453125 
C 0.5 -16.859375 5.40625 -17.46875 8.09375 -16.96875 
C 15.203125 -15.34375 19.203125 -8.671875 22.5 -3.21875 
L 44.09375 34.359375 
L 49.203125 43.359375 
C 50.09375 44.859375 51.203125 46.375 51.796875 48 
C 49.703125 48 47.40625 48 45.59375 47.703125 
C 43.203125 44.078125 41.203125 40.046875 38.90625 36.21875 
C 33.59375 26.4375 27.703125 17.359375 23.203125 6.78125 
L 23.09375 6.78125 
C 23.40625 8.390625 23.09375 10.109375 22.90625 11.734375 
C 21.796875 22.546875 18.59375 39.71875 17.09375 48 
z
" id="Computer_Modern_Bright_Slanted-121"/>
     </defs>
     <g style="fill:#262626;" transform="translate(102.179163 29.6)scale(0.14 -0.14)">
      <use transform="scale(0.996264)" xlink:href="#Computer_Modern_Bright_Slanted-118"/>
      <use transform="translate(42.341038 0)scale(0.996264)" xlink:href="#Computer_Modern_Bright_Slanted-104"/>
      <use transform="translate(90.493535 0)scale(0.996264)" xlink:href="#Computer_Modern_Bright_Slanted-108"/>
      <use transform="translate(109.588494 0)scale(0.996264)" xlink:href="#Computer_Modern_Bright_Slanted-45"/>
      <use transform="translate(142.797167 0)scale(0.996264)" xlink:href="#Computer_Modern_Bright_Slanted-49"/>
      <use transform="translate(235.881937 0)scale(0.996264)" xlink:href="#Computer_Modern_Bright_Math_Slanted-62"/>
      <use transform="translate(344.834617 0)scale(0.996264)" xlink:href="#Computer_Modern_Bright_Slanted-114"/>
      <use transform="translate(376.797976 0)scale(0.996264)" xlink:href="#Computer_Modern_Bright_Slanted-104"/>
      <use transform="translate(424.950473 0)scale(0.996264)" xlink:href="#Computer_Modern_Bright_Slanted-121"/>
      <use transform="translate(467.291511 0)scale(0.996264)" xlink:href="#Computer_Modern_Bright_Slanted-45"/>
      <use transform="translate(500.500184 0)scale(0.996264)" xlink:href="#Computer_Modern_Bright_Slanted-49"/>
     </g>
    </g>
    <g id="line2d_23">
     <path d="M 62.979163 43.824611 
L 90.979163 43.824611 
" style="fill:none;stroke:#1f78b4;stroke-linecap:round;stroke-width:2;"/>
    </g>
    <g id="line2d_24"/>
    <g id="text_17">
     <!-- Unbranched -->
     <defs>
      <path d="M 8 69.5 
L 8 32.75 
C 8 25.71875 7.203125 18.390625 10.703125 11.96875 
C 12.90625 7.84375 16.09375 4.4375 20.09375 2.125 
C 29.90625 -3.609375 43.5 -2.203125 51.296875 6.4375 
C 54.796875 10.359375 57.296875 15.171875 57.796875 21.796875 
C 57.90625 23.40625 57.796875 24.921875 57.796875 26.515625 
L 57.796875 69.5 
L 51.40625 69.5 
L 51.40625 25.90625 
C 51.40625 24.59375 51.5 23.1875 51.40625 21.890625 
C 51.203125 18.890625 50.59375 15.921875 49.40625 13.25 
C 43.90625 1 25 1 18 11.890625 
C 14.203125 17.78125 15 25.0625 15 31.65625 
L 15 69.5 
z
" id="Computer_Modern_Bright-85"/>
      <path d="M 6.40625 69.6875 
L 6.40625 0 
L 12.796875 0 
L 12.796875 6.328125 
L 12.90625 6.328125 
C 14 4.109375 16.5 2.015625 18.59375 0.90625 
C 25.796875 -2.90625 34.40625 0.90625 39.09375 7.03125 
C 48.59375 19.578125 44.796875 40.875 32.296875 46.796875 
C 27.40625 49 21.5 48 17.09375 44.984375 
C 15.40625 43.78125 14 42.375 12.703125 40.765625 
L 12.703125 69.6875 
z
M 21.90625 42.984375 
C 26.59375 43.375 31.5 41.265625 34.296875 37.453125 
C 36.203125 34.9375 37.203125 31.9375 37.703125 28.8125 
C 38.703125 21.484375 37.90625 12.25 31.40625 7.4375 
C 30.296875 6.625 29.09375 6.03125 27.796875 5.515625 
C 22.40625 3.515625 17 4.109375 14 8.84375 
C 13.09375 10.4375 12.796875 10.546875 12.796875 12.953125 
L 12.796875 33.734375 
C 12.796875 34.75 12.59375 35.953125 13 36.859375 
C 14.59375 40.171875 18.296875 42.671875 21.90625 42.984375 
" id="Computer_Modern_Bright-98"/>
      <path d="M 12.5 34.75 
L 12.40625 34.75 
L 12.40625 47.390625 
L 6.40625 47.390625 
L 6.40625 0 
L 12.703125 0 
L 12.703125 22.890625 
C 12.703125 24.40625 12.703125 25.90625 12.90625 27.40625 
C 14.296875 35.953125 21.703125 42.28125 31.40625 42.28125 
L 31.40625 48 
C 25 48 19.09375 44.890625 15.296875 39.765625 
C 14.203125 38.265625 13 36.546875 12.5 34.75 
" id="Computer_Modern_Bright-114"/>
      <path d="M 6.40625 69.6875 
L 6.40625 0 
L 12.796875 0 
L 12.796875 21.984375 
C 12.796875 26.90625 12.5 31.9375 14.703125 36.546875 
C 15.796875 38.859375 17.5 40.875 19.796875 42.078125 
C 21.703125 42.984375 23.703125 42.984375 25.796875 42.78125 
C 28.796875 42.78125 31.703125 41.984375 33.59375 39.453125 
C 35.40625 37.140625 35.5 34.140625 35.5 31.3125 
L 35.5 0 
L 41.90625 0 
L 41.90625 27.21875 
C 41.90625 32.234375 42.40625 37.75 39.90625 42.28125 
C 37.90625 45.6875 34.40625 47.296875 30.703125 47.796875 
C 28.703125 48 26.703125 48 24.703125 47.703125 
C 21.09375 47.015625 18 45.03125 15.59375 42.34375 
C 14.5 41.046875 13.203125 39.46875 12.796875 37.765625 
L 12.703125 37.765625 
L 12.703125 69.6875 
z
" id="Computer_Modern_Bright-104"/>
      <path d="M 35.59375 69.6875 
L 35.59375 41.375 
C 33.703125 43.484375 31.796875 45.484375 29.203125 46.6875 
C 20.296875 50.40625 11.703125 45.59375 7.296875 37.65625 
C 2.203125 28.21875 2.796875 15.765625 8.90625 6.921875 
C 13.203125 0.796875 20.296875 -2.203125 27.796875 0.5 
C 30.703125 1.609375 34.203125 4.515625 35.40625 7.125 
L 35.5 7.125 
L 35.5 0 
L 41.90625 0 
L 41.90625 69.6875 
z
M 35.203125 37.453125 
C 35.703125 36.546875 35.5 35.34375 35.5 34.34375 
L 35.5 13.65625 
C 35.5 11.34375 35.40625 11.140625 34.09375 9.34375 
C 32.296875 6.625 29.5 4.71875 26.203125 4.421875 
C 21.40625 4.015625 16.5 6.328125 13.703125 10.25 
C 12.09375 12.546875 11.203125 15.359375 10.703125 18.171875 
C 10.5 19.28125 10.5 20.28125 10.40625 21.390625 
C 9.796875 28.015625 11.203125 35.84375 17 40.0625 
C 18 40.765625 19.09375 41.265625 20.203125 41.765625 
C 26 43.984375 32.40625 43.375 35.203125 37.453125 
" id="Computer_Modern_Bright-100"/>
     </defs>
     <g style="fill:#262626;" transform="translate(102.179163 48.724611)scale(0.14 -0.14)">
      <use transform="scale(0.996264)" xlink:href="#Computer_Modern_Bright-85"/>
      <use transform="translate(65.587132 0)scale(0.996264)" xlink:href="#Computer_Modern_Bright-110"/>
      <use transform="translate(113.739629 0)scale(0.996264)" xlink:href="#Computer_Modern_Bright-98"/>
      <use transform="translate(158.986397 0)scale(0.996264)" xlink:href="#Computer_Modern_Bright-114"/>
      <use transform="translate(190.949756 0)scale(0.996264)" xlink:href="#Computer_Modern_Bright-97"/>
      <use transform="translate(237.441838 0)scale(0.996264)" xlink:href="#Computer_Modern_Bright-110"/>
      <use transform="translate(285.594335 0)scale(0.996264)" xlink:href="#Computer_Modern_Bright-99"/>
      <use transform="translate(330.426003 0)scale(0.996264)" xlink:href="#Computer_Modern_Bright-104"/>
      <use transform="translate(378.5785 0)scale(0.996264)" xlink:href="#Computer_Modern_Bright-101"/>
      <use transform="translate(423.410167 0)scale(0.996264)" xlink:href="#Computer_Modern_Bright-100"/>
     </g>
    </g>
    <g id="line2d_25">
     <path d="M 62.979163 62.949222 
L 90.979163 62.949222 
" style="fill:none;stroke:#ff7f00;stroke-linecap:round;stroke-width:2;"/>
    </g>
    <g id="line2d_26"/>
    <g id="text_18">
     <!-- Additive -->
     <defs>
      <path d="M 2.09375 0.09375 
L 6.59375 0.09375 
L 8.40625 0.296875 
C 11.40625 6.796875 13.5 14.203125 16.203125 21 
C 26.09375 21 36.90625 21 46.296875 21 
L 47.09375 19.6875 
C 48.796875 14.546875 50.796875 9.59375 52.59375 4.546875 
C 53.09375 3.015625 53.59375 1.515625 54.40625 0.296875 
C 56.59375 0 59.203125 0 61.59375 0 
C 59.90625 4.90625 36.703125 67.203125 36 68.890625 
C 35.90625 69.296875 35.703125 69.890625 35.203125 70 
C 34.59375 70.09375 34 70 33.40625 70 
L 30.09375 70 
C 28.59375 70 28 70.1875 27.59375 68.609375 
C 27.203125 67.59375 2.09375 0.09375 2.09375 0.09375 
M 31.40625 63.171875 
C 35.59375 50.71875 40.09375 38.46875 44.5 26.21875 
L 18.203125 26.21875 
L 26.90625 50.109375 
z
" id="Computer_Modern_Bright-65"/>
     </defs>
     <g style="fill:#262626;" transform="translate(102.179163 67.849222)scale(0.14 -0.14)">
      <use transform="scale(0.996264)" xlink:href="#Computer_Modern_Bright-65"/>
      <use transform="translate(63.511618 0)scale(0.996264)" xlink:href="#Computer_Modern_Bright-100"/>
      <use transform="translate(111.664115 0)scale(0.996264)" xlink:href="#Computer_Modern_Bright-100"/>
      <use transform="translate(159.816612 0)scale(0.996264)" xlink:href="#Computer_Modern_Bright-105"/>
      <use transform="translate(178.911571 0)scale(0.996264)" xlink:href="#Computer_Modern_Bright-116"/>
      <use transform="translate(215.025959 0)scale(0.996264)" xlink:href="#Computer_Modern_Bright-105"/>
      <use transform="translate(234.120917 0)scale(0.996264)" xlink:href="#Computer_Modern_Bright-118"/>
      <use transform="translate(276.461955 0)scale(0.996264)" xlink:href="#Computer_Modern_Bright-101"/>
     </g>
    </g>
    <g id="line2d_27">
     <path d="M 62.979163 82.073833 
L 90.979163 82.073833 
" style="fill:none;stroke:#e31a1c;stroke-linecap:round;stroke-width:2;"/>
    </g>
    <g id="line2d_28"/>
    <g id="text_19">
     <!-- Suppression -->
     <defs>
      <path d="M 5.09375 13.015625 
C 4.90625 11.390625 4.5 9.671875 4.296875 8.046875 
C 4.09375 6.53125 3.59375 6.109375 4.90625 5.3125 
C 8.296875 3.390625 11.203125 2.0625 15.40625 0.75 
C 24.796875 -2 35.59375 -2 43.796875 4.140625 
C 45.09375 5.140625 46.296875 6.234375 47.40625 7.53125 
C 49.90625 10.890625 52.203125 14.96875 51.59375 20.53125 
C 50.90625 27.671875 46.09375 33.625 39.59375 36.609375 
C 30.703125 40.578125 16.203125 40.578125 12.203125 49.375 
C 9.09375 56.1875 14.59375 62.171875 20.796875 64.375 
C 26.90625 66.6875 34.90625 65.78125 40.09375 63.375 
C 42.5 62.265625 44.5 60.65625 46.703125 59.25 
C 46.90625 60.96875 47.296875 62.578125 47.59375 64.28125 
C 47.796875 65.375 48.09375 66.390625 46.90625 66.78125 
L 45 67.796875 
C 42.296875 69 39.5 69.90625 36.59375 70.5 
C 27.59375 72.203125 17.203125 71.203125 10.40625 64.484375 
C 7 61.0625 4.09375 56.4375 5.296875 49.515625 
C 6.703125 42.390625 12.296875 37.875 18.09375 35.65625 
C 21.5 34.359375 25.296875 33.65625 28.90625 32.75 
C 31 32.34375 33.203125 31.84375 35.296875 31.140625 
C 40.703125 29.125 45.40625 25.109375 45.40625 17.6875 
C 44.796875 11.296875 39.203125 6.625 33.296875 5.203125 
C 25.703125 3.265625 16.703125 6.015625 11.5 8.75 
C 9.203125 9.96875 7.203125 11.59375 5.09375 13.015625 
" id="Computer_Modern_Bright-83"/>
     </defs>
     <g style="fill:#262626;" transform="translate(102.179163 86.973833)scale(0.14 -0.14)">
      <use transform="scale(0.996264)" xlink:href="#Computer_Modern_Bright-83"/>
      <use transform="translate(56.454753 0)scale(0.996264)" xlink:href="#Computer_Modern_Bright-117"/>
      <use transform="translate(104.60725 0)scale(0.996264)" xlink:href="#Computer_Modern_Bright-112"/>
      <use transform="translate(152.759747 0)scale(0.996264)" xlink:href="#Computer_Modern_Bright-112"/>
      <use transform="translate(198.006514 0)scale(0.996264)" xlink:href="#Computer_Modern_Bright-114"/>
      <use transform="translate(229.969873 0)scale(0.996264)" xlink:href="#Computer_Modern_Bright-101"/>
      <use transform="translate(274.801541 0)scale(0.996264)" xlink:href="#Computer_Modern_Bright-115"/>
      <use transform="translate(313.24057 0)scale(0.996264)" xlink:href="#Computer_Modern_Bright-115"/>
      <use transform="translate(351.679599 0)scale(0.996264)" xlink:href="#Computer_Modern_Bright-105"/>
      <use transform="translate(370.774558 0)scale(0.996264)" xlink:href="#Computer_Modern_Bright-111"/>
      <use transform="translate(421.417776 0)scale(0.996264)" xlink:href="#Computer_Modern_Bright-110"/>
     </g>
    </g>
    <g id="line2d_29">
     <path d="M 62.979163 101.198444 
L 90.979163 101.198444 
" style="fill:none;stroke:#0000ff;stroke-linecap:round;stroke-width:2;"/>
    </g>
    <g id="line2d_30"/>
    <g id="text_20">
     <!-- \emph{rhy-1} $&gt;$ \emph{vhl-1} -->
     <g style="fill:#262626;" transform="translate(102.179163 106.098444)scale(0.14 -0.14)">
      <use transform="scale(0.996264)" xlink:href="#Computer_Modern_Bright_Slanted-114"/>
      <use transform="translate(31.963359 0)scale(0.996264)" xlink:href="#Computer_Modern_Bright_Slanted-104"/>
      <use transform="translate(80.115856 0)scale(0.996264)" xlink:href="#Computer_Modern_Bright_Slanted-121"/>
      <use transform="translate(122.456894 0)scale(0.996264)" xlink:href="#Computer_Modern_Bright_Slanted-45"/>
      <use transform="translate(155.665567 0)scale(0.996264)" xlink:href="#Computer_Modern_Bright_Slanted-49"/>
      <use transform="translate(248.750337 0)scale(0.996264)" xlink:href="#Computer_Modern_Bright_Math_Slanted-62"/>
      <use transform="translate(357.703017 0)scale(0.996264)" xlink:href="#Computer_Modern_Bright_Slanted-118"/>
      <use transform="translate(400.044055 0)scale(0.996264)" xlink:href="#Computer_Modern_Bright_Slanted-104"/>
      <use transform="translate(448.196552 0)scale(0.996264)" xlink:href="#Computer_Modern_Bright_Slanted-108"/>
      <use transform="translate(467.291511 0)scale(0.996264)" xlink:href="#Computer_Modern_Bright_Slanted-45"/>
      <use transform="translate(500.500184 0)scale(0.996264)" xlink:href="#Computer_Modern_Bright_Slanted-49"/>
     </g>
    </g>
    <g id="line2d_31">
     <path d="M 62.979163 120.323055 
L 90.979163 120.323055 
" style="fill:none;stroke:#33a02c;stroke-linecap:round;stroke-width:2;"/>
    </g>
    <g id="line2d_32"/>
    <g id="text_21">
     <!-- actual -->
     <g style="fill:#262626;" transform="translate(102.179163 125.223055)scale(0.14 -0.14)">
      <use transform="scale(0.996264)" xlink:href="#Computer_Modern_Bright-97"/>
      <use transform="translate(46.492082 0)scale(0.996264)" xlink:href="#Computer_Modern_Bright-99"/>
      <use transform="translate(91.32375 0)scale(0.996264)" xlink:href="#Computer_Modern_Bright-116"/>
      <use transform="translate(127.438138 0)scale(0.996264)" xlink:href="#Computer_Modern_Bright-117"/>
      <use transform="translate(175.590635 0)scale(0.996264)" xlink:href="#Computer_Modern_Bright-97"/>
      <use transform="translate(222.082717 0)scale(0.996264)" xlink:href="#Computer_Modern_Bright-108"/>
     </g>
    </g>
   </g>
  </g>
 </g>
 <defs>
  <clipPath id="p61493e2924">
   <rect height="298.98" width="446.4" x="50.379163" y="7.2"/>
  </clipPath>
 </defs>
</svg>
