<?xml version="1.0" encoding="utf-8" standalone="no"?>
<!DOCTYPE svg PUBLIC "-//W3C//DTD SVG 1.1//EN"
  "http://www.w3.org/Graphics/SVG/1.1/DTD/svg11.dtd">
<!-- Created with matplotlib (http://matplotlib.org/) -->
<svg height="353pt" version="1.1" viewBox="0 0 503 353" width="503pt" xmlns="http://www.w3.org/2000/svg" xmlns:xlink="http://www.w3.org/1999/xlink">
 <defs>
  <style type="text/css">
*{stroke-linecap:butt;stroke-linejoin:round;}
  </style>
 </defs>
 <g id="figure_1">
  <g id="patch_1">
   <path d="M 0 353.548374 
L 503.979163 353.548374 
L 503.979163 0 
L 0 0 
z
" style="fill:#ffffff;"/>
  </g>
  <g id="axes_1">
   <g id="patch_2">
    <path d="M 50.379163 306.18 
L 496.779163 306.18 
L 496.779163 7.2 
L 50.379163 7.2 
z
" style="fill:#eaeaf2;"/>
   </g>
   <g id="matplotlib.axis_1">
    <g id="xtick_1">
     <g id="line2d_1"/>
     <g id="text_1">
      <!-- $-1.0$ -->
      <defs>
       <path d="M 9.796875 28.078125 
C 8 27.484375 7.796875 24.78125 9.796875 24.28125 
C 10.296875 24.078125 10.90625 24.1875 11.5 24.1875 
L 64.703125 24.1875 
C 65.90625 24.1875 67.796875 23.78125 68.796875 24.78125 
C 69.90625 25.875 69.296875 27.875 67.703125 28.1875 
C 66.5 28.375 65.09375 28.1875 63.90625 28.1875 
L 11.40625 28.1875 
C 10.90625 28.1875 10.296875 28.28125 9.796875 28.078125 
" id="Computer_Modern_Bright_Math_Symbols-0"/>
       <path d="M 9.703125 60.015625 
L 9.703125 55 
C 15.203125 55 19 56 23.40625 57.90625 
L 23.40625 5.015625 
L 10.296875 5.015625 
L 10.296875 0 
L 43 0 
L 43 5.015625 
L 29.90625 5.015625 
L 29.90625 67 
C 27.5 67 27.90625 66.359375 26 64.875 
C 21.90625 61.71875 16.203125 60.015625 9.703125 60.015625 
" id="Computer_Modern_Bright-49"/>
       <path d="M 10.703125 7.8125 
L 10.703125 0 
L 18.5 0 
L 18.5 7.8125 
z
" id="Computer_Modern_Bright_Math_Slanted-58"/>
       <path d="M 14.796875 63.859375 
C 11.90625 61.859375 9.90625 59.140625 8.40625 56.03125 
C 4.796875 49 4.40625 40.765625 4.40625 31.828125 
C 4.40625 20.578125 6.40625 10.25 12 4.3125 
C 17.296875 -1.203125 25.703125 -2.609375 32.796875 0.296875 
C 37.203125 2.015625 40.40625 5.71875 42.40625 9.734375 
C 46 16.875 46.40625 25.40625 46.40625 34.234375 
C 46.40625 37.046875 46.296875 39.859375 46 42.671875 
C 45.296875 49.40625 43 56.828125 39.296875 60.953125 
C 33.203125 67.6875 22.296875 69.1875 14.796875 63.859375 
M 34.90625 58.140625 
C 39.59375 53.125 40 43.484375 40 34.34375 
L 40 28.921875 
C 40 24.296875 39.203125 18.28125 38.203125 14.859375 
C 36.796875 10.140625 34.5 6.734375 29.90625 4.625 
C 24.296875 2.609375 18.5 4.515625 15.296875 8.9375 
C 11 14.65625 10.796875 24.796875 10.796875 33.734375 
C 10.796875 42.171875 10.90625 51.515625 15 57.03125 
C 19.5 63.0625 29.203125 64.0625 34.90625 58.140625 
" id="Computer_Modern_Bright-48"/>
      </defs>
      <g style="fill:#262626;" transform="translate(71.871674 324.249603)scale(0.16 -0.16)">
       <use transform="scale(0.996264)" xlink:href="#Computer_Modern_Bright_Math_Symbols-0"/>
       <use transform="translate(77.487468 0)scale(0.996264)" xlink:href="#Computer_Modern_Bright-49"/>
       <use transform="translate(128.130685 0)scale(0.996264)" xlink:href="#Computer_Modern_Bright_Math_Slanted-58"/>
       <use transform="translate(157.188132 0)scale(0.996264)" xlink:href="#Computer_Modern_Bright-48"/>
      </g>
     </g>
    </g>
    <g id="xtick_2">
     <g id="line2d_2"/>
     <g id="text_2">
      <!-- $-0.8$ -->
      <defs>
       <path d="M 18.703125 36 
L 18.703125 35.90625 
C 12.5 34.09375 7.296875 30.6875 4.796875 24.84375 
C 2.203125 18.71875 4 11.28125 8.40625 6.453125 
C 13.09375 1.421875 19.5 -1 26.296875 -1 
C 36.296875 -1 45.90625 6.40625 47.09375 16.734375 
C 47.296875 18.265625 47.203125 19.890625 47 21.40625 
C 45.203125 29.21875 39.5 33.875 32.09375 35.90625 
C 32.90625 36.203125 33.796875 36.40625 34.59375 36.703125 
C 38.796875 38.421875 42.296875 40.921875 44.5 44.9375 
C 47.796875 51.375 44.59375 58.90625 39.203125 63.015625 
C 33.796875 67.140625 26.5 68.234375 19.90625 66.828125 
C 12 65.125 4.5 58.40625 5 49.765625 
C 5.203125 46.75 6.5 44.234375 8 42.4375 
C 10.296875 39.625 14.796875 36.609375 18.703125 36 
M 23.796875 62.5 
C 28.203125 62.5 33.703125 62 36.90625 58.578125 
C 40.703125 54.46875 40.90625 47.03125 37.09375 42.8125 
C 34.703125 40.203125 31.203125 38.890625 27.703125 38.59375 
C 22.796875 38.1875 17.203125 39 13.703125 42.8125 
C 9.796875 47.125 10.09375 54.96875 14.296875 58.984375 
C 16.90625 61.390625 20.40625 62.1875 23.796875 62.5 
M 23.703125 33.5 
C 28.40625 33.5 33.5 32.390625 36.90625 28.9375 
C 38.203125 27.53125 39.203125 25.8125 39.796875 24.015625 
C 41.5 18.75 40.703125 12.09375 36.796875 8.046875 
C 34.09375 5.328125 30.40625 4.3125 26.703125 4.015625 
C 22.203125 4.015625 17 5.109375 13.796875 8.5625 
C 9.40625 13.390625 8.5 23.40625 13.703125 29.0625 
C 16.296875 31.78125 20 33.203125 23.703125 33.5 
" id="Computer_Modern_Bright-56"/>
      </defs>
      <g style="fill:#262626;" transform="translate(148.089309 324.249603)scale(0.16 -0.16)">
       <use transform="scale(0.996264)" xlink:href="#Computer_Modern_Bright_Math_Symbols-0"/>
       <use transform="translate(77.487468 0)scale(0.996264)" xlink:href="#Computer_Modern_Bright-48"/>
       <use transform="translate(128.130685 0)scale(0.996264)" xlink:href="#Computer_Modern_Bright_Math_Slanted-58"/>
       <use transform="translate(157.188132 0)scale(0.996264)" xlink:href="#Computer_Modern_Bright-56"/>
      </g>
     </g>
    </g>
    <g id="xtick_3">
     <g id="line2d_3"/>
     <g id="text_3">
      <!-- $-0.6$ -->
      <defs>
       <path d="M 11.296875 32.625 
L 11.203125 32.625 
C 11.203125 41.765625 12.796875 52.421875 20.59375 58.25 
C 24.90625 61.375 30.703125 62.96875 38.203125 61.171875 
C 39.796875 60.765625 41.296875 60.15625 42.796875 59.765625 
L 42.796875 63.28125 
C 42.796875 63.671875 42.90625 64.375 42.59375 64.78125 
C 41.90625 65.6875 36.296875 66.59375 36.09375 66.59375 
C 27.40625 67.59375 21.703125 65.6875 16.40625 61.171875 
C 10 55.640625 6.296875 47.515625 5.09375 39.28125 
C 4 32.65625 4.90625 22 6.203125 16.78125 
C 8.296875 9.046875 12.296875 2.21875 19.703125 -0.390625 
C 24.09375 -2 29.5 -2 33.703125 0.015625 
C 37.09375 1.640625 39.90625 4.46875 42.09375 7.5 
C 45.59375 12.34375 46.5 18.21875 46.09375 24.171875 
C 45.90625 27.109375 45.5 30.046875 44.296875 32.765625 
C 42.40625 37.125 39.203125 41.671875 35.09375 43.6875 
C 33.203125 44.5 31.203125 44.5 29.203125 44.5 
C 23.90625 44.5 18.90625 42.1875 15.203125 38.359375 
C 13.59375 36.75 12 34.71875 11.296875 32.625 
M 24.40625 39.515625 
C 28.203125 39.8125 32.203125 39.21875 35.09375 36.5 
C 38.90625 32.890625 39.59375 27.765625 39.59375 22.8125 
C 39.59375 19.46875 39.703125 16.015625 38.703125 12.859375 
C 38.09375 11.234375 37.296875 9.828125 36.40625 8.5 
C 34.203125 5.5625 31.40625 4.125 26.796875 3.515625 
C 22.296875 3.515625 17.796875 5.3125 15.203125 9.125 
C 13.59375 11.328125 12.796875 14.046875 12.296875 16.640625 
C 11.703125 19.34375 11.296875 22.140625 11.5 24.859375 
C 12 31.984375 17 38.515625 24.40625 39.515625 
" id="Computer_Modern_Bright-54"/>
      </defs>
      <g style="fill:#262626;" transform="translate(224.306944 324.249603)scale(0.16 -0.16)">
       <use transform="scale(0.996264)" xlink:href="#Computer_Modern_Bright_Math_Symbols-0"/>
       <use transform="translate(77.487468 0)scale(0.996264)" xlink:href="#Computer_Modern_Bright-48"/>
       <use transform="translate(128.130685 0)scale(0.996264)" xlink:href="#Computer_Modern_Bright_Math_Slanted-58"/>
       <use transform="translate(157.188132 0)scale(0.996264)" xlink:href="#Computer_Modern_Bright-54"/>
      </g>
     </g>
    </g>
    <g id="xtick_4">
     <g id="line2d_4"/>
     <g id="text_4">
      <!-- $-0.4$ -->
      <defs>
       <path d="M 2.09375 18 
L 31 18 
L 31 0 
L 37.296875 0 
L 37.296875 18 
L 48.703125 18 
L 48.703125 23.328125 
L 37.296875 23.328125 
L 37.296875 66.46875 
L 31.90625 66.46875 
C 30.09375 66.46875 29.59375 66.578125 28.796875 65.0625 
C 24.796875 58.515625 3.703125 25.765625 3 24.859375 
C 2.203125 23.4375 2.09375 23.546875 2.09375 21.4375 
z
M 31.296875 60.875 
L 31.296875 23.328125 
L 8.59375 23.328125 
C 9.296875 24.734375 10.296875 26.03125 11.203125 27.4375 
C 16.203125 35.171875 28.09375 53.546875 30.59375 59.28125 
C 30.90625 59.78125 31 60.375 31.296875 60.875 
" id="Computer_Modern_Bright-52"/>
      </defs>
      <g style="fill:#262626;" transform="translate(300.524579 324.249603)scale(0.16 -0.16)">
       <use transform="scale(0.996264)" xlink:href="#Computer_Modern_Bright_Math_Symbols-0"/>
       <use transform="translate(77.487468 0)scale(0.996264)" xlink:href="#Computer_Modern_Bright-48"/>
       <use transform="translate(128.130685 0)scale(0.996264)" xlink:href="#Computer_Modern_Bright_Math_Slanted-58"/>
       <use transform="translate(157.188132 0)scale(0.996264)" xlink:href="#Computer_Modern_Bright-52"/>
      </g>
     </g>
    </g>
    <g id="xtick_5">
     <g id="line2d_5"/>
     <g id="text_5">
      <!-- $-0.2$ -->
      <defs>
       <path d="M 7.296875 45.96875 
C 8.703125 51.59375 11.09375 57.984375 16.796875 60.5 
C 19.203125 61.5 21.796875 61.703125 24.40625 61.5 
C 29.296875 61.09375 34.09375 59.09375 37.09375 55.09375 
C 39.296875 52.078125 40.09375 48.375 39.703125 44.78125 
C 38.5 34.34375 28.296875 26.84375 21.703125 21.234375 
C 17.90625 18.03125 7.09375 7.8125 7.09375 7.8125 
L 5.40625 6.203125 
C 4.5 5.3125 4.40625 5.3125 4.40625 3.5 
L 4.40625 0 
L 46.40625 0 
L 46.40625 5.625 
L 10.203125 5.625 
C 13.40625 8.734375 26.703125 20.515625 28.5 21.921875 
C 34.296875 26.65625 40.796875 31.375 44.296875 38.21875 
C 48.203125 46.0625 46.5 55.9375 39.90625 61.765625 
C 35.90625 65.296875 30.40625 67 25.09375 67 
C 20.203125 67 15.203125 66 11.296875 62.90625 
C 8.296875 60.390625 5.796875 56.6875 4.40625 52.875 
C 4.09375 52.28125 3.59375 51.28125 3.703125 50.578125 
C 3.796875 49.984375 4.40625 49.484375 4.703125 49.078125 
C 5.5 48.078125 6.296875 46.875 7.296875 45.96875 
" id="Computer_Modern_Bright-50"/>
      </defs>
      <g style="fill:#262626;" transform="translate(376.742214 324.249603)scale(0.16 -0.16)">
       <use transform="scale(0.996264)" xlink:href="#Computer_Modern_Bright_Math_Symbols-0"/>
       <use transform="translate(77.487468 0)scale(0.996264)" xlink:href="#Computer_Modern_Bright-48"/>
       <use transform="translate(128.130685 0)scale(0.996264)" xlink:href="#Computer_Modern_Bright_Math_Slanted-58"/>
       <use transform="translate(157.188132 0)scale(0.996264)" xlink:href="#Computer_Modern_Bright-50"/>
      </g>
     </g>
    </g>
    <g id="xtick_6">
     <g id="line2d_6"/>
     <g id="text_6">
      <!-- $0.0$ -->
      <g style="fill:#262626;" transform="translate(459.158847 324.249603)scale(0.16 -0.16)">
       <use transform="scale(0.996264)" xlink:href="#Computer_Modern_Bright-48"/>
       <use transform="translate(50.643218 0)scale(0.996264)" xlink:href="#Computer_Modern_Bright_Math_Slanted-58"/>
       <use transform="translate(79.700665 0)scale(0.996264)" xlink:href="#Computer_Modern_Bright-48"/>
      </g>
     </g>
    </g>
    <g id="text_7">
     <!-- Epistasis Coefficient -->
     <defs>
      <path d="M 8 69.328125 
L 8 0 
L 55.40625 0 
L 55.40625 5.625 
L 15 5.625 
L 15 33.671875 
L 51.09375 33.671875 
L 51.09375 39 
L 15 39 
L 15 64 
L 54 64 
L 54 69.328125 
z
" id="Computer_Modern_Bright-69"/>
      <path d="M 12.703125 40.53125 
L 12.703125 47.15625 
L 6.40625 47.15625 
L 6.40625 -17 
L 12.796875 -17 
L 12.796875 6.09375 
C 14.203125 4.078125 15.796875 2.28125 17.90625 1.078125 
C 25 -3.25 34 0.171875 38.90625 6.59375 
C 45.40625 14.96875 46.09375 27.5 41.59375 36.984375 
C 39 42.4375 34.09375 47.5 27.796875 48 
C 22.296875 48 18.09375 45.8125 15.09375 43.125 
C 14.203125 42.328125 13.5 41.4375 12.703125 40.53125 
M 21.90625 42.875 
C 26 43.171875 30 41.265625 32.796875 38.265625 
C 34.5 36.34375 35.796875 34.140625 36.59375 31.734375 
C 40.09375 22.296875 36.90625 9.234375 26.796875 5.328125 
C 21 3.109375 15.296875 5.125 13.09375 10.546875 
C 12.59375 11.546875 12.796875 12.859375 12.796875 13.953125 
L 12.796875 34.640625 
C 12.796875 36.953125 13 37.15625 14.5 38.859375 
C 16.296875 41.0625 19 42.578125 21.90625 42.875 
" id="Computer_Modern_Bright-112"/>
      <path d="M 6.40625 70 
L 6.40625 63.671875 
L 12.703125 63.671875 
L 12.703125 70 
z
M 6.40625 47.390625 
L 6.40625 0 
L 12.703125 0 
L 12.703125 47.390625 
z
" id="Computer_Modern_Bright-105"/>
      <path d="M 3.09375 9.640625 
C 2.90625 8.234375 2.59375 6.9375 2.40625 5.53125 
C 2.203125 4.421875 1.90625 3.921875 2.90625 3.421875 
C 7 1.015625 11.90625 -0.296875 17.703125 -0.796875 
C 24.203125 -1.40625 32.40625 0.109375 35.59375 6.53125 
C 36.5 8.34375 37 10.34375 37.09375 12.359375 
C 37.5 19.578125 31.796875 24.203125 26.90625 25.90625 
C 21.40625 28.015625 13.90625 27.3125 10.09375 31.53125 
C 8.09375 33.84375 8 37.265625 9.90625 39.671875 
C 13.90625 45.296875 26.796875 42.875 31.90625 40.375 
C 32.703125 39.96875 33.40625 39.46875 34.296875 39.265625 
L 35.203125 44.6875 
C 30.5 46.796875 26.40625 48 19.90625 48 
C 14.296875 48 9.203125 46.703125 6 43.484375 
C 2.796875 40.171875 1.703125 34.640625 3.59375 30.4375 
C 5.40625 26.40625 9.203125 23.796875 13.296875 22.5 
C 19.203125 20.390625 25.90625 21.390625 29.796875 16.578125 
C 32 13.765625 31.59375 9.546875 29.09375 7.03125 
C 24.296875 2.609375 14.09375 4.21875 8.5 6.625 
C 6.59375 7.4375 4.90625 8.640625 3.09375 9.640625 
" id="Computer_Modern_Bright-115"/>
      <path d="M 10.796875 60.5 
L 10.796875 47.015625 
L 1.09375 47.015625 
L 1.09375 42 
L 10.703125 42 
L 10.703125 15.015625 
C 10.703125 10.578125 10.40625 5.234375 13.296875 1.515625 
C 15 -0.703125 17.296875 -1.296875 20.796875 -1 
C 23.703125 -1 26.59375 -0.390625 29.296875 0.65625 
C 30.203125 1.0625 33.5 2.515625 33.90625 3.234375 
C 34.09375 3.640625 32.796875 8.09375 32.796875 8.09375 
L 30.40625 6.265625 
C 27.296875 4.34375 21.09375 2.328125 18.5 5.96875 
C 16.203125 9.09375 16.796875 13.75 16.796875 17.375 
L 16.796875 42 
L 32.296875 42 
L 32.296875 47.015625 
L 16.796875 47.015625 
L 16.796875 60.5 
z
" id="Computer_Modern_Bright-116"/>
      <path d="M 7.90625 39.015625 
C 9.59375 39.859375 11 41.09375 12.703125 41.921875 
C 15.40625 43.15625 18.203125 44 21.203125 44 
C 22.59375 44.09375 24.203125 44.296875 25.59375 44 
C 28.09375 43.59375 30.296875 42.078125 31.796875 39.953125 
C 33.296875 37.515625 33.90625 35.390625 33.90625 31.46875 
L 33.90625 27.015625 
C 29.09375 27.015625 24.296875 26.609375 19.703125 25.390625 
C 13.90625 24.078125 7.59375 21.125 5.5 15.84375 
C 3.40625 10.78125 5.59375 4.078125 10.09375 1.03125 
C 12.296875 -0.5 14.90625 -0.5 17.5 -0.296875 
C 21.703125 0 25.90625 1.015625 29.5 3.25 
C 31.203125 4.25 32.90625 5.578125 33.90625 7.296875 
L 34 7.296875 
L 34 0.203125 
L 40.296875 0.203125 
L 40.296875 26.890625 
C 40.296875 29.8125 40.59375 32.953125 40 35.890625 
C 39.40625 39.921875 36.90625 43.265625 34 45.59375 
C 30.59375 48.21875 26.703125 49.109375 21.5 48.71875 
C 16.703125 48.71875 13 47.5 9.40625 45.765625 
C 8.90625 45.5625 7.90625 45.234375 7.59375 44.640625 
C 7.296875 44.21875 7.5 43.515625 7.5 43 
C 7.703125 41.671875 7.796875 40.34375 7.90625 39.015625 
M 33.90625 24 
L 33.90625 16.375 
C 33.90625 14.0625 34 11.953125 32.703125 9.953125 
C 31.59375 8.34375 30.09375 7.234375 28.5 6.4375 
C 22.796875 3.515625 14.09375 4.421875 11.59375 9.25 
C 9.59375 12.75 11.703125 16.875 14.59375 19.1875 
C 18.90625 22.5 27.296875 24 33.90625 24 
" id="Computer_Modern_Bright-97"/>
      <path d="M 60.5 10.875 
C 58.5 9.859375 56.703125 8.453125 54.703125 7.453125 
C 50 5.046875 44 4.140625 37.5 4.734375 
C 31.703125 5.546875 26.90625 8.359375 23.40625 11.875 
C 12.203125 23.15625 11.40625 42.96875 21.296875 55.34375 
C 25.5 60.875 31.90625 65 41.296875 65 
C 45.09375 65 49 64.296875 52.5 62.890625 
C 54.59375 61.96875 56.59375 60.765625 58.59375 59.765625 
L 59.796875 66.8125 
C 57.59375 67.671875 55.296875 68.5625 53 69.09375 
C 47.40625 70.625 38.90625 70.625 33.09375 69.21875 
C 22.90625 66.921875 15.5 59.828125 11.296875 51.625 
C 5.5 40.015625 6.203125 25.515625 13.203125 14.59375 
C 15 11.703125 17.296875 9.109375 19.90625 6.890625 
C 25.90625 1.6875 33.296875 -1.3125 43.59375 -0.5 
C 49.796875 -0.5 53.40625 0.515625 58.203125 3.203125 
C 58.703125 3.5 60.59375 4.515625 60.90625 4.9375 
C 61.09375 5.4375 60.59375 9.53125 60.5 10.875 
" id="Computer_Modern_Bright-67"/>
      <path d="M 10.703125 42.078125 
C 1.796875 33.234375 0.796875 17.875 8.5 7.9375 
C 9.59375 6.421875 10.90625 5.125 12.40625 4.015625 
C 16.09375 1 21.5 -1.203125 27.796875 -0.5 
C 37.796875 0.703125 44.703125 8.84375 46.796875 17.375 
C 49.59375 29.328125 43.703125 42.671875 32.703125 46.890625 
C 24.09375 50.40625 15.5 46.890625 10.703125 42.078125 
M 35.703125 39.359375 
C 40.5 35.03125 41.40625 28.109375 41 21.984375 
C 40.703125 17.265625 39.40625 12.34375 36.09375 8.828125 
C 30.703125 3 20.703125 3 14.90625 8.625 
C 11.90625 11.84375 10.09375 16.453125 9.796875 21.984375 
C 9.296875 30.109375 11.296875 38.75 19.296875 41.96875 
C 25.203125 44.578125 32 42.671875 35.703125 39.359375 
" id="Computer_Modern_Bright-111"/>
      <path d="M 41.796875 10.9375 
C 39.5 9.234375 38.796875 8.328125 35.90625 6.8125 
C 29.796875 3.5 22.59375 3.5 17.40625 7.171875 
C 12.40625 10.765625 9.5 16.640625 9.5 25 
L 42.5 25 
C 42.5 32.421875 40.796875 38.859375 36.59375 43.375 
C 32 47.890625 24.796875 49.296875 18.703125 47.390625 
C 16.40625 46.6875 14.296875 45.484375 12.40625 43.96875 
C 6.09375 38.859375 3.40625 30.71875 3.5 22.78125 
C 3.703125 12.34375 10.796875 1.90625 21.296875 -0.3125 
C 26.796875 -1.421875 32.59375 -0.203125 37.5 2.296875 
C 38.40625 2.796875 41.703125 4.609375 42.09375 5.515625 
C 42.40625 6.015625 41.796875 10.9375 41.796875 10.9375 
M 37.203125 28.90625 
L 10 28.90625 
C 11.203125 36.234375 17.203125 43.96875 25.296875 43.0625 
C 31.90625 42.46875 35.40625 37.75 36.703125 31.828125 
C 36.90625 30.8125 37 29.921875 37.203125 28.90625 
" id="Computer_Modern_Bright-101"/>
      <path d="M 10.59375 47.015625 
L 2 47.015625 
L 2 42 
L 10.59375 42 
L 10.59375 0 
L 16.90625 0 
L 16.90625 42 
L 30.09375 42 
L 30.09375 47.015625 
L 16.796875 47.015625 
L 16.796875 56.234375 
C 16.796875 57.890625 16.59375 59.65625 17.296875 61.21875 
C 19.5 65.875 25.40625 65.875 29.59375 65.078125 
C 30.59375 64.875 31.703125 64.46875 32.703125 64.265625 
L 32.703125 69.90625 
C 27.703125 70.609375 22.296875 71.21875 17.703125 68.46875 
C 15.796875 67.4375 14.203125 65.6875 13 63.921875 
C 11.09375 60.9375 10.59375 58.78125 10.59375 53.71875 
z
M 38.09375 0 
L 44.40625 0 
L 44.40625 42 
L 57.59375 42 
L 57.59375 47.015625 
L 44.296875 47.015625 
L 44.296875 55.234375 
C 44.296875 56.890625 44.09375 58.65625 44.40625 60.328125 
C 44.90625 62.296875 46.09375 63.65625 47.703125 64.671875 
C 50.796875 66.171875 54.40625 65.078125 57.59375 64.171875 
L 57.59375 70 
C 55.09375 70.1875 52.703125 70.6875 50.203125 70.5 
C 43.40625 70 38.59375 64.046875 38.09375 57.3125 
C 38 55.890625 38.09375 54.375 38.09375 52.96875 
z
M 65.59375 70 
L 65.59375 63.671875 
L 71.90625 63.671875 
L 71.90625 70 
z
M 65.59375 47.390625 
L 65.59375 0 
L 71.90625 0 
L 71.90625 47.390625 
z
" id="Computer_Modern_Bright-14"/>
      <path d="M 42.40625 11.25 
C 40.5 9.84375 38.796875 8.328125 36.703125 7.125 
C 32 4.625 24.796875 3.421875 19.40625 5.921875 
C 11.59375 9.9375 9.5 19.6875 10.59375 27.71875 
C 10.796875 29.328125 11.09375 30.921875 11.59375 32.4375 
C 13.796875 38.96875 19.296875 44.078125 28.296875 43.078125 
C 33.09375 42.671875 35.5 41.875 39.296875 39.765625 
C 40 39.359375 40.59375 38.859375 41.40625 38.65625 
C 41.5 39.859375 41.796875 41.171875 42 42.375 
C 42.296875 43.984375 42.296875 44.1875 40.796875 44.890625 
C 39.703125 45.390625 38.59375 45.984375 37.40625 46.390625 
C 32.796875 48.40625 25.203125 49 20 47.5 
C 12.90625 45.484375 7.59375 39.359375 5.296875 32.53125 
C 4.203125 29.421875 3.90625 26.109375 3.90625 22.796875 
C 4 12.25 11.203125 1.90625 21.703125 -0.203125 
C 27.5 -1.40625 34.203125 0.296875 38.203125 2.40625 
C 39.203125 2.90625 42.203125 4.71875 42.703125 5.625 
C 43 6.125 42.40625 11.25 42.40625 11.25 
" id="Computer_Modern_Bright-99"/>
      <path d="M 12.59375 37.28125 
L 12.5 37.28125 
L 12.5 47.390625 
L 6.40625 47.390625 
L 6.40625 0 
L 12.796875 0 
L 12.796875 21.9375 
C 12.796875 26.84375 12.5 31.875 14.703125 36.46875 
C 15.796875 38.78125 17.5 40.78125 19.796875 41.984375 
C 21.703125 42.890625 23.703125 42.890625 25.796875 42.6875 
C 28.796875 42.6875 31.703125 41.890625 33.59375 39.375 
C 35.40625 37.0625 35.5 34.0625 35.5 31.25 
L 35.5 0 
L 41.90625 0 
L 41.90625 26.859375 
C 41.90625 31.875 42.40625 37.375 40 41.890625 
C 38.09375 45.5 34.40625 47.203125 30.5 47.703125 
C 28.5 48 26.40625 48 24.40625 47.609375 
C 19.203125 46.5 14.40625 42.296875 12.59375 37.28125 
" id="Computer_Modern_Bright-110"/>
     </defs>
     <g style="fill:#262626;" transform="translate(201.022873 343.359582)scale(0.18 -0.18)">
      <use transform="scale(0.996264)" xlink:href="#Computer_Modern_Bright-69"/>
      <use transform="translate(58.737787 0)scale(0.996264)" xlink:href="#Computer_Modern_Bright-112"/>
      <use transform="translate(106.890284 0)scale(0.996264)" xlink:href="#Computer_Modern_Bright-105"/>
      <use transform="translate(125.985243 0)scale(0.996264)" xlink:href="#Computer_Modern_Bright-115"/>
      <use transform="translate(164.424272 0)scale(0.996264)" xlink:href="#Computer_Modern_Bright-116"/>
      <use transform="translate(200.53866 0)scale(0.996264)" xlink:href="#Computer_Modern_Bright-97"/>
      <use transform="translate(247.030742 0)scale(0.996264)" xlink:href="#Computer_Modern_Bright-115"/>
      <use transform="translate(285.469772 0)scale(0.996264)" xlink:href="#Computer_Modern_Bright-105"/>
      <use transform="translate(304.56473 0)scale(0.996264)" xlink:href="#Computer_Modern_Bright-115"/>
      <use transform="translate(374.468971 0)scale(0.996264)" xlink:href="#Computer_Modern_Bright-67"/>
      <use transform="translate(439.641004 0)scale(0.996264)" xlink:href="#Computer_Modern_Bright-111"/>
      <use transform="translate(490.284222 0)scale(0.996264)" xlink:href="#Computer_Modern_Bright-101"/>
      <use transform="translate(535.115889 0)scale(0.996264)" xlink:href="#Computer_Modern_Bright-14"/>
      <use transform="translate(613.156322 0)scale(0.996264)" xlink:href="#Computer_Modern_Bright-99"/>
      <use transform="translate(657.987989 0)scale(0.996264)" xlink:href="#Computer_Modern_Bright-105"/>
      <use transform="translate(677.082948 0)scale(0.996264)" xlink:href="#Computer_Modern_Bright-101"/>
      <use transform="translate(721.914616 0)scale(0.996264)" xlink:href="#Computer_Modern_Bright-110"/>
      <use transform="translate(770.067113 0)scale(0.996264)" xlink:href="#Computer_Modern_Bright-116"/>
     </g>
    </g>
   </g>
   <g id="matplotlib.axis_2">
    <g id="ytick_1">
     <g id="line2d_7"/>
     <g id="text_8">
      <!-- $0$ -->
      <g style="fill:#262626;" transform="translate(35.010613 298.124802)scale(0.16 -0.16)">
       <use transform="scale(0.996264)" xlink:href="#Computer_Modern_Bright-48"/>
      </g>
     </g>
    </g>
    <g id="ytick_2">
     <g id="line2d_8"/>
     <g id="text_9">
      <!-- $20$ -->
      <g style="fill:#262626;" transform="translate(26.642062 236.865484)scale(0.16 -0.16)">
       <use transform="scale(0.996264)" xlink:href="#Computer_Modern_Bright-50"/>
       <use transform="translate(50.643218 0)scale(0.996264)" xlink:href="#Computer_Modern_Bright-48"/>
      </g>
     </g>
    </g>
    <g id="ytick_3">
     <g id="line2d_9"/>
     <g id="text_10">
      <!-- $40$ -->
      <g style="fill:#262626;" transform="translate(26.642062 175.606167)scale(0.16 -0.16)">
       <use transform="scale(0.996264)" xlink:href="#Computer_Modern_Bright-52"/>
       <use transform="translate(50.643218 0)scale(0.996264)" xlink:href="#Computer_Modern_Bright-48"/>
      </g>
     </g>
    </g>
    <g id="ytick_4">
     <g id="line2d_10"/>
     <g id="text_11">
      <!-- $60$ -->
      <g style="fill:#262626;" transform="translate(26.642062 114.346849)scale(0.16 -0.16)">
       <use transform="scale(0.996264)" xlink:href="#Computer_Modern_Bright-54"/>
       <use transform="translate(50.643218 0)scale(0.996264)" xlink:href="#Computer_Modern_Bright-48"/>
      </g>
     </g>
    </g>
    <g id="ytick_5">
     <g id="line2d_11"/>
     <g id="text_12">
      <!-- $80$ -->
      <g style="fill:#262626;" transform="translate(26.642062 53.087532)scale(0.16 -0.16)">
       <use transform="scale(0.996264)" xlink:href="#Computer_Modern_Bright-56"/>
       <use transform="translate(50.643218 0)scale(0.996264)" xlink:href="#Computer_Modern_Bright-48"/>
      </g>
     </g>
    </g>
    <g id="text_13">
     <!-- Cumulative Density Function -->
     <defs>
      <path d="M 6.40625 47 
L 6.40625 12.96875 
C 6.40625 10.046875 6.5 7.140625 7.703125 4.421875 
C 9.59375 0.515625 13.59375 -1 17.703125 -1 
C 23.203125 -1 28.703125 0.8125 32.703125 4.734375 
C 33.796875 5.828125 34.796875 6.9375 35.5 8.34375 
L 35.59375 8.34375 
L 35.59375 -0.390625 
L 41.90625 -0.390625 
L 41.90625 47 
L 35.5 47 
L 35.5 22.90625 
C 35.5 18.6875 36.09375 14.0625 33.90625 10.25 
C 32.296875 7.4375 29.5 5.234375 26.40625 4.234375 
C 24.296875 3.625 22.09375 3.625 19.90625 3.828125 
C 17.796875 4.03125 15.5 4.234375 14.09375 6.03125 
C 12.09375 8.453125 12.796875 14.171875 12.796875 17.6875 
L 12.796875 47 
z
" id="Computer_Modern_Bright-117"/>
      <path d="M 12.59375 37.359375 
L 12.5 37.359375 
L 12.5 47.390625 
L 6.40625 47.390625 
L 6.40625 0 
L 12.796875 0 
L 12.796875 22.046875 
C 12.796875 26.953125 12.5 31.875 14.703125 36.375 
C 16.59375 40.28125 19.90625 43.390625 25.796875 42.78125 
C 28.796875 42.78125 31.796875 41.984375 33.703125 39.453125 
C 35.5 37.140625 35.59375 34.140625 35.59375 31.3125 
L 35.59375 0 
L 42 0 
L 42 22.046875 
C 42 26.953125 41.703125 31.875 43.90625 36.375 
C 45.796875 40.28125 49.09375 43.390625 55 42.78125 
C 58 42.78125 61 41.984375 62.90625 39.453125 
C 64.703125 37.140625 64.796875 34.140625 64.796875 31.3125 
L 64.796875 0 
L 71.203125 0 
L 71.203125 26.5625 
C 71.203125 31.375 71.796875 36.78125 69.703125 41.1875 
C 67.59375 45.296875 64.203125 47.5 58.703125 47.5 
C 55.5 47.796875 52.296875 47.3125 49.40625 45.84375 
C 45.90625 43.921875 43.296875 40.75 41.703125 37.265625 
C 41 40.578125 40.203125 42.828125 38 45 
C 35.703125 47.0625 32.59375 48 29.59375 48 
C 22.296875 48.59375 17.703125 45.5625 14.59375 41 
C 13.796875 39.875 13 38.671875 12.59375 37.359375 
" id="Computer_Modern_Bright-109"/>
      <path d="M 6.40625 69.6875 
L 6.40625 0 
L 12.703125 0 
L 12.703125 69.6875 
z
" id="Computer_Modern_Bright-108"/>
      <path d="M 0.703125 47.5 
C 1.203125 45.5 4.203125 37.578125 4.40625 37.078125 
C 5.40625 34.28125 17.296875 0.609375 17.59375 0.296875 
C 17.90625 -0.203125 18.796875 0 19.296875 0 
L 22.796875 0 
C 24.09375 0 24.90625 -0.296875 25.203125 0.90625 
C 28.40625 9.328125 40.09375 42.703125 41.796875 47.5 
L 35.59375 47.5 
C 30.796875 33.984375 25.90625 20.4375 21.40625 6.609375 
L 11 36.203125 
C 9.5 39.796875 8.59375 43.890625 6.90625 47.203125 
C 5.09375 47.5 2.796875 47.5 0.703125 47.5 
" id="Computer_Modern_Bright-118"/>
      <path d="M 8 70 
L 8 0 
L 28.203125 0 
C 31.40625 0 34.59375 0 37.703125 0.296875 
C 45.703125 1.109375 52.59375 5.015625 57.203125 9.828125 
C 70.09375 23.171875 70 46.125 57.296875 59.671875 
C 52.703125 64.578125 46.5 68.5 38.703125 69.5 
C 34.90625 70 31 70 27.203125 70 
z
M 14.90625 5.3125 
L 14.90625 64.5625 
L 27.796875 64.5625 
C 30.5 64.5625 33.203125 64.5625 35.90625 64.359375 
C 40.40625 63.859375 44.796875 62.359375 48.5 59.734375 
C 56.59375 54.125 60 44.171875 60 34.640625 
C 60 26.609375 57.796875 18.375 51.90625 12.640625 
C 47.90625 8.9375 42.5 6.21875 36 5.515625 
C 33.40625 5.3125 30.703125 5.3125 28.09375 5.3125 
z
" id="Computer_Modern_Bright-68"/>
      <path d="M 0.703125 47.65625 
C 1.296875 45.75 5.40625 35.609375 5.5 35.3125 
L 17.40625 4.578125 
L 18.40625 2.078125 
C 19 0.671875 19.203125 0.46875 18.59375 -1.140625 
L 17.5 -4.046875 
C 16.59375 -6.46875 15.59375 -8.96875 13.703125 -10.484375 
C 10.296875 -13.296875 4.90625 -11.6875 0.796875 -10.78125 
L 1.296875 -16.5 
C 3.203125 -16.796875 5.09375 -17 7 -17 
C 11.296875 -17.515625 14.09375 -16.5 16.703125 -14.296875 
C 20 -11.484375 21.59375 -7.5625 23.09375 -3.546875 
L 26.203125 5.078125 
L 36.40625 32.90625 
C 38.09375 37.921875 40.203125 42.640625 41.796875 47.65625 
L 37.296875 47.65625 
C 36.796875 47.65625 36 47.859375 35.59375 47.46875 
C 35.40625 47.15625 35.296875 46.765625 35.203125 46.453125 
L 34.40625 44.34375 
C 33.40625 41.734375 32.5 39.234375 31.59375 36.609375 
L 25.796875 20.25 
C 24.296875 15.828125 22.59375 11.3125 21.796875 6.6875 
C 20.703125 11.3125 19.203125 15.734375 17.59375 20.140625 
C 16.296875 23.5625 8.5 44.546875 7.5 46.5625 
C 7.09375 47.65625 6.703125 47.65625 5.203125 47.65625 
z
" id="Computer_Modern_Bright-121"/>
      <path d="M 8 69.328125 
L 8 0 
L 15 0 
L 15 32 
L 48.09375 32 
L 48.09375 37.3125 
L 15 37.3125 
L 15 64 
L 52.40625 64 
L 52.40625 69.328125 
z
" id="Computer_Modern_Bright-70"/>
     </defs>
     <g style="fill:#262626;" transform="translate(19.65327 260.669538)rotate(-90)scale(0.18 -0.18)">
      <use transform="scale(0.996264)" xlink:href="#Computer_Modern_Bright-67"/>
      <use transform="translate(65.172032 0)scale(0.996264)" xlink:href="#Computer_Modern_Bright-117"/>
      <use transform="translate(113.324529 0)scale(0.996264)" xlink:href="#Computer_Modern_Bright-109"/>
      <use transform="translate(190.534656 0)scale(0.996264)" xlink:href="#Computer_Modern_Bright-117"/>
      <use transform="translate(238.687153 0)scale(0.996264)" xlink:href="#Computer_Modern_Bright-108"/>
      <use transform="translate(257.782112 0)scale(0.996264)" xlink:href="#Computer_Modern_Bright-97"/>
      <use transform="translate(304.274194 0)scale(0.996264)" xlink:href="#Computer_Modern_Bright-116"/>
      <use transform="translate(340.388582 0)scale(0.996264)" xlink:href="#Computer_Modern_Bright-105"/>
      <use transform="translate(359.483541 0)scale(0.996264)" xlink:href="#Computer_Modern_Bright-118"/>
      <use transform="translate(401.824579 0)scale(0.996264)" xlink:href="#Computer_Modern_Bright-101"/>
      <use transform="translate(478.121458 0)scale(0.996264)" xlink:href="#Computer_Modern_Bright-68"/>
      <use transform="translate(549.727645 0)scale(0.996264)" xlink:href="#Computer_Modern_Bright-101"/>
      <use transform="translate(594.559312 0)scale(0.996264)" xlink:href="#Computer_Modern_Bright-110"/>
      <use transform="translate(642.711809 0)scale(0.996264)" xlink:href="#Computer_Modern_Bright-115"/>
      <use transform="translate(681.150839 0)scale(0.996264)" xlink:href="#Computer_Modern_Bright-105"/>
      <use transform="translate(700.245798 0)scale(0.996264)" xlink:href="#Computer_Modern_Bright-116"/>
      <use transform="translate(733.454456 0)scale(0.996264)" xlink:href="#Computer_Modern_Bright-121"/>
      <use transform="translate(807.260706 0)scale(0.996264)" xlink:href="#Computer_Modern_Bright-70"/>
      <use transform="translate(860.187034 0)scale(0.996264)" xlink:href="#Computer_Modern_Bright-117"/>
      <use transform="translate(908.339531 0)scale(0.996264)" xlink:href="#Computer_Modern_Bright-110"/>
      <use transform="translate(956.492028 0)scale(0.996264)" xlink:href="#Computer_Modern_Bright-99"/>
      <use transform="translate(1001.323695 0)scale(0.996264)" xlink:href="#Computer_Modern_Bright-116"/>
      <use transform="translate(1037.438083 0)scale(0.996264)" xlink:href="#Computer_Modern_Bright-105"/>
      <use transform="translate(1056.533042 0)scale(0.996264)" xlink:href="#Computer_Modern_Bright-111"/>
      <use transform="translate(1107.17626 0)scale(0.996264)" xlink:href="#Computer_Modern_Bright-110"/>
     </g>
    </g>
   </g>
   <g id="PolyCollection_1">
    <path clip-path="url(#pa814bd39b5)" d="M 290.066549 292.586663 
L 290.066549 292.59 
L 290.263796 292.59 
L 290.461043 292.59 
L 290.65829 292.59 
L 290.855536 292.59 
L 291.052783 292.59 
L 291.25003 292.59 
L 291.447277 292.59 
L 291.644524 292.59 
L 291.841771 292.59 
L 292.039017 292.59 
L 292.236264 292.59 
L 292.433511 292.59 
L 292.630758 292.59 
L 292.828005 292.59 
L 293.025251 292.59 
L 293.222498 292.59 
L 293.419745 292.59 
L 293.616992 292.59 
L 293.814239 292.59 
L 294.011486 292.59 
L 294.208732 292.59 
L 294.405979 292.59 
L 294.603226 292.59 
L 294.800473 292.59 
L 294.99772 292.59 
L 295.194966 292.59 
L 295.392213 292.59 
L 295.58946 292.59 
L 295.786707 292.59 
L 295.983954 292.59 
L 296.181201 292.59 
L 296.378447 292.59 
L 296.575694 292.59 
L 296.772941 292.59 
L 296.970188 292.59 
L 297.167435 292.59 
L 297.364681 292.59 
L 297.561928 292.59 
L 297.759175 292.59 
L 297.956422 292.59 
L 298.153669 292.59 
L 298.350915 292.59 
L 298.548162 292.59 
L 298.745409 292.59 
L 298.942656 292.59 
L 299.139903 292.59 
L 299.33715 292.59 
L 299.534396 292.59 
L 299.731643 292.59 
L 299.92889 292.59 
L 300.126137 292.59 
L 300.323384 292.59 
L 300.52063 292.59 
L 300.717877 292.59 
L 300.915124 292.59 
L 301.112371 292.59 
L 301.309618 292.59 
L 301.506865 292.59 
L 301.704111 292.59 
L 301.901358 292.59 
L 302.098605 292.59 
L 302.295852 292.59 
L 302.493099 292.59 
L 302.690345 292.59 
L 302.887592 292.59 
L 303.084839 292.59 
L 303.282086 292.59 
L 303.479333 292.59 
L 303.676579 292.59 
L 303.873826 292.59 
L 304.071073 292.59 
L 304.26832 292.59 
L 304.465567 292.59 
L 304.662814 292.59 
L 304.86006 292.59 
L 305.057307 292.59 
L 305.254554 292.59 
L 305.451801 292.59 
L 305.649048 292.59 
L 305.846294 292.59 
L 306.043541 292.59 
L 306.240788 292.59 
L 306.438035 292.59 
L 306.635282 292.59 
L 306.832529 292.59 
L 307.029775 292.59 
L 307.227022 292.59 
L 307.424269 292.59 
L 307.621516 292.59 
L 307.818763 292.59 
L 308.016009 292.59 
L 308.213256 292.59 
L 308.410503 292.59 
L 308.60775 292.59 
L 308.804997 292.59 
L 309.002244 292.59 
L 309.19949 292.59 
L 309.396737 292.59 
L 309.593984 292.59 
L 309.791231 292.59 
L 309.988478 292.59 
L 310.185724 292.59 
L 310.382971 292.59 
L 310.580218 292.59 
L 310.777465 292.59 
L 310.974712 292.59 
L 311.171958 292.59 
L 311.369205 292.59 
L 311.566452 292.59 
L 311.763699 292.59 
L 311.960946 292.59 
L 312.158193 292.59 
L 312.355439 292.59 
L 312.552686 292.59 
L 312.749933 292.59 
L 312.94718 292.59 
L 313.144427 292.59 
L 313.341673 292.59 
L 313.53892 292.59 
L 313.736167 292.59 
L 313.933414 292.59 
L 314.130661 292.59 
L 314.327908 292.59 
L 314.525154 292.59 
L 314.722401 292.59 
L 314.919648 292.59 
L 315.116895 292.59 
L 315.116895 292.586912 
L 315.116895 292.586912 
L 314.919648 292.582867 
L 314.722401 292.572307 
L 314.525154 292.551604 
L 314.327908 292.51852 
L 314.130661 292.476017 
L 313.933414 292.434324 
L 313.736167 292.407889 
L 313.53892 292.407533 
L 313.341673 292.433412 
L 313.144427 292.474912 
L 312.94718 292.517562 
L 312.749933 292.550958 
L 312.552686 292.571982 
L 312.355439 292.582868 
L 312.158193 292.587511 
L 311.960946 292.588918 
L 311.763699 292.588281 
L 311.566452 292.584639 
L 311.369205 292.574271 
L 311.171958 292.550066 
L 310.974712 292.502403 
L 310.777465 292.422855 
L 310.580218 292.309379 
L 310.382971 292.168246 
L 310.185724 292.009615 
L 309.988478 291.84146 
L 309.791231 291.670943 
L 309.593984 291.513008 
L 309.396737 291.391664 
L 309.19949 291.322395 
L 309.002244 291.286889 
L 308.804997 291.225892 
L 308.60775 291.0606 
L 308.410503 290.725323 
L 308.213256 290.188596 
L 308.016009 289.459001 
L 307.818763 288.584605 
L 307.621516 287.644462 
L 307.424269 286.720184 
L 307.227022 285.85128 
L 307.029775 285.005788 
L 306.832529 284.097328 
L 306.635282 283.039491 
L 306.438035 281.787745 
L 306.240788 280.326368 
L 306.043541 278.613419 
L 305.846294 276.544513 
L 305.649048 273.983175 
L 305.451801 270.842438 
L 305.254554 267.153308 
L 305.057307 263.065379 
L 304.86006 258.776142 
L 304.662814 254.431331 
L 304.465567 250.053194 
L 304.26832 245.538496 
L 304.071073 240.729562 
L 303.873826 235.511195 
L 303.676579 229.861933 
L 303.479333 223.829356 
L 303.282086 217.474696 
L 303.084839 210.848585 
L 302.887592 203.992611 
L 302.690345 196.91644 
L 302.493099 189.562919 
L 302.295852 181.849457 
L 302.098605 173.809734 
L 301.901358 165.70477 
L 301.704111 157.949657 
L 301.506865 150.880293 
L 301.309618 144.557993 
L 301.112371 138.779571 
L 300.915124 133.27529 
L 300.717877 127.930232 
L 300.52063 122.87348 
L 300.323384 118.412507 
L 300.126137 114.91331 
L 299.92889 112.718071 
L 299.731643 112.084254 
L 299.534396 113.090561 
L 299.33715 115.552324 
L 299.139903 119.066385 
L 298.942656 123.210723 
L 298.745409 127.750579 
L 298.548162 132.676147 
L 298.350915 138.069635 
L 298.153669 143.970657 
L 297.956422 150.375319 
L 297.759175 157.321665 
L 297.561928 164.916895 
L 297.364681 173.248964 
L 297.167435 182.263208 
L 296.970188 191.720877 
L 296.772941 201.281104 
L 296.575694 210.64325 
L 296.378447 219.640049 
L 296.181201 228.223831 
L 295.983954 236.386738 
L 295.786707 244.097847 
L 295.58946 251.293292 
L 295.392213 257.891696 
L 295.194966 263.79994 
L 294.99772 268.916907 
L 294.800473 273.168544 
L 294.603226 276.571061 
L 294.405979 279.262058 
L 294.208732 281.44915 
L 294.011486 283.308324 
L 293.814239 284.91954 
L 293.616992 286.285186 
L 293.419745 287.394765 
L 293.222498 288.271854 
L 293.025251 288.976371 
L 292.828005 289.577073 
L 292.630758 290.120966 
L 292.433511 290.619279 
L 292.236264 291.057262 
L 292.039017 291.41868 
L 291.841771 291.704408 
L 291.644524 291.931446 
L 291.447277 292.118314 
L 291.25003 292.273496 
L 291.052783 292.395985 
L 290.855536 292.483376 
L 290.65829 292.538133 
L 290.461043 292.567834 
L 290.263796 292.581597 
L 290.066549 292.586663 
z
" style="fill:#0000ff;fill-opacity:0.25;"/>
   </g>
   <g id="PolyCollection_2">
    <path clip-path="url(#pa814bd39b5)" d="M 256.382456 292.58869 
L 256.382456 292.59 
L 256.835822 292.59 
L 257.289188 292.59 
L 257.742554 292.59 
L 258.19592 292.59 
L 258.649286 292.59 
L 259.102652 292.59 
L 259.556019 292.59 
L 260.009385 292.59 
L 260.462751 292.59 
L 260.916117 292.59 
L 261.369483 292.59 
L 261.822849 292.59 
L 262.276215 292.59 
L 262.729581 292.59 
L 263.182948 292.59 
L 263.636314 292.59 
L 264.08968 292.59 
L 264.543046 292.59 
L 264.996412 292.59 
L 265.449778 292.59 
L 265.903144 292.59 
L 266.35651 292.59 
L 266.809877 292.59 
L 267.263243 292.59 
L 267.716609 292.59 
L 268.169975 292.59 
L 268.623341 292.59 
L 269.076707 292.59 
L 269.530073 292.59 
L 269.983439 292.59 
L 270.436806 292.59 
L 270.890172 292.59 
L 271.343538 292.59 
L 271.796904 292.59 
L 272.25027 292.59 
L 272.703636 292.59 
L 273.157002 292.59 
L 273.610368 292.59 
L 274.063735 292.59 
L 274.517101 292.59 
L 274.970467 292.59 
L 275.423833 292.59 
L 275.877199 292.59 
L 276.330565 292.59 
L 276.783931 292.59 
L 277.237297 292.59 
L 277.690664 292.59 
L 278.14403 292.59 
L 278.597396 292.59 
L 279.050762 292.59 
L 279.504128 292.59 
L 279.957494 292.59 
L 280.41086 292.59 
L 280.864226 292.59 
L 281.317593 292.59 
L 281.770959 292.59 
L 282.224325 292.59 
L 282.677691 292.59 
L 283.131057 292.59 
L 283.584423 292.59 
L 284.037789 292.59 
L 284.491155 292.59 
L 284.944522 292.59 
L 285.397888 292.59 
L 285.851254 292.59 
L 286.30462 292.59 
L 286.757986 292.59 
L 287.211352 292.59 
L 287.664718 292.59 
L 288.118084 292.59 
L 288.571451 292.59 
L 289.024817 292.59 
L 289.478183 292.59 
L 289.931549 292.59 
L 290.384915 292.59 
L 290.838281 292.59 
L 291.291647 292.59 
L 291.745013 292.59 
L 292.19838 292.59 
L 292.651746 292.59 
L 293.105112 292.59 
L 293.558478 292.59 
L 294.011844 292.59 
L 294.46521 292.59 
L 294.918576 292.59 
L 295.371942 292.59 
L 295.825309 292.59 
L 296.278675 292.59 
L 296.732041 292.59 
L 297.185407 292.59 
L 297.638773 292.59 
L 298.092139 292.59 
L 298.545505 292.59 
L 298.998871 292.59 
L 299.452238 292.59 
L 299.905604 292.59 
L 300.35897 292.59 
L 300.812336 292.59 
L 301.265702 292.59 
L 301.719068 292.59 
L 302.172434 292.59 
L 302.6258 292.59 
L 303.079167 292.59 
L 303.532533 292.59 
L 303.985899 292.59 
L 304.439265 292.59 
L 304.892631 292.59 
L 305.345997 292.59 
L 305.799363 292.59 
L 306.252729 292.59 
L 306.706096 292.59 
L 307.159462 292.59 
L 307.612828 292.59 
L 308.066194 292.59 
L 308.51956 292.59 
L 308.972926 292.59 
L 309.426292 292.59 
L 309.879658 292.59 
L 310.333025 292.59 
L 310.786391 292.59 
L 311.239757 292.59 
L 311.693123 292.59 
L 312.146489 292.59 
L 312.599855 292.59 
L 313.053221 292.59 
L 313.506587 292.59 
L 313.959954 292.59 
L 313.959954 292.588689 
L 313.959954 292.588689 
L 313.506587 292.586938 
L 313.053221 292.582423 
L 312.599855 292.57353 
L 312.146489 292.559055 
L 311.693123 292.539584 
L 311.239757 292.518146 
L 310.786391 292.498917 
L 310.333025 292.484388 
L 309.879658 292.473247 
L 309.426292 292.460852 
L 308.972926 292.441204 
L 308.51956 292.407771 
L 308.066194 292.352461 
L 307.612828 292.264682 
L 307.159462 292.131723 
L 306.706096 291.939155 
L 306.252729 291.670288 
L 305.799363 291.306989 
L 305.345997 290.83453 
L 304.892631 290.248031 
L 304.439265 289.553492 
L 303.985899 288.759543 
L 303.532533 287.863605 
L 303.079167 286.839268 
L 302.6258 285.629813 
L 302.172434 284.151117 
L 301.719068 282.306145 
L 301.265702 280.009921 
L 300.812336 277.219887 
L 300.35897 273.96326 
L 299.905604 270.349158 
L 299.452238 266.551412 
L 298.998871 262.755777 
L 298.545505 259.086585 
L 298.092139 255.554133 
L 297.638773 252.068436 
L 297.185407 248.522485 
L 296.732041 244.882298 
L 296.278675 241.205391 
L 295.825309 237.578113 
L 295.371942 234.044301 
L 294.918576 230.597208 
L 294.46521 227.23241 
L 294.011844 224.006153 
L 293.558478 221.055982 
L 293.105112 218.573049 
L 292.651746 216.731391 
L 292.19838 215.600552 
L 291.745013 215.099318 
L 291.291647 215.03918 
L 290.838281 215.237661 
L 290.384915 215.62106 
L 289.931549 216.249427 
L 289.478183 217.262215 
L 289.024817 218.793326 
L 288.571451 220.904751 
L 288.118084 223.555906 
L 287.664718 226.60447 
L 287.211352 229.842352 
L 286.757986 233.070625 
L 286.30462 236.178971 
L 285.851254 239.167319 
L 285.397888 242.093142 
L 284.944522 245.004573 
L 284.491155 247.924779 
L 284.037789 250.879716 
L 283.584423 253.909352 
L 283.131057 257.034451 
L 282.677691 260.215837 
L 282.224325 263.357425 
L 281.770959 266.35558 
L 281.317593 269.146856 
L 280.864226 271.712062 
L 280.41086 274.046708 
L 279.957494 276.140029 
L 279.504128 277.98047 
L 279.050762 279.56694 
L 278.597396 280.907728 
L 278.14403 282.017997 
L 277.690664 282.929587 
L 277.237297 283.701378 
L 276.783931 284.409349 
L 276.330565 285.117922 
L 275.877199 285.856557 
L 275.423833 286.61982 
L 274.970467 287.384448 
L 274.517101 288.122619 
L 274.063735 288.80175 
L 273.610368 289.382041 
L 273.157002 289.826876 
L 272.703636 290.124194 
L 272.25027 290.301112 
L 271.796904 290.417392 
L 271.343538 290.540083 
L 270.890172 290.71512 
L 270.436806 290.952189 
L 269.983439 291.229075 
L 269.530073 291.509229 
L 269.076707 291.760079 
L 268.623341 291.962933 
L 268.169975 292.113752 
L 267.716609 292.219239 
L 267.263243 292.29145 
L 266.809877 292.341815 
L 266.35651 292.376652 
L 265.903144 292.397505 
L 265.449778 292.405961 
L 264.996412 292.407536 
L 264.543046 292.410096 
L 264.08968 292.418666 
L 263.636314 292.432537 
L 263.182948 292.447682 
L 262.729581 292.461297 
L 262.276215 292.473378 
L 261.822849 292.484375 
L 261.369483 292.49293 
L 260.916117 292.497141 
L 260.462751 292.497835 
L 260.009385 292.499452 
L 259.556019 292.506957 
L 259.102652 292.521821 
L 258.649286 292.541015 
L 258.19592 292.559528 
L 257.742554 292.573664 
L 257.289188 292.582456 
L 256.835822 292.586944 
L 256.382456 292.58869 
z
" style="fill:#33a02c;fill-opacity:0.25;"/>
   </g>
   <g id="PolyCollection_3">
    <path clip-path="url(#pa814bd39b5)" d="M 462.329043 292.584234 
L 462.329043 292.59 
L 462.440532 292.59 
L 462.552022 292.59 
L 462.663512 292.59 
L 462.775002 292.59 
L 462.886492 292.59 
L 462.997982 292.59 
L 463.109472 292.59 
L 463.220961 292.59 
L 463.332451 292.59 
L 463.443941 292.59 
L 463.555431 292.59 
L 463.666921 292.59 
L 463.778411 292.59 
L 463.889901 292.59 
L 464.00139 292.59 
L 464.11288 292.59 
L 464.22437 292.59 
L 464.33586 292.59 
L 464.44735 292.59 
L 464.55884 292.59 
L 464.67033 292.59 
L 464.781819 292.59 
L 464.893309 292.59 
L 465.004799 292.59 
L 465.116289 292.59 
L 465.227779 292.59 
L 465.339269 292.59 
L 465.450759 292.59 
L 465.562248 292.59 
L 465.673738 292.59 
L 465.785228 292.59 
L 465.896718 292.59 
L 466.008208 292.59 
L 466.119698 292.59 
L 466.231188 292.59 
L 466.342677 292.59 
L 466.454167 292.59 
L 466.565657 292.59 
L 466.677147 292.59 
L 466.788637 292.59 
L 466.900127 292.59 
L 467.011616 292.59 
L 467.123106 292.59 
L 467.234596 292.59 
L 467.346086 292.59 
L 467.457576 292.59 
L 467.569066 292.59 
L 467.680556 292.59 
L 467.792045 292.59 
L 467.903535 292.59 
L 468.015025 292.59 
L 468.126515 292.59 
L 468.238005 292.59 
L 468.349495 292.59 
L 468.460985 292.59 
L 468.572474 292.59 
L 468.683964 292.59 
L 468.795454 292.59 
L 468.906944 292.59 
L 469.018434 292.59 
L 469.129924 292.59 
L 469.241414 292.59 
L 469.352903 292.59 
L 469.464393 292.59 
L 469.575883 292.59 
L 469.687373 292.59 
L 469.798863 292.59 
L 469.910353 292.59 
L 470.021843 292.59 
L 470.133332 292.59 
L 470.244822 292.59 
L 470.356312 292.59 
L 470.467802 292.59 
L 470.579292 292.59 
L 470.690782 292.59 
L 470.802272 292.59 
L 470.913761 292.59 
L 471.025251 292.59 
L 471.136741 292.59 
L 471.248231 292.59 
L 471.359721 292.59 
L 471.471211 292.59 
L 471.582701 292.59 
L 471.69419 292.59 
L 471.80568 292.59 
L 471.91717 292.59 
L 472.02866 292.59 
L 472.14015 292.59 
L 472.25164 292.59 
L 472.36313 292.59 
L 472.474619 292.59 
L 472.586109 292.59 
L 472.697599 292.59 
L 472.809089 292.59 
L 472.920579 292.59 
L 473.032069 292.59 
L 473.143559 292.59 
L 473.255048 292.59 
L 473.366538 292.59 
L 473.478028 292.59 
L 473.589518 292.59 
L 473.701008 292.59 
L 473.812498 292.59 
L 473.923988 292.59 
L 474.035477 292.59 
L 474.146967 292.59 
L 474.258457 292.59 
L 474.369947 292.59 
L 474.481437 292.59 
L 474.592927 292.59 
L 474.704417 292.59 
L 474.815906 292.59 
L 474.927396 292.59 
L 475.038886 292.59 
L 475.150376 292.59 
L 475.261866 292.59 
L 475.373356 292.59 
L 475.484846 292.59 
L 475.596335 292.59 
L 475.707825 292.59 
L 475.819315 292.59 
L 475.930805 292.59 
L 476.042295 292.59 
L 476.153785 292.59 
L 476.265275 292.59 
L 476.376764 292.59 
L 476.488254 292.59 
L 476.488254 292.583481 
L 476.488254 292.583481 
L 476.376764 292.575317 
L 476.265275 292.55402 
L 476.153785 292.508228 
L 476.042295 292.420848 
L 475.930805 292.271609 
L 475.819315 292.043446 
L 475.707825 291.731611 
L 475.596335 291.351301 
L 475.484846 290.938164 
L 475.373356 290.53854 
L 475.261866 290.191802 
L 475.150376 289.911597 
L 475.038886 289.672462 
L 474.927396 289.404497 
L 474.815906 288.996207 
L 474.704417 288.30678 
L 474.592927 287.190126 
L 474.481437 285.529349 
L 474.369947 283.272731 
L 474.258457 280.457266 
L 474.146967 277.207928 
L 474.035477 273.70865 
L 473.923988 270.150099 
L 473.812498 266.667641 
L 473.701008 263.290035 
L 473.589518 259.922535 
L 473.478028 256.379981 
L 473.366538 252.462428 
L 473.255048 248.038359 
L 473.143559 243.090507 
L 473.032069 237.699589 
L 472.920579 231.97817 
L 472.809089 225.991711 
L 472.697599 219.703744 
L 472.586109 212.967635 
L 472.474619 205.572314 
L 472.36313 197.332303 
L 472.25164 188.189575 
L 472.14015 178.277184 
L 472.02866 167.903553 
L 471.91717 157.45822 
L 471.80568 147.290395 
L 471.69419 137.62914 
L 471.582701 128.577676 
L 471.471211 120.152683 
L 471.359721 112.310283 
L 471.248231 104.93064 
L 471.136741 97.788178 
L 471.025251 90.558153 
L 470.913761 82.887602 
L 470.802272 74.519361 
L 470.690782 65.429432 
L 470.579292 55.920285 
L 470.467802 46.606099 
L 470.356312 38.253185 
L 470.244822 31.514037 
L 470.133332 26.679685 
L 470.021843 23.598387 
L 469.910353 21.82722 
L 469.798863 20.937679 
L 469.687373 20.79 
L 469.575883 21.608757 
L 469.464393 23.827432 
L 469.352903 27.822237 
L 469.241414 33.711595 
L 469.129924 41.324689 
L 469.018434 50.312214 
L 468.906944 60.291114 
L 468.795454 70.930261 
L 468.683964 81.957347 
L 468.572474 93.12806 
L 468.460985 104.20942 
L 468.349495 115.000278 
L 468.238005 125.375216 
L 468.126515 135.319173 
L 468.015025 144.927043 
L 467.903535 154.363338 
L 467.792045 163.793633 
L 467.680556 173.306778 
L 467.569066 182.853988 
L 467.457576 192.238632 
L 467.346086 201.180044 
L 467.234596 209.433345 
L 467.123106 216.898662 
L 467.011616 223.645929 
L 466.900127 229.837737 
L 466.788637 235.611958 
L 466.677147 241.016006 
L 466.565657 246.034843 
L 466.454167 250.671273 
L 466.342677 254.997709 
L 466.231188 259.134764 
L 466.119698 263.181529 
L 466.008208 267.158355 
L 465.896718 271.00071 
L 465.785228 274.595375 
L 465.673738 277.825321 
L 465.562248 280.600191 
L 465.450759 282.871368 
L 465.339269 284.63849 
L 465.227779 285.948221 
L 465.116289 286.882377 
L 465.004799 287.538158 
L 464.893309 288.009748 
L 464.781819 288.37849 
L 464.67033 288.710653 
L 464.55884 289.056337 
L 464.44735 289.445248 
L 464.33586 289.881441 
L 464.22437 290.342905 
L 464.11288 290.789706 
L 464.00139 291.178694 
L 463.889901 291.478684 
L 463.778411 291.680322 
L 463.666921 291.797919 
L 463.555431 291.863362 
L 463.443941 291.914186 
L 463.332451 291.979983 
L 463.220961 292.072879 
L 463.109472 292.186556 
L 462.997982 292.303605 
L 462.886492 292.406161 
L 462.775002 292.483647 
L 462.663512 292.534631 
L 462.552022 292.563995 
L 462.440532 292.578644 
L 462.329043 292.584234 
z
" style="fill:#ff7f00;fill-opacity:0.25;"/>
   </g>
   <g id="PolyCollection_4">
    <path clip-path="url(#pa814bd39b5)" d="M 70.670072 292.587314 
L 70.670072 292.59 
L 70.978915 292.59 
L 71.287757 292.59 
L 71.596599 292.59 
L 71.905442 292.59 
L 72.214284 292.59 
L 72.523126 292.59 
L 72.831968 292.59 
L 73.140811 292.59 
L 73.449653 292.59 
L 73.758495 292.59 
L 74.067338 292.59 
L 74.37618 292.59 
L 74.685022 292.59 
L 74.993864 292.59 
L 75.302707 292.59 
L 75.611549 292.59 
L 75.920391 292.59 
L 76.229234 292.59 
L 76.538076 292.59 
L 76.846918 292.59 
L 77.155761 292.59 
L 77.464603 292.59 
L 77.773445 292.59 
L 78.082287 292.59 
L 78.39113 292.59 
L 78.699972 292.59 
L 79.008814 292.59 
L 79.317657 292.59 
L 79.626499 292.59 
L 79.935341 292.59 
L 80.244183 292.59 
L 80.553026 292.59 
L 80.861868 292.59 
L 81.17071 292.59 
L 81.479553 292.59 
L 81.788395 292.59 
L 82.097237 292.59 
L 82.406079 292.59 
L 82.714922 292.59 
L 83.023764 292.59 
L 83.332606 292.59 
L 83.641449 292.59 
L 83.950291 292.59 
L 84.259133 292.59 
L 84.567975 292.59 
L 84.876818 292.59 
L 85.18566 292.59 
L 85.494502 292.59 
L 85.803345 292.59 
L 86.112187 292.59 
L 86.421029 292.59 
L 86.729871 292.59 
L 87.038714 292.59 
L 87.347556 292.59 
L 87.656398 292.59 
L 87.965241 292.59 
L 88.274083 292.59 
L 88.582925 292.59 
L 88.891767 292.59 
L 89.20061 292.59 
L 89.509452 292.59 
L 89.818294 292.59 
L 90.127137 292.59 
L 90.435979 292.59 
L 90.744821 292.59 
L 91.053664 292.59 
L 91.362506 292.59 
L 91.671348 292.59 
L 91.98019 292.59 
L 92.289033 292.59 
L 92.597875 292.59 
L 92.906717 292.59 
L 93.21556 292.59 
L 93.524402 292.59 
L 93.833244 292.59 
L 94.142086 292.59 
L 94.450929 292.59 
L 94.759771 292.59 
L 95.068613 292.59 
L 95.377456 292.59 
L 95.686298 292.59 
L 95.99514 292.59 
L 96.303982 292.59 
L 96.612825 292.59 
L 96.921667 292.59 
L 97.230509 292.59 
L 97.539352 292.59 
L 97.848194 292.59 
L 98.157036 292.59 
L 98.465878 292.59 
L 98.774721 292.59 
L 99.083563 292.59 
L 99.392405 292.59 
L 99.701248 292.59 
L 100.01009 292.59 
L 100.318932 292.59 
L 100.627774 292.59 
L 100.936617 292.59 
L 101.245459 292.59 
L 101.554301 292.59 
L 101.863144 292.59 
L 102.171986 292.59 
L 102.480828 292.59 
L 102.789671 292.59 
L 103.098513 292.59 
L 103.407355 292.59 
L 103.716197 292.59 
L 104.02504 292.59 
L 104.333882 292.59 
L 104.642724 292.59 
L 104.951567 292.59 
L 105.260409 292.59 
L 105.569251 292.59 
L 105.878093 292.59 
L 106.186936 292.59 
L 106.495778 292.59 
L 106.80462 292.59 
L 107.113463 292.59 
L 107.422305 292.59 
L 107.731147 292.59 
L 108.039989 292.59 
L 108.348832 292.59 
L 108.657674 292.59 
L 108.966516 292.59 
L 109.275359 292.59 
L 109.584201 292.59 
L 109.893043 292.59 
L 109.893043 292.587908 
L 109.893043 292.587908 
L 109.584201 292.585611 
L 109.275359 292.579365 
L 108.966516 292.567103 
L 108.657674 292.547385 
L 108.348832 292.521616 
L 108.039989 292.495426 
L 107.731147 292.47731 
L 107.422305 292.474343 
L 107.113463 292.487787 
L 106.80462 292.512236 
L 106.495778 292.539079 
L 106.186936 292.561289 
L 105.878093 292.575985 
L 105.569251 292.583767 
L 105.260409 292.586432 
L 104.951567 292.584938 
L 104.642724 292.578353 
L 104.333882 292.563671 
L 104.02504 292.536141 
L 103.716197 292.489608 
L 103.407355 292.416366 
L 103.098513 292.307188 
L 102.789671 292.154027 
L 102.480828 291.956832 
L 102.171986 291.729693 
L 101.863144 291.49671 
L 101.554301 291.27491 
L 101.245459 291.057443 
L 100.936617 290.81502 
L 100.627774 290.515372 
L 100.318932 290.13843 
L 100.01009 289.668961 
L 99.701248 289.076871 
L 99.392405 288.312919 
L 99.083563 287.329853 
L 98.774721 286.107423 
L 98.465878 284.655268 
L 98.157036 282.996606 
L 97.848194 281.159248 
L 97.539352 279.185803 
L 97.230509 277.140227 
L 96.921667 275.080267 
L 96.612825 273.000222 
L 96.303982 270.789297 
L 95.99514 268.252507 
L 95.686298 265.19912 
L 95.377456 261.552924 
L 95.068613 257.414406 
L 94.759771 253.021226 
L 94.450929 248.610661 
L 94.142086 244.264377 
L 93.833244 239.852138 
L 93.524402 235.130421 
L 93.21556 229.926785 
L 92.906717 224.269442 
L 92.597875 218.3777 
L 92.289033 212.54934 
L 91.98019 207.045529 
L 91.671348 202.04307 
L 91.362506 197.651142 
L 91.053664 193.939944 
L 90.744821 190.934617 
L 90.435979 188.582111 
L 90.127137 186.746333 
L 89.818294 185.267563 
L 89.509452 184.050403 
L 89.20061 183.10534 
L 88.891767 182.512712 
L 88.582925 182.354025 
L 88.274083 182.676341 
L 87.965241 183.504466 
L 87.656398 184.863185 
L 87.347556 186.77794 
L 87.038714 189.262932 
L 86.729871 192.320357 
L 86.421029 195.953142 
L 86.112187 200.174192 
L 85.803345 204.99812 
L 85.494502 210.413649 
L 85.18566 216.347243 
L 84.876818 222.641095 
L 84.567975 229.06555 
L 84.259133 235.358074 
L 83.950291 241.261694 
L 83.641449 246.556297 
L 83.332606 251.099595 
L 83.023764 254.874098 
L 82.714922 258.002049 
L 82.406079 260.700704 
L 82.097237 263.196165 
L 81.788395 265.642344 
L 81.479553 268.084653 
L 81.17071 270.481022 
L 80.861868 272.760232 
L 80.553026 274.877119 
L 80.244183 276.834214 
L 79.935341 278.669278 
L 79.626499 280.426568 
L 79.317657 282.127289 
L 79.008814 283.749968 
L 78.699972 285.232357 
L 78.39113 286.499931 
L 78.082287 287.5075 
L 77.773445 288.266628 
L 77.464603 288.839447 
L 77.155761 289.304748 
L 76.846918 289.722172 
L 76.538076 290.116851 
L 76.229234 290.486092 
L 75.920391 290.815056 
L 75.611549 291.090875 
L 75.302707 291.311756 
L 74.993864 291.488343 
L 74.685022 291.635798 
L 74.37618 291.763336 
L 74.067338 291.872321 
L 73.758495 291.964393 
L 73.449653 292.048484 
L 73.140811 292.137117 
L 72.831968 292.235952 
L 72.523126 292.338367 
L 72.214284 292.430452 
L 71.905442 292.500782 
L 71.596599 292.546287 
L 71.287757 292.571287 
L 70.978915 292.58293 
L 70.670072 292.587314 
z
" style="fill:#e31a1c;fill-opacity:0.25;"/>
   </g>
   <g id="PolyCollection_5">
    <path clip-path="url(#pa814bd39b5)" d="M 222.097011 292.586556 
L 222.097011 292.59 
L 222.389579 292.59 
L 222.682146 292.59 
L 222.974714 292.59 
L 223.267281 292.59 
L 223.559849 292.59 
L 223.852416 292.59 
L 224.144984 292.59 
L 224.437551 292.59 
L 224.730119 292.59 
L 225.022686 292.59 
L 225.315254 292.59 
L 225.607821 292.59 
L 225.900389 292.59 
L 226.192956 292.59 
L 226.485524 292.59 
L 226.778091 292.59 
L 227.070659 292.59 
L 227.363226 292.59 
L 227.655794 292.59 
L 227.948361 292.59 
L 228.240929 292.59 
L 228.533496 292.59 
L 228.826064 292.59 
L 229.118631 292.59 
L 229.411199 292.59 
L 229.703766 292.59 
L 229.996334 292.59 
L 230.288901 292.59 
L 230.581469 292.59 
L 230.874036 292.59 
L 231.166604 292.59 
L 231.459171 292.59 
L 231.751739 292.59 
L 232.044306 292.59 
L 232.336874 292.59 
L 232.629441 292.59 
L 232.922009 292.59 
L 233.214576 292.59 
L 233.507144 292.59 
L 233.799711 292.59 
L 234.092279 292.59 
L 234.384846 292.59 
L 234.677414 292.59 
L 234.969981 292.59 
L 235.262549 292.59 
L 235.555116 292.59 
L 235.847684 292.59 
L 236.140251 292.59 
L 236.432819 292.59 
L 236.725386 292.59 
L 237.017954 292.59 
L 237.310521 292.59 
L 237.603089 292.59 
L 237.895656 292.59 
L 238.188224 292.59 
L 238.480791 292.59 
L 238.773359 292.59 
L 239.065926 292.59 
L 239.358494 292.59 
L 239.651061 292.59 
L 239.943629 292.59 
L 240.236196 292.59 
L 240.528764 292.59 
L 240.821331 292.59 
L 241.113899 292.59 
L 241.406466 292.59 
L 241.699034 292.59 
L 241.991601 292.59 
L 242.284169 292.59 
L 242.576736 292.59 
L 242.869304 292.59 
L 243.161871 292.59 
L 243.454439 292.59 
L 243.747006 292.59 
L 244.039574 292.59 
L 244.332141 292.59 
L 244.624709 292.59 
L 244.917276 292.59 
L 245.209844 292.59 
L 245.502411 292.59 
L 245.794979 292.59 
L 246.087546 292.59 
L 246.380114 292.59 
L 246.672681 292.59 
L 246.965249 292.59 
L 247.257816 292.59 
L 247.550384 292.59 
L 247.842951 292.59 
L 248.135519 292.59 
L 248.428086 292.59 
L 248.720654 292.59 
L 249.013221 292.59 
L 249.305789 292.59 
L 249.598356 292.59 
L 249.890924 292.59 
L 250.183491 292.59 
L 250.476059 292.59 
L 250.768626 292.59 
L 251.061194 292.59 
L 251.353761 292.59 
L 251.646329 292.59 
L 251.938896 292.59 
L 252.231464 292.59 
L 252.524031 292.59 
L 252.816599 292.59 
L 253.109166 292.59 
L 253.401734 292.59 
L 253.694301 292.59 
L 253.986868 292.59 
L 254.279436 292.59 
L 254.572003 292.59 
L 254.864571 292.59 
L 255.157138 292.59 
L 255.449706 292.59 
L 255.742273 292.59 
L 256.034841 292.59 
L 256.327408 292.59 
L 256.619976 292.59 
L 256.912543 292.59 
L 257.205111 292.59 
L 257.497678 292.59 
L 257.790246 292.59 
L 258.082813 292.59 
L 258.375381 292.59 
L 258.667948 292.59 
L 258.960516 292.59 
L 259.253083 292.59 
L 259.253083 292.5855 
L 259.253083 292.5855 
L 258.960516 292.578991 
L 258.667948 292.561812 
L 258.375381 292.523294 
L 258.082813 292.445706 
L 257.790246 292.303795 
L 257.497678 292.066475 
L 257.205111 291.700301 
L 256.912543 291.172325 
L 256.619976 290.448932 
L 256.327408 289.489509 
L 256.034841 288.238863 
L 255.742273 286.626429 
L 255.449706 284.578153 
L 255.157138 282.037562 
L 254.864571 278.982511 
L 254.572003 275.42363 
L 254.279436 271.383352 
L 253.986868 266.871738 
L 253.694301 261.881363 
L 253.401734 256.410366 
L 253.109166 250.500507 
L 252.816599 244.265689 
L 252.524031 237.895188 
L 252.231464 231.632956 
L 251.938896 225.741191 
L 251.646329 220.451102 
L 251.353761 215.903569 
L 251.061194 212.097994 
L 250.768626 208.883787 
L 250.476059 206.018229 
L 250.183491 203.273216 
L 249.890924 200.533504 
L 249.598356 197.829499 
L 249.305789 195.292945 
L 249.013221 193.076018 
L 248.720654 191.289085 
L 248.428086 189.982407 
L 248.135519 189.157171 
L 247.842951 188.77925 
L 247.550384 188.787646 
L 247.257816 189.10925 
L 246.965249 189.68834 
L 246.672681 190.519627 
L 246.380114 191.662024 
L 246.087546 193.219201 
L 245.794979 195.292926 
L 245.502411 197.930581 
L 245.209844 201.091517 
L 244.917276 204.648268 
L 244.624709 208.421974 
L 244.332141 212.234964 
L 244.039574 215.957392 
L 243.747006 219.531755 
L 243.454439 222.971575 
L 243.161871 226.339959 
L 242.869304 229.717841 
L 242.576736 233.172489 
L 242.284169 236.73481 
L 241.991601 240.389717 
L 241.699034 244.080013 
L 241.406466 247.722968 
L 241.113899 251.236627 
L 240.821331 254.566479 
L 240.528764 257.697317 
L 240.236196 260.640268 
L 239.943629 263.402232 
L 239.651061 265.960424 
L 239.358494 268.262754 
L 239.065926 270.256055 
L 238.773359 271.924409 
L 238.480791 273.313414 
L 238.188224 274.524437 
L 237.895656 275.679278 
L 237.603089 276.872549 
L 237.310521 278.138041 
L 237.017954 279.44781 
L 236.725386 280.740711 
L 236.432819 281.957797 
L 236.140251 283.06231 
L 235.847684 284.039699 
L 235.555116 284.888822 
L 235.262549 285.615763 
L 234.969981 286.231963 
L 234.677414 286.752605 
L 234.384846 287.193972 
L 234.092279 287.572508 
L 233.799711 287.90649 
L 233.507144 288.216442 
L 233.214576 288.520508 
L 232.922009 288.827136 
L 232.629441 289.132127 
L 232.336874 289.423795 
L 232.044306 289.692026 
L 231.751739 289.933837 
L 231.459171 290.152769 
L 231.166604 290.355737 
L 230.874036 290.55138 
L 230.581469 290.749493 
L 230.288901 290.958724 
L 229.996334 291.182242 
L 229.703766 291.41465 
L 229.411199 291.643222 
L 229.118631 291.853048 
L 228.826064 292.032719 
L 228.533496 292.177269 
L 228.240929 292.287427 
L 227.948361 292.366668 
L 227.655794 292.418534 
L 227.363226 292.445803 
L 227.070659 292.451237 
L 226.778091 292.438395 
L 226.485524 292.411433 
L 226.192956 292.374438 
L 225.900389 292.331709 
L 225.607821 292.289318 
L 225.315254 292.256274 
L 225.022686 292.243003 
L 224.730119 292.256968 
L 224.437551 292.298218 
L 224.144984 292.35839 
L 223.852416 292.424246 
L 223.559849 292.483374 
L 223.267281 292.528461 
L 222.974714 292.558156 
L 222.682146 292.575176 
L 222.389579 292.583556 
L 222.097011 292.586556 
z
" style="fill-opacity:0.25;"/>
   </g>
   <g id="PolyCollection_6">
    <path clip-path="url(#pa814bd39b5)" d="M 267.242675 292.586969 
L 267.242675 292.59 
L 267.419909 292.59 
L 267.597143 292.59 
L 267.774376 292.59 
L 267.95161 292.59 
L 268.128844 292.59 
L 268.306078 292.59 
L 268.483312 292.59 
L 268.660546 292.59 
L 268.837779 292.59 
L 269.015013 292.59 
L 269.192247 292.59 
L 269.369481 292.59 
L 269.546715 292.59 
L 269.723949 292.59 
L 269.901183 292.59 
L 270.078416 292.59 
L 270.25565 292.59 
L 270.432884 292.59 
L 270.610118 292.59 
L 270.787352 292.59 
L 270.964586 292.59 
L 271.141819 292.59 
L 271.319053 292.59 
L 271.496287 292.59 
L 271.673521 292.59 
L 271.850755 292.59 
L 272.027989 292.59 
L 272.205222 292.59 
L 272.382456 292.59 
L 272.55969 292.59 
L 272.736924 292.59 
L 272.914158 292.59 
L 273.091392 292.59 
L 273.268625 292.59 
L 273.445859 292.59 
L 273.623093 292.59 
L 273.800327 292.59 
L 273.977561 292.59 
L 274.154795 292.59 
L 274.332028 292.59 
L 274.509262 292.59 
L 274.686496 292.59 
L 274.86373 292.59 
L 275.040964 292.59 
L 275.218198 292.59 
L 275.395431 292.59 
L 275.572665 292.59 
L 275.749899 292.59 
L 275.927133 292.59 
L 276.104367 292.59 
L 276.281601 292.59 
L 276.458834 292.59 
L 276.636068 292.59 
L 276.813302 292.59 
L 276.990536 292.59 
L 277.16777 292.59 
L 277.345004 292.59 
L 277.522237 292.59 
L 277.699471 292.59 
L 277.876705 292.59 
L 278.053939 292.59 
L 278.231173 292.59 
L 278.408407 292.59 
L 278.58564 292.59 
L 278.762874 292.59 
L 278.940108 292.59 
L 279.117342 292.59 
L 279.294576 292.59 
L 279.47181 292.59 
L 279.649043 292.59 
L 279.826277 292.59 
L 280.003511 292.59 
L 280.180745 292.59 
L 280.357979 292.59 
L 280.535213 292.59 
L 280.712446 292.59 
L 280.88968 292.59 
L 281.066914 292.59 
L 281.244148 292.59 
L 281.421382 292.59 
L 281.598616 292.59 
L 281.775849 292.59 
L 281.953083 292.59 
L 282.130317 292.59 
L 282.307551 292.59 
L 282.484785 292.59 
L 282.662019 292.59 
L 282.839252 292.59 
L 283.016486 292.59 
L 283.19372 292.59 
L 283.370954 292.59 
L 283.548188 292.59 
L 283.725422 292.59 
L 283.902656 292.59 
L 284.079889 292.59 
L 284.257123 292.59 
L 284.434357 292.59 
L 284.611591 292.59 
L 284.788825 292.59 
L 284.966059 292.59 
L 285.143292 292.59 
L 285.320526 292.59 
L 285.49776 292.59 
L 285.674994 292.59 
L 285.852228 292.59 
L 286.029462 292.59 
L 286.206695 292.59 
L 286.383929 292.59 
L 286.561163 292.59 
L 286.738397 292.59 
L 286.915631 292.59 
L 287.092865 292.59 
L 287.270098 292.59 
L 287.447332 292.59 
L 287.624566 292.59 
L 287.8018 292.59 
L 287.979034 292.59 
L 288.156268 292.59 
L 288.333501 292.59 
L 288.510735 292.59 
L 288.687969 292.59 
L 288.865203 292.59 
L 289.042437 292.59 
L 289.219671 292.59 
L 289.396904 292.59 
L 289.574138 292.59 
L 289.751372 292.59 
L 289.751372 292.586571 
L 289.751372 292.586571 
L 289.574138 292.581738 
L 289.396904 292.568906 
L 289.219671 292.541232 
L 289.042437 292.48911 
L 288.865203 292.402225 
L 288.687969 292.272828 
L 288.510735 292.098473 
L 288.333501 291.882219 
L 288.156268 291.630239 
L 287.979034 291.349605 
L 287.8018 291.049885 
L 287.624566 290.748792 
L 287.447332 290.475676 
L 287.270098 290.263147 
L 287.092865 290.123383 
L 286.915631 290.020692 
L 286.738397 289.862257 
L 286.561163 289.521175 
L 286.383929 288.882678 
L 286.206695 287.88584 
L 286.029462 286.536122 
L 285.852228 284.886788 
L 285.674994 283.010899 
L 285.49776 280.990359 
L 285.320526 278.927475 
L 285.143292 276.953247 
L 284.966059 275.196652 
L 284.788825 273.709433 
L 284.611591 272.390018 
L 284.434357 270.969984 
L 284.257123 269.091508 
L 284.079889 266.440681 
L 283.902656 262.860592 
L 283.725422 258.381048 
L 283.548188 253.159164 
L 283.370954 247.383983 
L 283.19372 241.209799 
L 283.016486 234.736887 
L 282.839252 228.006635 
L 282.662019 220.983578 
L 282.484785 213.551541 
L 282.307551 205.575158 
L 282.130317 197.02133 
L 281.953083 188.052435 
L 281.775849 178.997396 
L 281.598616 170.203728 
L 281.421382 161.880536 
L 281.244148 154.048221 
L 281.066914 146.615666 
L 280.88968 139.514944 
L 280.712446 132.8124 
L 280.535213 126.749732 
L 280.357979 121.69024 
L 280.180745 117.968712 
L 280.003511 115.708582 
L 279.826277 114.732223 
L 279.649043 114.650935 
L 279.47181 115.077315 
L 279.294576 115.789817 
L 279.117342 116.725195 
L 278.940108 117.843611 
L 278.762874 119.034169 
L 278.58564 120.180503 
L 278.408407 121.336454 
L 278.231173 122.841523 
L 278.053939 125.249949 
L 277.876705 129.104334 
L 277.699471 134.701352 
L 277.522237 141.981598 
L 277.345004 150.575516 
L 277.16777 159.954433 
L 276.990536 169.607413 
L 276.813302 179.166383 
L 276.636068 188.426805 
L 276.458834 197.272062 
L 276.281601 205.576578 
L 276.104367 213.17383 
L 275.927133 219.916736 
L 275.749899 225.780498 
L 275.572665 230.921597 
L 275.395431 235.636093 
L 275.218198 240.236122 
L 275.040964 244.925642 
L 274.86373 249.74905 
L 274.686496 254.619414 
L 274.509262 259.378258 
L 274.332028 263.844146 
L 274.154795 267.846777 
L 273.977561 271.263238 
L 273.800327 274.05719 
L 273.623093 276.297223 
L 273.445859 278.130485 
L 273.268625 279.718094 
L 273.091392 281.172111 
L 272.914158 282.534432 
L 272.736924 283.802069 
L 272.55969 284.966539 
L 272.382456 286.032793 
L 272.205222 287.01146 
L 272.027989 287.903539 
L 271.850755 288.696216 
L 271.673521 289.371591 
L 271.496287 289.919127 
L 271.319053 290.344604 
L 271.141819 290.673005 
L 270.964586 290.943013 
L 270.787352 291.192365 
L 270.610118 291.44096 
L 270.432884 291.68435 
L 270.25565 291.903451 
L 270.078416 292.081797 
L 269.901183 292.215533 
L 269.723949 292.310375 
L 269.546715 292.372803 
L 269.369481 292.405978 
L 269.192247 292.413195 
L 269.015013 292.403249 
L 268.837779 292.390881 
L 268.660546 292.390914 
L 268.483312 292.410756 
L 268.306078 292.447293 
L 268.128844 292.49028 
L 267.95161 292.529022 
L 267.774376 292.557402 
L 267.597143 292.574735 
L 267.419909 292.583579 
L 267.242675 292.586969 
z
" style="fill:#1f78b4;fill-opacity:0.25;"/>
   </g>
   <g id="line2d_12">
    <path clip-path="url(#pa814bd39b5)" d="M 290.066549 292.586663 
L 290.855536 292.483376 
L 291.447277 292.118314 
L 292.039017 291.41868 
L 292.630758 290.120966 
L 293.222498 288.271854 
L 293.616992 286.285186 
L 294.208732 281.44915 
L 294.603226 276.571061 
L 294.99772 268.916907 
L 295.58946 251.293292 
L 296.378447 219.640049 
L 297.956422 150.375319 
L 298.745409 127.750579 
L 299.33715 115.552324 
L 299.534396 113.090561 
L 299.731643 112.084254 
L 299.92889 112.718071 
L 300.126137 114.91331 
L 300.52063 122.87348 
L 301.506865 150.880293 
L 304.071073 240.729562 
L 305.254554 267.153308 
L 305.846294 276.544513 
L 306.438035 281.787745 
L 307.029775 285.005788 
L 308.410503 290.725323 
L 308.804997 291.225892 
L 309.593984 291.513008 
L 310.974712 292.502403 
L 311.763699 292.588281 
L 312.94718 292.517562 
L 313.736167 292.407889 
L 315.116895 292.586912 
L 315.116895 292.586912 
" style="fill:none;stroke:#0000ff;stroke-linecap:round;stroke-width:2;"/>
   </g>
   <g id="line2d_13">
    <path clip-path="url(#pa814bd39b5)" d="M 256.382456 292.58869 
L 262.729581 292.461297 
L 267.716609 292.219239 
L 268.623341 291.962933 
L 269.530073 291.509229 
L 270.890172 290.71512 
L 273.157002 289.826876 
L 274.063735 288.80175 
L 275.423833 286.61982 
L 278.14403 282.017997 
L 279.050762 279.56694 
L 279.957494 276.140029 
L 280.864226 271.712062 
L 281.770959 266.35558 
L 287.211352 229.842352 
L 288.571451 220.904751 
L 289.024817 218.793326 
L 289.478183 217.262215 
L 289.931549 216.249427 
L 290.384915 215.62106 
L 290.838281 215.237661 
L 291.291647 215.03918 
L 291.745013 215.099318 
L 292.19838 215.600552 
L 292.651746 216.731391 
L 293.105112 218.573049 
L 294.011844 224.006153 
L 295.825309 237.578113 
L 300.812336 277.219887 
L 301.719068 282.306145 
L 302.6258 285.629813 
L 303.532533 287.863605 
L 304.439265 289.553492 
L 305.345997 290.83453 
L 306.252729 291.670288 
L 307.159462 292.131723 
L 308.066194 292.352461 
L 309.879658 292.473247 
L 313.959954 292.588689 
L 313.959954 292.588689 
" style="fill:none;stroke:#33a02c;stroke-linecap:round;stroke-width:2;"/>
   </g>
   <g id="line2d_14">
    <path clip-path="url(#pa814bd39b5)" d="M 462.329043 292.584234 
L 462.775002 292.483647 
L 463.778411 291.680322 
L 464.00139 291.178694 
L 465.004799 287.538158 
L 465.227779 285.948221 
L 465.450759 282.871368 
L 465.785228 274.595375 
L 466.565657 246.034843 
L 467.123106 216.898662 
L 467.680556 173.306778 
L 469.464393 23.827432 
L 469.687373 20.79 
L 469.798863 20.937679 
L 470.021843 23.598387 
L 470.244822 31.514037 
L 470.579292 55.920285 
L 471.248231 104.93064 
L 471.80568 147.290395 
L 472.697599 219.703744 
L 473.366538 252.462428 
L 474.258457 280.457266 
L 474.592927 287.190126 
L 474.815906 288.996207 
L 475.150376 289.911597 
L 475.484846 290.938164 
L 475.930805 292.271609 
L 476.265275 292.55402 
L 476.488254 292.583481 
L 476.488254 292.583481 
" style="fill:none;stroke:#ff7f00;stroke-linecap:round;stroke-width:2;"/>
   </g>
   <g id="line2d_15">
    <path clip-path="url(#pa814bd39b5)" d="M 70.670072 292.587314 
L 71.905442 292.500782 
L 73.449653 292.048484 
L 74.685022 291.635798 
L 75.611549 291.090875 
L 76.538076 290.116851 
L 77.464603 288.839447 
L 78.082287 287.5075 
L 78.699972 285.232357 
L 79.626499 280.426568 
L 80.861868 272.760232 
L 82.406079 260.700704 
L 83.023764 254.874098 
L 83.641449 246.556297 
L 84.567975 229.06555 
L 85.803345 204.99812 
L 86.421029 195.953142 
L 87.038714 189.262932 
L 87.656398 184.863185 
L 87.965241 183.504466 
L 88.274083 182.676341 
L 88.582925 182.354025 
L 88.891767 182.512712 
L 89.20061 183.10534 
L 89.818294 185.267563 
L 90.435979 188.582111 
L 91.053664 193.939944 
L 91.671348 202.04307 
L 92.597875 218.3777 
L 93.833244 239.852138 
L 95.686298 265.19912 
L 96.303982 270.789297 
L 97.848194 281.159248 
L 98.774721 286.107423 
L 99.392405 288.312919 
L 100.01009 289.668961 
L 100.627774 290.515372 
L 101.554301 291.27491 
L 103.098513 292.307188 
L 104.02504 292.536141 
L 105.569251 292.583767 
L 109.584201 292.585611 
L 109.893043 292.587908 
L 109.893043 292.587908 
" style="fill:none;stroke:#e31a1c;stroke-linecap:round;stroke-width:2;"/>
   </g>
   <g id="line2d_16">
    <path clip-path="url(#pa814bd39b5)" d="M 222.097011 292.586556 
L 223.559849 292.483374 
L 225.022686 292.243003 
L 226.485524 292.411433 
L 227.655794 292.418534 
L 228.533496 292.177269 
L 229.411199 291.643222 
L 232.922009 288.827136 
L 234.384846 287.193972 
L 234.969981 286.231963 
L 235.555116 284.888822 
L 236.140251 283.06231 
L 237.017954 279.44781 
L 239.065926 270.256055 
L 239.651061 265.960424 
L 240.528764 257.697317 
L 241.699034 244.080013 
L 245.209844 201.091517 
L 245.794979 195.292926 
L 246.380114 191.662024 
L 246.965249 189.68834 
L 247.257816 189.10925 
L 247.550384 188.787646 
L 247.842951 188.77925 
L 248.135519 189.157171 
L 248.428086 189.982407 
L 249.013221 193.076018 
L 249.890924 200.533504 
L 251.061194 212.097994 
L 251.646329 220.451102 
L 252.524031 237.895188 
L 253.694301 261.881363 
L 254.572003 275.42363 
L 255.157138 282.037562 
L 255.742273 286.626429 
L 256.327408 289.489509 
L 256.912543 291.172325 
L 257.497678 292.066475 
L 258.082813 292.445706 
L 258.960516 292.578991 
L 259.253083 292.5855 
L 259.253083 292.5855 
" style="fill:none;stroke:#000000;stroke-linecap:round;stroke-width:2;"/>
   </g>
   <g id="line2d_17">
    <path clip-path="url(#pa814bd39b5)" d="M 267.242675 292.586969 
L 268.128844 292.49028 
L 268.837779 292.390881 
L 269.546715 292.372803 
L 270.078416 292.081797 
L 270.610118 291.44096 
L 271.319053 290.344604 
L 271.673521 289.371591 
L 272.205222 287.01146 
L 272.914158 282.534432 
L 273.623093 276.297223 
L 273.977561 271.263238 
L 274.509262 259.378258 
L 275.927133 219.916736 
L 276.458834 197.272062 
L 277.876705 129.104334 
L 278.231173 122.841523 
L 278.762874 119.034169 
L 279.294576 115.789817 
L 279.649043 114.650935 
L 279.826277 114.732223 
L 280.003511 115.708582 
L 280.180745 117.968712 
L 280.535213 126.749732 
L 281.244148 154.048221 
L 283.548188 253.159164 
L 284.079889 266.440681 
L 284.434357 270.969984 
L 285.320526 278.927475 
L 286.029462 286.536122 
L 286.383929 288.882678 
L 286.738397 289.862257 
L 287.624566 290.748792 
L 288.510735 292.098473 
L 289.042437 292.48911 
L 289.751372 292.586571 
L 289.751372 292.586571 
" style="fill:none;stroke:#1f78b4;stroke-linecap:round;stroke-width:2;"/>
   </g>
   <g id="line2d_18">
    <path clip-path="url(#pa814bd39b5)" d="M 290.157845 306.18 
L 290.157845 7.2 
" style="fill:none;stroke:#33a02c;stroke-dasharray:8.4,3.6;stroke-dashoffset:0;stroke-width:3;"/>
   </g>
   <g id="patch_3">
    <path d="M 50.379163 306.18 
L 50.379163 7.2 
" style="fill:none;"/>
   </g>
   <g id="patch_4">
    <path d="M 496.779163 306.18 
L 496.779163 7.2 
" style="fill:none;"/>
   </g>
   <g id="patch_5">
    <path d="M 50.379163 306.18 
L 496.779163 306.18 
" style="fill:none;"/>
   </g>
   <g id="patch_6">
    <path d="M 50.379163 7.2 
L 496.779163 7.2 
" style="fill:none;"/>
   </g>
   <g id="legend_1">
    <g id="line2d_19">
     <path d="M 62.979163 24.7 
L 90.979163 24.7 
" style="fill:none;stroke:#0000ff;stroke-linecap:round;stroke-width:2;"/>
    </g>
    <g id="line2d_20"/>
    <g id="text_14">
     <!-- \emph{rhy-1} $&gt;$ \emph{vhl-1} -->
     <defs>
      <path d="M 19.90625 35.53125 
L 19.796875 35.53125 
L 22.40625 48.15625 
L 16.40625 48.15625 
L 6.40625 0.5 
L 10.90625 0.5 
C 11.40625 0.5 12.203125 0.296875 12.59375 0.703125 
C 12.90625 0.90625 13.5 4.4375 13.796875 5.65625 
L 16.703125 19.578125 
C 17.5 23.109375 18 26.859375 19.59375 30.1875 
C 23.40625 37.84375 31.90625 43 40.40625 43 
L 41.5 48.765625 
C 34.90625 48.765625 28.59375 45.421875 24 40.78125 
C 22.5 39.265625 20.90625 37.453125 19.90625 35.53125 
M 19.703125 34.953125 
C 19.703125 34.953125 19.796875 34.953125 19.796875 34.953125 
C 19.796875 34.859375 19.703125 34.75 19.703125 34.953125 
" id="Computer_Modern_Bright_Slanted-114"/>
      <path d="M 21.09375 70 
L 6.40625 0 
L 10.90625 0 
C 11.796875 0 13 -0.296875 13 1.015625 
C 13.203125 1.71875 13.296875 2.328125 13.40625 3.03125 
C 14.40625 7.78125 19 29.5 19.296875 30.40625 
C 20.40625 33.953125 22.40625 37.375 25.09375 39.90625 
C 28 42.4375 31.203125 43.84375 36.59375 42.9375 
C 38.796875 42.53125 40.90625 41.625 42 39.5 
C 43.5 36.46875 42.40625 32.9375 41.796875 29.90625 
L 35.5 0 
L 40.203125 0 
C 41.203125 0 42.09375 -0.203125 42.09375 1.109375 
C 42.703125 3.125 44.09375 10.625 44.09375 10.625 
L 48.59375 32 
C 49.40625 35.734375 50.296875 40.40625 48.203125 43.9375 
C 46.296875 46.984375 42.90625 48 39.59375 48.296875 
C 38.09375 48.296875 36.5 48.296875 35 48 
C 30.796875 47.3125 27.09375 45.09375 24.09375 42.09375 
C 22.90625 40.890625 21.5 39.59375 20.796875 37.984375 
L 20.703125 37.984375 
L 27.40625 70 
z
" id="Computer_Modern_Bright_Slanted-104"/>
      <path d="M 10.703125 48 
C 11.203125 44.265625 12 40.625 12.703125 36.890625 
C 13.09375 34.359375 19 0.8125 19 0.515625 
C 19 -0.09375 18.59375 -0.59375 18.296875 -1.109375 
L 16.59375 -4.140625 
C 14.703125 -7.265625 12.796875 -10.5 9 -11.8125 
C 6 -12.71875 0.5 -11.40625 -1.5 -10.796875 
C -1.796875 -12.625 -2 -14.53125 -2.203125 -16.453125 
C 0.5 -16.859375 5.40625 -17.46875 8.09375 -16.96875 
C 15.203125 -15.34375 19.203125 -8.671875 22.5 -3.21875 
L 44.09375 34.359375 
L 49.203125 43.359375 
C 50.09375 44.859375 51.203125 46.375 51.796875 48 
C 49.703125 48 47.40625 48 45.59375 47.703125 
C 43.203125 44.078125 41.203125 40.046875 38.90625 36.21875 
C 33.59375 26.4375 27.703125 17.359375 23.203125 6.78125 
L 23.09375 6.78125 
C 23.40625 8.390625 23.09375 10.109375 22.90625 11.734375 
C 21.796875 22.546875 18.59375 39.71875 17.09375 48 
z
" id="Computer_Modern_Bright_Slanted-121"/>
      <path d="M 5.90625 26.0625 
L 4.90625 21 
L 32.796875 21 
L 33.796875 26.0625 
z
" id="Computer_Modern_Bright_Slanted-45"/>
      <path d="M 22.5 61 
L 21.5 55.9375 
C 26.296875 55.9375 31.40625 56.546875 35.703125 58.875 
L 24.5 5.046875 
C 20.296875 5.046875 15.296875 5.5625 11.5 5.046875 
C 10.90625 3.578125 10.703125 1.671875 10.296875 0 
C 21.09375 0 32.59375 0 42.796875 0 
C 43.40625 1.453125 43.703125 3.296875 44.09375 5.046875 
L 31 5.046875 
C 35.203125 26.0625 39.796875 46.59375 44.09375 67.5 
C 41.703125 67.5 42 67.09375 40 65.59375 
C 35.59375 62.59375 28.90625 61 22.5 61 
" id="Computer_Modern_Bright_Slanted-49"/>
      <path d="M 62.59375 26.546875 
L 62.59375 26.34375 
C 60.296875 25.546875 58 24.25 55.796875 23.140625 
L 27.09375 9.625 
L 11.09375 2 
C 10.40625 1.703125 9.40625 1.296875 8.90625 0.796875 
C 8 -0.203125 8.203125 -1.703125 9.296875 -2.296875 
C 10.5 -3 11.703125 -2.109375 12.796875 -1.609375 
L 21 2.203125 
C 25.203125 4.3125 55 18.328125 55 18.328125 
L 66 23.546875 
C 67.296875 24.140625 69.40625 24.75 69.40625 26.453125 
C 69.40625 28.15625 67.296875 28.75 66 29.359375 
L 55 34.5625 
L 33.703125 44.6875 
C 29.5 46.6875 25.203125 48.59375 21 50.703125 
L 12.796875 54.5 
C 11.703125 55 10.5 55.90625 9.296875 55.203125 
C 8.203125 54.609375 8 53.09375 8.90625 52.09375 
C 9.40625 51.59375 10.40625 51.203125 11.09375 50.890625 
L 41.59375 36.46875 
L 55.796875 29.75 
C 58 28.65625 60.296875 27.359375 62.59375 26.546875 
" id="Computer_Modern_Bright_Math_Slanted-62"/>
      <path d="M 10.703125 48 
C 12.796875 33.046875 15.09375 18.171875 17.09375 3.125 
C 17.296875 2.109375 17.296875 0.90625 17.796875 0.203125 
C 19.90625 0 22.59375 0 24.703125 0 
L 25.296875 0.703125 
L 44.703125 35.109375 
L 51.796875 48 
C 49.703125 48 47.5 48 45.703125 47.703125 
C 44.90625 46.59375 44.296875 45.484375 43.59375 44.265625 
C 36.59375 31.84375 29.40625 19.515625 22.703125 6.6875 
C 21.59375 16.984375 20 26.6875 18.59375 36.6875 
C 18 40.328125 17.90625 44.46875 16.90625 47.703125 
C 15.09375 48 12.796875 48 10.703125 48 
" id="Computer_Modern_Bright_Slanted-118"/>
      <path d="M 21.09375 70 
L 6.40625 0 
C 8.5 0 10.796875 0 12.59375 0.296875 
L 13 1.40625 
C 14 6.4375 15.09375 11.375 16.203125 16.40625 
L 27.40625 70 
z
" id="Computer_Modern_Bright_Slanted-108"/>
     </defs>
     <g style="fill:#262626;" transform="translate(102.179163 29.6)scale(0.14 -0.14)">
      <use transform="scale(0.996264)" xlink:href="#Computer_Modern_Bright_Slanted-114"/>
      <use transform="translate(31.963359 0)scale(0.996264)" xlink:href="#Computer_Modern_Bright_Slanted-104"/>
      <use transform="translate(80.115856 0)scale(0.996264)" xlink:href="#Computer_Modern_Bright_Slanted-121"/>
      <use transform="translate(122.456894 0)scale(0.996264)" xlink:href="#Computer_Modern_Bright_Slanted-45"/>
      <use transform="translate(155.665567 0)scale(0.996264)" xlink:href="#Computer_Modern_Bright_Slanted-49"/>
      <use transform="translate(248.750337 0)scale(0.996264)" xlink:href="#Computer_Modern_Bright_Math_Slanted-62"/>
      <use transform="translate(357.703017 0)scale(0.996264)" xlink:href="#Computer_Modern_Bright_Slanted-118"/>
      <use transform="translate(400.044055 0)scale(0.996264)" xlink:href="#Computer_Modern_Bright_Slanted-104"/>
      <use transform="translate(448.196552 0)scale(0.996264)" xlink:href="#Computer_Modern_Bright_Slanted-108"/>
      <use transform="translate(467.291511 0)scale(0.996264)" xlink:href="#Computer_Modern_Bright_Slanted-45"/>
      <use transform="translate(500.500184 0)scale(0.996264)" xlink:href="#Computer_Modern_Bright_Slanted-49"/>
     </g>
    </g>
    <g id="line2d_21">
     <path d="M 62.979163 43.824611 
L 90.979163 43.824611 
" style="fill:none;stroke:#33a02c;stroke-linecap:round;stroke-width:2;"/>
    </g>
    <g id="line2d_22"/>
    <g id="text_15">
     <!-- data -->
     <defs>
      <path d="M 35.59375 69.6875 
L 35.59375 41.375 
C 33.703125 43.484375 31.796875 45.484375 29.203125 46.6875 
C 20.296875 50.40625 11.703125 45.59375 7.296875 37.65625 
C 2.203125 28.21875 2.796875 15.765625 8.90625 6.921875 
C 13.203125 0.796875 20.296875 -2.203125 27.796875 0.5 
C 30.703125 1.609375 34.203125 4.515625 35.40625 7.125 
L 35.5 7.125 
L 35.5 0 
L 41.90625 0 
L 41.90625 69.6875 
z
M 35.203125 37.453125 
C 35.703125 36.546875 35.5 35.34375 35.5 34.34375 
L 35.5 13.65625 
C 35.5 11.34375 35.40625 11.140625 34.09375 9.34375 
C 32.296875 6.625 29.5 4.71875 26.203125 4.421875 
C 21.40625 4.015625 16.5 6.328125 13.703125 10.25 
C 12.09375 12.546875 11.203125 15.359375 10.703125 18.171875 
C 10.5 19.28125 10.5 20.28125 10.40625 21.390625 
C 9.796875 28.015625 11.203125 35.84375 17 40.0625 
C 18 40.765625 19.09375 41.265625 20.203125 41.765625 
C 26 43.984375 32.40625 43.375 35.203125 37.453125 
" id="Computer_Modern_Bright-100"/>
     </defs>
     <g style="fill:#262626;" transform="translate(102.179163 48.724611)scale(0.14 -0.14)">
      <use transform="scale(0.996264)" xlink:href="#Computer_Modern_Bright-100"/>
      <use transform="translate(48.152497 0)scale(0.996264)" xlink:href="#Computer_Modern_Bright-97"/>
      <use transform="translate(94.644579 0)scale(0.996264)" xlink:href="#Computer_Modern_Bright-116"/>
      <use transform="translate(130.758967 0)scale(0.996264)" xlink:href="#Computer_Modern_Bright-97"/>
     </g>
    </g>
    <g id="line2d_23">
     <path d="M 62.979163 62.949222 
L 90.979163 62.949222 
" style="fill:none;stroke:#ff7f00;stroke-linecap:round;stroke-width:2;"/>
    </g>
    <g id="line2d_24"/>
    <g id="text_16">
     <!-- Additive -->
     <defs>
      <path d="M 2.09375 0.09375 
L 6.59375 0.09375 
L 8.40625 0.296875 
C 11.40625 6.796875 13.5 14.203125 16.203125 21 
C 26.09375 21 36.90625 21 46.296875 21 
L 47.09375 19.6875 
C 48.796875 14.546875 50.796875 9.59375 52.59375 4.546875 
C 53.09375 3.015625 53.59375 1.515625 54.40625 0.296875 
C 56.59375 0 59.203125 0 61.59375 0 
C 59.90625 4.90625 36.703125 67.203125 36 68.890625 
C 35.90625 69.296875 35.703125 69.890625 35.203125 70 
C 34.59375 70.09375 34 70 33.40625 70 
L 30.09375 70 
C 28.59375 70 28 70.1875 27.59375 68.609375 
C 27.203125 67.59375 2.09375 0.09375 2.09375 0.09375 
M 31.40625 63.171875 
C 35.59375 50.71875 40.09375 38.46875 44.5 26.21875 
L 18.203125 26.21875 
L 26.90625 50.109375 
z
" id="Computer_Modern_Bright-65"/>
     </defs>
     <g style="fill:#262626;" transform="translate(102.179163 67.849222)scale(0.14 -0.14)">
      <use transform="scale(0.996264)" xlink:href="#Computer_Modern_Bright-65"/>
      <use transform="translate(63.511618 0)scale(0.996264)" xlink:href="#Computer_Modern_Bright-100"/>
      <use transform="translate(111.664115 0)scale(0.996264)" xlink:href="#Computer_Modern_Bright-100"/>
      <use transform="translate(159.816612 0)scale(0.996264)" xlink:href="#Computer_Modern_Bright-105"/>
      <use transform="translate(178.911571 0)scale(0.996264)" xlink:href="#Computer_Modern_Bright-116"/>
      <use transform="translate(215.025959 0)scale(0.996264)" xlink:href="#Computer_Modern_Bright-105"/>
      <use transform="translate(234.120917 0)scale(0.996264)" xlink:href="#Computer_Modern_Bright-118"/>
      <use transform="translate(276.461955 0)scale(0.996264)" xlink:href="#Computer_Modern_Bright-101"/>
     </g>
    </g>
    <g id="line2d_25">
     <path d="M 62.979163 82.073833 
L 90.979163 82.073833 
" style="fill:none;stroke:#e31a1c;stroke-linecap:round;stroke-width:2;"/>
    </g>
    <g id="line2d_26"/>
    <g id="text_17">
     <!-- Suppression -->
     <defs>
      <path d="M 5.09375 13.015625 
C 4.90625 11.390625 4.5 9.671875 4.296875 8.046875 
C 4.09375 6.53125 3.59375 6.109375 4.90625 5.3125 
C 8.296875 3.390625 11.203125 2.0625 15.40625 0.75 
C 24.796875 -2 35.59375 -2 43.796875 4.140625 
C 45.09375 5.140625 46.296875 6.234375 47.40625 7.53125 
C 49.90625 10.890625 52.203125 14.96875 51.59375 20.53125 
C 50.90625 27.671875 46.09375 33.625 39.59375 36.609375 
C 30.703125 40.578125 16.203125 40.578125 12.203125 49.375 
C 9.09375 56.1875 14.59375 62.171875 20.796875 64.375 
C 26.90625 66.6875 34.90625 65.78125 40.09375 63.375 
C 42.5 62.265625 44.5 60.65625 46.703125 59.25 
C 46.90625 60.96875 47.296875 62.578125 47.59375 64.28125 
C 47.796875 65.375 48.09375 66.390625 46.90625 66.78125 
L 45 67.796875 
C 42.296875 69 39.5 69.90625 36.59375 70.5 
C 27.59375 72.203125 17.203125 71.203125 10.40625 64.484375 
C 7 61.0625 4.09375 56.4375 5.296875 49.515625 
C 6.703125 42.390625 12.296875 37.875 18.09375 35.65625 
C 21.5 34.359375 25.296875 33.65625 28.90625 32.75 
C 31 32.34375 33.203125 31.84375 35.296875 31.140625 
C 40.703125 29.125 45.40625 25.109375 45.40625 17.6875 
C 44.796875 11.296875 39.203125 6.625 33.296875 5.203125 
C 25.703125 3.265625 16.703125 6.015625 11.5 8.75 
C 9.203125 9.96875 7.203125 11.59375 5.09375 13.015625 
" id="Computer_Modern_Bright-83"/>
      <path d="M 12.5 34.75 
L 12.40625 34.75 
L 12.40625 47.390625 
L 6.40625 47.390625 
L 6.40625 0 
L 12.703125 0 
L 12.703125 22.890625 
C 12.703125 24.40625 12.703125 25.90625 12.90625 27.40625 
C 14.296875 35.953125 21.703125 42.28125 31.40625 42.28125 
L 31.40625 48 
C 25 48 19.09375 44.890625 15.296875 39.765625 
C 14.203125 38.265625 13 36.546875 12.5 34.75 
" id="Computer_Modern_Bright-114"/>
     </defs>
     <g style="fill:#262626;" transform="translate(102.179163 86.973833)scale(0.14 -0.14)">
      <use transform="scale(0.996264)" xlink:href="#Computer_Modern_Bright-83"/>
      <use transform="translate(56.454753 0)scale(0.996264)" xlink:href="#Computer_Modern_Bright-117"/>
      <use transform="translate(104.60725 0)scale(0.996264)" xlink:href="#Computer_Modern_Bright-112"/>
      <use transform="translate(152.759747 0)scale(0.996264)" xlink:href="#Computer_Modern_Bright-112"/>
      <use transform="translate(198.006514 0)scale(0.996264)" xlink:href="#Computer_Modern_Bright-114"/>
      <use transform="translate(229.969873 0)scale(0.996264)" xlink:href="#Computer_Modern_Bright-101"/>
      <use transform="translate(274.801541 0)scale(0.996264)" xlink:href="#Computer_Modern_Bright-115"/>
      <use transform="translate(313.24057 0)scale(0.996264)" xlink:href="#Computer_Modern_Bright-115"/>
      <use transform="translate(351.679599 0)scale(0.996264)" xlink:href="#Computer_Modern_Bright-105"/>
      <use transform="translate(370.774558 0)scale(0.996264)" xlink:href="#Computer_Modern_Bright-111"/>
      <use transform="translate(421.417776 0)scale(0.996264)" xlink:href="#Computer_Modern_Bright-110"/>
     </g>
    </g>
    <g id="line2d_27">
     <path d="M 62.979163 101.198444 
L 90.979163 101.198444 
" style="fill:none;stroke:#000000;stroke-linecap:round;stroke-width:2;"/>
    </g>
    <g id="line2d_28"/>
    <g id="text_18">
     <!-- \emph{vhl-1} $&gt;$ \emph{rhy-1} -->
     <g style="fill:#262626;" transform="translate(102.179163 106.098444)scale(0.14 -0.14)">
      <use transform="scale(0.996264)" xlink:href="#Computer_Modern_Bright_Slanted-118"/>
      <use transform="translate(42.341038 0)scale(0.996264)" xlink:href="#Computer_Modern_Bright_Slanted-104"/>
      <use transform="translate(90.493535 0)scale(0.996264)" xlink:href="#Computer_Modern_Bright_Slanted-108"/>
      <use transform="translate(109.588494 0)scale(0.996264)" xlink:href="#Computer_Modern_Bright_Slanted-45"/>
      <use transform="translate(142.797167 0)scale(0.996264)" xlink:href="#Computer_Modern_Bright_Slanted-49"/>
      <use transform="translate(235.881937 0)scale(0.996264)" xlink:href="#Computer_Modern_Bright_Math_Slanted-62"/>
      <use transform="translate(344.834617 0)scale(0.996264)" xlink:href="#Computer_Modern_Bright_Slanted-114"/>
      <use transform="translate(376.797976 0)scale(0.996264)" xlink:href="#Computer_Modern_Bright_Slanted-104"/>
      <use transform="translate(424.950473 0)scale(0.996264)" xlink:href="#Computer_Modern_Bright_Slanted-121"/>
      <use transform="translate(467.291511 0)scale(0.996264)" xlink:href="#Computer_Modern_Bright_Slanted-45"/>
      <use transform="translate(500.500184 0)scale(0.996264)" xlink:href="#Computer_Modern_Bright_Slanted-49"/>
     </g>
    </g>
    <g id="line2d_29">
     <path d="M 62.979163 120.323055 
L 90.979163 120.323055 
" style="fill:none;stroke:#1f78b4;stroke-linecap:round;stroke-width:2;"/>
    </g>
    <g id="line2d_30"/>
    <g id="text_19">
     <!-- Unbranched -->
     <defs>
      <path d="M 8 69.5 
L 8 32.75 
C 8 25.71875 7.203125 18.390625 10.703125 11.96875 
C 12.90625 7.84375 16.09375 4.4375 20.09375 2.125 
C 29.90625 -3.609375 43.5 -2.203125 51.296875 6.4375 
C 54.796875 10.359375 57.296875 15.171875 57.796875 21.796875 
C 57.90625 23.40625 57.796875 24.921875 57.796875 26.515625 
L 57.796875 69.5 
L 51.40625 69.5 
L 51.40625 25.90625 
C 51.40625 24.59375 51.5 23.1875 51.40625 21.890625 
C 51.203125 18.890625 50.59375 15.921875 49.40625 13.25 
C 43.90625 1 25 1 18 11.890625 
C 14.203125 17.78125 15 25.0625 15 31.65625 
L 15 69.5 
z
" id="Computer_Modern_Bright-85"/>
      <path d="M 6.40625 69.6875 
L 6.40625 0 
L 12.796875 0 
L 12.796875 6.328125 
L 12.90625 6.328125 
C 14 4.109375 16.5 2.015625 18.59375 0.90625 
C 25.796875 -2.90625 34.40625 0.90625 39.09375 7.03125 
C 48.59375 19.578125 44.796875 40.875 32.296875 46.796875 
C 27.40625 49 21.5 48 17.09375 44.984375 
C 15.40625 43.78125 14 42.375 12.703125 40.765625 
L 12.703125 69.6875 
z
M 21.90625 42.984375 
C 26.59375 43.375 31.5 41.265625 34.296875 37.453125 
C 36.203125 34.9375 37.203125 31.9375 37.703125 28.8125 
C 38.703125 21.484375 37.90625 12.25 31.40625 7.4375 
C 30.296875 6.625 29.09375 6.03125 27.796875 5.515625 
C 22.40625 3.515625 17 4.109375 14 8.84375 
C 13.09375 10.4375 12.796875 10.546875 12.796875 12.953125 
L 12.796875 33.734375 
C 12.796875 34.75 12.59375 35.953125 13 36.859375 
C 14.59375 40.171875 18.296875 42.671875 21.90625 42.984375 
" id="Computer_Modern_Bright-98"/>
      <path d="M 6.40625 69.6875 
L 6.40625 0 
L 12.796875 0 
L 12.796875 21.984375 
C 12.796875 26.90625 12.5 31.9375 14.703125 36.546875 
C 15.796875 38.859375 17.5 40.875 19.796875 42.078125 
C 21.703125 42.984375 23.703125 42.984375 25.796875 42.78125 
C 28.796875 42.78125 31.703125 41.984375 33.59375 39.453125 
C 35.40625 37.140625 35.5 34.140625 35.5 31.3125 
L 35.5 0 
L 41.90625 0 
L 41.90625 27.21875 
C 41.90625 32.234375 42.40625 37.75 39.90625 42.28125 
C 37.90625 45.6875 34.40625 47.296875 30.703125 47.796875 
C 28.703125 48 26.703125 48 24.703125 47.703125 
C 21.09375 47.015625 18 45.03125 15.59375 42.34375 
C 14.5 41.046875 13.203125 39.46875 12.796875 37.765625 
L 12.703125 37.765625 
L 12.703125 69.6875 
z
" id="Computer_Modern_Bright-104"/>
     </defs>
     <g style="fill:#262626;" transform="translate(102.179163 125.223055)scale(0.14 -0.14)">
      <use transform="scale(0.996264)" xlink:href="#Computer_Modern_Bright-85"/>
      <use transform="translate(65.587132 0)scale(0.996264)" xlink:href="#Computer_Modern_Bright-110"/>
      <use transform="translate(113.739629 0)scale(0.996264)" xlink:href="#Computer_Modern_Bright-98"/>
      <use transform="translate(158.986397 0)scale(0.996264)" xlink:href="#Computer_Modern_Bright-114"/>
      <use transform="translate(190.949756 0)scale(0.996264)" xlink:href="#Computer_Modern_Bright-97"/>
      <use transform="translate(237.441838 0)scale(0.996264)" xlink:href="#Computer_Modern_Bright-110"/>
      <use transform="translate(285.594335 0)scale(0.996264)" xlink:href="#Computer_Modern_Bright-99"/>
      <use transform="translate(330.426003 0)scale(0.996264)" xlink:href="#Computer_Modern_Bright-104"/>
      <use transform="translate(378.5785 0)scale(0.996264)" xlink:href="#Computer_Modern_Bright-101"/>
      <use transform="translate(423.410167 0)scale(0.996264)" xlink:href="#Computer_Modern_Bright-100"/>
     </g>
    </g>
   </g>
  </g>
 </g>
 <defs>
  <clipPath id="pa814bd39b5">
   <rect height="298.98" width="446.4" x="50.379163" y="7.2"/>
  </clipPath>
 </defs>
</svg>
