<?xml version="1.0" encoding="utf-8" standalone="no"?>
<!DOCTYPE svg PUBLIC "-//W3C//DTD SVG 1.1//EN"
  "http://www.w3.org/Graphics/SVG/1.1/DTD/svg11.dtd">
<!-- Created with matplotlib (http://matplotlib.org/) -->
<svg height="353pt" version="1.1" viewBox="0 0 512 353" width="512pt" xmlns="http://www.w3.org/2000/svg" xmlns:xlink="http://www.w3.org/1999/xlink">
 <defs>
  <style type="text/css">
*{stroke-linecap:butt;stroke-linejoin:round;}
  </style>
 </defs>
 <g id="figure_1">
  <g id="patch_1">
   <path d="M 0 353.548374 
L 512.347714 353.548374 
L 512.347714 0 
L 0 0 
z
" style="fill:#ffffff;"/>
  </g>
  <g id="axes_1">
   <g id="patch_2">
    <path d="M 58.747714 306.18 
L 505.147714 306.18 
L 505.147714 7.2 
L 58.747714 7.2 
z
" style="fill:#eaeaf2;"/>
   </g>
   <g id="matplotlib.axis_1">
    <g id="xtick_1">
     <g id="line2d_1"/>
     <g id="text_1">
      <!-- $-1.0$ -->
      <defs>
       <path d="M 9.796875 28.078125 
C 8 27.484375 7.796875 24.78125 9.796875 24.28125 
C 10.296875 24.078125 10.90625 24.1875 11.5 24.1875 
L 64.703125 24.1875 
C 65.90625 24.1875 67.796875 23.78125 68.796875 24.78125 
C 69.90625 25.875 69.296875 27.875 67.703125 28.1875 
C 66.5 28.375 65.09375 28.1875 63.90625 28.1875 
L 11.40625 28.1875 
C 10.90625 28.1875 10.296875 28.28125 9.796875 28.078125 
" id="Computer_Modern_Bright_Math_Symbols-0"/>
       <path d="M 9.703125 60.015625 
L 9.703125 55 
C 15.203125 55 19 56 23.40625 57.90625 
L 23.40625 5.015625 
L 10.296875 5.015625 
L 10.296875 0 
L 43 0 
L 43 5.015625 
L 29.90625 5.015625 
L 29.90625 67 
C 27.5 67 27.90625 66.359375 26 64.875 
C 21.90625 61.71875 16.203125 60.015625 9.703125 60.015625 
" id="Computer_Modern_Bright-49"/>
       <path d="M 10.703125 7.8125 
L 10.703125 0 
L 18.5 0 
L 18.5 7.8125 
z
" id="Computer_Modern_Bright_Math_Slanted-58"/>
       <path d="M 14.796875 63.859375 
C 11.90625 61.859375 9.90625 59.140625 8.40625 56.03125 
C 4.796875 49 4.40625 40.765625 4.40625 31.828125 
C 4.40625 20.578125 6.40625 10.25 12 4.3125 
C 17.296875 -1.203125 25.703125 -2.609375 32.796875 0.296875 
C 37.203125 2.015625 40.40625 5.71875 42.40625 9.734375 
C 46 16.875 46.40625 25.40625 46.40625 34.234375 
C 46.40625 37.046875 46.296875 39.859375 46 42.671875 
C 45.296875 49.40625 43 56.828125 39.296875 60.953125 
C 33.203125 67.6875 22.296875 69.1875 14.796875 63.859375 
M 34.90625 58.140625 
C 39.59375 53.125 40 43.484375 40 34.34375 
L 40 28.921875 
C 40 24.296875 39.203125 18.28125 38.203125 14.859375 
C 36.796875 10.140625 34.5 6.734375 29.90625 4.625 
C 24.296875 2.609375 18.5 4.515625 15.296875 8.9375 
C 11 14.65625 10.796875 24.796875 10.796875 33.734375 
C 10.796875 42.171875 10.90625 51.515625 15 57.03125 
C 19.5 63.0625 29.203125 64.0625 34.90625 58.140625 
" id="Computer_Modern_Bright-48"/>
      </defs>
      <g style="fill:#262626;" transform="translate(78.173253 324.249603)scale(0.16 -0.16)">
       <use transform="scale(0.996264)" xlink:href="#Computer_Modern_Bright_Math_Symbols-0"/>
       <use transform="translate(77.487468 0)scale(0.996264)" xlink:href="#Computer_Modern_Bright-49"/>
       <use transform="translate(128.130685 0)scale(0.996264)" xlink:href="#Computer_Modern_Bright_Math_Slanted-58"/>
       <use transform="translate(157.188132 0)scale(0.996264)" xlink:href="#Computer_Modern_Bright-48"/>
      </g>
     </g>
    </g>
    <g id="xtick_2">
     <g id="line2d_2"/>
     <g id="text_2">
      <!-- $-0.8$ -->
      <defs>
       <path d="M 18.703125 36 
L 18.703125 35.90625 
C 12.5 34.09375 7.296875 30.6875 4.796875 24.84375 
C 2.203125 18.71875 4 11.28125 8.40625 6.453125 
C 13.09375 1.421875 19.5 -1 26.296875 -1 
C 36.296875 -1 45.90625 6.40625 47.09375 16.734375 
C 47.296875 18.265625 47.203125 19.890625 47 21.40625 
C 45.203125 29.21875 39.5 33.875 32.09375 35.90625 
C 32.90625 36.203125 33.796875 36.40625 34.59375 36.703125 
C 38.796875 38.421875 42.296875 40.921875 44.5 44.9375 
C 47.796875 51.375 44.59375 58.90625 39.203125 63.015625 
C 33.796875 67.140625 26.5 68.234375 19.90625 66.828125 
C 12 65.125 4.5 58.40625 5 49.765625 
C 5.203125 46.75 6.5 44.234375 8 42.4375 
C 10.296875 39.625 14.796875 36.609375 18.703125 36 
M 23.796875 62.5 
C 28.203125 62.5 33.703125 62 36.90625 58.578125 
C 40.703125 54.46875 40.90625 47.03125 37.09375 42.8125 
C 34.703125 40.203125 31.203125 38.890625 27.703125 38.59375 
C 22.796875 38.1875 17.203125 39 13.703125 42.8125 
C 9.796875 47.125 10.09375 54.96875 14.296875 58.984375 
C 16.90625 61.390625 20.40625 62.1875 23.796875 62.5 
M 23.703125 33.5 
C 28.40625 33.5 33.5 32.390625 36.90625 28.9375 
C 38.203125 27.53125 39.203125 25.8125 39.796875 24.015625 
C 41.5 18.75 40.703125 12.09375 36.796875 8.046875 
C 34.09375 5.328125 30.40625 4.3125 26.703125 4.015625 
C 22.203125 4.015625 17 5.109375 13.796875 8.5625 
C 9.40625 13.390625 8.5 23.40625 13.703125 29.0625 
C 16.296875 31.78125 20 33.203125 23.703125 33.5 
" id="Computer_Modern_Bright-56"/>
      </defs>
      <g style="fill:#262626;" transform="translate(154.679929 324.249603)scale(0.16 -0.16)">
       <use transform="scale(0.996264)" xlink:href="#Computer_Modern_Bright_Math_Symbols-0"/>
       <use transform="translate(77.487468 0)scale(0.996264)" xlink:href="#Computer_Modern_Bright-48"/>
       <use transform="translate(128.130685 0)scale(0.996264)" xlink:href="#Computer_Modern_Bright_Math_Slanted-58"/>
       <use transform="translate(157.188132 0)scale(0.996264)" xlink:href="#Computer_Modern_Bright-56"/>
      </g>
     </g>
    </g>
    <g id="xtick_3">
     <g id="line2d_3"/>
     <g id="text_3">
      <!-- $-0.6$ -->
      <defs>
       <path d="M 11.296875 32.625 
L 11.203125 32.625 
C 11.203125 41.765625 12.796875 52.421875 20.59375 58.25 
C 24.90625 61.375 30.703125 62.96875 38.203125 61.171875 
C 39.796875 60.765625 41.296875 60.15625 42.796875 59.765625 
L 42.796875 63.28125 
C 42.796875 63.671875 42.90625 64.375 42.59375 64.78125 
C 41.90625 65.6875 36.296875 66.59375 36.09375 66.59375 
C 27.40625 67.59375 21.703125 65.6875 16.40625 61.171875 
C 10 55.640625 6.296875 47.515625 5.09375 39.28125 
C 4 32.65625 4.90625 22 6.203125 16.78125 
C 8.296875 9.046875 12.296875 2.21875 19.703125 -0.390625 
C 24.09375 -2 29.5 -2 33.703125 0.015625 
C 37.09375 1.640625 39.90625 4.46875 42.09375 7.5 
C 45.59375 12.34375 46.5 18.21875 46.09375 24.171875 
C 45.90625 27.109375 45.5 30.046875 44.296875 32.765625 
C 42.40625 37.125 39.203125 41.671875 35.09375 43.6875 
C 33.203125 44.5 31.203125 44.5 29.203125 44.5 
C 23.90625 44.5 18.90625 42.1875 15.203125 38.359375 
C 13.59375 36.75 12 34.71875 11.296875 32.625 
M 24.40625 39.515625 
C 28.203125 39.8125 32.203125 39.21875 35.09375 36.5 
C 38.90625 32.890625 39.59375 27.765625 39.59375 22.8125 
C 39.59375 19.46875 39.703125 16.015625 38.703125 12.859375 
C 38.09375 11.234375 37.296875 9.828125 36.40625 8.5 
C 34.203125 5.5625 31.40625 4.125 26.796875 3.515625 
C 22.296875 3.515625 17.796875 5.3125 15.203125 9.125 
C 13.59375 11.328125 12.796875 14.046875 12.296875 16.640625 
C 11.703125 19.34375 11.296875 22.140625 11.5 24.859375 
C 12 31.984375 17 38.515625 24.40625 39.515625 
" id="Computer_Modern_Bright-54"/>
      </defs>
      <g style="fill:#262626;" transform="translate(231.186605 324.249603)scale(0.16 -0.16)">
       <use transform="scale(0.996264)" xlink:href="#Computer_Modern_Bright_Math_Symbols-0"/>
       <use transform="translate(77.487468 0)scale(0.996264)" xlink:href="#Computer_Modern_Bright-48"/>
       <use transform="translate(128.130685 0)scale(0.996264)" xlink:href="#Computer_Modern_Bright_Math_Slanted-58"/>
       <use transform="translate(157.188132 0)scale(0.996264)" xlink:href="#Computer_Modern_Bright-54"/>
      </g>
     </g>
    </g>
    <g id="xtick_4">
     <g id="line2d_4"/>
     <g id="text_4">
      <!-- $-0.4$ -->
      <defs>
       <path d="M 2.09375 18 
L 31 18 
L 31 0 
L 37.296875 0 
L 37.296875 18 
L 48.703125 18 
L 48.703125 23.328125 
L 37.296875 23.328125 
L 37.296875 66.46875 
L 31.90625 66.46875 
C 30.09375 66.46875 29.59375 66.578125 28.796875 65.0625 
C 24.796875 58.515625 3.703125 25.765625 3 24.859375 
C 2.203125 23.4375 2.09375 23.546875 2.09375 21.4375 
z
M 31.296875 60.875 
L 31.296875 23.328125 
L 8.59375 23.328125 
C 9.296875 24.734375 10.296875 26.03125 11.203125 27.4375 
C 16.203125 35.171875 28.09375 53.546875 30.59375 59.28125 
C 30.90625 59.78125 31 60.375 31.296875 60.875 
" id="Computer_Modern_Bright-52"/>
      </defs>
      <g style="fill:#262626;" transform="translate(307.693281 324.249603)scale(0.16 -0.16)">
       <use transform="scale(0.996264)" xlink:href="#Computer_Modern_Bright_Math_Symbols-0"/>
       <use transform="translate(77.487468 0)scale(0.996264)" xlink:href="#Computer_Modern_Bright-48"/>
       <use transform="translate(128.130685 0)scale(0.996264)" xlink:href="#Computer_Modern_Bright_Math_Slanted-58"/>
       <use transform="translate(157.188132 0)scale(0.996264)" xlink:href="#Computer_Modern_Bright-52"/>
      </g>
     </g>
    </g>
    <g id="xtick_5">
     <g id="line2d_5"/>
     <g id="text_5">
      <!-- $-0.2$ -->
      <defs>
       <path d="M 7.296875 45.96875 
C 8.703125 51.59375 11.09375 57.984375 16.796875 60.5 
C 19.203125 61.5 21.796875 61.703125 24.40625 61.5 
C 29.296875 61.09375 34.09375 59.09375 37.09375 55.09375 
C 39.296875 52.078125 40.09375 48.375 39.703125 44.78125 
C 38.5 34.34375 28.296875 26.84375 21.703125 21.234375 
C 17.90625 18.03125 7.09375 7.8125 7.09375 7.8125 
L 5.40625 6.203125 
C 4.5 5.3125 4.40625 5.3125 4.40625 3.5 
L 4.40625 0 
L 46.40625 0 
L 46.40625 5.625 
L 10.203125 5.625 
C 13.40625 8.734375 26.703125 20.515625 28.5 21.921875 
C 34.296875 26.65625 40.796875 31.375 44.296875 38.21875 
C 48.203125 46.0625 46.5 55.9375 39.90625 61.765625 
C 35.90625 65.296875 30.40625 67 25.09375 67 
C 20.203125 67 15.203125 66 11.296875 62.90625 
C 8.296875 60.390625 5.796875 56.6875 4.40625 52.875 
C 4.09375 52.28125 3.59375 51.28125 3.703125 50.578125 
C 3.796875 49.984375 4.40625 49.484375 4.703125 49.078125 
C 5.5 48.078125 6.296875 46.875 7.296875 45.96875 
" id="Computer_Modern_Bright-50"/>
      </defs>
      <g style="fill:#262626;" transform="translate(384.199957 324.249603)scale(0.16 -0.16)">
       <use transform="scale(0.996264)" xlink:href="#Computer_Modern_Bright_Math_Symbols-0"/>
       <use transform="translate(77.487468 0)scale(0.996264)" xlink:href="#Computer_Modern_Bright-48"/>
       <use transform="translate(128.130685 0)scale(0.996264)" xlink:href="#Computer_Modern_Bright_Math_Slanted-58"/>
       <use transform="translate(157.188132 0)scale(0.996264)" xlink:href="#Computer_Modern_Bright-50"/>
      </g>
     </g>
    </g>
    <g id="xtick_6">
     <g id="line2d_6"/>
     <g id="text_6">
      <!-- $0.0$ -->
      <g style="fill:#262626;" transform="translate(466.905631 324.249603)scale(0.16 -0.16)">
       <use transform="scale(0.996264)" xlink:href="#Computer_Modern_Bright-48"/>
       <use transform="translate(50.643218 0)scale(0.996264)" xlink:href="#Computer_Modern_Bright_Math_Slanted-58"/>
       <use transform="translate(79.700665 0)scale(0.996264)" xlink:href="#Computer_Modern_Bright-48"/>
      </g>
     </g>
    </g>
    <g id="text_7">
     <!-- Epistasis Coefficient -->
     <defs>
      <path d="M 8 69.328125 
L 8 0 
L 55.40625 0 
L 55.40625 5.625 
L 15 5.625 
L 15 33.671875 
L 51.09375 33.671875 
L 51.09375 39 
L 15 39 
L 15 64 
L 54 64 
L 54 69.328125 
z
" id="Computer_Modern_Bright-69"/>
      <path d="M 12.703125 40.53125 
L 12.703125 47.15625 
L 6.40625 47.15625 
L 6.40625 -17 
L 12.796875 -17 
L 12.796875 6.09375 
C 14.203125 4.078125 15.796875 2.28125 17.90625 1.078125 
C 25 -3.25 34 0.171875 38.90625 6.59375 
C 45.40625 14.96875 46.09375 27.5 41.59375 36.984375 
C 39 42.4375 34.09375 47.5 27.796875 48 
C 22.296875 48 18.09375 45.8125 15.09375 43.125 
C 14.203125 42.328125 13.5 41.4375 12.703125 40.53125 
M 21.90625 42.875 
C 26 43.171875 30 41.265625 32.796875 38.265625 
C 34.5 36.34375 35.796875 34.140625 36.59375 31.734375 
C 40.09375 22.296875 36.90625 9.234375 26.796875 5.328125 
C 21 3.109375 15.296875 5.125 13.09375 10.546875 
C 12.59375 11.546875 12.796875 12.859375 12.796875 13.953125 
L 12.796875 34.640625 
C 12.796875 36.953125 13 37.15625 14.5 38.859375 
C 16.296875 41.0625 19 42.578125 21.90625 42.875 
" id="Computer_Modern_Bright-112"/>
      <path d="M 6.40625 70 
L 6.40625 63.671875 
L 12.703125 63.671875 
L 12.703125 70 
z
M 6.40625 47.390625 
L 6.40625 0 
L 12.703125 0 
L 12.703125 47.390625 
z
" id="Computer_Modern_Bright-105"/>
      <path d="M 3.09375 9.640625 
C 2.90625 8.234375 2.59375 6.9375 2.40625 5.53125 
C 2.203125 4.421875 1.90625 3.921875 2.90625 3.421875 
C 7 1.015625 11.90625 -0.296875 17.703125 -0.796875 
C 24.203125 -1.40625 32.40625 0.109375 35.59375 6.53125 
C 36.5 8.34375 37 10.34375 37.09375 12.359375 
C 37.5 19.578125 31.796875 24.203125 26.90625 25.90625 
C 21.40625 28.015625 13.90625 27.3125 10.09375 31.53125 
C 8.09375 33.84375 8 37.265625 9.90625 39.671875 
C 13.90625 45.296875 26.796875 42.875 31.90625 40.375 
C 32.703125 39.96875 33.40625 39.46875 34.296875 39.265625 
L 35.203125 44.6875 
C 30.5 46.796875 26.40625 48 19.90625 48 
C 14.296875 48 9.203125 46.703125 6 43.484375 
C 2.796875 40.171875 1.703125 34.640625 3.59375 30.4375 
C 5.40625 26.40625 9.203125 23.796875 13.296875 22.5 
C 19.203125 20.390625 25.90625 21.390625 29.796875 16.578125 
C 32 13.765625 31.59375 9.546875 29.09375 7.03125 
C 24.296875 2.609375 14.09375 4.21875 8.5 6.625 
C 6.59375 7.4375 4.90625 8.640625 3.09375 9.640625 
" id="Computer_Modern_Bright-115"/>
      <path d="M 10.796875 60.5 
L 10.796875 47.015625 
L 1.09375 47.015625 
L 1.09375 42 
L 10.703125 42 
L 10.703125 15.015625 
C 10.703125 10.578125 10.40625 5.234375 13.296875 1.515625 
C 15 -0.703125 17.296875 -1.296875 20.796875 -1 
C 23.703125 -1 26.59375 -0.390625 29.296875 0.65625 
C 30.203125 1.0625 33.5 2.515625 33.90625 3.234375 
C 34.09375 3.640625 32.796875 8.09375 32.796875 8.09375 
L 30.40625 6.265625 
C 27.296875 4.34375 21.09375 2.328125 18.5 5.96875 
C 16.203125 9.09375 16.796875 13.75 16.796875 17.375 
L 16.796875 42 
L 32.296875 42 
L 32.296875 47.015625 
L 16.796875 47.015625 
L 16.796875 60.5 
z
" id="Computer_Modern_Bright-116"/>
      <path d="M 7.90625 39.015625 
C 9.59375 39.859375 11 41.09375 12.703125 41.921875 
C 15.40625 43.15625 18.203125 44 21.203125 44 
C 22.59375 44.09375 24.203125 44.296875 25.59375 44 
C 28.09375 43.59375 30.296875 42.078125 31.796875 39.953125 
C 33.296875 37.515625 33.90625 35.390625 33.90625 31.46875 
L 33.90625 27.015625 
C 29.09375 27.015625 24.296875 26.609375 19.703125 25.390625 
C 13.90625 24.078125 7.59375 21.125 5.5 15.84375 
C 3.40625 10.78125 5.59375 4.078125 10.09375 1.03125 
C 12.296875 -0.5 14.90625 -0.5 17.5 -0.296875 
C 21.703125 0 25.90625 1.015625 29.5 3.25 
C 31.203125 4.25 32.90625 5.578125 33.90625 7.296875 
L 34 7.296875 
L 34 0.203125 
L 40.296875 0.203125 
L 40.296875 26.890625 
C 40.296875 29.8125 40.59375 32.953125 40 35.890625 
C 39.40625 39.921875 36.90625 43.265625 34 45.59375 
C 30.59375 48.21875 26.703125 49.109375 21.5 48.71875 
C 16.703125 48.71875 13 47.5 9.40625 45.765625 
C 8.90625 45.5625 7.90625 45.234375 7.59375 44.640625 
C 7.296875 44.21875 7.5 43.515625 7.5 43 
C 7.703125 41.671875 7.796875 40.34375 7.90625 39.015625 
M 33.90625 24 
L 33.90625 16.375 
C 33.90625 14.0625 34 11.953125 32.703125 9.953125 
C 31.59375 8.34375 30.09375 7.234375 28.5 6.4375 
C 22.796875 3.515625 14.09375 4.421875 11.59375 9.25 
C 9.59375 12.75 11.703125 16.875 14.59375 19.1875 
C 18.90625 22.5 27.296875 24 33.90625 24 
" id="Computer_Modern_Bright-97"/>
      <path d="M 60.5 10.875 
C 58.5 9.859375 56.703125 8.453125 54.703125 7.453125 
C 50 5.046875 44 4.140625 37.5 4.734375 
C 31.703125 5.546875 26.90625 8.359375 23.40625 11.875 
C 12.203125 23.15625 11.40625 42.96875 21.296875 55.34375 
C 25.5 60.875 31.90625 65 41.296875 65 
C 45.09375 65 49 64.296875 52.5 62.890625 
C 54.59375 61.96875 56.59375 60.765625 58.59375 59.765625 
L 59.796875 66.8125 
C 57.59375 67.671875 55.296875 68.5625 53 69.09375 
C 47.40625 70.625 38.90625 70.625 33.09375 69.21875 
C 22.90625 66.921875 15.5 59.828125 11.296875 51.625 
C 5.5 40.015625 6.203125 25.515625 13.203125 14.59375 
C 15 11.703125 17.296875 9.109375 19.90625 6.890625 
C 25.90625 1.6875 33.296875 -1.3125 43.59375 -0.5 
C 49.796875 -0.5 53.40625 0.515625 58.203125 3.203125 
C 58.703125 3.5 60.59375 4.515625 60.90625 4.9375 
C 61.09375 5.4375 60.59375 9.53125 60.5 10.875 
" id="Computer_Modern_Bright-67"/>
      <path d="M 10.703125 42.078125 
C 1.796875 33.234375 0.796875 17.875 8.5 7.9375 
C 9.59375 6.421875 10.90625 5.125 12.40625 4.015625 
C 16.09375 1 21.5 -1.203125 27.796875 -0.5 
C 37.796875 0.703125 44.703125 8.84375 46.796875 17.375 
C 49.59375 29.328125 43.703125 42.671875 32.703125 46.890625 
C 24.09375 50.40625 15.5 46.890625 10.703125 42.078125 
M 35.703125 39.359375 
C 40.5 35.03125 41.40625 28.109375 41 21.984375 
C 40.703125 17.265625 39.40625 12.34375 36.09375 8.828125 
C 30.703125 3 20.703125 3 14.90625 8.625 
C 11.90625 11.84375 10.09375 16.453125 9.796875 21.984375 
C 9.296875 30.109375 11.296875 38.75 19.296875 41.96875 
C 25.203125 44.578125 32 42.671875 35.703125 39.359375 
" id="Computer_Modern_Bright-111"/>
      <path d="M 41.796875 10.9375 
C 39.5 9.234375 38.796875 8.328125 35.90625 6.8125 
C 29.796875 3.5 22.59375 3.5 17.40625 7.171875 
C 12.40625 10.765625 9.5 16.640625 9.5 25 
L 42.5 25 
C 42.5 32.421875 40.796875 38.859375 36.59375 43.375 
C 32 47.890625 24.796875 49.296875 18.703125 47.390625 
C 16.40625 46.6875 14.296875 45.484375 12.40625 43.96875 
C 6.09375 38.859375 3.40625 30.71875 3.5 22.78125 
C 3.703125 12.34375 10.796875 1.90625 21.296875 -0.3125 
C 26.796875 -1.421875 32.59375 -0.203125 37.5 2.296875 
C 38.40625 2.796875 41.703125 4.609375 42.09375 5.515625 
C 42.40625 6.015625 41.796875 10.9375 41.796875 10.9375 
M 37.203125 28.90625 
L 10 28.90625 
C 11.203125 36.234375 17.203125 43.96875 25.296875 43.0625 
C 31.90625 42.46875 35.40625 37.75 36.703125 31.828125 
C 36.90625 30.8125 37 29.921875 37.203125 28.90625 
" id="Computer_Modern_Bright-101"/>
      <path d="M 10.59375 47.015625 
L 2 47.015625 
L 2 42 
L 10.59375 42 
L 10.59375 0 
L 16.90625 0 
L 16.90625 42 
L 30.09375 42 
L 30.09375 47.015625 
L 16.796875 47.015625 
L 16.796875 56.234375 
C 16.796875 57.890625 16.59375 59.65625 17.296875 61.21875 
C 19.5 65.875 25.40625 65.875 29.59375 65.078125 
C 30.59375 64.875 31.703125 64.46875 32.703125 64.265625 
L 32.703125 69.90625 
C 27.703125 70.609375 22.296875 71.21875 17.703125 68.46875 
C 15.796875 67.4375 14.203125 65.6875 13 63.921875 
C 11.09375 60.9375 10.59375 58.78125 10.59375 53.71875 
z
M 38.09375 0 
L 44.40625 0 
L 44.40625 42 
L 57.59375 42 
L 57.59375 47.015625 
L 44.296875 47.015625 
L 44.296875 55.234375 
C 44.296875 56.890625 44.09375 58.65625 44.40625 60.328125 
C 44.90625 62.296875 46.09375 63.65625 47.703125 64.671875 
C 50.796875 66.171875 54.40625 65.078125 57.59375 64.171875 
L 57.59375 70 
C 55.09375 70.1875 52.703125 70.6875 50.203125 70.5 
C 43.40625 70 38.59375 64.046875 38.09375 57.3125 
C 38 55.890625 38.09375 54.375 38.09375 52.96875 
z
M 65.59375 70 
L 65.59375 63.671875 
L 71.90625 63.671875 
L 71.90625 70 
z
M 65.59375 47.390625 
L 65.59375 0 
L 71.90625 0 
L 71.90625 47.390625 
z
" id="Computer_Modern_Bright-14"/>
      <path d="M 42.40625 11.25 
C 40.5 9.84375 38.796875 8.328125 36.703125 7.125 
C 32 4.625 24.796875 3.421875 19.40625 5.921875 
C 11.59375 9.9375 9.5 19.6875 10.59375 27.71875 
C 10.796875 29.328125 11.09375 30.921875 11.59375 32.4375 
C 13.796875 38.96875 19.296875 44.078125 28.296875 43.078125 
C 33.09375 42.671875 35.5 41.875 39.296875 39.765625 
C 40 39.359375 40.59375 38.859375 41.40625 38.65625 
C 41.5 39.859375 41.796875 41.171875 42 42.375 
C 42.296875 43.984375 42.296875 44.1875 40.796875 44.890625 
C 39.703125 45.390625 38.59375 45.984375 37.40625 46.390625 
C 32.796875 48.40625 25.203125 49 20 47.5 
C 12.90625 45.484375 7.59375 39.359375 5.296875 32.53125 
C 4.203125 29.421875 3.90625 26.109375 3.90625 22.796875 
C 4 12.25 11.203125 1.90625 21.703125 -0.203125 
C 27.5 -1.40625 34.203125 0.296875 38.203125 2.40625 
C 39.203125 2.90625 42.203125 4.71875 42.703125 5.625 
C 43 6.125 42.40625 11.25 42.40625 11.25 
" id="Computer_Modern_Bright-99"/>
      <path d="M 12.59375 37.28125 
L 12.5 37.28125 
L 12.5 47.390625 
L 6.40625 47.390625 
L 6.40625 0 
L 12.796875 0 
L 12.796875 21.9375 
C 12.796875 26.84375 12.5 31.875 14.703125 36.46875 
C 15.796875 38.78125 17.5 40.78125 19.796875 41.984375 
C 21.703125 42.890625 23.703125 42.890625 25.796875 42.6875 
C 28.796875 42.6875 31.703125 41.890625 33.59375 39.375 
C 35.40625 37.0625 35.5 34.0625 35.5 31.25 
L 35.5 0 
L 41.90625 0 
L 41.90625 26.859375 
C 41.90625 31.875 42.40625 37.375 40 41.890625 
C 38.09375 45.5 34.40625 47.203125 30.5 47.703125 
C 28.5 48 26.40625 48 24.40625 47.609375 
C 19.203125 46.5 14.40625 42.296875 12.59375 37.28125 
" id="Computer_Modern_Bright-110"/>
     </defs>
     <g style="fill:#262626;" transform="translate(209.391423 343.359582)scale(0.18 -0.18)">
      <use transform="scale(0.996264)" xlink:href="#Computer_Modern_Bright-69"/>
      <use transform="translate(58.737787 0)scale(0.996264)" xlink:href="#Computer_Modern_Bright-112"/>
      <use transform="translate(106.890284 0)scale(0.996264)" xlink:href="#Computer_Modern_Bright-105"/>
      <use transform="translate(125.985243 0)scale(0.996264)" xlink:href="#Computer_Modern_Bright-115"/>
      <use transform="translate(164.424272 0)scale(0.996264)" xlink:href="#Computer_Modern_Bright-116"/>
      <use transform="translate(200.53866 0)scale(0.996264)" xlink:href="#Computer_Modern_Bright-97"/>
      <use transform="translate(247.030742 0)scale(0.996264)" xlink:href="#Computer_Modern_Bright-115"/>
      <use transform="translate(285.469772 0)scale(0.996264)" xlink:href="#Computer_Modern_Bright-105"/>
      <use transform="translate(304.56473 0)scale(0.996264)" xlink:href="#Computer_Modern_Bright-115"/>
      <use transform="translate(374.468971 0)scale(0.996264)" xlink:href="#Computer_Modern_Bright-67"/>
      <use transform="translate(439.641004 0)scale(0.996264)" xlink:href="#Computer_Modern_Bright-111"/>
      <use transform="translate(490.284222 0)scale(0.996264)" xlink:href="#Computer_Modern_Bright-101"/>
      <use transform="translate(535.115889 0)scale(0.996264)" xlink:href="#Computer_Modern_Bright-14"/>
      <use transform="translate(613.156322 0)scale(0.996264)" xlink:href="#Computer_Modern_Bright-99"/>
      <use transform="translate(657.987989 0)scale(0.996264)" xlink:href="#Computer_Modern_Bright-105"/>
      <use transform="translate(677.082948 0)scale(0.996264)" xlink:href="#Computer_Modern_Bright-101"/>
      <use transform="translate(721.914616 0)scale(0.996264)" xlink:href="#Computer_Modern_Bright-110"/>
      <use transform="translate(770.067113 0)scale(0.996264)" xlink:href="#Computer_Modern_Bright-116"/>
     </g>
    </g>
   </g>
   <g id="matplotlib.axis_2">
    <g id="ytick_1">
     <g id="line2d_7"/>
     <g id="text_8">
      <!-- $0$ -->
      <g style="fill:#262626;" transform="translate(43.379163 298.124802)scale(0.16 -0.16)">
       <use transform="scale(0.996264)" xlink:href="#Computer_Modern_Bright-48"/>
      </g>
     </g>
    </g>
    <g id="ytick_2">
     <g id="line2d_8"/>
     <g id="text_9">
      <!-- $20$ -->
      <g style="fill:#262626;" transform="translate(35.010613 242.880947)scale(0.16 -0.16)">
       <use transform="scale(0.996264)" xlink:href="#Computer_Modern_Bright-50"/>
       <use transform="translate(50.643218 0)scale(0.996264)" xlink:href="#Computer_Modern_Bright-48"/>
      </g>
     </g>
    </g>
    <g id="ytick_3">
     <g id="line2d_9"/>
     <g id="text_10">
      <!-- $40$ -->
      <g style="fill:#262626;" transform="translate(35.010613 187.637092)scale(0.16 -0.16)">
       <use transform="scale(0.996264)" xlink:href="#Computer_Modern_Bright-52"/>
       <use transform="translate(50.643218 0)scale(0.996264)" xlink:href="#Computer_Modern_Bright-48"/>
      </g>
     </g>
    </g>
    <g id="ytick_4">
     <g id="line2d_10"/>
     <g id="text_11">
      <!-- $60$ -->
      <g style="fill:#262626;" transform="translate(35.010613 132.393237)scale(0.16 -0.16)">
       <use transform="scale(0.996264)" xlink:href="#Computer_Modern_Bright-54"/>
       <use transform="translate(50.643218 0)scale(0.996264)" xlink:href="#Computer_Modern_Bright-48"/>
      </g>
     </g>
    </g>
    <g id="ytick_5">
     <g id="line2d_11"/>
     <g id="text_12">
      <!-- $80$ -->
      <g style="fill:#262626;" transform="translate(35.010613 77.149382)scale(0.16 -0.16)">
       <use transform="scale(0.996264)" xlink:href="#Computer_Modern_Bright-56"/>
       <use transform="translate(50.643218 0)scale(0.996264)" xlink:href="#Computer_Modern_Bright-48"/>
      </g>
     </g>
    </g>
    <g id="ytick_6">
     <g id="line2d_12"/>
     <g id="text_13">
      <!-- $100$ -->
      <g style="fill:#262626;" transform="translate(26.642062 21.905527)scale(0.16 -0.16)">
       <use transform="scale(0.996264)" xlink:href="#Computer_Modern_Bright-49"/>
       <use transform="translate(50.643218 0)scale(0.996264)" xlink:href="#Computer_Modern_Bright-48"/>
       <use transform="translate(101.286436 0)scale(0.996264)" xlink:href="#Computer_Modern_Bright-48"/>
      </g>
     </g>
    </g>
    <g id="text_14">
     <!-- Probability Density -->
     <defs>
      <path d="M 8 70 
L 8 0.5 
L 15 0.5 
L 15 30 
L 29.09375 30 
C 31.296875 30 33.5 30 35.59375 30 
C 43 30.609375 49.203125 33.640625 53.40625 38.171875 
C 57.703125 42.90625 59.59375 50.15625 56.796875 56.296875 
C 53.59375 64.046875 46 68.984375 36.296875 70 
C 33.40625 70 30.40625 70 27.5 70 
z
M 14.90625 35.21875 
L 14.90625 64.671875 
L 28.59375 64.671875 
C 37.296875 64.671875 45.203125 63.671875 49.203125 57.65625 
C 51.90625 53.625 52.296875 48 50.09375 43.671875 
C 48.90625 41.34375 47.09375 39.546875 44.90625 38.234375 
C 40 35.21875 34.296875 35.21875 28.796875 35.21875 
z
" id="Computer_Modern_Bright-80"/>
      <path d="M 12.5 34.75 
L 12.40625 34.75 
L 12.40625 47.390625 
L 6.40625 47.390625 
L 6.40625 0 
L 12.703125 0 
L 12.703125 22.890625 
C 12.703125 24.40625 12.703125 25.90625 12.90625 27.40625 
C 14.296875 35.953125 21.703125 42.28125 31.40625 42.28125 
L 31.40625 48 
C 25 48 19.09375 44.890625 15.296875 39.765625 
C 14.203125 38.265625 13 36.546875 12.5 34.75 
" id="Computer_Modern_Bright-114"/>
      <path d="M 6.40625 69.6875 
L 6.40625 0 
L 12.796875 0 
L 12.796875 6.328125 
L 12.90625 6.328125 
C 14 4.109375 16.5 2.015625 18.59375 0.90625 
C 25.796875 -2.90625 34.40625 0.90625 39.09375 7.03125 
C 48.59375 19.578125 44.796875 40.875 32.296875 46.796875 
C 27.40625 49 21.5 48 17.09375 44.984375 
C 15.40625 43.78125 14 42.375 12.703125 40.765625 
L 12.703125 69.6875 
z
M 21.90625 42.984375 
C 26.59375 43.375 31.5 41.265625 34.296875 37.453125 
C 36.203125 34.9375 37.203125 31.9375 37.703125 28.8125 
C 38.703125 21.484375 37.90625 12.25 31.40625 7.4375 
C 30.296875 6.625 29.09375 6.03125 27.796875 5.515625 
C 22.40625 3.515625 17 4.109375 14 8.84375 
C 13.09375 10.4375 12.796875 10.546875 12.796875 12.953125 
L 12.796875 33.734375 
C 12.796875 34.75 12.59375 35.953125 13 36.859375 
C 14.59375 40.171875 18.296875 42.671875 21.90625 42.984375 
" id="Computer_Modern_Bright-98"/>
      <path d="M 6.40625 69.6875 
L 6.40625 0 
L 12.703125 0 
L 12.703125 69.6875 
z
" id="Computer_Modern_Bright-108"/>
      <path d="M 0.703125 47.65625 
C 1.296875 45.75 5.40625 35.609375 5.5 35.3125 
L 17.40625 4.578125 
L 18.40625 2.078125 
C 19 0.671875 19.203125 0.46875 18.59375 -1.140625 
L 17.5 -4.046875 
C 16.59375 -6.46875 15.59375 -8.96875 13.703125 -10.484375 
C 10.296875 -13.296875 4.90625 -11.6875 0.796875 -10.78125 
L 1.296875 -16.5 
C 3.203125 -16.796875 5.09375 -17 7 -17 
C 11.296875 -17.515625 14.09375 -16.5 16.703125 -14.296875 
C 20 -11.484375 21.59375 -7.5625 23.09375 -3.546875 
L 26.203125 5.078125 
L 36.40625 32.90625 
C 38.09375 37.921875 40.203125 42.640625 41.796875 47.65625 
L 37.296875 47.65625 
C 36.796875 47.65625 36 47.859375 35.59375 47.46875 
C 35.40625 47.15625 35.296875 46.765625 35.203125 46.453125 
L 34.40625 44.34375 
C 33.40625 41.734375 32.5 39.234375 31.59375 36.609375 
L 25.796875 20.25 
C 24.296875 15.828125 22.59375 11.3125 21.796875 6.6875 
C 20.703125 11.3125 19.203125 15.734375 17.59375 20.140625 
C 16.296875 23.5625 8.5 44.546875 7.5 46.5625 
C 7.09375 47.65625 6.703125 47.65625 5.203125 47.65625 
z
" id="Computer_Modern_Bright-121"/>
      <path d="M 8 70 
L 8 0 
L 28.203125 0 
C 31.40625 0 34.59375 0 37.703125 0.296875 
C 45.703125 1.109375 52.59375 5.015625 57.203125 9.828125 
C 70.09375 23.171875 70 46.125 57.296875 59.671875 
C 52.703125 64.578125 46.5 68.5 38.703125 69.5 
C 34.90625 70 31 70 27.203125 70 
z
M 14.90625 5.3125 
L 14.90625 64.5625 
L 27.796875 64.5625 
C 30.5 64.5625 33.203125 64.5625 35.90625 64.359375 
C 40.40625 63.859375 44.796875 62.359375 48.5 59.734375 
C 56.59375 54.125 60 44.171875 60 34.640625 
C 60 26.609375 57.796875 18.375 51.90625 12.640625 
C 47.90625 8.9375 42.5 6.21875 36 5.515625 
C 33.40625 5.3125 30.703125 5.3125 28.09375 5.3125 
z
" id="Computer_Modern_Bright-68"/>
     </defs>
     <g style="fill:#262626;" transform="translate(19.65327 224.213938)rotate(-90)scale(0.18 -0.18)">
      <use transform="scale(0.996264)" xlink:href="#Computer_Modern_Bright-80"/>
      <use transform="translate(62.888907 0)scale(0.996264)" xlink:href="#Computer_Modern_Bright-114"/>
      <use transform="translate(94.852266 0)scale(0.996264)" xlink:href="#Computer_Modern_Bright-111"/>
      <use transform="translate(145.495484 0)scale(0.996264)" xlink:href="#Computer_Modern_Bright-98"/>
      <use transform="translate(193.647981 0)scale(0.996264)" xlink:href="#Computer_Modern_Bright-97"/>
      <use transform="translate(240.140063 0)scale(0.996264)" xlink:href="#Computer_Modern_Bright-98"/>
      <use transform="translate(288.29256 0)scale(0.996264)" xlink:href="#Computer_Modern_Bright-105"/>
      <use transform="translate(307.387519 0)scale(0.996264)" xlink:href="#Computer_Modern_Bright-108"/>
      <use transform="translate(326.482478 0)scale(0.996264)" xlink:href="#Computer_Modern_Bright-105"/>
      <use transform="translate(345.577437 0)scale(0.996264)" xlink:href="#Computer_Modern_Bright-116"/>
      <use transform="translate(378.786095 0)scale(0.996264)" xlink:href="#Computer_Modern_Bright-121"/>
      <use transform="translate(452.592345 0)scale(0.996264)" xlink:href="#Computer_Modern_Bright-68"/>
      <use transform="translate(524.198532 0)scale(0.996264)" xlink:href="#Computer_Modern_Bright-101"/>
      <use transform="translate(569.030199 0)scale(0.996264)" xlink:href="#Computer_Modern_Bright-110"/>
      <use transform="translate(617.182696 0)scale(0.996264)" xlink:href="#Computer_Modern_Bright-115"/>
      <use transform="translate(655.621726 0)scale(0.996264)" xlink:href="#Computer_Modern_Bright-105"/>
      <use transform="translate(674.716684 0)scale(0.996264)" xlink:href="#Computer_Modern_Bright-116"/>
      <use transform="translate(707.925343 0)scale(0.996264)" xlink:href="#Computer_Modern_Bright-121"/>
     </g>
    </g>
   </g>
   <g id="PolyCollection_1">
    <path clip-path="url(#p354e2e12f1)" d="M 79.038623 292.582016 
L 79.038623 292.59 
L 79.307258 292.59 
L 79.575893 292.59 
L 79.844528 292.59 
L 80.113162 292.59 
L 80.381797 292.59 
L 80.650432 292.59 
L 80.919067 292.59 
L 81.187702 292.59 
L 81.456336 292.59 
L 81.724971 292.59 
L 81.993606 292.59 
L 82.262241 292.59 
L 82.530875 292.59 
L 82.79951 292.59 
L 83.068145 292.59 
L 83.33678 292.59 
L 83.605415 292.59 
L 83.874049 292.59 
L 84.142684 292.59 
L 84.411319 292.59 
L 84.679954 292.59 
L 84.948589 292.59 
L 85.217223 292.59 
L 85.485858 292.59 
L 85.754493 292.59 
L 86.023128 292.59 
L 86.291763 292.59 
L 86.560397 292.59 
L 86.829032 292.59 
L 87.097667 292.59 
L 87.366302 292.59 
L 87.634936 292.59 
L 87.903571 292.59 
L 88.172206 292.59 
L 88.440841 292.59 
L 88.709476 292.59 
L 88.97811 292.59 
L 89.246745 292.59 
L 89.51538 292.59 
L 89.784015 292.59 
L 90.05265 292.59 
L 90.321284 292.59 
L 90.589919 292.59 
L 90.858554 292.59 
L 91.127189 292.59 
L 91.395824 292.59 
L 91.664458 292.59 
L 91.933093 292.59 
L 92.201728 292.59 
L 92.470363 292.59 
L 92.738997 292.59 
L 93.007632 292.59 
L 93.276267 292.59 
L 93.544902 292.59 
L 93.813537 292.59 
L 94.082171 292.59 
L 94.350806 292.59 
L 94.619441 292.59 
L 94.888076 292.59 
L 95.156711 292.59 
L 95.425345 292.59 
L 95.69398 292.59 
L 95.962615 292.59 
L 96.23125 292.59 
L 96.499885 292.59 
L 96.768519 292.59 
L 97.037154 292.59 
L 97.305789 292.59 
L 97.574424 292.59 
L 97.843058 292.59 
L 98.111693 292.59 
L 98.380328 292.59 
L 98.648963 292.59 
L 98.917598 292.59 
L 99.186232 292.59 
L 99.454867 292.59 
L 99.723502 292.59 
L 99.992137 292.59 
L 100.260772 292.59 
L 100.529406 292.59 
L 100.798041 292.59 
L 101.066676 292.59 
L 101.335311 292.59 
L 101.603946 292.59 
L 101.87258 292.59 
L 102.141215 292.59 
L 102.40985 292.59 
L 102.678485 292.59 
L 102.947119 292.59 
L 103.215754 292.59 
L 103.484389 292.59 
L 103.753024 292.59 
L 104.021659 292.59 
L 104.290293 292.59 
L 104.558928 292.59 
L 104.827563 292.59 
L 105.096198 292.59 
L 105.364833 292.59 
L 105.633467 292.59 
L 105.902102 292.59 
L 106.170737 292.59 
L 106.439372 292.59 
L 106.708007 292.59 
L 106.976641 292.59 
L 107.245276 292.59 
L 107.513911 292.59 
L 107.782546 292.59 
L 108.051181 292.59 
L 108.319815 292.59 
L 108.58845 292.59 
L 108.857085 292.59 
L 109.12572 292.59 
L 109.394354 292.59 
L 109.662989 292.59 
L 109.931624 292.59 
L 110.200259 292.59 
L 110.468894 292.59 
L 110.737528 292.59 
L 111.006163 292.59 
L 111.274798 292.59 
L 111.543433 292.59 
L 111.812068 292.59 
L 112.080702 292.59 
L 112.349337 292.59 
L 112.617972 292.59 
L 112.886607 292.59 
L 113.155242 292.59 
L 113.155242 292.58265 
L 113.155242 292.58265 
L 112.886607 292.579162 
L 112.617972 292.570754 
L 112.349337 292.555654 
L 112.080702 292.531467 
L 111.812068 292.49574 
L 111.543433 292.446743 
L 111.274798 292.384296 
L 111.006163 292.310396 
L 110.737528 292.229308 
L 110.468894 292.146988 
L 110.200259 292.069923 
L 109.931624 292.003746 
L 109.662989 291.952043 
L 109.394354 291.915623 
L 109.12572 291.892283 
L 108.857085 291.87691 
L 108.58845 291.861839 
L 108.319815 291.837445 
L 108.051181 291.793021 
L 107.782546 291.717759 
L 107.513911 291.601353 
L 107.245276 291.433657 
L 106.976641 291.203235 
L 106.708007 290.895442 
L 106.439372 290.491506 
L 106.170737 289.970271 
L 105.902102 289.31335 
L 105.633467 288.512697 
L 105.364833 287.577618 
L 105.096198 286.53738 
L 104.827563 285.436551 
L 104.558928 284.322994 
L 104.290293 283.231894 
L 104.021659 282.171511 
L 103.753024 281.116314 
L 103.484389 280.010469 
L 103.215754 278.780685 
L 102.947119 277.353732 
L 102.678485 275.672311 
L 102.40985 273.703835 
L 102.141215 271.439701 
L 101.87258 268.886504 
L 101.603946 266.053809 
L 101.335311 262.944346 
L 101.066676 259.551242 
L 100.798041 255.863766 
L 100.529406 251.879247 
L 100.260772 247.615963 
L 99.992137 243.121035 
L 99.723502 238.469141 
L 99.454867 233.751519 
L 99.186232 229.058801 
L 98.917598 224.463991 
L 98.648963 220.012049 
L 98.380328 215.719783 
L 98.111693 211.585424 
L 97.843058 207.603234 
L 97.574424 203.776842 
L 97.305789 200.126699 
L 97.037154 196.691025 
L 96.768519 193.523739 
L 96.499885 190.694171 
L 96.23125 188.29054 
L 95.962615 186.423693 
L 95.69398 185.223299 
L 95.425345 184.819519 
L 95.156711 185.310137 
L 94.888076 186.722742 
L 94.619441 188.987631 
L 94.350806 191.935337 
L 94.082171 195.323308 
L 93.813537 198.88446 
L 93.544902 202.382328 
L 93.276267 205.656623 
L 93.007632 208.64803 
L 92.738997 211.398227 
L 92.470363 214.02733 
L 92.201728 216.695224 
L 91.933093 219.556241 
L 91.664458 222.718411 
L 91.395824 226.217952 
L 91.127189 230.015484 
L 90.858554 234.013159 
L 90.589919 238.084449 
L 90.321284 242.104626 
L 90.05265 245.972017 
L 89.784015 249.616621 
L 89.51538 252.999429 
L 89.246745 256.108832 
L 88.97811 258.9585 
L 88.709476 261.586466 
L 88.440841 264.051485 
L 88.172206 266.423009 
L 87.903571 268.764771 
L 87.634936 271.11656 
L 87.366302 273.48106 
L 87.097667 275.821427 
L 86.829032 278.071191 
L 86.560397 280.153436 
L 86.291763 282.002893 
L 86.023128 283.583781 
L 85.754493 284.897871 
L 85.485858 285.98069 
L 85.217223 286.887849 
L 84.948589 287.676782 
L 84.679954 288.390557 
L 84.411319 289.049198 
L 84.142684 289.650674 
L 83.874049 290.179792 
L 83.605415 290.620415 
L 83.33678 290.965739 
L 83.068145 291.222999 
L 82.79951 291.41175 
L 82.530875 291.557543 
L 82.262241 291.684261 
L 81.993606 291.808241 
L 81.724971 291.935965 
L 81.456336 292.065358 
L 81.187702 292.189382 
L 80.919067 292.300106 
L 80.650432 292.391757 
L 80.381797 292.46209 
L 80.113162 292.512186 
L 79.844528 292.545324 
L 79.575893 292.565614 
L 79.307258 292.576885 
L 79.038623 292.582016 
z
" style="fill:#e31a1c;fill-opacity:0.25;"/>
   </g>
   <g id="PolyCollection_2">
    <path clip-path="url(#p354e2e12f1)" d="M 310.434546 292.563307 
L 310.434546 292.59 
L 310.565436 292.59 
L 310.696326 292.59 
L 310.827216 292.59 
L 310.958106 292.59 
L 311.088996 292.59 
L 311.219886 292.59 
L 311.350777 292.59 
L 311.481667 292.59 
L 311.612557 292.59 
L 311.743447 292.59 
L 311.874337 292.59 
L 312.005227 292.59 
L 312.136117 292.59 
L 312.267007 292.59 
L 312.397898 292.59 
L 312.528788 292.59 
L 312.659678 292.59 
L 312.790568 292.59 
L 312.921458 292.59 
L 313.052348 292.59 
L 313.183238 292.59 
L 313.314129 292.59 
L 313.445019 292.59 
L 313.575909 292.59 
L 313.706799 292.59 
L 313.837689 292.59 
L 313.968579 292.59 
L 314.099469 292.59 
L 314.230359 292.59 
L 314.36125 292.59 
L 314.49214 292.59 
L 314.62303 292.59 
L 314.75392 292.59 
L 314.88481 292.59 
L 315.0157 292.59 
L 315.14659 292.59 
L 315.277481 292.59 
L 315.408371 292.59 
L 315.539261 292.59 
L 315.670151 292.59 
L 315.801041 292.59 
L 315.931931 292.59 
L 316.062821 292.59 
L 316.193711 292.59 
L 316.324602 292.59 
L 316.455492 292.59 
L 316.586382 292.59 
L 316.717272 292.59 
L 316.848162 292.59 
L 316.979052 292.59 
L 317.109942 292.59 
L 317.240833 292.59 
L 317.371723 292.59 
L 317.502613 292.59 
L 317.633503 292.59 
L 317.764393 292.59 
L 317.895283 292.59 
L 318.026173 292.59 
L 318.157063 292.59 
L 318.287954 292.59 
L 318.418844 292.59 
L 318.549734 292.59 
L 318.680624 292.59 
L 318.811514 292.59 
L 318.942404 292.59 
L 319.073294 292.59 
L 319.204185 292.59 
L 319.335075 292.59 
L 319.465965 292.59 
L 319.596855 292.59 
L 319.727745 292.59 
L 319.858635 292.59 
L 319.989525 292.59 
L 320.120416 292.59 
L 320.251306 292.59 
L 320.382196 292.59 
L 320.513086 292.59 
L 320.643976 292.59 
L 320.774866 292.59 
L 320.905756 292.59 
L 321.036646 292.59 
L 321.167537 292.59 
L 321.298427 292.59 
L 321.429317 292.59 
L 321.560207 292.59 
L 321.691097 292.59 
L 321.821987 292.59 
L 321.952877 292.59 
L 322.083768 292.59 
L 322.214658 292.59 
L 322.345548 292.59 
L 322.476438 292.59 
L 322.607328 292.59 
L 322.738218 292.59 
L 322.869108 292.59 
L 322.999998 292.59 
L 323.130889 292.59 
L 323.261779 292.59 
L 323.392669 292.59 
L 323.523559 292.59 
L 323.654449 292.59 
L 323.785339 292.59 
L 323.916229 292.59 
L 324.04712 292.59 
L 324.17801 292.59 
L 324.3089 292.59 
L 324.43979 292.59 
L 324.57068 292.59 
L 324.70157 292.59 
L 324.83246 292.59 
L 324.96335 292.59 
L 325.094241 292.59 
L 325.225131 292.59 
L 325.356021 292.59 
L 325.486911 292.59 
L 325.617801 292.59 
L 325.748691 292.59 
L 325.879581 292.59 
L 326.010472 292.59 
L 326.141362 292.59 
L 326.272252 292.59 
L 326.403142 292.59 
L 326.534032 292.59 
L 326.664922 292.59 
L 326.795812 292.59 
L 326.926702 292.59 
L 327.057593 292.59 
L 327.057593 292.570588 
L 327.057593 292.570588 
L 326.926702 292.567014 
L 326.795812 292.553029 
L 326.664922 292.526697 
L 326.534032 292.484782 
L 326.403142 292.424065 
L 326.272252 292.342954 
L 326.141362 292.243127 
L 326.010472 292.130709 
L 325.879581 292.016338 
L 325.748691 291.913635 
L 325.617801 291.83608 
L 325.486911 291.792942 
L 325.356021 291.785332 
L 325.225131 291.803571 
L 325.094241 291.826638 
L 324.96335 291.823852 
L 324.83246 291.7584 
L 324.70157 291.592093 
L 324.57068 291.290782 
L 324.43979 290.829975 
L 324.3089 290.200135 
L 324.17801 289.410795 
L 324.04712 288.492264 
L 323.916229 287.493555 
L 323.785339 286.475595 
L 323.654449 285.4998 
L 323.523559 284.613698 
L 323.392669 283.836848 
L 323.261779 283.151241 
L 323.130889 282.499866 
L 322.999998 281.794916 
L 322.869108 280.933817 
L 322.738218 279.818219 
L 322.607328 278.369863 
L 322.476438 276.538678 
L 322.345548 274.301928 
L 322.214658 271.657086 
L 322.083768 268.613329 
L 321.952877 265.186187 
L 321.821987 261.397221 
L 321.691097 257.277364 
L 321.560207 252.870286 
L 321.429317 248.232137 
L 321.298427 243.425775 
L 321.167537 238.510241 
L 321.036646 233.528205 
L 320.905756 228.494854 
L 320.774866 223.391327 
L 320.643976 218.164859 
L 320.513086 212.736915 
L 320.382196 207.019397 
L 320.251306 200.937215 
L 320.120416 194.453004 
L 319.989525 187.587486 
L 319.858635 180.428525 
L 319.727745 173.124248 
L 319.596855 165.860471 
L 319.465965 158.827834 
L 319.335075 152.187225 
L 319.204185 146.041757 
L 319.073294 140.420603 
L 318.942404 135.27637 
L 318.811514 130.495455 
L 318.680624 125.920186 
L 318.549734 121.381328 
L 318.418844 116.738122 
L 318.287954 111.919803 
L 318.157063 106.959027 
L 318.026173 102.006323 
L 317.895283 97.317828 
L 317.764393 93.216312 
L 317.633503 90.035211 
L 317.502613 88.062548 
L 317.371723 87.502109 
L 317.240833 88.46187 
L 317.109942 90.967419 
L 316.979052 94.987107 
L 316.848162 100.451667 
L 316.717272 107.256349 
L 316.586382 115.245264 
L 316.455492 124.189146 
L 316.324602 133.772703 
L 316.193711 143.603778 
L 316.062821 153.246544 
L 315.931931 162.271082 
L 315.801041 170.307329 
L 315.670151 177.093611 
L 315.539261 182.51498 
L 315.408371 186.629208 
L 315.277481 189.676199 
L 315.14659 192.062483 
L 315.0157 194.312333 
L 314.88481 196.984837 
L 314.75392 200.570113 
L 314.62303 205.390487 
L 314.49214 211.535737 
L 314.36125 218.85208 
L 314.230359 226.986412 
L 314.099469 235.469251 
L 313.968579 243.809874 
L 313.837689 251.578623 
L 313.706799 258.461006 
L 313.575909 264.280143 
L 313.445019 268.992702 
L 313.314129 272.6669 
L 313.183238 275.450701 
L 313.052348 277.536568 
L 312.921458 279.127783 
L 312.790568 280.410545 
L 312.659678 281.534975 
L 312.528788 282.606233 
L 312.397898 283.684629 
L 312.267007 284.791883 
L 312.136117 285.920284 
L 312.005227 287.042424 
L 311.874337 288.120455 
L 311.743447 289.114599 
L 311.612557 289.990646 
L 311.481667 290.725715 
L 311.350777 291.311327 
L 311.219886 291.753286 
L 311.088996 292.068683 
L 310.958106 292.281197 
L 310.827216 292.416177 
L 310.696326 292.496727 
L 310.565436 292.54138 
L 310.434546 292.563307 
z
" style="fill:#0000ff;fill-opacity:0.25;"/>
   </g>
   <g id="PolyCollection_3">
    <path clip-path="url(#p354e2e12f1)" d="M 278.460242 292.564338 
L 278.460242 292.59 
L 278.589965 292.59 
L 278.719688 292.59 
L 278.849411 292.59 
L 278.979134 292.59 
L 279.108857 292.59 
L 279.23858 292.59 
L 279.368303 292.59 
L 279.498026 292.59 
L 279.627749 292.59 
L 279.757472 292.59 
L 279.887195 292.59 
L 280.016918 292.59 
L 280.146641 292.59 
L 280.276364 292.59 
L 280.406087 292.59 
L 280.53581 292.59 
L 280.665533 292.59 
L 280.795256 292.59 
L 280.924979 292.59 
L 281.054702 292.59 
L 281.184425 292.59 
L 281.314148 292.59 
L 281.443871 292.59 
L 281.573594 292.59 
L 281.703317 292.59 
L 281.83304 292.59 
L 281.962763 292.59 
L 282.092486 292.59 
L 282.222209 292.59 
L 282.351932 292.59 
L 282.481655 292.59 
L 282.611378 292.59 
L 282.741101 292.59 
L 282.870824 292.59 
L 283.000547 292.59 
L 283.13027 292.59 
L 283.259993 292.59 
L 283.389716 292.59 
L 283.519439 292.59 
L 283.649162 292.59 
L 283.778885 292.59 
L 283.908608 292.59 
L 284.038331 292.59 
L 284.168054 292.59 
L 284.297777 292.59 
L 284.4275 292.59 
L 284.557223 292.59 
L 284.686946 292.59 
L 284.816669 292.59 
L 284.946392 292.59 
L 285.076115 292.59 
L 285.205838 292.59 
L 285.335561 292.59 
L 285.465284 292.59 
L 285.595007 292.59 
L 285.72473 292.59 
L 285.854453 292.59 
L 285.984176 292.59 
L 286.113899 292.59 
L 286.243622 292.59 
L 286.373345 292.59 
L 286.503068 292.59 
L 286.632791 292.59 
L 286.762514 292.59 
L 286.892237 292.59 
L 287.02196 292.59 
L 287.151683 292.59 
L 287.281406 292.59 
L 287.411129 292.59 
L 287.540852 292.59 
L 287.670575 292.59 
L 287.800298 292.59 
L 287.930022 292.59 
L 288.059745 292.59 
L 288.189468 292.59 
L 288.319191 292.59 
L 288.448914 292.59 
L 288.578637 292.59 
L 288.70836 292.59 
L 288.838083 292.59 
L 288.967806 292.59 
L 289.097529 292.59 
L 289.227252 292.59 
L 289.356975 292.59 
L 289.486698 292.59 
L 289.616421 292.59 
L 289.746144 292.59 
L 289.875867 292.59 
L 290.00559 292.59 
L 290.135313 292.59 
L 290.265036 292.59 
L 290.394759 292.59 
L 290.524482 292.59 
L 290.654205 292.59 
L 290.783928 292.59 
L 290.913651 292.59 
L 291.043374 292.59 
L 291.173097 292.59 
L 291.30282 292.59 
L 291.432543 292.59 
L 291.562266 292.59 
L 291.691989 292.59 
L 291.821712 292.59 
L 291.951435 292.59 
L 292.081158 292.59 
L 292.210881 292.59 
L 292.340604 292.59 
L 292.470327 292.59 
L 292.60005 292.59 
L 292.729773 292.59 
L 292.859496 292.59 
L 292.989219 292.59 
L 293.118942 292.59 
L 293.248665 292.59 
L 293.378388 292.59 
L 293.508111 292.59 
L 293.637834 292.59 
L 293.767557 292.59 
L 293.89728 292.59 
L 294.027003 292.59 
L 294.156726 292.59 
L 294.286449 292.59 
L 294.416172 292.59 
L 294.545895 292.59 
L 294.675618 292.59 
L 294.805341 292.59 
L 294.935064 292.59 
L 294.935064 292.571182 
L 294.935064 292.571182 
L 294.805341 292.569689 
L 294.675618 292.560459 
L 294.545895 292.54236 
L 294.416172 292.512877 
L 294.286449 292.468407 
L 294.156726 292.404483 
L 294.027003 292.315922 
L 293.89728 292.196781 
L 293.767557 292.040063 
L 293.637834 291.837128 
L 293.508111 291.576986 
L 293.378388 291.245776 
L 293.248665 290.826909 
L 293.118942 290.302291 
L 292.989219 289.654762 
L 292.859496 288.871447 
L 292.729773 287.947202 
L 292.60005 286.887063 
L 292.470327 285.706713 
L 292.340604 284.430488 
L 292.210881 283.087213 
L 292.081158 281.704819 
L 291.951435 280.305024 
L 291.821712 278.899152 
L 291.691989 277.485608 
L 291.562266 276.048981 
L 291.432543 274.560407 
L 291.30282 272.979015 
L 291.173097 271.254604 
L 291.043374 269.33197 
L 290.913651 267.157114 
L 290.783928 264.684819 
L 290.654205 261.886166 
L 290.524482 258.753888 
L 290.394759 255.303548 
L 290.265036 251.569496 
L 290.135313 247.596191 
L 290.00559 243.427136 
L 289.875867 239.094685 
L 289.746144 234.613953 
L 289.616421 229.982844 
L 289.486698 225.188253 
L 289.356975 220.216496 
L 289.227252 215.064639 
L 289.097529 209.749156 
L 288.967806 204.309217 
L 288.838083 198.803561 
L 288.70836 193.301696 
L 288.578637 187.871662 
L 288.448914 182.567387 
L 288.319191 177.418787 
L 288.189468 172.427235 
L 288.059745 167.56798 
L 287.930022 162.799549 
L 287.800298 158.078407 
L 287.670575 153.375494 
L 287.540852 148.690369 
L 287.411129 144.0589 
L 287.281406 139.552045 
L 287.151683 135.265699 
L 287.02196 131.30416 
L 286.892237 127.761571 
L 286.762514 124.706109 
L 286.632791 122.170741 
L 286.503068 120.152351 
L 286.373345 118.618819 
L 286.243622 117.521733 
L 286.113899 116.811434 
L 285.984176 116.45105 
L 285.854453 116.426863 
L 285.72473 116.753458 
L 285.595007 117.473197 
L 285.465284 118.650468 
L 285.335561 120.361822 
L 285.205838 122.683549 
L 285.076115 125.678582 
L 284.946392 129.384756 
L 284.816669 133.806274 
L 284.686946 138.909705 
L 284.557223 144.624919 
L 284.4275 150.850376 
L 284.297777 157.461481 
L 284.168054 164.320482 
L 284.038331 171.28676 
L 283.908608 178.226904 
L 283.778885 185.02437 
L 283.649162 191.588358 
L 283.519439 197.860919 
L 283.389716 203.82062 
L 283.259993 209.480922 
L 283.13027 214.882265 
L 283.000547 220.07857 
L 282.870824 225.120869 
L 282.741101 230.042241 
L 282.611378 234.848299 
L 282.481655 239.515996 
L 282.351932 244.000939 
L 282.222209 248.250676 
L 282.092486 252.219576 
L 281.962763 255.880706 
L 281.83304 259.231473 
L 281.703317 262.29215 
L 281.573594 265.098819 
L 281.443871 267.693786 
L 281.314148 270.116756 
L 281.184425 272.399082 
L 281.054702 274.561792 
L 280.924979 276.61661 
L 280.795256 278.568363 
L 280.665533 280.417227 
L 280.53581 282.159945 
L 280.406087 283.790111 
L 280.276364 285.298194 
L 280.146641 286.672183 
L 280.016918 287.899281 
L 279.887195 288.968515 
L 279.757472 289.873565 
L 279.627749 290.614944 
L 279.498026 291.200851 
L 279.368303 291.64648 
L 279.23858 291.972053 
L 279.108857 292.200197 
L 278.979134 292.353339 
L 278.849411 292.451643 
L 278.719688 292.51176 
L 278.589965 292.546372 
L 278.460242 292.564338 
z
" style="fill:#1f78b4;fill-opacity:0.25;"/>
   </g>
   <g id="PolyCollection_4">
    <path clip-path="url(#p354e2e12f1)" d="M 471.76847 292.562317 
L 471.76847 292.59 
L 471.871528 292.59 
L 471.974586 292.59 
L 472.077644 292.59 
L 472.180701 292.59 
L 472.283759 292.59 
L 472.386817 292.59 
L 472.489875 292.59 
L 472.592932 292.59 
L 472.69599 292.59 
L 472.799048 292.59 
L 472.902106 292.59 
L 473.005163 292.59 
L 473.108221 292.59 
L 473.211279 292.59 
L 473.314337 292.59 
L 473.417394 292.59 
L 473.520452 292.59 
L 473.62351 292.59 
L 473.726568 292.59 
L 473.829625 292.59 
L 473.932683 292.59 
L 474.035741 292.59 
L 474.138799 292.59 
L 474.241856 292.59 
L 474.344914 292.59 
L 474.447972 292.59 
L 474.55103 292.59 
L 474.654087 292.59 
L 474.757145 292.59 
L 474.860203 292.59 
L 474.963261 292.59 
L 475.066318 292.59 
L 475.169376 292.59 
L 475.272434 292.59 
L 475.375492 292.59 
L 475.478549 292.59 
L 475.581607 292.59 
L 475.684665 292.59 
L 475.787723 292.59 
L 475.89078 292.59 
L 475.993838 292.59 
L 476.096896 292.59 
L 476.199954 292.59 
L 476.303011 292.59 
L 476.406069 292.59 
L 476.509127 292.59 
L 476.612185 292.59 
L 476.715242 292.59 
L 476.8183 292.59 
L 476.921358 292.59 
L 477.024416 292.59 
L 477.127473 292.59 
L 477.230531 292.59 
L 477.333589 292.59 
L 477.436647 292.59 
L 477.539705 292.59 
L 477.642762 292.59 
L 477.74582 292.59 
L 477.848878 292.59 
L 477.951936 292.59 
L 478.054993 292.59 
L 478.158051 292.59 
L 478.261109 292.59 
L 478.364167 292.59 
L 478.467224 292.59 
L 478.570282 292.59 
L 478.67334 292.59 
L 478.776398 292.59 
L 478.879455 292.59 
L 478.982513 292.59 
L 479.085571 292.59 
L 479.188629 292.59 
L 479.291686 292.59 
L 479.394744 292.59 
L 479.497802 292.59 
L 479.60086 292.59 
L 479.703917 292.59 
L 479.806975 292.59 
L 479.910033 292.59 
L 480.013091 292.59 
L 480.116148 292.59 
L 480.219206 292.59 
L 480.322264 292.59 
L 480.425322 292.59 
L 480.528379 292.59 
L 480.631437 292.59 
L 480.734495 292.59 
L 480.837553 292.59 
L 480.94061 292.59 
L 481.043668 292.59 
L 481.146726 292.59 
L 481.249784 292.59 
L 481.352841 292.59 
L 481.455899 292.59 
L 481.558957 292.59 
L 481.662015 292.59 
L 481.765072 292.59 
L 481.86813 292.59 
L 481.971188 292.59 
L 482.074246 292.59 
L 482.177303 292.59 
L 482.280361 292.59 
L 482.383419 292.59 
L 482.486477 292.59 
L 482.589534 292.59 
L 482.692592 292.59 
L 482.79565 292.59 
L 482.898708 292.59 
L 483.001765 292.59 
L 483.104823 292.59 
L 483.207881 292.59 
L 483.310939 292.59 
L 483.413996 292.59 
L 483.517054 292.59 
L 483.620112 292.59 
L 483.72317 292.59 
L 483.826228 292.59 
L 483.929285 292.59 
L 484.032343 292.59 
L 484.135401 292.59 
L 484.238459 292.59 
L 484.341516 292.59 
L 484.444574 292.59 
L 484.547632 292.59 
L 484.65069 292.59 
L 484.753747 292.59 
L 484.856805 292.59 
L 484.856805 292.568327 
L 484.856805 292.568327 
L 484.753747 292.562041 
L 484.65069 292.543087 
L 484.547632 292.508341 
L 484.444574 292.453191 
L 484.341516 292.373223 
L 484.238459 292.266337 
L 484.135401 292.134952 
L 484.032343 291.987534 
L 483.929285 291.838552 
L 483.826228 291.706224 
L 483.72317 291.608164 
L 483.620112 291.555971 
L 483.517054 291.55047 
L 483.413996 291.579327 
L 483.310939 291.618075 
L 483.207881 291.6344 
L 483.104823 291.594418 
L 483.001765 291.469008 
L 482.898708 291.238214 
L 482.79565 290.892244 
L 482.692592 290.428661 
L 482.589534 289.846651 
L 482.486477 289.140614 
L 482.383419 288.296053 
L 482.280361 287.290349 
L 482.177303 286.099198 
L 482.074246 284.70678 
L 481.971188 283.115386 
L 481.86813 281.349619 
L 481.765072 279.452013 
L 481.662015 277.470504 
L 481.558957 275.441903 
L 481.455899 273.377654 
L 481.352841 271.257641 
L 481.249784 269.034771 
L 481.146726 266.648743 
L 481.043668 264.043354 
L 480.94061 261.179526 
L 480.837553 258.036977 
L 480.734495 254.601477 
L 480.631437 250.841016 
L 480.528379 246.680523 
L 480.425322 241.987871 
L 480.322264 236.581534 
L 480.219206 230.262488 
L 480.116148 222.863161 
L 480.013091 214.29879 
L 479.910033 204.605052 
L 479.806975 193.950511 
L 479.703917 182.620622 
L 479.60086 170.978039 
L 479.497802 159.40903 
L 479.394744 148.267324 
L 479.291686 137.825392 
L 479.188629 128.240305 
L 479.085571 119.537729 
L 478.982513 111.614405 
L 478.879455 104.257541 
L 478.776398 97.179454 
L 478.67334 90.066418 
L 478.570282 82.639562 
L 478.467224 74.721007 
L 478.364167 66.291319 
L 478.261109 57.519832 
L 478.158051 48.752846 
L 478.054993 40.457675 
L 477.951936 33.137596 
L 477.848878 27.244541 
L 477.74582 23.115407 
L 477.642762 20.944813 
L 477.539705 20.79 
L 477.436647 22.59253 
L 477.333589 26.201507 
L 477.230531 31.391597 
L 477.127473 37.878748 
L 477.024416 45.340847 
L 476.921358 53.447873 
L 476.8183 61.899484 
L 476.715242 70.462008 
L 476.612185 78.994822 
L 476.509127 87.458706 
L 476.406069 95.904038 
L 476.303011 104.442067 
L 476.199954 113.206026 
L 476.096896 122.31025 
L 475.993838 131.815433 
L 475.89078 141.707223 
L 475.787723 151.893145 
L 475.684665 162.218695 
L 475.581607 172.497896 
L 475.478549 182.548917 
L 475.375492 192.22414 
L 475.272434 201.427065 
L 475.169376 210.114041 
L 475.066318 218.283829 
L 474.963261 225.96024 
L 474.860203 233.172897 
L 474.757145 239.940003 
L 474.654087 246.256452 
L 474.55103 252.090331 
L 474.447972 257.389735 
L 474.344914 262.09899 
L 474.241856 266.179536 
L 474.138799 269.628069 
L 474.035741 272.48492 
L 473.932683 274.829441 
L 473.829625 276.76472 
L 473.726568 278.398155 
L 473.62351 279.825262 
L 473.520452 281.121176 
L 473.417394 282.33975 
L 473.314337 283.516694 
L 473.211279 284.672599 
L 473.108221 285.813832 
L 473.005163 286.932219 
L 472.902106 288.00604 
L 472.799048 289.00433 
L 472.69599 289.894302 
L 472.592932 290.649704 
L 472.489875 291.257149 
L 472.386817 291.718419 
L 472.283759 292.048508 
L 472.180701 292.270813 
L 472.077644 292.411513 
L 471.974586 292.494912 
L 471.871528 292.540582 
L 471.76847 292.562317 
z
" style="fill:#ff7f00;fill-opacity:0.25;"/>
   </g>
   <g id="PolyCollection_5">
    <path clip-path="url(#p354e2e12f1)" d="M 236.602579 292.574717 
L 236.602579 292.59 
L 236.764197 292.59 
L 236.925816 292.59 
L 237.087435 292.59 
L 237.249054 292.59 
L 237.410673 292.59 
L 237.572291 292.59 
L 237.73391 292.59 
L 237.895529 292.59 
L 238.057148 292.59 
L 238.218767 292.59 
L 238.380386 292.59 
L 238.542004 292.59 
L 238.703623 292.59 
L 238.865242 292.59 
L 239.026861 292.59 
L 239.18848 292.59 
L 239.350098 292.59 
L 239.511717 292.59 
L 239.673336 292.59 
L 239.834955 292.59 
L 239.996574 292.59 
L 240.158192 292.59 
L 240.319811 292.59 
L 240.48143 292.59 
L 240.643049 292.59 
L 240.804668 292.59 
L 240.966286 292.59 
L 241.127905 292.59 
L 241.289524 292.59 
L 241.451143 292.59 
L 241.612762 292.59 
L 241.77438 292.59 
L 241.935999 292.59 
L 242.097618 292.59 
L 242.259237 292.59 
L 242.420856 292.59 
L 242.582474 292.59 
L 242.744093 292.59 
L 242.905712 292.59 
L 243.067331 292.59 
L 243.22895 292.59 
L 243.390568 292.59 
L 243.552187 292.59 
L 243.713806 292.59 
L 243.875425 292.59 
L 244.037044 292.59 
L 244.198662 292.59 
L 244.360281 292.59 
L 244.5219 292.59 
L 244.683519 292.59 
L 244.845138 292.59 
L 245.006756 292.59 
L 245.168375 292.59 
L 245.329994 292.59 
L 245.491613 292.59 
L 245.653232 292.59 
L 245.81485 292.59 
L 245.976469 292.59 
L 246.138088 292.59 
L 246.299707 292.59 
L 246.461326 292.59 
L 246.622944 292.59 
L 246.784563 292.59 
L 246.946182 292.59 
L 247.107801 292.59 
L 247.26942 292.59 
L 247.431039 292.59 
L 247.592657 292.59 
L 247.754276 292.59 
L 247.915895 292.59 
L 248.077514 292.59 
L 248.239133 292.59 
L 248.400751 292.59 
L 248.56237 292.59 
L 248.723989 292.59 
L 248.885608 292.59 
L 249.047227 292.59 
L 249.208845 292.59 
L 249.370464 292.59 
L 249.532083 292.59 
L 249.693702 292.59 
L 249.855321 292.59 
L 250.016939 292.59 
L 250.178558 292.59 
L 250.340177 292.59 
L 250.501796 292.59 
L 250.663415 292.59 
L 250.825033 292.59 
L 250.986652 292.59 
L 251.148271 292.59 
L 251.30989 292.59 
L 251.471509 292.59 
L 251.633127 292.59 
L 251.794746 292.59 
L 251.956365 292.59 
L 252.117984 292.59 
L 252.279603 292.59 
L 252.441221 292.59 
L 252.60284 292.59 
L 252.764459 292.59 
L 252.926078 292.59 
L 253.087697 292.59 
L 253.249315 292.59 
L 253.410934 292.59 
L 253.572553 292.59 
L 253.734172 292.59 
L 253.895791 292.59 
L 254.057409 292.59 
L 254.219028 292.59 
L 254.380647 292.59 
L 254.542266 292.59 
L 254.703885 292.59 
L 254.865503 292.59 
L 255.027122 292.59 
L 255.188741 292.59 
L 255.35036 292.59 
L 255.511979 292.59 
L 255.673597 292.59 
L 255.835216 292.59 
L 255.996835 292.59 
L 256.158454 292.59 
L 256.320073 292.59 
L 256.481691 292.59 
L 256.64331 292.59 
L 256.804929 292.59 
L 256.966548 292.59 
L 257.128167 292.59 
L 257.128167 292.575989 
L 257.128167 292.575989 
L 256.966548 292.570706 
L 256.804929 292.557675 
L 256.64331 292.534014 
L 256.481691 292.495245 
L 256.320073 292.435521 
L 256.158454 292.348112 
L 255.996835 292.226221 
L 255.835216 292.064132 
L 255.673597 291.858512 
L 255.511979 291.609576 
L 255.35036 291.32169 
L 255.188741 291.003006 
L 255.027122 290.663844 
L 254.865503 290.313857 
L 254.703885 289.958368 
L 254.542266 289.59469 
L 254.380647 289.209469 
L 254.219028 288.778044 
L 254.057409 288.266404 
L 253.895791 287.635635 
L 253.734172 286.847908 
L 253.572553 285.872501 
L 253.410934 284.690198 
L 253.249315 283.294917 
L 253.087697 281.692319 
L 252.926078 279.8961 
L 252.764459 277.923225 
L 252.60284 275.789287 
L 252.441221 273.504574 
L 252.279603 271.070777 
L 252.117984 268.478027 
L 251.956365 265.702336 
L 251.794746 262.704319 
L 251.633127 259.430644 
L 251.471509 255.819538 
L 251.30989 251.810707 
L 251.148271 247.358561 
L 250.986652 242.4463 
L 250.825033 237.097757 
L 250.663415 231.384027 
L 250.501796 225.422687 
L 250.340177 219.368587 
L 250.178558 213.39662 
L 250.016939 207.678531 
L 249.855321 202.357489 
L 249.693702 197.525378 
L 249.532083 193.207953 
L 249.370464 189.361724 
L 249.208845 185.883829 
L 249.047227 182.633026 
L 248.885608 179.457341 
L 248.723989 176.222783 
L 248.56237 172.837973 
L 248.400751 169.271071 
L 248.239133 165.557081 
L 248.077514 161.794867 
L 247.915895 158.134066 
L 247.754276 154.753009 
L 247.592657 151.830289 
L 247.431039 149.514582 
L 247.26942 147.898866 
L 247.107801 147.005205 
L 246.946182 146.784154 
L 246.784563 147.129055 
L 246.622944 147.901464 
L 246.461326 148.961177 
L 246.299707 150.193809 
L 246.138088 151.530524 
L 245.976469 152.957216 
L 245.81485 154.51316 
L 245.653232 156.280914 
L 245.491613 158.369993 
L 245.329994 160.896818 
L 245.168375 163.963276 
L 245.006756 167.636242 
L 244.845138 171.930775 
L 244.683519 176.800177 
L 244.5219 182.136045 
L 244.360281 187.780345 
L 244.198662 193.549056 
L 244.037044 199.263575 
L 243.875425 204.782897 
L 243.713806 210.028118 
L 243.552187 214.991998 
L 243.390568 219.730281 
L 243.22895 224.336806 
L 243.067331 228.909502 
L 242.905712 233.5171 
L 242.744093 238.176007 
L 242.582474 242.843414 
L 242.420856 247.427646 
L 242.259237 251.811633 
L 242.097618 255.881921 
L 241.935999 259.554637 
L 241.77438 262.791602 
L 241.612762 265.603378 
L 241.451143 268.040287 
L 241.289524 270.175749 
L 241.127905 272.087813 
L 240.966286 273.844028 
L 240.804668 275.492706 
L 240.643049 277.06094 
L 240.48143 278.557817 
L 240.319811 279.980342 
L 240.158192 281.319878 
L 239.996574 282.567631 
L 239.834955 283.718484 
L 239.673336 284.772959 
L 239.511717 285.737304 
L 239.350098 286.621892 
L 239.18848 287.438441 
L 239.026861 288.19686 
L 238.865242 288.902727 
L 238.703623 289.556201 
L 238.542004 290.15269 
L 238.380386 290.684966 
L 238.218767 291.145968 
L 238.057148 291.531345 
L 237.895529 291.841047 
L 237.73391 292.079644 
L 237.572291 292.255527 
L 237.410673 292.379414 
L 237.249054 292.462688 
L 237.087435 292.515986 
L 236.925816 292.548258 
L 236.764197 292.566306 
L 236.602579 292.574717 
z
" style="fill-opacity:0.25;"/>
   </g>
   <g id="PolyCollection_6">
    <path clip-path="url(#p354e2e12f1)" d="M 311.348969 292.578848 
L 311.348969 292.59 
L 311.522202 292.59 
L 311.695435 292.59 
L 311.868667 292.59 
L 312.0419 292.59 
L 312.215133 292.59 
L 312.388366 292.59 
L 312.561598 292.59 
L 312.734831 292.59 
L 312.908064 292.59 
L 313.081296 292.59 
L 313.254529 292.59 
L 313.427762 292.59 
L 313.600994 292.59 
L 313.774227 292.59 
L 313.94746 292.59 
L 314.120693 292.59 
L 314.293925 292.59 
L 314.467158 292.59 
L 314.640391 292.59 
L 314.813623 292.59 
L 314.986856 292.59 
L 315.160089 292.59 
L 315.333321 292.59 
L 315.506554 292.59 
L 315.679787 292.59 
L 315.85302 292.59 
L 316.026252 292.59 
L 316.199485 292.59 
L 316.372718 292.59 
L 316.54595 292.59 
L 316.719183 292.59 
L 316.892416 292.59 
L 317.065648 292.59 
L 317.238881 292.59 
L 317.412114 292.59 
L 317.585347 292.59 
L 317.758579 292.59 
L 317.931812 292.59 
L 318.105045 292.59 
L 318.278277 292.59 
L 318.45151 292.59 
L 318.624743 292.59 
L 318.797975 292.59 
L 318.971208 292.59 
L 319.144441 292.59 
L 319.317674 292.59 
L 319.490906 292.59 
L 319.664139 292.59 
L 319.837372 292.59 
L 320.010604 292.59 
L 320.183837 292.59 
L 320.35707 292.59 
L 320.530302 292.59 
L 320.703535 292.59 
L 320.876768 292.59 
L 321.050001 292.59 
L 321.223233 292.59 
L 321.396466 292.59 
L 321.569699 292.59 
L 321.742931 292.59 
L 321.916164 292.59 
L 322.089397 292.59 
L 322.262629 292.59 
L 322.435862 292.59 
L 322.609095 292.59 
L 322.782328 292.59 
L 322.95556 292.59 
L 323.128793 292.59 
L 323.302026 292.59 
L 323.475258 292.59 
L 323.648491 292.59 
L 323.821724 292.59 
L 323.994956 292.59 
L 324.168189 292.59 
L 324.341422 292.59 
L 324.514655 292.59 
L 324.687887 292.59 
L 324.86112 292.59 
L 325.034353 292.59 
L 325.207585 292.59 
L 325.380818 292.59 
L 325.554051 292.59 
L 325.727283 292.59 
L 325.900516 292.59 
L 326.073749 292.59 
L 326.246982 292.59 
L 326.420214 292.59 
L 326.593447 292.59 
L 326.76668 292.59 
L 326.939912 292.59 
L 327.113145 292.59 
L 327.286378 292.59 
L 327.45961 292.59 
L 327.632843 292.59 
L 327.806076 292.59 
L 327.979309 292.59 
L 328.152541 292.59 
L 328.325774 292.59 
L 328.499007 292.59 
L 328.672239 292.59 
L 328.845472 292.59 
L 329.018705 292.59 
L 329.191937 292.59 
L 329.36517 292.59 
L 329.538403 292.59 
L 329.711636 292.59 
L 329.884868 292.59 
L 330.058101 292.59 
L 330.231334 292.59 
L 330.404566 292.59 
L 330.577799 292.59 
L 330.751032 292.59 
L 330.924264 292.59 
L 331.097497 292.59 
L 331.27073 292.59 
L 331.443963 292.59 
L 331.617195 292.59 
L 331.790428 292.59 
L 331.963661 292.59 
L 332.136893 292.59 
L 332.310126 292.59 
L 332.483359 292.59 
L 332.656591 292.59 
L 332.829824 292.59 
L 333.003057 292.59 
L 333.17629 292.59 
L 333.349522 292.59 
L 333.349522 292.579571 
L 333.349522 292.579571 
L 333.17629 292.575687 
L 333.003057 292.566507 
L 332.829824 292.55043 
L 332.656591 292.525137 
L 332.483359 292.487866 
L 332.310126 292.435708 
L 332.136893 292.365772 
L 331.963661 292.275022 
L 331.790428 292.1595 
L 331.617195 292.012863 
L 331.443963 291.824419 
L 331.27073 291.577297 
L 331.097497 291.247743 
L 330.924264 290.806633 
L 330.751032 290.223889 
L 330.577799 289.475556 
L 330.404566 288.552104 
L 330.231334 287.465462 
L 330.058101 286.251927 
L 329.884868 284.968859 
L 329.711636 283.684757 
L 329.538403 282.464626 
L 329.36517 281.354407 
L 329.191937 280.368954 
L 329.018705 279.487175 
L 328.845472 278.655793 
L 328.672239 277.800479 
L 328.499007 276.841005 
L 328.325774 275.706156 
L 328.152541 274.344744 
L 327.979309 272.730579 
L 327.806076 270.861183 
L 327.632843 268.751475 
L 327.45961 266.424533 
L 327.286378 263.901691 
L 327.113145 261.194129 
L 326.939912 258.297778 
L 326.76668 255.192924 
L 326.593447 251.849079 
L 326.420214 248.234448 
L 326.246982 244.327817 
L 326.073749 240.129575 
L 325.900516 235.668398 
L 325.727283 231.001357 
L 325.554051 226.207385 
L 325.380818 221.376332 
L 325.207585 216.597108 
L 325.034353 211.948057 
L 324.86112 207.490929 
L 324.687887 203.267664 
L 324.514655 199.297895 
L 324.341422 195.575467 
L 324.168189 192.064178 
L 323.994956 188.69534 
L 323.821724 185.371089 
L 323.648491 181.976612 
L 323.475258 178.401557 
L 323.302026 174.566984 
L 323.128793 170.451109 
L 322.95556 166.106311 
L 322.782328 161.661885 
L 322.609095 157.311092 
L 322.435862 153.285493 
L 322.262629 149.822785 
L 322.089397 147.135315 
L 321.916164 145.385155 
L 321.742931 144.668912 
L 321.569699 145.012497 
L 321.396466 146.373991 
L 321.223233 148.652134 
L 321.050001 151.698621 
L 320.876768 155.333658 
L 320.703535 159.364943 
L 320.530302 163.609763 
L 320.35707 167.918174 
L 320.183837 172.193132 
L 320.010604 176.402253 
L 319.837372 180.576648 
L 319.664139 184.795145 
L 319.490906 189.156468 
L 319.317674 193.745959 
L 319.144441 198.605846 
L 318.971208 203.717685 
L 318.797975 209.002376 
L 318.624743 214.337967 
L 318.45151 219.589827 
L 318.278277 224.643782 
L 318.105045 229.431886 
L 317.931812 233.943157 
L 317.758579 238.216895 
L 317.585347 242.322153 
L 317.412114 246.331154 
L 317.238881 250.295559 
L 317.065648 254.232277 
L 316.892416 258.121308 
L 316.719183 261.91389 
L 316.54595 265.546469 
L 316.372718 268.955523 
L 316.199485 272.08942 
L 316.026252 274.915448 
L 315.85302 277.421852 
L 315.679787 279.6158 
L 315.506554 281.518681 
L 315.333321 283.160204 
L 315.160089 284.572727 
L 314.986856 285.786925 
L 314.813623 286.829463 
L 314.640391 287.722678 
L 314.467158 288.48568 
L 314.293925 289.135895 
L 314.120693 289.690154 
L 313.94746 290.164791 
L 313.774227 290.574824 
L 313.600994 290.932716 
L 313.427762 291.247387 
L 313.254529 291.524004 
L 313.081296 291.764659 
L 312.908064 291.969704 
L 312.734831 292.139244 
L 312.561598 292.274321 
L 312.388366 292.377487 
L 312.215133 292.452747 
L 312.0419 292.505038 
L 311.868667 292.539525 
L 311.695435 292.560946 
L 311.522202 292.573147 
L 311.348969 292.578848 
z
" style="fill:#33a02c;fill-opacity:0.25;"/>
   </g>
   <g id="line2d_13">
    <path clip-path="url(#p354e2e12f1)" d="M 79.038623 292.582016 
L 80.381797 292.46209 
L 81.187702 292.189382 
L 83.068145 291.222999 
L 83.605415 290.620415 
L 84.142684 289.650674 
L 84.948589 287.676782 
L 85.485858 285.98069 
L 86.023128 283.583781 
L 86.560397 280.153436 
L 87.634936 271.11656 
L 89.246745 256.108832 
L 90.05265 245.972017 
L 91.933093 219.556241 
L 93.813537 198.88446 
L 94.619441 188.987631 
L 95.156711 185.310137 
L 95.425345 184.819519 
L 95.69398 185.223299 
L 95.962615 186.423693 
L 96.499885 190.694171 
L 97.305789 200.126699 
L 98.380328 215.719783 
L 99.992137 243.121035 
L 101.066676 259.551242 
L 101.87258 268.886504 
L 102.678485 275.672311 
L 103.215754 278.780685 
L 104.290293 283.231894 
L 105.633467 288.512697 
L 106.170737 289.970271 
L 106.708007 290.895442 
L 107.245276 291.433657 
L 107.782546 291.717759 
L 108.58845 291.861839 
L 109.931624 292.003746 
L 112.617972 292.570754 
L 113.155242 292.58265 
L 113.155242 292.58265 
" style="fill:none;stroke:#e31a1c;stroke-linecap:round;stroke-width:2;"/>
   </g>
   <g id="line2d_14">
    <path clip-path="url(#p354e2e12f1)" d="M 310.434546 292.563307 
L 310.827216 292.416177 
L 311.088996 292.068683 
L 311.350777 291.311327 
L 311.743447 289.114599 
L 312.790568 280.410545 
L 313.052348 277.536568 
L 313.314129 272.6669 
L 313.575909 264.280143 
L 313.968579 243.809874 
L 314.75392 200.570113 
L 315.14659 192.062483 
L 315.408371 186.629208 
L 315.670151 177.093611 
L 316.062821 153.246544 
L 316.848162 100.451667 
L 317.240833 88.46187 
L 317.371723 87.502109 
L 317.502613 88.062548 
L 317.764393 93.216312 
L 318.418844 116.738122 
L 319.335075 152.187225 
L 321.036646 233.528205 
L 321.952877 265.186187 
L 322.476438 276.538678 
L 322.869108 280.933817 
L 324.43979 290.829975 
L 324.70157 291.592093 
L 324.96335 291.823852 
L 325.748691 291.913635 
L 326.664922 292.526697 
L 327.057593 292.570588 
L 327.057593 292.570588 
" style="fill:none;stroke:#0000ff;stroke-linecap:round;stroke-width:2;"/>
   </g>
   <g id="line2d_15">
    <path clip-path="url(#p354e2e12f1)" d="M 278.460242 292.564338 
L 278.849411 292.451643 
L 279.108857 292.200197 
L 279.368303 291.64648 
L 279.627749 290.614944 
L 280.016918 287.899281 
L 280.53581 282.159945 
L 281.184425 272.399082 
L 281.83304 259.231473 
L 282.351932 244.000939 
L 283.259993 209.480922 
L 284.038331 171.28676 
L 284.816669 133.806274 
L 285.205838 122.683549 
L 285.595007 117.473197 
L 285.854453 116.426863 
L 285.984176 116.45105 
L 286.113899 116.811434 
L 286.373345 118.618819 
L 286.632791 122.170741 
L 287.02196 131.30416 
L 287.800298 158.078407 
L 288.967806 204.309217 
L 290.00559 243.427136 
L 290.654205 261.886166 
L 291.173097 271.254604 
L 291.951435 280.305024 
L 292.729773 287.947202 
L 293.118942 290.302291 
L 293.508111 291.576986 
L 293.89728 292.196781 
L 294.286449 292.468407 
L 294.805341 292.569689 
L 294.935064 292.571182 
L 294.935064 292.571182 
" style="fill:none;stroke:#1f78b4;stroke-linecap:round;stroke-width:2;"/>
   </g>
   <g id="line2d_16">
    <path clip-path="url(#p354e2e12f1)" d="M 471.76847 292.562317 
L 472.077644 292.411513 
L 472.283759 292.048508 
L 472.489875 291.257149 
L 472.799048 289.00433 
L 473.520452 281.121176 
L 473.932683 274.829441 
L 474.241856 266.179536 
L 474.654087 246.256452 
L 475.169376 210.114041 
L 475.993838 131.815433 
L 477.024416 45.340847 
L 477.436647 22.59253 
L 477.539705 20.79 
L 477.642762 20.944813 
L 477.848878 27.244541 
L 478.158051 48.752846 
L 480.631437 250.841016 
L 481.146726 266.648743 
L 481.86813 281.349619 
L 482.383419 288.296053 
L 482.79565 290.892244 
L 483.104823 291.594418 
L 483.310939 291.618075 
L 483.620112 291.555971 
L 483.826228 291.706224 
L 484.547632 292.508341 
L 484.856805 292.568327 
L 484.856805 292.568327 
" style="fill:none;stroke:#ff7f00;stroke-linecap:round;stroke-width:2;"/>
   </g>
   <g id="line2d_17">
    <path clip-path="url(#p354e2e12f1)" d="M 236.602579 292.574717 
L 237.249054 292.462688 
L 237.572291 292.255527 
L 237.895529 291.841047 
L 238.380386 290.684966 
L 239.026861 288.19686 
L 239.673336 284.772959 
L 240.319811 279.980342 
L 241.127905 272.087813 
L 241.612762 265.603378 
L 242.097618 255.881921 
L 243.067331 228.909502 
L 244.037044 199.263575 
L 245.006756 167.636242 
L 245.491613 158.369993 
L 245.976469 152.957216 
L 246.622944 147.901464 
L 246.946182 146.784154 
L 247.107801 147.005205 
L 247.26942 147.898866 
L 247.592657 151.830289 
L 248.077514 161.794867 
L 250.016939 207.678531 
L 251.471509 255.819538 
L 252.117984 268.478027 
L 252.926078 279.8961 
L 253.572553 285.872501 
L 254.057409 288.266404 
L 254.703885 289.958368 
L 255.673597 291.858512 
L 256.158454 292.348112 
L 256.64331 292.534014 
L 257.128167 292.575989 
L 257.128167 292.575989 
" style="fill:none;stroke:#000000;stroke-linecap:round;stroke-width:2;"/>
   </g>
   <g id="line2d_18">
    <path clip-path="url(#p354e2e12f1)" d="M 311.348969 292.578848 
L 312.215133 292.452747 
L 312.734831 292.139244 
L 313.254529 291.524004 
L 313.774227 290.574824 
L 314.293925 289.135895 
L 314.813623 286.829463 
L 315.333321 283.160204 
L 315.85302 277.421852 
L 316.372718 268.955523 
L 317.412114 246.331154 
L 318.278277 224.643782 
L 320.183837 172.193132 
L 321.223233 148.652134 
L 321.569699 145.012497 
L 321.742931 144.668912 
L 321.916164 145.385155 
L 322.262629 149.822785 
L 322.782328 161.661885 
L 323.648491 181.976612 
L 324.86112 207.490929 
L 326.939912 258.297778 
L 327.632843 268.751475 
L 328.152541 274.344744 
L 328.672239 277.800479 
L 329.538403 282.464626 
L 330.751032 290.223889 
L 331.097497 291.247743 
L 331.617195 292.012863 
L 332.136893 292.365772 
L 332.829824 292.55043 
L 333.349522 292.579571 
L 333.349522 292.579571 
" style="fill:none;stroke:#33a02c;stroke-linecap:round;stroke-width:2;"/>
   </g>
   <g id="line2d_19">
    <path clip-path="url(#p354e2e12f1)" d="M 321.996606 306.18 
L 321.996606 7.2 
" style="fill:none;stroke:#33a02c;stroke-dasharray:8.4,3.6;stroke-dashoffset:0;stroke-width:3;"/>
   </g>
   <g id="patch_3">
    <path d="M 58.747714 306.18 
L 58.747714 7.2 
" style="fill:none;"/>
   </g>
   <g id="patch_4">
    <path d="M 505.147714 306.18 
L 505.147714 7.2 
" style="fill:none;"/>
   </g>
   <g id="patch_5">
    <path d="M 58.747714 306.18 
L 505.147714 306.18 
" style="fill:none;"/>
   </g>
   <g id="patch_6">
    <path d="M 58.747714 7.2 
L 505.147714 7.2 
" style="fill:none;"/>
   </g>
   <g id="legend_1">
    <g id="line2d_20">
     <path d="M 71.347714 24.7 
L 99.347714 24.7 
" style="fill:none;stroke:#e31a1c;stroke-linecap:round;stroke-width:2;"/>
    </g>
    <g id="line2d_21"/>
    <g id="text_15">
     <!-- Suppression -->
     <defs>
      <path d="M 5.09375 13.015625 
C 4.90625 11.390625 4.5 9.671875 4.296875 8.046875 
C 4.09375 6.53125 3.59375 6.109375 4.90625 5.3125 
C 8.296875 3.390625 11.203125 2.0625 15.40625 0.75 
C 24.796875 -2 35.59375 -2 43.796875 4.140625 
C 45.09375 5.140625 46.296875 6.234375 47.40625 7.53125 
C 49.90625 10.890625 52.203125 14.96875 51.59375 20.53125 
C 50.90625 27.671875 46.09375 33.625 39.59375 36.609375 
C 30.703125 40.578125 16.203125 40.578125 12.203125 49.375 
C 9.09375 56.1875 14.59375 62.171875 20.796875 64.375 
C 26.90625 66.6875 34.90625 65.78125 40.09375 63.375 
C 42.5 62.265625 44.5 60.65625 46.703125 59.25 
C 46.90625 60.96875 47.296875 62.578125 47.59375 64.28125 
C 47.796875 65.375 48.09375 66.390625 46.90625 66.78125 
L 45 67.796875 
C 42.296875 69 39.5 69.90625 36.59375 70.5 
C 27.59375 72.203125 17.203125 71.203125 10.40625 64.484375 
C 7 61.0625 4.09375 56.4375 5.296875 49.515625 
C 6.703125 42.390625 12.296875 37.875 18.09375 35.65625 
C 21.5 34.359375 25.296875 33.65625 28.90625 32.75 
C 31 32.34375 33.203125 31.84375 35.296875 31.140625 
C 40.703125 29.125 45.40625 25.109375 45.40625 17.6875 
C 44.796875 11.296875 39.203125 6.625 33.296875 5.203125 
C 25.703125 3.265625 16.703125 6.015625 11.5 8.75 
C 9.203125 9.96875 7.203125 11.59375 5.09375 13.015625 
" id="Computer_Modern_Bright-83"/>
      <path d="M 6.40625 47 
L 6.40625 12.96875 
C 6.40625 10.046875 6.5 7.140625 7.703125 4.421875 
C 9.59375 0.515625 13.59375 -1 17.703125 -1 
C 23.203125 -1 28.703125 0.8125 32.703125 4.734375 
C 33.796875 5.828125 34.796875 6.9375 35.5 8.34375 
L 35.59375 8.34375 
L 35.59375 -0.390625 
L 41.90625 -0.390625 
L 41.90625 47 
L 35.5 47 
L 35.5 22.90625 
C 35.5 18.6875 36.09375 14.0625 33.90625 10.25 
C 32.296875 7.4375 29.5 5.234375 26.40625 4.234375 
C 24.296875 3.625 22.09375 3.625 19.90625 3.828125 
C 17.796875 4.03125 15.5 4.234375 14.09375 6.03125 
C 12.09375 8.453125 12.796875 14.171875 12.796875 17.6875 
L 12.796875 47 
z
" id="Computer_Modern_Bright-117"/>
     </defs>
     <g style="fill:#262626;" transform="translate(110.547714 29.6)scale(0.14 -0.14)">
      <use transform="scale(0.996264)" xlink:href="#Computer_Modern_Bright-83"/>
      <use transform="translate(56.454753 0)scale(0.996264)" xlink:href="#Computer_Modern_Bright-117"/>
      <use transform="translate(104.60725 0)scale(0.996264)" xlink:href="#Computer_Modern_Bright-112"/>
      <use transform="translate(152.759747 0)scale(0.996264)" xlink:href="#Computer_Modern_Bright-112"/>
      <use transform="translate(198.006514 0)scale(0.996264)" xlink:href="#Computer_Modern_Bright-114"/>
      <use transform="translate(229.969873 0)scale(0.996264)" xlink:href="#Computer_Modern_Bright-101"/>
      <use transform="translate(274.801541 0)scale(0.996264)" xlink:href="#Computer_Modern_Bright-115"/>
      <use transform="translate(313.24057 0)scale(0.996264)" xlink:href="#Computer_Modern_Bright-115"/>
      <use transform="translate(351.679599 0)scale(0.996264)" xlink:href="#Computer_Modern_Bright-105"/>
      <use transform="translate(370.774558 0)scale(0.996264)" xlink:href="#Computer_Modern_Bright-111"/>
      <use transform="translate(421.417776 0)scale(0.996264)" xlink:href="#Computer_Modern_Bright-110"/>
     </g>
    </g>
    <g id="line2d_22">
     <path d="M 71.347714 43.824611 
L 99.347714 43.824611 
" style="fill:none;stroke:#0000ff;stroke-linecap:round;stroke-width:2;"/>
    </g>
    <g id="line2d_23"/>
    <g id="text_16">
     <!-- \emph{egl-9} $&gt;$ \emph{vhl-1} -->
     <defs>
      <path d="M 44.09375 10.859375 
C 42.796875 9.953125 41.5 8.9375 40.09375 8.140625 
C 34.296875 4.59375 24.09375 1.765625 18.203125 7.53125 
C 14.40625 11.375 13.203125 17.53125 14.796875 25 
L 46.40625 25 
C 46.796875 25 47.40625 24.90625 47.703125 25.203125 
C 48.5 25.8125 48.703125 31.375 48.703125 31.46875 
C 48.703125 32.6875 48.796875 33.890625 48.703125 35.109375 
C 48.296875 40.46875 45.703125 45.3125 40.703125 47.140625 
C 34.296875 49.765625 27 47.84375 21.5 43.90625 
C 13.796875 38.4375 8.40625 29.046875 8 19.453125 
C 7.59375 11.875 10.5 5.515625 15.40625 2.171875 
C 23.40625 -3.484375 34.5 -0.15625 40.90625 3.6875 
C 41.703125 4.203125 42.90625 4.703125 43.40625 5.40625 
C 43.703125 5.90625 44.09375 10.859375 44.09375 10.859375 
M 43.296875 28.953125 
L 16.203125 28.953125 
C 16.59375 30.671875 17.703125 32.390625 18.703125 33.796875 
C 21.296875 37.84375 25.09375 41.46875 29.796875 42.796875 
C 33.59375 43.90625 38.296875 43.1875 41 40.0625 
C 43.203125 37.4375 43.703125 33.390625 43.296875 28.953125 
" id="Computer_Modern_Bright_Slanted-101"/>
      <path d="M 37.90625 12.09375 
L 38 12.09375 
C 37.703125 10.1875 37.203125 8.265625 36.796875 6.34375 
C 36.203125 3.3125 35.703125 0.171875 34.703125 -2.65625 
C 33.5 -5.984375 31.203125 -9.109375 28.296875 -11.140625 
C 25.90625 -12.75 23.796875 -13.265625 19.90625 -12.953125 
C 15.09375 -12.953125 11.59375 -12.03125 7.796875 -10.265625 
C 6.703125 -9.75 5.796875 -9.125 4.703125 -8.609375 
L 3.5 -14.171875 
C 8.09375 -16.25 12.203125 -18 18.40625 -18 
C 19.796875 -18.109375 21.203125 -18.203125 22.59375 -18.109375 
C 31.703125 -17.203125 38.5 -10.21875 41.09375 -2.828125 
C 41.796875 -1 42.09375 1.015625 42.5 2.953125 
L 44.203125 11.03125 
C 44.796875 13.78125 51.90625 47.390625 52 48.5 
L 45.703125 48.5 
L 44.09375 40.265625 
C 43.703125 40.984375 43.5 41.78125 43.203125 42.5 
C 42.5 43.90625 41.5 45.21875 40.296875 46.234375 
C 34.40625 51.1875 25 46.640625 21 43.5 
C 15.09375 38.953125 11 32.296875 9.203125 25.125 
C 6.90625 16.234375 9.5 8.0625 14.90625 4.328125 
C 18.796875 1.59375 24.796875 0.78125 30 3.71875 
C 32.90625 5.4375 36.40625 8.96875 37.90625 12.09375 
M 34.59375 43.5 
C 40.296875 43.5 42.703125 39.546875 42.703125 33.890625 
C 42.59375 33.1875 42.40625 32.375 42.296875 31.671875 
C 40.703125 24.59375 39.40625 17.53125 35.59375 12.0625 
C 33.703125 9.34375 30.90625 7.125 27.5 6.8125 
C 25 6.609375 22.40625 7.515625 20.796875 8.328125 
C 15.90625 11.15625 14.296875 17.21875 15.09375 22.578125 
C 16 28.9375 19.5 35.03125 24.5 39.0625 
C 27.40625 41.4375 30.90625 43.203125 34.59375 43.5 
M 38 12.21875 
C 38 12.21875 38.09375 12.21875 38.09375 12.21875 
C 38.09375 12.125 38 12.015625 38 12.21875 
" id="Computer_Modern_Bright_Slanted-103"/>
      <path d="M 21.09375 70 
L 6.40625 0 
C 8.5 0 10.796875 0 12.59375 0.296875 
L 13 1.40625 
C 14 6.4375 15.09375 11.375 16.203125 16.40625 
L 27.40625 70 
z
" id="Computer_Modern_Bright_Slanted-108"/>
      <path d="M 5.90625 26.0625 
L 4.90625 21 
L 32.796875 21 
L 33.796875 26.0625 
z
" id="Computer_Modern_Bright_Slanted-45"/>
      <path d="M 46.5 33.03125 
L 46.59375 33.03125 
C 46.296875 31.3125 45.90625 29.59375 45.40625 27.96875 
C 42.703125 18.296875 37.09375 7.828125 26.90625 4.625 
C 21.5 3.015625 15.90625 4.03125 12.5 6.734375 
C 12.203125 6.9375 11.59375 7.640625 11.09375 7.546875 
C 10.703125 7.546875 10.296875 6.84375 10.09375 6.53125 
C 9.203125 5.421875 8.296875 4.328125 7.5 3.21875 
C 9.296875 1.796875 11.09375 0.484375 13.296875 -0.3125 
C 15.90625 -1.328125 20.5 -1.828125 23.59375 -1.234375 
C 29 -0.421875 34 2.515625 38.09375 6.03125 
C 47.5 14.375 53.09375 26.21875 54.59375 41.390625 
C 55.09375 45.90625 55.203125 50.515625 54.09375 55.046875 
C 53.203125 58.953125 51.703125 61.46875 48.90625 63.984375 
C 43.796875 68 36.296875 68 30.703125 65.453125 
C 25.40625 62.921875 19.90625 57.65625 17.203125 53.078125 
C 14.59375 48.609375 12.703125 41.40625 13.09375 34.90625 
C 13.5 30.8125 15.5 26.21875 18 23.703125 
C 20.296875 21.515625 23.09375 21 26.09375 21 
C 32.09375 21 38.203125 23.9375 42.5 28.171875 
C 43.90625 29.59375 45.59375 31.109375 46.5 33.03125 
M 43.90625 61.03125 
C 48.59375 58.484375 49.40625 52.515625 48.90625 47.640625 
C 48.703125 44.90625 48.5 42.171875 47.59375 39.53125 
C 45.796875 34.46875 42.09375 30 37.40625 27.578125 
C 32.40625 25.03125 24.59375 25.03125 21.5 29.765625 
C 18.90625 33.484375 19.296875 38 20.09375 42.234375 
C 20.796875 45.546875 21.5 48.96875 23 52.078125 
C 25 56.109375 28.59375 59.734375 32.90625 61.234375 
C 36.5 62.4375 40.59375 62.4375 43.90625 61.03125 
" id="Computer_Modern_Bright_Slanted-57"/>
      <path d="M 62.59375 26.546875 
L 62.59375 26.34375 
C 60.296875 25.546875 58 24.25 55.796875 23.140625 
L 27.09375 9.625 
L 11.09375 2 
C 10.40625 1.703125 9.40625 1.296875 8.90625 0.796875 
C 8 -0.203125 8.203125 -1.703125 9.296875 -2.296875 
C 10.5 -3 11.703125 -2.109375 12.796875 -1.609375 
L 21 2.203125 
C 25.203125 4.3125 55 18.328125 55 18.328125 
L 66 23.546875 
C 67.296875 24.140625 69.40625 24.75 69.40625 26.453125 
C 69.40625 28.15625 67.296875 28.75 66 29.359375 
L 55 34.5625 
L 33.703125 44.6875 
C 29.5 46.6875 25.203125 48.59375 21 50.703125 
L 12.796875 54.5 
C 11.703125 55 10.5 55.90625 9.296875 55.203125 
C 8.203125 54.609375 8 53.09375 8.90625 52.09375 
C 9.40625 51.59375 10.40625 51.203125 11.09375 50.890625 
L 41.59375 36.46875 
L 55.796875 29.75 
C 58 28.65625 60.296875 27.359375 62.59375 26.546875 
" id="Computer_Modern_Bright_Math_Slanted-62"/>
      <path d="M 10.703125 48 
C 12.796875 33.046875 15.09375 18.171875 17.09375 3.125 
C 17.296875 2.109375 17.296875 0.90625 17.796875 0.203125 
C 19.90625 0 22.59375 0 24.703125 0 
L 25.296875 0.703125 
L 44.703125 35.109375 
L 51.796875 48 
C 49.703125 48 47.5 48 45.703125 47.703125 
C 44.90625 46.59375 44.296875 45.484375 43.59375 44.265625 
C 36.59375 31.84375 29.40625 19.515625 22.703125 6.6875 
C 21.59375 16.984375 20 26.6875 18.59375 36.6875 
C 18 40.328125 17.90625 44.46875 16.90625 47.703125 
C 15.09375 48 12.796875 48 10.703125 48 
" id="Computer_Modern_Bright_Slanted-118"/>
      <path d="M 21.09375 70 
L 6.40625 0 
L 10.90625 0 
C 11.796875 0 13 -0.296875 13 1.015625 
C 13.203125 1.71875 13.296875 2.328125 13.40625 3.03125 
C 14.40625 7.78125 19 29.5 19.296875 30.40625 
C 20.40625 33.953125 22.40625 37.375 25.09375 39.90625 
C 28 42.4375 31.203125 43.84375 36.59375 42.9375 
C 38.796875 42.53125 40.90625 41.625 42 39.5 
C 43.5 36.46875 42.40625 32.9375 41.796875 29.90625 
L 35.5 0 
L 40.203125 0 
C 41.203125 0 42.09375 -0.203125 42.09375 1.109375 
C 42.703125 3.125 44.09375 10.625 44.09375 10.625 
L 48.59375 32 
C 49.40625 35.734375 50.296875 40.40625 48.203125 43.9375 
C 46.296875 46.984375 42.90625 48 39.59375 48.296875 
C 38.09375 48.296875 36.5 48.296875 35 48 
C 30.796875 47.3125 27.09375 45.09375 24.09375 42.09375 
C 22.90625 40.890625 21.5 39.59375 20.796875 37.984375 
L 20.703125 37.984375 
L 27.40625 70 
z
" id="Computer_Modern_Bright_Slanted-104"/>
      <path d="M 22.5 61 
L 21.5 55.9375 
C 26.296875 55.9375 31.40625 56.546875 35.703125 58.875 
L 24.5 5.046875 
C 20.296875 5.046875 15.296875 5.5625 11.5 5.046875 
C 10.90625 3.578125 10.703125 1.671875 10.296875 0 
C 21.09375 0 32.59375 0 42.796875 0 
C 43.40625 1.453125 43.703125 3.296875 44.09375 5.046875 
L 31 5.046875 
C 35.203125 26.0625 39.796875 46.59375 44.09375 67.5 
C 41.703125 67.5 42 67.09375 40 65.59375 
C 35.59375 62.59375 28.90625 61 22.5 61 
" id="Computer_Modern_Bright_Slanted-49"/>
     </defs>
     <g style="fill:#262626;" transform="translate(110.547714 48.724611)scale(0.14 -0.14)">
      <use transform="scale(0.996264)" xlink:href="#Computer_Modern_Bright_Slanted-101"/>
      <use transform="translate(44.831668 0)scale(0.996264)" xlink:href="#Computer_Modern_Bright_Slanted-103"/>
      <use transform="translate(92.984165 0)scale(0.996264)" xlink:href="#Computer_Modern_Bright_Slanted-108"/>
      <use transform="translate(112.079123 0)scale(0.996264)" xlink:href="#Computer_Modern_Bright_Slanted-45"/>
      <use transform="translate(145.287797 0)scale(0.996264)" xlink:href="#Computer_Modern_Bright_Slanted-57"/>
      <use transform="translate(238.372567 0)scale(0.996264)" xlink:href="#Computer_Modern_Bright_Math_Slanted-62"/>
      <use transform="translate(347.325246 0)scale(0.996264)" xlink:href="#Computer_Modern_Bright_Slanted-118"/>
      <use transform="translate(389.666284 0)scale(0.996264)" xlink:href="#Computer_Modern_Bright_Slanted-104"/>
      <use transform="translate(437.818781 0)scale(0.996264)" xlink:href="#Computer_Modern_Bright_Slanted-108"/>
      <use transform="translate(456.91374 0)scale(0.996264)" xlink:href="#Computer_Modern_Bright_Slanted-45"/>
      <use transform="translate(490.122414 0)scale(0.996264)" xlink:href="#Computer_Modern_Bright_Slanted-49"/>
     </g>
    </g>
    <g id="line2d_24">
     <path d="M 71.347714 62.949222 
L 99.347714 62.949222 
" style="fill:none;stroke:#1f78b4;stroke-linecap:round;stroke-width:2;"/>
    </g>
    <g id="line2d_25"/>
    <g id="text_17">
     <!-- Unbranched -->
     <defs>
      <path d="M 8 69.5 
L 8 32.75 
C 8 25.71875 7.203125 18.390625 10.703125 11.96875 
C 12.90625 7.84375 16.09375 4.4375 20.09375 2.125 
C 29.90625 -3.609375 43.5 -2.203125 51.296875 6.4375 
C 54.796875 10.359375 57.296875 15.171875 57.796875 21.796875 
C 57.90625 23.40625 57.796875 24.921875 57.796875 26.515625 
L 57.796875 69.5 
L 51.40625 69.5 
L 51.40625 25.90625 
C 51.40625 24.59375 51.5 23.1875 51.40625 21.890625 
C 51.203125 18.890625 50.59375 15.921875 49.40625 13.25 
C 43.90625 1 25 1 18 11.890625 
C 14.203125 17.78125 15 25.0625 15 31.65625 
L 15 69.5 
z
" id="Computer_Modern_Bright-85"/>
      <path d="M 6.40625 69.6875 
L 6.40625 0 
L 12.796875 0 
L 12.796875 21.984375 
C 12.796875 26.90625 12.5 31.9375 14.703125 36.546875 
C 15.796875 38.859375 17.5 40.875 19.796875 42.078125 
C 21.703125 42.984375 23.703125 42.984375 25.796875 42.78125 
C 28.796875 42.78125 31.703125 41.984375 33.59375 39.453125 
C 35.40625 37.140625 35.5 34.140625 35.5 31.3125 
L 35.5 0 
L 41.90625 0 
L 41.90625 27.21875 
C 41.90625 32.234375 42.40625 37.75 39.90625 42.28125 
C 37.90625 45.6875 34.40625 47.296875 30.703125 47.796875 
C 28.703125 48 26.703125 48 24.703125 47.703125 
C 21.09375 47.015625 18 45.03125 15.59375 42.34375 
C 14.5 41.046875 13.203125 39.46875 12.796875 37.765625 
L 12.703125 37.765625 
L 12.703125 69.6875 
z
" id="Computer_Modern_Bright-104"/>
      <path d="M 35.59375 69.6875 
L 35.59375 41.375 
C 33.703125 43.484375 31.796875 45.484375 29.203125 46.6875 
C 20.296875 50.40625 11.703125 45.59375 7.296875 37.65625 
C 2.203125 28.21875 2.796875 15.765625 8.90625 6.921875 
C 13.203125 0.796875 20.296875 -2.203125 27.796875 0.5 
C 30.703125 1.609375 34.203125 4.515625 35.40625 7.125 
L 35.5 7.125 
L 35.5 0 
L 41.90625 0 
L 41.90625 69.6875 
z
M 35.203125 37.453125 
C 35.703125 36.546875 35.5 35.34375 35.5 34.34375 
L 35.5 13.65625 
C 35.5 11.34375 35.40625 11.140625 34.09375 9.34375 
C 32.296875 6.625 29.5 4.71875 26.203125 4.421875 
C 21.40625 4.015625 16.5 6.328125 13.703125 10.25 
C 12.09375 12.546875 11.203125 15.359375 10.703125 18.171875 
C 10.5 19.28125 10.5 20.28125 10.40625 21.390625 
C 9.796875 28.015625 11.203125 35.84375 17 40.0625 
C 18 40.765625 19.09375 41.265625 20.203125 41.765625 
C 26 43.984375 32.40625 43.375 35.203125 37.453125 
" id="Computer_Modern_Bright-100"/>
     </defs>
     <g style="fill:#262626;" transform="translate(110.547714 67.849222)scale(0.14 -0.14)">
      <use transform="scale(0.996264)" xlink:href="#Computer_Modern_Bright-85"/>
      <use transform="translate(65.587132 0)scale(0.996264)" xlink:href="#Computer_Modern_Bright-110"/>
      <use transform="translate(113.739629 0)scale(0.996264)" xlink:href="#Computer_Modern_Bright-98"/>
      <use transform="translate(158.986397 0)scale(0.996264)" xlink:href="#Computer_Modern_Bright-114"/>
      <use transform="translate(190.949756 0)scale(0.996264)" xlink:href="#Computer_Modern_Bright-97"/>
      <use transform="translate(237.441838 0)scale(0.996264)" xlink:href="#Computer_Modern_Bright-110"/>
      <use transform="translate(285.594335 0)scale(0.996264)" xlink:href="#Computer_Modern_Bright-99"/>
      <use transform="translate(330.426003 0)scale(0.996264)" xlink:href="#Computer_Modern_Bright-104"/>
      <use transform="translate(378.5785 0)scale(0.996264)" xlink:href="#Computer_Modern_Bright-101"/>
      <use transform="translate(423.410167 0)scale(0.996264)" xlink:href="#Computer_Modern_Bright-100"/>
     </g>
    </g>
    <g id="line2d_26">
     <path d="M 71.347714 82.073833 
L 99.347714 82.073833 
" style="fill:none;stroke:#ff7f00;stroke-linecap:round;stroke-width:2;"/>
    </g>
    <g id="line2d_27"/>
    <g id="text_18">
     <!-- log-Additive -->
     <defs>
      <path d="M 35.40625 11.984375 
L 35.5 11.984375 
L 35.5 2.65625 
C 35.5 -0.15625 35.5 -2.859375 34.59375 -5.5625 
C 33.09375 -9.1875 30.5 -12.5 26.203125 -13.09375 
C 25 -13.203125 23.703125 -13.09375 22.5 -13 
C 16 -13 11.703125 -11.046875 6.5 -8.671875 
L 6.5 -12.484375 
C 6.5 -14.40625 6.796875 -14.5 8.703125 -15.109375 
C 13.796875 -17.21875 23 -19.3125 29.296875 -17.71875 
C 36.296875 -15.90625 41.40625 -9.28125 41.90625 -1.21875 
C 42 0.1875 41.90625 1.703125 41.90625 3.125 
L 41.90625 48 
L 35.59375 48 
L 35.59375 39.984375 
C 34.09375 42.484375 32.5 44.796875 29.90625 46.40625 
C 22.90625 50.625 13.40625 46 9.5 40.578125 
C 3.09375 32.640625 1.90625 20.34375 7 11.484375 
C 8 9.78125 9.203125 8.171875 10.59375 6.765625 
C 15.40625 2.046875 23.59375 -0.46875 29.5 3.75 
C 31.90625 5.359375 34.703125 9.078125 35.40625 11.984375 
M 25.5 43 
C 26.40625 43 27.40625 43 28.296875 42.796875 
C 31.90625 42.09375 33.90625 38.875 35.09375 35.65625 
C 35.796875 33.453125 35.59375 31.046875 35.59375 28.734375 
C 35.59375 23.71875 35.5 18.5 33.796875 13.765625 
C 32.59375 10.265625 30.09375 7.140625 26.203125 6.75 
C 24.90625 6.640625 23.59375 6.84375 22.296875 7.140625 
C 16.203125 8.546875 12 13.765625 10.703125 19.796875 
C 8.90625 28.53125 13.203125 39.171875 22 42.1875 
C 23.09375 42.59375 24.296875 42.890625 25.5 43 
" id="Computer_Modern_Bright-103"/>
      <path d="M 0.40625 26.015625 
L 0.40625 21 
L 28.296875 21 
L 28.296875 26.015625 
z
" id="Computer_Modern_Bright-45"/>
      <path d="M 2.09375 0.09375 
L 6.59375 0.09375 
L 8.40625 0.296875 
C 11.40625 6.796875 13.5 14.203125 16.203125 21 
C 26.09375 21 36.90625 21 46.296875 21 
L 47.09375 19.6875 
C 48.796875 14.546875 50.796875 9.59375 52.59375 4.546875 
C 53.09375 3.015625 53.59375 1.515625 54.40625 0.296875 
C 56.59375 0 59.203125 0 61.59375 0 
C 59.90625 4.90625 36.703125 67.203125 36 68.890625 
C 35.90625 69.296875 35.703125 69.890625 35.203125 70 
C 34.59375 70.09375 34 70 33.40625 70 
L 30.09375 70 
C 28.59375 70 28 70.1875 27.59375 68.609375 
C 27.203125 67.59375 2.09375 0.09375 2.09375 0.09375 
M 31.40625 63.171875 
C 35.59375 50.71875 40.09375 38.46875 44.5 26.21875 
L 18.203125 26.21875 
L 26.90625 50.109375 
z
" id="Computer_Modern_Bright-65"/>
      <path d="M 0.703125 47.5 
C 1.203125 45.5 4.203125 37.578125 4.40625 37.078125 
C 5.40625 34.28125 17.296875 0.609375 17.59375 0.296875 
C 17.90625 -0.203125 18.796875 0 19.296875 0 
L 22.796875 0 
C 24.09375 0 24.90625 -0.296875 25.203125 0.90625 
C 28.40625 9.328125 40.09375 42.703125 41.796875 47.5 
L 35.59375 47.5 
C 30.796875 33.984375 25.90625 20.4375 21.40625 6.609375 
L 11 36.203125 
C 9.5 39.796875 8.59375 43.890625 6.90625 47.203125 
C 5.09375 47.5 2.796875 47.5 0.703125 47.5 
" id="Computer_Modern_Bright-118"/>
     </defs>
     <g style="fill:#262626;" transform="translate(110.547714 86.973833)scale(0.14 -0.14)">
      <use transform="scale(0.996264)" xlink:href="#Computer_Modern_Bright-108"/>
      <use transform="translate(19.094959 0)scale(0.996264)" xlink:href="#Computer_Modern_Bright-111"/>
      <use transform="translate(69.738177 0)scale(0.996264)" xlink:href="#Computer_Modern_Bright-103"/>
      <use transform="translate(117.890674 0)scale(0.996264)" xlink:href="#Computer_Modern_Bright-45"/>
      <use transform="translate(151.099347 0)scale(0.996264)" xlink:href="#Computer_Modern_Bright-65"/>
      <use transform="translate(214.610965 0)scale(0.996264)" xlink:href="#Computer_Modern_Bright-100"/>
      <use transform="translate(262.763462 0)scale(0.996264)" xlink:href="#Computer_Modern_Bright-100"/>
      <use transform="translate(310.915959 0)scale(0.996264)" xlink:href="#Computer_Modern_Bright-105"/>
      <use transform="translate(330.010918 0)scale(0.996264)" xlink:href="#Computer_Modern_Bright-116"/>
      <use transform="translate(366.125306 0)scale(0.996264)" xlink:href="#Computer_Modern_Bright-105"/>
      <use transform="translate(385.220265 0)scale(0.996264)" xlink:href="#Computer_Modern_Bright-118"/>
      <use transform="translate(427.561303 0)scale(0.996264)" xlink:href="#Computer_Modern_Bright-101"/>
     </g>
    </g>
    <g id="line2d_28">
     <path d="M 71.347714 101.198444 
L 99.347714 101.198444 
" style="fill:none;stroke:#000000;stroke-linecap:round;stroke-width:2;"/>
    </g>
    <g id="line2d_29"/>
    <g id="text_19">
     <!-- \emph{vhl-1} $&gt;$ \emph{egl-9} -->
     <g style="fill:#262626;" transform="translate(110.547714 106.098444)scale(0.14 -0.14)">
      <use transform="scale(0.996264)" xlink:href="#Computer_Modern_Bright_Slanted-118"/>
      <use transform="translate(42.341038 0)scale(0.996264)" xlink:href="#Computer_Modern_Bright_Slanted-104"/>
      <use transform="translate(90.493535 0)scale(0.996264)" xlink:href="#Computer_Modern_Bright_Slanted-108"/>
      <use transform="translate(109.588494 0)scale(0.996264)" xlink:href="#Computer_Modern_Bright_Slanted-45"/>
      <use transform="translate(142.797167 0)scale(0.996264)" xlink:href="#Computer_Modern_Bright_Slanted-49"/>
      <use transform="translate(235.881937 0)scale(0.996264)" xlink:href="#Computer_Modern_Bright_Math_Slanted-62"/>
      <use transform="translate(344.834617 0)scale(0.996264)" xlink:href="#Computer_Modern_Bright_Slanted-101"/>
      <use transform="translate(389.666284 0)scale(0.996264)" xlink:href="#Computer_Modern_Bright_Slanted-103"/>
      <use transform="translate(437.818781 0)scale(0.996264)" xlink:href="#Computer_Modern_Bright_Slanted-108"/>
      <use transform="translate(456.91374 0)scale(0.996264)" xlink:href="#Computer_Modern_Bright_Slanted-45"/>
      <use transform="translate(490.122414 0)scale(0.996264)" xlink:href="#Computer_Modern_Bright_Slanted-57"/>
     </g>
    </g>
    <g id="line2d_30">
     <path d="M 71.347714 120.323055 
L 99.347714 120.323055 
" style="fill:none;stroke:#33a02c;stroke-linecap:round;stroke-width:2;"/>
    </g>
    <g id="line2d_31"/>
    <g id="text_20">
     <!-- data -->
     <g style="fill:#262626;" transform="translate(110.547714 125.223055)scale(0.14 -0.14)">
      <use transform="scale(0.996264)" xlink:href="#Computer_Modern_Bright-100"/>
      <use transform="translate(48.152497 0)scale(0.996264)" xlink:href="#Computer_Modern_Bright-97"/>
      <use transform="translate(94.644579 0)scale(0.996264)" xlink:href="#Computer_Modern_Bright-116"/>
      <use transform="translate(130.758967 0)scale(0.996264)" xlink:href="#Computer_Modern_Bright-97"/>
     </g>
    </g>
   </g>
  </g>
 </g>
 <defs>
  <clipPath id="p354e2e12f1">
   <rect height="298.98" width="446.4" x="58.747714" y="7.2"/>
  </clipPath>
 </defs>
</svg>
