<?xml version="1.0" encoding="utf-8" standalone="no"?>
<!DOCTYPE svg PUBLIC "-//W3C//DTD SVG 1.1//EN"
  "http://www.w3.org/Graphics/SVG/1.1/DTD/svg11.dtd">
<!-- Created with matplotlib (http://matplotlib.org/) -->
<svg height="353pt" version="1.1" viewBox="0 0 503 353" width="503pt" xmlns="http://www.w3.org/2000/svg" xmlns:xlink="http://www.w3.org/1999/xlink">
 <defs>
  <style type="text/css">
*{stroke-linecap:butt;stroke-linejoin:round;}
  </style>
 </defs>
 <g id="figure_1">
  <g id="patch_1">
   <path d="M 0 353.548374 
L 503.979163 353.548374 
L 503.979163 0 
L 0 0 
z
" style="fill:#ffffff;"/>
  </g>
  <g id="axes_1">
   <g id="patch_2">
    <path d="M 50.379163 306.18 
L 496.779163 306.18 
L 496.779163 7.2 
L 50.379163 7.2 
z
" style="fill:#eaeaf2;"/>
   </g>
   <g id="matplotlib.axis_1">
    <g id="xtick_1">
     <g id="line2d_1"/>
     <g id="text_1">
      <!-- $-1.0$ -->
      <defs>
       <path d="M 9.796875 28.078125 
C 8 27.484375 7.796875 24.78125 9.796875 24.28125 
C 10.296875 24.078125 10.90625 24.1875 11.5 24.1875 
L 64.703125 24.1875 
C 65.90625 24.1875 67.796875 23.78125 68.796875 24.78125 
C 69.90625 25.875 69.296875 27.875 67.703125 28.1875 
C 66.5 28.375 65.09375 28.1875 63.90625 28.1875 
L 11.40625 28.1875 
C 10.90625 28.1875 10.296875 28.28125 9.796875 28.078125 
" id="Computer_Modern_Bright_Math_Symbols-0"/>
       <path d="M 9.703125 60.015625 
L 9.703125 55 
C 15.203125 55 19 56 23.40625 57.90625 
L 23.40625 5.015625 
L 10.296875 5.015625 
L 10.296875 0 
L 43 0 
L 43 5.015625 
L 29.90625 5.015625 
L 29.90625 67 
C 27.5 67 27.90625 66.359375 26 64.875 
C 21.90625 61.71875 16.203125 60.015625 9.703125 60.015625 
" id="Computer_Modern_Bright-49"/>
       <path d="M 10.703125 7.8125 
L 10.703125 0 
L 18.5 0 
L 18.5 7.8125 
z
" id="Computer_Modern_Bright_Math_Slanted-58"/>
       <path d="M 14.796875 63.859375 
C 11.90625 61.859375 9.90625 59.140625 8.40625 56.03125 
C 4.796875 49 4.40625 40.765625 4.40625 31.828125 
C 4.40625 20.578125 6.40625 10.25 12 4.3125 
C 17.296875 -1.203125 25.703125 -2.609375 32.796875 0.296875 
C 37.203125 2.015625 40.40625 5.71875 42.40625 9.734375 
C 46 16.875 46.40625 25.40625 46.40625 34.234375 
C 46.40625 37.046875 46.296875 39.859375 46 42.671875 
C 45.296875 49.40625 43 56.828125 39.296875 60.953125 
C 33.203125 67.6875 22.296875 69.1875 14.796875 63.859375 
M 34.90625 58.140625 
C 39.59375 53.125 40 43.484375 40 34.34375 
L 40 28.921875 
C 40 24.296875 39.203125 18.28125 38.203125 14.859375 
C 36.796875 10.140625 34.5 6.734375 29.90625 4.625 
C 24.296875 2.609375 18.5 4.515625 15.296875 8.9375 
C 11 14.65625 10.796875 24.796875 10.796875 33.734375 
C 10.796875 42.171875 10.90625 51.515625 15 57.03125 
C 19.5 63.0625 29.203125 64.0625 34.90625 58.140625 
" id="Computer_Modern_Bright-48"/>
      </defs>
      <g style="fill:#262626;" transform="translate(76.231909 324.249603)scale(0.16 -0.16)">
       <use transform="scale(0.996264)" xlink:href="#Computer_Modern_Bright_Math_Symbols-0"/>
       <use transform="translate(77.487468 0)scale(0.996264)" xlink:href="#Computer_Modern_Bright-49"/>
       <use transform="translate(128.130685 0)scale(0.996264)" xlink:href="#Computer_Modern_Bright_Math_Slanted-58"/>
       <use transform="translate(157.188132 0)scale(0.996264)" xlink:href="#Computer_Modern_Bright-48"/>
      </g>
     </g>
    </g>
    <g id="xtick_2">
     <g id="line2d_2"/>
     <g id="text_2">
      <!-- $-0.8$ -->
      <defs>
       <path d="M 18.703125 36 
L 18.703125 35.90625 
C 12.5 34.09375 7.296875 30.6875 4.796875 24.84375 
C 2.203125 18.71875 4 11.28125 8.40625 6.453125 
C 13.09375 1.421875 19.5 -1 26.296875 -1 
C 36.296875 -1 45.90625 6.40625 47.09375 16.734375 
C 47.296875 18.265625 47.203125 19.890625 47 21.40625 
C 45.203125 29.21875 39.5 33.875 32.09375 35.90625 
C 32.90625 36.203125 33.796875 36.40625 34.59375 36.703125 
C 38.796875 38.421875 42.296875 40.921875 44.5 44.9375 
C 47.796875 51.375 44.59375 58.90625 39.203125 63.015625 
C 33.796875 67.140625 26.5 68.234375 19.90625 66.828125 
C 12 65.125 4.5 58.40625 5 49.765625 
C 5.203125 46.75 6.5 44.234375 8 42.4375 
C 10.296875 39.625 14.796875 36.609375 18.703125 36 
M 23.796875 62.5 
C 28.203125 62.5 33.703125 62 36.90625 58.578125 
C 40.703125 54.46875 40.90625 47.03125 37.09375 42.8125 
C 34.703125 40.203125 31.203125 38.890625 27.703125 38.59375 
C 22.796875 38.1875 17.203125 39 13.703125 42.8125 
C 9.796875 47.125 10.09375 54.96875 14.296875 58.984375 
C 16.90625 61.390625 20.40625 62.1875 23.796875 62.5 
M 23.703125 33.5 
C 28.40625 33.5 33.5 32.390625 36.90625 28.9375 
C 38.203125 27.53125 39.203125 25.8125 39.796875 24.015625 
C 41.5 18.75 40.703125 12.09375 36.796875 8.046875 
C 34.09375 5.328125 30.40625 4.3125 26.703125 4.015625 
C 22.203125 4.015625 17 5.109375 13.796875 8.5625 
C 9.40625 13.390625 8.5 23.40625 13.703125 29.0625 
C 16.296875 31.78125 20 33.203125 23.703125 33.5 
" id="Computer_Modern_Bright-56"/>
      </defs>
      <g style="fill:#262626;" transform="translate(150.929775 324.249603)scale(0.16 -0.16)">
       <use transform="scale(0.996264)" xlink:href="#Computer_Modern_Bright_Math_Symbols-0"/>
       <use transform="translate(77.487468 0)scale(0.996264)" xlink:href="#Computer_Modern_Bright-48"/>
       <use transform="translate(128.130685 0)scale(0.996264)" xlink:href="#Computer_Modern_Bright_Math_Slanted-58"/>
       <use transform="translate(157.188132 0)scale(0.996264)" xlink:href="#Computer_Modern_Bright-56"/>
      </g>
     </g>
    </g>
    <g id="xtick_3">
     <g id="line2d_3"/>
     <g id="text_3">
      <!-- $-0.6$ -->
      <defs>
       <path d="M 11.296875 32.625 
L 11.203125 32.625 
C 11.203125 41.765625 12.796875 52.421875 20.59375 58.25 
C 24.90625 61.375 30.703125 62.96875 38.203125 61.171875 
C 39.796875 60.765625 41.296875 60.15625 42.796875 59.765625 
L 42.796875 63.28125 
C 42.796875 63.671875 42.90625 64.375 42.59375 64.78125 
C 41.90625 65.6875 36.296875 66.59375 36.09375 66.59375 
C 27.40625 67.59375 21.703125 65.6875 16.40625 61.171875 
C 10 55.640625 6.296875 47.515625 5.09375 39.28125 
C 4 32.65625 4.90625 22 6.203125 16.78125 
C 8.296875 9.046875 12.296875 2.21875 19.703125 -0.390625 
C 24.09375 -2 29.5 -2 33.703125 0.015625 
C 37.09375 1.640625 39.90625 4.46875 42.09375 7.5 
C 45.59375 12.34375 46.5 18.21875 46.09375 24.171875 
C 45.90625 27.109375 45.5 30.046875 44.296875 32.765625 
C 42.40625 37.125 39.203125 41.671875 35.09375 43.6875 
C 33.203125 44.5 31.203125 44.5 29.203125 44.5 
C 23.90625 44.5 18.90625 42.1875 15.203125 38.359375 
C 13.59375 36.75 12 34.71875 11.296875 32.625 
M 24.40625 39.515625 
C 28.203125 39.8125 32.203125 39.21875 35.09375 36.5 
C 38.90625 32.890625 39.59375 27.765625 39.59375 22.8125 
C 39.59375 19.46875 39.703125 16.015625 38.703125 12.859375 
C 38.09375 11.234375 37.296875 9.828125 36.40625 8.5 
C 34.203125 5.5625 31.40625 4.125 26.796875 3.515625 
C 22.296875 3.515625 17.796875 5.3125 15.203125 9.125 
C 13.59375 11.328125 12.796875 14.046875 12.296875 16.640625 
C 11.703125 19.34375 11.296875 22.140625 11.5 24.859375 
C 12 31.984375 17 38.515625 24.40625 39.515625 
" id="Computer_Modern_Bright-54"/>
      </defs>
      <g style="fill:#262626;" transform="translate(225.627641 324.249603)scale(0.16 -0.16)">
       <use transform="scale(0.996264)" xlink:href="#Computer_Modern_Bright_Math_Symbols-0"/>
       <use transform="translate(77.487468 0)scale(0.996264)" xlink:href="#Computer_Modern_Bright-48"/>
       <use transform="translate(128.130685 0)scale(0.996264)" xlink:href="#Computer_Modern_Bright_Math_Slanted-58"/>
       <use transform="translate(157.188132 0)scale(0.996264)" xlink:href="#Computer_Modern_Bright-54"/>
      </g>
     </g>
    </g>
    <g id="xtick_4">
     <g id="line2d_4"/>
     <g id="text_4">
      <!-- $-0.4$ -->
      <defs>
       <path d="M 2.09375 18 
L 31 18 
L 31 0 
L 37.296875 0 
L 37.296875 18 
L 48.703125 18 
L 48.703125 23.328125 
L 37.296875 23.328125 
L 37.296875 66.46875 
L 31.90625 66.46875 
C 30.09375 66.46875 29.59375 66.578125 28.796875 65.0625 
C 24.796875 58.515625 3.703125 25.765625 3 24.859375 
C 2.203125 23.4375 2.09375 23.546875 2.09375 21.4375 
z
M 31.296875 60.875 
L 31.296875 23.328125 
L 8.59375 23.328125 
C 9.296875 24.734375 10.296875 26.03125 11.203125 27.4375 
C 16.203125 35.171875 28.09375 53.546875 30.59375 59.28125 
C 30.90625 59.78125 31 60.375 31.296875 60.875 
" id="Computer_Modern_Bright-52"/>
      </defs>
      <g style="fill:#262626;" transform="translate(300.325506 324.249603)scale(0.16 -0.16)">
       <use transform="scale(0.996264)" xlink:href="#Computer_Modern_Bright_Math_Symbols-0"/>
       <use transform="translate(77.487468 0)scale(0.996264)" xlink:href="#Computer_Modern_Bright-48"/>
       <use transform="translate(128.130685 0)scale(0.996264)" xlink:href="#Computer_Modern_Bright_Math_Slanted-58"/>
       <use transform="translate(157.188132 0)scale(0.996264)" xlink:href="#Computer_Modern_Bright-52"/>
      </g>
     </g>
    </g>
    <g id="xtick_5">
     <g id="line2d_5"/>
     <g id="text_5">
      <!-- $-0.2$ -->
      <defs>
       <path d="M 7.296875 45.96875 
C 8.703125 51.59375 11.09375 57.984375 16.796875 60.5 
C 19.203125 61.5 21.796875 61.703125 24.40625 61.5 
C 29.296875 61.09375 34.09375 59.09375 37.09375 55.09375 
C 39.296875 52.078125 40.09375 48.375 39.703125 44.78125 
C 38.5 34.34375 28.296875 26.84375 21.703125 21.234375 
C 17.90625 18.03125 7.09375 7.8125 7.09375 7.8125 
L 5.40625 6.203125 
C 4.5 5.3125 4.40625 5.3125 4.40625 3.5 
L 4.40625 0 
L 46.40625 0 
L 46.40625 5.625 
L 10.203125 5.625 
C 13.40625 8.734375 26.703125 20.515625 28.5 21.921875 
C 34.296875 26.65625 40.796875 31.375 44.296875 38.21875 
C 48.203125 46.0625 46.5 55.9375 39.90625 61.765625 
C 35.90625 65.296875 30.40625 67 25.09375 67 
C 20.203125 67 15.203125 66 11.296875 62.90625 
C 8.296875 60.390625 5.796875 56.6875 4.40625 52.875 
C 4.09375 52.28125 3.59375 51.28125 3.703125 50.578125 
C 3.796875 49.984375 4.40625 49.484375 4.703125 49.078125 
C 5.5 48.078125 6.296875 46.875 7.296875 45.96875 
" id="Computer_Modern_Bright-50"/>
      </defs>
      <g style="fill:#262626;" transform="translate(375.023372 324.249603)scale(0.16 -0.16)">
       <use transform="scale(0.996264)" xlink:href="#Computer_Modern_Bright_Math_Symbols-0"/>
       <use transform="translate(77.487468 0)scale(0.996264)" xlink:href="#Computer_Modern_Bright-48"/>
       <use transform="translate(128.130685 0)scale(0.996264)" xlink:href="#Computer_Modern_Bright_Math_Slanted-58"/>
       <use transform="translate(157.188132 0)scale(0.996264)" xlink:href="#Computer_Modern_Bright-50"/>
      </g>
     </g>
    </g>
    <g id="xtick_6">
     <g id="line2d_6"/>
     <g id="text_6">
      <!-- $0.0$ -->
      <g style="fill:#262626;" transform="translate(455.920236 324.249603)scale(0.16 -0.16)">
       <use transform="scale(0.996264)" xlink:href="#Computer_Modern_Bright-48"/>
       <use transform="translate(50.643218 0)scale(0.996264)" xlink:href="#Computer_Modern_Bright_Math_Slanted-58"/>
       <use transform="translate(79.700665 0)scale(0.996264)" xlink:href="#Computer_Modern_Bright-48"/>
      </g>
     </g>
    </g>
    <g id="text_7">
     <!-- Epistasis Coefficient -->
     <defs>
      <path d="M 8 69.328125 
L 8 0 
L 55.40625 0 
L 55.40625 5.625 
L 15 5.625 
L 15 33.671875 
L 51.09375 33.671875 
L 51.09375 39 
L 15 39 
L 15 64 
L 54 64 
L 54 69.328125 
z
" id="Computer_Modern_Bright-69"/>
      <path d="M 12.703125 40.53125 
L 12.703125 47.15625 
L 6.40625 47.15625 
L 6.40625 -17 
L 12.796875 -17 
L 12.796875 6.09375 
C 14.203125 4.078125 15.796875 2.28125 17.90625 1.078125 
C 25 -3.25 34 0.171875 38.90625 6.59375 
C 45.40625 14.96875 46.09375 27.5 41.59375 36.984375 
C 39 42.4375 34.09375 47.5 27.796875 48 
C 22.296875 48 18.09375 45.8125 15.09375 43.125 
C 14.203125 42.328125 13.5 41.4375 12.703125 40.53125 
M 21.90625 42.875 
C 26 43.171875 30 41.265625 32.796875 38.265625 
C 34.5 36.34375 35.796875 34.140625 36.59375 31.734375 
C 40.09375 22.296875 36.90625 9.234375 26.796875 5.328125 
C 21 3.109375 15.296875 5.125 13.09375 10.546875 
C 12.59375 11.546875 12.796875 12.859375 12.796875 13.953125 
L 12.796875 34.640625 
C 12.796875 36.953125 13 37.15625 14.5 38.859375 
C 16.296875 41.0625 19 42.578125 21.90625 42.875 
" id="Computer_Modern_Bright-112"/>
      <path d="M 6.40625 70 
L 6.40625 63.671875 
L 12.703125 63.671875 
L 12.703125 70 
z
M 6.40625 47.390625 
L 6.40625 0 
L 12.703125 0 
L 12.703125 47.390625 
z
" id="Computer_Modern_Bright-105"/>
      <path d="M 3.09375 9.640625 
C 2.90625 8.234375 2.59375 6.9375 2.40625 5.53125 
C 2.203125 4.421875 1.90625 3.921875 2.90625 3.421875 
C 7 1.015625 11.90625 -0.296875 17.703125 -0.796875 
C 24.203125 -1.40625 32.40625 0.109375 35.59375 6.53125 
C 36.5 8.34375 37 10.34375 37.09375 12.359375 
C 37.5 19.578125 31.796875 24.203125 26.90625 25.90625 
C 21.40625 28.015625 13.90625 27.3125 10.09375 31.53125 
C 8.09375 33.84375 8 37.265625 9.90625 39.671875 
C 13.90625 45.296875 26.796875 42.875 31.90625 40.375 
C 32.703125 39.96875 33.40625 39.46875 34.296875 39.265625 
L 35.203125 44.6875 
C 30.5 46.796875 26.40625 48 19.90625 48 
C 14.296875 48 9.203125 46.703125 6 43.484375 
C 2.796875 40.171875 1.703125 34.640625 3.59375 30.4375 
C 5.40625 26.40625 9.203125 23.796875 13.296875 22.5 
C 19.203125 20.390625 25.90625 21.390625 29.796875 16.578125 
C 32 13.765625 31.59375 9.546875 29.09375 7.03125 
C 24.296875 2.609375 14.09375 4.21875 8.5 6.625 
C 6.59375 7.4375 4.90625 8.640625 3.09375 9.640625 
" id="Computer_Modern_Bright-115"/>
      <path d="M 10.796875 60.5 
L 10.796875 47.015625 
L 1.09375 47.015625 
L 1.09375 42 
L 10.703125 42 
L 10.703125 15.015625 
C 10.703125 10.578125 10.40625 5.234375 13.296875 1.515625 
C 15 -0.703125 17.296875 -1.296875 20.796875 -1 
C 23.703125 -1 26.59375 -0.390625 29.296875 0.65625 
C 30.203125 1.0625 33.5 2.515625 33.90625 3.234375 
C 34.09375 3.640625 32.796875 8.09375 32.796875 8.09375 
L 30.40625 6.265625 
C 27.296875 4.34375 21.09375 2.328125 18.5 5.96875 
C 16.203125 9.09375 16.796875 13.75 16.796875 17.375 
L 16.796875 42 
L 32.296875 42 
L 32.296875 47.015625 
L 16.796875 47.015625 
L 16.796875 60.5 
z
" id="Computer_Modern_Bright-116"/>
      <path d="M 7.90625 39.015625 
C 9.59375 39.859375 11 41.09375 12.703125 41.921875 
C 15.40625 43.15625 18.203125 44 21.203125 44 
C 22.59375 44.09375 24.203125 44.296875 25.59375 44 
C 28.09375 43.59375 30.296875 42.078125 31.796875 39.953125 
C 33.296875 37.515625 33.90625 35.390625 33.90625 31.46875 
L 33.90625 27.015625 
C 29.09375 27.015625 24.296875 26.609375 19.703125 25.390625 
C 13.90625 24.078125 7.59375 21.125 5.5 15.84375 
C 3.40625 10.78125 5.59375 4.078125 10.09375 1.03125 
C 12.296875 -0.5 14.90625 -0.5 17.5 -0.296875 
C 21.703125 0 25.90625 1.015625 29.5 3.25 
C 31.203125 4.25 32.90625 5.578125 33.90625 7.296875 
L 34 7.296875 
L 34 0.203125 
L 40.296875 0.203125 
L 40.296875 26.890625 
C 40.296875 29.8125 40.59375 32.953125 40 35.890625 
C 39.40625 39.921875 36.90625 43.265625 34 45.59375 
C 30.59375 48.21875 26.703125 49.109375 21.5 48.71875 
C 16.703125 48.71875 13 47.5 9.40625 45.765625 
C 8.90625 45.5625 7.90625 45.234375 7.59375 44.640625 
C 7.296875 44.21875 7.5 43.515625 7.5 43 
C 7.703125 41.671875 7.796875 40.34375 7.90625 39.015625 
M 33.90625 24 
L 33.90625 16.375 
C 33.90625 14.0625 34 11.953125 32.703125 9.953125 
C 31.59375 8.34375 30.09375 7.234375 28.5 6.4375 
C 22.796875 3.515625 14.09375 4.421875 11.59375 9.25 
C 9.59375 12.75 11.703125 16.875 14.59375 19.1875 
C 18.90625 22.5 27.296875 24 33.90625 24 
" id="Computer_Modern_Bright-97"/>
      <path d="M 60.5 10.875 
C 58.5 9.859375 56.703125 8.453125 54.703125 7.453125 
C 50 5.046875 44 4.140625 37.5 4.734375 
C 31.703125 5.546875 26.90625 8.359375 23.40625 11.875 
C 12.203125 23.15625 11.40625 42.96875 21.296875 55.34375 
C 25.5 60.875 31.90625 65 41.296875 65 
C 45.09375 65 49 64.296875 52.5 62.890625 
C 54.59375 61.96875 56.59375 60.765625 58.59375 59.765625 
L 59.796875 66.8125 
C 57.59375 67.671875 55.296875 68.5625 53 69.09375 
C 47.40625 70.625 38.90625 70.625 33.09375 69.21875 
C 22.90625 66.921875 15.5 59.828125 11.296875 51.625 
C 5.5 40.015625 6.203125 25.515625 13.203125 14.59375 
C 15 11.703125 17.296875 9.109375 19.90625 6.890625 
C 25.90625 1.6875 33.296875 -1.3125 43.59375 -0.5 
C 49.796875 -0.5 53.40625 0.515625 58.203125 3.203125 
C 58.703125 3.5 60.59375 4.515625 60.90625 4.9375 
C 61.09375 5.4375 60.59375 9.53125 60.5 10.875 
" id="Computer_Modern_Bright-67"/>
      <path d="M 10.703125 42.078125 
C 1.796875 33.234375 0.796875 17.875 8.5 7.9375 
C 9.59375 6.421875 10.90625 5.125 12.40625 4.015625 
C 16.09375 1 21.5 -1.203125 27.796875 -0.5 
C 37.796875 0.703125 44.703125 8.84375 46.796875 17.375 
C 49.59375 29.328125 43.703125 42.671875 32.703125 46.890625 
C 24.09375 50.40625 15.5 46.890625 10.703125 42.078125 
M 35.703125 39.359375 
C 40.5 35.03125 41.40625 28.109375 41 21.984375 
C 40.703125 17.265625 39.40625 12.34375 36.09375 8.828125 
C 30.703125 3 20.703125 3 14.90625 8.625 
C 11.90625 11.84375 10.09375 16.453125 9.796875 21.984375 
C 9.296875 30.109375 11.296875 38.75 19.296875 41.96875 
C 25.203125 44.578125 32 42.671875 35.703125 39.359375 
" id="Computer_Modern_Bright-111"/>
      <path d="M 41.796875 10.9375 
C 39.5 9.234375 38.796875 8.328125 35.90625 6.8125 
C 29.796875 3.5 22.59375 3.5 17.40625 7.171875 
C 12.40625 10.765625 9.5 16.640625 9.5 25 
L 42.5 25 
C 42.5 32.421875 40.796875 38.859375 36.59375 43.375 
C 32 47.890625 24.796875 49.296875 18.703125 47.390625 
C 16.40625 46.6875 14.296875 45.484375 12.40625 43.96875 
C 6.09375 38.859375 3.40625 30.71875 3.5 22.78125 
C 3.703125 12.34375 10.796875 1.90625 21.296875 -0.3125 
C 26.796875 -1.421875 32.59375 -0.203125 37.5 2.296875 
C 38.40625 2.796875 41.703125 4.609375 42.09375 5.515625 
C 42.40625 6.015625 41.796875 10.9375 41.796875 10.9375 
M 37.203125 28.90625 
L 10 28.90625 
C 11.203125 36.234375 17.203125 43.96875 25.296875 43.0625 
C 31.90625 42.46875 35.40625 37.75 36.703125 31.828125 
C 36.90625 30.8125 37 29.921875 37.203125 28.90625 
" id="Computer_Modern_Bright-101"/>
      <path d="M 10.59375 47.015625 
L 2 47.015625 
L 2 42 
L 10.59375 42 
L 10.59375 0 
L 16.90625 0 
L 16.90625 42 
L 30.09375 42 
L 30.09375 47.015625 
L 16.796875 47.015625 
L 16.796875 56.234375 
C 16.796875 57.890625 16.59375 59.65625 17.296875 61.21875 
C 19.5 65.875 25.40625 65.875 29.59375 65.078125 
C 30.59375 64.875 31.703125 64.46875 32.703125 64.265625 
L 32.703125 69.90625 
C 27.703125 70.609375 22.296875 71.21875 17.703125 68.46875 
C 15.796875 67.4375 14.203125 65.6875 13 63.921875 
C 11.09375 60.9375 10.59375 58.78125 10.59375 53.71875 
z
M 38.09375 0 
L 44.40625 0 
L 44.40625 42 
L 57.59375 42 
L 57.59375 47.015625 
L 44.296875 47.015625 
L 44.296875 55.234375 
C 44.296875 56.890625 44.09375 58.65625 44.40625 60.328125 
C 44.90625 62.296875 46.09375 63.65625 47.703125 64.671875 
C 50.796875 66.171875 54.40625 65.078125 57.59375 64.171875 
L 57.59375 70 
C 55.09375 70.1875 52.703125 70.6875 50.203125 70.5 
C 43.40625 70 38.59375 64.046875 38.09375 57.3125 
C 38 55.890625 38.09375 54.375 38.09375 52.96875 
z
M 65.59375 70 
L 65.59375 63.671875 
L 71.90625 63.671875 
L 71.90625 70 
z
M 65.59375 47.390625 
L 65.59375 0 
L 71.90625 0 
L 71.90625 47.390625 
z
" id="Computer_Modern_Bright-14"/>
      <path d="M 42.40625 11.25 
C 40.5 9.84375 38.796875 8.328125 36.703125 7.125 
C 32 4.625 24.796875 3.421875 19.40625 5.921875 
C 11.59375 9.9375 9.5 19.6875 10.59375 27.71875 
C 10.796875 29.328125 11.09375 30.921875 11.59375 32.4375 
C 13.796875 38.96875 19.296875 44.078125 28.296875 43.078125 
C 33.09375 42.671875 35.5 41.875 39.296875 39.765625 
C 40 39.359375 40.59375 38.859375 41.40625 38.65625 
C 41.5 39.859375 41.796875 41.171875 42 42.375 
C 42.296875 43.984375 42.296875 44.1875 40.796875 44.890625 
C 39.703125 45.390625 38.59375 45.984375 37.40625 46.390625 
C 32.796875 48.40625 25.203125 49 20 47.5 
C 12.90625 45.484375 7.59375 39.359375 5.296875 32.53125 
C 4.203125 29.421875 3.90625 26.109375 3.90625 22.796875 
C 4 12.25 11.203125 1.90625 21.703125 -0.203125 
C 27.5 -1.40625 34.203125 0.296875 38.203125 2.40625 
C 39.203125 2.90625 42.203125 4.71875 42.703125 5.625 
C 43 6.125 42.40625 11.25 42.40625 11.25 
" id="Computer_Modern_Bright-99"/>
      <path d="M 12.59375 37.28125 
L 12.5 37.28125 
L 12.5 47.390625 
L 6.40625 47.390625 
L 6.40625 0 
L 12.796875 0 
L 12.796875 21.9375 
C 12.796875 26.84375 12.5 31.875 14.703125 36.46875 
C 15.796875 38.78125 17.5 40.78125 19.796875 41.984375 
C 21.703125 42.890625 23.703125 42.890625 25.796875 42.6875 
C 28.796875 42.6875 31.703125 41.890625 33.59375 39.375 
C 35.40625 37.0625 35.5 34.0625 35.5 31.25 
L 35.5 0 
L 41.90625 0 
L 41.90625 26.859375 
C 41.90625 31.875 42.40625 37.375 40 41.890625 
C 38.09375 45.5 34.40625 47.203125 30.5 47.703125 
C 28.5 48 26.40625 48 24.40625 47.609375 
C 19.203125 46.5 14.40625 42.296875 12.59375 37.28125 
" id="Computer_Modern_Bright-110"/>
     </defs>
     <g style="fill:#262626;" transform="translate(201.022873 343.359582)scale(0.18 -0.18)">
      <use transform="scale(0.996264)" xlink:href="#Computer_Modern_Bright-69"/>
      <use transform="translate(58.737787 0)scale(0.996264)" xlink:href="#Computer_Modern_Bright-112"/>
      <use transform="translate(106.890284 0)scale(0.996264)" xlink:href="#Computer_Modern_Bright-105"/>
      <use transform="translate(125.985243 0)scale(0.996264)" xlink:href="#Computer_Modern_Bright-115"/>
      <use transform="translate(164.424272 0)scale(0.996264)" xlink:href="#Computer_Modern_Bright-116"/>
      <use transform="translate(200.53866 0)scale(0.996264)" xlink:href="#Computer_Modern_Bright-97"/>
      <use transform="translate(247.030742 0)scale(0.996264)" xlink:href="#Computer_Modern_Bright-115"/>
      <use transform="translate(285.469772 0)scale(0.996264)" xlink:href="#Computer_Modern_Bright-105"/>
      <use transform="translate(304.56473 0)scale(0.996264)" xlink:href="#Computer_Modern_Bright-115"/>
      <use transform="translate(374.468971 0)scale(0.996264)" xlink:href="#Computer_Modern_Bright-67"/>
      <use transform="translate(439.641004 0)scale(0.996264)" xlink:href="#Computer_Modern_Bright-111"/>
      <use transform="translate(490.284222 0)scale(0.996264)" xlink:href="#Computer_Modern_Bright-101"/>
      <use transform="translate(535.115889 0)scale(0.996264)" xlink:href="#Computer_Modern_Bright-14"/>
      <use transform="translate(613.156322 0)scale(0.996264)" xlink:href="#Computer_Modern_Bright-99"/>
      <use transform="translate(657.987989 0)scale(0.996264)" xlink:href="#Computer_Modern_Bright-105"/>
      <use transform="translate(677.082948 0)scale(0.996264)" xlink:href="#Computer_Modern_Bright-101"/>
      <use transform="translate(721.914616 0)scale(0.996264)" xlink:href="#Computer_Modern_Bright-110"/>
      <use transform="translate(770.067113 0)scale(0.996264)" xlink:href="#Computer_Modern_Bright-116"/>
     </g>
    </g>
   </g>
   <g id="matplotlib.axis_2">
    <g id="ytick_1">
     <g id="line2d_7"/>
     <g id="text_8">
      <!-- $0$ -->
      <g style="fill:#262626;" transform="translate(35.010613 298.124802)scale(0.16 -0.16)">
       <use transform="scale(0.996264)" xlink:href="#Computer_Modern_Bright-48"/>
      </g>
     </g>
    </g>
    <g id="ytick_2">
     <g id="line2d_8"/>
     <g id="text_9">
      <!-- $10$ -->
      <g style="fill:#262626;" transform="translate(26.642062 264.814924)scale(0.16 -0.16)">
       <use transform="scale(0.996264)" xlink:href="#Computer_Modern_Bright-49"/>
       <use transform="translate(50.643218 0)scale(0.996264)" xlink:href="#Computer_Modern_Bright-48"/>
      </g>
     </g>
    </g>
    <g id="ytick_3">
     <g id="line2d_9"/>
     <g id="text_10">
      <!-- $20$ -->
      <g style="fill:#262626;" transform="translate(26.642062 231.505045)scale(0.16 -0.16)">
       <use transform="scale(0.996264)" xlink:href="#Computer_Modern_Bright-50"/>
       <use transform="translate(50.643218 0)scale(0.996264)" xlink:href="#Computer_Modern_Bright-48"/>
      </g>
     </g>
    </g>
    <g id="ytick_4">
     <g id="line2d_10"/>
     <g id="text_11">
      <!-- $30$ -->
      <defs>
       <path d="M 8.09375 50.71875 
C 8.90625 51.921875 9.5 53.234375 10.40625 54.4375 
C 12.5 57.25 15.40625 59.453125 18.703125 60.765625 
C 23.90625 62.875 31.5 62.875 35.59375 58.21875 
C 39.203125 54.078125 37.703125 47.609375 34.40625 43.78125 
C 31.40625 40.25 27.5 38.53125 21.703125 38.53125 
C 20 38.53125 18.40625 38.03125 16.703125 38.03125 
L 16.703125 33 
L 23.59375 33 
C 29.40625 33 33.203125 32.109375 36.40625 28.6875 
C 41.90625 22.859375 41.40625 12.515625 35.296875 7.203125 
C 32.203125 4.59375 27.90625 3.78125 23.90625 4.078125 
C 16.09375 4.6875 9.203125 8.8125 4.59375 15.234375 
C 4.09375 14.234375 4.09375 12.828125 3.90625 11.71875 
C 3.59375 10.109375 3.59375 10.109375 4.59375 8.8125 
C 7.5 4.890625 13.203125 1.28125 17.703125 -0.03125 
C 25.703125 -2.4375 35 -1.34375 41.203125 4.78125 
C 42.40625 6 43.5 7.296875 44.40625 8.703125 
C 48.09375 14.53125 48.203125 22.15625 44.09375 27.78125 
C 42.40625 30.09375 40.203125 31.90625 37.703125 33.3125 
C 36 34.3125 34 35.3125 32 35.515625 
C 37.796875 38.234375 43.203125 42.828125 44.203125 50.359375 
C 45.09375 57.375 41 61.6875 36.796875 64.1875 
C 30.296875 68 21.796875 68 15.09375 64.671875 
C 12 63.171875 9.203125 60.96875 7.09375 58.25 
C 6.703125 57.75 5.203125 56.046875 5.203125 55.234375 
C 5.203125 54.734375 5.59375 54.234375 5.90625 53.828125 
z
" id="Computer_Modern_Bright-51"/>
      </defs>
      <g style="fill:#262626;" transform="translate(26.642062 198.195167)scale(0.16 -0.16)">
       <use transform="scale(0.996264)" xlink:href="#Computer_Modern_Bright-51"/>
       <use transform="translate(50.643218 0)scale(0.996264)" xlink:href="#Computer_Modern_Bright-48"/>
      </g>
     </g>
    </g>
    <g id="ytick_5">
     <g id="line2d_11"/>
     <g id="text_12">
      <!-- $40$ -->
      <g style="fill:#262626;" transform="translate(26.642062 164.885289)scale(0.16 -0.16)">
       <use transform="scale(0.996264)" xlink:href="#Computer_Modern_Bright-52"/>
       <use transform="translate(50.643218 0)scale(0.996264)" xlink:href="#Computer_Modern_Bright-48"/>
      </g>
     </g>
    </g>
    <g id="ytick_6">
     <g id="line2d_12"/>
     <g id="text_13">
      <!-- $50$ -->
      <defs>
       <path d="M 8.40625 66.328125 
L 8.40625 30.453125 
L 12.203125 30.453125 
C 12.703125 30.453125 13.40625 30.359375 13.796875 30.5625 
C 14.296875 30.859375 14.59375 31.5625 14.90625 31.96875 
C 15.59375 32.859375 16.40625 33.5625 17.203125 34.265625 
C 20.796875 37.28125 27.703125 38.484375 32.296875 36.171875 
C 38.59375 33.171875 39.796875 25.21875 39.296875 19 
C 39 15.0625 37.796875 11.453125 35.5 9.140625 
C 30.203125 3.5 21.296875 3.5 14.796875 6.796875 
C 11.59375 8.40625 8.90625 10.921875 6.90625 13.921875 
L 6.796875 13.921875 
C 6.5 13.421875 4.203125 9.90625 4.203125 9.296875 
C 4.203125 8.890625 4.5 8.59375 4.703125 8.296875 
C 7.703125 4.78125 11.59375 2.0625 16.09375 0.5625 
C 25 -2.25 35 -0.046875 41.296875 7.1875 
C 48.796875 15.921875 47.796875 30.15625 39.09375 37.765625 
C 36.5 40.1875 32.90625 41.890625 28.59375 42.28125 
C 22.796875 43.09375 17.59375 40.28125 14.5 37.671875 
L 14.5 61 
L 42.90625 61 
L 42.90625 66.328125 
z
" id="Computer_Modern_Bright-53"/>
      </defs>
      <g style="fill:#262626;" transform="translate(26.642062 131.575411)scale(0.16 -0.16)">
       <use transform="scale(0.996264)" xlink:href="#Computer_Modern_Bright-53"/>
       <use transform="translate(50.643218 0)scale(0.996264)" xlink:href="#Computer_Modern_Bright-48"/>
      </g>
     </g>
    </g>
    <g id="ytick_7">
     <g id="line2d_13"/>
     <g id="text_14">
      <!-- $60$ -->
      <g style="fill:#262626;" transform="translate(26.642062 98.265533)scale(0.16 -0.16)">
       <use transform="scale(0.996264)" xlink:href="#Computer_Modern_Bright-54"/>
       <use transform="translate(50.643218 0)scale(0.996264)" xlink:href="#Computer_Modern_Bright-48"/>
      </g>
     </g>
    </g>
    <g id="ytick_8">
     <g id="line2d_14"/>
     <g id="text_15">
      <!-- $70$ -->
      <defs>
       <path d="M 3.59375 65.625 
L 3.59375 60 
L 42.796875 60 
L 39.09375 56.375 
C 35.796875 52.859375 32.796875 49.125 30.09375 45.109375 
C 21.09375 31.515625 16.203125 15.3125 16.203125 -1 
L 22.90625 -1 
C 22.90625 13.703125 26.59375 28.390625 33.59375 41.375 
C 37 47.921875 40.59375 52.640625 45.296875 58.171875 
C 45.90625 58.78125 46.796875 59.484375 47.09375 60.28125 
C 47.296875 60.78125 47.203125 61.484375 47.203125 62.109375 
L 47.203125 65.625 
z
" id="Computer_Modern_Bright-55"/>
      </defs>
      <g style="fill:#262626;" transform="translate(26.642062 64.955655)scale(0.16 -0.16)">
       <use transform="scale(0.996264)" xlink:href="#Computer_Modern_Bright-55"/>
       <use transform="translate(50.643218 0)scale(0.996264)" xlink:href="#Computer_Modern_Bright-48"/>
      </g>
     </g>
    </g>
    <g id="ytick_9">
     <g id="line2d_15"/>
     <g id="text_16">
      <!-- $80$ -->
      <g style="fill:#262626;" transform="translate(26.642062 31.645776)scale(0.16 -0.16)">
       <use transform="scale(0.996264)" xlink:href="#Computer_Modern_Bright-56"/>
       <use transform="translate(50.643218 0)scale(0.996264)" xlink:href="#Computer_Modern_Bright-48"/>
      </g>
     </g>
    </g>
    <g id="text_17">
     <!-- Probability Density -->
     <defs>
      <path d="M 8 70 
L 8 0.5 
L 15 0.5 
L 15 30 
L 29.09375 30 
C 31.296875 30 33.5 30 35.59375 30 
C 43 30.609375 49.203125 33.640625 53.40625 38.171875 
C 57.703125 42.90625 59.59375 50.15625 56.796875 56.296875 
C 53.59375 64.046875 46 68.984375 36.296875 70 
C 33.40625 70 30.40625 70 27.5 70 
z
M 14.90625 35.21875 
L 14.90625 64.671875 
L 28.59375 64.671875 
C 37.296875 64.671875 45.203125 63.671875 49.203125 57.65625 
C 51.90625 53.625 52.296875 48 50.09375 43.671875 
C 48.90625 41.34375 47.09375 39.546875 44.90625 38.234375 
C 40 35.21875 34.296875 35.21875 28.796875 35.21875 
z
" id="Computer_Modern_Bright-80"/>
      <path d="M 12.5 34.75 
L 12.40625 34.75 
L 12.40625 47.390625 
L 6.40625 47.390625 
L 6.40625 0 
L 12.703125 0 
L 12.703125 22.890625 
C 12.703125 24.40625 12.703125 25.90625 12.90625 27.40625 
C 14.296875 35.953125 21.703125 42.28125 31.40625 42.28125 
L 31.40625 48 
C 25 48 19.09375 44.890625 15.296875 39.765625 
C 14.203125 38.265625 13 36.546875 12.5 34.75 
" id="Computer_Modern_Bright-114"/>
      <path d="M 6.40625 69.6875 
L 6.40625 0 
L 12.796875 0 
L 12.796875 6.328125 
L 12.90625 6.328125 
C 14 4.109375 16.5 2.015625 18.59375 0.90625 
C 25.796875 -2.90625 34.40625 0.90625 39.09375 7.03125 
C 48.59375 19.578125 44.796875 40.875 32.296875 46.796875 
C 27.40625 49 21.5 48 17.09375 44.984375 
C 15.40625 43.78125 14 42.375 12.703125 40.765625 
L 12.703125 69.6875 
z
M 21.90625 42.984375 
C 26.59375 43.375 31.5 41.265625 34.296875 37.453125 
C 36.203125 34.9375 37.203125 31.9375 37.703125 28.8125 
C 38.703125 21.484375 37.90625 12.25 31.40625 7.4375 
C 30.296875 6.625 29.09375 6.03125 27.796875 5.515625 
C 22.40625 3.515625 17 4.109375 14 8.84375 
C 13.09375 10.4375 12.796875 10.546875 12.796875 12.953125 
L 12.796875 33.734375 
C 12.796875 34.75 12.59375 35.953125 13 36.859375 
C 14.59375 40.171875 18.296875 42.671875 21.90625 42.984375 
" id="Computer_Modern_Bright-98"/>
      <path d="M 6.40625 69.6875 
L 6.40625 0 
L 12.703125 0 
L 12.703125 69.6875 
z
" id="Computer_Modern_Bright-108"/>
      <path d="M 0.703125 47.65625 
C 1.296875 45.75 5.40625 35.609375 5.5 35.3125 
L 17.40625 4.578125 
L 18.40625 2.078125 
C 19 0.671875 19.203125 0.46875 18.59375 -1.140625 
L 17.5 -4.046875 
C 16.59375 -6.46875 15.59375 -8.96875 13.703125 -10.484375 
C 10.296875 -13.296875 4.90625 -11.6875 0.796875 -10.78125 
L 1.296875 -16.5 
C 3.203125 -16.796875 5.09375 -17 7 -17 
C 11.296875 -17.515625 14.09375 -16.5 16.703125 -14.296875 
C 20 -11.484375 21.59375 -7.5625 23.09375 -3.546875 
L 26.203125 5.078125 
L 36.40625 32.90625 
C 38.09375 37.921875 40.203125 42.640625 41.796875 47.65625 
L 37.296875 47.65625 
C 36.796875 47.65625 36 47.859375 35.59375 47.46875 
C 35.40625 47.15625 35.296875 46.765625 35.203125 46.453125 
L 34.40625 44.34375 
C 33.40625 41.734375 32.5 39.234375 31.59375 36.609375 
L 25.796875 20.25 
C 24.296875 15.828125 22.59375 11.3125 21.796875 6.6875 
C 20.703125 11.3125 19.203125 15.734375 17.59375 20.140625 
C 16.296875 23.5625 8.5 44.546875 7.5 46.5625 
C 7.09375 47.65625 6.703125 47.65625 5.203125 47.65625 
z
" id="Computer_Modern_Bright-121"/>
      <path d="M 8 70 
L 8 0 
L 28.203125 0 
C 31.40625 0 34.59375 0 37.703125 0.296875 
C 45.703125 1.109375 52.59375 5.015625 57.203125 9.828125 
C 70.09375 23.171875 70 46.125 57.296875 59.671875 
C 52.703125 64.578125 46.5 68.5 38.703125 69.5 
C 34.90625 70 31 70 27.203125 70 
z
M 14.90625 5.3125 
L 14.90625 64.5625 
L 27.796875 64.5625 
C 30.5 64.5625 33.203125 64.5625 35.90625 64.359375 
C 40.40625 63.859375 44.796875 62.359375 48.5 59.734375 
C 56.59375 54.125 60 44.171875 60 34.640625 
C 60 26.609375 57.796875 18.375 51.90625 12.640625 
C 47.90625 8.9375 42.5 6.21875 36 5.515625 
C 33.40625 5.3125 30.703125 5.3125 28.09375 5.3125 
z
" id="Computer_Modern_Bright-68"/>
     </defs>
     <g style="fill:#262626;" transform="translate(19.65327 224.213938)rotate(-90)scale(0.18 -0.18)">
      <use transform="scale(0.996264)" xlink:href="#Computer_Modern_Bright-80"/>
      <use transform="translate(62.888907 0)scale(0.996264)" xlink:href="#Computer_Modern_Bright-114"/>
      <use transform="translate(94.852266 0)scale(0.996264)" xlink:href="#Computer_Modern_Bright-111"/>
      <use transform="translate(145.495484 0)scale(0.996264)" xlink:href="#Computer_Modern_Bright-98"/>
      <use transform="translate(193.647981 0)scale(0.996264)" xlink:href="#Computer_Modern_Bright-97"/>
      <use transform="translate(240.140063 0)scale(0.996264)" xlink:href="#Computer_Modern_Bright-98"/>
      <use transform="translate(288.29256 0)scale(0.996264)" xlink:href="#Computer_Modern_Bright-105"/>
      <use transform="translate(307.387519 0)scale(0.996264)" xlink:href="#Computer_Modern_Bright-108"/>
      <use transform="translate(326.482478 0)scale(0.996264)" xlink:href="#Computer_Modern_Bright-105"/>
      <use transform="translate(345.577437 0)scale(0.996264)" xlink:href="#Computer_Modern_Bright-116"/>
      <use transform="translate(378.786095 0)scale(0.996264)" xlink:href="#Computer_Modern_Bright-121"/>
      <use transform="translate(452.592345 0)scale(0.996264)" xlink:href="#Computer_Modern_Bright-68"/>
      <use transform="translate(524.198532 0)scale(0.996264)" xlink:href="#Computer_Modern_Bright-101"/>
      <use transform="translate(569.030199 0)scale(0.996264)" xlink:href="#Computer_Modern_Bright-110"/>
      <use transform="translate(617.182696 0)scale(0.996264)" xlink:href="#Computer_Modern_Bright-115"/>
      <use transform="translate(655.621726 0)scale(0.996264)" xlink:href="#Computer_Modern_Bright-105"/>
      <use transform="translate(674.716684 0)scale(0.996264)" xlink:href="#Computer_Modern_Bright-116"/>
      <use transform="translate(707.925343 0)scale(0.996264)" xlink:href="#Computer_Modern_Bright-121"/>
     </g>
    </g>
   </g>
   <g id="PolyCollection_1">
    <path clip-path="url(#p0ff0cab980)" d="M 297.918849 292.569175 
L 297.918849 292.59 
L 298.0621 292.59 
L 298.205351 292.59 
L 298.348602 292.59 
L 298.491852 292.59 
L 298.635103 292.59 
L 298.778354 292.59 
L 298.921604 292.59 
L 299.064855 292.59 
L 299.208106 292.59 
L 299.351356 292.59 
L 299.494607 292.59 
L 299.637858 292.59 
L 299.781108 292.59 
L 299.924359 292.59 
L 300.06761 292.59 
L 300.210861 292.59 
L 300.354111 292.59 
L 300.497362 292.59 
L 300.640613 292.59 
L 300.783863 292.59 
L 300.927114 292.59 
L 301.070365 292.59 
L 301.213615 292.59 
L 301.356866 292.59 
L 301.500117 292.59 
L 301.643368 292.59 
L 301.786618 292.59 
L 301.929869 292.59 
L 302.07312 292.59 
L 302.21637 292.59 
L 302.359621 292.59 
L 302.502872 292.59 
L 302.646122 292.59 
L 302.789373 292.59 
L 302.932624 292.59 
L 303.075874 292.59 
L 303.219125 292.59 
L 303.362376 292.59 
L 303.505627 292.59 
L 303.648877 292.59 
L 303.792128 292.59 
L 303.935379 292.59 
L 304.078629 292.59 
L 304.22188 292.59 
L 304.365131 292.59 
L 304.508381 292.59 
L 304.651632 292.59 
L 304.794883 292.59 
L 304.938133 292.59 
L 305.081384 292.59 
L 305.224635 292.59 
L 305.367886 292.59 
L 305.511136 292.59 
L 305.654387 292.59 
L 305.797638 292.59 
L 305.940888 292.59 
L 306.084139 292.59 
L 306.22739 292.59 
L 306.37064 292.59 
L 306.513891 292.59 
L 306.657142 292.59 
L 306.800393 292.59 
L 306.943643 292.59 
L 307.086894 292.59 
L 307.230145 292.59 
L 307.373395 292.59 
L 307.516646 292.59 
L 307.659897 292.59 
L 307.803147 292.59 
L 307.946398 292.59 
L 308.089649 292.59 
L 308.232899 292.59 
L 308.37615 292.59 
L 308.519401 292.59 
L 308.662652 292.59 
L 308.805902 292.59 
L 308.949153 292.59 
L 309.092404 292.59 
L 309.235654 292.59 
L 309.378905 292.59 
L 309.522156 292.59 
L 309.665406 292.59 
L 309.808657 292.59 
L 309.951908 292.59 
L 310.095159 292.59 
L 310.238409 292.59 
L 310.38166 292.59 
L 310.524911 292.59 
L 310.668161 292.59 
L 310.811412 292.59 
L 310.954663 292.59 
L 311.097913 292.59 
L 311.241164 292.59 
L 311.384415 292.59 
L 311.527665 292.59 
L 311.670916 292.59 
L 311.814167 292.59 
L 311.957418 292.59 
L 312.100668 292.59 
L 312.243919 292.59 
L 312.38717 292.59 
L 312.53042 292.59 
L 312.673671 292.59 
L 312.816922 292.59 
L 312.960172 292.59 
L 313.103423 292.59 
L 313.246674 292.59 
L 313.389925 292.59 
L 313.533175 292.59 
L 313.676426 292.59 
L 313.819677 292.59 
L 313.962927 292.59 
L 314.106178 292.59 
L 314.249429 292.59 
L 314.392679 292.59 
L 314.53593 292.59 
L 314.679181 292.59 
L 314.822431 292.59 
L 314.965682 292.59 
L 315.108933 292.59 
L 315.252184 292.59 
L 315.395434 292.59 
L 315.538685 292.59 
L 315.681936 292.59 
L 315.825186 292.59 
L 315.968437 292.59 
L 316.111688 292.59 
L 316.111688 292.571636 
L 316.111688 292.571636 
L 315.968437 292.564467 
L 315.825186 292.545951 
L 315.681936 292.511805 
L 315.538685 292.455459 
L 315.395434 292.368627 
L 315.252184 292.242267 
L 315.108933 292.06796 
L 314.965682 291.839486 
L 314.822431 291.554211 
L 314.679181 291.213796 
L 314.53593 290.823846 
L 314.392679 290.392373 
L 314.249429 289.927325 
L 314.106178 289.433727 
L 313.962927 288.911099 
L 313.819677 288.351639 
L 313.676426 287.739208 
L 313.533175 287.048806 
L 313.389925 286.246125 
L 313.246674 285.287288 
L 313.103423 284.119752 
L 312.960172 282.685985 
L 312.816922 280.931143 
L 312.673671 278.814314 
L 312.53042 276.320431 
L 312.38717 273.46828 
L 312.243919 270.310367 
L 312.100668 266.923356 
L 311.957418 263.392008 
L 311.814167 259.792856 
L 311.670916 256.184217 
L 311.527665 252.606128 
L 311.384415 249.088877 
L 311.241164 245.664437 
L 311.097913 242.373428 
L 310.954663 239.261937 
L 310.811412 236.366756 
L 310.668161 233.692659 
L 310.524911 231.189401 
L 310.38166 228.737875 
L 310.238409 226.153376 
L 310.095159 223.209422 
L 309.951908 219.678878 
L 309.808657 215.38229 
L 309.665406 210.228938 
L 309.522156 204.236254 
L 309.378905 197.519017 
L 309.235654 190.24962 
L 309.092404 182.601518 
L 308.949153 174.695291 
L 308.805902 166.567017 
L 308.662652 158.17117 
L 308.519401 149.417845 
L 308.37615 140.231901 
L 308.232899 130.614778 
L 308.089649 120.690365 
L 307.946398 110.722773 
L 307.803147 101.102182 
L 307.659897 92.301693 
L 307.516646 84.81219 
L 307.373395 79.06508 
L 307.230145 75.355699 
L 307.086894 73.783095 
L 306.943643 74.222518 
L 306.800393 76.342616 
L 306.657142 79.669356 
L 306.513891 83.685108 
L 306.37064 87.938797 
L 306.22739 92.13692 
L 306.084139 96.188915 
L 305.940888 100.193841 
L 305.797638 104.374078 
L 305.654387 108.978912 
L 305.511136 114.189708 
L 305.367886 120.055886 
L 305.224635 126.47858 
L 305.081384 133.24224 
L 304.938133 140.079658 
L 304.794883 146.747552 
L 304.651632 153.089474 
L 304.508381 159.069047 
L 304.365131 164.766877 
L 304.22188 170.345569 
L 304.078629 175.99618 
L 303.935379 181.88369 
L 303.792128 188.107535 
L 303.648877 194.686565 
L 303.505627 201.568551 
L 303.362376 208.656061 
L 303.219125 215.836288 
L 303.075874 223.003485 
L 302.932624 230.068071 
L 302.789373 236.953417 
L 302.646122 243.58663 
L 302.502872 249.891185 
L 302.359621 255.786653 
L 302.21637 261.195889 
L 302.07312 266.055672 
L 301.929869 270.325308 
L 301.786618 273.989643 
L 301.643368 277.056739 
L 301.500117 279.553492 
L 301.356866 281.52278 
L 301.213615 283.023372 
L 301.070365 284.130668 
L 300.927114 284.93471 
L 300.783863 285.533051 
L 300.640613 286.019138 
L 300.497362 286.469815 
L 300.354111 286.936562 
L 300.210861 287.443412 
L 300.06761 287.991461 
L 299.924359 288.567145 
L 299.781108 289.150621 
L 299.637858 289.721626 
L 299.494607 290.262211 
L 299.351356 290.757417 
L 299.208106 291.195394 
L 299.064855 291.567901 
L 298.921604 291.871151 
L 298.778354 292.106384 
L 298.635103 292.279593 
L 298.491852 292.400276 
L 298.348602 292.479585 
L 298.205351 292.528436 
L 298.0621 292.556063 
L 297.918849 292.569175 
z
" style="fill:#0000ff;fill-opacity:0.25;"/>
   </g>
   <g id="PolyCollection_2">
    <path clip-path="url(#p0ff0cab980)" d="M 233.463681 292.577905 
L 233.463681 292.59 
L 233.654319 292.59 
L 233.844957 292.59 
L 234.035595 292.59 
L 234.226232 292.59 
L 234.41687 292.59 
L 234.607508 292.59 
L 234.798146 292.59 
L 234.988784 292.59 
L 235.179422 292.59 
L 235.37006 292.59 
L 235.560698 292.59 
L 235.751336 292.59 
L 235.941974 292.59 
L 236.132612 292.59 
L 236.32325 292.59 
L 236.513888 292.59 
L 236.704526 292.59 
L 236.895164 292.59 
L 237.085802 292.59 
L 237.27644 292.59 
L 237.467077 292.59 
L 237.657715 292.59 
L 237.848353 292.59 
L 238.038991 292.59 
L 238.229629 292.59 
L 238.420267 292.59 
L 238.610905 292.59 
L 238.801543 292.59 
L 238.992181 292.59 
L 239.182819 292.59 
L 239.373457 292.59 
L 239.564095 292.59 
L 239.754733 292.59 
L 239.945371 292.59 
L 240.136009 292.59 
L 240.326647 292.59 
L 240.517285 292.59 
L 240.707923 292.59 
L 240.89856 292.59 
L 241.089198 292.59 
L 241.279836 292.59 
L 241.470474 292.59 
L 241.661112 292.59 
L 241.85175 292.59 
L 242.042388 292.59 
L 242.233026 292.59 
L 242.423664 292.59 
L 242.614302 292.59 
L 242.80494 292.59 
L 242.995578 292.59 
L 243.186216 292.59 
L 243.376854 292.59 
L 243.567492 292.59 
L 243.75813 292.59 
L 243.948768 292.59 
L 244.139405 292.59 
L 244.330043 292.59 
L 244.520681 292.59 
L 244.711319 292.59 
L 244.901957 292.59 
L 245.092595 292.59 
L 245.283233 292.59 
L 245.473871 292.59 
L 245.664509 292.59 
L 245.855147 292.59 
L 246.045785 292.59 
L 246.236423 292.59 
L 246.427061 292.59 
L 246.617699 292.59 
L 246.808337 292.59 
L 246.998975 292.59 
L 247.189613 292.59 
L 247.380251 292.59 
L 247.570888 292.59 
L 247.761526 292.59 
L 247.952164 292.59 
L 248.142802 292.59 
L 248.33344 292.59 
L 248.524078 292.59 
L 248.714716 292.59 
L 248.905354 292.59 
L 249.095992 292.59 
L 249.28663 292.59 
L 249.477268 292.59 
L 249.667906 292.59 
L 249.858544 292.59 
L 250.049182 292.59 
L 250.23982 292.59 
L 250.430458 292.59 
L 250.621096 292.59 
L 250.811733 292.59 
L 251.002371 292.59 
L 251.193009 292.59 
L 251.383647 292.59 
L 251.574285 292.59 
L 251.764923 292.59 
L 251.955561 292.59 
L 252.146199 292.59 
L 252.336837 292.59 
L 252.527475 292.59 
L 252.718113 292.59 
L 252.908751 292.59 
L 253.099389 292.59 
L 253.290027 292.59 
L 253.480665 292.59 
L 253.671303 292.59 
L 253.861941 292.59 
L 254.052578 292.59 
L 254.243216 292.59 
L 254.433854 292.59 
L 254.624492 292.59 
L 254.81513 292.59 
L 255.005768 292.59 
L 255.196406 292.59 
L 255.387044 292.59 
L 255.577682 292.59 
L 255.76832 292.59 
L 255.958958 292.59 
L 256.149596 292.59 
L 256.340234 292.59 
L 256.530872 292.59 
L 256.72151 292.59 
L 256.912148 292.59 
L 257.102786 292.59 
L 257.293424 292.59 
L 257.484061 292.59 
L 257.674699 292.59 
L 257.674699 292.578527 
L 257.674699 292.578527 
L 257.484061 292.572965 
L 257.293424 292.559905 
L 257.102786 292.536568 
L 256.912148 292.499134 
L 256.72151 292.443423 
L 256.530872 292.365793 
L 256.340234 292.264046 
L 256.149596 292.137949 
L 255.958958 291.989012 
L 255.76832 291.819433 
L 255.577682 291.630514 
L 255.387044 291.421229 
L 255.196406 291.187583 
L 255.005768 290.922887 
L 254.81513 290.618364 
L 254.624492 290.262981 
L 254.433854 289.841645 
L 254.243216 289.331743 
L 254.052578 288.699193 
L 253.861941 287.895834 
L 253.671303 286.859798 
L 253.480665 285.519519 
L 253.290027 283.800874 
L 253.099389 281.63625 
L 252.908751 278.974354 
L 252.718113 275.789798 
L 252.527475 272.091457 
L 252.336837 267.92775 
L 252.146199 263.386111 
L 251.955561 258.583912 
L 251.764923 253.650029 
L 251.574285 248.699801 
L 251.383647 243.809809 
L 251.193009 239.000408 
L 251.002371 234.231924 
L 250.811733 229.415422 
L 250.621096 224.433543 
L 250.430458 219.164083 
L 250.23982 213.500425 
L 250.049182 207.367165 
L 249.858544 200.733053 
L 249.667906 193.623363 
L 249.477268 186.129849 
L 249.28663 178.411675 
L 249.095992 170.679923 
L 248.905354 163.163919 
L 248.714716 156.06747 
L 248.524078 149.531215 
L 248.33344 143.61762 
L 248.142802 138.326292 
L 247.952164 133.633333 
L 247.761526 129.536941 
L 247.570888 126.088487 
L 247.380251 123.395126 
L 247.189613 121.592899 
L 246.998975 120.801949 
L 246.808337 121.082592 
L 246.617699 122.410008 
L 246.427061 124.677076 
L 246.236423 127.722949 
L 246.045785 131.374332 
L 245.855147 135.481817 
L 245.664509 139.937451 
L 245.473871 144.670203 
L 245.283233 149.627602 
L 245.092595 154.758064 
L 244.901957 160.005784 
L 244.711319 165.320452 
L 244.520681 170.673628 
L 244.330043 176.068942 
L 244.139405 181.536971 
L 243.948768 187.115146 
L 243.75813 192.822287 
L 243.567492 198.640963 
L 243.376854 204.516886 
L 243.186216 210.375416 
L 242.995578 216.146333 
L 242.80494 221.783927 
L 242.614302 227.272421 
L 242.423664 232.614677 
L 242.233026 237.810851 
L 242.042388 242.838426 
L 241.85175 247.643819 
L 241.661112 252.149488 
L 241.470474 256.272873 
L 241.279836 259.948464 
L 241.089198 263.14416 
L 240.89856 265.867088 
L 240.707923 268.159612 
L 240.517285 270.089969 
L 240.326647 271.742345 
L 240.136009 273.208676 
L 239.945371 274.581422 
L 239.754733 275.945163 
L 239.564095 277.365949 
L 239.373457 278.880065 
L 239.182819 280.486175 
L 238.992181 282.145116 
L 238.801543 283.789306 
L 238.610905 285.339911 
L 238.420267 286.726489 
L 238.229629 287.902607 
L 238.038991 288.852605 
L 237.848353 289.588428 
L 237.657715 290.139421 
L 237.467077 290.540282 
L 237.27644 290.822121 
L 237.085802 291.009194 
L 236.895164 291.12079 
L 236.704526 291.175506 
L 236.513888 291.194602 
L 236.32325 291.20227 
L 236.132612 291.222613 
L 235.941974 291.274848 
L 235.751336 291.369034 
L 235.560698 291.504225 
L 235.37006 291.669752 
L 235.179422 291.849027 
L 234.988784 292.024365 
L 234.798146 292.181197 
L 234.607508 292.310529 
L 234.41687 292.409391 
L 234.226232 292.479678 
L 234.035595 292.526214 
L 233.844957 292.554797 
L 233.654319 292.570722 
L 233.463681 292.577905 
z
" style="fill-opacity:0.25;"/>
   </g>
   <g id="PolyCollection_3">
    <path clip-path="url(#p0ff0cab980)" d="M 70.670072 292.58286 
L 70.670072 292.59 
L 71.080268 292.59 
L 71.490463 292.59 
L 71.900658 292.59 
L 72.310853 292.59 
L 72.721049 292.59 
L 73.131244 292.59 
L 73.541439 292.59 
L 73.951634 292.59 
L 74.361829 292.59 
L 74.772025 292.59 
L 75.18222 292.59 
L 75.592415 292.59 
L 76.00261 292.59 
L 76.412805 292.59 
L 76.823001 292.59 
L 77.233196 292.59 
L 77.643391 292.59 
L 78.053586 292.59 
L 78.463782 292.59 
L 78.873977 292.59 
L 79.284172 292.59 
L 79.694367 292.59 
L 80.104562 292.59 
L 80.514758 292.59 
L 80.924953 292.59 
L 81.335148 292.59 
L 81.745343 292.59 
L 82.155539 292.59 
L 82.565734 292.59 
L 82.975929 292.59 
L 83.386124 292.59 
L 83.796319 292.59 
L 84.206515 292.59 
L 84.61671 292.59 
L 85.026905 292.59 
L 85.4371 292.59 
L 85.847296 292.59 
L 86.257491 292.59 
L 86.667686 292.59 
L 87.077881 292.59 
L 87.488076 292.59 
L 87.898272 292.59 
L 88.308467 292.59 
L 88.718662 292.59 
L 89.128857 292.59 
L 89.539053 292.59 
L 89.949248 292.59 
L 90.359443 292.59 
L 90.769638 292.59 
L 91.179833 292.59 
L 91.590029 292.59 
L 92.000224 292.59 
L 92.410419 292.59 
L 92.820614 292.59 
L 93.230809 292.59 
L 93.641005 292.59 
L 94.0512 292.59 
L 94.461395 292.59 
L 94.87159 292.59 
L 95.281786 292.59 
L 95.691981 292.59 
L 96.102176 292.59 
L 96.512371 292.59 
L 96.922566 292.59 
L 97.332762 292.59 
L 97.742957 292.59 
L 98.153152 292.59 
L 98.563347 292.59 
L 98.973543 292.59 
L 99.383738 292.59 
L 99.793933 292.59 
L 100.204128 292.59 
L 100.614323 292.59 
L 101.024519 292.59 
L 101.434714 292.59 
L 101.844909 292.59 
L 102.255104 292.59 
L 102.6653 292.59 
L 103.075495 292.59 
L 103.48569 292.59 
L 103.895885 292.59 
L 104.30608 292.59 
L 104.716276 292.59 
L 105.126471 292.59 
L 105.536666 292.59 
L 105.946861 292.59 
L 106.357056 292.59 
L 106.767252 292.59 
L 107.177447 292.59 
L 107.587642 292.59 
L 107.997837 292.59 
L 108.408033 292.59 
L 108.818228 292.59 
L 109.228423 292.59 
L 109.638618 292.59 
L 110.048813 292.59 
L 110.459009 292.59 
L 110.869204 292.59 
L 111.279399 292.59 
L 111.689594 292.59 
L 112.09979 292.59 
L 112.509985 292.59 
L 112.92018 292.59 
L 113.330375 292.59 
L 113.74057 292.59 
L 114.150766 292.59 
L 114.560961 292.59 
L 114.971156 292.59 
L 115.381351 292.59 
L 115.791547 292.59 
L 116.201742 292.59 
L 116.611937 292.59 
L 117.022132 292.59 
L 117.432327 292.59 
L 117.842523 292.59 
L 118.252718 292.59 
L 118.662913 292.59 
L 119.073108 292.59 
L 119.483303 292.59 
L 119.893499 292.59 
L 120.303694 292.59 
L 120.713889 292.59 
L 121.124084 292.59 
L 121.53428 292.59 
L 121.944475 292.59 
L 122.35467 292.59 
L 122.764865 292.59 
L 122.764865 292.582423 
L 122.764865 292.582423 
L 122.35467 292.577798 
L 121.944475 292.567361 
L 121.53428 292.547974 
L 121.124084 292.514852 
L 120.713889 292.461623 
L 120.303694 292.380766 
L 119.893499 292.26459 
L 119.483303 292.106796 
L 119.073108 291.904377 
L 118.662913 291.659382 
L 118.252718 291.379853 
L 117.842523 291.079296 
L 117.432327 290.774389 
L 117.022132 290.481246 
L 116.611937 290.211183 
L 116.201742 289.967321 
L 115.791547 289.743177 
L 115.381351 289.523778 
L 114.971156 289.288871 
L 114.560961 289.017063 
L 114.150766 288.689472 
L 113.74057 288.291826 
L 113.330375 287.814644 
L 112.92018 287.251865 
L 112.509985 286.598673 
L 112.09979 285.849389 
L 111.689594 284.996211 
L 111.279399 284.029459 
L 110.869204 282.939781 
L 110.459009 281.722218 
L 110.048813 280.381178 
L 109.638618 278.934373 
L 109.228423 277.413416 
L 108.818228 275.859512 
L 108.408033 274.314611 
L 107.997837 272.810561 
L 107.587642 271.360101 
L 107.177447 269.953095 
L 106.767252 268.559328 
L 106.357056 267.136667 
L 105.946861 265.641571 
L 105.536666 264.038704 
L 105.126471 262.307339 
L 104.716276 260.443744 
L 104.30608 258.459878 
L 103.895885 256.37939 
L 103.48569 254.232079 
L 103.075495 252.04803 
L 102.6653 249.85251 
L 102.255104 247.662524 
L 101.844909 245.485464 
L 101.434714 243.319822 
L 101.024519 241.157467 
L 100.614323 238.986704 
L 100.204128 236.795345 
L 99.793933 234.573296 
L 99.383738 232.314712 
L 98.973543 230.020366 
L 98.563347 227.701005 
L 98.153152 225.381984 
L 97.742957 223.108255 
L 97.332762 220.947576 
L 96.922566 218.989489 
L 96.512371 217.338683 
L 96.102176 216.103473 
L 95.691981 215.382143 
L 95.281786 215.250583 
L 94.87159 215.753607 
L 94.461395 216.900368 
L 94.0512 218.662748 
L 93.641005 220.975621 
L 93.230809 223.739157 
L 92.820614 226.824809 
L 92.410419 230.086813 
L 92.000224 233.379452 
L 91.590029 236.577644 
L 91.179833 239.596036 
L 90.769638 242.400919 
L 90.359443 245.010697 
L 89.949248 247.483715 
L 89.539053 249.896218 
L 89.128857 252.316501 
L 88.718662 254.782915 
L 88.308467 257.292442 
L 87.898272 259.803241 
L 87.488076 262.249929 
L 87.077881 264.566098 
L 86.667686 266.706284 
L 86.257491 268.660145 
L 85.847296 270.454648 
L 85.4371 272.144282 
L 85.026905 273.793186 
L 84.61671 275.455189 
L 84.206515 277.157824 
L 83.796319 278.894566 
L 83.386124 280.626799 
L 82.975929 282.294214 
L 82.565734 283.830215 
L 82.155539 285.177896 
L 81.745343 286.302382 
L 81.335148 287.196655 
L 80.924953 287.880048 
L 80.514758 288.390736 
L 80.104562 288.775165 
L 79.694367 289.077867 
L 79.284172 289.334416 
L 78.873977 289.568795 
L 78.463782 289.794662 
L 78.053586 290.018804 
L 77.643391 290.244705 
L 77.233196 290.474738 
L 76.823001 290.710525 
L 76.412805 290.952038 
L 76.00261 291.196502 
L 75.592415 291.438065 
L 75.18222 291.668599 
L 74.772025 291.879408 
L 74.361829 292.063156 
L 73.951634 292.215344 
L 73.541439 292.334914 
L 73.131244 292.423951 
L 72.721049 292.486765 
L 72.310853 292.528726 
L 71.900658 292.555221 
L 71.490463 292.570919 
L 71.080268 292.579367 
L 70.670072 292.58286 
z
" style="fill:#e31a1c;fill-opacity:0.25;"/>
   </g>
   <g id="PolyCollection_4">
    <path clip-path="url(#p0ff0cab980)" d="M 297.163669 292.574562 
L 297.163669 292.59 
L 297.353166 292.59 
L 297.542664 292.59 
L 297.732162 292.59 
L 297.92166 292.59 
L 298.111157 292.59 
L 298.300655 292.59 
L 298.490153 292.59 
L 298.679651 292.59 
L 298.869148 292.59 
L 299.058646 292.59 
L 299.248144 292.59 
L 299.437642 292.59 
L 299.627139 292.59 
L 299.816637 292.59 
L 300.006135 292.59 
L 300.195632 292.59 
L 300.38513 292.59 
L 300.574628 292.59 
L 300.764126 292.59 
L 300.953623 292.59 
L 301.143121 292.59 
L 301.332619 292.59 
L 301.522117 292.59 
L 301.711614 292.59 
L 301.901112 292.59 
L 302.09061 292.59 
L 302.280108 292.59 
L 302.469605 292.59 
L 302.659103 292.59 
L 302.848601 292.59 
L 303.038098 292.59 
L 303.227596 292.59 
L 303.417094 292.59 
L 303.606592 292.59 
L 303.796089 292.59 
L 303.985587 292.59 
L 304.175085 292.59 
L 304.364583 292.59 
L 304.55408 292.59 
L 304.743578 292.59 
L 304.933076 292.59 
L 305.122574 292.59 
L 305.312071 292.59 
L 305.501569 292.59 
L 305.691067 292.59 
L 305.880564 292.59 
L 306.070062 292.59 
L 306.25956 292.59 
L 306.449058 292.59 
L 306.638555 292.59 
L 306.828053 292.59 
L 307.017551 292.59 
L 307.207049 292.59 
L 307.396546 292.59 
L 307.586044 292.59 
L 307.775542 292.59 
L 307.96504 292.59 
L 308.154537 292.59 
L 308.344035 292.59 
L 308.533533 292.59 
L 308.72303 292.59 
L 308.912528 292.59 
L 309.102026 292.59 
L 309.291524 292.59 
L 309.481021 292.59 
L 309.670519 292.59 
L 309.860017 292.59 
L 310.049515 292.59 
L 310.239012 292.59 
L 310.42851 292.59 
L 310.618008 292.59 
L 310.807506 292.59 
L 310.997003 292.59 
L 311.186501 292.59 
L 311.375999 292.59 
L 311.565496 292.59 
L 311.754994 292.59 
L 311.944492 292.59 
L 312.13399 292.59 
L 312.323487 292.59 
L 312.512985 292.59 
L 312.702483 292.59 
L 312.891981 292.59 
L 313.081478 292.59 
L 313.270976 292.59 
L 313.460474 292.59 
L 313.649972 292.59 
L 313.839469 292.59 
L 314.028967 292.59 
L 314.218465 292.59 
L 314.407962 292.59 
L 314.59746 292.59 
L 314.786958 292.59 
L 314.976456 292.59 
L 315.165953 292.59 
L 315.355451 292.59 
L 315.544949 292.59 
L 315.734447 292.59 
L 315.923944 292.59 
L 316.113442 292.59 
L 316.30294 292.59 
L 316.492437 292.59 
L 316.681935 292.59 
L 316.871433 292.59 
L 317.060931 292.59 
L 317.250428 292.59 
L 317.439926 292.59 
L 317.629424 292.59 
L 317.818922 292.59 
L 318.008419 292.59 
L 318.197917 292.59 
L 318.387415 292.59 
L 318.576913 292.59 
L 318.76641 292.59 
L 318.955908 292.59 
L 319.145406 292.59 
L 319.334903 292.59 
L 319.524401 292.59 
L 319.713899 292.59 
L 319.903397 292.59 
L 320.092894 292.59 
L 320.282392 292.59 
L 320.47189 292.59 
L 320.661388 292.59 
L 320.850885 292.59 
L 321.040383 292.59 
L 321.229881 292.59 
L 321.229881 292.576886 
L 321.229881 292.576886 
L 321.040383 292.573222 
L 320.850885 292.563145 
L 320.661388 292.544893 
L 320.47189 292.515615 
L 320.282392 292.47167 
L 320.092894 292.409021 
L 319.903397 292.323726 
L 319.713899 292.212421 
L 319.524401 292.072672 
L 319.334903 291.903041 
L 319.145406 291.702808 
L 318.955908 291.471405 
L 318.76641 291.207803 
L 318.576913 290.910143 
L 318.387415 290.575845 
L 318.197917 290.202258 
L 318.008419 289.78757 
L 317.818922 289.33153 
L 317.629424 288.835413 
L 317.439926 288.300868 
L 317.250428 287.727667 
L 317.060931 287.11083 
L 316.871433 286.437939 
L 316.681935 285.687636 
L 316.492437 284.830062 
L 316.30294 283.829637 
L 316.113442 282.649941 
L 315.923944 281.259863 
L 315.734447 279.639745 
L 315.544949 277.786075 
L 315.355451 275.713568 
L 315.165953 273.45406 
L 314.976456 271.052406 
L 314.786958 268.56026 
L 314.59746 266.028877 
L 314.407962 263.502108 
L 314.218465 261.010423 
L 314.028967 258.566543 
L 313.839469 256.163029 
L 313.649972 253.772023 
L 313.460474 251.347124 
L 313.270976 248.827143 
L 313.081478 246.141273 
L 312.891981 243.215211 
L 312.702483 239.977998 
L 312.512985 236.369564 
L 312.323487 232.348906 
L 312.13399 227.902399 
L 311.944492 223.05103 
L 311.754994 217.854775 
L 311.565496 212.412294 
L 311.375999 206.854686 
L 311.186501 201.333158 
L 310.997003 196.00184 
L 310.807506 190.998196 
L 310.618008 186.424419 
L 310.42851 182.333551 
L 310.239012 178.723562 
L 310.049515 175.541267 
L 309.860017 172.695749 
L 309.670519 170.0785 
L 309.481021 167.585565 
L 309.291524 165.136299 
L 309.102026 162.684386 
L 308.912528 160.21912 
L 308.72303 157.757939 
L 308.533533 155.333757 
L 308.344035 152.982114 
L 308.154537 150.73303 
L 307.96504 148.610849 
L 307.775542 146.642564 
L 307.586044 144.871838 
L 307.396546 143.373214 
L 307.207049 142.259842 
L 307.017551 141.679358 
L 306.828053 141.796279 
L 306.638555 142.76419 
L 306.449058 144.695354 
L 306.25956 147.637044 
L 306.070062 151.562028 
L 305.880564 156.37584 
L 305.691067 161.937584 
L 305.501569 168.086649 
L 305.312071 174.666505 
L 305.122574 181.539038 
L 304.933076 188.587451 
L 304.743578 195.710455 
L 304.55408 202.813341 
L 304.364583 209.801598 
L 304.175085 216.58038 
L 303.985587 223.059716 
L 303.796089 229.162608 
L 303.606592 234.832166 
L 303.417094 240.034966 
L 303.227596 244.759959 
L 303.038098 249.014391 
L 302.848601 252.819128 
L 302.659103 256.205334 
L 302.469605 259.213082 
L 302.280108 261.891025 
L 302.09061 264.295604 
L 301.901112 266.488537 
L 301.711614 268.532313 
L 301.522117 270.484422 
L 301.332619 272.391612 
L 301.143121 274.285472 
L 300.953623 276.18017 
L 300.764126 278.07259 
L 300.574628 279.944674 
L 300.38513 281.767446 
L 300.195632 283.506053 
L 300.006135 285.125096 
L 299.816637 286.593496 
L 299.627139 287.88825 
L 299.437642 288.996658 
L 299.248144 289.916894 
L 299.058646 290.657088 
L 298.869148 291.233317 
L 298.679651 291.667009 
L 298.490153 291.982216 
L 298.300655 292.203164 
L 298.111157 292.35233 
L 297.92166 292.449163 
L 297.732162 292.509448 
L 297.542664 292.545223 
L 297.353166 292.565061 
L 297.163669 292.574562 
z
" style="fill:#33a02c;fill-opacity:0.25;"/>
   </g>
   <g id="PolyCollection_5">
    <path clip-path="url(#p0ff0cab980)" d="M 454.073616 292.576734 
L 454.073616 292.59 
L 454.250109 292.59 
L 454.426602 292.59 
L 454.603095 292.59 
L 454.779589 292.59 
L 454.956082 292.59 
L 455.132575 292.59 
L 455.309068 292.59 
L 455.485561 292.59 
L 455.662055 292.59 
L 455.838548 292.59 
L 456.015041 292.59 
L 456.191534 292.59 
L 456.368027 292.59 
L 456.544521 292.59 
L 456.721014 292.59 
L 456.897507 292.59 
L 457.074 292.59 
L 457.250494 292.59 
L 457.426987 292.59 
L 457.60348 292.59 
L 457.779973 292.59 
L 457.956466 292.59 
L 458.13296 292.59 
L 458.309453 292.59 
L 458.485946 292.59 
L 458.662439 292.59 
L 458.838933 292.59 
L 459.015426 292.59 
L 459.191919 292.59 
L 459.368412 292.59 
L 459.544905 292.59 
L 459.721399 292.59 
L 459.897892 292.59 
L 460.074385 292.59 
L 460.250878 292.59 
L 460.427371 292.59 
L 460.603865 292.59 
L 460.780358 292.59 
L 460.956851 292.59 
L 461.133344 292.59 
L 461.309838 292.59 
L 461.486331 292.59 
L 461.662824 292.59 
L 461.839317 292.59 
L 462.01581 292.59 
L 462.192304 292.59 
L 462.368797 292.59 
L 462.54529 292.59 
L 462.721783 292.59 
L 462.898277 292.59 
L 463.07477 292.59 
L 463.251263 292.59 
L 463.427756 292.59 
L 463.604249 292.59 
L 463.780743 292.59 
L 463.957236 292.59 
L 464.133729 292.59 
L 464.310222 292.59 
L 464.486715 292.59 
L 464.663209 292.59 
L 464.839702 292.59 
L 465.016195 292.59 
L 465.192688 292.59 
L 465.369182 292.59 
L 465.545675 292.59 
L 465.722168 292.59 
L 465.898661 292.59 
L 466.075154 292.59 
L 466.251648 292.59 
L 466.428141 292.59 
L 466.604634 292.59 
L 466.781127 292.59 
L 466.957621 292.59 
L 467.134114 292.59 
L 467.310607 292.59 
L 467.4871 292.59 
L 467.663593 292.59 
L 467.840087 292.59 
L 468.01658 292.59 
L 468.193073 292.59 
L 468.369566 292.59 
L 468.546059 292.59 
L 468.722553 292.59 
L 468.899046 292.59 
L 469.075539 292.59 
L 469.252032 292.59 
L 469.428526 292.59 
L 469.605019 292.59 
L 469.781512 292.59 
L 469.958005 292.59 
L 470.134498 292.59 
L 470.310992 292.59 
L 470.487485 292.59 
L 470.663978 292.59 
L 470.840471 292.59 
L 471.016965 292.59 
L 471.193458 292.59 
L 471.369951 292.59 
L 471.546444 292.59 
L 471.722937 292.59 
L 471.899431 292.59 
L 472.075924 292.59 
L 472.252417 292.59 
L 472.42891 292.59 
L 472.605403 292.59 
L 472.781897 292.59 
L 472.95839 292.59 
L 473.134883 292.59 
L 473.311376 292.59 
L 473.48787 292.59 
L 473.664363 292.59 
L 473.840856 292.59 
L 474.017349 292.59 
L 474.193842 292.59 
L 474.370336 292.59 
L 474.546829 292.59 
L 474.723322 292.59 
L 474.899815 292.59 
L 475.076309 292.59 
L 475.252802 292.59 
L 475.429295 292.59 
L 475.605788 292.59 
L 475.782281 292.59 
L 475.958775 292.59 
L 476.135268 292.59 
L 476.311761 292.59 
L 476.488254 292.59 
L 476.488254 292.574655 
L 476.488254 292.574655 
L 476.311761 292.563711 
L 476.135268 292.53968 
L 475.958775 292.494996 
L 475.782281 292.418428 
L 475.605788 292.295282 
L 475.429295 292.108486 
L 475.252802 291.840713 
L 475.076309 291.477289 
L 474.899815 291.00914 
L 474.723322 290.434614 
L 474.546829 289.759101 
L 474.370336 288.991906 
L 474.193842 288.140933 
L 474.017349 287.206774 
L 473.840856 286.178495 
L 473.664363 285.03315 
L 473.48787 283.739871 
L 473.311376 282.267628 
L 473.134883 280.593991 
L 472.95839 278.711351 
L 472.781897 276.627513 
L 472.605403 274.359623 
L 472.42891 271.923195 
L 472.252417 269.320538 
L 472.075924 266.533606 
L 471.899431 263.524607 
L 471.722937 260.244224 
L 471.546444 256.643769 
L 471.369951 252.68586 
L 471.193458 248.349198 
L 471.016965 243.625766 
L 470.840471 238.511746 
L 470.663978 232.995366 
L 470.487485 227.045783 
L 470.310992 220.607679 
L 470.134498 213.606489 
L 469.958005 205.967739 
L 469.781512 197.649497 
L 469.605019 188.67977 
L 469.428526 179.184561 
L 469.252032 169.392087 
L 469.075539 159.606824 
L 468.899046 150.160651 
L 468.722553 141.359878 
L 468.546059 133.448992 
L 468.369566 126.602529 
L 468.193073 120.9408 
L 468.01658 116.552538 
L 467.840087 113.505188 
L 467.663593 111.832458 
L 467.4871 111.503382 
L 467.310607 112.389356 
L 467.134114 114.249254 
L 466.957621 116.746603 
L 466.781127 119.500212 
L 466.604634 122.156217 
L 466.428141 124.460642 
L 466.251648 126.310667 
L 466.075154 127.769842 
L 465.898661 129.044819 
L 465.722168 130.43353 
L 465.545675 132.262306 
L 465.369182 134.829309 
L 465.192688 138.365121 
L 465.016195 143.012362 
L 464.839702 148.819588 
L 464.663209 155.742908 
L 464.486715 163.651029 
L 464.310222 172.333162 
L 464.133729 181.511783 
L 463.957236 190.862618 
L 463.780743 200.042908 
L 463.604249 208.726663 
L 463.427756 216.642771 
L 463.251263 223.609157 
L 463.07477 229.55481 
L 462.898277 234.522911 
L 462.721783 238.652859 
L 462.54529 242.145357 
L 462.368797 245.219953 
L 462.192304 248.076068 
L 462.01581 250.86596 
L 461.839317 253.682795 
L 461.662824 256.561957 
L 461.486331 259.490877 
L 461.309838 262.422803 
L 461.133344 265.291749 
L 460.956851 268.027603 
L 460.780358 270.57074 
L 460.603865 272.884371 
L 460.427371 274.961556 
L 460.250878 276.823802 
L 460.074385 278.510474 
L 459.897892 280.061948 
L 459.721399 281.50283 
L 459.544905 282.832367 
L 459.368412 284.02657 
L 459.191919 285.05146 
L 459.015426 285.881733 
L 458.838933 286.516581 
L 458.662439 286.985763 
L 458.485946 287.343567 
L 458.309453 287.653658 
L 458.13296 287.971385 
L 457.956466 288.330458 
L 457.779973 288.738162 
L 457.60348 289.179313 
L 457.426987 289.625891 
L 457.250494 290.04804 
L 457.074 290.42282 
L 456.897507 290.738887 
L 456.721014 290.996981 
L 456.544521 291.207202 
L 456.368027 291.384477 
L 456.191534 291.543685 
L 456.015041 291.695715 
L 455.838548 291.845394 
L 455.662055 291.991608 
L 455.485561 292.129224 
L 455.309068 292.251864 
L 455.132575 292.354433 
L 454.956082 292.434609 
L 454.779589 292.493072 
L 454.603095 292.532743 
L 454.426602 292.557573 
L 454.250109 292.571343 
L 454.073616 292.576734 
z
" style="fill:#ff7f00;fill-opacity:0.25;"/>
   </g>
   <g id="PolyCollection_6">
    <path clip-path="url(#p0ff0cab980)" d="M 272.851691 292.554746 
L 272.851691 292.59 
L 272.970075 292.59 
L 273.088459 292.59 
L 273.206844 292.59 
L 273.325228 292.59 
L 273.443612 292.59 
L 273.561997 292.59 
L 273.680381 292.59 
L 273.798765 292.59 
L 273.91715 292.59 
L 274.035534 292.59 
L 274.153918 292.59 
L 274.272303 292.59 
L 274.390687 292.59 
L 274.509071 292.59 
L 274.627456 292.59 
L 274.74584 292.59 
L 274.864224 292.59 
L 274.982609 292.59 
L 275.100993 292.59 
L 275.219377 292.59 
L 275.337762 292.59 
L 275.456146 292.59 
L 275.57453 292.59 
L 275.692915 292.59 
L 275.811299 292.59 
L 275.929683 292.59 
L 276.048068 292.59 
L 276.166452 292.59 
L 276.284836 292.59 
L 276.403221 292.59 
L 276.521605 292.59 
L 276.639989 292.59 
L 276.758374 292.59 
L 276.876758 292.59 
L 276.995142 292.59 
L 277.113527 292.59 
L 277.231911 292.59 
L 277.350295 292.59 
L 277.46868 292.59 
L 277.587064 292.59 
L 277.705448 292.59 
L 277.823833 292.59 
L 277.942217 292.59 
L 278.060601 292.59 
L 278.178986 292.59 
L 278.29737 292.59 
L 278.415754 292.59 
L 278.534139 292.59 
L 278.652523 292.59 
L 278.770907 292.59 
L 278.889292 292.59 
L 279.007676 292.59 
L 279.12606 292.59 
L 279.244445 292.59 
L 279.362829 292.59 
L 279.481213 292.59 
L 279.599598 292.59 
L 279.717982 292.59 
L 279.836366 292.59 
L 279.954751 292.59 
L 280.073135 292.59 
L 280.191519 292.59 
L 280.309904 292.59 
L 280.428288 292.59 
L 280.546672 292.59 
L 280.665057 292.59 
L 280.783441 292.59 
L 280.901825 292.59 
L 281.02021 292.59 
L 281.138594 292.59 
L 281.256978 292.59 
L 281.375363 292.59 
L 281.493747 292.59 
L 281.612131 292.59 
L 281.730516 292.59 
L 281.8489 292.59 
L 281.967284 292.59 
L 282.085669 292.59 
L 282.204053 292.59 
L 282.322437 292.59 
L 282.440822 292.59 
L 282.559206 292.59 
L 282.67759 292.59 
L 282.795975 292.59 
L 282.914359 292.59 
L 283.032743 292.59 
L 283.151128 292.59 
L 283.269512 292.59 
L 283.387896 292.59 
L 283.506281 292.59 
L 283.624665 292.59 
L 283.743049 292.59 
L 283.861434 292.59 
L 283.979818 292.59 
L 284.098202 292.59 
L 284.216587 292.59 
L 284.334971 292.59 
L 284.453355 292.59 
L 284.57174 292.59 
L 284.690124 292.59 
L 284.808508 292.59 
L 284.926893 292.59 
L 285.045277 292.59 
L 285.163661 292.59 
L 285.282046 292.59 
L 285.40043 292.59 
L 285.518814 292.59 
L 285.637199 292.59 
L 285.755583 292.59 
L 285.873967 292.59 
L 285.992352 292.59 
L 286.110736 292.59 
L 286.22912 292.59 
L 286.347505 292.59 
L 286.465889 292.59 
L 286.584273 292.59 
L 286.702658 292.59 
L 286.821042 292.59 
L 286.939426 292.59 
L 287.057811 292.59 
L 287.176195 292.59 
L 287.294579 292.59 
L 287.412964 292.59 
L 287.531348 292.59 
L 287.649732 292.59 
L 287.768117 292.59 
L 287.886501 292.59 
L 287.886501 292.564065 
L 287.886501 292.564065 
L 287.768117 292.559393 
L 287.649732 292.540935 
L 287.531348 292.505739 
L 287.412964 292.448711 
L 287.294579 292.363853 
L 287.176195 292.245717 
L 287.057811 292.090802 
L 286.939426 291.898373 
L 286.821042 291.670095 
L 286.702658 291.408118 
L 286.584273 291.111791 
L 286.465889 290.77384 
L 286.347505 290.377228 
L 286.22912 289.893904 
L 286.110736 289.286127 
L 285.992352 288.510367 
L 285.873967 287.523185 
L 285.755583 286.288092 
L 285.637199 284.782164 
L 285.518814 283.000958 
L 285.40043 280.960301 
L 285.282046 278.693874 
L 285.163661 276.246569 
L 285.045277 273.664942 
L 284.926893 270.987096 
L 284.808508 268.234296 
L 284.690124 265.405505 
L 284.57174 262.474535 
L 284.453355 259.388855 
L 284.334971 256.069933 
L 284.216587 252.416956 
L 284.098202 248.317281 
L 283.979818 243.666263 
L 283.861434 238.39526 
L 283.743049 232.500805 
L 283.624665 226.063198 
L 283.506281 219.242759 
L 283.387896 212.248592 
L 283.269512 205.286197 
L 283.151128 198.501313 
L 283.032743 191.941664 
L 282.914359 185.552314 
L 282.795975 179.206138 
L 282.67759 172.755453 
L 282.559206 166.081961 
L 282.440822 159.124365 
L 282.322437 151.874588 
L 282.204053 144.348313 
L 282.085669 136.546439 
L 281.967284 128.427041 
L 281.8489 119.902467 
L 281.730516 110.866274 
L 281.612131 101.243414 
L 281.493747 91.047702 
L 281.375363 80.425681 
L 281.256978 69.667867 
L 281.138594 59.177733 
L 281.02021 49.403986 
L 280.901825 40.757083 
L 280.783441 33.539499 
L 280.665057 27.915304 
L 280.546672 23.928677 
L 280.428288 21.559749 
L 280.309904 20.79 
L 280.191519 21.646181 
L 280.073135 24.202568 
L 279.954751 28.540474 
L 279.836366 34.682126 
L 279.717982 42.52588 
L 279.599598 51.808575 
L 279.481213 62.110735 
L 279.362829 72.906268 
L 279.244445 83.645137 
L 279.12606 93.84885 
L 279.007676 103.195722 
L 278.889292 111.575569 
L 278.770907 119.100459 
L 278.652523 126.067989 
L 278.534139 132.884357 
L 278.415754 139.964402 
L 278.29737 147.632034 
L 278.178986 156.045185 
L 278.060601 165.163517 
L 277.942217 174.765867 
L 277.823833 184.510819 
L 277.705448 194.022137 
L 277.587064 202.974644 
L 277.46868 211.157632 
L 277.350295 218.501204 
L 277.231911 225.063149 
L 277.113527 230.985656 
L 276.995142 236.438731 
L 276.876758 241.568576 
L 276.758374 246.464874 
L 276.639989 251.153019 
L 276.521605 255.608686 
L 276.403221 259.785549 
L 276.284836 263.644072 
L 276.166452 267.170784 
L 276.048068 270.382368 
L 275.929683 273.315294 
L 275.811299 276.007205 
L 275.692915 278.478774 
L 275.57453 280.723619 
L 275.456146 282.709957 
L 275.337762 284.392908 
L 275.219377 285.732745 
L 275.100993 286.71294 
L 274.982609 287.35252 
L 274.864224 287.709255 
L 274.74584 287.872726 
L 274.627456 287.948808 
L 274.509071 288.039423 
L 274.390687 288.222873 
L 274.272303 288.540212 
L 274.153918 288.991397 
L 274.035534 289.541862 
L 273.91715 290.136701 
L 273.798765 290.717435 
L 273.680381 291.236139 
L 273.561997 291.663515 
L 273.443612 291.990156 
L 273.325228 292.222612 
L 273.206844 292.376979 
L 273.088459 292.472564 
L 272.970075 292.527217 
L 272.851691 292.554746 
z
" style="fill:#1f78b4;fill-opacity:0.25;"/>
   </g>
   <g id="line2d_16">
    <path clip-path="url(#p0ff0cab980)" d="M 297.918849 292.569175 
L 298.348602 292.479585 
L 298.635103 292.279593 
L 298.921604 291.871151 
L 299.351356 290.757417 
L 300.927114 284.93471 
L 301.213615 283.023372 
L 301.500117 279.553492 
L 301.929869 270.325308 
L 302.359621 255.786653 
L 303.075874 223.003485 
L 304.22188 170.345569 
L 305.081384 133.24224 
L 305.797638 104.374078 
L 306.800393 76.342616 
L 306.943643 74.222518 
L 307.086894 73.783095 
L 307.230145 75.355699 
L 307.516646 84.81219 
L 307.946398 110.722773 
L 308.949153 174.695291 
L 309.665406 210.228938 
L 310.095159 223.209422 
L 311.957418 263.392008 
L 312.673671 278.814314 
L 313.103423 284.119752 
L 313.533175 287.048806 
L 314.106178 289.433727 
L 314.822431 291.554211 
L 315.252184 292.242267 
L 315.681936 292.511805 
L 316.111688 292.571636 
L 316.111688 292.571636 
" style="fill:none;stroke:#0000ff;stroke-linecap:round;stroke-width:2;"/>
   </g>
   <g id="line2d_17">
    <path clip-path="url(#p0ff0cab980)" d="M 233.463681 292.577905 
L 234.226232 292.479678 
L 234.798146 292.181197 
L 236.132612 291.222613 
L 237.085802 291.009194 
L 237.467077 290.540282 
L 237.848353 289.588428 
L 238.229629 287.902607 
L 238.801543 283.789306 
L 240.136009 273.208676 
L 240.707923 268.159612 
L 241.279836 259.948464 
L 241.85175 247.643819 
L 242.995578 216.146333 
L 245.283233 149.627602 
L 246.236423 127.722949 
L 246.617699 122.410008 
L 246.808337 121.082592 
L 246.998975 120.801949 
L 247.189613 121.592899 
L 247.570888 126.088487 
L 248.142802 138.326292 
L 248.714716 156.06747 
L 250.621096 224.433543 
L 252.527475 272.091457 
L 253.099389 281.63625 
L 253.480665 285.519519 
L 253.861941 287.895834 
L 254.433854 289.841645 
L 255.005768 290.922887 
L 255.76832 291.819433 
L 256.530872 292.365793 
L 257.293424 292.559905 
L 257.674699 292.578527 
L 257.674699 292.578527 
" style="fill:none;stroke:#000000;stroke-linecap:round;stroke-width:2;"/>
   </g>
   <g id="line2d_18">
    <path clip-path="url(#p0ff0cab980)" d="M 70.670072 292.58286 
L 72.721049 292.486765 
L 73.951634 292.215344 
L 75.18222 291.668599 
L 80.104562 288.775165 
L 80.924953 287.880048 
L 81.745343 286.302382 
L 82.565734 283.830215 
L 83.796319 278.894566 
L 87.077881 264.566098 
L 88.718662 254.782915 
L 91.179833 239.596036 
L 94.0512 218.662748 
L 94.461395 216.900368 
L 94.87159 215.753607 
L 95.281786 215.250583 
L 95.691981 215.382143 
L 96.102176 216.103473 
L 96.512371 217.338683 
L 97.332762 220.947576 
L 99.383738 232.314712 
L 103.075495 252.04803 
L 104.716276 260.443744 
L 105.946861 265.641571 
L 110.459009 281.722218 
L 111.279399 284.029459 
L 112.09979 285.849389 
L 112.92018 287.251865 
L 113.74057 288.291826 
L 114.560961 289.017063 
L 115.791547 289.743177 
L 117.022132 290.481246 
L 119.483303 292.106796 
L 120.713889 292.461623 
L 122.35467 292.577798 
L 122.764865 292.582423 
L 122.764865 292.582423 
" style="fill:none;stroke:#e31a1c;stroke-linecap:round;stroke-width:2;"/>
   </g>
   <g id="line2d_19">
    <path clip-path="url(#p0ff0cab980)" d="M 297.163669 292.574562 
L 297.92166 292.449163 
L 298.300655 292.203164 
L 298.679651 291.667009 
L 299.058646 290.657088 
L 299.437642 288.996658 
L 300.006135 285.125096 
L 300.953623 276.18017 
L 302.280108 261.891025 
L 302.848601 252.819128 
L 303.417094 240.034966 
L 304.175085 216.58038 
L 306.070062 151.562028 
L 306.449058 144.695354 
L 306.828053 141.796279 
L 307.017551 141.679358 
L 307.207049 142.259842 
L 307.586044 144.871838 
L 308.344035 152.982114 
L 309.860017 172.695749 
L 310.42851 182.333551 
L 310.997003 196.00184 
L 312.512985 236.369564 
L 313.270976 248.827143 
L 315.544949 277.786075 
L 316.113442 282.649941 
L 316.681935 285.687636 
L 317.439926 288.300868 
L 318.197917 290.202258 
L 318.955908 291.471405 
L 319.524401 292.072672 
L 320.092894 292.409021 
L 320.850885 292.563145 
L 321.229881 292.576886 
L 321.229881 292.576886 
" style="fill:none;stroke:#33a02c;stroke-linecap:round;stroke-width:2;"/>
   </g>
   <g id="line2d_20">
    <path clip-path="url(#p0ff0cab980)" d="M 454.073616 292.576734 
L 454.779589 292.493072 
L 455.309068 292.251864 
L 456.368027 291.384477 
L 456.897507 290.738887 
L 457.426987 289.625891 
L 458.309453 287.653658 
L 458.838933 286.516581 
L 459.191919 285.05146 
L 459.721399 281.50283 
L 460.427371 274.961556 
L 460.956851 268.027603 
L 462.54529 242.145357 
L 463.07477 229.55481 
L 463.604249 208.726663 
L 465.016195 143.012362 
L 465.369182 134.829309 
L 465.722168 130.43353 
L 466.428141 124.460642 
L 467.4871 111.503382 
L 467.663593 111.832458 
L 467.840087 113.505188 
L 468.193073 120.9408 
L 468.722553 141.359878 
L 470.663978 232.995366 
L 471.369951 252.68586 
L 472.075924 266.533606 
L 472.95839 278.711351 
L 473.48787 283.739871 
L 474.193842 288.140933 
L 474.899815 291.00914 
L 475.429295 292.108486 
L 475.782281 292.418428 
L 476.311761 292.563711 
L 476.488254 292.574655 
L 476.488254 292.574655 
" style="fill:none;stroke:#ff7f00;stroke-linecap:round;stroke-width:2;"/>
   </g>
   <g id="line2d_21">
    <path clip-path="url(#p0ff0cab980)" d="M 272.851691 292.554746 
L 273.206844 292.376979 
L 273.443612 291.990156 
L 273.798765 290.717435 
L 274.390687 288.222873 
L 274.74584 287.872726 
L 274.864224 287.709255 
L 275.100993 286.71294 
L 275.337762 284.392908 
L 275.692915 278.478774 
L 276.166452 267.170784 
L 276.758374 246.464874 
L 277.350295 218.501204 
L 277.823833 184.510819 
L 278.534139 132.884357 
L 279.12606 93.84885 
L 279.954751 28.540474 
L 280.191519 21.646181 
L 280.309904 20.79 
L 280.428288 21.559749 
L 280.665057 27.915304 
L 281.02021 49.403986 
L 282.440822 159.124365 
L 283.979818 243.666263 
L 284.453355 259.388855 
L 285.282046 278.693874 
L 285.755583 286.288092 
L 286.110736 289.286127 
L 286.465889 290.77384 
L 286.939426 291.898373 
L 287.294579 292.363853 
L 287.649732 292.540935 
L 287.886501 292.564065 
L 287.886501 292.564065 
" style="fill:none;stroke:#1f78b4;stroke-linecap:round;stroke-width:2;"/>
   </g>
   <g id="line2d_22">
    <path clip-path="url(#p0ff0cab980)" d="M 308.080921 306.18 
L 308.080921 7.2 
" style="fill:none;stroke:#33a02c;stroke-dasharray:8.4,3.6;stroke-dashoffset:0;stroke-width:3;"/>
   </g>
   <g id="patch_3">
    <path d="M 50.379163 306.18 
L 50.379163 7.2 
" style="fill:none;"/>
   </g>
   <g id="patch_4">
    <path d="M 496.779163 306.18 
L 496.779163 7.2 
" style="fill:none;"/>
   </g>
   <g id="patch_5">
    <path d="M 50.379163 306.18 
L 496.779163 306.18 
" style="fill:none;"/>
   </g>
   <g id="patch_6">
    <path d="M 50.379163 7.2 
L 496.779163 7.2 
" style="fill:none;"/>
   </g>
   <g id="legend_1">
    <g id="line2d_23">
     <path d="M 62.979163 24.7 
L 90.979163 24.7 
" style="fill:none;stroke:#0000ff;stroke-linecap:round;stroke-width:2;"/>
    </g>
    <g id="line2d_24"/>
    <g id="text_18">
     <!-- \emph{egl-9} $&gt;$ \emph{vhl-1} -->
     <defs>
      <path d="M 44.09375 10.859375 
C 42.796875 9.953125 41.5 8.9375 40.09375 8.140625 
C 34.296875 4.59375 24.09375 1.765625 18.203125 7.53125 
C 14.40625 11.375 13.203125 17.53125 14.796875 25 
L 46.40625 25 
C 46.796875 25 47.40625 24.90625 47.703125 25.203125 
C 48.5 25.8125 48.703125 31.375 48.703125 31.46875 
C 48.703125 32.6875 48.796875 33.890625 48.703125 35.109375 
C 48.296875 40.46875 45.703125 45.3125 40.703125 47.140625 
C 34.296875 49.765625 27 47.84375 21.5 43.90625 
C 13.796875 38.4375 8.40625 29.046875 8 19.453125 
C 7.59375 11.875 10.5 5.515625 15.40625 2.171875 
C 23.40625 -3.484375 34.5 -0.15625 40.90625 3.6875 
C 41.703125 4.203125 42.90625 4.703125 43.40625 5.40625 
C 43.703125 5.90625 44.09375 10.859375 44.09375 10.859375 
M 43.296875 28.953125 
L 16.203125 28.953125 
C 16.59375 30.671875 17.703125 32.390625 18.703125 33.796875 
C 21.296875 37.84375 25.09375 41.46875 29.796875 42.796875 
C 33.59375 43.90625 38.296875 43.1875 41 40.0625 
C 43.203125 37.4375 43.703125 33.390625 43.296875 28.953125 
" id="Computer_Modern_Bright_Slanted-101"/>
      <path d="M 37.90625 12.09375 
L 38 12.09375 
C 37.703125 10.1875 37.203125 8.265625 36.796875 6.34375 
C 36.203125 3.3125 35.703125 0.171875 34.703125 -2.65625 
C 33.5 -5.984375 31.203125 -9.109375 28.296875 -11.140625 
C 25.90625 -12.75 23.796875 -13.265625 19.90625 -12.953125 
C 15.09375 -12.953125 11.59375 -12.03125 7.796875 -10.265625 
C 6.703125 -9.75 5.796875 -9.125 4.703125 -8.609375 
L 3.5 -14.171875 
C 8.09375 -16.25 12.203125 -18 18.40625 -18 
C 19.796875 -18.109375 21.203125 -18.203125 22.59375 -18.109375 
C 31.703125 -17.203125 38.5 -10.21875 41.09375 -2.828125 
C 41.796875 -1 42.09375 1.015625 42.5 2.953125 
L 44.203125 11.03125 
C 44.796875 13.78125 51.90625 47.390625 52 48.5 
L 45.703125 48.5 
L 44.09375 40.265625 
C 43.703125 40.984375 43.5 41.78125 43.203125 42.5 
C 42.5 43.90625 41.5 45.21875 40.296875 46.234375 
C 34.40625 51.1875 25 46.640625 21 43.5 
C 15.09375 38.953125 11 32.296875 9.203125 25.125 
C 6.90625 16.234375 9.5 8.0625 14.90625 4.328125 
C 18.796875 1.59375 24.796875 0.78125 30 3.71875 
C 32.90625 5.4375 36.40625 8.96875 37.90625 12.09375 
M 34.59375 43.5 
C 40.296875 43.5 42.703125 39.546875 42.703125 33.890625 
C 42.59375 33.1875 42.40625 32.375 42.296875 31.671875 
C 40.703125 24.59375 39.40625 17.53125 35.59375 12.0625 
C 33.703125 9.34375 30.90625 7.125 27.5 6.8125 
C 25 6.609375 22.40625 7.515625 20.796875 8.328125 
C 15.90625 11.15625 14.296875 17.21875 15.09375 22.578125 
C 16 28.9375 19.5 35.03125 24.5 39.0625 
C 27.40625 41.4375 30.90625 43.203125 34.59375 43.5 
M 38 12.21875 
C 38 12.21875 38.09375 12.21875 38.09375 12.21875 
C 38.09375 12.125 38 12.015625 38 12.21875 
" id="Computer_Modern_Bright_Slanted-103"/>
      <path d="M 21.09375 70 
L 6.40625 0 
C 8.5 0 10.796875 0 12.59375 0.296875 
L 13 1.40625 
C 14 6.4375 15.09375 11.375 16.203125 16.40625 
L 27.40625 70 
z
" id="Computer_Modern_Bright_Slanted-108"/>
      <path d="M 5.90625 26.0625 
L 4.90625 21 
L 32.796875 21 
L 33.796875 26.0625 
z
" id="Computer_Modern_Bright_Slanted-45"/>
      <path d="M 46.5 33.03125 
L 46.59375 33.03125 
C 46.296875 31.3125 45.90625 29.59375 45.40625 27.96875 
C 42.703125 18.296875 37.09375 7.828125 26.90625 4.625 
C 21.5 3.015625 15.90625 4.03125 12.5 6.734375 
C 12.203125 6.9375 11.59375 7.640625 11.09375 7.546875 
C 10.703125 7.546875 10.296875 6.84375 10.09375 6.53125 
C 9.203125 5.421875 8.296875 4.328125 7.5 3.21875 
C 9.296875 1.796875 11.09375 0.484375 13.296875 -0.3125 
C 15.90625 -1.328125 20.5 -1.828125 23.59375 -1.234375 
C 29 -0.421875 34 2.515625 38.09375 6.03125 
C 47.5 14.375 53.09375 26.21875 54.59375 41.390625 
C 55.09375 45.90625 55.203125 50.515625 54.09375 55.046875 
C 53.203125 58.953125 51.703125 61.46875 48.90625 63.984375 
C 43.796875 68 36.296875 68 30.703125 65.453125 
C 25.40625 62.921875 19.90625 57.65625 17.203125 53.078125 
C 14.59375 48.609375 12.703125 41.40625 13.09375 34.90625 
C 13.5 30.8125 15.5 26.21875 18 23.703125 
C 20.296875 21.515625 23.09375 21 26.09375 21 
C 32.09375 21 38.203125 23.9375 42.5 28.171875 
C 43.90625 29.59375 45.59375 31.109375 46.5 33.03125 
M 43.90625 61.03125 
C 48.59375 58.484375 49.40625 52.515625 48.90625 47.640625 
C 48.703125 44.90625 48.5 42.171875 47.59375 39.53125 
C 45.796875 34.46875 42.09375 30 37.40625 27.578125 
C 32.40625 25.03125 24.59375 25.03125 21.5 29.765625 
C 18.90625 33.484375 19.296875 38 20.09375 42.234375 
C 20.796875 45.546875 21.5 48.96875 23 52.078125 
C 25 56.109375 28.59375 59.734375 32.90625 61.234375 
C 36.5 62.4375 40.59375 62.4375 43.90625 61.03125 
" id="Computer_Modern_Bright_Slanted-57"/>
      <path d="M 62.59375 26.546875 
L 62.59375 26.34375 
C 60.296875 25.546875 58 24.25 55.796875 23.140625 
L 27.09375 9.625 
L 11.09375 2 
C 10.40625 1.703125 9.40625 1.296875 8.90625 0.796875 
C 8 -0.203125 8.203125 -1.703125 9.296875 -2.296875 
C 10.5 -3 11.703125 -2.109375 12.796875 -1.609375 
L 21 2.203125 
C 25.203125 4.3125 55 18.328125 55 18.328125 
L 66 23.546875 
C 67.296875 24.140625 69.40625 24.75 69.40625 26.453125 
C 69.40625 28.15625 67.296875 28.75 66 29.359375 
L 55 34.5625 
L 33.703125 44.6875 
C 29.5 46.6875 25.203125 48.59375 21 50.703125 
L 12.796875 54.5 
C 11.703125 55 10.5 55.90625 9.296875 55.203125 
C 8.203125 54.609375 8 53.09375 8.90625 52.09375 
C 9.40625 51.59375 10.40625 51.203125 11.09375 50.890625 
L 41.59375 36.46875 
L 55.796875 29.75 
C 58 28.65625 60.296875 27.359375 62.59375 26.546875 
" id="Computer_Modern_Bright_Math_Slanted-62"/>
      <path d="M 10.703125 48 
C 12.796875 33.046875 15.09375 18.171875 17.09375 3.125 
C 17.296875 2.109375 17.296875 0.90625 17.796875 0.203125 
C 19.90625 0 22.59375 0 24.703125 0 
L 25.296875 0.703125 
L 44.703125 35.109375 
L 51.796875 48 
C 49.703125 48 47.5 48 45.703125 47.703125 
C 44.90625 46.59375 44.296875 45.484375 43.59375 44.265625 
C 36.59375 31.84375 29.40625 19.515625 22.703125 6.6875 
C 21.59375 16.984375 20 26.6875 18.59375 36.6875 
C 18 40.328125 17.90625 44.46875 16.90625 47.703125 
C 15.09375 48 12.796875 48 10.703125 48 
" id="Computer_Modern_Bright_Slanted-118"/>
      <path d="M 21.09375 70 
L 6.40625 0 
L 10.90625 0 
C 11.796875 0 13 -0.296875 13 1.015625 
C 13.203125 1.71875 13.296875 2.328125 13.40625 3.03125 
C 14.40625 7.78125 19 29.5 19.296875 30.40625 
C 20.40625 33.953125 22.40625 37.375 25.09375 39.90625 
C 28 42.4375 31.203125 43.84375 36.59375 42.9375 
C 38.796875 42.53125 40.90625 41.625 42 39.5 
C 43.5 36.46875 42.40625 32.9375 41.796875 29.90625 
L 35.5 0 
L 40.203125 0 
C 41.203125 0 42.09375 -0.203125 42.09375 1.109375 
C 42.703125 3.125 44.09375 10.625 44.09375 10.625 
L 48.59375 32 
C 49.40625 35.734375 50.296875 40.40625 48.203125 43.9375 
C 46.296875 46.984375 42.90625 48 39.59375 48.296875 
C 38.09375 48.296875 36.5 48.296875 35 48 
C 30.796875 47.3125 27.09375 45.09375 24.09375 42.09375 
C 22.90625 40.890625 21.5 39.59375 20.796875 37.984375 
L 20.703125 37.984375 
L 27.40625 70 
z
" id="Computer_Modern_Bright_Slanted-104"/>
      <path d="M 22.5 61 
L 21.5 55.9375 
C 26.296875 55.9375 31.40625 56.546875 35.703125 58.875 
L 24.5 5.046875 
C 20.296875 5.046875 15.296875 5.5625 11.5 5.046875 
C 10.90625 3.578125 10.703125 1.671875 10.296875 0 
C 21.09375 0 32.59375 0 42.796875 0 
C 43.40625 1.453125 43.703125 3.296875 44.09375 5.046875 
L 31 5.046875 
C 35.203125 26.0625 39.796875 46.59375 44.09375 67.5 
C 41.703125 67.5 42 67.09375 40 65.59375 
C 35.59375 62.59375 28.90625 61 22.5 61 
" id="Computer_Modern_Bright_Slanted-49"/>
     </defs>
     <g style="fill:#262626;" transform="translate(102.179163 29.6)scale(0.14 -0.14)">
      <use transform="scale(0.996264)" xlink:href="#Computer_Modern_Bright_Slanted-101"/>
      <use transform="translate(44.831668 0)scale(0.996264)" xlink:href="#Computer_Modern_Bright_Slanted-103"/>
      <use transform="translate(92.984165 0)scale(0.996264)" xlink:href="#Computer_Modern_Bright_Slanted-108"/>
      <use transform="translate(112.079123 0)scale(0.996264)" xlink:href="#Computer_Modern_Bright_Slanted-45"/>
      <use transform="translate(145.287797 0)scale(0.996264)" xlink:href="#Computer_Modern_Bright_Slanted-57"/>
      <use transform="translate(238.372567 0)scale(0.996264)" xlink:href="#Computer_Modern_Bright_Math_Slanted-62"/>
      <use transform="translate(347.325246 0)scale(0.996264)" xlink:href="#Computer_Modern_Bright_Slanted-118"/>
      <use transform="translate(389.666284 0)scale(0.996264)" xlink:href="#Computer_Modern_Bright_Slanted-104"/>
      <use transform="translate(437.818781 0)scale(0.996264)" xlink:href="#Computer_Modern_Bright_Slanted-108"/>
      <use transform="translate(456.91374 0)scale(0.996264)" xlink:href="#Computer_Modern_Bright_Slanted-45"/>
      <use transform="translate(490.122414 0)scale(0.996264)" xlink:href="#Computer_Modern_Bright_Slanted-49"/>
     </g>
    </g>
    <g id="line2d_25">
     <path d="M 62.979163 43.824611 
L 90.979163 43.824611 
" style="fill:none;stroke:#000000;stroke-linecap:round;stroke-width:2;"/>
    </g>
    <g id="line2d_26"/>
    <g id="text_19">
     <!-- \emph{vhl-1} $&gt;$ \emph{egl-9} -->
     <g style="fill:#262626;" transform="translate(102.179163 48.724611)scale(0.14 -0.14)">
      <use transform="scale(0.996264)" xlink:href="#Computer_Modern_Bright_Slanted-118"/>
      <use transform="translate(42.341038 0)scale(0.996264)" xlink:href="#Computer_Modern_Bright_Slanted-104"/>
      <use transform="translate(90.493535 0)scale(0.996264)" xlink:href="#Computer_Modern_Bright_Slanted-108"/>
      <use transform="translate(109.588494 0)scale(0.996264)" xlink:href="#Computer_Modern_Bright_Slanted-45"/>
      <use transform="translate(142.797167 0)scale(0.996264)" xlink:href="#Computer_Modern_Bright_Slanted-49"/>
      <use transform="translate(235.881937 0)scale(0.996264)" xlink:href="#Computer_Modern_Bright_Math_Slanted-62"/>
      <use transform="translate(344.834617 0)scale(0.996264)" xlink:href="#Computer_Modern_Bright_Slanted-101"/>
      <use transform="translate(389.666284 0)scale(0.996264)" xlink:href="#Computer_Modern_Bright_Slanted-103"/>
      <use transform="translate(437.818781 0)scale(0.996264)" xlink:href="#Computer_Modern_Bright_Slanted-108"/>
      <use transform="translate(456.91374 0)scale(0.996264)" xlink:href="#Computer_Modern_Bright_Slanted-45"/>
      <use transform="translate(490.122414 0)scale(0.996264)" xlink:href="#Computer_Modern_Bright_Slanted-57"/>
     </g>
    </g>
    <g id="line2d_27">
     <path d="M 62.979163 62.949222 
L 90.979163 62.949222 
" style="fill:none;stroke:#e31a1c;stroke-linecap:round;stroke-width:2;"/>
    </g>
    <g id="line2d_28"/>
    <g id="text_20">
     <!-- Suppression -->
     <defs>
      <path d="M 5.09375 13.015625 
C 4.90625 11.390625 4.5 9.671875 4.296875 8.046875 
C 4.09375 6.53125 3.59375 6.109375 4.90625 5.3125 
C 8.296875 3.390625 11.203125 2.0625 15.40625 0.75 
C 24.796875 -2 35.59375 -2 43.796875 4.140625 
C 45.09375 5.140625 46.296875 6.234375 47.40625 7.53125 
C 49.90625 10.890625 52.203125 14.96875 51.59375 20.53125 
C 50.90625 27.671875 46.09375 33.625 39.59375 36.609375 
C 30.703125 40.578125 16.203125 40.578125 12.203125 49.375 
C 9.09375 56.1875 14.59375 62.171875 20.796875 64.375 
C 26.90625 66.6875 34.90625 65.78125 40.09375 63.375 
C 42.5 62.265625 44.5 60.65625 46.703125 59.25 
C 46.90625 60.96875 47.296875 62.578125 47.59375 64.28125 
C 47.796875 65.375 48.09375 66.390625 46.90625 66.78125 
L 45 67.796875 
C 42.296875 69 39.5 69.90625 36.59375 70.5 
C 27.59375 72.203125 17.203125 71.203125 10.40625 64.484375 
C 7 61.0625 4.09375 56.4375 5.296875 49.515625 
C 6.703125 42.390625 12.296875 37.875 18.09375 35.65625 
C 21.5 34.359375 25.296875 33.65625 28.90625 32.75 
C 31 32.34375 33.203125 31.84375 35.296875 31.140625 
C 40.703125 29.125 45.40625 25.109375 45.40625 17.6875 
C 44.796875 11.296875 39.203125 6.625 33.296875 5.203125 
C 25.703125 3.265625 16.703125 6.015625 11.5 8.75 
C 9.203125 9.96875 7.203125 11.59375 5.09375 13.015625 
" id="Computer_Modern_Bright-83"/>
      <path d="M 6.40625 47 
L 6.40625 12.96875 
C 6.40625 10.046875 6.5 7.140625 7.703125 4.421875 
C 9.59375 0.515625 13.59375 -1 17.703125 -1 
C 23.203125 -1 28.703125 0.8125 32.703125 4.734375 
C 33.796875 5.828125 34.796875 6.9375 35.5 8.34375 
L 35.59375 8.34375 
L 35.59375 -0.390625 
L 41.90625 -0.390625 
L 41.90625 47 
L 35.5 47 
L 35.5 22.90625 
C 35.5 18.6875 36.09375 14.0625 33.90625 10.25 
C 32.296875 7.4375 29.5 5.234375 26.40625 4.234375 
C 24.296875 3.625 22.09375 3.625 19.90625 3.828125 
C 17.796875 4.03125 15.5 4.234375 14.09375 6.03125 
C 12.09375 8.453125 12.796875 14.171875 12.796875 17.6875 
L 12.796875 47 
z
" id="Computer_Modern_Bright-117"/>
     </defs>
     <g style="fill:#262626;" transform="translate(102.179163 67.849222)scale(0.14 -0.14)">
      <use transform="scale(0.996264)" xlink:href="#Computer_Modern_Bright-83"/>
      <use transform="translate(56.454753 0)scale(0.996264)" xlink:href="#Computer_Modern_Bright-117"/>
      <use transform="translate(104.60725 0)scale(0.996264)" xlink:href="#Computer_Modern_Bright-112"/>
      <use transform="translate(152.759747 0)scale(0.996264)" xlink:href="#Computer_Modern_Bright-112"/>
      <use transform="translate(198.006514 0)scale(0.996264)" xlink:href="#Computer_Modern_Bright-114"/>
      <use transform="translate(229.969873 0)scale(0.996264)" xlink:href="#Computer_Modern_Bright-101"/>
      <use transform="translate(274.801541 0)scale(0.996264)" xlink:href="#Computer_Modern_Bright-115"/>
      <use transform="translate(313.24057 0)scale(0.996264)" xlink:href="#Computer_Modern_Bright-115"/>
      <use transform="translate(351.679599 0)scale(0.996264)" xlink:href="#Computer_Modern_Bright-105"/>
      <use transform="translate(370.774558 0)scale(0.996264)" xlink:href="#Computer_Modern_Bright-111"/>
      <use transform="translate(421.417776 0)scale(0.996264)" xlink:href="#Computer_Modern_Bright-110"/>
     </g>
    </g>
    <g id="line2d_29">
     <path d="M 62.979163 82.073833 
L 90.979163 82.073833 
" style="fill:none;stroke:#33a02c;stroke-linecap:round;stroke-width:2;"/>
    </g>
    <g id="line2d_30"/>
    <g id="text_21">
     <!-- actual -->
     <g style="fill:#262626;" transform="translate(102.179163 86.973833)scale(0.14 -0.14)">
      <use transform="scale(0.996264)" xlink:href="#Computer_Modern_Bright-97"/>
      <use transform="translate(46.492082 0)scale(0.996264)" xlink:href="#Computer_Modern_Bright-99"/>
      <use transform="translate(91.32375 0)scale(0.996264)" xlink:href="#Computer_Modern_Bright-116"/>
      <use transform="translate(127.438138 0)scale(0.996264)" xlink:href="#Computer_Modern_Bright-117"/>
      <use transform="translate(175.590635 0)scale(0.996264)" xlink:href="#Computer_Modern_Bright-97"/>
      <use transform="translate(222.082717 0)scale(0.996264)" xlink:href="#Computer_Modern_Bright-108"/>
     </g>
    </g>
    <g id="line2d_31">
     <path d="M 62.979163 101.198444 
L 90.979163 101.198444 
" style="fill:none;stroke:#ff7f00;stroke-linecap:round;stroke-width:2;"/>
    </g>
    <g id="line2d_32"/>
    <g id="text_22">
     <!-- Additive -->
     <defs>
      <path d="M 2.09375 0.09375 
L 6.59375 0.09375 
L 8.40625 0.296875 
C 11.40625 6.796875 13.5 14.203125 16.203125 21 
C 26.09375 21 36.90625 21 46.296875 21 
L 47.09375 19.6875 
C 48.796875 14.546875 50.796875 9.59375 52.59375 4.546875 
C 53.09375 3.015625 53.59375 1.515625 54.40625 0.296875 
C 56.59375 0 59.203125 0 61.59375 0 
C 59.90625 4.90625 36.703125 67.203125 36 68.890625 
C 35.90625 69.296875 35.703125 69.890625 35.203125 70 
C 34.59375 70.09375 34 70 33.40625 70 
L 30.09375 70 
C 28.59375 70 28 70.1875 27.59375 68.609375 
C 27.203125 67.59375 2.09375 0.09375 2.09375 0.09375 
M 31.40625 63.171875 
C 35.59375 50.71875 40.09375 38.46875 44.5 26.21875 
L 18.203125 26.21875 
L 26.90625 50.109375 
z
" id="Computer_Modern_Bright-65"/>
      <path d="M 35.59375 69.6875 
L 35.59375 41.375 
C 33.703125 43.484375 31.796875 45.484375 29.203125 46.6875 
C 20.296875 50.40625 11.703125 45.59375 7.296875 37.65625 
C 2.203125 28.21875 2.796875 15.765625 8.90625 6.921875 
C 13.203125 0.796875 20.296875 -2.203125 27.796875 0.5 
C 30.703125 1.609375 34.203125 4.515625 35.40625 7.125 
L 35.5 7.125 
L 35.5 0 
L 41.90625 0 
L 41.90625 69.6875 
z
M 35.203125 37.453125 
C 35.703125 36.546875 35.5 35.34375 35.5 34.34375 
L 35.5 13.65625 
C 35.5 11.34375 35.40625 11.140625 34.09375 9.34375 
C 32.296875 6.625 29.5 4.71875 26.203125 4.421875 
C 21.40625 4.015625 16.5 6.328125 13.703125 10.25 
C 12.09375 12.546875 11.203125 15.359375 10.703125 18.171875 
C 10.5 19.28125 10.5 20.28125 10.40625 21.390625 
C 9.796875 28.015625 11.203125 35.84375 17 40.0625 
C 18 40.765625 19.09375 41.265625 20.203125 41.765625 
C 26 43.984375 32.40625 43.375 35.203125 37.453125 
" id="Computer_Modern_Bright-100"/>
      <path d="M 0.703125 47.5 
C 1.203125 45.5 4.203125 37.578125 4.40625 37.078125 
C 5.40625 34.28125 17.296875 0.609375 17.59375 0.296875 
C 17.90625 -0.203125 18.796875 0 19.296875 0 
L 22.796875 0 
C 24.09375 0 24.90625 -0.296875 25.203125 0.90625 
C 28.40625 9.328125 40.09375 42.703125 41.796875 47.5 
L 35.59375 47.5 
C 30.796875 33.984375 25.90625 20.4375 21.40625 6.609375 
L 11 36.203125 
C 9.5 39.796875 8.59375 43.890625 6.90625 47.203125 
C 5.09375 47.5 2.796875 47.5 0.703125 47.5 
" id="Computer_Modern_Bright-118"/>
     </defs>
     <g style="fill:#262626;" transform="translate(102.179163 106.098444)scale(0.14 -0.14)">
      <use transform="scale(0.996264)" xlink:href="#Computer_Modern_Bright-65"/>
      <use transform="translate(63.511618 0)scale(0.996264)" xlink:href="#Computer_Modern_Bright-100"/>
      <use transform="translate(111.664115 0)scale(0.996264)" xlink:href="#Computer_Modern_Bright-100"/>
      <use transform="translate(159.816612 0)scale(0.996264)" xlink:href="#Computer_Modern_Bright-105"/>
      <use transform="translate(178.911571 0)scale(0.996264)" xlink:href="#Computer_Modern_Bright-116"/>
      <use transform="translate(215.025959 0)scale(0.996264)" xlink:href="#Computer_Modern_Bright-105"/>
      <use transform="translate(234.120917 0)scale(0.996264)" xlink:href="#Computer_Modern_Bright-118"/>
      <use transform="translate(276.461955 0)scale(0.996264)" xlink:href="#Computer_Modern_Bright-101"/>
     </g>
    </g>
    <g id="line2d_33">
     <path d="M 62.979163 120.323055 
L 90.979163 120.323055 
" style="fill:none;stroke:#1f78b4;stroke-linecap:round;stroke-width:2;"/>
    </g>
    <g id="line2d_34"/>
    <g id="text_23">
     <!-- Unbranched -->
     <defs>
      <path d="M 8 69.5 
L 8 32.75 
C 8 25.71875 7.203125 18.390625 10.703125 11.96875 
C 12.90625 7.84375 16.09375 4.4375 20.09375 2.125 
C 29.90625 -3.609375 43.5 -2.203125 51.296875 6.4375 
C 54.796875 10.359375 57.296875 15.171875 57.796875 21.796875 
C 57.90625 23.40625 57.796875 24.921875 57.796875 26.515625 
L 57.796875 69.5 
L 51.40625 69.5 
L 51.40625 25.90625 
C 51.40625 24.59375 51.5 23.1875 51.40625 21.890625 
C 51.203125 18.890625 50.59375 15.921875 49.40625 13.25 
C 43.90625 1 25 1 18 11.890625 
C 14.203125 17.78125 15 25.0625 15 31.65625 
L 15 69.5 
z
" id="Computer_Modern_Bright-85"/>
      <path d="M 6.40625 69.6875 
L 6.40625 0 
L 12.796875 0 
L 12.796875 21.984375 
C 12.796875 26.90625 12.5 31.9375 14.703125 36.546875 
C 15.796875 38.859375 17.5 40.875 19.796875 42.078125 
C 21.703125 42.984375 23.703125 42.984375 25.796875 42.78125 
C 28.796875 42.78125 31.703125 41.984375 33.59375 39.453125 
C 35.40625 37.140625 35.5 34.140625 35.5 31.3125 
L 35.5 0 
L 41.90625 0 
L 41.90625 27.21875 
C 41.90625 32.234375 42.40625 37.75 39.90625 42.28125 
C 37.90625 45.6875 34.40625 47.296875 30.703125 47.796875 
C 28.703125 48 26.703125 48 24.703125 47.703125 
C 21.09375 47.015625 18 45.03125 15.59375 42.34375 
C 14.5 41.046875 13.203125 39.46875 12.796875 37.765625 
L 12.703125 37.765625 
L 12.703125 69.6875 
z
" id="Computer_Modern_Bright-104"/>
     </defs>
     <g style="fill:#262626;" transform="translate(102.179163 125.223055)scale(0.14 -0.14)">
      <use transform="scale(0.996264)" xlink:href="#Computer_Modern_Bright-85"/>
      <use transform="translate(65.587132 0)scale(0.996264)" xlink:href="#Computer_Modern_Bright-110"/>
      <use transform="translate(113.739629 0)scale(0.996264)" xlink:href="#Computer_Modern_Bright-98"/>
      <use transform="translate(158.986397 0)scale(0.996264)" xlink:href="#Computer_Modern_Bright-114"/>
      <use transform="translate(190.949756 0)scale(0.996264)" xlink:href="#Computer_Modern_Bright-97"/>
      <use transform="translate(237.441838 0)scale(0.996264)" xlink:href="#Computer_Modern_Bright-110"/>
      <use transform="translate(285.594335 0)scale(0.996264)" xlink:href="#Computer_Modern_Bright-99"/>
      <use transform="translate(330.426003 0)scale(0.996264)" xlink:href="#Computer_Modern_Bright-104"/>
      <use transform="translate(378.5785 0)scale(0.996264)" xlink:href="#Computer_Modern_Bright-101"/>
      <use transform="translate(423.410167 0)scale(0.996264)" xlink:href="#Computer_Modern_Bright-100"/>
     </g>
    </g>
   </g>
  </g>
 </g>
 <defs>
  <clipPath id="p0ff0cab980">
   <rect height="298.98" width="446.4" x="50.379163" y="7.2"/>
  </clipPath>
 </defs>
</svg>
