<?xml version="1.0" encoding="utf-8" standalone="no"?>
<!DOCTYPE svg PUBLIC "-//W3C//DTD SVG 1.1//EN"
  "http://www.w3.org/Graphics/SVG/1.1/DTD/svg11.dtd">
<!-- Created with matplotlib (http://matplotlib.org/) -->
<svg height="353pt" version="1.1" viewBox="0 0 503 353" width="503pt" xmlns="http://www.w3.org/2000/svg" xmlns:xlink="http://www.w3.org/1999/xlink">
 <defs>
  <style type="text/css">
*{stroke-linecap:butt;stroke-linejoin:round;}
  </style>
 </defs>
 <g id="figure_1">
  <g id="patch_1">
   <path d="M 0 353.548374 
L 503.979163 353.548374 
L 503.979163 0 
L 0 0 
z
" style="fill:#ffffff;"/>
  </g>
  <g id="axes_1">
   <g id="patch_2">
    <path d="M 50.379163 306.18 
L 496.779163 306.18 
L 496.779163 7.2 
L 50.379163 7.2 
z
" style="fill:#eaeaf2;"/>
   </g>
   <g id="matplotlib.axis_1">
    <g id="xtick_1">
     <g id="line2d_1"/>
     <g id="text_1">
      <!-- $-1.0$ -->
      <defs>
       <path d="M 9.796875 28.078125 
C 8 27.484375 7.796875 24.78125 9.796875 24.28125 
C 10.296875 24.078125 10.90625 24.1875 11.5 24.1875 
L 64.703125 24.1875 
C 65.90625 24.1875 67.796875 23.78125 68.796875 24.78125 
C 69.90625 25.875 69.296875 27.875 67.703125 28.1875 
C 66.5 28.375 65.09375 28.1875 63.90625 28.1875 
L 11.40625 28.1875 
C 10.90625 28.1875 10.296875 28.28125 9.796875 28.078125 
" id="Computer_Modern_Bright_Math_Symbols-0"/>
       <path d="M 9.703125 60.015625 
L 9.703125 55 
C 15.203125 55 19 56 23.40625 57.90625 
L 23.40625 5.015625 
L 10.296875 5.015625 
L 10.296875 0 
L 43 0 
L 43 5.015625 
L 29.90625 5.015625 
L 29.90625 67 
C 27.5 67 27.90625 66.359375 26 64.875 
C 21.90625 61.71875 16.203125 60.015625 9.703125 60.015625 
" id="Computer_Modern_Bright-49"/>
       <path d="M 10.703125 7.8125 
L 10.703125 0 
L 18.5 0 
L 18.5 7.8125 
z
" id="Computer_Modern_Bright_Math_Slanted-58"/>
       <path d="M 14.796875 63.859375 
C 11.90625 61.859375 9.90625 59.140625 8.40625 56.03125 
C 4.796875 49 4.40625 40.765625 4.40625 31.828125 
C 4.40625 20.578125 6.40625 10.25 12 4.3125 
C 17.296875 -1.203125 25.703125 -2.609375 32.796875 0.296875 
C 37.203125 2.015625 40.40625 5.71875 42.40625 9.734375 
C 46 16.875 46.40625 25.40625 46.40625 34.234375 
C 46.40625 37.046875 46.296875 39.859375 46 42.671875 
C 45.296875 49.40625 43 56.828125 39.296875 60.953125 
C 33.203125 67.6875 22.296875 69.1875 14.796875 63.859375 
M 34.90625 58.140625 
C 39.59375 53.125 40 43.484375 40 34.34375 
L 40 28.921875 
C 40 24.296875 39.203125 18.28125 38.203125 14.859375 
C 36.796875 10.140625 34.5 6.734375 29.90625 4.625 
C 24.296875 2.609375 18.5 4.515625 15.296875 8.9375 
C 11 14.65625 10.796875 24.796875 10.796875 33.734375 
C 10.796875 42.171875 10.90625 51.515625 15 57.03125 
C 19.5 63.0625 29.203125 64.0625 34.90625 58.140625 
" id="Computer_Modern_Bright-48"/>
      </defs>
      <g style="fill:#262626;" transform="translate(73.832103 324.249603)scale(0.16 -0.16)">
       <use transform="scale(0.996264)" xlink:href="#Computer_Modern_Bright_Math_Symbols-0"/>
       <use transform="translate(77.487468 0)scale(0.996264)" xlink:href="#Computer_Modern_Bright-49"/>
       <use transform="translate(128.130685 0)scale(0.996264)" xlink:href="#Computer_Modern_Bright_Math_Slanted-58"/>
       <use transform="translate(157.188132 0)scale(0.996264)" xlink:href="#Computer_Modern_Bright-48"/>
      </g>
     </g>
    </g>
    <g id="xtick_2">
     <g id="line2d_2"/>
     <g id="text_2">
      <!-- $-0.8$ -->
      <defs>
       <path d="M 18.703125 36 
L 18.703125 35.90625 
C 12.5 34.09375 7.296875 30.6875 4.796875 24.84375 
C 2.203125 18.71875 4 11.28125 8.40625 6.453125 
C 13.09375 1.421875 19.5 -1 26.296875 -1 
C 36.296875 -1 45.90625 6.40625 47.09375 16.734375 
C 47.296875 18.265625 47.203125 19.890625 47 21.40625 
C 45.203125 29.21875 39.5 33.875 32.09375 35.90625 
C 32.90625 36.203125 33.796875 36.40625 34.59375 36.703125 
C 38.796875 38.421875 42.296875 40.921875 44.5 44.9375 
C 47.796875 51.375 44.59375 58.90625 39.203125 63.015625 
C 33.796875 67.140625 26.5 68.234375 19.90625 66.828125 
C 12 65.125 4.5 58.40625 5 49.765625 
C 5.203125 46.75 6.5 44.234375 8 42.4375 
C 10.296875 39.625 14.796875 36.609375 18.703125 36 
M 23.796875 62.5 
C 28.203125 62.5 33.703125 62 36.90625 58.578125 
C 40.703125 54.46875 40.90625 47.03125 37.09375 42.8125 
C 34.703125 40.203125 31.203125 38.890625 27.703125 38.59375 
C 22.796875 38.1875 17.203125 39 13.703125 42.8125 
C 9.796875 47.125 10.09375 54.96875 14.296875 58.984375 
C 16.90625 61.390625 20.40625 62.1875 23.796875 62.5 
M 23.703125 33.5 
C 28.40625 33.5 33.5 32.390625 36.90625 28.9375 
C 38.203125 27.53125 39.203125 25.8125 39.796875 24.015625 
C 41.5 18.75 40.703125 12.09375 36.796875 8.046875 
C 34.09375 5.328125 30.40625 4.3125 26.703125 4.015625 
C 22.203125 4.015625 17 5.109375 13.796875 8.5625 
C 9.40625 13.390625 8.5 23.40625 13.703125 29.0625 
C 16.296875 31.78125 20 33.203125 23.703125 33.5 
" id="Computer_Modern_Bright-56"/>
      </defs>
      <g style="fill:#262626;" transform="translate(149.288442 324.249603)scale(0.16 -0.16)">
       <use transform="scale(0.996264)" xlink:href="#Computer_Modern_Bright_Math_Symbols-0"/>
       <use transform="translate(77.487468 0)scale(0.996264)" xlink:href="#Computer_Modern_Bright-48"/>
       <use transform="translate(128.130685 0)scale(0.996264)" xlink:href="#Computer_Modern_Bright_Math_Slanted-58"/>
       <use transform="translate(157.188132 0)scale(0.996264)" xlink:href="#Computer_Modern_Bright-56"/>
      </g>
     </g>
    </g>
    <g id="xtick_3">
     <g id="line2d_3"/>
     <g id="text_3">
      <!-- $-0.6$ -->
      <defs>
       <path d="M 11.296875 32.625 
L 11.203125 32.625 
C 11.203125 41.765625 12.796875 52.421875 20.59375 58.25 
C 24.90625 61.375 30.703125 62.96875 38.203125 61.171875 
C 39.796875 60.765625 41.296875 60.15625 42.796875 59.765625 
L 42.796875 63.28125 
C 42.796875 63.671875 42.90625 64.375 42.59375 64.78125 
C 41.90625 65.6875 36.296875 66.59375 36.09375 66.59375 
C 27.40625 67.59375 21.703125 65.6875 16.40625 61.171875 
C 10 55.640625 6.296875 47.515625 5.09375 39.28125 
C 4 32.65625 4.90625 22 6.203125 16.78125 
C 8.296875 9.046875 12.296875 2.21875 19.703125 -0.390625 
C 24.09375 -2 29.5 -2 33.703125 0.015625 
C 37.09375 1.640625 39.90625 4.46875 42.09375 7.5 
C 45.59375 12.34375 46.5 18.21875 46.09375 24.171875 
C 45.90625 27.109375 45.5 30.046875 44.296875 32.765625 
C 42.40625 37.125 39.203125 41.671875 35.09375 43.6875 
C 33.203125 44.5 31.203125 44.5 29.203125 44.5 
C 23.90625 44.5 18.90625 42.1875 15.203125 38.359375 
C 13.59375 36.75 12 34.71875 11.296875 32.625 
M 24.40625 39.515625 
C 28.203125 39.8125 32.203125 39.21875 35.09375 36.5 
C 38.90625 32.890625 39.59375 27.765625 39.59375 22.8125 
C 39.59375 19.46875 39.703125 16.015625 38.703125 12.859375 
C 38.09375 11.234375 37.296875 9.828125 36.40625 8.5 
C 34.203125 5.5625 31.40625 4.125 26.796875 3.515625 
C 22.296875 3.515625 17.796875 5.3125 15.203125 9.125 
C 13.59375 11.328125 12.796875 14.046875 12.296875 16.640625 
C 11.703125 19.34375 11.296875 22.140625 11.5 24.859375 
C 12 31.984375 17 38.515625 24.40625 39.515625 
" id="Computer_Modern_Bright-54"/>
      </defs>
      <g style="fill:#262626;" transform="translate(224.744782 324.249603)scale(0.16 -0.16)">
       <use transform="scale(0.996264)" xlink:href="#Computer_Modern_Bright_Math_Symbols-0"/>
       <use transform="translate(77.487468 0)scale(0.996264)" xlink:href="#Computer_Modern_Bright-48"/>
       <use transform="translate(128.130685 0)scale(0.996264)" xlink:href="#Computer_Modern_Bright_Math_Slanted-58"/>
       <use transform="translate(157.188132 0)scale(0.996264)" xlink:href="#Computer_Modern_Bright-54"/>
      </g>
     </g>
    </g>
    <g id="xtick_4">
     <g id="line2d_4"/>
     <g id="text_4">
      <!-- $-0.4$ -->
      <defs>
       <path d="M 2.09375 18 
L 31 18 
L 31 0 
L 37.296875 0 
L 37.296875 18 
L 48.703125 18 
L 48.703125 23.328125 
L 37.296875 23.328125 
L 37.296875 66.46875 
L 31.90625 66.46875 
C 30.09375 66.46875 29.59375 66.578125 28.796875 65.0625 
C 24.796875 58.515625 3.703125 25.765625 3 24.859375 
C 2.203125 23.4375 2.09375 23.546875 2.09375 21.4375 
z
M 31.296875 60.875 
L 31.296875 23.328125 
L 8.59375 23.328125 
C 9.296875 24.734375 10.296875 26.03125 11.203125 27.4375 
C 16.203125 35.171875 28.09375 53.546875 30.59375 59.28125 
C 30.90625 59.78125 31 60.375 31.296875 60.875 
" id="Computer_Modern_Bright-52"/>
      </defs>
      <g style="fill:#262626;" transform="translate(300.201122 324.249603)scale(0.16 -0.16)">
       <use transform="scale(0.996264)" xlink:href="#Computer_Modern_Bright_Math_Symbols-0"/>
       <use transform="translate(77.487468 0)scale(0.996264)" xlink:href="#Computer_Modern_Bright-48"/>
       <use transform="translate(128.130685 0)scale(0.996264)" xlink:href="#Computer_Modern_Bright_Math_Slanted-58"/>
       <use transform="translate(157.188132 0)scale(0.996264)" xlink:href="#Computer_Modern_Bright-52"/>
      </g>
     </g>
    </g>
    <g id="xtick_5">
     <g id="line2d_5"/>
     <g id="text_5">
      <!-- $-0.2$ -->
      <defs>
       <path d="M 7.296875 45.96875 
C 8.703125 51.59375 11.09375 57.984375 16.796875 60.5 
C 19.203125 61.5 21.796875 61.703125 24.40625 61.5 
C 29.296875 61.09375 34.09375 59.09375 37.09375 55.09375 
C 39.296875 52.078125 40.09375 48.375 39.703125 44.78125 
C 38.5 34.34375 28.296875 26.84375 21.703125 21.234375 
C 17.90625 18.03125 7.09375 7.8125 7.09375 7.8125 
L 5.40625 6.203125 
C 4.5 5.3125 4.40625 5.3125 4.40625 3.5 
L 4.40625 0 
L 46.40625 0 
L 46.40625 5.625 
L 10.203125 5.625 
C 13.40625 8.734375 26.703125 20.515625 28.5 21.921875 
C 34.296875 26.65625 40.796875 31.375 44.296875 38.21875 
C 48.203125 46.0625 46.5 55.9375 39.90625 61.765625 
C 35.90625 65.296875 30.40625 67 25.09375 67 
C 20.203125 67 15.203125 66 11.296875 62.90625 
C 8.296875 60.390625 5.796875 56.6875 4.40625 52.875 
C 4.09375 52.28125 3.59375 51.28125 3.703125 50.578125 
C 3.796875 49.984375 4.40625 49.484375 4.703125 49.078125 
C 5.5 48.078125 6.296875 46.875 7.296875 45.96875 
" id="Computer_Modern_Bright-50"/>
      </defs>
      <g style="fill:#262626;" transform="translate(375.657462 324.249603)scale(0.16 -0.16)">
       <use transform="scale(0.996264)" xlink:href="#Computer_Modern_Bright_Math_Symbols-0"/>
       <use transform="translate(77.487468 0)scale(0.996264)" xlink:href="#Computer_Modern_Bright-48"/>
       <use transform="translate(128.130685 0)scale(0.996264)" xlink:href="#Computer_Modern_Bright_Math_Slanted-58"/>
       <use transform="translate(157.188132 0)scale(0.996264)" xlink:href="#Computer_Modern_Bright-50"/>
      </g>
     </g>
    </g>
    <g id="xtick_6">
     <g id="line2d_6"/>
     <g id="text_6">
      <!-- $0.0$ -->
      <g style="fill:#262626;" transform="translate(457.3128 324.249603)scale(0.16 -0.16)">
       <use transform="scale(0.996264)" xlink:href="#Computer_Modern_Bright-48"/>
       <use transform="translate(50.643218 0)scale(0.996264)" xlink:href="#Computer_Modern_Bright_Math_Slanted-58"/>
       <use transform="translate(79.700665 0)scale(0.996264)" xlink:href="#Computer_Modern_Bright-48"/>
      </g>
     </g>
    </g>
    <g id="text_7">
     <!-- Epistasis Coefficient -->
     <defs>
      <path d="M 8 69.328125 
L 8 0 
L 55.40625 0 
L 55.40625 5.625 
L 15 5.625 
L 15 33.671875 
L 51.09375 33.671875 
L 51.09375 39 
L 15 39 
L 15 64 
L 54 64 
L 54 69.328125 
z
" id="Computer_Modern_Bright-69"/>
      <path d="M 12.703125 40.53125 
L 12.703125 47.15625 
L 6.40625 47.15625 
L 6.40625 -17 
L 12.796875 -17 
L 12.796875 6.09375 
C 14.203125 4.078125 15.796875 2.28125 17.90625 1.078125 
C 25 -3.25 34 0.171875 38.90625 6.59375 
C 45.40625 14.96875 46.09375 27.5 41.59375 36.984375 
C 39 42.4375 34.09375 47.5 27.796875 48 
C 22.296875 48 18.09375 45.8125 15.09375 43.125 
C 14.203125 42.328125 13.5 41.4375 12.703125 40.53125 
M 21.90625 42.875 
C 26 43.171875 30 41.265625 32.796875 38.265625 
C 34.5 36.34375 35.796875 34.140625 36.59375 31.734375 
C 40.09375 22.296875 36.90625 9.234375 26.796875 5.328125 
C 21 3.109375 15.296875 5.125 13.09375 10.546875 
C 12.59375 11.546875 12.796875 12.859375 12.796875 13.953125 
L 12.796875 34.640625 
C 12.796875 36.953125 13 37.15625 14.5 38.859375 
C 16.296875 41.0625 19 42.578125 21.90625 42.875 
" id="Computer_Modern_Bright-112"/>
      <path d="M 6.40625 70 
L 6.40625 63.671875 
L 12.703125 63.671875 
L 12.703125 70 
z
M 6.40625 47.390625 
L 6.40625 0 
L 12.703125 0 
L 12.703125 47.390625 
z
" id="Computer_Modern_Bright-105"/>
      <path d="M 3.09375 9.640625 
C 2.90625 8.234375 2.59375 6.9375 2.40625 5.53125 
C 2.203125 4.421875 1.90625 3.921875 2.90625 3.421875 
C 7 1.015625 11.90625 -0.296875 17.703125 -0.796875 
C 24.203125 -1.40625 32.40625 0.109375 35.59375 6.53125 
C 36.5 8.34375 37 10.34375 37.09375 12.359375 
C 37.5 19.578125 31.796875 24.203125 26.90625 25.90625 
C 21.40625 28.015625 13.90625 27.3125 10.09375 31.53125 
C 8.09375 33.84375 8 37.265625 9.90625 39.671875 
C 13.90625 45.296875 26.796875 42.875 31.90625 40.375 
C 32.703125 39.96875 33.40625 39.46875 34.296875 39.265625 
L 35.203125 44.6875 
C 30.5 46.796875 26.40625 48 19.90625 48 
C 14.296875 48 9.203125 46.703125 6 43.484375 
C 2.796875 40.171875 1.703125 34.640625 3.59375 30.4375 
C 5.40625 26.40625 9.203125 23.796875 13.296875 22.5 
C 19.203125 20.390625 25.90625 21.390625 29.796875 16.578125 
C 32 13.765625 31.59375 9.546875 29.09375 7.03125 
C 24.296875 2.609375 14.09375 4.21875 8.5 6.625 
C 6.59375 7.4375 4.90625 8.640625 3.09375 9.640625 
" id="Computer_Modern_Bright-115"/>
      <path d="M 10.796875 60.5 
L 10.796875 47.015625 
L 1.09375 47.015625 
L 1.09375 42 
L 10.703125 42 
L 10.703125 15.015625 
C 10.703125 10.578125 10.40625 5.234375 13.296875 1.515625 
C 15 -0.703125 17.296875 -1.296875 20.796875 -1 
C 23.703125 -1 26.59375 -0.390625 29.296875 0.65625 
C 30.203125 1.0625 33.5 2.515625 33.90625 3.234375 
C 34.09375 3.640625 32.796875 8.09375 32.796875 8.09375 
L 30.40625 6.265625 
C 27.296875 4.34375 21.09375 2.328125 18.5 5.96875 
C 16.203125 9.09375 16.796875 13.75 16.796875 17.375 
L 16.796875 42 
L 32.296875 42 
L 32.296875 47.015625 
L 16.796875 47.015625 
L 16.796875 60.5 
z
" id="Computer_Modern_Bright-116"/>
      <path d="M 7.90625 39.015625 
C 9.59375 39.859375 11 41.09375 12.703125 41.921875 
C 15.40625 43.15625 18.203125 44 21.203125 44 
C 22.59375 44.09375 24.203125 44.296875 25.59375 44 
C 28.09375 43.59375 30.296875 42.078125 31.796875 39.953125 
C 33.296875 37.515625 33.90625 35.390625 33.90625 31.46875 
L 33.90625 27.015625 
C 29.09375 27.015625 24.296875 26.609375 19.703125 25.390625 
C 13.90625 24.078125 7.59375 21.125 5.5 15.84375 
C 3.40625 10.78125 5.59375 4.078125 10.09375 1.03125 
C 12.296875 -0.5 14.90625 -0.5 17.5 -0.296875 
C 21.703125 0 25.90625 1.015625 29.5 3.25 
C 31.203125 4.25 32.90625 5.578125 33.90625 7.296875 
L 34 7.296875 
L 34 0.203125 
L 40.296875 0.203125 
L 40.296875 26.890625 
C 40.296875 29.8125 40.59375 32.953125 40 35.890625 
C 39.40625 39.921875 36.90625 43.265625 34 45.59375 
C 30.59375 48.21875 26.703125 49.109375 21.5 48.71875 
C 16.703125 48.71875 13 47.5 9.40625 45.765625 
C 8.90625 45.5625 7.90625 45.234375 7.59375 44.640625 
C 7.296875 44.21875 7.5 43.515625 7.5 43 
C 7.703125 41.671875 7.796875 40.34375 7.90625 39.015625 
M 33.90625 24 
L 33.90625 16.375 
C 33.90625 14.0625 34 11.953125 32.703125 9.953125 
C 31.59375 8.34375 30.09375 7.234375 28.5 6.4375 
C 22.796875 3.515625 14.09375 4.421875 11.59375 9.25 
C 9.59375 12.75 11.703125 16.875 14.59375 19.1875 
C 18.90625 22.5 27.296875 24 33.90625 24 
" id="Computer_Modern_Bright-97"/>
      <path d="M 60.5 10.875 
C 58.5 9.859375 56.703125 8.453125 54.703125 7.453125 
C 50 5.046875 44 4.140625 37.5 4.734375 
C 31.703125 5.546875 26.90625 8.359375 23.40625 11.875 
C 12.203125 23.15625 11.40625 42.96875 21.296875 55.34375 
C 25.5 60.875 31.90625 65 41.296875 65 
C 45.09375 65 49 64.296875 52.5 62.890625 
C 54.59375 61.96875 56.59375 60.765625 58.59375 59.765625 
L 59.796875 66.8125 
C 57.59375 67.671875 55.296875 68.5625 53 69.09375 
C 47.40625 70.625 38.90625 70.625 33.09375 69.21875 
C 22.90625 66.921875 15.5 59.828125 11.296875 51.625 
C 5.5 40.015625 6.203125 25.515625 13.203125 14.59375 
C 15 11.703125 17.296875 9.109375 19.90625 6.890625 
C 25.90625 1.6875 33.296875 -1.3125 43.59375 -0.5 
C 49.796875 -0.5 53.40625 0.515625 58.203125 3.203125 
C 58.703125 3.5 60.59375 4.515625 60.90625 4.9375 
C 61.09375 5.4375 60.59375 9.53125 60.5 10.875 
" id="Computer_Modern_Bright-67"/>
      <path d="M 10.703125 42.078125 
C 1.796875 33.234375 0.796875 17.875 8.5 7.9375 
C 9.59375 6.421875 10.90625 5.125 12.40625 4.015625 
C 16.09375 1 21.5 -1.203125 27.796875 -0.5 
C 37.796875 0.703125 44.703125 8.84375 46.796875 17.375 
C 49.59375 29.328125 43.703125 42.671875 32.703125 46.890625 
C 24.09375 50.40625 15.5 46.890625 10.703125 42.078125 
M 35.703125 39.359375 
C 40.5 35.03125 41.40625 28.109375 41 21.984375 
C 40.703125 17.265625 39.40625 12.34375 36.09375 8.828125 
C 30.703125 3 20.703125 3 14.90625 8.625 
C 11.90625 11.84375 10.09375 16.453125 9.796875 21.984375 
C 9.296875 30.109375 11.296875 38.75 19.296875 41.96875 
C 25.203125 44.578125 32 42.671875 35.703125 39.359375 
" id="Computer_Modern_Bright-111"/>
      <path d="M 41.796875 10.9375 
C 39.5 9.234375 38.796875 8.328125 35.90625 6.8125 
C 29.796875 3.5 22.59375 3.5 17.40625 7.171875 
C 12.40625 10.765625 9.5 16.640625 9.5 25 
L 42.5 25 
C 42.5 32.421875 40.796875 38.859375 36.59375 43.375 
C 32 47.890625 24.796875 49.296875 18.703125 47.390625 
C 16.40625 46.6875 14.296875 45.484375 12.40625 43.96875 
C 6.09375 38.859375 3.40625 30.71875 3.5 22.78125 
C 3.703125 12.34375 10.796875 1.90625 21.296875 -0.3125 
C 26.796875 -1.421875 32.59375 -0.203125 37.5 2.296875 
C 38.40625 2.796875 41.703125 4.609375 42.09375 5.515625 
C 42.40625 6.015625 41.796875 10.9375 41.796875 10.9375 
M 37.203125 28.90625 
L 10 28.90625 
C 11.203125 36.234375 17.203125 43.96875 25.296875 43.0625 
C 31.90625 42.46875 35.40625 37.75 36.703125 31.828125 
C 36.90625 30.8125 37 29.921875 37.203125 28.90625 
" id="Computer_Modern_Bright-101"/>
      <path d="M 10.59375 47.015625 
L 2 47.015625 
L 2 42 
L 10.59375 42 
L 10.59375 0 
L 16.90625 0 
L 16.90625 42 
L 30.09375 42 
L 30.09375 47.015625 
L 16.796875 47.015625 
L 16.796875 56.234375 
C 16.796875 57.890625 16.59375 59.65625 17.296875 61.21875 
C 19.5 65.875 25.40625 65.875 29.59375 65.078125 
C 30.59375 64.875 31.703125 64.46875 32.703125 64.265625 
L 32.703125 69.90625 
C 27.703125 70.609375 22.296875 71.21875 17.703125 68.46875 
C 15.796875 67.4375 14.203125 65.6875 13 63.921875 
C 11.09375 60.9375 10.59375 58.78125 10.59375 53.71875 
z
M 38.09375 0 
L 44.40625 0 
L 44.40625 42 
L 57.59375 42 
L 57.59375 47.015625 
L 44.296875 47.015625 
L 44.296875 55.234375 
C 44.296875 56.890625 44.09375 58.65625 44.40625 60.328125 
C 44.90625 62.296875 46.09375 63.65625 47.703125 64.671875 
C 50.796875 66.171875 54.40625 65.078125 57.59375 64.171875 
L 57.59375 70 
C 55.09375 70.1875 52.703125 70.6875 50.203125 70.5 
C 43.40625 70 38.59375 64.046875 38.09375 57.3125 
C 38 55.890625 38.09375 54.375 38.09375 52.96875 
z
M 65.59375 70 
L 65.59375 63.671875 
L 71.90625 63.671875 
L 71.90625 70 
z
M 65.59375 47.390625 
L 65.59375 0 
L 71.90625 0 
L 71.90625 47.390625 
z
" id="Computer_Modern_Bright-14"/>
      <path d="M 42.40625 11.25 
C 40.5 9.84375 38.796875 8.328125 36.703125 7.125 
C 32 4.625 24.796875 3.421875 19.40625 5.921875 
C 11.59375 9.9375 9.5 19.6875 10.59375 27.71875 
C 10.796875 29.328125 11.09375 30.921875 11.59375 32.4375 
C 13.796875 38.96875 19.296875 44.078125 28.296875 43.078125 
C 33.09375 42.671875 35.5 41.875 39.296875 39.765625 
C 40 39.359375 40.59375 38.859375 41.40625 38.65625 
C 41.5 39.859375 41.796875 41.171875 42 42.375 
C 42.296875 43.984375 42.296875 44.1875 40.796875 44.890625 
C 39.703125 45.390625 38.59375 45.984375 37.40625 46.390625 
C 32.796875 48.40625 25.203125 49 20 47.5 
C 12.90625 45.484375 7.59375 39.359375 5.296875 32.53125 
C 4.203125 29.421875 3.90625 26.109375 3.90625 22.796875 
C 4 12.25 11.203125 1.90625 21.703125 -0.203125 
C 27.5 -1.40625 34.203125 0.296875 38.203125 2.40625 
C 39.203125 2.90625 42.203125 4.71875 42.703125 5.625 
C 43 6.125 42.40625 11.25 42.40625 11.25 
" id="Computer_Modern_Bright-99"/>
      <path d="M 12.59375 37.28125 
L 12.5 37.28125 
L 12.5 47.390625 
L 6.40625 47.390625 
L 6.40625 0 
L 12.796875 0 
L 12.796875 21.9375 
C 12.796875 26.84375 12.5 31.875 14.703125 36.46875 
C 15.796875 38.78125 17.5 40.78125 19.796875 41.984375 
C 21.703125 42.890625 23.703125 42.890625 25.796875 42.6875 
C 28.796875 42.6875 31.703125 41.890625 33.59375 39.375 
C 35.40625 37.0625 35.5 34.0625 35.5 31.25 
L 35.5 0 
L 41.90625 0 
L 41.90625 26.859375 
C 41.90625 31.875 42.40625 37.375 40 41.890625 
C 38.09375 45.5 34.40625 47.203125 30.5 47.703125 
C 28.5 48 26.40625 48 24.40625 47.609375 
C 19.203125 46.5 14.40625 42.296875 12.59375 37.28125 
" id="Computer_Modern_Bright-110"/>
     </defs>
     <g style="fill:#262626;" transform="translate(201.022873 343.359582)scale(0.18 -0.18)">
      <use transform="scale(0.996264)" xlink:href="#Computer_Modern_Bright-69"/>
      <use transform="translate(58.737787 0)scale(0.996264)" xlink:href="#Computer_Modern_Bright-112"/>
      <use transform="translate(106.890284 0)scale(0.996264)" xlink:href="#Computer_Modern_Bright-105"/>
      <use transform="translate(125.985243 0)scale(0.996264)" xlink:href="#Computer_Modern_Bright-115"/>
      <use transform="translate(164.424272 0)scale(0.996264)" xlink:href="#Computer_Modern_Bright-116"/>
      <use transform="translate(200.53866 0)scale(0.996264)" xlink:href="#Computer_Modern_Bright-97"/>
      <use transform="translate(247.030742 0)scale(0.996264)" xlink:href="#Computer_Modern_Bright-115"/>
      <use transform="translate(285.469772 0)scale(0.996264)" xlink:href="#Computer_Modern_Bright-105"/>
      <use transform="translate(304.56473 0)scale(0.996264)" xlink:href="#Computer_Modern_Bright-115"/>
      <use transform="translate(374.468971 0)scale(0.996264)" xlink:href="#Computer_Modern_Bright-67"/>
      <use transform="translate(439.641004 0)scale(0.996264)" xlink:href="#Computer_Modern_Bright-111"/>
      <use transform="translate(490.284222 0)scale(0.996264)" xlink:href="#Computer_Modern_Bright-101"/>
      <use transform="translate(535.115889 0)scale(0.996264)" xlink:href="#Computer_Modern_Bright-14"/>
      <use transform="translate(613.156322 0)scale(0.996264)" xlink:href="#Computer_Modern_Bright-99"/>
      <use transform="translate(657.987989 0)scale(0.996264)" xlink:href="#Computer_Modern_Bright-105"/>
      <use transform="translate(677.082948 0)scale(0.996264)" xlink:href="#Computer_Modern_Bright-101"/>
      <use transform="translate(721.914616 0)scale(0.996264)" xlink:href="#Computer_Modern_Bright-110"/>
      <use transform="translate(770.067113 0)scale(0.996264)" xlink:href="#Computer_Modern_Bright-116"/>
     </g>
    </g>
   </g>
   <g id="matplotlib.axis_2">
    <g id="ytick_1">
     <g id="line2d_7"/>
     <g id="text_8">
      <!-- $0$ -->
      <g style="fill:#262626;" transform="translate(35.010613 298.124802)scale(0.16 -0.16)">
       <use transform="scale(0.996264)" xlink:href="#Computer_Modern_Bright-48"/>
      </g>
     </g>
    </g>
    <g id="ytick_2">
     <g id="line2d_8"/>
     <g id="text_9">
      <!-- $20$ -->
      <g style="fill:#262626;" transform="translate(26.642062 233.702802)scale(0.16 -0.16)">
       <use transform="scale(0.996264)" xlink:href="#Computer_Modern_Bright-50"/>
       <use transform="translate(50.643218 0)scale(0.996264)" xlink:href="#Computer_Modern_Bright-48"/>
      </g>
     </g>
    </g>
    <g id="ytick_3">
     <g id="line2d_9"/>
     <g id="text_10">
      <!-- $40$ -->
      <g style="fill:#262626;" transform="translate(26.642062 169.280801)scale(0.16 -0.16)">
       <use transform="scale(0.996264)" xlink:href="#Computer_Modern_Bright-52"/>
       <use transform="translate(50.643218 0)scale(0.996264)" xlink:href="#Computer_Modern_Bright-48"/>
      </g>
     </g>
    </g>
    <g id="ytick_4">
     <g id="line2d_10"/>
     <g id="text_11">
      <!-- $60$ -->
      <g style="fill:#262626;" transform="translate(26.642062 104.858801)scale(0.16 -0.16)">
       <use transform="scale(0.996264)" xlink:href="#Computer_Modern_Bright-54"/>
       <use transform="translate(50.643218 0)scale(0.996264)" xlink:href="#Computer_Modern_Bright-48"/>
      </g>
     </g>
    </g>
    <g id="ytick_5">
     <g id="line2d_11"/>
     <g id="text_12">
      <!-- $80$ -->
      <g style="fill:#262626;" transform="translate(26.642062 40.436801)scale(0.16 -0.16)">
       <use transform="scale(0.996264)" xlink:href="#Computer_Modern_Bright-56"/>
       <use transform="translate(50.643218 0)scale(0.996264)" xlink:href="#Computer_Modern_Bright-48"/>
      </g>
     </g>
    </g>
    <g id="text_13">
     <!-- Cumulative Density Function -->
     <defs>
      <path d="M 6.40625 47 
L 6.40625 12.96875 
C 6.40625 10.046875 6.5 7.140625 7.703125 4.421875 
C 9.59375 0.515625 13.59375 -1 17.703125 -1 
C 23.203125 -1 28.703125 0.8125 32.703125 4.734375 
C 33.796875 5.828125 34.796875 6.9375 35.5 8.34375 
L 35.59375 8.34375 
L 35.59375 -0.390625 
L 41.90625 -0.390625 
L 41.90625 47 
L 35.5 47 
L 35.5 22.90625 
C 35.5 18.6875 36.09375 14.0625 33.90625 10.25 
C 32.296875 7.4375 29.5 5.234375 26.40625 4.234375 
C 24.296875 3.625 22.09375 3.625 19.90625 3.828125 
C 17.796875 4.03125 15.5 4.234375 14.09375 6.03125 
C 12.09375 8.453125 12.796875 14.171875 12.796875 17.6875 
L 12.796875 47 
z
" id="Computer_Modern_Bright-117"/>
      <path d="M 12.59375 37.359375 
L 12.5 37.359375 
L 12.5 47.390625 
L 6.40625 47.390625 
L 6.40625 0 
L 12.796875 0 
L 12.796875 22.046875 
C 12.796875 26.953125 12.5 31.875 14.703125 36.375 
C 16.59375 40.28125 19.90625 43.390625 25.796875 42.78125 
C 28.796875 42.78125 31.796875 41.984375 33.703125 39.453125 
C 35.5 37.140625 35.59375 34.140625 35.59375 31.3125 
L 35.59375 0 
L 42 0 
L 42 22.046875 
C 42 26.953125 41.703125 31.875 43.90625 36.375 
C 45.796875 40.28125 49.09375 43.390625 55 42.78125 
C 58 42.78125 61 41.984375 62.90625 39.453125 
C 64.703125 37.140625 64.796875 34.140625 64.796875 31.3125 
L 64.796875 0 
L 71.203125 0 
L 71.203125 26.5625 
C 71.203125 31.375 71.796875 36.78125 69.703125 41.1875 
C 67.59375 45.296875 64.203125 47.5 58.703125 47.5 
C 55.5 47.796875 52.296875 47.3125 49.40625 45.84375 
C 45.90625 43.921875 43.296875 40.75 41.703125 37.265625 
C 41 40.578125 40.203125 42.828125 38 45 
C 35.703125 47.0625 32.59375 48 29.59375 48 
C 22.296875 48.59375 17.703125 45.5625 14.59375 41 
C 13.796875 39.875 13 38.671875 12.59375 37.359375 
" id="Computer_Modern_Bright-109"/>
      <path d="M 6.40625 69.6875 
L 6.40625 0 
L 12.703125 0 
L 12.703125 69.6875 
z
" id="Computer_Modern_Bright-108"/>
      <path d="M 0.703125 47.5 
C 1.203125 45.5 4.203125 37.578125 4.40625 37.078125 
C 5.40625 34.28125 17.296875 0.609375 17.59375 0.296875 
C 17.90625 -0.203125 18.796875 0 19.296875 0 
L 22.796875 0 
C 24.09375 0 24.90625 -0.296875 25.203125 0.90625 
C 28.40625 9.328125 40.09375 42.703125 41.796875 47.5 
L 35.59375 47.5 
C 30.796875 33.984375 25.90625 20.4375 21.40625 6.609375 
L 11 36.203125 
C 9.5 39.796875 8.59375 43.890625 6.90625 47.203125 
C 5.09375 47.5 2.796875 47.5 0.703125 47.5 
" id="Computer_Modern_Bright-118"/>
      <path d="M 8 70 
L 8 0 
L 28.203125 0 
C 31.40625 0 34.59375 0 37.703125 0.296875 
C 45.703125 1.109375 52.59375 5.015625 57.203125 9.828125 
C 70.09375 23.171875 70 46.125 57.296875 59.671875 
C 52.703125 64.578125 46.5 68.5 38.703125 69.5 
C 34.90625 70 31 70 27.203125 70 
z
M 14.90625 5.3125 
L 14.90625 64.5625 
L 27.796875 64.5625 
C 30.5 64.5625 33.203125 64.5625 35.90625 64.359375 
C 40.40625 63.859375 44.796875 62.359375 48.5 59.734375 
C 56.59375 54.125 60 44.171875 60 34.640625 
C 60 26.609375 57.796875 18.375 51.90625 12.640625 
C 47.90625 8.9375 42.5 6.21875 36 5.515625 
C 33.40625 5.3125 30.703125 5.3125 28.09375 5.3125 
z
" id="Computer_Modern_Bright-68"/>
      <path d="M 0.703125 47.65625 
C 1.296875 45.75 5.40625 35.609375 5.5 35.3125 
L 17.40625 4.578125 
L 18.40625 2.078125 
C 19 0.671875 19.203125 0.46875 18.59375 -1.140625 
L 17.5 -4.046875 
C 16.59375 -6.46875 15.59375 -8.96875 13.703125 -10.484375 
C 10.296875 -13.296875 4.90625 -11.6875 0.796875 -10.78125 
L 1.296875 -16.5 
C 3.203125 -16.796875 5.09375 -17 7 -17 
C 11.296875 -17.515625 14.09375 -16.5 16.703125 -14.296875 
C 20 -11.484375 21.59375 -7.5625 23.09375 -3.546875 
L 26.203125 5.078125 
L 36.40625 32.90625 
C 38.09375 37.921875 40.203125 42.640625 41.796875 47.65625 
L 37.296875 47.65625 
C 36.796875 47.65625 36 47.859375 35.59375 47.46875 
C 35.40625 47.15625 35.296875 46.765625 35.203125 46.453125 
L 34.40625 44.34375 
C 33.40625 41.734375 32.5 39.234375 31.59375 36.609375 
L 25.796875 20.25 
C 24.296875 15.828125 22.59375 11.3125 21.796875 6.6875 
C 20.703125 11.3125 19.203125 15.734375 17.59375 20.140625 
C 16.296875 23.5625 8.5 44.546875 7.5 46.5625 
C 7.09375 47.65625 6.703125 47.65625 5.203125 47.65625 
z
" id="Computer_Modern_Bright-121"/>
      <path d="M 8 69.328125 
L 8 0 
L 15 0 
L 15 32 
L 48.09375 32 
L 48.09375 37.3125 
L 15 37.3125 
L 15 64 
L 52.40625 64 
L 52.40625 69.328125 
z
" id="Computer_Modern_Bright-70"/>
     </defs>
     <g style="fill:#262626;" transform="translate(19.65327 260.669538)rotate(-90)scale(0.18 -0.18)">
      <use transform="scale(0.996264)" xlink:href="#Computer_Modern_Bright-67"/>
      <use transform="translate(65.172032 0)scale(0.996264)" xlink:href="#Computer_Modern_Bright-117"/>
      <use transform="translate(113.324529 0)scale(0.996264)" xlink:href="#Computer_Modern_Bright-109"/>
      <use transform="translate(190.534656 0)scale(0.996264)" xlink:href="#Computer_Modern_Bright-117"/>
      <use transform="translate(238.687153 0)scale(0.996264)" xlink:href="#Computer_Modern_Bright-108"/>
      <use transform="translate(257.782112 0)scale(0.996264)" xlink:href="#Computer_Modern_Bright-97"/>
      <use transform="translate(304.274194 0)scale(0.996264)" xlink:href="#Computer_Modern_Bright-116"/>
      <use transform="translate(340.388582 0)scale(0.996264)" xlink:href="#Computer_Modern_Bright-105"/>
      <use transform="translate(359.483541 0)scale(0.996264)" xlink:href="#Computer_Modern_Bright-118"/>
      <use transform="translate(401.824579 0)scale(0.996264)" xlink:href="#Computer_Modern_Bright-101"/>
      <use transform="translate(478.121458 0)scale(0.996264)" xlink:href="#Computer_Modern_Bright-68"/>
      <use transform="translate(549.727645 0)scale(0.996264)" xlink:href="#Computer_Modern_Bright-101"/>
      <use transform="translate(594.559312 0)scale(0.996264)" xlink:href="#Computer_Modern_Bright-110"/>
      <use transform="translate(642.711809 0)scale(0.996264)" xlink:href="#Computer_Modern_Bright-115"/>
      <use transform="translate(681.150839 0)scale(0.996264)" xlink:href="#Computer_Modern_Bright-105"/>
      <use transform="translate(700.245798 0)scale(0.996264)" xlink:href="#Computer_Modern_Bright-116"/>
      <use transform="translate(733.454456 0)scale(0.996264)" xlink:href="#Computer_Modern_Bright-121"/>
      <use transform="translate(807.260706 0)scale(0.996264)" xlink:href="#Computer_Modern_Bright-70"/>
      <use transform="translate(860.187034 0)scale(0.996264)" xlink:href="#Computer_Modern_Bright-117"/>
      <use transform="translate(908.339531 0)scale(0.996264)" xlink:href="#Computer_Modern_Bright-110"/>
      <use transform="translate(956.492028 0)scale(0.996264)" xlink:href="#Computer_Modern_Bright-99"/>
      <use transform="translate(1001.323695 0)scale(0.996264)" xlink:href="#Computer_Modern_Bright-116"/>
      <use transform="translate(1037.438083 0)scale(0.996264)" xlink:href="#Computer_Modern_Bright-105"/>
      <use transform="translate(1056.533042 0)scale(0.996264)" xlink:href="#Computer_Modern_Bright-111"/>
      <use transform="translate(1107.17626 0)scale(0.996264)" xlink:href="#Computer_Modern_Bright-110"/>
     </g>
    </g>
   </g>
   <g id="PolyCollection_1">
    <path clip-path="url(#p4cec42d259)" d="M 460.376824 292.585783 
L 460.376824 292.59 
L 460.503685 292.59 
L 460.630547 292.59 
L 460.757409 292.59 
L 460.88427 292.59 
L 461.011132 292.59 
L 461.137994 292.59 
L 461.264855 292.59 
L 461.391717 292.59 
L 461.518579 292.59 
L 461.64544 292.59 
L 461.772302 292.59 
L 461.899164 292.59 
L 462.026025 292.59 
L 462.152887 292.59 
L 462.279748 292.59 
L 462.40661 292.59 
L 462.533472 292.59 
L 462.660333 292.59 
L 462.787195 292.59 
L 462.914057 292.59 
L 463.040918 292.59 
L 463.16778 292.59 
L 463.294642 292.59 
L 463.421503 292.59 
L 463.548365 292.59 
L 463.675227 292.59 
L 463.802088 292.59 
L 463.92895 292.59 
L 464.055812 292.59 
L 464.182673 292.59 
L 464.309535 292.59 
L 464.436397 292.59 
L 464.563258 292.59 
L 464.69012 292.59 
L 464.816982 292.59 
L 464.943843 292.59 
L 465.070705 292.59 
L 465.197567 292.59 
L 465.324428 292.59 
L 465.45129 292.59 
L 465.578152 292.59 
L 465.705013 292.59 
L 465.831875 292.59 
L 465.958737 292.59 
L 466.085598 292.59 
L 466.21246 292.59 
L 466.339322 292.59 
L 466.466183 292.59 
L 466.593045 292.59 
L 466.719907 292.59 
L 466.846768 292.59 
L 466.97363 292.59 
L 467.100492 292.59 
L 467.227353 292.59 
L 467.354215 292.59 
L 467.481076 292.59 
L 467.607938 292.59 
L 467.7348 292.59 
L 467.861661 292.59 
L 467.988523 292.59 
L 468.115385 292.59 
L 468.242246 292.59 
L 468.369108 292.59 
L 468.49597 292.59 
L 468.622831 292.59 
L 468.749693 292.59 
L 468.876555 292.59 
L 469.003416 292.59 
L 469.130278 292.59 
L 469.25714 292.59 
L 469.384001 292.59 
L 469.510863 292.59 
L 469.637725 292.59 
L 469.764586 292.59 
L 469.891448 292.59 
L 470.01831 292.59 
L 470.145171 292.59 
L 470.272033 292.59 
L 470.398895 292.59 
L 470.525756 292.59 
L 470.652618 292.59 
L 470.77948 292.59 
L 470.906341 292.59 
L 471.033203 292.59 
L 471.160065 292.59 
L 471.286926 292.59 
L 471.413788 292.59 
L 471.54065 292.59 
L 471.667511 292.59 
L 471.794373 292.59 
L 471.921235 292.59 
L 472.048096 292.59 
L 472.174958 292.59 
L 472.30182 292.59 
L 472.428681 292.59 
L 472.555543 292.59 
L 472.682404 292.59 
L 472.809266 292.59 
L 472.936128 292.59 
L 473.062989 292.59 
L 473.189851 292.59 
L 473.316713 292.59 
L 473.443574 292.59 
L 473.570436 292.59 
L 473.697298 292.59 
L 473.824159 292.59 
L 473.951021 292.59 
L 474.077883 292.59 
L 474.204744 292.59 
L 474.331606 292.59 
L 474.458468 292.59 
L 474.585329 292.59 
L 474.712191 292.59 
L 474.839053 292.59 
L 474.965914 292.59 
L 475.092776 292.59 
L 475.219638 292.59 
L 475.346499 292.59 
L 475.473361 292.59 
L 475.600223 292.59 
L 475.727084 292.59 
L 475.853946 292.59 
L 475.980808 292.59 
L 476.107669 292.59 
L 476.234531 292.59 
L 476.361393 292.59 
L 476.488254 292.59 
L 476.488254 292.585796 
L 476.488254 292.585796 
L 476.361393 292.580708 
L 476.234531 292.567775 
L 476.107669 292.542463 
L 475.980808 292.501029 
L 475.853946 292.444585 
L 475.727084 292.382423 
L 475.600223 292.330943 
L 475.473361 292.306465 
L 475.346499 292.315205 
L 475.219638 292.347083 
L 475.092776 292.377715 
L 474.965914 292.376841 
L 474.839053 292.317966 
L 474.712191 292.185665 
L 474.585329 291.980442 
L 474.458468 291.721508 
L 474.331606 291.445599 
L 474.204744 291.198854 
L 474.077883 291.021316 
L 473.951021 290.928184 
L 473.824159 290.894959 
L 473.697298 290.853574 
L 473.570436 290.704145 
L 473.443574 290.341808 
L 473.316713 289.689518 
L 473.189851 288.720221 
L 473.062989 287.45486 
L 472.936128 285.938736 
L 472.809266 284.215138 
L 472.682404 282.314658 
L 472.555543 280.259482 
L 472.428681 278.064312 
L 472.30182 275.720847 
L 472.174958 273.178094 
L 472.048096 270.34707 
L 471.921235 267.141675 
L 471.794373 263.528404 
L 471.667511 259.53494 
L 471.54065 255.190408 
L 471.413788 250.427691 
L 471.286926 245.025899 
L 471.160065 238.662859 
L 471.033203 231.077733 
L 470.906341 222.258116 
L 470.77948 212.527277 
L 470.652618 202.450333 
L 470.525756 192.588676 
L 470.398895 183.243535 
L 470.272033 174.349228 
L 470.145171 165.567493 
L 470.01831 156.487065 
L 469.891448 146.790109 
L 469.764586 136.331406 
L 469.637725 125.161649 
L 469.510863 113.516408 
L 469.384001 101.746331 
L 469.25714 90.186866 
L 469.130278 79.04081 
L 469.003416 68.361613 
L 468.876555 58.143378 
L 468.749693 48.442978 
L 468.622831 39.470077 
L 468.49597 31.633029 
L 468.369108 25.522306 
L 468.242246 21.772418 
L 468.115385 20.79 
L 467.988523 22.480033 
L 467.861661 26.181662 
L 467.7348 30.909491 
L 467.607938 35.767694 
L 467.481076 40.271512 
L 467.354215 44.3948 
L 467.227353 48.391831 
L 467.100492 52.610555 
L 466.97363 57.458499 
L 466.846768 63.461056 
L 466.719907 71.218539 
L 466.593045 81.181156 
L 466.466183 93.381497 
L 466.339322 107.3329 
L 466.21246 122.160164 
L 466.085598 136.857135 
L 465.958737 150.535029 
L 465.831875 162.60972 
L 465.705013 172.930846 
L 465.578152 181.818923 
L 465.45129 189.938042 
L 465.324428 197.999489 
L 465.197567 206.434429 
L 465.070705 215.236487 
L 464.943843 224.06184 
L 464.816982 232.480184 
L 464.69012 240.183692 
L 464.563258 247.049528 
L 464.436397 253.094603 
L 464.309535 258.411737 
L 464.182673 263.124343 
L 464.055812 267.343362 
L 463.92895 271.121123 
L 463.802088 274.435575 
L 463.675227 277.235036 
L 463.548365 279.519446 
L 463.421503 281.389214 
L 463.294642 283.012574 
L 463.16778 284.533558 
L 463.040918 285.995951 
L 462.914057 287.341927 
L 462.787195 288.477136 
L 462.660333 289.344261 
L 462.533472 289.95527 
L 462.40661 290.37609 
L 462.279748 290.689038 
L 462.152887 290.959562 
L 462.026025 291.219992 
L 461.899164 291.471326 
L 461.772302 291.697863 
L 461.64544 291.885489 
L 461.518579 292.03319 
L 461.391717 292.152111 
L 461.264855 292.255573 
L 461.137994 292.349714 
L 461.011132 292.432011 
L 460.88427 292.49676 
L 460.757409 292.541185 
L 460.630547 292.567439 
L 460.503685 292.580631 
L 460.376824 292.585783 
z
" style="fill:#ff7f00;fill-opacity:0.25;"/>
   </g>
   <g id="PolyCollection_2">
    <path clip-path="url(#p4cec42d259)" d="M 289.781179 292.586674 
L 289.781179 292.59 
L 289.977863 292.59 
L 290.174547 292.59 
L 290.37123 292.59 
L 290.567914 292.59 
L 290.764598 292.59 
L 290.961281 292.59 
L 291.157965 292.59 
L 291.354649 292.59 
L 291.551333 292.59 
L 291.748016 292.59 
L 291.9447 292.59 
L 292.141384 292.59 
L 292.338068 292.59 
L 292.534751 292.59 
L 292.731435 292.59 
L 292.928119 292.59 
L 293.124802 292.59 
L 293.321486 292.59 
L 293.51817 292.59 
L 293.714854 292.59 
L 293.911537 292.59 
L 294.108221 292.59 
L 294.304905 292.59 
L 294.501588 292.59 
L 294.698272 292.59 
L 294.894956 292.59 
L 295.09164 292.59 
L 295.288323 292.59 
L 295.485007 292.59 
L 295.681691 292.59 
L 295.878375 292.59 
L 296.075058 292.59 
L 296.271742 292.59 
L 296.468426 292.59 
L 296.665109 292.59 
L 296.861793 292.59 
L 297.058477 292.59 
L 297.255161 292.59 
L 297.451844 292.59 
L 297.648528 292.59 
L 297.845212 292.59 
L 298.041895 292.59 
L 298.238579 292.59 
L 298.435263 292.59 
L 298.631947 292.59 
L 298.82863 292.59 
L 299.025314 292.59 
L 299.221998 292.59 
L 299.418682 292.59 
L 299.615365 292.59 
L 299.812049 292.59 
L 300.008733 292.59 
L 300.205416 292.59 
L 300.4021 292.59 
L 300.598784 292.59 
L 300.795468 292.59 
L 300.992151 292.59 
L 301.188835 292.59 
L 301.385519 292.59 
L 301.582202 292.59 
L 301.778886 292.59 
L 301.97557 292.59 
L 302.172254 292.59 
L 302.368937 292.59 
L 302.565621 292.59 
L 302.762305 292.59 
L 302.958989 292.59 
L 303.155672 292.59 
L 303.352356 292.59 
L 303.54904 292.59 
L 303.745723 292.59 
L 303.942407 292.59 
L 304.139091 292.59 
L 304.335775 292.59 
L 304.532458 292.59 
L 304.729142 292.59 
L 304.925826 292.59 
L 305.122509 292.59 
L 305.319193 292.59 
L 305.515877 292.59 
L 305.712561 292.59 
L 305.909244 292.59 
L 306.105928 292.59 
L 306.302612 292.59 
L 306.499296 292.59 
L 306.695979 292.59 
L 306.892663 292.59 
L 307.089347 292.59 
L 307.28603 292.59 
L 307.482714 292.59 
L 307.679398 292.59 
L 307.876082 292.59 
L 308.072765 292.59 
L 308.269449 292.59 
L 308.466133 292.59 
L 308.662816 292.59 
L 308.8595 292.59 
L 309.056184 292.59 
L 309.252868 292.59 
L 309.449551 292.59 
L 309.646235 292.59 
L 309.842919 292.59 
L 310.039603 292.59 
L 310.236286 292.59 
L 310.43297 292.59 
L 310.629654 292.59 
L 310.826337 292.59 
L 311.023021 292.59 
L 311.219705 292.59 
L 311.416389 292.59 
L 311.613072 292.59 
L 311.809756 292.59 
L 312.00644 292.59 
L 312.203123 292.59 
L 312.399807 292.59 
L 312.596491 292.59 
L 312.793175 292.59 
L 312.989858 292.59 
L 313.186542 292.59 
L 313.383226 292.59 
L 313.57991 292.59 
L 313.776593 292.59 
L 313.973277 292.59 
L 314.169961 292.59 
L 314.366644 292.59 
L 314.563328 292.59 
L 314.760012 292.59 
L 314.760012 292.586853 
L 314.760012 292.586853 
L 314.563328 292.582862 
L 314.366644 292.572551 
L 314.169961 292.552397 
L 313.973277 292.52002 
L 313.776593 292.477757 
L 313.57991 292.434899 
L 313.383226 292.405405 
L 313.186542 292.400826 
L 312.989858 292.423113 
L 312.793175 292.463293 
L 312.596491 292.50721 
L 312.399807 292.543361 
L 312.203123 292.566929 
L 312.00644 292.57837 
L 311.809756 292.579069 
L 311.613072 292.567181 
L 311.416389 292.535473 
L 311.219705 292.47242 
L 311.023021 292.367654 
L 310.826337 292.22063 
L 310.629654 292.046991 
L 310.43297 291.875266 
L 310.236286 291.731988 
L 310.039603 291.624075 
L 309.842919 291.533126 
L 309.646235 291.429152 
L 309.449551 291.294966 
L 309.252868 291.141219 
L 309.056184 290.997458 
L 308.8595 290.883461 
L 308.662816 290.781682 
L 308.466133 290.632111 
L 308.269449 290.35495 
L 308.072765 289.886434 
L 307.876082 289.203683 
L 307.679398 288.323136 
L 307.482714 287.277054 
L 307.28603 286.088077 
L 307.089347 284.762525 
L 306.892663 283.309663 
L 306.695979 281.770616 
L 306.499296 280.221161 
L 306.302612 278.72521 
L 306.105928 277.265563 
L 305.909244 275.714659 
L 305.712561 273.878715 
L 305.515877 271.582692 
L 305.319193 268.737979 
L 305.122509 265.365555 
L 304.925826 261.579058 
L 304.729142 257.53378 
L 304.532458 253.349969 
L 304.335775 249.044003 
L 304.139091 244.517641 
L 303.942407 239.626774 
L 303.745723 234.290067 
L 303.54904 228.556157 
L 303.352356 222.565949 
L 303.155672 216.422259 
L 302.958989 210.064591 
L 302.762305 203.26835 
L 302.565621 195.801032 
L 302.368937 187.62408 
L 302.172254 178.963162 
L 301.97557 170.169541 
L 301.778886 161.482384 
L 301.582202 152.894701 
L 301.385519 144.234868 
L 301.188835 135.398237 
L 300.992151 126.56093 
L 300.795468 118.237617 
L 300.598784 111.144571 
L 300.4021 105.931883 
L 300.205416 102.929217 
L 300.008733 102.063848 
L 299.812049 103.003845 
L 299.615365 105.404337 
L 299.418682 109.053988 
L 299.221998 113.821712 
L 299.025314 119.485107 
L 298.82863 125.615405 
L 298.631947 131.649612 
L 298.435263 137.147634 
L 298.238579 142.073647 
L 298.041895 146.864462 
L 297.845212 152.177039 
L 297.648528 158.485749 
L 297.451844 165.852143 
L 297.255161 174.027957 
L 297.058477 182.733572 
L 296.861793 191.815436 
L 296.665109 201.157995 
L 296.468426 210.500754 
L 296.271742 219.394409 
L 296.075058 227.366598 
L 295.878375 234.161738 
L 295.681691 239.866906 
L 295.485007 244.839754 
L 295.288323 249.498038 
L 295.09164 254.113091 
L 294.894956 258.729568 
L 294.698272 263.232507 
L 294.501588 267.481436 
L 294.304905 271.406666 
L 294.108221 275.015576 
L 293.911537 278.329697 
L 293.714854 281.317365 
L 293.51817 283.882896 
L 293.321486 285.92576 
L 293.124802 287.423055 
L 292.928119 288.46549 
L 292.731435 289.215416 
L 292.534751 289.822001 
L 292.338068 290.361067 
L 292.141384 290.837567 
L 291.9447 291.231384 
L 291.748016 291.538385 
L 291.551333 291.778089 
L 291.354649 291.976401 
L 291.157965 292.1483 
L 290.961281 292.294645 
L 290.764598 292.409965 
L 290.567914 292.491292 
L 290.37123 292.541793 
L 290.174547 292.569155 
L 289.977863 292.581928 
L 289.781179 292.586674 
z
" style="fill:#0000ff;fill-opacity:0.25;"/>
   </g>
   <g id="PolyCollection_3">
    <path clip-path="url(#p4cec42d259)" d="M 70.670072 292.588067 
L 70.670072 292.59 
L 70.990558 292.59 
L 71.311044 292.59 
L 71.63153 292.59 
L 71.952016 292.59 
L 72.272502 292.59 
L 72.592988 292.59 
L 72.913474 292.59 
L 73.23396 292.59 
L 73.554446 292.59 
L 73.874932 292.59 
L 74.195418 292.59 
L 74.515904 292.59 
L 74.83639 292.59 
L 75.156876 292.59 
L 75.477361 292.59 
L 75.797847 292.59 
L 76.118333 292.59 
L 76.438819 292.59 
L 76.759305 292.59 
L 77.079791 292.59 
L 77.400277 292.59 
L 77.720763 292.59 
L 78.041249 292.59 
L 78.361735 292.59 
L 78.682221 292.59 
L 79.002707 292.59 
L 79.323193 292.59 
L 79.643679 292.59 
L 79.964165 292.59 
L 80.28465 292.59 
L 80.605136 292.59 
L 80.925622 292.59 
L 81.246108 292.59 
L 81.566594 292.59 
L 81.88708 292.59 
L 82.207566 292.59 
L 82.528052 292.59 
L 82.848538 292.59 
L 83.169024 292.59 
L 83.48951 292.59 
L 83.809996 292.59 
L 84.130482 292.59 
L 84.450968 292.59 
L 84.771454 292.59 
L 85.091939 292.59 
L 85.412425 292.59 
L 85.732911 292.59 
L 86.053397 292.59 
L 86.373883 292.59 
L 86.694369 292.59 
L 87.014855 292.59 
L 87.335341 292.59 
L 87.655827 292.59 
L 87.976313 292.59 
L 88.296799 292.59 
L 88.617285 292.59 
L 88.937771 292.59 
L 89.258257 292.59 
L 89.578743 292.59 
L 89.899228 292.59 
L 90.219714 292.59 
L 90.5402 292.59 
L 90.860686 292.59 
L 91.181172 292.59 
L 91.501658 292.59 
L 91.822144 292.59 
L 92.14263 292.59 
L 92.463116 292.59 
L 92.783602 292.59 
L 93.104088 292.59 
L 93.424574 292.59 
L 93.74506 292.59 
L 94.065546 292.59 
L 94.386032 292.59 
L 94.706517 292.59 
L 95.027003 292.59 
L 95.347489 292.59 
L 95.667975 292.59 
L 95.988461 292.59 
L 96.308947 292.59 
L 96.629433 292.59 
L 96.949919 292.59 
L 97.270405 292.59 
L 97.590891 292.59 
L 97.911377 292.59 
L 98.231863 292.59 
L 98.552349 292.59 
L 98.872835 292.59 
L 99.193321 292.59 
L 99.513806 292.59 
L 99.834292 292.59 
L 100.154778 292.59 
L 100.475264 292.59 
L 100.79575 292.59 
L 101.116236 292.59 
L 101.436722 292.59 
L 101.757208 292.59 
L 102.077694 292.59 
L 102.39818 292.59 
L 102.718666 292.59 
L 103.039152 292.59 
L 103.359638 292.59 
L 103.680124 292.59 
L 104.00061 292.59 
L 104.321095 292.59 
L 104.641581 292.59 
L 104.962067 292.59 
L 105.282553 292.59 
L 105.603039 292.59 
L 105.923525 292.59 
L 106.244011 292.59 
L 106.564497 292.59 
L 106.884983 292.59 
L 107.205469 292.59 
L 107.525955 292.59 
L 107.846441 292.59 
L 108.166927 292.59 
L 108.487413 292.59 
L 108.807899 292.59 
L 109.128384 292.59 
L 109.44887 292.59 
L 109.769356 292.59 
L 110.089842 292.59 
L 110.410328 292.59 
L 110.730814 292.59 
L 111.0513 292.59 
L 111.371786 292.59 
L 111.371786 292.588067 
L 111.371786 292.588067 
L 111.0513 292.585369 
L 110.730814 292.57837 
L 110.410328 292.564612 
L 110.089842 292.542651 
L 109.769356 292.51465 
L 109.44887 292.487679 
L 109.128384 292.471412 
L 108.807899 292.472677 
L 108.487413 292.490904 
L 108.166927 292.518528 
L 107.846441 292.545953 
L 107.525955 292.566678 
L 107.205469 292.578861 
L 106.884983 292.583335 
L 106.564497 292.580431 
L 106.244011 292.567709 
L 105.923525 292.539662 
L 105.603039 292.489798 
L 105.282553 292.414247 
L 104.962067 292.313723 
L 104.641581 292.190143 
L 104.321095 292.038587 
L 104.00061 291.84211 
L 103.680124 291.577915 
L 103.359638 291.233684 
L 103.039152 290.819776 
L 102.718666 290.362155 
L 102.39818 289.87803 
L 102.077694 289.354649 
L 101.757208 288.74832 
L 101.436722 287.999642 
L 101.116236 287.051151 
L 100.79575 285.863642 
L 100.475264 284.431483 
L 100.154778 282.782979 
L 99.834292 280.949421 
L 99.513806 278.918087 
L 99.193321 276.616349 
L 98.872835 273.956174 
L 98.552349 270.90931 
L 98.231863 267.548698 
L 97.911377 264.020745 
L 97.590891 260.470458 
L 97.270405 256.965256 
L 96.949919 253.445986 
L 96.629433 249.719152 
L 96.308947 245.510025 
L 95.988461 240.583497 
L 95.667975 234.884244 
L 95.347489 228.602028 
L 95.027003 222.102439 
L 94.706517 215.766171 
L 94.386032 209.855084 
L 94.065546 204.490886 
L 93.74506 199.717322 
L 93.424574 195.543081 
L 93.104088 191.92561 
L 92.783602 188.775252 
L 92.463116 186.045443 
L 92.14263 183.816224 
L 91.822144 182.214495 
L 91.501658 181.194721 
L 91.181172 180.426554 
L 90.860686 179.493914 
L 90.5402 178.297266 
L 90.219714 177.291819 
L 89.899228 177.289444 
L 89.578743 178.941963 
L 89.258257 182.326593 
L 88.937771 186.962931 
L 88.617285 192.201015 
L 88.296799 197.621983 
L 87.976313 203.151102 
L 87.655827 208.882649 
L 87.335341 214.837283 
L 87.014855 220.849676 
L 86.694369 226.625994 
L 86.373883 231.896117 
L 86.053397 236.56048 
L 85.732911 240.745458 
L 85.412425 244.720926 
L 85.091939 248.721306 
L 84.771454 252.800388 
L 84.450968 256.832929 
L 84.130482 260.642066 
L 83.809996 264.122004 
L 83.48951 267.258083 
L 83.169024 270.065948 
L 82.848538 272.539704 
L 82.528052 274.662472 
L 82.207566 276.453761 
L 81.88708 277.993606 
L 81.566594 279.397175 
L 81.246108 280.764892 
L 80.925622 282.146588 
L 80.605136 283.536031 
L 80.28465 284.889811 
L 79.964165 286.156125 
L 79.643679 287.297425 
L 79.323193 288.29651 
L 79.002707 289.14937 
L 78.682221 289.857201 
L 78.361735 290.42493 
L 78.041249 290.863449 
L 77.720763 291.190222 
L 77.400277 291.427359 
L 77.079791 291.599762 
L 76.759305 291.734224 
L 76.438819 291.856732 
L 76.118333 291.985803 
L 75.797847 292.125348 
L 75.477361 292.263989 
L 75.156876 292.383077 
L 74.83639 292.467672 
L 74.515904 292.512832 
L 74.195418 292.52331 
L 73.874932 292.510288 
L 73.554446 292.488317 
L 73.23396 292.471977 
L 72.913474 292.471249 
L 72.592988 292.487646 
L 72.272502 292.514645 
L 71.952016 292.54265 
L 71.63153 292.564612 
L 71.311044 292.57837 
L 70.990558 292.585369 
L 70.670072 292.588067 
z
" style="fill:#e31a1c;fill-opacity:0.25;"/>
   </g>
   <g id="PolyCollection_4">
    <path clip-path="url(#p4cec42d259)" d="M 224.852352 292.587441 
L 224.852352 292.59 
L 225.129894 292.59 
L 225.407435 292.59 
L 225.684977 292.59 
L 225.962518 292.59 
L 226.24006 292.59 
L 226.517602 292.59 
L 226.795143 292.59 
L 227.072685 292.59 
L 227.350226 292.59 
L 227.627768 292.59 
L 227.90531 292.59 
L 228.182851 292.59 
L 228.460393 292.59 
L 228.737934 292.59 
L 229.015476 292.59 
L 229.293018 292.59 
L 229.570559 292.59 
L 229.848101 292.59 
L 230.125642 292.59 
L 230.403184 292.59 
L 230.680726 292.59 
L 230.958267 292.59 
L 231.235809 292.59 
L 231.51335 292.59 
L 231.790892 292.59 
L 232.068434 292.59 
L 232.345975 292.59 
L 232.623517 292.59 
L 232.901058 292.59 
L 233.1786 292.59 
L 233.456142 292.59 
L 233.733683 292.59 
L 234.011225 292.59 
L 234.288766 292.59 
L 234.566308 292.59 
L 234.84385 292.59 
L 235.121391 292.59 
L 235.398933 292.59 
L 235.676474 292.59 
L 235.954016 292.59 
L 236.231558 292.59 
L 236.509099 292.59 
L 236.786641 292.59 
L 237.064182 292.59 
L 237.341724 292.59 
L 237.619266 292.59 
L 237.896807 292.59 
L 238.174349 292.59 
L 238.45189 292.59 
L 238.729432 292.59 
L 239.006974 292.59 
L 239.284515 292.59 
L 239.562057 292.59 
L 239.839598 292.59 
L 240.11714 292.59 
L 240.394682 292.59 
L 240.672223 292.59 
L 240.949765 292.59 
L 241.227306 292.59 
L 241.504848 292.59 
L 241.78239 292.59 
L 242.059931 292.59 
L 242.337473 292.59 
L 242.615014 292.59 
L 242.892556 292.59 
L 243.170098 292.59 
L 243.447639 292.59 
L 243.725181 292.59 
L 244.002723 292.59 
L 244.280264 292.59 
L 244.557806 292.59 
L 244.835347 292.59 
L 245.112889 292.59 
L 245.390431 292.59 
L 245.667972 292.59 
L 245.945514 292.59 
L 246.223055 292.59 
L 246.500597 292.59 
L 246.778139 292.59 
L 247.05568 292.59 
L 247.333222 292.59 
L 247.610763 292.59 
L 247.888305 292.59 
L 248.165847 292.59 
L 248.443388 292.59 
L 248.72093 292.59 
L 248.998471 292.59 
L 249.276013 292.59 
L 249.553555 292.59 
L 249.831096 292.59 
L 250.108638 292.59 
L 250.386179 292.59 
L 250.663721 292.59 
L 250.941263 292.59 
L 251.218804 292.59 
L 251.496346 292.59 
L 251.773887 292.59 
L 252.051429 292.59 
L 252.328971 292.59 
L 252.606512 292.59 
L 252.884054 292.59 
L 253.161595 292.59 
L 253.439137 292.59 
L 253.716679 292.59 
L 253.99422 292.59 
L 254.271762 292.59 
L 254.549303 292.59 
L 254.826845 292.59 
L 255.104387 292.59 
L 255.381928 292.59 
L 255.65947 292.59 
L 255.937011 292.59 
L 256.214553 292.59 
L 256.492095 292.59 
L 256.769636 292.59 
L 257.047178 292.59 
L 257.324719 292.59 
L 257.602261 292.59 
L 257.879803 292.59 
L 258.157344 292.59 
L 258.434886 292.59 
L 258.712427 292.59 
L 258.989969 292.59 
L 259.267511 292.59 
L 259.545052 292.59 
L 259.822594 292.59 
L 260.100135 292.59 
L 260.100135 292.585904 
L 260.100135 292.585904 
L 259.822594 292.580219 
L 259.545052 292.5662 
L 259.267511 292.535679 
L 258.989969 292.474884 
L 258.712427 292.363294 
L 258.434886 292.173843 
L 258.157344 291.875045 
L 257.879803 291.434679 
L 257.602261 290.823634 
L 257.324719 290.018319 
L 257.047178 289.000938 
L 256.769636 287.758352 
L 256.492095 286.280305 
L 256.214553 284.556285 
L 255.937011 282.568873 
L 255.65947 280.283199 
L 255.381928 277.637309 
L 255.104387 274.542813 
L 254.826845 270.903518 
L 254.549303 266.650095 
L 254.271762 261.776685 
L 253.99422 256.360044 
L 253.716679 250.549077 
L 253.439137 244.528813 
L 253.161595 238.477234 
L 252.884054 232.535728 
L 252.606512 226.802904 
L 252.328971 221.345883 
L 252.051429 216.214873 
L 251.773887 211.45122 
L 251.496346 207.090396 
L 251.218804 203.167828 
L 250.941263 199.730476 
L 250.663721 196.84548 
L 250.386179 194.591558 
L 250.108638 193.027224 
L 249.831096 192.148093 
L 249.553555 191.859443 
L 249.276013 191.987072 
L 248.998471 192.328735 
L 248.72093 192.722677 
L 248.443388 193.096781 
L 248.165847 193.471728 
L 247.888305 193.919453 
L 247.610763 194.505899 
L 247.333222 195.255082 
L 247.05568 196.153911 
L 246.778139 197.187346 
L 246.500597 198.373777 
L 246.223055 199.774152 
L 245.945514 201.469239 
L 245.667972 203.520015 
L 245.390431 205.933499 
L 245.112889 208.65058 
L 244.835347 211.560872 
L 244.557806 214.53891 
L 244.280264 217.487899 
L 244.002723 220.372949 
L 243.725181 223.227768 
L 243.447639 226.12909 
L 243.170098 229.148605 
L 242.892556 232.304919 
L 242.615014 235.539775 
L 242.337473 238.731343 
L 242.059931 241.738947 
L 241.78239 244.458535 
L 241.504848 246.864162 
L 241.227306 249.018575 
L 240.949765 251.050195 
L 240.672223 253.107275 
L 240.394682 255.307656 
L 240.11714 257.702307 
L 239.839598 260.263652 
L 239.562057 262.899275 
L 239.284515 265.482669 
L 239.006974 267.889155 
L 238.729432 270.026827 
L 238.45189 271.856172 
L 238.174349 273.395094 
L 237.896807 274.708309 
L 237.619266 275.883501 
L 237.341724 277.001567 
L 237.064182 278.111967 
L 236.786641 279.222998 
L 236.509099 280.309844 
L 236.231558 281.334564 
L 235.954016 282.26728 
L 235.676474 283.099399 
L 235.398933 283.845583 
L 235.121391 284.53666 
L 234.84385 285.207997 
L 234.566308 285.88744 
L 234.288766 286.585959 
L 234.011225 287.293678 
L 233.733683 287.98319 
L 233.456142 288.619956 
L 233.1786 289.176015 
L 232.901058 289.64061 
L 232.623517 290.022131 
L 232.345975 290.340577 
L 232.068434 290.615502 
L 231.790892 290.856969 
L 231.51335 291.064334 
L 231.235809 291.232087 
L 230.958267 291.357762 
L 230.680726 291.446797 
L 230.403184 291.512278 
L 230.125642 291.570783 
L 229.848101 291.63702 
L 229.570559 291.719615 
L 229.293018 291.819357 
L 229.015476 291.930177 
L 228.737934 292.042276 
L 228.460393 292.146084 
L 228.182851 292.235429 
L 227.90531 292.308746 
L 227.627768 292.368141 
L 227.350226 292.417217 
L 227.072685 292.458968 
L 226.795143 292.494776 
L 226.517602 292.524638 
L 226.24006 292.5481 
L 225.962518 292.565112 
L 225.684977 292.576357 
L 225.407435 292.583049 
L 225.129894 292.586463 
L 224.852352 292.587441 
z
" style="fill-opacity:0.25;"/>
   </g>
   <g id="PolyCollection_5">
    <path clip-path="url(#p4cec42d259)" d="M 266.619844 292.58717 
L 266.619844 292.59 
L 266.806839 292.59 
L 266.993834 292.59 
L 267.180829 292.59 
L 267.367824 292.59 
L 267.554819 292.59 
L 267.741814 292.59 
L 267.928809 292.59 
L 268.115804 292.59 
L 268.302799 292.59 
L 268.489793 292.59 
L 268.676788 292.59 
L 268.863783 292.59 
L 269.050778 292.59 
L 269.237773 292.59 
L 269.424768 292.59 
L 269.611763 292.59 
L 269.798758 292.59 
L 269.985753 292.59 
L 270.172748 292.59 
L 270.359743 292.59 
L 270.546738 292.59 
L 270.733733 292.59 
L 270.920728 292.59 
L 271.107723 292.59 
L 271.294718 292.59 
L 271.481713 292.59 
L 271.668708 292.59 
L 271.855703 292.59 
L 272.042698 292.59 
L 272.229693 292.59 
L 272.416687 292.59 
L 272.603682 292.59 
L 272.790677 292.59 
L 272.977672 292.59 
L 273.164667 292.59 
L 273.351662 292.59 
L 273.538657 292.59 
L 273.725652 292.59 
L 273.912647 292.59 
L 274.099642 292.59 
L 274.286637 292.59 
L 274.473632 292.59 
L 274.660627 292.59 
L 274.847622 292.59 
L 275.034617 292.59 
L 275.221612 292.59 
L 275.408607 292.59 
L 275.595602 292.59 
L 275.782597 292.59 
L 275.969592 292.59 
L 276.156587 292.59 
L 276.343581 292.59 
L 276.530576 292.59 
L 276.717571 292.59 
L 276.904566 292.59 
L 277.091561 292.59 
L 277.278556 292.59 
L 277.465551 292.59 
L 277.652546 292.59 
L 277.839541 292.59 
L 278.026536 292.59 
L 278.213531 292.59 
L 278.400526 292.59 
L 278.587521 292.59 
L 278.774516 292.59 
L 278.961511 292.59 
L 279.148506 292.59 
L 279.335501 292.59 
L 279.522496 292.59 
L 279.709491 292.59 
L 279.896486 292.59 
L 280.083481 292.59 
L 280.270475 292.59 
L 280.45747 292.59 
L 280.644465 292.59 
L 280.83146 292.59 
L 281.018455 292.59 
L 281.20545 292.59 
L 281.392445 292.59 
L 281.57944 292.59 
L 281.766435 292.59 
L 281.95343 292.59 
L 282.140425 292.59 
L 282.32742 292.59 
L 282.514415 292.59 
L 282.70141 292.59 
L 282.888405 292.59 
L 283.0754 292.59 
L 283.262395 292.59 
L 283.44939 292.59 
L 283.636385 292.59 
L 283.82338 292.59 
L 284.010375 292.59 
L 284.197369 292.59 
L 284.384364 292.59 
L 284.571359 292.59 
L 284.758354 292.59 
L 284.945349 292.59 
L 285.132344 292.59 
L 285.319339 292.59 
L 285.506334 292.59 
L 285.693329 292.59 
L 285.880324 292.59 
L 286.067319 292.59 
L 286.254314 292.59 
L 286.441309 292.59 
L 286.628304 292.59 
L 286.815299 292.59 
L 287.002294 292.59 
L 287.189289 292.59 
L 287.376284 292.59 
L 287.563279 292.59 
L 287.750274 292.59 
L 287.937269 292.59 
L 288.124263 292.59 
L 288.311258 292.59 
L 288.498253 292.59 
L 288.685248 292.59 
L 288.872243 292.59 
L 289.059238 292.59 
L 289.246233 292.59 
L 289.433228 292.59 
L 289.620223 292.59 
L 289.807218 292.59 
L 289.994213 292.59 
L 290.181208 292.59 
L 290.368203 292.59 
L 290.368203 292.58717 
L 290.368203 292.58717 
L 290.181208 292.583569 
L 289.994213 292.574305 
L 289.807218 292.555989 
L 289.620223 292.525888 
L 289.433228 292.485102 
L 289.246233 292.441097 
L 289.059238 292.406657 
L 288.872243 292.394178 
L 288.685248 292.408405 
L 288.498253 292.443009 
L 288.311258 292.483368 
L 288.124263 292.512169 
L 287.937269 292.512156 
L 287.750274 292.463673 
L 287.563279 292.33979 
L 287.376284 292.103611 
L 287.189289 291.71046 
L 287.002294 291.115577 
L 286.815299 290.287919 
L 286.628304 289.228966 
L 286.441309 287.987331 
L 286.254314 286.652052 
L 286.067319 285.314848 
L 285.880324 284.016337 
L 285.693329 282.709347 
L 285.506334 281.262317 
L 285.319339 279.498058 
L 285.132344 277.246884 
L 284.945349 274.396517 
L 284.758354 270.927761 
L 284.571359 266.924357 
L 284.384364 262.545654 
L 284.197369 257.960978 
L 284.010375 253.26388 
L 283.82338 248.4061 
L 283.636385 243.201786 
L 283.44939 237.429155 
L 283.262395 230.990611 
L 283.0754 224.024083 
L 282.888405 216.863408 
L 282.70141 209.853655 
L 282.514415 203.159228 
L 282.32742 196.723181 
L 282.140425 190.401138 
L 281.95343 184.127581 
L 281.766435 177.94908 
L 281.57944 171.898689 
L 281.392445 165.838006 
L 281.20545 159.419639 
L 281.018455 152.226543 
L 280.83146 144.018379 
L 280.644465 134.942231 
L 280.45747 125.587371 
L 280.270475 116.861129 
L 280.083481 109.748504 
L 279.896486 105.029539 
L 279.709491 103.018587 
L 279.522496 103.431445 
L 279.335501 105.507721 
L 279.148506 108.383291 
L 278.961511 111.487495 
L 278.774516 114.688208 
L 278.587521 118.127603 
L 278.400526 121.954251 
L 278.213531 126.186822 
L 278.026536 130.757609 
L 277.839541 135.621612 
L 277.652546 140.818595 
L 277.465551 146.462611 
L 277.278556 152.683446 
L 277.091561 159.545942 
L 276.904566 166.980169 
L 276.717571 174.775243 
L 276.530576 182.672477 
L 276.343581 190.516084 
L 276.156587 198.343204 
L 275.969592 206.316259 
L 275.782597 214.53274 
L 275.595602 222.87055 
L 275.408607 231.004279 
L 275.221612 238.572404 
L 275.034617 245.349306 
L 274.847622 251.301302 
L 274.660627 256.528597 
L 274.473632 261.173729 
L 274.286637 265.357711 
L 274.099642 269.151157 
L 273.912647 272.566605 
L 273.725652 275.567627 
L 273.538657 278.097577 
L 273.351662 280.124071 
L 273.164667 281.681794 
L 272.977672 282.887096 
L 272.790677 283.90669 
L 272.603682 284.892011 
L 272.416687 285.918548 
L 272.229693 286.968238 
L 272.042698 287.962259 
L 271.855703 288.818229 
L 271.668708 289.495495 
L 271.481713 290.007649 
L 271.294718 290.405463 
L 271.107723 290.747424 
L 270.920728 291.074118 
L 270.733733 291.395539 
L 270.546738 291.694414 
L 270.359743 291.942963 
L 270.172748 292.123527 
L 269.985753 292.240132 
L 269.798758 292.314181 
L 269.611763 292.369488 
L 269.424768 292.418951 
L 269.237773 292.46144 
L 269.050778 292.48804 
L 268.863783 292.491153 
L 268.676788 292.470955 
L 268.489793 292.437209 
L 268.302799 292.406155 
L 268.115804 292.393438 
L 267.928809 292.406448 
L 267.741814 292.441046 
L 267.554819 292.485092 
L 267.367824 292.525886 
L 267.180829 292.555989 
L 266.993834 292.574305 
L 266.806839 292.583569 
L 266.619844 292.58717 
z
" style="fill:#1f78b4;fill-opacity:0.25;"/>
   </g>
   <g id="PolyCollection_6">
    <path clip-path="url(#p4cec42d259)" d="M 302.391098 292.588181 
L 302.391098 292.59 
L 302.713701 292.59 
L 303.036304 292.59 
L 303.358908 292.59 
L 303.681511 292.59 
L 304.004114 292.59 
L 304.326717 292.59 
L 304.64932 292.59 
L 304.971923 292.59 
L 305.294527 292.59 
L 305.61713 292.59 
L 305.939733 292.59 
L 306.262336 292.59 
L 306.584939 292.59 
L 306.907542 292.59 
L 307.230146 292.59 
L 307.552749 292.59 
L 307.875352 292.59 
L 308.197955 292.59 
L 308.520558 292.59 
L 308.843161 292.59 
L 309.165764 292.59 
L 309.488368 292.59 
L 309.810971 292.59 
L 310.133574 292.59 
L 310.456177 292.59 
L 310.77878 292.59 
L 311.101383 292.59 
L 311.423987 292.59 
L 311.74659 292.59 
L 312.069193 292.59 
L 312.391796 292.59 
L 312.714399 292.59 
L 313.037002 292.59 
L 313.359606 292.59 
L 313.682209 292.59 
L 314.004812 292.59 
L 314.327415 292.59 
L 314.650018 292.59 
L 314.972621 292.59 
L 315.295224 292.59 
L 315.617828 292.59 
L 315.940431 292.59 
L 316.263034 292.59 
L 316.585637 292.59 
L 316.90824 292.59 
L 317.230843 292.59 
L 317.553447 292.59 
L 317.87605 292.59 
L 318.198653 292.59 
L 318.521256 292.59 
L 318.843859 292.59 
L 319.166462 292.59 
L 319.489066 292.59 
L 319.811669 292.59 
L 320.134272 292.59 
L 320.456875 292.59 
L 320.779478 292.59 
L 321.102081 292.59 
L 321.424684 292.59 
L 321.747288 292.59 
L 322.069891 292.59 
L 322.392494 292.59 
L 322.715097 292.59 
L 323.0377 292.59 
L 323.360303 292.59 
L 323.682907 292.59 
L 324.00551 292.59 
L 324.328113 292.59 
L 324.650716 292.59 
L 324.973319 292.59 
L 325.295922 292.59 
L 325.618526 292.59 
L 325.941129 292.59 
L 326.263732 292.59 
L 326.586335 292.59 
L 326.908938 292.59 
L 327.231541 292.59 
L 327.554144 292.59 
L 327.876748 292.59 
L 328.199351 292.59 
L 328.521954 292.59 
L 328.844557 292.59 
L 329.16716 292.59 
L 329.489763 292.59 
L 329.812367 292.59 
L 330.13497 292.59 
L 330.457573 292.59 
L 330.780176 292.59 
L 331.102779 292.59 
L 331.425382 292.59 
L 331.747986 292.59 
L 332.070589 292.59 
L 332.393192 292.59 
L 332.715795 292.59 
L 333.038398 292.59 
L 333.361001 292.59 
L 333.683604 292.59 
L 334.006208 292.59 
L 334.328811 292.59 
L 334.651414 292.59 
L 334.974017 292.59 
L 335.29662 292.59 
L 335.619223 292.59 
L 335.941827 292.59 
L 336.26443 292.59 
L 336.587033 292.59 
L 336.909636 292.59 
L 337.232239 292.59 
L 337.554842 292.59 
L 337.877446 292.59 
L 338.200049 292.59 
L 338.522652 292.59 
L 338.845255 292.59 
L 339.167858 292.59 
L 339.490461 292.59 
L 339.813064 292.59 
L 340.135668 292.59 
L 340.458271 292.59 
L 340.780874 292.59 
L 341.103477 292.59 
L 341.42608 292.59 
L 341.748683 292.59 
L 342.071287 292.59 
L 342.39389 292.59 
L 342.716493 292.59 
L 343.039096 292.59 
L 343.361699 292.59 
L 343.361699 292.58825 
L 343.361699 292.58825 
L 343.039096 292.586499 
L 342.716493 292.582158 
L 342.39389 292.573876 
L 342.071287 292.560362 
L 341.748683 292.541328 
L 341.42608 292.518209 
L 341.103477 292.493769 
L 340.780874 292.470127 
L 340.458271 292.446024 
L 340.135668 292.415602 
L 339.813064 292.370743 
L 339.490461 292.306689 
L 339.167858 292.227481 
L 338.845255 292.14662 
L 338.522652 292.080929 
L 338.200049 292.040343 
L 337.877446 292.019446 
L 337.554842 291.995561 
L 337.232239 291.934414 
L 336.909636 291.801381 
L 336.587033 291.575056 
L 336.26443 291.258866 
L 335.941827 290.884921 
L 335.619223 290.504929 
L 335.29662 290.16839 
L 334.974017 289.896694 
L 334.651414 289.666854 
L 334.328811 289.415211 
L 334.006208 289.060363 
L 333.683604 288.533371 
L 333.361001 287.800226 
L 333.038398 286.868447 
L 332.715795 285.779344 
L 332.393192 284.591427 
L 332.070589 283.358268 
L 331.747986 282.103519 
L 331.425382 280.801537 
L 331.102779 279.377437 
L 330.780176 277.734482 
L 330.457573 275.798662 
L 330.13497 273.554367 
L 329.812367 271.047653 
L 329.489763 268.355536 
L 329.16716 265.543308 
L 328.844557 262.63652 
L 328.521954 259.617062 
L 328.199351 256.432526 
L 327.876748 253.006476 
L 327.554144 249.254284 
L 327.231541 245.120119 
L 326.908938 240.633633 
L 326.586335 235.951865 
L 326.263732 231.341191 
L 325.941129 227.088235 
L 325.618526 223.383473 
L 325.295922 220.24838 
L 324.973319 217.551361 
L 324.650716 215.098818 
L 324.328113 212.739321 
L 324.00551 210.415164 
L 323.682907 208.139133 
L 323.360303 205.932249 
L 323.0377 203.783679 
L 322.715097 201.665881 
L 322.392494 199.584801 
L 322.069891 197.617334 
L 321.747288 195.906501 
L 321.424684 194.622046 
L 321.102081 193.9125 
L 320.779478 193.867194 
L 320.456875 194.493806 
L 320.134272 195.715582 
L 319.811669 197.395698 
L 319.489066 199.388649 
L 319.166462 201.597734 
L 318.843859 204.003117 
L 318.521256 206.638588 
L 318.198653 209.534307 
L 317.87605 212.673559 
L 317.553447 216.000444 
L 317.230843 219.468827 
L 316.90824 223.085303 
L 316.585637 226.906365 
L 316.263034 230.991699 
L 315.940431 235.349911 
L 315.617828 239.912433 
L 315.295224 244.545204 
L 314.972621 249.083782 
L 314.650018 253.372454 
L 314.327415 257.296673 
L 314.004812 260.805663 
L 313.682209 263.920619 
L 313.359606 266.720729 
L 313.037002 269.305834 
L 312.714399 271.750787 
L 312.391796 274.077058 
L 312.069193 276.258243 
L 311.74659 278.252765 
L 311.423987 280.038824 
L 311.101383 281.628603 
L 310.77878 283.057362 
L 310.456177 284.361487 
L 310.133574 285.563577 
L 309.810971 286.67191 
L 309.488368 287.688032 
L 309.165764 288.611743 
L 308.843161 289.439303 
L 308.520558 290.159844 
L 308.197955 290.757425 
L 307.875352 291.220359 
L 307.552749 291.551706 
L 307.230146 291.772807 
L 306.907542 291.916912 
L 306.584939 292.01747 
L 306.262336 292.098733 
L 305.939733 292.173248 
L 305.61713 292.245015 
L 305.294527 292.313971 
L 304.971923 292.378674 
L 304.64932 292.437039 
L 304.326717 292.486654 
L 304.004114 292.525586 
L 303.681511 292.553322 
L 303.358908 292.571056 
L 303.036304 292.581148 
L 302.713701 292.586181 
L 302.391098 292.588181 
z
" style="fill:#33a02c;fill-opacity:0.25;"/>
   </g>
   <g id="line2d_12">
    <path clip-path="url(#p4cec42d259)" d="M 460.376824 292.585783 
L 460.88427 292.49676 
L 461.391717 292.152111 
L 461.772302 291.697863 
L 462.40661 290.37609 
L 462.660333 289.344261 
L 463.040918 285.995951 
L 463.548365 279.519446 
L 463.92895 271.121123 
L 464.436397 253.094603 
L 464.943843 224.06184 
L 465.958737 150.535029 
L 466.846768 63.461056 
L 467.354215 44.3948 
L 468.115385 20.79 
L 468.242246 21.772418 
L 468.49597 31.633029 
L 469.003416 68.361613 
L 471.033203 231.077733 
L 471.54065 255.190408 
L 472.174958 273.178094 
L 472.809266 284.215138 
L 473.316713 289.689518 
L 473.570436 290.704145 
L 473.824159 290.894959 
L 474.077883 291.021316 
L 474.458468 291.721508 
L 474.839053 292.317966 
L 475.092776 292.377715 
L 475.600223 292.330943 
L 476.488254 292.585796 
L 476.488254 292.585796 
" style="fill:none;stroke:#ff7f00;stroke-linecap:round;stroke-width:2;"/>
   </g>
   <g id="line2d_13">
    <path clip-path="url(#p4cec42d259)" d="M 289.781179 292.586674 
L 290.567914 292.491292 
L 291.157965 292.1483 
L 291.748016 291.538385 
L 292.141384 290.837567 
L 292.731435 289.215416 
L 293.124802 287.423055 
L 293.51817 283.882896 
L 294.108221 275.015576 
L 294.894956 258.729568 
L 295.878375 234.161738 
L 296.468426 210.500754 
L 297.648528 158.485749 
L 298.238579 142.073647 
L 298.82863 125.615405 
L 299.418682 109.053988 
L 299.812049 103.003845 
L 300.008733 102.063848 
L 300.205416 102.929217 
L 300.4021 105.931883 
L 300.795468 118.237617 
L 303.352356 222.565949 
L 304.139091 244.517641 
L 305.122509 265.365555 
L 305.712561 273.878715 
L 306.499296 280.221161 
L 307.482714 287.277054 
L 308.072765 289.886434 
L 308.466133 290.632111 
L 309.646235 291.429152 
L 310.629654 292.046991 
L 311.219705 292.47242 
L 311.809756 292.579069 
L 312.596491 292.50721 
L 313.383226 292.405405 
L 314.760012 292.586853 
L 314.760012 292.586853 
" style="fill:none;stroke:#0000ff;stroke-linecap:round;stroke-width:2;"/>
   </g>
   <g id="line2d_14">
    <path clip-path="url(#p4cec42d259)" d="M 70.670072 292.588067 
L 74.83639 292.467672 
L 75.797847 292.125348 
L 77.720763 291.190222 
L 78.361735 290.42493 
L 79.002707 289.14937 
L 79.643679 287.297425 
L 80.605136 283.536031 
L 82.207566 276.453761 
L 82.848538 272.539704 
L 83.48951 267.258083 
L 84.450968 256.832929 
L 86.373883 231.896117 
L 87.335341 214.837283 
L 88.937771 186.962931 
L 89.578743 178.941963 
L 89.899228 177.289444 
L 90.219714 177.291819 
L 91.822144 182.214495 
L 92.14263 183.816224 
L 92.783602 188.775252 
L 93.424574 195.543081 
L 94.065546 204.490886 
L 95.027003 222.102439 
L 95.988461 240.583497 
L 96.629433 249.719152 
L 98.552349 270.90931 
L 99.193321 276.616349 
L 100.154778 282.782979 
L 100.79575 285.863642 
L 101.436722 287.999642 
L 102.077694 289.354649 
L 103.039152 290.819776 
L 103.680124 291.577915 
L 104.321095 292.038587 
L 105.282553 292.414247 
L 106.244011 292.567709 
L 107.846441 292.545953 
L 109.44887 292.487679 
L 111.371786 292.588067 
L 111.371786 292.588067 
" style="fill:none;stroke:#e31a1c;stroke-linecap:round;stroke-width:2;"/>
   </g>
   <g id="line2d_15">
    <path clip-path="url(#p4cec42d259)" d="M 224.852352 292.587441 
L 226.795143 292.494776 
L 228.182851 292.235429 
L 231.51335 291.064334 
L 232.345975 290.340577 
L 232.901058 289.64061 
L 233.456142 288.619956 
L 235.121391 284.53666 
L 235.954016 282.26728 
L 236.786641 279.222998 
L 238.174349 273.395094 
L 238.729432 270.026827 
L 239.562057 262.899275 
L 240.672223 253.107275 
L 241.78239 244.458535 
L 242.615014 235.539775 
L 244.002723 220.372949 
L 245.667972 203.520015 
L 246.223055 199.774152 
L 246.778139 197.187346 
L 247.610763 194.505899 
L 248.165847 193.471728 
L 249.276013 191.987072 
L 249.553555 191.859443 
L 249.831096 192.148093 
L 250.108638 193.027224 
L 250.386179 194.591558 
L 250.941263 199.730476 
L 251.496346 207.090396 
L 252.328971 221.345883 
L 253.716679 250.549077 
L 254.549303 266.650095 
L 255.104387 274.542813 
L 255.65947 280.283199 
L 256.492095 286.280305 
L 257.047178 289.000938 
L 257.602261 290.823634 
L 258.157344 291.875045 
L 258.712427 292.363294 
L 259.267511 292.535679 
L 260.100135 292.585904 
L 260.100135 292.585904 
" style="fill:none;stroke:#000000;stroke-linecap:round;stroke-width:2;"/>
   </g>
   <g id="line2d_16">
    <path clip-path="url(#p4cec42d259)" d="M 266.619844 292.58717 
L 267.554819 292.485092 
L 268.302799 292.406155 
L 269.237773 292.46144 
L 269.985753 292.240132 
L 270.359743 291.942963 
L 270.920728 291.074118 
L 271.481713 290.007649 
L 271.855703 288.818229 
L 272.603682 284.892011 
L 273.164667 281.681794 
L 273.538657 278.097577 
L 274.099642 269.151157 
L 274.660627 256.528597 
L 275.221612 238.572404 
L 277.839541 135.621612 
L 278.587521 118.127603 
L 279.335501 105.507721 
L 279.522496 103.431445 
L 279.709491 103.018587 
L 279.896486 105.029539 
L 280.270475 116.861129 
L 281.392445 165.838006 
L 282.888405 216.863408 
L 283.636385 243.201786 
L 284.571359 266.924357 
L 285.132344 277.246884 
L 285.693329 282.709347 
L 287.002294 291.115577 
L 287.376284 292.103611 
L 287.750274 292.463673 
L 288.124263 292.512169 
L 289.246233 292.441097 
L 290.181208 292.583569 
L 290.368203 292.58717 
L 290.368203 292.58717 
" style="fill:none;stroke:#1f78b4;stroke-linecap:round;stroke-width:2;"/>
   </g>
   <g id="line2d_17">
    <path clip-path="url(#p4cec42d259)" d="M 302.391098 292.588181 
L 304.326717 292.486654 
L 306.262336 292.098733 
L 307.230146 291.772807 
L 307.875352 291.220359 
L 308.520558 290.159844 
L 309.165764 288.611743 
L 310.133574 285.563577 
L 311.101383 281.628603 
L 311.74659 278.252765 
L 312.714399 271.750787 
L 313.682209 263.920619 
L 314.327415 257.296673 
L 315.295224 244.545204 
L 316.585637 226.906365 
L 317.87605 212.673559 
L 318.843859 204.003117 
L 319.811669 197.395698 
L 320.456875 194.493806 
L 320.779478 193.867194 
L 321.102081 193.9125 
L 321.424684 194.622046 
L 322.069891 197.617334 
L 323.682907 208.139133 
L 325.295922 220.24838 
L 325.941129 227.088235 
L 328.199351 256.432526 
L 329.489763 268.355536 
L 330.457573 275.798662 
L 331.102779 279.377437 
L 332.393192 284.591427 
L 333.361001 287.800226 
L 334.006208 289.060363 
L 334.651414 289.666854 
L 335.29662 290.16839 
L 336.909636 291.801381 
L 337.554842 291.995561 
L 338.845255 292.14662 
L 340.458271 292.446024 
L 343.361699 292.58825 
L 343.361699 292.58825 
" style="fill:none;stroke:#33a02c;stroke-linecap:round;stroke-width:2;"/>
   </g>
   <g id="line2d_18">
    <path clip-path="url(#p4cec42d259)" d="M 321.340646 306.18 
L 321.340646 7.2 
" style="fill:none;stroke:#33a02c;stroke-dasharray:8.4,3.6;stroke-dashoffset:0;stroke-width:3;"/>
   </g>
   <g id="patch_3">
    <path d="M 50.379163 306.18 
L 50.379163 7.2 
" style="fill:none;"/>
   </g>
   <g id="patch_4">
    <path d="M 496.779163 306.18 
L 496.779163 7.2 
" style="fill:none;"/>
   </g>
   <g id="patch_5">
    <path d="M 50.379163 306.18 
L 496.779163 306.18 
" style="fill:none;"/>
   </g>
   <g id="patch_6">
    <path d="M 50.379163 7.2 
L 496.779163 7.2 
" style="fill:none;"/>
   </g>
   <g id="legend_1">
    <g id="line2d_19">
     <path d="M 62.979163 24.7 
L 90.979163 24.7 
" style="fill:none;stroke:#ff7f00;stroke-linecap:round;stroke-width:2;"/>
    </g>
    <g id="line2d_20"/>
    <g id="text_14">
     <!-- log-Additive -->
     <defs>
      <path d="M 35.40625 11.984375 
L 35.5 11.984375 
L 35.5 2.65625 
C 35.5 -0.15625 35.5 -2.859375 34.59375 -5.5625 
C 33.09375 -9.1875 30.5 -12.5 26.203125 -13.09375 
C 25 -13.203125 23.703125 -13.09375 22.5 -13 
C 16 -13 11.703125 -11.046875 6.5 -8.671875 
L 6.5 -12.484375 
C 6.5 -14.40625 6.796875 -14.5 8.703125 -15.109375 
C 13.796875 -17.21875 23 -19.3125 29.296875 -17.71875 
C 36.296875 -15.90625 41.40625 -9.28125 41.90625 -1.21875 
C 42 0.1875 41.90625 1.703125 41.90625 3.125 
L 41.90625 48 
L 35.59375 48 
L 35.59375 39.984375 
C 34.09375 42.484375 32.5 44.796875 29.90625 46.40625 
C 22.90625 50.625 13.40625 46 9.5 40.578125 
C 3.09375 32.640625 1.90625 20.34375 7 11.484375 
C 8 9.78125 9.203125 8.171875 10.59375 6.765625 
C 15.40625 2.046875 23.59375 -0.46875 29.5 3.75 
C 31.90625 5.359375 34.703125 9.078125 35.40625 11.984375 
M 25.5 43 
C 26.40625 43 27.40625 43 28.296875 42.796875 
C 31.90625 42.09375 33.90625 38.875 35.09375 35.65625 
C 35.796875 33.453125 35.59375 31.046875 35.59375 28.734375 
C 35.59375 23.71875 35.5 18.5 33.796875 13.765625 
C 32.59375 10.265625 30.09375 7.140625 26.203125 6.75 
C 24.90625 6.640625 23.59375 6.84375 22.296875 7.140625 
C 16.203125 8.546875 12 13.765625 10.703125 19.796875 
C 8.90625 28.53125 13.203125 39.171875 22 42.1875 
C 23.09375 42.59375 24.296875 42.890625 25.5 43 
" id="Computer_Modern_Bright-103"/>
      <path d="M 0.40625 26.015625 
L 0.40625 21 
L 28.296875 21 
L 28.296875 26.015625 
z
" id="Computer_Modern_Bright-45"/>
      <path d="M 2.09375 0.09375 
L 6.59375 0.09375 
L 8.40625 0.296875 
C 11.40625 6.796875 13.5 14.203125 16.203125 21 
C 26.09375 21 36.90625 21 46.296875 21 
L 47.09375 19.6875 
C 48.796875 14.546875 50.796875 9.59375 52.59375 4.546875 
C 53.09375 3.015625 53.59375 1.515625 54.40625 0.296875 
C 56.59375 0 59.203125 0 61.59375 0 
C 59.90625 4.90625 36.703125 67.203125 36 68.890625 
C 35.90625 69.296875 35.703125 69.890625 35.203125 70 
C 34.59375 70.09375 34 70 33.40625 70 
L 30.09375 70 
C 28.59375 70 28 70.1875 27.59375 68.609375 
C 27.203125 67.59375 2.09375 0.09375 2.09375 0.09375 
M 31.40625 63.171875 
C 35.59375 50.71875 40.09375 38.46875 44.5 26.21875 
L 18.203125 26.21875 
L 26.90625 50.109375 
z
" id="Computer_Modern_Bright-65"/>
      <path d="M 35.59375 69.6875 
L 35.59375 41.375 
C 33.703125 43.484375 31.796875 45.484375 29.203125 46.6875 
C 20.296875 50.40625 11.703125 45.59375 7.296875 37.65625 
C 2.203125 28.21875 2.796875 15.765625 8.90625 6.921875 
C 13.203125 0.796875 20.296875 -2.203125 27.796875 0.5 
C 30.703125 1.609375 34.203125 4.515625 35.40625 7.125 
L 35.5 7.125 
L 35.5 0 
L 41.90625 0 
L 41.90625 69.6875 
z
M 35.203125 37.453125 
C 35.703125 36.546875 35.5 35.34375 35.5 34.34375 
L 35.5 13.65625 
C 35.5 11.34375 35.40625 11.140625 34.09375 9.34375 
C 32.296875 6.625 29.5 4.71875 26.203125 4.421875 
C 21.40625 4.015625 16.5 6.328125 13.703125 10.25 
C 12.09375 12.546875 11.203125 15.359375 10.703125 18.171875 
C 10.5 19.28125 10.5 20.28125 10.40625 21.390625 
C 9.796875 28.015625 11.203125 35.84375 17 40.0625 
C 18 40.765625 19.09375 41.265625 20.203125 41.765625 
C 26 43.984375 32.40625 43.375 35.203125 37.453125 
" id="Computer_Modern_Bright-100"/>
     </defs>
     <g style="fill:#262626;" transform="translate(102.179163 29.6)scale(0.14 -0.14)">
      <use transform="scale(0.996264)" xlink:href="#Computer_Modern_Bright-108"/>
      <use transform="translate(19.094959 0)scale(0.996264)" xlink:href="#Computer_Modern_Bright-111"/>
      <use transform="translate(69.738177 0)scale(0.996264)" xlink:href="#Computer_Modern_Bright-103"/>
      <use transform="translate(117.890674 0)scale(0.996264)" xlink:href="#Computer_Modern_Bright-45"/>
      <use transform="translate(151.099347 0)scale(0.996264)" xlink:href="#Computer_Modern_Bright-65"/>
      <use transform="translate(214.610965 0)scale(0.996264)" xlink:href="#Computer_Modern_Bright-100"/>
      <use transform="translate(262.763462 0)scale(0.996264)" xlink:href="#Computer_Modern_Bright-100"/>
      <use transform="translate(310.915959 0)scale(0.996264)" xlink:href="#Computer_Modern_Bright-105"/>
      <use transform="translate(330.010918 0)scale(0.996264)" xlink:href="#Computer_Modern_Bright-116"/>
      <use transform="translate(366.125306 0)scale(0.996264)" xlink:href="#Computer_Modern_Bright-105"/>
      <use transform="translate(385.220265 0)scale(0.996264)" xlink:href="#Computer_Modern_Bright-118"/>
      <use transform="translate(427.561303 0)scale(0.996264)" xlink:href="#Computer_Modern_Bright-101"/>
     </g>
    </g>
    <g id="line2d_21">
     <path d="M 62.979163 43.824611 
L 90.979163 43.824611 
" style="fill:none;stroke:#0000ff;stroke-linecap:round;stroke-width:2;"/>
    </g>
    <g id="line2d_22"/>
    <g id="text_15">
     <!-- \emph{rhy-1} $&gt;$ \emph{vhl-1} -->
     <defs>
      <path d="M 19.90625 35.53125 
L 19.796875 35.53125 
L 22.40625 48.15625 
L 16.40625 48.15625 
L 6.40625 0.5 
L 10.90625 0.5 
C 11.40625 0.5 12.203125 0.296875 12.59375 0.703125 
C 12.90625 0.90625 13.5 4.4375 13.796875 5.65625 
L 16.703125 19.578125 
C 17.5 23.109375 18 26.859375 19.59375 30.1875 
C 23.40625 37.84375 31.90625 43 40.40625 43 
L 41.5 48.765625 
C 34.90625 48.765625 28.59375 45.421875 24 40.78125 
C 22.5 39.265625 20.90625 37.453125 19.90625 35.53125 
M 19.703125 34.953125 
C 19.703125 34.953125 19.796875 34.953125 19.796875 34.953125 
C 19.796875 34.859375 19.703125 34.75 19.703125 34.953125 
" id="Computer_Modern_Bright_Slanted-114"/>
      <path d="M 21.09375 70 
L 6.40625 0 
L 10.90625 0 
C 11.796875 0 13 -0.296875 13 1.015625 
C 13.203125 1.71875 13.296875 2.328125 13.40625 3.03125 
C 14.40625 7.78125 19 29.5 19.296875 30.40625 
C 20.40625 33.953125 22.40625 37.375 25.09375 39.90625 
C 28 42.4375 31.203125 43.84375 36.59375 42.9375 
C 38.796875 42.53125 40.90625 41.625 42 39.5 
C 43.5 36.46875 42.40625 32.9375 41.796875 29.90625 
L 35.5 0 
L 40.203125 0 
C 41.203125 0 42.09375 -0.203125 42.09375 1.109375 
C 42.703125 3.125 44.09375 10.625 44.09375 10.625 
L 48.59375 32 
C 49.40625 35.734375 50.296875 40.40625 48.203125 43.9375 
C 46.296875 46.984375 42.90625 48 39.59375 48.296875 
C 38.09375 48.296875 36.5 48.296875 35 48 
C 30.796875 47.3125 27.09375 45.09375 24.09375 42.09375 
C 22.90625 40.890625 21.5 39.59375 20.796875 37.984375 
L 20.703125 37.984375 
L 27.40625 70 
z
" id="Computer_Modern_Bright_Slanted-104"/>
      <path d="M 10.703125 48 
C 11.203125 44.265625 12 40.625 12.703125 36.890625 
C 13.09375 34.359375 19 0.8125 19 0.515625 
C 19 -0.09375 18.59375 -0.59375 18.296875 -1.109375 
L 16.59375 -4.140625 
C 14.703125 -7.265625 12.796875 -10.5 9 -11.8125 
C 6 -12.71875 0.5 -11.40625 -1.5 -10.796875 
C -1.796875 -12.625 -2 -14.53125 -2.203125 -16.453125 
C 0.5 -16.859375 5.40625 -17.46875 8.09375 -16.96875 
C 15.203125 -15.34375 19.203125 -8.671875 22.5 -3.21875 
L 44.09375 34.359375 
L 49.203125 43.359375 
C 50.09375 44.859375 51.203125 46.375 51.796875 48 
C 49.703125 48 47.40625 48 45.59375 47.703125 
C 43.203125 44.078125 41.203125 40.046875 38.90625 36.21875 
C 33.59375 26.4375 27.703125 17.359375 23.203125 6.78125 
L 23.09375 6.78125 
C 23.40625 8.390625 23.09375 10.109375 22.90625 11.734375 
C 21.796875 22.546875 18.59375 39.71875 17.09375 48 
z
" id="Computer_Modern_Bright_Slanted-121"/>
      <path d="M 5.90625 26.0625 
L 4.90625 21 
L 32.796875 21 
L 33.796875 26.0625 
z
" id="Computer_Modern_Bright_Slanted-45"/>
      <path d="M 22.5 61 
L 21.5 55.9375 
C 26.296875 55.9375 31.40625 56.546875 35.703125 58.875 
L 24.5 5.046875 
C 20.296875 5.046875 15.296875 5.5625 11.5 5.046875 
C 10.90625 3.578125 10.703125 1.671875 10.296875 0 
C 21.09375 0 32.59375 0 42.796875 0 
C 43.40625 1.453125 43.703125 3.296875 44.09375 5.046875 
L 31 5.046875 
C 35.203125 26.0625 39.796875 46.59375 44.09375 67.5 
C 41.703125 67.5 42 67.09375 40 65.59375 
C 35.59375 62.59375 28.90625 61 22.5 61 
" id="Computer_Modern_Bright_Slanted-49"/>
      <path d="M 62.59375 26.546875 
L 62.59375 26.34375 
C 60.296875 25.546875 58 24.25 55.796875 23.140625 
L 27.09375 9.625 
L 11.09375 2 
C 10.40625 1.703125 9.40625 1.296875 8.90625 0.796875 
C 8 -0.203125 8.203125 -1.703125 9.296875 -2.296875 
C 10.5 -3 11.703125 -2.109375 12.796875 -1.609375 
L 21 2.203125 
C 25.203125 4.3125 55 18.328125 55 18.328125 
L 66 23.546875 
C 67.296875 24.140625 69.40625 24.75 69.40625 26.453125 
C 69.40625 28.15625 67.296875 28.75 66 29.359375 
L 55 34.5625 
L 33.703125 44.6875 
C 29.5 46.6875 25.203125 48.59375 21 50.703125 
L 12.796875 54.5 
C 11.703125 55 10.5 55.90625 9.296875 55.203125 
C 8.203125 54.609375 8 53.09375 8.90625 52.09375 
C 9.40625 51.59375 10.40625 51.203125 11.09375 50.890625 
L 41.59375 36.46875 
L 55.796875 29.75 
C 58 28.65625 60.296875 27.359375 62.59375 26.546875 
" id="Computer_Modern_Bright_Math_Slanted-62"/>
      <path d="M 10.703125 48 
C 12.796875 33.046875 15.09375 18.171875 17.09375 3.125 
C 17.296875 2.109375 17.296875 0.90625 17.796875 0.203125 
C 19.90625 0 22.59375 0 24.703125 0 
L 25.296875 0.703125 
L 44.703125 35.109375 
L 51.796875 48 
C 49.703125 48 47.5 48 45.703125 47.703125 
C 44.90625 46.59375 44.296875 45.484375 43.59375 44.265625 
C 36.59375 31.84375 29.40625 19.515625 22.703125 6.6875 
C 21.59375 16.984375 20 26.6875 18.59375 36.6875 
C 18 40.328125 17.90625 44.46875 16.90625 47.703125 
C 15.09375 48 12.796875 48 10.703125 48 
" id="Computer_Modern_Bright_Slanted-118"/>
      <path d="M 21.09375 70 
L 6.40625 0 
C 8.5 0 10.796875 0 12.59375 0.296875 
L 13 1.40625 
C 14 6.4375 15.09375 11.375 16.203125 16.40625 
L 27.40625 70 
z
" id="Computer_Modern_Bright_Slanted-108"/>
     </defs>
     <g style="fill:#262626;" transform="translate(102.179163 48.724611)scale(0.14 -0.14)">
      <use transform="scale(0.996264)" xlink:href="#Computer_Modern_Bright_Slanted-114"/>
      <use transform="translate(31.963359 0)scale(0.996264)" xlink:href="#Computer_Modern_Bright_Slanted-104"/>
      <use transform="translate(80.115856 0)scale(0.996264)" xlink:href="#Computer_Modern_Bright_Slanted-121"/>
      <use transform="translate(122.456894 0)scale(0.996264)" xlink:href="#Computer_Modern_Bright_Slanted-45"/>
      <use transform="translate(155.665567 0)scale(0.996264)" xlink:href="#Computer_Modern_Bright_Slanted-49"/>
      <use transform="translate(248.750337 0)scale(0.996264)" xlink:href="#Computer_Modern_Bright_Math_Slanted-62"/>
      <use transform="translate(357.703017 0)scale(0.996264)" xlink:href="#Computer_Modern_Bright_Slanted-118"/>
      <use transform="translate(400.044055 0)scale(0.996264)" xlink:href="#Computer_Modern_Bright_Slanted-104"/>
      <use transform="translate(448.196552 0)scale(0.996264)" xlink:href="#Computer_Modern_Bright_Slanted-108"/>
      <use transform="translate(467.291511 0)scale(0.996264)" xlink:href="#Computer_Modern_Bright_Slanted-45"/>
      <use transform="translate(500.500184 0)scale(0.996264)" xlink:href="#Computer_Modern_Bright_Slanted-49"/>
     </g>
    </g>
    <g id="line2d_23">
     <path d="M 62.979163 62.949222 
L 90.979163 62.949222 
" style="fill:none;stroke:#e31a1c;stroke-linecap:round;stroke-width:2;"/>
    </g>
    <g id="line2d_24"/>
    <g id="text_16">
     <!-- Suppression -->
     <defs>
      <path d="M 5.09375 13.015625 
C 4.90625 11.390625 4.5 9.671875 4.296875 8.046875 
C 4.09375 6.53125 3.59375 6.109375 4.90625 5.3125 
C 8.296875 3.390625 11.203125 2.0625 15.40625 0.75 
C 24.796875 -2 35.59375 -2 43.796875 4.140625 
C 45.09375 5.140625 46.296875 6.234375 47.40625 7.53125 
C 49.90625 10.890625 52.203125 14.96875 51.59375 20.53125 
C 50.90625 27.671875 46.09375 33.625 39.59375 36.609375 
C 30.703125 40.578125 16.203125 40.578125 12.203125 49.375 
C 9.09375 56.1875 14.59375 62.171875 20.796875 64.375 
C 26.90625 66.6875 34.90625 65.78125 40.09375 63.375 
C 42.5 62.265625 44.5 60.65625 46.703125 59.25 
C 46.90625 60.96875 47.296875 62.578125 47.59375 64.28125 
C 47.796875 65.375 48.09375 66.390625 46.90625 66.78125 
L 45 67.796875 
C 42.296875 69 39.5 69.90625 36.59375 70.5 
C 27.59375 72.203125 17.203125 71.203125 10.40625 64.484375 
C 7 61.0625 4.09375 56.4375 5.296875 49.515625 
C 6.703125 42.390625 12.296875 37.875 18.09375 35.65625 
C 21.5 34.359375 25.296875 33.65625 28.90625 32.75 
C 31 32.34375 33.203125 31.84375 35.296875 31.140625 
C 40.703125 29.125 45.40625 25.109375 45.40625 17.6875 
C 44.796875 11.296875 39.203125 6.625 33.296875 5.203125 
C 25.703125 3.265625 16.703125 6.015625 11.5 8.75 
C 9.203125 9.96875 7.203125 11.59375 5.09375 13.015625 
" id="Computer_Modern_Bright-83"/>
      <path d="M 12.5 34.75 
L 12.40625 34.75 
L 12.40625 47.390625 
L 6.40625 47.390625 
L 6.40625 0 
L 12.703125 0 
L 12.703125 22.890625 
C 12.703125 24.40625 12.703125 25.90625 12.90625 27.40625 
C 14.296875 35.953125 21.703125 42.28125 31.40625 42.28125 
L 31.40625 48 
C 25 48 19.09375 44.890625 15.296875 39.765625 
C 14.203125 38.265625 13 36.546875 12.5 34.75 
" id="Computer_Modern_Bright-114"/>
     </defs>
     <g style="fill:#262626;" transform="translate(102.179163 67.849222)scale(0.14 -0.14)">
      <use transform="scale(0.996264)" xlink:href="#Computer_Modern_Bright-83"/>
      <use transform="translate(56.454753 0)scale(0.996264)" xlink:href="#Computer_Modern_Bright-117"/>
      <use transform="translate(104.60725 0)scale(0.996264)" xlink:href="#Computer_Modern_Bright-112"/>
      <use transform="translate(152.759747 0)scale(0.996264)" xlink:href="#Computer_Modern_Bright-112"/>
      <use transform="translate(198.006514 0)scale(0.996264)" xlink:href="#Computer_Modern_Bright-114"/>
      <use transform="translate(229.969873 0)scale(0.996264)" xlink:href="#Computer_Modern_Bright-101"/>
      <use transform="translate(274.801541 0)scale(0.996264)" xlink:href="#Computer_Modern_Bright-115"/>
      <use transform="translate(313.24057 0)scale(0.996264)" xlink:href="#Computer_Modern_Bright-115"/>
      <use transform="translate(351.679599 0)scale(0.996264)" xlink:href="#Computer_Modern_Bright-105"/>
      <use transform="translate(370.774558 0)scale(0.996264)" xlink:href="#Computer_Modern_Bright-111"/>
      <use transform="translate(421.417776 0)scale(0.996264)" xlink:href="#Computer_Modern_Bright-110"/>
     </g>
    </g>
    <g id="line2d_25">
     <path d="M 62.979163 82.073833 
L 90.979163 82.073833 
" style="fill:none;stroke:#000000;stroke-linecap:round;stroke-width:2;"/>
    </g>
    <g id="line2d_26"/>
    <g id="text_17">
     <!-- \emph{vhl-1} $&gt;$ \emph{rhy-1} -->
     <g style="fill:#262626;" transform="translate(102.179163 86.973833)scale(0.14 -0.14)">
      <use transform="scale(0.996264)" xlink:href="#Computer_Modern_Bright_Slanted-118"/>
      <use transform="translate(42.341038 0)scale(0.996264)" xlink:href="#Computer_Modern_Bright_Slanted-104"/>
      <use transform="translate(90.493535 0)scale(0.996264)" xlink:href="#Computer_Modern_Bright_Slanted-108"/>
      <use transform="translate(109.588494 0)scale(0.996264)" xlink:href="#Computer_Modern_Bright_Slanted-45"/>
      <use transform="translate(142.797167 0)scale(0.996264)" xlink:href="#Computer_Modern_Bright_Slanted-49"/>
      <use transform="translate(235.881937 0)scale(0.996264)" xlink:href="#Computer_Modern_Bright_Math_Slanted-62"/>
      <use transform="translate(344.834617 0)scale(0.996264)" xlink:href="#Computer_Modern_Bright_Slanted-114"/>
      <use transform="translate(376.797976 0)scale(0.996264)" xlink:href="#Computer_Modern_Bright_Slanted-104"/>
      <use transform="translate(424.950473 0)scale(0.996264)" xlink:href="#Computer_Modern_Bright_Slanted-121"/>
      <use transform="translate(467.291511 0)scale(0.996264)" xlink:href="#Computer_Modern_Bright_Slanted-45"/>
      <use transform="translate(500.500184 0)scale(0.996264)" xlink:href="#Computer_Modern_Bright_Slanted-49"/>
     </g>
    </g>
    <g id="line2d_27">
     <path d="M 62.979163 101.198444 
L 90.979163 101.198444 
" style="fill:none;stroke:#1f78b4;stroke-linecap:round;stroke-width:2;"/>
    </g>
    <g id="line2d_28"/>
    <g id="text_18">
     <!-- Unbranched -->
     <defs>
      <path d="M 8 69.5 
L 8 32.75 
C 8 25.71875 7.203125 18.390625 10.703125 11.96875 
C 12.90625 7.84375 16.09375 4.4375 20.09375 2.125 
C 29.90625 -3.609375 43.5 -2.203125 51.296875 6.4375 
C 54.796875 10.359375 57.296875 15.171875 57.796875 21.796875 
C 57.90625 23.40625 57.796875 24.921875 57.796875 26.515625 
L 57.796875 69.5 
L 51.40625 69.5 
L 51.40625 25.90625 
C 51.40625 24.59375 51.5 23.1875 51.40625 21.890625 
C 51.203125 18.890625 50.59375 15.921875 49.40625 13.25 
C 43.90625 1 25 1 18 11.890625 
C 14.203125 17.78125 15 25.0625 15 31.65625 
L 15 69.5 
z
" id="Computer_Modern_Bright-85"/>
      <path d="M 6.40625 69.6875 
L 6.40625 0 
L 12.796875 0 
L 12.796875 6.328125 
L 12.90625 6.328125 
C 14 4.109375 16.5 2.015625 18.59375 0.90625 
C 25.796875 -2.90625 34.40625 0.90625 39.09375 7.03125 
C 48.59375 19.578125 44.796875 40.875 32.296875 46.796875 
C 27.40625 49 21.5 48 17.09375 44.984375 
C 15.40625 43.78125 14 42.375 12.703125 40.765625 
L 12.703125 69.6875 
z
M 21.90625 42.984375 
C 26.59375 43.375 31.5 41.265625 34.296875 37.453125 
C 36.203125 34.9375 37.203125 31.9375 37.703125 28.8125 
C 38.703125 21.484375 37.90625 12.25 31.40625 7.4375 
C 30.296875 6.625 29.09375 6.03125 27.796875 5.515625 
C 22.40625 3.515625 17 4.109375 14 8.84375 
C 13.09375 10.4375 12.796875 10.546875 12.796875 12.953125 
L 12.796875 33.734375 
C 12.796875 34.75 12.59375 35.953125 13 36.859375 
C 14.59375 40.171875 18.296875 42.671875 21.90625 42.984375 
" id="Computer_Modern_Bright-98"/>
      <path d="M 6.40625 69.6875 
L 6.40625 0 
L 12.796875 0 
L 12.796875 21.984375 
C 12.796875 26.90625 12.5 31.9375 14.703125 36.546875 
C 15.796875 38.859375 17.5 40.875 19.796875 42.078125 
C 21.703125 42.984375 23.703125 42.984375 25.796875 42.78125 
C 28.796875 42.78125 31.703125 41.984375 33.59375 39.453125 
C 35.40625 37.140625 35.5 34.140625 35.5 31.3125 
L 35.5 0 
L 41.90625 0 
L 41.90625 27.21875 
C 41.90625 32.234375 42.40625 37.75 39.90625 42.28125 
C 37.90625 45.6875 34.40625 47.296875 30.703125 47.796875 
C 28.703125 48 26.703125 48 24.703125 47.703125 
C 21.09375 47.015625 18 45.03125 15.59375 42.34375 
C 14.5 41.046875 13.203125 39.46875 12.796875 37.765625 
L 12.703125 37.765625 
L 12.703125 69.6875 
z
" id="Computer_Modern_Bright-104"/>
     </defs>
     <g style="fill:#262626;" transform="translate(102.179163 106.098444)scale(0.14 -0.14)">
      <use transform="scale(0.996264)" xlink:href="#Computer_Modern_Bright-85"/>
      <use transform="translate(65.587132 0)scale(0.996264)" xlink:href="#Computer_Modern_Bright-110"/>
      <use transform="translate(113.739629 0)scale(0.996264)" xlink:href="#Computer_Modern_Bright-98"/>
      <use transform="translate(158.986397 0)scale(0.996264)" xlink:href="#Computer_Modern_Bright-114"/>
      <use transform="translate(190.949756 0)scale(0.996264)" xlink:href="#Computer_Modern_Bright-97"/>
      <use transform="translate(237.441838 0)scale(0.996264)" xlink:href="#Computer_Modern_Bright-110"/>
      <use transform="translate(285.594335 0)scale(0.996264)" xlink:href="#Computer_Modern_Bright-99"/>
      <use transform="translate(330.426003 0)scale(0.996264)" xlink:href="#Computer_Modern_Bright-104"/>
      <use transform="translate(378.5785 0)scale(0.996264)" xlink:href="#Computer_Modern_Bright-101"/>
      <use transform="translate(423.410167 0)scale(0.996264)" xlink:href="#Computer_Modern_Bright-100"/>
     </g>
    </g>
    <g id="line2d_29">
     <path d="M 62.979163 120.323055 
L 90.979163 120.323055 
" style="fill:none;stroke:#33a02c;stroke-linecap:round;stroke-width:2;"/>
    </g>
    <g id="line2d_30"/>
    <g id="text_19">
     <!-- data -->
     <g style="fill:#262626;" transform="translate(102.179163 125.223055)scale(0.14 -0.14)">
      <use transform="scale(0.996264)" xlink:href="#Computer_Modern_Bright-100"/>
      <use transform="translate(48.152497 0)scale(0.996264)" xlink:href="#Computer_Modern_Bright-97"/>
      <use transform="translate(94.644579 0)scale(0.996264)" xlink:href="#Computer_Modern_Bright-116"/>
      <use transform="translate(130.758967 0)scale(0.996264)" xlink:href="#Computer_Modern_Bright-97"/>
     </g>
    </g>
   </g>
  </g>
 </g>
 <defs>
  <clipPath id="p4cec42d259">
   <rect height="298.98" width="446.4" x="50.379163" y="7.2"/>
  </clipPath>
 </defs>
</svg>
