<?xml version="1.0" encoding="utf-8" standalone="no"?>
<!DOCTYPE svg PUBLIC "-//W3C//DTD SVG 1.1//EN"
  "http://www.w3.org/Graphics/SVG/1.1/DTD/svg11.dtd">
<!-- Created with matplotlib (http://matplotlib.org/) -->
<svg height="353pt" version="1.1" viewBox="0 0 503 353" width="503pt" xmlns="http://www.w3.org/2000/svg" xmlns:xlink="http://www.w3.org/1999/xlink">
 <defs>
  <style type="text/css">
*{stroke-linecap:butt;stroke-linejoin:round;}
  </style>
 </defs>
 <g id="figure_1">
  <g id="patch_1">
   <path d="M 0 353.548374 
L 503.979163 353.548374 
L 503.979163 0 
L 0 0 
z
" style="fill:#ffffff;"/>
  </g>
  <g id="axes_1">
   <g id="patch_2">
    <path d="M 50.379163 306.18 
L 496.779163 306.18 
L 496.779163 7.2 
L 50.379163 7.2 
z
" style="fill:#eaeaf2;"/>
   </g>
   <g id="matplotlib.axis_1">
    <g id="xtick_1">
     <g id="line2d_1"/>
     <g id="text_1">
      <!-- $-1.0$ -->
      <defs>
       <path d="M 9.796875 28.078125 
C 8 27.484375 7.796875 24.78125 9.796875 24.28125 
C 10.296875 24.078125 10.90625 24.1875 11.5 24.1875 
L 64.703125 24.1875 
C 65.90625 24.1875 67.796875 23.78125 68.796875 24.78125 
C 69.90625 25.875 69.296875 27.875 67.703125 28.1875 
C 66.5 28.375 65.09375 28.1875 63.90625 28.1875 
L 11.40625 28.1875 
C 10.90625 28.1875 10.296875 28.28125 9.796875 28.078125 
" id="Computer_Modern_Bright_Math_Symbols-0"/>
       <path d="M 9.703125 60.015625 
L 9.703125 55 
C 15.203125 55 19 56 23.40625 57.90625 
L 23.40625 5.015625 
L 10.296875 5.015625 
L 10.296875 0 
L 43 0 
L 43 5.015625 
L 29.90625 5.015625 
L 29.90625 67 
C 27.5 67 27.90625 66.359375 26 64.875 
C 21.90625 61.71875 16.203125 60.015625 9.703125 60.015625 
" id="Computer_Modern_Bright-49"/>
       <path d="M 10.703125 7.8125 
L 10.703125 0 
L 18.5 0 
L 18.5 7.8125 
z
" id="Computer_Modern_Bright_Math_Slanted-58"/>
       <path d="M 14.796875 63.859375 
C 11.90625 61.859375 9.90625 59.140625 8.40625 56.03125 
C 4.796875 49 4.40625 40.765625 4.40625 31.828125 
C 4.40625 20.578125 6.40625 10.25 12 4.3125 
C 17.296875 -1.203125 25.703125 -2.609375 32.796875 0.296875 
C 37.203125 2.015625 40.40625 5.71875 42.40625 9.734375 
C 46 16.875 46.40625 25.40625 46.40625 34.234375 
C 46.40625 37.046875 46.296875 39.859375 46 42.671875 
C 45.296875 49.40625 43 56.828125 39.296875 60.953125 
C 33.203125 67.6875 22.296875 69.1875 14.796875 63.859375 
M 34.90625 58.140625 
C 39.59375 53.125 40 43.484375 40 34.34375 
L 40 28.921875 
C 40 24.296875 39.203125 18.28125 38.203125 14.859375 
C 36.796875 10.140625 34.5 6.734375 29.90625 4.625 
C 24.296875 2.609375 18.5 4.515625 15.296875 8.9375 
C 11 14.65625 10.796875 24.796875 10.796875 33.734375 
C 10.796875 42.171875 10.90625 51.515625 15 57.03125 
C 19.5 63.0625 29.203125 64.0625 34.90625 58.140625 
" id="Computer_Modern_Bright-48"/>
      </defs>
      <g style="fill:#262626;" transform="translate(72.419171 324.249603)scale(0.16 -0.16)">
       <use transform="scale(0.996264)" xlink:href="#Computer_Modern_Bright_Math_Symbols-0"/>
       <use transform="translate(77.487468 0)scale(0.996264)" xlink:href="#Computer_Modern_Bright-49"/>
       <use transform="translate(128.130685 0)scale(0.996264)" xlink:href="#Computer_Modern_Bright_Math_Slanted-58"/>
       <use transform="translate(157.188132 0)scale(0.996264)" xlink:href="#Computer_Modern_Bright-48"/>
      </g>
     </g>
    </g>
    <g id="xtick_2">
     <g id="line2d_2"/>
     <g id="text_2">
      <!-- $-0.8$ -->
      <defs>
       <path d="M 18.703125 36 
L 18.703125 35.90625 
C 12.5 34.09375 7.296875 30.6875 4.796875 24.84375 
C 2.203125 18.71875 4 11.28125 8.40625 6.453125 
C 13.09375 1.421875 19.5 -1 26.296875 -1 
C 36.296875 -1 45.90625 6.40625 47.09375 16.734375 
C 47.296875 18.265625 47.203125 19.890625 47 21.40625 
C 45.203125 29.21875 39.5 33.875 32.09375 35.90625 
C 32.90625 36.203125 33.796875 36.40625 34.59375 36.703125 
C 38.796875 38.421875 42.296875 40.921875 44.5 44.9375 
C 47.796875 51.375 44.59375 58.90625 39.203125 63.015625 
C 33.796875 67.140625 26.5 68.234375 19.90625 66.828125 
C 12 65.125 4.5 58.40625 5 49.765625 
C 5.203125 46.75 6.5 44.234375 8 42.4375 
C 10.296875 39.625 14.796875 36.609375 18.703125 36 
M 23.796875 62.5 
C 28.203125 62.5 33.703125 62 36.90625 58.578125 
C 40.703125 54.46875 40.90625 47.03125 37.09375 42.8125 
C 34.703125 40.203125 31.203125 38.890625 27.703125 38.59375 
C 22.796875 38.1875 17.203125 39 13.703125 42.8125 
C 9.796875 47.125 10.09375 54.96875 14.296875 58.984375 
C 16.90625 61.390625 20.40625 62.1875 23.796875 62.5 
M 23.703125 33.5 
C 28.40625 33.5 33.5 32.390625 36.90625 28.9375 
C 38.203125 27.53125 39.203125 25.8125 39.796875 24.015625 
C 41.5 18.75 40.703125 12.09375 36.796875 8.046875 
C 34.09375 5.328125 30.40625 4.3125 26.703125 4.015625 
C 22.203125 4.015625 17 5.109375 13.796875 8.5625 
C 9.40625 13.390625 8.5 23.40625 13.703125 29.0625 
C 16.296875 31.78125 20 33.203125 23.703125 33.5 
" id="Computer_Modern_Bright-56"/>
      </defs>
      <g style="fill:#262626;" transform="translate(148.331841 324.249603)scale(0.16 -0.16)">
       <use transform="scale(0.996264)" xlink:href="#Computer_Modern_Bright_Math_Symbols-0"/>
       <use transform="translate(77.487468 0)scale(0.996264)" xlink:href="#Computer_Modern_Bright-48"/>
       <use transform="translate(128.130685 0)scale(0.996264)" xlink:href="#Computer_Modern_Bright_Math_Slanted-58"/>
       <use transform="translate(157.188132 0)scale(0.996264)" xlink:href="#Computer_Modern_Bright-56"/>
      </g>
     </g>
    </g>
    <g id="xtick_3">
     <g id="line2d_3"/>
     <g id="text_3">
      <!-- $-0.6$ -->
      <defs>
       <path d="M 11.296875 32.625 
L 11.203125 32.625 
C 11.203125 41.765625 12.796875 52.421875 20.59375 58.25 
C 24.90625 61.375 30.703125 62.96875 38.203125 61.171875 
C 39.796875 60.765625 41.296875 60.15625 42.796875 59.765625 
L 42.796875 63.28125 
C 42.796875 63.671875 42.90625 64.375 42.59375 64.78125 
C 41.90625 65.6875 36.296875 66.59375 36.09375 66.59375 
C 27.40625 67.59375 21.703125 65.6875 16.40625 61.171875 
C 10 55.640625 6.296875 47.515625 5.09375 39.28125 
C 4 32.65625 4.90625 22 6.203125 16.78125 
C 8.296875 9.046875 12.296875 2.21875 19.703125 -0.390625 
C 24.09375 -2 29.5 -2 33.703125 0.015625 
C 37.09375 1.640625 39.90625 4.46875 42.09375 7.5 
C 45.59375 12.34375 46.5 18.21875 46.09375 24.171875 
C 45.90625 27.109375 45.5 30.046875 44.296875 32.765625 
C 42.40625 37.125 39.203125 41.671875 35.09375 43.6875 
C 33.203125 44.5 31.203125 44.5 29.203125 44.5 
C 23.90625 44.5 18.90625 42.1875 15.203125 38.359375 
C 13.59375 36.75 12 34.71875 11.296875 32.625 
M 24.40625 39.515625 
C 28.203125 39.8125 32.203125 39.21875 35.09375 36.5 
C 38.90625 32.890625 39.59375 27.765625 39.59375 22.8125 
C 39.59375 19.46875 39.703125 16.015625 38.703125 12.859375 
C 38.09375 11.234375 37.296875 9.828125 36.40625 8.5 
C 34.203125 5.5625 31.40625 4.125 26.796875 3.515625 
C 22.296875 3.515625 17.796875 5.3125 15.203125 9.125 
C 13.59375 11.328125 12.796875 14.046875 12.296875 16.640625 
C 11.703125 19.34375 11.296875 22.140625 11.5 24.859375 
C 12 31.984375 17 38.515625 24.40625 39.515625 
" id="Computer_Modern_Bright-54"/>
      </defs>
      <g style="fill:#262626;" transform="translate(224.244512 324.249603)scale(0.16 -0.16)">
       <use transform="scale(0.996264)" xlink:href="#Computer_Modern_Bright_Math_Symbols-0"/>
       <use transform="translate(77.487468 0)scale(0.996264)" xlink:href="#Computer_Modern_Bright-48"/>
       <use transform="translate(128.130685 0)scale(0.996264)" xlink:href="#Computer_Modern_Bright_Math_Slanted-58"/>
       <use transform="translate(157.188132 0)scale(0.996264)" xlink:href="#Computer_Modern_Bright-54"/>
      </g>
     </g>
    </g>
    <g id="xtick_4">
     <g id="line2d_4"/>
     <g id="text_4">
      <!-- $-0.4$ -->
      <defs>
       <path d="M 2.09375 18 
L 31 18 
L 31 0 
L 37.296875 0 
L 37.296875 18 
L 48.703125 18 
L 48.703125 23.328125 
L 37.296875 23.328125 
L 37.296875 66.46875 
L 31.90625 66.46875 
C 30.09375 66.46875 29.59375 66.578125 28.796875 65.0625 
C 24.796875 58.515625 3.703125 25.765625 3 24.859375 
C 2.203125 23.4375 2.09375 23.546875 2.09375 21.4375 
z
M 31.296875 60.875 
L 31.296875 23.328125 
L 8.59375 23.328125 
C 9.296875 24.734375 10.296875 26.03125 11.203125 27.4375 
C 16.203125 35.171875 28.09375 53.546875 30.59375 59.28125 
C 30.90625 59.78125 31 60.375 31.296875 60.875 
" id="Computer_Modern_Bright-52"/>
      </defs>
      <g style="fill:#262626;" transform="translate(300.157182 324.249603)scale(0.16 -0.16)">
       <use transform="scale(0.996264)" xlink:href="#Computer_Modern_Bright_Math_Symbols-0"/>
       <use transform="translate(77.487468 0)scale(0.996264)" xlink:href="#Computer_Modern_Bright-48"/>
       <use transform="translate(128.130685 0)scale(0.996264)" xlink:href="#Computer_Modern_Bright_Math_Slanted-58"/>
       <use transform="translate(157.188132 0)scale(0.996264)" xlink:href="#Computer_Modern_Bright-52"/>
      </g>
     </g>
    </g>
    <g id="xtick_5">
     <g id="line2d_5"/>
     <g id="text_5">
      <!-- $-0.2$ -->
      <defs>
       <path d="M 7.296875 45.96875 
C 8.703125 51.59375 11.09375 57.984375 16.796875 60.5 
C 19.203125 61.5 21.796875 61.703125 24.40625 61.5 
C 29.296875 61.09375 34.09375 59.09375 37.09375 55.09375 
C 39.296875 52.078125 40.09375 48.375 39.703125 44.78125 
C 38.5 34.34375 28.296875 26.84375 21.703125 21.234375 
C 17.90625 18.03125 7.09375 7.8125 7.09375 7.8125 
L 5.40625 6.203125 
C 4.5 5.3125 4.40625 5.3125 4.40625 3.5 
L 4.40625 0 
L 46.40625 0 
L 46.40625 5.625 
L 10.203125 5.625 
C 13.40625 8.734375 26.703125 20.515625 28.5 21.921875 
C 34.296875 26.65625 40.796875 31.375 44.296875 38.21875 
C 48.203125 46.0625 46.5 55.9375 39.90625 61.765625 
C 35.90625 65.296875 30.40625 67 25.09375 67 
C 20.203125 67 15.203125 66 11.296875 62.90625 
C 8.296875 60.390625 5.796875 56.6875 4.40625 52.875 
C 4.09375 52.28125 3.59375 51.28125 3.703125 50.578125 
C 3.796875 49.984375 4.40625 49.484375 4.703125 49.078125 
C 5.5 48.078125 6.296875 46.875 7.296875 45.96875 
" id="Computer_Modern_Bright-50"/>
      </defs>
      <g style="fill:#262626;" transform="translate(376.069853 324.249603)scale(0.16 -0.16)">
       <use transform="scale(0.996264)" xlink:href="#Computer_Modern_Bright_Math_Symbols-0"/>
       <use transform="translate(77.487468 0)scale(0.996264)" xlink:href="#Computer_Modern_Bright-48"/>
       <use transform="translate(128.130685 0)scale(0.996264)" xlink:href="#Computer_Modern_Bright_Math_Slanted-58"/>
       <use transform="translate(157.188132 0)scale(0.996264)" xlink:href="#Computer_Modern_Bright-50"/>
      </g>
     </g>
    </g>
    <g id="xtick_6">
     <g id="line2d_6"/>
     <g id="text_6">
      <!-- $0.0$ -->
      <g style="fill:#262626;" transform="translate(458.181522 324.249603)scale(0.16 -0.16)">
       <use transform="scale(0.996264)" xlink:href="#Computer_Modern_Bright-48"/>
       <use transform="translate(50.643218 0)scale(0.996264)" xlink:href="#Computer_Modern_Bright_Math_Slanted-58"/>
       <use transform="translate(79.700665 0)scale(0.996264)" xlink:href="#Computer_Modern_Bright-48"/>
      </g>
     </g>
    </g>
    <g id="text_7">
     <!-- Epistasis Coefficient -->
     <defs>
      <path d="M 8 69.328125 
L 8 0 
L 55.40625 0 
L 55.40625 5.625 
L 15 5.625 
L 15 33.671875 
L 51.09375 33.671875 
L 51.09375 39 
L 15 39 
L 15 64 
L 54 64 
L 54 69.328125 
z
" id="Computer_Modern_Bright-69"/>
      <path d="M 12.703125 40.53125 
L 12.703125 47.15625 
L 6.40625 47.15625 
L 6.40625 -17 
L 12.796875 -17 
L 12.796875 6.09375 
C 14.203125 4.078125 15.796875 2.28125 17.90625 1.078125 
C 25 -3.25 34 0.171875 38.90625 6.59375 
C 45.40625 14.96875 46.09375 27.5 41.59375 36.984375 
C 39 42.4375 34.09375 47.5 27.796875 48 
C 22.296875 48 18.09375 45.8125 15.09375 43.125 
C 14.203125 42.328125 13.5 41.4375 12.703125 40.53125 
M 21.90625 42.875 
C 26 43.171875 30 41.265625 32.796875 38.265625 
C 34.5 36.34375 35.796875 34.140625 36.59375 31.734375 
C 40.09375 22.296875 36.90625 9.234375 26.796875 5.328125 
C 21 3.109375 15.296875 5.125 13.09375 10.546875 
C 12.59375 11.546875 12.796875 12.859375 12.796875 13.953125 
L 12.796875 34.640625 
C 12.796875 36.953125 13 37.15625 14.5 38.859375 
C 16.296875 41.0625 19 42.578125 21.90625 42.875 
" id="Computer_Modern_Bright-112"/>
      <path d="M 6.40625 70 
L 6.40625 63.671875 
L 12.703125 63.671875 
L 12.703125 70 
z
M 6.40625 47.390625 
L 6.40625 0 
L 12.703125 0 
L 12.703125 47.390625 
z
" id="Computer_Modern_Bright-105"/>
      <path d="M 3.09375 9.640625 
C 2.90625 8.234375 2.59375 6.9375 2.40625 5.53125 
C 2.203125 4.421875 1.90625 3.921875 2.90625 3.421875 
C 7 1.015625 11.90625 -0.296875 17.703125 -0.796875 
C 24.203125 -1.40625 32.40625 0.109375 35.59375 6.53125 
C 36.5 8.34375 37 10.34375 37.09375 12.359375 
C 37.5 19.578125 31.796875 24.203125 26.90625 25.90625 
C 21.40625 28.015625 13.90625 27.3125 10.09375 31.53125 
C 8.09375 33.84375 8 37.265625 9.90625 39.671875 
C 13.90625 45.296875 26.796875 42.875 31.90625 40.375 
C 32.703125 39.96875 33.40625 39.46875 34.296875 39.265625 
L 35.203125 44.6875 
C 30.5 46.796875 26.40625 48 19.90625 48 
C 14.296875 48 9.203125 46.703125 6 43.484375 
C 2.796875 40.171875 1.703125 34.640625 3.59375 30.4375 
C 5.40625 26.40625 9.203125 23.796875 13.296875 22.5 
C 19.203125 20.390625 25.90625 21.390625 29.796875 16.578125 
C 32 13.765625 31.59375 9.546875 29.09375 7.03125 
C 24.296875 2.609375 14.09375 4.21875 8.5 6.625 
C 6.59375 7.4375 4.90625 8.640625 3.09375 9.640625 
" id="Computer_Modern_Bright-115"/>
      <path d="M 10.796875 60.5 
L 10.796875 47.015625 
L 1.09375 47.015625 
L 1.09375 42 
L 10.703125 42 
L 10.703125 15.015625 
C 10.703125 10.578125 10.40625 5.234375 13.296875 1.515625 
C 15 -0.703125 17.296875 -1.296875 20.796875 -1 
C 23.703125 -1 26.59375 -0.390625 29.296875 0.65625 
C 30.203125 1.0625 33.5 2.515625 33.90625 3.234375 
C 34.09375 3.640625 32.796875 8.09375 32.796875 8.09375 
L 30.40625 6.265625 
C 27.296875 4.34375 21.09375 2.328125 18.5 5.96875 
C 16.203125 9.09375 16.796875 13.75 16.796875 17.375 
L 16.796875 42 
L 32.296875 42 
L 32.296875 47.015625 
L 16.796875 47.015625 
L 16.796875 60.5 
z
" id="Computer_Modern_Bright-116"/>
      <path d="M 7.90625 39.015625 
C 9.59375 39.859375 11 41.09375 12.703125 41.921875 
C 15.40625 43.15625 18.203125 44 21.203125 44 
C 22.59375 44.09375 24.203125 44.296875 25.59375 44 
C 28.09375 43.59375 30.296875 42.078125 31.796875 39.953125 
C 33.296875 37.515625 33.90625 35.390625 33.90625 31.46875 
L 33.90625 27.015625 
C 29.09375 27.015625 24.296875 26.609375 19.703125 25.390625 
C 13.90625 24.078125 7.59375 21.125 5.5 15.84375 
C 3.40625 10.78125 5.59375 4.078125 10.09375 1.03125 
C 12.296875 -0.5 14.90625 -0.5 17.5 -0.296875 
C 21.703125 0 25.90625 1.015625 29.5 3.25 
C 31.203125 4.25 32.90625 5.578125 33.90625 7.296875 
L 34 7.296875 
L 34 0.203125 
L 40.296875 0.203125 
L 40.296875 26.890625 
C 40.296875 29.8125 40.59375 32.953125 40 35.890625 
C 39.40625 39.921875 36.90625 43.265625 34 45.59375 
C 30.59375 48.21875 26.703125 49.109375 21.5 48.71875 
C 16.703125 48.71875 13 47.5 9.40625 45.765625 
C 8.90625 45.5625 7.90625 45.234375 7.59375 44.640625 
C 7.296875 44.21875 7.5 43.515625 7.5 43 
C 7.703125 41.671875 7.796875 40.34375 7.90625 39.015625 
M 33.90625 24 
L 33.90625 16.375 
C 33.90625 14.0625 34 11.953125 32.703125 9.953125 
C 31.59375 8.34375 30.09375 7.234375 28.5 6.4375 
C 22.796875 3.515625 14.09375 4.421875 11.59375 9.25 
C 9.59375 12.75 11.703125 16.875 14.59375 19.1875 
C 18.90625 22.5 27.296875 24 33.90625 24 
" id="Computer_Modern_Bright-97"/>
      <path d="M 60.5 10.875 
C 58.5 9.859375 56.703125 8.453125 54.703125 7.453125 
C 50 5.046875 44 4.140625 37.5 4.734375 
C 31.703125 5.546875 26.90625 8.359375 23.40625 11.875 
C 12.203125 23.15625 11.40625 42.96875 21.296875 55.34375 
C 25.5 60.875 31.90625 65 41.296875 65 
C 45.09375 65 49 64.296875 52.5 62.890625 
C 54.59375 61.96875 56.59375 60.765625 58.59375 59.765625 
L 59.796875 66.8125 
C 57.59375 67.671875 55.296875 68.5625 53 69.09375 
C 47.40625 70.625 38.90625 70.625 33.09375 69.21875 
C 22.90625 66.921875 15.5 59.828125 11.296875 51.625 
C 5.5 40.015625 6.203125 25.515625 13.203125 14.59375 
C 15 11.703125 17.296875 9.109375 19.90625 6.890625 
C 25.90625 1.6875 33.296875 -1.3125 43.59375 -0.5 
C 49.796875 -0.5 53.40625 0.515625 58.203125 3.203125 
C 58.703125 3.5 60.59375 4.515625 60.90625 4.9375 
C 61.09375 5.4375 60.59375 9.53125 60.5 10.875 
" id="Computer_Modern_Bright-67"/>
      <path d="M 10.703125 42.078125 
C 1.796875 33.234375 0.796875 17.875 8.5 7.9375 
C 9.59375 6.421875 10.90625 5.125 12.40625 4.015625 
C 16.09375 1 21.5 -1.203125 27.796875 -0.5 
C 37.796875 0.703125 44.703125 8.84375 46.796875 17.375 
C 49.59375 29.328125 43.703125 42.671875 32.703125 46.890625 
C 24.09375 50.40625 15.5 46.890625 10.703125 42.078125 
M 35.703125 39.359375 
C 40.5 35.03125 41.40625 28.109375 41 21.984375 
C 40.703125 17.265625 39.40625 12.34375 36.09375 8.828125 
C 30.703125 3 20.703125 3 14.90625 8.625 
C 11.90625 11.84375 10.09375 16.453125 9.796875 21.984375 
C 9.296875 30.109375 11.296875 38.75 19.296875 41.96875 
C 25.203125 44.578125 32 42.671875 35.703125 39.359375 
" id="Computer_Modern_Bright-111"/>
      <path d="M 41.796875 10.9375 
C 39.5 9.234375 38.796875 8.328125 35.90625 6.8125 
C 29.796875 3.5 22.59375 3.5 17.40625 7.171875 
C 12.40625 10.765625 9.5 16.640625 9.5 25 
L 42.5 25 
C 42.5 32.421875 40.796875 38.859375 36.59375 43.375 
C 32 47.890625 24.796875 49.296875 18.703125 47.390625 
C 16.40625 46.6875 14.296875 45.484375 12.40625 43.96875 
C 6.09375 38.859375 3.40625 30.71875 3.5 22.78125 
C 3.703125 12.34375 10.796875 1.90625 21.296875 -0.3125 
C 26.796875 -1.421875 32.59375 -0.203125 37.5 2.296875 
C 38.40625 2.796875 41.703125 4.609375 42.09375 5.515625 
C 42.40625 6.015625 41.796875 10.9375 41.796875 10.9375 
M 37.203125 28.90625 
L 10 28.90625 
C 11.203125 36.234375 17.203125 43.96875 25.296875 43.0625 
C 31.90625 42.46875 35.40625 37.75 36.703125 31.828125 
C 36.90625 30.8125 37 29.921875 37.203125 28.90625 
" id="Computer_Modern_Bright-101"/>
      <path d="M 10.59375 47.015625 
L 2 47.015625 
L 2 42 
L 10.59375 42 
L 10.59375 0 
L 16.90625 0 
L 16.90625 42 
L 30.09375 42 
L 30.09375 47.015625 
L 16.796875 47.015625 
L 16.796875 56.234375 
C 16.796875 57.890625 16.59375 59.65625 17.296875 61.21875 
C 19.5 65.875 25.40625 65.875 29.59375 65.078125 
C 30.59375 64.875 31.703125 64.46875 32.703125 64.265625 
L 32.703125 69.90625 
C 27.703125 70.609375 22.296875 71.21875 17.703125 68.46875 
C 15.796875 67.4375 14.203125 65.6875 13 63.921875 
C 11.09375 60.9375 10.59375 58.78125 10.59375 53.71875 
z
M 38.09375 0 
L 44.40625 0 
L 44.40625 42 
L 57.59375 42 
L 57.59375 47.015625 
L 44.296875 47.015625 
L 44.296875 55.234375 
C 44.296875 56.890625 44.09375 58.65625 44.40625 60.328125 
C 44.90625 62.296875 46.09375 63.65625 47.703125 64.671875 
C 50.796875 66.171875 54.40625 65.078125 57.59375 64.171875 
L 57.59375 70 
C 55.09375 70.1875 52.703125 70.6875 50.203125 70.5 
C 43.40625 70 38.59375 64.046875 38.09375 57.3125 
C 38 55.890625 38.09375 54.375 38.09375 52.96875 
z
M 65.59375 70 
L 65.59375 63.671875 
L 71.90625 63.671875 
L 71.90625 70 
z
M 65.59375 47.390625 
L 65.59375 0 
L 71.90625 0 
L 71.90625 47.390625 
z
" id="Computer_Modern_Bright-14"/>
      <path d="M 42.40625 11.25 
C 40.5 9.84375 38.796875 8.328125 36.703125 7.125 
C 32 4.625 24.796875 3.421875 19.40625 5.921875 
C 11.59375 9.9375 9.5 19.6875 10.59375 27.71875 
C 10.796875 29.328125 11.09375 30.921875 11.59375 32.4375 
C 13.796875 38.96875 19.296875 44.078125 28.296875 43.078125 
C 33.09375 42.671875 35.5 41.875 39.296875 39.765625 
C 40 39.359375 40.59375 38.859375 41.40625 38.65625 
C 41.5 39.859375 41.796875 41.171875 42 42.375 
C 42.296875 43.984375 42.296875 44.1875 40.796875 44.890625 
C 39.703125 45.390625 38.59375 45.984375 37.40625 46.390625 
C 32.796875 48.40625 25.203125 49 20 47.5 
C 12.90625 45.484375 7.59375 39.359375 5.296875 32.53125 
C 4.203125 29.421875 3.90625 26.109375 3.90625 22.796875 
C 4 12.25 11.203125 1.90625 21.703125 -0.203125 
C 27.5 -1.40625 34.203125 0.296875 38.203125 2.40625 
C 39.203125 2.90625 42.203125 4.71875 42.703125 5.625 
C 43 6.125 42.40625 11.25 42.40625 11.25 
" id="Computer_Modern_Bright-99"/>
      <path d="M 12.59375 37.28125 
L 12.5 37.28125 
L 12.5 47.390625 
L 6.40625 47.390625 
L 6.40625 0 
L 12.796875 0 
L 12.796875 21.9375 
C 12.796875 26.84375 12.5 31.875 14.703125 36.46875 
C 15.796875 38.78125 17.5 40.78125 19.796875 41.984375 
C 21.703125 42.890625 23.703125 42.890625 25.796875 42.6875 
C 28.796875 42.6875 31.703125 41.890625 33.59375 39.375 
C 35.40625 37.0625 35.5 34.0625 35.5 31.25 
L 35.5 0 
L 41.90625 0 
L 41.90625 26.859375 
C 41.90625 31.875 42.40625 37.375 40 41.890625 
C 38.09375 45.5 34.40625 47.203125 30.5 47.703125 
C 28.5 48 26.40625 48 24.40625 47.609375 
C 19.203125 46.5 14.40625 42.296875 12.59375 37.28125 
" id="Computer_Modern_Bright-110"/>
     </defs>
     <g style="fill:#262626;" transform="translate(201.022873 343.359582)scale(0.18 -0.18)">
      <use transform="scale(0.996264)" xlink:href="#Computer_Modern_Bright-69"/>
      <use transform="translate(58.737787 0)scale(0.996264)" xlink:href="#Computer_Modern_Bright-112"/>
      <use transform="translate(106.890284 0)scale(0.996264)" xlink:href="#Computer_Modern_Bright-105"/>
      <use transform="translate(125.985243 0)scale(0.996264)" xlink:href="#Computer_Modern_Bright-115"/>
      <use transform="translate(164.424272 0)scale(0.996264)" xlink:href="#Computer_Modern_Bright-116"/>
      <use transform="translate(200.53866 0)scale(0.996264)" xlink:href="#Computer_Modern_Bright-97"/>
      <use transform="translate(247.030742 0)scale(0.996264)" xlink:href="#Computer_Modern_Bright-115"/>
      <use transform="translate(285.469772 0)scale(0.996264)" xlink:href="#Computer_Modern_Bright-105"/>
      <use transform="translate(304.56473 0)scale(0.996264)" xlink:href="#Computer_Modern_Bright-115"/>
      <use transform="translate(374.468971 0)scale(0.996264)" xlink:href="#Computer_Modern_Bright-67"/>
      <use transform="translate(439.641004 0)scale(0.996264)" xlink:href="#Computer_Modern_Bright-111"/>
      <use transform="translate(490.284222 0)scale(0.996264)" xlink:href="#Computer_Modern_Bright-101"/>
      <use transform="translate(535.115889 0)scale(0.996264)" xlink:href="#Computer_Modern_Bright-14"/>
      <use transform="translate(613.156322 0)scale(0.996264)" xlink:href="#Computer_Modern_Bright-99"/>
      <use transform="translate(657.987989 0)scale(0.996264)" xlink:href="#Computer_Modern_Bright-105"/>
      <use transform="translate(677.082948 0)scale(0.996264)" xlink:href="#Computer_Modern_Bright-101"/>
      <use transform="translate(721.914616 0)scale(0.996264)" xlink:href="#Computer_Modern_Bright-110"/>
      <use transform="translate(770.067113 0)scale(0.996264)" xlink:href="#Computer_Modern_Bright-116"/>
     </g>
    </g>
   </g>
   <g id="matplotlib.axis_2">
    <g id="ytick_1">
     <g id="line2d_7"/>
     <g id="text_8">
      <!-- $0$ -->
      <g style="fill:#262626;" transform="translate(35.010613 298.124802)scale(0.16 -0.16)">
       <use transform="scale(0.996264)" xlink:href="#Computer_Modern_Bright-48"/>
      </g>
     </g>
    </g>
    <g id="ytick_2">
     <g id="line2d_8"/>
     <g id="text_9">
      <!-- $20$ -->
      <g style="fill:#262626;" transform="translate(26.642062 235.090214)scale(0.16 -0.16)">
       <use transform="scale(0.996264)" xlink:href="#Computer_Modern_Bright-50"/>
       <use transform="translate(50.643218 0)scale(0.996264)" xlink:href="#Computer_Modern_Bright-48"/>
      </g>
     </g>
    </g>
    <g id="ytick_3">
     <g id="line2d_9"/>
     <g id="text_10">
      <!-- $40$ -->
      <g style="fill:#262626;" transform="translate(26.642062 172.055626)scale(0.16 -0.16)">
       <use transform="scale(0.996264)" xlink:href="#Computer_Modern_Bright-52"/>
       <use transform="translate(50.643218 0)scale(0.996264)" xlink:href="#Computer_Modern_Bright-48"/>
      </g>
     </g>
    </g>
    <g id="ytick_4">
     <g id="line2d_10"/>
     <g id="text_11">
      <!-- $60$ -->
      <g style="fill:#262626;" transform="translate(26.642062 109.021038)scale(0.16 -0.16)">
       <use transform="scale(0.996264)" xlink:href="#Computer_Modern_Bright-54"/>
       <use transform="translate(50.643218 0)scale(0.996264)" xlink:href="#Computer_Modern_Bright-48"/>
      </g>
     </g>
    </g>
    <g id="ytick_5">
     <g id="line2d_11"/>
     <g id="text_12">
      <!-- $80$ -->
      <g style="fill:#262626;" transform="translate(26.642062 45.98645)scale(0.16 -0.16)">
       <use transform="scale(0.996264)" xlink:href="#Computer_Modern_Bright-56"/>
       <use transform="translate(50.643218 0)scale(0.996264)" xlink:href="#Computer_Modern_Bright-48"/>
      </g>
     </g>
    </g>
    <g id="text_13">
     <!-- Cumulative Density Function -->
     <defs>
      <path d="M 6.40625 47 
L 6.40625 12.96875 
C 6.40625 10.046875 6.5 7.140625 7.703125 4.421875 
C 9.59375 0.515625 13.59375 -1 17.703125 -1 
C 23.203125 -1 28.703125 0.8125 32.703125 4.734375 
C 33.796875 5.828125 34.796875 6.9375 35.5 8.34375 
L 35.59375 8.34375 
L 35.59375 -0.390625 
L 41.90625 -0.390625 
L 41.90625 47 
L 35.5 47 
L 35.5 22.90625 
C 35.5 18.6875 36.09375 14.0625 33.90625 10.25 
C 32.296875 7.4375 29.5 5.234375 26.40625 4.234375 
C 24.296875 3.625 22.09375 3.625 19.90625 3.828125 
C 17.796875 4.03125 15.5 4.234375 14.09375 6.03125 
C 12.09375 8.453125 12.796875 14.171875 12.796875 17.6875 
L 12.796875 47 
z
" id="Computer_Modern_Bright-117"/>
      <path d="M 12.59375 37.359375 
L 12.5 37.359375 
L 12.5 47.390625 
L 6.40625 47.390625 
L 6.40625 0 
L 12.796875 0 
L 12.796875 22.046875 
C 12.796875 26.953125 12.5 31.875 14.703125 36.375 
C 16.59375 40.28125 19.90625 43.390625 25.796875 42.78125 
C 28.796875 42.78125 31.796875 41.984375 33.703125 39.453125 
C 35.5 37.140625 35.59375 34.140625 35.59375 31.3125 
L 35.59375 0 
L 42 0 
L 42 22.046875 
C 42 26.953125 41.703125 31.875 43.90625 36.375 
C 45.796875 40.28125 49.09375 43.390625 55 42.78125 
C 58 42.78125 61 41.984375 62.90625 39.453125 
C 64.703125 37.140625 64.796875 34.140625 64.796875 31.3125 
L 64.796875 0 
L 71.203125 0 
L 71.203125 26.5625 
C 71.203125 31.375 71.796875 36.78125 69.703125 41.1875 
C 67.59375 45.296875 64.203125 47.5 58.703125 47.5 
C 55.5 47.796875 52.296875 47.3125 49.40625 45.84375 
C 45.90625 43.921875 43.296875 40.75 41.703125 37.265625 
C 41 40.578125 40.203125 42.828125 38 45 
C 35.703125 47.0625 32.59375 48 29.59375 48 
C 22.296875 48.59375 17.703125 45.5625 14.59375 41 
C 13.796875 39.875 13 38.671875 12.59375 37.359375 
" id="Computer_Modern_Bright-109"/>
      <path d="M 6.40625 69.6875 
L 6.40625 0 
L 12.703125 0 
L 12.703125 69.6875 
z
" id="Computer_Modern_Bright-108"/>
      <path d="M 0.703125 47.5 
C 1.203125 45.5 4.203125 37.578125 4.40625 37.078125 
C 5.40625 34.28125 17.296875 0.609375 17.59375 0.296875 
C 17.90625 -0.203125 18.796875 0 19.296875 0 
L 22.796875 0 
C 24.09375 0 24.90625 -0.296875 25.203125 0.90625 
C 28.40625 9.328125 40.09375 42.703125 41.796875 47.5 
L 35.59375 47.5 
C 30.796875 33.984375 25.90625 20.4375 21.40625 6.609375 
L 11 36.203125 
C 9.5 39.796875 8.59375 43.890625 6.90625 47.203125 
C 5.09375 47.5 2.796875 47.5 0.703125 47.5 
" id="Computer_Modern_Bright-118"/>
      <path d="M 8 70 
L 8 0 
L 28.203125 0 
C 31.40625 0 34.59375 0 37.703125 0.296875 
C 45.703125 1.109375 52.59375 5.015625 57.203125 9.828125 
C 70.09375 23.171875 70 46.125 57.296875 59.671875 
C 52.703125 64.578125 46.5 68.5 38.703125 69.5 
C 34.90625 70 31 70 27.203125 70 
z
M 14.90625 5.3125 
L 14.90625 64.5625 
L 27.796875 64.5625 
C 30.5 64.5625 33.203125 64.5625 35.90625 64.359375 
C 40.40625 63.859375 44.796875 62.359375 48.5 59.734375 
C 56.59375 54.125 60 44.171875 60 34.640625 
C 60 26.609375 57.796875 18.375 51.90625 12.640625 
C 47.90625 8.9375 42.5 6.21875 36 5.515625 
C 33.40625 5.3125 30.703125 5.3125 28.09375 5.3125 
z
" id="Computer_Modern_Bright-68"/>
      <path d="M 0.703125 47.65625 
C 1.296875 45.75 5.40625 35.609375 5.5 35.3125 
L 17.40625 4.578125 
L 18.40625 2.078125 
C 19 0.671875 19.203125 0.46875 18.59375 -1.140625 
L 17.5 -4.046875 
C 16.59375 -6.46875 15.59375 -8.96875 13.703125 -10.484375 
C 10.296875 -13.296875 4.90625 -11.6875 0.796875 -10.78125 
L 1.296875 -16.5 
C 3.203125 -16.796875 5.09375 -17 7 -17 
C 11.296875 -17.515625 14.09375 -16.5 16.703125 -14.296875 
C 20 -11.484375 21.59375 -7.5625 23.09375 -3.546875 
L 26.203125 5.078125 
L 36.40625 32.90625 
C 38.09375 37.921875 40.203125 42.640625 41.796875 47.65625 
L 37.296875 47.65625 
C 36.796875 47.65625 36 47.859375 35.59375 47.46875 
C 35.40625 47.15625 35.296875 46.765625 35.203125 46.453125 
L 34.40625 44.34375 
C 33.40625 41.734375 32.5 39.234375 31.59375 36.609375 
L 25.796875 20.25 
C 24.296875 15.828125 22.59375 11.3125 21.796875 6.6875 
C 20.703125 11.3125 19.203125 15.734375 17.59375 20.140625 
C 16.296875 23.5625 8.5 44.546875 7.5 46.5625 
C 7.09375 47.65625 6.703125 47.65625 5.203125 47.65625 
z
" id="Computer_Modern_Bright-121"/>
      <path d="M 8 69.328125 
L 8 0 
L 15 0 
L 15 32 
L 48.09375 32 
L 48.09375 37.3125 
L 15 37.3125 
L 15 64 
L 52.40625 64 
L 52.40625 69.328125 
z
" id="Computer_Modern_Bright-70"/>
     </defs>
     <g style="fill:#262626;" transform="translate(19.65327 260.669538)rotate(-90)scale(0.18 -0.18)">
      <use transform="scale(0.996264)" xlink:href="#Computer_Modern_Bright-67"/>
      <use transform="translate(65.172032 0)scale(0.996264)" xlink:href="#Computer_Modern_Bright-117"/>
      <use transform="translate(113.324529 0)scale(0.996264)" xlink:href="#Computer_Modern_Bright-109"/>
      <use transform="translate(190.534656 0)scale(0.996264)" xlink:href="#Computer_Modern_Bright-117"/>
      <use transform="translate(238.687153 0)scale(0.996264)" xlink:href="#Computer_Modern_Bright-108"/>
      <use transform="translate(257.782112 0)scale(0.996264)" xlink:href="#Computer_Modern_Bright-97"/>
      <use transform="translate(304.274194 0)scale(0.996264)" xlink:href="#Computer_Modern_Bright-116"/>
      <use transform="translate(340.388582 0)scale(0.996264)" xlink:href="#Computer_Modern_Bright-105"/>
      <use transform="translate(359.483541 0)scale(0.996264)" xlink:href="#Computer_Modern_Bright-118"/>
      <use transform="translate(401.824579 0)scale(0.996264)" xlink:href="#Computer_Modern_Bright-101"/>
      <use transform="translate(478.121458 0)scale(0.996264)" xlink:href="#Computer_Modern_Bright-68"/>
      <use transform="translate(549.727645 0)scale(0.996264)" xlink:href="#Computer_Modern_Bright-101"/>
      <use transform="translate(594.559312 0)scale(0.996264)" xlink:href="#Computer_Modern_Bright-110"/>
      <use transform="translate(642.711809 0)scale(0.996264)" xlink:href="#Computer_Modern_Bright-115"/>
      <use transform="translate(681.150839 0)scale(0.996264)" xlink:href="#Computer_Modern_Bright-105"/>
      <use transform="translate(700.245798 0)scale(0.996264)" xlink:href="#Computer_Modern_Bright-116"/>
      <use transform="translate(733.454456 0)scale(0.996264)" xlink:href="#Computer_Modern_Bright-121"/>
      <use transform="translate(807.260706 0)scale(0.996264)" xlink:href="#Computer_Modern_Bright-70"/>
      <use transform="translate(860.187034 0)scale(0.996264)" xlink:href="#Computer_Modern_Bright-117"/>
      <use transform="translate(908.339531 0)scale(0.996264)" xlink:href="#Computer_Modern_Bright-110"/>
      <use transform="translate(956.492028 0)scale(0.996264)" xlink:href="#Computer_Modern_Bright-99"/>
      <use transform="translate(1001.323695 0)scale(0.996264)" xlink:href="#Computer_Modern_Bright-116"/>
      <use transform="translate(1037.438083 0)scale(0.996264)" xlink:href="#Computer_Modern_Bright-105"/>
      <use transform="translate(1056.533042 0)scale(0.996264)" xlink:href="#Computer_Modern_Bright-111"/>
      <use transform="translate(1107.17626 0)scale(0.996264)" xlink:href="#Computer_Modern_Bright-110"/>
     </g>
    </g>
   </g>
   <g id="PolyCollection_1">
    <path clip-path="url(#pa099428294)" d="M 70.670072 292.588254 
L 70.670072 292.59 
L 70.961423 292.59 
L 71.252773 292.59 
L 71.544124 292.59 
L 71.835474 292.59 
L 72.126824 292.59 
L 72.418175 292.59 
L 72.709525 292.59 
L 73.000876 292.59 
L 73.292226 292.59 
L 73.583576 292.59 
L 73.874927 292.59 
L 74.166277 292.59 
L 74.457628 292.59 
L 74.748978 292.59 
L 75.040328 292.59 
L 75.331679 292.59 
L 75.623029 292.59 
L 75.91438 292.59 
L 76.20573 292.59 
L 76.49708 292.59 
L 76.788431 292.59 
L 77.079781 292.59 
L 77.371132 292.59 
L 77.662482 292.59 
L 77.953832 292.59 
L 78.245183 292.59 
L 78.536533 292.59 
L 78.827884 292.59 
L 79.119234 292.59 
L 79.410584 292.59 
L 79.701935 292.59 
L 79.993285 292.59 
L 80.284636 292.59 
L 80.575986 292.59 
L 80.867336 292.59 
L 81.158687 292.59 
L 81.450037 292.59 
L 81.741388 292.59 
L 82.032738 292.59 
L 82.324088 292.59 
L 82.615439 292.59 
L 82.906789 292.59 
L 83.19814 292.59 
L 83.48949 292.59 
L 83.78084 292.59 
L 84.072191 292.59 
L 84.363541 292.59 
L 84.654892 292.59 
L 84.946242 292.59 
L 85.237592 292.59 
L 85.528943 292.59 
L 85.820293 292.59 
L 86.111644 292.59 
L 86.402994 292.59 
L 86.694344 292.59 
L 86.985695 292.59 
L 87.277045 292.59 
L 87.568396 292.59 
L 87.859746 292.59 
L 88.151096 292.59 
L 88.442447 292.59 
L 88.733797 292.59 
L 89.025148 292.59 
L 89.316498 292.59 
L 89.607848 292.59 
L 89.899199 292.59 
L 90.190549 292.59 
L 90.4819 292.59 
L 90.77325 292.59 
L 91.0646 292.59 
L 91.355951 292.59 
L 91.647301 292.59 
L 91.938652 292.59 
L 92.230002 292.59 
L 92.521352 292.59 
L 92.812703 292.59 
L 93.104053 292.59 
L 93.395404 292.59 
L 93.686754 292.59 
L 93.978104 292.59 
L 94.269455 292.59 
L 94.560805 292.59 
L 94.852156 292.59 
L 95.143506 292.59 
L 95.434856 292.59 
L 95.726207 292.59 
L 96.017557 292.59 
L 96.308908 292.59 
L 96.600258 292.59 
L 96.891608 292.59 
L 97.182959 292.59 
L 97.474309 292.59 
L 97.76566 292.59 
L 98.05701 292.59 
L 98.34836 292.59 
L 98.639711 292.59 
L 98.931061 292.59 
L 99.222412 292.59 
L 99.513762 292.59 
L 99.805112 292.59 
L 100.096463 292.59 
L 100.387813 292.59 
L 100.679164 292.59 
L 100.970514 292.59 
L 101.261865 292.59 
L 101.553215 292.59 
L 101.844565 292.59 
L 102.135916 292.59 
L 102.427266 292.59 
L 102.718617 292.59 
L 103.009967 292.59 
L 103.301317 292.59 
L 103.592668 292.59 
L 103.884018 292.59 
L 104.175369 292.59 
L 104.466719 292.59 
L 104.758069 292.59 
L 105.04942 292.59 
L 105.34077 292.59 
L 105.632121 292.59 
L 105.923471 292.59 
L 106.214821 292.59 
L 106.506172 292.59 
L 106.797522 292.59 
L 107.088873 292.59 
L 107.380223 292.59 
L 107.671573 292.59 
L 107.671573 292.588259 
L 107.671573 292.588259 
L 107.380223 292.586023 
L 107.088873 292.580219 
L 106.797522 292.568544 
L 106.506172 292.548745 
L 106.214821 292.520254 
L 105.923471 292.485425 
L 105.632121 292.448863 
L 105.34077 292.414443 
L 105.04942 292.381935 
L 104.758069 292.346166 
L 104.466719 292.29988 
L 104.175369 292.23834 
L 103.884018 292.162169 
L 103.592668 292.075612 
L 103.301317 291.980044 
L 103.009967 291.866344 
L 102.718617 291.712539 
L 102.427266 291.4916 
L 102.135916 291.187545 
L 101.844565 290.810556 
L 101.553215 290.399141 
L 101.261865 290.00263 
L 100.970514 289.649464 
L 100.679164 289.318722 
L 100.387813 288.934034 
L 100.096463 288.386322 
L 99.805112 287.574569 
L 99.513762 286.445257 
L 99.222412 285.01411 
L 98.931061 283.361305 
L 98.639711 281.600636 
L 98.34836 279.836347 
L 98.05701 278.1323 
L 97.76566 276.511034 
L 97.474309 274.972625 
L 97.182959 273.501417 
L 96.891608 272.042615 
L 96.600258 270.471482 
L 96.308908 268.597854 
L 96.017557 266.219474 
L 95.726207 263.190504 
L 95.434856 259.459644 
L 95.143506 255.063408 
L 94.852156 250.095025 
L 94.560805 244.676457 
L 94.269455 238.946545 
L 93.978104 233.063024 
L 93.686754 227.208047 
L 93.395404 221.584197 
L 93.104053 216.391042 
L 92.812703 211.78214 
L 92.521352 207.814732 
L 92.230002 204.412912 
L 91.938652 201.366987 
L 91.647301 198.385257 
L 91.355951 195.197333 
L 91.0646 191.678568 
L 90.77325 187.933246 
L 90.4819 184.272785 
L 90.190549 181.083018 
L 89.899199 178.659838 
L 89.607848 177.118526 
L 89.316498 176.41279 
L 89.025148 176.411658 
L 88.733797 176.970672 
L 88.442447 177.984346 
L 88.151096 179.430616 
L 87.859746 181.391025 
L 87.568396 184.015832 
L 87.277045 187.438204 
L 86.985695 191.684319 
L 86.694344 196.629754 
L 86.402994 202.02282 
L 86.111644 207.560042 
L 85.820293 212.974716 
L 85.528943 218.098554 
L 85.237592 222.878904 
L 84.946242 227.357121 
L 84.654892 231.621611 
L 84.363541 235.753891 
L 84.072191 239.795448 
L 83.78084 243.756023 
L 83.48949 247.648897 
L 83.19814 251.508843 
L 82.906789 255.36486 
L 82.615439 259.191904 
L 82.324088 262.896299 
L 82.032738 266.361392 
L 81.741388 269.520547 
L 81.450037 272.394153 
L 81.158687 275.056334 
L 80.867336 277.558588 
L 80.575986 279.875613 
L 80.284636 281.918852 
L 79.993285 283.604489 
L 79.701935 284.919 
L 79.410584 285.933525 
L 79.119234 286.763489 
L 78.827884 287.508013 
L 78.536533 288.208558 
L 78.245183 288.846702 
L 77.953832 289.376947 
L 77.662482 289.772598 
L 77.371132 290.055412 
L 77.079781 290.288852 
L 76.788431 290.539804 
L 76.49708 290.837588 
L 76.20573 291.160702 
L 75.91438 291.458444 
L 75.623029 291.68769 
L 75.331679 291.837434 
L 75.040328 291.928085 
L 74.748978 291.992656 
L 74.457628 292.056558 
L 74.166277 292.128375 
L 73.874927 292.203335 
L 73.583576 292.27306 
L 73.292226 292.333408 
L 73.000876 292.385881 
L 72.709525 292.433848 
L 72.418175 292.478355 
L 72.126824 292.517274 
L 71.835474 292.547625 
L 71.544124 292.56817 
L 71.252773 292.580109 
L 70.961423 292.585995 
L 70.670072 292.588254 
z
" style="fill:#e31a1c;fill-opacity:0.25;"/>
   </g>
   <g id="PolyCollection_2">
    <path clip-path="url(#pa099428294)" d="M 288.480827 292.586893 
L 288.480827 292.59 
L 288.667235 292.59 
L 288.853644 292.59 
L 289.040052 292.59 
L 289.226461 292.59 
L 289.41287 292.59 
L 289.599278 292.59 
L 289.785687 292.59 
L 289.972095 292.59 
L 290.158504 292.59 
L 290.344912 292.59 
L 290.531321 292.59 
L 290.71773 292.59 
L 290.904138 292.59 
L 291.090547 292.59 
L 291.276955 292.59 
L 291.463364 292.59 
L 291.649773 292.59 
L 291.836181 292.59 
L 292.02259 292.59 
L 292.208998 292.59 
L 292.395407 292.59 
L 292.581815 292.59 
L 292.768224 292.59 
L 292.954633 292.59 
L 293.141041 292.59 
L 293.32745 292.59 
L 293.513858 292.59 
L 293.700267 292.59 
L 293.886676 292.59 
L 294.073084 292.59 
L 294.259493 292.59 
L 294.445901 292.59 
L 294.63231 292.59 
L 294.818718 292.59 
L 295.005127 292.59 
L 295.191536 292.59 
L 295.377944 292.59 
L 295.564353 292.59 
L 295.750761 292.59 
L 295.93717 292.59 
L 296.123578 292.59 
L 296.309987 292.59 
L 296.496396 292.59 
L 296.682804 292.59 
L 296.869213 292.59 
L 297.055621 292.59 
L 297.24203 292.59 
L 297.428439 292.59 
L 297.614847 292.59 
L 297.801256 292.59 
L 297.987664 292.59 
L 298.174073 292.59 
L 298.360481 292.59 
L 298.54689 292.59 
L 298.733299 292.59 
L 298.919707 292.59 
L 299.106116 292.59 
L 299.292524 292.59 
L 299.478933 292.59 
L 299.665341 292.59 
L 299.85175 292.59 
L 300.038159 292.59 
L 300.224567 292.59 
L 300.410976 292.59 
L 300.597384 292.59 
L 300.783793 292.59 
L 300.970202 292.59 
L 301.15661 292.59 
L 301.343019 292.59 
L 301.529427 292.59 
L 301.715836 292.59 
L 301.902244 292.59 
L 302.088653 292.59 
L 302.275062 292.59 
L 302.46147 292.59 
L 302.647879 292.59 
L 302.834287 292.59 
L 303.020696 292.59 
L 303.207104 292.59 
L 303.393513 292.59 
L 303.579922 292.59 
L 303.76633 292.59 
L 303.952739 292.59 
L 304.139147 292.59 
L 304.325556 292.59 
L 304.511965 292.59 
L 304.698373 292.59 
L 304.884782 292.59 
L 305.07119 292.59 
L 305.257599 292.59 
L 305.444007 292.59 
L 305.630416 292.59 
L 305.816825 292.59 
L 306.003233 292.59 
L 306.189642 292.59 
L 306.37605 292.59 
L 306.562459 292.59 
L 306.748868 292.59 
L 306.935276 292.59 
L 307.121685 292.59 
L 307.308093 292.59 
L 307.494502 292.59 
L 307.68091 292.59 
L 307.867319 292.59 
L 308.053728 292.59 
L 308.240136 292.59 
L 308.426545 292.59 
L 308.612953 292.59 
L 308.799362 292.59 
L 308.98577 292.59 
L 309.172179 292.59 
L 309.358588 292.59 
L 309.544996 292.59 
L 309.731405 292.59 
L 309.917813 292.59 
L 310.104222 292.59 
L 310.290631 292.59 
L 310.477039 292.59 
L 310.663448 292.59 
L 310.849856 292.59 
L 311.036265 292.59 
L 311.222673 292.59 
L 311.409082 292.59 
L 311.595491 292.59 
L 311.781899 292.59 
L 311.968308 292.59 
L 312.154716 292.59 
L 312.154716 292.586489 
L 312.154716 292.586489 
L 311.968308 292.581356 
L 311.781899 292.567854 
L 311.595491 292.539538 
L 311.409082 292.489154 
L 311.222673 292.413067 
L 311.036265 292.316492 
L 310.849856 292.215338 
L 310.663448 292.131098 
L 310.477039 292.080254 
L 310.290631 292.06489 
L 310.104222 292.070621 
L 309.917813 292.072037 
L 309.731405 292.040951 
L 309.544996 291.953607 
L 309.358588 291.796519 
L 309.172179 291.571148 
L 308.98577 291.29463 
L 308.799362 290.992394 
L 308.612953 290.68291 
L 308.426545 290.362034 
L 308.240136 289.996953 
L 308.053728 289.534282 
L 307.867319 288.917564 
L 307.68091 288.103973 
L 307.494502 287.073143 
L 307.308093 285.830163 
L 307.121685 284.408651 
L 306.935276 282.871892 
L 306.748868 281.301997 
L 306.562459 279.775183 
L 306.37605 278.337843 
L 306.189642 276.997615 
L 306.003233 275.723245 
L 305.816825 274.436826 
L 305.630416 273.002329 
L 305.444007 271.240679 
L 305.257599 268.991771 
L 305.07119 266.194113 
L 304.884782 262.914065 
L 304.698373 259.283428 
L 304.511965 255.38663 
L 304.325556 251.19747 
L 304.139147 246.632442 
L 303.952739 241.684851 
L 303.76633 236.523507 
L 303.579922 231.453679 
L 303.393513 226.739976 
L 303.207104 222.40627 
L 303.020696 218.163622 
L 302.834287 213.532719 
L 302.647879 208.085517 
L 302.46147 201.652105 
L 302.275062 194.378751 
L 302.088653 186.626189 
L 301.902244 178.781744 
L 301.715836 171.091865 
L 301.529427 163.598307 
L 301.343019 156.191205 
L 301.15661 148.728365 
L 300.970202 141.16694 
L 300.783793 133.677387 
L 300.597384 126.686358 
L 300.410976 120.762393 
L 300.224567 116.340293 
L 300.038159 113.461184 
L 299.85175 111.766761 
L 299.665341 110.785727 
L 299.478933 110.270258 
L 299.292524 110.30037 
L 299.106116 111.12343 
L 298.919707 112.943146 
L 298.733299 115.852838 
L 298.54689 119.894549 
L 298.360481 125.097734 
L 298.174073 131.433752 
L 297.987664 138.762851 
L 297.801256 146.853481 
L 297.614847 155.440654 
L 297.428439 164.2434 
L 297.24203 172.951066 
L 297.055621 181.270762 
L 296.869213 189.061213 
L 296.682804 196.434666 
L 296.496396 203.687849 
L 296.309987 211.081051 
L 296.123578 218.647493 
L 295.93717 226.191013 
L 295.750761 233.445809 
L 295.564353 240.234411 
L 295.377944 246.502238 
L 295.191536 252.249363 
L 295.005127 257.460205 
L 294.818718 262.096156 
L 294.63231 266.13833 
L 294.445901 269.629716 
L 294.259493 272.680511 
L 294.073084 275.432702 
L 293.886676 278.002264 
L 293.700267 280.427051 
L 293.513858 282.651078 
L 293.32745 284.564027 
L 293.141041 286.080334 
L 292.954633 287.205403 
L 292.768224 288.038768 
L 292.581815 288.714009 
L 292.395407 289.326373 
L 292.208998 289.90108 
L 292.02259 290.412741 
L 291.836181 290.826738 
L 291.649773 291.129406 
L 291.463364 291.335145 
L 291.276955 291.476841 
L 291.090547 291.589922 
L 290.904138 291.698138 
L 290.71773 291.807915 
L 290.531321 291.914133 
L 290.344912 292.011723 
L 290.158504 292.102608 
L 289.972095 292.192896 
L 289.785687 292.285256 
L 289.599278 292.374989 
L 289.41287 292.453047 
L 289.226461 292.512207 
L 289.040052 292.550898 
L 288.853644 292.572662 
L 288.667235 292.58308 
L 288.480827 292.586893 
z
" style="fill:#0000ff;fill-opacity:0.25;"/>
   </g>
   <g id="PolyCollection_3">
    <path clip-path="url(#pa099428294)" d="M 302.790092 292.587639 
L 302.790092 292.59 
L 303.078481 292.59 
L 303.36687 292.59 
L 303.655259 292.59 
L 303.943648 292.59 
L 304.232037 292.59 
L 304.520425 292.59 
L 304.808814 292.59 
L 305.097203 292.59 
L 305.385592 292.59 
L 305.673981 292.59 
L 305.96237 292.59 
L 306.250759 292.59 
L 306.539148 292.59 
L 306.827537 292.59 
L 307.115926 292.59 
L 307.404315 292.59 
L 307.692704 292.59 
L 307.981092 292.59 
L 308.269481 292.59 
L 308.55787 292.59 
L 308.846259 292.59 
L 309.134648 292.59 
L 309.423037 292.59 
L 309.711426 292.59 
L 309.999815 292.59 
L 310.288204 292.59 
L 310.576593 292.59 
L 310.864982 292.59 
L 311.15337 292.59 
L 311.441759 292.59 
L 311.730148 292.59 
L 312.018537 292.59 
L 312.306926 292.59 
L 312.595315 292.59 
L 312.883704 292.59 
L 313.172093 292.59 
L 313.460482 292.59 
L 313.748871 292.59 
L 314.03726 292.59 
L 314.325649 292.59 
L 314.614037 292.59 
L 314.902426 292.59 
L 315.190815 292.59 
L 315.479204 292.59 
L 315.767593 292.59 
L 316.055982 292.59 
L 316.344371 292.59 
L 316.63276 292.59 
L 316.921149 292.59 
L 317.209538 292.59 
L 317.497927 292.59 
L 317.786315 292.59 
L 318.074704 292.59 
L 318.363093 292.59 
L 318.651482 292.59 
L 318.939871 292.59 
L 319.22826 292.59 
L 319.516649 292.59 
L 319.805038 292.59 
L 320.093427 292.59 
L 320.381816 292.59 
L 320.670205 292.59 
L 320.958593 292.59 
L 321.246982 292.59 
L 321.535371 292.59 
L 321.82376 292.59 
L 322.112149 292.59 
L 322.400538 292.59 
L 322.688927 292.59 
L 322.977316 292.59 
L 323.265705 292.59 
L 323.554094 292.59 
L 323.842483 292.59 
L 324.130872 292.59 
L 324.41926 292.59 
L 324.707649 292.59 
L 324.996038 292.59 
L 325.284427 292.59 
L 325.572816 292.59 
L 325.861205 292.59 
L 326.149594 292.59 
L 326.437983 292.59 
L 326.726372 292.59 
L 327.014761 292.59 
L 327.30315 292.59 
L 327.591538 292.59 
L 327.879927 292.59 
L 328.168316 292.59 
L 328.456705 292.59 
L 328.745094 292.59 
L 329.033483 292.59 
L 329.321872 292.59 
L 329.610261 292.59 
L 329.89865 292.59 
L 330.187039 292.59 
L 330.475428 292.59 
L 330.763817 292.59 
L 331.052205 292.59 
L 331.340594 292.59 
L 331.628983 292.59 
L 331.917372 292.59 
L 332.205761 292.59 
L 332.49415 292.59 
L 332.782539 292.59 
L 333.070928 292.59 
L 333.359317 292.59 
L 333.647706 292.59 
L 333.936095 292.59 
L 334.224483 292.59 
L 334.512872 292.59 
L 334.801261 292.59 
L 335.08965 292.59 
L 335.378039 292.59 
L 335.666428 292.59 
L 335.954817 292.59 
L 336.243206 292.59 
L 336.531595 292.59 
L 336.819984 292.59 
L 337.108373 292.59 
L 337.396762 292.59 
L 337.68515 292.59 
L 337.973539 292.59 
L 338.261928 292.59 
L 338.550317 292.59 
L 338.838706 292.59 
L 339.127095 292.59 
L 339.415484 292.59 
L 339.415484 292.58643 
L 339.415484 292.58643 
L 339.127095 292.582014 
L 338.838706 292.571724 
L 338.550317 292.550718 
L 338.261928 292.511612 
L 337.973539 292.444764 
L 337.68515 292.33963 
L 337.396762 292.187259 
L 337.108373 291.983221 
L 336.819984 291.729583 
L 336.531595 291.434445 
L 336.243206 291.108548 
L 335.954817 290.760315 
L 335.666428 290.392137 
L 335.378039 290.000535 
L 335.08965 289.580428 
L 334.801261 289.130508 
L 334.512872 288.655101 
L 334.224483 288.159719 
L 333.936095 287.64207 
L 333.647706 287.084264 
L 333.359317 286.45206 
L 333.070928 285.702662 
L 332.782539 284.797027 
L 332.49415 283.710231 
L 332.205761 282.435913 
L 331.917372 280.985635 
L 331.628983 279.386692 
L 331.340594 277.680021 
L 331.052205 275.915586 
L 330.763817 274.141155 
L 330.475428 272.384753 
L 330.187039 270.638849 
L 329.89865 268.858164 
L 329.610261 266.977597 
L 329.321872 264.943992 
L 329.033483 262.74447 
L 328.745094 260.413741 
L 328.456705 258.014695 
L 328.168316 255.602925 
L 327.879927 253.195582 
L 327.591538 250.76177 
L 327.30315 248.237995 
L 327.014761 245.557432 
L 326.726372 242.675372 
L 326.437983 239.57865 
L 326.149594 236.279244 
L 325.861205 232.802329 
L 325.572816 229.180039 
L 325.284427 225.454706 
L 324.996038 221.686472 
L 324.707649 217.956905 
L 324.41926 214.363849 
L 324.130872 211.008781 
L 323.842483 207.981315 
L 323.554094 205.345361 
L 323.265705 203.130497 
L 322.977316 201.33197 
L 322.688927 199.921876 
L 322.400538 198.869588 
L 322.112149 198.162866 
L 321.82376 197.817658 
L 321.535371 197.869096 
L 321.246982 198.346806 
L 320.958593 199.247372 
L 320.670205 200.518883 
L 320.381816 202.066115 
L 320.093427 203.774352 
L 319.805038 205.540998 
L 319.516649 207.300998 
L 319.22826 209.035848 
L 318.939871 210.764672 
L 318.651482 212.525244 
L 318.363093 214.357271 
L 318.074704 216.296631 
L 317.786315 218.379424 
L 317.497927 220.645981 
L 317.209538 223.134647 
L 316.921149 225.864311 
L 316.63276 228.816262 
L 316.344371 231.930069 
L 316.055982 235.120587 
L 315.767593 238.309138 
L 315.479204 241.45185 
L 315.190815 244.549534 
L 314.902426 247.634723 
L 314.614037 250.744415 
L 314.325649 253.89334 
L 314.03726 257.060143 
L 313.748871 260.191012 
L 313.460482 263.217142 
L 313.172093 266.077123 
L 312.883704 268.734064 
L 312.595315 271.180369 
L 312.306926 273.429535 
L 312.018537 275.501223 
L 311.730148 277.408816 
L 311.441759 279.15573 
L 311.15337 280.740074 
L 310.864982 282.162005 
L 310.576593 283.427948 
L 310.288204 284.549975 
L 309.999815 285.542857 
L 309.711426 286.422041 
L 309.423037 287.203349 
L 309.134648 287.902724 
L 308.846259 288.534514 
L 308.55787 289.108981 
L 308.269481 289.63122 
L 307.981092 290.102678 
L 307.692704 290.524068 
L 307.404315 290.897318 
L 307.115926 291.225329 
L 306.827537 291.510519 
L 306.539148 291.754052 
L 306.250759 291.956634 
L 305.96237 292.120096 
L 305.673981 292.248318 
L 305.385592 292.346797 
L 305.097203 292.42136 
L 304.808814 292.477021 
L 304.520425 292.517618 
L 304.232037 292.546105 
L 303.943648 292.565023 
L 303.655259 292.576737 
L 303.36687 292.583387 
L 303.078481 292.586676 
L 302.790092 292.587639 
z
" style="fill:#33a02c;fill-opacity:0.25;"/>
   </g>
   <g id="PolyCollection_4">
    <path clip-path="url(#pa099428294)" d="M 220.754162 292.587326 
L 220.754162 292.59 
L 221.072751 292.59 
L 221.391339 292.59 
L 221.709928 292.59 
L 222.028517 292.59 
L 222.347105 292.59 
L 222.665694 292.59 
L 222.984283 292.59 
L 223.302871 292.59 
L 223.62146 292.59 
L 223.940049 292.59 
L 224.258637 292.59 
L 224.577226 292.59 
L 224.895814 292.59 
L 225.214403 292.59 
L 225.532992 292.59 
L 225.85158 292.59 
L 226.170169 292.59 
L 226.488758 292.59 
L 226.807346 292.59 
L 227.125935 292.59 
L 227.444524 292.59 
L 227.763112 292.59 
L 228.081701 292.59 
L 228.40029 292.59 
L 228.718878 292.59 
L 229.037467 292.59 
L 229.356056 292.59 
L 229.674644 292.59 
L 229.993233 292.59 
L 230.311821 292.59 
L 230.63041 292.59 
L 230.948999 292.59 
L 231.267587 292.59 
L 231.586176 292.59 
L 231.904765 292.59 
L 232.223353 292.59 
L 232.541942 292.59 
L 232.860531 292.59 
L 233.179119 292.59 
L 233.497708 292.59 
L 233.816297 292.59 
L 234.134885 292.59 
L 234.453474 292.59 
L 234.772063 292.59 
L 235.090651 292.59 
L 235.40924 292.59 
L 235.727829 292.59 
L 236.046417 292.59 
L 236.365006 292.59 
L 236.683594 292.59 
L 237.002183 292.59 
L 237.320772 292.59 
L 237.63936 292.59 
L 237.957949 292.59 
L 238.276538 292.59 
L 238.595126 292.59 
L 238.913715 292.59 
L 239.232304 292.59 
L 239.550892 292.59 
L 239.869481 292.59 
L 240.18807 292.59 
L 240.506658 292.59 
L 240.825247 292.59 
L 241.143836 292.59 
L 241.462424 292.59 
L 241.781013 292.59 
L 242.099601 292.59 
L 242.41819 292.59 
L 242.736779 292.59 
L 243.055367 292.59 
L 243.373956 292.59 
L 243.692545 292.59 
L 244.011133 292.59 
L 244.329722 292.59 
L 244.648311 292.59 
L 244.966899 292.59 
L 245.285488 292.59 
L 245.604077 292.59 
L 245.922665 292.59 
L 246.241254 292.59 
L 246.559843 292.59 
L 246.878431 292.59 
L 247.19702 292.59 
L 247.515608 292.59 
L 247.834197 292.59 
L 248.152786 292.59 
L 248.471374 292.59 
L 248.789963 292.59 
L 249.108552 292.59 
L 249.42714 292.59 
L 249.745729 292.59 
L 250.064318 292.59 
L 250.382906 292.59 
L 250.701495 292.59 
L 251.020084 292.59 
L 251.338672 292.59 
L 251.657261 292.59 
L 251.97585 292.59 
L 252.294438 292.59 
L 252.613027 292.59 
L 252.931615 292.59 
L 253.250204 292.59 
L 253.568793 292.59 
L 253.887381 292.59 
L 254.20597 292.59 
L 254.524559 292.59 
L 254.843147 292.59 
L 255.161736 292.59 
L 255.480325 292.59 
L 255.798913 292.59 
L 256.117502 292.59 
L 256.436091 292.59 
L 256.754679 292.59 
L 257.073268 292.59 
L 257.391857 292.59 
L 257.710445 292.59 
L 258.029034 292.59 
L 258.347623 292.59 
L 258.666211 292.59 
L 258.9848 292.59 
L 259.303388 292.59 
L 259.621977 292.59 
L 259.940566 292.59 
L 260.259154 292.59 
L 260.577743 292.59 
L 260.896332 292.59 
L 261.21492 292.59 
L 261.21492 292.587962 
L 261.21492 292.587962 
L 260.896332 292.586299 
L 260.577743 292.581668 
L 260.259154 292.572382 
L 259.940566 292.55614 
L 259.621977 292.53038 
L 259.303388 292.492019 
L 258.9848 292.435826 
L 258.666211 292.351242 
L 258.347623 292.218871 
L 258.029034 292.008814 
L 257.710445 291.68238 
L 257.391857 291.19657 
L 257.073268 290.508716 
L 256.754679 289.57851 
L 256.436091 288.366109 
L 256.117502 286.826943 
L 255.798913 284.905808 
L 255.480325 282.53486 
L 255.161736 279.641046 
L 254.843147 276.165748 
L 254.524559 272.091797 
L 254.20597 267.464201 
L 253.887381 262.388562 
L 253.568793 257.001437 
L 253.250204 251.425988 
L 252.931615 245.739411 
L 252.613027 239.972841 
L 252.294438 234.143329 
L 251.97585 228.298543 
L 251.657261 222.549994 
L 251.338672 217.076678 
L 251.020084 212.091596 
L 250.701495 207.779491 
L 250.382906 204.233419 
L 250.064318 201.425529 
L 249.745729 199.229454 
L 249.42714 197.478452 
L 249.108552 196.024585 
L 248.789963 194.775719 
L 248.471374 193.711503 
L 248.152786 192.887207 
L 247.834197 192.420624 
L 247.515608 192.448063 
L 247.19702 193.053647 
L 246.878431 194.208017 
L 246.559843 195.759997 
L 246.241254 197.49299 
L 245.922665 199.216122 
L 245.604077 200.845103 
L 245.285488 202.440756 
L 244.966899 204.191314 
L 244.648311 206.340637 
L 244.329722 209.08727 
L 244.011133 212.500845 
L 243.692545 216.497164 
L 243.373956 220.876914 
L 243.055367 225.396124 
L 242.736779 229.829538 
L 242.41819 234.007592 
L 242.099601 237.829408 
L 241.781013 241.262551 
L 241.462424 244.336541 
L 241.143836 247.129706 
L 240.825247 249.746797 
L 240.506658 252.290748 
L 240.18807 254.838487 
L 239.869481 257.428139 
L 239.550892 260.056279 
L 239.232304 262.681269 
L 238.913715 265.234364 
L 238.595126 267.641917 
L 238.276538 269.852822 
L 237.957949 271.855771 
L 237.63936 273.675349 
L 237.320772 275.35175 
L 237.002183 276.919889 
L 236.683594 278.399971 
L 236.365006 279.799625 
L 236.046417 281.119952 
L 235.727829 282.358813 
L 235.40924 283.510183 
L 235.090651 284.562818 
L 234.772063 285.502101 
L 234.453474 286.315926 
L 234.134885 287.001212 
L 233.816297 287.566308 
L 233.497708 288.028267 
L 233.179119 288.40866 
L 232.860531 288.731377 
L 232.541942 289.021478 
L 232.223353 289.301874 
L 231.904765 289.587875 
L 231.586176 289.883509 
L 231.267587 290.182634 
L 230.948999 290.473555 
L 230.63041 290.743581 
L 230.311821 290.981765 
L 229.993233 291.180861 
L 229.674644 291.339612 
L 229.356056 291.464358 
L 229.037467 291.567509 
L 228.718878 291.662119 
L 228.40029 291.755412 
L 228.081701 291.846093 
L 227.763112 291.927883 
L 227.444524 291.996531 
L 227.125935 292.054408 
L 226.807346 292.108999 
L 226.488758 292.167038 
L 226.170169 292.229305 
L 225.85158 292.289591 
L 225.532992 292.337574 
L 225.214403 292.363426 
L 224.895814 292.362412 
L 224.577226 292.338329 
L 224.258637 292.304097 
L 223.940049 292.277901 
L 223.62146 292.275641 
L 223.302871 292.303633 
L 222.984283 292.356202 
L 222.665694 292.41961 
L 222.347105 292.479344 
L 222.028517 292.52601 
L 221.709928 292.557054 
L 221.391339 292.574876 
L 221.072751 292.583716 
L 220.754162 292.587326 
z
" style="fill-opacity:0.25;"/>
   </g>
   <g id="PolyCollection_5">
    <path clip-path="url(#pa099428294)" d="M 265.791891 292.586049 
L 265.791891 292.59 
L 265.981637 292.59 
L 266.171384 292.59 
L 266.36113 292.59 
L 266.550877 292.59 
L 266.740623 292.59 
L 266.930369 292.59 
L 267.120116 292.59 
L 267.309862 292.59 
L 267.499609 292.59 
L 267.689355 292.59 
L 267.879102 292.59 
L 268.068848 292.59 
L 268.258595 292.59 
L 268.448341 292.59 
L 268.638087 292.59 
L 268.827834 292.59 
L 269.01758 292.59 
L 269.207327 292.59 
L 269.397073 292.59 
L 269.58682 292.59 
L 269.776566 292.59 
L 269.966312 292.59 
L 270.156059 292.59 
L 270.345805 292.59 
L 270.535552 292.59 
L 270.725298 292.59 
L 270.915045 292.59 
L 271.104791 292.59 
L 271.294537 292.59 
L 271.484284 292.59 
L 271.67403 292.59 
L 271.863777 292.59 
L 272.053523 292.59 
L 272.24327 292.59 
L 272.433016 292.59 
L 272.622762 292.59 
L 272.812509 292.59 
L 273.002255 292.59 
L 273.192002 292.59 
L 273.381748 292.59 
L 273.571495 292.59 
L 273.761241 292.59 
L 273.950988 292.59 
L 274.140734 292.59 
L 274.33048 292.59 
L 274.520227 292.59 
L 274.709973 292.59 
L 274.89972 292.59 
L 275.089466 292.59 
L 275.279213 292.59 
L 275.468959 292.59 
L 275.658705 292.59 
L 275.848452 292.59 
L 276.038198 292.59 
L 276.227945 292.59 
L 276.417691 292.59 
L 276.607438 292.59 
L 276.797184 292.59 
L 276.98693 292.59 
L 277.176677 292.59 
L 277.366423 292.59 
L 277.55617 292.59 
L 277.745916 292.59 
L 277.935663 292.59 
L 278.125409 292.59 
L 278.315155 292.59 
L 278.504902 292.59 
L 278.694648 292.59 
L 278.884395 292.59 
L 279.074141 292.59 
L 279.263888 292.59 
L 279.453634 292.59 
L 279.643381 292.59 
L 279.833127 292.59 
L 280.022873 292.59 
L 280.21262 292.59 
L 280.402366 292.59 
L 280.592113 292.59 
L 280.781859 292.59 
L 280.971606 292.59 
L 281.161352 292.59 
L 281.351098 292.59 
L 281.540845 292.59 
L 281.730591 292.59 
L 281.920338 292.59 
L 282.110084 292.59 
L 282.299831 292.59 
L 282.489577 292.59 
L 282.679323 292.59 
L 282.86907 292.59 
L 283.058816 292.59 
L 283.248563 292.59 
L 283.438309 292.59 
L 283.628056 292.59 
L 283.817802 292.59 
L 284.007548 292.59 
L 284.197295 292.59 
L 284.387041 292.59 
L 284.576788 292.59 
L 284.766534 292.59 
L 284.956281 292.59 
L 285.146027 292.59 
L 285.335774 292.59 
L 285.52552 292.59 
L 285.715266 292.59 
L 285.905013 292.59 
L 286.094759 292.59 
L 286.284506 292.59 
L 286.474252 292.59 
L 286.663999 292.59 
L 286.853745 292.59 
L 287.043491 292.59 
L 287.233238 292.59 
L 287.422984 292.59 
L 287.612731 292.59 
L 287.802477 292.59 
L 287.992224 292.59 
L 288.18197 292.59 
L 288.371716 292.59 
L 288.561463 292.59 
L 288.751209 292.59 
L 288.940956 292.59 
L 289.130702 292.59 
L 289.320449 292.59 
L 289.510195 292.59 
L 289.699941 292.59 
L 289.889688 292.59 
L 289.889688 292.583235 
L 289.889688 292.583235 
L 289.699941 292.571918 
L 289.510195 292.544335 
L 289.320449 292.488753 
L 289.130702 292.39399 
L 288.940956 292.257952 
L 288.751209 292.095462 
L 288.561463 291.9371 
L 288.371716 291.815085 
L 288.18197 291.743595 
L 287.992224 291.707965 
L 287.802477 291.670379 
L 287.612731 291.585279 
L 287.422984 291.412051 
L 287.233238 291.120133 
L 287.043491 290.690374 
L 286.853745 290.116007 
L 286.663999 289.402114 
L 286.474252 288.562998 
L 286.284506 287.619359 
L 286.094759 286.593739 
L 285.905013 285.497637 
L 285.715266 284.310206 
L 285.52552 282.965703 
L 285.335774 281.37253 
L 285.146027 279.462363 
L 284.956281 277.230473 
L 284.766534 274.721936 
L 284.576788 271.963582 
L 284.387041 268.900476 
L 284.197295 265.403988 
L 284.007548 261.355226 
L 283.817802 256.728183 
L 283.628056 251.586811 
L 283.438309 245.994516 
L 283.248563 239.932996 
L 283.058816 233.327878 
L 282.86907 226.16999 
L 282.679323 218.619324 
L 282.489577 210.992746 
L 282.299831 203.639859 
L 282.110084 196.788887 
L 281.920338 190.441829 
L 281.730591 184.363611 
L 281.540845 178.185947 
L 281.351098 171.601516 
L 281.161352 164.542371 
L 280.971606 157.205877 
L 280.781859 149.896542 
L 280.592113 142.814964 
L 280.402366 135.973241 
L 280.21262 129.304542 
L 280.022873 122.883377 
L 279.833127 117.093097 
L 279.643381 112.5889 
L 279.453634 110.016676 
L 279.263888 109.639072 
L 279.074141 111.140732 
L 278.884395 113.774209 
L 278.694648 116.743347 
L 278.504902 119.564998 
L 278.315155 122.219539 
L 278.125409 125.063868 
L 277.935663 128.592793 
L 277.745916 133.183262 
L 277.55617 138.950164 
L 277.366423 145.761149 
L 277.176677 153.348124 
L 276.98693 161.418625 
L 276.797184 169.723227 
L 276.607438 178.082711 
L 276.417691 186.37468 
L 276.227945 194.47924 
L 276.038198 202.225759 
L 275.848452 209.409463 
L 275.658705 215.893808 
L 275.468959 221.723533 
L 275.279213 227.145965 
L 275.089466 232.506401 
L 274.89972 238.079145 
L 274.709973 243.93814 
L 274.520227 249.937115 
L 274.33048 255.792974 
L 274.140734 261.206529 
L 273.950988 265.951511 
L 273.761241 269.906777 
L 273.571495 273.05236 
L 273.381748 275.461345 
L 273.192002 277.296376 
L 273.002255 278.791151 
L 272.812509 280.195129 
L 272.622762 281.689338 
L 272.433016 283.316088 
L 272.24327 284.97119 
L 272.053523 286.473084 
L 271.863777 287.670908 
L 271.67403 288.524333 
L 271.484284 289.109028 
L 271.294537 289.556936 
L 271.104791 289.981585 
L 270.915045 290.43447 
L 270.725298 290.904758 
L 270.535552 291.347149 
L 270.345805 291.716081 
L 270.156059 291.989795 
L 269.966312 292.175736 
L 269.776566 292.298921 
L 269.58682 292.384257 
L 269.397073 292.445209 
L 269.207327 292.483618 
L 269.01758 292.496594 
L 268.827834 292.483836 
L 268.638087 292.451329 
L 268.448341 292.41045 
L 268.258595 292.373335 
L 268.068848 292.347479 
L 267.879102 292.333832 
L 267.689355 292.3302 
L 267.499609 292.336422 
L 267.309862 292.355549 
L 267.120116 292.389713 
L 266.930369 292.435514 
L 266.740623 292.484177 
L 266.550877 292.526273 
L 266.36113 292.55644 
L 266.171384 292.57451 
L 265.981637 292.583389 
L 265.791891 292.586049 
z
" style="fill:#1f78b4;fill-opacity:0.25;"/>
   </g>
   <g id="PolyCollection_6">
    <path clip-path="url(#pa099428294)" d="M 461.289525 292.585378 
L 461.289525 292.59 
L 461.4092 292.59 
L 461.528875 292.59 
L 461.64855 292.59 
L 461.768225 292.59 
L 461.8879 292.59 
L 462.007575 292.59 
L 462.12725 292.59 
L 462.246925 292.59 
L 462.3666 292.59 
L 462.486275 292.59 
L 462.60595 292.59 
L 462.725625 292.59 
L 462.8453 292.59 
L 462.964975 292.59 
L 463.08465 292.59 
L 463.204325 292.59 
L 463.324 292.59 
L 463.443676 292.59 
L 463.563351 292.59 
L 463.683026 292.59 
L 463.802701 292.59 
L 463.922376 292.59 
L 464.042051 292.59 
L 464.161726 292.59 
L 464.281401 292.59 
L 464.401076 292.59 
L 464.520751 292.59 
L 464.640426 292.59 
L 464.760101 292.59 
L 464.879776 292.59 
L 464.999451 292.59 
L 465.119126 292.59 
L 465.238801 292.59 
L 465.358476 292.59 
L 465.478151 292.59 
L 465.597826 292.59 
L 465.717501 292.59 
L 465.837176 292.59 
L 465.956851 292.59 
L 466.076526 292.59 
L 466.196201 292.59 
L 466.315876 292.59 
L 466.435551 292.59 
L 466.555226 292.59 
L 466.674901 292.59 
L 466.794576 292.59 
L 466.914252 292.59 
L 467.033927 292.59 
L 467.153602 292.59 
L 467.273277 292.59 
L 467.392952 292.59 
L 467.512627 292.59 
L 467.632302 292.59 
L 467.751977 292.59 
L 467.871652 292.59 
L 467.991327 292.59 
L 468.111002 292.59 
L 468.230677 292.59 
L 468.350352 292.59 
L 468.470027 292.59 
L 468.589702 292.59 
L 468.709377 292.59 
L 468.829052 292.59 
L 468.948727 292.59 
L 469.068402 292.59 
L 469.188077 292.59 
L 469.307752 292.59 
L 469.427427 292.59 
L 469.547102 292.59 
L 469.666777 292.59 
L 469.786452 292.59 
L 469.906127 292.59 
L 470.025802 292.59 
L 470.145477 292.59 
L 470.265152 292.59 
L 470.384828 292.59 
L 470.504503 292.59 
L 470.624178 292.59 
L 470.743853 292.59 
L 470.863528 292.59 
L 470.983203 292.59 
L 471.102878 292.59 
L 471.222553 292.59 
L 471.342228 292.59 
L 471.461903 292.59 
L 471.581578 292.59 
L 471.701253 292.59 
L 471.820928 292.59 
L 471.940603 292.59 
L 472.060278 292.59 
L 472.179953 292.59 
L 472.299628 292.59 
L 472.419303 292.59 
L 472.538978 292.59 
L 472.658653 292.59 
L 472.778328 292.59 
L 472.898003 292.59 
L 473.017678 292.59 
L 473.137353 292.59 
L 473.257028 292.59 
L 473.376703 292.59 
L 473.496378 292.59 
L 473.616053 292.59 
L 473.735728 292.59 
L 473.855403 292.59 
L 473.975079 292.59 
L 474.094754 292.59 
L 474.214429 292.59 
L 474.334104 292.59 
L 474.453779 292.59 
L 474.573454 292.59 
L 474.693129 292.59 
L 474.812804 292.59 
L 474.932479 292.59 
L 475.052154 292.59 
L 475.171829 292.59 
L 475.291504 292.59 
L 475.411179 292.59 
L 475.530854 292.59 
L 475.650529 292.59 
L 475.770204 292.59 
L 475.889879 292.59 
L 476.009554 292.59 
L 476.129229 292.59 
L 476.248904 292.59 
L 476.368579 292.59 
L 476.488254 292.59 
L 476.488254 292.585332 
L 476.488254 292.585332 
L 476.368579 292.580124 
L 476.248904 292.567037 
L 476.129229 292.541303 
L 476.009554 292.497751 
L 475.889879 292.433588 
L 475.770204 292.351076 
L 475.650529 292.257999 
L 475.530854 292.164528 
L 475.411179 292.077551 
L 475.291504 291.995394 
L 475.171829 291.905588 
L 475.052154 291.786594 
L 474.932479 291.613419 
L 474.812804 291.366605 
L 474.693129 291.042455 
L 474.573454 290.65926 
L 474.453779 290.253011 
L 474.334104 289.859956 
L 474.214429 289.492249 
L 474.094754 289.1212 
L 473.975079 288.682243 
L 473.855403 288.102506 
L 473.735728 287.333736 
L 473.616053 286.366596 
L 473.496378 285.215583 
L 473.376703 283.885927 
L 473.257028 282.344586 
L 473.137353 280.51009 
L 473.017678 278.262178 
L 472.898003 275.465589 
L 472.778328 272.002769 
L 472.658653 267.807217 
L 472.538978 262.880872 
L 472.419303 257.280347 
L 472.299628 251.079436 
L 472.179953 244.342099 
L 472.060278 237.136582 
L 471.940603 229.579676 
L 471.820928 221.858047 
L 471.701253 214.177248 
L 471.581578 206.644446 
L 471.461903 199.157426 
L 471.342228 191.394658 
L 471.222553 182.949151 
L 471.102878 173.546204 
L 470.983203 163.207009 
L 470.863528 152.240551 
L 470.743853 141.065583 
L 470.624178 129.989581 
L 470.504503 119.093799 
L 470.384828 108.276392 
L 470.265152 97.384873 
L 470.145477 86.332891 
L 470.025802 75.155033 
L 469.906127 64.024598 
L 469.786452 53.267359 
L 469.666777 43.356798 
L 469.547102 34.844264 
L 469.427427 28.213757 
L 469.307752 23.726065 
L 469.188077 21.34604 
L 469.068402 20.79 
L 468.948727 21.648826 
L 468.829052 23.520263 
L 468.709377 26.118212 
L 468.589702 29.347896 
L 468.470027 33.323151 
L 468.350352 38.304327 
L 468.230677 44.573057 
L 468.111002 52.28878 
L 467.991327 61.365717 
L 467.871652 71.40462 
L 467.751977 81.73065 
L 467.632302 91.577049 
L 467.512627 100.373874 
L 467.392952 108.006828 
L 467.273277 114.897388 
L 467.153602 121.842799 
L 467.033927 129.679348 
L 466.914252 138.923958 
L 466.794576 149.568392 
L 466.674901 161.128939 
L 466.555226 172.911592 
L 466.435551 184.325292 
L 466.315876 195.064543 
L 466.196201 205.094914 
L 466.076526 214.50937 
L 465.956851 223.377672 
L 465.837176 231.673469 
L 465.717501 239.290716 
L 465.597826 246.108014 
L 465.478151 252.048958 
L 465.358476 257.110811 
L 465.238801 261.363654 
L 465.119126 264.932311 
L 464.999451 267.967158 
L 464.879776 270.609284 
L 464.760101 272.964186 
L 464.640426 275.097532 
L 464.520751 277.049101 
L 464.401076 278.846803 
L 464.281401 280.509461 
L 464.161726 282.044047 
L 464.042051 283.448199 
L 463.922376 284.718993 
L 463.802701 285.859732 
L 463.683026 286.878953 
L 463.563351 287.785076 
L 463.443676 288.584682 
L 463.324 289.286827 
L 463.204325 289.90672 
L 463.08465 290.460939 
L 462.964975 290.956015 
L 462.8453 291.381957 
L 462.725625 291.719674 
L 462.60595 291.958125 
L 462.486275 292.107241 
L 462.3666 292.196227 
L 462.246925 292.259295 
L 462.12725 292.320198 
L 462.007575 292.385778 
L 461.8879 292.450314 
L 461.768225 292.504777 
L 461.64855 292.543888 
L 461.528875 292.567873 
L 461.4092 292.580359 
L 461.289525 292.585378 
z
" style="fill:#ff7f00;fill-opacity:0.25;"/>
   </g>
   <g id="line2d_12">
    <path clip-path="url(#pa099428294)" d="M 70.670072 292.588254 
L 72.418175 292.478355 
L 74.457628 292.056558 
L 75.623029 291.68769 
L 76.20573 291.160702 
L 77.079781 290.288852 
L 77.662482 289.772598 
L 78.245183 288.846702 
L 79.119234 286.763489 
L 79.701935 284.919 
L 80.284636 281.918852 
L 81.158687 275.056334 
L 82.032738 266.361392 
L 83.19814 251.508843 
L 84.946242 227.357121 
L 85.820293 212.974716 
L 87.277045 187.438204 
L 87.859746 181.391025 
L 88.442447 177.984346 
L 88.733797 176.970672 
L 89.025148 176.411658 
L 89.316498 176.41279 
L 89.607848 177.118526 
L 89.899199 178.659838 
L 90.4819 184.272785 
L 91.938652 201.366987 
L 92.521352 207.814732 
L 93.104053 216.391042 
L 94.269455 238.946545 
L 95.143506 255.063408 
L 95.726207 263.190504 
L 96.308908 268.597854 
L 97.182959 273.501417 
L 98.34836 279.836347 
L 99.513762 286.445257 
L 100.096463 288.386322 
L 100.679164 289.318722 
L 101.553215 290.399141 
L 102.427266 291.4916 
L 103.009967 291.866344 
L 104.175369 292.23834 
L 105.632121 292.448863 
L 107.380223 292.586023 
L 107.671573 292.588259 
L 107.671573 292.588259 
" style="fill:none;stroke:#e31a1c;stroke-linecap:round;stroke-width:2;"/>
   </g>
   <g id="line2d_13">
    <path clip-path="url(#pa099428294)" d="M 288.480827 292.586893 
L 289.226461 292.512207 
L 290.158504 292.102608 
L 291.276955 291.476841 
L 291.649773 291.129406 
L 292.02259 290.412741 
L 292.581815 288.714009 
L 292.954633 287.205403 
L 293.32745 284.564027 
L 293.886676 278.002264 
L 294.445901 269.629716 
L 295.005127 257.460205 
L 295.564353 240.234411 
L 296.869213 189.061213 
L 298.54689 119.894549 
L 298.919707 112.943146 
L 299.292524 110.30037 
L 299.478933 110.270258 
L 299.665341 110.785727 
L 299.85175 111.766761 
L 300.038159 113.461184 
L 300.410976 120.762393 
L 300.970202 141.16694 
L 302.834287 213.532719 
L 304.884782 262.914065 
L 305.444007 271.240679 
L 306.003233 275.723245 
L 306.748868 281.301997 
L 307.494502 287.073143 
L 307.867319 288.917564 
L 308.240136 289.996953 
L 308.98577 291.29463 
L 309.544996 291.953607 
L 309.917813 292.072037 
L 310.663448 292.131098 
L 311.781899 292.567854 
L 312.154716 292.586489 
L 312.154716 292.586489 
" style="fill:none;stroke:#0000ff;stroke-linecap:round;stroke-width:2;"/>
   </g>
   <g id="line2d_14">
    <path clip-path="url(#pa099428294)" d="M 302.790092 292.587639 
L 304.808814 292.477021 
L 305.673981 292.248318 
L 306.539148 291.754052 
L 307.404315 290.897318 
L 308.269481 289.63122 
L 309.134648 287.902724 
L 309.999815 285.542857 
L 310.576593 283.427948 
L 311.441759 279.15573 
L 312.306926 273.429535 
L 313.172093 266.077123 
L 314.614037 250.744415 
L 317.497927 220.645981 
L 318.363093 214.357271 
L 320.381816 202.066115 
L 320.958593 199.247372 
L 321.246982 198.346806 
L 321.535371 197.869096 
L 321.82376 197.817658 
L 322.112149 198.162866 
L 322.400538 198.869588 
L 322.977316 201.33197 
L 323.554094 205.345361 
L 324.130872 211.008781 
L 325.284427 225.454706 
L 326.726372 242.675372 
L 327.879927 253.195582 
L 329.610261 266.977597 
L 331.340594 277.680021 
L 332.205761 282.435913 
L 332.782539 284.797027 
L 333.359317 286.45206 
L 334.224483 288.159719 
L 335.378039 290.000535 
L 336.531595 291.434445 
L 337.396762 292.187259 
L 337.973539 292.444764 
L 338.838706 292.571724 
L 339.415484 292.58643 
L 339.415484 292.58643 
" style="fill:none;stroke:#33a02c;stroke-linecap:round;stroke-width:2;"/>
   </g>
   <g id="line2d_15">
    <path clip-path="url(#pa099428294)" d="M 220.754162 292.587326 
L 222.347105 292.479344 
L 223.940049 292.277901 
L 225.532992 292.337574 
L 228.081701 291.846093 
L 229.674644 291.339612 
L 230.63041 290.743581 
L 232.860531 288.731377 
L 233.497708 288.028267 
L 234.134885 287.001212 
L 234.772063 285.502101 
L 235.727829 282.358813 
L 236.683594 278.399971 
L 237.63936 273.675349 
L 238.595126 267.641917 
L 240.18807 254.838487 
L 241.781013 241.262551 
L 242.736779 229.829538 
L 244.329722 209.08727 
L 244.966899 204.191314 
L 246.878431 194.208017 
L 247.19702 193.053647 
L 247.515608 192.448063 
L 247.834197 192.420624 
L 248.152786 192.887207 
L 248.789963 194.775719 
L 249.42714 197.478452 
L 250.064318 201.425529 
L 250.701495 207.779491 
L 251.338672 217.076678 
L 254.843147 276.165748 
L 255.480325 282.53486 
L 256.117502 286.826943 
L 256.754679 289.57851 
L 257.391857 291.19657 
L 258.029034 292.008814 
L 258.666211 292.351242 
L 259.621977 292.53038 
L 261.21492 292.587962 
L 261.21492 292.587962 
" style="fill:none;stroke:#000000;stroke-linecap:round;stroke-width:2;"/>
   </g>
   <g id="line2d_16">
    <path clip-path="url(#pa099428294)" d="M 265.791891 292.586049 
L 266.740623 292.484177 
L 267.689355 292.3302 
L 268.638087 292.451329 
L 269.207327 292.483618 
L 269.776566 292.298921 
L 270.156059 291.989795 
L 270.535552 291.347149 
L 271.67403 288.524333 
L 272.053523 286.473084 
L 273.381748 275.461345 
L 273.761241 269.906777 
L 274.33048 255.792974 
L 276.227945 194.47924 
L 277.745916 133.183262 
L 278.125409 125.063868 
L 279.263888 109.639072 
L 279.453634 110.016676 
L 279.643381 112.5889 
L 280.022873 122.883377 
L 281.161352 164.542371 
L 283.438309 245.994516 
L 284.197295 265.403988 
L 284.766534 274.721936 
L 285.335774 281.37253 
L 285.905013 285.497637 
L 286.663999 289.402114 
L 287.233238 291.120133 
L 287.612731 291.585279 
L 288.940956 292.257952 
L 289.510195 292.544335 
L 289.889688 292.583235 
L 289.889688 292.583235 
" style="fill:none;stroke:#1f78b4;stroke-linecap:round;stroke-width:2;"/>
   </g>
   <g id="line2d_17">
    <path clip-path="url(#pa099428294)" d="M 461.289525 292.585378 
L 461.8879 292.450314 
L 462.60595 291.958125 
L 462.8453 291.381957 
L 463.324 289.286827 
L 463.802701 285.859732 
L 464.281401 280.509461 
L 464.760101 272.964186 
L 465.238801 261.363654 
L 465.597826 246.108014 
L 466.076526 214.50937 
L 466.794576 149.568392 
L 467.273277 114.897388 
L 467.751977 81.73065 
L 468.350352 38.304327 
L 468.709377 26.118212 
L 468.948727 21.648826 
L 469.068402 20.79 
L 469.188077 21.34604 
L 469.427427 28.213757 
L 469.786452 53.267359 
L 471.581578 206.644446 
L 472.658653 267.807217 
L 473.017678 278.262178 
L 473.496378 285.215583 
L 473.855403 288.102506 
L 474.214429 289.492249 
L 475.052154 291.786594 
L 475.770204 292.351076 
L 476.248904 292.567037 
L 476.488254 292.585332 
L 476.488254 292.585332 
" style="fill:none;stroke:#ff7f00;stroke-linecap:round;stroke-width:2;"/>
   </g>
   <g id="line2d_18">
    <path clip-path="url(#pa099428294)" d="M 321.348014 306.18 
L 321.348014 7.2 
" style="fill:none;stroke:#33a02c;stroke-dasharray:8.4,3.6;stroke-dashoffset:0;stroke-width:3;"/>
   </g>
   <g id="patch_3">
    <path d="M 50.379163 306.18 
L 50.379163 7.2 
" style="fill:none;"/>
   </g>
   <g id="patch_4">
    <path d="M 496.779163 306.18 
L 496.779163 7.2 
" style="fill:none;"/>
   </g>
   <g id="patch_5">
    <path d="M 50.379163 306.18 
L 496.779163 306.18 
" style="fill:none;"/>
   </g>
   <g id="patch_6">
    <path d="M 50.379163 7.2 
L 496.779163 7.2 
" style="fill:none;"/>
   </g>
   <g id="legend_1">
    <g id="line2d_19">
     <path d="M 62.979163 24.7 
L 90.979163 24.7 
" style="fill:none;stroke:#e31a1c;stroke-linecap:round;stroke-width:2;"/>
    </g>
    <g id="line2d_20"/>
    <g id="text_14">
     <!-- Suppression -->
     <defs>
      <path d="M 5.09375 13.015625 
C 4.90625 11.390625 4.5 9.671875 4.296875 8.046875 
C 4.09375 6.53125 3.59375 6.109375 4.90625 5.3125 
C 8.296875 3.390625 11.203125 2.0625 15.40625 0.75 
C 24.796875 -2 35.59375 -2 43.796875 4.140625 
C 45.09375 5.140625 46.296875 6.234375 47.40625 7.53125 
C 49.90625 10.890625 52.203125 14.96875 51.59375 20.53125 
C 50.90625 27.671875 46.09375 33.625 39.59375 36.609375 
C 30.703125 40.578125 16.203125 40.578125 12.203125 49.375 
C 9.09375 56.1875 14.59375 62.171875 20.796875 64.375 
C 26.90625 66.6875 34.90625 65.78125 40.09375 63.375 
C 42.5 62.265625 44.5 60.65625 46.703125 59.25 
C 46.90625 60.96875 47.296875 62.578125 47.59375 64.28125 
C 47.796875 65.375 48.09375 66.390625 46.90625 66.78125 
L 45 67.796875 
C 42.296875 69 39.5 69.90625 36.59375 70.5 
C 27.59375 72.203125 17.203125 71.203125 10.40625 64.484375 
C 7 61.0625 4.09375 56.4375 5.296875 49.515625 
C 6.703125 42.390625 12.296875 37.875 18.09375 35.65625 
C 21.5 34.359375 25.296875 33.65625 28.90625 32.75 
C 31 32.34375 33.203125 31.84375 35.296875 31.140625 
C 40.703125 29.125 45.40625 25.109375 45.40625 17.6875 
C 44.796875 11.296875 39.203125 6.625 33.296875 5.203125 
C 25.703125 3.265625 16.703125 6.015625 11.5 8.75 
C 9.203125 9.96875 7.203125 11.59375 5.09375 13.015625 
" id="Computer_Modern_Bright-83"/>
      <path d="M 12.5 34.75 
L 12.40625 34.75 
L 12.40625 47.390625 
L 6.40625 47.390625 
L 6.40625 0 
L 12.703125 0 
L 12.703125 22.890625 
C 12.703125 24.40625 12.703125 25.90625 12.90625 27.40625 
C 14.296875 35.953125 21.703125 42.28125 31.40625 42.28125 
L 31.40625 48 
C 25 48 19.09375 44.890625 15.296875 39.765625 
C 14.203125 38.265625 13 36.546875 12.5 34.75 
" id="Computer_Modern_Bright-114"/>
     </defs>
     <g style="fill:#262626;" transform="translate(102.179163 29.6)scale(0.14 -0.14)">
      <use transform="scale(0.996264)" xlink:href="#Computer_Modern_Bright-83"/>
      <use transform="translate(56.454753 0)scale(0.996264)" xlink:href="#Computer_Modern_Bright-117"/>
      <use transform="translate(104.60725 0)scale(0.996264)" xlink:href="#Computer_Modern_Bright-112"/>
      <use transform="translate(152.759747 0)scale(0.996264)" xlink:href="#Computer_Modern_Bright-112"/>
      <use transform="translate(198.006514 0)scale(0.996264)" xlink:href="#Computer_Modern_Bright-114"/>
      <use transform="translate(229.969873 0)scale(0.996264)" xlink:href="#Computer_Modern_Bright-101"/>
      <use transform="translate(274.801541 0)scale(0.996264)" xlink:href="#Computer_Modern_Bright-115"/>
      <use transform="translate(313.24057 0)scale(0.996264)" xlink:href="#Computer_Modern_Bright-115"/>
      <use transform="translate(351.679599 0)scale(0.996264)" xlink:href="#Computer_Modern_Bright-105"/>
      <use transform="translate(370.774558 0)scale(0.996264)" xlink:href="#Computer_Modern_Bright-111"/>
      <use transform="translate(421.417776 0)scale(0.996264)" xlink:href="#Computer_Modern_Bright-110"/>
     </g>
    </g>
    <g id="line2d_21">
     <path d="M 62.979163 43.824611 
L 90.979163 43.824611 
" style="fill:none;stroke:#0000ff;stroke-linecap:round;stroke-width:2;"/>
    </g>
    <g id="line2d_22"/>
    <g id="text_15">
     <!-- \emph{rhy-1} $&gt;$ \emph{vhl-1} -->
     <defs>
      <path d="M 19.90625 35.53125 
L 19.796875 35.53125 
L 22.40625 48.15625 
L 16.40625 48.15625 
L 6.40625 0.5 
L 10.90625 0.5 
C 11.40625 0.5 12.203125 0.296875 12.59375 0.703125 
C 12.90625 0.90625 13.5 4.4375 13.796875 5.65625 
L 16.703125 19.578125 
C 17.5 23.109375 18 26.859375 19.59375 30.1875 
C 23.40625 37.84375 31.90625 43 40.40625 43 
L 41.5 48.765625 
C 34.90625 48.765625 28.59375 45.421875 24 40.78125 
C 22.5 39.265625 20.90625 37.453125 19.90625 35.53125 
M 19.703125 34.953125 
C 19.703125 34.953125 19.796875 34.953125 19.796875 34.953125 
C 19.796875 34.859375 19.703125 34.75 19.703125 34.953125 
" id="Computer_Modern_Bright_Slanted-114"/>
      <path d="M 21.09375 70 
L 6.40625 0 
L 10.90625 0 
C 11.796875 0 13 -0.296875 13 1.015625 
C 13.203125 1.71875 13.296875 2.328125 13.40625 3.03125 
C 14.40625 7.78125 19 29.5 19.296875 30.40625 
C 20.40625 33.953125 22.40625 37.375 25.09375 39.90625 
C 28 42.4375 31.203125 43.84375 36.59375 42.9375 
C 38.796875 42.53125 40.90625 41.625 42 39.5 
C 43.5 36.46875 42.40625 32.9375 41.796875 29.90625 
L 35.5 0 
L 40.203125 0 
C 41.203125 0 42.09375 -0.203125 42.09375 1.109375 
C 42.703125 3.125 44.09375 10.625 44.09375 10.625 
L 48.59375 32 
C 49.40625 35.734375 50.296875 40.40625 48.203125 43.9375 
C 46.296875 46.984375 42.90625 48 39.59375 48.296875 
C 38.09375 48.296875 36.5 48.296875 35 48 
C 30.796875 47.3125 27.09375 45.09375 24.09375 42.09375 
C 22.90625 40.890625 21.5 39.59375 20.796875 37.984375 
L 20.703125 37.984375 
L 27.40625 70 
z
" id="Computer_Modern_Bright_Slanted-104"/>
      <path d="M 10.703125 48 
C 11.203125 44.265625 12 40.625 12.703125 36.890625 
C 13.09375 34.359375 19 0.8125 19 0.515625 
C 19 -0.09375 18.59375 -0.59375 18.296875 -1.109375 
L 16.59375 -4.140625 
C 14.703125 -7.265625 12.796875 -10.5 9 -11.8125 
C 6 -12.71875 0.5 -11.40625 -1.5 -10.796875 
C -1.796875 -12.625 -2 -14.53125 -2.203125 -16.453125 
C 0.5 -16.859375 5.40625 -17.46875 8.09375 -16.96875 
C 15.203125 -15.34375 19.203125 -8.671875 22.5 -3.21875 
L 44.09375 34.359375 
L 49.203125 43.359375 
C 50.09375 44.859375 51.203125 46.375 51.796875 48 
C 49.703125 48 47.40625 48 45.59375 47.703125 
C 43.203125 44.078125 41.203125 40.046875 38.90625 36.21875 
C 33.59375 26.4375 27.703125 17.359375 23.203125 6.78125 
L 23.09375 6.78125 
C 23.40625 8.390625 23.09375 10.109375 22.90625 11.734375 
C 21.796875 22.546875 18.59375 39.71875 17.09375 48 
z
" id="Computer_Modern_Bright_Slanted-121"/>
      <path d="M 5.90625 26.0625 
L 4.90625 21 
L 32.796875 21 
L 33.796875 26.0625 
z
" id="Computer_Modern_Bright_Slanted-45"/>
      <path d="M 22.5 61 
L 21.5 55.9375 
C 26.296875 55.9375 31.40625 56.546875 35.703125 58.875 
L 24.5 5.046875 
C 20.296875 5.046875 15.296875 5.5625 11.5 5.046875 
C 10.90625 3.578125 10.703125 1.671875 10.296875 0 
C 21.09375 0 32.59375 0 42.796875 0 
C 43.40625 1.453125 43.703125 3.296875 44.09375 5.046875 
L 31 5.046875 
C 35.203125 26.0625 39.796875 46.59375 44.09375 67.5 
C 41.703125 67.5 42 67.09375 40 65.59375 
C 35.59375 62.59375 28.90625 61 22.5 61 
" id="Computer_Modern_Bright_Slanted-49"/>
      <path d="M 62.59375 26.546875 
L 62.59375 26.34375 
C 60.296875 25.546875 58 24.25 55.796875 23.140625 
L 27.09375 9.625 
L 11.09375 2 
C 10.40625 1.703125 9.40625 1.296875 8.90625 0.796875 
C 8 -0.203125 8.203125 -1.703125 9.296875 -2.296875 
C 10.5 -3 11.703125 -2.109375 12.796875 -1.609375 
L 21 2.203125 
C 25.203125 4.3125 55 18.328125 55 18.328125 
L 66 23.546875 
C 67.296875 24.140625 69.40625 24.75 69.40625 26.453125 
C 69.40625 28.15625 67.296875 28.75 66 29.359375 
L 55 34.5625 
L 33.703125 44.6875 
C 29.5 46.6875 25.203125 48.59375 21 50.703125 
L 12.796875 54.5 
C 11.703125 55 10.5 55.90625 9.296875 55.203125 
C 8.203125 54.609375 8 53.09375 8.90625 52.09375 
C 9.40625 51.59375 10.40625 51.203125 11.09375 50.890625 
L 41.59375 36.46875 
L 55.796875 29.75 
C 58 28.65625 60.296875 27.359375 62.59375 26.546875 
" id="Computer_Modern_Bright_Math_Slanted-62"/>
      <path d="M 10.703125 48 
C 12.796875 33.046875 15.09375 18.171875 17.09375 3.125 
C 17.296875 2.109375 17.296875 0.90625 17.796875 0.203125 
C 19.90625 0 22.59375 0 24.703125 0 
L 25.296875 0.703125 
L 44.703125 35.109375 
L 51.796875 48 
C 49.703125 48 47.5 48 45.703125 47.703125 
C 44.90625 46.59375 44.296875 45.484375 43.59375 44.265625 
C 36.59375 31.84375 29.40625 19.515625 22.703125 6.6875 
C 21.59375 16.984375 20 26.6875 18.59375 36.6875 
C 18 40.328125 17.90625 44.46875 16.90625 47.703125 
C 15.09375 48 12.796875 48 10.703125 48 
" id="Computer_Modern_Bright_Slanted-118"/>
      <path d="M 21.09375 70 
L 6.40625 0 
C 8.5 0 10.796875 0 12.59375 0.296875 
L 13 1.40625 
C 14 6.4375 15.09375 11.375 16.203125 16.40625 
L 27.40625 70 
z
" id="Computer_Modern_Bright_Slanted-108"/>
     </defs>
     <g style="fill:#262626;" transform="translate(102.179163 48.724611)scale(0.14 -0.14)">
      <use transform="scale(0.996264)" xlink:href="#Computer_Modern_Bright_Slanted-114"/>
      <use transform="translate(31.963359 0)scale(0.996264)" xlink:href="#Computer_Modern_Bright_Slanted-104"/>
      <use transform="translate(80.115856 0)scale(0.996264)" xlink:href="#Computer_Modern_Bright_Slanted-121"/>
      <use transform="translate(122.456894 0)scale(0.996264)" xlink:href="#Computer_Modern_Bright_Slanted-45"/>
      <use transform="translate(155.665567 0)scale(0.996264)" xlink:href="#Computer_Modern_Bright_Slanted-49"/>
      <use transform="translate(248.750337 0)scale(0.996264)" xlink:href="#Computer_Modern_Bright_Math_Slanted-62"/>
      <use transform="translate(357.703017 0)scale(0.996264)" xlink:href="#Computer_Modern_Bright_Slanted-118"/>
      <use transform="translate(400.044055 0)scale(0.996264)" xlink:href="#Computer_Modern_Bright_Slanted-104"/>
      <use transform="translate(448.196552 0)scale(0.996264)" xlink:href="#Computer_Modern_Bright_Slanted-108"/>
      <use transform="translate(467.291511 0)scale(0.996264)" xlink:href="#Computer_Modern_Bright_Slanted-45"/>
      <use transform="translate(500.500184 0)scale(0.996264)" xlink:href="#Computer_Modern_Bright_Slanted-49"/>
     </g>
    </g>
    <g id="line2d_23">
     <path d="M 62.979163 62.949222 
L 90.979163 62.949222 
" style="fill:none;stroke:#33a02c;stroke-linecap:round;stroke-width:2;"/>
    </g>
    <g id="line2d_24"/>
    <g id="text_16">
     <!-- data -->
     <defs>
      <path d="M 35.59375 69.6875 
L 35.59375 41.375 
C 33.703125 43.484375 31.796875 45.484375 29.203125 46.6875 
C 20.296875 50.40625 11.703125 45.59375 7.296875 37.65625 
C 2.203125 28.21875 2.796875 15.765625 8.90625 6.921875 
C 13.203125 0.796875 20.296875 -2.203125 27.796875 0.5 
C 30.703125 1.609375 34.203125 4.515625 35.40625 7.125 
L 35.5 7.125 
L 35.5 0 
L 41.90625 0 
L 41.90625 69.6875 
z
M 35.203125 37.453125 
C 35.703125 36.546875 35.5 35.34375 35.5 34.34375 
L 35.5 13.65625 
C 35.5 11.34375 35.40625 11.140625 34.09375 9.34375 
C 32.296875 6.625 29.5 4.71875 26.203125 4.421875 
C 21.40625 4.015625 16.5 6.328125 13.703125 10.25 
C 12.09375 12.546875 11.203125 15.359375 10.703125 18.171875 
C 10.5 19.28125 10.5 20.28125 10.40625 21.390625 
C 9.796875 28.015625 11.203125 35.84375 17 40.0625 
C 18 40.765625 19.09375 41.265625 20.203125 41.765625 
C 26 43.984375 32.40625 43.375 35.203125 37.453125 
" id="Computer_Modern_Bright-100"/>
     </defs>
     <g style="fill:#262626;" transform="translate(102.179163 67.849222)scale(0.14 -0.14)">
      <use transform="scale(0.996264)" xlink:href="#Computer_Modern_Bright-100"/>
      <use transform="translate(48.152497 0)scale(0.996264)" xlink:href="#Computer_Modern_Bright-97"/>
      <use transform="translate(94.644579 0)scale(0.996264)" xlink:href="#Computer_Modern_Bright-116"/>
      <use transform="translate(130.758967 0)scale(0.996264)" xlink:href="#Computer_Modern_Bright-97"/>
     </g>
    </g>
    <g id="line2d_25">
     <path d="M 62.979163 82.073833 
L 90.979163 82.073833 
" style="fill:none;stroke:#000000;stroke-linecap:round;stroke-width:2;"/>
    </g>
    <g id="line2d_26"/>
    <g id="text_17">
     <!-- \emph{vhl-1} $&gt;$ \emph{rhy-1} -->
     <g style="fill:#262626;" transform="translate(102.179163 86.973833)scale(0.14 -0.14)">
      <use transform="scale(0.996264)" xlink:href="#Computer_Modern_Bright_Slanted-118"/>
      <use transform="translate(42.341038 0)scale(0.996264)" xlink:href="#Computer_Modern_Bright_Slanted-104"/>
      <use transform="translate(90.493535 0)scale(0.996264)" xlink:href="#Computer_Modern_Bright_Slanted-108"/>
      <use transform="translate(109.588494 0)scale(0.996264)" xlink:href="#Computer_Modern_Bright_Slanted-45"/>
      <use transform="translate(142.797167 0)scale(0.996264)" xlink:href="#Computer_Modern_Bright_Slanted-49"/>
      <use transform="translate(235.881937 0)scale(0.996264)" xlink:href="#Computer_Modern_Bright_Math_Slanted-62"/>
      <use transform="translate(344.834617 0)scale(0.996264)" xlink:href="#Computer_Modern_Bright_Slanted-114"/>
      <use transform="translate(376.797976 0)scale(0.996264)" xlink:href="#Computer_Modern_Bright_Slanted-104"/>
      <use transform="translate(424.950473 0)scale(0.996264)" xlink:href="#Computer_Modern_Bright_Slanted-121"/>
      <use transform="translate(467.291511 0)scale(0.996264)" xlink:href="#Computer_Modern_Bright_Slanted-45"/>
      <use transform="translate(500.500184 0)scale(0.996264)" xlink:href="#Computer_Modern_Bright_Slanted-49"/>
     </g>
    </g>
    <g id="line2d_27">
     <path d="M 62.979163 101.198444 
L 90.979163 101.198444 
" style="fill:none;stroke:#1f78b4;stroke-linecap:round;stroke-width:2;"/>
    </g>
    <g id="line2d_28"/>
    <g id="text_18">
     <!-- Unbranched -->
     <defs>
      <path d="M 8 69.5 
L 8 32.75 
C 8 25.71875 7.203125 18.390625 10.703125 11.96875 
C 12.90625 7.84375 16.09375 4.4375 20.09375 2.125 
C 29.90625 -3.609375 43.5 -2.203125 51.296875 6.4375 
C 54.796875 10.359375 57.296875 15.171875 57.796875 21.796875 
C 57.90625 23.40625 57.796875 24.921875 57.796875 26.515625 
L 57.796875 69.5 
L 51.40625 69.5 
L 51.40625 25.90625 
C 51.40625 24.59375 51.5 23.1875 51.40625 21.890625 
C 51.203125 18.890625 50.59375 15.921875 49.40625 13.25 
C 43.90625 1 25 1 18 11.890625 
C 14.203125 17.78125 15 25.0625 15 31.65625 
L 15 69.5 
z
" id="Computer_Modern_Bright-85"/>
      <path d="M 6.40625 69.6875 
L 6.40625 0 
L 12.796875 0 
L 12.796875 6.328125 
L 12.90625 6.328125 
C 14 4.109375 16.5 2.015625 18.59375 0.90625 
C 25.796875 -2.90625 34.40625 0.90625 39.09375 7.03125 
C 48.59375 19.578125 44.796875 40.875 32.296875 46.796875 
C 27.40625 49 21.5 48 17.09375 44.984375 
C 15.40625 43.78125 14 42.375 12.703125 40.765625 
L 12.703125 69.6875 
z
M 21.90625 42.984375 
C 26.59375 43.375 31.5 41.265625 34.296875 37.453125 
C 36.203125 34.9375 37.203125 31.9375 37.703125 28.8125 
C 38.703125 21.484375 37.90625 12.25 31.40625 7.4375 
C 30.296875 6.625 29.09375 6.03125 27.796875 5.515625 
C 22.40625 3.515625 17 4.109375 14 8.84375 
C 13.09375 10.4375 12.796875 10.546875 12.796875 12.953125 
L 12.796875 33.734375 
C 12.796875 34.75 12.59375 35.953125 13 36.859375 
C 14.59375 40.171875 18.296875 42.671875 21.90625 42.984375 
" id="Computer_Modern_Bright-98"/>
      <path d="M 6.40625 69.6875 
L 6.40625 0 
L 12.796875 0 
L 12.796875 21.984375 
C 12.796875 26.90625 12.5 31.9375 14.703125 36.546875 
C 15.796875 38.859375 17.5 40.875 19.796875 42.078125 
C 21.703125 42.984375 23.703125 42.984375 25.796875 42.78125 
C 28.796875 42.78125 31.703125 41.984375 33.59375 39.453125 
C 35.40625 37.140625 35.5 34.140625 35.5 31.3125 
L 35.5 0 
L 41.90625 0 
L 41.90625 27.21875 
C 41.90625 32.234375 42.40625 37.75 39.90625 42.28125 
C 37.90625 45.6875 34.40625 47.296875 30.703125 47.796875 
C 28.703125 48 26.703125 48 24.703125 47.703125 
C 21.09375 47.015625 18 45.03125 15.59375 42.34375 
C 14.5 41.046875 13.203125 39.46875 12.796875 37.765625 
L 12.703125 37.765625 
L 12.703125 69.6875 
z
" id="Computer_Modern_Bright-104"/>
     </defs>
     <g style="fill:#262626;" transform="translate(102.179163 106.098444)scale(0.14 -0.14)">
      <use transform="scale(0.996264)" xlink:href="#Computer_Modern_Bright-85"/>
      <use transform="translate(65.587132 0)scale(0.996264)" xlink:href="#Computer_Modern_Bright-110"/>
      <use transform="translate(113.739629 0)scale(0.996264)" xlink:href="#Computer_Modern_Bright-98"/>
      <use transform="translate(158.986397 0)scale(0.996264)" xlink:href="#Computer_Modern_Bright-114"/>
      <use transform="translate(190.949756 0)scale(0.996264)" xlink:href="#Computer_Modern_Bright-97"/>
      <use transform="translate(237.441838 0)scale(0.996264)" xlink:href="#Computer_Modern_Bright-110"/>
      <use transform="translate(285.594335 0)scale(0.996264)" xlink:href="#Computer_Modern_Bright-99"/>
      <use transform="translate(330.426003 0)scale(0.996264)" xlink:href="#Computer_Modern_Bright-104"/>
      <use transform="translate(378.5785 0)scale(0.996264)" xlink:href="#Computer_Modern_Bright-101"/>
      <use transform="translate(423.410167 0)scale(0.996264)" xlink:href="#Computer_Modern_Bright-100"/>
     </g>
    </g>
    <g id="line2d_29">
     <path d="M 62.979163 120.323055 
L 90.979163 120.323055 
" style="fill:none;stroke:#ff7f00;stroke-linecap:round;stroke-width:2;"/>
    </g>
    <g id="line2d_30"/>
    <g id="text_19">
     <!-- log-Additive -->
     <defs>
      <path d="M 35.40625 11.984375 
L 35.5 11.984375 
L 35.5 2.65625 
C 35.5 -0.15625 35.5 -2.859375 34.59375 -5.5625 
C 33.09375 -9.1875 30.5 -12.5 26.203125 -13.09375 
C 25 -13.203125 23.703125 -13.09375 22.5 -13 
C 16 -13 11.703125 -11.046875 6.5 -8.671875 
L 6.5 -12.484375 
C 6.5 -14.40625 6.796875 -14.5 8.703125 -15.109375 
C 13.796875 -17.21875 23 -19.3125 29.296875 -17.71875 
C 36.296875 -15.90625 41.40625 -9.28125 41.90625 -1.21875 
C 42 0.1875 41.90625 1.703125 41.90625 3.125 
L 41.90625 48 
L 35.59375 48 
L 35.59375 39.984375 
C 34.09375 42.484375 32.5 44.796875 29.90625 46.40625 
C 22.90625 50.625 13.40625 46 9.5 40.578125 
C 3.09375 32.640625 1.90625 20.34375 7 11.484375 
C 8 9.78125 9.203125 8.171875 10.59375 6.765625 
C 15.40625 2.046875 23.59375 -0.46875 29.5 3.75 
C 31.90625 5.359375 34.703125 9.078125 35.40625 11.984375 
M 25.5 43 
C 26.40625 43 27.40625 43 28.296875 42.796875 
C 31.90625 42.09375 33.90625 38.875 35.09375 35.65625 
C 35.796875 33.453125 35.59375 31.046875 35.59375 28.734375 
C 35.59375 23.71875 35.5 18.5 33.796875 13.765625 
C 32.59375 10.265625 30.09375 7.140625 26.203125 6.75 
C 24.90625 6.640625 23.59375 6.84375 22.296875 7.140625 
C 16.203125 8.546875 12 13.765625 10.703125 19.796875 
C 8.90625 28.53125 13.203125 39.171875 22 42.1875 
C 23.09375 42.59375 24.296875 42.890625 25.5 43 
" id="Computer_Modern_Bright-103"/>
      <path d="M 0.40625 26.015625 
L 0.40625 21 
L 28.296875 21 
L 28.296875 26.015625 
z
" id="Computer_Modern_Bright-45"/>
      <path d="M 2.09375 0.09375 
L 6.59375 0.09375 
L 8.40625 0.296875 
C 11.40625 6.796875 13.5 14.203125 16.203125 21 
C 26.09375 21 36.90625 21 46.296875 21 
L 47.09375 19.6875 
C 48.796875 14.546875 50.796875 9.59375 52.59375 4.546875 
C 53.09375 3.015625 53.59375 1.515625 54.40625 0.296875 
C 56.59375 0 59.203125 0 61.59375 0 
C 59.90625 4.90625 36.703125 67.203125 36 68.890625 
C 35.90625 69.296875 35.703125 69.890625 35.203125 70 
C 34.59375 70.09375 34 70 33.40625 70 
L 30.09375 70 
C 28.59375 70 28 70.1875 27.59375 68.609375 
C 27.203125 67.59375 2.09375 0.09375 2.09375 0.09375 
M 31.40625 63.171875 
C 35.59375 50.71875 40.09375 38.46875 44.5 26.21875 
L 18.203125 26.21875 
L 26.90625 50.109375 
z
" id="Computer_Modern_Bright-65"/>
     </defs>
     <g style="fill:#262626;" transform="translate(102.179163 125.223055)scale(0.14 -0.14)">
      <use transform="scale(0.996264)" xlink:href="#Computer_Modern_Bright-108"/>
      <use transform="translate(19.094959 0)scale(0.996264)" xlink:href="#Computer_Modern_Bright-111"/>
      <use transform="translate(69.738177 0)scale(0.996264)" xlink:href="#Computer_Modern_Bright-103"/>
      <use transform="translate(117.890674 0)scale(0.996264)" xlink:href="#Computer_Modern_Bright-45"/>
      <use transform="translate(151.099347 0)scale(0.996264)" xlink:href="#Computer_Modern_Bright-65"/>
      <use transform="translate(214.610965 0)scale(0.996264)" xlink:href="#Computer_Modern_Bright-100"/>
      <use transform="translate(262.763462 0)scale(0.996264)" xlink:href="#Computer_Modern_Bright-100"/>
      <use transform="translate(310.915959 0)scale(0.996264)" xlink:href="#Computer_Modern_Bright-105"/>
      <use transform="translate(330.010918 0)scale(0.996264)" xlink:href="#Computer_Modern_Bright-116"/>
      <use transform="translate(366.125306 0)scale(0.996264)" xlink:href="#Computer_Modern_Bright-105"/>
      <use transform="translate(385.220265 0)scale(0.996264)" xlink:href="#Computer_Modern_Bright-118"/>
      <use transform="translate(427.561303 0)scale(0.996264)" xlink:href="#Computer_Modern_Bright-101"/>
     </g>
    </g>
   </g>
  </g>
 </g>
 <defs>
  <clipPath id="pa099428294">
   <rect height="298.98" width="446.4" x="50.379163" y="7.2"/>
  </clipPath>
 </defs>
</svg>
