<?xml version="1.0" encoding="utf-8" standalone="no"?>
<!DOCTYPE svg PUBLIC "-//W3C//DTD SVG 1.1//EN"
  "http://www.w3.org/Graphics/SVG/1.1/DTD/svg11.dtd">
<!-- Created with matplotlib (http://matplotlib.org/) -->
<svg height="353pt" version="1.1" viewBox="0 0 503 353" width="503pt" xmlns="http://www.w3.org/2000/svg" xmlns:xlink="http://www.w3.org/1999/xlink">
 <defs>
  <style type="text/css">
*{stroke-linecap:butt;stroke-linejoin:round;}
  </style>
 </defs>
 <g id="figure_1">
  <g id="patch_1">
   <path d="M 0 353.548374 
L 503.979163 353.548374 
L 503.979163 0 
L 0 0 
z
" style="fill:#ffffff;"/>
  </g>
  <g id="axes_1">
   <g id="patch_2">
    <path d="M 50.379163 306.18 
L 496.779163 306.18 
L 496.779163 7.2 
L 50.379163 7.2 
z
" style="fill:#eaeaf2;"/>
   </g>
   <g id="matplotlib.axis_1">
    <g id="xtick_1">
     <g id="line2d_1"/>
     <g id="text_1">
      <!-- $-1.0$ -->
      <defs>
       <path d="M 9.796875 28.078125 
C 8 27.484375 7.796875 24.78125 9.796875 24.28125 
C 10.296875 24.078125 10.90625 24.1875 11.5 24.1875 
L 64.703125 24.1875 
C 65.90625 24.1875 67.796875 23.78125 68.796875 24.78125 
C 69.90625 25.875 69.296875 27.875 67.703125 28.1875 
C 66.5 28.375 65.09375 28.1875 63.90625 28.1875 
L 11.40625 28.1875 
C 10.90625 28.1875 10.296875 28.28125 9.796875 28.078125 
" id="Computer_Modern_Bright_Math_Symbols-0"/>
       <path d="M 9.703125 60.015625 
L 9.703125 55 
C 15.203125 55 19 56 23.40625 57.90625 
L 23.40625 5.015625 
L 10.296875 5.015625 
L 10.296875 0 
L 43 0 
L 43 5.015625 
L 29.90625 5.015625 
L 29.90625 67 
C 27.5 67 27.90625 66.359375 26 64.875 
C 21.90625 61.71875 16.203125 60.015625 9.703125 60.015625 
" id="Computer_Modern_Bright-49"/>
       <path d="M 10.703125 7.8125 
L 10.703125 0 
L 18.5 0 
L 18.5 7.8125 
z
" id="Computer_Modern_Bright_Math_Slanted-58"/>
       <path d="M 14.796875 63.859375 
C 11.90625 61.859375 9.90625 59.140625 8.40625 56.03125 
C 4.796875 49 4.40625 40.765625 4.40625 31.828125 
C 4.40625 20.578125 6.40625 10.25 12 4.3125 
C 17.296875 -1.203125 25.703125 -2.609375 32.796875 0.296875 
C 37.203125 2.015625 40.40625 5.71875 42.40625 9.734375 
C 46 16.875 46.40625 25.40625 46.40625 34.234375 
C 46.40625 37.046875 46.296875 39.859375 46 42.671875 
C 45.296875 49.40625 43 56.828125 39.296875 60.953125 
C 33.203125 67.6875 22.296875 69.1875 14.796875 63.859375 
M 34.90625 58.140625 
C 39.59375 53.125 40 43.484375 40 34.34375 
L 40 28.921875 
C 40 24.296875 39.203125 18.28125 38.203125 14.859375 
C 36.796875 10.140625 34.5 6.734375 29.90625 4.625 
C 24.296875 2.609375 18.5 4.515625 15.296875 8.9375 
C 11 14.65625 10.796875 24.796875 10.796875 33.734375 
C 10.796875 42.171875 10.90625 51.515625 15 57.03125 
C 19.5 63.0625 29.203125 64.0625 34.90625 58.140625 
" id="Computer_Modern_Bright-48"/>
      </defs>
      <g style="fill:#262626;" transform="translate(70.140312 324.249603)scale(0.16 -0.16)">
       <use transform="scale(0.996264)" xlink:href="#Computer_Modern_Bright_Math_Symbols-0"/>
       <use transform="translate(77.487468 0)scale(0.996264)" xlink:href="#Computer_Modern_Bright-49"/>
       <use transform="translate(128.130685 0)scale(0.996264)" xlink:href="#Computer_Modern_Bright_Math_Slanted-58"/>
       <use transform="translate(157.188132 0)scale(0.996264)" xlink:href="#Computer_Modern_Bright-48"/>
      </g>
     </g>
    </g>
    <g id="xtick_2">
     <g id="line2d_2"/>
     <g id="text_2">
      <!-- $-0.8$ -->
      <defs>
       <path d="M 18.703125 36 
L 18.703125 35.90625 
C 12.5 34.09375 7.296875 30.6875 4.796875 24.84375 
C 2.203125 18.71875 4 11.28125 8.40625 6.453125 
C 13.09375 1.421875 19.5 -1 26.296875 -1 
C 36.296875 -1 45.90625 6.40625 47.09375 16.734375 
C 47.296875 18.265625 47.203125 19.890625 47 21.40625 
C 45.203125 29.21875 39.5 33.875 32.09375 35.90625 
C 32.90625 36.203125 33.796875 36.40625 34.59375 36.703125 
C 38.796875 38.421875 42.296875 40.921875 44.5 44.9375 
C 47.796875 51.375 44.59375 58.90625 39.203125 63.015625 
C 33.796875 67.140625 26.5 68.234375 19.90625 66.828125 
C 12 65.125 4.5 58.40625 5 49.765625 
C 5.203125 46.75 6.5 44.234375 8 42.4375 
C 10.296875 39.625 14.796875 36.609375 18.703125 36 
M 23.796875 62.5 
C 28.203125 62.5 33.703125 62 36.90625 58.578125 
C 40.703125 54.46875 40.90625 47.03125 37.09375 42.8125 
C 34.703125 40.203125 31.203125 38.890625 27.703125 38.59375 
C 22.796875 38.1875 17.203125 39 13.703125 42.8125 
C 9.796875 47.125 10.09375 54.96875 14.296875 58.984375 
C 16.90625 61.390625 20.40625 62.1875 23.796875 62.5 
M 23.703125 33.5 
C 28.40625 33.5 33.5 32.390625 36.90625 28.9375 
C 38.203125 27.53125 39.203125 25.8125 39.796875 24.015625 
C 41.5 18.75 40.703125 12.09375 36.796875 8.046875 
C 34.09375 5.328125 30.40625 4.3125 26.703125 4.015625 
C 22.203125 4.015625 17 5.109375 13.796875 8.5625 
C 9.40625 13.390625 8.5 23.40625 13.703125 29.0625 
C 16.296875 31.78125 20 33.203125 23.703125 33.5 
" id="Computer_Modern_Bright-56"/>
      </defs>
      <g style="fill:#262626;" transform="translate(146.793464 324.249603)scale(0.16 -0.16)">
       <use transform="scale(0.996264)" xlink:href="#Computer_Modern_Bright_Math_Symbols-0"/>
       <use transform="translate(77.487468 0)scale(0.996264)" xlink:href="#Computer_Modern_Bright-48"/>
       <use transform="translate(128.130685 0)scale(0.996264)" xlink:href="#Computer_Modern_Bright_Math_Slanted-58"/>
       <use transform="translate(157.188132 0)scale(0.996264)" xlink:href="#Computer_Modern_Bright-56"/>
      </g>
     </g>
    </g>
    <g id="xtick_3">
     <g id="line2d_3"/>
     <g id="text_3">
      <!-- $-0.6$ -->
      <defs>
       <path d="M 11.296875 32.625 
L 11.203125 32.625 
C 11.203125 41.765625 12.796875 52.421875 20.59375 58.25 
C 24.90625 61.375 30.703125 62.96875 38.203125 61.171875 
C 39.796875 60.765625 41.296875 60.15625 42.796875 59.765625 
L 42.796875 63.28125 
C 42.796875 63.671875 42.90625 64.375 42.59375 64.78125 
C 41.90625 65.6875 36.296875 66.59375 36.09375 66.59375 
C 27.40625 67.59375 21.703125 65.6875 16.40625 61.171875 
C 10 55.640625 6.296875 47.515625 5.09375 39.28125 
C 4 32.65625 4.90625 22 6.203125 16.78125 
C 8.296875 9.046875 12.296875 2.21875 19.703125 -0.390625 
C 24.09375 -2 29.5 -2 33.703125 0.015625 
C 37.09375 1.640625 39.90625 4.46875 42.09375 7.5 
C 45.59375 12.34375 46.5 18.21875 46.09375 24.171875 
C 45.90625 27.109375 45.5 30.046875 44.296875 32.765625 
C 42.40625 37.125 39.203125 41.671875 35.09375 43.6875 
C 33.203125 44.5 31.203125 44.5 29.203125 44.5 
C 23.90625 44.5 18.90625 42.1875 15.203125 38.359375 
C 13.59375 36.75 12 34.71875 11.296875 32.625 
M 24.40625 39.515625 
C 28.203125 39.8125 32.203125 39.21875 35.09375 36.5 
C 38.90625 32.890625 39.59375 27.765625 39.59375 22.8125 
C 39.59375 19.46875 39.703125 16.015625 38.703125 12.859375 
C 38.09375 11.234375 37.296875 9.828125 36.40625 8.5 
C 34.203125 5.5625 31.40625 4.125 26.796875 3.515625 
C 22.296875 3.515625 17.796875 5.3125 15.203125 9.125 
C 13.59375 11.328125 12.796875 14.046875 12.296875 16.640625 
C 11.703125 19.34375 11.296875 22.140625 11.5 24.859375 
C 12 31.984375 17 38.515625 24.40625 39.515625 
" id="Computer_Modern_Bright-54"/>
      </defs>
      <g style="fill:#262626;" transform="translate(223.446615 324.249603)scale(0.16 -0.16)">
       <use transform="scale(0.996264)" xlink:href="#Computer_Modern_Bright_Math_Symbols-0"/>
       <use transform="translate(77.487468 0)scale(0.996264)" xlink:href="#Computer_Modern_Bright-48"/>
       <use transform="translate(128.130685 0)scale(0.996264)" xlink:href="#Computer_Modern_Bright_Math_Slanted-58"/>
       <use transform="translate(157.188132 0)scale(0.996264)" xlink:href="#Computer_Modern_Bright-54"/>
      </g>
     </g>
    </g>
    <g id="xtick_4">
     <g id="line2d_4"/>
     <g id="text_4">
      <!-- $-0.4$ -->
      <defs>
       <path d="M 2.09375 18 
L 31 18 
L 31 0 
L 37.296875 0 
L 37.296875 18 
L 48.703125 18 
L 48.703125 23.328125 
L 37.296875 23.328125 
L 37.296875 66.46875 
L 31.90625 66.46875 
C 30.09375 66.46875 29.59375 66.578125 28.796875 65.0625 
C 24.796875 58.515625 3.703125 25.765625 3 24.859375 
C 2.203125 23.4375 2.09375 23.546875 2.09375 21.4375 
z
M 31.296875 60.875 
L 31.296875 23.328125 
L 8.59375 23.328125 
C 9.296875 24.734375 10.296875 26.03125 11.203125 27.4375 
C 16.203125 35.171875 28.09375 53.546875 30.59375 59.28125 
C 30.90625 59.78125 31 60.375 31.296875 60.875 
" id="Computer_Modern_Bright-52"/>
      </defs>
      <g style="fill:#262626;" transform="translate(300.099767 324.249603)scale(0.16 -0.16)">
       <use transform="scale(0.996264)" xlink:href="#Computer_Modern_Bright_Math_Symbols-0"/>
       <use transform="translate(77.487468 0)scale(0.996264)" xlink:href="#Computer_Modern_Bright-48"/>
       <use transform="translate(128.130685 0)scale(0.996264)" xlink:href="#Computer_Modern_Bright_Math_Slanted-58"/>
       <use transform="translate(157.188132 0)scale(0.996264)" xlink:href="#Computer_Modern_Bright-52"/>
      </g>
     </g>
    </g>
    <g id="xtick_5">
     <g id="line2d_5"/>
     <g id="text_5">
      <!-- $-0.2$ -->
      <defs>
       <path d="M 7.296875 45.96875 
C 8.703125 51.59375 11.09375 57.984375 16.796875 60.5 
C 19.203125 61.5 21.796875 61.703125 24.40625 61.5 
C 29.296875 61.09375 34.09375 59.09375 37.09375 55.09375 
C 39.296875 52.078125 40.09375 48.375 39.703125 44.78125 
C 38.5 34.34375 28.296875 26.84375 21.703125 21.234375 
C 17.90625 18.03125 7.09375 7.8125 7.09375 7.8125 
L 5.40625 6.203125 
C 4.5 5.3125 4.40625 5.3125 4.40625 3.5 
L 4.40625 0 
L 46.40625 0 
L 46.40625 5.625 
L 10.203125 5.625 
C 13.40625 8.734375 26.703125 20.515625 28.5 21.921875 
C 34.296875 26.65625 40.796875 31.375 44.296875 38.21875 
C 48.203125 46.0625 46.5 55.9375 39.90625 61.765625 
C 35.90625 65.296875 30.40625 67 25.09375 67 
C 20.203125 67 15.203125 66 11.296875 62.90625 
C 8.296875 60.390625 5.796875 56.6875 4.40625 52.875 
C 4.09375 52.28125 3.59375 51.28125 3.703125 50.578125 
C 3.796875 49.984375 4.40625 49.484375 4.703125 49.078125 
C 5.5 48.078125 6.296875 46.875 7.296875 45.96875 
" id="Computer_Modern_Bright-50"/>
      </defs>
      <g style="fill:#262626;" transform="translate(376.752918 324.249603)scale(0.16 -0.16)">
       <use transform="scale(0.996264)" xlink:href="#Computer_Modern_Bright_Math_Symbols-0"/>
       <use transform="translate(77.487468 0)scale(0.996264)" xlink:href="#Computer_Modern_Bright-48"/>
       <use transform="translate(128.130685 0)scale(0.996264)" xlink:href="#Computer_Modern_Bright_Math_Slanted-58"/>
       <use transform="translate(157.188132 0)scale(0.996264)" xlink:href="#Computer_Modern_Bright-50"/>
      </g>
     </g>
    </g>
    <g id="xtick_6">
     <g id="line2d_6"/>
     <g id="text_6">
      <!-- $0.0$ -->
      <g style="fill:#262626;" transform="translate(459.605068 324.249603)scale(0.16 -0.16)">
       <use transform="scale(0.996264)" xlink:href="#Computer_Modern_Bright-48"/>
       <use transform="translate(50.643218 0)scale(0.996264)" xlink:href="#Computer_Modern_Bright_Math_Slanted-58"/>
       <use transform="translate(79.700665 0)scale(0.996264)" xlink:href="#Computer_Modern_Bright-48"/>
      </g>
     </g>
    </g>
    <g id="text_7">
     <!-- Epistasis Coefficient -->
     <defs>
      <path d="M 8 69.328125 
L 8 0 
L 55.40625 0 
L 55.40625 5.625 
L 15 5.625 
L 15 33.671875 
L 51.09375 33.671875 
L 51.09375 39 
L 15 39 
L 15 64 
L 54 64 
L 54 69.328125 
z
" id="Computer_Modern_Bright-69"/>
      <path d="M 12.703125 40.53125 
L 12.703125 47.15625 
L 6.40625 47.15625 
L 6.40625 -17 
L 12.796875 -17 
L 12.796875 6.09375 
C 14.203125 4.078125 15.796875 2.28125 17.90625 1.078125 
C 25 -3.25 34 0.171875 38.90625 6.59375 
C 45.40625 14.96875 46.09375 27.5 41.59375 36.984375 
C 39 42.4375 34.09375 47.5 27.796875 48 
C 22.296875 48 18.09375 45.8125 15.09375 43.125 
C 14.203125 42.328125 13.5 41.4375 12.703125 40.53125 
M 21.90625 42.875 
C 26 43.171875 30 41.265625 32.796875 38.265625 
C 34.5 36.34375 35.796875 34.140625 36.59375 31.734375 
C 40.09375 22.296875 36.90625 9.234375 26.796875 5.328125 
C 21 3.109375 15.296875 5.125 13.09375 10.546875 
C 12.59375 11.546875 12.796875 12.859375 12.796875 13.953125 
L 12.796875 34.640625 
C 12.796875 36.953125 13 37.15625 14.5 38.859375 
C 16.296875 41.0625 19 42.578125 21.90625 42.875 
" id="Computer_Modern_Bright-112"/>
      <path d="M 6.40625 70 
L 6.40625 63.671875 
L 12.703125 63.671875 
L 12.703125 70 
z
M 6.40625 47.390625 
L 6.40625 0 
L 12.703125 0 
L 12.703125 47.390625 
z
" id="Computer_Modern_Bright-105"/>
      <path d="M 3.09375 9.640625 
C 2.90625 8.234375 2.59375 6.9375 2.40625 5.53125 
C 2.203125 4.421875 1.90625 3.921875 2.90625 3.421875 
C 7 1.015625 11.90625 -0.296875 17.703125 -0.796875 
C 24.203125 -1.40625 32.40625 0.109375 35.59375 6.53125 
C 36.5 8.34375 37 10.34375 37.09375 12.359375 
C 37.5 19.578125 31.796875 24.203125 26.90625 25.90625 
C 21.40625 28.015625 13.90625 27.3125 10.09375 31.53125 
C 8.09375 33.84375 8 37.265625 9.90625 39.671875 
C 13.90625 45.296875 26.796875 42.875 31.90625 40.375 
C 32.703125 39.96875 33.40625 39.46875 34.296875 39.265625 
L 35.203125 44.6875 
C 30.5 46.796875 26.40625 48 19.90625 48 
C 14.296875 48 9.203125 46.703125 6 43.484375 
C 2.796875 40.171875 1.703125 34.640625 3.59375 30.4375 
C 5.40625 26.40625 9.203125 23.796875 13.296875 22.5 
C 19.203125 20.390625 25.90625 21.390625 29.796875 16.578125 
C 32 13.765625 31.59375 9.546875 29.09375 7.03125 
C 24.296875 2.609375 14.09375 4.21875 8.5 6.625 
C 6.59375 7.4375 4.90625 8.640625 3.09375 9.640625 
" id="Computer_Modern_Bright-115"/>
      <path d="M 10.796875 60.5 
L 10.796875 47.015625 
L 1.09375 47.015625 
L 1.09375 42 
L 10.703125 42 
L 10.703125 15.015625 
C 10.703125 10.578125 10.40625 5.234375 13.296875 1.515625 
C 15 -0.703125 17.296875 -1.296875 20.796875 -1 
C 23.703125 -1 26.59375 -0.390625 29.296875 0.65625 
C 30.203125 1.0625 33.5 2.515625 33.90625 3.234375 
C 34.09375 3.640625 32.796875 8.09375 32.796875 8.09375 
L 30.40625 6.265625 
C 27.296875 4.34375 21.09375 2.328125 18.5 5.96875 
C 16.203125 9.09375 16.796875 13.75 16.796875 17.375 
L 16.796875 42 
L 32.296875 42 
L 32.296875 47.015625 
L 16.796875 47.015625 
L 16.796875 60.5 
z
" id="Computer_Modern_Bright-116"/>
      <path d="M 7.90625 39.015625 
C 9.59375 39.859375 11 41.09375 12.703125 41.921875 
C 15.40625 43.15625 18.203125 44 21.203125 44 
C 22.59375 44.09375 24.203125 44.296875 25.59375 44 
C 28.09375 43.59375 30.296875 42.078125 31.796875 39.953125 
C 33.296875 37.515625 33.90625 35.390625 33.90625 31.46875 
L 33.90625 27.015625 
C 29.09375 27.015625 24.296875 26.609375 19.703125 25.390625 
C 13.90625 24.078125 7.59375 21.125 5.5 15.84375 
C 3.40625 10.78125 5.59375 4.078125 10.09375 1.03125 
C 12.296875 -0.5 14.90625 -0.5 17.5 -0.296875 
C 21.703125 0 25.90625 1.015625 29.5 3.25 
C 31.203125 4.25 32.90625 5.578125 33.90625 7.296875 
L 34 7.296875 
L 34 0.203125 
L 40.296875 0.203125 
L 40.296875 26.890625 
C 40.296875 29.8125 40.59375 32.953125 40 35.890625 
C 39.40625 39.921875 36.90625 43.265625 34 45.59375 
C 30.59375 48.21875 26.703125 49.109375 21.5 48.71875 
C 16.703125 48.71875 13 47.5 9.40625 45.765625 
C 8.90625 45.5625 7.90625 45.234375 7.59375 44.640625 
C 7.296875 44.21875 7.5 43.515625 7.5 43 
C 7.703125 41.671875 7.796875 40.34375 7.90625 39.015625 
M 33.90625 24 
L 33.90625 16.375 
C 33.90625 14.0625 34 11.953125 32.703125 9.953125 
C 31.59375 8.34375 30.09375 7.234375 28.5 6.4375 
C 22.796875 3.515625 14.09375 4.421875 11.59375 9.25 
C 9.59375 12.75 11.703125 16.875 14.59375 19.1875 
C 18.90625 22.5 27.296875 24 33.90625 24 
" id="Computer_Modern_Bright-97"/>
      <path d="M 60.5 10.875 
C 58.5 9.859375 56.703125 8.453125 54.703125 7.453125 
C 50 5.046875 44 4.140625 37.5 4.734375 
C 31.703125 5.546875 26.90625 8.359375 23.40625 11.875 
C 12.203125 23.15625 11.40625 42.96875 21.296875 55.34375 
C 25.5 60.875 31.90625 65 41.296875 65 
C 45.09375 65 49 64.296875 52.5 62.890625 
C 54.59375 61.96875 56.59375 60.765625 58.59375 59.765625 
L 59.796875 66.8125 
C 57.59375 67.671875 55.296875 68.5625 53 69.09375 
C 47.40625 70.625 38.90625 70.625 33.09375 69.21875 
C 22.90625 66.921875 15.5 59.828125 11.296875 51.625 
C 5.5 40.015625 6.203125 25.515625 13.203125 14.59375 
C 15 11.703125 17.296875 9.109375 19.90625 6.890625 
C 25.90625 1.6875 33.296875 -1.3125 43.59375 -0.5 
C 49.796875 -0.5 53.40625 0.515625 58.203125 3.203125 
C 58.703125 3.5 60.59375 4.515625 60.90625 4.9375 
C 61.09375 5.4375 60.59375 9.53125 60.5 10.875 
" id="Computer_Modern_Bright-67"/>
      <path d="M 10.703125 42.078125 
C 1.796875 33.234375 0.796875 17.875 8.5 7.9375 
C 9.59375 6.421875 10.90625 5.125 12.40625 4.015625 
C 16.09375 1 21.5 -1.203125 27.796875 -0.5 
C 37.796875 0.703125 44.703125 8.84375 46.796875 17.375 
C 49.59375 29.328125 43.703125 42.671875 32.703125 46.890625 
C 24.09375 50.40625 15.5 46.890625 10.703125 42.078125 
M 35.703125 39.359375 
C 40.5 35.03125 41.40625 28.109375 41 21.984375 
C 40.703125 17.265625 39.40625 12.34375 36.09375 8.828125 
C 30.703125 3 20.703125 3 14.90625 8.625 
C 11.90625 11.84375 10.09375 16.453125 9.796875 21.984375 
C 9.296875 30.109375 11.296875 38.75 19.296875 41.96875 
C 25.203125 44.578125 32 42.671875 35.703125 39.359375 
" id="Computer_Modern_Bright-111"/>
      <path d="M 41.796875 10.9375 
C 39.5 9.234375 38.796875 8.328125 35.90625 6.8125 
C 29.796875 3.5 22.59375 3.5 17.40625 7.171875 
C 12.40625 10.765625 9.5 16.640625 9.5 25 
L 42.5 25 
C 42.5 32.421875 40.796875 38.859375 36.59375 43.375 
C 32 47.890625 24.796875 49.296875 18.703125 47.390625 
C 16.40625 46.6875 14.296875 45.484375 12.40625 43.96875 
C 6.09375 38.859375 3.40625 30.71875 3.5 22.78125 
C 3.703125 12.34375 10.796875 1.90625 21.296875 -0.3125 
C 26.796875 -1.421875 32.59375 -0.203125 37.5 2.296875 
C 38.40625 2.796875 41.703125 4.609375 42.09375 5.515625 
C 42.40625 6.015625 41.796875 10.9375 41.796875 10.9375 
M 37.203125 28.90625 
L 10 28.90625 
C 11.203125 36.234375 17.203125 43.96875 25.296875 43.0625 
C 31.90625 42.46875 35.40625 37.75 36.703125 31.828125 
C 36.90625 30.8125 37 29.921875 37.203125 28.90625 
" id="Computer_Modern_Bright-101"/>
      <path d="M 10.59375 47.015625 
L 2 47.015625 
L 2 42 
L 10.59375 42 
L 10.59375 0 
L 16.90625 0 
L 16.90625 42 
L 30.09375 42 
L 30.09375 47.015625 
L 16.796875 47.015625 
L 16.796875 56.234375 
C 16.796875 57.890625 16.59375 59.65625 17.296875 61.21875 
C 19.5 65.875 25.40625 65.875 29.59375 65.078125 
C 30.59375 64.875 31.703125 64.46875 32.703125 64.265625 
L 32.703125 69.90625 
C 27.703125 70.609375 22.296875 71.21875 17.703125 68.46875 
C 15.796875 67.4375 14.203125 65.6875 13 63.921875 
C 11.09375 60.9375 10.59375 58.78125 10.59375 53.71875 
z
M 38.09375 0 
L 44.40625 0 
L 44.40625 42 
L 57.59375 42 
L 57.59375 47.015625 
L 44.296875 47.015625 
L 44.296875 55.234375 
C 44.296875 56.890625 44.09375 58.65625 44.40625 60.328125 
C 44.90625 62.296875 46.09375 63.65625 47.703125 64.671875 
C 50.796875 66.171875 54.40625 65.078125 57.59375 64.171875 
L 57.59375 70 
C 55.09375 70.1875 52.703125 70.6875 50.203125 70.5 
C 43.40625 70 38.59375 64.046875 38.09375 57.3125 
C 38 55.890625 38.09375 54.375 38.09375 52.96875 
z
M 65.59375 70 
L 65.59375 63.671875 
L 71.90625 63.671875 
L 71.90625 70 
z
M 65.59375 47.390625 
L 65.59375 0 
L 71.90625 0 
L 71.90625 47.390625 
z
" id="Computer_Modern_Bright-14"/>
      <path d="M 42.40625 11.25 
C 40.5 9.84375 38.796875 8.328125 36.703125 7.125 
C 32 4.625 24.796875 3.421875 19.40625 5.921875 
C 11.59375 9.9375 9.5 19.6875 10.59375 27.71875 
C 10.796875 29.328125 11.09375 30.921875 11.59375 32.4375 
C 13.796875 38.96875 19.296875 44.078125 28.296875 43.078125 
C 33.09375 42.671875 35.5 41.875 39.296875 39.765625 
C 40 39.359375 40.59375 38.859375 41.40625 38.65625 
C 41.5 39.859375 41.796875 41.171875 42 42.375 
C 42.296875 43.984375 42.296875 44.1875 40.796875 44.890625 
C 39.703125 45.390625 38.59375 45.984375 37.40625 46.390625 
C 32.796875 48.40625 25.203125 49 20 47.5 
C 12.90625 45.484375 7.59375 39.359375 5.296875 32.53125 
C 4.203125 29.421875 3.90625 26.109375 3.90625 22.796875 
C 4 12.25 11.203125 1.90625 21.703125 -0.203125 
C 27.5 -1.40625 34.203125 0.296875 38.203125 2.40625 
C 39.203125 2.90625 42.203125 4.71875 42.703125 5.625 
C 43 6.125 42.40625 11.25 42.40625 11.25 
" id="Computer_Modern_Bright-99"/>
      <path d="M 12.59375 37.28125 
L 12.5 37.28125 
L 12.5 47.390625 
L 6.40625 47.390625 
L 6.40625 0 
L 12.796875 0 
L 12.796875 21.9375 
C 12.796875 26.84375 12.5 31.875 14.703125 36.46875 
C 15.796875 38.78125 17.5 40.78125 19.796875 41.984375 
C 21.703125 42.890625 23.703125 42.890625 25.796875 42.6875 
C 28.796875 42.6875 31.703125 41.890625 33.59375 39.375 
C 35.40625 37.0625 35.5 34.0625 35.5 31.25 
L 35.5 0 
L 41.90625 0 
L 41.90625 26.859375 
C 41.90625 31.875 42.40625 37.375 40 41.890625 
C 38.09375 45.5 34.40625 47.203125 30.5 47.703125 
C 28.5 48 26.40625 48 24.40625 47.609375 
C 19.203125 46.5 14.40625 42.296875 12.59375 37.28125 
" id="Computer_Modern_Bright-110"/>
     </defs>
     <g style="fill:#262626;" transform="translate(201.022873 343.359582)scale(0.18 -0.18)">
      <use transform="scale(0.996264)" xlink:href="#Computer_Modern_Bright-69"/>
      <use transform="translate(58.737787 0)scale(0.996264)" xlink:href="#Computer_Modern_Bright-112"/>
      <use transform="translate(106.890284 0)scale(0.996264)" xlink:href="#Computer_Modern_Bright-105"/>
      <use transform="translate(125.985243 0)scale(0.996264)" xlink:href="#Computer_Modern_Bright-115"/>
      <use transform="translate(164.424272 0)scale(0.996264)" xlink:href="#Computer_Modern_Bright-116"/>
      <use transform="translate(200.53866 0)scale(0.996264)" xlink:href="#Computer_Modern_Bright-97"/>
      <use transform="translate(247.030742 0)scale(0.996264)" xlink:href="#Computer_Modern_Bright-115"/>
      <use transform="translate(285.469772 0)scale(0.996264)" xlink:href="#Computer_Modern_Bright-105"/>
      <use transform="translate(304.56473 0)scale(0.996264)" xlink:href="#Computer_Modern_Bright-115"/>
      <use transform="translate(374.468971 0)scale(0.996264)" xlink:href="#Computer_Modern_Bright-67"/>
      <use transform="translate(439.641004 0)scale(0.996264)" xlink:href="#Computer_Modern_Bright-111"/>
      <use transform="translate(490.284222 0)scale(0.996264)" xlink:href="#Computer_Modern_Bright-101"/>
      <use transform="translate(535.115889 0)scale(0.996264)" xlink:href="#Computer_Modern_Bright-14"/>
      <use transform="translate(613.156322 0)scale(0.996264)" xlink:href="#Computer_Modern_Bright-99"/>
      <use transform="translate(657.987989 0)scale(0.996264)" xlink:href="#Computer_Modern_Bright-105"/>
      <use transform="translate(677.082948 0)scale(0.996264)" xlink:href="#Computer_Modern_Bright-101"/>
      <use transform="translate(721.914616 0)scale(0.996264)" xlink:href="#Computer_Modern_Bright-110"/>
      <use transform="translate(770.067113 0)scale(0.996264)" xlink:href="#Computer_Modern_Bright-116"/>
     </g>
    </g>
   </g>
   <g id="matplotlib.axis_2">
    <g id="ytick_1">
     <g id="line2d_7"/>
     <g id="text_8">
      <!-- $0$ -->
      <g style="fill:#262626;" transform="translate(35.010613 298.124802)scale(0.16 -0.16)">
       <use transform="scale(0.996264)" xlink:href="#Computer_Modern_Bright-48"/>
      </g>
     </g>
    </g>
    <g id="ytick_2">
     <g id="line2d_8"/>
     <g id="text_9">
      <!-- $20$ -->
      <g style="fill:#262626;" transform="translate(26.642062 237.273467)scale(0.16 -0.16)">
       <use transform="scale(0.996264)" xlink:href="#Computer_Modern_Bright-50"/>
       <use transform="translate(50.643218 0)scale(0.996264)" xlink:href="#Computer_Modern_Bright-48"/>
      </g>
     </g>
    </g>
    <g id="ytick_3">
     <g id="line2d_9"/>
     <g id="text_10">
      <!-- $40$ -->
      <g style="fill:#262626;" transform="translate(26.642062 176.422132)scale(0.16 -0.16)">
       <use transform="scale(0.996264)" xlink:href="#Computer_Modern_Bright-52"/>
       <use transform="translate(50.643218 0)scale(0.996264)" xlink:href="#Computer_Modern_Bright-48"/>
      </g>
     </g>
    </g>
    <g id="ytick_4">
     <g id="line2d_10"/>
     <g id="text_11">
      <!-- $60$ -->
      <g style="fill:#262626;" transform="translate(26.642062 115.570797)scale(0.16 -0.16)">
       <use transform="scale(0.996264)" xlink:href="#Computer_Modern_Bright-54"/>
       <use transform="translate(50.643218 0)scale(0.996264)" xlink:href="#Computer_Modern_Bright-48"/>
      </g>
     </g>
    </g>
    <g id="ytick_5">
     <g id="line2d_11"/>
     <g id="text_12">
      <!-- $80$ -->
      <g style="fill:#262626;" transform="translate(26.642062 54.719462)scale(0.16 -0.16)">
       <use transform="scale(0.996264)" xlink:href="#Computer_Modern_Bright-56"/>
       <use transform="translate(50.643218 0)scale(0.996264)" xlink:href="#Computer_Modern_Bright-48"/>
      </g>
     </g>
    </g>
    <g id="text_13">
     <!-- Probability Density -->
     <defs>
      <path d="M 8 70 
L 8 0.5 
L 15 0.5 
L 15 30 
L 29.09375 30 
C 31.296875 30 33.5 30 35.59375 30 
C 43 30.609375 49.203125 33.640625 53.40625 38.171875 
C 57.703125 42.90625 59.59375 50.15625 56.796875 56.296875 
C 53.59375 64.046875 46 68.984375 36.296875 70 
C 33.40625 70 30.40625 70 27.5 70 
z
M 14.90625 35.21875 
L 14.90625 64.671875 
L 28.59375 64.671875 
C 37.296875 64.671875 45.203125 63.671875 49.203125 57.65625 
C 51.90625 53.625 52.296875 48 50.09375 43.671875 
C 48.90625 41.34375 47.09375 39.546875 44.90625 38.234375 
C 40 35.21875 34.296875 35.21875 28.796875 35.21875 
z
" id="Computer_Modern_Bright-80"/>
      <path d="M 12.5 34.75 
L 12.40625 34.75 
L 12.40625 47.390625 
L 6.40625 47.390625 
L 6.40625 0 
L 12.703125 0 
L 12.703125 22.890625 
C 12.703125 24.40625 12.703125 25.90625 12.90625 27.40625 
C 14.296875 35.953125 21.703125 42.28125 31.40625 42.28125 
L 31.40625 48 
C 25 48 19.09375 44.890625 15.296875 39.765625 
C 14.203125 38.265625 13 36.546875 12.5 34.75 
" id="Computer_Modern_Bright-114"/>
      <path d="M 6.40625 69.6875 
L 6.40625 0 
L 12.796875 0 
L 12.796875 6.328125 
L 12.90625 6.328125 
C 14 4.109375 16.5 2.015625 18.59375 0.90625 
C 25.796875 -2.90625 34.40625 0.90625 39.09375 7.03125 
C 48.59375 19.578125 44.796875 40.875 32.296875 46.796875 
C 27.40625 49 21.5 48 17.09375 44.984375 
C 15.40625 43.78125 14 42.375 12.703125 40.765625 
L 12.703125 69.6875 
z
M 21.90625 42.984375 
C 26.59375 43.375 31.5 41.265625 34.296875 37.453125 
C 36.203125 34.9375 37.203125 31.9375 37.703125 28.8125 
C 38.703125 21.484375 37.90625 12.25 31.40625 7.4375 
C 30.296875 6.625 29.09375 6.03125 27.796875 5.515625 
C 22.40625 3.515625 17 4.109375 14 8.84375 
C 13.09375 10.4375 12.796875 10.546875 12.796875 12.953125 
L 12.796875 33.734375 
C 12.796875 34.75 12.59375 35.953125 13 36.859375 
C 14.59375 40.171875 18.296875 42.671875 21.90625 42.984375 
" id="Computer_Modern_Bright-98"/>
      <path d="M 6.40625 69.6875 
L 6.40625 0 
L 12.703125 0 
L 12.703125 69.6875 
z
" id="Computer_Modern_Bright-108"/>
      <path d="M 0.703125 47.65625 
C 1.296875 45.75 5.40625 35.609375 5.5 35.3125 
L 17.40625 4.578125 
L 18.40625 2.078125 
C 19 0.671875 19.203125 0.46875 18.59375 -1.140625 
L 17.5 -4.046875 
C 16.59375 -6.46875 15.59375 -8.96875 13.703125 -10.484375 
C 10.296875 -13.296875 4.90625 -11.6875 0.796875 -10.78125 
L 1.296875 -16.5 
C 3.203125 -16.796875 5.09375 -17 7 -17 
C 11.296875 -17.515625 14.09375 -16.5 16.703125 -14.296875 
C 20 -11.484375 21.59375 -7.5625 23.09375 -3.546875 
L 26.203125 5.078125 
L 36.40625 32.90625 
C 38.09375 37.921875 40.203125 42.640625 41.796875 47.65625 
L 37.296875 47.65625 
C 36.796875 47.65625 36 47.859375 35.59375 47.46875 
C 35.40625 47.15625 35.296875 46.765625 35.203125 46.453125 
L 34.40625 44.34375 
C 33.40625 41.734375 32.5 39.234375 31.59375 36.609375 
L 25.796875 20.25 
C 24.296875 15.828125 22.59375 11.3125 21.796875 6.6875 
C 20.703125 11.3125 19.203125 15.734375 17.59375 20.140625 
C 16.296875 23.5625 8.5 44.546875 7.5 46.5625 
C 7.09375 47.65625 6.703125 47.65625 5.203125 47.65625 
z
" id="Computer_Modern_Bright-121"/>
      <path d="M 8 70 
L 8 0 
L 28.203125 0 
C 31.40625 0 34.59375 0 37.703125 0.296875 
C 45.703125 1.109375 52.59375 5.015625 57.203125 9.828125 
C 70.09375 23.171875 70 46.125 57.296875 59.671875 
C 52.703125 64.578125 46.5 68.5 38.703125 69.5 
C 34.90625 70 31 70 27.203125 70 
z
M 14.90625 5.3125 
L 14.90625 64.5625 
L 27.796875 64.5625 
C 30.5 64.5625 33.203125 64.5625 35.90625 64.359375 
C 40.40625 63.859375 44.796875 62.359375 48.5 59.734375 
C 56.59375 54.125 60 44.171875 60 34.640625 
C 60 26.609375 57.796875 18.375 51.90625 12.640625 
C 47.90625 8.9375 42.5 6.21875 36 5.515625 
C 33.40625 5.3125 30.703125 5.3125 28.09375 5.3125 
z
" id="Computer_Modern_Bright-68"/>
     </defs>
     <g style="fill:#262626;" transform="translate(19.65327 224.213938)rotate(-90)scale(0.18 -0.18)">
      <use transform="scale(0.996264)" xlink:href="#Computer_Modern_Bright-80"/>
      <use transform="translate(62.888907 0)scale(0.996264)" xlink:href="#Computer_Modern_Bright-114"/>
      <use transform="translate(94.852266 0)scale(0.996264)" xlink:href="#Computer_Modern_Bright-111"/>
      <use transform="translate(145.495484 0)scale(0.996264)" xlink:href="#Computer_Modern_Bright-98"/>
      <use transform="translate(193.647981 0)scale(0.996264)" xlink:href="#Computer_Modern_Bright-97"/>
      <use transform="translate(240.140063 0)scale(0.996264)" xlink:href="#Computer_Modern_Bright-98"/>
      <use transform="translate(288.29256 0)scale(0.996264)" xlink:href="#Computer_Modern_Bright-105"/>
      <use transform="translate(307.387519 0)scale(0.996264)" xlink:href="#Computer_Modern_Bright-108"/>
      <use transform="translate(326.482478 0)scale(0.996264)" xlink:href="#Computer_Modern_Bright-105"/>
      <use transform="translate(345.577437 0)scale(0.996264)" xlink:href="#Computer_Modern_Bright-116"/>
      <use transform="translate(378.786095 0)scale(0.996264)" xlink:href="#Computer_Modern_Bright-121"/>
      <use transform="translate(452.592345 0)scale(0.996264)" xlink:href="#Computer_Modern_Bright-68"/>
      <use transform="translate(524.198532 0)scale(0.996264)" xlink:href="#Computer_Modern_Bright-101"/>
      <use transform="translate(569.030199 0)scale(0.996264)" xlink:href="#Computer_Modern_Bright-110"/>
      <use transform="translate(617.182696 0)scale(0.996264)" xlink:href="#Computer_Modern_Bright-115"/>
      <use transform="translate(655.621726 0)scale(0.996264)" xlink:href="#Computer_Modern_Bright-105"/>
      <use transform="translate(674.716684 0)scale(0.996264)" xlink:href="#Computer_Modern_Bright-116"/>
      <use transform="translate(707.925343 0)scale(0.996264)" xlink:href="#Computer_Modern_Bright-121"/>
     </g>
    </g>
   </g>
   <g id="PolyCollection_1">
    <path clip-path="url(#paa7581c424)" d="M 463.548467 292.567678 
L 463.548467 292.59 
L 463.650355 292.59 
L 463.752243 292.59 
L 463.854131 292.59 
L 463.956019 292.59 
L 464.057907 292.59 
L 464.159795 292.59 
L 464.261683 292.59 
L 464.363571 292.59 
L 464.46546 292.59 
L 464.567348 292.59 
L 464.669236 292.59 
L 464.771124 292.59 
L 464.873012 292.59 
L 464.9749 292.59 
L 465.076788 292.59 
L 465.178676 292.59 
L 465.280564 292.59 
L 465.382452 292.59 
L 465.48434 292.59 
L 465.586229 292.59 
L 465.688117 292.59 
L 465.790005 292.59 
L 465.891893 292.59 
L 465.993781 292.59 
L 466.095669 292.59 
L 466.197557 292.59 
L 466.299445 292.59 
L 466.401333 292.59 
L 466.503221 292.59 
L 466.605109 292.59 
L 466.706998 292.59 
L 466.808886 292.59 
L 466.910774 292.59 
L 467.012662 292.59 
L 467.11455 292.59 
L 467.216438 292.59 
L 467.318326 292.59 
L 467.420214 292.59 
L 467.522102 292.59 
L 467.62399 292.59 
L 467.725878 292.59 
L 467.827767 292.59 
L 467.929655 292.59 
L 468.031543 292.59 
L 468.133431 292.59 
L 468.235319 292.59 
L 468.337207 292.59 
L 468.439095 292.59 
L 468.540983 292.59 
L 468.642871 292.59 
L 468.744759 292.59 
L 468.846647 292.59 
L 468.948536 292.59 
L 469.050424 292.59 
L 469.152312 292.59 
L 469.2542 292.59 
L 469.356088 292.59 
L 469.457976 292.59 
L 469.559864 292.59 
L 469.661752 292.59 
L 469.76364 292.59 
L 469.865528 292.59 
L 469.967416 292.59 
L 470.069305 292.59 
L 470.171193 292.59 
L 470.273081 292.59 
L 470.374969 292.59 
L 470.476857 292.59 
L 470.578745 292.59 
L 470.680633 292.59 
L 470.782521 292.59 
L 470.884409 292.59 
L 470.986297 292.59 
L 471.088185 292.59 
L 471.190074 292.59 
L 471.291962 292.59 
L 471.39385 292.59 
L 471.495738 292.59 
L 471.597626 292.59 
L 471.699514 292.59 
L 471.801402 292.59 
L 471.90329 292.59 
L 472.005178 292.59 
L 472.107066 292.59 
L 472.208954 292.59 
L 472.310843 292.59 
L 472.412731 292.59 
L 472.514619 292.59 
L 472.616507 292.59 
L 472.718395 292.59 
L 472.820283 292.59 
L 472.922171 292.59 
L 473.024059 292.59 
L 473.125947 292.59 
L 473.227835 292.59 
L 473.329723 292.59 
L 473.431612 292.59 
L 473.5335 292.59 
L 473.635388 292.59 
L 473.737276 292.59 
L 473.839164 292.59 
L 473.941052 292.59 
L 474.04294 292.59 
L 474.144828 292.59 
L 474.246716 292.59 
L 474.348604 292.59 
L 474.450492 292.59 
L 474.552381 292.59 
L 474.654269 292.59 
L 474.756157 292.59 
L 474.858045 292.59 
L 474.959933 292.59 
L 475.061821 292.59 
L 475.163709 292.59 
L 475.265597 292.59 
L 475.367485 292.59 
L 475.469373 292.59 
L 475.571261 292.59 
L 475.67315 292.59 
L 475.775038 292.59 
L 475.876926 292.59 
L 475.978814 292.59 
L 476.080702 292.59 
L 476.18259 292.59 
L 476.284478 292.59 
L 476.386366 292.59 
L 476.488254 292.59 
L 476.488254 292.566591 
L 476.488254 292.566591 
L 476.386366 292.554137 
L 476.284478 292.526984 
L 476.18259 292.478992 
L 476.080702 292.401609 
L 475.978814 292.284785 
L 475.876926 292.118487 
L 475.775038 291.894653 
L 475.67315 291.609014 
L 475.571261 291.261962 
L 475.469373 290.857701 
L 475.367485 290.401466 
L 475.265597 289.895513 
L 475.163709 289.335544 
L 475.061821 288.709518 
L 474.959933 288.000122 
L 474.858045 287.190415 
L 474.756157 286.27005 
L 474.654269 285.238163 
L 474.552381 284.099414 
L 474.450492 282.852247 
L 474.348604 281.472279 
L 474.246716 279.897217 
L 474.144828 278.020947 
L 474.04294 275.702276 
L 473.941052 272.788814 
L 473.839164 269.150365 
L 473.737276 264.711803 
L 473.635388 259.47456 
L 473.5335 253.519277 
L 473.431612 246.988221 
L 473.329723 240.052526 
L 473.227835 232.873488 
L 473.125947 225.568031 
L 473.024059 218.186331 
L 472.922171 210.705818 
L 472.820283 203.042052 
L 472.718395 195.073804 
L 472.616507 186.677291 
L 472.514619 177.762439 
L 472.412731 168.302593 
L 472.310843 158.349135 
L 472.208954 148.025133 
L 472.107066 137.497812 
L 472.005178 126.93709 
L 471.90329 116.473984 
L 471.801402 106.175138 
L 471.699514 96.045765 
L 471.597626 86.063122 
L 471.495738 76.229593 
L 471.39385 66.623807 
L 471.291962 57.425725 
L 471.190074 48.899795 
L 471.088185 41.337175 
L 470.986297 34.97682 
L 470.884409 29.937068 
L 470.782521 26.187595 
L 470.680633 23.575838 
L 470.578745 21.898663 
L 470.476857 20.990209 
L 470.374969 20.79 
L 470.273081 21.364869 
L 470.171193 22.878822 
L 470.069305 25.526294 
L 469.967416 29.456352 
L 469.865528 34.714187 
L 469.76364 41.214749 
L 469.661752 48.749084 
L 469.559864 57.013846 
L 469.457976 65.65166 
L 469.356088 74.293063 
L 469.2542 82.595975 
L 469.152312 90.28238 
L 469.050424 97.172394 
L 468.948536 103.213316 
L 468.846647 108.497551 
L 468.744759 113.261013 
L 468.642871 117.855192 
L 468.540983 122.692279 
L 468.439095 128.171757 
L 468.337207 134.604985 
L 468.235319 142.157219 
L 468.133431 150.822312 
L 468.031543 160.435222 
L 467.929655 170.715794 
L 467.827767 181.328774 
L 467.725878 191.942739 
L 467.62399 202.274385 
L 467.522102 212.111724 
L 467.420214 221.316919 
L 467.318326 229.81431 
L 467.216438 237.571065 
L 467.11455 244.577487 
L 467.012662 250.832226 
L 466.910774 256.335196 
L 466.808886 261.088357 
L 466.706998 265.102211 
L 466.605109 268.40446 
L 466.503221 271.047222 
L 466.401333 273.110212 
L 466.299445 274.698773 
L 466.197557 275.936834 
L 466.095669 276.955614 
L 465.993781 277.879457 
L 465.891893 278.810992 
L 465.790005 279.818634 
L 465.688117 280.929788 
L 465.586229 282.132155 
L 465.48434 283.383351 
L 465.382452 284.626254 
L 465.280564 285.80554 
L 465.178676 286.880546 
L 465.076788 287.831258 
L 464.9749 288.656989 
L 464.873012 289.369854 
L 464.771124 289.986552 
L 464.669236 290.521711 
L 464.567348 290.984635 
L 464.46546 291.379512 
L 464.363571 291.707825 
L 464.261683 291.97125 
L 464.159795 292.173712 
L 464.057907 292.322001 
L 463.956019 292.425115 
L 463.854131 292.492902 
L 463.752243 292.534626 
L 463.650355 292.557833 
L 463.548467 292.567678 
z
" style="fill:#ff7f00;fill-opacity:0.25;"/>
   </g>
   <g id="PolyCollection_2">
    <path clip-path="url(#paa7581c424)" d="M 301.853217 292.575741 
L 301.853217 292.59 
L 301.993478 292.59 
L 302.13374 292.59 
L 302.274002 292.59 
L 302.414263 292.59 
L 302.554525 292.59 
L 302.694787 292.59 
L 302.835048 292.59 
L 302.97531 292.59 
L 303.115572 292.59 
L 303.255833 292.59 
L 303.396095 292.59 
L 303.536357 292.59 
L 303.676618 292.59 
L 303.81688 292.59 
L 303.957142 292.59 
L 304.097403 292.59 
L 304.237665 292.59 
L 304.377927 292.59 
L 304.518188 292.59 
L 304.65845 292.59 
L 304.798712 292.59 
L 304.938973 292.59 
L 305.079235 292.59 
L 305.219497 292.59 
L 305.359758 292.59 
L 305.50002 292.59 
L 305.640282 292.59 
L 305.780543 292.59 
L 305.920805 292.59 
L 306.061067 292.59 
L 306.201329 292.59 
L 306.34159 292.59 
L 306.481852 292.59 
L 306.622114 292.59 
L 306.762375 292.59 
L 306.902637 292.59 
L 307.042899 292.59 
L 307.18316 292.59 
L 307.323422 292.59 
L 307.463684 292.59 
L 307.603945 292.59 
L 307.744207 292.59 
L 307.884469 292.59 
L 308.02473 292.59 
L 308.164992 292.59 
L 308.305254 292.59 
L 308.445515 292.59 
L 308.585777 292.59 
L 308.726039 292.59 
L 308.8663 292.59 
L 309.006562 292.59 
L 309.146824 292.59 
L 309.287085 292.59 
L 309.427347 292.59 
L 309.567609 292.59 
L 309.70787 292.59 
L 309.848132 292.59 
L 309.988394 292.59 
L 310.128655 292.59 
L 310.268917 292.59 
L 310.409179 292.59 
L 310.54944 292.59 
L 310.689702 292.59 
L 310.829964 292.59 
L 310.970225 292.59 
L 311.110487 292.59 
L 311.250749 292.59 
L 311.391011 292.59 
L 311.531272 292.59 
L 311.671534 292.59 
L 311.811796 292.59 
L 311.952057 292.59 
L 312.092319 292.59 
L 312.232581 292.59 
L 312.372842 292.59 
L 312.513104 292.59 
L 312.653366 292.59 
L 312.793627 292.59 
L 312.933889 292.59 
L 313.074151 292.59 
L 313.214412 292.59 
L 313.354674 292.59 
L 313.494936 292.59 
L 313.635197 292.59 
L 313.775459 292.59 
L 313.915721 292.59 
L 314.055982 292.59 
L 314.196244 292.59 
L 314.336506 292.59 
L 314.476767 292.59 
L 314.617029 292.59 
L 314.757291 292.59 
L 314.897552 292.59 
L 315.037814 292.59 
L 315.178076 292.59 
L 315.318337 292.59 
L 315.458599 292.59 
L 315.598861 292.59 
L 315.739122 292.59 
L 315.879384 292.59 
L 316.019646 292.59 
L 316.159908 292.59 
L 316.300169 292.59 
L 316.440431 292.59 
L 316.580693 292.59 
L 316.720954 292.59 
L 316.861216 292.59 
L 317.001478 292.59 
L 317.141739 292.59 
L 317.282001 292.59 
L 317.422263 292.59 
L 317.562524 292.59 
L 317.702786 292.59 
L 317.843048 292.59 
L 317.983309 292.59 
L 318.123571 292.59 
L 318.263833 292.59 
L 318.404094 292.59 
L 318.544356 292.59 
L 318.684618 292.59 
L 318.824879 292.59 
L 318.965141 292.59 
L 319.105403 292.59 
L 319.245664 292.59 
L 319.385926 292.59 
L 319.526188 292.59 
L 319.666449 292.59 
L 319.666449 292.575854 
L 319.666449 292.575854 
L 319.526188 292.568326 
L 319.385926 292.551289 
L 319.245664 292.521222 
L 319.105403 292.473686 
L 318.965141 292.40456 
L 318.824879 292.311725 
L 318.684618 292.196751 
L 318.544356 292.065848 
L 318.404094 291.929251 
L 318.263833 291.798622 
L 318.123571 291.682923 
L 317.983309 291.584175 
L 317.843048 291.495056 
L 317.702786 291.399891 
L 317.562524 291.279289 
L 317.422263 291.116917 
L 317.282001 290.905668 
L 317.141739 290.650453 
L 317.001478 290.366177 
L 316.861216 290.071625 
L 316.720954 289.781858 
L 316.580693 289.502323 
L 316.440431 289.226927 
L 316.300169 288.940378 
L 316.159908 288.623136 
L 316.019646 288.256425 
L 315.879384 287.825012 
L 315.739122 287.316715 
L 315.598861 286.718826 
L 315.458599 286.012516 
L 315.318337 285.166642 
L 315.178076 284.132683 
L 315.037814 282.842837 
L 314.897552 281.213574 
L 314.757291 279.156288 
L 314.617029 276.59462 
L 314.476767 273.484709 
L 314.336506 269.83142 
L 314.196244 265.692634 
L 314.055982 261.166541 
L 313.915721 256.363002 
L 313.775459 251.367171 
L 313.635197 246.207842 
L 313.494936 240.842335 
L 313.354674 235.164117 
L 313.214412 229.03173 
L 313.074151 222.311017 
L 312.933889 214.919572 
L 312.793627 206.862572 
L 312.653366 198.251458 
L 312.513104 189.299866 
L 312.372842 180.294526 
L 312.232581 171.543343 
L 312.092319 163.309475 
L 311.952057 155.747697 
L 311.811796 148.864166 
L 311.671534 142.518013 
L 311.531272 136.470894 
L 311.391011 130.472225 
L 311.250749 124.351875 
L 311.110487 118.087539 
L 310.970225 111.823867 
L 310.829964 105.839536 
L 310.689702 100.476607 
L 310.54944 96.055607 
L 310.409179 92.798396 
L 310.268917 90.77408 
L 310.128655 89.876865 
L 309.988394 89.841023 
L 309.848132 90.294248 
L 309.70787 90.842951 
L 309.567609 91.171819 
L 309.427347 91.130384 
L 309.287085 90.778607 
L 309.146824 90.374976 
L 309.006562 90.310634 
L 308.8663 91.01283 
L 308.726039 92.850821 
L 308.585777 96.073014 
L 308.445515 100.788301 
L 308.305254 106.985462 
L 308.164992 114.571138 
L 308.02473 123.40443 
L 307.884469 133.31398 
L 307.744207 144.096041 
L 307.603945 155.502897 
L 307.463684 167.235451 
L 307.323422 178.951178 
L 307.18316 190.291296 
L 307.042899 200.922738 
L 306.902637 210.584408 
L 306.762375 219.124886 
L 306.622114 226.520684 
L 306.481852 232.86937 
L 306.34159 238.358912 
L 306.201329 243.221211 
L 306.061067 247.681781 
L 305.920805 251.917712 
L 305.780543 256.032642 
L 305.640282 260.052046 
L 305.50002 263.936888 
L 305.359758 267.609823 
L 305.219497 270.986254 
L 305.079235 274.002311 
L 304.938973 276.633064 
L 304.798712 278.896944 
L 304.65845 280.846379 
L 304.518188 282.548973 
L 304.377927 284.066711 
L 304.237665 285.440931 
L 304.097403 286.687809 
L 303.957142 287.804214 
L 303.81688 288.779438 
L 303.676618 289.606581 
L 303.536357 290.288924 
L 303.396095 290.839991 
L 303.255833 291.279232 
L 303.115572 291.626704 
L 302.97531 291.899422 
L 302.835048 292.110367 
L 302.694787 292.26944 
L 302.554525 292.385049 
L 302.414263 292.465202 
L 302.274002 292.517748 
L 302.13374 292.549953 
L 301.993478 292.567855 
L 301.853217 292.575741 
z
" style="fill:#0000ff;fill-opacity:0.25;"/>
   </g>
   <g id="PolyCollection_3">
    <path clip-path="url(#paa7581c424)" d="M 70.670072 292.580918 
L 70.670072 292.59 
L 70.932144 292.59 
L 71.194216 292.59 
L 71.456287 292.59 
L 71.718359 292.59 
L 71.98043 292.59 
L 72.242502 292.59 
L 72.504573 292.59 
L 72.766645 292.59 
L 73.028717 292.59 
L 73.290788 292.59 
L 73.55286 292.59 
L 73.814931 292.59 
L 74.077003 292.59 
L 74.339074 292.59 
L 74.601146 292.59 
L 74.863218 292.59 
L 75.125289 292.59 
L 75.387361 292.59 
L 75.649432 292.59 
L 75.911504 292.59 
L 76.173575 292.59 
L 76.435647 292.59 
L 76.697719 292.59 
L 76.95979 292.59 
L 77.221862 292.59 
L 77.483933 292.59 
L 77.746005 292.59 
L 78.008076 292.59 
L 78.270148 292.59 
L 78.53222 292.59 
L 78.794291 292.59 
L 79.056363 292.59 
L 79.318434 292.59 
L 79.580506 292.59 
L 79.842577 292.59 
L 80.104649 292.59 
L 80.366721 292.59 
L 80.628792 292.59 
L 80.890864 292.59 
L 81.152935 292.59 
L 81.415007 292.59 
L 81.677078 292.59 
L 81.93915 292.59 
L 82.201222 292.59 
L 82.463293 292.59 
L 82.725365 292.59 
L 82.987436 292.59 
L 83.249508 292.59 
L 83.511579 292.59 
L 83.773651 292.59 
L 84.035723 292.59 
L 84.297794 292.59 
L 84.559866 292.59 
L 84.821937 292.59 
L 85.084009 292.59 
L 85.34608 292.59 
L 85.608152 292.59 
L 85.870224 292.59 
L 86.132295 292.59 
L 86.394367 292.59 
L 86.656438 292.59 
L 86.91851 292.59 
L 87.180581 292.59 
L 87.442653 292.59 
L 87.704725 292.59 
L 87.966796 292.59 
L 88.228868 292.59 
L 88.490939 292.59 
L 88.753011 292.59 
L 89.015082 292.59 
L 89.277154 292.59 
L 89.539225 292.59 
L 89.801297 292.59 
L 90.063369 292.59 
L 90.32544 292.59 
L 90.587512 292.59 
L 90.849583 292.59 
L 91.111655 292.59 
L 91.373726 292.59 
L 91.635798 292.59 
L 91.89787 292.59 
L 92.159941 292.59 
L 92.422013 292.59 
L 92.684084 292.59 
L 92.946156 292.59 
L 93.208227 292.59 
L 93.470299 292.59 
L 93.732371 292.59 
L 93.994442 292.59 
L 94.256514 292.59 
L 94.518585 292.59 
L 94.780657 292.59 
L 95.042728 292.59 
L 95.3048 292.59 
L 95.566872 292.59 
L 95.828943 292.59 
L 96.091015 292.59 
L 96.353086 292.59 
L 96.615158 292.59 
L 96.877229 292.59 
L 97.139301 292.59 
L 97.401373 292.59 
L 97.663444 292.59 
L 97.925516 292.59 
L 98.187587 292.59 
L 98.449659 292.59 
L 98.71173 292.59 
L 98.973802 292.59 
L 99.235874 292.59 
L 99.497945 292.59 
L 99.760017 292.59 
L 100.022088 292.59 
L 100.28416 292.59 
L 100.546231 292.59 
L 100.808303 292.59 
L 101.070375 292.59 
L 101.332446 292.59 
L 101.594518 292.59 
L 101.856589 292.59 
L 102.118661 292.59 
L 102.380732 292.59 
L 102.642804 292.59 
L 102.904876 292.59 
L 103.166947 292.59 
L 103.429019 292.59 
L 103.69109 292.59 
L 103.953162 292.59 
L 103.953162 292.581782 
L 103.953162 292.581782 
L 103.69109 292.578028 
L 103.429019 292.568906 
L 103.166947 292.552646 
L 102.904876 292.526942 
L 102.642804 292.489713 
L 102.380732 292.440101 
L 102.118661 292.379514 
L 101.856589 292.312284 
L 101.594518 292.245496 
L 101.332446 292.187651 
L 101.070375 292.146272 
L 100.808303 292.124976 
L 100.546231 292.12086 
L 100.28416 292.122956 
L 100.022088 292.112184 
L 99.760017 292.06271 
L 99.497945 291.944357 
L 99.235874 291.725672 
L 98.973802 291.377506 
L 98.71173 290.877071 
L 98.449659 290.212383 
L 98.187587 289.386461 
L 97.925516 288.420011 
L 97.663444 287.350848 
L 97.401373 286.228458 
L 97.139301 285.103311 
L 96.877229 284.012497 
L 96.615158 282.96545 
L 96.353086 281.934843 
L 96.091015 280.85711 
L 95.828943 279.64434 
L 95.566872 278.205195 
L 95.3048 276.468742 
L 95.042728 274.403462 
L 94.780657 272.025005 
L 94.518585 269.390206 
L 94.256514 266.579703 
L 93.994442 263.675363 
L 93.732371 260.740211 
L 93.470299 257.807087 
L 93.208227 254.878457 
L 92.946156 251.934959 
L 92.684084 248.946458 
L 92.422013 245.878573 
L 92.159941 242.690835 
L 91.89787 239.328656 
L 91.635798 235.716977 
L 91.373726 231.765213 
L 91.111655 227.388948 
L 90.849583 222.545353 
L 90.587512 217.270471 
L 90.32544 211.70222 
L 90.063369 206.075747 
L 89.801297 200.686985 
L 89.539225 195.832195 
L 89.277154 191.741104 
L 89.015082 188.524916 
L 88.753011 186.156516 
L 88.490939 184.489827 
L 88.228868 183.31229 
L 87.966796 182.4134 
L 87.704725 181.647193 
L 87.442653 180.969323 
L 87.180581 180.438991 
L 86.91851 180.188575 
L 86.656438 180.374505 
L 86.394367 181.127436 
L 86.132295 182.516995 
L 85.870224 184.538433 
L 85.608152 187.119893 
L 85.34608 190.143364 
L 85.084009 193.471274 
L 84.821937 196.972646 
L 84.559866 200.545473 
L 84.297794 204.13333 
L 84.035723 207.73401 
L 83.773651 211.397175 
L 83.511579 215.20859 
L 83.249508 219.261612 
L 82.987436 223.621882 
L 82.725365 228.29602 
L 82.463293 233.216408 
L 82.201222 238.249676 
L 81.93915 243.227486 
L 81.677078 247.988669 
L 81.415007 252.41667 
L 81.152935 256.45854 
L 80.890864 260.120168 
L 80.628792 263.442827 
L 80.366721 266.473294 
L 80.104649 269.240764 
L 79.842577 271.748798 
L 79.580506 273.982598 
L 79.318434 275.925062 
L 79.056363 277.572093 
L 78.794291 278.939631 
L 78.53222 280.060089 
L 78.270148 280.971729 
L 78.008076 281.707906 
L 77.746005 282.292586 
L 77.483933 282.744525 
L 77.221862 283.087278 
L 76.95979 283.358577 
L 76.697719 283.612665 
L 76.435647 283.912671 
L 76.173575 284.315442 
L 75.911504 284.855288 
L 75.649432 285.533909 
L 75.387361 286.320896 
L 75.125289 287.164299 
L 74.863218 288.00646 
L 74.601146 288.798681 
L 74.339074 289.509821 
L 74.077003 290.127321 
L 73.814931 290.652517 
L 73.55286 291.093804 
L 73.290788 291.460917 
L 73.028717 291.762003 
L 72.766645 292.003347 
L 72.504573 292.190553 
L 72.242502 292.329812 
L 71.98043 292.42846 
L 71.718359 292.494653 
L 71.456287 292.536536 
L 71.194216 292.561357 
L 70.932144 292.574837 
L 70.670072 292.580918 
z
" style="fill:#e31a1c;fill-opacity:0.25;"/>
   </g>
   <g id="PolyCollection_4">
    <path clip-path="url(#paa7581c424)" d="M 228.197135 292.570232 
L 228.197135 292.59 
L 228.354611 292.59 
L 228.512088 292.59 
L 228.669564 292.59 
L 228.82704 292.59 
L 228.984516 292.59 
L 229.141992 292.59 
L 229.299469 292.59 
L 229.456945 292.59 
L 229.614421 292.59 
L 229.771897 292.59 
L 229.929374 292.59 
L 230.08685 292.59 
L 230.244326 292.59 
L 230.401802 292.59 
L 230.559279 292.59 
L 230.716755 292.59 
L 230.874231 292.59 
L 231.031707 292.59 
L 231.189184 292.59 
L 231.34666 292.59 
L 231.504136 292.59 
L 231.661612 292.59 
L 231.819089 292.59 
L 231.976565 292.59 
L 232.134041 292.59 
L 232.291517 292.59 
L 232.448994 292.59 
L 232.60647 292.59 
L 232.763946 292.59 
L 232.921422 292.59 
L 233.078899 292.59 
L 233.236375 292.59 
L 233.393851 292.59 
L 233.551327 292.59 
L 233.708803 292.59 
L 233.86628 292.59 
L 234.023756 292.59 
L 234.181232 292.59 
L 234.338708 292.59 
L 234.496185 292.59 
L 234.653661 292.59 
L 234.811137 292.59 
L 234.968613 292.59 
L 235.12609 292.59 
L 235.283566 292.59 
L 235.441042 292.59 
L 235.598518 292.59 
L 235.755995 292.59 
L 235.913471 292.59 
L 236.070947 292.59 
L 236.228423 292.59 
L 236.3859 292.59 
L 236.543376 292.59 
L 236.700852 292.59 
L 236.858328 292.59 
L 237.015805 292.59 
L 237.173281 292.59 
L 237.330757 292.59 
L 237.488233 292.59 
L 237.64571 292.59 
L 237.803186 292.59 
L 237.960662 292.59 
L 238.118138 292.59 
L 238.275614 292.59 
L 238.433091 292.59 
L 238.590567 292.59 
L 238.748043 292.59 
L 238.905519 292.59 
L 239.062996 292.59 
L 239.220472 292.59 
L 239.377948 292.59 
L 239.535424 292.59 
L 239.692901 292.59 
L 239.850377 292.59 
L 240.007853 292.59 
L 240.165329 292.59 
L 240.322806 292.59 
L 240.480282 292.59 
L 240.637758 292.59 
L 240.795234 292.59 
L 240.952711 292.59 
L 241.110187 292.59 
L 241.267663 292.59 
L 241.425139 292.59 
L 241.582616 292.59 
L 241.740092 292.59 
L 241.897568 292.59 
L 242.055044 292.59 
L 242.212521 292.59 
L 242.369997 292.59 
L 242.527473 292.59 
L 242.684949 292.59 
L 242.842425 292.59 
L 242.999902 292.59 
L 243.157378 292.59 
L 243.314854 292.59 
L 243.47233 292.59 
L 243.629807 292.59 
L 243.787283 292.59 
L 243.944759 292.59 
L 244.102235 292.59 
L 244.259712 292.59 
L 244.417188 292.59 
L 244.574664 292.59 
L 244.73214 292.59 
L 244.889617 292.59 
L 245.047093 292.59 
L 245.204569 292.59 
L 245.362045 292.59 
L 245.519522 292.59 
L 245.676998 292.59 
L 245.834474 292.59 
L 245.99195 292.59 
L 246.149427 292.59 
L 246.306903 292.59 
L 246.464379 292.59 
L 246.621855 292.59 
L 246.779332 292.59 
L 246.936808 292.59 
L 247.094284 292.59 
L 247.25176 292.59 
L 247.409236 292.59 
L 247.566713 292.59 
L 247.724189 292.59 
L 247.881665 292.59 
L 248.039141 292.59 
L 248.196618 292.59 
L 248.196618 292.561348 
L 248.196618 292.561348 
L 248.039141 292.538945 
L 247.881665 292.495541 
L 247.724189 292.419213 
L 247.566713 292.292933 
L 247.409236 292.094513 
L 247.25176 291.797591 
L 247.094284 291.373996 
L 246.936808 290.797527 
L 246.779332 290.048724 
L 246.621855 289.119655 
L 246.464379 288.017365 
L 246.306903 286.764567 
L 246.149427 285.396564 
L 245.99195 283.954269 
L 245.834474 282.474274 
L 245.676998 280.978038 
L 245.519522 279.462843 
L 245.362045 277.897138 
L 245.204569 276.222034 
L 245.047093 274.359235 
L 244.889617 272.224054 
L 244.73214 269.74067 
L 244.574664 266.856039 
L 244.417188 263.548908 
L 244.259712 259.831436 
L 244.102235 255.742611 
L 243.944759 251.33479 
L 243.787283 246.656698 
L 243.629807 241.737559 
L 243.47233 236.577219 
L 243.314854 231.145883 
L 243.157378 225.39472 
L 242.999902 219.275678 
L 242.842425 212.766359 
L 242.684949 205.894375 
L 242.527473 198.755358 
L 242.369997 191.519641 
L 242.212521 184.423943 
L 242.055044 177.746437 
L 241.897568 171.766405 
L 241.740092 166.713667 
L 241.582616 162.717398 
L 241.425139 159.767174 
L 241.267663 157.698943 
L 241.110187 156.213758 
L 240.952711 154.928248 
L 240.795234 153.445955 
L 240.637758 151.431836 
L 240.480282 148.671535 
L 240.322806 145.102778 
L 240.165329 140.815713 
L 240.007853 136.028134 
L 239.850377 131.046468 
L 239.692901 126.223257 
L 239.535424 121.917856 
L 239.377948 118.462456 
L 239.220472 116.132843 
L 239.062996 115.123652 
L 238.905519 115.530115 
L 238.748043 117.340394 
L 238.590567 120.442398 
L 238.433091 124.64601 
L 238.275614 129.716831 
L 238.118138 135.413189 
L 237.960662 141.51655 
L 237.803186 147.847814 
L 237.64571 154.267621 
L 237.488233 160.665398 
L 237.330757 166.946335 
L 237.173281 173.025634 
L 237.015805 178.834836 
L 236.858328 184.33806 
L 236.700852 189.549835 
L 236.543376 194.544006 
L 236.3859 199.44611 
L 236.228423 204.4082 
L 236.070947 209.572297 
L 235.913471 215.033318 
L 235.755995 220.812511 
L 235.598518 226.848638 
L 235.441042 233.008228 
L 235.283566 239.110681 
L 235.12609 244.960673 
L 234.968613 250.379773 
L 234.811137 255.230906 
L 234.653661 259.432259 
L 234.496185 262.960312 
L 234.338708 265.844106 
L 234.181232 268.15417 
L 234.023756 269.989545 
L 233.86628 271.465293 
L 233.708803 272.701385 
L 233.551327 273.812637 
L 233.393851 274.899068 
L 233.236375 276.036775 
L 233.078899 277.270609 
L 232.921422 278.610778 
L 232.763946 280.035141 
L 232.60647 281.497529 
L 232.448994 282.940331 
L 232.291517 284.308033 
L 232.134041 285.558022 
L 231.976565 286.666102 
L 231.819089 287.626136 
L 231.661612 288.445288 
L 231.504136 289.137513 
L 231.34666 289.71794 
L 231.189184 290.199821 
L 231.031707 290.594251 
L 230.874231 290.911671 
L 230.716755 291.163647 
L 230.559279 291.363649 
L 230.401802 291.526328 
L 230.244326 291.665617 
L 230.08685 291.79257 
L 229.929374 291.913852 
L 229.771897 292.031463 
L 229.614421 292.143697 
L 229.456945 292.246861 
L 229.299469 292.337103 
L 229.141992 292.411772 
L 228.984516 292.47004 
L 228.82704 292.512809 
L 228.669564 292.542123 
L 228.512088 292.560378 
L 228.354611 292.569506 
L 228.197135 292.570232 
z
" style="fill-opacity:0.25;"/>
   </g>
   <g id="PolyCollection_5">
    <path clip-path="url(#paa7581c424)" d="M 268.933948 292.577384 
L 268.933948 292.59 
L 269.092306 292.59 
L 269.250664 292.59 
L 269.409022 292.59 
L 269.56738 292.59 
L 269.725738 292.59 
L 269.884096 292.59 
L 270.042454 292.59 
L 270.200813 292.59 
L 270.359171 292.59 
L 270.517529 292.59 
L 270.675887 292.59 
L 270.834245 292.59 
L 270.992603 292.59 
L 271.150961 292.59 
L 271.309319 292.59 
L 271.467677 292.59 
L 271.626035 292.59 
L 271.784393 292.59 
L 271.942752 292.59 
L 272.10111 292.59 
L 272.259468 292.59 
L 272.417826 292.59 
L 272.576184 292.59 
L 272.734542 292.59 
L 272.8929 292.59 
L 273.051258 292.59 
L 273.209616 292.59 
L 273.367974 292.59 
L 273.526333 292.59 
L 273.684691 292.59 
L 273.843049 292.59 
L 274.001407 292.59 
L 274.159765 292.59 
L 274.318123 292.59 
L 274.476481 292.59 
L 274.634839 292.59 
L 274.793197 292.59 
L 274.951555 292.59 
L 275.109914 292.59 
L 275.268272 292.59 
L 275.42663 292.59 
L 275.584988 292.59 
L 275.743346 292.59 
L 275.901704 292.59 
L 276.060062 292.59 
L 276.21842 292.59 
L 276.376778 292.59 
L 276.535136 292.59 
L 276.693495 292.59 
L 276.851853 292.59 
L 277.010211 292.59 
L 277.168569 292.59 
L 277.326927 292.59 
L 277.485285 292.59 
L 277.643643 292.59 
L 277.802001 292.59 
L 277.960359 292.59 
L 278.118717 292.59 
L 278.277075 292.59 
L 278.435434 292.59 
L 278.593792 292.59 
L 278.75215 292.59 
L 278.910508 292.59 
L 279.068866 292.59 
L 279.227224 292.59 
L 279.385582 292.59 
L 279.54394 292.59 
L 279.702298 292.59 
L 279.860656 292.59 
L 280.019015 292.59 
L 280.177373 292.59 
L 280.335731 292.59 
L 280.494089 292.59 
L 280.652447 292.59 
L 280.810805 292.59 
L 280.969163 292.59 
L 281.127521 292.59 
L 281.285879 292.59 
L 281.444237 292.59 
L 281.602596 292.59 
L 281.760954 292.59 
L 281.919312 292.59 
L 282.07767 292.59 
L 282.236028 292.59 
L 282.394386 292.59 
L 282.552744 292.59 
L 282.711102 292.59 
L 282.86946 292.59 
L 283.027818 292.59 
L 283.186177 292.59 
L 283.344535 292.59 
L 283.502893 292.59 
L 283.661251 292.59 
L 283.819609 292.59 
L 283.977967 292.59 
L 284.136325 292.59 
L 284.294683 292.59 
L 284.453041 292.59 
L 284.611399 292.59 
L 284.769758 292.59 
L 284.928116 292.59 
L 285.086474 292.59 
L 285.244832 292.59 
L 285.40319 292.59 
L 285.561548 292.59 
L 285.719906 292.59 
L 285.878264 292.59 
L 286.036622 292.59 
L 286.19498 292.59 
L 286.353338 292.59 
L 286.511697 292.59 
L 286.670055 292.59 
L 286.828413 292.59 
L 286.986771 292.59 
L 287.145129 292.59 
L 287.303487 292.59 
L 287.461845 292.59 
L 287.620203 292.59 
L 287.778561 292.59 
L 287.936919 292.59 
L 288.095278 292.59 
L 288.253636 292.59 
L 288.411994 292.59 
L 288.570352 292.59 
L 288.72871 292.59 
L 288.887068 292.59 
L 289.045426 292.59 
L 289.045426 292.577384 
L 289.045426 292.577384 
L 288.887068 292.570606 
L 288.72871 292.555339 
L 288.570352 292.528447 
L 288.411994 292.486039 
L 288.253636 292.424645 
L 288.095278 292.342851 
L 287.936919 292.243018 
L 287.778561 292.132457 
L 287.620203 292.023268 
L 287.461845 291.930413 
L 287.303487 291.868198 
L 287.145129 291.846114 
L 286.986771 291.865406 
L 286.828413 291.917582 
L 286.670055 291.985322 
L 286.511697 292.045273 
L 286.353338 292.071583 
L 286.19498 292.038914 
L 286.036622 291.92412 
L 285.878264 291.706434 
L 285.719906 291.366539 
L 285.561548 290.885187 
L 285.40319 290.242053 
L 285.244832 289.415437 
L 285.086474 288.383196 
L 284.928116 287.124891 
L 284.769758 285.624657 
L 284.611399 283.873739 
L 284.453041 281.871484 
L 284.294683 279.623961 
L 284.136325 277.140353 
L 283.977967 274.428324 
L 283.819609 271.490005 
L 283.661251 268.31957 
L 283.502893 264.90195 
L 283.344535 261.211271 
L 283.186177 257.208234 
L 283.027818 252.838108 
L 282.86946 248.033643 
L 282.711102 242.727611 
L 282.552744 236.876261 
L 282.394386 230.488502 
L 282.236028 223.649396 
L 282.07767 216.524623 
L 281.919312 209.33732 
L 281.760954 202.31903 
L 281.602596 195.648072 
L 281.444237 189.396035 
L 281.285879 183.502572 
L 281.127521 177.790099 
L 280.969163 172.016623 
L 280.810805 165.95187 
L 280.652447 159.453681 
L 280.494089 152.521123 
L 280.335731 145.308148 
L 280.177373 138.094644 
L 280.019015 131.225706 
L 279.860656 125.039445 
L 279.702298 119.804654 
L 279.54394 115.68244 
L 279.385582 112.714764 
L 279.227224 110.834177 
L 279.068866 109.886682 
L 278.910508 109.662854 
L 278.75215 109.936313 
L 278.593792 110.508385 
L 278.435434 111.252406 
L 278.277075 112.144518 
L 278.118717 113.266695 
L 277.960359 114.775978 
L 277.802001 116.849083 
L 277.643643 119.624946 
L 277.485285 123.170121 
L 277.326927 127.479889 
L 277.168569 132.507824 
L 277.010211 138.200731 
L 276.851853 144.514565 
L 276.693495 151.40118 
L 276.535136 158.776281 
L 276.376778 166.492687 
L 276.21842 174.341428 
L 276.060062 182.087689 
L 275.901704 189.52875 
L 275.743346 196.548276 
L 275.584988 203.142139 
L 275.42663 209.404154 
L 275.268272 215.478147 
L 275.109914 221.496604 
L 274.951555 227.529957 
L 274.793197 233.563824 
L 274.634839 239.508709 
L 274.476481 245.234075 
L 274.318123 250.611233 
L 274.159765 255.548935 
L 274.001407 260.010812 
L 273.843049 264.012018 
L 273.684691 267.600379 
L 273.526333 270.832392 
L 273.367974 273.75465 
L 273.209616 276.396962 
L 273.051258 278.776674 
L 272.8929 280.908113 
L 272.734542 282.809593 
L 272.576184 284.50351 
L 272.417826 286.010348 
L 272.259468 287.341484 
L 272.10111 288.49613 
L 271.942752 289.464869 
L 271.784393 290.238256 
L 271.626035 290.816305 
L 271.467677 291.214595 
L 271.309319 291.464672 
L 271.150961 291.608993 
L 270.992603 291.692648 
L 270.834245 291.754838 
L 270.675887 291.82271 
L 270.517529 291.909039 
L 270.359171 292.013802 
L 270.200813 292.128506 
L 270.042454 292.241465 
L 269.884096 292.342275 
L 269.725738 292.424445 
L 269.56738 292.485973 
L 269.409022 292.528427 
L 269.250664 292.555333 
L 269.092306 292.570604 
L 268.933948 292.577384 
z
" style="fill:#1f78b4;fill-opacity:0.25;"/>
   </g>
   <g id="PolyCollection_6">
    <path clip-path="url(#paa7581c424)" d="M 301.882683 292.579006 
L 301.882683 292.59 
L 302.077737 292.59 
L 302.272791 292.59 
L 302.467845 292.59 
L 302.662899 292.59 
L 302.857953 292.59 
L 303.053007 292.59 
L 303.248061 292.59 
L 303.443115 292.59 
L 303.638169 292.59 
L 303.833223 292.59 
L 304.028277 292.59 
L 304.223331 292.59 
L 304.418385 292.59 
L 304.613439 292.59 
L 304.808493 292.59 
L 305.003547 292.59 
L 305.198601 292.59 
L 305.393655 292.59 
L 305.588709 292.59 
L 305.783763 292.59 
L 305.978817 292.59 
L 306.173871 292.59 
L 306.368925 292.59 
L 306.563979 292.59 
L 306.759033 292.59 
L 306.954087 292.59 
L 307.149141 292.59 
L 307.344195 292.59 
L 307.539249 292.59 
L 307.734303 292.59 
L 307.929357 292.59 
L 308.124411 292.59 
L 308.319465 292.59 
L 308.514519 292.59 
L 308.709573 292.59 
L 308.904627 292.59 
L 309.099681 292.59 
L 309.294735 292.59 
L 309.489789 292.59 
L 309.684843 292.59 
L 309.879897 292.59 
L 310.074951 292.59 
L 310.270005 292.59 
L 310.465059 292.59 
L 310.660113 292.59 
L 310.855167 292.59 
L 311.050221 292.59 
L 311.245275 292.59 
L 311.440329 292.59 
L 311.635383 292.59 
L 311.830437 292.59 
L 312.025491 292.59 
L 312.220545 292.59 
L 312.415599 292.59 
L 312.610653 292.59 
L 312.805707 292.59 
L 313.000761 292.59 
L 313.195815 292.59 
L 313.390869 292.59 
L 313.585923 292.59 
L 313.780977 292.59 
L 313.976031 292.59 
L 314.171085 292.59 
L 314.366139 292.59 
L 314.561193 292.59 
L 314.756247 292.59 
L 314.951301 292.59 
L 315.146355 292.59 
L 315.341409 292.59 
L 315.536463 292.59 
L 315.731517 292.59 
L 315.926571 292.59 
L 316.121625 292.59 
L 316.316679 292.59 
L 316.511733 292.59 
L 316.706787 292.59 
L 316.901841 292.59 
L 317.096895 292.59 
L 317.291948 292.59 
L 317.487002 292.59 
L 317.682056 292.59 
L 317.87711 292.59 
L 318.072164 292.59 
L 318.267218 292.59 
L 318.462272 292.59 
L 318.657326 292.59 
L 318.85238 292.59 
L 319.047434 292.59 
L 319.242488 292.59 
L 319.437542 292.59 
L 319.632596 292.59 
L 319.82765 292.59 
L 320.022704 292.59 
L 320.217758 292.59 
L 320.412812 292.59 
L 320.607866 292.59 
L 320.80292 292.59 
L 320.997974 292.59 
L 321.193028 292.59 
L 321.388082 292.59 
L 321.583136 292.59 
L 321.77819 292.59 
L 321.973244 292.59 
L 322.168298 292.59 
L 322.363352 292.59 
L 322.558406 292.59 
L 322.75346 292.59 
L 322.948514 292.59 
L 323.143568 292.59 
L 323.338622 292.59 
L 323.533676 292.59 
L 323.72873 292.59 
L 323.923784 292.59 
L 324.118838 292.59 
L 324.313892 292.59 
L 324.508946 292.59 
L 324.704 292.59 
L 324.899054 292.59 
L 325.094108 292.59 
L 325.289162 292.59 
L 325.484216 292.59 
L 325.67927 292.59 
L 325.874324 292.59 
L 326.069378 292.59 
L 326.264432 292.59 
L 326.459486 292.59 
L 326.65454 292.59 
L 326.65454 292.578212 
L 326.65454 292.578212 
L 326.459486 292.571389 
L 326.264432 292.556399 
L 326.069378 292.529357 
L 325.874324 292.484686 
L 325.67927 292.415496 
L 325.484216 292.314429 
L 325.289162 292.175009 
L 325.094108 291.993294 
L 324.899054 291.769401 
L 324.704 291.508278 
L 324.508946 291.219149 
L 324.313892 290.913357 
L 324.118838 290.60089 
L 323.923784 290.2865 
L 323.72873 289.966677 
L 323.533676 289.628725 
L 323.338622 289.252592 
L 323.143568 288.815118 
L 322.948514 288.295378 
L 322.75346 287.679146 
L 322.558406 286.96068 
L 322.363352 286.140985 
L 322.168298 285.223334 
L 321.973244 284.208286 
L 321.77819 283.091 
L 321.583136 281.862707 
L 321.388082 280.515937 
L 321.193028 279.05057 
L 320.997974 277.476419 
L 320.80292 275.809048 
L 320.607866 274.05881 
L 320.412812 272.217168 
L 320.217758 270.247039 
L 320.022704 268.08323 
L 319.82765 265.644948 
L 319.632596 262.856525 
L 319.437542 259.667999 
L 319.242488 256.066589 
L 319.047434 252.073932 
L 318.85238 247.730441 
L 318.657326 243.073975 
L 318.462272 238.122326 
L 318.267218 232.866998 
L 318.072164 227.280781 
L 317.87711 221.336137 
L 317.682056 215.027806 
L 317.487002 208.392154 
L 317.291948 201.51752 
L 317.096895 194.542955 
L 316.901841 187.646261 
L 316.706787 181.024714 
L 316.511733 174.872772 
L 316.316679 169.360324 
L 316.121625 164.613713 
L 315.926571 160.701018 
L 315.731517 157.623728 
L 315.536463 155.317988 
L 315.341409 153.66831 
L 315.146355 152.533538 
L 314.951301 151.779552 
L 314.756247 151.308519 
L 314.561193 151.073824 
L 314.366139 151.074837 
L 314.171085 151.33447 
L 313.976031 151.870741 
L 313.780977 152.676656 
L 313.585923 153.718738 
L 313.390869 154.955219 
L 313.195815 156.364975 
L 313.000761 157.97248 
L 312.805707 159.855309 
L 312.610653 162.128468 
L 312.415599 164.910359 
L 312.220545 168.283751 
L 312.025491 172.26762 
L 311.830437 176.811 
L 311.635383 181.810343 
L 311.440329 187.141837 
L 311.245275 192.694354 
L 311.050221 198.38966 
L 310.855167 204.183206 
L 310.660113 210.047895 
L 310.465059 215.950372 
L 310.270005 221.831802 
L 310.074951 227.602274 
L 309.879897 233.151621 
L 309.684843 238.372463 
L 309.489789 243.186527 
L 309.294735 247.564295 
L 309.099681 251.530912 
L 308.904627 255.156433 
L 308.709573 258.533955 
L 308.514519 261.752931 
L 308.319465 264.875965 
L 308.124411 267.925697 
L 307.929357 270.884743 
L 307.734303 273.707364 
L 307.539249 276.337912 
L 307.344195 278.729387 
L 307.149141 280.856042 
L 306.954087 282.716823 
L 306.759033 284.330143 
L 306.563979 285.723675 
L 306.368925 286.924129 
L 306.173871 287.951015 
L 305.978817 288.815946 
L 305.783763 289.526366 
L 305.588709 290.090946 
L 305.393655 290.523831 
L 305.198601 290.845983 
L 305.003547 291.0835 
L 304.808493 291.263948 
L 304.613439 291.41225 
L 304.418385 291.547447 
L 304.223331 291.681064 
L 304.028277 291.817219 
L 303.833223 291.954139 
L 303.638169 292.086497 
L 303.443115 292.207899 
L 303.248061 292.312951 
L 303.053007 292.398512 
L 302.857953 292.464043 
L 302.662899 292.511209 
L 302.467845 292.543044 
L 302.272791 292.563022 
L 302.077737 292.574268 
L 301.882683 292.579006 
z
" style="fill:#33a02c;fill-opacity:0.25;"/>
   </g>
   <g id="line2d_12">
    <path clip-path="url(#paa7581c424)" d="M 463.548467 292.567678 
L 463.956019 292.425115 
L 464.261683 291.97125 
L 464.567348 290.984635 
L 464.9749 288.656989 
L 465.382452 284.626254 
L 466.605109 268.40446 
L 466.910774 256.335196 
L 467.318326 229.81431 
L 467.929655 170.715794 
L 468.439095 128.171757 
L 469.356088 74.293063 
L 469.967416 29.456352 
L 470.273081 21.364869 
L 470.374969 20.79 
L 470.476857 20.990209 
L 470.680633 23.575838 
L 470.884409 29.937068 
L 471.190074 48.899795 
L 471.90329 116.473984 
L 472.922171 210.705818 
L 473.737276 264.711803 
L 474.144828 278.020947 
L 474.552381 284.099414 
L 475.061821 288.709518 
L 475.571261 291.261962 
L 475.978814 292.284785 
L 476.284478 292.526984 
L 476.488254 292.566591 
L 476.488254 292.566591 
" style="fill:none;stroke:#ff7f00;stroke-linecap:round;stroke-width:2;"/>
   </g>
   <g id="line2d_13">
    <path clip-path="url(#paa7581c424)" d="M 301.853217 292.575741 
L 302.414263 292.465202 
L 302.835048 292.110367 
L 303.255833 291.279232 
L 303.676618 289.606581 
L 304.097403 286.687809 
L 304.65845 280.846379 
L 305.079235 274.002311 
L 305.640282 260.052046 
L 306.481852 232.86937 
L 306.902637 210.584408 
L 307.603945 155.502897 
L 308.305254 106.985462 
L 308.726039 92.850821 
L 309.006562 90.310634 
L 309.146824 90.374976 
L 309.427347 91.130384 
L 309.567609 91.171819 
L 309.848132 90.294248 
L 309.988394 89.841023 
L 310.128655 89.876865 
L 310.268917 90.77408 
L 310.54944 96.055607 
L 310.970225 111.823867 
L 312.232581 171.543343 
L 313.354674 235.164117 
L 314.196244 265.692634 
L 314.757291 279.156288 
L 315.178076 284.132683 
L 315.598861 286.718826 
L 316.019646 288.256425 
L 316.720954 289.781858 
L 317.562524 291.279289 
L 319.105403 292.473686 
L 319.666449 292.575854 
L 319.666449 292.575854 
" style="fill:none;stroke:#0000ff;stroke-linecap:round;stroke-width:2;"/>
   </g>
   <g id="line2d_14">
    <path clip-path="url(#paa7581c424)" d="M 70.670072 292.580918 
L 71.718359 292.494653 
L 72.504573 292.190553 
L 73.028717 291.762003 
L 73.55286 291.093804 
L 74.077003 290.127321 
L 74.863218 288.00646 
L 75.911504 284.855288 
L 76.435647 283.912671 
L 77.746005 282.292586 
L 78.270148 280.971729 
L 78.794291 278.939631 
L 79.318434 275.925062 
L 79.842577 271.748798 
L 80.628792 263.442827 
L 81.415007 252.41667 
L 82.463293 233.216408 
L 83.511579 215.20859 
L 85.34608 190.143364 
L 85.870224 184.538433 
L 86.394367 181.127436 
L 86.656438 180.374505 
L 86.91851 180.188575 
L 87.180581 180.438991 
L 87.704725 181.647193 
L 88.228868 183.31229 
L 88.753011 186.156516 
L 89.277154 191.741104 
L 89.801297 200.686985 
L 91.373726 231.765213 
L 92.159941 242.690835 
L 93.994442 263.675363 
L 95.042728 274.403462 
L 95.566872 278.205195 
L 96.353086 281.934843 
L 98.71173 290.877071 
L 99.235874 291.725672 
L 99.760017 292.06271 
L 100.546231 292.12086 
L 101.594518 292.245496 
L 103.166947 292.552646 
L 103.953162 292.581782 
L 103.953162 292.581782 
" style="fill:none;stroke:#e31a1c;stroke-linecap:round;stroke-width:2;"/>
   </g>
   <g id="line2d_15">
    <path clip-path="url(#paa7581c424)" d="M 228.197135 292.570232 
L 228.984516 292.47004 
L 229.614421 292.143697 
L 230.559279 291.363649 
L 231.031707 290.594251 
L 231.504136 289.137513 
L 231.976565 286.666102 
L 232.60647 281.497529 
L 233.393851 274.899068 
L 234.023756 269.989545 
L 234.338708 265.844106 
L 234.811137 255.230906 
L 235.441042 233.008228 
L 236.3859 199.44611 
L 237.330757 166.946335 
L 238.590567 120.442398 
L 238.905519 115.530115 
L 239.062996 115.123652 
L 239.220472 116.132843 
L 239.535424 121.917856 
L 240.795234 153.445955 
L 241.425139 159.767174 
L 241.740092 166.713667 
L 242.212521 184.423943 
L 243.47233 236.577219 
L 244.259712 259.831436 
L 244.889617 272.224054 
L 245.519522 279.462843 
L 246.621855 289.119655 
L 247.094284 291.373996 
L 247.409236 292.094513 
L 247.724189 292.419213 
L 248.196618 292.561348 
L 248.196618 292.561348 
" style="fill:none;stroke:#000000;stroke-linecap:round;stroke-width:2;"/>
   </g>
   <g id="line2d_16">
    <path clip-path="url(#paa7581c424)" d="M 268.933948 292.577384 
L 269.56738 292.485973 
L 270.200813 292.128506 
L 270.834245 291.754838 
L 271.309319 291.464672 
L 271.626035 290.816305 
L 271.942752 289.464869 
L 272.417826 286.010348 
L 272.8929 280.908113 
L 273.367974 273.75465 
L 273.843049 264.012018 
L 274.476481 245.234075 
L 275.743346 196.548276 
L 277.485285 123.170121 
L 277.960359 114.775978 
L 278.435434 111.252406 
L 278.75215 109.936313 
L 278.910508 109.662854 
L 279.068866 109.886682 
L 279.227224 110.834177 
L 279.54394 115.68244 
L 279.860656 125.039445 
L 281.919312 209.33732 
L 282.86946 248.033643 
L 283.502893 264.90195 
L 284.294683 279.623961 
L 284.928116 287.124891 
L 285.40319 290.242053 
L 285.719906 291.366539 
L 286.036622 291.92412 
L 286.353338 292.071583 
L 287.461845 291.930413 
L 288.72871 292.555339 
L 289.045426 292.577384 
L 289.045426 292.577384 
" style="fill:none;stroke:#1f78b4;stroke-linecap:round;stroke-width:2;"/>
   </g>
   <g id="line2d_17">
    <path clip-path="url(#paa7581c424)" d="M 301.882683 292.579006 
L 302.857953 292.464043 
L 303.638169 292.086497 
L 305.003547 291.0835 
L 305.393655 290.523831 
L 305.783763 289.526366 
L 306.173871 287.951015 
L 306.759033 284.330143 
L 307.344195 278.729387 
L 308.124411 267.925697 
L 309.099681 251.530912 
L 309.684843 238.372463 
L 310.855167 204.183206 
L 312.025491 172.26762 
L 312.610653 162.128468 
L 313.195815 156.364975 
L 313.780977 152.676656 
L 314.171085 151.33447 
L 314.366139 151.074837 
L 314.561193 151.073824 
L 314.756247 151.308519 
L 315.146355 152.533538 
L 315.536463 155.317988 
L 315.926571 160.701018 
L 316.316679 169.360324 
L 317.096895 194.542955 
L 318.267218 232.866998 
L 319.047434 252.073932 
L 319.632596 262.856525 
L 320.217758 270.247039 
L 321.193028 279.05057 
L 321.973244 284.208286 
L 322.558406 286.96068 
L 323.143568 288.815118 
L 323.72873 289.966677 
L 325.094108 291.993294 
L 325.67927 292.415496 
L 326.264432 292.556399 
L 326.65454 292.578212 
L 326.65454 292.578212 
" style="fill:none;stroke:#33a02c;stroke-linecap:round;stroke-width:2;"/>
   </g>
   <g id="line2d_18">
    <path clip-path="url(#paa7581c424)" d="M 314.17986 306.18 
L 314.17986 7.2 
" style="fill:none;stroke:#33a02c;stroke-dasharray:8.4,3.6;stroke-dashoffset:0;stroke-width:3;"/>
   </g>
   <g id="patch_3">
    <path d="M 50.379163 306.18 
L 50.379163 7.2 
" style="fill:none;"/>
   </g>
   <g id="patch_4">
    <path d="M 496.779163 306.18 
L 496.779163 7.2 
" style="fill:none;"/>
   </g>
   <g id="patch_5">
    <path d="M 50.379163 306.18 
L 496.779163 306.18 
" style="fill:none;"/>
   </g>
   <g id="patch_6">
    <path d="M 50.379163 7.2 
L 496.779163 7.2 
" style="fill:none;"/>
   </g>
   <g id="legend_1">
    <g id="line2d_19">
     <path d="M 62.979163 24.7 
L 90.979163 24.7 
" style="fill:none;stroke:#ff7f00;stroke-linecap:round;stroke-width:2;"/>
    </g>
    <g id="line2d_20"/>
    <g id="text_14">
     <!-- log-Additive -->
     <defs>
      <path d="M 35.40625 11.984375 
L 35.5 11.984375 
L 35.5 2.65625 
C 35.5 -0.15625 35.5 -2.859375 34.59375 -5.5625 
C 33.09375 -9.1875 30.5 -12.5 26.203125 -13.09375 
C 25 -13.203125 23.703125 -13.09375 22.5 -13 
C 16 -13 11.703125 -11.046875 6.5 -8.671875 
L 6.5 -12.484375 
C 6.5 -14.40625 6.796875 -14.5 8.703125 -15.109375 
C 13.796875 -17.21875 23 -19.3125 29.296875 -17.71875 
C 36.296875 -15.90625 41.40625 -9.28125 41.90625 -1.21875 
C 42 0.1875 41.90625 1.703125 41.90625 3.125 
L 41.90625 48 
L 35.59375 48 
L 35.59375 39.984375 
C 34.09375 42.484375 32.5 44.796875 29.90625 46.40625 
C 22.90625 50.625 13.40625 46 9.5 40.578125 
C 3.09375 32.640625 1.90625 20.34375 7 11.484375 
C 8 9.78125 9.203125 8.171875 10.59375 6.765625 
C 15.40625 2.046875 23.59375 -0.46875 29.5 3.75 
C 31.90625 5.359375 34.703125 9.078125 35.40625 11.984375 
M 25.5 43 
C 26.40625 43 27.40625 43 28.296875 42.796875 
C 31.90625 42.09375 33.90625 38.875 35.09375 35.65625 
C 35.796875 33.453125 35.59375 31.046875 35.59375 28.734375 
C 35.59375 23.71875 35.5 18.5 33.796875 13.765625 
C 32.59375 10.265625 30.09375 7.140625 26.203125 6.75 
C 24.90625 6.640625 23.59375 6.84375 22.296875 7.140625 
C 16.203125 8.546875 12 13.765625 10.703125 19.796875 
C 8.90625 28.53125 13.203125 39.171875 22 42.1875 
C 23.09375 42.59375 24.296875 42.890625 25.5 43 
" id="Computer_Modern_Bright-103"/>
      <path d="M 0.40625 26.015625 
L 0.40625 21 
L 28.296875 21 
L 28.296875 26.015625 
z
" id="Computer_Modern_Bright-45"/>
      <path d="M 2.09375 0.09375 
L 6.59375 0.09375 
L 8.40625 0.296875 
C 11.40625 6.796875 13.5 14.203125 16.203125 21 
C 26.09375 21 36.90625 21 46.296875 21 
L 47.09375 19.6875 
C 48.796875 14.546875 50.796875 9.59375 52.59375 4.546875 
C 53.09375 3.015625 53.59375 1.515625 54.40625 0.296875 
C 56.59375 0 59.203125 0 61.59375 0 
C 59.90625 4.90625 36.703125 67.203125 36 68.890625 
C 35.90625 69.296875 35.703125 69.890625 35.203125 70 
C 34.59375 70.09375 34 70 33.40625 70 
L 30.09375 70 
C 28.59375 70 28 70.1875 27.59375 68.609375 
C 27.203125 67.59375 2.09375 0.09375 2.09375 0.09375 
M 31.40625 63.171875 
C 35.59375 50.71875 40.09375 38.46875 44.5 26.21875 
L 18.203125 26.21875 
L 26.90625 50.109375 
z
" id="Computer_Modern_Bright-65"/>
      <path d="M 35.59375 69.6875 
L 35.59375 41.375 
C 33.703125 43.484375 31.796875 45.484375 29.203125 46.6875 
C 20.296875 50.40625 11.703125 45.59375 7.296875 37.65625 
C 2.203125 28.21875 2.796875 15.765625 8.90625 6.921875 
C 13.203125 0.796875 20.296875 -2.203125 27.796875 0.5 
C 30.703125 1.609375 34.203125 4.515625 35.40625 7.125 
L 35.5 7.125 
L 35.5 0 
L 41.90625 0 
L 41.90625 69.6875 
z
M 35.203125 37.453125 
C 35.703125 36.546875 35.5 35.34375 35.5 34.34375 
L 35.5 13.65625 
C 35.5 11.34375 35.40625 11.140625 34.09375 9.34375 
C 32.296875 6.625 29.5 4.71875 26.203125 4.421875 
C 21.40625 4.015625 16.5 6.328125 13.703125 10.25 
C 12.09375 12.546875 11.203125 15.359375 10.703125 18.171875 
C 10.5 19.28125 10.5 20.28125 10.40625 21.390625 
C 9.796875 28.015625 11.203125 35.84375 17 40.0625 
C 18 40.765625 19.09375 41.265625 20.203125 41.765625 
C 26 43.984375 32.40625 43.375 35.203125 37.453125 
" id="Computer_Modern_Bright-100"/>
      <path d="M 0.703125 47.5 
C 1.203125 45.5 4.203125 37.578125 4.40625 37.078125 
C 5.40625 34.28125 17.296875 0.609375 17.59375 0.296875 
C 17.90625 -0.203125 18.796875 0 19.296875 0 
L 22.796875 0 
C 24.09375 0 24.90625 -0.296875 25.203125 0.90625 
C 28.40625 9.328125 40.09375 42.703125 41.796875 47.5 
L 35.59375 47.5 
C 30.796875 33.984375 25.90625 20.4375 21.40625 6.609375 
L 11 36.203125 
C 9.5 39.796875 8.59375 43.890625 6.90625 47.203125 
C 5.09375 47.5 2.796875 47.5 0.703125 47.5 
" id="Computer_Modern_Bright-118"/>
     </defs>
     <g style="fill:#262626;" transform="translate(102.179163 29.6)scale(0.14 -0.14)">
      <use transform="scale(0.996264)" xlink:href="#Computer_Modern_Bright-108"/>
      <use transform="translate(19.094959 0)scale(0.996264)" xlink:href="#Computer_Modern_Bright-111"/>
      <use transform="translate(69.738177 0)scale(0.996264)" xlink:href="#Computer_Modern_Bright-103"/>
      <use transform="translate(117.890674 0)scale(0.996264)" xlink:href="#Computer_Modern_Bright-45"/>
      <use transform="translate(151.099347 0)scale(0.996264)" xlink:href="#Computer_Modern_Bright-65"/>
      <use transform="translate(214.610965 0)scale(0.996264)" xlink:href="#Computer_Modern_Bright-100"/>
      <use transform="translate(262.763462 0)scale(0.996264)" xlink:href="#Computer_Modern_Bright-100"/>
      <use transform="translate(310.915959 0)scale(0.996264)" xlink:href="#Computer_Modern_Bright-105"/>
      <use transform="translate(330.010918 0)scale(0.996264)" xlink:href="#Computer_Modern_Bright-116"/>
      <use transform="translate(366.125306 0)scale(0.996264)" xlink:href="#Computer_Modern_Bright-105"/>
      <use transform="translate(385.220265 0)scale(0.996264)" xlink:href="#Computer_Modern_Bright-118"/>
      <use transform="translate(427.561303 0)scale(0.996264)" xlink:href="#Computer_Modern_Bright-101"/>
     </g>
    </g>
    <g id="line2d_21">
     <path d="M 62.979163 43.824611 
L 90.979163 43.824611 
" style="fill:none;stroke:#0000ff;stroke-linecap:round;stroke-width:2;"/>
    </g>
    <g id="line2d_22"/>
    <g id="text_15">
     <!-- \emph{egl-9} $&gt;$ \emph{vhl-1} -->
     <defs>
      <path d="M 44.09375 10.859375 
C 42.796875 9.953125 41.5 8.9375 40.09375 8.140625 
C 34.296875 4.59375 24.09375 1.765625 18.203125 7.53125 
C 14.40625 11.375 13.203125 17.53125 14.796875 25 
L 46.40625 25 
C 46.796875 25 47.40625 24.90625 47.703125 25.203125 
C 48.5 25.8125 48.703125 31.375 48.703125 31.46875 
C 48.703125 32.6875 48.796875 33.890625 48.703125 35.109375 
C 48.296875 40.46875 45.703125 45.3125 40.703125 47.140625 
C 34.296875 49.765625 27 47.84375 21.5 43.90625 
C 13.796875 38.4375 8.40625 29.046875 8 19.453125 
C 7.59375 11.875 10.5 5.515625 15.40625 2.171875 
C 23.40625 -3.484375 34.5 -0.15625 40.90625 3.6875 
C 41.703125 4.203125 42.90625 4.703125 43.40625 5.40625 
C 43.703125 5.90625 44.09375 10.859375 44.09375 10.859375 
M 43.296875 28.953125 
L 16.203125 28.953125 
C 16.59375 30.671875 17.703125 32.390625 18.703125 33.796875 
C 21.296875 37.84375 25.09375 41.46875 29.796875 42.796875 
C 33.59375 43.90625 38.296875 43.1875 41 40.0625 
C 43.203125 37.4375 43.703125 33.390625 43.296875 28.953125 
" id="Computer_Modern_Bright_Slanted-101"/>
      <path d="M 37.90625 12.09375 
L 38 12.09375 
C 37.703125 10.1875 37.203125 8.265625 36.796875 6.34375 
C 36.203125 3.3125 35.703125 0.171875 34.703125 -2.65625 
C 33.5 -5.984375 31.203125 -9.109375 28.296875 -11.140625 
C 25.90625 -12.75 23.796875 -13.265625 19.90625 -12.953125 
C 15.09375 -12.953125 11.59375 -12.03125 7.796875 -10.265625 
C 6.703125 -9.75 5.796875 -9.125 4.703125 -8.609375 
L 3.5 -14.171875 
C 8.09375 -16.25 12.203125 -18 18.40625 -18 
C 19.796875 -18.109375 21.203125 -18.203125 22.59375 -18.109375 
C 31.703125 -17.203125 38.5 -10.21875 41.09375 -2.828125 
C 41.796875 -1 42.09375 1.015625 42.5 2.953125 
L 44.203125 11.03125 
C 44.796875 13.78125 51.90625 47.390625 52 48.5 
L 45.703125 48.5 
L 44.09375 40.265625 
C 43.703125 40.984375 43.5 41.78125 43.203125 42.5 
C 42.5 43.90625 41.5 45.21875 40.296875 46.234375 
C 34.40625 51.1875 25 46.640625 21 43.5 
C 15.09375 38.953125 11 32.296875 9.203125 25.125 
C 6.90625 16.234375 9.5 8.0625 14.90625 4.328125 
C 18.796875 1.59375 24.796875 0.78125 30 3.71875 
C 32.90625 5.4375 36.40625 8.96875 37.90625 12.09375 
M 34.59375 43.5 
C 40.296875 43.5 42.703125 39.546875 42.703125 33.890625 
C 42.59375 33.1875 42.40625 32.375 42.296875 31.671875 
C 40.703125 24.59375 39.40625 17.53125 35.59375 12.0625 
C 33.703125 9.34375 30.90625 7.125 27.5 6.8125 
C 25 6.609375 22.40625 7.515625 20.796875 8.328125 
C 15.90625 11.15625 14.296875 17.21875 15.09375 22.578125 
C 16 28.9375 19.5 35.03125 24.5 39.0625 
C 27.40625 41.4375 30.90625 43.203125 34.59375 43.5 
M 38 12.21875 
C 38 12.21875 38.09375 12.21875 38.09375 12.21875 
C 38.09375 12.125 38 12.015625 38 12.21875 
" id="Computer_Modern_Bright_Slanted-103"/>
      <path d="M 21.09375 70 
L 6.40625 0 
C 8.5 0 10.796875 0 12.59375 0.296875 
L 13 1.40625 
C 14 6.4375 15.09375 11.375 16.203125 16.40625 
L 27.40625 70 
z
" id="Computer_Modern_Bright_Slanted-108"/>
      <path d="M 5.90625 26.0625 
L 4.90625 21 
L 32.796875 21 
L 33.796875 26.0625 
z
" id="Computer_Modern_Bright_Slanted-45"/>
      <path d="M 46.5 33.03125 
L 46.59375 33.03125 
C 46.296875 31.3125 45.90625 29.59375 45.40625 27.96875 
C 42.703125 18.296875 37.09375 7.828125 26.90625 4.625 
C 21.5 3.015625 15.90625 4.03125 12.5 6.734375 
C 12.203125 6.9375 11.59375 7.640625 11.09375 7.546875 
C 10.703125 7.546875 10.296875 6.84375 10.09375 6.53125 
C 9.203125 5.421875 8.296875 4.328125 7.5 3.21875 
C 9.296875 1.796875 11.09375 0.484375 13.296875 -0.3125 
C 15.90625 -1.328125 20.5 -1.828125 23.59375 -1.234375 
C 29 -0.421875 34 2.515625 38.09375 6.03125 
C 47.5 14.375 53.09375 26.21875 54.59375 41.390625 
C 55.09375 45.90625 55.203125 50.515625 54.09375 55.046875 
C 53.203125 58.953125 51.703125 61.46875 48.90625 63.984375 
C 43.796875 68 36.296875 68 30.703125 65.453125 
C 25.40625 62.921875 19.90625 57.65625 17.203125 53.078125 
C 14.59375 48.609375 12.703125 41.40625 13.09375 34.90625 
C 13.5 30.8125 15.5 26.21875 18 23.703125 
C 20.296875 21.515625 23.09375 21 26.09375 21 
C 32.09375 21 38.203125 23.9375 42.5 28.171875 
C 43.90625 29.59375 45.59375 31.109375 46.5 33.03125 
M 43.90625 61.03125 
C 48.59375 58.484375 49.40625 52.515625 48.90625 47.640625 
C 48.703125 44.90625 48.5 42.171875 47.59375 39.53125 
C 45.796875 34.46875 42.09375 30 37.40625 27.578125 
C 32.40625 25.03125 24.59375 25.03125 21.5 29.765625 
C 18.90625 33.484375 19.296875 38 20.09375 42.234375 
C 20.796875 45.546875 21.5 48.96875 23 52.078125 
C 25 56.109375 28.59375 59.734375 32.90625 61.234375 
C 36.5 62.4375 40.59375 62.4375 43.90625 61.03125 
" id="Computer_Modern_Bright_Slanted-57"/>
      <path d="M 62.59375 26.546875 
L 62.59375 26.34375 
C 60.296875 25.546875 58 24.25 55.796875 23.140625 
L 27.09375 9.625 
L 11.09375 2 
C 10.40625 1.703125 9.40625 1.296875 8.90625 0.796875 
C 8 -0.203125 8.203125 -1.703125 9.296875 -2.296875 
C 10.5 -3 11.703125 -2.109375 12.796875 -1.609375 
L 21 2.203125 
C 25.203125 4.3125 55 18.328125 55 18.328125 
L 66 23.546875 
C 67.296875 24.140625 69.40625 24.75 69.40625 26.453125 
C 69.40625 28.15625 67.296875 28.75 66 29.359375 
L 55 34.5625 
L 33.703125 44.6875 
C 29.5 46.6875 25.203125 48.59375 21 50.703125 
L 12.796875 54.5 
C 11.703125 55 10.5 55.90625 9.296875 55.203125 
C 8.203125 54.609375 8 53.09375 8.90625 52.09375 
C 9.40625 51.59375 10.40625 51.203125 11.09375 50.890625 
L 41.59375 36.46875 
L 55.796875 29.75 
C 58 28.65625 60.296875 27.359375 62.59375 26.546875 
" id="Computer_Modern_Bright_Math_Slanted-62"/>
      <path d="M 10.703125 48 
C 12.796875 33.046875 15.09375 18.171875 17.09375 3.125 
C 17.296875 2.109375 17.296875 0.90625 17.796875 0.203125 
C 19.90625 0 22.59375 0 24.703125 0 
L 25.296875 0.703125 
L 44.703125 35.109375 
L 51.796875 48 
C 49.703125 48 47.5 48 45.703125 47.703125 
C 44.90625 46.59375 44.296875 45.484375 43.59375 44.265625 
C 36.59375 31.84375 29.40625 19.515625 22.703125 6.6875 
C 21.59375 16.984375 20 26.6875 18.59375 36.6875 
C 18 40.328125 17.90625 44.46875 16.90625 47.703125 
C 15.09375 48 12.796875 48 10.703125 48 
" id="Computer_Modern_Bright_Slanted-118"/>
      <path d="M 21.09375 70 
L 6.40625 0 
L 10.90625 0 
C 11.796875 0 13 -0.296875 13 1.015625 
C 13.203125 1.71875 13.296875 2.328125 13.40625 3.03125 
C 14.40625 7.78125 19 29.5 19.296875 30.40625 
C 20.40625 33.953125 22.40625 37.375 25.09375 39.90625 
C 28 42.4375 31.203125 43.84375 36.59375 42.9375 
C 38.796875 42.53125 40.90625 41.625 42 39.5 
C 43.5 36.46875 42.40625 32.9375 41.796875 29.90625 
L 35.5 0 
L 40.203125 0 
C 41.203125 0 42.09375 -0.203125 42.09375 1.109375 
C 42.703125 3.125 44.09375 10.625 44.09375 10.625 
L 48.59375 32 
C 49.40625 35.734375 50.296875 40.40625 48.203125 43.9375 
C 46.296875 46.984375 42.90625 48 39.59375 48.296875 
C 38.09375 48.296875 36.5 48.296875 35 48 
C 30.796875 47.3125 27.09375 45.09375 24.09375 42.09375 
C 22.90625 40.890625 21.5 39.59375 20.796875 37.984375 
L 20.703125 37.984375 
L 27.40625 70 
z
" id="Computer_Modern_Bright_Slanted-104"/>
      <path d="M 22.5 61 
L 21.5 55.9375 
C 26.296875 55.9375 31.40625 56.546875 35.703125 58.875 
L 24.5 5.046875 
C 20.296875 5.046875 15.296875 5.5625 11.5 5.046875 
C 10.90625 3.578125 10.703125 1.671875 10.296875 0 
C 21.09375 0 32.59375 0 42.796875 0 
C 43.40625 1.453125 43.703125 3.296875 44.09375 5.046875 
L 31 5.046875 
C 35.203125 26.0625 39.796875 46.59375 44.09375 67.5 
C 41.703125 67.5 42 67.09375 40 65.59375 
C 35.59375 62.59375 28.90625 61 22.5 61 
" id="Computer_Modern_Bright_Slanted-49"/>
     </defs>
     <g style="fill:#262626;" transform="translate(102.179163 48.724611)scale(0.14 -0.14)">
      <use transform="scale(0.996264)" xlink:href="#Computer_Modern_Bright_Slanted-101"/>
      <use transform="translate(44.831668 0)scale(0.996264)" xlink:href="#Computer_Modern_Bright_Slanted-103"/>
      <use transform="translate(92.984165 0)scale(0.996264)" xlink:href="#Computer_Modern_Bright_Slanted-108"/>
      <use transform="translate(112.079123 0)scale(0.996264)" xlink:href="#Computer_Modern_Bright_Slanted-45"/>
      <use transform="translate(145.287797 0)scale(0.996264)" xlink:href="#Computer_Modern_Bright_Slanted-57"/>
      <use transform="translate(238.372567 0)scale(0.996264)" xlink:href="#Computer_Modern_Bright_Math_Slanted-62"/>
      <use transform="translate(347.325246 0)scale(0.996264)" xlink:href="#Computer_Modern_Bright_Slanted-118"/>
      <use transform="translate(389.666284 0)scale(0.996264)" xlink:href="#Computer_Modern_Bright_Slanted-104"/>
      <use transform="translate(437.818781 0)scale(0.996264)" xlink:href="#Computer_Modern_Bright_Slanted-108"/>
      <use transform="translate(456.91374 0)scale(0.996264)" xlink:href="#Computer_Modern_Bright_Slanted-45"/>
      <use transform="translate(490.122414 0)scale(0.996264)" xlink:href="#Computer_Modern_Bright_Slanted-49"/>
     </g>
    </g>
    <g id="line2d_23">
     <path d="M 62.979163 62.949222 
L 90.979163 62.949222 
" style="fill:none;stroke:#e31a1c;stroke-linecap:round;stroke-width:2;"/>
    </g>
    <g id="line2d_24"/>
    <g id="text_16">
     <!-- Suppression -->
     <defs>
      <path d="M 5.09375 13.015625 
C 4.90625 11.390625 4.5 9.671875 4.296875 8.046875 
C 4.09375 6.53125 3.59375 6.109375 4.90625 5.3125 
C 8.296875 3.390625 11.203125 2.0625 15.40625 0.75 
C 24.796875 -2 35.59375 -2 43.796875 4.140625 
C 45.09375 5.140625 46.296875 6.234375 47.40625 7.53125 
C 49.90625 10.890625 52.203125 14.96875 51.59375 20.53125 
C 50.90625 27.671875 46.09375 33.625 39.59375 36.609375 
C 30.703125 40.578125 16.203125 40.578125 12.203125 49.375 
C 9.09375 56.1875 14.59375 62.171875 20.796875 64.375 
C 26.90625 66.6875 34.90625 65.78125 40.09375 63.375 
C 42.5 62.265625 44.5 60.65625 46.703125 59.25 
C 46.90625 60.96875 47.296875 62.578125 47.59375 64.28125 
C 47.796875 65.375 48.09375 66.390625 46.90625 66.78125 
L 45 67.796875 
C 42.296875 69 39.5 69.90625 36.59375 70.5 
C 27.59375 72.203125 17.203125 71.203125 10.40625 64.484375 
C 7 61.0625 4.09375 56.4375 5.296875 49.515625 
C 6.703125 42.390625 12.296875 37.875 18.09375 35.65625 
C 21.5 34.359375 25.296875 33.65625 28.90625 32.75 
C 31 32.34375 33.203125 31.84375 35.296875 31.140625 
C 40.703125 29.125 45.40625 25.109375 45.40625 17.6875 
C 44.796875 11.296875 39.203125 6.625 33.296875 5.203125 
C 25.703125 3.265625 16.703125 6.015625 11.5 8.75 
C 9.203125 9.96875 7.203125 11.59375 5.09375 13.015625 
" id="Computer_Modern_Bright-83"/>
      <path d="M 6.40625 47 
L 6.40625 12.96875 
C 6.40625 10.046875 6.5 7.140625 7.703125 4.421875 
C 9.59375 0.515625 13.59375 -1 17.703125 -1 
C 23.203125 -1 28.703125 0.8125 32.703125 4.734375 
C 33.796875 5.828125 34.796875 6.9375 35.5 8.34375 
L 35.59375 8.34375 
L 35.59375 -0.390625 
L 41.90625 -0.390625 
L 41.90625 47 
L 35.5 47 
L 35.5 22.90625 
C 35.5 18.6875 36.09375 14.0625 33.90625 10.25 
C 32.296875 7.4375 29.5 5.234375 26.40625 4.234375 
C 24.296875 3.625 22.09375 3.625 19.90625 3.828125 
C 17.796875 4.03125 15.5 4.234375 14.09375 6.03125 
C 12.09375 8.453125 12.796875 14.171875 12.796875 17.6875 
L 12.796875 47 
z
" id="Computer_Modern_Bright-117"/>
     </defs>
     <g style="fill:#262626;" transform="translate(102.179163 67.849222)scale(0.14 -0.14)">
      <use transform="scale(0.996264)" xlink:href="#Computer_Modern_Bright-83"/>
      <use transform="translate(56.454753 0)scale(0.996264)" xlink:href="#Computer_Modern_Bright-117"/>
      <use transform="translate(104.60725 0)scale(0.996264)" xlink:href="#Computer_Modern_Bright-112"/>
      <use transform="translate(152.759747 0)scale(0.996264)" xlink:href="#Computer_Modern_Bright-112"/>
      <use transform="translate(198.006514 0)scale(0.996264)" xlink:href="#Computer_Modern_Bright-114"/>
      <use transform="translate(229.969873 0)scale(0.996264)" xlink:href="#Computer_Modern_Bright-101"/>
      <use transform="translate(274.801541 0)scale(0.996264)" xlink:href="#Computer_Modern_Bright-115"/>
      <use transform="translate(313.24057 0)scale(0.996264)" xlink:href="#Computer_Modern_Bright-115"/>
      <use transform="translate(351.679599 0)scale(0.996264)" xlink:href="#Computer_Modern_Bright-105"/>
      <use transform="translate(370.774558 0)scale(0.996264)" xlink:href="#Computer_Modern_Bright-111"/>
      <use transform="translate(421.417776 0)scale(0.996264)" xlink:href="#Computer_Modern_Bright-110"/>
     </g>
    </g>
    <g id="line2d_25">
     <path d="M 62.979163 82.073833 
L 90.979163 82.073833 
" style="fill:none;stroke:#000000;stroke-linecap:round;stroke-width:2;"/>
    </g>
    <g id="line2d_26"/>
    <g id="text_17">
     <!-- \emph{vhl-1} $&gt;$ \emph{egl-9} -->
     <g style="fill:#262626;" transform="translate(102.179163 86.973833)scale(0.14 -0.14)">
      <use transform="scale(0.996264)" xlink:href="#Computer_Modern_Bright_Slanted-118"/>
      <use transform="translate(42.341038 0)scale(0.996264)" xlink:href="#Computer_Modern_Bright_Slanted-104"/>
      <use transform="translate(90.493535 0)scale(0.996264)" xlink:href="#Computer_Modern_Bright_Slanted-108"/>
      <use transform="translate(109.588494 0)scale(0.996264)" xlink:href="#Computer_Modern_Bright_Slanted-45"/>
      <use transform="translate(142.797167 0)scale(0.996264)" xlink:href="#Computer_Modern_Bright_Slanted-49"/>
      <use transform="translate(235.881937 0)scale(0.996264)" xlink:href="#Computer_Modern_Bright_Math_Slanted-62"/>
      <use transform="translate(344.834617 0)scale(0.996264)" xlink:href="#Computer_Modern_Bright_Slanted-101"/>
      <use transform="translate(389.666284 0)scale(0.996264)" xlink:href="#Computer_Modern_Bright_Slanted-103"/>
      <use transform="translate(437.818781 0)scale(0.996264)" xlink:href="#Computer_Modern_Bright_Slanted-108"/>
      <use transform="translate(456.91374 0)scale(0.996264)" xlink:href="#Computer_Modern_Bright_Slanted-45"/>
      <use transform="translate(490.122414 0)scale(0.996264)" xlink:href="#Computer_Modern_Bright_Slanted-57"/>
     </g>
    </g>
    <g id="line2d_27">
     <path d="M 62.979163 101.198444 
L 90.979163 101.198444 
" style="fill:none;stroke:#1f78b4;stroke-linecap:round;stroke-width:2;"/>
    </g>
    <g id="line2d_28"/>
    <g id="text_18">
     <!-- Unbranched -->
     <defs>
      <path d="M 8 69.5 
L 8 32.75 
C 8 25.71875 7.203125 18.390625 10.703125 11.96875 
C 12.90625 7.84375 16.09375 4.4375 20.09375 2.125 
C 29.90625 -3.609375 43.5 -2.203125 51.296875 6.4375 
C 54.796875 10.359375 57.296875 15.171875 57.796875 21.796875 
C 57.90625 23.40625 57.796875 24.921875 57.796875 26.515625 
L 57.796875 69.5 
L 51.40625 69.5 
L 51.40625 25.90625 
C 51.40625 24.59375 51.5 23.1875 51.40625 21.890625 
C 51.203125 18.890625 50.59375 15.921875 49.40625 13.25 
C 43.90625 1 25 1 18 11.890625 
C 14.203125 17.78125 15 25.0625 15 31.65625 
L 15 69.5 
z
" id="Computer_Modern_Bright-85"/>
      <path d="M 6.40625 69.6875 
L 6.40625 0 
L 12.796875 0 
L 12.796875 21.984375 
C 12.796875 26.90625 12.5 31.9375 14.703125 36.546875 
C 15.796875 38.859375 17.5 40.875 19.796875 42.078125 
C 21.703125 42.984375 23.703125 42.984375 25.796875 42.78125 
C 28.796875 42.78125 31.703125 41.984375 33.59375 39.453125 
C 35.40625 37.140625 35.5 34.140625 35.5 31.3125 
L 35.5 0 
L 41.90625 0 
L 41.90625 27.21875 
C 41.90625 32.234375 42.40625 37.75 39.90625 42.28125 
C 37.90625 45.6875 34.40625 47.296875 30.703125 47.796875 
C 28.703125 48 26.703125 48 24.703125 47.703125 
C 21.09375 47.015625 18 45.03125 15.59375 42.34375 
C 14.5 41.046875 13.203125 39.46875 12.796875 37.765625 
L 12.703125 37.765625 
L 12.703125 69.6875 
z
" id="Computer_Modern_Bright-104"/>
     </defs>
     <g style="fill:#262626;" transform="translate(102.179163 106.098444)scale(0.14 -0.14)">
      <use transform="scale(0.996264)" xlink:href="#Computer_Modern_Bright-85"/>
      <use transform="translate(65.587132 0)scale(0.996264)" xlink:href="#Computer_Modern_Bright-110"/>
      <use transform="translate(113.739629 0)scale(0.996264)" xlink:href="#Computer_Modern_Bright-98"/>
      <use transform="translate(158.986397 0)scale(0.996264)" xlink:href="#Computer_Modern_Bright-114"/>
      <use transform="translate(190.949756 0)scale(0.996264)" xlink:href="#Computer_Modern_Bright-97"/>
      <use transform="translate(237.441838 0)scale(0.996264)" xlink:href="#Computer_Modern_Bright-110"/>
      <use transform="translate(285.594335 0)scale(0.996264)" xlink:href="#Computer_Modern_Bright-99"/>
      <use transform="translate(330.426003 0)scale(0.996264)" xlink:href="#Computer_Modern_Bright-104"/>
      <use transform="translate(378.5785 0)scale(0.996264)" xlink:href="#Computer_Modern_Bright-101"/>
      <use transform="translate(423.410167 0)scale(0.996264)" xlink:href="#Computer_Modern_Bright-100"/>
     </g>
    </g>
    <g id="line2d_29">
     <path d="M 62.979163 120.323055 
L 90.979163 120.323055 
" style="fill:none;stroke:#33a02c;stroke-linecap:round;stroke-width:2;"/>
    </g>
    <g id="line2d_30"/>
    <g id="text_19">
     <!-- data -->
     <g style="fill:#262626;" transform="translate(102.179163 125.223055)scale(0.14 -0.14)">
      <use transform="scale(0.996264)" xlink:href="#Computer_Modern_Bright-100"/>
      <use transform="translate(48.152497 0)scale(0.996264)" xlink:href="#Computer_Modern_Bright-97"/>
      <use transform="translate(94.644579 0)scale(0.996264)" xlink:href="#Computer_Modern_Bright-116"/>
      <use transform="translate(130.758967 0)scale(0.996264)" xlink:href="#Computer_Modern_Bright-97"/>
     </g>
    </g>
   </g>
  </g>
 </g>
 <defs>
  <clipPath id="paa7581c424">
   <rect height="298.98" width="446.4" x="50.379163" y="7.2"/>
  </clipPath>
 </defs>
</svg>
