<?xml version="1.0" encoding="utf-8" standalone="no"?>
<!DOCTYPE svg PUBLIC "-//W3C//DTD SVG 1.1//EN"
  "http://www.w3.org/Graphics/SVG/1.1/DTD/svg11.dtd">
<!-- Created with matplotlib (http://matplotlib.org/) -->
<svg height="367pt" version="1.1" viewBox="0 0 505 367" width="505pt" xmlns="http://www.w3.org/2000/svg" xmlns:xlink="http://www.w3.org/1999/xlink">
 <defs>
  <style type="text/css">
*{stroke-linecap:butt;stroke-linejoin:round;}
  </style>
 </defs>
 <g id="figure_1">
  <g id="patch_1">
   <path d="M 0 367.630341 
L 505.452779 367.630341 
L 505.452779 0 
L 0 0 
z
" style="fill:#ffffff;"/>
  </g>
  <g id="axes_1">
   <g id="patch_2">
    <path d="M 51.852779 324.6333 
L 498.252779 324.6333 
L 498.252779 25.6533 
L 51.852779 25.6533 
z
" style="fill:#eaeaf2;"/>
   </g>
   <g id="matplotlib.axis_1">
    <g id="xtick_1">
     <g id="line2d_1"/>
     <g id="text_1">
      <!-- $-0.60$ -->
      <defs>
       <path d="M 65.90625 23 
C 67.59375 23 69.40625 23 69.40625 25 
C 69.40625 27 67.59375 27 65.90625 27 
L 11.796875 27 
C 10.09375 27 8.296875 27 8.296875 25 
C 8.296875 23 10.09375 23 11.796875 23 
z
" id="CMSY10-0"/>
       <path d="M 42 31.640625 
C 42 37.75 41.90625 48.125 37.703125 56.109375 
C 34 63.109375 28.09375 65.59375 22.90625 65.59375 
C 18.09375 65.59375 12 63.40625 8.203125 56.203125 
C 4.203125 48.71875 3.796875 39.4375 3.796875 31.640625 
C 3.796875 25.953125 3.90625 17.28125 7 9.671875 
C 11.296875 -0.609375 19 -2 22.90625 -2 
C 27.5 -2 34.5 -0.109375 38.59375 9.375 
C 41.59375 16.28125 42 24.359375 42 31.640625 
M 22.90625 -0.40625 
C 16.5 -0.40625 12.703125 5.078125 11.296875 12.6875 
C 10.203125 18.5625 10.203125 27.15625 10.203125 32.75 
C 10.203125 40.4375 10.203125 46.828125 11.5 52.921875 
C 13.40625 61.390625 19 64 22.90625 64 
C 27 64 32.296875 61.296875 34.203125 53.125 
C 35.5 47.4375 35.59375 40.734375 35.59375 32.75 
C 35.59375 26.25 35.59375 18.265625 34.40625 12.375 
C 32.296875 1.484375 26.40625 -0.40625 22.90625 -0.40625 
" id="CMR17-48"/>
       <path d="M 18.40625 4.796875 
C 18.40625 7.6875 16 9.671875 13.59375 9.671875 
C 10.703125 9.671875 8.703125 7.28125 8.703125 4.890625 
C 8.703125 2 11.09375 0 13.5 0 
C 16.40625 0 18.40625 2.390625 18.40625 4.796875 
" id="CMMI12-58"/>
       <path d="M 10.59375 34 
C 10.59375 57.65625 21.796875 63 28.296875 63 
C 30.40625 63 35.5 62.640625 37.5 59 
C 35.90625 59 32.90625 59 32.90625 55.515625 
C 32.90625 52.828125 35.09375 51.921875 36.5 51.921875 
C 37.40625 51.921875 40.09375 52.3125 40.09375 55.625 
C 40.09375 61.78125 35.09375 65.296875 28.203125 65.296875 
C 16.296875 65.296875 3.796875 52.96875 3.796875 31 
C 3.796875 3.953125 15.09375 -2 23.09375 -2 
C 32.796875 -2 42 6.671875 42 20.046875 
C 42 32.515625 33.90625 41.59375 23.703125 41.59375 
C 17.59375 41.59375 13.09375 37.609375 10.59375 30.625 
z
M 23.09375 0.390625 
C 10.796875 0.390625 10.796875 18.75 10.796875 22.4375 
C 10.796875 29.625 14.203125 40 23.5 40 
C 25.203125 40 30.09375 40 33.40625 33.125 
C 35.203125 29.21875 35.203125 25.140625 35.203125 20.140625 
C 35.203125 14.75 35.203125 10.78125 33.09375 6.78125 
C 30.90625 2.671875 27.703125 0.390625 23.09375 0.390625 
" id="CMR17-54"/>
      </defs>
      <g style="fill:#262626;" transform="translate(84.36071 338.551799)scale(0.1 -0.1)">
       <use transform="scale(0.996264)" xlink:href="#CMSY10-0"/>
       <use transform="translate(77.487468 0)scale(0.996264)" xlink:href="#CMR17-48"/>
       <use transform="translate(123.177945 0)scale(0.996264)" xlink:href="#CMMI12-58"/>
       <use transform="translate(150.275122 0)scale(0.996264)" xlink:href="#CMR17-54"/>
       <use transform="translate(195.965599 0)scale(0.996264)" xlink:href="#CMR17-48"/>
      </g>
     </g>
    </g>
    <g id="xtick_2">
     <g id="line2d_2"/>
     <g id="text_2">
      <!-- $-0.55$ -->
      <defs>
       <path d="M 11.40625 57.6875 
C 12.40625 57.28125 16.5 56 20.703125 56 
C 30 56 35.09375 61.109375 38 64.0625 
C 38 64.953125 38 65.5 37.40625 65.5 
C 37.296875 65.5 37.09375 65.5 36.296875 65.046875 
C 32.796875 63.40625 28.703125 62.078125 23.703125 62.078125 
C 20.703125 62.078125 16.203125 62.484375 11.296875 64.671875 
C 10.203125 65.171875 10 65.171875 9.90625 65.171875 
C 9.40625 65.171875 9.296875 65.0625 9.296875 63.078125 
L 9.296875 34.421875 
C 9.296875 32.640625 9.296875 32.140625 10.296875 32.140625 
C 10.796875 32.140625 11 32.34375 11.5 33.03125 
C 14.703125 37.515625 19.09375 39.40625 24.09375 39.40625 
C 27.59375 39.40625 35.09375 37.21875 35.09375 20.140625 
C 35.09375 16.953125 35.09375 11.171875 32.09375 6.578125 
C 29.59375 2.484375 25.703125 0.390625 21.40625 0.390625 
C 14.796875 0.390625 8.09375 5 6.296875 12.71875 
C 6.703125 12.609375 7.5 12.421875 7.90625 12.421875 
C 9.203125 12.421875 11.703125 13.125 11.703125 16.21875 
C 11.703125 18.90625 9.796875 20 7.90625 20 
C 5.59375 20 4.09375 18.59375 4.09375 15.796875 
C 4.09375 7.09375 11 -2 21.59375 -2 
C 31.90625 -2 41.703125 6.875 41.703125 19.75 
C 41.703125 31.71875 33.90625 41 24.203125 41 
C 19.09375 41 14.796875 39.109375 11.40625 35.53125 
z
" id="CMR17-53"/>
      </defs>
      <g style="fill:#262626;" transform="translate(170.474615 338.551799)scale(0.1 -0.1)">
       <use transform="scale(0.996264)" xlink:href="#CMSY10-0"/>
       <use transform="translate(77.487468 0)scale(0.996264)" xlink:href="#CMR17-48"/>
       <use transform="translate(123.177945 0)scale(0.996264)" xlink:href="#CMMI12-58"/>
       <use transform="translate(150.275122 0)scale(0.996264)" xlink:href="#CMR17-53"/>
       <use transform="translate(195.965599 0)scale(0.996264)" xlink:href="#CMR17-53"/>
      </g>
     </g>
    </g>
    <g id="xtick_3">
     <g id="line2d_3"/>
     <g id="text_3">
      <!-- $-0.50$ -->
      <g style="fill:#262626;" transform="translate(256.588521 338.551799)scale(0.1 -0.1)">
       <use transform="scale(0.996264)" xlink:href="#CMSY10-0"/>
       <use transform="translate(77.487468 0)scale(0.996264)" xlink:href="#CMR17-48"/>
       <use transform="translate(123.177945 0)scale(0.996264)" xlink:href="#CMMI12-58"/>
       <use transform="translate(150.275122 0)scale(0.996264)" xlink:href="#CMR17-53"/>
       <use transform="translate(195.965599 0)scale(0.996264)" xlink:href="#CMR17-48"/>
      </g>
     </g>
    </g>
    <g id="xtick_4">
     <g id="line2d_4"/>
     <g id="text_4">
      <!-- $-0.45$ -->
      <defs>
       <path d="M 33.59375 64.40625 
C 33.59375 66.5 33.5 66.5 31.703125 66.5 
L 2 19.59375 
L 2 17 
L 27.796875 17 
L 27.796875 7.140625 
C 27.796875 3.5 27.59375 2.5 20.59375 2.5 
L 18.703125 2.5 
L 18.703125 0 
C 21.90625 0 27.296875 0 30.703125 0 
C 34.09375 0 39.5 0 42.703125 0 
L 42.703125 2.5 
L 40.796875 2.5 
C 33.796875 2.5 33.59375 3.5 33.59375 7.140625 
L 33.59375 17 
L 43.796875 17 
L 43.796875 19.59375 
L 33.59375 19.59375 
z
M 28.09375 57.859375 
L 28.09375 19.59375 
L 4 19.59375 
z
" id="CMR17-52"/>
      </defs>
      <g style="fill:#262626;" transform="translate(342.702427 338.551799)scale(0.1 -0.1)">
       <use transform="scale(0.996264)" xlink:href="#CMSY10-0"/>
       <use transform="translate(77.487468 0)scale(0.996264)" xlink:href="#CMR17-48"/>
       <use transform="translate(123.177945 0)scale(0.996264)" xlink:href="#CMMI12-58"/>
       <use transform="translate(150.275122 0)scale(0.996264)" xlink:href="#CMR17-52"/>
       <use transform="translate(195.965599 0)scale(0.996264)" xlink:href="#CMR17-53"/>
      </g>
     </g>
    </g>
    <g id="xtick_5">
     <g id="line2d_5"/>
     <g id="text_5">
      <!-- $-0.40$ -->
      <g style="fill:#262626;" transform="translate(428.816332 338.551799)scale(0.1 -0.1)">
       <use transform="scale(0.996264)" xlink:href="#CMSY10-0"/>
       <use transform="translate(77.487468 0)scale(0.996264)" xlink:href="#CMR17-48"/>
       <use transform="translate(123.177945 0)scale(0.996264)" xlink:href="#CMMI12-58"/>
       <use transform="translate(150.275122 0)scale(0.996264)" xlink:href="#CMR17-52"/>
       <use transform="translate(195.965599 0)scale(0.996264)" xlink:href="#CMR17-48"/>
      </g>
     </g>
    </g>
    <g id="text_6">
     <!-- Epistasis Coefficient -->
     <defs>
      <path d="M 30.59375 6.765625 
C 22.59375 6.765625 19 6.765625 17.203125 6.765625 
L 17.203125 32.921875 
L 48.203125 32.921875 
L 48.203125 39 
L 17.203125 39 
L 17.203125 62.640625 
L 30.09375 62.640625 
C 31.296875 62.640625 32.5 62.640625 33.703125 62.640625 
L 50.796875 62.640625 
L 50.796875 69 
L 8.796875 69 
L 8.796875 0 
L 52.09375 0 
L 52.09375 6.765625 
z
" id="CMSS17-69"/>
      <path d="M 15.09375 5.203125 
C 18.40625 2.015625 22.90625 -0.078125 27.703125 -0.078125 
C 37 -0.078125 45 9.421875 45 22.0625 
C 45 33.734375 39 44 30.40625 44 
C 25.40625 44 19.40625 42.21875 14.90625 38.625 
L 14.90625 43.203125 
L 7.5 43.203125 
L 7.5 -19 
L 15.09375 -19 
z
M 15.09375 32.8125 
C 15.90625 34 19.296875 37.734375 24.796875 37.734375 
C 31.796875 37.734375 37.40625 30.625 37.40625 22.0625 
C 37.40625 12.296875 30.59375 6 23.90625 6 
C 21.90625 6 19.796875 6.484375 17.796875 8.171875 
C 15.09375 10.53125 15.09375 12 15.09375 13.390625 
z
" id="CMSS17-112"/>
      <path d="M 15.296875 65.359375 
L 6.90625 65.359375 
L 6.90625 57 
L 15.296875 57 
z
M 14.796875 42.796875 
L 7.40625 42.796875 
L 7.40625 0 
L 14.796875 0 
z
" id="CMSS17-105"/>
      <path d="M 32.203125 41.046875 
C 26.296875 43.859375 21.703125 43.859375 18.703125 43.859375 
C 11.59375 43.859375 3.09375 41.375 3.09375 31.296875 
C 3.09375 21.234375 14.09375 19.03125 17.09375 18.421875 
C 21.703125 17.53125 26.796875 16.53125 26.796875 11.5625 
C 26.796875 5.265625 19.59375 5.265625 18.296875 5.265625 
C 14.296875 5.265625 8.796875 6.359375 3.796875 9.96875 
L 2.59375 3.28125 
C 8.296875 0 13.796875 -1 18.40625 -1 
C 30.703125 -1 33.796875 6.5 33.796875 12.203125 
C 33.796875 17.09375 31 20.390625 29.09375 21.890625 
C 25.796875 24.5 24.59375 24.796875 16.40625 26.5 
C 15 26.703125 10.09375 27.796875 10.09375 32.28125 
C 10.09375 38 16.40625 38 17.796875 38 
C 24.296875 38 28.296875 35.984375 31 34.5 
z
" id="CMSS17-115"/>
      <path d="M 16.703125 37 
L 29.703125 37 
L 29.703125 42.765625 
L 16.703125 42.765625 
L 16.703125 55 
L 9.59375 55 
L 9.59375 42.765625 
L 1.703125 42.765625 
L 1.703125 37 
L 9.40625 37 
L 9.40625 11.703125 
C 9.40625 6 10.703125 -1 17.296875 -1 
C 22.296875 -1 26.90625 0.390625 31.296875 2.6875 
L 29.703125 8.5625 
C 27.296875 6.46875 24.40625 5.265625 21.296875 5.265625 
C 16.90625 5.265625 16.703125 10.875 16.703125 13.375 
z
" id="CMSS17-116"/>
      <path d="M 37.59375 27.984375 
C 37.59375 37.375 30.90625 43.875 21.90625 43.875 
C 17.5 43.875 12.703125 43.078125 7.203125 39.890625 
L 7.796875 33.359375 
C 10.296875 35.125 14.59375 38 21.796875 38 
C 26.90625 38 30 34.0625 30 27.84375 
L 30 24 
C 14 24 4 19.34375 4 11.34375 
C 4 7.203125 6.5 -1 14.796875 -1 
C 16.296875 -1 24.40625 -1 30.203125 3.390625 
L 30.203125 -0.296875 
L 37.59375 -0.296875 
z
M 30 12.75 
C 30 10.953125 30 8.5625 27 6.78125 
C 24.40625 5.078125 21.09375 5.078125 19.703125 5.078125 
C 14.703125 5.078125 11.296875 7.984375 11.296875 11.625 
C 11.296875 18.921875 26.90625 18.921875 30 18.921875 
z
" id="CMSS17-97"/>
      <path d="M 54.703125 11.15625 
C 48 6.671875 44.90625 5.375 36.796875 5.375 
C 22.796875 5.375 14.59375 20.359375 14.59375 34.046875 
C 14.59375 48.625 23 63 37.203125 63 
C 43.59375 63 47.796875 61.21875 52.90625 58.046875 
L 54.296875 65.890625 
C 49.5 68.28125 43.40625 69.375 37.296875 69.375 
C 18.09375 69.375 6.203125 51.8125 6.203125 34.046875 
C 6.203125 14.484375 20.296875 -1 36.296875 -1 
C 44.90625 -1 47.90625 -0.296875 55.296875 4.375 
z
" id="CMSS17-67"/>
      <path d="M 44.203125 21.1875 
C 44.203125 34 34.703125 44 23.5 44 
C 12 44 2.703125 33.703125 2.703125 21.1875 
C 2.703125 8.5 12.296875 -1 23.40625 -1 
C 34.796875 -1 44.203125 8.796875 44.203125 21.1875 
M 23.5 5.265625 
C 16.40625 5.265625 10.296875 11.078125 10.296875 22 
C 10.296875 33.609375 17.40625 37.921875 23.40625 37.921875 
C 29.90625 37.921875 36.59375 33.21875 36.59375 22 
C 36.59375 10.671875 30.09375 5.265625 23.5 5.265625 
" id="CMSS17-111"/>
      <path d="M 39.09375 21.515625 
C 39.09375 24.84375 38.90625 31.296875 35.703125 36.640625 
C 32.203125 42.390625 26.5 44 22.203125 44 
C 11.796875 44 3 34.1875 3 21.484375 
C 3 9.09375 12.09375 -1 23.59375 -1 
C 28.09375 -1 33.59375 0.296875 38.59375 3.875 
C 38.59375 4.28125 38.40625 6.46875 38.296875 6.5625 
C 38.296875 6.765625 38 9.84375 38 10.25 
C 33.203125 6.359375 27.703125 5.078125 23.703125 5.078125 
C 17.296875 5.078125 10.40625 10.421875 10.09375 21.515625 
z
M 10.90625 27 
C 12.203125 32.5625 16.59375 37.828125 22.203125 37.828125 
C 23.703125 37.828125 30.703125 37.828125 32.5 27 
z
" id="CMSS17-101"/>
      <path d="M 69.09375 69 
L 61.09375 69 
L 61.09375 61.03125 
L 69.09375 61.03125 
z
M 68.796875 42.765625 
L 61.40625 42.765625 
L 61.40625 0 
L 68.796875 0 
z
M 42.796875 37 
L 53.703125 37 
L 53.703125 42.765625 
L 42.59375 42.765625 
L 42.59375 55.90625 
C 42.59375 61.234375 45 63.9375 48.203125 63.9375 
C 50.40625 63.9375 52.5 63.15625 53.703125 62.375 
L 53.703125 69 
C 51.90625 69.703125 51.09375 70 48.203125 70 
C 40.703125 70 35.40625 62.421875 35.40625 52.75 
L 35.40625 0 
L 42.796875 0 
z
M 16.796875 37 
L 27.703125 37 
L 27.703125 42.765625 
L 16.59375 42.765625 
L 16.59375 55.703125 
C 16.59375 62.421875 20.703125 63.9375 23.59375 63.9375 
C 25.296875 63.9375 27.703125 63.59375 30 62.484375 
L 30 68.90625 
C 27.40625 70 27 70 23.59375 70 
C 15.40625 70 9.40625 62.484375 9.40625 52.59375 
L 9.40625 42.765625 
L 2.5 42.765625 
L 2.5 37 
L 9.40625 37 
L 9.40625 0 
L 16.796875 0 
z
" id="CMSS17-14"/>
      <path d="M 38.5 39.703125 
C 38.5 40.390625 33.90625 42.40625 32.703125 42.796875 
C 29.40625 44 25.203125 44 24.09375 44 
C 11.09375 44 3.296875 32.703125 3.296875 21.296875 
C 3.296875 9.296875 12 -1 23.703125 -1 
C 30.40625 -1 35.203125 1.1875 39.09375 3.78125 
L 38.5 10.375 
C 34.203125 7.078125 29.203125 5.265625 23.796875 5.265625 
C 16 5.265625 10.90625 12.09375 10.90625 21.390625 
C 10.90625 28.609375 14.203125 37.71875 24.203125 37.71875 
C 29.703125 37.71875 32.796875 36.609375 37.40625 33.515625 
z
" id="CMSS17-99"/>
      <path d="M 40.90625 29.328125 
C 40.90625 35.671875 39.40625 44 28.09375 44 
C 21.703125 44 17.5 40.71875 14.703125 37.328125 
L 14.703125 43.09375 
L 7.40625 43.09375 
L 7.40625 0 
L 15 0 
L 15 24.359375 
C 15 30.6875 17.40625 37.9375 24.203125 37.9375 
C 33 37.9375 33.296875 32 33.296875 28.578125 
L 33.296875 0 
L 40.90625 0 
z
" id="CMSS17-110"/>
     </defs>
     <g style="fill:#262626;" transform="translate(204.783702 356.942277)scale(0.18 -0.18)">
      <use transform="scale(0.996264)" xlink:href="#CMSS17-69"/>
      <use transform="translate(55.892013 0)scale(0.996264)" xlink:href="#CMSS17-112"/>
      <use transform="translate(104.096956 0)scale(0.996264)" xlink:href="#CMSS17-105"/>
      <use transform="translate(126.277679 0)scale(0.996264)" xlink:href="#CMSS17-115"/>
      <use transform="translate(162.191221 0)scale(0.996264)" xlink:href="#CMSS17-116"/>
      <use transform="translate(196.022788 0)scale(0.996264)" xlink:href="#CMSS17-97"/>
      <use transform="translate(240.944709 0)scale(0.996264)" xlink:href="#CMSS17-115"/>
      <use transform="translate(276.858251 0)scale(0.996264)" xlink:href="#CMSS17-105"/>
      <use transform="translate(299.038974 0)scale(0.996264)" xlink:href="#CMSS17-115"/>
      <use transform="translate(366.181628 0)scale(0.996264)" xlink:href="#CMSS17-67"/>
      <use transform="translate(426.0374 0)scale(0.996264)" xlink:href="#CMSS17-111"/>
      <use transform="translate(475.483462 0)scale(0.996264)" xlink:href="#CMSS17-101"/>
      <use transform="translate(517.122284 0)scale(0.996264)" xlink:href="#CMSS17-14"/>
      <use transform="translate(593.273226 0)scale(0.996264)" xlink:href="#CMSS17-99"/>
      <use transform="translate(634.912049 0)scale(0.996264)" xlink:href="#CMSS17-105"/>
      <use transform="translate(657.092772 0)scale(0.996264)" xlink:href="#CMSS17-101"/>
      <use transform="translate(698.731594 0)scale(0.996264)" xlink:href="#CMSS17-110"/>
      <use transform="translate(746.936537 0)scale(0.996264)" xlink:href="#CMSS17-116"/>
     </g>
    </g>
   </g>
   <g id="matplotlib.axis_2">
    <g id="ytick_1">
     <g id="line2d_6"/>
     <g id="text_7">
      <!-- $0.00$ -->
      <g style="fill:#262626;" transform="translate(27.141364 314.502549)scale(0.1 -0.1)">
       <use transform="scale(0.996264)" xlink:href="#CMR17-48"/>
       <use transform="translate(45.690477 0)scale(0.996264)" xlink:href="#CMMI12-58"/>
       <use transform="translate(72.787654 0)scale(0.996264)" xlink:href="#CMR17-48"/>
       <use transform="translate(118.478131 0)scale(0.996264)" xlink:href="#CMR17-48"/>
      </g>
     </g>
    </g>
    <g id="ytick_2">
     <g id="line2d_7"/>
     <g id="text_8">
      <!-- $0.02$ -->
      <defs>
       <path d="M 41.703125 15.453125 
L 39.90625 15.453125 
C 38.90625 8.375 38.09375 7.171875 37.703125 6.5625 
C 37.203125 5.765625 30 5.765625 28.59375 5.765625 
L 9.40625 5.765625 
C 13 9.671875 20 16.75 28.5 24.953125 
C 34.59375 30.734375 41.703125 37.53125 41.703125 47.421875 
C 41.703125 59.21875 32.296875 66 21.796875 66 
C 10.796875 66 4.09375 56.3125 4.09375 47.34375 
C 4.09375 43.4375 7 42.9375 8.203125 42.9375 
C 9.203125 42.9375 12.203125 43.546875 12.203125 47.03125 
C 12.203125 50.109375 9.59375 51 8.203125 51 
C 7.59375 51 7 50.90625 6.59375 50.703125 
C 8.5 59.21875 14.296875 63.40625 20.40625 63.40625 
C 29.09375 63.40625 34.796875 56.515625 34.796875 47.421875 
C 34.796875 38.734375 29.703125 31.25 24 24.75 
L 4.09375 2.28125 
L 4.09375 0 
L 39.296875 0 
z
" id="CMR17-50"/>
      </defs>
      <g style="fill:#262626;" transform="translate(27.141364 280.346736)scale(0.1 -0.1)">
       <use transform="scale(0.996264)" xlink:href="#CMR17-48"/>
       <use transform="translate(45.690477 0)scale(0.996264)" xlink:href="#CMMI12-58"/>
       <use transform="translate(72.787654 0)scale(0.996264)" xlink:href="#CMR17-48"/>
       <use transform="translate(118.478131 0)scale(0.996264)" xlink:href="#CMR17-50"/>
      </g>
     </g>
    </g>
    <g id="ytick_3">
     <g id="line2d_8"/>
     <g id="text_9">
      <!-- $0.04$ -->
      <g style="fill:#262626;" transform="translate(27.141364 246.190923)scale(0.1 -0.1)">
       <use transform="scale(0.996264)" xlink:href="#CMR17-48"/>
       <use transform="translate(45.690477 0)scale(0.996264)" xlink:href="#CMMI12-58"/>
       <use transform="translate(72.787654 0)scale(0.996264)" xlink:href="#CMR17-48"/>
       <use transform="translate(118.478131 0)scale(0.996264)" xlink:href="#CMR17-52"/>
      </g>
     </g>
    </g>
    <g id="ytick_4">
     <g id="line2d_9"/>
     <g id="text_10">
      <!-- $0.06$ -->
      <g style="fill:#262626;" transform="translate(27.141364 212.03511)scale(0.1 -0.1)">
       <use transform="scale(0.996264)" xlink:href="#CMR17-48"/>
       <use transform="translate(45.690477 0)scale(0.996264)" xlink:href="#CMMI12-58"/>
       <use transform="translate(72.787654 0)scale(0.996264)" xlink:href="#CMR17-48"/>
       <use transform="translate(118.478131 0)scale(0.996264)" xlink:href="#CMR17-54"/>
      </g>
     </g>
    </g>
    <g id="ytick_5">
     <g id="line2d_10"/>
     <g id="text_11">
      <!-- $0.08$ -->
      <defs>
       <path d="M 27.203125 35.375 
C 33.5 38.546875 39.90625 43.328125 39.90625 50.984375 
C 39.90625 60.015625 31.09375 65.296875 23 65.296875 
C 13.90625 65.296875 5.90625 58.734375 5.90625 49.6875 
C 5.90625 47.203125 6.5 42.921875 10.40625 39.140625 
C 11.40625 38.15625 15.59375 35.171875 18.296875 33.28125 
C 13.796875 30.984375 3.296875 25.53125 3.296875 14.59375 
C 3.296875 4.359375 13.09375 -2 22.796875 -2 
C 33.5 -2 42.5 5.65625 42.5 15.78125 
C 42.5 24.84375 36.40625 29.015625 32.40625 31.703125 
z
M 14.09375 44.09375 
C 13.296875 44.59375 9.296875 47.671875 9.296875 52.359375 
C 9.296875 58.421875 15.59375 63 22.796875 63 
C 30.703125 63 36.5 57.4375 36.5 50.96875 
C 36.5 41.703125 26.09375 36.421875 25.59375 36.421875 
C 25.5 36.421875 25.40625 36.421875 24.59375 37.03125 
z
M 32.5 23.734375 
C 34 22.640625 38.796875 19.375 38.796875 13.296875 
C 38.796875 5.953125 31.40625 0.390625 23 0.390625 
C 13.90625 0.390625 7 6.84375 7 14.6875 
C 7 22.546875 13.09375 29.09375 20 32.1875 
z
" id="CMR17-56"/>
      </defs>
      <g style="fill:#262626;" transform="translate(27.141364 177.879297)scale(0.1 -0.1)">
       <use transform="scale(0.996264)" xlink:href="#CMR17-48"/>
       <use transform="translate(45.690477 0)scale(0.996264)" xlink:href="#CMMI12-58"/>
       <use transform="translate(72.787654 0)scale(0.996264)" xlink:href="#CMR17-48"/>
       <use transform="translate(118.478131 0)scale(0.996264)" xlink:href="#CMR17-56"/>
      </g>
     </g>
    </g>
    <g id="ytick_6">
     <g id="line2d_11"/>
     <g id="text_12">
      <!-- $0.10$ -->
      <defs>
       <path d="M 26.59375 63.40625 
C 26.59375 65.5 26.5 65.5 25.09375 65.5 
C 21.203125 61.1875 15.296875 59.796875 9.703125 59.796875 
C 9.40625 59.796875 8.90625 59.796875 8.796875 59.5 
C 8.703125 59.296875 8.703125 59.09375 8.703125 57 
C 11.796875 57 17 57.59375 21 59.984375 
L 21 7.203125 
C 21 3.6875 20.796875 2.5 12.203125 2.5 
L 9.203125 2.5 
L 9.203125 0 
C 14 0 19 0 23.796875 0 
C 28.59375 0 33.59375 0 38.40625 0 
L 38.40625 2.5 
L 35.40625 2.5 
C 26.796875 2.5 26.59375 3.59375 26.59375 7.15625 
z
" id="CMR17-49"/>
      </defs>
      <g style="fill:#262626;" transform="translate(27.141364 143.723483)scale(0.1 -0.1)">
       <use transform="scale(0.996264)" xlink:href="#CMR17-48"/>
       <use transform="translate(45.690477 0)scale(0.996264)" xlink:href="#CMMI12-58"/>
       <use transform="translate(72.787654 0)scale(0.996264)" xlink:href="#CMR17-49"/>
       <use transform="translate(118.478131 0)scale(0.996264)" xlink:href="#CMR17-48"/>
      </g>
     </g>
    </g>
    <g id="ytick_7">
     <g id="line2d_12"/>
     <g id="text_13">
      <!-- $0.12$ -->
      <g style="fill:#262626;" transform="translate(27.141364 109.56767)scale(0.1 -0.1)">
       <use transform="scale(0.996264)" xlink:href="#CMR17-48"/>
       <use transform="translate(45.690477 0)scale(0.996264)" xlink:href="#CMMI12-58"/>
       <use transform="translate(72.787654 0)scale(0.996264)" xlink:href="#CMR17-49"/>
       <use transform="translate(118.478131 0)scale(0.996264)" xlink:href="#CMR17-50"/>
      </g>
     </g>
    </g>
    <g id="ytick_8">
     <g id="line2d_13"/>
     <g id="text_14">
      <!-- $0.14$ -->
      <g style="fill:#262626;" transform="translate(27.141364 75.411857)scale(0.1 -0.1)">
       <use transform="scale(0.996264)" xlink:href="#CMR17-48"/>
       <use transform="translate(45.690477 0)scale(0.996264)" xlink:href="#CMMI12-58"/>
       <use transform="translate(72.787654 0)scale(0.996264)" xlink:href="#CMR17-49"/>
       <use transform="translate(118.478131 0)scale(0.996264)" xlink:href="#CMR17-52"/>
      </g>
     </g>
    </g>
    <g id="ytick_9">
     <g id="line2d_14"/>
     <g id="text_15">
      <!-- $0.16$ -->
      <g style="fill:#262626;" transform="translate(27.141364 41.256044)scale(0.1 -0.1)">
       <use transform="scale(0.996264)" xlink:href="#CMR17-48"/>
       <use transform="translate(45.690477 0)scale(0.996264)" xlink:href="#CMMI12-58"/>
       <use transform="translate(72.787654 0)scale(0.996264)" xlink:href="#CMR17-49"/>
       <use transform="translate(118.478131 0)scale(0.996264)" xlink:href="#CMR17-54"/>
      </g>
     </g>
    </g>
    <g id="text_16">
     <!-- Density -->
     <defs>
      <path d="M 8.90625 69 
L 8.90625 0 
L 33.5 0 
C 49.90625 0 62.5 15.3125 62.5 33.90625 
C 62.5 53.09375 49.90625 69 33.5 69 
z
M 17.09375 5.578125 
L 17.09375 63.421875 
L 31.296875 63.421875 
C 44.703125 63.421875 54.296875 51.203125 54.296875 33.90625 
C 54.296875 17.296875 44.796875 5.578125 31.296875 5.578125 
z
" id="CMSS17-68"/>
      <path d="M 41.796875 43 
L 34 43 
C 25.5 20.21875 22.59375 10.96875 22.40625 5.984375 
L 22.296875 5.984375 
C 22 10.875 17.59375 22.8125 14.09375 31.359375 
L 9.40625 43 
L 1.296875 43 
L 19 0.203125 
C 17.90625 -2.78125 16.296875 -7.265625 15.796875 -8.265625 
C 13.59375 -13.828125 12.09375 -13.828125 10.5 -13.828125 
C 10.09375 -13.828125 6.90625 -13.828125 3.296875 -12.640625 
L 3.90625 -19.203125 
C 6.40625 -19.703125 8.90625 -20 10.703125 -20 
C 13.203125 -20 18.203125 -20 22.796875 -7.765625 
z
" id="CMSS17-121"/>
     </defs>
     <g style="fill:#262626;" transform="translate(19.6533 201.217192)rotate(-90)scale(0.18 -0.18)">
      <use transform="scale(0.996264)" xlink:href="#CMSS17-68"/>
      <use transform="translate(67.542842 0)scale(0.996264)" xlink:href="#CMSS17-101"/>
      <use transform="translate(109.181664 0)scale(0.996264)" xlink:href="#CMSS17-110"/>
      <use transform="translate(157.386607 0)scale(0.996264)" xlink:href="#CMSS17-115"/>
      <use transform="translate(193.300149 0)scale(0.996264)" xlink:href="#CMSS17-105"/>
      <use transform="translate(215.480872 0)scale(0.996264)" xlink:href="#CMSS17-116"/>
      <use transform="translate(246.709985 0)scale(0.996264)" xlink:href="#CMSS17-121"/>
     </g>
    </g>
   </g>
   <g id="PolyCollection_1">
    <defs>
     <path d="M 72.143688 -56.587041 
L 72.143688 -56.587041 
L 72.549912 -56.587041 
L 72.956136 -56.587041 
L 73.362361 -56.587041 
L 73.768585 -56.587041 
L 74.17481 -56.587041 
L 74.581034 -56.587041 
L 74.987258 -56.587041 
L 75.393483 -56.587041 
L 75.799707 -56.587041 
L 76.205932 -56.587041 
L 76.612156 -56.587041 
L 77.01838 -56.587041 
L 77.424605 -56.587041 
L 77.830829 -56.587041 
L 78.237054 -56.587041 
L 78.643278 -56.587041 
L 79.049503 -56.587041 
L 79.455727 -56.587041 
L 79.861951 -56.587041 
L 80.268176 -56.587041 
L 80.6744 -56.587041 
L 81.080625 -56.587041 
L 81.486849 -56.587041 
L 81.893073 -56.587041 
L 82.299298 -56.587041 
L 82.705522 -56.587041 
L 83.111747 -56.587041 
L 83.517971 -56.587041 
L 83.924195 -56.587041 
L 84.33042 -56.587041 
L 84.736644 -56.587041 
L 85.142869 -56.587041 
L 85.549093 -56.587041 
L 85.955317 -56.587041 
L 86.361542 -56.587041 
L 86.767766 -56.587041 
L 87.173991 -56.587041 
L 87.580215 -56.587041 
L 87.986439 -56.587041 
L 88.392664 -56.587041 
L 88.798888 -56.587041 
L 89.205113 -56.587041 
L 89.611337 -56.587041 
L 90.017561 -56.587041 
L 90.423786 -56.587041 
L 90.83001 -56.587041 
L 91.236235 -56.587041 
L 91.642459 -56.587041 
L 92.048684 -56.587041 
L 92.454908 -56.587041 
L 92.861132 -56.587041 
L 93.267357 -56.587041 
L 93.673581 -56.587041 
L 94.079806 -56.587041 
L 94.48603 -56.587041 
L 94.892254 -56.587041 
L 95.298479 -56.587041 
L 95.704703 -56.587041 
L 96.110928 -56.587041 
L 96.517152 -56.587041 
L 96.923376 -56.587041 
L 97.329601 -56.587041 
L 97.735825 -56.587041 
L 98.14205 -56.587041 
L 98.548274 -56.587041 
L 98.954498 -56.587041 
L 99.360723 -56.587041 
L 99.766947 -56.587041 
L 100.173172 -56.587041 
L 100.579396 -56.587041 
L 100.98562 -56.587041 
L 101.391845 -56.587041 
L 101.798069 -56.587041 
L 102.204294 -56.587041 
L 102.610518 -56.587041 
L 103.016742 -56.587041 
L 103.422967 -56.587041 
L 103.829191 -56.587041 
L 104.235416 -56.587041 
L 104.64164 -56.587041 
L 105.047865 -56.587041 
L 105.454089 -56.587041 
L 105.860313 -56.587041 
L 106.266538 -56.587041 
L 106.672762 -56.587041 
L 107.078987 -56.587041 
L 107.485211 -56.587041 
L 107.891435 -56.587041 
L 108.29766 -56.587041 
L 108.703884 -56.587041 
L 109.110109 -56.587041 
L 109.516333 -56.587041 
L 109.922557 -56.587041 
L 110.328782 -56.587041 
L 110.735006 -56.587041 
L 111.141231 -56.587041 
L 111.547455 -56.587041 
L 111.953679 -56.587041 
L 112.359904 -56.587041 
L 112.766128 -56.587041 
L 113.172353 -56.587041 
L 113.578577 -56.587041 
L 113.984801 -56.587041 
L 114.391026 -56.587041 
L 114.79725 -56.587041 
L 115.203475 -56.587041 
L 115.609699 -56.587041 
L 116.015923 -56.587041 
L 116.422148 -56.587041 
L 116.828372 -56.587041 
L 117.234597 -56.587041 
L 117.640821 -56.587041 
L 118.047046 -56.587041 
L 118.45327 -56.587041 
L 118.859494 -56.587041 
L 119.265719 -56.587041 
L 119.671943 -56.587041 
L 120.078168 -56.587041 
L 120.484392 -56.587041 
L 120.890616 -56.587041 
L 121.296841 -56.587041 
L 121.703065 -56.587041 
L 122.10929 -56.587041 
L 122.515514 -56.587041 
L 122.921738 -56.587041 
L 123.327963 -56.587041 
L 123.734187 -56.587041 
L 124.140412 -56.587041 
L 124.546636 -56.587041 
L 124.95286 -56.587041 
L 125.359085 -56.587041 
L 125.765309 -56.587041 
L 126.171534 -56.587041 
L 126.577758 -56.587041 
L 126.983982 -56.587041 
L 127.390207 -56.587041 
L 127.796431 -56.587041 
L 128.202656 -56.587041 
L 128.60888 -56.587041 
L 129.015104 -56.587041 
L 129.421329 -56.587041 
L 129.827553 -56.587041 
L 130.233778 -56.587041 
L 130.640002 -56.587041 
L 131.046227 -56.587041 
L 131.452451 -56.587041 
L 131.858675 -56.587041 
L 132.2649 -56.587041 
L 132.671124 -56.587041 
L 133.077349 -56.587041 
L 133.483573 -56.587041 
L 133.889797 -56.587041 
L 134.296022 -56.587041 
L 134.702246 -56.587041 
L 135.108471 -56.587041 
L 135.514695 -56.587041 
L 135.920919 -56.587041 
L 136.327144 -56.587041 
L 136.733368 -56.587041 
L 137.139593 -56.587041 
L 137.545817 -56.587041 
L 137.952041 -56.587041 
L 138.358266 -56.587041 
L 138.76449 -56.587041 
L 139.170715 -56.587041 
L 139.576939 -56.587041 
L 139.983163 -56.587041 
L 140.389388 -56.587041 
L 140.795612 -56.587041 
L 141.201837 -56.587041 
L 141.608061 -56.587041 
L 142.014285 -56.587041 
L 142.42051 -56.587041 
L 142.826734 -56.587041 
L 143.232959 -56.587041 
L 143.639183 -56.587041 
L 144.045408 -56.587041 
L 144.451632 -56.587041 
L 144.857856 -56.587041 
L 145.264081 -56.587041 
L 145.670305 -56.587041 
L 146.07653 -56.587041 
L 146.482754 -56.587041 
L 146.888978 -56.587041 
L 147.295203 -56.587041 
L 147.701427 -56.587041 
L 148.107652 -56.587041 
L 148.513876 -56.587041 
L 148.9201 -56.587041 
L 149.326325 -56.587041 
L 149.732549 -56.587041 
L 150.138774 -56.587041 
L 150.544998 -56.587041 
L 150.951222 -56.587041 
L 151.357447 -56.587041 
L 151.763671 -56.587041 
L 152.169896 -56.587041 
L 152.57612 -56.587041 
L 152.982344 -56.587041 
L 153.388569 -56.587041 
L 153.794793 -56.587041 
L 154.201018 -56.587041 
L 154.607242 -56.587041 
L 155.013466 -56.587041 
L 155.419691 -56.587041 
L 155.825915 -56.587041 
L 156.23214 -56.587041 
L 156.638364 -56.587041 
L 157.044589 -56.587041 
L 157.450813 -56.587041 
L 157.857037 -56.587041 
L 158.263262 -56.587041 
L 158.669486 -56.587041 
L 159.075711 -56.587041 
L 159.481935 -56.587041 
L 159.888159 -56.587041 
L 160.294384 -56.587041 
L 160.700608 -56.587041 
L 161.106833 -56.587041 
L 161.513057 -56.587041 
L 161.919281 -56.587041 
L 162.325506 -56.587041 
L 162.73173 -56.587041 
L 163.137955 -56.587041 
L 163.544179 -56.587041 
L 163.950403 -56.587041 
L 164.356628 -56.587041 
L 164.762852 -56.587041 
L 165.169077 -56.587041 
L 165.575301 -56.587041 
L 165.981525 -56.587041 
L 166.38775 -56.587041 
L 166.793974 -56.587041 
L 167.200199 -56.587041 
L 167.606423 -56.587041 
L 168.012647 -56.587041 
L 168.418872 -56.587041 
L 168.825096 -56.587041 
L 169.231321 -56.587041 
L 169.637545 -56.587041 
L 170.04377 -56.587041 
L 170.449994 -56.587041 
L 170.856218 -56.587041 
L 171.262443 -56.587041 
L 171.668667 -56.587041 
L 172.074892 -56.587041 
L 172.481116 -56.587041 
L 172.88734 -56.587041 
L 173.293565 -56.587041 
L 173.699789 -56.587041 
L 174.106014 -56.587041 
L 174.512238 -56.587041 
L 174.918462 -56.587041 
L 175.324687 -56.587041 
L 175.730911 -56.587041 
L 176.137136 -56.587041 
L 176.54336 -56.587041 
L 176.949584 -56.587041 
L 177.355809 -56.587041 
L 177.762033 -56.587041 
L 178.168258 -56.587041 
L 178.574482 -56.587041 
L 178.980706 -56.587041 
L 179.386931 -56.587041 
L 179.793155 -56.587041 
L 180.19938 -56.587041 
L 180.605604 -56.587041 
L 181.011828 -56.587041 
L 181.418053 -56.587041 
L 181.824277 -56.587041 
L 182.230502 -56.587041 
L 182.636726 -56.587041 
L 183.042951 -56.587041 
L 183.449175 -56.587041 
L 183.855399 -56.587041 
L 184.261624 -56.587041 
L 184.667848 -56.587041 
L 185.074073 -56.587041 
L 185.480297 -56.587041 
L 185.886521 -56.587041 
L 186.292746 -56.587041 
L 186.69897 -56.587041 
L 187.105195 -56.587041 
L 187.511419 -56.587041 
L 187.917643 -56.587041 
L 188.323868 -56.587041 
L 188.730092 -56.587041 
L 189.136317 -56.587041 
L 189.542541 -56.587041 
L 189.948765 -56.587041 
L 190.35499 -56.587041 
L 190.761214 -56.587041 
L 191.167439 -56.587041 
L 191.573663 -56.587041 
L 191.979887 -56.587041 
L 192.386112 -56.587041 
L 192.792336 -56.587041 
L 193.198561 -56.587041 
L 193.604785 -56.587041 
L 194.011009 -56.587041 
L 194.417234 -56.587041 
L 194.823458 -56.587041 
L 195.229683 -56.587041 
L 195.635907 -56.587041 
L 196.042132 -56.587041 
L 196.448356 -56.587041 
L 196.85458 -56.587041 
L 197.260805 -56.587041 
L 197.667029 -56.587041 
L 198.073254 -56.587041 
L 198.479478 -56.587041 
L 198.885702 -56.587041 
L 199.291927 -56.587041 
L 199.698151 -56.587041 
L 200.104376 -56.587041 
L 200.5106 -56.587041 
L 200.916824 -56.587041 
L 201.323049 -56.587041 
L 201.729273 -56.587041 
L 202.135498 -56.587041 
L 202.541722 -56.587041 
L 202.947946 -56.587041 
L 203.354171 -56.587041 
L 203.760395 -56.587041 
L 204.16662 -56.587041 
L 204.572844 -56.587041 
L 204.979068 -56.587041 
L 205.385293 -56.587041 
L 205.791517 -56.587041 
L 206.197742 -56.587041 
L 206.603966 -56.587041 
L 207.01019 -56.587041 
L 207.416415 -56.587041 
L 207.822639 -56.587041 
L 208.228864 -56.587041 
L 208.635088 -56.587041 
L 209.041313 -56.587041 
L 209.447537 -56.587041 
L 209.853761 -56.587041 
L 210.259986 -56.587041 
L 210.66621 -56.587041 
L 211.072435 -56.587041 
L 211.478659 -56.587041 
L 211.884883 -56.587041 
L 212.291108 -56.587041 
L 212.697332 -56.587041 
L 213.103557 -56.587041 
L 213.509781 -56.587041 
L 213.916005 -56.587041 
L 214.32223 -56.587041 
L 214.728454 -56.587041 
L 215.134679 -56.587041 
L 215.540903 -56.587041 
L 215.947127 -56.587041 
L 216.353352 -56.587041 
L 216.759576 -56.587041 
L 217.165801 -56.587041 
L 217.572025 -56.587041 
L 217.978249 -56.587041 
L 218.384474 -56.587041 
L 218.790698 -56.587041 
L 219.196923 -56.587041 
L 219.603147 -56.587041 
L 220.009371 -56.587041 
L 220.415596 -56.587041 
L 220.82182 -56.587041 
L 221.228045 -56.587041 
L 221.634269 -56.587041 
L 222.040494 -56.587041 
L 222.446718 -56.587041 
L 222.852942 -56.587041 
L 223.259167 -56.587041 
L 223.665391 -56.587041 
L 224.071616 -56.587041 
L 224.47784 -56.587041 
L 224.884064 -56.587041 
L 225.290289 -56.587041 
L 225.696513 -56.587041 
L 226.102738 -56.587041 
L 226.508962 -56.587041 
L 226.915186 -56.587041 
L 227.321411 -56.587041 
L 227.727635 -56.587041 
L 228.13386 -56.587041 
L 228.540084 -56.587041 
L 228.946308 -56.587041 
L 229.352533 -56.587041 
L 229.758757 -56.587041 
L 230.164982 -56.587041 
L 230.571206 -56.587041 
L 230.97743 -56.587041 
L 231.383655 -56.587041 
L 231.789879 -56.587041 
L 232.196104 -56.587041 
L 232.602328 -56.587041 
L 233.008552 -56.587041 
L 233.414777 -56.587041 
L 233.821001 -56.587041 
L 234.227226 -56.587041 
L 234.63345 -56.587041 
L 235.039675 -56.587041 
L 235.445899 -56.587041 
L 235.852123 -56.587041 
L 236.258348 -56.587041 
L 236.664572 -56.587041 
L 237.070797 -56.587041 
L 237.477021 -56.587041 
L 237.883245 -56.587041 
L 238.28947 -56.587041 
L 238.695694 -56.587041 
L 239.101919 -56.587041 
L 239.508143 -56.587041 
L 239.914367 -56.587041 
L 240.320592 -56.587041 
L 240.726816 -56.587041 
L 241.133041 -56.587041 
L 241.539265 -56.587041 
L 241.945489 -56.587041 
L 242.351714 -56.587041 
L 242.757938 -56.587041 
L 243.164163 -56.587041 
L 243.570387 -56.587041 
L 243.976611 -56.587041 
L 244.382836 -56.587041 
L 244.78906 -56.587041 
L 245.195285 -56.587041 
L 245.601509 -56.587041 
L 246.007733 -56.587041 
L 246.413958 -56.587041 
L 246.820182 -56.587041 
L 247.226407 -56.587041 
L 247.632631 -56.587041 
L 248.038856 -56.587041 
L 248.44508 -56.587041 
L 248.851304 -56.587041 
L 249.257529 -56.587041 
L 249.663753 -56.587041 
L 250.069978 -56.587041 
L 250.476202 -56.587041 
L 250.882426 -56.587041 
L 251.288651 -56.587041 
L 251.694875 -56.587041 
L 252.1011 -56.587041 
L 252.507324 -56.587041 
L 252.913548 -56.587041 
L 253.319773 -56.587041 
L 253.725997 -56.587041 
L 254.132222 -56.587041 
L 254.538446 -56.587041 
L 254.94467 -56.587041 
L 255.350895 -56.587041 
L 255.757119 -56.587041 
L 256.163344 -56.587041 
L 256.569568 -56.587041 
L 256.975792 -56.587041 
L 257.382017 -56.587041 
L 257.788241 -56.587041 
L 258.194466 -56.587041 
L 258.60069 -56.587041 
L 259.006914 -56.587041 
L 259.413139 -56.587041 
L 259.819363 -56.587041 
L 260.225588 -56.587041 
L 260.631812 -56.587041 
L 261.038037 -56.587041 
L 261.444261 -56.587041 
L 261.850485 -56.587041 
L 262.25671 -56.587041 
L 262.662934 -56.587041 
L 263.069159 -56.587041 
L 263.475383 -56.587041 
L 263.881607 -56.587041 
L 264.287832 -56.587041 
L 264.694056 -56.587041 
L 265.100281 -56.587041 
L 265.506505 -56.587041 
L 265.912729 -56.587041 
L 266.318954 -56.587041 
L 266.725178 -56.587041 
L 267.131403 -56.587041 
L 267.537627 -56.587041 
L 267.943851 -56.587041 
L 268.350076 -56.587041 
L 268.7563 -56.587041 
L 269.162525 -56.587041 
L 269.568749 -56.587041 
L 269.974973 -56.587041 
L 270.381198 -56.587041 
L 270.787422 -56.587041 
L 271.193647 -56.587041 
L 271.599871 -56.587041 
L 272.006095 -56.587041 
L 272.41232 -56.587041 
L 272.818544 -56.587041 
L 273.224769 -56.587041 
L 273.630993 -56.587041 
L 274.037218 -56.587041 
L 274.443442 -56.587041 
L 274.849666 -56.587041 
L 275.255891 -56.587041 
L 275.662115 -56.587041 
L 276.06834 -56.587041 
L 276.474564 -56.587041 
L 276.880788 -56.587041 
L 277.287013 -56.587041 
L 277.693237 -56.587041 
L 278.099462 -56.587041 
L 278.505686 -56.587041 
L 278.91191 -56.587041 
L 279.318135 -56.587041 
L 279.724359 -56.587041 
L 280.130584 -56.587041 
L 280.536808 -56.587041 
L 280.943032 -56.587041 
L 281.349257 -56.587041 
L 281.755481 -56.587041 
L 282.161706 -56.587041 
L 282.56793 -56.587041 
L 282.974154 -56.587041 
L 283.380379 -56.587041 
L 283.786603 -56.587041 
L 284.192828 -56.587041 
L 284.599052 -56.587041 
L 285.005276 -56.587041 
L 285.411501 -56.587041 
L 285.817725 -56.587041 
L 286.22395 -56.587041 
L 286.630174 -56.587041 
L 287.036399 -56.587041 
L 287.442623 -56.587041 
L 287.848847 -56.587041 
L 288.255072 -56.587041 
L 288.661296 -56.587041 
L 289.067521 -56.587041 
L 289.473745 -56.587041 
L 289.879969 -56.587041 
L 290.286194 -56.587041 
L 290.692418 -56.587041 
L 291.098643 -56.587041 
L 291.504867 -56.587041 
L 291.911091 -56.587041 
L 292.317316 -56.587041 
L 292.72354 -56.587041 
L 293.129765 -56.587041 
L 293.535989 -56.587041 
L 293.942213 -56.587041 
L 294.348438 -56.587041 
L 294.754662 -56.587041 
L 295.160887 -56.587041 
L 295.567111 -56.587041 
L 295.973335 -56.587041 
L 296.37956 -56.587041 
L 296.785784 -56.587041 
L 297.192009 -56.587041 
L 297.598233 -56.587041 
L 298.004457 -56.587041 
L 298.410682 -56.587041 
L 298.816906 -56.587041 
L 299.223131 -56.587041 
L 299.629355 -56.587041 
L 300.03558 -56.587041 
L 300.441804 -56.587041 
L 300.848028 -56.587041 
L 301.254253 -56.587041 
L 301.660477 -56.587041 
L 302.066702 -56.587041 
L 302.472926 -56.587041 
L 302.87915 -56.587041 
L 303.285375 -56.587041 
L 303.691599 -56.587041 
L 304.097824 -56.587041 
L 304.504048 -56.587041 
L 304.910272 -56.587041 
L 305.316497 -56.587041 
L 305.722721 -56.587041 
L 306.128946 -56.587041 
L 306.53517 -56.587041 
L 306.941394 -56.587041 
L 307.347619 -56.587041 
L 307.753843 -56.587041 
L 308.160068 -56.587041 
L 308.566292 -56.587041 
L 308.972516 -56.587041 
L 309.378741 -56.587041 
L 309.784965 -56.587041 
L 310.19119 -56.587041 
L 310.597414 -56.587041 
L 311.003638 -56.587041 
L 311.409863 -56.587041 
L 311.816087 -56.587041 
L 312.222312 -56.587041 
L 312.628536 -56.587041 
L 313.034761 -56.587041 
L 313.440985 -56.587041 
L 313.847209 -56.587041 
L 314.253434 -56.587041 
L 314.659658 -56.587041 
L 315.065883 -56.587041 
L 315.472107 -56.587041 
L 315.878331 -56.587041 
L 316.284556 -56.587041 
L 316.69078 -56.587041 
L 317.097005 -56.587041 
L 317.503229 -56.587041 
L 317.909453 -56.587041 
L 318.315678 -56.587041 
L 318.721902 -56.587041 
L 319.128127 -56.587041 
L 319.534351 -56.587041 
L 319.940575 -56.587041 
L 320.3468 -56.587041 
L 320.753024 -56.587041 
L 321.159249 -56.587041 
L 321.565473 -56.587041 
L 321.971697 -56.587041 
L 322.377922 -56.587041 
L 322.784146 -56.587041 
L 323.190371 -56.587041 
L 323.596595 -56.587041 
L 324.002819 -56.587041 
L 324.409044 -56.587041 
L 324.815268 -56.587041 
L 325.221493 -56.587041 
L 325.627717 -56.587041 
L 326.033942 -56.587041 
L 326.440166 -56.587041 
L 326.84639 -56.587041 
L 327.252615 -56.587041 
L 327.658839 -56.587041 
L 328.065064 -56.587041 
L 328.471288 -56.587041 
L 328.877512 -56.587041 
L 329.283737 -56.587041 
L 329.689961 -56.587041 
L 330.096186 -56.587041 
L 330.50241 -56.587041 
L 330.908634 -56.587041 
L 331.314859 -56.587041 
L 331.721083 -56.587041 
L 332.127308 -56.587041 
L 332.533532 -56.587041 
L 332.939756 -56.587041 
L 333.345981 -56.587041 
L 333.752205 -56.587041 
L 334.15843 -56.587041 
L 334.564654 -56.587041 
L 334.970878 -56.587041 
L 335.377103 -56.587041 
L 335.783327 -56.587041 
L 336.189552 -56.587041 
L 336.595776 -56.587041 
L 337.002 -56.587041 
L 337.408225 -56.587041 
L 337.814449 -56.587041 
L 338.220674 -56.587041 
L 338.626898 -56.587041 
L 339.033123 -56.587041 
L 339.439347 -56.587041 
L 339.845571 -56.587041 
L 340.251796 -56.587041 
L 340.65802 -56.587041 
L 341.064245 -56.587041 
L 341.470469 -56.587041 
L 341.876693 -56.587041 
L 342.282918 -56.587041 
L 342.689142 -56.587041 
L 343.095367 -56.587041 
L 343.501591 -56.587041 
L 343.907815 -56.587041 
L 344.31404 -56.587041 
L 344.720264 -56.587041 
L 345.126489 -56.587041 
L 345.532713 -56.587041 
L 345.938937 -56.587041 
L 346.345162 -56.587041 
L 346.751386 -56.587041 
L 347.157611 -56.587041 
L 347.563835 -56.587041 
L 347.970059 -56.587041 
L 348.376284 -56.587041 
L 348.782508 -56.587041 
L 349.188733 -56.587041 
L 349.594957 -56.587041 
L 350.001181 -56.587041 
L 350.407406 -56.587041 
L 350.81363 -56.587041 
L 351.219855 -56.587041 
L 351.626079 -56.587041 
L 352.032304 -56.587041 
L 352.438528 -56.587041 
L 352.844752 -56.587041 
L 353.250977 -56.587041 
L 353.657201 -56.587041 
L 354.063426 -56.587041 
L 354.46965 -56.587041 
L 354.875874 -56.587041 
L 355.282099 -56.587041 
L 355.688323 -56.587041 
L 356.094548 -56.587041 
L 356.500772 -56.587041 
L 356.906996 -56.587041 
L 357.313221 -56.587041 
L 357.719445 -56.587041 
L 358.12567 -56.587041 
L 358.531894 -56.587041 
L 358.938118 -56.587041 
L 359.344343 -56.587041 
L 359.750567 -56.587041 
L 360.156792 -56.587041 
L 360.563016 -56.587041 
L 360.96924 -56.587041 
L 361.375465 -56.587041 
L 361.781689 -56.587041 
L 362.187914 -56.587041 
L 362.594138 -56.587041 
L 363.000362 -56.587041 
L 363.406587 -56.587041 
L 363.812811 -56.587041 
L 364.219036 -56.587041 
L 364.62526 -56.587041 
L 365.031484 -56.587041 
L 365.437709 -56.587041 
L 365.843933 -56.587041 
L 366.250158 -56.587041 
L 366.656382 -56.587041 
L 367.062607 -56.587041 
L 367.468831 -56.587041 
L 367.875055 -56.587041 
L 368.28128 -56.587041 
L 368.687504 -56.587041 
L 369.093729 -56.587041 
L 369.499953 -56.587041 
L 369.906177 -56.587041 
L 370.312402 -56.587041 
L 370.718626 -56.587041 
L 371.124851 -56.587041 
L 371.531075 -56.587041 
L 371.937299 -56.587041 
L 372.343524 -56.587041 
L 372.749748 -56.587041 
L 373.155973 -56.587041 
L 373.562197 -56.587041 
L 373.968421 -56.587041 
L 374.374646 -56.587041 
L 374.78087 -56.587041 
L 375.187095 -56.587041 
L 375.593319 -56.587041 
L 375.999543 -56.587041 
L 376.405768 -56.587041 
L 376.811992 -56.587041 
L 377.218217 -56.587041 
L 377.624441 -56.587041 
L 378.030665 -56.587041 
L 378.43689 -56.587041 
L 378.843114 -56.587041 
L 379.249339 -56.587041 
L 379.655563 -56.587041 
L 380.061788 -56.587041 
L 380.468012 -56.587041 
L 380.874236 -56.587041 
L 381.280461 -56.587041 
L 381.686685 -56.587041 
L 382.09291 -56.587041 
L 382.499134 -56.587041 
L 382.905358 -56.587041 
L 383.311583 -56.587041 
L 383.717807 -56.587041 
L 384.124032 -56.587041 
L 384.530256 -56.587041 
L 384.93648 -56.587041 
L 385.342705 -56.587041 
L 385.748929 -56.587041 
L 386.155154 -56.587041 
L 386.561378 -56.587041 
L 386.967602 -56.587041 
L 387.373827 -56.587041 
L 387.780051 -56.587041 
L 388.186276 -56.587041 
L 388.5925 -56.587041 
L 388.998724 -56.587041 
L 389.404949 -56.587041 
L 389.811173 -56.587041 
L 390.217398 -56.587041 
L 390.623622 -56.587041 
L 391.029846 -56.587041 
L 391.436071 -56.587041 
L 391.842295 -56.587041 
L 392.24852 -56.587041 
L 392.654744 -56.587041 
L 393.060969 -56.587041 
L 393.467193 -56.587041 
L 393.873417 -56.587041 
L 394.279642 -56.587041 
L 394.685866 -56.587041 
L 395.092091 -56.587041 
L 395.498315 -56.587041 
L 395.904539 -56.587041 
L 396.310764 -56.587041 
L 396.716988 -56.587041 
L 397.123213 -56.587041 
L 397.529437 -56.587041 
L 397.935661 -56.587041 
L 398.341886 -56.587041 
L 398.74811 -56.587041 
L 399.154335 -56.587041 
L 399.560559 -56.587041 
L 399.966783 -56.587041 
L 400.373008 -56.587041 
L 400.779232 -56.587041 
L 401.185457 -56.587041 
L 401.591681 -56.587041 
L 401.997905 -56.587041 
L 402.40413 -56.587041 
L 402.810354 -56.587041 
L 403.216579 -56.587041 
L 403.622803 -56.587041 
L 404.029027 -56.587041 
L 404.435252 -56.587041 
L 404.841476 -56.587041 
L 405.247701 -56.587041 
L 405.653925 -56.587041 
L 406.06015 -56.587041 
L 406.466374 -56.587041 
L 406.872598 -56.587041 
L 407.278823 -56.587041 
L 407.685047 -56.587041 
L 408.091272 -56.587041 
L 408.497496 -56.587041 
L 408.90372 -56.587041 
L 409.309945 -56.587041 
L 409.716169 -56.587041 
L 410.122394 -56.587041 
L 410.528618 -56.587041 
L 410.934842 -56.587041 
L 411.341067 -56.587041 
L 411.747291 -56.587041 
L 412.153516 -56.587041 
L 412.55974 -56.587041 
L 412.965964 -56.587041 
L 413.372189 -56.587041 
L 413.778413 -56.587041 
L 414.184638 -56.587041 
L 414.590862 -56.587041 
L 414.997086 -56.587041 
L 415.403311 -56.587041 
L 415.809535 -56.587041 
L 416.21576 -56.587041 
L 416.621984 -56.587041 
L 417.028208 -56.587041 
L 417.434433 -56.587041 
L 417.840657 -56.587041 
L 418.246882 -56.587041 
L 418.653106 -56.587041 
L 419.059331 -56.587041 
L 419.465555 -56.587041 
L 419.871779 -56.587041 
L 420.278004 -56.587041 
L 420.684228 -56.587041 
L 421.090453 -56.587041 
L 421.496677 -56.587041 
L 421.902901 -56.587041 
L 422.309126 -56.587041 
L 422.71535 -56.587041 
L 423.121575 -56.587041 
L 423.527799 -56.587041 
L 423.934023 -56.587041 
L 424.340248 -56.587041 
L 424.746472 -56.587041 
L 425.152697 -56.587041 
L 425.558921 -56.587041 
L 425.965145 -56.587041 
L 426.37137 -56.587041 
L 426.777594 -56.587041 
L 427.183819 -56.587041 
L 427.590043 -56.587041 
L 427.996267 -56.587041 
L 428.402492 -56.587041 
L 428.808716 -56.587041 
L 429.214941 -56.587041 
L 429.621165 -56.587041 
L 430.027389 -56.587041 
L 430.433614 -56.587041 
L 430.839838 -56.587041 
L 431.246063 -56.587041 
L 431.652287 -56.587041 
L 432.058512 -56.587041 
L 432.464736 -56.587041 
L 432.87096 -56.587041 
L 433.277185 -56.587041 
L 433.683409 -56.587041 
L 434.089634 -56.587041 
L 434.495858 -56.587041 
L 434.902082 -56.587041 
L 435.308307 -56.587041 
L 435.714531 -56.587041 
L 436.120756 -56.587041 
L 436.52698 -56.587041 
L 436.933204 -56.587041 
L 437.339429 -56.587041 
L 437.745653 -56.587041 
L 438.151878 -56.587041 
L 438.558102 -56.587041 
L 438.964326 -56.587041 
L 439.370551 -56.587041 
L 439.776775 -56.587041 
L 440.183 -56.587041 
L 440.589224 -56.587041 
L 440.995448 -56.587041 
L 441.401673 -56.587041 
L 441.807897 -56.587041 
L 442.214122 -56.587041 
L 442.620346 -56.587041 
L 443.02657 -56.587041 
L 443.432795 -56.587041 
L 443.839019 -56.587041 
L 444.245244 -56.587041 
L 444.651468 -56.587041 
L 445.057693 -56.587041 
L 445.463917 -56.587041 
L 445.870141 -56.587041 
L 446.276366 -56.587041 
L 446.68259 -56.587041 
L 447.088815 -56.587041 
L 447.495039 -56.587041 
L 447.901263 -56.587041 
L 448.307488 -56.587041 
L 448.713712 -56.587041 
L 449.119937 -56.587041 
L 449.526161 -56.587041 
L 449.932385 -56.587041 
L 450.33861 -56.587041 
L 450.744834 -56.587041 
L 451.151059 -56.587041 
L 451.557283 -56.587041 
L 451.963507 -56.587041 
L 452.369732 -56.587041 
L 452.775956 -56.587041 
L 453.182181 -56.587041 
L 453.588405 -56.587041 
L 453.994629 -56.587041 
L 454.400854 -56.587041 
L 454.807078 -56.587041 
L 455.213303 -56.587041 
L 455.619527 -56.587041 
L 456.025751 -56.587041 
L 456.431976 -56.587041 
L 456.8382 -56.587041 
L 457.244425 -56.587041 
L 457.650649 -56.587041 
L 458.056874 -56.587041 
L 458.463098 -56.587041 
L 458.869322 -56.587041 
L 459.275547 -56.587041 
L 459.681771 -56.587041 
L 460.087996 -56.587041 
L 460.49422 -56.587041 
L 460.900444 -56.587041 
L 461.306669 -56.587041 
L 461.712893 -56.587041 
L 462.119118 -56.587041 
L 462.525342 -56.587041 
L 462.931566 -56.587041 
L 463.337791 -56.587041 
L 463.744015 -56.587041 
L 464.15024 -56.587041 
L 464.556464 -56.587041 
L 464.962688 -56.587041 
L 465.368913 -56.587041 
L 465.775137 -56.587041 
L 466.181362 -56.587041 
L 466.587586 -56.587041 
L 466.99381 -56.587041 
L 467.400035 -56.587041 
L 467.806259 -56.587041 
L 468.212484 -56.587041 
L 468.618708 -56.587041 
L 469.024932 -56.587041 
L 469.431157 -56.587041 
L 469.837381 -56.587041 
L 470.243606 -56.587041 
L 470.64983 -56.587041 
L 471.056055 -56.587041 
L 471.462279 -56.587041 
L 471.868503 -56.587041 
L 472.274728 -56.587041 
L 472.680952 -56.587041 
L 473.087177 -56.587041 
L 473.493401 -56.587041 
L 473.899625 -56.587041 
L 474.30585 -56.587041 
L 474.712074 -56.587041 
L 475.118299 -56.587041 
L 475.524523 -56.587041 
L 475.930747 -56.587041 
L 476.336972 -56.587041 
L 476.743196 -56.587041 
L 477.149421 -56.587041 
L 477.555645 -56.587041 
L 477.961869 -56.587041 
L 477.961869 -59.606503 
L 477.961869 -59.606503 
L 477.555645 -59.906059 
L 477.149421 -60.23167 
L 476.743196 -60.585206 
L 476.336972 -60.96863 
L 475.930747 -61.384003 
L 475.524523 -61.83348 
L 475.118299 -62.31931 
L 474.712074 -62.843839 
L 474.30585 -63.409507 
L 473.899625 -64.018845 
L 473.493401 -64.674476 
L 473.087177 -65.379108 
L 472.680952 -66.135534 
L 472.274728 -66.946625 
L 471.868503 -67.815326 
L 471.462279 -68.744652 
L 471.056055 -69.737674 
L 470.64983 -70.797521 
L 470.243606 -71.927363 
L 469.837381 -73.130406 
L 469.431157 -74.40988 
L 469.024932 -75.769026 
L 468.618708 -77.211088 
L 468.212484 -78.739292 
L 467.806259 -80.356838 
L 467.400035 -82.066884 
L 466.99381 -83.872526 
L 466.587586 -85.776782 
L 466.181362 -87.782578 
L 465.775137 -89.892723 
L 465.368913 -92.109895 
L 464.962688 -94.436618 
L 464.556464 -96.875239 
L 464.15024 -99.427914 
L 463.744015 -102.096579 
L 463.337791 -104.882933 
L 462.931566 -107.788413 
L 462.525342 -110.814177 
L 462.119118 -113.961074 
L 461.712893 -117.22963 
L 461.306669 -120.620026 
L 460.900444 -124.132072 
L 460.49422 -127.765194 
L 460.087996 -131.518411 
L 459.681771 -135.390318 
L 459.275547 -139.379071 
L 458.869322 -143.482371 
L 458.463098 -147.697449 
L 458.056874 -152.021056 
L 457.650649 -156.449452 
L 457.244425 -160.978399 
L 456.8382 -165.603155 
L 456.431976 -170.31847 
L 456.025751 -175.118586 
L 455.619527 -179.997237 
L 455.213303 -184.947656 
L 454.807078 -189.962579 
L 454.400854 -195.034258 
L 453.994629 -200.15447 
L 453.588405 -205.314537 
L 453.182181 -210.505341 
L 452.775956 -215.717347 
L 452.369732 -220.940629 
L 451.963507 -226.164892 
L 451.557283 -231.37951 
L 451.151059 -236.57355 
L 450.744834 -241.735815 
L 450.33861 -246.854876 
L 449.932385 -251.919114 
L 449.526161 -256.916766 
L 449.119937 -261.835959 
L 448.713712 -266.664768 
L 448.307488 -271.391252 
L 447.901263 -276.003509 
L 447.495039 -280.489725 
L 447.088815 -284.838219 
L 446.68259 -289.037499 
L 446.276366 -293.076306 
L 445.870141 -296.943672 
L 445.463917 -300.628961 
L 445.057693 -304.121922 
L 444.651468 -307.412739 
L 444.245244 -310.492069 
L 443.839019 -313.351094 
L 443.432795 -315.981558 
L 443.02657 -318.375811 
L 442.620346 -320.526839 
L 442.214122 -322.428308 
L 441.807897 -324.074586 
L 441.401673 -325.460776 
L 440.995448 -326.58274 
L 440.589224 -327.437115 
L 440.183 -328.021338 
L 439.776775 -328.333651 
L 439.370551 -328.373112 
L 438.964326 -328.139604 
L 438.558102 -327.633829 
L 438.151878 -326.85731 
L 437.745653 -325.812379 
L 437.339429 -324.50217 
L 436.933204 -322.930597 
L 436.52698 -321.102342 
L 436.120756 -319.022825 
L 435.714531 -316.698183 
L 435.308307 -314.135234 
L 434.902082 -311.34145 
L 434.495858 -308.324915 
L 434.089634 -305.094289 
L 433.683409 -301.658766 
L 433.277185 -298.028032 
L 432.87096 -294.212217 
L 432.464736 -290.22185 
L 432.058512 -286.067808 
L 431.652287 -281.761271 
L 431.246063 -277.31367 
L 430.839838 -272.736634 
L 430.433614 -268.041946 
L 430.027389 -263.241487 
L 429.621165 -258.347192 
L 429.214941 -253.370995 
L 428.808716 -248.324788 
L 428.402492 -243.220372 
L 427.996267 -238.069411 
L 427.590043 -232.883394 
L 427.183819 -227.673588 
L 426.777594 -222.451007 
L 426.37137 -217.226369 
L 425.965145 -212.010067 
L 425.558921 -206.812137 
L 425.152697 -201.64223 
L 424.746472 -196.509587 
L 424.340248 -191.423015 
L 423.934023 -186.39087 
L 423.527799 -181.421039 
L 423.121575 -176.520926 
L 422.71535 -171.697445 
L 422.309126 -166.957005 
L 421.902901 -162.305512 
L 421.496677 -157.748363 
L 421.090453 -153.290446 
L 420.684228 -148.936145 
L 420.278004 -144.689343 
L 419.871779 -140.553429 
L 419.465555 -136.531311 
L 419.059331 -132.625421 
L 418.653106 -128.837735 
L 418.246882 -125.169781 
L 417.840657 -121.622663 
L 417.434433 -118.19707 
L 417.028208 -114.893299 
L 416.621984 -111.711277 
L 416.21576 -108.650575 
L 415.809535 -105.710433 
L 415.403311 -102.889783 
L 414.997086 -100.187265 
L 414.590862 -97.601253 
L 414.184638 -95.129878 
L 413.778413 -92.771046 
L 413.372189 -90.522461 
L 412.965964 -88.38165 
L 412.55974 -86.345976 
L 412.153516 -84.412667 
L 411.747291 -82.578828 
L 411.341067 -80.841466 
L 410.934842 -79.197506 
L 410.528618 -77.643805 
L 410.122394 -76.177176 
L 409.716169 -74.794397 
L 409.309945 -73.492228 
L 408.90372 -72.267426 
L 408.497496 -71.116756 
L 408.091272 -70.037006 
L 407.685047 -69.024992 
L 407.278823 -68.077574 
L 406.872598 -67.191662 
L 406.466374 -66.364225 
L 406.06015 -65.592298 
L 405.653925 -64.872986 
L 405.247701 -64.203474 
L 404.841476 -63.581028 
L 404.435252 -63.003002 
L 404.029027 -62.466837 
L 403.622803 -61.970067 
L 403.216579 -61.510318 
L 402.810354 -61.085313 
L 402.40413 -60.69287 
L 401.997905 -60.330902 
L 401.591681 -59.997416 
L 401.185457 -59.690515 
L 400.779232 -59.408397 
L 400.373008 -59.149349 
L 399.966783 -58.911748 
L 399.560559 -58.694062 
L 399.154335 -58.494843 
L 398.74811 -58.312725 
L 398.341886 -58.146424 
L 397.935661 -57.994735 
L 397.529437 -57.856525 
L 397.123213 -57.730734 
L 396.716988 -57.616374 
L 396.310764 -57.512518 
L 395.904539 -57.418305 
L 395.498315 -57.332934 
L 395.092091 -57.255658 
L 394.685866 -57.185786 
L 394.279642 -57.122677 
L 393.873417 -57.065739 
L 393.467193 -57.014424 
L 393.060969 -56.968226 
L 392.654744 -56.926681 
L 392.24852 -56.88936 
L 391.842295 -56.855869 
L 391.436071 -56.825849 
L 391.029846 -56.798968 
L 390.623622 -56.774924 
L 390.217398 -56.75344 
L 389.811173 -56.734265 
L 389.404949 -56.717169 
L 388.998724 -56.701943 
L 388.5925 -56.688396 
L 388.186276 -56.676357 
L 387.780051 -56.665669 
L 387.373827 -56.65619 
L 386.967602 -56.647793 
L 386.561378 -56.640362 
L 386.155154 -56.633793 
L 385.748929 -56.627992 
L 385.342705 -56.622875 
L 384.93648 -56.618365 
L 384.530256 -56.614396 
L 384.124032 -56.610906 
L 383.717807 -56.60784 
L 383.311583 -56.60515 
L 382.905358 -56.602792 
L 382.499134 -56.600727 
L 382.09291 -56.598921 
L 381.686685 -56.597343 
L 381.280461 -56.595965 
L 380.874236 -56.594764 
L 380.468012 -56.593718 
L 380.061788 -56.592808 
L 379.655563 -56.592017 
L 379.249339 -56.59133 
L 378.843114 -56.590734 
L 378.43689 -56.590218 
L 378.030665 -56.589771 
L 377.624441 -56.589385 
L 377.218217 -56.589051 
L 376.811992 -56.588763 
L 376.405768 -56.588515 
L 375.999543 -56.588301 
L 375.593319 -56.588118 
L 375.187095 -56.58796 
L 374.78087 -56.587824 
L 374.374646 -56.587708 
L 373.968421 -56.587608 
L 373.562197 -56.587523 
L 373.155973 -56.58745 
L 372.749748 -56.587388 
L 372.343524 -56.587335 
L 371.937299 -56.58729 
L 371.531075 -56.587252 
L 371.124851 -56.587219 
L 370.718626 -56.587191 
L 370.312402 -56.587168 
L 369.906177 -56.587148 
L 369.499953 -56.587131 
L 369.093729 -56.587116 
L 368.687504 -56.587104 
L 368.28128 -56.587094 
L 367.875055 -56.587086 
L 367.468831 -56.587078 
L 367.062607 -56.587072 
L 366.656382 -56.587067 
L 366.250158 -56.587063 
L 365.843933 -56.587059 
L 365.437709 -56.587056 
L 365.031484 -56.587054 
L 364.62526 -56.587051 
L 364.219036 -56.58705 
L 363.812811 -56.587048 
L 363.406587 -56.587047 
L 363.000362 -56.587046 
L 362.594138 -56.587045 
L 362.187914 -56.587044 
L 361.781689 -56.587044 
L 361.375465 -56.587043 
L 360.96924 -56.587043 
L 360.563016 -56.587043 
L 360.156792 -56.587042 
L 359.750567 -56.587042 
L 359.344343 -56.587042 
L 358.938118 -56.587042 
L 358.531894 -56.587042 
L 358.12567 -56.587041 
L 357.719445 -56.587041 
L 357.313221 -56.587041 
L 356.906996 -56.587041 
L 356.500772 -56.587041 
L 356.094548 -56.587041 
L 355.688323 -56.587041 
L 355.282099 -56.587041 
L 354.875874 -56.587041 
L 354.46965 -56.587041 
L 354.063426 -56.587041 
L 353.657201 -56.587041 
L 353.250977 -56.587041 
L 352.844752 -56.587041 
L 352.438528 -56.587041 
L 352.032304 -56.587041 
L 351.626079 -56.587041 
L 351.219855 -56.587041 
L 350.81363 -56.587041 
L 350.407406 -56.587041 
L 350.001181 -56.587041 
L 349.594957 -56.587041 
L 349.188733 -56.587041 
L 348.782508 -56.587041 
L 348.376284 -56.587041 
L 347.970059 -56.587041 
L 347.563835 -56.587041 
L 347.157611 -56.587041 
L 346.751386 -56.587041 
L 346.345162 -56.587041 
L 345.938937 -56.587041 
L 345.532713 -56.587041 
L 345.126489 -56.587041 
L 344.720264 -56.587041 
L 344.31404 -56.587041 
L 343.907815 -56.587041 
L 343.501591 -56.587041 
L 343.095367 -56.587041 
L 342.689142 -56.587041 
L 342.282918 -56.587041 
L 341.876693 -56.587041 
L 341.470469 -56.587041 
L 341.064245 -56.587041 
L 340.65802 -56.587041 
L 340.251796 -56.587041 
L 339.845571 -56.587041 
L 339.439347 -56.587041 
L 339.033123 -56.587041 
L 338.626898 -56.587041 
L 338.220674 -56.587041 
L 337.814449 -56.587041 
L 337.408225 -56.587041 
L 337.002 -56.587041 
L 336.595776 -56.587041 
L 336.189552 -56.587041 
L 335.783327 -56.587041 
L 335.377103 -56.587041 
L 334.970878 -56.587041 
L 334.564654 -56.587041 
L 334.15843 -56.587041 
L 333.752205 -56.587041 
L 333.345981 -56.587041 
L 332.939756 -56.587041 
L 332.533532 -56.587041 
L 332.127308 -56.587041 
L 331.721083 -56.587041 
L 331.314859 -56.587041 
L 330.908634 -56.587041 
L 330.50241 -56.587041 
L 330.096186 -56.587041 
L 329.689961 -56.587041 
L 329.283737 -56.587041 
L 328.877512 -56.587041 
L 328.471288 -56.587041 
L 328.065064 -56.587041 
L 327.658839 -56.587041 
L 327.252615 -56.587041 
L 326.84639 -56.587041 
L 326.440166 -56.587041 
L 326.033942 -56.587041 
L 325.627717 -56.587041 
L 325.221493 -56.587041 
L 324.815268 -56.587041 
L 324.409044 -56.587041 
L 324.002819 -56.587041 
L 323.596595 -56.587041 
L 323.190371 -56.587041 
L 322.784146 -56.587041 
L 322.377922 -56.587041 
L 321.971697 -56.587041 
L 321.565473 -56.587041 
L 321.159249 -56.587041 
L 320.753024 -56.587041 
L 320.3468 -56.587041 
L 319.940575 -56.587041 
L 319.534351 -56.587041 
L 319.128127 -56.587041 
L 318.721902 -56.587041 
L 318.315678 -56.587041 
L 317.909453 -56.587041 
L 317.503229 -56.587041 
L 317.097005 -56.587041 
L 316.69078 -56.587041 
L 316.284556 -56.587041 
L 315.878331 -56.587041 
L 315.472107 -56.587041 
L 315.065883 -56.587041 
L 314.659658 -56.587041 
L 314.253434 -56.587041 
L 313.847209 -56.587041 
L 313.440985 -56.587041 
L 313.034761 -56.587041 
L 312.628536 -56.587041 
L 312.222312 -56.587041 
L 311.816087 -56.587041 
L 311.409863 -56.587041 
L 311.003638 -56.587041 
L 310.597414 -56.587041 
L 310.19119 -56.587041 
L 309.784965 -56.587041 
L 309.378741 -56.587041 
L 308.972516 -56.587041 
L 308.566292 -56.587041 
L 308.160068 -56.587041 
L 307.753843 -56.587041 
L 307.347619 -56.587041 
L 306.941394 -56.587041 
L 306.53517 -56.587041 
L 306.128946 -56.587041 
L 305.722721 -56.587041 
L 305.316497 -56.587041 
L 304.910272 -56.587041 
L 304.504048 -56.587041 
L 304.097824 -56.587041 
L 303.691599 -56.587041 
L 303.285375 -56.587041 
L 302.87915 -56.587041 
L 302.472926 -56.587041 
L 302.066702 -56.587041 
L 301.660477 -56.587041 
L 301.254253 -56.587041 
L 300.848028 -56.587041 
L 300.441804 -56.587041 
L 300.03558 -56.587041 
L 299.629355 -56.587041 
L 299.223131 -56.587041 
L 298.816906 -56.587041 
L 298.410682 -56.587041 
L 298.004457 -56.587041 
L 297.598233 -56.587041 
L 297.192009 -56.587041 
L 296.785784 -56.587041 
L 296.37956 -56.587041 
L 295.973335 -56.587041 
L 295.567111 -56.587041 
L 295.160887 -56.587041 
L 294.754662 -56.587041 
L 294.348438 -56.587041 
L 293.942213 -56.587041 
L 293.535989 -56.587041 
L 293.129765 -56.587041 
L 292.72354 -56.587041 
L 292.317316 -56.587041 
L 291.911091 -56.587041 
L 291.504867 -56.587041 
L 291.098643 -56.587041 
L 290.692418 -56.587041 
L 290.286194 -56.587041 
L 289.879969 -56.587041 
L 289.473745 -56.587041 
L 289.067521 -56.587041 
L 288.661296 -56.587041 
L 288.255072 -56.587041 
L 287.848847 -56.587041 
L 287.442623 -56.587041 
L 287.036399 -56.587041 
L 286.630174 -56.587041 
L 286.22395 -56.587041 
L 285.817725 -56.587041 
L 285.411501 -56.587041 
L 285.005276 -56.587041 
L 284.599052 -56.587041 
L 284.192828 -56.587041 
L 283.786603 -56.587041 
L 283.380379 -56.587041 
L 282.974154 -56.587041 
L 282.56793 -56.587041 
L 282.161706 -56.587041 
L 281.755481 -56.587041 
L 281.349257 -56.587041 
L 280.943032 -56.587041 
L 280.536808 -56.587041 
L 280.130584 -56.587041 
L 279.724359 -56.587041 
L 279.318135 -56.587041 
L 278.91191 -56.587041 
L 278.505686 -56.587041 
L 278.099462 -56.587041 
L 277.693237 -56.587041 
L 277.287013 -56.587041 
L 276.880788 -56.587041 
L 276.474564 -56.587041 
L 276.06834 -56.587041 
L 275.662115 -56.587041 
L 275.255891 -56.587041 
L 274.849666 -56.587041 
L 274.443442 -56.587041 
L 274.037218 -56.587041 
L 273.630993 -56.587041 
L 273.224769 -56.587041 
L 272.818544 -56.587041 
L 272.41232 -56.587041 
L 272.006095 -56.587041 
L 271.599871 -56.587041 
L 271.193647 -56.587041 
L 270.787422 -56.587041 
L 270.381198 -56.587041 
L 269.974973 -56.587041 
L 269.568749 -56.587041 
L 269.162525 -56.587041 
L 268.7563 -56.587041 
L 268.350076 -56.587041 
L 267.943851 -56.587041 
L 267.537627 -56.587041 
L 267.131403 -56.587041 
L 266.725178 -56.587041 
L 266.318954 -56.587041 
L 265.912729 -56.587041 
L 265.506505 -56.587041 
L 265.100281 -56.587041 
L 264.694056 -56.587041 
L 264.287832 -56.587041 
L 263.881607 -56.587041 
L 263.475383 -56.587041 
L 263.069159 -56.587041 
L 262.662934 -56.587041 
L 262.25671 -56.587041 
L 261.850485 -56.587041 
L 261.444261 -56.587041 
L 261.038037 -56.587041 
L 260.631812 -56.587041 
L 260.225588 -56.587041 
L 259.819363 -56.587041 
L 259.413139 -56.587041 
L 259.006914 -56.587041 
L 258.60069 -56.587041 
L 258.194466 -56.587041 
L 257.788241 -56.587041 
L 257.382017 -56.587041 
L 256.975792 -56.587041 
L 256.569568 -56.587041 
L 256.163344 -56.587041 
L 255.757119 -56.587041 
L 255.350895 -56.587041 
L 254.94467 -56.587041 
L 254.538446 -56.587041 
L 254.132222 -56.587041 
L 253.725997 -56.587041 
L 253.319773 -56.587041 
L 252.913548 -56.587041 
L 252.507324 -56.587041 
L 252.1011 -56.587041 
L 251.694875 -56.587041 
L 251.288651 -56.587041 
L 250.882426 -56.587041 
L 250.476202 -56.587041 
L 250.069978 -56.587041 
L 249.663753 -56.587041 
L 249.257529 -56.587041 
L 248.851304 -56.587041 
L 248.44508 -56.587041 
L 248.038856 -56.587041 
L 247.632631 -56.587041 
L 247.226407 -56.587041 
L 246.820182 -56.587041 
L 246.413958 -56.587041 
L 246.007733 -56.587041 
L 245.601509 -56.587041 
L 245.195285 -56.587041 
L 244.78906 -56.587041 
L 244.382836 -56.587041 
L 243.976611 -56.587041 
L 243.570387 -56.587041 
L 243.164163 -56.587041 
L 242.757938 -56.587041 
L 242.351714 -56.587041 
L 241.945489 -56.587041 
L 241.539265 -56.587041 
L 241.133041 -56.587041 
L 240.726816 -56.587041 
L 240.320592 -56.587041 
L 239.914367 -56.587041 
L 239.508143 -56.587041 
L 239.101919 -56.587041 
L 238.695694 -56.587041 
L 238.28947 -56.587041 
L 237.883245 -56.587041 
L 237.477021 -56.587041 
L 237.070797 -56.587041 
L 236.664572 -56.587041 
L 236.258348 -56.587041 
L 235.852123 -56.587041 
L 235.445899 -56.587041 
L 235.039675 -56.587041 
L 234.63345 -56.587041 
L 234.227226 -56.587041 
L 233.821001 -56.587041 
L 233.414777 -56.587041 
L 233.008552 -56.587041 
L 232.602328 -56.587041 
L 232.196104 -56.587041 
L 231.789879 -56.587041 
L 231.383655 -56.587041 
L 230.97743 -56.587041 
L 230.571206 -56.587041 
L 230.164982 -56.587041 
L 229.758757 -56.587041 
L 229.352533 -56.587041 
L 228.946308 -56.587041 
L 228.540084 -56.587041 
L 228.13386 -56.587041 
L 227.727635 -56.587041 
L 227.321411 -56.587041 
L 226.915186 -56.587041 
L 226.508962 -56.587041 
L 226.102738 -56.587041 
L 225.696513 -56.587041 
L 225.290289 -56.587041 
L 224.884064 -56.587041 
L 224.47784 -56.587041 
L 224.071616 -56.587041 
L 223.665391 -56.587041 
L 223.259167 -56.587041 
L 222.852942 -56.587041 
L 222.446718 -56.587041 
L 222.040494 -56.587041 
L 221.634269 -56.587041 
L 221.228045 -56.587041 
L 220.82182 -56.587041 
L 220.415596 -56.587041 
L 220.009371 -56.587041 
L 219.603147 -56.587041 
L 219.196923 -56.587041 
L 218.790698 -56.587041 
L 218.384474 -56.587041 
L 217.978249 -56.587041 
L 217.572025 -56.587041 
L 217.165801 -56.587041 
L 216.759576 -56.587041 
L 216.353352 -56.587041 
L 215.947127 -56.587041 
L 215.540903 -56.587041 
L 215.134679 -56.587041 
L 214.728454 -56.587041 
L 214.32223 -56.587041 
L 213.916005 -56.587041 
L 213.509781 -56.587041 
L 213.103557 -56.587041 
L 212.697332 -56.587041 
L 212.291108 -56.587041 
L 211.884883 -56.587041 
L 211.478659 -56.587041 
L 211.072435 -56.587041 
L 210.66621 -56.587041 
L 210.259986 -56.587041 
L 209.853761 -56.587041 
L 209.447537 -56.587041 
L 209.041313 -56.587041 
L 208.635088 -56.587041 
L 208.228864 -56.587041 
L 207.822639 -56.587041 
L 207.416415 -56.587041 
L 207.01019 -56.587041 
L 206.603966 -56.587041 
L 206.197742 -56.587041 
L 205.791517 -56.587041 
L 205.385293 -56.587041 
L 204.979068 -56.587041 
L 204.572844 -56.587041 
L 204.16662 -56.587041 
L 203.760395 -56.587041 
L 203.354171 -56.587041 
L 202.947946 -56.587041 
L 202.541722 -56.587041 
L 202.135498 -56.587041 
L 201.729273 -56.587041 
L 201.323049 -56.587041 
L 200.916824 -56.587041 
L 200.5106 -56.587041 
L 200.104376 -56.587041 
L 199.698151 -56.587041 
L 199.291927 -56.587041 
L 198.885702 -56.587041 
L 198.479478 -56.587041 
L 198.073254 -56.587041 
L 197.667029 -56.587041 
L 197.260805 -56.587041 
L 196.85458 -56.587041 
L 196.448356 -56.587041 
L 196.042132 -56.587041 
L 195.635907 -56.587041 
L 195.229683 -56.587041 
L 194.823458 -56.587041 
L 194.417234 -56.587041 
L 194.011009 -56.587041 
L 193.604785 -56.587041 
L 193.198561 -56.587041 
L 192.792336 -56.587041 
L 192.386112 -56.587041 
L 191.979887 -56.587041 
L 191.573663 -56.587041 
L 191.167439 -56.587041 
L 190.761214 -56.587041 
L 190.35499 -56.587041 
L 189.948765 -56.587041 
L 189.542541 -56.587041 
L 189.136317 -56.587041 
L 188.730092 -56.587041 
L 188.323868 -56.587041 
L 187.917643 -56.587041 
L 187.511419 -56.587041 
L 187.105195 -56.587041 
L 186.69897 -56.587041 
L 186.292746 -56.587041 
L 185.886521 -56.587041 
L 185.480297 -56.587041 
L 185.074073 -56.587041 
L 184.667848 -56.587041 
L 184.261624 -56.587041 
L 183.855399 -56.587041 
L 183.449175 -56.587041 
L 183.042951 -56.587041 
L 182.636726 -56.587041 
L 182.230502 -56.587041 
L 181.824277 -56.587041 
L 181.418053 -56.587041 
L 181.011828 -56.587041 
L 180.605604 -56.587041 
L 180.19938 -56.587041 
L 179.793155 -56.587041 
L 179.386931 -56.587041 
L 178.980706 -56.587041 
L 178.574482 -56.587041 
L 178.168258 -56.587041 
L 177.762033 -56.587041 
L 177.355809 -56.587041 
L 176.949584 -56.587041 
L 176.54336 -56.587041 
L 176.137136 -56.587041 
L 175.730911 -56.587041 
L 175.324687 -56.587041 
L 174.918462 -56.587041 
L 174.512238 -56.587041 
L 174.106014 -56.587041 
L 173.699789 -56.587041 
L 173.293565 -56.587041 
L 172.88734 -56.587041 
L 172.481116 -56.587041 
L 172.074892 -56.587041 
L 171.668667 -56.587041 
L 171.262443 -56.587041 
L 170.856218 -56.587041 
L 170.449994 -56.587041 
L 170.04377 -56.587041 
L 169.637545 -56.587041 
L 169.231321 -56.587041 
L 168.825096 -56.587041 
L 168.418872 -56.587041 
L 168.012647 -56.587041 
L 167.606423 -56.587041 
L 167.200199 -56.587041 
L 166.793974 -56.587041 
L 166.38775 -56.587041 
L 165.981525 -56.587041 
L 165.575301 -56.587041 
L 165.169077 -56.587041 
L 164.762852 -56.587041 
L 164.356628 -56.587041 
L 163.950403 -56.587041 
L 163.544179 -56.587041 
L 163.137955 -56.587041 
L 162.73173 -56.587041 
L 162.325506 -56.587041 
L 161.919281 -56.587041 
L 161.513057 -56.587041 
L 161.106833 -56.587041 
L 160.700608 -56.587041 
L 160.294384 -56.587041 
L 159.888159 -56.587041 
L 159.481935 -56.587041 
L 159.075711 -56.587041 
L 158.669486 -56.587041 
L 158.263262 -56.587041 
L 157.857037 -56.587041 
L 157.450813 -56.587041 
L 157.044589 -56.587041 
L 156.638364 -56.587041 
L 156.23214 -56.587041 
L 155.825915 -56.587041 
L 155.419691 -56.587041 
L 155.013466 -56.587041 
L 154.607242 -56.587041 
L 154.201018 -56.587041 
L 153.794793 -56.587041 
L 153.388569 -56.587041 
L 152.982344 -56.587041 
L 152.57612 -56.587041 
L 152.169896 -56.587041 
L 151.763671 -56.587041 
L 151.357447 -56.587041 
L 150.951222 -56.587041 
L 150.544998 -56.587041 
L 150.138774 -56.587041 
L 149.732549 -56.587041 
L 149.326325 -56.587041 
L 148.9201 -56.587041 
L 148.513876 -56.587041 
L 148.107652 -56.587041 
L 147.701427 -56.587041 
L 147.295203 -56.587041 
L 146.888978 -56.587041 
L 146.482754 -56.587041 
L 146.07653 -56.587041 
L 145.670305 -56.587041 
L 145.264081 -56.587041 
L 144.857856 -56.587041 
L 144.451632 -56.587041 
L 144.045408 -56.587041 
L 143.639183 -56.587041 
L 143.232959 -56.587041 
L 142.826734 -56.587041 
L 142.42051 -56.587041 
L 142.014285 -56.587041 
L 141.608061 -56.587041 
L 141.201837 -56.587041 
L 140.795612 -56.587041 
L 140.389388 -56.587041 
L 139.983163 -56.587041 
L 139.576939 -56.587041 
L 139.170715 -56.587041 
L 138.76449 -56.587041 
L 138.358266 -56.587041 
L 137.952041 -56.587041 
L 137.545817 -56.587041 
L 137.139593 -56.587041 
L 136.733368 -56.587041 
L 136.327144 -56.587041 
L 135.920919 -56.587041 
L 135.514695 -56.587041 
L 135.108471 -56.587041 
L 134.702246 -56.587041 
L 134.296022 -56.587041 
L 133.889797 -56.587041 
L 133.483573 -56.587041 
L 133.077349 -56.587041 
L 132.671124 -56.587041 
L 132.2649 -56.587041 
L 131.858675 -56.587041 
L 131.452451 -56.587041 
L 131.046227 -56.587041 
L 130.640002 -56.587041 
L 130.233778 -56.587041 
L 129.827553 -56.587041 
L 129.421329 -56.587041 
L 129.015104 -56.587041 
L 128.60888 -56.587041 
L 128.202656 -56.587041 
L 127.796431 -56.587041 
L 127.390207 -56.587041 
L 126.983982 -56.587041 
L 126.577758 -56.587041 
L 126.171534 -56.587041 
L 125.765309 -56.587041 
L 125.359085 -56.587041 
L 124.95286 -56.587041 
L 124.546636 -56.587041 
L 124.140412 -56.587041 
L 123.734187 -56.587041 
L 123.327963 -56.587041 
L 122.921738 -56.587041 
L 122.515514 -56.587041 
L 122.10929 -56.587041 
L 121.703065 -56.587041 
L 121.296841 -56.587041 
L 120.890616 -56.587041 
L 120.484392 -56.587041 
L 120.078168 -56.587041 
L 119.671943 -56.587041 
L 119.265719 -56.587041 
L 118.859494 -56.587041 
L 118.45327 -56.587041 
L 118.047046 -56.587041 
L 117.640821 -56.587041 
L 117.234597 -56.587041 
L 116.828372 -56.587041 
L 116.422148 -56.587041 
L 116.015923 -56.587041 
L 115.609699 -56.587041 
L 115.203475 -56.587041 
L 114.79725 -56.587041 
L 114.391026 -56.587041 
L 113.984801 -56.587041 
L 113.578577 -56.587041 
L 113.172353 -56.587041 
L 112.766128 -56.587041 
L 112.359904 -56.587041 
L 111.953679 -56.587041 
L 111.547455 -56.587041 
L 111.141231 -56.587041 
L 110.735006 -56.587041 
L 110.328782 -56.587041 
L 109.922557 -56.587041 
L 109.516333 -56.587041 
L 109.110109 -56.587041 
L 108.703884 -56.587041 
L 108.29766 -56.587041 
L 107.891435 -56.587041 
L 107.485211 -56.587041 
L 107.078987 -56.587041 
L 106.672762 -56.587041 
L 106.266538 -56.587041 
L 105.860313 -56.587041 
L 105.454089 -56.587041 
L 105.047865 -56.587041 
L 104.64164 -56.587041 
L 104.235416 -56.587041 
L 103.829191 -56.587041 
L 103.422967 -56.587041 
L 103.016742 -56.587041 
L 102.610518 -56.587041 
L 102.204294 -56.587041 
L 101.798069 -56.587041 
L 101.391845 -56.587041 
L 100.98562 -56.587041 
L 100.579396 -56.587041 
L 100.173172 -56.587041 
L 99.766947 -56.587041 
L 99.360723 -56.587041 
L 98.954498 -56.587041 
L 98.548274 -56.587041 
L 98.14205 -56.587041 
L 97.735825 -56.587041 
L 97.329601 -56.587041 
L 96.923376 -56.587041 
L 96.517152 -56.587041 
L 96.110928 -56.587041 
L 95.704703 -56.587041 
L 95.298479 -56.587041 
L 94.892254 -56.587041 
L 94.48603 -56.587041 
L 94.079806 -56.587041 
L 93.673581 -56.587041 
L 93.267357 -56.587041 
L 92.861132 -56.587041 
L 92.454908 -56.587041 
L 92.048684 -56.587041 
L 91.642459 -56.587041 
L 91.236235 -56.587041 
L 90.83001 -56.587041 
L 90.423786 -56.587041 
L 90.017561 -56.587041 
L 89.611337 -56.587041 
L 89.205113 -56.587041 
L 88.798888 -56.587041 
L 88.392664 -56.587041 
L 87.986439 -56.587041 
L 87.580215 -56.587041 
L 87.173991 -56.587041 
L 86.767766 -56.587041 
L 86.361542 -56.587041 
L 85.955317 -56.587041 
L 85.549093 -56.587041 
L 85.142869 -56.587041 
L 84.736644 -56.587041 
L 84.33042 -56.587041 
L 83.924195 -56.587041 
L 83.517971 -56.587041 
L 83.111747 -56.587041 
L 82.705522 -56.587041 
L 82.299298 -56.587041 
L 81.893073 -56.587041 
L 81.486849 -56.587041 
L 81.080625 -56.587041 
L 80.6744 -56.587041 
L 80.268176 -56.587041 
L 79.861951 -56.587041 
L 79.455727 -56.587041 
L 79.049503 -56.587041 
L 78.643278 -56.587041 
L 78.237054 -56.587041 
L 77.830829 -56.587041 
L 77.424605 -56.587041 
L 77.01838 -56.587041 
L 76.612156 -56.587041 
L 76.205932 -56.587041 
L 75.799707 -56.587041 
L 75.393483 -56.587041 
L 74.987258 -56.587041 
L 74.581034 -56.587041 
L 74.17481 -56.587041 
L 73.768585 -56.587041 
L 73.362361 -56.587041 
L 72.956136 -56.587041 
L 72.549912 -56.587041 
L 72.143688 -56.587041 
z
" id="m45c83f7197" style="stroke:#ff0000;stroke-opacity:0.3;stroke-width:0.3;"/>
    </defs>
    <g clip-path="url(#p2ad6daf150)">
     <use style="fill:#ff0000;fill-opacity:0.3;stroke:#ff0000;stroke-opacity:0.3;stroke-width:0.3;" x="0" xlink:href="#m45c83f7197" y="367.630341"/>
    </g>
   </g>
   <g id="line2d_15">
    <path clip-path="url(#p2ad6daf150)" d="M 72.143688 311.0433 
L 387.780051 310.935247 
L 391.029846 310.679892 
L 393.060969 310.306888 
L 394.685866 309.78425 
L 395.904539 309.192044 
L 397.123213 308.360056 
L 398.341886 307.209549 
L 399.560559 305.643745 
L 400.779232 303.546737 
L 401.997905 300.783554 
L 403.216579 297.20186 
L 404.435252 292.635745 
L 405.653925 286.911975 
L 406.872598 279.858969 
L 408.091272 271.318484 
L 409.309945 261.159725 
L 410.528618 249.29522 
L 412.153516 230.785513 
L 413.778413 209.353893 
L 415.809535 179.160882 
L 421.902901 84.531628 
L 423.121575 69.284693 
L 424.340248 56.686408 
L 425.152697 50.013419 
L 425.965145 44.867761 
L 426.777594 41.345587 
L 427.183819 40.215323 
L 427.590043 39.513444 
L 427.996267 39.2433 
L 428.402492 39.40618 
L 428.808716 40.001307 
L 429.214941 41.02584 
L 429.621165 42.474899 
L 430.433614 46.617121 
L 431.246063 52.349995 
L 432.058512 59.56696 
L 433.277185 72.880706 
L 434.495858 88.701981 
L 436.120756 112.650963 
L 443.02657 219.080461 
L 444.651468 239.26844 
L 446.276366 256.43519 
L 447.495039 267.295859 
L 448.713712 276.495662 
L 449.932385 284.149369 
L 451.151059 290.405642 
L 452.369732 295.432084 
L 453.588405 299.402488 
L 454.807078 302.486724 
L 456.025751 304.843367 
L 457.244425 306.614927 
L 458.463098 307.925333 
L 459.681771 308.879241 
L 460.900444 309.562703 
L 462.525342 310.170389 
L 464.15024 310.541619 
L 466.587586 310.834924 
L 470.243606 310.99321 
L 477.961869 311.041683 
L 477.961869 311.041683 
" style="fill:none;stroke:#4c72b0;stroke-linecap:round;stroke-width:2;"/>
   </g>
   <g id="line2d_16">
    <path clip-path="url(#p2ad6daf150)" d="M 72.143688 310.827507 
L 74.581034 310.524911 
L 76.205932 310.142648 
L 77.830829 309.517904 
L 79.049503 308.816229 
L 80.268176 307.838097 
L 81.486849 306.496066 
L 82.705522 304.684001 
L 83.924195 302.276494 
L 85.142869 299.12968 
L 86.361542 295.08391 
L 87.580215 289.968714 
L 88.798888 283.61038 
L 90.017561 275.842283 
L 91.236235 266.517821 
L 92.454908 255.525506 
L 93.673581 242.805345 
L 95.298479 223.18281 
L 96.923376 200.766018 
L 98.954498 169.699388 
L 103.829191 93.086048 
L 105.454089 71.756346 
L 106.672762 58.659367 
L 107.485211 51.607944 
L 108.29766 46.054313 
L 109.110109 42.101882 
L 109.516333 40.750596 
L 109.922557 39.825144 
L 110.328782 39.32994 
L 110.735006 39.267345 
L 111.141231 39.637661 
L 111.547455 40.439117 
L 111.953679 41.667893 
L 112.766128 45.382043 
L 113.578577 50.71001 
L 114.391026 57.552388 
L 115.609699 70.374424 
L 116.828372 85.802183 
L 118.45327 109.395321 
L 121.703065 161.329885 
L 124.140412 199.050918 
L 126.171534 226.885803 
L 127.796431 245.976914 
L 129.421329 262.003874 
L 130.640002 272.033942 
L 131.858675 280.4545 
L 133.077349 287.39901 
L 134.296022 293.027219 
L 135.514695 297.511219 
L 136.733368 301.023962 
L 137.952041 303.7305 
L 139.170715 305.781933 
L 140.389388 307.311798 
L 141.608061 308.434511 
L 142.826734 309.245405 
L 144.045408 309.821894 
L 145.670305 310.329959 
L 147.701427 310.691927 
L 150.544998 310.921357 
L 155.419691 311.026729 
L 174.512238 311.043299 
L 477.961869 311.0433 
L 477.961869 311.0433 
" style="fill:none;stroke:#55a868;stroke-linecap:round;stroke-width:2;"/>
   </g>
   <g id="line2d_17">
    <path clip-path="url(#p2ad6daf150)" d="M 72.143688 311.0433 
L 388.5925 310.941945 
L 392.654744 310.70366 
L 395.092091 310.374683 
L 397.123213 309.899607 
L 398.74811 309.317616 
L 400.373008 308.480993 
L 401.591681 307.632925 
L 402.810354 306.545028 
L 404.029027 305.163504 
L 405.247701 303.426867 
L 406.466374 301.266116 
L 407.685047 298.605349 
L 408.90372 295.362915 
L 410.122394 291.453165 
L 411.341067 286.788875 
L 412.55974 281.284365 
L 413.778413 274.859295 
L 414.997086 267.443077 
L 416.621984 255.919064 
L 418.246882 242.46056 
L 419.871779 227.076912 
L 421.902901 205.324829 
L 424.340248 176.207326 
L 431.652287 85.86907 
L 433.277185 69.602309 
L 434.495858 59.305426 
L 435.714531 50.932158 
L 436.52698 46.527999 
L 437.339429 43.128172 
L 438.151878 40.773031 
L 438.558102 39.996512 
L 438.964326 39.490737 
L 439.370551 39.257229 
L 439.776775 39.296691 
L 440.183 39.609003 
L 440.589224 40.193226 
L 440.995448 41.047602 
L 441.807897 43.555755 
L 442.620346 47.103502 
L 443.432795 51.648783 
L 444.651468 60.217602 
L 445.870141 70.686669 
L 447.495039 87.140616 
L 449.526161 110.713576 
L 452.775956 151.912994 
L 456.025751 192.511755 
L 458.056874 215.609285 
L 460.087996 236.11193 
L 461.712893 250.400711 
L 463.337791 262.747409 
L 464.962688 273.193724 
L 466.181362 279.847763 
L 467.400035 285.563457 
L 468.618708 290.419254 
L 469.837381 294.499935 
L 471.056055 297.892667 
L 472.274728 300.683716 
L 473.493401 302.955865 
L 474.712074 304.786502 
L 475.930747 306.246338 
L 477.149421 307.398671 
L 477.961869 308.023838 
L 477.961869 308.023838 
" style="fill:none;stroke:#c44e52;stroke-linecap:round;stroke-width:3;"/>
   </g>
   <g id="line2d_18">
    <path clip-path="url(#p2ad6daf150)" d="M 269.3186 324.6333 
L 269.3186 25.6533 
" style="fill:none;stroke:#000000;stroke-dasharray:5.6,2.4;stroke-dashoffset:0;stroke-width:2;"/>
   </g>
   <g id="patch_3">
    <path d="M 51.852779 324.6333 
L 51.852779 25.6533 
" style="fill:none;"/>
   </g>
   <g id="patch_4">
    <path d="M 498.252779 324.6333 
L 498.252779 25.6533 
" style="fill:none;"/>
   </g>
   <g id="patch_5">
    <path d="M 51.852779 324.6333 
L 498.252779 324.6333 
" style="fill:none;"/>
   </g>
   <g id="patch_6">
    <path d="M 51.852779 25.6533 
L 498.252779 25.6533 
" style="fill:none;"/>
   </g>
   <g id="text_17">
    <!-- Epistasis Coefficient Predictions vs. Observed -->
    <defs>
     <path d="M 32.90625 29 
C 44.90625 29 54.703125 38.328125 54.703125 49.34375 
C 54.703125 60.15625 45.296875 69.578125 32.296875 69.578125 
L 8.90625 69.578125 
L 8.90625 0 
L 17.296875 0 
L 17.296875 29 
z
M 30.09375 64 
C 41.703125 64 46.796875 56.671875 46.796875 49.328125 
C 46.796875 42.5 42.09375 34.78125 30.09375 34.78125 
L 17.09375 34.78125 
L 17.09375 64 
z
" id="CMSS17-80"/>
     <path d="M 14.90625 21.296875 
C 14.90625 30.703125 21.796875 37 30.59375 37 
L 30.59375 43.578125 
C 24.203125 43.578125 18.203125 40.390625 14.59375 35.203125 
L 14.59375 43.09375 
L 7.5 43.09375 
L 7.5 0 
L 14.90625 0 
z
" id="CMSS17-114"/>
     <path d="M 40.796875 69 
L 33.40625 69 
L 33.40625 38.09375 
C 30.296875 40.671875 25.203125 43.0625 19.59375 43.0625 
C 10.5 43.0625 3.296875 33.296875 3.296875 21.046875 
C 3.296875 8.78125 10.40625 -1 19.296875 -1 
C 26.203125 -1 30.796875 2.6875 33.203125 4.78125 
L 33.203125 -0.203125 
L 40.796875 -0.203125 
z
M 33.203125 13.0625 
C 33.203125 11.671875 33.203125 10.203125 30.09375 7.53125 
C 28.09375 5.859375 25.703125 5.078125 23.40625 5.078125 
C 18 5.078125 10.90625 9 10.90625 20.9375 
C 10.90625 33.34375 18.90625 37 24.40625 37 
C 28.09375 37 31.09375 35.21875 33.203125 32.265625 
z
" id="CMSS17-100"/>
     <path d="M 41.796875 43 
L 34 43 
L 27.296875 24.3125 
C 25.203125 18.203125 22.203125 9.796875 21.703125 5.5 
L 21.59375 5.5 
C 21.40625 7.3125 20.59375 9.90625 20.09375 11.703125 
C 19.5 13.90625 18.703125 16.5 18.09375 18.3125 
L 9.296875 43 
L 1.296875 43 
L 17.09375 0 
L 26 0 
z
" id="CMSS17-118"/>
     <path d="M 17 7.96875 
L 9 7.96875 
L 9 0 
L 17 0 
z
" id="CMSS17-46"/>
     <path d="M 64 34.03125 
C 64 54.734375 50.296875 70.265625 34.59375 70.265625 
C 18.90625 70.265625 5.203125 54.640625 5.203125 34.03125 
C 5.203125 13.234375 19.09375 -2 34.59375 -2 
C 50.09375 -2 64 13.234375 64 34.03125 
M 34.59375 4.265625 
C 23.59375 4.265625 13.59375 16.515625 13.59375 35.328125 
C 13.59375 53.640625 24.203125 64 34.59375 64 
C 45 64 55.59375 53.640625 55.59375 35.328125 
C 55.59375 16.421875 45.5 4.265625 34.59375 4.265625 
" id="CMSS17-79"/>
     <path d="M 14.90625 69 
L 7.5 69 
L 7.5 -0.203125 
L 15.09375 -0.203125 
L 15.09375 4.28125 
C 18.90625 0.59375 23.5 -1 27.59375 -1 
C 37.203125 -1 45 8.578125 45 21.125 
C 45 32.59375 39 43.0625 30.09375 43.0625 
C 23.796875 43.0625 18.203125 40.484375 14.90625 37.796875 
z
M 15.09375 31.96875 
C 17.296875 34.71875 20.40625 37 24.796875 37 
C 30.703125 37 37.40625 32.765625 37.40625 21.125 
C 37.40625 8.71875 29.40625 5.078125 23.90625 5.078125 
C 21.90625 5.078125 19.796875 5.5625 17.796875 7.25 
C 15.09375 9.609375 15.09375 11.078125 15.09375 12.453125 
z
" id="CMSS17-98"/>
    </defs>
    <g style="fill:#262626;" transform="translate(114.70697 19.6533)scale(0.18 -0.18)">
     <use transform="scale(0.996264)" xlink:href="#CMSS17-69"/>
     <use transform="translate(55.892013 0)scale(0.996264)" xlink:href="#CMSS17-112"/>
     <use transform="translate(104.096956 0)scale(0.996264)" xlink:href="#CMSS17-105"/>
     <use transform="translate(126.277679 0)scale(0.996264)" xlink:href="#CMSS17-115"/>
     <use transform="translate(162.191221 0)scale(0.996264)" xlink:href="#CMSS17-116"/>
     <use transform="translate(196.022788 0)scale(0.996264)" xlink:href="#CMSS17-97"/>
     <use transform="translate(240.944709 0)scale(0.996264)" xlink:href="#CMSS17-115"/>
     <use transform="translate(276.858251 0)scale(0.996264)" xlink:href="#CMSS17-105"/>
     <use transform="translate(299.038974 0)scale(0.996264)" xlink:href="#CMSS17-115"/>
     <use transform="translate(366.181628 0)scale(0.996264)" xlink:href="#CMSS17-67"/>
     <use transform="translate(426.0374 0)scale(0.996264)" xlink:href="#CMSS17-111"/>
     <use transform="translate(475.483462 0)scale(0.996264)" xlink:href="#CMSS17-101"/>
     <use transform="translate(517.122284 0)scale(0.996264)" xlink:href="#CMSS17-14"/>
     <use transform="translate(593.273226 0)scale(0.996264)" xlink:href="#CMSS17-99"/>
     <use transform="translate(634.912049 0)scale(0.996264)" xlink:href="#CMSS17-105"/>
     <use transform="translate(657.092772 0)scale(0.996264)" xlink:href="#CMSS17-101"/>
     <use transform="translate(698.731594 0)scale(0.996264)" xlink:href="#CMSS17-110"/>
     <use transform="translate(746.936537 0)scale(0.996264)" xlink:href="#CMSS17-116"/>
     <use transform="translate(811.997216 0)scale(0.996264)" xlink:href="#CMSS17-80"/>
     <use transform="translate(871.732803 0)scale(0.996264)" xlink:href="#CMSS17-114"/>
     <use transform="translate(903.642575 0)scale(0.996264)" xlink:href="#CMSS17-101"/>
     <use transform="translate(945.281397 0)scale(0.996264)" xlink:href="#CMSS17-100"/>
     <use transform="translate(993.48634 0)scale(0.996264)" xlink:href="#CMSS17-105"/>
     <use transform="translate(1015.667063 0)scale(0.996264)" xlink:href="#CMSS17-99"/>
     <use transform="translate(1057.305885 0)scale(0.996264)" xlink:href="#CMSS17-116"/>
     <use transform="translate(1091.137452 0)scale(0.996264)" xlink:href="#CMSS17-105"/>
     <use transform="translate(1113.318175 0)scale(0.996264)" xlink:href="#CMSS17-111"/>
     <use transform="translate(1160.161799 0)scale(0.996264)" xlink:href="#CMSS17-110"/>
     <use transform="translate(1208.366742 0)scale(0.996264)" xlink:href="#CMSS17-115"/>
     <use transform="translate(1275.509397 0)scale(0.996264)" xlink:href="#CMSS17-118"/>
     <use transform="translate(1318.509538 0)scale(0.996264)" xlink:href="#CMSS17-115"/>
     <use transform="translate(1354.42308 0)scale(0.996264)" xlink:href="#CMSS17-46"/>
     <use transform="translate(1422.086092 0)scale(0.996264)" xlink:href="#CMSS17-79"/>
     <use transform="translate(1491.110347 0)scale(0.996264)" xlink:href="#CMSS17-98"/>
     <use transform="translate(1539.31529 0)scale(0.996264)" xlink:href="#CMSS17-115"/>
     <use transform="translate(1575.228832 0)scale(0.996264)" xlink:href="#CMSS17-101"/>
     <use transform="translate(1616.867654 0)scale(0.996264)" xlink:href="#CMSS17-114"/>
     <use transform="translate(1648.777427 0)scale(0.996264)" xlink:href="#CMSS17-118"/>
     <use transform="translate(1691.777569 0)scale(0.996264)" xlink:href="#CMSS17-101"/>
     <use transform="translate(1733.416391 0)scale(0.996264)" xlink:href="#CMSS17-100"/>
    </g>
   </g>
   <g id="legend_1">
    <g id="line2d_19">
     <path d="M 373.318479 38.1533 
L 393.318479 38.1533 
" style="fill:none;stroke:#4c72b0;stroke-linecap:round;stroke-width:2;"/>
    </g>
    <g id="line2d_20"/>
    <g id="text_18">
     <!-- \emph{egl-9} $&gt;$ \emph{vhl-1} -->
     <defs>
      <path d="M 43.796875 21.515625 
C 44.40625 24.140625 44.703125 26.859375 44.703125 29.578125 
C 44.703125 41.484375 37.09375 44 31.59375 44 
C 19.203125 44 7.09375 30.390625 7.09375 16.40625 
C 7.09375 5.5 14.40625 -1 23.40625 -1 
C 27.5 -1 33.09375 0 39.5 3.875 
L 40.203125 10.234375 
C 33.5 5.5625 27.296875 5.078125 24.90625 5.078125 
C 18.203125 5.078125 14.296875 10.3125 14.296875 17.25 
C 14.296875 21.515625 14.59375 21.515625 16.59375 21.515625 
z
M 16.703125 27 
C 19.90625 33.734375 25.5 37.921875 30.203125 37.921875 
C 38.40625 37.921875 38.40625 29.4375 38.40625 27 
z
" id="CMSSI17-101"/>
      <path d="M 41.09375 37.703125 
C 41.203125 37.703125 41.40625 37.703125 41.5 37.703125 
C 43.203125 37.703125 45.59375 38 47.40625 38 
C 50.5 38 51 37.890625 53.59375 37.609375 
L 53.796875 43.671875 
C 46.59375 43.671875 41.40625 41.875 38.5 40.6875 
C 35.296875 43.671875 31.703125 43.671875 30.09375 43.671875 
C 20.40625 43.671875 11.203125 34.546875 11.203125 25.125 
C 11.203125 24.546875 11.296875 21.515625 12.796875 18.953125 
C 10.09375 16.171875 7.90625 12.171875 7.90625 8.1875 
C 7.90625 5.6875 8.703125 3.984375 9.09375 3.390625 
C 4.203125 0.6875 0.90625 -4.296875 0.90625 -8.5 
C 0.90625 -14.90625 8.296875 -20 19.09375 -20 
C 29.203125 -20 43.09375 -15 43.09375 -3.625 
C 43.09375 3.0625 38.796875 7.265625 26.203125 7.265625 
L 18.203125 7.265625 
C 16.40625 7.265625 13.59375 7.265625 13.59375 11.078125 
C 13.59375 13.375 14.90625 15.1875 15.40625 15.78125 
C 17 14.484375 19.796875 13 23.59375 13 
C 33 13 42.40625 21.859375 42.40625 31.59375 
C 42.40625 33.765625 42 36.015625 41 37.703125 
z
M 24.703125 18.46875 
C 21.296875 18.46875 18.296875 20.421875 18.296875 25.140625 
C 18.296875 30.640625 21.703125 38.296875 29 38.296875 
C 32.296875 38.296875 35.40625 36.4375 35.40625 31.625 
C 35.40625 26.515625 32.203125 18.46875 24.703125 18.46875 
M 24.59375 0 
C 31.203125 0 35.796875 -1.40625 35.796875 -5.71875 
C 35.796875 -10.71875 28.203125 -14.515625 20.296875 -14.515625 
C 13.5 -14.515625 8.09375 -11.8125 8.09375 -7.71875 
C 8.09375 -6.8125 9.09375 0 16.59375 0 
z
" id="CMSSI17-103"/>
      <path d="M 29.59375 69 
L 22.203125 69 
L 7.40625 0 
L 14.796875 0 
z
" id="CMSSI17-108"/>
      <path d="M 31.203125 24.765625 
L 6.203125 24.765625 
L 5 19 
L 30 19 
z
" id="CMSSI17-45"/>
      <path d="M 7.40625 2.71875 
C 9.796875 0.328125 12.796875 -2 19 -2 
C 27 -2 34.90625 3.34375 41.5 12.359375 
C 51.296875 26 51.90625 44 51.90625 47.078125 
C 51.90625 49.84375 51.90625 66.078125 38 66.078125 
C 31.5 66.078125 26.09375 63.140625 20.703125 57.375 
C 13.09375 49.25 12.203125 39.484375 12.203125 35.375 
C 12.203125 33.609375 12.796875 19.921875 23.40625 19.921875 
C 29 19.921875 35.703125 22.59375 40.90625 27.84375 
C 35.90625 9.9375 26.703125 4.171875 20.296875 4.171875 
C 18.09375 4.171875 14.5 4.59375 11.703125 8.0625 
z
M 43.796875 42.90625 
C 42.90625 33.765625 36.203125 26 28.40625 26 
C 20.09375 26 20 35.03125 20 36 
C 20 36.5 20.703125 46.59375 24.703125 52.625 
C 27.09375 56.21875 31.09375 60 36.703125 60 
C 44.09375 60 44.5 51.953125 44.5 48.546875 
C 44.5 47.65625 44.296875 43.59375 43.90625 43.09375 
z
" id="CMSSI17-57"/>
      <path d="M 65.90625 22.640625 
C 67.796875 23.546875 67.90625 24.140625 67.90625 24.84375 
C 67.90625 25.4375 67.703125 26.140625 65.90625 26.953125 
L 11.796875 51.90625 
C 10.5 52.5 10.296875 52.5 10.09375 52.5 
C 8.90625 52.5 8.203125 51.5 8.203125 50.703125 
C 8.203125 49.5 9 49.09375 10.296875 48.5 
L 61.703125 24.84375 
L 10.203125 1.015625 
C 8.203125 0.09375 8.203125 -0.609375 8.203125 -1.203125 
C 8.203125 -2 8.90625 -3 10.09375 -3 
C 10.296875 -3 10.40625 -2.890625 11.796875 -2.296875 
z
" id="CMMI12-62"/>
      <path d="M 50.90625 42.796875 
L 43.203125 42.796875 
C 39.296875 36.234375 24.703125 11.453125 22.90625 5.578125 
L 22.796875 5.671875 
L 22.796875 7.671875 
C 22.796875 12.546875 22.203125 16.828125 21.5 21.5 
L 18.40625 42.796875 
L 10.40625 42.796875 
L 17.09375 0 
L 26 0 
z
" id="CMSSI17-118"/>
      <path d="M 47.203125 29.75 
C 47.59375 31.4375 47.703125 32.34375 47.703125 34.8125 
C 47.703125 41.078125 44.203125 44.0625 37.296875 44.0625 
C 28.90625 44.0625 23.09375 38 22.796875 37.703125 
L 22.703125 37.703125 
L 29.59375 69.5 
L 22.203125 69.5 
L 7.40625 0.5 
L 15 0.5 
L 19.59375 21.984375 
C 20.5 26.265625 23.09375 38 32.203125 38 
C 37.5 38 39.796875 35.90625 39.796875 32.015625 
C 39.796875 30.625 39.703125 30.234375 39.59375 29.734375 
L 33.296875 0.5 
L 40.90625 0.5 
z
" id="CMSSI17-104"/>
      <path d="M 42.703125 67 
L 40.703125 67 
C 33.90625 60.875 25.203125 60.875 21.296875 60.875 
L 20.09375 55 
C 22.796875 55 27.90625 55 32.796875 57.296875 
L 21.90625 5.765625 
L 10.203125 5.765625 
L 8.90625 0 
L 40.203125 0 
L 41.40625 5.765625 
L 29.59375 5.765625 
z
" id="CMSSI17-49"/>
     </defs>
     <g style="fill:#262626;" transform="translate(401.318479 41.6533)scale(0.1 -0.1)">
      <use transform="scale(0.996264)" xlink:href="#CMSSI17-101"/>
      <use transform="translate(41.638822 0)scale(0.996264)" xlink:href="#CMSSI17-103"/>
      <use transform="translate(88.482446 0)scale(0.996264)" xlink:href="#CMSSI17-108"/>
      <use transform="translate(110.663169 0)scale(0.996264)" xlink:href="#CMSSI17-45"/>
      <use transform="translate(141.892281 0)scale(0.996264)" xlink:href="#CMSSI17-57"/>
      <use transform="translate(231.251201 0)scale(0.996264)" xlink:href="#CMMI12-62"/>
      <use transform="translate(338.35241 0)scale(0.996264)" xlink:href="#CMSSI17-118"/>
      <use transform="translate(381.352551 0)scale(0.996264)" xlink:href="#CMSSI17-104"/>
      <use transform="translate(429.557494 0)scale(0.996264)" xlink:href="#CMSSI17-108"/>
      <use transform="translate(451.738217 0)scale(0.996264)" xlink:href="#CMSSI17-45"/>
      <use transform="translate(482.96733 0)scale(0.996264)" xlink:href="#CMSSI17-49"/>
     </g>
    </g>
    <g id="line2d_21">
     <path d="M 373.318479 52.090478 
L 393.318479 52.090478 
" style="fill:none;stroke:#55a868;stroke-linecap:round;stroke-width:2;"/>
    </g>
    <g id="line2d_22"/>
    <g id="text_19">
     <!-- \emph{vhl-1} $&gt;$ \emph{egl-9} -->
     <g style="fill:#262626;" transform="translate(401.318479 55.590478)scale(0.1 -0.1)">
      <use transform="scale(0.996264)" xlink:href="#CMSSI17-118"/>
      <use transform="translate(43.000142 0)scale(0.996264)" xlink:href="#CMSSI17-104"/>
      <use transform="translate(91.205085 0)scale(0.996264)" xlink:href="#CMSSI17-108"/>
      <use transform="translate(113.385808 0)scale(0.996264)" xlink:href="#CMSSI17-45"/>
      <use transform="translate(144.614921 0)scale(0.996264)" xlink:href="#CMSSI17-49"/>
      <use transform="translate(233.97384 0)scale(0.996264)" xlink:href="#CMMI12-62"/>
      <use transform="translate(341.075049 0)scale(0.996264)" xlink:href="#CMSSI17-101"/>
      <use transform="translate(382.713871 0)scale(0.996264)" xlink:href="#CMSSI17-103"/>
      <use transform="translate(429.557494 0)scale(0.996264)" xlink:href="#CMSSI17-108"/>
      <use transform="translate(451.738217 0)scale(0.996264)" xlink:href="#CMSSI17-45"/>
      <use transform="translate(482.96733 0)scale(0.996264)" xlink:href="#CMSSI17-57"/>
     </g>
    </g>
    <g id="line2d_23">
     <path d="M 373.318479 66.027657 
L 393.318479 66.027657 
" style="fill:none;stroke:#c44e52;stroke-linecap:round;stroke-width:3;"/>
    </g>
    <g id="line2d_24"/>
    <g id="text_20">
     <!-- fit -->
     <defs>
      <path d="M 43 69 
L 35 69 
L 35 61.03125 
L 43 61.03125 
z
M 42.703125 42.765625 
L 35.296875 42.765625 
L 35.296875 0 
L 42.703125 0 
z
M 16.796875 37 
L 27.703125 37 
L 27.703125 42.765625 
L 16.59375 42.765625 
L 16.59375 55.90625 
C 16.59375 61.234375 19 63.9375 22.203125 63.9375 
C 24.09375 63.9375 26 63.375 27.703125 62.375 
L 27.703125 68.90625 
C 26.90625 69.1875 24.59375 70 22.203125 70 
C 14.703125 70 9.40625 62.390625 9.40625 52.6875 
L 9.40625 42.765625 
L 2.5 42.765625 
L 2.5 37 
L 9.40625 37 
L 9.40625 0 
L 16.796875 0 
z
" id="CMSS17-12"/>
     </defs>
     <g style="fill:#262626;" transform="translate(401.318479 69.527657)scale(0.1 -0.1)">
      <use transform="scale(0.996264)" xlink:href="#CMSS17-12"/>
      <use transform="translate(50.126737 0)scale(0.996264)" xlink:href="#CMSS17-116"/>
     </g>
    </g>
    <g id="line2d_25">
     <path d="M 373.318479 79.964835 
L 393.318479 79.964835 
" style="fill:none;stroke:#000000;stroke-dasharray:5.6,2.4;stroke-dashoffset:0;stroke-width:2;"/>
    </g>
    <g id="line2d_26"/>
    <g id="text_21">
     <!-- Unbranched Pathway -->
     <defs>
      <path d="M 55.5 68.5 
L 47.90625 68.5 
L 47.90625 22.640625 
C 47.90625 9.4375 39.796875 3.578125 32.40625 3.578125 
C 24.796875 3.578125 17.203125 9.734375 17.203125 22.546875 
L 17.203125 68.5 
L 8.796875 68.5 
L 8.796875 22.71875 
C 8.796875 8.421875 19.90625 -2 32.296875 -2 
C 44.703125 -2 55.5 8.421875 55.5 22.71875 
z
" id="CMSS17-85"/>
      <path d="M 40.90625 29.546875 
C 40.90625 35.8125 39.40625 44.0625 28.09375 44.0625 
C 21.796875 44.0625 17.703125 40.984375 14.796875 37.609375 
L 14.796875 69.5 
L 7.40625 69.5 
L 7.40625 0.5 
L 15 0.5 
L 15 24.578125 
C 15 30.828125 17.40625 38 24.203125 38 
C 33 38 33.296875 32.125 33.296875 28.734375 
L 33.296875 0.5 
L 40.90625 0.5 
z
" id="CMSS17-104"/>
      <path d="M 62.703125 43 
L 55.09375 43 
L 49.796875 25.015625 
C 48.703125 21.21875 45.59375 10.703125 45.203125 5.796875 
L 45.09375 5.796875 
C 44.90625 8.8125 43.203125 16 40.40625 25.515625 
L 35.296875 43 
L 28.40625 43 
L 23.40625 25.90625 
C 20.90625 17.203125 19 9.796875 18.796875 5.796875 
L 18.703125 5.796875 
C 18.296875 11.703125 14.203125 25.515625 13.59375 27.703125 
L 9.09375 43 
L 1.296875 43 
L 14.296875 0 
L 21.90625 0 
C 27.09375 17.125 31.09375 30.359375 31.40625 37.03125 
C 31.59375 33.75 33.296875 26.671875 34.296875 23.1875 
L 40.90625 0 
L 49.703125 0 
z
" id="CMSS17-119"/>
     </defs>
     <g style="fill:#262626;" transform="translate(401.318479 83.464835)scale(0.1 -0.1)">
      <use transform="scale(0.996264)" xlink:href="#CMSS17-85"/>
      <use transform="translate(64.13974 0)scale(0.996264)" xlink:href="#CMSS17-110"/>
      <use transform="translate(112.344683 0)scale(0.996264)" xlink:href="#CMSS17-98"/>
      <use transform="translate(157.947173 0)scale(0.996264)" xlink:href="#CMSS17-114"/>
      <use transform="translate(189.856945 0)scale(0.996264)" xlink:href="#CMSS17-97"/>
      <use transform="translate(234.778866 0)scale(0.996264)" xlink:href="#CMSS17-110"/>
      <use transform="translate(282.983809 0)scale(0.996264)" xlink:href="#CMSS17-99"/>
      <use transform="translate(324.622631 0)scale(0.996264)" xlink:href="#CMSS17-104"/>
      <use transform="translate(372.827574 0)scale(0.996264)" xlink:href="#CMSS17-101"/>
      <use transform="translate(414.466396 0)scale(0.996264)" xlink:href="#CMSS17-100"/>
      <use transform="translate(493.900452 0)scale(0.996264)" xlink:href="#CMSS17-80"/>
      <use transform="translate(551.033584 0)scale(0.996264)" xlink:href="#CMSS17-97"/>
      <use transform="translate(595.955505 0)scale(0.996264)" xlink:href="#CMSS17-116"/>
      <use transform="translate(629.787072 0)scale(0.996264)" xlink:href="#CMSS17-104"/>
      <use transform="translate(677.992015 0)scale(0.996264)" xlink:href="#CMSS17-119"/>
      <use transform="translate(739.209106 0)scale(0.996264)" xlink:href="#CMSS17-97"/>
      <use transform="translate(781.528573 0)scale(0.996264)" xlink:href="#CMSS17-121"/>
     </g>
    </g>
   </g>
  </g>
 </g>
 <defs>
  <clipPath id="p2ad6daf150">
   <rect height="298.98" width="446.4" x="51.852779" y="25.6533"/>
  </clipPath>
 </defs>
</svg>
