<?xml version="1.0" encoding="utf-8" standalone="no"?>
<!DOCTYPE svg PUBLIC "-//W3C//DTD SVG 1.1//EN"
  "http://www.w3.org/Graphics/SVG/1.1/DTD/svg11.dtd">
<!-- Created with matplotlib (http://matplotlib.org/) -->
<svg height="353pt" version="1.1" viewBox="0 0 508 353" width="508pt" xmlns="http://www.w3.org/2000/svg" xmlns:xlink="http://www.w3.org/1999/xlink">
 <defs>
  <style type="text/css">
*{stroke-linecap:butt;stroke-linejoin:round;}
  </style>
 </defs>
 <g id="figure_1">
  <g id="patch_1">
   <path d="M 0 353.548374 
L 508.628355 353.548374 
L 508.628355 0 
L 0 0 
z
" style="fill:#ffffff;"/>
  </g>
  <g id="axes_1">
   <g id="patch_2">
    <path d="M 55.028355 306.18 
L 501.428355 306.18 
L 501.428355 7.2 
L 55.028355 7.2 
z
" style="fill:#eaeaf2;"/>
   </g>
   <g id="matplotlib.axis_1">
    <g id="xtick_1">
     <g id="line2d_1"/>
     <g id="text_1">
      <!-- $-1.0$ -->
      <defs>
       <path d="M 9.796875 28.078125 
C 8 27.484375 7.796875 24.78125 9.796875 24.28125 
C 10.296875 24.078125 10.90625 24.1875 11.5 24.1875 
L 64.703125 24.1875 
C 65.90625 24.1875 67.796875 23.78125 68.796875 24.78125 
C 69.90625 25.875 69.296875 27.875 67.703125 28.1875 
C 66.5 28.375 65.09375 28.1875 63.90625 28.1875 
L 11.40625 28.1875 
C 10.90625 28.1875 10.296875 28.28125 9.796875 28.078125 
" id="Computer_Modern_Bright_Math_Symbols-0"/>
       <path d="M 9.703125 60.015625 
L 9.703125 55 
C 15.203125 55 19 56 23.40625 57.90625 
L 23.40625 5.015625 
L 10.296875 5.015625 
L 10.296875 0 
L 43 0 
L 43 5.015625 
L 29.90625 5.015625 
L 29.90625 67 
C 27.5 67 27.90625 66.359375 26 64.875 
C 21.90625 61.71875 16.203125 60.015625 9.703125 60.015625 
" id="Computer_Modern_Bright-49"/>
       <path d="M 10.703125 7.8125 
L 10.703125 0 
L 18.5 0 
L 18.5 7.8125 
z
" id="Computer_Modern_Bright_Math_Slanted-58"/>
       <path d="M 14.796875 63.859375 
C 11.90625 61.859375 9.90625 59.140625 8.40625 56.03125 
C 4.796875 49 4.40625 40.765625 4.40625 31.828125 
C 4.40625 20.578125 6.40625 10.25 12 4.3125 
C 17.296875 -1.203125 25.703125 -2.609375 32.796875 0.296875 
C 37.203125 2.015625 40.40625 5.71875 42.40625 9.734375 
C 46 16.875 46.40625 25.40625 46.40625 34.234375 
C 46.40625 37.046875 46.296875 39.859375 46 42.671875 
C 45.296875 49.40625 43 56.828125 39.296875 60.953125 
C 33.203125 67.6875 22.296875 69.1875 14.796875 63.859375 
M 34.90625 58.140625 
C 39.59375 53.125 40 43.484375 40 34.34375 
L 40 28.921875 
C 40 24.296875 39.203125 18.28125 38.203125 14.859375 
C 36.796875 10.140625 34.5 6.734375 29.90625 4.625 
C 24.296875 2.609375 18.5 4.515625 15.296875 8.9375 
C 11 14.65625 10.796875 24.796875 10.796875 33.734375 
C 10.796875 42.171875 10.90625 51.515625 15 57.03125 
C 19.5 63.0625 29.203125 64.0625 34.90625 58.140625 
" id="Computer_Modern_Bright-48"/>
      </defs>
      <g style="fill:#262626;" transform="translate(92.694465 324.249603)scale(0.16 -0.16)">
       <use transform="scale(0.996264)" xlink:href="#Computer_Modern_Bright_Math_Symbols-0"/>
       <use transform="translate(77.487468 0)scale(0.996264)" xlink:href="#Computer_Modern_Bright-49"/>
       <use transform="translate(128.130685 0)scale(0.996264)" xlink:href="#Computer_Modern_Bright_Math_Slanted-58"/>
       <use transform="translate(157.188132 0)scale(0.996264)" xlink:href="#Computer_Modern_Bright-48"/>
      </g>
     </g>
    </g>
    <g id="xtick_2">
     <g id="line2d_2"/>
     <g id="text_2">
      <!-- $-0.8$ -->
      <defs>
       <path d="M 18.703125 36 
L 18.703125 35.90625 
C 12.5 34.09375 7.296875 30.6875 4.796875 24.84375 
C 2.203125 18.71875 4 11.28125 8.40625 6.453125 
C 13.09375 1.421875 19.5 -1 26.296875 -1 
C 36.296875 -1 45.90625 6.40625 47.09375 16.734375 
C 47.296875 18.265625 47.203125 19.890625 47 21.40625 
C 45.203125 29.21875 39.5 33.875 32.09375 35.90625 
C 32.90625 36.203125 33.796875 36.40625 34.59375 36.703125 
C 38.796875 38.421875 42.296875 40.921875 44.5 44.9375 
C 47.796875 51.375 44.59375 58.90625 39.203125 63.015625 
C 33.796875 67.140625 26.5 68.234375 19.90625 66.828125 
C 12 65.125 4.5 58.40625 5 49.765625 
C 5.203125 46.75 6.5 44.234375 8 42.4375 
C 10.296875 39.625 14.796875 36.609375 18.703125 36 
M 23.796875 62.5 
C 28.203125 62.5 33.703125 62 36.90625 58.578125 
C 40.703125 54.46875 40.90625 47.03125 37.09375 42.8125 
C 34.703125 40.203125 31.203125 38.890625 27.703125 38.59375 
C 22.796875 38.1875 17.203125 39 13.703125 42.8125 
C 9.796875 47.125 10.09375 54.96875 14.296875 58.984375 
C 16.90625 61.390625 20.40625 62.1875 23.796875 62.5 
M 23.703125 33.5 
C 28.40625 33.5 33.5 32.390625 36.90625 28.9375 
C 38.203125 27.53125 39.203125 25.8125 39.796875 24.015625 
C 41.5 18.75 40.703125 12.09375 36.796875 8.046875 
C 34.09375 5.328125 30.40625 4.3125 26.703125 4.015625 
C 22.203125 4.015625 17 5.109375 13.796875 8.5625 
C 9.40625 13.390625 8.5 23.40625 13.703125 29.0625 
C 16.296875 31.78125 20 33.203125 23.703125 33.5 
" id="Computer_Modern_Bright-56"/>
      </defs>
      <g style="fill:#262626;" transform="translate(165.384708 324.249603)scale(0.16 -0.16)">
       <use transform="scale(0.996264)" xlink:href="#Computer_Modern_Bright_Math_Symbols-0"/>
       <use transform="translate(77.487468 0)scale(0.996264)" xlink:href="#Computer_Modern_Bright-48"/>
       <use transform="translate(128.130685 0)scale(0.996264)" xlink:href="#Computer_Modern_Bright_Math_Slanted-58"/>
       <use transform="translate(157.188132 0)scale(0.996264)" xlink:href="#Computer_Modern_Bright-56"/>
      </g>
     </g>
    </g>
    <g id="xtick_3">
     <g id="line2d_3"/>
     <g id="text_3">
      <!-- $-0.6$ -->
      <defs>
       <path d="M 11.296875 32.625 
L 11.203125 32.625 
C 11.203125 41.765625 12.796875 52.421875 20.59375 58.25 
C 24.90625 61.375 30.703125 62.96875 38.203125 61.171875 
C 39.796875 60.765625 41.296875 60.15625 42.796875 59.765625 
L 42.796875 63.28125 
C 42.796875 63.671875 42.90625 64.375 42.59375 64.78125 
C 41.90625 65.6875 36.296875 66.59375 36.09375 66.59375 
C 27.40625 67.59375 21.703125 65.6875 16.40625 61.171875 
C 10 55.640625 6.296875 47.515625 5.09375 39.28125 
C 4 32.65625 4.90625 22 6.203125 16.78125 
C 8.296875 9.046875 12.296875 2.21875 19.703125 -0.390625 
C 24.09375 -2 29.5 -2 33.703125 0.015625 
C 37.09375 1.640625 39.90625 4.46875 42.09375 7.5 
C 45.59375 12.34375 46.5 18.21875 46.09375 24.171875 
C 45.90625 27.109375 45.5 30.046875 44.296875 32.765625 
C 42.40625 37.125 39.203125 41.671875 35.09375 43.6875 
C 33.203125 44.5 31.203125 44.5 29.203125 44.5 
C 23.90625 44.5 18.90625 42.1875 15.203125 38.359375 
C 13.59375 36.75 12 34.71875 11.296875 32.625 
M 24.40625 39.515625 
C 28.203125 39.8125 32.203125 39.21875 35.09375 36.5 
C 38.90625 32.890625 39.59375 27.765625 39.59375 22.8125 
C 39.59375 19.46875 39.703125 16.015625 38.703125 12.859375 
C 38.09375 11.234375 37.296875 9.828125 36.40625 8.5 
C 34.203125 5.5625 31.40625 4.125 26.796875 3.515625 
C 22.296875 3.515625 17.796875 5.3125 15.203125 9.125 
C 13.59375 11.328125 12.796875 14.046875 12.296875 16.640625 
C 11.703125 19.34375 11.296875 22.140625 11.5 24.859375 
C 12 31.984375 17 38.515625 24.40625 39.515625 
" id="Computer_Modern_Bright-54"/>
      </defs>
      <g style="fill:#262626;" transform="translate(238.074952 324.249603)scale(0.16 -0.16)">
       <use transform="scale(0.996264)" xlink:href="#Computer_Modern_Bright_Math_Symbols-0"/>
       <use transform="translate(77.487468 0)scale(0.996264)" xlink:href="#Computer_Modern_Bright-48"/>
       <use transform="translate(128.130685 0)scale(0.996264)" xlink:href="#Computer_Modern_Bright_Math_Slanted-58"/>
       <use transform="translate(157.188132 0)scale(0.996264)" xlink:href="#Computer_Modern_Bright-54"/>
      </g>
     </g>
    </g>
    <g id="xtick_4">
     <g id="line2d_4"/>
     <g id="text_4">
      <!-- $-0.4$ -->
      <defs>
       <path d="M 2.09375 18 
L 31 18 
L 31 0 
L 37.296875 0 
L 37.296875 18 
L 48.703125 18 
L 48.703125 23.328125 
L 37.296875 23.328125 
L 37.296875 66.46875 
L 31.90625 66.46875 
C 30.09375 66.46875 29.59375 66.578125 28.796875 65.0625 
C 24.796875 58.515625 3.703125 25.765625 3 24.859375 
C 2.203125 23.4375 2.09375 23.546875 2.09375 21.4375 
z
M 31.296875 60.875 
L 31.296875 23.328125 
L 8.59375 23.328125 
C 9.296875 24.734375 10.296875 26.03125 11.203125 27.4375 
C 16.203125 35.171875 28.09375 53.546875 30.59375 59.28125 
C 30.90625 59.78125 31 60.375 31.296875 60.875 
" id="Computer_Modern_Bright-52"/>
      </defs>
      <g style="fill:#262626;" transform="translate(310.765195 324.249603)scale(0.16 -0.16)">
       <use transform="scale(0.996264)" xlink:href="#Computer_Modern_Bright_Math_Symbols-0"/>
       <use transform="translate(77.487468 0)scale(0.996264)" xlink:href="#Computer_Modern_Bright-48"/>
       <use transform="translate(128.130685 0)scale(0.996264)" xlink:href="#Computer_Modern_Bright_Math_Slanted-58"/>
       <use transform="translate(157.188132 0)scale(0.996264)" xlink:href="#Computer_Modern_Bright-52"/>
      </g>
     </g>
    </g>
    <g id="xtick_5">
     <g id="line2d_5"/>
     <g id="text_5">
      <!-- $-0.2$ -->
      <defs>
       <path d="M 7.296875 45.96875 
C 8.703125 51.59375 11.09375 57.984375 16.796875 60.5 
C 19.203125 61.5 21.796875 61.703125 24.40625 61.5 
C 29.296875 61.09375 34.09375 59.09375 37.09375 55.09375 
C 39.296875 52.078125 40.09375 48.375 39.703125 44.78125 
C 38.5 34.34375 28.296875 26.84375 21.703125 21.234375 
C 17.90625 18.03125 7.09375 7.8125 7.09375 7.8125 
L 5.40625 6.203125 
C 4.5 5.3125 4.40625 5.3125 4.40625 3.5 
L 4.40625 0 
L 46.40625 0 
L 46.40625 5.625 
L 10.203125 5.625 
C 13.40625 8.734375 26.703125 20.515625 28.5 21.921875 
C 34.296875 26.65625 40.796875 31.375 44.296875 38.21875 
C 48.203125 46.0625 46.5 55.9375 39.90625 61.765625 
C 35.90625 65.296875 30.40625 67 25.09375 67 
C 20.203125 67 15.203125 66 11.296875 62.90625 
C 8.296875 60.390625 5.796875 56.6875 4.40625 52.875 
C 4.09375 52.28125 3.59375 51.28125 3.703125 50.578125 
C 3.796875 49.984375 4.40625 49.484375 4.703125 49.078125 
C 5.5 48.078125 6.296875 46.875 7.296875 45.96875 
" id="Computer_Modern_Bright-50"/>
      </defs>
      <g style="fill:#262626;" transform="translate(383.455439 324.249603)scale(0.16 -0.16)">
       <use transform="scale(0.996264)" xlink:href="#Computer_Modern_Bright_Math_Symbols-0"/>
       <use transform="translate(77.487468 0)scale(0.996264)" xlink:href="#Computer_Modern_Bright-48"/>
       <use transform="translate(128.130685 0)scale(0.996264)" xlink:href="#Computer_Modern_Bright_Math_Slanted-58"/>
       <use transform="translate(157.188132 0)scale(0.996264)" xlink:href="#Computer_Modern_Bright-50"/>
      </g>
     </g>
    </g>
    <g id="xtick_6">
     <g id="line2d_6"/>
     <g id="text_6">
      <!-- $0.0$ -->
      <g style="fill:#262626;" transform="translate(462.34468 324.249603)scale(0.16 -0.16)">
       <use transform="scale(0.996264)" xlink:href="#Computer_Modern_Bright-48"/>
       <use transform="translate(50.643218 0)scale(0.996264)" xlink:href="#Computer_Modern_Bright_Math_Slanted-58"/>
       <use transform="translate(79.700665 0)scale(0.996264)" xlink:href="#Computer_Modern_Bright-48"/>
      </g>
     </g>
    </g>
    <g id="text_7">
     <!-- Epistasis Coefficient -->
     <defs>
      <path d="M 8 69.328125 
L 8 0 
L 55.40625 0 
L 55.40625 5.625 
L 15 5.625 
L 15 33.671875 
L 51.09375 33.671875 
L 51.09375 39 
L 15 39 
L 15 64 
L 54 64 
L 54 69.328125 
z
" id="Computer_Modern_Bright-69"/>
      <path d="M 12.703125 40.53125 
L 12.703125 47.15625 
L 6.40625 47.15625 
L 6.40625 -17 
L 12.796875 -17 
L 12.796875 6.09375 
C 14.203125 4.078125 15.796875 2.28125 17.90625 1.078125 
C 25 -3.25 34 0.171875 38.90625 6.59375 
C 45.40625 14.96875 46.09375 27.5 41.59375 36.984375 
C 39 42.4375 34.09375 47.5 27.796875 48 
C 22.296875 48 18.09375 45.8125 15.09375 43.125 
C 14.203125 42.328125 13.5 41.4375 12.703125 40.53125 
M 21.90625 42.875 
C 26 43.171875 30 41.265625 32.796875 38.265625 
C 34.5 36.34375 35.796875 34.140625 36.59375 31.734375 
C 40.09375 22.296875 36.90625 9.234375 26.796875 5.328125 
C 21 3.109375 15.296875 5.125 13.09375 10.546875 
C 12.59375 11.546875 12.796875 12.859375 12.796875 13.953125 
L 12.796875 34.640625 
C 12.796875 36.953125 13 37.15625 14.5 38.859375 
C 16.296875 41.0625 19 42.578125 21.90625 42.875 
" id="Computer_Modern_Bright-112"/>
      <path d="M 6.40625 70 
L 6.40625 63.671875 
L 12.703125 63.671875 
L 12.703125 70 
z
M 6.40625 47.390625 
L 6.40625 0 
L 12.703125 0 
L 12.703125 47.390625 
z
" id="Computer_Modern_Bright-105"/>
      <path d="M 3.09375 9.640625 
C 2.90625 8.234375 2.59375 6.9375 2.40625 5.53125 
C 2.203125 4.421875 1.90625 3.921875 2.90625 3.421875 
C 7 1.015625 11.90625 -0.296875 17.703125 -0.796875 
C 24.203125 -1.40625 32.40625 0.109375 35.59375 6.53125 
C 36.5 8.34375 37 10.34375 37.09375 12.359375 
C 37.5 19.578125 31.796875 24.203125 26.90625 25.90625 
C 21.40625 28.015625 13.90625 27.3125 10.09375 31.53125 
C 8.09375 33.84375 8 37.265625 9.90625 39.671875 
C 13.90625 45.296875 26.796875 42.875 31.90625 40.375 
C 32.703125 39.96875 33.40625 39.46875 34.296875 39.265625 
L 35.203125 44.6875 
C 30.5 46.796875 26.40625 48 19.90625 48 
C 14.296875 48 9.203125 46.703125 6 43.484375 
C 2.796875 40.171875 1.703125 34.640625 3.59375 30.4375 
C 5.40625 26.40625 9.203125 23.796875 13.296875 22.5 
C 19.203125 20.390625 25.90625 21.390625 29.796875 16.578125 
C 32 13.765625 31.59375 9.546875 29.09375 7.03125 
C 24.296875 2.609375 14.09375 4.21875 8.5 6.625 
C 6.59375 7.4375 4.90625 8.640625 3.09375 9.640625 
" id="Computer_Modern_Bright-115"/>
      <path d="M 10.796875 60.5 
L 10.796875 47.015625 
L 1.09375 47.015625 
L 1.09375 42 
L 10.703125 42 
L 10.703125 15.015625 
C 10.703125 10.578125 10.40625 5.234375 13.296875 1.515625 
C 15 -0.703125 17.296875 -1.296875 20.796875 -1 
C 23.703125 -1 26.59375 -0.390625 29.296875 0.65625 
C 30.203125 1.0625 33.5 2.515625 33.90625 3.234375 
C 34.09375 3.640625 32.796875 8.09375 32.796875 8.09375 
L 30.40625 6.265625 
C 27.296875 4.34375 21.09375 2.328125 18.5 5.96875 
C 16.203125 9.09375 16.796875 13.75 16.796875 17.375 
L 16.796875 42 
L 32.296875 42 
L 32.296875 47.015625 
L 16.796875 47.015625 
L 16.796875 60.5 
z
" id="Computer_Modern_Bright-116"/>
      <path d="M 7.90625 39.015625 
C 9.59375 39.859375 11 41.09375 12.703125 41.921875 
C 15.40625 43.15625 18.203125 44 21.203125 44 
C 22.59375 44.09375 24.203125 44.296875 25.59375 44 
C 28.09375 43.59375 30.296875 42.078125 31.796875 39.953125 
C 33.296875 37.515625 33.90625 35.390625 33.90625 31.46875 
L 33.90625 27.015625 
C 29.09375 27.015625 24.296875 26.609375 19.703125 25.390625 
C 13.90625 24.078125 7.59375 21.125 5.5 15.84375 
C 3.40625 10.78125 5.59375 4.078125 10.09375 1.03125 
C 12.296875 -0.5 14.90625 -0.5 17.5 -0.296875 
C 21.703125 0 25.90625 1.015625 29.5 3.25 
C 31.203125 4.25 32.90625 5.578125 33.90625 7.296875 
L 34 7.296875 
L 34 0.203125 
L 40.296875 0.203125 
L 40.296875 26.890625 
C 40.296875 29.8125 40.59375 32.953125 40 35.890625 
C 39.40625 39.921875 36.90625 43.265625 34 45.59375 
C 30.59375 48.21875 26.703125 49.109375 21.5 48.71875 
C 16.703125 48.71875 13 47.5 9.40625 45.765625 
C 8.90625 45.5625 7.90625 45.234375 7.59375 44.640625 
C 7.296875 44.21875 7.5 43.515625 7.5 43 
C 7.703125 41.671875 7.796875 40.34375 7.90625 39.015625 
M 33.90625 24 
L 33.90625 16.375 
C 33.90625 14.0625 34 11.953125 32.703125 9.953125 
C 31.59375 8.34375 30.09375 7.234375 28.5 6.4375 
C 22.796875 3.515625 14.09375 4.421875 11.59375 9.25 
C 9.59375 12.75 11.703125 16.875 14.59375 19.1875 
C 18.90625 22.5 27.296875 24 33.90625 24 
" id="Computer_Modern_Bright-97"/>
      <path d="M 60.5 10.875 
C 58.5 9.859375 56.703125 8.453125 54.703125 7.453125 
C 50 5.046875 44 4.140625 37.5 4.734375 
C 31.703125 5.546875 26.90625 8.359375 23.40625 11.875 
C 12.203125 23.15625 11.40625 42.96875 21.296875 55.34375 
C 25.5 60.875 31.90625 65 41.296875 65 
C 45.09375 65 49 64.296875 52.5 62.890625 
C 54.59375 61.96875 56.59375 60.765625 58.59375 59.765625 
L 59.796875 66.8125 
C 57.59375 67.671875 55.296875 68.5625 53 69.09375 
C 47.40625 70.625 38.90625 70.625 33.09375 69.21875 
C 22.90625 66.921875 15.5 59.828125 11.296875 51.625 
C 5.5 40.015625 6.203125 25.515625 13.203125 14.59375 
C 15 11.703125 17.296875 9.109375 19.90625 6.890625 
C 25.90625 1.6875 33.296875 -1.3125 43.59375 -0.5 
C 49.796875 -0.5 53.40625 0.515625 58.203125 3.203125 
C 58.703125 3.5 60.59375 4.515625 60.90625 4.9375 
C 61.09375 5.4375 60.59375 9.53125 60.5 10.875 
" id="Computer_Modern_Bright-67"/>
      <path d="M 10.703125 42.078125 
C 1.796875 33.234375 0.796875 17.875 8.5 7.9375 
C 9.59375 6.421875 10.90625 5.125 12.40625 4.015625 
C 16.09375 1 21.5 -1.203125 27.796875 -0.5 
C 37.796875 0.703125 44.703125 8.84375 46.796875 17.375 
C 49.59375 29.328125 43.703125 42.671875 32.703125 46.890625 
C 24.09375 50.40625 15.5 46.890625 10.703125 42.078125 
M 35.703125 39.359375 
C 40.5 35.03125 41.40625 28.109375 41 21.984375 
C 40.703125 17.265625 39.40625 12.34375 36.09375 8.828125 
C 30.703125 3 20.703125 3 14.90625 8.625 
C 11.90625 11.84375 10.09375 16.453125 9.796875 21.984375 
C 9.296875 30.109375 11.296875 38.75 19.296875 41.96875 
C 25.203125 44.578125 32 42.671875 35.703125 39.359375 
" id="Computer_Modern_Bright-111"/>
      <path d="M 41.796875 10.9375 
C 39.5 9.234375 38.796875 8.328125 35.90625 6.8125 
C 29.796875 3.5 22.59375 3.5 17.40625 7.171875 
C 12.40625 10.765625 9.5 16.640625 9.5 25 
L 42.5 25 
C 42.5 32.421875 40.796875 38.859375 36.59375 43.375 
C 32 47.890625 24.796875 49.296875 18.703125 47.390625 
C 16.40625 46.6875 14.296875 45.484375 12.40625 43.96875 
C 6.09375 38.859375 3.40625 30.71875 3.5 22.78125 
C 3.703125 12.34375 10.796875 1.90625 21.296875 -0.3125 
C 26.796875 -1.421875 32.59375 -0.203125 37.5 2.296875 
C 38.40625 2.796875 41.703125 4.609375 42.09375 5.515625 
C 42.40625 6.015625 41.796875 10.9375 41.796875 10.9375 
M 37.203125 28.90625 
L 10 28.90625 
C 11.203125 36.234375 17.203125 43.96875 25.296875 43.0625 
C 31.90625 42.46875 35.40625 37.75 36.703125 31.828125 
C 36.90625 30.8125 37 29.921875 37.203125 28.90625 
" id="Computer_Modern_Bright-101"/>
      <path d="M 10.59375 47.015625 
L 2 47.015625 
L 2 42 
L 10.59375 42 
L 10.59375 0 
L 16.90625 0 
L 16.90625 42 
L 30.09375 42 
L 30.09375 47.015625 
L 16.796875 47.015625 
L 16.796875 56.234375 
C 16.796875 57.890625 16.59375 59.65625 17.296875 61.21875 
C 19.5 65.875 25.40625 65.875 29.59375 65.078125 
C 30.59375 64.875 31.703125 64.46875 32.703125 64.265625 
L 32.703125 69.90625 
C 27.703125 70.609375 22.296875 71.21875 17.703125 68.46875 
C 15.796875 67.4375 14.203125 65.6875 13 63.921875 
C 11.09375 60.9375 10.59375 58.78125 10.59375 53.71875 
z
M 38.09375 0 
L 44.40625 0 
L 44.40625 42 
L 57.59375 42 
L 57.59375 47.015625 
L 44.296875 47.015625 
L 44.296875 55.234375 
C 44.296875 56.890625 44.09375 58.65625 44.40625 60.328125 
C 44.90625 62.296875 46.09375 63.65625 47.703125 64.671875 
C 50.796875 66.171875 54.40625 65.078125 57.59375 64.171875 
L 57.59375 70 
C 55.09375 70.1875 52.703125 70.6875 50.203125 70.5 
C 43.40625 70 38.59375 64.046875 38.09375 57.3125 
C 38 55.890625 38.09375 54.375 38.09375 52.96875 
z
M 65.59375 70 
L 65.59375 63.671875 
L 71.90625 63.671875 
L 71.90625 70 
z
M 65.59375 47.390625 
L 65.59375 0 
L 71.90625 0 
L 71.90625 47.390625 
z
" id="Computer_Modern_Bright-14"/>
      <path d="M 42.40625 11.25 
C 40.5 9.84375 38.796875 8.328125 36.703125 7.125 
C 32 4.625 24.796875 3.421875 19.40625 5.921875 
C 11.59375 9.9375 9.5 19.6875 10.59375 27.71875 
C 10.796875 29.328125 11.09375 30.921875 11.59375 32.4375 
C 13.796875 38.96875 19.296875 44.078125 28.296875 43.078125 
C 33.09375 42.671875 35.5 41.875 39.296875 39.765625 
C 40 39.359375 40.59375 38.859375 41.40625 38.65625 
C 41.5 39.859375 41.796875 41.171875 42 42.375 
C 42.296875 43.984375 42.296875 44.1875 40.796875 44.890625 
C 39.703125 45.390625 38.59375 45.984375 37.40625 46.390625 
C 32.796875 48.40625 25.203125 49 20 47.5 
C 12.90625 45.484375 7.59375 39.359375 5.296875 32.53125 
C 4.203125 29.421875 3.90625 26.109375 3.90625 22.796875 
C 4 12.25 11.203125 1.90625 21.703125 -0.203125 
C 27.5 -1.40625 34.203125 0.296875 38.203125 2.40625 
C 39.203125 2.90625 42.203125 4.71875 42.703125 5.625 
C 43 6.125 42.40625 11.25 42.40625 11.25 
" id="Computer_Modern_Bright-99"/>
      <path d="M 12.59375 37.28125 
L 12.5 37.28125 
L 12.5 47.390625 
L 6.40625 47.390625 
L 6.40625 0 
L 12.796875 0 
L 12.796875 21.9375 
C 12.796875 26.84375 12.5 31.875 14.703125 36.46875 
C 15.796875 38.78125 17.5 40.78125 19.796875 41.984375 
C 21.703125 42.890625 23.703125 42.890625 25.796875 42.6875 
C 28.796875 42.6875 31.703125 41.890625 33.59375 39.375 
C 35.40625 37.0625 35.5 34.0625 35.5 31.25 
L 35.5 0 
L 41.90625 0 
L 41.90625 26.859375 
C 41.90625 31.875 42.40625 37.375 40 41.890625 
C 38.09375 45.5 34.40625 47.203125 30.5 47.703125 
C 28.5 48 26.40625 48 24.40625 47.609375 
C 19.203125 46.5 14.40625 42.296875 12.59375 37.28125 
" id="Computer_Modern_Bright-110"/>
     </defs>
     <g style="fill:#262626;" transform="translate(205.672064 343.359582)scale(0.18 -0.18)">
      <use transform="scale(0.996264)" xlink:href="#Computer_Modern_Bright-69"/>
      <use transform="translate(58.737787 0)scale(0.996264)" xlink:href="#Computer_Modern_Bright-112"/>
      <use transform="translate(106.890284 0)scale(0.996264)" xlink:href="#Computer_Modern_Bright-105"/>
      <use transform="translate(125.985243 0)scale(0.996264)" xlink:href="#Computer_Modern_Bright-115"/>
      <use transform="translate(164.424272 0)scale(0.996264)" xlink:href="#Computer_Modern_Bright-116"/>
      <use transform="translate(200.53866 0)scale(0.996264)" xlink:href="#Computer_Modern_Bright-97"/>
      <use transform="translate(247.030742 0)scale(0.996264)" xlink:href="#Computer_Modern_Bright-115"/>
      <use transform="translate(285.469772 0)scale(0.996264)" xlink:href="#Computer_Modern_Bright-105"/>
      <use transform="translate(304.56473 0)scale(0.996264)" xlink:href="#Computer_Modern_Bright-115"/>
      <use transform="translate(374.468971 0)scale(0.996264)" xlink:href="#Computer_Modern_Bright-67"/>
      <use transform="translate(439.641004 0)scale(0.996264)" xlink:href="#Computer_Modern_Bright-111"/>
      <use transform="translate(490.284222 0)scale(0.996264)" xlink:href="#Computer_Modern_Bright-101"/>
      <use transform="translate(535.115889 0)scale(0.996264)" xlink:href="#Computer_Modern_Bright-14"/>
      <use transform="translate(613.156322 0)scale(0.996264)" xlink:href="#Computer_Modern_Bright-99"/>
      <use transform="translate(657.987989 0)scale(0.996264)" xlink:href="#Computer_Modern_Bright-105"/>
      <use transform="translate(677.082948 0)scale(0.996264)" xlink:href="#Computer_Modern_Bright-101"/>
      <use transform="translate(721.914616 0)scale(0.996264)" xlink:href="#Computer_Modern_Bright-110"/>
      <use transform="translate(770.067113 0)scale(0.996264)" xlink:href="#Computer_Modern_Bright-116"/>
     </g>
    </g>
   </g>
   <g id="matplotlib.axis_2">
    <g id="ytick_1">
     <g id="line2d_7"/>
     <g id="text_8">
      <!-- $0.0$ -->
      <g style="fill:#262626;" transform="translate(26.642062 298.124802)scale(0.16 -0.16)">
       <use transform="scale(0.996264)" xlink:href="#Computer_Modern_Bright-48"/>
       <use transform="translate(50.643218 0)scale(0.996264)" xlink:href="#Computer_Modern_Bright_Math_Slanted-58"/>
       <use transform="translate(79.700665 0)scale(0.996264)" xlink:href="#Computer_Modern_Bright-48"/>
      </g>
     </g>
    </g>
    <g id="ytick_2">
     <g id="line2d_8"/>
     <g id="text_9">
      <!-- $0.2$ -->
      <g style="fill:#262626;" transform="translate(26.642062 243.764787)scale(0.16 -0.16)">
       <use transform="scale(0.996264)" xlink:href="#Computer_Modern_Bright-48"/>
       <use transform="translate(50.643218 0)scale(0.996264)" xlink:href="#Computer_Modern_Bright_Math_Slanted-58"/>
       <use transform="translate(79.700665 0)scale(0.996264)" xlink:href="#Computer_Modern_Bright-50"/>
      </g>
     </g>
    </g>
    <g id="ytick_3">
     <g id="line2d_9"/>
     <g id="text_10">
      <!-- $0.4$ -->
      <g style="fill:#262626;" transform="translate(26.642062 189.404772)scale(0.16 -0.16)">
       <use transform="scale(0.996264)" xlink:href="#Computer_Modern_Bright-48"/>
       <use transform="translate(50.643218 0)scale(0.996264)" xlink:href="#Computer_Modern_Bright_Math_Slanted-58"/>
       <use transform="translate(79.700665 0)scale(0.996264)" xlink:href="#Computer_Modern_Bright-52"/>
      </g>
     </g>
    </g>
    <g id="ytick_4">
     <g id="line2d_10"/>
     <g id="text_11">
      <!-- $0.6$ -->
      <g style="fill:#262626;" transform="translate(26.642062 135.044758)scale(0.16 -0.16)">
       <use transform="scale(0.996264)" xlink:href="#Computer_Modern_Bright-48"/>
       <use transform="translate(50.643218 0)scale(0.996264)" xlink:href="#Computer_Modern_Bright_Math_Slanted-58"/>
       <use transform="translate(79.700665 0)scale(0.996264)" xlink:href="#Computer_Modern_Bright-54"/>
      </g>
     </g>
    </g>
    <g id="ytick_5">
     <g id="line2d_11"/>
     <g id="text_12">
      <!-- $0.8$ -->
      <g style="fill:#262626;" transform="translate(26.642062 80.684743)scale(0.16 -0.16)">
       <use transform="scale(0.996264)" xlink:href="#Computer_Modern_Bright-48"/>
       <use transform="translate(50.643218 0)scale(0.996264)" xlink:href="#Computer_Modern_Bright_Math_Slanted-58"/>
       <use transform="translate(79.700665 0)scale(0.996264)" xlink:href="#Computer_Modern_Bright-56"/>
      </g>
     </g>
    </g>
    <g id="ytick_6">
     <g id="line2d_12"/>
     <g id="text_13">
      <!-- $1.0$ -->
      <g style="fill:#262626;" transform="translate(26.642062 26.324728)scale(0.16 -0.16)">
       <use transform="scale(0.996264)" xlink:href="#Computer_Modern_Bright-49"/>
       <use transform="translate(50.643218 0)scale(0.996264)" xlink:href="#Computer_Modern_Bright_Math_Slanted-58"/>
       <use transform="translate(79.700665 0)scale(0.996264)" xlink:href="#Computer_Modern_Bright-48"/>
      </g>
     </g>
    </g>
    <g id="text_14">
     <!-- Cumulative Density Function -->
     <defs>
      <path d="M 6.40625 47 
L 6.40625 12.96875 
C 6.40625 10.046875 6.5 7.140625 7.703125 4.421875 
C 9.59375 0.515625 13.59375 -1 17.703125 -1 
C 23.203125 -1 28.703125 0.8125 32.703125 4.734375 
C 33.796875 5.828125 34.796875 6.9375 35.5 8.34375 
L 35.59375 8.34375 
L 35.59375 -0.390625 
L 41.90625 -0.390625 
L 41.90625 47 
L 35.5 47 
L 35.5 22.90625 
C 35.5 18.6875 36.09375 14.0625 33.90625 10.25 
C 32.296875 7.4375 29.5 5.234375 26.40625 4.234375 
C 24.296875 3.625 22.09375 3.625 19.90625 3.828125 
C 17.796875 4.03125 15.5 4.234375 14.09375 6.03125 
C 12.09375 8.453125 12.796875 14.171875 12.796875 17.6875 
L 12.796875 47 
z
" id="Computer_Modern_Bright-117"/>
      <path d="M 12.59375 37.359375 
L 12.5 37.359375 
L 12.5 47.390625 
L 6.40625 47.390625 
L 6.40625 0 
L 12.796875 0 
L 12.796875 22.046875 
C 12.796875 26.953125 12.5 31.875 14.703125 36.375 
C 16.59375 40.28125 19.90625 43.390625 25.796875 42.78125 
C 28.796875 42.78125 31.796875 41.984375 33.703125 39.453125 
C 35.5 37.140625 35.59375 34.140625 35.59375 31.3125 
L 35.59375 0 
L 42 0 
L 42 22.046875 
C 42 26.953125 41.703125 31.875 43.90625 36.375 
C 45.796875 40.28125 49.09375 43.390625 55 42.78125 
C 58 42.78125 61 41.984375 62.90625 39.453125 
C 64.703125 37.140625 64.796875 34.140625 64.796875 31.3125 
L 64.796875 0 
L 71.203125 0 
L 71.203125 26.5625 
C 71.203125 31.375 71.796875 36.78125 69.703125 41.1875 
C 67.59375 45.296875 64.203125 47.5 58.703125 47.5 
C 55.5 47.796875 52.296875 47.3125 49.40625 45.84375 
C 45.90625 43.921875 43.296875 40.75 41.703125 37.265625 
C 41 40.578125 40.203125 42.828125 38 45 
C 35.703125 47.0625 32.59375 48 29.59375 48 
C 22.296875 48.59375 17.703125 45.5625 14.59375 41 
C 13.796875 39.875 13 38.671875 12.59375 37.359375 
" id="Computer_Modern_Bright-109"/>
      <path d="M 6.40625 69.6875 
L 6.40625 0 
L 12.703125 0 
L 12.703125 69.6875 
z
" id="Computer_Modern_Bright-108"/>
      <path d="M 0.703125 47.5 
C 1.203125 45.5 4.203125 37.578125 4.40625 37.078125 
C 5.40625 34.28125 17.296875 0.609375 17.59375 0.296875 
C 17.90625 -0.203125 18.796875 0 19.296875 0 
L 22.796875 0 
C 24.09375 0 24.90625 -0.296875 25.203125 0.90625 
C 28.40625 9.328125 40.09375 42.703125 41.796875 47.5 
L 35.59375 47.5 
C 30.796875 33.984375 25.90625 20.4375 21.40625 6.609375 
L 11 36.203125 
C 9.5 39.796875 8.59375 43.890625 6.90625 47.203125 
C 5.09375 47.5 2.796875 47.5 0.703125 47.5 
" id="Computer_Modern_Bright-118"/>
      <path d="M 8 70 
L 8 0 
L 28.203125 0 
C 31.40625 0 34.59375 0 37.703125 0.296875 
C 45.703125 1.109375 52.59375 5.015625 57.203125 9.828125 
C 70.09375 23.171875 70 46.125 57.296875 59.671875 
C 52.703125 64.578125 46.5 68.5 38.703125 69.5 
C 34.90625 70 31 70 27.203125 70 
z
M 14.90625 5.3125 
L 14.90625 64.5625 
L 27.796875 64.5625 
C 30.5 64.5625 33.203125 64.5625 35.90625 64.359375 
C 40.40625 63.859375 44.796875 62.359375 48.5 59.734375 
C 56.59375 54.125 60 44.171875 60 34.640625 
C 60 26.609375 57.796875 18.375 51.90625 12.640625 
C 47.90625 8.9375 42.5 6.21875 36 5.515625 
C 33.40625 5.3125 30.703125 5.3125 28.09375 5.3125 
z
" id="Computer_Modern_Bright-68"/>
      <path d="M 0.703125 47.65625 
C 1.296875 45.75 5.40625 35.609375 5.5 35.3125 
L 17.40625 4.578125 
L 18.40625 2.078125 
C 19 0.671875 19.203125 0.46875 18.59375 -1.140625 
L 17.5 -4.046875 
C 16.59375 -6.46875 15.59375 -8.96875 13.703125 -10.484375 
C 10.296875 -13.296875 4.90625 -11.6875 0.796875 -10.78125 
L 1.296875 -16.5 
C 3.203125 -16.796875 5.09375 -17 7 -17 
C 11.296875 -17.515625 14.09375 -16.5 16.703125 -14.296875 
C 20 -11.484375 21.59375 -7.5625 23.09375 -3.546875 
L 26.203125 5.078125 
L 36.40625 32.90625 
C 38.09375 37.921875 40.203125 42.640625 41.796875 47.65625 
L 37.296875 47.65625 
C 36.796875 47.65625 36 47.859375 35.59375 47.46875 
C 35.40625 47.15625 35.296875 46.765625 35.203125 46.453125 
L 34.40625 44.34375 
C 33.40625 41.734375 32.5 39.234375 31.59375 36.609375 
L 25.796875 20.25 
C 24.296875 15.828125 22.59375 11.3125 21.796875 6.6875 
C 20.703125 11.3125 19.203125 15.734375 17.59375 20.140625 
C 16.296875 23.5625 8.5 44.546875 7.5 46.5625 
C 7.09375 47.65625 6.703125 47.65625 5.203125 47.65625 
z
" id="Computer_Modern_Bright-121"/>
      <path d="M 8 69.328125 
L 8 0 
L 15 0 
L 15 32 
L 48.09375 32 
L 48.09375 37.3125 
L 15 37.3125 
L 15 64 
L 52.40625 64 
L 52.40625 69.328125 
z
" id="Computer_Modern_Bright-70"/>
     </defs>
     <g style="fill:#262626;" transform="translate(19.65327 260.669538)rotate(-90)scale(0.18 -0.18)">
      <use transform="scale(0.996264)" xlink:href="#Computer_Modern_Bright-67"/>
      <use transform="translate(65.172032 0)scale(0.996264)" xlink:href="#Computer_Modern_Bright-117"/>
      <use transform="translate(113.324529 0)scale(0.996264)" xlink:href="#Computer_Modern_Bright-109"/>
      <use transform="translate(190.534656 0)scale(0.996264)" xlink:href="#Computer_Modern_Bright-117"/>
      <use transform="translate(238.687153 0)scale(0.996264)" xlink:href="#Computer_Modern_Bright-108"/>
      <use transform="translate(257.782112 0)scale(0.996264)" xlink:href="#Computer_Modern_Bright-97"/>
      <use transform="translate(304.274194 0)scale(0.996264)" xlink:href="#Computer_Modern_Bright-116"/>
      <use transform="translate(340.388582 0)scale(0.996264)" xlink:href="#Computer_Modern_Bright-105"/>
      <use transform="translate(359.483541 0)scale(0.996264)" xlink:href="#Computer_Modern_Bright-118"/>
      <use transform="translate(401.824579 0)scale(0.996264)" xlink:href="#Computer_Modern_Bright-101"/>
      <use transform="translate(478.121458 0)scale(0.996264)" xlink:href="#Computer_Modern_Bright-68"/>
      <use transform="translate(549.727645 0)scale(0.996264)" xlink:href="#Computer_Modern_Bright-101"/>
      <use transform="translate(594.559312 0)scale(0.996264)" xlink:href="#Computer_Modern_Bright-110"/>
      <use transform="translate(642.711809 0)scale(0.996264)" xlink:href="#Computer_Modern_Bright-115"/>
      <use transform="translate(681.150839 0)scale(0.996264)" xlink:href="#Computer_Modern_Bright-105"/>
      <use transform="translate(700.245798 0)scale(0.996264)" xlink:href="#Computer_Modern_Bright-116"/>
      <use transform="translate(733.454456 0)scale(0.996264)" xlink:href="#Computer_Modern_Bright-121"/>
      <use transform="translate(807.260706 0)scale(0.996264)" xlink:href="#Computer_Modern_Bright-70"/>
      <use transform="translate(860.187034 0)scale(0.996264)" xlink:href="#Computer_Modern_Bright-117"/>
      <use transform="translate(908.339531 0)scale(0.996264)" xlink:href="#Computer_Modern_Bright-110"/>
      <use transform="translate(956.492028 0)scale(0.996264)" xlink:href="#Computer_Modern_Bright-99"/>
      <use transform="translate(1001.323695 0)scale(0.996264)" xlink:href="#Computer_Modern_Bright-116"/>
      <use transform="translate(1037.438083 0)scale(0.996264)" xlink:href="#Computer_Modern_Bright-105"/>
      <use transform="translate(1056.533042 0)scale(0.996264)" xlink:href="#Computer_Modern_Bright-111"/>
      <use transform="translate(1107.17626 0)scale(0.996264)" xlink:href="#Computer_Modern_Bright-110"/>
     </g>
    </g>
   </g>
   <g id="PolyCollection_1">
    <path clip-path="url(#p5c13146b73)" d="M 310.103962 292.589924 
L 310.103962 292.59 
L 310.4203 292.59 
L 310.736639 292.59 
L 311.052977 292.59 
L 311.369315 292.59 
L 311.685654 292.59 
L 312.001992 292.59 
L 312.318331 292.59 
L 312.634669 292.59 
L 312.951007 292.59 
L 313.267346 292.59 
L 313.583684 292.59 
L 313.900022 292.59 
L 314.216361 292.59 
L 314.532699 292.59 
L 314.849037 292.59 
L 315.165376 292.59 
L 315.481714 292.59 
L 315.798053 292.59 
L 316.114391 292.59 
L 316.430729 292.59 
L 316.747068 292.59 
L 317.063406 292.59 
L 317.379744 292.59 
L 317.696083 292.59 
L 318.012421 292.59 
L 318.32876 292.59 
L 318.645098 292.59 
L 318.961436 292.59 
L 319.277775 292.59 
L 319.594113 292.59 
L 319.910451 292.59 
L 320.22679 292.59 
L 320.543128 292.59 
L 320.859466 292.59 
L 321.175805 292.59 
L 321.492143 292.59 
L 321.808482 292.59 
L 322.12482 292.59 
L 322.441158 292.59 
L 322.757497 292.59 
L 323.073835 292.59 
L 323.390173 292.59 
L 323.706512 292.59 
L 324.02285 292.59 
L 324.339189 292.59 
L 324.655527 292.59 
L 324.971865 292.59 
L 325.288204 292.59 
L 325.604542 292.59 
L 325.92088 292.59 
L 326.237219 292.59 
L 326.553557 292.59 
L 326.869895 292.59 
L 327.186234 292.59 
L 327.502572 292.59 
L 327.818911 292.59 
L 328.135249 292.59 
L 328.451587 292.59 
L 328.767926 292.59 
L 329.084264 292.59 
L 329.400602 292.59 
L 329.716941 292.59 
L 330.033279 292.59 
L 330.349618 292.59 
L 330.665956 292.59 
L 330.982294 292.59 
L 331.298633 292.59 
L 331.614971 292.59 
L 331.931309 292.59 
L 332.247648 292.59 
L 332.563986 292.59 
L 332.880324 292.59 
L 333.196663 292.59 
L 333.513001 292.59 
L 333.82934 292.59 
L 334.145678 292.59 
L 334.462016 292.59 
L 334.778355 292.59 
L 335.094693 292.59 
L 335.411031 292.59 
L 335.72737 292.59 
L 336.043708 292.59 
L 336.360047 292.59 
L 336.676385 292.59 
L 336.992723 292.59 
L 337.309062 292.59 
L 337.6254 292.59 
L 337.941738 292.59 
L 338.258077 292.59 
L 338.574415 292.59 
L 338.890753 292.59 
L 339.207092 292.59 
L 339.52343 292.59 
L 339.839769 292.59 
L 340.156107 292.59 
L 340.472445 292.59 
L 340.788784 292.59 
L 341.105122 292.59 
L 341.42146 292.59 
L 341.737799 292.59 
L 342.054137 292.59 
L 342.370476 292.59 
L 342.686814 292.59 
L 343.003152 292.59 
L 343.319491 292.59 
L 343.635829 292.59 
L 343.952167 292.59 
L 344.268506 292.59 
L 344.584844 292.59 
L 344.901182 292.59 
L 345.217521 292.59 
L 345.533859 292.59 
L 345.850198 292.59 
L 346.166536 292.59 
L 346.482874 292.59 
L 346.799213 292.59 
L 347.115551 292.59 
L 347.431889 292.59 
L 347.748228 292.59 
L 348.064566 292.59 
L 348.380905 292.59 
L 348.697243 292.59 
L 349.013581 292.59 
L 349.32992 292.59 
L 349.646258 292.59 
L 349.962596 292.59 
L 350.278935 292.59 
L 350.278935 20.79 
L 350.278935 20.79 
L 349.962596 20.790132 
L 349.646258 20.790446 
L 349.32992 20.791121 
L 349.013581 20.792421 
L 348.697243 20.794674 
L 348.380905 20.798184 
L 348.064566 20.803108 
L 347.748228 20.809347 
L 347.431889 20.816532 
L 347.115551 20.824172 
L 346.799213 20.831927 
L 346.482874 20.839908 
L 346.166536 20.848877 
L 345.850198 20.860279 
L 345.533859 20.876153 
L 345.217521 20.899021 
L 344.901182 20.93184 
L 344.584844 20.977981 
L 344.268506 21.041066 
L 343.952167 21.124514 
L 343.635829 21.230867 
L 343.319491 21.36122 
L 343.003152 21.515151 
L 342.686814 21.691279 
L 342.370476 21.888175 
L 342.054137 22.105179 
L 341.737799 22.342813 
L 341.42146 22.602823 
L 341.105122 22.88812 
L 340.788784 23.20288 
L 340.472445 23.552897 
L 340.156107 23.946059 
L 339.839769 24.392587 
L 339.52343 24.904613 
L 339.207092 25.494856 
L 338.890753 26.174686 
L 338.574415 26.952372 
L 338.258077 27.832566 
L 337.941738 28.817617 
L 337.6254 29.910365 
L 337.309062 31.116944 
L 336.992723 32.447723 
L 336.676385 33.915309 
L 336.360047 35.530334 
L 336.043708 37.29732 
L 335.72737 39.213218 
L 335.411031 41.269828 
L 335.094693 43.459217 
L 334.778355 45.779737 
L 334.462016 48.240084 
L 334.145678 50.860016 
L 333.82934 53.667923 
L 333.513001 56.696429 
L 333.196663 59.977181 
L 332.880324 63.535495 
L 332.563986 67.385511 
L 332.247648 71.527184 
L 331.931309 75.946929 
L 331.614971 80.622723 
L 331.298633 85.532178 
L 330.982294 90.659965 
L 330.665956 96.000727 
L 330.349618 101.555704 
L 330.033279 107.324592 
L 329.716941 113.296782 
L 329.400602 119.446658 
L 329.084264 125.735677 
L 328.767926 132.120457 
L 328.451587 138.562977 
L 328.135249 145.038013 
L 327.818911 151.534671 
L 327.502572 158.052266 
L 327.186234 164.593469 
L 326.869895 171.158062 
L 326.553557 177.739143 
L 326.237219 184.321816 
L 325.92088 190.88365 
L 325.604542 197.396231 
L 325.288204 203.827211 
L 324.971865 210.142116 
L 324.655527 216.305428 
L 324.339189 222.281343 
L 324.02285 228.035354 
L 323.706512 233.537342 
L 323.390173 238.765308 
L 323.073835 243.707708 
L 322.757497 248.362761 
L 322.441158 252.734908 
L 322.12482 256.830352 
L 321.808482 260.65402 
L 321.492143 264.209169 
L 321.175805 267.499003 
L 320.859466 270.52846 
L 320.543128 273.304554 
L 320.22679 275.835122 
L 319.910451 278.127317 
L 319.594113 280.187363 
L 319.277775 282.021991 
L 318.961436 283.64059 
L 318.645098 285.056623 
L 318.32876 286.287451 
L 318.012421 287.352702 
L 317.696083 288.27205 
L 317.379744 289.06332 
L 317.063406 289.741492 
L 316.747068 290.318654 
L 316.430729 290.804645 
L 316.114391 291.20801 
L 315.798053 291.536908 
L 315.481714 291.799745 
L 315.165376 292.00542 
L 314.849037 292.163154 
L 314.532699 292.282024 
L 314.216361 292.370399 
L 313.900022 292.435471 
L 313.583684 292.48304 
L 313.267346 292.517553 
L 312.951007 292.54231 
L 312.634669 292.559741 
L 312.318331 292.571663 
L 312.001992 292.579486 
L 311.685654 292.584347 
L 311.369315 292.587174 
L 311.052977 292.588695 
L 310.736639 292.589447 
L 310.4203 292.589786 
L 310.103962 292.589924 
z
" style="fill:#33a02c;fill-opacity:0.25;"/>
   </g>
   <g id="PolyCollection_2">
    <path clip-path="url(#p5c13146b73)" d="M 464.031324 292.589999 
L 464.031324 292.59 
L 464.166018 292.59 
L 464.300712 292.59 
L 464.435406 292.59 
L 464.5701 292.59 
L 464.704794 292.59 
L 464.839488 292.59 
L 464.974182 292.59 
L 465.108875 292.59 
L 465.243569 292.59 
L 465.378263 292.59 
L 465.512957 292.59 
L 465.647651 292.59 
L 465.782345 292.59 
L 465.917039 292.59 
L 466.051732 292.59 
L 466.186426 292.59 
L 466.32112 292.59 
L 466.455814 292.59 
L 466.590508 292.59 
L 466.725202 292.59 
L 466.859896 292.59 
L 466.99459 292.59 
L 467.129283 292.59 
L 467.263977 292.59 
L 467.398671 292.59 
L 467.533365 292.59 
L 467.668059 292.59 
L 467.802753 292.59 
L 467.937447 292.59 
L 468.072141 292.59 
L 468.206834 292.59 
L 468.341528 292.59 
L 468.476222 292.59 
L 468.610916 292.59 
L 468.74561 292.59 
L 468.880304 292.59 
L 469.014998 292.59 
L 469.149691 292.59 
L 469.284385 292.59 
L 469.419079 292.59 
L 469.553773 292.59 
L 469.688467 292.59 
L 469.823161 292.59 
L 469.957855 292.59 
L 470.092549 292.59 
L 470.227242 292.59 
L 470.361936 292.59 
L 470.49663 292.59 
L 470.631324 292.59 
L 470.766018 292.59 
L 470.900712 292.59 
L 471.035406 292.59 
L 471.170099 292.59 
L 471.304793 292.59 
L 471.439487 292.59 
L 471.574181 292.59 
L 471.708875 292.59 
L 471.843569 292.59 
L 471.978263 292.59 
L 472.112957 292.59 
L 472.24765 292.59 
L 472.382344 292.59 
L 472.517038 292.59 
L 472.651732 292.59 
L 472.786426 292.59 
L 472.92112 292.59 
L 473.055814 292.59 
L 473.190508 292.59 
L 473.325201 292.59 
L 473.459895 292.59 
L 473.594589 292.59 
L 473.729283 292.59 
L 473.863977 292.59 
L 473.998671 292.59 
L 474.133365 292.59 
L 474.268058 292.59 
L 474.402752 292.59 
L 474.537446 292.59 
L 474.67214 292.59 
L 474.806834 292.59 
L 474.941528 292.59 
L 475.076222 292.59 
L 475.210916 292.59 
L 475.345609 292.59 
L 475.480303 292.59 
L 475.614997 292.59 
L 475.749691 292.59 
L 475.884385 292.59 
L 476.019079 292.59 
L 476.153773 292.59 
L 476.288466 292.59 
L 476.42316 292.59 
L 476.557854 292.59 
L 476.692548 292.59 
L 476.827242 292.59 
L 476.961936 292.59 
L 477.09663 292.59 
L 477.231324 292.59 
L 477.366017 292.59 
L 477.500711 292.59 
L 477.635405 292.59 
L 477.770099 292.59 
L 477.904793 292.59 
L 478.039487 292.59 
L 478.174181 292.59 
L 478.308875 292.59 
L 478.443568 292.59 
L 478.578262 292.59 
L 478.712956 292.59 
L 478.84765 292.59 
L 478.982344 292.59 
L 479.117038 292.59 
L 479.251732 292.59 
L 479.386425 292.59 
L 479.521119 292.59 
L 479.655813 292.59 
L 479.790507 292.59 
L 479.925201 292.59 
L 480.059895 292.59 
L 480.194589 292.59 
L 480.329283 292.59 
L 480.463976 292.59 
L 480.59867 292.59 
L 480.733364 292.59 
L 480.868058 292.59 
L 481.002752 292.59 
L 481.137446 292.59 
L 481.137446 20.790119 
L 481.137446 20.790119 
L 481.002752 20.790332 
L 480.868058 20.790887 
L 480.733364 20.792194 
L 480.59867 20.794991 
L 480.463976 20.800446 
L 480.329283 20.810178 
L 480.194589 20.82615 
L 480.059895 20.850407 
L 479.925201 20.884753 
L 479.790507 20.930488 
L 479.655813 20.988321 
L 479.521119 21.058533 
L 479.386425 21.141378 
L 479.251732 21.237715 
L 479.117038 21.349798 
L 478.982344 21.482033 
L 478.84765 21.64136 
L 478.712956 21.836866 
L 478.578262 22.078474 
L 478.443568 22.374973 
L 478.308875 22.732088 
L 478.174181 23.151514 
L 478.039487 23.631594 
L 477.904793 24.169602 
L 477.770099 24.764668 
L 477.635405 25.419888 
L 477.500711 26.142586 
L 477.366017 26.942917 
L 477.231324 27.832078 
L 477.09663 28.821477 
L 476.961936 29.923271 
L 476.827242 31.151639 
L 476.692548 32.523901 
L 476.557854 34.061041 
L 476.42316 35.787601 
L 476.288466 37.730667 
L 476.153773 39.9172 
L 476.019079 42.369455 
L 475.884385 45.099846 
L 475.749691 48.108083 
L 475.614997 51.382926 
L 475.480303 54.908304 
L 475.345609 58.670668 
L 475.210916 62.66364 
L 475.076222 66.888045 
L 474.941528 71.348471 
L 474.806834 76.04925 
L 474.67214 80.991996 
L 474.537446 86.174896 
L 474.402752 91.592743 
L 474.268058 97.23711 
L 474.133365 103.09704 
L 473.998671 109.160582 
L 473.863977 115.416344 
L 473.729283 121.853478 
L 473.594589 128.459153 
L 473.459895 135.21442 
L 473.325201 142.090599 
L 473.190508 149.0482 
L 473.055814 156.039157 
L 472.92112 163.012012 
L 472.786426 169.918839 
L 472.651732 176.721772 
L 472.517038 183.396203 
L 472.382344 189.928479 
L 472.24765 196.308945 
L 472.112957 202.524635 
L 471.978263 208.556534 
L 471.843569 214.382918 
L 471.708875 219.985547 
L 471.574181 225.353631 
L 471.439487 230.48286 
L 471.304793 235.370874 
L 471.170099 240.01285 
L 471.035406 244.400203 
L 470.900712 248.523091 
L 470.766018 252.375257 
L 470.631324 255.958724 
L 470.49663 259.285915 
L 470.361936 262.378012 
L 470.227242 265.260089 
L 470.092549 267.955095 
L 469.957855 270.479158 
L 469.823161 272.839939 
L 469.688467 275.038338 
L 469.553773 277.072276 
L 469.419079 278.94037 
L 469.284385 280.643674 
L 469.149691 282.185195 
L 469.014998 283.568571 
L 468.880304 284.797654 
L 468.74561 285.877601 
L 468.610916 286.816484 
L 468.476222 287.62591 
L 468.341528 288.319989 
L 468.206834 288.913299 
L 468.072141 289.419194 
L 467.937447 289.849381 
L 467.802753 290.214697 
L 467.668059 290.526115 
L 467.533365 290.794957 
L 467.398671 291.031917 
L 467.263977 291.245434 
L 467.129283 291.440426 
L 466.99459 291.618192 
L 466.859896 291.777551 
L 466.725202 291.916588 
L 466.590508 292.034206 
L 466.455814 292.130916 
L 466.32112 292.208853 
L 466.186426 292.271311 
L 466.051732 292.322118 
L 465.917039 292.365012 
L 465.782345 292.403061 
L 465.647651 292.438196 
L 465.512957 292.471021 
L 465.378263 292.501018 
L 465.243569 292.52711 
L 465.108875 292.548325 
L 464.974182 292.564275 
L 464.839488 292.575293 
L 464.704794 292.582258 
L 464.5701 292.586276 
L 464.435406 292.588386 
L 464.300712 292.589393 
L 464.166018 292.589829 
L 464.031324 292.589999 
z
" style="fill:#ff7f00;fill-opacity:0.25;"/>
   </g>
   <g id="PolyCollection_3">
    <path clip-path="url(#p5c13146b73)" d="M 281.312242 292.589999 
L 281.312242 292.59 
L 281.470501 292.59 
L 281.62876 292.59 
L 281.787019 292.59 
L 281.945278 292.59 
L 282.103537 292.59 
L 282.261797 292.59 
L 282.420056 292.59 
L 282.578315 292.59 
L 282.736574 292.59 
L 282.894833 292.59 
L 283.053092 292.59 
L 283.211351 292.59 
L 283.36961 292.59 
L 283.52787 292.59 
L 283.686129 292.59 
L 283.844388 292.59 
L 284.002647 292.59 
L 284.160906 292.59 
L 284.319165 292.59 
L 284.477424 292.59 
L 284.635683 292.59 
L 284.793943 292.59 
L 284.952202 292.59 
L 285.110461 292.59 
L 285.26872 292.59 
L 285.426979 292.59 
L 285.585238 292.59 
L 285.743497 292.59 
L 285.901756 292.59 
L 286.060016 292.59 
L 286.218275 292.59 
L 286.376534 292.59 
L 286.534793 292.59 
L 286.693052 292.59 
L 286.851311 292.59 
L 287.00957 292.59 
L 287.167829 292.59 
L 287.326089 292.59 
L 287.484348 292.59 
L 287.642607 292.59 
L 287.800866 292.59 
L 287.959125 292.59 
L 288.117384 292.59 
L 288.275643 292.59 
L 288.433902 292.59 
L 288.592162 292.59 
L 288.750421 292.59 
L 288.90868 292.59 
L 289.066939 292.59 
L 289.225198 292.59 
L 289.383457 292.59 
L 289.541716 292.59 
L 289.699975 292.59 
L 289.858235 292.59 
L 290.016494 292.59 
L 290.174753 292.59 
L 290.333012 292.59 
L 290.491271 292.59 
L 290.64953 292.59 
L 290.807789 292.59 
L 290.966048 292.59 
L 291.124308 292.59 
L 291.282567 292.59 
L 291.440826 292.59 
L 291.599085 292.59 
L 291.757344 292.59 
L 291.915603 292.59 
L 292.073862 292.59 
L 292.232121 292.59 
L 292.390381 292.59 
L 292.54864 292.59 
L 292.706899 292.59 
L 292.865158 292.59 
L 293.023417 292.59 
L 293.181676 292.59 
L 293.339935 292.59 
L 293.498194 292.59 
L 293.656454 292.59 
L 293.814713 292.59 
L 293.972972 292.59 
L 294.131231 292.59 
L 294.28949 292.59 
L 294.447749 292.59 
L 294.606008 292.59 
L 294.764267 292.59 
L 294.922527 292.59 
L 295.080786 292.59 
L 295.239045 292.59 
L 295.397304 292.59 
L 295.555563 292.59 
L 295.713822 292.59 
L 295.872081 292.59 
L 296.03034 292.59 
L 296.1886 292.59 
L 296.346859 292.59 
L 296.505118 292.59 
L 296.663377 292.59 
L 296.821636 292.59 
L 296.979895 292.59 
L 297.138154 292.59 
L 297.296413 292.59 
L 297.454673 292.59 
L 297.612932 292.59 
L 297.771191 292.59 
L 297.92945 292.59 
L 298.087709 292.59 
L 298.245968 292.59 
L 298.404227 292.59 
L 298.562486 292.59 
L 298.720746 292.59 
L 298.879005 292.59 
L 299.037264 292.59 
L 299.195523 292.59 
L 299.353782 292.59 
L 299.512041 292.59 
L 299.6703 292.59 
L 299.828559 292.59 
L 299.986819 292.59 
L 300.145078 292.59 
L 300.303337 292.59 
L 300.461596 292.59 
L 300.619855 292.59 
L 300.778114 292.59 
L 300.936373 292.59 
L 301.094632 292.59 
L 301.252892 292.59 
L 301.411151 292.59 
L 301.411151 20.790073 
L 301.411151 20.790073 
L 301.252892 20.790237 
L 301.094632 20.790677 
L 300.936373 20.791697 
L 300.778114 20.79376 
L 300.619855 20.7974 
L 300.461596 20.803043 
L 300.303337 20.810802 
L 300.145078 20.820439 
L 299.986819 20.831569 
L 299.828559 20.843997 
L 299.6703 20.85793 
L 299.512041 20.873908 
L 299.353782 20.892594 
L 299.195523 20.914632 
L 299.037264 20.940705 
L 298.879005 20.971742 
L 298.720746 21.009191 
L 298.562486 21.055466 
L 298.404227 21.114654 
L 298.245968 21.193375 
L 298.087709 21.30141 
L 297.92945 21.451658 
L 297.771191 21.659237 
L 297.612932 21.939857 
L 297.454673 22.307691 
L 297.296413 22.77304 
L 297.138154 23.340477 
L 296.979895 24.008752 
L 296.821636 24.7734 
L 296.663377 25.631206 
L 296.505118 26.583778 
L 296.346859 27.637796 
L 296.1886 28.802192 
L 296.03034 30.085003 
L 295.872081 31.492464 
L 295.713822 33.030786 
L 295.555563 34.709522 
L 295.397304 36.545519 
L 295.239045 38.566365 
L 295.080786 40.810879 
L 294.922527 43.323716 
L 294.764267 46.144548 
L 294.606008 49.297847 
L 294.447749 52.790778 
L 294.28949 56.620825 
L 294.131231 60.786859 
L 293.972972 65.295322 
L 293.814713 70.158615 
L 293.656454 75.38919 
L 293.498194 80.994499 
L 293.339935 86.974851 
L 293.181676 93.322784 
L 293.023417 100.021957 
L 292.865158 107.045464 
L 292.706899 114.355085 
L 292.54864 121.902246 
L 292.390381 129.629798 
L 292.232121 137.474043 
L 292.073862 145.368379 
L 291.915603 153.250137 
L 291.757344 161.069134 
L 291.599085 168.793018 
L 291.440826 176.404412 
L 291.282567 183.889586 
L 291.124308 191.22517 
L 290.966048 198.372899 
L 290.807789 205.288063 
L 290.64953 211.936853 
L 290.491271 218.309849 
L 290.333012 224.421337 
L 290.174753 230.295019 
L 290.016494 235.945944 
L 289.858235 241.368824 
L 289.699975 246.536966 
L 289.541716 251.410467 
L 289.383457 255.949395 
L 289.225198 260.126113 
L 289.066939 263.931037 
L 288.90868 267.369977 
L 288.750421 270.457077 
L 288.592162 273.209756 
L 288.433902 275.648629 
L 288.275643 277.800141 
L 288.117384 279.697565 
L 287.959125 281.378126 
L 287.800866 282.877342 
L 287.642607 284.223496 
L 287.484348 285.434842 
L 287.326089 286.5204 
L 287.167829 287.483504 
L 287.00957 288.32635 
L 286.851311 289.053731 
L 286.693052 289.674628 
L 286.534793 290.201197 
L 286.376534 290.646049 
L 286.218275 291.019682 
L 286.060016 291.329624 
L 285.901756 291.581501 
L 285.743497 291.780944 
L 285.585238 291.935032 
L 285.426979 292.052529 
L 285.26872 292.142952 
L 285.110461 292.215024 
L 284.952202 292.275275 
L 284.793943 292.327425 
L 284.635683 292.372749 
L 284.477424 292.41117 
L 284.319165 292.442493 
L 284.160906 292.467172 
L 284.002647 292.486332 
L 283.844388 292.501274 
L 283.686129 292.512993 
L 283.52787 292.522109 
L 283.36961 292.529174 
L 283.211351 292.534973 
L 283.053092 292.540523 
L 282.894833 292.546753 
L 282.736574 292.554092 
L 282.578315 292.562247 
L 282.420056 292.570356 
L 282.261797 292.577427 
L 282.103537 292.582801 
L 281.945278 292.586349 
L 281.787019 292.588384 
L 281.62876 292.589397 
L 281.470501 292.589835 
L 281.312242 292.589999 
z
" style="fill:#1f78b4;fill-opacity:0.25;"/>
   </g>
   <g id="PolyCollection_4">
    <path clip-path="url(#p5c13146b73)" d="M 293.930499 292.589927 
L 293.930499 292.59 
L 294.129475 292.59 
L 294.328452 292.59 
L 294.527428 292.59 
L 294.726404 292.59 
L 294.925381 292.59 
L 295.124357 292.59 
L 295.323334 292.59 
L 295.52231 292.59 
L 295.721286 292.59 
L 295.920263 292.59 
L 296.119239 292.59 
L 296.318215 292.59 
L 296.517192 292.59 
L 296.716168 292.59 
L 296.915145 292.59 
L 297.114121 292.59 
L 297.313097 292.59 
L 297.512074 292.59 
L 297.71105 292.59 
L 297.910026 292.59 
L 298.109003 292.59 
L 298.307979 292.59 
L 298.506955 292.59 
L 298.705932 292.59 
L 298.904908 292.59 
L 299.103885 292.59 
L 299.302861 292.59 
L 299.501837 292.59 
L 299.700814 292.59 
L 299.89979 292.59 
L 300.098766 292.59 
L 300.297743 292.59 
L 300.496719 292.59 
L 300.695696 292.59 
L 300.894672 292.59 
L 301.093648 292.59 
L 301.292625 292.59 
L 301.491601 292.59 
L 301.690577 292.59 
L 301.889554 292.59 
L 302.08853 292.59 
L 302.287506 292.59 
L 302.486483 292.59 
L 302.685459 292.59 
L 302.884436 292.59 
L 303.083412 292.59 
L 303.282388 292.59 
L 303.481365 292.59 
L 303.680341 292.59 
L 303.879317 292.59 
L 304.078294 292.59 
L 304.27727 292.59 
L 304.476246 292.59 
L 304.675223 292.59 
L 304.874199 292.59 
L 305.073176 292.59 
L 305.272152 292.59 
L 305.471128 292.59 
L 305.670105 292.59 
L 305.869081 292.59 
L 306.068057 292.59 
L 306.267034 292.59 
L 306.46601 292.59 
L 306.664987 292.59 
L 306.863963 292.59 
L 307.062939 292.59 
L 307.261916 292.59 
L 307.460892 292.59 
L 307.659868 292.59 
L 307.858845 292.59 
L 308.057821 292.59 
L 308.256797 292.59 
L 308.455774 292.59 
L 308.65475 292.59 
L 308.853727 292.59 
L 309.052703 292.59 
L 309.251679 292.59 
L 309.450656 292.59 
L 309.649632 292.59 
L 309.848608 292.59 
L 310.047585 292.59 
L 310.246561 292.59 
L 310.445538 292.59 
L 310.644514 292.59 
L 310.84349 292.59 
L 311.042467 292.59 
L 311.241443 292.59 
L 311.440419 292.59 
L 311.639396 292.59 
L 311.838372 292.59 
L 312.037348 292.59 
L 312.236325 292.59 
L 312.435301 292.59 
L 312.634278 292.59 
L 312.833254 292.59 
L 313.03223 292.59 
L 313.231207 292.59 
L 313.430183 292.59 
L 313.629159 292.59 
L 313.828136 292.59 
L 314.027112 292.59 
L 314.226088 292.59 
L 314.425065 292.59 
L 314.624041 292.59 
L 314.823018 292.59 
L 315.021994 292.59 
L 315.22097 292.59 
L 315.419947 292.59 
L 315.618923 292.59 
L 315.817899 292.59 
L 316.016876 292.59 
L 316.215852 292.59 
L 316.414829 292.59 
L 316.613805 292.59 
L 316.812781 292.59 
L 317.011758 292.59 
L 317.210734 292.59 
L 317.40971 292.59 
L 317.608687 292.59 
L 317.807663 292.59 
L 318.006639 292.59 
L 318.205616 292.59 
L 318.404592 292.59 
L 318.603569 292.59 
L 318.802545 292.59 
L 319.001521 292.59 
L 319.200498 292.59 
L 319.200498 20.790057 
L 319.200498 20.790057 
L 319.001521 20.79033 
L 318.802545 20.791047 
L 318.603569 20.79273 
L 318.404592 20.796263 
L 318.205616 20.802928 
L 318.006639 20.814287 
L 317.807663 20.831877 
L 317.608687 20.856838 
L 317.40971 20.889638 
L 317.210734 20.930127 
L 317.011758 20.97801 
L 316.812781 21.033707 
L 316.613805 21.099324 
L 316.414829 21.179337 
L 316.215852 21.280523 
L 316.016876 21.41094 
L 315.817899 21.578243 
L 315.618923 21.788038 
L 315.419947 22.043053 
L 315.22097 22.343467 
L 315.021994 22.688165 
L 314.823018 23.076449 
L 314.624041 23.50979 
L 314.425065 23.993492 
L 314.226088 24.537911 
L 314.027112 25.158494 
L 313.828136 25.873926 
L 313.629159 26.702712 
L 313.430183 27.659894 
L 313.231207 28.756065 
L 313.03223 29.999324 
L 312.833254 31.398606 
L 312.634278 32.965718 
L 312.435301 34.714704 
L 312.236325 36.659494 
L 312.037348 38.812089 
L 311.838372 41.182768 
L 311.639396 43.781964 
L 311.440419 46.622056 
L 311.241443 49.717495 
L 311.042467 53.083116 
L 310.84349 56.732166 
L 310.644514 60.675836 
L 310.445538 64.924645 
L 310.246561 69.489993 
L 310.047585 74.383369 
L 309.848608 79.612229 
L 309.649632 85.174289 
L 309.450656 91.053961 
L 309.251679 97.223719 
L 309.052703 103.649792 
L 308.853727 110.298302 
L 308.65475 117.137809 
L 308.455774 124.137423 
L 308.256797 131.263326 
L 308.057821 138.477496 
L 307.858845 145.740027 
L 307.659868 153.013031 
L 307.460892 160.262866 
L 307.261916 167.459145 
L 307.062939 174.571979 
L 306.863963 181.570521 
L 306.664987 188.424902 
L 306.46601 195.110782 
L 306.267034 201.613081 
L 306.068057 207.925356 
L 305.869081 214.044391 
L 305.670105 219.963833 
L 305.471128 225.6721 
L 305.272152 231.156341 
L 305.073176 236.408437 
L 304.874199 241.426715 
L 304.675223 246.210713 
L 304.476246 250.753037 
L 304.27727 255.035379 
L 304.078294 259.032442 
L 303.879317 262.721094 
L 303.680341 266.088607 
L 303.481365 269.135644 
L 303.282388 271.874286 
L 303.083412 274.324238 
L 302.884436 276.50998 
L 302.685459 278.459293 
L 302.486483 280.201985 
L 302.287506 281.767689 
L 302.08853 283.182839 
L 301.889554 284.467859 
L 301.690577 285.635677 
L 301.491601 286.69208 
L 301.292625 287.637772 
L 301.093648 288.471497 
L 300.894672 289.193222 
L 300.695696 289.806247 
L 300.496719 290.317611 
L 300.297743 290.73709 
L 300.098766 291.07584 
L 299.89979 291.345491 
L 299.700814 291.557762 
L 299.501837 291.724022 
L 299.302861 291.854526 
L 299.103885 291.957644 
L 298.904908 292.039659 
L 298.705932 292.105294 
L 298.506955 292.158541 
L 298.307979 292.203157 
L 298.109003 292.242558 
L 297.910026 292.279369 
L 297.71105 292.315106 
L 297.512074 292.350243 
L 297.313097 292.384531 
L 297.114121 292.417297 
L 296.915145 292.447641 
L 296.716168 292.474634 
L 296.517192 292.497634 
L 296.318215 292.516578 
L 296.119239 292.532025 
L 295.920263 292.544866 
L 295.721286 292.555874 
L 295.52231 292.5654 
L 295.323334 292.57339 
L 295.124357 292.579646 
L 294.925381 292.584106 
L 294.726404 292.586959 
L 294.527428 292.588587 
L 294.328452 292.58941 
L 294.129475 292.58978 
L 293.930499 292.589927 
z
" style="fill:#0000ff;fill-opacity:0.25;"/>
   </g>
   <g id="PolyCollection_5">
    <path clip-path="url(#p5c13146b73)" d="M 255.096647 292.589876 
L 255.096647 292.59 
L 255.299633 292.59 
L 255.502619 292.59 
L 255.705604 292.59 
L 255.90859 292.59 
L 256.111576 292.59 
L 256.314562 292.59 
L 256.517547 292.59 
L 256.720533 292.59 
L 256.923519 292.59 
L 257.126505 292.59 
L 257.32949 292.59 
L 257.532476 292.59 
L 257.735462 292.59 
L 257.938448 292.59 
L 258.141433 292.59 
L 258.344419 292.59 
L 258.547405 292.59 
L 258.750391 292.59 
L 258.953376 292.59 
L 259.156362 292.59 
L 259.359348 292.59 
L 259.562334 292.59 
L 259.765319 292.59 
L 259.968305 292.59 
L 260.171291 292.59 
L 260.374277 292.59 
L 260.577262 292.59 
L 260.780248 292.59 
L 260.983234 292.59 
L 261.186219 292.59 
L 261.389205 292.59 
L 261.592191 292.59 
L 261.795177 292.59 
L 261.998162 292.59 
L 262.201148 292.59 
L 262.404134 292.59 
L 262.60712 292.59 
L 262.810105 292.59 
L 263.013091 292.59 
L 263.216077 292.59 
L 263.419063 292.59 
L 263.622048 292.59 
L 263.825034 292.59 
L 264.02802 292.59 
L 264.231006 292.59 
L 264.433991 292.59 
L 264.636977 292.59 
L 264.839963 292.59 
L 265.042949 292.59 
L 265.245934 292.59 
L 265.44892 292.59 
L 265.651906 292.59 
L 265.854892 292.59 
L 266.057877 292.59 
L 266.260863 292.59 
L 266.463849 292.59 
L 266.666835 292.59 
L 266.86982 292.59 
L 267.072806 292.59 
L 267.275792 292.59 
L 267.478778 292.59 
L 267.681763 292.59 
L 267.884749 292.59 
L 268.087735 292.59 
L 268.290721 292.59 
L 268.493706 292.59 
L 268.696692 292.59 
L 268.899678 292.59 
L 269.102664 292.59 
L 269.305649 292.59 
L 269.508635 292.59 
L 269.711621 292.59 
L 269.914607 292.59 
L 270.117592 292.59 
L 270.320578 292.59 
L 270.523564 292.59 
L 270.72655 292.59 
L 270.929535 292.59 
L 271.132521 292.59 
L 271.335507 292.59 
L 271.538493 292.59 
L 271.741478 292.59 
L 271.944464 292.59 
L 272.14745 292.59 
L 272.350436 292.59 
L 272.553421 292.59 
L 272.756407 292.59 
L 272.959393 292.59 
L 273.162378 292.59 
L 273.365364 292.59 
L 273.56835 292.59 
L 273.771336 292.59 
L 273.974321 292.59 
L 274.177307 292.59 
L 274.380293 292.59 
L 274.583279 292.59 
L 274.786264 292.59 
L 274.98925 292.59 
L 275.192236 292.59 
L 275.395222 292.59 
L 275.598207 292.59 
L 275.801193 292.59 
L 276.004179 292.59 
L 276.207165 292.59 
L 276.41015 292.59 
L 276.613136 292.59 
L 276.816122 292.59 
L 277.019108 292.59 
L 277.222093 292.59 
L 277.425079 292.59 
L 277.628065 292.59 
L 277.831051 292.59 
L 278.034036 292.59 
L 278.237022 292.59 
L 278.440008 292.59 
L 278.642994 292.59 
L 278.845979 292.59 
L 279.048965 292.59 
L 279.251951 292.59 
L 279.454937 292.59 
L 279.657922 292.59 
L 279.860908 292.59 
L 280.063894 292.59 
L 280.26688 292.59 
L 280.469865 292.59 
L 280.672851 292.59 
L 280.875837 292.59 
L 280.875837 20.790005 
L 280.875837 20.790005 
L 280.672851 20.790156 
L 280.469865 20.790533 
L 280.26688 20.791379 
L 280.063894 20.793089 
L 279.860908 20.796209 
L 279.657922 20.801363 
L 279.454937 20.809108 
L 279.251951 20.819791 
L 279.048965 20.8335 
L 278.845979 20.850249 
L 278.642994 20.870376 
L 278.440008 20.895012 
L 278.237022 20.926411 
L 278.034036 20.967932 
L 277.831051 21.023708 
L 277.628065 21.098171 
L 277.425079 21.195649 
L 277.222093 21.320138 
L 277.019108 21.475254 
L 276.816122 21.664313 
L 276.613136 21.890527 
L 276.41015 22.157266 
L 276.207165 22.46831 
L 276.004179 22.827991 
L 275.801193 23.241301 
L 275.598207 23.714063 
L 275.395222 24.25326 
L 275.192236 24.867373 
L 274.98925 25.566484 
L 274.786264 26.361979 
L 274.583279 27.265982 
L 274.380293 28.2909 
L 274.177307 29.449407 
L 273.974321 30.75479 
L 273.771336 32.221285 
L 273.56835 33.863924 
L 273.365364 35.69795 
L 273.162378 37.738434 
L 272.959393 40.000966 
L 272.756407 42.503449 
L 272.553421 45.267636 
L 272.350436 48.318319 
L 272.14745 51.679333 
L 271.944464 55.368044 
L 271.741478 59.391531 
L 271.538493 63.746415 
L 271.335507 68.4212 
L 271.132521 73.398142 
L 270.929535 78.652986 
L 270.72655 84.154069 
L 270.523564 89.863946 
L 270.320578 95.744926 
L 270.117592 101.766326 
L 269.914607 107.909081 
L 269.711621 114.164596 
L 269.508635 120.528397 
L 269.305649 126.992514 
L 269.102664 133.541247 
L 268.899678 140.152775 
L 268.696692 146.805408 
L 268.493706 153.484255 
L 268.290721 160.183678 
L 268.087735 166.903457 
L 267.884749 173.640703 
L 267.681763 180.382281 
L 267.478778 187.101945 
L 267.275792 193.76309 
L 267.072806 200.324664 
L 266.86982 206.746676 
L 266.666835 212.993089 
L 266.463849 219.032143 
L 266.260863 224.835655 
L 266.057877 230.378854 
L 265.854892 235.641379 
L 265.651906 240.608913 
L 265.44892 245.274383 
L 265.245934 249.637675 
L 265.042949 253.703383 
L 264.839963 257.477159 
L 264.636977 260.96244 
L 264.433991 264.159887 
L 264.231006 267.070695 
L 264.02802 269.70234 
L 263.825034 272.073121 
L 263.622048 274.212136 
L 263.419063 276.154107 
L 263.216077 277.931718 
L 263.013091 279.569261 
L 262.810105 281.080055 
L 262.60712 282.467739 
L 262.404134 283.729907 
L 262.201148 284.862397 
L 261.998162 285.863059 
L 261.795177 286.734431 
L 261.592191 287.48492 
L 261.389205 288.128274 
L 261.186219 288.681477 
L 260.983234 289.161772 
L 260.780248 289.583927 
L 260.577262 289.958752 
L 260.374277 290.293264 
L 260.171291 290.59205 
L 259.968305 290.858855 
L 259.765319 291.097517 
L 259.562334 291.311902 
L 259.359348 291.505198 
L 259.156362 291.679204 
L 258.953376 291.834187 
L 258.750391 291.96947 
L 258.547405 292.084466 
L 258.344419 292.179637 
L 258.141433 292.256913 
L 257.938448 292.319418 
L 257.735462 292.370747 
L 257.532476 292.414145 
L 257.32949 292.45191 
L 257.126505 292.485166 
L 256.923519 292.514025 
L 256.720533 292.53805 
L 256.517547 292.556823 
L 256.314562 292.570377 
L 256.111576 292.579325 
L 255.90859 292.584687 
L 255.705604 292.587591 
L 255.502619 292.589009 
L 255.299633 292.589631 
L 255.096647 292.589876 
z
" style="fill-opacity:0.25;"/>
   </g>
   <g id="PolyCollection_6">
    <path clip-path="url(#p5c13146b73)" d="M 75.319264 292.589912 
L 75.319264 292.59 
L 75.872441 292.59 
L 76.425618 292.59 
L 76.978795 292.59 
L 77.531972 292.59 
L 78.085149 292.59 
L 78.638326 292.59 
L 79.191503 292.59 
L 79.74468 292.59 
L 80.297857 292.59 
L 80.851034 292.59 
L 81.404211 292.59 
L 81.957388 292.59 
L 82.510565 292.59 
L 83.063743 292.59 
L 83.61692 292.59 
L 84.170097 292.59 
L 84.723274 292.59 
L 85.276451 292.59 
L 85.829628 292.59 
L 86.382805 292.59 
L 86.935982 292.59 
L 87.489159 292.59 
L 88.042336 292.59 
L 88.595513 292.59 
L 89.14869 292.59 
L 89.701867 292.59 
L 90.255044 292.59 
L 90.808221 292.59 
L 91.361398 292.59 
L 91.914575 292.59 
L 92.467752 292.59 
L 93.020929 292.59 
L 93.574106 292.59 
L 94.127283 292.59 
L 94.68046 292.59 
L 95.233637 292.59 
L 95.786814 292.59 
L 96.339991 292.59 
L 96.893169 292.59 
L 97.446346 292.59 
L 97.999523 292.59 
L 98.5527 292.59 
L 99.105877 292.59 
L 99.659054 292.59 
L 100.212231 292.59 
L 100.765408 292.59 
L 101.318585 292.59 
L 101.871762 292.59 
L 102.424939 292.59 
L 102.978116 292.59 
L 103.531293 292.59 
L 104.08447 292.59 
L 104.637647 292.59 
L 105.190824 292.59 
L 105.744001 292.59 
L 106.297178 292.59 
L 106.850355 292.59 
L 107.403532 292.59 
L 107.956709 292.59 
L 108.509886 292.59 
L 109.063063 292.59 
L 109.61624 292.59 
L 110.169417 292.59 
L 110.722595 292.59 
L 111.275772 292.59 
L 111.828949 292.59 
L 112.382126 292.59 
L 112.935303 292.59 
L 113.48848 292.59 
L 114.041657 292.59 
L 114.594834 292.59 
L 115.148011 292.59 
L 115.701188 292.59 
L 116.254365 292.59 
L 116.807542 292.59 
L 117.360719 292.59 
L 117.913896 292.59 
L 118.467073 292.59 
L 119.02025 292.59 
L 119.573427 292.59 
L 120.126604 292.59 
L 120.679781 292.59 
L 121.232958 292.59 
L 121.786135 292.59 
L 122.339312 292.59 
L 122.892489 292.59 
L 123.445666 292.59 
L 123.998843 292.59 
L 124.552021 292.59 
L 125.105198 292.59 
L 125.658375 292.59 
L 126.211552 292.59 
L 126.764729 292.59 
L 127.317906 292.59 
L 127.871083 292.59 
L 128.42426 292.59 
L 128.977437 292.59 
L 129.530614 292.59 
L 130.083791 292.59 
L 130.636968 292.59 
L 131.190145 292.59 
L 131.743322 292.59 
L 132.296499 292.59 
L 132.849676 292.59 
L 133.402853 292.59 
L 133.95603 292.59 
L 134.509207 292.59 
L 135.062384 292.59 
L 135.615561 292.59 
L 136.168738 292.59 
L 136.721915 292.59 
L 137.275092 292.59 
L 137.828269 292.59 
L 138.381447 292.59 
L 138.934624 292.59 
L 139.487801 292.59 
L 140.040978 292.59 
L 140.594155 292.59 
L 141.147332 292.59 
L 141.700509 292.59 
L 142.253686 292.59 
L 142.806863 292.59 
L 143.36004 292.59 
L 143.913217 292.59 
L 144.466394 292.59 
L 145.019571 292.59 
L 145.572748 292.59 
L 145.572748 20.790041 
L 145.572748 20.790041 
L 145.019571 20.790285 
L 144.466394 20.790924 
L 143.913217 20.792418 
L 143.36004 20.795533 
L 142.806863 20.801341 
L 142.253686 20.8111 
L 141.700509 20.826014 
L 141.147332 20.847022 
L 140.594155 20.874775 
L 140.040978 20.909839 
L 139.487801 20.952991 
L 138.934624 21.005374 
L 138.381447 21.068452 
L 137.828269 21.143849 
L 137.275092 21.233267 
L 136.721915 21.33856 
L 136.168738 21.461899 
L 135.615561 21.605946 
L 135.062384 21.773942 
L 134.509207 21.969719 
L 133.95603 22.197792 
L 133.402853 22.463786 
L 132.849676 22.77524 
L 132.296499 23.14234 
L 131.743322 23.577791 
L 131.190145 24.095417 
L 130.636968 24.708038 
L 130.083791 25.425962 
L 129.530614 26.257091 
L 128.977437 27.208484 
L 128.42426 28.288314 
L 127.871083 29.507294 
L 127.317906 30.87946 
L 126.764729 32.422527 
L 126.211552 34.157613 
L 125.658375 36.107945 
L 125.105198 38.296815 
L 124.552021 40.745847 
L 123.998843 43.473995 
L 123.445666 46.496184 
L 122.892489 49.820473 
L 122.339312 53.445244 
L 121.786135 57.360322 
L 121.232958 61.554266 
L 120.679781 66.024433 
L 120.126604 70.782031 
L 119.573427 75.846342 
L 119.02025 81.230023 
L 118.467073 86.924758 
L 117.913896 92.897482 
L 117.360719 99.100595 
L 116.807542 105.490042 
L 116.254365 112.039798 
L 115.701188 118.744028 
L 115.148011 125.606662 
L 114.594834 132.625949 
L 114.041657 139.783663 
L 113.48848 147.044233 
L 112.935303 154.361894 
L 112.382126 161.689127 
L 111.828949 168.980581 
L 111.275772 176.192411 
L 110.722595 183.282035 
L 110.169417 190.212814 
L 109.61624 196.962185 
L 109.063063 203.526151 
L 108.509886 209.913804 
L 107.956709 216.132786 
L 107.403532 222.174172 
L 106.850355 228.006247 
L 106.297178 233.580329 
L 105.744001 238.843949 
L 105.190824 243.753809 
L 104.637647 248.283837 
L 104.08447 252.42809 
L 103.531293 256.200229 
L 102.978116 259.630622 
L 102.424939 262.761144 
L 101.871762 265.637872 
L 101.318585 268.302891 
L 100.765408 270.787294 
L 100.212231 273.107578 
L 99.659054 275.266569 
L 99.105877 277.258173 
L 98.5527 279.073575 
L 97.999523 280.706511 
L 97.446346 282.156543 
L 96.893169 283.430601 
L 96.339991 284.54307 
L 95.786814 285.514196 
L 95.233637 286.366651 
L 94.68046 287.121189 
L 94.127283 287.793268 
L 93.574106 288.392196 
L 93.020929 288.922859 
L 92.467752 289.388664 
L 91.914575 289.793895 
L 91.361398 290.144549 
L 90.808221 290.447886 
L 90.255044 290.711514 
L 89.701867 290.942611 
L 89.14869 291.147354 
L 88.595513 291.330452 
L 88.042336 291.494901 
L 87.489159 291.642193 
L 86.935982 291.772994 
L 86.382805 291.887898 
L 85.829628 291.987854 
L 85.276451 292.074146 
L 84.723274 292.148215 
L 84.170097 292.211641 
L 83.61692 292.266299 
L 83.063743 292.314427 
L 82.510565 292.358321 
L 81.957388 292.399713 
L 81.404211 292.439196 
L 80.851034 292.476085 
L 80.297857 292.508872 
L 79.74468 292.536024 
L 79.191503 292.556705 
L 78.638326 292.571077 
L 78.085149 292.580144 
L 77.531972 292.585317 
L 76.978795 292.587979 
L 76.425618 292.589211 
L 75.872441 292.589722 
L 75.319264 292.589912 
z
" style="fill:#e31a1c;fill-opacity:0.25;"/>
   </g>
   <g id="line2d_13">
    <path clip-path="url(#p5c13146b73)" d="M 310.103962 292.589924 
L 313.583684 292.48304 
L 314.532699 292.282024 
L 315.165376 292.00542 
L 315.798053 291.536908 
L 316.430729 290.804645 
L 317.063406 289.741492 
L 317.696083 288.27205 
L 318.32876 286.287451 
L 318.961436 283.64059 
L 319.594113 280.187363 
L 320.543128 273.304554 
L 321.492143 264.209169 
L 322.441158 252.734908 
L 323.390173 238.765308 
L 324.655527 216.305428 
L 326.869895 171.158062 
L 330.033279 107.324592 
L 331.298633 85.532178 
L 332.563986 67.385511 
L 333.513001 56.696429 
L 334.462016 48.240084 
L 335.72737 39.213218 
L 336.676385 33.915309 
L 337.6254 29.910365 
L 338.574415 26.952372 
L 339.52343 24.904613 
L 340.472445 23.552897 
L 341.42146 22.602823 
L 342.686814 21.691279 
L 343.635829 21.230867 
L 344.584844 20.977981 
L 346.166536 20.848877 
L 350.278935 20.79 
L 350.278935 20.79 
" style="fill:none;stroke:#33a02c;stroke-linecap:round;stroke-width:2;"/>
   </g>
   <g id="line2d_14">
    <path clip-path="url(#p5c13146b73)" d="M 464.031324 292.589999 
L 465.378263 292.501018 
L 466.32112 292.208853 
L 466.859896 291.777551 
L 467.398671 291.031917 
L 467.802753 290.214697 
L 468.206834 288.913299 
L 468.610916 286.816484 
L 469.014998 283.568571 
L 469.553773 277.072276 
L 470.227242 265.260089 
L 470.900712 248.523091 
L 471.574181 225.353631 
L 472.517038 183.396203 
L 474.67214 80.991996 
L 475.480303 54.908304 
L 476.153773 39.9172 
L 476.692548 32.523901 
L 477.231324 27.832078 
L 477.770099 24.764668 
L 478.308875 22.732088 
L 478.712956 21.836866 
L 479.251732 21.237715 
L 479.925201 20.884753 
L 480.733364 20.792194 
L 481.137446 20.790119 
L 481.137446 20.790119 
" style="fill:none;stroke:#ff7f00;stroke-linecap:round;stroke-width:2;"/>
   </g>
   <g id="line2d_15">
    <path clip-path="url(#p5c13146b73)" d="M 281.312242 292.589999 
L 284.002647 292.486332 
L 284.952202 292.275275 
L 285.585238 291.935032 
L 286.060016 291.329624 
L 286.534793 290.201197 
L 287.00957 288.32635 
L 287.484348 285.434842 
L 287.959125 281.378126 
L 288.433902 275.648629 
L 288.90868 267.369977 
L 289.541716 251.410467 
L 290.333012 224.421337 
L 291.282567 183.889586 
L 293.656454 75.38919 
L 294.447749 52.790778 
L 295.080786 40.810879 
L 295.713822 33.030786 
L 296.346859 27.637796 
L 296.979895 24.008752 
L 297.454673 22.307691 
L 297.92945 21.451658 
L 298.404227 21.114654 
L 299.195523 20.914632 
L 300.778114 20.79376 
L 301.411151 20.790073 
L 301.411151 20.790073 
" style="fill:none;stroke:#1f78b4;stroke-linecap:round;stroke-width:2;"/>
   </g>
   <g id="line2d_16">
    <path clip-path="url(#p5c13146b73)" d="M 293.930499 292.589927 
L 296.517192 292.497634 
L 298.506955 292.158541 
L 299.302861 291.854526 
L 299.89979 291.345491 
L 300.297743 290.73709 
L 300.695696 289.806247 
L 301.292625 287.637772 
L 301.889554 284.467859 
L 302.486483 280.201985 
L 303.083412 274.324238 
L 303.680341 266.088607 
L 304.476246 250.753037 
L 305.471128 225.6721 
L 306.664987 188.424902 
L 310.047585 74.383369 
L 310.84349 56.732166 
L 311.639396 43.781964 
L 312.435301 34.714704 
L 313.03223 29.999324 
L 313.629159 26.702712 
L 314.226088 24.537911 
L 314.823018 23.076449 
L 315.419947 22.043053 
L 316.016876 21.41094 
L 316.613805 21.099324 
L 317.608687 20.856838 
L 319.001521 20.79033 
L 319.200498 20.790057 
L 319.200498 20.790057 
" style="fill:none;stroke:#0000ff;stroke-linecap:round;stroke-width:2;"/>
   </g>
   <g id="line2d_17">
    <path clip-path="url(#p5c13146b73)" d="M 255.096647 292.589876 
L 257.126505 292.485166 
L 258.344419 292.179637 
L 259.156362 291.679204 
L 259.968305 290.858855 
L 260.577262 289.958752 
L 261.186219 288.681477 
L 261.795177 286.734431 
L 262.404134 283.729907 
L 263.013091 279.569261 
L 263.622048 274.212136 
L 264.231006 267.070695 
L 264.839963 257.477159 
L 265.651906 240.608913 
L 266.463849 219.032143 
L 267.884749 173.640703 
L 270.320578 95.744926 
L 271.335507 68.4212 
L 272.14745 51.679333 
L 272.959393 40.000966 
L 273.56835 33.863924 
L 274.177307 29.449407 
L 274.786264 26.361979 
L 275.395222 24.25326 
L 276.004179 22.827991 
L 276.613136 21.890527 
L 277.222093 21.320138 
L 277.831051 21.023708 
L 278.845979 20.850249 
L 280.875837 20.790005 
L 280.875837 20.790005 
" style="fill:none;stroke:#000000;stroke-linecap:round;stroke-width:2;"/>
   </g>
   <g id="line2d_18">
    <path clip-path="url(#p5c13146b73)" d="M 75.319264 292.589912 
L 80.297857 292.508872 
L 84.723274 292.148215 
L 86.935982 291.772994 
L 89.14869 291.147354 
L 90.808221 290.447886 
L 91.914575 289.793895 
L 93.020929 288.922859 
L 94.127283 287.793268 
L 95.233637 286.366651 
L 96.339991 284.54307 
L 97.446346 282.156543 
L 98.5527 279.073575 
L 99.659054 275.266569 
L 100.765408 270.787294 
L 101.871762 265.637872 
L 102.978116 259.630622 
L 104.08447 252.42809 
L 105.190824 243.753809 
L 106.297178 233.580329 
L 107.956709 216.132786 
L 110.169417 190.212814 
L 112.935303 154.361894 
L 115.701188 118.744028 
L 117.913896 92.897482 
L 119.573427 75.846342 
L 121.232958 61.554266 
L 122.892489 49.820473 
L 123.998843 43.473995 
L 125.105198 38.296815 
L 126.211552 34.157613 
L 127.317906 30.87946 
L 128.42426 28.288314 
L 129.530614 26.257091 
L 130.636968 24.708038 
L 131.743322 23.577791 
L 132.849676 22.77524 
L 133.95603 22.197792 
L 135.615561 21.605946 
L 137.828269 21.143849 
L 140.594155 20.874775 
L 144.466394 20.790924 
L 145.572748 20.790041 
L 145.572748 20.790041 
" style="fill:none;stroke:#e31a1c;stroke-linecap:round;stroke-width:2;"/>
   </g>
   <g id="line2d_19">
    <path clip-path="url(#p5c13146b73)" d="M 327.779903 306.18 
L 327.779903 7.2 
" style="fill:none;stroke:#33a02c;stroke-dasharray:8.4,3.6;stroke-dashoffset:0;stroke-width:3;"/>
   </g>
   <g id="patch_3">
    <path d="M 55.028355 306.18 
L 55.028355 7.2 
" style="fill:none;"/>
   </g>
   <g id="patch_4">
    <path d="M 501.428355 306.18 
L 501.428355 7.2 
" style="fill:none;"/>
   </g>
   <g id="patch_5">
    <path d="M 55.028355 306.18 
L 501.428355 306.18 
" style="fill:none;"/>
   </g>
   <g id="patch_6">
    <path d="M 55.028355 7.2 
L 501.428355 7.2 
" style="fill:none;"/>
   </g>
   <g id="legend_1">
    <g id="line2d_20">
     <path d="M 67.628355 107.716167 
L 95.628355 107.716167 
" style="fill:none;stroke:#33a02c;stroke-linecap:round;stroke-width:2;"/>
    </g>
    <g id="line2d_21"/>
    <g id="text_15">
     <!-- actual -->
     <g style="fill:#262626;" transform="translate(106.828355 112.616167)scale(0.14 -0.14)">
      <use transform="scale(0.996264)" xlink:href="#Computer_Modern_Bright-97"/>
      <use transform="translate(46.492082 0)scale(0.996264)" xlink:href="#Computer_Modern_Bright-99"/>
      <use transform="translate(91.32375 0)scale(0.996264)" xlink:href="#Computer_Modern_Bright-116"/>
      <use transform="translate(127.438138 0)scale(0.996264)" xlink:href="#Computer_Modern_Bright-117"/>
      <use transform="translate(175.590635 0)scale(0.996264)" xlink:href="#Computer_Modern_Bright-97"/>
      <use transform="translate(222.082717 0)scale(0.996264)" xlink:href="#Computer_Modern_Bright-108"/>
     </g>
    </g>
    <g id="line2d_22">
     <path d="M 67.628355 126.840778 
L 95.628355 126.840778 
" style="fill:none;stroke:#ff7f00;stroke-linecap:round;stroke-width:2;"/>
    </g>
    <g id="line2d_23"/>
    <g id="text_16">
     <!-- Additive -->
     <defs>
      <path d="M 2.09375 0.09375 
L 6.59375 0.09375 
L 8.40625 0.296875 
C 11.40625 6.796875 13.5 14.203125 16.203125 21 
C 26.09375 21 36.90625 21 46.296875 21 
L 47.09375 19.6875 
C 48.796875 14.546875 50.796875 9.59375 52.59375 4.546875 
C 53.09375 3.015625 53.59375 1.515625 54.40625 0.296875 
C 56.59375 0 59.203125 0 61.59375 0 
C 59.90625 4.90625 36.703125 67.203125 36 68.890625 
C 35.90625 69.296875 35.703125 69.890625 35.203125 70 
C 34.59375 70.09375 34 70 33.40625 70 
L 30.09375 70 
C 28.59375 70 28 70.1875 27.59375 68.609375 
C 27.203125 67.59375 2.09375 0.09375 2.09375 0.09375 
M 31.40625 63.171875 
C 35.59375 50.71875 40.09375 38.46875 44.5 26.21875 
L 18.203125 26.21875 
L 26.90625 50.109375 
z
" id="Computer_Modern_Bright-65"/>
      <path d="M 35.59375 69.6875 
L 35.59375 41.375 
C 33.703125 43.484375 31.796875 45.484375 29.203125 46.6875 
C 20.296875 50.40625 11.703125 45.59375 7.296875 37.65625 
C 2.203125 28.21875 2.796875 15.765625 8.90625 6.921875 
C 13.203125 0.796875 20.296875 -2.203125 27.796875 0.5 
C 30.703125 1.609375 34.203125 4.515625 35.40625 7.125 
L 35.5 7.125 
L 35.5 0 
L 41.90625 0 
L 41.90625 69.6875 
z
M 35.203125 37.453125 
C 35.703125 36.546875 35.5 35.34375 35.5 34.34375 
L 35.5 13.65625 
C 35.5 11.34375 35.40625 11.140625 34.09375 9.34375 
C 32.296875 6.625 29.5 4.71875 26.203125 4.421875 
C 21.40625 4.015625 16.5 6.328125 13.703125 10.25 
C 12.09375 12.546875 11.203125 15.359375 10.703125 18.171875 
C 10.5 19.28125 10.5 20.28125 10.40625 21.390625 
C 9.796875 28.015625 11.203125 35.84375 17 40.0625 
C 18 40.765625 19.09375 41.265625 20.203125 41.765625 
C 26 43.984375 32.40625 43.375 35.203125 37.453125 
" id="Computer_Modern_Bright-100"/>
     </defs>
     <g style="fill:#262626;" transform="translate(106.828355 131.740778)scale(0.14 -0.14)">
      <use transform="scale(0.996264)" xlink:href="#Computer_Modern_Bright-65"/>
      <use transform="translate(63.511618 0)scale(0.996264)" xlink:href="#Computer_Modern_Bright-100"/>
      <use transform="translate(111.664115 0)scale(0.996264)" xlink:href="#Computer_Modern_Bright-100"/>
      <use transform="translate(159.816612 0)scale(0.996264)" xlink:href="#Computer_Modern_Bright-105"/>
      <use transform="translate(178.911571 0)scale(0.996264)" xlink:href="#Computer_Modern_Bright-116"/>
      <use transform="translate(215.025959 0)scale(0.996264)" xlink:href="#Computer_Modern_Bright-105"/>
      <use transform="translate(234.120917 0)scale(0.996264)" xlink:href="#Computer_Modern_Bright-118"/>
      <use transform="translate(276.461955 0)scale(0.996264)" xlink:href="#Computer_Modern_Bright-101"/>
     </g>
    </g>
    <g id="line2d_24">
     <path d="M 67.628355 145.965389 
L 95.628355 145.965389 
" style="fill:none;stroke:#1f78b4;stroke-linecap:round;stroke-width:2;"/>
    </g>
    <g id="line2d_25"/>
    <g id="text_17">
     <!-- Unbranched -->
     <defs>
      <path d="M 8 69.5 
L 8 32.75 
C 8 25.71875 7.203125 18.390625 10.703125 11.96875 
C 12.90625 7.84375 16.09375 4.4375 20.09375 2.125 
C 29.90625 -3.609375 43.5 -2.203125 51.296875 6.4375 
C 54.796875 10.359375 57.296875 15.171875 57.796875 21.796875 
C 57.90625 23.40625 57.796875 24.921875 57.796875 26.515625 
L 57.796875 69.5 
L 51.40625 69.5 
L 51.40625 25.90625 
C 51.40625 24.59375 51.5 23.1875 51.40625 21.890625 
C 51.203125 18.890625 50.59375 15.921875 49.40625 13.25 
C 43.90625 1 25 1 18 11.890625 
C 14.203125 17.78125 15 25.0625 15 31.65625 
L 15 69.5 
z
" id="Computer_Modern_Bright-85"/>
      <path d="M 6.40625 69.6875 
L 6.40625 0 
L 12.796875 0 
L 12.796875 6.328125 
L 12.90625 6.328125 
C 14 4.109375 16.5 2.015625 18.59375 0.90625 
C 25.796875 -2.90625 34.40625 0.90625 39.09375 7.03125 
C 48.59375 19.578125 44.796875 40.875 32.296875 46.796875 
C 27.40625 49 21.5 48 17.09375 44.984375 
C 15.40625 43.78125 14 42.375 12.703125 40.765625 
L 12.703125 69.6875 
z
M 21.90625 42.984375 
C 26.59375 43.375 31.5 41.265625 34.296875 37.453125 
C 36.203125 34.9375 37.203125 31.9375 37.703125 28.8125 
C 38.703125 21.484375 37.90625 12.25 31.40625 7.4375 
C 30.296875 6.625 29.09375 6.03125 27.796875 5.515625 
C 22.40625 3.515625 17 4.109375 14 8.84375 
C 13.09375 10.4375 12.796875 10.546875 12.796875 12.953125 
L 12.796875 33.734375 
C 12.796875 34.75 12.59375 35.953125 13 36.859375 
C 14.59375 40.171875 18.296875 42.671875 21.90625 42.984375 
" id="Computer_Modern_Bright-98"/>
      <path d="M 12.5 34.75 
L 12.40625 34.75 
L 12.40625 47.390625 
L 6.40625 47.390625 
L 6.40625 0 
L 12.703125 0 
L 12.703125 22.890625 
C 12.703125 24.40625 12.703125 25.90625 12.90625 27.40625 
C 14.296875 35.953125 21.703125 42.28125 31.40625 42.28125 
L 31.40625 48 
C 25 48 19.09375 44.890625 15.296875 39.765625 
C 14.203125 38.265625 13 36.546875 12.5 34.75 
" id="Computer_Modern_Bright-114"/>
      <path d="M 6.40625 69.6875 
L 6.40625 0 
L 12.796875 0 
L 12.796875 21.984375 
C 12.796875 26.90625 12.5 31.9375 14.703125 36.546875 
C 15.796875 38.859375 17.5 40.875 19.796875 42.078125 
C 21.703125 42.984375 23.703125 42.984375 25.796875 42.78125 
C 28.796875 42.78125 31.703125 41.984375 33.59375 39.453125 
C 35.40625 37.140625 35.5 34.140625 35.5 31.3125 
L 35.5 0 
L 41.90625 0 
L 41.90625 27.21875 
C 41.90625 32.234375 42.40625 37.75 39.90625 42.28125 
C 37.90625 45.6875 34.40625 47.296875 30.703125 47.796875 
C 28.703125 48 26.703125 48 24.703125 47.703125 
C 21.09375 47.015625 18 45.03125 15.59375 42.34375 
C 14.5 41.046875 13.203125 39.46875 12.796875 37.765625 
L 12.703125 37.765625 
L 12.703125 69.6875 
z
" id="Computer_Modern_Bright-104"/>
     </defs>
     <g style="fill:#262626;" transform="translate(106.828355 150.865389)scale(0.14 -0.14)">
      <use transform="scale(0.996264)" xlink:href="#Computer_Modern_Bright-85"/>
      <use transform="translate(65.587132 0)scale(0.996264)" xlink:href="#Computer_Modern_Bright-110"/>
      <use transform="translate(113.739629 0)scale(0.996264)" xlink:href="#Computer_Modern_Bright-98"/>
      <use transform="translate(158.986397 0)scale(0.996264)" xlink:href="#Computer_Modern_Bright-114"/>
      <use transform="translate(190.949756 0)scale(0.996264)" xlink:href="#Computer_Modern_Bright-97"/>
      <use transform="translate(237.441838 0)scale(0.996264)" xlink:href="#Computer_Modern_Bright-110"/>
      <use transform="translate(285.594335 0)scale(0.996264)" xlink:href="#Computer_Modern_Bright-99"/>
      <use transform="translate(330.426003 0)scale(0.996264)" xlink:href="#Computer_Modern_Bright-104"/>
      <use transform="translate(378.5785 0)scale(0.996264)" xlink:href="#Computer_Modern_Bright-101"/>
      <use transform="translate(423.410167 0)scale(0.996264)" xlink:href="#Computer_Modern_Bright-100"/>
     </g>
    </g>
    <g id="line2d_26">
     <path d="M 67.628355 165.09 
L 95.628355 165.09 
" style="fill:none;stroke:#0000ff;stroke-linecap:round;stroke-width:2;"/>
    </g>
    <g id="line2d_27"/>
    <g id="text_18">
     <!-- \emph{rhy-1} $&gt;$ \emph{vhl-1} -->
     <defs>
      <path d="M 19.90625 35.53125 
L 19.796875 35.53125 
L 22.40625 48.15625 
L 16.40625 48.15625 
L 6.40625 0.5 
L 10.90625 0.5 
C 11.40625 0.5 12.203125 0.296875 12.59375 0.703125 
C 12.90625 0.90625 13.5 4.4375 13.796875 5.65625 
L 16.703125 19.578125 
C 17.5 23.109375 18 26.859375 19.59375 30.1875 
C 23.40625 37.84375 31.90625 43 40.40625 43 
L 41.5 48.765625 
C 34.90625 48.765625 28.59375 45.421875 24 40.78125 
C 22.5 39.265625 20.90625 37.453125 19.90625 35.53125 
M 19.703125 34.953125 
C 19.703125 34.953125 19.796875 34.953125 19.796875 34.953125 
C 19.796875 34.859375 19.703125 34.75 19.703125 34.953125 
" id="Computer_Modern_Bright_Slanted-114"/>
      <path d="M 21.09375 70 
L 6.40625 0 
L 10.90625 0 
C 11.796875 0 13 -0.296875 13 1.015625 
C 13.203125 1.71875 13.296875 2.328125 13.40625 3.03125 
C 14.40625 7.78125 19 29.5 19.296875 30.40625 
C 20.40625 33.953125 22.40625 37.375 25.09375 39.90625 
C 28 42.4375 31.203125 43.84375 36.59375 42.9375 
C 38.796875 42.53125 40.90625 41.625 42 39.5 
C 43.5 36.46875 42.40625 32.9375 41.796875 29.90625 
L 35.5 0 
L 40.203125 0 
C 41.203125 0 42.09375 -0.203125 42.09375 1.109375 
C 42.703125 3.125 44.09375 10.625 44.09375 10.625 
L 48.59375 32 
C 49.40625 35.734375 50.296875 40.40625 48.203125 43.9375 
C 46.296875 46.984375 42.90625 48 39.59375 48.296875 
C 38.09375 48.296875 36.5 48.296875 35 48 
C 30.796875 47.3125 27.09375 45.09375 24.09375 42.09375 
C 22.90625 40.890625 21.5 39.59375 20.796875 37.984375 
L 20.703125 37.984375 
L 27.40625 70 
z
" id="Computer_Modern_Bright_Slanted-104"/>
      <path d="M 10.703125 48 
C 11.203125 44.265625 12 40.625 12.703125 36.890625 
C 13.09375 34.359375 19 0.8125 19 0.515625 
C 19 -0.09375 18.59375 -0.59375 18.296875 -1.109375 
L 16.59375 -4.140625 
C 14.703125 -7.265625 12.796875 -10.5 9 -11.8125 
C 6 -12.71875 0.5 -11.40625 -1.5 -10.796875 
C -1.796875 -12.625 -2 -14.53125 -2.203125 -16.453125 
C 0.5 -16.859375 5.40625 -17.46875 8.09375 -16.96875 
C 15.203125 -15.34375 19.203125 -8.671875 22.5 -3.21875 
L 44.09375 34.359375 
L 49.203125 43.359375 
C 50.09375 44.859375 51.203125 46.375 51.796875 48 
C 49.703125 48 47.40625 48 45.59375 47.703125 
C 43.203125 44.078125 41.203125 40.046875 38.90625 36.21875 
C 33.59375 26.4375 27.703125 17.359375 23.203125 6.78125 
L 23.09375 6.78125 
C 23.40625 8.390625 23.09375 10.109375 22.90625 11.734375 
C 21.796875 22.546875 18.59375 39.71875 17.09375 48 
z
" id="Computer_Modern_Bright_Slanted-121"/>
      <path d="M 5.90625 26.0625 
L 4.90625 21 
L 32.796875 21 
L 33.796875 26.0625 
z
" id="Computer_Modern_Bright_Slanted-45"/>
      <path d="M 22.5 61 
L 21.5 55.9375 
C 26.296875 55.9375 31.40625 56.546875 35.703125 58.875 
L 24.5 5.046875 
C 20.296875 5.046875 15.296875 5.5625 11.5 5.046875 
C 10.90625 3.578125 10.703125 1.671875 10.296875 0 
C 21.09375 0 32.59375 0 42.796875 0 
C 43.40625 1.453125 43.703125 3.296875 44.09375 5.046875 
L 31 5.046875 
C 35.203125 26.0625 39.796875 46.59375 44.09375 67.5 
C 41.703125 67.5 42 67.09375 40 65.59375 
C 35.59375 62.59375 28.90625 61 22.5 61 
" id="Computer_Modern_Bright_Slanted-49"/>
      <path d="M 62.59375 26.546875 
L 62.59375 26.34375 
C 60.296875 25.546875 58 24.25 55.796875 23.140625 
L 27.09375 9.625 
L 11.09375 2 
C 10.40625 1.703125 9.40625 1.296875 8.90625 0.796875 
C 8 -0.203125 8.203125 -1.703125 9.296875 -2.296875 
C 10.5 -3 11.703125 -2.109375 12.796875 -1.609375 
L 21 2.203125 
C 25.203125 4.3125 55 18.328125 55 18.328125 
L 66 23.546875 
C 67.296875 24.140625 69.40625 24.75 69.40625 26.453125 
C 69.40625 28.15625 67.296875 28.75 66 29.359375 
L 55 34.5625 
L 33.703125 44.6875 
C 29.5 46.6875 25.203125 48.59375 21 50.703125 
L 12.796875 54.5 
C 11.703125 55 10.5 55.90625 9.296875 55.203125 
C 8.203125 54.609375 8 53.09375 8.90625 52.09375 
C 9.40625 51.59375 10.40625 51.203125 11.09375 50.890625 
L 41.59375 36.46875 
L 55.796875 29.75 
C 58 28.65625 60.296875 27.359375 62.59375 26.546875 
" id="Computer_Modern_Bright_Math_Slanted-62"/>
      <path d="M 10.703125 48 
C 12.796875 33.046875 15.09375 18.171875 17.09375 3.125 
C 17.296875 2.109375 17.296875 0.90625 17.796875 0.203125 
C 19.90625 0 22.59375 0 24.703125 0 
L 25.296875 0.703125 
L 44.703125 35.109375 
L 51.796875 48 
C 49.703125 48 47.5 48 45.703125 47.703125 
C 44.90625 46.59375 44.296875 45.484375 43.59375 44.265625 
C 36.59375 31.84375 29.40625 19.515625 22.703125 6.6875 
C 21.59375 16.984375 20 26.6875 18.59375 36.6875 
C 18 40.328125 17.90625 44.46875 16.90625 47.703125 
C 15.09375 48 12.796875 48 10.703125 48 
" id="Computer_Modern_Bright_Slanted-118"/>
      <path d="M 21.09375 70 
L 6.40625 0 
C 8.5 0 10.796875 0 12.59375 0.296875 
L 13 1.40625 
C 14 6.4375 15.09375 11.375 16.203125 16.40625 
L 27.40625 70 
z
" id="Computer_Modern_Bright_Slanted-108"/>
     </defs>
     <g style="fill:#262626;" transform="translate(106.828355 169.99)scale(0.14 -0.14)">
      <use transform="scale(0.996264)" xlink:href="#Computer_Modern_Bright_Slanted-114"/>
      <use transform="translate(31.963359 0)scale(0.996264)" xlink:href="#Computer_Modern_Bright_Slanted-104"/>
      <use transform="translate(80.115856 0)scale(0.996264)" xlink:href="#Computer_Modern_Bright_Slanted-121"/>
      <use transform="translate(122.456894 0)scale(0.996264)" xlink:href="#Computer_Modern_Bright_Slanted-45"/>
      <use transform="translate(155.665567 0)scale(0.996264)" xlink:href="#Computer_Modern_Bright_Slanted-49"/>
      <use transform="translate(248.750337 0)scale(0.996264)" xlink:href="#Computer_Modern_Bright_Math_Slanted-62"/>
      <use transform="translate(357.703017 0)scale(0.996264)" xlink:href="#Computer_Modern_Bright_Slanted-118"/>
      <use transform="translate(400.044055 0)scale(0.996264)" xlink:href="#Computer_Modern_Bright_Slanted-104"/>
      <use transform="translate(448.196552 0)scale(0.996264)" xlink:href="#Computer_Modern_Bright_Slanted-108"/>
      <use transform="translate(467.291511 0)scale(0.996264)" xlink:href="#Computer_Modern_Bright_Slanted-45"/>
      <use transform="translate(500.500184 0)scale(0.996264)" xlink:href="#Computer_Modern_Bright_Slanted-49"/>
     </g>
    </g>
    <g id="line2d_28">
     <path d="M 67.628355 184.214611 
L 95.628355 184.214611 
" style="fill:none;stroke:#000000;stroke-linecap:round;stroke-width:2;"/>
    </g>
    <g id="line2d_29"/>
    <g id="text_19">
     <!-- \emph{vhl-1} $&gt;$ \emph{rhy-1} -->
     <g style="fill:#262626;" transform="translate(106.828355 189.114611)scale(0.14 -0.14)">
      <use transform="scale(0.996264)" xlink:href="#Computer_Modern_Bright_Slanted-118"/>
      <use transform="translate(42.341038 0)scale(0.996264)" xlink:href="#Computer_Modern_Bright_Slanted-104"/>
      <use transform="translate(90.493535 0)scale(0.996264)" xlink:href="#Computer_Modern_Bright_Slanted-108"/>
      <use transform="translate(109.588494 0)scale(0.996264)" xlink:href="#Computer_Modern_Bright_Slanted-45"/>
      <use transform="translate(142.797167 0)scale(0.996264)" xlink:href="#Computer_Modern_Bright_Slanted-49"/>
      <use transform="translate(235.881937 0)scale(0.996264)" xlink:href="#Computer_Modern_Bright_Math_Slanted-62"/>
      <use transform="translate(344.834617 0)scale(0.996264)" xlink:href="#Computer_Modern_Bright_Slanted-114"/>
      <use transform="translate(376.797976 0)scale(0.996264)" xlink:href="#Computer_Modern_Bright_Slanted-104"/>
      <use transform="translate(424.950473 0)scale(0.996264)" xlink:href="#Computer_Modern_Bright_Slanted-121"/>
      <use transform="translate(467.291511 0)scale(0.996264)" xlink:href="#Computer_Modern_Bright_Slanted-45"/>
      <use transform="translate(500.500184 0)scale(0.996264)" xlink:href="#Computer_Modern_Bright_Slanted-49"/>
     </g>
    </g>
    <g id="line2d_30">
     <path d="M 67.628355 203.339222 
L 95.628355 203.339222 
" style="fill:none;stroke:#e31a1c;stroke-linecap:round;stroke-width:2;"/>
    </g>
    <g id="line2d_31"/>
    <g id="text_20">
     <!-- Suppression -->
     <defs>
      <path d="M 5.09375 13.015625 
C 4.90625 11.390625 4.5 9.671875 4.296875 8.046875 
C 4.09375 6.53125 3.59375 6.109375 4.90625 5.3125 
C 8.296875 3.390625 11.203125 2.0625 15.40625 0.75 
C 24.796875 -2 35.59375 -2 43.796875 4.140625 
C 45.09375 5.140625 46.296875 6.234375 47.40625 7.53125 
C 49.90625 10.890625 52.203125 14.96875 51.59375 20.53125 
C 50.90625 27.671875 46.09375 33.625 39.59375 36.609375 
C 30.703125 40.578125 16.203125 40.578125 12.203125 49.375 
C 9.09375 56.1875 14.59375 62.171875 20.796875 64.375 
C 26.90625 66.6875 34.90625 65.78125 40.09375 63.375 
C 42.5 62.265625 44.5 60.65625 46.703125 59.25 
C 46.90625 60.96875 47.296875 62.578125 47.59375 64.28125 
C 47.796875 65.375 48.09375 66.390625 46.90625 66.78125 
L 45 67.796875 
C 42.296875 69 39.5 69.90625 36.59375 70.5 
C 27.59375 72.203125 17.203125 71.203125 10.40625 64.484375 
C 7 61.0625 4.09375 56.4375 5.296875 49.515625 
C 6.703125 42.390625 12.296875 37.875 18.09375 35.65625 
C 21.5 34.359375 25.296875 33.65625 28.90625 32.75 
C 31 32.34375 33.203125 31.84375 35.296875 31.140625 
C 40.703125 29.125 45.40625 25.109375 45.40625 17.6875 
C 44.796875 11.296875 39.203125 6.625 33.296875 5.203125 
C 25.703125 3.265625 16.703125 6.015625 11.5 8.75 
C 9.203125 9.96875 7.203125 11.59375 5.09375 13.015625 
" id="Computer_Modern_Bright-83"/>
     </defs>
     <g style="fill:#262626;" transform="translate(106.828355 208.239222)scale(0.14 -0.14)">
      <use transform="scale(0.996264)" xlink:href="#Computer_Modern_Bright-83"/>
      <use transform="translate(56.454753 0)scale(0.996264)" xlink:href="#Computer_Modern_Bright-117"/>
      <use transform="translate(104.60725 0)scale(0.996264)" xlink:href="#Computer_Modern_Bright-112"/>
      <use transform="translate(152.759747 0)scale(0.996264)" xlink:href="#Computer_Modern_Bright-112"/>
      <use transform="translate(198.006514 0)scale(0.996264)" xlink:href="#Computer_Modern_Bright-114"/>
      <use transform="translate(229.969873 0)scale(0.996264)" xlink:href="#Computer_Modern_Bright-101"/>
      <use transform="translate(274.801541 0)scale(0.996264)" xlink:href="#Computer_Modern_Bright-115"/>
      <use transform="translate(313.24057 0)scale(0.996264)" xlink:href="#Computer_Modern_Bright-115"/>
      <use transform="translate(351.679599 0)scale(0.996264)" xlink:href="#Computer_Modern_Bright-105"/>
      <use transform="translate(370.774558 0)scale(0.996264)" xlink:href="#Computer_Modern_Bright-111"/>
      <use transform="translate(421.417776 0)scale(0.996264)" xlink:href="#Computer_Modern_Bright-110"/>
     </g>
    </g>
   </g>
  </g>
 </g>
 <defs>
  <clipPath id="p5c13146b73">
   <rect height="298.98" width="446.4" x="55.028355" y="7.2"/>
  </clipPath>
 </defs>
</svg>
