<?xml version="1.0" encoding="utf-8" standalone="no"?>
<!DOCTYPE svg PUBLIC "-//W3C//DTD SVG 1.1//EN"
  "http://www.w3.org/Graphics/SVG/1.1/DTD/svg11.dtd">
<!-- Created with matplotlib (http://matplotlib.org/) -->
<svg height="353pt" version="1.1" viewBox="0 0 503 353" width="503pt" xmlns="http://www.w3.org/2000/svg" xmlns:xlink="http://www.w3.org/1999/xlink">
 <defs>
  <style type="text/css">
*{stroke-linecap:butt;stroke-linejoin:round;}
  </style>
 </defs>
 <g id="figure_1">
  <g id="patch_1">
   <path d="M 0 353.548374 
L 503.979163 353.548374 
L 503.979163 0 
L 0 0 
z
" style="fill:#ffffff;"/>
  </g>
  <g id="axes_1">
   <g id="patch_2">
    <path d="M 50.379163 306.18 
L 496.779163 306.18 
L 496.779163 7.2 
L 50.379163 7.2 
z
" style="fill:#eaeaf2;"/>
   </g>
   <g id="matplotlib.axis_1">
    <g id="xtick_1">
     <g id="line2d_1"/>
     <g id="text_1">
      <!-- $-1.0$ -->
      <defs>
       <path d="M 9.796875 28.078125 
C 8 27.484375 7.796875 24.78125 9.796875 24.28125 
C 10.296875 24.078125 10.90625 24.1875 11.5 24.1875 
L 64.703125 24.1875 
C 65.90625 24.1875 67.796875 23.78125 68.796875 24.78125 
C 69.90625 25.875 69.296875 27.875 67.703125 28.1875 
C 66.5 28.375 65.09375 28.1875 63.90625 28.1875 
L 11.40625 28.1875 
C 10.90625 28.1875 10.296875 28.28125 9.796875 28.078125 
" id="Computer_Modern_Bright_Math_Symbols-0"/>
       <path d="M 9.703125 60.015625 
L 9.703125 55 
C 15.203125 55 19 56 23.40625 57.90625 
L 23.40625 5.015625 
L 10.296875 5.015625 
L 10.296875 0 
L 43 0 
L 43 5.015625 
L 29.90625 5.015625 
L 29.90625 67 
C 27.5 67 27.90625 66.359375 26 64.875 
C 21.90625 61.71875 16.203125 60.015625 9.703125 60.015625 
" id="Computer_Modern_Bright-49"/>
       <path d="M 10.703125 7.8125 
L 10.703125 0 
L 18.5 0 
L 18.5 7.8125 
z
" id="Computer_Modern_Bright_Math_Slanted-58"/>
       <path d="M 14.796875 63.859375 
C 11.90625 61.859375 9.90625 59.140625 8.40625 56.03125 
C 4.796875 49 4.40625 40.765625 4.40625 31.828125 
C 4.40625 20.578125 6.40625 10.25 12 4.3125 
C 17.296875 -1.203125 25.703125 -2.609375 32.796875 0.296875 
C 37.203125 2.015625 40.40625 5.71875 42.40625 9.734375 
C 46 16.875 46.40625 25.40625 46.40625 34.234375 
C 46.40625 37.046875 46.296875 39.859375 46 42.671875 
C 45.296875 49.40625 43 56.828125 39.296875 60.953125 
C 33.203125 67.6875 22.296875 69.1875 14.796875 63.859375 
M 34.90625 58.140625 
C 39.59375 53.125 40 43.484375 40 34.34375 
L 40 28.921875 
C 40 24.296875 39.203125 18.28125 38.203125 14.859375 
C 36.796875 10.140625 34.5 6.734375 29.90625 4.625 
C 24.296875 2.609375 18.5 4.515625 15.296875 8.9375 
C 11 14.65625 10.796875 24.796875 10.796875 33.734375 
C 10.796875 42.171875 10.90625 51.515625 15 57.03125 
C 19.5 63.0625 29.203125 64.0625 34.90625 58.140625 
" id="Computer_Modern_Bright-48"/>
      </defs>
      <g style="fill:#262626;" transform="translate(86.488836 324.249603)scale(0.16 -0.16)">
       <use transform="scale(0.996264)" xlink:href="#Computer_Modern_Bright_Math_Symbols-0"/>
       <use transform="translate(77.487468 0)scale(0.996264)" xlink:href="#Computer_Modern_Bright-49"/>
       <use transform="translate(128.130685 0)scale(0.996264)" xlink:href="#Computer_Modern_Bright_Math_Slanted-58"/>
       <use transform="translate(157.188132 0)scale(0.996264)" xlink:href="#Computer_Modern_Bright-48"/>
      </g>
     </g>
    </g>
    <g id="xtick_2">
     <g id="line2d_2"/>
     <g id="text_2">
      <!-- $-0.8$ -->
      <defs>
       <path d="M 18.703125 36 
L 18.703125 35.90625 
C 12.5 34.09375 7.296875 30.6875 4.796875 24.84375 
C 2.203125 18.71875 4 11.28125 8.40625 6.453125 
C 13.09375 1.421875 19.5 -1 26.296875 -1 
C 36.296875 -1 45.90625 6.40625 47.09375 16.734375 
C 47.296875 18.265625 47.203125 19.890625 47 21.40625 
C 45.203125 29.21875 39.5 33.875 32.09375 35.90625 
C 32.90625 36.203125 33.796875 36.40625 34.59375 36.703125 
C 38.796875 38.421875 42.296875 40.921875 44.5 44.9375 
C 47.796875 51.375 44.59375 58.90625 39.203125 63.015625 
C 33.796875 67.140625 26.5 68.234375 19.90625 66.828125 
C 12 65.125 4.5 58.40625 5 49.765625 
C 5.203125 46.75 6.5 44.234375 8 42.4375 
C 10.296875 39.625 14.796875 36.609375 18.703125 36 
M 23.796875 62.5 
C 28.203125 62.5 33.703125 62 36.90625 58.578125 
C 40.703125 54.46875 40.90625 47.03125 37.09375 42.8125 
C 34.703125 40.203125 31.203125 38.890625 27.703125 38.59375 
C 22.796875 38.1875 17.203125 39 13.703125 42.8125 
C 9.796875 47.125 10.09375 54.96875 14.296875 58.984375 
C 16.90625 61.390625 20.40625 62.1875 23.796875 62.5 
M 23.703125 33.5 
C 28.40625 33.5 33.5 32.390625 36.90625 28.9375 
C 38.203125 27.53125 39.203125 25.8125 39.796875 24.015625 
C 41.5 18.75 40.703125 12.09375 36.796875 8.046875 
C 34.09375 5.328125 30.40625 4.3125 26.703125 4.015625 
C 22.203125 4.015625 17 5.109375 13.796875 8.5625 
C 9.40625 13.390625 8.5 23.40625 13.703125 29.0625 
C 16.296875 31.78125 20 33.203125 23.703125 33.5 
" id="Computer_Modern_Bright-56"/>
      </defs>
      <g style="fill:#262626;" transform="translate(158.392659 324.249603)scale(0.16 -0.16)">
       <use transform="scale(0.996264)" xlink:href="#Computer_Modern_Bright_Math_Symbols-0"/>
       <use transform="translate(77.487468 0)scale(0.996264)" xlink:href="#Computer_Modern_Bright-48"/>
       <use transform="translate(128.130685 0)scale(0.996264)" xlink:href="#Computer_Modern_Bright_Math_Slanted-58"/>
       <use transform="translate(157.188132 0)scale(0.996264)" xlink:href="#Computer_Modern_Bright-56"/>
      </g>
     </g>
    </g>
    <g id="xtick_3">
     <g id="line2d_3"/>
     <g id="text_3">
      <!-- $-0.6$ -->
      <defs>
       <path d="M 11.296875 32.625 
L 11.203125 32.625 
C 11.203125 41.765625 12.796875 52.421875 20.59375 58.25 
C 24.90625 61.375 30.703125 62.96875 38.203125 61.171875 
C 39.796875 60.765625 41.296875 60.15625 42.796875 59.765625 
L 42.796875 63.28125 
C 42.796875 63.671875 42.90625 64.375 42.59375 64.78125 
C 41.90625 65.6875 36.296875 66.59375 36.09375 66.59375 
C 27.40625 67.59375 21.703125 65.6875 16.40625 61.171875 
C 10 55.640625 6.296875 47.515625 5.09375 39.28125 
C 4 32.65625 4.90625 22 6.203125 16.78125 
C 8.296875 9.046875 12.296875 2.21875 19.703125 -0.390625 
C 24.09375 -2 29.5 -2 33.703125 0.015625 
C 37.09375 1.640625 39.90625 4.46875 42.09375 7.5 
C 45.59375 12.34375 46.5 18.21875 46.09375 24.171875 
C 45.90625 27.109375 45.5 30.046875 44.296875 32.765625 
C 42.40625 37.125 39.203125 41.671875 35.09375 43.6875 
C 33.203125 44.5 31.203125 44.5 29.203125 44.5 
C 23.90625 44.5 18.90625 42.1875 15.203125 38.359375 
C 13.59375 36.75 12 34.71875 11.296875 32.625 
M 24.40625 39.515625 
C 28.203125 39.8125 32.203125 39.21875 35.09375 36.5 
C 38.90625 32.890625 39.59375 27.765625 39.59375 22.8125 
C 39.59375 19.46875 39.703125 16.015625 38.703125 12.859375 
C 38.09375 11.234375 37.296875 9.828125 36.40625 8.5 
C 34.203125 5.5625 31.40625 4.125 26.796875 3.515625 
C 22.296875 3.515625 17.796875 5.3125 15.203125 9.125 
C 13.59375 11.328125 12.796875 14.046875 12.296875 16.640625 
C 11.703125 19.34375 11.296875 22.140625 11.5 24.859375 
C 12 31.984375 17 38.515625 24.40625 39.515625 
" id="Computer_Modern_Bright-54"/>
      </defs>
      <g style="fill:#262626;" transform="translate(230.296481 324.249603)scale(0.16 -0.16)">
       <use transform="scale(0.996264)" xlink:href="#Computer_Modern_Bright_Math_Symbols-0"/>
       <use transform="translate(77.487468 0)scale(0.996264)" xlink:href="#Computer_Modern_Bright-48"/>
       <use transform="translate(128.130685 0)scale(0.996264)" xlink:href="#Computer_Modern_Bright_Math_Slanted-58"/>
       <use transform="translate(157.188132 0)scale(0.996264)" xlink:href="#Computer_Modern_Bright-54"/>
      </g>
     </g>
    </g>
    <g id="xtick_4">
     <g id="line2d_4"/>
     <g id="text_4">
      <!-- $-0.4$ -->
      <defs>
       <path d="M 2.09375 18 
L 31 18 
L 31 0 
L 37.296875 0 
L 37.296875 18 
L 48.703125 18 
L 48.703125 23.328125 
L 37.296875 23.328125 
L 37.296875 66.46875 
L 31.90625 66.46875 
C 30.09375 66.46875 29.59375 66.578125 28.796875 65.0625 
C 24.796875 58.515625 3.703125 25.765625 3 24.859375 
C 2.203125 23.4375 2.09375 23.546875 2.09375 21.4375 
z
M 31.296875 60.875 
L 31.296875 23.328125 
L 8.59375 23.328125 
C 9.296875 24.734375 10.296875 26.03125 11.203125 27.4375 
C 16.203125 35.171875 28.09375 53.546875 30.59375 59.28125 
C 30.90625 59.78125 31 60.375 31.296875 60.875 
" id="Computer_Modern_Bright-52"/>
      </defs>
      <g style="fill:#262626;" transform="translate(302.200304 324.249603)scale(0.16 -0.16)">
       <use transform="scale(0.996264)" xlink:href="#Computer_Modern_Bright_Math_Symbols-0"/>
       <use transform="translate(77.487468 0)scale(0.996264)" xlink:href="#Computer_Modern_Bright-48"/>
       <use transform="translate(128.130685 0)scale(0.996264)" xlink:href="#Computer_Modern_Bright_Math_Slanted-58"/>
       <use transform="translate(157.188132 0)scale(0.996264)" xlink:href="#Computer_Modern_Bright-52"/>
      </g>
     </g>
    </g>
    <g id="xtick_5">
     <g id="line2d_5"/>
     <g id="text_5">
      <!-- $-0.2$ -->
      <defs>
       <path d="M 7.296875 45.96875 
C 8.703125 51.59375 11.09375 57.984375 16.796875 60.5 
C 19.203125 61.5 21.796875 61.703125 24.40625 61.5 
C 29.296875 61.09375 34.09375 59.09375 37.09375 55.09375 
C 39.296875 52.078125 40.09375 48.375 39.703125 44.78125 
C 38.5 34.34375 28.296875 26.84375 21.703125 21.234375 
C 17.90625 18.03125 7.09375 7.8125 7.09375 7.8125 
L 5.40625 6.203125 
C 4.5 5.3125 4.40625 5.3125 4.40625 3.5 
L 4.40625 0 
L 46.40625 0 
L 46.40625 5.625 
L 10.203125 5.625 
C 13.40625 8.734375 26.703125 20.515625 28.5 21.921875 
C 34.296875 26.65625 40.796875 31.375 44.296875 38.21875 
C 48.203125 46.0625 46.5 55.9375 39.90625 61.765625 
C 35.90625 65.296875 30.40625 67 25.09375 67 
C 20.203125 67 15.203125 66 11.296875 62.90625 
C 8.296875 60.390625 5.796875 56.6875 4.40625 52.875 
C 4.09375 52.28125 3.59375 51.28125 3.703125 50.578125 
C 3.796875 49.984375 4.40625 49.484375 4.703125 49.078125 
C 5.5 48.078125 6.296875 46.875 7.296875 45.96875 
" id="Computer_Modern_Bright-50"/>
      </defs>
      <g style="fill:#262626;" transform="translate(374.104126 324.249603)scale(0.16 -0.16)">
       <use transform="scale(0.996264)" xlink:href="#Computer_Modern_Bright_Math_Symbols-0"/>
       <use transform="translate(77.487468 0)scale(0.996264)" xlink:href="#Computer_Modern_Bright-48"/>
       <use transform="translate(128.130685 0)scale(0.996264)" xlink:href="#Computer_Modern_Bright_Math_Slanted-58"/>
       <use transform="translate(157.188132 0)scale(0.996264)" xlink:href="#Computer_Modern_Bright-50"/>
      </g>
     </g>
    </g>
    <g id="xtick_6">
     <g id="line2d_6"/>
     <g id="text_6">
      <!-- $0.0$ -->
      <g style="fill:#262626;" transform="translate(452.206946 324.249603)scale(0.16 -0.16)">
       <use transform="scale(0.996264)" xlink:href="#Computer_Modern_Bright-48"/>
       <use transform="translate(50.643218 0)scale(0.996264)" xlink:href="#Computer_Modern_Bright_Math_Slanted-58"/>
       <use transform="translate(79.700665 0)scale(0.996264)" xlink:href="#Computer_Modern_Bright-48"/>
      </g>
     </g>
    </g>
    <g id="text_7">
     <!-- Epistasis Coefficient -->
     <defs>
      <path d="M 8 69.328125 
L 8 0 
L 55.40625 0 
L 55.40625 5.625 
L 15 5.625 
L 15 33.671875 
L 51.09375 33.671875 
L 51.09375 39 
L 15 39 
L 15 64 
L 54 64 
L 54 69.328125 
z
" id="Computer_Modern_Bright-69"/>
      <path d="M 12.703125 40.53125 
L 12.703125 47.15625 
L 6.40625 47.15625 
L 6.40625 -17 
L 12.796875 -17 
L 12.796875 6.09375 
C 14.203125 4.078125 15.796875 2.28125 17.90625 1.078125 
C 25 -3.25 34 0.171875 38.90625 6.59375 
C 45.40625 14.96875 46.09375 27.5 41.59375 36.984375 
C 39 42.4375 34.09375 47.5 27.796875 48 
C 22.296875 48 18.09375 45.8125 15.09375 43.125 
C 14.203125 42.328125 13.5 41.4375 12.703125 40.53125 
M 21.90625 42.875 
C 26 43.171875 30 41.265625 32.796875 38.265625 
C 34.5 36.34375 35.796875 34.140625 36.59375 31.734375 
C 40.09375 22.296875 36.90625 9.234375 26.796875 5.328125 
C 21 3.109375 15.296875 5.125 13.09375 10.546875 
C 12.59375 11.546875 12.796875 12.859375 12.796875 13.953125 
L 12.796875 34.640625 
C 12.796875 36.953125 13 37.15625 14.5 38.859375 
C 16.296875 41.0625 19 42.578125 21.90625 42.875 
" id="Computer_Modern_Bright-112"/>
      <path d="M 6.40625 70 
L 6.40625 63.671875 
L 12.703125 63.671875 
L 12.703125 70 
z
M 6.40625 47.390625 
L 6.40625 0 
L 12.703125 0 
L 12.703125 47.390625 
z
" id="Computer_Modern_Bright-105"/>
      <path d="M 3.09375 9.640625 
C 2.90625 8.234375 2.59375 6.9375 2.40625 5.53125 
C 2.203125 4.421875 1.90625 3.921875 2.90625 3.421875 
C 7 1.015625 11.90625 -0.296875 17.703125 -0.796875 
C 24.203125 -1.40625 32.40625 0.109375 35.59375 6.53125 
C 36.5 8.34375 37 10.34375 37.09375 12.359375 
C 37.5 19.578125 31.796875 24.203125 26.90625 25.90625 
C 21.40625 28.015625 13.90625 27.3125 10.09375 31.53125 
C 8.09375 33.84375 8 37.265625 9.90625 39.671875 
C 13.90625 45.296875 26.796875 42.875 31.90625 40.375 
C 32.703125 39.96875 33.40625 39.46875 34.296875 39.265625 
L 35.203125 44.6875 
C 30.5 46.796875 26.40625 48 19.90625 48 
C 14.296875 48 9.203125 46.703125 6 43.484375 
C 2.796875 40.171875 1.703125 34.640625 3.59375 30.4375 
C 5.40625 26.40625 9.203125 23.796875 13.296875 22.5 
C 19.203125 20.390625 25.90625 21.390625 29.796875 16.578125 
C 32 13.765625 31.59375 9.546875 29.09375 7.03125 
C 24.296875 2.609375 14.09375 4.21875 8.5 6.625 
C 6.59375 7.4375 4.90625 8.640625 3.09375 9.640625 
" id="Computer_Modern_Bright-115"/>
      <path d="M 10.796875 60.5 
L 10.796875 47.015625 
L 1.09375 47.015625 
L 1.09375 42 
L 10.703125 42 
L 10.703125 15.015625 
C 10.703125 10.578125 10.40625 5.234375 13.296875 1.515625 
C 15 -0.703125 17.296875 -1.296875 20.796875 -1 
C 23.703125 -1 26.59375 -0.390625 29.296875 0.65625 
C 30.203125 1.0625 33.5 2.515625 33.90625 3.234375 
C 34.09375 3.640625 32.796875 8.09375 32.796875 8.09375 
L 30.40625 6.265625 
C 27.296875 4.34375 21.09375 2.328125 18.5 5.96875 
C 16.203125 9.09375 16.796875 13.75 16.796875 17.375 
L 16.796875 42 
L 32.296875 42 
L 32.296875 47.015625 
L 16.796875 47.015625 
L 16.796875 60.5 
z
" id="Computer_Modern_Bright-116"/>
      <path d="M 7.90625 39.015625 
C 9.59375 39.859375 11 41.09375 12.703125 41.921875 
C 15.40625 43.15625 18.203125 44 21.203125 44 
C 22.59375 44.09375 24.203125 44.296875 25.59375 44 
C 28.09375 43.59375 30.296875 42.078125 31.796875 39.953125 
C 33.296875 37.515625 33.90625 35.390625 33.90625 31.46875 
L 33.90625 27.015625 
C 29.09375 27.015625 24.296875 26.609375 19.703125 25.390625 
C 13.90625 24.078125 7.59375 21.125 5.5 15.84375 
C 3.40625 10.78125 5.59375 4.078125 10.09375 1.03125 
C 12.296875 -0.5 14.90625 -0.5 17.5 -0.296875 
C 21.703125 0 25.90625 1.015625 29.5 3.25 
C 31.203125 4.25 32.90625 5.578125 33.90625 7.296875 
L 34 7.296875 
L 34 0.203125 
L 40.296875 0.203125 
L 40.296875 26.890625 
C 40.296875 29.8125 40.59375 32.953125 40 35.890625 
C 39.40625 39.921875 36.90625 43.265625 34 45.59375 
C 30.59375 48.21875 26.703125 49.109375 21.5 48.71875 
C 16.703125 48.71875 13 47.5 9.40625 45.765625 
C 8.90625 45.5625 7.90625 45.234375 7.59375 44.640625 
C 7.296875 44.21875 7.5 43.515625 7.5 43 
C 7.703125 41.671875 7.796875 40.34375 7.90625 39.015625 
M 33.90625 24 
L 33.90625 16.375 
C 33.90625 14.0625 34 11.953125 32.703125 9.953125 
C 31.59375 8.34375 30.09375 7.234375 28.5 6.4375 
C 22.796875 3.515625 14.09375 4.421875 11.59375 9.25 
C 9.59375 12.75 11.703125 16.875 14.59375 19.1875 
C 18.90625 22.5 27.296875 24 33.90625 24 
" id="Computer_Modern_Bright-97"/>
      <path d="M 60.5 10.875 
C 58.5 9.859375 56.703125 8.453125 54.703125 7.453125 
C 50 5.046875 44 4.140625 37.5 4.734375 
C 31.703125 5.546875 26.90625 8.359375 23.40625 11.875 
C 12.203125 23.15625 11.40625 42.96875 21.296875 55.34375 
C 25.5 60.875 31.90625 65 41.296875 65 
C 45.09375 65 49 64.296875 52.5 62.890625 
C 54.59375 61.96875 56.59375 60.765625 58.59375 59.765625 
L 59.796875 66.8125 
C 57.59375 67.671875 55.296875 68.5625 53 69.09375 
C 47.40625 70.625 38.90625 70.625 33.09375 69.21875 
C 22.90625 66.921875 15.5 59.828125 11.296875 51.625 
C 5.5 40.015625 6.203125 25.515625 13.203125 14.59375 
C 15 11.703125 17.296875 9.109375 19.90625 6.890625 
C 25.90625 1.6875 33.296875 -1.3125 43.59375 -0.5 
C 49.796875 -0.5 53.40625 0.515625 58.203125 3.203125 
C 58.703125 3.5 60.59375 4.515625 60.90625 4.9375 
C 61.09375 5.4375 60.59375 9.53125 60.5 10.875 
" id="Computer_Modern_Bright-67"/>
      <path d="M 10.703125 42.078125 
C 1.796875 33.234375 0.796875 17.875 8.5 7.9375 
C 9.59375 6.421875 10.90625 5.125 12.40625 4.015625 
C 16.09375 1 21.5 -1.203125 27.796875 -0.5 
C 37.796875 0.703125 44.703125 8.84375 46.796875 17.375 
C 49.59375 29.328125 43.703125 42.671875 32.703125 46.890625 
C 24.09375 50.40625 15.5 46.890625 10.703125 42.078125 
M 35.703125 39.359375 
C 40.5 35.03125 41.40625 28.109375 41 21.984375 
C 40.703125 17.265625 39.40625 12.34375 36.09375 8.828125 
C 30.703125 3 20.703125 3 14.90625 8.625 
C 11.90625 11.84375 10.09375 16.453125 9.796875 21.984375 
C 9.296875 30.109375 11.296875 38.75 19.296875 41.96875 
C 25.203125 44.578125 32 42.671875 35.703125 39.359375 
" id="Computer_Modern_Bright-111"/>
      <path d="M 41.796875 10.9375 
C 39.5 9.234375 38.796875 8.328125 35.90625 6.8125 
C 29.796875 3.5 22.59375 3.5 17.40625 7.171875 
C 12.40625 10.765625 9.5 16.640625 9.5 25 
L 42.5 25 
C 42.5 32.421875 40.796875 38.859375 36.59375 43.375 
C 32 47.890625 24.796875 49.296875 18.703125 47.390625 
C 16.40625 46.6875 14.296875 45.484375 12.40625 43.96875 
C 6.09375 38.859375 3.40625 30.71875 3.5 22.78125 
C 3.703125 12.34375 10.796875 1.90625 21.296875 -0.3125 
C 26.796875 -1.421875 32.59375 -0.203125 37.5 2.296875 
C 38.40625 2.796875 41.703125 4.609375 42.09375 5.515625 
C 42.40625 6.015625 41.796875 10.9375 41.796875 10.9375 
M 37.203125 28.90625 
L 10 28.90625 
C 11.203125 36.234375 17.203125 43.96875 25.296875 43.0625 
C 31.90625 42.46875 35.40625 37.75 36.703125 31.828125 
C 36.90625 30.8125 37 29.921875 37.203125 28.90625 
" id="Computer_Modern_Bright-101"/>
      <path d="M 10.59375 47.015625 
L 2 47.015625 
L 2 42 
L 10.59375 42 
L 10.59375 0 
L 16.90625 0 
L 16.90625 42 
L 30.09375 42 
L 30.09375 47.015625 
L 16.796875 47.015625 
L 16.796875 56.234375 
C 16.796875 57.890625 16.59375 59.65625 17.296875 61.21875 
C 19.5 65.875 25.40625 65.875 29.59375 65.078125 
C 30.59375 64.875 31.703125 64.46875 32.703125 64.265625 
L 32.703125 69.90625 
C 27.703125 70.609375 22.296875 71.21875 17.703125 68.46875 
C 15.796875 67.4375 14.203125 65.6875 13 63.921875 
C 11.09375 60.9375 10.59375 58.78125 10.59375 53.71875 
z
M 38.09375 0 
L 44.40625 0 
L 44.40625 42 
L 57.59375 42 
L 57.59375 47.015625 
L 44.296875 47.015625 
L 44.296875 55.234375 
C 44.296875 56.890625 44.09375 58.65625 44.40625 60.328125 
C 44.90625 62.296875 46.09375 63.65625 47.703125 64.671875 
C 50.796875 66.171875 54.40625 65.078125 57.59375 64.171875 
L 57.59375 70 
C 55.09375 70.1875 52.703125 70.6875 50.203125 70.5 
C 43.40625 70 38.59375 64.046875 38.09375 57.3125 
C 38 55.890625 38.09375 54.375 38.09375 52.96875 
z
M 65.59375 70 
L 65.59375 63.671875 
L 71.90625 63.671875 
L 71.90625 70 
z
M 65.59375 47.390625 
L 65.59375 0 
L 71.90625 0 
L 71.90625 47.390625 
z
" id="Computer_Modern_Bright-14"/>
      <path d="M 42.40625 11.25 
C 40.5 9.84375 38.796875 8.328125 36.703125 7.125 
C 32 4.625 24.796875 3.421875 19.40625 5.921875 
C 11.59375 9.9375 9.5 19.6875 10.59375 27.71875 
C 10.796875 29.328125 11.09375 30.921875 11.59375 32.4375 
C 13.796875 38.96875 19.296875 44.078125 28.296875 43.078125 
C 33.09375 42.671875 35.5 41.875 39.296875 39.765625 
C 40 39.359375 40.59375 38.859375 41.40625 38.65625 
C 41.5 39.859375 41.796875 41.171875 42 42.375 
C 42.296875 43.984375 42.296875 44.1875 40.796875 44.890625 
C 39.703125 45.390625 38.59375 45.984375 37.40625 46.390625 
C 32.796875 48.40625 25.203125 49 20 47.5 
C 12.90625 45.484375 7.59375 39.359375 5.296875 32.53125 
C 4.203125 29.421875 3.90625 26.109375 3.90625 22.796875 
C 4 12.25 11.203125 1.90625 21.703125 -0.203125 
C 27.5 -1.40625 34.203125 0.296875 38.203125 2.40625 
C 39.203125 2.90625 42.203125 4.71875 42.703125 5.625 
C 43 6.125 42.40625 11.25 42.40625 11.25 
" id="Computer_Modern_Bright-99"/>
      <path d="M 12.59375 37.28125 
L 12.5 37.28125 
L 12.5 47.390625 
L 6.40625 47.390625 
L 6.40625 0 
L 12.796875 0 
L 12.796875 21.9375 
C 12.796875 26.84375 12.5 31.875 14.703125 36.46875 
C 15.796875 38.78125 17.5 40.78125 19.796875 41.984375 
C 21.703125 42.890625 23.703125 42.890625 25.796875 42.6875 
C 28.796875 42.6875 31.703125 41.890625 33.59375 39.375 
C 35.40625 37.0625 35.5 34.0625 35.5 31.25 
L 35.5 0 
L 41.90625 0 
L 41.90625 26.859375 
C 41.90625 31.875 42.40625 37.375 40 41.890625 
C 38.09375 45.5 34.40625 47.203125 30.5 47.703125 
C 28.5 48 26.40625 48 24.40625 47.609375 
C 19.203125 46.5 14.40625 42.296875 12.59375 37.28125 
" id="Computer_Modern_Bright-110"/>
     </defs>
     <g style="fill:#262626;" transform="translate(201.022873 343.359582)scale(0.18 -0.18)">
      <use transform="scale(0.996264)" xlink:href="#Computer_Modern_Bright-69"/>
      <use transform="translate(58.737787 0)scale(0.996264)" xlink:href="#Computer_Modern_Bright-112"/>
      <use transform="translate(106.890284 0)scale(0.996264)" xlink:href="#Computer_Modern_Bright-105"/>
      <use transform="translate(125.985243 0)scale(0.996264)" xlink:href="#Computer_Modern_Bright-115"/>
      <use transform="translate(164.424272 0)scale(0.996264)" xlink:href="#Computer_Modern_Bright-116"/>
      <use transform="translate(200.53866 0)scale(0.996264)" xlink:href="#Computer_Modern_Bright-97"/>
      <use transform="translate(247.030742 0)scale(0.996264)" xlink:href="#Computer_Modern_Bright-115"/>
      <use transform="translate(285.469772 0)scale(0.996264)" xlink:href="#Computer_Modern_Bright-105"/>
      <use transform="translate(304.56473 0)scale(0.996264)" xlink:href="#Computer_Modern_Bright-115"/>
      <use transform="translate(374.468971 0)scale(0.996264)" xlink:href="#Computer_Modern_Bright-67"/>
      <use transform="translate(439.641004 0)scale(0.996264)" xlink:href="#Computer_Modern_Bright-111"/>
      <use transform="translate(490.284222 0)scale(0.996264)" xlink:href="#Computer_Modern_Bright-101"/>
      <use transform="translate(535.115889 0)scale(0.996264)" xlink:href="#Computer_Modern_Bright-14"/>
      <use transform="translate(613.156322 0)scale(0.996264)" xlink:href="#Computer_Modern_Bright-99"/>
      <use transform="translate(657.987989 0)scale(0.996264)" xlink:href="#Computer_Modern_Bright-105"/>
      <use transform="translate(677.082948 0)scale(0.996264)" xlink:href="#Computer_Modern_Bright-101"/>
      <use transform="translate(721.914616 0)scale(0.996264)" xlink:href="#Computer_Modern_Bright-110"/>
      <use transform="translate(770.067113 0)scale(0.996264)" xlink:href="#Computer_Modern_Bright-116"/>
     </g>
    </g>
   </g>
   <g id="matplotlib.axis_2">
    <g id="ytick_1">
     <g id="line2d_7"/>
     <g id="text_8">
      <!-- $0$ -->
      <g style="fill:#262626;" transform="translate(35.010613 298.124802)scale(0.16 -0.16)">
       <use transform="scale(0.996264)" xlink:href="#Computer_Modern_Bright-48"/>
      </g>
     </g>
    </g>
    <g id="ytick_2">
     <g id="line2d_8"/>
     <g id="text_9">
      <!-- $10$ -->
      <g style="fill:#262626;" transform="translate(26.642062 255.99708)scale(0.16 -0.16)">
       <use transform="scale(0.996264)" xlink:href="#Computer_Modern_Bright-49"/>
       <use transform="translate(50.643218 0)scale(0.996264)" xlink:href="#Computer_Modern_Bright-48"/>
      </g>
     </g>
    </g>
    <g id="ytick_3">
     <g id="line2d_9"/>
     <g id="text_10">
      <!-- $20$ -->
      <g style="fill:#262626;" transform="translate(26.642062 213.869359)scale(0.16 -0.16)">
       <use transform="scale(0.996264)" xlink:href="#Computer_Modern_Bright-50"/>
       <use transform="translate(50.643218 0)scale(0.996264)" xlink:href="#Computer_Modern_Bright-48"/>
      </g>
     </g>
    </g>
    <g id="ytick_4">
     <g id="line2d_10"/>
     <g id="text_11">
      <!-- $30$ -->
      <defs>
       <path d="M 8.09375 50.71875 
C 8.90625 51.921875 9.5 53.234375 10.40625 54.4375 
C 12.5 57.25 15.40625 59.453125 18.703125 60.765625 
C 23.90625 62.875 31.5 62.875 35.59375 58.21875 
C 39.203125 54.078125 37.703125 47.609375 34.40625 43.78125 
C 31.40625 40.25 27.5 38.53125 21.703125 38.53125 
C 20 38.53125 18.40625 38.03125 16.703125 38.03125 
L 16.703125 33 
L 23.59375 33 
C 29.40625 33 33.203125 32.109375 36.40625 28.6875 
C 41.90625 22.859375 41.40625 12.515625 35.296875 7.203125 
C 32.203125 4.59375 27.90625 3.78125 23.90625 4.078125 
C 16.09375 4.6875 9.203125 8.8125 4.59375 15.234375 
C 4.09375 14.234375 4.09375 12.828125 3.90625 11.71875 
C 3.59375 10.109375 3.59375 10.109375 4.59375 8.8125 
C 7.5 4.890625 13.203125 1.28125 17.703125 -0.03125 
C 25.703125 -2.4375 35 -1.34375 41.203125 4.78125 
C 42.40625 6 43.5 7.296875 44.40625 8.703125 
C 48.09375 14.53125 48.203125 22.15625 44.09375 27.78125 
C 42.40625 30.09375 40.203125 31.90625 37.703125 33.3125 
C 36 34.3125 34 35.3125 32 35.515625 
C 37.796875 38.234375 43.203125 42.828125 44.203125 50.359375 
C 45.09375 57.375 41 61.6875 36.796875 64.1875 
C 30.296875 68 21.796875 68 15.09375 64.671875 
C 12 63.171875 9.203125 60.96875 7.09375 58.25 
C 6.703125 57.75 5.203125 56.046875 5.203125 55.234375 
C 5.203125 54.734375 5.59375 54.234375 5.90625 53.828125 
z
" id="Computer_Modern_Bright-51"/>
      </defs>
      <g style="fill:#262626;" transform="translate(26.642062 171.741637)scale(0.16 -0.16)">
       <use transform="scale(0.996264)" xlink:href="#Computer_Modern_Bright-51"/>
       <use transform="translate(50.643218 0)scale(0.996264)" xlink:href="#Computer_Modern_Bright-48"/>
      </g>
     </g>
    </g>
    <g id="ytick_5">
     <g id="line2d_11"/>
     <g id="text_12">
      <!-- $40$ -->
      <g style="fill:#262626;" transform="translate(26.642062 129.613916)scale(0.16 -0.16)">
       <use transform="scale(0.996264)" xlink:href="#Computer_Modern_Bright-52"/>
       <use transform="translate(50.643218 0)scale(0.996264)" xlink:href="#Computer_Modern_Bright-48"/>
      </g>
     </g>
    </g>
    <g id="ytick_6">
     <g id="line2d_12"/>
     <g id="text_13">
      <!-- $50$ -->
      <defs>
       <path d="M 8.40625 66.328125 
L 8.40625 30.453125 
L 12.203125 30.453125 
C 12.703125 30.453125 13.40625 30.359375 13.796875 30.5625 
C 14.296875 30.859375 14.59375 31.5625 14.90625 31.96875 
C 15.59375 32.859375 16.40625 33.5625 17.203125 34.265625 
C 20.796875 37.28125 27.703125 38.484375 32.296875 36.171875 
C 38.59375 33.171875 39.796875 25.21875 39.296875 19 
C 39 15.0625 37.796875 11.453125 35.5 9.140625 
C 30.203125 3.5 21.296875 3.5 14.796875 6.796875 
C 11.59375 8.40625 8.90625 10.921875 6.90625 13.921875 
L 6.796875 13.921875 
C 6.5 13.421875 4.203125 9.90625 4.203125 9.296875 
C 4.203125 8.890625 4.5 8.59375 4.703125 8.296875 
C 7.703125 4.78125 11.59375 2.0625 16.09375 0.5625 
C 25 -2.25 35 -0.046875 41.296875 7.1875 
C 48.796875 15.921875 47.796875 30.15625 39.09375 37.765625 
C 36.5 40.1875 32.90625 41.890625 28.59375 42.28125 
C 22.796875 43.09375 17.59375 40.28125 14.5 37.671875 
L 14.5 61 
L 42.90625 61 
L 42.90625 66.328125 
z
" id="Computer_Modern_Bright-53"/>
      </defs>
      <g style="fill:#262626;" transform="translate(26.642062 87.486194)scale(0.16 -0.16)">
       <use transform="scale(0.996264)" xlink:href="#Computer_Modern_Bright-53"/>
       <use transform="translate(50.643218 0)scale(0.996264)" xlink:href="#Computer_Modern_Bright-48"/>
      </g>
     </g>
    </g>
    <g id="ytick_7">
     <g id="line2d_13"/>
     <g id="text_14">
      <!-- $60$ -->
      <g style="fill:#262626;" transform="translate(26.642062 45.358472)scale(0.16 -0.16)">
       <use transform="scale(0.996264)" xlink:href="#Computer_Modern_Bright-54"/>
       <use transform="translate(50.643218 0)scale(0.996264)" xlink:href="#Computer_Modern_Bright-48"/>
      </g>
     </g>
    </g>
    <g id="text_15">
     <!-- Cumulative Density Function -->
     <defs>
      <path d="M 6.40625 47 
L 6.40625 12.96875 
C 6.40625 10.046875 6.5 7.140625 7.703125 4.421875 
C 9.59375 0.515625 13.59375 -1 17.703125 -1 
C 23.203125 -1 28.703125 0.8125 32.703125 4.734375 
C 33.796875 5.828125 34.796875 6.9375 35.5 8.34375 
L 35.59375 8.34375 
L 35.59375 -0.390625 
L 41.90625 -0.390625 
L 41.90625 47 
L 35.5 47 
L 35.5 22.90625 
C 35.5 18.6875 36.09375 14.0625 33.90625 10.25 
C 32.296875 7.4375 29.5 5.234375 26.40625 4.234375 
C 24.296875 3.625 22.09375 3.625 19.90625 3.828125 
C 17.796875 4.03125 15.5 4.234375 14.09375 6.03125 
C 12.09375 8.453125 12.796875 14.171875 12.796875 17.6875 
L 12.796875 47 
z
" id="Computer_Modern_Bright-117"/>
      <path d="M 12.59375 37.359375 
L 12.5 37.359375 
L 12.5 47.390625 
L 6.40625 47.390625 
L 6.40625 0 
L 12.796875 0 
L 12.796875 22.046875 
C 12.796875 26.953125 12.5 31.875 14.703125 36.375 
C 16.59375 40.28125 19.90625 43.390625 25.796875 42.78125 
C 28.796875 42.78125 31.796875 41.984375 33.703125 39.453125 
C 35.5 37.140625 35.59375 34.140625 35.59375 31.3125 
L 35.59375 0 
L 42 0 
L 42 22.046875 
C 42 26.953125 41.703125 31.875 43.90625 36.375 
C 45.796875 40.28125 49.09375 43.390625 55 42.78125 
C 58 42.78125 61 41.984375 62.90625 39.453125 
C 64.703125 37.140625 64.796875 34.140625 64.796875 31.3125 
L 64.796875 0 
L 71.203125 0 
L 71.203125 26.5625 
C 71.203125 31.375 71.796875 36.78125 69.703125 41.1875 
C 67.59375 45.296875 64.203125 47.5 58.703125 47.5 
C 55.5 47.796875 52.296875 47.3125 49.40625 45.84375 
C 45.90625 43.921875 43.296875 40.75 41.703125 37.265625 
C 41 40.578125 40.203125 42.828125 38 45 
C 35.703125 47.0625 32.59375 48 29.59375 48 
C 22.296875 48.59375 17.703125 45.5625 14.59375 41 
C 13.796875 39.875 13 38.671875 12.59375 37.359375 
" id="Computer_Modern_Bright-109"/>
      <path d="M 6.40625 69.6875 
L 6.40625 0 
L 12.703125 0 
L 12.703125 69.6875 
z
" id="Computer_Modern_Bright-108"/>
      <path d="M 0.703125 47.5 
C 1.203125 45.5 4.203125 37.578125 4.40625 37.078125 
C 5.40625 34.28125 17.296875 0.609375 17.59375 0.296875 
C 17.90625 -0.203125 18.796875 0 19.296875 0 
L 22.796875 0 
C 24.09375 0 24.90625 -0.296875 25.203125 0.90625 
C 28.40625 9.328125 40.09375 42.703125 41.796875 47.5 
L 35.59375 47.5 
C 30.796875 33.984375 25.90625 20.4375 21.40625 6.609375 
L 11 36.203125 
C 9.5 39.796875 8.59375 43.890625 6.90625 47.203125 
C 5.09375 47.5 2.796875 47.5 0.703125 47.5 
" id="Computer_Modern_Bright-118"/>
      <path d="M 8 70 
L 8 0 
L 28.203125 0 
C 31.40625 0 34.59375 0 37.703125 0.296875 
C 45.703125 1.109375 52.59375 5.015625 57.203125 9.828125 
C 70.09375 23.171875 70 46.125 57.296875 59.671875 
C 52.703125 64.578125 46.5 68.5 38.703125 69.5 
C 34.90625 70 31 70 27.203125 70 
z
M 14.90625 5.3125 
L 14.90625 64.5625 
L 27.796875 64.5625 
C 30.5 64.5625 33.203125 64.5625 35.90625 64.359375 
C 40.40625 63.859375 44.796875 62.359375 48.5 59.734375 
C 56.59375 54.125 60 44.171875 60 34.640625 
C 60 26.609375 57.796875 18.375 51.90625 12.640625 
C 47.90625 8.9375 42.5 6.21875 36 5.515625 
C 33.40625 5.3125 30.703125 5.3125 28.09375 5.3125 
z
" id="Computer_Modern_Bright-68"/>
      <path d="M 0.703125 47.65625 
C 1.296875 45.75 5.40625 35.609375 5.5 35.3125 
L 17.40625 4.578125 
L 18.40625 2.078125 
C 19 0.671875 19.203125 0.46875 18.59375 -1.140625 
L 17.5 -4.046875 
C 16.59375 -6.46875 15.59375 -8.96875 13.703125 -10.484375 
C 10.296875 -13.296875 4.90625 -11.6875 0.796875 -10.78125 
L 1.296875 -16.5 
C 3.203125 -16.796875 5.09375 -17 7 -17 
C 11.296875 -17.515625 14.09375 -16.5 16.703125 -14.296875 
C 20 -11.484375 21.59375 -7.5625 23.09375 -3.546875 
L 26.203125 5.078125 
L 36.40625 32.90625 
C 38.09375 37.921875 40.203125 42.640625 41.796875 47.65625 
L 37.296875 47.65625 
C 36.796875 47.65625 36 47.859375 35.59375 47.46875 
C 35.40625 47.15625 35.296875 46.765625 35.203125 46.453125 
L 34.40625 44.34375 
C 33.40625 41.734375 32.5 39.234375 31.59375 36.609375 
L 25.796875 20.25 
C 24.296875 15.828125 22.59375 11.3125 21.796875 6.6875 
C 20.703125 11.3125 19.203125 15.734375 17.59375 20.140625 
C 16.296875 23.5625 8.5 44.546875 7.5 46.5625 
C 7.09375 47.65625 6.703125 47.65625 5.203125 47.65625 
z
" id="Computer_Modern_Bright-121"/>
      <path d="M 8 69.328125 
L 8 0 
L 15 0 
L 15 32 
L 48.09375 32 
L 48.09375 37.3125 
L 15 37.3125 
L 15 64 
L 52.40625 64 
L 52.40625 69.328125 
z
" id="Computer_Modern_Bright-70"/>
     </defs>
     <g style="fill:#262626;" transform="translate(19.65327 260.669538)rotate(-90)scale(0.18 -0.18)">
      <use transform="scale(0.996264)" xlink:href="#Computer_Modern_Bright-67"/>
      <use transform="translate(65.172032 0)scale(0.996264)" xlink:href="#Computer_Modern_Bright-117"/>
      <use transform="translate(113.324529 0)scale(0.996264)" xlink:href="#Computer_Modern_Bright-109"/>
      <use transform="translate(190.534656 0)scale(0.996264)" xlink:href="#Computer_Modern_Bright-117"/>
      <use transform="translate(238.687153 0)scale(0.996264)" xlink:href="#Computer_Modern_Bright-108"/>
      <use transform="translate(257.782112 0)scale(0.996264)" xlink:href="#Computer_Modern_Bright-97"/>
      <use transform="translate(304.274194 0)scale(0.996264)" xlink:href="#Computer_Modern_Bright-116"/>
      <use transform="translate(340.388582 0)scale(0.996264)" xlink:href="#Computer_Modern_Bright-105"/>
      <use transform="translate(359.483541 0)scale(0.996264)" xlink:href="#Computer_Modern_Bright-118"/>
      <use transform="translate(401.824579 0)scale(0.996264)" xlink:href="#Computer_Modern_Bright-101"/>
      <use transform="translate(478.121458 0)scale(0.996264)" xlink:href="#Computer_Modern_Bright-68"/>
      <use transform="translate(549.727645 0)scale(0.996264)" xlink:href="#Computer_Modern_Bright-101"/>
      <use transform="translate(594.559312 0)scale(0.996264)" xlink:href="#Computer_Modern_Bright-110"/>
      <use transform="translate(642.711809 0)scale(0.996264)" xlink:href="#Computer_Modern_Bright-115"/>
      <use transform="translate(681.150839 0)scale(0.996264)" xlink:href="#Computer_Modern_Bright-105"/>
      <use transform="translate(700.245798 0)scale(0.996264)" xlink:href="#Computer_Modern_Bright-116"/>
      <use transform="translate(733.454456 0)scale(0.996264)" xlink:href="#Computer_Modern_Bright-121"/>
      <use transform="translate(807.260706 0)scale(0.996264)" xlink:href="#Computer_Modern_Bright-70"/>
      <use transform="translate(860.187034 0)scale(0.996264)" xlink:href="#Computer_Modern_Bright-117"/>
      <use transform="translate(908.339531 0)scale(0.996264)" xlink:href="#Computer_Modern_Bright-110"/>
      <use transform="translate(956.492028 0)scale(0.996264)" xlink:href="#Computer_Modern_Bright-99"/>
      <use transform="translate(1001.323695 0)scale(0.996264)" xlink:href="#Computer_Modern_Bright-116"/>
      <use transform="translate(1037.438083 0)scale(0.996264)" xlink:href="#Computer_Modern_Bright-105"/>
      <use transform="translate(1056.533042 0)scale(0.996264)" xlink:href="#Computer_Modern_Bright-111"/>
      <use transform="translate(1107.17626 0)scale(0.996264)" xlink:href="#Computer_Modern_Bright-110"/>
     </g>
    </g>
   </g>
   <g id="PolyCollection_1">
    <path clip-path="url(#pfb59bf68e5)" d="M 284.145698 292.58043 
L 284.145698 292.59 
L 284.315417 292.59 
L 284.485136 292.59 
L 284.654855 292.59 
L 284.824574 292.59 
L 284.994293 292.59 
L 285.164012 292.59 
L 285.333731 292.59 
L 285.50345 292.59 
L 285.673169 292.59 
L 285.842888 292.59 
L 286.012607 292.59 
L 286.182326 292.59 
L 286.352045 292.59 
L 286.521764 292.59 
L 286.691483 292.59 
L 286.861202 292.59 
L 287.030921 292.59 
L 287.20064 292.59 
L 287.370359 292.59 
L 287.540078 292.59 
L 287.709797 292.59 
L 287.879516 292.59 
L 288.049235 292.59 
L 288.218954 292.59 
L 288.388673 292.59 
L 288.558392 292.59 
L 288.728112 292.59 
L 288.897831 292.59 
L 289.06755 292.59 
L 289.237269 292.59 
L 289.406988 292.59 
L 289.576707 292.59 
L 289.746426 292.59 
L 289.916145 292.59 
L 290.085864 292.59 
L 290.255583 292.59 
L 290.425302 292.59 
L 290.595021 292.59 
L 290.76474 292.59 
L 290.934459 292.59 
L 291.104178 292.59 
L 291.273897 292.59 
L 291.443616 292.59 
L 291.613335 292.59 
L 291.783054 292.59 
L 291.952773 292.59 
L 292.122492 292.59 
L 292.292211 292.59 
L 292.46193 292.59 
L 292.631649 292.59 
L 292.801368 292.59 
L 292.971087 292.59 
L 293.140806 292.59 
L 293.310525 292.59 
L 293.480244 292.59 
L 293.649963 292.59 
L 293.819682 292.59 
L 293.989401 292.59 
L 294.15912 292.59 
L 294.328839 292.59 
L 294.498558 292.59 
L 294.668277 292.59 
L 294.837996 292.59 
L 295.007715 292.59 
L 295.177434 292.59 
L 295.347153 292.59 
L 295.516872 292.59 
L 295.686591 292.59 
L 295.85631 292.59 
L 296.026029 292.59 
L 296.195748 292.59 
L 296.365468 292.59 
L 296.535187 292.59 
L 296.704906 292.59 
L 296.874625 292.59 
L 297.044344 292.59 
L 297.214063 292.59 
L 297.383782 292.59 
L 297.553501 292.59 
L 297.72322 292.59 
L 297.892939 292.59 
L 298.062658 292.59 
L 298.232377 292.59 
L 298.402096 292.59 
L 298.571815 292.59 
L 298.741534 292.59 
L 298.911253 292.59 
L 299.080972 292.59 
L 299.250691 292.59 
L 299.42041 292.59 
L 299.590129 292.59 
L 299.759848 292.59 
L 299.929567 292.59 
L 300.099286 292.59 
L 300.269005 292.59 
L 300.438724 292.59 
L 300.608443 292.59 
L 300.778162 292.59 
L 300.947881 292.59 
L 301.1176 292.59 
L 301.287319 292.59 
L 301.457038 292.59 
L 301.626757 292.59 
L 301.796476 292.59 
L 301.966195 292.59 
L 302.135914 292.59 
L 302.305633 292.59 
L 302.475352 292.59 
L 302.645071 292.59 
L 302.81479 292.59 
L 302.984509 292.59 
L 303.154228 292.59 
L 303.323947 292.59 
L 303.493666 292.59 
L 303.663385 292.59 
L 303.833104 292.59 
L 304.002823 292.59 
L 304.172543 292.59 
L 304.342262 292.59 
L 304.511981 292.59 
L 304.6817 292.59 
L 304.851419 292.59 
L 305.021138 292.59 
L 305.190857 292.59 
L 305.360576 292.59 
L 305.530295 292.59 
L 305.700014 292.59 
L 305.700014 292.581249 
L 305.700014 292.581249 
L 305.530295 292.573383 
L 305.360576 292.552476 
L 305.190857 292.509238 
L 305.021138 292.429731 
L 304.851419 292.297104 
L 304.6817 292.095148 
L 304.511981 291.812804 
L 304.342262 291.447581 
L 304.172543 291.005843 
L 304.002823 290.499477 
L 303.833104 289.940235 
L 303.663385 289.333474 
L 303.493666 288.671938 
L 303.323947 287.929582 
L 303.154228 287.056898 
L 302.984509 285.981781 
L 302.81479 284.620363 
L 302.645071 282.898604 
L 302.475352 280.779399 
L 302.305633 278.2852 
L 302.135914 275.505061 
L 301.966195 272.577933 
L 301.796476 269.650661 
L 301.626757 266.818817 
L 301.457038 264.069026 
L 301.287319 261.248028 
L 301.1176 258.080754 
L 300.947881 254.244091 
L 300.778162 249.477094 
L 300.608443 243.682218 
L 300.438724 236.963331 
L 300.269005 229.570428 
L 300.099286 221.77478 
L 299.929567 213.749267 
L 299.759848 205.53363 
L 299.590129 197.107887 
L 299.42041 188.516279 
L 299.250691 179.94374 
L 299.080972 171.682302 
L 298.911253 164.007015 
L 298.741534 157.042004 
L 298.571815 150.693788 
L 298.402096 144.677181 
L 298.232377 138.610286 
L 298.062658 132.140502 
L 297.892939 125.070784 
L 297.72322 117.456672 
L 297.553501 109.63627 
L 297.383782 102.161534 
L 297.214063 95.636493 
L 297.044344 90.518711 
L 296.874625 86.966374 
L 296.704906 84.794717 
L 296.535187 83.555765 
L 296.365468 82.705486 
L 296.195748 81.79442 
L 296.026029 80.617243 
L 295.85631 79.277221 
L 295.686591 78.151323 
L 295.516872 77.769506 
L 295.347153 78.643319 
L 295.177434 81.096364 
L 295.007715 85.158074 
L 294.837996 90.568726 
L 294.668277 96.899901 
L 294.498558 103.737162 
L 294.328839 110.835337 
L 294.15912 118.168107 
L 293.989401 125.850447 
L 293.819682 133.984133 
L 293.649963 142.520855 
L 293.480244 151.224945 
L 293.310525 159.753808 
L 293.140806 167.801075 
L 292.971087 175.215867 
L 292.801368 182.039044 
L 292.631649 188.454908 
L 292.46193 194.698774 
L 292.292211 200.965711 
L 292.122492 207.34733 
L 291.952773 213.806155 
L 291.783054 220.190166 
L 291.613335 226.285704 
L 291.443616 231.896041 
L 291.273897 236.918176 
L 291.104178 241.383603 
L 290.934459 245.440237 
L 290.76474 249.280924 
L 290.595021 253.053945 
L 290.425302 256.802686 
L 290.255583 260.465115 
L 290.085864 263.927774 
L 289.916145 267.0973 
L 289.746426 269.94641 
L 289.576707 272.513262 
L 289.406988 274.865392 
L 289.237269 277.058188 
L 289.06755 279.112786 
L 288.897831 281.018558 
L 288.728112 282.748902 
L 288.558392 284.276397 
L 288.388673 285.581068 
L 288.218954 286.653591 
L 288.049235 287.497711 
L 287.879516 288.133505 
L 287.709797 288.599639 
L 287.540078 288.951069 
L 287.370359 289.24973 
L 287.20064 289.549257 
L 287.030921 289.879206 
L 286.861202 290.236609 
L 286.691483 290.590754 
L 286.521764 290.90065 
L 286.352045 291.137226 
L 286.182326 291.298768 
L 286.012607 291.411264 
L 285.842888 291.513961 
L 285.673169 291.639105 
L 285.50345 291.797685 
L 285.333731 291.978162 
L 285.164012 292.156527 
L 284.994293 292.309819 
L 284.824574 292.425276 
L 284.654855 292.502025 
L 284.485136 292.547226 
L 284.315417 292.570626 
L 284.145698 292.58043 
z
" style="fill:#0000ff;fill-opacity:0.25;"/>
   </g>
   <g id="PolyCollection_2">
    <path clip-path="url(#pfb59bf68e5)" d="M 251.463802 292.586523 
L 251.463802 292.59 
L 251.666278 292.59 
L 251.868754 292.59 
L 252.07123 292.59 
L 252.273706 292.59 
L 252.476182 292.59 
L 252.678658 292.59 
L 252.881134 292.59 
L 253.08361 292.59 
L 253.286086 292.59 
L 253.488562 292.59 
L 253.691038 292.59 
L 253.893514 292.59 
L 254.09599 292.59 
L 254.298466 292.59 
L 254.500942 292.59 
L 254.703418 292.59 
L 254.905894 292.59 
L 255.10837 292.59 
L 255.310846 292.59 
L 255.513322 292.59 
L 255.715798 292.59 
L 255.918274 292.59 
L 256.12075 292.59 
L 256.323227 292.59 
L 256.525703 292.59 
L 256.728179 292.59 
L 256.930655 292.59 
L 257.133131 292.59 
L 257.335607 292.59 
L 257.538083 292.59 
L 257.740559 292.59 
L 257.943035 292.59 
L 258.145511 292.59 
L 258.347987 292.59 
L 258.550463 292.59 
L 258.752939 292.59 
L 258.955415 292.59 
L 259.157891 292.59 
L 259.360367 292.59 
L 259.562843 292.59 
L 259.765319 292.59 
L 259.967795 292.59 
L 260.170271 292.59 
L 260.372747 292.59 
L 260.575223 292.59 
L 260.777699 292.59 
L 260.980175 292.59 
L 261.182651 292.59 
L 261.385127 292.59 
L 261.587603 292.59 
L 261.790079 292.59 
L 261.992555 292.59 
L 262.195031 292.59 
L 262.397507 292.59 
L 262.599983 292.59 
L 262.802459 292.59 
L 263.004935 292.59 
L 263.207411 292.59 
L 263.409887 292.59 
L 263.612363 292.59 
L 263.814839 292.59 
L 264.017315 292.59 
L 264.219791 292.59 
L 264.422267 292.59 
L 264.624743 292.59 
L 264.827219 292.59 
L 265.029695 292.59 
L 265.232171 292.59 
L 265.434647 292.59 
L 265.637123 292.59 
L 265.839599 292.59 
L 266.042075 292.59 
L 266.244552 292.59 
L 266.447028 292.59 
L 266.649504 292.59 
L 266.85198 292.59 
L 267.054456 292.59 
L 267.256932 292.59 
L 267.459408 292.59 
L 267.661884 292.59 
L 267.86436 292.59 
L 268.066836 292.59 
L 268.269312 292.59 
L 268.471788 292.59 
L 268.674264 292.59 
L 268.87674 292.59 
L 269.079216 292.59 
L 269.281692 292.59 
L 269.484168 292.59 
L 269.686644 292.59 
L 269.88912 292.59 
L 270.091596 292.59 
L 270.294072 292.59 
L 270.496548 292.59 
L 270.699024 292.59 
L 270.9015 292.59 
L 271.103976 292.59 
L 271.306452 292.59 
L 271.508928 292.59 
L 271.711404 292.59 
L 271.91388 292.59 
L 272.116356 292.59 
L 272.318832 292.59 
L 272.521308 292.59 
L 272.723784 292.59 
L 272.92626 292.59 
L 273.128736 292.59 
L 273.331212 292.59 
L 273.533688 292.59 
L 273.736164 292.59 
L 273.93864 292.59 
L 274.141116 292.59 
L 274.343592 292.59 
L 274.546068 292.59 
L 274.748544 292.59 
L 274.95102 292.59 
L 275.153496 292.59 
L 275.355972 292.59 
L 275.558448 292.59 
L 275.760924 292.59 
L 275.963401 292.59 
L 276.165877 292.59 
L 276.368353 292.59 
L 276.570829 292.59 
L 276.773305 292.59 
L 276.975781 292.59 
L 277.178257 292.59 
L 277.178257 292.586545 
L 277.178257 292.586545 
L 276.975781 292.582185 
L 276.773305 292.571005 
L 276.570829 292.549028 
L 276.368353 292.513195 
L 276.165877 292.465161 
L 275.963401 292.414122 
L 275.760924 292.375136 
L 275.558448 292.361776 
L 275.355972 292.377017 
L 275.153496 292.408822 
L 274.95102 292.433483 
L 274.748544 292.423989 
L 274.546068 292.35905 
L 274.343592 292.230947 
L 274.141116 292.051076 
L 273.93864 291.848136 
L 273.736164 291.652303 
L 273.533688 291.467883 
L 273.331212 291.252809 
L 273.128736 290.928274 
L 272.92626 290.422065 
L 272.723784 289.716542 
L 272.521308 288.858692 
L 272.318832 287.915734 
L 272.116356 286.907801 
L 271.91388 285.774733 
L 271.711404 284.408294 
L 271.508928 282.723899 
L 271.306452 280.711753 
L 271.103976 278.429015 
L 270.9015 275.945897 
L 270.699024 273.286805 
L 270.496548 270.397391 
L 270.294072 267.148299 
L 270.091596 263.378361 
L 269.88912 258.970839 
L 269.686644 253.930099 
L 269.484168 248.403424 
L 269.281692 242.613085 
L 269.079216 236.726333 
L 268.87674 230.739635 
L 268.674264 224.443643 
L 268.471788 217.489223 
L 268.269312 209.536806 
L 268.066836 200.440224 
L 267.86436 190.376146 
L 267.661884 179.82057 
L 267.459408 169.352521 
L 267.256932 159.397265 
L 267.054456 150.078381 
L 266.85198 141.256897 
L 266.649504 132.68588 
L 266.447028 124.152594 
L 266.244552 115.546839 
L 266.042075 106.875589 
L 265.839599 98.260178 
L 265.637123 89.931194 
L 265.434647 82.222315 
L 265.232171 75.555406 
L 265.029695 70.404033 
L 264.827219 67.231954 
L 264.624743 66.411858 
L 264.422267 68.126757 
L 264.219791 72.272409 
L 264.017315 78.419327 
L 263.814839 85.894364 
L 263.612363 93.9702 
L 263.409887 102.069186 
L 263.207411 109.875931 
L 263.004935 117.31724 
L 262.802459 124.455347 
L 262.599983 131.387722 
L 262.397507 138.22014 
L 262.195031 145.102846 
L 261.992555 152.258292 
L 261.790079 159.934602 
L 261.587603 168.290129 
L 261.385127 177.291017 
L 261.182651 186.704107 
L 260.980175 196.181977 
L 260.777699 205.363507 
L 260.575223 213.934965 
L 260.372747 221.664114 
L 260.170271 228.438577 
L 259.967795 234.305807 
L 259.765319 239.480942 
L 259.562843 244.286574 
L 259.360367 249.021143 
L 259.157891 253.816239 
L 258.955415 258.581924 
L 258.752939 263.08688 
L 258.550463 267.110317 
L 258.347987 270.552488 
L 258.145511 273.449251 
L 257.943035 275.922926 
L 257.740559 278.122948 
L 257.538083 280.175254 
L 257.335607 282.139641 
L 257.133131 283.990032 
L 256.930655 285.639592 
L 256.728179 287.003741 
L 256.525703 288.059621 
L 256.323227 288.861327 
L 256.12075 289.505277 
L 255.918274 290.075415 
L 255.715798 290.606547 
L 255.513322 291.085034 
L 255.310846 291.477658 
L 255.10837 291.76313 
L 254.905894 291.945885 
L 254.703418 292.0499 
L 254.500942 292.103994 
L 254.298466 292.130808 
L 254.09599 292.144056 
L 253.893514 292.151532 
L 253.691038 292.159237 
L 253.488562 292.173637 
L 253.286086 292.201385 
L 253.08361 292.246947 
L 252.881134 292.309446 
L 252.678658 292.381316 
L 252.476182 292.450892 
L 252.273706 292.5078 
L 252.07123 292.547257 
L 251.868754 292.570501 
L 251.666278 292.582061 
L 251.463802 292.586523 
z
" style="fill-opacity:0.25;"/>
   </g>
   <g id="PolyCollection_3">
    <path clip-path="url(#pfb59bf68e5)" d="M 70.670072 292.588563 
L 70.670072 292.59 
L 71.210055 292.59 
L 71.750037 292.59 
L 72.290019 292.59 
L 72.830001 292.59 
L 73.369983 292.59 
L 73.909966 292.59 
L 74.449948 292.59 
L 74.98993 292.59 
L 75.529912 292.59 
L 76.069894 292.59 
L 76.609877 292.59 
L 77.149859 292.59 
L 77.689841 292.59 
L 78.229823 292.59 
L 78.769805 292.59 
L 79.309788 292.59 
L 79.84977 292.59 
L 80.389752 292.59 
L 80.929734 292.59 
L 81.469716 292.59 
L 82.009699 292.59 
L 82.549681 292.59 
L 83.089663 292.59 
L 83.629645 292.59 
L 84.169627 292.59 
L 84.70961 292.59 
L 85.249592 292.59 
L 85.789574 292.59 
L 86.329556 292.59 
L 86.869538 292.59 
L 87.409521 292.59 
L 87.949503 292.59 
L 88.489485 292.59 
L 89.029467 292.59 
L 89.569449 292.59 
L 90.109432 292.59 
L 90.649414 292.59 
L 91.189396 292.59 
L 91.729378 292.59 
L 92.26936 292.59 
L 92.809343 292.59 
L 93.349325 292.59 
L 93.889307 292.59 
L 94.429289 292.59 
L 94.969271 292.59 
L 95.509254 292.59 
L 96.049236 292.59 
L 96.589218 292.59 
L 97.1292 292.59 
L 97.669182 292.59 
L 98.209165 292.59 
L 98.749147 292.59 
L 99.289129 292.59 
L 99.829111 292.59 
L 100.369093 292.59 
L 100.909076 292.59 
L 101.449058 292.59 
L 101.98904 292.59 
L 102.529022 292.59 
L 103.069004 292.59 
L 103.608987 292.59 
L 104.148969 292.59 
L 104.688951 292.59 
L 105.228933 292.59 
L 105.768915 292.59 
L 106.308898 292.59 
L 106.84888 292.59 
L 107.388862 292.59 
L 107.928844 292.59 
L 108.468826 292.59 
L 109.008809 292.59 
L 109.548791 292.59 
L 110.088773 292.59 
L 110.628755 292.59 
L 111.168737 292.59 
L 111.70872 292.59 
L 112.248702 292.59 
L 112.788684 292.59 
L 113.328666 292.59 
L 113.868648 292.59 
L 114.408631 292.59 
L 114.948613 292.59 
L 115.488595 292.59 
L 116.028577 292.59 
L 116.568559 292.59 
L 117.108542 292.59 
L 117.648524 292.59 
L 118.188506 292.59 
L 118.728488 292.59 
L 119.26847 292.59 
L 119.808452 292.59 
L 120.348435 292.59 
L 120.888417 292.59 
L 121.428399 292.59 
L 121.968381 292.59 
L 122.508363 292.59 
L 123.048346 292.59 
L 123.588328 292.59 
L 124.12831 292.59 
L 124.668292 292.59 
L 125.208274 292.59 
L 125.748257 292.59 
L 126.288239 292.59 
L 126.828221 292.59 
L 127.368203 292.59 
L 127.908185 292.59 
L 128.448168 292.59 
L 128.98815 292.59 
L 129.528132 292.59 
L 130.068114 292.59 
L 130.608096 292.59 
L 131.148079 292.59 
L 131.688061 292.59 
L 132.228043 292.59 
L 132.768025 292.59 
L 133.308007 292.59 
L 133.84799 292.59 
L 134.387972 292.59 
L 134.927954 292.59 
L 135.467936 292.59 
L 136.007918 292.59 
L 136.547901 292.59 
L 137.087883 292.59 
L 137.627865 292.59 
L 138.167847 292.59 
L 138.707829 292.59 
L 139.247812 292.59 
L 139.247812 292.588542 
L 139.247812 292.588542 
L 138.707829 292.586458 
L 138.167847 292.58094 
L 137.627865 292.569646 
L 137.087883 292.550345 
L 136.547901 292.522712 
L 136.007918 292.489918 
L 135.467936 292.458618 
L 134.927954 292.436727 
L 134.387972 292.429792 
L 133.84799 292.437517 
L 133.308007 292.452008 
L 132.768025 292.458786 
L 132.228043 292.440334 
L 131.688061 292.380435 
L 131.148079 292.267591 
L 130.608096 292.097174 
L 130.068114 291.872431 
L 129.528132 291.603902 
L 128.98815 291.307359 
L 128.448168 291.000959 
L 127.908185 290.699784 
L 127.368203 290.405474 
L 126.828221 290.097222 
L 126.288239 289.73796 
L 125.748257 289.297252 
L 125.208274 288.769521 
L 124.668292 288.166666 
L 124.12831 287.49188 
L 123.588328 286.718941 
L 123.048346 285.789651 
L 122.508363 284.628864 
L 121.968381 283.178558 
L 121.428399 281.445695 
L 120.888417 279.531817 
L 120.348435 277.603176 
L 119.808452 275.800779 
L 119.26847 274.149629 
L 118.728488 272.539512 
L 118.188506 270.79275 
L 117.648524 268.760444 
L 117.108542 266.373506 
L 116.568559 263.630097 
L 116.028577 260.560336 
L 115.488595 257.208578 
L 114.948613 253.629601 
L 114.408631 249.874692 
L 113.868648 245.96976 
L 113.328666 241.914727 
L 112.788684 237.719611 
L 112.248702 233.4537 
L 111.70872 229.261624 
L 111.168737 225.317218 
L 110.628755 221.739555 
L 110.088773 218.545721 
L 109.548791 215.696145 
L 109.008809 213.19399 
L 108.468826 211.131241 
L 107.928844 209.62519 
L 107.388862 208.710169 
L 106.84888 208.298343 
L 106.308898 208.247649 
L 105.768915 208.470205 
L 105.228933 208.989947 
L 104.688951 209.914736 
L 104.148969 211.358109 
L 103.608987 213.379835 
L 103.069004 215.990788 
L 102.529022 219.194432 
L 101.98904 222.98467 
L 101.449058 227.27025 
L 100.909076 231.811792 
L 100.369093 236.283143 
L 99.829111 240.437284 
L 99.289129 244.22339 
L 98.749147 247.749502 
L 98.209165 251.153902 
L 97.669182 254.515866 
L 97.1292 257.847522 
L 96.589218 261.121311 
L 96.049236 264.297959 
L 95.509254 267.351596 
L 94.969271 270.277897 
L 94.429289 273.067131 
L 93.889307 275.663272 
L 93.349325 277.95941 
L 92.809343 279.849163 
L 92.26936 281.296987 
L 91.729378 282.370783 
L 91.189396 283.213374 
L 90.649414 283.97751 
L 90.109432 284.769441 
L 89.569449 285.629382 
L 89.029467 286.544912 
L 88.489485 287.473317 
L 87.949503 288.354961 
L 87.409521 289.121585 
L 86.869538 289.713852 
L 86.329556 290.107826 
L 85.789574 290.33085 
L 85.249592 290.451459 
L 84.70961 290.550933 
L 84.169627 290.69624 
L 83.629645 290.924 
L 83.089663 291.233096 
L 82.549681 291.586179 
L 82.009699 291.925349 
L 81.469716 292.198563 
L 80.929734 292.380569 
L 80.389752 292.475468 
L 79.84977 292.504572 
L 79.309788 292.493039 
L 78.769805 292.463332 
L 78.229823 292.433619 
L 77.689841 292.416244 
L 77.149859 292.415375 
L 76.609877 292.42693 
L 76.069894 292.442865 
L 75.529912 292.457558 
L 74.98993 292.471178 
L 74.449948 292.487443 
L 73.909966 292.508546 
L 73.369983 292.53245 
L 72.830001 292.554552 
L 72.290019 292.571165 
L 71.750037 292.581401 
L 71.210055 292.586575 
L 70.670072 292.588563 
z
" style="fill:#e31a1c;fill-opacity:0.25;"/>
   </g>
   <g id="PolyCollection_4">
    <path clip-path="url(#pfb59bf68e5)" d="M 302.814005 292.587194 
L 302.814005 292.59 
L 303.123987 292.59 
L 303.433969 292.59 
L 303.74395 292.59 
L 304.053932 292.59 
L 304.363914 292.59 
L 304.673896 292.59 
L 304.983878 292.59 
L 305.29386 292.59 
L 305.603842 292.59 
L 305.913824 292.59 
L 306.223805 292.59 
L 306.533787 292.59 
L 306.843769 292.59 
L 307.153751 292.59 
L 307.463733 292.59 
L 307.773715 292.59 
L 308.083697 292.59 
L 308.393678 292.59 
L 308.70366 292.59 
L 309.013642 292.59 
L 309.323624 292.59 
L 309.633606 292.59 
L 309.943588 292.59 
L 310.25357 292.59 
L 310.563552 292.59 
L 310.873533 292.59 
L 311.183515 292.59 
L 311.493497 292.59 
L 311.803479 292.59 
L 312.113461 292.59 
L 312.423443 292.59 
L 312.733425 292.59 
L 313.043406 292.59 
L 313.353388 292.59 
L 313.66337 292.59 
L 313.973352 292.59 
L 314.283334 292.59 
L 314.593316 292.59 
L 314.903298 292.59 
L 315.21328 292.59 
L 315.523261 292.59 
L 315.833243 292.59 
L 316.143225 292.59 
L 316.453207 292.59 
L 316.763189 292.59 
L 317.073171 292.59 
L 317.383153 292.59 
L 317.693134 292.59 
L 318.003116 292.59 
L 318.313098 292.59 
L 318.62308 292.59 
L 318.933062 292.59 
L 319.243044 292.59 
L 319.553026 292.59 
L 319.863007 292.59 
L 320.172989 292.59 
L 320.482971 292.59 
L 320.792953 292.59 
L 321.102935 292.59 
L 321.412917 292.59 
L 321.722899 292.59 
L 322.032881 292.59 
L 322.342862 292.59 
L 322.652844 292.59 
L 322.962826 292.59 
L 323.272808 292.59 
L 323.58279 292.59 
L 323.892772 292.59 
L 324.202754 292.59 
L 324.512735 292.59 
L 324.822717 292.59 
L 325.132699 292.59 
L 325.442681 292.59 
L 325.752663 292.59 
L 326.062645 292.59 
L 326.372627 292.59 
L 326.682609 292.59 
L 326.99259 292.59 
L 327.302572 292.59 
L 327.612554 292.59 
L 327.922536 292.59 
L 328.232518 292.59 
L 328.5425 292.59 
L 328.852482 292.59 
L 329.162463 292.59 
L 329.472445 292.59 
L 329.782427 292.59 
L 330.092409 292.59 
L 330.402391 292.59 
L 330.712373 292.59 
L 331.022355 292.59 
L 331.332337 292.59 
L 331.642318 292.59 
L 331.9523 292.59 
L 332.262282 292.59 
L 332.572264 292.59 
L 332.882246 292.59 
L 333.192228 292.59 
L 333.50221 292.59 
L 333.812191 292.59 
L 334.122173 292.59 
L 334.432155 292.59 
L 334.742137 292.59 
L 335.052119 292.59 
L 335.362101 292.59 
L 335.672083 292.59 
L 335.982065 292.59 
L 336.292046 292.59 
L 336.602028 292.59 
L 336.91201 292.59 
L 337.221992 292.59 
L 337.531974 292.59 
L 337.841956 292.59 
L 338.151938 292.59 
L 338.461919 292.59 
L 338.771901 292.59 
L 339.081883 292.59 
L 339.391865 292.59 
L 339.701847 292.59 
L 340.011829 292.59 
L 340.321811 292.59 
L 340.631792 292.59 
L 340.941774 292.59 
L 341.251756 292.59 
L 341.561738 292.59 
L 341.87172 292.59 
L 342.181702 292.59 
L 342.181702 292.587648 
L 342.181702 292.587648 
L 341.87172 292.585587 
L 341.561738 292.580255 
L 341.251756 292.570033 
L 340.941774 292.553259 
L 340.631792 292.529384 
L 340.321811 292.499952 
L 340.011829 292.468507 
L 339.701847 292.438892 
L 339.391865 292.412747 
L 339.081883 292.388247 
L 338.771901 292.361663 
L 338.461919 292.330995 
L 338.151938 292.298635 
L 337.841956 292.270304 
L 337.531974 292.25063 
L 337.221992 292.238743 
L 336.91201 292.227263 
L 336.602028 292.205024 
L 336.292046 292.161161 
L 335.982065 292.088079 
L 335.672083 291.982594 
L 335.362101 291.845589 
L 335.052119 291.68034 
L 334.742137 291.489472 
L 334.432155 291.27152 
L 334.122173 291.018902 
L 333.812191 290.718399 
L 333.50221 290.353507 
L 333.192228 289.907285 
L 332.882246 289.36501 
L 332.572264 288.716741 
L 332.262282 287.959646 
L 331.9523 287.099215 
L 331.642318 286.14848 
L 331.332337 285.125261 
L 331.022355 284.04863 
L 330.712373 282.936016 
L 330.402391 281.801104 
L 330.092409 280.650234 
L 329.782427 279.474209 
L 329.472445 278.236261 
L 329.162463 276.863833 
L 328.852482 275.255257 
L 328.5425 273.30583 
L 328.232518 270.943677 
L 327.922536 268.155224 
L 327.612554 264.98384 
L 327.302572 261.502588 
L 326.99259 257.779945 
L 326.682609 253.86101 
L 326.372627 249.772805 
L 326.062645 245.542719 
L 325.752663 241.211068 
L 325.442681 236.82823 
L 325.132699 232.442804 
L 324.822717 228.093642 
L 324.512735 223.811631 
L 324.202754 219.626548 
L 323.892772 215.569939 
L 323.58279 211.667764 
L 323.272808 207.923624 
L 322.962826 204.302136 
L 322.652844 200.726123 
L 322.342862 197.094755 
L 322.032881 193.316933 
L 321.722899 189.348038 
L 321.412917 185.221808 
L 321.102935 181.070716 
L 320.792953 177.121463 
L 320.482971 173.650439 
L 320.172989 170.90228 
L 319.863007 169.004257 
L 319.553026 167.923772 
L 319.243044 167.49923 
L 318.933062 167.533624 
L 318.62308 167.899543 
L 318.313098 168.59141 
L 318.003116 169.691938 
L 317.693134 171.281621 
L 317.383153 173.365641 
L 317.073171 175.876751 
L 316.763189 178.742457 
L 316.453207 181.944938 
L 316.143225 185.512403 
L 315.833243 189.451268 
L 315.523261 193.688678 
L 315.21328 198.086839 
L 314.903298 202.525122 
L 314.593316 206.983956 
L 314.283334 211.559063 
L 313.973352 216.388997 
L 313.66337 221.54852 
L 313.353388 226.987588 
L 313.043406 232.557854 
L 312.733425 238.098501 
L 312.423443 243.511254 
L 312.113461 248.772673 
L 311.803479 253.888001 
L 311.493497 258.833916 
L 311.183515 263.535789 
L 310.873533 267.889034 
L 310.563552 271.799929 
L 310.25357 275.215288 
L 309.943588 278.12862 
L 309.633606 280.569797 
L 309.323624 282.590207 
L 309.013642 284.249916 
L 308.70366 285.60884 
L 308.393678 286.722924 
L 308.083697 287.644299 
L 307.773715 288.421022 
L 307.463733 289.092886 
L 307.153751 289.685813 
L 306.843769 290.211221 
L 306.533787 290.672528 
L 306.223805 291.073323 
L 305.913824 291.420205 
L 305.603842 291.71947 
L 305.29386 291.973118 
L 304.983878 292.179108 
L 304.673896 292.335523 
L 304.363914 292.444645 
L 304.053932 292.513868 
L 303.74395 292.553577 
L 303.433969 292.574099 
L 303.123987 292.58356 
L 302.814005 292.587194 
z
" style="fill:#33a02c;fill-opacity:0.25;"/>
   </g>
   <g id="PolyCollection_5">
    <path clip-path="url(#pfb59bf68e5)" d="M 450.449963 292.584667 
L 450.449963 292.59 
L 450.654988 292.59 
L 450.860014 292.59 
L 451.06504 292.59 
L 451.270066 292.59 
L 451.475092 292.59 
L 451.680118 292.59 
L 451.885144 292.59 
L 452.09017 292.59 
L 452.295196 292.59 
L 452.500222 292.59 
L 452.705248 292.59 
L 452.910274 292.59 
L 453.115299 292.59 
L 453.320325 292.59 
L 453.525351 292.59 
L 453.730377 292.59 
L 453.935403 292.59 
L 454.140429 292.59 
L 454.345455 292.59 
L 454.550481 292.59 
L 454.755507 292.59 
L 454.960533 292.59 
L 455.165559 292.59 
L 455.370585 292.59 
L 455.575611 292.59 
L 455.780636 292.59 
L 455.985662 292.59 
L 456.190688 292.59 
L 456.395714 292.59 
L 456.60074 292.59 
L 456.805766 292.59 
L 457.010792 292.59 
L 457.215818 292.59 
L 457.420844 292.59 
L 457.62587 292.59 
L 457.830896 292.59 
L 458.035922 292.59 
L 458.240947 292.59 
L 458.445973 292.59 
L 458.650999 292.59 
L 458.856025 292.59 
L 459.061051 292.59 
L 459.266077 292.59 
L 459.471103 292.59 
L 459.676129 292.59 
L 459.881155 292.59 
L 460.086181 292.59 
L 460.291207 292.59 
L 460.496233 292.59 
L 460.701258 292.59 
L 460.906284 292.59 
L 461.11131 292.59 
L 461.316336 292.59 
L 461.521362 292.59 
L 461.726388 292.59 
L 461.931414 292.59 
L 462.13644 292.59 
L 462.341466 292.59 
L 462.546492 292.59 
L 462.751518 292.59 
L 462.956544 292.59 
L 463.16157 292.59 
L 463.366595 292.59 
L 463.571621 292.59 
L 463.776647 292.59 
L 463.981673 292.59 
L 464.186699 292.59 
L 464.391725 292.59 
L 464.596751 292.59 
L 464.801777 292.59 
L 465.006803 292.59 
L 465.211829 292.59 
L 465.416855 292.59 
L 465.621881 292.59 
L 465.826906 292.59 
L 466.031932 292.59 
L 466.236958 292.59 
L 466.441984 292.59 
L 466.64701 292.59 
L 466.852036 292.59 
L 467.057062 292.59 
L 467.262088 292.59 
L 467.467114 292.59 
L 467.67214 292.59 
L 467.877166 292.59 
L 468.082192 292.59 
L 468.287217 292.59 
L 468.492243 292.59 
L 468.697269 292.59 
L 468.902295 292.59 
L 469.107321 292.59 
L 469.312347 292.59 
L 469.517373 292.59 
L 469.722399 292.59 
L 469.927425 292.59 
L 470.132451 292.59 
L 470.337477 292.59 
L 470.542503 292.59 
L 470.747529 292.59 
L 470.952554 292.59 
L 471.15758 292.59 
L 471.362606 292.59 
L 471.567632 292.59 
L 471.772658 292.59 
L 471.977684 292.59 
L 472.18271 292.59 
L 472.387736 292.59 
L 472.592762 292.59 
L 472.797788 292.59 
L 473.002814 292.59 
L 473.20784 292.59 
L 473.412865 292.59 
L 473.617891 292.59 
L 473.822917 292.59 
L 474.027943 292.59 
L 474.232969 292.59 
L 474.437995 292.59 
L 474.643021 292.59 
L 474.848047 292.59 
L 475.053073 292.59 
L 475.258099 292.59 
L 475.463125 292.59 
L 475.668151 292.59 
L 475.873176 292.59 
L 476.078202 292.59 
L 476.283228 292.59 
L 476.488254 292.59 
L 476.488254 292.586016 
L 476.488254 292.586016 
L 476.283228 292.582631 
L 476.078202 292.573218 
L 475.873176 292.554624 
L 475.668151 292.523376 
L 475.463125 292.477791 
L 475.258099 292.419754 
L 475.053073 292.354605 
L 474.848047 292.288416 
L 474.643021 292.224045 
L 474.437995 292.158717 
L 474.232969 292.084926 
L 474.027943 291.993969 
L 473.822917 291.87965 
L 473.617891 291.739873 
L 473.412865 291.575477 
L 473.20784 291.387681 
L 473.002814 291.176743 
L 472.797788 290.943233 
L 472.592762 290.689965 
L 472.387736 290.420202 
L 472.18271 290.129513 
L 471.977684 289.793529 
L 471.772658 289.358293 
L 471.567632 288.741564 
L 471.362606 287.851902 
L 471.15758 286.625796 
L 470.952554 285.06939 
L 470.747529 283.276552 
L 470.542503 281.395306 
L 470.337477 279.542684 
L 470.132451 277.711909 
L 469.927425 275.739333 
L 469.722399 273.371024 
L 469.517373 270.400894 
L 469.312347 266.794344 
L 469.107321 262.713574 
L 468.902295 258.427096 
L 468.697269 254.166604 
L 468.492243 250.025282 
L 468.287217 245.950329 
L 468.082192 241.808536 
L 467.877166 237.46135 
L 467.67214 232.8039 
L 467.467114 227.771502 
L 467.262088 222.344903 
L 467.057062 216.568999 
L 466.852036 210.562516 
L 466.64701 204.481119 
L 466.441984 198.427483 
L 466.236958 192.359785 
L 466.031932 186.077718 
L 465.826906 179.316299 
L 465.621881 171.88141 
L 465.416855 163.717716 
L 465.211829 154.872086 
L 465.006803 145.433901 
L 464.801777 135.55872 
L 464.596751 125.574248 
L 464.391725 116.044458 
L 464.186699 107.669467 
L 463.981673 101.034642 
L 463.776647 96.367214 
L 463.571621 93.477817 
L 463.366595 91.933146 
L 463.16157 91.332256 
L 462.956544 91.494486 
L 462.751518 92.463888 
L 462.546492 94.388297 
L 462.341466 97.3912 
L 462.13644 101.496543 
L 461.931414 106.599651 
L 461.726388 112.48109 
L 461.521362 118.882087 
L 461.316336 125.619721 
L 461.11131 132.651347 
L 460.906284 140.009091 
L 460.701258 147.638875 
L 460.496233 155.284133 
L 460.291207 162.537417 
L 460.086181 169.050805 
L 459.881155 174.76366 
L 459.676129 179.982408 
L 459.471103 185.24719 
L 459.266077 191.065958 
L 459.061051 197.680901 
L 458.856025 204.998008 
L 458.650999 212.692458 
L 458.445973 220.393786 
L 458.240947 227.828333 
L 458.035922 234.853148 
L 457.830896 241.400435 
L 457.62587 247.404711 
L 457.420844 252.777371 
L 457.215818 257.440985 
L 457.010792 261.384797 
L 456.805766 264.693114 
L 456.60074 267.527864 
L 456.395714 270.08044 
L 456.190688 272.518108 
L 455.985662 274.940738 
L 455.780636 277.355647 
L 455.575611 279.679826 
L 455.370585 281.777703 
L 455.165559 283.527008 
L 454.960533 284.883091 
L 454.755507 285.90473 
L 454.550481 286.724389 
L 454.345455 287.480846 
L 454.140429 288.255418 
L 453.935403 289.047282 
L 453.730377 289.79509 
L 453.525351 290.424005 
L 453.320325 290.887838 
L 453.115299 291.186817 
L 452.910274 291.360292 
L 452.705248 291.466124 
L 452.500222 291.55934 
L 452.295196 291.67682 
L 452.09017 291.830178 
L 451.885144 292.007645 
L 451.680118 292.184165 
L 451.475092 292.335096 
L 451.270066 292.446562 
L 451.06504 292.517976 
L 450.860014 292.557774 
L 450.654988 292.576999 
L 450.449963 292.584667 
z
" style="fill:#ff7f00;fill-opacity:0.25;"/>
   </g>
   <g id="PolyCollection_6">
    <path clip-path="url(#pfb59bf68e5)" d="M 273.287051 292.585808 
L 273.287051 292.59 
L 273.451692 292.59 
L 273.616333 292.59 
L 273.780974 292.59 
L 273.945615 292.59 
L 274.110256 292.59 
L 274.274897 292.59 
L 274.439538 292.59 
L 274.604179 292.59 
L 274.76882 292.59 
L 274.933461 292.59 
L 275.098103 292.59 
L 275.262744 292.59 
L 275.427385 292.59 
L 275.592026 292.59 
L 275.756667 292.59 
L 275.921308 292.59 
L 276.085949 292.59 
L 276.25059 292.59 
L 276.415231 292.59 
L 276.579872 292.59 
L 276.744513 292.59 
L 276.909154 292.59 
L 277.073795 292.59 
L 277.238436 292.59 
L 277.403077 292.59 
L 277.567718 292.59 
L 277.732359 292.59 
L 277.897 292.59 
L 278.061642 292.59 
L 278.226283 292.59 
L 278.390924 292.59 
L 278.555565 292.59 
L 278.720206 292.59 
L 278.884847 292.59 
L 279.049488 292.59 
L 279.214129 292.59 
L 279.37877 292.59 
L 279.543411 292.59 
L 279.708052 292.59 
L 279.872693 292.59 
L 280.037334 292.59 
L 280.201975 292.59 
L 280.366616 292.59 
L 280.531257 292.59 
L 280.695898 292.59 
L 280.860539 292.59 
L 281.025181 292.59 
L 281.189822 292.59 
L 281.354463 292.59 
L 281.519104 292.59 
L 281.683745 292.59 
L 281.848386 292.59 
L 282.013027 292.59 
L 282.177668 292.59 
L 282.342309 292.59 
L 282.50695 292.59 
L 282.671591 292.59 
L 282.836232 292.59 
L 283.000873 292.59 
L 283.165514 292.59 
L 283.330155 292.59 
L 283.494796 292.59 
L 283.659437 292.59 
L 283.824078 292.59 
L 283.98872 292.59 
L 284.153361 292.59 
L 284.318002 292.59 
L 284.482643 292.59 
L 284.647284 292.59 
L 284.811925 292.59 
L 284.976566 292.59 
L 285.141207 292.59 
L 285.305848 292.59 
L 285.470489 292.59 
L 285.63513 292.59 
L 285.799771 292.59 
L 285.964412 292.59 
L 286.129053 292.59 
L 286.293694 292.59 
L 286.458335 292.59 
L 286.622976 292.59 
L 286.787617 292.59 
L 286.952259 292.59 
L 287.1169 292.59 
L 287.281541 292.59 
L 287.446182 292.59 
L 287.610823 292.59 
L 287.775464 292.59 
L 287.940105 292.59 
L 288.104746 292.59 
L 288.269387 292.59 
L 288.434028 292.59 
L 288.598669 292.59 
L 288.76331 292.59 
L 288.927951 292.59 
L 289.092592 292.59 
L 289.257233 292.59 
L 289.421874 292.59 
L 289.586515 292.59 
L 289.751156 292.59 
L 289.915798 292.59 
L 290.080439 292.59 
L 290.24508 292.59 
L 290.409721 292.59 
L 290.574362 292.59 
L 290.739003 292.59 
L 290.903644 292.59 
L 291.068285 292.59 
L 291.232926 292.59 
L 291.397567 292.59 
L 291.562208 292.59 
L 291.726849 292.59 
L 291.89149 292.59 
L 292.056131 292.59 
L 292.220772 292.59 
L 292.385413 292.59 
L 292.550054 292.59 
L 292.714695 292.59 
L 292.879337 292.59 
L 293.043978 292.59 
L 293.208619 292.59 
L 293.37326 292.59 
L 293.537901 292.59 
L 293.702542 292.59 
L 293.867183 292.59 
L 294.031824 292.59 
L 294.196465 292.59 
L 294.196465 292.585664 
L 294.196465 292.585664 
L 294.031824 292.579857 
L 293.867183 292.564571 
L 293.702542 292.532956 
L 293.537901 292.477387 
L 293.37326 292.394056 
L 293.208619 292.288139 
L 293.043978 292.17531 
L 292.879337 292.075921 
L 292.714695 292.003014 
L 292.550054 291.951351 
L 292.385413 291.896021 
L 292.220772 291.803481 
L 292.056131 291.649022 
L 291.89149 291.429967 
L 291.726849 291.167152 
L 291.562208 290.895083 
L 291.397567 290.647567 
L 291.232926 290.446769 
L 291.068285 290.29907 
L 290.903644 290.193436 
L 290.739003 290.095409 
L 290.574362 289.938396 
L 290.409721 289.624753 
L 290.24508 289.045329 
L 290.080439 288.108054 
L 289.915798 286.757605 
L 289.751156 284.982228 
L 289.586515 282.819356 
L 289.421874 280.361448 
L 289.257233 277.739562 
L 289.092592 275.065363 
L 288.927951 272.352703 
L 288.76331 269.473753 
L 288.598669 266.190618 
L 288.434028 262.25405 
L 288.269387 257.517784 
L 288.104746 252.002274 
L 287.940105 245.861623 
L 287.775464 239.266633 
L 287.610823 232.288587 
L 287.446182 224.884675 
L 287.281541 217.005811 
L 287.1169 208.726052 
L 286.952259 200.24797 
L 286.787617 191.735932 
L 286.622976 183.09957 
L 286.458335 173.929816 
L 286.293694 163.681742 
L 286.129053 151.993009 
L 285.964412 138.922525 
L 285.799771 124.975271 
L 285.63513 110.933612 
L 285.470489 97.597067 
L 285.305848 85.528207 
L 285.141207 74.887871 
L 284.976566 65.438186 
L 284.811925 56.74112 
L 284.647284 48.464085 
L 284.482643 40.608564 
L 284.318002 33.515699 
L 284.153361 27.6695 
L 283.98872 23.468237 
L 283.824078 21.133495 
L 283.659437 20.79 
L 283.494796 22.60085 
L 283.330155 26.79092 
L 283.165514 33.475823 
L 283.000873 42.390482 
L 282.836232 52.746304 
L 282.671591 63.401515 
L 282.50695 73.309498 
L 282.342309 81.987429 
L 282.177668 89.710316 
L 282.013027 97.310349 
L 281.848386 105.702813 
L 281.683745 115.400955 
L 281.519104 126.268148 
L 281.354463 137.627449 
L 281.189822 148.662114 
L 281.025181 158.867134 
L 280.860539 168.267425 
L 280.695898 177.277716 
L 280.531257 186.343654 
L 280.366616 195.648627 
L 280.201975 205.072328 
L 280.037334 214.355402 
L 279.872693 223.280452 
L 279.708052 231.726559 
L 279.543411 239.604462 
L 279.37877 246.781637 
L 279.214129 253.092346 
L 279.049488 258.433275 
L 278.884847 262.856167 
L 278.720206 266.562987 
L 278.555565 269.796599 
L 278.390924 272.717058 
L 278.226283 275.361004 
L 278.061642 277.698079 
L 277.897 279.71719 
L 277.732359 281.469412 
L 277.567718 283.046591 
L 277.403077 284.525419 
L 277.238436 285.92263 
L 277.073795 287.191534 
L 276.909154 288.259956 
L 276.744513 289.082884 
L 276.579872 289.675404 
L 276.415231 290.106796 
L 276.25059 290.463039 
L 276.085949 290.804445 
L 275.921308 291.145495 
L 275.756667 291.465512 
L 275.592026 291.735788 
L 275.427385 291.940337 
L 275.262744 292.079499 
L 275.098103 292.163538 
L 274.933461 292.208077 
L 274.76882 292.233348 
L 274.604179 292.260877 
L 274.439538 292.305214 
L 274.274897 292.36717 
L 274.110256 292.435569 
L 273.945615 292.496204 
L 273.780974 292.540319 
L 273.616333 292.56706 
L 273.451692 292.580577 
L 273.287051 292.585808 
z
" style="fill:#1f78b4;fill-opacity:0.25;"/>
   </g>
   <g id="line2d_14">
    <path clip-path="url(#pfb59bf68e5)" d="M 284.145698 292.58043 
L 284.654855 292.502025 
L 285.164012 292.156527 
L 286.012607 291.411264 
L 286.352045 291.137226 
L 286.691483 290.590754 
L 287.879516 288.133505 
L 288.218954 286.653591 
L 288.728112 282.748902 
L 289.406988 274.865392 
L 290.085864 263.927774 
L 291.104178 241.383603 
L 291.613335 226.285704 
L 293.140806 167.801075 
L 294.837996 90.568726 
L 295.177434 81.096364 
L 295.516872 77.769506 
L 295.686591 78.151323 
L 296.704906 84.794717 
L 297.044344 90.518711 
L 297.383782 102.161534 
L 298.571815 150.693788 
L 299.250691 179.94374 
L 300.608443 243.682218 
L 301.1176 258.080754 
L 302.305633 278.2852 
L 302.81479 284.620363 
L 303.323947 287.929582 
L 304.002823 290.499477 
L 304.511981 291.812804 
L 304.851419 292.297104 
L 305.190857 292.509238 
L 305.700014 292.581249 
L 305.700014 292.581249 
" style="fill:none;stroke:#0000ff;stroke-linecap:round;stroke-width:2;"/>
   </g>
   <g id="line2d_15">
    <path clip-path="url(#pfb59bf68e5)" d="M 251.463802 292.586523 
L 252.273706 292.5078 
L 253.893514 292.151532 
L 254.703418 292.0499 
L 255.10837 291.76313 
L 255.513322 291.085034 
L 256.12075 289.505277 
L 256.525703 288.059621 
L 256.930655 285.639592 
L 257.538083 280.175254 
L 258.145511 273.449251 
L 258.550463 267.110317 
L 259.360367 249.021143 
L 260.170271 228.438577 
L 260.777699 205.363507 
L 262.195031 145.102846 
L 263.612363 93.9702 
L 264.219791 72.272409 
L 264.422267 68.126757 
L 264.624743 66.411858 
L 264.827219 67.231954 
L 265.029695 70.404033 
L 265.434647 82.222315 
L 266.649504 132.68588 
L 267.661884 179.82057 
L 268.471788 217.489223 
L 269.281692 242.613085 
L 270.091596 263.378361 
L 270.699024 273.286805 
L 271.508928 282.723899 
L 272.116356 286.907801 
L 272.92626 290.422065 
L 273.331212 291.252809 
L 274.343592 292.230947 
L 274.748544 292.423989 
L 277.178257 292.586545 
L 277.178257 292.586545 
" style="fill:none;stroke:#000000;stroke-linecap:round;stroke-width:2;"/>
   </g>
   <g id="line2d_16">
    <path clip-path="url(#pfb59bf68e5)" d="M 70.670072 292.588563 
L 74.98993 292.471178 
L 78.769805 292.463332 
L 80.389752 292.475468 
L 81.469716 292.198563 
L 82.549681 291.586179 
L 83.629645 290.924 
L 84.70961 290.550933 
L 85.789574 290.33085 
L 86.329556 290.107826 
L 86.869538 289.713852 
L 87.409521 289.121585 
L 88.489485 287.473317 
L 90.649414 283.97751 
L 91.729378 282.370783 
L 92.26936 281.296987 
L 92.809343 279.849163 
L 93.349325 277.95941 
L 94.429289 273.067131 
L 96.049236 264.297959 
L 98.209165 251.153902 
L 99.829111 240.437284 
L 103.069004 215.990788 
L 103.608987 213.379835 
L 104.148969 211.358109 
L 104.688951 209.914736 
L 105.228933 208.989947 
L 105.768915 208.470205 
L 106.308898 208.247649 
L 106.84888 208.298343 
L 107.388862 208.710169 
L 107.928844 209.62519 
L 108.468826 211.131241 
L 109.008809 213.19399 
L 110.088773 218.545721 
L 111.168737 225.317218 
L 112.788684 237.719611 
L 114.408631 249.874692 
L 116.028577 260.560336 
L 117.108542 266.373506 
L 118.188506 270.79275 
L 122.508363 284.628864 
L 123.588328 286.718941 
L 124.668292 288.166666 
L 125.748257 289.297252 
L 126.828221 290.097222 
L 130.068114 291.872431 
L 131.148079 292.267591 
L 132.228043 292.440334 
L 139.247812 292.588542 
L 139.247812 292.588542 
" style="fill:none;stroke:#e31a1c;stroke-linecap:round;stroke-width:2;"/>
   </g>
   <g id="line2d_17">
    <path clip-path="url(#pfb59bf68e5)" d="M 302.814005 292.587194 
L 304.053932 292.513868 
L 304.673896 292.335523 
L 305.29386 291.973118 
L 306.223805 291.073323 
L 306.843769 290.211221 
L 307.773715 288.421022 
L 308.393678 286.722924 
L 309.013642 284.249916 
L 309.633606 280.569797 
L 310.25357 275.215288 
L 310.873533 267.889034 
L 311.803479 253.888001 
L 315.523261 193.688678 
L 316.453207 181.944938 
L 317.383153 173.365641 
L 318.003116 169.691938 
L 318.62308 167.899543 
L 318.933062 167.533624 
L 319.243044 167.49923 
L 319.553026 167.923772 
L 319.863007 169.004257 
L 320.172989 170.90228 
L 320.792953 177.121463 
L 326.062645 245.542719 
L 327.302572 261.502588 
L 328.232518 270.943677 
L 328.852482 275.255257 
L 329.472445 278.236261 
L 331.022355 284.04863 
L 332.262282 287.959646 
L 332.882246 289.36501 
L 333.50221 290.353507 
L 334.122173 291.018902 
L 335.052119 291.68034 
L 335.982065 292.088079 
L 336.91201 292.227263 
L 339.701847 292.438892 
L 342.181702 292.587648 
L 342.181702 292.587648 
" style="fill:none;stroke:#33a02c;stroke-linecap:round;stroke-width:2;"/>
   </g>
   <g id="line2d_18">
    <path clip-path="url(#pfb59bf68e5)" d="M 450.449963 292.584667 
L 451.270066 292.446562 
L 451.885144 292.007645 
L 452.500222 291.55934 
L 453.115299 291.186817 
L 453.525351 290.424005 
L 454.140429 288.255418 
L 454.960533 284.883091 
L 455.370585 281.777703 
L 456.190688 272.518108 
L 456.805766 264.693114 
L 457.215818 257.440985 
L 457.830896 241.400435 
L 458.650999 212.692458 
L 459.471103 185.24719 
L 460.291207 162.537417 
L 461.931414 106.599651 
L 462.341466 97.3912 
L 462.751518 92.463888 
L 462.956544 91.494486 
L 463.16157 91.332256 
L 463.366595 91.933146 
L 463.571621 93.477817 
L 463.776647 96.367214 
L 464.186699 107.669467 
L 465.006803 145.433901 
L 465.826906 179.316299 
L 467.057062 216.568999 
L 467.877166 237.46135 
L 469.517373 270.400894 
L 470.132451 277.711909 
L 471.362606 287.851902 
L 471.772658 289.358293 
L 472.387736 290.420202 
L 473.20784 291.387681 
L 474.027943 291.993969 
L 475.258099 292.419754 
L 476.078202 292.573218 
L 476.488254 292.586016 
L 476.488254 292.586016 
" style="fill:none;stroke:#ff7f00;stroke-linecap:round;stroke-width:2;"/>
   </g>
   <g id="line2d_19">
    <path clip-path="url(#pfb59bf68e5)" d="M 273.287051 292.585808 
L 273.945615 292.496204 
L 275.427385 291.940337 
L 275.756667 291.465512 
L 276.579872 289.675404 
L 276.909154 288.259956 
L 277.403077 284.525419 
L 278.061642 277.698079 
L 278.555565 269.796599 
L 279.049488 258.433275 
L 279.543411 239.604462 
L 280.366616 195.648627 
L 283.494796 22.60085 
L 283.659437 20.79 
L 283.824078 21.133495 
L 283.98872 23.468237 
L 284.318002 33.515699 
L 284.976566 65.438186 
L 285.470489 97.597067 
L 286.622976 183.09957 
L 287.775464 239.266633 
L 288.434028 262.25405 
L 288.927951 272.352703 
L 289.751156 284.982228 
L 290.080439 288.108054 
L 290.409721 289.624753 
L 290.739003 290.095409 
L 291.232926 290.446769 
L 291.726849 291.167152 
L 292.220772 291.803481 
L 293.702542 292.532956 
L 294.196465 292.585664 
L 294.196465 292.585664 
" style="fill:none;stroke:#1f78b4;stroke-linecap:round;stroke-width:2;"/>
   </g>
   <g id="line2d_20">
    <path clip-path="url(#pfb59bf68e5)" d="M 319.366674 306.18 
L 319.366674 7.2 
" style="fill:none;stroke:#33a02c;stroke-dasharray:8.4,3.6;stroke-dashoffset:0;stroke-width:3;"/>
   </g>
   <g id="patch_3">
    <path d="M 50.379163 306.18 
L 50.379163 7.2 
" style="fill:none;"/>
   </g>
   <g id="patch_4">
    <path d="M 496.779163 306.18 
L 496.779163 7.2 
" style="fill:none;"/>
   </g>
   <g id="patch_5">
    <path d="M 50.379163 306.18 
L 496.779163 306.18 
" style="fill:none;"/>
   </g>
   <g id="patch_6">
    <path d="M 50.379163 7.2 
L 496.779163 7.2 
" style="fill:none;"/>
   </g>
   <g id="legend_1">
    <g id="line2d_21">
     <path d="M 62.979163 24.7 
L 90.979163 24.7 
" style="fill:none;stroke:#0000ff;stroke-linecap:round;stroke-width:2;"/>
    </g>
    <g id="line2d_22"/>
    <g id="text_16">
     <!-- \emph{rhy-1} $&gt;$ \emph{vhl-1} -->
     <defs>
      <path d="M 19.90625 35.53125 
L 19.796875 35.53125 
L 22.40625 48.15625 
L 16.40625 48.15625 
L 6.40625 0.5 
L 10.90625 0.5 
C 11.40625 0.5 12.203125 0.296875 12.59375 0.703125 
C 12.90625 0.90625 13.5 4.4375 13.796875 5.65625 
L 16.703125 19.578125 
C 17.5 23.109375 18 26.859375 19.59375 30.1875 
C 23.40625 37.84375 31.90625 43 40.40625 43 
L 41.5 48.765625 
C 34.90625 48.765625 28.59375 45.421875 24 40.78125 
C 22.5 39.265625 20.90625 37.453125 19.90625 35.53125 
M 19.703125 34.953125 
C 19.703125 34.953125 19.796875 34.953125 19.796875 34.953125 
C 19.796875 34.859375 19.703125 34.75 19.703125 34.953125 
" id="Computer_Modern_Bright_Slanted-114"/>
      <path d="M 21.09375 70 
L 6.40625 0 
L 10.90625 0 
C 11.796875 0 13 -0.296875 13 1.015625 
C 13.203125 1.71875 13.296875 2.328125 13.40625 3.03125 
C 14.40625 7.78125 19 29.5 19.296875 30.40625 
C 20.40625 33.953125 22.40625 37.375 25.09375 39.90625 
C 28 42.4375 31.203125 43.84375 36.59375 42.9375 
C 38.796875 42.53125 40.90625 41.625 42 39.5 
C 43.5 36.46875 42.40625 32.9375 41.796875 29.90625 
L 35.5 0 
L 40.203125 0 
C 41.203125 0 42.09375 -0.203125 42.09375 1.109375 
C 42.703125 3.125 44.09375 10.625 44.09375 10.625 
L 48.59375 32 
C 49.40625 35.734375 50.296875 40.40625 48.203125 43.9375 
C 46.296875 46.984375 42.90625 48 39.59375 48.296875 
C 38.09375 48.296875 36.5 48.296875 35 48 
C 30.796875 47.3125 27.09375 45.09375 24.09375 42.09375 
C 22.90625 40.890625 21.5 39.59375 20.796875 37.984375 
L 20.703125 37.984375 
L 27.40625 70 
z
" id="Computer_Modern_Bright_Slanted-104"/>
      <path d="M 10.703125 48 
C 11.203125 44.265625 12 40.625 12.703125 36.890625 
C 13.09375 34.359375 19 0.8125 19 0.515625 
C 19 -0.09375 18.59375 -0.59375 18.296875 -1.109375 
L 16.59375 -4.140625 
C 14.703125 -7.265625 12.796875 -10.5 9 -11.8125 
C 6 -12.71875 0.5 -11.40625 -1.5 -10.796875 
C -1.796875 -12.625 -2 -14.53125 -2.203125 -16.453125 
C 0.5 -16.859375 5.40625 -17.46875 8.09375 -16.96875 
C 15.203125 -15.34375 19.203125 -8.671875 22.5 -3.21875 
L 44.09375 34.359375 
L 49.203125 43.359375 
C 50.09375 44.859375 51.203125 46.375 51.796875 48 
C 49.703125 48 47.40625 48 45.59375 47.703125 
C 43.203125 44.078125 41.203125 40.046875 38.90625 36.21875 
C 33.59375 26.4375 27.703125 17.359375 23.203125 6.78125 
L 23.09375 6.78125 
C 23.40625 8.390625 23.09375 10.109375 22.90625 11.734375 
C 21.796875 22.546875 18.59375 39.71875 17.09375 48 
z
" id="Computer_Modern_Bright_Slanted-121"/>
      <path d="M 5.90625 26.0625 
L 4.90625 21 
L 32.796875 21 
L 33.796875 26.0625 
z
" id="Computer_Modern_Bright_Slanted-45"/>
      <path d="M 22.5 61 
L 21.5 55.9375 
C 26.296875 55.9375 31.40625 56.546875 35.703125 58.875 
L 24.5 5.046875 
C 20.296875 5.046875 15.296875 5.5625 11.5 5.046875 
C 10.90625 3.578125 10.703125 1.671875 10.296875 0 
C 21.09375 0 32.59375 0 42.796875 0 
C 43.40625 1.453125 43.703125 3.296875 44.09375 5.046875 
L 31 5.046875 
C 35.203125 26.0625 39.796875 46.59375 44.09375 67.5 
C 41.703125 67.5 42 67.09375 40 65.59375 
C 35.59375 62.59375 28.90625 61 22.5 61 
" id="Computer_Modern_Bright_Slanted-49"/>
      <path d="M 62.59375 26.546875 
L 62.59375 26.34375 
C 60.296875 25.546875 58 24.25 55.796875 23.140625 
L 27.09375 9.625 
L 11.09375 2 
C 10.40625 1.703125 9.40625 1.296875 8.90625 0.796875 
C 8 -0.203125 8.203125 -1.703125 9.296875 -2.296875 
C 10.5 -3 11.703125 -2.109375 12.796875 -1.609375 
L 21 2.203125 
C 25.203125 4.3125 55 18.328125 55 18.328125 
L 66 23.546875 
C 67.296875 24.140625 69.40625 24.75 69.40625 26.453125 
C 69.40625 28.15625 67.296875 28.75 66 29.359375 
L 55 34.5625 
L 33.703125 44.6875 
C 29.5 46.6875 25.203125 48.59375 21 50.703125 
L 12.796875 54.5 
C 11.703125 55 10.5 55.90625 9.296875 55.203125 
C 8.203125 54.609375 8 53.09375 8.90625 52.09375 
C 9.40625 51.59375 10.40625 51.203125 11.09375 50.890625 
L 41.59375 36.46875 
L 55.796875 29.75 
C 58 28.65625 60.296875 27.359375 62.59375 26.546875 
" id="Computer_Modern_Bright_Math_Slanted-62"/>
      <path d="M 10.703125 48 
C 12.796875 33.046875 15.09375 18.171875 17.09375 3.125 
C 17.296875 2.109375 17.296875 0.90625 17.796875 0.203125 
C 19.90625 0 22.59375 0 24.703125 0 
L 25.296875 0.703125 
L 44.703125 35.109375 
L 51.796875 48 
C 49.703125 48 47.5 48 45.703125 47.703125 
C 44.90625 46.59375 44.296875 45.484375 43.59375 44.265625 
C 36.59375 31.84375 29.40625 19.515625 22.703125 6.6875 
C 21.59375 16.984375 20 26.6875 18.59375 36.6875 
C 18 40.328125 17.90625 44.46875 16.90625 47.703125 
C 15.09375 48 12.796875 48 10.703125 48 
" id="Computer_Modern_Bright_Slanted-118"/>
      <path d="M 21.09375 70 
L 6.40625 0 
C 8.5 0 10.796875 0 12.59375 0.296875 
L 13 1.40625 
C 14 6.4375 15.09375 11.375 16.203125 16.40625 
L 27.40625 70 
z
" id="Computer_Modern_Bright_Slanted-108"/>
     </defs>
     <g style="fill:#262626;" transform="translate(102.179163 29.6)scale(0.14 -0.14)">
      <use transform="scale(0.996264)" xlink:href="#Computer_Modern_Bright_Slanted-114"/>
      <use transform="translate(31.963359 0)scale(0.996264)" xlink:href="#Computer_Modern_Bright_Slanted-104"/>
      <use transform="translate(80.115856 0)scale(0.996264)" xlink:href="#Computer_Modern_Bright_Slanted-121"/>
      <use transform="translate(122.456894 0)scale(0.996264)" xlink:href="#Computer_Modern_Bright_Slanted-45"/>
      <use transform="translate(155.665567 0)scale(0.996264)" xlink:href="#Computer_Modern_Bright_Slanted-49"/>
      <use transform="translate(248.750337 0)scale(0.996264)" xlink:href="#Computer_Modern_Bright_Math_Slanted-62"/>
      <use transform="translate(357.703017 0)scale(0.996264)" xlink:href="#Computer_Modern_Bright_Slanted-118"/>
      <use transform="translate(400.044055 0)scale(0.996264)" xlink:href="#Computer_Modern_Bright_Slanted-104"/>
      <use transform="translate(448.196552 0)scale(0.996264)" xlink:href="#Computer_Modern_Bright_Slanted-108"/>
      <use transform="translate(467.291511 0)scale(0.996264)" xlink:href="#Computer_Modern_Bright_Slanted-45"/>
      <use transform="translate(500.500184 0)scale(0.996264)" xlink:href="#Computer_Modern_Bright_Slanted-49"/>
     </g>
    </g>
    <g id="line2d_23">
     <path d="M 62.979163 43.824611 
L 90.979163 43.824611 
" style="fill:none;stroke:#000000;stroke-linecap:round;stroke-width:2;"/>
    </g>
    <g id="line2d_24"/>
    <g id="text_17">
     <!-- \emph{vhl-1} $&gt;$ \emph{rhy-1} -->
     <g style="fill:#262626;" transform="translate(102.179163 48.724611)scale(0.14 -0.14)">
      <use transform="scale(0.996264)" xlink:href="#Computer_Modern_Bright_Slanted-118"/>
      <use transform="translate(42.341038 0)scale(0.996264)" xlink:href="#Computer_Modern_Bright_Slanted-104"/>
      <use transform="translate(90.493535 0)scale(0.996264)" xlink:href="#Computer_Modern_Bright_Slanted-108"/>
      <use transform="translate(109.588494 0)scale(0.996264)" xlink:href="#Computer_Modern_Bright_Slanted-45"/>
      <use transform="translate(142.797167 0)scale(0.996264)" xlink:href="#Computer_Modern_Bright_Slanted-49"/>
      <use transform="translate(235.881937 0)scale(0.996264)" xlink:href="#Computer_Modern_Bright_Math_Slanted-62"/>
      <use transform="translate(344.834617 0)scale(0.996264)" xlink:href="#Computer_Modern_Bright_Slanted-114"/>
      <use transform="translate(376.797976 0)scale(0.996264)" xlink:href="#Computer_Modern_Bright_Slanted-104"/>
      <use transform="translate(424.950473 0)scale(0.996264)" xlink:href="#Computer_Modern_Bright_Slanted-121"/>
      <use transform="translate(467.291511 0)scale(0.996264)" xlink:href="#Computer_Modern_Bright_Slanted-45"/>
      <use transform="translate(500.500184 0)scale(0.996264)" xlink:href="#Computer_Modern_Bright_Slanted-49"/>
     </g>
    </g>
    <g id="line2d_25">
     <path d="M 62.979163 62.949222 
L 90.979163 62.949222 
" style="fill:none;stroke:#e31a1c;stroke-linecap:round;stroke-width:2;"/>
    </g>
    <g id="line2d_26"/>
    <g id="text_18">
     <!-- Suppression -->
     <defs>
      <path d="M 5.09375 13.015625 
C 4.90625 11.390625 4.5 9.671875 4.296875 8.046875 
C 4.09375 6.53125 3.59375 6.109375 4.90625 5.3125 
C 8.296875 3.390625 11.203125 2.0625 15.40625 0.75 
C 24.796875 -2 35.59375 -2 43.796875 4.140625 
C 45.09375 5.140625 46.296875 6.234375 47.40625 7.53125 
C 49.90625 10.890625 52.203125 14.96875 51.59375 20.53125 
C 50.90625 27.671875 46.09375 33.625 39.59375 36.609375 
C 30.703125 40.578125 16.203125 40.578125 12.203125 49.375 
C 9.09375 56.1875 14.59375 62.171875 20.796875 64.375 
C 26.90625 66.6875 34.90625 65.78125 40.09375 63.375 
C 42.5 62.265625 44.5 60.65625 46.703125 59.25 
C 46.90625 60.96875 47.296875 62.578125 47.59375 64.28125 
C 47.796875 65.375 48.09375 66.390625 46.90625 66.78125 
L 45 67.796875 
C 42.296875 69 39.5 69.90625 36.59375 70.5 
C 27.59375 72.203125 17.203125 71.203125 10.40625 64.484375 
C 7 61.0625 4.09375 56.4375 5.296875 49.515625 
C 6.703125 42.390625 12.296875 37.875 18.09375 35.65625 
C 21.5 34.359375 25.296875 33.65625 28.90625 32.75 
C 31 32.34375 33.203125 31.84375 35.296875 31.140625 
C 40.703125 29.125 45.40625 25.109375 45.40625 17.6875 
C 44.796875 11.296875 39.203125 6.625 33.296875 5.203125 
C 25.703125 3.265625 16.703125 6.015625 11.5 8.75 
C 9.203125 9.96875 7.203125 11.59375 5.09375 13.015625 
" id="Computer_Modern_Bright-83"/>
      <path d="M 12.5 34.75 
L 12.40625 34.75 
L 12.40625 47.390625 
L 6.40625 47.390625 
L 6.40625 0 
L 12.703125 0 
L 12.703125 22.890625 
C 12.703125 24.40625 12.703125 25.90625 12.90625 27.40625 
C 14.296875 35.953125 21.703125 42.28125 31.40625 42.28125 
L 31.40625 48 
C 25 48 19.09375 44.890625 15.296875 39.765625 
C 14.203125 38.265625 13 36.546875 12.5 34.75 
" id="Computer_Modern_Bright-114"/>
     </defs>
     <g style="fill:#262626;" transform="translate(102.179163 67.849222)scale(0.14 -0.14)">
      <use transform="scale(0.996264)" xlink:href="#Computer_Modern_Bright-83"/>
      <use transform="translate(56.454753 0)scale(0.996264)" xlink:href="#Computer_Modern_Bright-117"/>
      <use transform="translate(104.60725 0)scale(0.996264)" xlink:href="#Computer_Modern_Bright-112"/>
      <use transform="translate(152.759747 0)scale(0.996264)" xlink:href="#Computer_Modern_Bright-112"/>
      <use transform="translate(198.006514 0)scale(0.996264)" xlink:href="#Computer_Modern_Bright-114"/>
      <use transform="translate(229.969873 0)scale(0.996264)" xlink:href="#Computer_Modern_Bright-101"/>
      <use transform="translate(274.801541 0)scale(0.996264)" xlink:href="#Computer_Modern_Bright-115"/>
      <use transform="translate(313.24057 0)scale(0.996264)" xlink:href="#Computer_Modern_Bright-115"/>
      <use transform="translate(351.679599 0)scale(0.996264)" xlink:href="#Computer_Modern_Bright-105"/>
      <use transform="translate(370.774558 0)scale(0.996264)" xlink:href="#Computer_Modern_Bright-111"/>
      <use transform="translate(421.417776 0)scale(0.996264)" xlink:href="#Computer_Modern_Bright-110"/>
     </g>
    </g>
    <g id="line2d_27">
     <path d="M 62.979163 82.073833 
L 90.979163 82.073833 
" style="fill:none;stroke:#33a02c;stroke-linecap:round;stroke-width:2;"/>
    </g>
    <g id="line2d_28"/>
    <g id="text_19">
     <!-- actual -->
     <g style="fill:#262626;" transform="translate(102.179163 86.973833)scale(0.14 -0.14)">
      <use transform="scale(0.996264)" xlink:href="#Computer_Modern_Bright-97"/>
      <use transform="translate(46.492082 0)scale(0.996264)" xlink:href="#Computer_Modern_Bright-99"/>
      <use transform="translate(91.32375 0)scale(0.996264)" xlink:href="#Computer_Modern_Bright-116"/>
      <use transform="translate(127.438138 0)scale(0.996264)" xlink:href="#Computer_Modern_Bright-117"/>
      <use transform="translate(175.590635 0)scale(0.996264)" xlink:href="#Computer_Modern_Bright-97"/>
      <use transform="translate(222.082717 0)scale(0.996264)" xlink:href="#Computer_Modern_Bright-108"/>
     </g>
    </g>
    <g id="line2d_29">
     <path d="M 62.979163 101.198444 
L 90.979163 101.198444 
" style="fill:none;stroke:#ff7f00;stroke-linecap:round;stroke-width:2;"/>
    </g>
    <g id="line2d_30"/>
    <g id="text_20">
     <!-- Additive -->
     <defs>
      <path d="M 2.09375 0.09375 
L 6.59375 0.09375 
L 8.40625 0.296875 
C 11.40625 6.796875 13.5 14.203125 16.203125 21 
C 26.09375 21 36.90625 21 46.296875 21 
L 47.09375 19.6875 
C 48.796875 14.546875 50.796875 9.59375 52.59375 4.546875 
C 53.09375 3.015625 53.59375 1.515625 54.40625 0.296875 
C 56.59375 0 59.203125 0 61.59375 0 
C 59.90625 4.90625 36.703125 67.203125 36 68.890625 
C 35.90625 69.296875 35.703125 69.890625 35.203125 70 
C 34.59375 70.09375 34 70 33.40625 70 
L 30.09375 70 
C 28.59375 70 28 70.1875 27.59375 68.609375 
C 27.203125 67.59375 2.09375 0.09375 2.09375 0.09375 
M 31.40625 63.171875 
C 35.59375 50.71875 40.09375 38.46875 44.5 26.21875 
L 18.203125 26.21875 
L 26.90625 50.109375 
z
" id="Computer_Modern_Bright-65"/>
      <path d="M 35.59375 69.6875 
L 35.59375 41.375 
C 33.703125 43.484375 31.796875 45.484375 29.203125 46.6875 
C 20.296875 50.40625 11.703125 45.59375 7.296875 37.65625 
C 2.203125 28.21875 2.796875 15.765625 8.90625 6.921875 
C 13.203125 0.796875 20.296875 -2.203125 27.796875 0.5 
C 30.703125 1.609375 34.203125 4.515625 35.40625 7.125 
L 35.5 7.125 
L 35.5 0 
L 41.90625 0 
L 41.90625 69.6875 
z
M 35.203125 37.453125 
C 35.703125 36.546875 35.5 35.34375 35.5 34.34375 
L 35.5 13.65625 
C 35.5 11.34375 35.40625 11.140625 34.09375 9.34375 
C 32.296875 6.625 29.5 4.71875 26.203125 4.421875 
C 21.40625 4.015625 16.5 6.328125 13.703125 10.25 
C 12.09375 12.546875 11.203125 15.359375 10.703125 18.171875 
C 10.5 19.28125 10.5 20.28125 10.40625 21.390625 
C 9.796875 28.015625 11.203125 35.84375 17 40.0625 
C 18 40.765625 19.09375 41.265625 20.203125 41.765625 
C 26 43.984375 32.40625 43.375 35.203125 37.453125 
" id="Computer_Modern_Bright-100"/>
     </defs>
     <g style="fill:#262626;" transform="translate(102.179163 106.098444)scale(0.14 -0.14)">
      <use transform="scale(0.996264)" xlink:href="#Computer_Modern_Bright-65"/>
      <use transform="translate(63.511618 0)scale(0.996264)" xlink:href="#Computer_Modern_Bright-100"/>
      <use transform="translate(111.664115 0)scale(0.996264)" xlink:href="#Computer_Modern_Bright-100"/>
      <use transform="translate(159.816612 0)scale(0.996264)" xlink:href="#Computer_Modern_Bright-105"/>
      <use transform="translate(178.911571 0)scale(0.996264)" xlink:href="#Computer_Modern_Bright-116"/>
      <use transform="translate(215.025959 0)scale(0.996264)" xlink:href="#Computer_Modern_Bright-105"/>
      <use transform="translate(234.120917 0)scale(0.996264)" xlink:href="#Computer_Modern_Bright-118"/>
      <use transform="translate(276.461955 0)scale(0.996264)" xlink:href="#Computer_Modern_Bright-101"/>
     </g>
    </g>
    <g id="line2d_31">
     <path d="M 62.979163 120.323055 
L 90.979163 120.323055 
" style="fill:none;stroke:#1f78b4;stroke-linecap:round;stroke-width:2;"/>
    </g>
    <g id="line2d_32"/>
    <g id="text_21">
     <!-- Unbranched -->
     <defs>
      <path d="M 8 69.5 
L 8 32.75 
C 8 25.71875 7.203125 18.390625 10.703125 11.96875 
C 12.90625 7.84375 16.09375 4.4375 20.09375 2.125 
C 29.90625 -3.609375 43.5 -2.203125 51.296875 6.4375 
C 54.796875 10.359375 57.296875 15.171875 57.796875 21.796875 
C 57.90625 23.40625 57.796875 24.921875 57.796875 26.515625 
L 57.796875 69.5 
L 51.40625 69.5 
L 51.40625 25.90625 
C 51.40625 24.59375 51.5 23.1875 51.40625 21.890625 
C 51.203125 18.890625 50.59375 15.921875 49.40625 13.25 
C 43.90625 1 25 1 18 11.890625 
C 14.203125 17.78125 15 25.0625 15 31.65625 
L 15 69.5 
z
" id="Computer_Modern_Bright-85"/>
      <path d="M 6.40625 69.6875 
L 6.40625 0 
L 12.796875 0 
L 12.796875 6.328125 
L 12.90625 6.328125 
C 14 4.109375 16.5 2.015625 18.59375 0.90625 
C 25.796875 -2.90625 34.40625 0.90625 39.09375 7.03125 
C 48.59375 19.578125 44.796875 40.875 32.296875 46.796875 
C 27.40625 49 21.5 48 17.09375 44.984375 
C 15.40625 43.78125 14 42.375 12.703125 40.765625 
L 12.703125 69.6875 
z
M 21.90625 42.984375 
C 26.59375 43.375 31.5 41.265625 34.296875 37.453125 
C 36.203125 34.9375 37.203125 31.9375 37.703125 28.8125 
C 38.703125 21.484375 37.90625 12.25 31.40625 7.4375 
C 30.296875 6.625 29.09375 6.03125 27.796875 5.515625 
C 22.40625 3.515625 17 4.109375 14 8.84375 
C 13.09375 10.4375 12.796875 10.546875 12.796875 12.953125 
L 12.796875 33.734375 
C 12.796875 34.75 12.59375 35.953125 13 36.859375 
C 14.59375 40.171875 18.296875 42.671875 21.90625 42.984375 
" id="Computer_Modern_Bright-98"/>
      <path d="M 6.40625 69.6875 
L 6.40625 0 
L 12.796875 0 
L 12.796875 21.984375 
C 12.796875 26.90625 12.5 31.9375 14.703125 36.546875 
C 15.796875 38.859375 17.5 40.875 19.796875 42.078125 
C 21.703125 42.984375 23.703125 42.984375 25.796875 42.78125 
C 28.796875 42.78125 31.703125 41.984375 33.59375 39.453125 
C 35.40625 37.140625 35.5 34.140625 35.5 31.3125 
L 35.5 0 
L 41.90625 0 
L 41.90625 27.21875 
C 41.90625 32.234375 42.40625 37.75 39.90625 42.28125 
C 37.90625 45.6875 34.40625 47.296875 30.703125 47.796875 
C 28.703125 48 26.703125 48 24.703125 47.703125 
C 21.09375 47.015625 18 45.03125 15.59375 42.34375 
C 14.5 41.046875 13.203125 39.46875 12.796875 37.765625 
L 12.703125 37.765625 
L 12.703125 69.6875 
z
" id="Computer_Modern_Bright-104"/>
     </defs>
     <g style="fill:#262626;" transform="translate(102.179163 125.223055)scale(0.14 -0.14)">
      <use transform="scale(0.996264)" xlink:href="#Computer_Modern_Bright-85"/>
      <use transform="translate(65.587132 0)scale(0.996264)" xlink:href="#Computer_Modern_Bright-110"/>
      <use transform="translate(113.739629 0)scale(0.996264)" xlink:href="#Computer_Modern_Bright-98"/>
      <use transform="translate(158.986397 0)scale(0.996264)" xlink:href="#Computer_Modern_Bright-114"/>
      <use transform="translate(190.949756 0)scale(0.996264)" xlink:href="#Computer_Modern_Bright-97"/>
      <use transform="translate(237.441838 0)scale(0.996264)" xlink:href="#Computer_Modern_Bright-110"/>
      <use transform="translate(285.594335 0)scale(0.996264)" xlink:href="#Computer_Modern_Bright-99"/>
      <use transform="translate(330.426003 0)scale(0.996264)" xlink:href="#Computer_Modern_Bright-104"/>
      <use transform="translate(378.5785 0)scale(0.996264)" xlink:href="#Computer_Modern_Bright-101"/>
      <use transform="translate(423.410167 0)scale(0.996264)" xlink:href="#Computer_Modern_Bright-100"/>
     </g>
    </g>
   </g>
  </g>
 </g>
 <defs>
  <clipPath id="pfb59bf68e5">
   <rect height="298.98" width="446.4" x="50.379163" y="7.2"/>
  </clipPath>
 </defs>
</svg>
