<?xml version="1.0" encoding="utf-8" standalone="no"?>
<!DOCTYPE svg PUBLIC "-//W3C//DTD SVG 1.1//EN"
  "http://www.w3.org/Graphics/SVG/1.1/DTD/svg11.dtd">
<!-- Created with matplotlib (http://matplotlib.org/) -->
<svg height="353pt" version="1.1" viewBox="0 0 503 353" width="503pt" xmlns="http://www.w3.org/2000/svg" xmlns:xlink="http://www.w3.org/1999/xlink">
 <defs>
  <style type="text/css">
*{stroke-linecap:butt;stroke-linejoin:round;}
  </style>
 </defs>
 <g id="figure_1">
  <g id="patch_1">
   <path d="M 0 353.548374 
L 503.979163 353.548374 
L 503.979163 0 
L 0 0 
z
" style="fill:#ffffff;"/>
  </g>
  <g id="axes_1">
   <g id="patch_2">
    <path d="M 50.379163 306.18 
L 496.779163 306.18 
L 496.779163 7.2 
L 50.379163 7.2 
z
" style="fill:#eaeaf2;"/>
   </g>
   <g id="matplotlib.axis_1">
    <g id="xtick_1">
     <g id="line2d_1"/>
     <g id="text_1">
      <!-- $-1.0$ -->
      <defs>
       <path d="M 9.796875 28.078125 
C 8 27.484375 7.796875 24.78125 9.796875 24.28125 
C 10.296875 24.078125 10.90625 24.1875 11.5 24.1875 
L 64.703125 24.1875 
C 65.90625 24.1875 67.796875 23.78125 68.796875 24.78125 
C 69.90625 25.875 69.296875 27.875 67.703125 28.1875 
C 66.5 28.375 65.09375 28.1875 63.90625 28.1875 
L 11.40625 28.1875 
C 10.90625 28.1875 10.296875 28.28125 9.796875 28.078125 
" id="Computer_Modern_Bright_Math_Symbols-0"/>
       <path d="M 9.703125 60.015625 
L 9.703125 55 
C 15.203125 55 19 56 23.40625 57.90625 
L 23.40625 5.015625 
L 10.296875 5.015625 
L 10.296875 0 
L 43 0 
L 43 5.015625 
L 29.90625 5.015625 
L 29.90625 67 
C 27.5 67 27.90625 66.359375 26 64.875 
C 21.90625 61.71875 16.203125 60.015625 9.703125 60.015625 
" id="Computer_Modern_Bright-49"/>
       <path d="M 10.703125 7.8125 
L 10.703125 0 
L 18.5 0 
L 18.5 7.8125 
z
" id="Computer_Modern_Bright_Math_Slanted-58"/>
       <path d="M 14.796875 63.859375 
C 11.90625 61.859375 9.90625 59.140625 8.40625 56.03125 
C 4.796875 49 4.40625 40.765625 4.40625 31.828125 
C 4.40625 20.578125 6.40625 10.25 12 4.3125 
C 17.296875 -1.203125 25.703125 -2.609375 32.796875 0.296875 
C 37.203125 2.015625 40.40625 5.71875 42.40625 9.734375 
C 46 16.875 46.40625 25.40625 46.40625 34.234375 
C 46.40625 37.046875 46.296875 39.859375 46 42.671875 
C 45.296875 49.40625 43 56.828125 39.296875 60.953125 
C 33.203125 67.6875 22.296875 69.1875 14.796875 63.859375 
M 34.90625 58.140625 
C 39.59375 53.125 40 43.484375 40 34.34375 
L 40 28.921875 
C 40 24.296875 39.203125 18.28125 38.203125 14.859375 
C 36.796875 10.140625 34.5 6.734375 29.90625 4.625 
C 24.296875 2.609375 18.5 4.515625 15.296875 8.9375 
C 11 14.65625 10.796875 24.796875 10.796875 33.734375 
C 10.796875 42.171875 10.90625 51.515625 15 57.03125 
C 19.5 63.0625 29.203125 64.0625 34.90625 58.140625 
" id="Computer_Modern_Bright-48"/>
      </defs>
      <g style="fill:#262626;" transform="translate(83.122674 324.249603)scale(0.16 -0.16)">
       <use transform="scale(0.996264)" xlink:href="#Computer_Modern_Bright_Math_Symbols-0"/>
       <use transform="translate(77.487468 0)scale(0.996264)" xlink:href="#Computer_Modern_Bright-49"/>
       <use transform="translate(128.130685 0)scale(0.996264)" xlink:href="#Computer_Modern_Bright_Math_Slanted-58"/>
       <use transform="translate(157.188132 0)scale(0.996264)" xlink:href="#Computer_Modern_Bright-48"/>
      </g>
     </g>
    </g>
    <g id="xtick_2">
     <g id="line2d_2"/>
     <g id="text_2">
      <!-- $-0.8$ -->
      <defs>
       <path d="M 18.703125 36 
L 18.703125 35.90625 
C 12.5 34.09375 7.296875 30.6875 4.796875 24.84375 
C 2.203125 18.71875 4 11.28125 8.40625 6.453125 
C 13.09375 1.421875 19.5 -1 26.296875 -1 
C 36.296875 -1 45.90625 6.40625 47.09375 16.734375 
C 47.296875 18.265625 47.203125 19.890625 47 21.40625 
C 45.203125 29.21875 39.5 33.875 32.09375 35.90625 
C 32.90625 36.203125 33.796875 36.40625 34.59375 36.703125 
C 38.796875 38.421875 42.296875 40.921875 44.5 44.9375 
C 47.796875 51.375 44.59375 58.90625 39.203125 63.015625 
C 33.796875 67.140625 26.5 68.234375 19.90625 66.828125 
C 12 65.125 4.5 58.40625 5 49.765625 
C 5.203125 46.75 6.5 44.234375 8 42.4375 
C 10.296875 39.625 14.796875 36.609375 18.703125 36 
M 23.796875 62.5 
C 28.203125 62.5 33.703125 62 36.90625 58.578125 
C 40.703125 54.46875 40.90625 47.03125 37.09375 42.8125 
C 34.703125 40.203125 31.203125 38.890625 27.703125 38.59375 
C 22.796875 38.1875 17.203125 39 13.703125 42.8125 
C 9.796875 47.125 10.09375 54.96875 14.296875 58.984375 
C 16.90625 61.390625 20.40625 62.1875 23.796875 62.5 
M 23.703125 33.5 
C 28.40625 33.5 33.5 32.390625 36.90625 28.9375 
C 38.203125 27.53125 39.203125 25.8125 39.796875 24.015625 
C 41.5 18.75 40.703125 12.09375 36.796875 8.046875 
C 34.09375 5.328125 30.40625 4.3125 26.703125 4.015625 
C 22.203125 4.015625 17 5.109375 13.796875 8.5625 
C 9.40625 13.390625 8.5 23.40625 13.703125 29.0625 
C 16.296875 31.78125 20 33.203125 23.703125 33.5 
" id="Computer_Modern_Bright-56"/>
      </defs>
      <g style="fill:#262626;" transform="translate(156.00845 324.249603)scale(0.16 -0.16)">
       <use transform="scale(0.996264)" xlink:href="#Computer_Modern_Bright_Math_Symbols-0"/>
       <use transform="translate(77.487468 0)scale(0.996264)" xlink:href="#Computer_Modern_Bright-48"/>
       <use transform="translate(128.130685 0)scale(0.996264)" xlink:href="#Computer_Modern_Bright_Math_Slanted-58"/>
       <use transform="translate(157.188132 0)scale(0.996264)" xlink:href="#Computer_Modern_Bright-56"/>
      </g>
     </g>
    </g>
    <g id="xtick_3">
     <g id="line2d_3"/>
     <g id="text_3">
      <!-- $-0.6$ -->
      <defs>
       <path d="M 11.296875 32.625 
L 11.203125 32.625 
C 11.203125 41.765625 12.796875 52.421875 20.59375 58.25 
C 24.90625 61.375 30.703125 62.96875 38.203125 61.171875 
C 39.796875 60.765625 41.296875 60.15625 42.796875 59.765625 
L 42.796875 63.28125 
C 42.796875 63.671875 42.90625 64.375 42.59375 64.78125 
C 41.90625 65.6875 36.296875 66.59375 36.09375 66.59375 
C 27.40625 67.59375 21.703125 65.6875 16.40625 61.171875 
C 10 55.640625 6.296875 47.515625 5.09375 39.28125 
C 4 32.65625 4.90625 22 6.203125 16.78125 
C 8.296875 9.046875 12.296875 2.21875 19.703125 -0.390625 
C 24.09375 -2 29.5 -2 33.703125 0.015625 
C 37.09375 1.640625 39.90625 4.46875 42.09375 7.5 
C 45.59375 12.34375 46.5 18.21875 46.09375 24.171875 
C 45.90625 27.109375 45.5 30.046875 44.296875 32.765625 
C 42.40625 37.125 39.203125 41.671875 35.09375 43.6875 
C 33.203125 44.5 31.203125 44.5 29.203125 44.5 
C 23.90625 44.5 18.90625 42.1875 15.203125 38.359375 
C 13.59375 36.75 12 34.71875 11.296875 32.625 
M 24.40625 39.515625 
C 28.203125 39.8125 32.203125 39.21875 35.09375 36.5 
C 38.90625 32.890625 39.59375 27.765625 39.59375 22.8125 
C 39.59375 19.46875 39.703125 16.015625 38.703125 12.859375 
C 38.09375 11.234375 37.296875 9.828125 36.40625 8.5 
C 34.203125 5.5625 31.40625 4.125 26.796875 3.515625 
C 22.296875 3.515625 17.796875 5.3125 15.203125 9.125 
C 13.59375 11.328125 12.796875 14.046875 12.296875 16.640625 
C 11.703125 19.34375 11.296875 22.140625 11.5 24.859375 
C 12 31.984375 17 38.515625 24.40625 39.515625 
" id="Computer_Modern_Bright-54"/>
      </defs>
      <g style="fill:#262626;" transform="translate(228.894225 324.249603)scale(0.16 -0.16)">
       <use transform="scale(0.996264)" xlink:href="#Computer_Modern_Bright_Math_Symbols-0"/>
       <use transform="translate(77.487468 0)scale(0.996264)" xlink:href="#Computer_Modern_Bright-48"/>
       <use transform="translate(128.130685 0)scale(0.996264)" xlink:href="#Computer_Modern_Bright_Math_Slanted-58"/>
       <use transform="translate(157.188132 0)scale(0.996264)" xlink:href="#Computer_Modern_Bright-54"/>
      </g>
     </g>
    </g>
    <g id="xtick_4">
     <g id="line2d_4"/>
     <g id="text_4">
      <!-- $-0.4$ -->
      <defs>
       <path d="M 2.09375 18 
L 31 18 
L 31 0 
L 37.296875 0 
L 37.296875 18 
L 48.703125 18 
L 48.703125 23.328125 
L 37.296875 23.328125 
L 37.296875 66.46875 
L 31.90625 66.46875 
C 30.09375 66.46875 29.59375 66.578125 28.796875 65.0625 
C 24.796875 58.515625 3.703125 25.765625 3 24.859375 
C 2.203125 23.4375 2.09375 23.546875 2.09375 21.4375 
z
M 31.296875 60.875 
L 31.296875 23.328125 
L 8.59375 23.328125 
C 9.296875 24.734375 10.296875 26.03125 11.203125 27.4375 
C 16.203125 35.171875 28.09375 53.546875 30.59375 59.28125 
C 30.90625 59.78125 31 60.375 31.296875 60.875 
" id="Computer_Modern_Bright-52"/>
      </defs>
      <g style="fill:#262626;" transform="translate(301.780001 324.249603)scale(0.16 -0.16)">
       <use transform="scale(0.996264)" xlink:href="#Computer_Modern_Bright_Math_Symbols-0"/>
       <use transform="translate(77.487468 0)scale(0.996264)" xlink:href="#Computer_Modern_Bright-48"/>
       <use transform="translate(128.130685 0)scale(0.996264)" xlink:href="#Computer_Modern_Bright_Math_Slanted-58"/>
       <use transform="translate(157.188132 0)scale(0.996264)" xlink:href="#Computer_Modern_Bright-52"/>
      </g>
     </g>
    </g>
    <g id="xtick_5">
     <g id="line2d_5"/>
     <g id="text_5">
      <!-- $-0.2$ -->
      <defs>
       <path d="M 7.296875 45.96875 
C 8.703125 51.59375 11.09375 57.984375 16.796875 60.5 
C 19.203125 61.5 21.796875 61.703125 24.40625 61.5 
C 29.296875 61.09375 34.09375 59.09375 37.09375 55.09375 
C 39.296875 52.078125 40.09375 48.375 39.703125 44.78125 
C 38.5 34.34375 28.296875 26.84375 21.703125 21.234375 
C 17.90625 18.03125 7.09375 7.8125 7.09375 7.8125 
L 5.40625 6.203125 
C 4.5 5.3125 4.40625 5.3125 4.40625 3.5 
L 4.40625 0 
L 46.40625 0 
L 46.40625 5.625 
L 10.203125 5.625 
C 13.40625 8.734375 26.703125 20.515625 28.5 21.921875 
C 34.296875 26.65625 40.796875 31.375 44.296875 38.21875 
C 48.203125 46.0625 46.5 55.9375 39.90625 61.765625 
C 35.90625 65.296875 30.40625 67 25.09375 67 
C 20.203125 67 15.203125 66 11.296875 62.90625 
C 8.296875 60.390625 5.796875 56.6875 4.40625 52.875 
C 4.09375 52.28125 3.59375 51.28125 3.703125 50.578125 
C 3.796875 49.984375 4.40625 49.484375 4.703125 49.078125 
C 5.5 48.078125 6.296875 46.875 7.296875 45.96875 
" id="Computer_Modern_Bright-50"/>
      </defs>
      <g style="fill:#262626;" transform="translate(374.665776 324.249603)scale(0.16 -0.16)">
       <use transform="scale(0.996264)" xlink:href="#Computer_Modern_Bright_Math_Symbols-0"/>
       <use transform="translate(77.487468 0)scale(0.996264)" xlink:href="#Computer_Modern_Bright-48"/>
       <use transform="translate(128.130685 0)scale(0.996264)" xlink:href="#Computer_Modern_Bright_Math_Slanted-58"/>
       <use transform="translate(157.188132 0)scale(0.996264)" xlink:href="#Computer_Modern_Bright-50"/>
      </g>
     </g>
    </g>
    <g id="xtick_6">
     <g id="line2d_6"/>
     <g id="text_6">
      <!-- $0.0$ -->
      <g style="fill:#262626;" transform="translate(453.75055 324.249603)scale(0.16 -0.16)">
       <use transform="scale(0.996264)" xlink:href="#Computer_Modern_Bright-48"/>
       <use transform="translate(50.643218 0)scale(0.996264)" xlink:href="#Computer_Modern_Bright_Math_Slanted-58"/>
       <use transform="translate(79.700665 0)scale(0.996264)" xlink:href="#Computer_Modern_Bright-48"/>
      </g>
     </g>
    </g>
    <g id="text_7">
     <!-- Epistasis Coefficient -->
     <defs>
      <path d="M 8 69.328125 
L 8 0 
L 55.40625 0 
L 55.40625 5.625 
L 15 5.625 
L 15 33.671875 
L 51.09375 33.671875 
L 51.09375 39 
L 15 39 
L 15 64 
L 54 64 
L 54 69.328125 
z
" id="Computer_Modern_Bright-69"/>
      <path d="M 12.703125 40.53125 
L 12.703125 47.15625 
L 6.40625 47.15625 
L 6.40625 -17 
L 12.796875 -17 
L 12.796875 6.09375 
C 14.203125 4.078125 15.796875 2.28125 17.90625 1.078125 
C 25 -3.25 34 0.171875 38.90625 6.59375 
C 45.40625 14.96875 46.09375 27.5 41.59375 36.984375 
C 39 42.4375 34.09375 47.5 27.796875 48 
C 22.296875 48 18.09375 45.8125 15.09375 43.125 
C 14.203125 42.328125 13.5 41.4375 12.703125 40.53125 
M 21.90625 42.875 
C 26 43.171875 30 41.265625 32.796875 38.265625 
C 34.5 36.34375 35.796875 34.140625 36.59375 31.734375 
C 40.09375 22.296875 36.90625 9.234375 26.796875 5.328125 
C 21 3.109375 15.296875 5.125 13.09375 10.546875 
C 12.59375 11.546875 12.796875 12.859375 12.796875 13.953125 
L 12.796875 34.640625 
C 12.796875 36.953125 13 37.15625 14.5 38.859375 
C 16.296875 41.0625 19 42.578125 21.90625 42.875 
" id="Computer_Modern_Bright-112"/>
      <path d="M 6.40625 70 
L 6.40625 63.671875 
L 12.703125 63.671875 
L 12.703125 70 
z
M 6.40625 47.390625 
L 6.40625 0 
L 12.703125 0 
L 12.703125 47.390625 
z
" id="Computer_Modern_Bright-105"/>
      <path d="M 3.09375 9.640625 
C 2.90625 8.234375 2.59375 6.9375 2.40625 5.53125 
C 2.203125 4.421875 1.90625 3.921875 2.90625 3.421875 
C 7 1.015625 11.90625 -0.296875 17.703125 -0.796875 
C 24.203125 -1.40625 32.40625 0.109375 35.59375 6.53125 
C 36.5 8.34375 37 10.34375 37.09375 12.359375 
C 37.5 19.578125 31.796875 24.203125 26.90625 25.90625 
C 21.40625 28.015625 13.90625 27.3125 10.09375 31.53125 
C 8.09375 33.84375 8 37.265625 9.90625 39.671875 
C 13.90625 45.296875 26.796875 42.875 31.90625 40.375 
C 32.703125 39.96875 33.40625 39.46875 34.296875 39.265625 
L 35.203125 44.6875 
C 30.5 46.796875 26.40625 48 19.90625 48 
C 14.296875 48 9.203125 46.703125 6 43.484375 
C 2.796875 40.171875 1.703125 34.640625 3.59375 30.4375 
C 5.40625 26.40625 9.203125 23.796875 13.296875 22.5 
C 19.203125 20.390625 25.90625 21.390625 29.796875 16.578125 
C 32 13.765625 31.59375 9.546875 29.09375 7.03125 
C 24.296875 2.609375 14.09375 4.21875 8.5 6.625 
C 6.59375 7.4375 4.90625 8.640625 3.09375 9.640625 
" id="Computer_Modern_Bright-115"/>
      <path d="M 10.796875 60.5 
L 10.796875 47.015625 
L 1.09375 47.015625 
L 1.09375 42 
L 10.703125 42 
L 10.703125 15.015625 
C 10.703125 10.578125 10.40625 5.234375 13.296875 1.515625 
C 15 -0.703125 17.296875 -1.296875 20.796875 -1 
C 23.703125 -1 26.59375 -0.390625 29.296875 0.65625 
C 30.203125 1.0625 33.5 2.515625 33.90625 3.234375 
C 34.09375 3.640625 32.796875 8.09375 32.796875 8.09375 
L 30.40625 6.265625 
C 27.296875 4.34375 21.09375 2.328125 18.5 5.96875 
C 16.203125 9.09375 16.796875 13.75 16.796875 17.375 
L 16.796875 42 
L 32.296875 42 
L 32.296875 47.015625 
L 16.796875 47.015625 
L 16.796875 60.5 
z
" id="Computer_Modern_Bright-116"/>
      <path d="M 7.90625 39.015625 
C 9.59375 39.859375 11 41.09375 12.703125 41.921875 
C 15.40625 43.15625 18.203125 44 21.203125 44 
C 22.59375 44.09375 24.203125 44.296875 25.59375 44 
C 28.09375 43.59375 30.296875 42.078125 31.796875 39.953125 
C 33.296875 37.515625 33.90625 35.390625 33.90625 31.46875 
L 33.90625 27.015625 
C 29.09375 27.015625 24.296875 26.609375 19.703125 25.390625 
C 13.90625 24.078125 7.59375 21.125 5.5 15.84375 
C 3.40625 10.78125 5.59375 4.078125 10.09375 1.03125 
C 12.296875 -0.5 14.90625 -0.5 17.5 -0.296875 
C 21.703125 0 25.90625 1.015625 29.5 3.25 
C 31.203125 4.25 32.90625 5.578125 33.90625 7.296875 
L 34 7.296875 
L 34 0.203125 
L 40.296875 0.203125 
L 40.296875 26.890625 
C 40.296875 29.8125 40.59375 32.953125 40 35.890625 
C 39.40625 39.921875 36.90625 43.265625 34 45.59375 
C 30.59375 48.21875 26.703125 49.109375 21.5 48.71875 
C 16.703125 48.71875 13 47.5 9.40625 45.765625 
C 8.90625 45.5625 7.90625 45.234375 7.59375 44.640625 
C 7.296875 44.21875 7.5 43.515625 7.5 43 
C 7.703125 41.671875 7.796875 40.34375 7.90625 39.015625 
M 33.90625 24 
L 33.90625 16.375 
C 33.90625 14.0625 34 11.953125 32.703125 9.953125 
C 31.59375 8.34375 30.09375 7.234375 28.5 6.4375 
C 22.796875 3.515625 14.09375 4.421875 11.59375 9.25 
C 9.59375 12.75 11.703125 16.875 14.59375 19.1875 
C 18.90625 22.5 27.296875 24 33.90625 24 
" id="Computer_Modern_Bright-97"/>
      <path d="M 60.5 10.875 
C 58.5 9.859375 56.703125 8.453125 54.703125 7.453125 
C 50 5.046875 44 4.140625 37.5 4.734375 
C 31.703125 5.546875 26.90625 8.359375 23.40625 11.875 
C 12.203125 23.15625 11.40625 42.96875 21.296875 55.34375 
C 25.5 60.875 31.90625 65 41.296875 65 
C 45.09375 65 49 64.296875 52.5 62.890625 
C 54.59375 61.96875 56.59375 60.765625 58.59375 59.765625 
L 59.796875 66.8125 
C 57.59375 67.671875 55.296875 68.5625 53 69.09375 
C 47.40625 70.625 38.90625 70.625 33.09375 69.21875 
C 22.90625 66.921875 15.5 59.828125 11.296875 51.625 
C 5.5 40.015625 6.203125 25.515625 13.203125 14.59375 
C 15 11.703125 17.296875 9.109375 19.90625 6.890625 
C 25.90625 1.6875 33.296875 -1.3125 43.59375 -0.5 
C 49.796875 -0.5 53.40625 0.515625 58.203125 3.203125 
C 58.703125 3.5 60.59375 4.515625 60.90625 4.9375 
C 61.09375 5.4375 60.59375 9.53125 60.5 10.875 
" id="Computer_Modern_Bright-67"/>
      <path d="M 10.703125 42.078125 
C 1.796875 33.234375 0.796875 17.875 8.5 7.9375 
C 9.59375 6.421875 10.90625 5.125 12.40625 4.015625 
C 16.09375 1 21.5 -1.203125 27.796875 -0.5 
C 37.796875 0.703125 44.703125 8.84375 46.796875 17.375 
C 49.59375 29.328125 43.703125 42.671875 32.703125 46.890625 
C 24.09375 50.40625 15.5 46.890625 10.703125 42.078125 
M 35.703125 39.359375 
C 40.5 35.03125 41.40625 28.109375 41 21.984375 
C 40.703125 17.265625 39.40625 12.34375 36.09375 8.828125 
C 30.703125 3 20.703125 3 14.90625 8.625 
C 11.90625 11.84375 10.09375 16.453125 9.796875 21.984375 
C 9.296875 30.109375 11.296875 38.75 19.296875 41.96875 
C 25.203125 44.578125 32 42.671875 35.703125 39.359375 
" id="Computer_Modern_Bright-111"/>
      <path d="M 41.796875 10.9375 
C 39.5 9.234375 38.796875 8.328125 35.90625 6.8125 
C 29.796875 3.5 22.59375 3.5 17.40625 7.171875 
C 12.40625 10.765625 9.5 16.640625 9.5 25 
L 42.5 25 
C 42.5 32.421875 40.796875 38.859375 36.59375 43.375 
C 32 47.890625 24.796875 49.296875 18.703125 47.390625 
C 16.40625 46.6875 14.296875 45.484375 12.40625 43.96875 
C 6.09375 38.859375 3.40625 30.71875 3.5 22.78125 
C 3.703125 12.34375 10.796875 1.90625 21.296875 -0.3125 
C 26.796875 -1.421875 32.59375 -0.203125 37.5 2.296875 
C 38.40625 2.796875 41.703125 4.609375 42.09375 5.515625 
C 42.40625 6.015625 41.796875 10.9375 41.796875 10.9375 
M 37.203125 28.90625 
L 10 28.90625 
C 11.203125 36.234375 17.203125 43.96875 25.296875 43.0625 
C 31.90625 42.46875 35.40625 37.75 36.703125 31.828125 
C 36.90625 30.8125 37 29.921875 37.203125 28.90625 
" id="Computer_Modern_Bright-101"/>
      <path d="M 10.59375 47.015625 
L 2 47.015625 
L 2 42 
L 10.59375 42 
L 10.59375 0 
L 16.90625 0 
L 16.90625 42 
L 30.09375 42 
L 30.09375 47.015625 
L 16.796875 47.015625 
L 16.796875 56.234375 
C 16.796875 57.890625 16.59375 59.65625 17.296875 61.21875 
C 19.5 65.875 25.40625 65.875 29.59375 65.078125 
C 30.59375 64.875 31.703125 64.46875 32.703125 64.265625 
L 32.703125 69.90625 
C 27.703125 70.609375 22.296875 71.21875 17.703125 68.46875 
C 15.796875 67.4375 14.203125 65.6875 13 63.921875 
C 11.09375 60.9375 10.59375 58.78125 10.59375 53.71875 
z
M 38.09375 0 
L 44.40625 0 
L 44.40625 42 
L 57.59375 42 
L 57.59375 47.015625 
L 44.296875 47.015625 
L 44.296875 55.234375 
C 44.296875 56.890625 44.09375 58.65625 44.40625 60.328125 
C 44.90625 62.296875 46.09375 63.65625 47.703125 64.671875 
C 50.796875 66.171875 54.40625 65.078125 57.59375 64.171875 
L 57.59375 70 
C 55.09375 70.1875 52.703125 70.6875 50.203125 70.5 
C 43.40625 70 38.59375 64.046875 38.09375 57.3125 
C 38 55.890625 38.09375 54.375 38.09375 52.96875 
z
M 65.59375 70 
L 65.59375 63.671875 
L 71.90625 63.671875 
L 71.90625 70 
z
M 65.59375 47.390625 
L 65.59375 0 
L 71.90625 0 
L 71.90625 47.390625 
z
" id="Computer_Modern_Bright-14"/>
      <path d="M 42.40625 11.25 
C 40.5 9.84375 38.796875 8.328125 36.703125 7.125 
C 32 4.625 24.796875 3.421875 19.40625 5.921875 
C 11.59375 9.9375 9.5 19.6875 10.59375 27.71875 
C 10.796875 29.328125 11.09375 30.921875 11.59375 32.4375 
C 13.796875 38.96875 19.296875 44.078125 28.296875 43.078125 
C 33.09375 42.671875 35.5 41.875 39.296875 39.765625 
C 40 39.359375 40.59375 38.859375 41.40625 38.65625 
C 41.5 39.859375 41.796875 41.171875 42 42.375 
C 42.296875 43.984375 42.296875 44.1875 40.796875 44.890625 
C 39.703125 45.390625 38.59375 45.984375 37.40625 46.390625 
C 32.796875 48.40625 25.203125 49 20 47.5 
C 12.90625 45.484375 7.59375 39.359375 5.296875 32.53125 
C 4.203125 29.421875 3.90625 26.109375 3.90625 22.796875 
C 4 12.25 11.203125 1.90625 21.703125 -0.203125 
C 27.5 -1.40625 34.203125 0.296875 38.203125 2.40625 
C 39.203125 2.90625 42.203125 4.71875 42.703125 5.625 
C 43 6.125 42.40625 11.25 42.40625 11.25 
" id="Computer_Modern_Bright-99"/>
      <path d="M 12.59375 37.28125 
L 12.5 37.28125 
L 12.5 47.390625 
L 6.40625 47.390625 
L 6.40625 0 
L 12.796875 0 
L 12.796875 21.9375 
C 12.796875 26.84375 12.5 31.875 14.703125 36.46875 
C 15.796875 38.78125 17.5 40.78125 19.796875 41.984375 
C 21.703125 42.890625 23.703125 42.890625 25.796875 42.6875 
C 28.796875 42.6875 31.703125 41.890625 33.59375 39.375 
C 35.40625 37.0625 35.5 34.0625 35.5 31.25 
L 35.5 0 
L 41.90625 0 
L 41.90625 26.859375 
C 41.90625 31.875 42.40625 37.375 40 41.890625 
C 38.09375 45.5 34.40625 47.203125 30.5 47.703125 
C 28.5 48 26.40625 48 24.40625 47.609375 
C 19.203125 46.5 14.40625 42.296875 12.59375 37.28125 
" id="Computer_Modern_Bright-110"/>
     </defs>
     <g style="fill:#262626;" transform="translate(201.022873 343.359582)scale(0.18 -0.18)">
      <use transform="scale(0.996264)" xlink:href="#Computer_Modern_Bright-69"/>
      <use transform="translate(58.737787 0)scale(0.996264)" xlink:href="#Computer_Modern_Bright-112"/>
      <use transform="translate(106.890284 0)scale(0.996264)" xlink:href="#Computer_Modern_Bright-105"/>
      <use transform="translate(125.985243 0)scale(0.996264)" xlink:href="#Computer_Modern_Bright-115"/>
      <use transform="translate(164.424272 0)scale(0.996264)" xlink:href="#Computer_Modern_Bright-116"/>
      <use transform="translate(200.53866 0)scale(0.996264)" xlink:href="#Computer_Modern_Bright-97"/>
      <use transform="translate(247.030742 0)scale(0.996264)" xlink:href="#Computer_Modern_Bright-115"/>
      <use transform="translate(285.469772 0)scale(0.996264)" xlink:href="#Computer_Modern_Bright-105"/>
      <use transform="translate(304.56473 0)scale(0.996264)" xlink:href="#Computer_Modern_Bright-115"/>
      <use transform="translate(374.468971 0)scale(0.996264)" xlink:href="#Computer_Modern_Bright-67"/>
      <use transform="translate(439.641004 0)scale(0.996264)" xlink:href="#Computer_Modern_Bright-111"/>
      <use transform="translate(490.284222 0)scale(0.996264)" xlink:href="#Computer_Modern_Bright-101"/>
      <use transform="translate(535.115889 0)scale(0.996264)" xlink:href="#Computer_Modern_Bright-14"/>
      <use transform="translate(613.156322 0)scale(0.996264)" xlink:href="#Computer_Modern_Bright-99"/>
      <use transform="translate(657.987989 0)scale(0.996264)" xlink:href="#Computer_Modern_Bright-105"/>
      <use transform="translate(677.082948 0)scale(0.996264)" xlink:href="#Computer_Modern_Bright-101"/>
      <use transform="translate(721.914616 0)scale(0.996264)" xlink:href="#Computer_Modern_Bright-110"/>
      <use transform="translate(770.067113 0)scale(0.996264)" xlink:href="#Computer_Modern_Bright-116"/>
     </g>
    </g>
   </g>
   <g id="matplotlib.axis_2">
    <g id="ytick_1">
     <g id="line2d_7"/>
     <g id="text_8">
      <!-- $0$ -->
      <g style="fill:#262626;" transform="translate(35.010613 298.124802)scale(0.16 -0.16)">
       <use transform="scale(0.996264)" xlink:href="#Computer_Modern_Bright-48"/>
      </g>
     </g>
    </g>
    <g id="ytick_2">
     <g id="line2d_8"/>
     <g id="text_9">
      <!-- $10$ -->
      <g style="fill:#262626;" transform="translate(26.642062 255.553591)scale(0.16 -0.16)">
       <use transform="scale(0.996264)" xlink:href="#Computer_Modern_Bright-49"/>
       <use transform="translate(50.643218 0)scale(0.996264)" xlink:href="#Computer_Modern_Bright-48"/>
      </g>
     </g>
    </g>
    <g id="ytick_3">
     <g id="line2d_9"/>
     <g id="text_10">
      <!-- $20$ -->
      <g style="fill:#262626;" transform="translate(26.642062 212.98238)scale(0.16 -0.16)">
       <use transform="scale(0.996264)" xlink:href="#Computer_Modern_Bright-50"/>
       <use transform="translate(50.643218 0)scale(0.996264)" xlink:href="#Computer_Modern_Bright-48"/>
      </g>
     </g>
    </g>
    <g id="ytick_4">
     <g id="line2d_10"/>
     <g id="text_11">
      <!-- $30$ -->
      <defs>
       <path d="M 8.09375 50.71875 
C 8.90625 51.921875 9.5 53.234375 10.40625 54.4375 
C 12.5 57.25 15.40625 59.453125 18.703125 60.765625 
C 23.90625 62.875 31.5 62.875 35.59375 58.21875 
C 39.203125 54.078125 37.703125 47.609375 34.40625 43.78125 
C 31.40625 40.25 27.5 38.53125 21.703125 38.53125 
C 20 38.53125 18.40625 38.03125 16.703125 38.03125 
L 16.703125 33 
L 23.59375 33 
C 29.40625 33 33.203125 32.109375 36.40625 28.6875 
C 41.90625 22.859375 41.40625 12.515625 35.296875 7.203125 
C 32.203125 4.59375 27.90625 3.78125 23.90625 4.078125 
C 16.09375 4.6875 9.203125 8.8125 4.59375 15.234375 
C 4.09375 14.234375 4.09375 12.828125 3.90625 11.71875 
C 3.59375 10.109375 3.59375 10.109375 4.59375 8.8125 
C 7.5 4.890625 13.203125 1.28125 17.703125 -0.03125 
C 25.703125 -2.4375 35 -1.34375 41.203125 4.78125 
C 42.40625 6 43.5 7.296875 44.40625 8.703125 
C 48.09375 14.53125 48.203125 22.15625 44.09375 27.78125 
C 42.40625 30.09375 40.203125 31.90625 37.703125 33.3125 
C 36 34.3125 34 35.3125 32 35.515625 
C 37.796875 38.234375 43.203125 42.828125 44.203125 50.359375 
C 45.09375 57.375 41 61.6875 36.796875 64.1875 
C 30.296875 68 21.796875 68 15.09375 64.671875 
C 12 63.171875 9.203125 60.96875 7.09375 58.25 
C 6.703125 57.75 5.203125 56.046875 5.203125 55.234375 
C 5.203125 54.734375 5.59375 54.234375 5.90625 53.828125 
z
" id="Computer_Modern_Bright-51"/>
      </defs>
      <g style="fill:#262626;" transform="translate(26.642062 170.41117)scale(0.16 -0.16)">
       <use transform="scale(0.996264)" xlink:href="#Computer_Modern_Bright-51"/>
       <use transform="translate(50.643218 0)scale(0.996264)" xlink:href="#Computer_Modern_Bright-48"/>
      </g>
     </g>
    </g>
    <g id="ytick_5">
     <g id="line2d_11"/>
     <g id="text_12">
      <!-- $40$ -->
      <g style="fill:#262626;" transform="translate(26.642062 127.839959)scale(0.16 -0.16)">
       <use transform="scale(0.996264)" xlink:href="#Computer_Modern_Bright-52"/>
       <use transform="translate(50.643218 0)scale(0.996264)" xlink:href="#Computer_Modern_Bright-48"/>
      </g>
     </g>
    </g>
    <g id="ytick_6">
     <g id="line2d_12"/>
     <g id="text_13">
      <!-- $50$ -->
      <defs>
       <path d="M 8.40625 66.328125 
L 8.40625 30.453125 
L 12.203125 30.453125 
C 12.703125 30.453125 13.40625 30.359375 13.796875 30.5625 
C 14.296875 30.859375 14.59375 31.5625 14.90625 31.96875 
C 15.59375 32.859375 16.40625 33.5625 17.203125 34.265625 
C 20.796875 37.28125 27.703125 38.484375 32.296875 36.171875 
C 38.59375 33.171875 39.796875 25.21875 39.296875 19 
C 39 15.0625 37.796875 11.453125 35.5 9.140625 
C 30.203125 3.5 21.296875 3.5 14.796875 6.796875 
C 11.59375 8.40625 8.90625 10.921875 6.90625 13.921875 
L 6.796875 13.921875 
C 6.5 13.421875 4.203125 9.90625 4.203125 9.296875 
C 4.203125 8.890625 4.5 8.59375 4.703125 8.296875 
C 7.703125 4.78125 11.59375 2.0625 16.09375 0.5625 
C 25 -2.25 35 -0.046875 41.296875 7.1875 
C 48.796875 15.921875 47.796875 30.15625 39.09375 37.765625 
C 36.5 40.1875 32.90625 41.890625 28.59375 42.28125 
C 22.796875 43.09375 17.59375 40.28125 14.5 37.671875 
L 14.5 61 
L 42.90625 61 
L 42.90625 66.328125 
z
" id="Computer_Modern_Bright-53"/>
      </defs>
      <g style="fill:#262626;" transform="translate(26.642062 85.268748)scale(0.16 -0.16)">
       <use transform="scale(0.996264)" xlink:href="#Computer_Modern_Bright-53"/>
       <use transform="translate(50.643218 0)scale(0.996264)" xlink:href="#Computer_Modern_Bright-48"/>
      </g>
     </g>
    </g>
    <g id="ytick_7">
     <g id="line2d_13"/>
     <g id="text_14">
      <!-- $60$ -->
      <g style="fill:#262626;" transform="translate(26.642062 42.697538)scale(0.16 -0.16)">
       <use transform="scale(0.996264)" xlink:href="#Computer_Modern_Bright-54"/>
       <use transform="translate(50.643218 0)scale(0.996264)" xlink:href="#Computer_Modern_Bright-48"/>
      </g>
     </g>
    </g>
    <g id="text_15">
     <!-- Cumulative Density Function -->
     <defs>
      <path d="M 6.40625 47 
L 6.40625 12.96875 
C 6.40625 10.046875 6.5 7.140625 7.703125 4.421875 
C 9.59375 0.515625 13.59375 -1 17.703125 -1 
C 23.203125 -1 28.703125 0.8125 32.703125 4.734375 
C 33.796875 5.828125 34.796875 6.9375 35.5 8.34375 
L 35.59375 8.34375 
L 35.59375 -0.390625 
L 41.90625 -0.390625 
L 41.90625 47 
L 35.5 47 
L 35.5 22.90625 
C 35.5 18.6875 36.09375 14.0625 33.90625 10.25 
C 32.296875 7.4375 29.5 5.234375 26.40625 4.234375 
C 24.296875 3.625 22.09375 3.625 19.90625 3.828125 
C 17.796875 4.03125 15.5 4.234375 14.09375 6.03125 
C 12.09375 8.453125 12.796875 14.171875 12.796875 17.6875 
L 12.796875 47 
z
" id="Computer_Modern_Bright-117"/>
      <path d="M 12.59375 37.359375 
L 12.5 37.359375 
L 12.5 47.390625 
L 6.40625 47.390625 
L 6.40625 0 
L 12.796875 0 
L 12.796875 22.046875 
C 12.796875 26.953125 12.5 31.875 14.703125 36.375 
C 16.59375 40.28125 19.90625 43.390625 25.796875 42.78125 
C 28.796875 42.78125 31.796875 41.984375 33.703125 39.453125 
C 35.5 37.140625 35.59375 34.140625 35.59375 31.3125 
L 35.59375 0 
L 42 0 
L 42 22.046875 
C 42 26.953125 41.703125 31.875 43.90625 36.375 
C 45.796875 40.28125 49.09375 43.390625 55 42.78125 
C 58 42.78125 61 41.984375 62.90625 39.453125 
C 64.703125 37.140625 64.796875 34.140625 64.796875 31.3125 
L 64.796875 0 
L 71.203125 0 
L 71.203125 26.5625 
C 71.203125 31.375 71.796875 36.78125 69.703125 41.1875 
C 67.59375 45.296875 64.203125 47.5 58.703125 47.5 
C 55.5 47.796875 52.296875 47.3125 49.40625 45.84375 
C 45.90625 43.921875 43.296875 40.75 41.703125 37.265625 
C 41 40.578125 40.203125 42.828125 38 45 
C 35.703125 47.0625 32.59375 48 29.59375 48 
C 22.296875 48.59375 17.703125 45.5625 14.59375 41 
C 13.796875 39.875 13 38.671875 12.59375 37.359375 
" id="Computer_Modern_Bright-109"/>
      <path d="M 6.40625 69.6875 
L 6.40625 0 
L 12.703125 0 
L 12.703125 69.6875 
z
" id="Computer_Modern_Bright-108"/>
      <path d="M 0.703125 47.5 
C 1.203125 45.5 4.203125 37.578125 4.40625 37.078125 
C 5.40625 34.28125 17.296875 0.609375 17.59375 0.296875 
C 17.90625 -0.203125 18.796875 0 19.296875 0 
L 22.796875 0 
C 24.09375 0 24.90625 -0.296875 25.203125 0.90625 
C 28.40625 9.328125 40.09375 42.703125 41.796875 47.5 
L 35.59375 47.5 
C 30.796875 33.984375 25.90625 20.4375 21.40625 6.609375 
L 11 36.203125 
C 9.5 39.796875 8.59375 43.890625 6.90625 47.203125 
C 5.09375 47.5 2.796875 47.5 0.703125 47.5 
" id="Computer_Modern_Bright-118"/>
      <path d="M 8 70 
L 8 0 
L 28.203125 0 
C 31.40625 0 34.59375 0 37.703125 0.296875 
C 45.703125 1.109375 52.59375 5.015625 57.203125 9.828125 
C 70.09375 23.171875 70 46.125 57.296875 59.671875 
C 52.703125 64.578125 46.5 68.5 38.703125 69.5 
C 34.90625 70 31 70 27.203125 70 
z
M 14.90625 5.3125 
L 14.90625 64.5625 
L 27.796875 64.5625 
C 30.5 64.5625 33.203125 64.5625 35.90625 64.359375 
C 40.40625 63.859375 44.796875 62.359375 48.5 59.734375 
C 56.59375 54.125 60 44.171875 60 34.640625 
C 60 26.609375 57.796875 18.375 51.90625 12.640625 
C 47.90625 8.9375 42.5 6.21875 36 5.515625 
C 33.40625 5.3125 30.703125 5.3125 28.09375 5.3125 
z
" id="Computer_Modern_Bright-68"/>
      <path d="M 0.703125 47.65625 
C 1.296875 45.75 5.40625 35.609375 5.5 35.3125 
L 17.40625 4.578125 
L 18.40625 2.078125 
C 19 0.671875 19.203125 0.46875 18.59375 -1.140625 
L 17.5 -4.046875 
C 16.59375 -6.46875 15.59375 -8.96875 13.703125 -10.484375 
C 10.296875 -13.296875 4.90625 -11.6875 0.796875 -10.78125 
L 1.296875 -16.5 
C 3.203125 -16.796875 5.09375 -17 7 -17 
C 11.296875 -17.515625 14.09375 -16.5 16.703125 -14.296875 
C 20 -11.484375 21.59375 -7.5625 23.09375 -3.546875 
L 26.203125 5.078125 
L 36.40625 32.90625 
C 38.09375 37.921875 40.203125 42.640625 41.796875 47.65625 
L 37.296875 47.65625 
C 36.796875 47.65625 36 47.859375 35.59375 47.46875 
C 35.40625 47.15625 35.296875 46.765625 35.203125 46.453125 
L 34.40625 44.34375 
C 33.40625 41.734375 32.5 39.234375 31.59375 36.609375 
L 25.796875 20.25 
C 24.296875 15.828125 22.59375 11.3125 21.796875 6.6875 
C 20.703125 11.3125 19.203125 15.734375 17.59375 20.140625 
C 16.296875 23.5625 8.5 44.546875 7.5 46.5625 
C 7.09375 47.65625 6.703125 47.65625 5.203125 47.65625 
z
" id="Computer_Modern_Bright-121"/>
      <path d="M 8 69.328125 
L 8 0 
L 15 0 
L 15 32 
L 48.09375 32 
L 48.09375 37.3125 
L 15 37.3125 
L 15 64 
L 52.40625 64 
L 52.40625 69.328125 
z
" id="Computer_Modern_Bright-70"/>
     </defs>
     <g style="fill:#262626;" transform="translate(19.65327 260.669538)rotate(-90)scale(0.18 -0.18)">
      <use transform="scale(0.996264)" xlink:href="#Computer_Modern_Bright-67"/>
      <use transform="translate(65.172032 0)scale(0.996264)" xlink:href="#Computer_Modern_Bright-117"/>
      <use transform="translate(113.324529 0)scale(0.996264)" xlink:href="#Computer_Modern_Bright-109"/>
      <use transform="translate(190.534656 0)scale(0.996264)" xlink:href="#Computer_Modern_Bright-117"/>
      <use transform="translate(238.687153 0)scale(0.996264)" xlink:href="#Computer_Modern_Bright-108"/>
      <use transform="translate(257.782112 0)scale(0.996264)" xlink:href="#Computer_Modern_Bright-97"/>
      <use transform="translate(304.274194 0)scale(0.996264)" xlink:href="#Computer_Modern_Bright-116"/>
      <use transform="translate(340.388582 0)scale(0.996264)" xlink:href="#Computer_Modern_Bright-105"/>
      <use transform="translate(359.483541 0)scale(0.996264)" xlink:href="#Computer_Modern_Bright-118"/>
      <use transform="translate(401.824579 0)scale(0.996264)" xlink:href="#Computer_Modern_Bright-101"/>
      <use transform="translate(478.121458 0)scale(0.996264)" xlink:href="#Computer_Modern_Bright-68"/>
      <use transform="translate(549.727645 0)scale(0.996264)" xlink:href="#Computer_Modern_Bright-101"/>
      <use transform="translate(594.559312 0)scale(0.996264)" xlink:href="#Computer_Modern_Bright-110"/>
      <use transform="translate(642.711809 0)scale(0.996264)" xlink:href="#Computer_Modern_Bright-115"/>
      <use transform="translate(681.150839 0)scale(0.996264)" xlink:href="#Computer_Modern_Bright-105"/>
      <use transform="translate(700.245798 0)scale(0.996264)" xlink:href="#Computer_Modern_Bright-116"/>
      <use transform="translate(733.454456 0)scale(0.996264)" xlink:href="#Computer_Modern_Bright-121"/>
      <use transform="translate(807.260706 0)scale(0.996264)" xlink:href="#Computer_Modern_Bright-70"/>
      <use transform="translate(860.187034 0)scale(0.996264)" xlink:href="#Computer_Modern_Bright-117"/>
      <use transform="translate(908.339531 0)scale(0.996264)" xlink:href="#Computer_Modern_Bright-110"/>
      <use transform="translate(956.492028 0)scale(0.996264)" xlink:href="#Computer_Modern_Bright-99"/>
      <use transform="translate(1001.323695 0)scale(0.996264)" xlink:href="#Computer_Modern_Bright-116"/>
      <use transform="translate(1037.438083 0)scale(0.996264)" xlink:href="#Computer_Modern_Bright-105"/>
      <use transform="translate(1056.533042 0)scale(0.996264)" xlink:href="#Computer_Modern_Bright-111"/>
      <use transform="translate(1107.17626 0)scale(0.996264)" xlink:href="#Computer_Modern_Bright-110"/>
     </g>
    </g>
   </g>
   <g id="PolyCollection_1">
    <path clip-path="url(#pee0f11c785)" d="M 252.374003 292.585145 
L 252.374003 292.59 
L 252.556976 292.59 
L 252.739949 292.59 
L 252.922922 292.59 
L 253.105895 292.59 
L 253.288869 292.59 
L 253.471842 292.59 
L 253.654815 292.59 
L 253.837788 292.59 
L 254.020761 292.59 
L 254.203734 292.59 
L 254.386707 292.59 
L 254.56968 292.59 
L 254.752653 292.59 
L 254.935626 292.59 
L 255.118599 292.59 
L 255.301573 292.59 
L 255.484546 292.59 
L 255.667519 292.59 
L 255.850492 292.59 
L 256.033465 292.59 
L 256.216438 292.59 
L 256.399411 292.59 
L 256.582384 292.59 
L 256.765357 292.59 
L 256.94833 292.59 
L 257.131304 292.59 
L 257.314277 292.59 
L 257.49725 292.59 
L 257.680223 292.59 
L 257.863196 292.59 
L 258.046169 292.59 
L 258.229142 292.59 
L 258.412115 292.59 
L 258.595088 292.59 
L 258.778061 292.59 
L 258.961034 292.59 
L 259.144008 292.59 
L 259.326981 292.59 
L 259.509954 292.59 
L 259.692927 292.59 
L 259.8759 292.59 
L 260.058873 292.59 
L 260.241846 292.59 
L 260.424819 292.59 
L 260.607792 292.59 
L 260.790765 292.59 
L 260.973738 292.59 
L 261.156712 292.59 
L 261.339685 292.59 
L 261.522658 292.59 
L 261.705631 292.59 
L 261.888604 292.59 
L 262.071577 292.59 
L 262.25455 292.59 
L 262.437523 292.59 
L 262.620496 292.59 
L 262.803469 292.59 
L 262.986442 292.59 
L 263.169416 292.59 
L 263.352389 292.59 
L 263.535362 292.59 
L 263.718335 292.59 
L 263.901308 292.59 
L 264.084281 292.59 
L 264.267254 292.59 
L 264.450227 292.59 
L 264.6332 292.59 
L 264.816173 292.59 
L 264.999146 292.59 
L 265.18212 292.59 
L 265.365093 292.59 
L 265.548066 292.59 
L 265.731039 292.59 
L 265.914012 292.59 
L 266.096985 292.59 
L 266.279958 292.59 
L 266.462931 292.59 
L 266.645904 292.59 
L 266.828877 292.59 
L 267.011851 292.59 
L 267.194824 292.59 
L 267.377797 292.59 
L 267.56077 292.59 
L 267.743743 292.59 
L 267.926716 292.59 
L 268.109689 292.59 
L 268.292662 292.59 
L 268.475635 292.59 
L 268.658608 292.59 
L 268.841581 292.59 
L 269.024555 292.59 
L 269.207528 292.59 
L 269.390501 292.59 
L 269.573474 292.59 
L 269.756447 292.59 
L 269.93942 292.59 
L 270.122393 292.59 
L 270.305366 292.59 
L 270.488339 292.59 
L 270.671312 292.59 
L 270.854285 292.59 
L 271.037259 292.59 
L 271.220232 292.59 
L 271.403205 292.59 
L 271.586178 292.59 
L 271.769151 292.59 
L 271.952124 292.59 
L 272.135097 292.59 
L 272.31807 292.59 
L 272.501043 292.59 
L 272.684016 292.59 
L 272.866989 292.59 
L 273.049963 292.59 
L 273.232936 292.59 
L 273.415909 292.59 
L 273.598882 292.59 
L 273.781855 292.59 
L 273.964828 292.59 
L 274.147801 292.59 
L 274.330774 292.59 
L 274.513747 292.59 
L 274.69672 292.59 
L 274.879693 292.59 
L 275.062667 292.59 
L 275.24564 292.59 
L 275.428613 292.59 
L 275.611586 292.59 
L 275.611586 292.584574 
L 275.611586 292.584574 
L 275.428613 292.578327 
L 275.24564 292.563144 
L 275.062667 292.533267 
L 274.879693 292.481996 
L 274.69672 292.404786 
L 274.513747 292.303121 
L 274.330774 292.186821 
L 274.147801 292.072036 
L 273.964828 291.974259 
L 273.781855 291.899292 
L 273.598882 291.837589 
L 273.415909 291.766438 
L 273.232936 291.660284 
L 273.049963 291.504492 
L 272.866989 291.304966 
L 272.684016 291.08715 
L 272.501043 290.88334 
L 272.31807 290.714311 
L 272.135097 290.575233 
L 271.952124 290.433384 
L 271.769151 290.237798 
L 271.586178 289.934007 
L 271.403205 289.475048 
L 271.220232 288.82405 
L 271.037259 287.950953 
L 270.854285 286.830954 
L 270.671312 285.44979 
L 270.488339 283.811823 
L 270.305366 281.939994 
L 270.122393 279.86122 
L 269.93942 277.58482 
L 269.756447 275.091193 
L 269.573474 272.342223 
L 269.390501 269.307687 
L 269.207528 265.988507 
L 269.024555 262.41932 
L 268.841581 258.647565 
L 268.658608 254.702162 
L 268.475635 250.570342 
L 268.292662 246.193376 
L 268.109689 241.478862 
L 267.926716 236.319803 
L 267.743743 230.613421 
L 267.56077 224.279491 
L 267.377797 217.279536 
L 267.194824 209.632359 
L 267.011851 201.416125 
L 266.828877 192.752209 
L 266.645904 183.779177 
L 266.462931 174.631919 
L 266.279958 165.431804 
L 266.096985 156.280186 
L 265.914012 147.249626 
L 265.731039 138.3825 
L 265.548066 129.710458 
L 265.365093 121.288989 
L 265.18212 113.223471 
L 264.999146 105.67291 
L 264.816173 98.841929 
L 264.6332 92.97284 
L 264.450227 88.323129 
L 264.267254 85.100453 
L 264.084281 83.359653 
L 263.901308 82.918755 
L 263.718335 83.366108 
L 263.535362 84.184267 
L 263.352389 84.94212 
L 263.169416 85.460641 
L 262.986442 85.868537 
L 262.803469 86.520818 
L 262.620496 87.822866 
L 262.437523 90.049884 
L 262.25455 93.251909 
L 262.071577 97.285142 
L 261.888604 101.938218 
L 261.705631 107.071456 
L 261.522658 112.687641 
L 261.339685 118.899764 
L 261.156712 125.824861 
L 260.973738 133.477808 
L 260.790765 141.736088 
L 260.607792 150.392216 
L 260.424819 159.243488 
L 260.241846 168.148257 
L 260.058873 177.021825 
L 259.8759 185.802344 
L 259.692927 194.426709 
L 259.509954 202.821314 
L 259.326981 210.889187 
L 259.144008 218.494347 
L 258.961034 225.473233 
L 258.778061 231.694218 
L 258.595088 237.140544 
L 258.412115 241.956649 
L 258.229142 246.411385 
L 258.046169 250.785763 
L 257.863196 255.244818 
L 257.680223 259.765536 
L 257.49725 264.159609 
L 257.314277 268.174908 
L 257.131304 271.617413 
L 256.94833 274.430065 
L 256.765357 276.69681 
L 256.582384 278.585206 
L 256.399411 280.269165 
L 256.216438 281.870852 
L 256.033465 283.438252 
L 255.850492 284.953583 
L 255.667519 286.358842 
L 255.484546 287.585963 
L 255.301573 288.583405 
L 255.118599 289.334444 
L 254.935626 289.864267 
L 254.752653 290.233773 
L 254.56968 290.520459 
L 254.386707 290.792429 
L 254.203734 291.087046 
L 254.020761 291.404751 
L 253.837788 291.719803 
L 253.654815 291.999673 
L 253.471842 292.221513 
L 253.288869 292.378871 
L 253.105895 292.479154 
L 252.922922 292.536742 
L 252.739949 292.566538 
L 252.556976 292.580228 
L 252.374003 292.585145 
z
" style="fill-opacity:0.25;"/>
   </g>
   <g id="PolyCollection_2">
    <path clip-path="url(#pee0f11c785)" d="M 299.271765 292.587763 
L 299.271765 292.59 
L 299.591216 292.59 
L 299.910666 292.59 
L 300.230116 292.59 
L 300.549566 292.59 
L 300.869016 292.59 
L 301.188466 292.59 
L 301.507916 292.59 
L 301.827366 292.59 
L 302.146817 292.59 
L 302.466267 292.59 
L 302.785717 292.59 
L 303.105167 292.59 
L 303.424617 292.59 
L 303.744067 292.59 
L 304.063517 292.59 
L 304.382967 292.59 
L 304.702418 292.59 
L 305.021868 292.59 
L 305.341318 292.59 
L 305.660768 292.59 
L 305.980218 292.59 
L 306.299668 292.59 
L 306.619118 292.59 
L 306.938568 292.59 
L 307.258019 292.59 
L 307.577469 292.59 
L 307.896919 292.59 
L 308.216369 292.59 
L 308.535819 292.59 
L 308.855269 292.59 
L 309.174719 292.59 
L 309.49417 292.59 
L 309.81362 292.59 
L 310.13307 292.59 
L 310.45252 292.59 
L 310.77197 292.59 
L 311.09142 292.59 
L 311.41087 292.59 
L 311.73032 292.59 
L 312.049771 292.59 
L 312.369221 292.59 
L 312.688671 292.59 
L 313.008121 292.59 
L 313.327571 292.59 
L 313.647021 292.59 
L 313.966471 292.59 
L 314.285921 292.59 
L 314.605372 292.59 
L 314.924822 292.59 
L 315.244272 292.59 
L 315.563722 292.59 
L 315.883172 292.59 
L 316.202622 292.59 
L 316.522072 292.59 
L 316.841522 292.59 
L 317.160973 292.59 
L 317.480423 292.59 
L 317.799873 292.59 
L 318.119323 292.59 
L 318.438773 292.59 
L 318.758223 292.59 
L 319.077673 292.59 
L 319.397123 292.59 
L 319.716574 292.59 
L 320.036024 292.59 
L 320.355474 292.59 
L 320.674924 292.59 
L 320.994374 292.59 
L 321.313824 292.59 
L 321.633274 292.59 
L 321.952724 292.59 
L 322.272175 292.59 
L 322.591625 292.59 
L 322.911075 292.59 
L 323.230525 292.59 
L 323.549975 292.59 
L 323.869425 292.59 
L 324.188875 292.59 
L 324.508326 292.59 
L 324.827776 292.59 
L 325.147226 292.59 
L 325.466676 292.59 
L 325.786126 292.59 
L 326.105576 292.59 
L 326.425026 292.59 
L 326.744476 292.59 
L 327.063927 292.59 
L 327.383377 292.59 
L 327.702827 292.59 
L 328.022277 292.59 
L 328.341727 292.59 
L 328.661177 292.59 
L 328.980627 292.59 
L 329.300077 292.59 
L 329.619528 292.59 
L 329.938978 292.59 
L 330.258428 292.59 
L 330.577878 292.59 
L 330.897328 292.59 
L 331.216778 292.59 
L 331.536228 292.59 
L 331.855678 292.59 
L 332.175129 292.59 
L 332.494579 292.59 
L 332.814029 292.59 
L 333.133479 292.59 
L 333.452929 292.59 
L 333.772379 292.59 
L 334.091829 292.59 
L 334.411279 292.59 
L 334.73073 292.59 
L 335.05018 292.59 
L 335.36963 292.59 
L 335.68908 292.59 
L 336.00853 292.59 
L 336.32798 292.59 
L 336.64743 292.59 
L 336.96688 292.59 
L 337.286331 292.59 
L 337.605781 292.59 
L 337.925231 292.59 
L 338.244681 292.59 
L 338.564131 292.59 
L 338.883581 292.59 
L 339.203031 292.59 
L 339.522481 292.59 
L 339.841932 292.59 
L 339.841932 292.587763 
L 339.841932 292.587763 
L 339.522481 292.58531 
L 339.203031 292.579214 
L 338.883581 292.567496 
L 338.564131 292.548393 
L 338.244681 292.521888 
L 337.925231 292.490944 
L 337.605781 292.461125 
L 337.286331 292.438027 
L 336.96688 292.423761 
L 336.64743 292.414989 
L 336.32798 292.403849 
L 336.00853 292.380235 
L 335.68908 292.332528 
L 335.36963 292.246317 
L 335.05018 292.104639 
L 334.73073 291.893651 
L 334.411279 291.612096 
L 334.091829 291.276245 
L 333.772379 290.912604 
L 333.452929 290.540731 
L 333.133479 290.159163 
L 332.814029 289.746387 
L 332.494579 289.275037 
L 332.175129 288.725046 
L 331.855678 288.084169 
L 331.536228 287.339479 
L 331.216778 286.473736 
L 330.897328 285.473924 
L 330.577878 284.342549 
L 330.258428 283.09473 
L 329.938978 281.736713 
L 329.619528 280.243411 
L 329.300077 278.560022 
L 328.980627 276.633728 
L 328.661177 274.452543 
L 328.341727 272.059184 
L 328.022277 269.528577 
L 327.702827 266.92812 
L 327.383377 264.290754 
L 327.063927 261.613562 
L 326.744476 258.868533 
L 326.425026 256.006049 
L 326.105576 252.951933 
L 325.786126 249.61857 
L 325.466676 245.940304 
L 325.147226 241.911432 
L 324.827776 237.591774 
L 324.508326 233.070423 
L 324.188875 228.415844 
L 323.869425 223.649543 
L 323.549975 218.754961 
L 323.230525 213.70397 
L 322.911075 208.478997 
L 322.591625 203.086686 
L 322.272175 197.573706 
L 321.952724 192.048094 
L 321.633274 186.687736 
L 321.313824 181.709934 
L 320.994374 177.30255 
L 320.674924 173.558796 
L 320.355474 170.465947 
L 320.036024 167.953731 
L 319.716574 165.955097 
L 319.397123 164.429931 
L 319.077673 163.350383 
L 318.758223 162.685544 
L 318.438773 162.412037 
L 318.119323 162.538713 
L 317.799873 163.115965 
L 317.480423 164.216458 
L 317.160973 165.89882 
L 316.841522 168.176615 
L 316.522072 171.011984 
L 316.202622 174.341677 
L 315.883172 178.122725 
L 315.563722 182.365538 
L 315.244272 187.124244 
L 314.924822 192.442341 
L 314.605372 198.285648 
L 314.285921 204.509087 
L 313.966471 210.887901 
L 313.647021 217.201693 
L 313.327571 223.316383 
L 313.008121 229.204723 
L 312.688671 234.894412 
L 312.369221 240.392486 
L 312.049771 245.647054 
L 311.73032 250.566837 
L 311.41087 255.073903 
L 311.09142 259.152512 
L 310.77197 262.867746 
L 310.45252 266.341323 
L 310.13307 269.690912 
L 309.81362 272.965147 
L 309.49417 276.117145 
L 309.174719 279.034906 
L 308.855269 281.605195 
L 308.535819 283.767244 
L 308.216369 285.528305 
L 307.896919 286.943914 
L 307.577469 288.084873 
L 307.258019 289.012228 
L 306.938568 289.769124 
L 306.619118 290.38532 
L 306.299668 290.884297 
L 305.980218 291.286126 
L 305.660768 291.606724 
L 305.341318 291.85784 
L 305.021868 292.049561 
L 304.702418 292.192855 
L 304.382967 292.299258 
L 304.063517 292.378006 
L 303.744067 292.433755 
L 303.424617 292.467393 
L 303.105167 292.479633 
L 302.785717 292.474723 
L 302.466267 292.461541 
L 302.146817 292.451149 
L 301.827366 292.452277 
L 301.507916 292.467651 
L 301.188466 292.493571 
L 300.869016 292.522819 
L 300.549566 292.548683 
L 300.230116 292.567575 
L 299.910666 292.579233 
L 299.591216 292.585314 
L 299.271765 292.587763 
z
" style="fill:#33a02c;fill-opacity:0.25;"/>
   </g>
   <g id="PolyCollection_3">
    <path clip-path="url(#pee0f11c785)" d="M 282.433307 292.58597 
L 282.433307 292.59 
L 282.62384 292.59 
L 282.814374 292.59 
L 283.004908 292.59 
L 283.195441 292.59 
L 283.385975 292.59 
L 283.576509 292.59 
L 283.767042 292.59 
L 283.957576 292.59 
L 284.14811 292.59 
L 284.338643 292.59 
L 284.529177 292.59 
L 284.719711 292.59 
L 284.910244 292.59 
L 285.100778 292.59 
L 285.291312 292.59 
L 285.481845 292.59 
L 285.672379 292.59 
L 285.862913 292.59 
L 286.053446 292.59 
L 286.24398 292.59 
L 286.434514 292.59 
L 286.625048 292.59 
L 286.815581 292.59 
L 287.006115 292.59 
L 287.196649 292.59 
L 287.387182 292.59 
L 287.577716 292.59 
L 287.76825 292.59 
L 287.958783 292.59 
L 288.149317 292.59 
L 288.339851 292.59 
L 288.530384 292.59 
L 288.720918 292.59 
L 288.911452 292.59 
L 289.101985 292.59 
L 289.292519 292.59 
L 289.483053 292.59 
L 289.673586 292.59 
L 289.86412 292.59 
L 290.054654 292.59 
L 290.245187 292.59 
L 290.435721 292.59 
L 290.626255 292.59 
L 290.816788 292.59 
L 291.007322 292.59 
L 291.197856 292.59 
L 291.388389 292.59 
L 291.578923 292.59 
L 291.769457 292.59 
L 291.95999 292.59 
L 292.150524 292.59 
L 292.341058 292.59 
L 292.531591 292.59 
L 292.722125 292.59 
L 292.912659 292.59 
L 293.103193 292.59 
L 293.293726 292.59 
L 293.48426 292.59 
L 293.674794 292.59 
L 293.865327 292.59 
L 294.055861 292.59 
L 294.246395 292.59 
L 294.436928 292.59 
L 294.627462 292.59 
L 294.817996 292.59 
L 295.008529 292.59 
L 295.199063 292.59 
L 295.389597 292.59 
L 295.58013 292.59 
L 295.770664 292.59 
L 295.961198 292.59 
L 296.151731 292.59 
L 296.342265 292.59 
L 296.532799 292.59 
L 296.723332 292.59 
L 296.913866 292.59 
L 297.1044 292.59 
L 297.294933 292.59 
L 297.485467 292.59 
L 297.676001 292.59 
L 297.866534 292.59 
L 298.057068 292.59 
L 298.247602 292.59 
L 298.438135 292.59 
L 298.628669 292.59 
L 298.819203 292.59 
L 299.009736 292.59 
L 299.20027 292.59 
L 299.390804 292.59 
L 299.581338 292.59 
L 299.771871 292.59 
L 299.962405 292.59 
L 300.152939 292.59 
L 300.343472 292.59 
L 300.534006 292.59 
L 300.72454 292.59 
L 300.915073 292.59 
L 301.105607 292.59 
L 301.296141 292.59 
L 301.486674 292.59 
L 301.677208 292.59 
L 301.867742 292.59 
L 302.058275 292.59 
L 302.248809 292.59 
L 302.439343 292.59 
L 302.629876 292.59 
L 302.82041 292.59 
L 303.010944 292.59 
L 303.201477 292.59 
L 303.392011 292.59 
L 303.582545 292.59 
L 303.773078 292.59 
L 303.963612 292.59 
L 304.154146 292.59 
L 304.344679 292.59 
L 304.535213 292.59 
L 304.725747 292.59 
L 304.91628 292.59 
L 305.106814 292.59 
L 305.297348 292.59 
L 305.487882 292.59 
L 305.678415 292.59 
L 305.868949 292.59 
L 306.059483 292.59 
L 306.250016 292.59 
L 306.44055 292.59 
L 306.631084 292.59 
L 306.631084 292.586035 
L 306.631084 292.586035 
L 306.44055 292.581355 
L 306.250016 292.569233 
L 306.059483 292.544653 
L 305.868949 292.50176 
L 305.678415 292.436722 
L 305.487882 292.351041 
L 305.297348 292.253005 
L 305.106814 292.155075 
L 304.91628 292.067196 
L 304.725747 291.98887 
L 304.535213 291.904134 
L 304.344679 291.782876 
L 304.154146 291.590072 
L 303.963612 291.301532 
L 303.773078 290.919551 
L 303.582545 290.47684 
L 303.392011 290.01864 
L 303.201477 289.565046 
L 303.010944 289.072426 
L 302.82041 288.421017 
L 302.629876 287.446024 
L 302.439343 286.004954 
L 302.248809 284.048871 
L 302.058275 281.656622 
L 301.867742 279.007382 
L 301.677208 276.301064 
L 301.486674 273.66748 
L 301.296141 271.112567 
L 301.105607 268.526674 
L 300.915073 265.740175 
L 300.72454 262.583767 
L 300.534006 258.917937 
L 300.343472 254.633792 
L 300.152939 249.659393 
L 299.962405 243.995017 
L 299.771871 237.752987 
L 299.581338 231.145435 
L 299.390804 224.393225 
L 299.20027 217.60472 
L 299.009736 210.719652 
L 298.819203 203.572526 
L 298.628669 196.028247 
L 298.438135 188.07581 
L 298.247602 179.802913 
L 298.057068 171.282267 
L 297.866534 162.477255 
L 297.676001 153.253512 
L 297.485467 143.492766 
L 297.294933 133.229072 
L 297.1044 122.719601 
L 296.913866 112.410612 
L 296.723332 102.819286 
L 296.532799 94.390377 
L 296.342265 87.391645 
L 296.151731 81.884906 
L 295.961198 77.767343 
L 295.770664 74.85106 
L 295.58013 72.952975 
L 295.389597 71.978337 
L 295.199063 71.9678 
L 295.008529 73.056991 
L 294.817996 75.329489 
L 294.627462 78.643142 
L 294.436928 82.583875 
L 294.246395 86.638638 
L 294.055861 90.498124 
L 293.865327 94.263995 
L 293.674794 98.390566 
L 293.48426 103.403371 
L 293.293726 109.613616 
L 293.103193 117.024373 
L 292.912659 125.435658 
L 292.722125 134.598481 
L 292.531591 144.2854 
L 292.341058 154.275974 
L 292.150524 164.334713 
L 291.95999 174.225201 
L 291.769457 183.740839 
L 291.578923 192.726005 
L 291.388389 201.093106 
L 291.197856 208.846046 
L 291.007322 216.092216 
L 290.816788 223.013551 
L 290.626255 229.796223 
L 290.435721 236.552637 
L 290.245187 243.270883 
L 290.054654 249.806466 
L 289.86412 255.918647 
L 289.673586 261.347046 
L 289.483053 265.904041 
L 289.292519 269.537263 
L 289.101985 272.328998 
L 288.911452 274.445928 
L 288.720918 276.086317 
L 288.530384 277.456135 
L 288.339851 278.761079 
L 288.149317 280.180165 
L 287.958783 281.8119 
L 287.76825 283.626883 
L 287.577716 285.472829 
L 287.387182 287.143636 
L 287.196649 288.474736 
L 287.006115 289.408082 
L 286.815581 289.995432 
L 286.625048 290.351486 
L 286.434514 290.593587 
L 286.24398 290.800688 
L 286.053446 291.003635 
L 285.862913 291.199424 
L 285.672379 291.373195 
L 285.481845 291.514052 
L 285.291312 291.619979 
L 285.100778 291.69567 
L 284.910244 291.749564 
L 284.719711 291.792814 
L 284.529177 291.838684 
L 284.338643 291.900006 
L 284.14811 291.984656 
L 283.957576 292.091599 
L 283.767042 292.210508 
L 283.576509 292.325872 
L 283.385975 292.42348 
L 283.195441 292.495572 
L 283.004908 292.54209 
L 282.814374 292.568295 
L 282.62384 292.581056 
L 282.433307 292.58597 
z
" style="fill:#0000ff;fill-opacity:0.25;"/>
   </g>
   <g id="PolyCollection_4">
    <path clip-path="url(#pee0f11c785)" d="M 273.613625 292.584167 
L 273.613625 292.59 
L 273.771972 292.59 
L 273.930318 292.59 
L 274.088664 292.59 
L 274.247011 292.59 
L 274.405357 292.59 
L 274.563704 292.59 
L 274.72205 292.59 
L 274.880396 292.59 
L 275.038743 292.59 
L 275.197089 292.59 
L 275.355435 292.59 
L 275.513782 292.59 
L 275.672128 292.59 
L 275.830475 292.59 
L 275.988821 292.59 
L 276.147167 292.59 
L 276.305514 292.59 
L 276.46386 292.59 
L 276.622207 292.59 
L 276.780553 292.59 
L 276.938899 292.59 
L 277.097246 292.59 
L 277.255592 292.59 
L 277.413938 292.59 
L 277.572285 292.59 
L 277.730631 292.59 
L 277.888978 292.59 
L 278.047324 292.59 
L 278.20567 292.59 
L 278.364017 292.59 
L 278.522363 292.59 
L 278.680709 292.59 
L 278.839056 292.59 
L 278.997402 292.59 
L 279.155749 292.59 
L 279.314095 292.59 
L 279.472441 292.59 
L 279.630788 292.59 
L 279.789134 292.59 
L 279.947481 292.59 
L 280.105827 292.59 
L 280.264173 292.59 
L 280.42252 292.59 
L 280.580866 292.59 
L 280.739212 292.59 
L 280.897559 292.59 
L 281.055905 292.59 
L 281.214252 292.59 
L 281.372598 292.59 
L 281.530944 292.59 
L 281.689291 292.59 
L 281.847637 292.59 
L 282.005983 292.59 
L 282.16433 292.59 
L 282.322676 292.59 
L 282.481023 292.59 
L 282.639369 292.59 
L 282.797715 292.59 
L 282.956062 292.59 
L 283.114408 292.59 
L 283.272755 292.59 
L 283.431101 292.59 
L 283.589447 292.59 
L 283.747794 292.59 
L 283.90614 292.59 
L 284.064486 292.59 
L 284.222833 292.59 
L 284.381179 292.59 
L 284.539526 292.59 
L 284.697872 292.59 
L 284.856218 292.59 
L 285.014565 292.59 
L 285.172911 292.59 
L 285.331258 292.59 
L 285.489604 292.59 
L 285.64795 292.59 
L 285.806297 292.59 
L 285.964643 292.59 
L 286.122989 292.59 
L 286.281336 292.59 
L 286.439682 292.59 
L 286.598029 292.59 
L 286.756375 292.59 
L 286.914721 292.59 
L 287.073068 292.59 
L 287.231414 292.59 
L 287.38976 292.59 
L 287.548107 292.59 
L 287.706453 292.59 
L 287.8648 292.59 
L 288.023146 292.59 
L 288.181492 292.59 
L 288.339839 292.59 
L 288.498185 292.59 
L 288.656532 292.59 
L 288.814878 292.59 
L 288.973224 292.59 
L 289.131571 292.59 
L 289.289917 292.59 
L 289.448263 292.59 
L 289.60661 292.59 
L 289.764956 292.59 
L 289.923303 292.59 
L 290.081649 292.59 
L 290.239995 292.59 
L 290.398342 292.59 
L 290.556688 292.59 
L 290.715035 292.59 
L 290.873381 292.59 
L 291.031727 292.59 
L 291.190074 292.59 
L 291.34842 292.59 
L 291.506766 292.59 
L 291.665113 292.59 
L 291.823459 292.59 
L 291.981806 292.59 
L 292.140152 292.59 
L 292.298498 292.59 
L 292.456845 292.59 
L 292.615191 292.59 
L 292.773537 292.59 
L 292.931884 292.59 
L 293.09023 292.59 
L 293.248577 292.59 
L 293.406923 292.59 
L 293.565269 292.59 
L 293.723616 292.59 
L 293.723616 292.585279 
L 293.723616 292.585279 
L 293.565269 292.580384 
L 293.406923 292.567297 
L 293.248577 292.541546 
L 293.09023 292.499032 
L 292.931884 292.439708 
L 292.773537 292.370147 
L 292.615191 292.301735 
L 292.456845 292.243718 
L 292.298498 292.195839 
L 292.140152 292.147951 
L 291.981806 292.088859 
L 291.823459 292.016759 
L 291.665113 291.939707 
L 291.506766 291.863224 
L 291.34842 291.776821 
L 291.190074 291.656321 
L 291.031727 291.485851 
L 290.873381 291.282171 
L 290.715035 291.09575 
L 290.556688 290.980047 
L 290.398342 290.949388 
L 290.239995 290.958359 
L 290.081649 290.917452 
L 289.923303 290.729004 
L 289.764956 290.315277 
L 289.60661 289.625517 
L 289.448263 288.630027 
L 289.289917 287.314589 
L 289.131571 285.679078 
L 288.973224 283.736829 
L 288.814878 281.514942 
L 288.656532 279.060527 
L 288.498185 276.450738 
L 288.339839 273.789452 
L 288.181492 271.172554 
L 288.023146 268.628327 
L 287.8648 266.068723 
L 287.706453 263.289421 
L 287.548107 260.026809 
L 287.38976 256.045035 
L 287.231414 251.211874 
L 287.073068 245.532147 
L 286.914721 239.130653 
L 286.756375 232.198954 
L 286.598029 224.928232 
L 286.439682 217.441717 
L 286.281336 209.735124 
L 286.122989 201.649807 
L 285.964643 192.918555 
L 285.806297 183.293613 
L 285.64795 172.696319 
L 285.489604 161.28941 
L 285.331258 149.420361 
L 285.172911 137.478953 
L 285.014565 125.766818 
L 284.856218 114.450029 
L 284.697872 103.595153 
L 284.539526 93.23938 
L 284.381179 83.443187 
L 284.222833 74.294476 
L 284.064486 65.852322 
L 283.90614 58.055005 
L 283.747794 50.679339 
L 283.589447 43.454805 
L 283.431101 36.327128 
L 283.272755 29.69296 
L 283.114408 24.373614 
L 282.956062 21.25649 
L 282.797715 20.79 
L 282.639369 22.659681 
L 282.481023 25.887262 
L 282.322676 29.335286 
L 282.16433 32.333815 
L 282.005983 35.050442 
L 281.847637 38.37671 
L 281.689291 43.408685 
L 281.530944 50.846632 
L 281.372598 60.662068 
L 281.214252 72.182188 
L 281.055905 84.477148 
L 280.897559 96.787181 
L 280.739212 108.76909 
L 280.580866 120.499005 
L 280.42252 132.299857 
L 280.264173 144.501129 
L 280.105827 157.223675 
L 279.947481 170.262614 
L 279.789134 183.111676 
L 279.630788 195.121281 
L 279.472441 205.73235 
L 279.314095 214.696955 
L 279.155749 222.184002 
L 278.997402 228.694153 
L 278.839056 234.805207 
L 278.680709 240.89392 
L 278.522363 247.011123 
L 278.364017 252.966788 
L 278.20567 258.515657 
L 278.047324 263.484443 
L 277.888978 267.78201 
L 277.730631 271.358852 
L 277.572285 274.202077 
L 277.413938 276.372929 
L 277.255592 278.026268 
L 277.097246 279.368952 
L 276.938899 280.581177 
L 276.780553 281.760111 
L 276.622207 282.919663 
L 276.46386 284.031585 
L 276.305514 285.068641 
L 276.147167 286.022194 
L 275.988821 286.894679 
L 275.830475 287.686626 
L 275.672128 288.395437 
L 275.513782 289.02547 
L 275.355435 289.5952 
L 275.197089 290.130397 
L 275.038743 290.647251 
L 274.880396 291.139925 
L 274.72205 291.583216 
L 274.563704 291.947984 
L 274.405357 292.217598 
L 274.247011 292.394946 
L 274.088664 292.498258 
L 273.930318 292.551373 
L 273.771972 292.575281 
L 273.613625 292.584167 
z
" style="fill:#1f78b4;fill-opacity:0.25;"/>
   </g>
   <g id="PolyCollection_5">
    <path clip-path="url(#pee0f11c785)" d="M 70.670072 292.588485 
L 70.670072 292.59 
L 71.161314 292.59 
L 71.652557 292.59 
L 72.143799 292.59 
L 72.635041 292.59 
L 73.126283 292.59 
L 73.617525 292.59 
L 74.108767 292.59 
L 74.600009 292.59 
L 75.091251 292.59 
L 75.582493 292.59 
L 76.073735 292.59 
L 76.564977 292.59 
L 77.056219 292.59 
L 77.547461 292.59 
L 78.038703 292.59 
L 78.529945 292.59 
L 79.021187 292.59 
L 79.512429 292.59 
L 80.003671 292.59 
L 80.494913 292.59 
L 80.986155 292.59 
L 81.477397 292.59 
L 81.968639 292.59 
L 82.459881 292.59 
L 82.951123 292.59 
L 83.442365 292.59 
L 83.933607 292.59 
L 84.424849 292.59 
L 84.916092 292.59 
L 85.407334 292.59 
L 85.898576 292.59 
L 86.389818 292.59 
L 86.88106 292.59 
L 87.372302 292.59 
L 87.863544 292.59 
L 88.354786 292.59 
L 88.846028 292.59 
L 89.33727 292.59 
L 89.828512 292.59 
L 90.319754 292.59 
L 90.810996 292.59 
L 91.302238 292.59 
L 91.79348 292.59 
L 92.284722 292.59 
L 92.775964 292.59 
L 93.267206 292.59 
L 93.758448 292.59 
L 94.24969 292.59 
L 94.740932 292.59 
L 95.232174 292.59 
L 95.723416 292.59 
L 96.214658 292.59 
L 96.7059 292.59 
L 97.197142 292.59 
L 97.688385 292.59 
L 98.179627 292.59 
L 98.670869 292.59 
L 99.162111 292.59 
L 99.653353 292.59 
L 100.144595 292.59 
L 100.635837 292.59 
L 101.127079 292.59 
L 101.618321 292.59 
L 102.109563 292.59 
L 102.600805 292.59 
L 103.092047 292.59 
L 103.583289 292.59 
L 104.074531 292.59 
L 104.565773 292.59 
L 105.057015 292.59 
L 105.548257 292.59 
L 106.039499 292.59 
L 106.530741 292.59 
L 107.021983 292.59 
L 107.513225 292.59 
L 108.004467 292.59 
L 108.495709 292.59 
L 108.986951 292.59 
L 109.478193 292.59 
L 109.969435 292.59 
L 110.460678 292.59 
L 110.95192 292.59 
L 111.443162 292.59 
L 111.934404 292.59 
L 112.425646 292.59 
L 112.916888 292.59 
L 113.40813 292.59 
L 113.899372 292.59 
L 114.390614 292.59 
L 114.881856 292.59 
L 115.373098 292.59 
L 115.86434 292.59 
L 116.355582 292.59 
L 116.846824 292.59 
L 117.338066 292.59 
L 117.829308 292.59 
L 118.32055 292.59 
L 118.811792 292.59 
L 119.303034 292.59 
L 119.794276 292.59 
L 120.285518 292.59 
L 120.77676 292.59 
L 121.268002 292.59 
L 121.759244 292.59 
L 122.250486 292.59 
L 122.741728 292.59 
L 123.23297 292.59 
L 123.724213 292.59 
L 124.215455 292.59 
L 124.706697 292.59 
L 125.197939 292.59 
L 125.689181 292.59 
L 126.180423 292.59 
L 126.671665 292.59 
L 127.162907 292.59 
L 127.654149 292.59 
L 128.145391 292.59 
L 128.636633 292.59 
L 129.127875 292.59 
L 129.619117 292.59 
L 130.110359 292.59 
L 130.601601 292.59 
L 131.092843 292.59 
L 131.584085 292.59 
L 132.075327 292.59 
L 132.566569 292.59 
L 133.057811 292.59 
L 133.057811 292.588453 
L 133.057811 292.588453 
L 132.566569 292.586741 
L 132.075327 292.582365 
L 131.584085 292.573416 
L 131.092843 292.557223 
L 130.601601 292.530792 
L 130.110359 292.491416 
L 129.619117 292.437209 
L 129.127875 292.367354 
L 128.636633 292.282111 
L 128.145391 292.18264 
L 127.654149 292.070408 
L 127.162907 291.945752 
L 126.671665 291.805858 
L 126.180423 291.643743 
L 125.689181 291.450205 
L 125.197939 291.218882 
L 124.706697 290.951371 
L 124.215455 290.657819 
L 123.724213 290.351064 
L 123.23297 290.037582 
L 122.741728 289.711484 
L 122.250486 289.355599 
L 121.759244 288.948483 
L 121.268002 288.472556 
L 120.77676 287.918475 
L 120.285518 287.282774 
L 119.794276 286.55864 
L 119.303034 285.723927 
L 118.811792 284.734867 
L 118.32055 283.533787 
L 117.829308 282.070747 
L 117.338066 280.326931 
L 116.846824 278.323095 
L 116.355582 276.106318 
L 115.86434 273.726137 
L 115.373098 271.220666 
L 114.881856 268.623593 
L 114.390614 265.980748 
L 113.899372 263.351677 
L 113.40813 260.78367 
L 112.916888 258.274599 
L 112.425646 255.758026 
L 111.934404 253.129455 
L 111.443162 250.298048 
L 110.95192 247.227115 
L 110.460678 243.938971 
L 109.969435 240.49123 
L 109.478193 236.950152 
L 108.986951 233.377917 
L 108.495709 229.831513 
L 108.004467 226.365388 
L 107.513225 223.038012 
L 107.021983 219.923767 
L 106.530741 217.118793 
L 106.039499 214.72313 
L 105.548257 212.800681 
L 105.057015 211.347934 
L 104.565773 210.304527 
L 104.074531 209.602225 
L 103.583289 209.209365 
L 103.092047 209.131331 
L 102.600805 209.374825 
L 102.109563 209.923447 
L 101.618321 210.757724 
L 101.127079 211.898067 
L 100.635837 213.416128 
L 100.144595 215.387955 
L 99.653353 217.822309 
L 99.162111 220.626 
L 98.670869 223.637481 
L 98.179627 226.703289 
L 97.688385 229.741999 
L 97.197142 232.756652 
L 96.7059 235.79713 
L 96.214658 238.90509 
L 95.723416 242.07856 
L 95.232174 245.27455 
L 94.740932 248.440852 
L 94.24969 251.549656 
L 93.758448 254.606848 
L 93.267206 257.630892 
L 92.775964 260.619905 
L 92.284722 263.53492 
L 91.79348 266.312567 
L 91.302238 268.894629 
L 90.810996 271.250034 
L 90.319754 273.376871 
L 89.828512 275.292054 
L 89.33727 277.022396 
L 88.846028 278.601254 
L 88.354786 280.065179 
L 87.863544 281.445986 
L 87.372302 282.760409 
L 86.88106 284.003142 
L 86.389818 285.147791 
L 85.898576 286.157235 
L 85.407334 287.001026 
L 84.916092 287.672771 
L 84.424849 288.197896 
L 83.933607 288.626184 
L 83.442365 289.012698 
L 82.951123 289.398147 
L 82.459881 289.798852 
L 81.968639 290.208666 
L 81.477397 290.607826 
L 80.986155 290.972502 
L 80.494913 291.282263 
L 80.003671 291.525466 
L 79.512429 291.702241 
L 79.021187 291.823766 
L 78.529945 291.907642 
L 78.038703 291.971706 
L 77.547461 292.029459 
L 77.056219 292.088593 
L 76.564977 292.151817 
L 76.073735 292.218439 
L 75.582493 292.285882 
L 75.091251 292.350936 
L 74.600009 292.410618 
L 74.108767 292.462557 
L 73.617525 292.505119 
L 73.126283 292.537567 
L 72.635041 292.560264 
L 72.143799 292.574648 
L 71.652557 292.582813 
L 71.161314 292.586884 
L 70.670072 292.588485 
z
" style="fill:#e31a1c;fill-opacity:0.25;"/>
   </g>
   <g id="PolyCollection_6">
    <path clip-path="url(#pee0f11c785)" d="M 450.695122 292.582909 
L 450.695122 292.59 
L 450.898218 292.59 
L 451.101313 292.59 
L 451.304409 292.59 
L 451.507504 292.59 
L 451.7106 292.59 
L 451.913695 292.59 
L 452.116791 292.59 
L 452.319886 292.59 
L 452.522982 292.59 
L 452.726078 292.59 
L 452.929173 292.59 
L 453.132269 292.59 
L 453.335364 292.59 
L 453.53846 292.59 
L 453.741555 292.59 
L 453.944651 292.59 
L 454.147746 292.59 
L 454.350842 292.59 
L 454.553937 292.59 
L 454.757033 292.59 
L 454.960128 292.59 
L 455.163224 292.59 
L 455.366319 292.59 
L 455.569415 292.59 
L 455.77251 292.59 
L 455.975606 292.59 
L 456.178701 292.59 
L 456.381797 292.59 
L 456.584893 292.59 
L 456.787988 292.59 
L 456.991084 292.59 
L 457.194179 292.59 
L 457.397275 292.59 
L 457.60037 292.59 
L 457.803466 292.59 
L 458.006561 292.59 
L 458.209657 292.59 
L 458.412752 292.59 
L 458.615848 292.59 
L 458.818943 292.59 
L 459.022039 292.59 
L 459.225134 292.59 
L 459.42823 292.59 
L 459.631325 292.59 
L 459.834421 292.59 
L 460.037517 292.59 
L 460.240612 292.59 
L 460.443708 292.59 
L 460.646803 292.59 
L 460.849899 292.59 
L 461.052994 292.59 
L 461.25609 292.59 
L 461.459185 292.59 
L 461.662281 292.59 
L 461.865376 292.59 
L 462.068472 292.59 
L 462.271567 292.59 
L 462.474663 292.59 
L 462.677758 292.59 
L 462.880854 292.59 
L 463.083949 292.59 
L 463.287045 292.59 
L 463.49014 292.59 
L 463.693236 292.59 
L 463.896332 292.59 
L 464.099427 292.59 
L 464.302523 292.59 
L 464.505618 292.59 
L 464.708714 292.59 
L 464.911809 292.59 
L 465.114905 292.59 
L 465.318 292.59 
L 465.521096 292.59 
L 465.724191 292.59 
L 465.927287 292.59 
L 466.130382 292.59 
L 466.333478 292.59 
L 466.536573 292.59 
L 466.739669 292.59 
L 466.942764 292.59 
L 467.14586 292.59 
L 467.348956 292.59 
L 467.552051 292.59 
L 467.755147 292.59 
L 467.958242 292.59 
L 468.161338 292.59 
L 468.364433 292.59 
L 468.567529 292.59 
L 468.770624 292.59 
L 468.97372 292.59 
L 469.176815 292.59 
L 469.379911 292.59 
L 469.583006 292.59 
L 469.786102 292.59 
L 469.989197 292.59 
L 470.192293 292.59 
L 470.395388 292.59 
L 470.598484 292.59 
L 470.801579 292.59 
L 471.004675 292.59 
L 471.207771 292.59 
L 471.410866 292.59 
L 471.613962 292.59 
L 471.817057 292.59 
L 472.020153 292.59 
L 472.223248 292.59 
L 472.426344 292.59 
L 472.629439 292.59 
L 472.832535 292.59 
L 473.03563 292.59 
L 473.238726 292.59 
L 473.441821 292.59 
L 473.644917 292.59 
L 473.848012 292.59 
L 474.051108 292.59 
L 474.254203 292.59 
L 474.457299 292.59 
L 474.660395 292.59 
L 474.86349 292.59 
L 475.066586 292.59 
L 475.269681 292.59 
L 475.472777 292.59 
L 475.675872 292.59 
L 475.878968 292.59 
L 476.082063 292.59 
L 476.285159 292.59 
L 476.488254 292.59 
L 476.488254 292.584069 
L 476.488254 292.584069 
L 476.285159 292.578436 
L 476.082063 292.562403 
L 475.878968 292.527682 
L 475.675872 292.461184 
L 475.472777 292.346244 
L 475.269681 292.166063 
L 475.066586 291.909378 
L 474.86349 291.576912 
L 474.660395 291.185839 
L 474.457299 290.768865 
L 474.254203 290.365803 
L 474.051108 290.009049 
L 473.848012 289.708752 
L 473.644917 289.445464 
L 473.441821 289.174805 
L 473.238726 288.841949 
L 473.03563 288.398404 
L 472.832535 287.813106 
L 472.629439 287.073334 
L 472.426344 286.175245 
L 472.223248 285.107877 
L 472.020153 283.838535 
L 471.817057 282.309797 
L 471.613962 280.454842 
L 471.410866 278.226939 
L 471.207771 275.625997 
L 471.004675 272.700884 
L 470.801579 269.518733 
L 470.598484 266.116969 
L 470.395388 262.471718 
L 470.192293 258.508559 
L 469.989197 254.149481 
L 469.786102 249.359548 
L 469.583006 244.156487 
L 469.379911 238.578121 
L 469.176815 232.63754 
L 468.97372 226.303796 
L 468.770624 219.52358 
L 468.567529 212.269643 
L 468.364433 204.586822 
L 468.161338 196.610589 
L 467.958242 188.547292 
L 467.755147 180.621147 
L 467.552051 173.006211 
L 467.348956 165.769938 
L 467.14586 158.85593 
L 466.942764 152.121989 
L 466.739669 145.421471 
L 466.536573 138.682919 
L 466.333478 131.936537 
L 466.130382 125.276517 
L 465.927287 118.806174 
L 465.724191 112.626524 
L 465.521096 106.876865 
L 465.318 101.772921 
L 465.114905 97.5844 
L 464.911809 94.550821 
L 464.708714 92.789579 
L 464.505618 92.256756 
L 464.302523 92.787933 
L 464.099427 94.200589 
L 463.896332 96.398018 
L 463.693236 99.401099 
L 463.49014 103.277882 
L 463.287045 108.025375 
L 463.083949 113.506183 
L 462.880854 119.496287 
L 462.677758 125.797999 
L 462.474663 132.316208 
L 462.271567 139.038833 
L 462.068472 145.953035 
L 461.865376 152.978499 
L 461.662281 159.973264 
L 461.459185 166.803348 
L 461.25609 173.421127 
L 461.052994 179.896986 
L 460.849899 186.385386 
L 460.646803 193.04891 
L 460.443708 199.982124 
L 460.240612 207.165813 
L 460.037517 214.46191 
L 459.834421 221.648181 
L 459.631325 228.484987 
L 459.42823 234.792672 
L 459.225134 240.505146 
L 459.022039 245.672586 
L 458.818943 250.41558 
L 458.615848 254.860781 
L 458.412752 259.091658 
L 458.209657 263.129997 
L 458.006561 266.944395 
L 457.803466 270.473877 
L 457.60037 273.655175 
L 457.397275 276.444355 
L 457.194179 278.827079 
L 456.991084 280.817996 
L 456.787988 282.455101 
L 456.584893 283.794157 
L 456.381797 284.902889 
L 456.178701 285.851227 
L 455.975606 286.696741 
L 455.77251 287.470741 
L 455.569415 288.173829 
L 455.366319 288.785797 
L 455.163224 289.285813 
L 454.960128 289.671468 
L 454.757033 289.965687 
L 454.553937 290.208649 
L 454.350842 290.441117 
L 454.147746 290.689022 
L 453.944651 290.955827 
L 453.741555 291.223949 
L 453.53846 291.463722 
L 453.335364 291.647241 
L 453.132269 291.762587 
L 452.929173 291.82164 
L 452.726078 291.855943 
L 452.522982 291.901492 
L 452.319886 291.981117 
L 452.116791 292.095233 
L 451.913695 292.225772 
L 451.7106 292.348829 
L 451.507504 292.446873 
L 451.304409 292.513985 
L 451.101313 292.553831 
L 450.898218 292.574322 
L 450.695122 292.582909 
z
" style="fill:#ff7f00;fill-opacity:0.25;"/>
   </g>
   <g id="line2d_14">
    <path clip-path="url(#pee0f11c785)" d="M 252.374003 292.585145 
L 253.105895 292.479154 
L 253.471842 292.221513 
L 254.020761 291.404751 
L 255.118599 289.334444 
L 255.484546 287.585963 
L 256.033465 283.438252 
L 256.765357 276.69681 
L 257.131304 271.617413 
L 257.680223 259.765536 
L 258.961034 225.473233 
L 259.692927 194.426709 
L 261.522658 112.687641 
L 262.25455 93.251909 
L 262.620496 87.822866 
L 262.986442 85.868537 
L 263.352389 84.94212 
L 263.901308 82.918755 
L 264.084281 83.359653 
L 264.267254 85.100453 
L 264.6332 92.97284 
L 265.18212 113.223471 
L 266.279958 165.431804 
L 267.56077 224.279491 
L 268.292662 246.193376 
L 269.207528 265.988507 
L 269.93942 277.58482 
L 270.671312 285.44979 
L 271.220232 288.82405 
L 271.586178 289.934007 
L 271.952124 290.433384 
L 272.684016 291.08715 
L 273.232936 291.660284 
L 274.69672 292.404786 
L 275.24564 292.563144 
L 275.611586 292.584574 
L 275.611586 292.584574 
" style="fill:none;stroke:#000000;stroke-linecap:round;stroke-width:2;"/>
   </g>
   <g id="line2d_15">
    <path clip-path="url(#pee0f11c785)" d="M 299.271765 292.587763 
L 301.507916 292.467651 
L 304.382967 292.299258 
L 305.021868 292.049561 
L 305.660768 291.606724 
L 306.299668 290.884297 
L 306.938568 289.769124 
L 307.577469 288.084873 
L 308.216369 285.528305 
L 308.855269 281.605195 
L 309.49417 276.117145 
L 310.77197 262.867746 
L 311.73032 250.566837 
L 313.008121 229.204723 
L 315.883172 178.122725 
L 316.522072 171.011984 
L 317.160973 165.89882 
L 317.799873 163.115965 
L 318.119323 162.538713 
L 318.438773 162.412037 
L 318.758223 162.685544 
L 319.077673 163.350383 
L 319.397123 164.429931 
L 320.036024 167.953731 
L 320.674924 173.558796 
L 321.313824 181.709934 
L 322.591625 203.086686 
L 324.188875 228.415844 
L 325.466676 245.940304 
L 326.425026 256.006049 
L 328.022277 269.528577 
L 328.980627 276.633728 
L 329.938978 281.736713 
L 330.897328 285.473924 
L 331.536228 287.339479 
L 332.175129 288.725046 
L 333.133479 290.159163 
L 334.411279 291.612096 
L 335.05018 292.104639 
L 335.68908 292.332528 
L 336.96688 292.423761 
L 339.841932 292.587763 
L 339.841932 292.587763 
" style="fill:none;stroke:#33a02c;stroke-linecap:round;stroke-width:2;"/>
   </g>
   <g id="line2d_16">
    <path clip-path="url(#pee0f11c785)" d="M 282.433307 292.58597 
L 283.195441 292.495572 
L 283.957576 292.091599 
L 284.529177 291.838684 
L 285.481845 291.514052 
L 286.053446 291.003635 
L 286.625048 290.351486 
L 287.006115 289.408082 
L 287.387182 287.143636 
L 289.292519 269.537263 
L 289.673586 261.347046 
L 290.435721 236.552637 
L 291.578923 192.726005 
L 293.674794 98.390566 
L 294.817996 75.329489 
L 295.199063 71.9678 
L 295.389597 71.978337 
L 295.58013 72.952975 
L 295.961198 77.767343 
L 296.342265 87.391645 
L 296.913866 112.410612 
L 298.247602 179.802913 
L 299.20027 217.60472 
L 300.343472 254.633792 
L 300.915073 265.740175 
L 302.248809 284.048871 
L 302.629876 287.446024 
L 303.010944 289.072426 
L 303.963612 291.301532 
L 304.344679 291.782876 
L 305.106814 292.155075 
L 306.059483 292.544653 
L 306.631084 292.586035 
L 306.631084 292.586035 
" style="fill:none;stroke:#0000ff;stroke-linecap:round;stroke-width:2;"/>
   </g>
   <g id="line2d_17">
    <path clip-path="url(#pee0f11c785)" d="M 273.613625 292.584167 
L 274.088664 292.498258 
L 274.405357 292.217598 
L 274.72205 291.583216 
L 275.355435 289.5952 
L 275.830475 287.686626 
L 276.46386 284.031585 
L 277.255592 278.026268 
L 277.572285 274.202077 
L 277.888978 267.78201 
L 278.364017 252.966788 
L 279.314095 214.696955 
L 279.789134 183.111676 
L 281.372598 60.662068 
L 281.689291 43.408685 
L 282.005983 35.050442 
L 282.797715 20.79 
L 282.956062 21.25649 
L 283.114408 24.373614 
L 283.589447 43.454805 
L 284.381179 83.443187 
L 285.172911 137.478953 
L 286.122989 201.649807 
L 287.073068 245.532147 
L 287.548107 260.026809 
L 288.181492 271.172554 
L 289.131571 285.679078 
L 289.60661 289.625517 
L 289.923303 290.729004 
L 290.239995 290.958359 
L 290.556688 290.980047 
L 290.873381 291.282171 
L 291.34842 291.776821 
L 292.298498 292.195839 
L 293.723616 292.585279 
L 293.723616 292.585279 
" style="fill:none;stroke:#1f78b4;stroke-linecap:round;stroke-width:2;"/>
   </g>
   <g id="line2d_18">
    <path clip-path="url(#pee0f11c785)" d="M 70.670072 292.588485 
L 73.617525 292.505119 
L 76.564977 292.151817 
L 79.512429 291.702241 
L 80.494913 291.282263 
L 81.477397 290.607826 
L 84.916092 287.672771 
L 85.898576 286.157235 
L 86.88106 284.003142 
L 88.354786 280.065179 
L 89.33727 277.022396 
L 90.319754 273.376871 
L 91.302238 268.894629 
L 92.775964 260.619905 
L 95.723416 242.07856 
L 98.670869 223.637481 
L 99.653353 217.822309 
L 100.635837 213.416128 
L 101.127079 211.898067 
L 101.618321 210.757724 
L 102.109563 209.923447 
L 102.600805 209.374825 
L 103.092047 209.131331 
L 103.583289 209.209365 
L 104.074531 209.602225 
L 104.565773 210.304527 
L 105.057015 211.347934 
L 105.548257 212.800681 
L 106.039499 214.72313 
L 107.021983 219.923767 
L 108.495709 229.831513 
L 110.95192 247.227115 
L 112.425646 255.758026 
L 116.846824 278.323095 
L 117.829308 282.070747 
L 118.811792 284.734867 
L 119.794276 286.55864 
L 120.77676 287.918475 
L 121.759244 288.948483 
L 123.23297 290.037582 
L 125.197939 291.218882 
L 126.671665 291.805858 
L 128.636633 292.282111 
L 130.601601 292.530792 
L 133.057811 292.588453 
L 133.057811 292.588453 
" style="fill:none;stroke:#e31a1c;stroke-linecap:round;stroke-width:2;"/>
   </g>
   <g id="line2d_19">
    <path clip-path="url(#pee0f11c785)" d="M 450.695122 292.582909 
L 451.507504 292.446873 
L 453.53846 291.463722 
L 454.960128 289.671468 
L 455.366319 288.785797 
L 455.975606 286.696741 
L 456.584893 283.794157 
L 456.991084 280.817996 
L 457.397275 276.444355 
L 458.006561 266.944395 
L 458.818943 250.41558 
L 459.42823 234.792672 
L 460.443708 199.982124 
L 463.083949 113.506183 
L 463.693236 99.401099 
L 464.099427 94.200589 
L 464.302523 92.787933 
L 464.505618 92.256756 
L 464.708714 92.789579 
L 464.911809 94.550821 
L 465.318 101.772921 
L 465.927287 118.806174 
L 467.552051 173.006211 
L 469.379911 238.578121 
L 470.192293 258.508559 
L 471.004675 272.700884 
L 471.613962 280.454842 
L 472.223248 285.107877 
L 472.832535 287.813106 
L 473.238726 288.841949 
L 475.472777 292.346244 
L 475.878968 292.527682 
L 476.488254 292.584069 
L 476.488254 292.584069 
" style="fill:none;stroke:#ff7f00;stroke-linecap:round;stroke-width:2;"/>
   </g>
   <g id="line2d_20">
    <path clip-path="url(#pee0f11c785)" d="M 318.941447 306.18 
L 318.941447 7.2 
" style="fill:none;stroke:#33a02c;stroke-dasharray:8.4,3.6;stroke-dashoffset:0;stroke-width:3;"/>
   </g>
   <g id="patch_3">
    <path d="M 50.379163 306.18 
L 50.379163 7.2 
" style="fill:none;"/>
   </g>
   <g id="patch_4">
    <path d="M 496.779163 306.18 
L 496.779163 7.2 
" style="fill:none;"/>
   </g>
   <g id="patch_5">
    <path d="M 50.379163 306.18 
L 496.779163 306.18 
" style="fill:none;"/>
   </g>
   <g id="patch_6">
    <path d="M 50.379163 7.2 
L 496.779163 7.2 
" style="fill:none;"/>
   </g>
   <g id="legend_1">
    <g id="line2d_21">
     <path d="M 62.979163 24.7 
L 90.979163 24.7 
" style="fill:none;stroke:#000000;stroke-linecap:round;stroke-width:2;"/>
    </g>
    <g id="line2d_22"/>
    <g id="text_16">
     <!-- \emph{vhl-1} $&gt;$ \emph{rhy-1} -->
     <defs>
      <path d="M 10.703125 48 
C 12.796875 33.046875 15.09375 18.171875 17.09375 3.125 
C 17.296875 2.109375 17.296875 0.90625 17.796875 0.203125 
C 19.90625 0 22.59375 0 24.703125 0 
L 25.296875 0.703125 
L 44.703125 35.109375 
L 51.796875 48 
C 49.703125 48 47.5 48 45.703125 47.703125 
C 44.90625 46.59375 44.296875 45.484375 43.59375 44.265625 
C 36.59375 31.84375 29.40625 19.515625 22.703125 6.6875 
C 21.59375 16.984375 20 26.6875 18.59375 36.6875 
C 18 40.328125 17.90625 44.46875 16.90625 47.703125 
C 15.09375 48 12.796875 48 10.703125 48 
" id="Computer_Modern_Bright_Slanted-118"/>
      <path d="M 21.09375 70 
L 6.40625 0 
L 10.90625 0 
C 11.796875 0 13 -0.296875 13 1.015625 
C 13.203125 1.71875 13.296875 2.328125 13.40625 3.03125 
C 14.40625 7.78125 19 29.5 19.296875 30.40625 
C 20.40625 33.953125 22.40625 37.375 25.09375 39.90625 
C 28 42.4375 31.203125 43.84375 36.59375 42.9375 
C 38.796875 42.53125 40.90625 41.625 42 39.5 
C 43.5 36.46875 42.40625 32.9375 41.796875 29.90625 
L 35.5 0 
L 40.203125 0 
C 41.203125 0 42.09375 -0.203125 42.09375 1.109375 
C 42.703125 3.125 44.09375 10.625 44.09375 10.625 
L 48.59375 32 
C 49.40625 35.734375 50.296875 40.40625 48.203125 43.9375 
C 46.296875 46.984375 42.90625 48 39.59375 48.296875 
C 38.09375 48.296875 36.5 48.296875 35 48 
C 30.796875 47.3125 27.09375 45.09375 24.09375 42.09375 
C 22.90625 40.890625 21.5 39.59375 20.796875 37.984375 
L 20.703125 37.984375 
L 27.40625 70 
z
" id="Computer_Modern_Bright_Slanted-104"/>
      <path d="M 21.09375 70 
L 6.40625 0 
C 8.5 0 10.796875 0 12.59375 0.296875 
L 13 1.40625 
C 14 6.4375 15.09375 11.375 16.203125 16.40625 
L 27.40625 70 
z
" id="Computer_Modern_Bright_Slanted-108"/>
      <path d="M 5.90625 26.0625 
L 4.90625 21 
L 32.796875 21 
L 33.796875 26.0625 
z
" id="Computer_Modern_Bright_Slanted-45"/>
      <path d="M 22.5 61 
L 21.5 55.9375 
C 26.296875 55.9375 31.40625 56.546875 35.703125 58.875 
L 24.5 5.046875 
C 20.296875 5.046875 15.296875 5.5625 11.5 5.046875 
C 10.90625 3.578125 10.703125 1.671875 10.296875 0 
C 21.09375 0 32.59375 0 42.796875 0 
C 43.40625 1.453125 43.703125 3.296875 44.09375 5.046875 
L 31 5.046875 
C 35.203125 26.0625 39.796875 46.59375 44.09375 67.5 
C 41.703125 67.5 42 67.09375 40 65.59375 
C 35.59375 62.59375 28.90625 61 22.5 61 
" id="Computer_Modern_Bright_Slanted-49"/>
      <path d="M 62.59375 26.546875 
L 62.59375 26.34375 
C 60.296875 25.546875 58 24.25 55.796875 23.140625 
L 27.09375 9.625 
L 11.09375 2 
C 10.40625 1.703125 9.40625 1.296875 8.90625 0.796875 
C 8 -0.203125 8.203125 -1.703125 9.296875 -2.296875 
C 10.5 -3 11.703125 -2.109375 12.796875 -1.609375 
L 21 2.203125 
C 25.203125 4.3125 55 18.328125 55 18.328125 
L 66 23.546875 
C 67.296875 24.140625 69.40625 24.75 69.40625 26.453125 
C 69.40625 28.15625 67.296875 28.75 66 29.359375 
L 55 34.5625 
L 33.703125 44.6875 
C 29.5 46.6875 25.203125 48.59375 21 50.703125 
L 12.796875 54.5 
C 11.703125 55 10.5 55.90625 9.296875 55.203125 
C 8.203125 54.609375 8 53.09375 8.90625 52.09375 
C 9.40625 51.59375 10.40625 51.203125 11.09375 50.890625 
L 41.59375 36.46875 
L 55.796875 29.75 
C 58 28.65625 60.296875 27.359375 62.59375 26.546875 
" id="Computer_Modern_Bright_Math_Slanted-62"/>
      <path d="M 19.90625 35.53125 
L 19.796875 35.53125 
L 22.40625 48.15625 
L 16.40625 48.15625 
L 6.40625 0.5 
L 10.90625 0.5 
C 11.40625 0.5 12.203125 0.296875 12.59375 0.703125 
C 12.90625 0.90625 13.5 4.4375 13.796875 5.65625 
L 16.703125 19.578125 
C 17.5 23.109375 18 26.859375 19.59375 30.1875 
C 23.40625 37.84375 31.90625 43 40.40625 43 
L 41.5 48.765625 
C 34.90625 48.765625 28.59375 45.421875 24 40.78125 
C 22.5 39.265625 20.90625 37.453125 19.90625 35.53125 
M 19.703125 34.953125 
C 19.703125 34.953125 19.796875 34.953125 19.796875 34.953125 
C 19.796875 34.859375 19.703125 34.75 19.703125 34.953125 
" id="Computer_Modern_Bright_Slanted-114"/>
      <path d="M 10.703125 48 
C 11.203125 44.265625 12 40.625 12.703125 36.890625 
C 13.09375 34.359375 19 0.8125 19 0.515625 
C 19 -0.09375 18.59375 -0.59375 18.296875 -1.109375 
L 16.59375 -4.140625 
C 14.703125 -7.265625 12.796875 -10.5 9 -11.8125 
C 6 -12.71875 0.5 -11.40625 -1.5 -10.796875 
C -1.796875 -12.625 -2 -14.53125 -2.203125 -16.453125 
C 0.5 -16.859375 5.40625 -17.46875 8.09375 -16.96875 
C 15.203125 -15.34375 19.203125 -8.671875 22.5 -3.21875 
L 44.09375 34.359375 
L 49.203125 43.359375 
C 50.09375 44.859375 51.203125 46.375 51.796875 48 
C 49.703125 48 47.40625 48 45.59375 47.703125 
C 43.203125 44.078125 41.203125 40.046875 38.90625 36.21875 
C 33.59375 26.4375 27.703125 17.359375 23.203125 6.78125 
L 23.09375 6.78125 
C 23.40625 8.390625 23.09375 10.109375 22.90625 11.734375 
C 21.796875 22.546875 18.59375 39.71875 17.09375 48 
z
" id="Computer_Modern_Bright_Slanted-121"/>
     </defs>
     <g style="fill:#262626;" transform="translate(102.179163 29.6)scale(0.14 -0.14)">
      <use transform="scale(0.996264)" xlink:href="#Computer_Modern_Bright_Slanted-118"/>
      <use transform="translate(42.341038 0)scale(0.996264)" xlink:href="#Computer_Modern_Bright_Slanted-104"/>
      <use transform="translate(90.493535 0)scale(0.996264)" xlink:href="#Computer_Modern_Bright_Slanted-108"/>
      <use transform="translate(109.588494 0)scale(0.996264)" xlink:href="#Computer_Modern_Bright_Slanted-45"/>
      <use transform="translate(142.797167 0)scale(0.996264)" xlink:href="#Computer_Modern_Bright_Slanted-49"/>
      <use transform="translate(235.881937 0)scale(0.996264)" xlink:href="#Computer_Modern_Bright_Math_Slanted-62"/>
      <use transform="translate(344.834617 0)scale(0.996264)" xlink:href="#Computer_Modern_Bright_Slanted-114"/>
      <use transform="translate(376.797976 0)scale(0.996264)" xlink:href="#Computer_Modern_Bright_Slanted-104"/>
      <use transform="translate(424.950473 0)scale(0.996264)" xlink:href="#Computer_Modern_Bright_Slanted-121"/>
      <use transform="translate(467.291511 0)scale(0.996264)" xlink:href="#Computer_Modern_Bright_Slanted-45"/>
      <use transform="translate(500.500184 0)scale(0.996264)" xlink:href="#Computer_Modern_Bright_Slanted-49"/>
     </g>
    </g>
    <g id="line2d_23">
     <path d="M 62.979163 43.824611 
L 90.979163 43.824611 
" style="fill:none;stroke:#33a02c;stroke-linecap:round;stroke-width:2;"/>
    </g>
    <g id="line2d_24"/>
    <g id="text_17">
     <!-- actual -->
     <g style="fill:#262626;" transform="translate(102.179163 48.724611)scale(0.14 -0.14)">
      <use transform="scale(0.996264)" xlink:href="#Computer_Modern_Bright-97"/>
      <use transform="translate(46.492082 0)scale(0.996264)" xlink:href="#Computer_Modern_Bright-99"/>
      <use transform="translate(91.32375 0)scale(0.996264)" xlink:href="#Computer_Modern_Bright-116"/>
      <use transform="translate(127.438138 0)scale(0.996264)" xlink:href="#Computer_Modern_Bright-117"/>
      <use transform="translate(175.590635 0)scale(0.996264)" xlink:href="#Computer_Modern_Bright-97"/>
      <use transform="translate(222.082717 0)scale(0.996264)" xlink:href="#Computer_Modern_Bright-108"/>
     </g>
    </g>
    <g id="line2d_25">
     <path d="M 62.979163 62.949222 
L 90.979163 62.949222 
" style="fill:none;stroke:#0000ff;stroke-linecap:round;stroke-width:2;"/>
    </g>
    <g id="line2d_26"/>
    <g id="text_18">
     <!-- \emph{rhy-1} $&gt;$ \emph{vhl-1} -->
     <g style="fill:#262626;" transform="translate(102.179163 67.849222)scale(0.14 -0.14)">
      <use transform="scale(0.996264)" xlink:href="#Computer_Modern_Bright_Slanted-114"/>
      <use transform="translate(31.963359 0)scale(0.996264)" xlink:href="#Computer_Modern_Bright_Slanted-104"/>
      <use transform="translate(80.115856 0)scale(0.996264)" xlink:href="#Computer_Modern_Bright_Slanted-121"/>
      <use transform="translate(122.456894 0)scale(0.996264)" xlink:href="#Computer_Modern_Bright_Slanted-45"/>
      <use transform="translate(155.665567 0)scale(0.996264)" xlink:href="#Computer_Modern_Bright_Slanted-49"/>
      <use transform="translate(248.750337 0)scale(0.996264)" xlink:href="#Computer_Modern_Bright_Math_Slanted-62"/>
      <use transform="translate(357.703017 0)scale(0.996264)" xlink:href="#Computer_Modern_Bright_Slanted-118"/>
      <use transform="translate(400.044055 0)scale(0.996264)" xlink:href="#Computer_Modern_Bright_Slanted-104"/>
      <use transform="translate(448.196552 0)scale(0.996264)" xlink:href="#Computer_Modern_Bright_Slanted-108"/>
      <use transform="translate(467.291511 0)scale(0.996264)" xlink:href="#Computer_Modern_Bright_Slanted-45"/>
      <use transform="translate(500.500184 0)scale(0.996264)" xlink:href="#Computer_Modern_Bright_Slanted-49"/>
     </g>
    </g>
    <g id="line2d_27">
     <path d="M 62.979163 82.073833 
L 90.979163 82.073833 
" style="fill:none;stroke:#1f78b4;stroke-linecap:round;stroke-width:2;"/>
    </g>
    <g id="line2d_28"/>
    <g id="text_19">
     <!-- Unbranched -->
     <defs>
      <path d="M 8 69.5 
L 8 32.75 
C 8 25.71875 7.203125 18.390625 10.703125 11.96875 
C 12.90625 7.84375 16.09375 4.4375 20.09375 2.125 
C 29.90625 -3.609375 43.5 -2.203125 51.296875 6.4375 
C 54.796875 10.359375 57.296875 15.171875 57.796875 21.796875 
C 57.90625 23.40625 57.796875 24.921875 57.796875 26.515625 
L 57.796875 69.5 
L 51.40625 69.5 
L 51.40625 25.90625 
C 51.40625 24.59375 51.5 23.1875 51.40625 21.890625 
C 51.203125 18.890625 50.59375 15.921875 49.40625 13.25 
C 43.90625 1 25 1 18 11.890625 
C 14.203125 17.78125 15 25.0625 15 31.65625 
L 15 69.5 
z
" id="Computer_Modern_Bright-85"/>
      <path d="M 6.40625 69.6875 
L 6.40625 0 
L 12.796875 0 
L 12.796875 6.328125 
L 12.90625 6.328125 
C 14 4.109375 16.5 2.015625 18.59375 0.90625 
C 25.796875 -2.90625 34.40625 0.90625 39.09375 7.03125 
C 48.59375 19.578125 44.796875 40.875 32.296875 46.796875 
C 27.40625 49 21.5 48 17.09375 44.984375 
C 15.40625 43.78125 14 42.375 12.703125 40.765625 
L 12.703125 69.6875 
z
M 21.90625 42.984375 
C 26.59375 43.375 31.5 41.265625 34.296875 37.453125 
C 36.203125 34.9375 37.203125 31.9375 37.703125 28.8125 
C 38.703125 21.484375 37.90625 12.25 31.40625 7.4375 
C 30.296875 6.625 29.09375 6.03125 27.796875 5.515625 
C 22.40625 3.515625 17 4.109375 14 8.84375 
C 13.09375 10.4375 12.796875 10.546875 12.796875 12.953125 
L 12.796875 33.734375 
C 12.796875 34.75 12.59375 35.953125 13 36.859375 
C 14.59375 40.171875 18.296875 42.671875 21.90625 42.984375 
" id="Computer_Modern_Bright-98"/>
      <path d="M 12.5 34.75 
L 12.40625 34.75 
L 12.40625 47.390625 
L 6.40625 47.390625 
L 6.40625 0 
L 12.703125 0 
L 12.703125 22.890625 
C 12.703125 24.40625 12.703125 25.90625 12.90625 27.40625 
C 14.296875 35.953125 21.703125 42.28125 31.40625 42.28125 
L 31.40625 48 
C 25 48 19.09375 44.890625 15.296875 39.765625 
C 14.203125 38.265625 13 36.546875 12.5 34.75 
" id="Computer_Modern_Bright-114"/>
      <path d="M 6.40625 69.6875 
L 6.40625 0 
L 12.796875 0 
L 12.796875 21.984375 
C 12.796875 26.90625 12.5 31.9375 14.703125 36.546875 
C 15.796875 38.859375 17.5 40.875 19.796875 42.078125 
C 21.703125 42.984375 23.703125 42.984375 25.796875 42.78125 
C 28.796875 42.78125 31.703125 41.984375 33.59375 39.453125 
C 35.40625 37.140625 35.5 34.140625 35.5 31.3125 
L 35.5 0 
L 41.90625 0 
L 41.90625 27.21875 
C 41.90625 32.234375 42.40625 37.75 39.90625 42.28125 
C 37.90625 45.6875 34.40625 47.296875 30.703125 47.796875 
C 28.703125 48 26.703125 48 24.703125 47.703125 
C 21.09375 47.015625 18 45.03125 15.59375 42.34375 
C 14.5 41.046875 13.203125 39.46875 12.796875 37.765625 
L 12.703125 37.765625 
L 12.703125 69.6875 
z
" id="Computer_Modern_Bright-104"/>
      <path d="M 35.59375 69.6875 
L 35.59375 41.375 
C 33.703125 43.484375 31.796875 45.484375 29.203125 46.6875 
C 20.296875 50.40625 11.703125 45.59375 7.296875 37.65625 
C 2.203125 28.21875 2.796875 15.765625 8.90625 6.921875 
C 13.203125 0.796875 20.296875 -2.203125 27.796875 0.5 
C 30.703125 1.609375 34.203125 4.515625 35.40625 7.125 
L 35.5 7.125 
L 35.5 0 
L 41.90625 0 
L 41.90625 69.6875 
z
M 35.203125 37.453125 
C 35.703125 36.546875 35.5 35.34375 35.5 34.34375 
L 35.5 13.65625 
C 35.5 11.34375 35.40625 11.140625 34.09375 9.34375 
C 32.296875 6.625 29.5 4.71875 26.203125 4.421875 
C 21.40625 4.015625 16.5 6.328125 13.703125 10.25 
C 12.09375 12.546875 11.203125 15.359375 10.703125 18.171875 
C 10.5 19.28125 10.5 20.28125 10.40625 21.390625 
C 9.796875 28.015625 11.203125 35.84375 17 40.0625 
C 18 40.765625 19.09375 41.265625 20.203125 41.765625 
C 26 43.984375 32.40625 43.375 35.203125 37.453125 
" id="Computer_Modern_Bright-100"/>
     </defs>
     <g style="fill:#262626;" transform="translate(102.179163 86.973833)scale(0.14 -0.14)">
      <use transform="scale(0.996264)" xlink:href="#Computer_Modern_Bright-85"/>
      <use transform="translate(65.587132 0)scale(0.996264)" xlink:href="#Computer_Modern_Bright-110"/>
      <use transform="translate(113.739629 0)scale(0.996264)" xlink:href="#Computer_Modern_Bright-98"/>
      <use transform="translate(158.986397 0)scale(0.996264)" xlink:href="#Computer_Modern_Bright-114"/>
      <use transform="translate(190.949756 0)scale(0.996264)" xlink:href="#Computer_Modern_Bright-97"/>
      <use transform="translate(237.441838 0)scale(0.996264)" xlink:href="#Computer_Modern_Bright-110"/>
      <use transform="translate(285.594335 0)scale(0.996264)" xlink:href="#Computer_Modern_Bright-99"/>
      <use transform="translate(330.426003 0)scale(0.996264)" xlink:href="#Computer_Modern_Bright-104"/>
      <use transform="translate(378.5785 0)scale(0.996264)" xlink:href="#Computer_Modern_Bright-101"/>
      <use transform="translate(423.410167 0)scale(0.996264)" xlink:href="#Computer_Modern_Bright-100"/>
     </g>
    </g>
    <g id="line2d_29">
     <path d="M 62.979163 101.198444 
L 90.979163 101.198444 
" style="fill:none;stroke:#e31a1c;stroke-linecap:round;stroke-width:2;"/>
    </g>
    <g id="line2d_30"/>
    <g id="text_20">
     <!-- Suppression -->
     <defs>
      <path d="M 5.09375 13.015625 
C 4.90625 11.390625 4.5 9.671875 4.296875 8.046875 
C 4.09375 6.53125 3.59375 6.109375 4.90625 5.3125 
C 8.296875 3.390625 11.203125 2.0625 15.40625 0.75 
C 24.796875 -2 35.59375 -2 43.796875 4.140625 
C 45.09375 5.140625 46.296875 6.234375 47.40625 7.53125 
C 49.90625 10.890625 52.203125 14.96875 51.59375 20.53125 
C 50.90625 27.671875 46.09375 33.625 39.59375 36.609375 
C 30.703125 40.578125 16.203125 40.578125 12.203125 49.375 
C 9.09375 56.1875 14.59375 62.171875 20.796875 64.375 
C 26.90625 66.6875 34.90625 65.78125 40.09375 63.375 
C 42.5 62.265625 44.5 60.65625 46.703125 59.25 
C 46.90625 60.96875 47.296875 62.578125 47.59375 64.28125 
C 47.796875 65.375 48.09375 66.390625 46.90625 66.78125 
L 45 67.796875 
C 42.296875 69 39.5 69.90625 36.59375 70.5 
C 27.59375 72.203125 17.203125 71.203125 10.40625 64.484375 
C 7 61.0625 4.09375 56.4375 5.296875 49.515625 
C 6.703125 42.390625 12.296875 37.875 18.09375 35.65625 
C 21.5 34.359375 25.296875 33.65625 28.90625 32.75 
C 31 32.34375 33.203125 31.84375 35.296875 31.140625 
C 40.703125 29.125 45.40625 25.109375 45.40625 17.6875 
C 44.796875 11.296875 39.203125 6.625 33.296875 5.203125 
C 25.703125 3.265625 16.703125 6.015625 11.5 8.75 
C 9.203125 9.96875 7.203125 11.59375 5.09375 13.015625 
" id="Computer_Modern_Bright-83"/>
     </defs>
     <g style="fill:#262626;" transform="translate(102.179163 106.098444)scale(0.14 -0.14)">
      <use transform="scale(0.996264)" xlink:href="#Computer_Modern_Bright-83"/>
      <use transform="translate(56.454753 0)scale(0.996264)" xlink:href="#Computer_Modern_Bright-117"/>
      <use transform="translate(104.60725 0)scale(0.996264)" xlink:href="#Computer_Modern_Bright-112"/>
      <use transform="translate(152.759747 0)scale(0.996264)" xlink:href="#Computer_Modern_Bright-112"/>
      <use transform="translate(198.006514 0)scale(0.996264)" xlink:href="#Computer_Modern_Bright-114"/>
      <use transform="translate(229.969873 0)scale(0.996264)" xlink:href="#Computer_Modern_Bright-101"/>
      <use transform="translate(274.801541 0)scale(0.996264)" xlink:href="#Computer_Modern_Bright-115"/>
      <use transform="translate(313.24057 0)scale(0.996264)" xlink:href="#Computer_Modern_Bright-115"/>
      <use transform="translate(351.679599 0)scale(0.996264)" xlink:href="#Computer_Modern_Bright-105"/>
      <use transform="translate(370.774558 0)scale(0.996264)" xlink:href="#Computer_Modern_Bright-111"/>
      <use transform="translate(421.417776 0)scale(0.996264)" xlink:href="#Computer_Modern_Bright-110"/>
     </g>
    </g>
    <g id="line2d_31">
     <path d="M 62.979163 120.323055 
L 90.979163 120.323055 
" style="fill:none;stroke:#ff7f00;stroke-linecap:round;stroke-width:2;"/>
    </g>
    <g id="line2d_32"/>
    <g id="text_21">
     <!-- Additive -->
     <defs>
      <path d="M 2.09375 0.09375 
L 6.59375 0.09375 
L 8.40625 0.296875 
C 11.40625 6.796875 13.5 14.203125 16.203125 21 
C 26.09375 21 36.90625 21 46.296875 21 
L 47.09375 19.6875 
C 48.796875 14.546875 50.796875 9.59375 52.59375 4.546875 
C 53.09375 3.015625 53.59375 1.515625 54.40625 0.296875 
C 56.59375 0 59.203125 0 61.59375 0 
C 59.90625 4.90625 36.703125 67.203125 36 68.890625 
C 35.90625 69.296875 35.703125 69.890625 35.203125 70 
C 34.59375 70.09375 34 70 33.40625 70 
L 30.09375 70 
C 28.59375 70 28 70.1875 27.59375 68.609375 
C 27.203125 67.59375 2.09375 0.09375 2.09375 0.09375 
M 31.40625 63.171875 
C 35.59375 50.71875 40.09375 38.46875 44.5 26.21875 
L 18.203125 26.21875 
L 26.90625 50.109375 
z
" id="Computer_Modern_Bright-65"/>
     </defs>
     <g style="fill:#262626;" transform="translate(102.179163 125.223055)scale(0.14 -0.14)">
      <use transform="scale(0.996264)" xlink:href="#Computer_Modern_Bright-65"/>
      <use transform="translate(63.511618 0)scale(0.996264)" xlink:href="#Computer_Modern_Bright-100"/>
      <use transform="translate(111.664115 0)scale(0.996264)" xlink:href="#Computer_Modern_Bright-100"/>
      <use transform="translate(159.816612 0)scale(0.996264)" xlink:href="#Computer_Modern_Bright-105"/>
      <use transform="translate(178.911571 0)scale(0.996264)" xlink:href="#Computer_Modern_Bright-116"/>
      <use transform="translate(215.025959 0)scale(0.996264)" xlink:href="#Computer_Modern_Bright-105"/>
      <use transform="translate(234.120917 0)scale(0.996264)" xlink:href="#Computer_Modern_Bright-118"/>
      <use transform="translate(276.461955 0)scale(0.996264)" xlink:href="#Computer_Modern_Bright-101"/>
     </g>
    </g>
   </g>
  </g>
 </g>
 <defs>
  <clipPath id="pee0f11c785">
   <rect height="298.98" width="446.4" x="50.379163" y="7.2"/>
  </clipPath>
 </defs>
</svg>
