<?xml version="1.0" encoding="utf-8" standalone="no"?>
<!DOCTYPE svg PUBLIC "-//W3C//DTD SVG 1.1//EN"
  "http://www.w3.org/Graphics/SVG/1.1/DTD/svg11.dtd">
<!-- Created with matplotlib (http://matplotlib.org/) -->
<svg height="353pt" version="1.1" viewBox="0 0 508 353" width="508pt" xmlns="http://www.w3.org/2000/svg" xmlns:xlink="http://www.w3.org/1999/xlink">
 <defs>
  <style type="text/css">
*{stroke-linecap:butt;stroke-linejoin:round;}
  </style>
 </defs>
 <g id="figure_1">
  <g id="patch_1">
   <path d="M 0 353.548374 
L 508.628355 353.548374 
L 508.628355 0 
L 0 0 
z
" style="fill:#ffffff;"/>
  </g>
  <g id="axes_1">
   <g id="patch_2">
    <path d="M 55.028355 306.18 
L 501.428355 306.18 
L 501.428355 7.2 
L 55.028355 7.2 
z
" style="fill:#eaeaf2;"/>
   </g>
   <g id="matplotlib.axis_1">
    <g id="xtick_1">
     <g id="line2d_1"/>
     <g id="text_1">
      <!-- $-1.0$ -->
      <defs>
       <path d="M 9.796875 28.078125 
C 8 27.484375 7.796875 24.78125 9.796875 24.28125 
C 10.296875 24.078125 10.90625 24.1875 11.5 24.1875 
L 64.703125 24.1875 
C 65.90625 24.1875 67.796875 23.78125 68.796875 24.78125 
C 69.90625 25.875 69.296875 27.875 67.703125 28.1875 
C 66.5 28.375 65.09375 28.1875 63.90625 28.1875 
L 11.40625 28.1875 
C 10.90625 28.1875 10.296875 28.28125 9.796875 28.078125 
" id="Computer_Modern_Bright_Math_Symbols-0"/>
       <path d="M 9.703125 60.015625 
L 9.703125 55 
C 15.203125 55 19 56 23.40625 57.90625 
L 23.40625 5.015625 
L 10.296875 5.015625 
L 10.296875 0 
L 43 0 
L 43 5.015625 
L 29.90625 5.015625 
L 29.90625 67 
C 27.5 67 27.90625 66.359375 26 64.875 
C 21.90625 61.71875 16.203125 60.015625 9.703125 60.015625 
" id="Computer_Modern_Bright-49"/>
       <path d="M 10.703125 7.8125 
L 10.703125 0 
L 18.5 0 
L 18.5 7.8125 
z
" id="Computer_Modern_Bright_Math_Slanted-58"/>
       <path d="M 14.796875 63.859375 
C 11.90625 61.859375 9.90625 59.140625 8.40625 56.03125 
C 4.796875 49 4.40625 40.765625 4.40625 31.828125 
C 4.40625 20.578125 6.40625 10.25 12 4.3125 
C 17.296875 -1.203125 25.703125 -2.609375 32.796875 0.296875 
C 37.203125 2.015625 40.40625 5.71875 42.40625 9.734375 
C 46 16.875 46.40625 25.40625 46.40625 34.234375 
C 46.40625 37.046875 46.296875 39.859375 46 42.671875 
C 45.296875 49.40625 43 56.828125 39.296875 60.953125 
C 33.203125 67.6875 22.296875 69.1875 14.796875 63.859375 
M 34.90625 58.140625 
C 39.59375 53.125 40 43.484375 40 34.34375 
L 40 28.921875 
C 40 24.296875 39.203125 18.28125 38.203125 14.859375 
C 36.796875 10.140625 34.5 6.734375 29.90625 4.625 
C 24.296875 2.609375 18.5 4.515625 15.296875 8.9375 
C 11 14.65625 10.796875 24.796875 10.796875 33.734375 
C 10.796875 42.171875 10.90625 51.515625 15 57.03125 
C 19.5 63.0625 29.203125 64.0625 34.90625 58.140625 
" id="Computer_Modern_Bright-48"/>
      </defs>
      <g style="fill:#262626;" transform="translate(95.286735 324.249603)scale(0.16 -0.16)">
       <use transform="scale(0.996264)" xlink:href="#Computer_Modern_Bright_Math_Symbols-0"/>
       <use transform="translate(77.487468 0)scale(0.996264)" xlink:href="#Computer_Modern_Bright-49"/>
       <use transform="translate(128.130685 0)scale(0.996264)" xlink:href="#Computer_Modern_Bright_Math_Slanted-58"/>
       <use transform="translate(157.188132 0)scale(0.996264)" xlink:href="#Computer_Modern_Bright-48"/>
      </g>
     </g>
    </g>
    <g id="xtick_2">
     <g id="line2d_2"/>
     <g id="text_2">
      <!-- $-0.8$ -->
      <defs>
       <path d="M 18.703125 36 
L 18.703125 35.90625 
C 12.5 34.09375 7.296875 30.6875 4.796875 24.84375 
C 2.203125 18.71875 4 11.28125 8.40625 6.453125 
C 13.09375 1.421875 19.5 -1 26.296875 -1 
C 36.296875 -1 45.90625 6.40625 47.09375 16.734375 
C 47.296875 18.265625 47.203125 19.890625 47 21.40625 
C 45.203125 29.21875 39.5 33.875 32.09375 35.90625 
C 32.90625 36.203125 33.796875 36.40625 34.59375 36.703125 
C 38.796875 38.421875 42.296875 40.921875 44.5 44.9375 
C 47.796875 51.375 44.59375 58.90625 39.203125 63.015625 
C 33.796875 67.140625 26.5 68.234375 19.90625 66.828125 
C 12 65.125 4.5 58.40625 5 49.765625 
C 5.203125 46.75 6.5 44.234375 8 42.4375 
C 10.296875 39.625 14.796875 36.609375 18.703125 36 
M 23.796875 62.5 
C 28.203125 62.5 33.703125 62 36.90625 58.578125 
C 40.703125 54.46875 40.90625 47.03125 37.09375 42.8125 
C 34.703125 40.203125 31.203125 38.890625 27.703125 38.59375 
C 22.796875 38.1875 17.203125 39 13.703125 42.8125 
C 9.796875 47.125 10.09375 54.96875 14.296875 58.984375 
C 16.90625 61.390625 20.40625 62.1875 23.796875 62.5 
M 23.703125 33.5 
C 28.40625 33.5 33.5 32.390625 36.90625 28.9375 
C 38.203125 27.53125 39.203125 25.8125 39.796875 24.015625 
C 41.5 18.75 40.703125 12.09375 36.796875 8.046875 
C 34.09375 5.328125 30.40625 4.3125 26.703125 4.015625 
C 22.203125 4.015625 17 5.109375 13.796875 8.5625 
C 9.40625 13.390625 8.5 23.40625 13.703125 29.0625 
C 16.296875 31.78125 20 33.203125 23.703125 33.5 
" id="Computer_Modern_Bright-56"/>
      </defs>
      <g style="fill:#262626;" transform="translate(167.60153 324.249603)scale(0.16 -0.16)">
       <use transform="scale(0.996264)" xlink:href="#Computer_Modern_Bright_Math_Symbols-0"/>
       <use transform="translate(77.487468 0)scale(0.996264)" xlink:href="#Computer_Modern_Bright-48"/>
       <use transform="translate(128.130685 0)scale(0.996264)" xlink:href="#Computer_Modern_Bright_Math_Slanted-58"/>
       <use transform="translate(157.188132 0)scale(0.996264)" xlink:href="#Computer_Modern_Bright-56"/>
      </g>
     </g>
    </g>
    <g id="xtick_3">
     <g id="line2d_3"/>
     <g id="text_3">
      <!-- $-0.6$ -->
      <defs>
       <path d="M 11.296875 32.625 
L 11.203125 32.625 
C 11.203125 41.765625 12.796875 52.421875 20.59375 58.25 
C 24.90625 61.375 30.703125 62.96875 38.203125 61.171875 
C 39.796875 60.765625 41.296875 60.15625 42.796875 59.765625 
L 42.796875 63.28125 
C 42.796875 63.671875 42.90625 64.375 42.59375 64.78125 
C 41.90625 65.6875 36.296875 66.59375 36.09375 66.59375 
C 27.40625 67.59375 21.703125 65.6875 16.40625 61.171875 
C 10 55.640625 6.296875 47.515625 5.09375 39.28125 
C 4 32.65625 4.90625 22 6.203125 16.78125 
C 8.296875 9.046875 12.296875 2.21875 19.703125 -0.390625 
C 24.09375 -2 29.5 -2 33.703125 0.015625 
C 37.09375 1.640625 39.90625 4.46875 42.09375 7.5 
C 45.59375 12.34375 46.5 18.21875 46.09375 24.171875 
C 45.90625 27.109375 45.5 30.046875 44.296875 32.765625 
C 42.40625 37.125 39.203125 41.671875 35.09375 43.6875 
C 33.203125 44.5 31.203125 44.5 29.203125 44.5 
C 23.90625 44.5 18.90625 42.1875 15.203125 38.359375 
C 13.59375 36.75 12 34.71875 11.296875 32.625 
M 24.40625 39.515625 
C 28.203125 39.8125 32.203125 39.21875 35.09375 36.5 
C 38.90625 32.890625 39.59375 27.765625 39.59375 22.8125 
C 39.59375 19.46875 39.703125 16.015625 38.703125 12.859375 
C 38.09375 11.234375 37.296875 9.828125 36.40625 8.5 
C 34.203125 5.5625 31.40625 4.125 26.796875 3.515625 
C 22.296875 3.515625 17.796875 5.3125 15.203125 9.125 
C 13.59375 11.328125 12.796875 14.046875 12.296875 16.640625 
C 11.703125 19.34375 11.296875 22.140625 11.5 24.859375 
C 12 31.984375 17 38.515625 24.40625 39.515625 
" id="Computer_Modern_Bright-54"/>
      </defs>
      <g style="fill:#262626;" transform="translate(239.916325 324.249603)scale(0.16 -0.16)">
       <use transform="scale(0.996264)" xlink:href="#Computer_Modern_Bright_Math_Symbols-0"/>
       <use transform="translate(77.487468 0)scale(0.996264)" xlink:href="#Computer_Modern_Bright-48"/>
       <use transform="translate(128.130685 0)scale(0.996264)" xlink:href="#Computer_Modern_Bright_Math_Slanted-58"/>
       <use transform="translate(157.188132 0)scale(0.996264)" xlink:href="#Computer_Modern_Bright-54"/>
      </g>
     </g>
    </g>
    <g id="xtick_4">
     <g id="line2d_4"/>
     <g id="text_4">
      <!-- $-0.4$ -->
      <defs>
       <path d="M 2.09375 18 
L 31 18 
L 31 0 
L 37.296875 0 
L 37.296875 18 
L 48.703125 18 
L 48.703125 23.328125 
L 37.296875 23.328125 
L 37.296875 66.46875 
L 31.90625 66.46875 
C 30.09375 66.46875 29.59375 66.578125 28.796875 65.0625 
C 24.796875 58.515625 3.703125 25.765625 3 24.859375 
C 2.203125 23.4375 2.09375 23.546875 2.09375 21.4375 
z
M 31.296875 60.875 
L 31.296875 23.328125 
L 8.59375 23.328125 
C 9.296875 24.734375 10.296875 26.03125 11.203125 27.4375 
C 16.203125 35.171875 28.09375 53.546875 30.59375 59.28125 
C 30.90625 59.78125 31 60.375 31.296875 60.875 
" id="Computer_Modern_Bright-52"/>
      </defs>
      <g style="fill:#262626;" transform="translate(312.231119 324.249603)scale(0.16 -0.16)">
       <use transform="scale(0.996264)" xlink:href="#Computer_Modern_Bright_Math_Symbols-0"/>
       <use transform="translate(77.487468 0)scale(0.996264)" xlink:href="#Computer_Modern_Bright-48"/>
       <use transform="translate(128.130685 0)scale(0.996264)" xlink:href="#Computer_Modern_Bright_Math_Slanted-58"/>
       <use transform="translate(157.188132 0)scale(0.996264)" xlink:href="#Computer_Modern_Bright-52"/>
      </g>
     </g>
    </g>
    <g id="xtick_5">
     <g id="line2d_5"/>
     <g id="text_5">
      <!-- $-0.2$ -->
      <defs>
       <path d="M 7.296875 45.96875 
C 8.703125 51.59375 11.09375 57.984375 16.796875 60.5 
C 19.203125 61.5 21.796875 61.703125 24.40625 61.5 
C 29.296875 61.09375 34.09375 59.09375 37.09375 55.09375 
C 39.296875 52.078125 40.09375 48.375 39.703125 44.78125 
C 38.5 34.34375 28.296875 26.84375 21.703125 21.234375 
C 17.90625 18.03125 7.09375 7.8125 7.09375 7.8125 
L 5.40625 6.203125 
C 4.5 5.3125 4.40625 5.3125 4.40625 3.5 
L 4.40625 0 
L 46.40625 0 
L 46.40625 5.625 
L 10.203125 5.625 
C 13.40625 8.734375 26.703125 20.515625 28.5 21.921875 
C 34.296875 26.65625 40.796875 31.375 44.296875 38.21875 
C 48.203125 46.0625 46.5 55.9375 39.90625 61.765625 
C 35.90625 65.296875 30.40625 67 25.09375 67 
C 20.203125 67 15.203125 66 11.296875 62.90625 
C 8.296875 60.390625 5.796875 56.6875 4.40625 52.875 
C 4.09375 52.28125 3.59375 51.28125 3.703125 50.578125 
C 3.796875 49.984375 4.40625 49.484375 4.703125 49.078125 
C 5.5 48.078125 6.296875 46.875 7.296875 45.96875 
" id="Computer_Modern_Bright-50"/>
      </defs>
      <g style="fill:#262626;" transform="translate(384.545914 324.249603)scale(0.16 -0.16)">
       <use transform="scale(0.996264)" xlink:href="#Computer_Modern_Bright_Math_Symbols-0"/>
       <use transform="translate(77.487468 0)scale(0.996264)" xlink:href="#Computer_Modern_Bright-48"/>
       <use transform="translate(128.130685 0)scale(0.996264)" xlink:href="#Computer_Modern_Bright_Math_Slanted-58"/>
       <use transform="translate(157.188132 0)scale(0.996264)" xlink:href="#Computer_Modern_Bright-50"/>
      </g>
     </g>
    </g>
    <g id="xtick_6">
     <g id="line2d_6"/>
     <g id="text_6">
      <!-- $0.0$ -->
      <g style="fill:#262626;" transform="translate(463.059706 324.249603)scale(0.16 -0.16)">
       <use transform="scale(0.996264)" xlink:href="#Computer_Modern_Bright-48"/>
       <use transform="translate(50.643218 0)scale(0.996264)" xlink:href="#Computer_Modern_Bright_Math_Slanted-58"/>
       <use transform="translate(79.700665 0)scale(0.996264)" xlink:href="#Computer_Modern_Bright-48"/>
      </g>
     </g>
    </g>
    <g id="text_7">
     <!-- Epistasis Coefficient -->
     <defs>
      <path d="M 8 69.328125 
L 8 0 
L 55.40625 0 
L 55.40625 5.625 
L 15 5.625 
L 15 33.671875 
L 51.09375 33.671875 
L 51.09375 39 
L 15 39 
L 15 64 
L 54 64 
L 54 69.328125 
z
" id="Computer_Modern_Bright-69"/>
      <path d="M 12.703125 40.53125 
L 12.703125 47.15625 
L 6.40625 47.15625 
L 6.40625 -17 
L 12.796875 -17 
L 12.796875 6.09375 
C 14.203125 4.078125 15.796875 2.28125 17.90625 1.078125 
C 25 -3.25 34 0.171875 38.90625 6.59375 
C 45.40625 14.96875 46.09375 27.5 41.59375 36.984375 
C 39 42.4375 34.09375 47.5 27.796875 48 
C 22.296875 48 18.09375 45.8125 15.09375 43.125 
C 14.203125 42.328125 13.5 41.4375 12.703125 40.53125 
M 21.90625 42.875 
C 26 43.171875 30 41.265625 32.796875 38.265625 
C 34.5 36.34375 35.796875 34.140625 36.59375 31.734375 
C 40.09375 22.296875 36.90625 9.234375 26.796875 5.328125 
C 21 3.109375 15.296875 5.125 13.09375 10.546875 
C 12.59375 11.546875 12.796875 12.859375 12.796875 13.953125 
L 12.796875 34.640625 
C 12.796875 36.953125 13 37.15625 14.5 38.859375 
C 16.296875 41.0625 19 42.578125 21.90625 42.875 
" id="Computer_Modern_Bright-112"/>
      <path d="M 6.40625 70 
L 6.40625 63.671875 
L 12.703125 63.671875 
L 12.703125 70 
z
M 6.40625 47.390625 
L 6.40625 0 
L 12.703125 0 
L 12.703125 47.390625 
z
" id="Computer_Modern_Bright-105"/>
      <path d="M 3.09375 9.640625 
C 2.90625 8.234375 2.59375 6.9375 2.40625 5.53125 
C 2.203125 4.421875 1.90625 3.921875 2.90625 3.421875 
C 7 1.015625 11.90625 -0.296875 17.703125 -0.796875 
C 24.203125 -1.40625 32.40625 0.109375 35.59375 6.53125 
C 36.5 8.34375 37 10.34375 37.09375 12.359375 
C 37.5 19.578125 31.796875 24.203125 26.90625 25.90625 
C 21.40625 28.015625 13.90625 27.3125 10.09375 31.53125 
C 8.09375 33.84375 8 37.265625 9.90625 39.671875 
C 13.90625 45.296875 26.796875 42.875 31.90625 40.375 
C 32.703125 39.96875 33.40625 39.46875 34.296875 39.265625 
L 35.203125 44.6875 
C 30.5 46.796875 26.40625 48 19.90625 48 
C 14.296875 48 9.203125 46.703125 6 43.484375 
C 2.796875 40.171875 1.703125 34.640625 3.59375 30.4375 
C 5.40625 26.40625 9.203125 23.796875 13.296875 22.5 
C 19.203125 20.390625 25.90625 21.390625 29.796875 16.578125 
C 32 13.765625 31.59375 9.546875 29.09375 7.03125 
C 24.296875 2.609375 14.09375 4.21875 8.5 6.625 
C 6.59375 7.4375 4.90625 8.640625 3.09375 9.640625 
" id="Computer_Modern_Bright-115"/>
      <path d="M 10.796875 60.5 
L 10.796875 47.015625 
L 1.09375 47.015625 
L 1.09375 42 
L 10.703125 42 
L 10.703125 15.015625 
C 10.703125 10.578125 10.40625 5.234375 13.296875 1.515625 
C 15 -0.703125 17.296875 -1.296875 20.796875 -1 
C 23.703125 -1 26.59375 -0.390625 29.296875 0.65625 
C 30.203125 1.0625 33.5 2.515625 33.90625 3.234375 
C 34.09375 3.640625 32.796875 8.09375 32.796875 8.09375 
L 30.40625 6.265625 
C 27.296875 4.34375 21.09375 2.328125 18.5 5.96875 
C 16.203125 9.09375 16.796875 13.75 16.796875 17.375 
L 16.796875 42 
L 32.296875 42 
L 32.296875 47.015625 
L 16.796875 47.015625 
L 16.796875 60.5 
z
" id="Computer_Modern_Bright-116"/>
      <path d="M 7.90625 39.015625 
C 9.59375 39.859375 11 41.09375 12.703125 41.921875 
C 15.40625 43.15625 18.203125 44 21.203125 44 
C 22.59375 44.09375 24.203125 44.296875 25.59375 44 
C 28.09375 43.59375 30.296875 42.078125 31.796875 39.953125 
C 33.296875 37.515625 33.90625 35.390625 33.90625 31.46875 
L 33.90625 27.015625 
C 29.09375 27.015625 24.296875 26.609375 19.703125 25.390625 
C 13.90625 24.078125 7.59375 21.125 5.5 15.84375 
C 3.40625 10.78125 5.59375 4.078125 10.09375 1.03125 
C 12.296875 -0.5 14.90625 -0.5 17.5 -0.296875 
C 21.703125 0 25.90625 1.015625 29.5 3.25 
C 31.203125 4.25 32.90625 5.578125 33.90625 7.296875 
L 34 7.296875 
L 34 0.203125 
L 40.296875 0.203125 
L 40.296875 26.890625 
C 40.296875 29.8125 40.59375 32.953125 40 35.890625 
C 39.40625 39.921875 36.90625 43.265625 34 45.59375 
C 30.59375 48.21875 26.703125 49.109375 21.5 48.71875 
C 16.703125 48.71875 13 47.5 9.40625 45.765625 
C 8.90625 45.5625 7.90625 45.234375 7.59375 44.640625 
C 7.296875 44.21875 7.5 43.515625 7.5 43 
C 7.703125 41.671875 7.796875 40.34375 7.90625 39.015625 
M 33.90625 24 
L 33.90625 16.375 
C 33.90625 14.0625 34 11.953125 32.703125 9.953125 
C 31.59375 8.34375 30.09375 7.234375 28.5 6.4375 
C 22.796875 3.515625 14.09375 4.421875 11.59375 9.25 
C 9.59375 12.75 11.703125 16.875 14.59375 19.1875 
C 18.90625 22.5 27.296875 24 33.90625 24 
" id="Computer_Modern_Bright-97"/>
      <path d="M 60.5 10.875 
C 58.5 9.859375 56.703125 8.453125 54.703125 7.453125 
C 50 5.046875 44 4.140625 37.5 4.734375 
C 31.703125 5.546875 26.90625 8.359375 23.40625 11.875 
C 12.203125 23.15625 11.40625 42.96875 21.296875 55.34375 
C 25.5 60.875 31.90625 65 41.296875 65 
C 45.09375 65 49 64.296875 52.5 62.890625 
C 54.59375 61.96875 56.59375 60.765625 58.59375 59.765625 
L 59.796875 66.8125 
C 57.59375 67.671875 55.296875 68.5625 53 69.09375 
C 47.40625 70.625 38.90625 70.625 33.09375 69.21875 
C 22.90625 66.921875 15.5 59.828125 11.296875 51.625 
C 5.5 40.015625 6.203125 25.515625 13.203125 14.59375 
C 15 11.703125 17.296875 9.109375 19.90625 6.890625 
C 25.90625 1.6875 33.296875 -1.3125 43.59375 -0.5 
C 49.796875 -0.5 53.40625 0.515625 58.203125 3.203125 
C 58.703125 3.5 60.59375 4.515625 60.90625 4.9375 
C 61.09375 5.4375 60.59375 9.53125 60.5 10.875 
" id="Computer_Modern_Bright-67"/>
      <path d="M 10.703125 42.078125 
C 1.796875 33.234375 0.796875 17.875 8.5 7.9375 
C 9.59375 6.421875 10.90625 5.125 12.40625 4.015625 
C 16.09375 1 21.5 -1.203125 27.796875 -0.5 
C 37.796875 0.703125 44.703125 8.84375 46.796875 17.375 
C 49.59375 29.328125 43.703125 42.671875 32.703125 46.890625 
C 24.09375 50.40625 15.5 46.890625 10.703125 42.078125 
M 35.703125 39.359375 
C 40.5 35.03125 41.40625 28.109375 41 21.984375 
C 40.703125 17.265625 39.40625 12.34375 36.09375 8.828125 
C 30.703125 3 20.703125 3 14.90625 8.625 
C 11.90625 11.84375 10.09375 16.453125 9.796875 21.984375 
C 9.296875 30.109375 11.296875 38.75 19.296875 41.96875 
C 25.203125 44.578125 32 42.671875 35.703125 39.359375 
" id="Computer_Modern_Bright-111"/>
      <path d="M 41.796875 10.9375 
C 39.5 9.234375 38.796875 8.328125 35.90625 6.8125 
C 29.796875 3.5 22.59375 3.5 17.40625 7.171875 
C 12.40625 10.765625 9.5 16.640625 9.5 25 
L 42.5 25 
C 42.5 32.421875 40.796875 38.859375 36.59375 43.375 
C 32 47.890625 24.796875 49.296875 18.703125 47.390625 
C 16.40625 46.6875 14.296875 45.484375 12.40625 43.96875 
C 6.09375 38.859375 3.40625 30.71875 3.5 22.78125 
C 3.703125 12.34375 10.796875 1.90625 21.296875 -0.3125 
C 26.796875 -1.421875 32.59375 -0.203125 37.5 2.296875 
C 38.40625 2.796875 41.703125 4.609375 42.09375 5.515625 
C 42.40625 6.015625 41.796875 10.9375 41.796875 10.9375 
M 37.203125 28.90625 
L 10 28.90625 
C 11.203125 36.234375 17.203125 43.96875 25.296875 43.0625 
C 31.90625 42.46875 35.40625 37.75 36.703125 31.828125 
C 36.90625 30.8125 37 29.921875 37.203125 28.90625 
" id="Computer_Modern_Bright-101"/>
      <path d="M 10.59375 47.015625 
L 2 47.015625 
L 2 42 
L 10.59375 42 
L 10.59375 0 
L 16.90625 0 
L 16.90625 42 
L 30.09375 42 
L 30.09375 47.015625 
L 16.796875 47.015625 
L 16.796875 56.234375 
C 16.796875 57.890625 16.59375 59.65625 17.296875 61.21875 
C 19.5 65.875 25.40625 65.875 29.59375 65.078125 
C 30.59375 64.875 31.703125 64.46875 32.703125 64.265625 
L 32.703125 69.90625 
C 27.703125 70.609375 22.296875 71.21875 17.703125 68.46875 
C 15.796875 67.4375 14.203125 65.6875 13 63.921875 
C 11.09375 60.9375 10.59375 58.78125 10.59375 53.71875 
z
M 38.09375 0 
L 44.40625 0 
L 44.40625 42 
L 57.59375 42 
L 57.59375 47.015625 
L 44.296875 47.015625 
L 44.296875 55.234375 
C 44.296875 56.890625 44.09375 58.65625 44.40625 60.328125 
C 44.90625 62.296875 46.09375 63.65625 47.703125 64.671875 
C 50.796875 66.171875 54.40625 65.078125 57.59375 64.171875 
L 57.59375 70 
C 55.09375 70.1875 52.703125 70.6875 50.203125 70.5 
C 43.40625 70 38.59375 64.046875 38.09375 57.3125 
C 38 55.890625 38.09375 54.375 38.09375 52.96875 
z
M 65.59375 70 
L 65.59375 63.671875 
L 71.90625 63.671875 
L 71.90625 70 
z
M 65.59375 47.390625 
L 65.59375 0 
L 71.90625 0 
L 71.90625 47.390625 
z
" id="Computer_Modern_Bright-14"/>
      <path d="M 42.40625 11.25 
C 40.5 9.84375 38.796875 8.328125 36.703125 7.125 
C 32 4.625 24.796875 3.421875 19.40625 5.921875 
C 11.59375 9.9375 9.5 19.6875 10.59375 27.71875 
C 10.796875 29.328125 11.09375 30.921875 11.59375 32.4375 
C 13.796875 38.96875 19.296875 44.078125 28.296875 43.078125 
C 33.09375 42.671875 35.5 41.875 39.296875 39.765625 
C 40 39.359375 40.59375 38.859375 41.40625 38.65625 
C 41.5 39.859375 41.796875 41.171875 42 42.375 
C 42.296875 43.984375 42.296875 44.1875 40.796875 44.890625 
C 39.703125 45.390625 38.59375 45.984375 37.40625 46.390625 
C 32.796875 48.40625 25.203125 49 20 47.5 
C 12.90625 45.484375 7.59375 39.359375 5.296875 32.53125 
C 4.203125 29.421875 3.90625 26.109375 3.90625 22.796875 
C 4 12.25 11.203125 1.90625 21.703125 -0.203125 
C 27.5 -1.40625 34.203125 0.296875 38.203125 2.40625 
C 39.203125 2.90625 42.203125 4.71875 42.703125 5.625 
C 43 6.125 42.40625 11.25 42.40625 11.25 
" id="Computer_Modern_Bright-99"/>
      <path d="M 12.59375 37.28125 
L 12.5 37.28125 
L 12.5 47.390625 
L 6.40625 47.390625 
L 6.40625 0 
L 12.796875 0 
L 12.796875 21.9375 
C 12.796875 26.84375 12.5 31.875 14.703125 36.46875 
C 15.796875 38.78125 17.5 40.78125 19.796875 41.984375 
C 21.703125 42.890625 23.703125 42.890625 25.796875 42.6875 
C 28.796875 42.6875 31.703125 41.890625 33.59375 39.375 
C 35.40625 37.0625 35.5 34.0625 35.5 31.25 
L 35.5 0 
L 41.90625 0 
L 41.90625 26.859375 
C 41.90625 31.875 42.40625 37.375 40 41.890625 
C 38.09375 45.5 34.40625 47.203125 30.5 47.703125 
C 28.5 48 26.40625 48 24.40625 47.609375 
C 19.203125 46.5 14.40625 42.296875 12.59375 37.28125 
" id="Computer_Modern_Bright-110"/>
     </defs>
     <g style="fill:#262626;" transform="translate(205.672064 343.359582)scale(0.18 -0.18)">
      <use transform="scale(0.996264)" xlink:href="#Computer_Modern_Bright-69"/>
      <use transform="translate(58.737787 0)scale(0.996264)" xlink:href="#Computer_Modern_Bright-112"/>
      <use transform="translate(106.890284 0)scale(0.996264)" xlink:href="#Computer_Modern_Bright-105"/>
      <use transform="translate(125.985243 0)scale(0.996264)" xlink:href="#Computer_Modern_Bright-115"/>
      <use transform="translate(164.424272 0)scale(0.996264)" xlink:href="#Computer_Modern_Bright-116"/>
      <use transform="translate(200.53866 0)scale(0.996264)" xlink:href="#Computer_Modern_Bright-97"/>
      <use transform="translate(247.030742 0)scale(0.996264)" xlink:href="#Computer_Modern_Bright-115"/>
      <use transform="translate(285.469772 0)scale(0.996264)" xlink:href="#Computer_Modern_Bright-105"/>
      <use transform="translate(304.56473 0)scale(0.996264)" xlink:href="#Computer_Modern_Bright-115"/>
      <use transform="translate(374.468971 0)scale(0.996264)" xlink:href="#Computer_Modern_Bright-67"/>
      <use transform="translate(439.641004 0)scale(0.996264)" xlink:href="#Computer_Modern_Bright-111"/>
      <use transform="translate(490.284222 0)scale(0.996264)" xlink:href="#Computer_Modern_Bright-101"/>
      <use transform="translate(535.115889 0)scale(0.996264)" xlink:href="#Computer_Modern_Bright-14"/>
      <use transform="translate(613.156322 0)scale(0.996264)" xlink:href="#Computer_Modern_Bright-99"/>
      <use transform="translate(657.987989 0)scale(0.996264)" xlink:href="#Computer_Modern_Bright-105"/>
      <use transform="translate(677.082948 0)scale(0.996264)" xlink:href="#Computer_Modern_Bright-101"/>
      <use transform="translate(721.914616 0)scale(0.996264)" xlink:href="#Computer_Modern_Bright-110"/>
      <use transform="translate(770.067113 0)scale(0.996264)" xlink:href="#Computer_Modern_Bright-116"/>
     </g>
    </g>
   </g>
   <g id="matplotlib.axis_2">
    <g id="ytick_1">
     <g id="line2d_7"/>
     <g id="text_8">
      <!-- $0.0$ -->
      <g style="fill:#262626;" transform="translate(26.642062 298.124802)scale(0.16 -0.16)">
       <use transform="scale(0.996264)" xlink:href="#Computer_Modern_Bright-48"/>
       <use transform="translate(50.643218 0)scale(0.996264)" xlink:href="#Computer_Modern_Bright_Math_Slanted-58"/>
       <use transform="translate(79.700665 0)scale(0.996264)" xlink:href="#Computer_Modern_Bright-48"/>
      </g>
     </g>
    </g>
    <g id="ytick_2">
     <g id="line2d_8"/>
     <g id="text_9">
      <!-- $0.2$ -->
      <g style="fill:#262626;" transform="translate(26.642062 243.764787)scale(0.16 -0.16)">
       <use transform="scale(0.996264)" xlink:href="#Computer_Modern_Bright-48"/>
       <use transform="translate(50.643218 0)scale(0.996264)" xlink:href="#Computer_Modern_Bright_Math_Slanted-58"/>
       <use transform="translate(79.700665 0)scale(0.996264)" xlink:href="#Computer_Modern_Bright-50"/>
      </g>
     </g>
    </g>
    <g id="ytick_3">
     <g id="line2d_9"/>
     <g id="text_10">
      <!-- $0.4$ -->
      <g style="fill:#262626;" transform="translate(26.642062 189.404772)scale(0.16 -0.16)">
       <use transform="scale(0.996264)" xlink:href="#Computer_Modern_Bright-48"/>
       <use transform="translate(50.643218 0)scale(0.996264)" xlink:href="#Computer_Modern_Bright_Math_Slanted-58"/>
       <use transform="translate(79.700665 0)scale(0.996264)" xlink:href="#Computer_Modern_Bright-52"/>
      </g>
     </g>
    </g>
    <g id="ytick_4">
     <g id="line2d_10"/>
     <g id="text_11">
      <!-- $0.6$ -->
      <g style="fill:#262626;" transform="translate(26.642062 135.044758)scale(0.16 -0.16)">
       <use transform="scale(0.996264)" xlink:href="#Computer_Modern_Bright-48"/>
       <use transform="translate(50.643218 0)scale(0.996264)" xlink:href="#Computer_Modern_Bright_Math_Slanted-58"/>
       <use transform="translate(79.700665 0)scale(0.996264)" xlink:href="#Computer_Modern_Bright-54"/>
      </g>
     </g>
    </g>
    <g id="ytick_5">
     <g id="line2d_11"/>
     <g id="text_12">
      <!-- $0.8$ -->
      <g style="fill:#262626;" transform="translate(26.642062 80.684743)scale(0.16 -0.16)">
       <use transform="scale(0.996264)" xlink:href="#Computer_Modern_Bright-48"/>
       <use transform="translate(50.643218 0)scale(0.996264)" xlink:href="#Computer_Modern_Bright_Math_Slanted-58"/>
       <use transform="translate(79.700665 0)scale(0.996264)" xlink:href="#Computer_Modern_Bright-56"/>
      </g>
     </g>
    </g>
    <g id="ytick_6">
     <g id="line2d_12"/>
     <g id="text_13">
      <!-- $1.0$ -->
      <g style="fill:#262626;" transform="translate(26.642062 26.324728)scale(0.16 -0.16)">
       <use transform="scale(0.996264)" xlink:href="#Computer_Modern_Bright-49"/>
       <use transform="translate(50.643218 0)scale(0.996264)" xlink:href="#Computer_Modern_Bright_Math_Slanted-58"/>
       <use transform="translate(79.700665 0)scale(0.996264)" xlink:href="#Computer_Modern_Bright-48"/>
      </g>
     </g>
    </g>
    <g id="text_14">
     <!-- Cumulative Density Function -->
     <defs>
      <path d="M 6.40625 47 
L 6.40625 12.96875 
C 6.40625 10.046875 6.5 7.140625 7.703125 4.421875 
C 9.59375 0.515625 13.59375 -1 17.703125 -1 
C 23.203125 -1 28.703125 0.8125 32.703125 4.734375 
C 33.796875 5.828125 34.796875 6.9375 35.5 8.34375 
L 35.59375 8.34375 
L 35.59375 -0.390625 
L 41.90625 -0.390625 
L 41.90625 47 
L 35.5 47 
L 35.5 22.90625 
C 35.5 18.6875 36.09375 14.0625 33.90625 10.25 
C 32.296875 7.4375 29.5 5.234375 26.40625 4.234375 
C 24.296875 3.625 22.09375 3.625 19.90625 3.828125 
C 17.796875 4.03125 15.5 4.234375 14.09375 6.03125 
C 12.09375 8.453125 12.796875 14.171875 12.796875 17.6875 
L 12.796875 47 
z
" id="Computer_Modern_Bright-117"/>
      <path d="M 12.59375 37.359375 
L 12.5 37.359375 
L 12.5 47.390625 
L 6.40625 47.390625 
L 6.40625 0 
L 12.796875 0 
L 12.796875 22.046875 
C 12.796875 26.953125 12.5 31.875 14.703125 36.375 
C 16.59375 40.28125 19.90625 43.390625 25.796875 42.78125 
C 28.796875 42.78125 31.796875 41.984375 33.703125 39.453125 
C 35.5 37.140625 35.59375 34.140625 35.59375 31.3125 
L 35.59375 0 
L 42 0 
L 42 22.046875 
C 42 26.953125 41.703125 31.875 43.90625 36.375 
C 45.796875 40.28125 49.09375 43.390625 55 42.78125 
C 58 42.78125 61 41.984375 62.90625 39.453125 
C 64.703125 37.140625 64.796875 34.140625 64.796875 31.3125 
L 64.796875 0 
L 71.203125 0 
L 71.203125 26.5625 
C 71.203125 31.375 71.796875 36.78125 69.703125 41.1875 
C 67.59375 45.296875 64.203125 47.5 58.703125 47.5 
C 55.5 47.796875 52.296875 47.3125 49.40625 45.84375 
C 45.90625 43.921875 43.296875 40.75 41.703125 37.265625 
C 41 40.578125 40.203125 42.828125 38 45 
C 35.703125 47.0625 32.59375 48 29.59375 48 
C 22.296875 48.59375 17.703125 45.5625 14.59375 41 
C 13.796875 39.875 13 38.671875 12.59375 37.359375 
" id="Computer_Modern_Bright-109"/>
      <path d="M 6.40625 69.6875 
L 6.40625 0 
L 12.703125 0 
L 12.703125 69.6875 
z
" id="Computer_Modern_Bright-108"/>
      <path d="M 0.703125 47.5 
C 1.203125 45.5 4.203125 37.578125 4.40625 37.078125 
C 5.40625 34.28125 17.296875 0.609375 17.59375 0.296875 
C 17.90625 -0.203125 18.796875 0 19.296875 0 
L 22.796875 0 
C 24.09375 0 24.90625 -0.296875 25.203125 0.90625 
C 28.40625 9.328125 40.09375 42.703125 41.796875 47.5 
L 35.59375 47.5 
C 30.796875 33.984375 25.90625 20.4375 21.40625 6.609375 
L 11 36.203125 
C 9.5 39.796875 8.59375 43.890625 6.90625 47.203125 
C 5.09375 47.5 2.796875 47.5 0.703125 47.5 
" id="Computer_Modern_Bright-118"/>
      <path d="M 8 70 
L 8 0 
L 28.203125 0 
C 31.40625 0 34.59375 0 37.703125 0.296875 
C 45.703125 1.109375 52.59375 5.015625 57.203125 9.828125 
C 70.09375 23.171875 70 46.125 57.296875 59.671875 
C 52.703125 64.578125 46.5 68.5 38.703125 69.5 
C 34.90625 70 31 70 27.203125 70 
z
M 14.90625 5.3125 
L 14.90625 64.5625 
L 27.796875 64.5625 
C 30.5 64.5625 33.203125 64.5625 35.90625 64.359375 
C 40.40625 63.859375 44.796875 62.359375 48.5 59.734375 
C 56.59375 54.125 60 44.171875 60 34.640625 
C 60 26.609375 57.796875 18.375 51.90625 12.640625 
C 47.90625 8.9375 42.5 6.21875 36 5.515625 
C 33.40625 5.3125 30.703125 5.3125 28.09375 5.3125 
z
" id="Computer_Modern_Bright-68"/>
      <path d="M 0.703125 47.65625 
C 1.296875 45.75 5.40625 35.609375 5.5 35.3125 
L 17.40625 4.578125 
L 18.40625 2.078125 
C 19 0.671875 19.203125 0.46875 18.59375 -1.140625 
L 17.5 -4.046875 
C 16.59375 -6.46875 15.59375 -8.96875 13.703125 -10.484375 
C 10.296875 -13.296875 4.90625 -11.6875 0.796875 -10.78125 
L 1.296875 -16.5 
C 3.203125 -16.796875 5.09375 -17 7 -17 
C 11.296875 -17.515625 14.09375 -16.5 16.703125 -14.296875 
C 20 -11.484375 21.59375 -7.5625 23.09375 -3.546875 
L 26.203125 5.078125 
L 36.40625 32.90625 
C 38.09375 37.921875 40.203125 42.640625 41.796875 47.65625 
L 37.296875 47.65625 
C 36.796875 47.65625 36 47.859375 35.59375 47.46875 
C 35.40625 47.15625 35.296875 46.765625 35.203125 46.453125 
L 34.40625 44.34375 
C 33.40625 41.734375 32.5 39.234375 31.59375 36.609375 
L 25.796875 20.25 
C 24.296875 15.828125 22.59375 11.3125 21.796875 6.6875 
C 20.703125 11.3125 19.203125 15.734375 17.59375 20.140625 
C 16.296875 23.5625 8.5 44.546875 7.5 46.5625 
C 7.09375 47.65625 6.703125 47.65625 5.203125 47.65625 
z
" id="Computer_Modern_Bright-121"/>
      <path d="M 8 69.328125 
L 8 0 
L 15 0 
L 15 32 
L 48.09375 32 
L 48.09375 37.3125 
L 15 37.3125 
L 15 64 
L 52.40625 64 
L 52.40625 69.328125 
z
" id="Computer_Modern_Bright-70"/>
     </defs>
     <g style="fill:#262626;" transform="translate(19.65327 260.669538)rotate(-90)scale(0.18 -0.18)">
      <use transform="scale(0.996264)" xlink:href="#Computer_Modern_Bright-67"/>
      <use transform="translate(65.172032 0)scale(0.996264)" xlink:href="#Computer_Modern_Bright-117"/>
      <use transform="translate(113.324529 0)scale(0.996264)" xlink:href="#Computer_Modern_Bright-109"/>
      <use transform="translate(190.534656 0)scale(0.996264)" xlink:href="#Computer_Modern_Bright-117"/>
      <use transform="translate(238.687153 0)scale(0.996264)" xlink:href="#Computer_Modern_Bright-108"/>
      <use transform="translate(257.782112 0)scale(0.996264)" xlink:href="#Computer_Modern_Bright-97"/>
      <use transform="translate(304.274194 0)scale(0.996264)" xlink:href="#Computer_Modern_Bright-116"/>
      <use transform="translate(340.388582 0)scale(0.996264)" xlink:href="#Computer_Modern_Bright-105"/>
      <use transform="translate(359.483541 0)scale(0.996264)" xlink:href="#Computer_Modern_Bright-118"/>
      <use transform="translate(401.824579 0)scale(0.996264)" xlink:href="#Computer_Modern_Bright-101"/>
      <use transform="translate(478.121458 0)scale(0.996264)" xlink:href="#Computer_Modern_Bright-68"/>
      <use transform="translate(549.727645 0)scale(0.996264)" xlink:href="#Computer_Modern_Bright-101"/>
      <use transform="translate(594.559312 0)scale(0.996264)" xlink:href="#Computer_Modern_Bright-110"/>
      <use transform="translate(642.711809 0)scale(0.996264)" xlink:href="#Computer_Modern_Bright-115"/>
      <use transform="translate(681.150839 0)scale(0.996264)" xlink:href="#Computer_Modern_Bright-105"/>
      <use transform="translate(700.245798 0)scale(0.996264)" xlink:href="#Computer_Modern_Bright-116"/>
      <use transform="translate(733.454456 0)scale(0.996264)" xlink:href="#Computer_Modern_Bright-121"/>
      <use transform="translate(807.260706 0)scale(0.996264)" xlink:href="#Computer_Modern_Bright-70"/>
      <use transform="translate(860.187034 0)scale(0.996264)" xlink:href="#Computer_Modern_Bright-117"/>
      <use transform="translate(908.339531 0)scale(0.996264)" xlink:href="#Computer_Modern_Bright-110"/>
      <use transform="translate(956.492028 0)scale(0.996264)" xlink:href="#Computer_Modern_Bright-99"/>
      <use transform="translate(1001.323695 0)scale(0.996264)" xlink:href="#Computer_Modern_Bright-116"/>
      <use transform="translate(1037.438083 0)scale(0.996264)" xlink:href="#Computer_Modern_Bright-105"/>
      <use transform="translate(1056.533042 0)scale(0.996264)" xlink:href="#Computer_Modern_Bright-111"/>
      <use transform="translate(1107.17626 0)scale(0.996264)" xlink:href="#Computer_Modern_Bright-110"/>
     </g>
    </g>
   </g>
   <g id="PolyCollection_1">
    <path clip-path="url(#p1b673c62c6)" d="M 306.274054 292.589927 
L 306.274054 292.59 
L 306.499011 292.59 
L 306.723969 292.59 
L 306.948926 292.59 
L 307.173884 292.59 
L 307.398841 292.59 
L 307.623799 292.59 
L 307.848756 292.59 
L 308.073714 292.59 
L 308.298671 292.59 
L 308.523629 292.59 
L 308.748586 292.59 
L 308.973544 292.59 
L 309.198502 292.59 
L 309.423459 292.59 
L 309.648417 292.59 
L 309.873374 292.59 
L 310.098332 292.59 
L 310.323289 292.59 
L 310.548247 292.59 
L 310.773204 292.59 
L 310.998162 292.59 
L 311.223119 292.59 
L 311.448077 292.59 
L 311.673034 292.59 
L 311.897992 292.59 
L 312.122949 292.59 
L 312.347907 292.59 
L 312.572864 292.59 
L 312.797822 292.59 
L 313.02278 292.59 
L 313.247737 292.59 
L 313.472695 292.59 
L 313.697652 292.59 
L 313.92261 292.59 
L 314.147567 292.59 
L 314.372525 292.59 
L 314.597482 292.59 
L 314.82244 292.59 
L 315.047397 292.59 
L 315.272355 292.59 
L 315.497312 292.59 
L 315.72227 292.59 
L 315.947227 292.59 
L 316.172185 292.59 
L 316.397142 292.59 
L 316.6221 292.59 
L 316.847057 292.59 
L 317.072015 292.59 
L 317.296973 292.59 
L 317.52193 292.59 
L 317.746888 292.59 
L 317.971845 292.59 
L 318.196803 292.59 
L 318.42176 292.59 
L 318.646718 292.59 
L 318.871675 292.59 
L 319.096633 292.59 
L 319.32159 292.59 
L 319.546548 292.59 
L 319.771505 292.59 
L 319.996463 292.59 
L 320.22142 292.59 
L 320.446378 292.59 
L 320.671335 292.59 
L 320.896293 292.59 
L 321.121251 292.59 
L 321.346208 292.59 
L 321.571166 292.59 
L 321.796123 292.59 
L 322.021081 292.59 
L 322.246038 292.59 
L 322.470996 292.59 
L 322.695953 292.59 
L 322.920911 292.59 
L 323.145868 292.59 
L 323.370826 292.59 
L 323.595783 292.59 
L 323.820741 292.59 
L 324.045698 292.59 
L 324.270656 292.59 
L 324.495613 292.59 
L 324.720571 292.59 
L 324.945528 292.59 
L 325.170486 292.59 
L 325.395444 292.59 
L 325.620401 292.59 
L 325.845359 292.59 
L 326.070316 292.59 
L 326.295274 292.59 
L 326.520231 292.59 
L 326.745189 292.59 
L 326.970146 292.59 
L 327.195104 292.59 
L 327.420061 292.59 
L 327.645019 292.59 
L 327.869976 292.59 
L 328.094934 292.59 
L 328.319891 292.59 
L 328.544849 292.59 
L 328.769806 292.59 
L 328.994764 292.59 
L 329.219722 292.59 
L 329.444679 292.59 
L 329.669637 292.59 
L 329.894594 292.59 
L 330.119552 292.59 
L 330.344509 292.59 
L 330.569467 292.59 
L 330.794424 292.59 
L 331.019382 292.59 
L 331.244339 292.59 
L 331.469297 292.59 
L 331.694254 292.59 
L 331.919212 292.59 
L 332.144169 292.59 
L 332.369127 292.59 
L 332.594084 292.59 
L 332.819042 292.59 
L 333.043999 292.59 
L 333.268957 292.59 
L 333.493915 292.59 
L 333.718872 292.59 
L 333.94383 292.59 
L 334.168787 292.59 
L 334.393745 292.59 
L 334.618702 292.59 
L 334.84366 292.59 
L 334.84366 20.790001 
L 334.84366 20.790001 
L 334.618702 20.790147 
L 334.393745 20.790513 
L 334.168787 20.791335 
L 333.94383 20.792984 
L 333.718872 20.795961 
L 333.493915 20.800832 
L 333.268957 20.808147 
L 333.043999 20.818387 
L 332.819042 20.832003 
L 332.594084 20.849515 
L 332.369127 20.871577 
L 332.144169 20.89893 
L 331.919212 20.932296 
L 331.694254 20.97234 
L 331.469297 21.019875 
L 331.244339 21.076318 
L 331.019382 21.144247 
L 330.794424 21.227753 
L 330.569467 21.332261 
L 330.344509 21.463705 
L 330.119552 21.627272 
L 329.894594 21.82629 
L 329.669637 22.061805 
L 329.444679 22.33316 
L 329.219722 22.63947 
L 328.994764 22.981621 
L 328.769806 23.364181 
L 328.544849 23.796493 
L 328.319891 24.29227 
L 328.094934 24.867587 
L 327.869976 25.538052 
L 327.645019 26.316608 
L 327.420061 27.21311 
L 327.195104 28.235743 
L 326.970146 29.39311 
L 326.745189 30.695513 
L 326.520231 32.154642 
L 326.295274 33.782064 
L 326.070316 35.587738 
L 325.845359 37.57979 
L 325.620401 39.765844 
L 325.395444 42.155007 
L 325.170486 44.759001 
L 324.945528 47.591451 
L 324.720571 50.665456 
L 324.495613 53.990473 
L 324.270656 57.569879 
L 324.045698 61.400576 
L 323.820741 65.475633 
L 323.595783 69.789646 
L 323.370826 74.344476 
L 323.145868 79.15165 
L 322.920911 84.228668 
L 322.695953 89.590027 
L 322.470996 95.237532 
L 322.246038 101.155639 
L 322.021081 107.314924 
L 321.796123 113.681945 
L 321.571166 120.229992 
L 321.346208 126.944335 
L 321.121251 133.818148 
L 320.896293 140.84028 
L 320.671335 147.981277 
L 320.446378 155.186474 
L 320.22142 162.381938 
L 319.996463 169.491628 
L 319.771505 176.45714 
L 319.546548 183.24995 
L 319.32159 189.871032 
L 319.096633 196.340059 
L 318.871675 202.680824 
L 318.646718 208.909027 
L 318.42176 215.02553 
L 318.196803 221.015621 
L 317.971845 226.853535 
L 317.746888 232.509923 
L 317.52193 237.958118 
L 317.296973 243.175192 
L 317.072015 248.137628 
L 316.847057 252.816395 
L 316.6221 257.177546 
L 316.397142 261.190175 
L 316.172185 264.837349 
L 315.947227 268.122959 
L 315.72227 271.070436 
L 315.497312 273.71491 
L 315.272355 276.093852 
L 315.047397 278.240445 
L 314.82244 280.180681 
L 314.597482 281.932862 
L 314.372525 283.50823 
L 314.147567 284.912689 
L 313.92261 286.149845 
L 313.697652 287.224676 
L 313.472695 288.146273 
L 313.247737 288.928525 
L 313.02278 289.588807 
L 312.797822 290.145583 
L 312.572864 290.615917 
L 312.347907 291.01361 
L 312.122949 291.348428 
L 311.897992 291.626644 
L 311.673034 291.852636 
L 311.448077 292.030776 
L 311.223119 292.166714 
L 310.998162 292.267531 
L 310.773204 292.340947 
L 310.548247 292.394195 
L 310.323289 292.433199 
L 310.098332 292.462291 
L 309.873374 292.484398 
L 309.648417 292.501438 
L 309.423459 292.514746 
L 309.198502 292.525409 
L 308.973544 292.534441 
L 308.748586 292.542753 
L 308.523629 292.550964 
L 308.298671 292.559227 
L 308.073714 292.567225 
L 307.848756 292.57438 
L 307.623799 292.580172 
L 307.398841 292.584369 
L 307.173884 292.587078 
L 306.948926 292.588632 
L 306.723969 292.589424 
L 306.499011 292.589783 
L 306.274054 292.589927 
z
" style="fill:#33a02c;fill-opacity:0.25;"/>
   </g>
   <g id="PolyCollection_2">
    <path clip-path="url(#p1b673c62c6)" d="M 465.88876 292.59 
L 465.88876 292.59 
L 466.008828 292.59 
L 466.128897 292.59 
L 466.248965 292.59 
L 466.369034 292.59 
L 466.489102 292.59 
L 466.60917 292.59 
L 466.729239 292.59 
L 466.849307 292.59 
L 466.969376 292.59 
L 467.089444 292.59 
L 467.209512 292.59 
L 467.329581 292.59 
L 467.449649 292.59 
L 467.569718 292.59 
L 467.689786 292.59 
L 467.809854 292.59 
L 467.929923 292.59 
L 468.049991 292.59 
L 468.17006 292.59 
L 468.290128 292.59 
L 468.410196 292.59 
L 468.530265 292.59 
L 468.650333 292.59 
L 468.770401 292.59 
L 468.89047 292.59 
L 469.010538 292.59 
L 469.130607 292.59 
L 469.250675 292.59 
L 469.370743 292.59 
L 469.490812 292.59 
L 469.61088 292.59 
L 469.730949 292.59 
L 469.851017 292.59 
L 469.971085 292.59 
L 470.091154 292.59 
L 470.211222 292.59 
L 470.331291 292.59 
L 470.451359 292.59 
L 470.571427 292.59 
L 470.691496 292.59 
L 470.811564 292.59 
L 470.931633 292.59 
L 471.051701 292.59 
L 471.171769 292.59 
L 471.291838 292.59 
L 471.411906 292.59 
L 471.531974 292.59 
L 471.652043 292.59 
L 471.772111 292.59 
L 471.89218 292.59 
L 472.012248 292.59 
L 472.132316 292.59 
L 472.252385 292.59 
L 472.372453 292.59 
L 472.492522 292.59 
L 472.61259 292.59 
L 472.732658 292.59 
L 472.852727 292.59 
L 472.972795 292.59 
L 473.092864 292.59 
L 473.212932 292.59 
L 473.333 292.59 
L 473.453069 292.59 
L 473.573137 292.59 
L 473.693206 292.59 
L 473.813274 292.59 
L 473.933342 292.59 
L 474.053411 292.59 
L 474.173479 292.59 
L 474.293547 292.59 
L 474.413616 292.59 
L 474.533684 292.59 
L 474.653753 292.59 
L 474.773821 292.59 
L 474.893889 292.59 
L 475.013958 292.59 
L 475.134026 292.59 
L 475.254095 292.59 
L 475.374163 292.59 
L 475.494231 292.59 
L 475.6143 292.59 
L 475.734368 292.59 
L 475.854437 292.59 
L 475.974505 292.59 
L 476.094573 292.59 
L 476.214642 292.59 
L 476.33471 292.59 
L 476.454779 292.59 
L 476.574847 292.59 
L 476.694915 292.59 
L 476.814984 292.59 
L 476.935052 292.59 
L 477.05512 292.59 
L 477.175189 292.59 
L 477.295257 292.59 
L 477.415326 292.59 
L 477.535394 292.59 
L 477.655462 292.59 
L 477.775531 292.59 
L 477.895599 292.59 
L 478.015668 292.59 
L 478.135736 292.59 
L 478.255804 292.59 
L 478.375873 292.59 
L 478.495941 292.59 
L 478.61601 292.59 
L 478.736078 292.59 
L 478.856146 292.59 
L 478.976215 292.59 
L 479.096283 292.59 
L 479.216352 292.59 
L 479.33642 292.59 
L 479.456488 292.59 
L 479.576557 292.59 
L 479.696625 292.59 
L 479.816693 292.59 
L 479.936762 292.59 
L 480.05683 292.59 
L 480.176899 292.59 
L 480.296967 292.59 
L 480.417035 292.59 
L 480.537104 292.59 
L 480.657172 292.59 
L 480.777241 292.59 
L 480.897309 292.59 
L 481.017377 292.59 
L 481.137446 292.59 
L 481.137446 20.790074 
L 481.137446 20.790074 
L 481.017377 20.790219 
L 480.897309 20.79058 
L 480.777241 20.791386 
L 480.657172 20.792996 
L 480.537104 20.795888 
L 480.417035 20.800613 
L 480.296967 20.807739 
L 480.176899 20.817859 
L 480.05683 20.831692 
L 479.936762 20.850193 
L 479.816693 20.874508 
L 479.696625 20.905715 
L 479.576557 20.944526 
L 479.456488 20.991283 
L 479.33642 21.046463 
L 479.216352 21.111527 
L 479.096283 21.189674 
L 478.976215 21.286076 
L 478.856146 21.407493 
L 478.736078 21.561423 
L 478.61601 21.755091 
L 478.495941 21.994567 
L 478.375873 22.284403 
L 478.255804 22.628095 
L 478.135736 23.029386 
L 478.015668 23.493786 
L 477.895599 24.029385 
L 477.775531 24.64633 
L 477.655462 25.355231 
L 477.535394 26.165445 
L 477.415326 27.084261 
L 477.295257 28.11733 
L 477.175189 29.269969 
L 477.05512 30.548535 
L 476.935052 31.961308 
L 476.814984 33.519111 
L 476.694915 35.236408 
L 476.574847 37.133074 
L 476.454779 39.23573 
L 476.33471 41.576862 
L 476.214642 44.191077 
L 476.094573 47.10998 
L 475.974505 50.358136 
L 475.854437 53.951387 
L 475.734368 57.896459 
L 475.6143 62.189878 
L 475.494231 66.815835 
L 475.374163 71.745384 
L 475.254095 76.940108 
L 475.134026 82.360985 
L 475.013958 87.979057 
L 474.893889 93.782236 
L 474.773821 99.773984 
L 474.653753 105.964029 
L 474.533684 112.355822 
L 474.413616 118.937334 
L 474.293547 125.679955 
L 474.173479 132.545654 
L 474.053411 139.497952 
L 473.933342 146.510274 
L 473.813274 153.567072 
L 473.693206 160.657381 
L 473.573137 167.764688 
L 473.453069 174.858728 
L 473.333 181.893302 
L 473.212932 188.810912 
L 473.092864 195.552042 
L 472.972795 202.065839 
L 472.852727 208.319365 
L 472.732658 214.302931 
L 472.61259 220.029057 
L 472.492522 225.523675 
L 472.372453 230.811689 
L 472.252385 235.903366 
L 472.132316 240.789099 
L 472.012248 245.445494 
L 471.89218 249.848218 
L 471.772111 253.982763 
L 471.652043 257.847002 
L 471.531974 261.446515 
L 471.411906 264.788593 
L 471.291838 267.879862 
L 471.171769 270.727553 
L 471.051701 273.340978 
L 470.931633 275.73058 
L 470.811564 277.905197 
L 470.691496 279.870214 
L 470.571427 281.628429 
L 470.451359 283.183129 
L 470.331291 284.541323 
L 470.211222 285.715249 
L 470.091154 286.721582 
L 469.971085 287.579169 
L 469.851017 288.306807 
L 469.730949 288.922231 
L 469.61088 289.44244 
L 469.490812 289.884442 
L 469.370743 290.265164 
L 469.250675 290.599966 
L 469.130607 290.900389 
L 469.010538 291.172515 
L 468.89047 291.417145 
L 468.770401 291.631913 
L 468.650333 291.814276 
L 468.530265 291.963904 
L 468.410196 292.083422 
L 468.290128 292.177549 
L 468.17006 292.251514 
L 468.049991 292.309842 
L 467.929923 292.356027 
L 467.809854 292.392895 
L 467.689786 292.423019 
L 467.569718 292.448751 
L 467.449649 292.471911 
L 467.329581 292.493487 
L 467.209512 292.513637 
L 467.089444 292.531986 
L 466.969376 292.547996 
L 466.849307 292.561239 
L 466.729239 292.571534 
L 466.60917 292.578986 
L 466.489102 292.583957 
L 466.369034 292.586985 
L 466.248965 292.588655 
L 466.128897 292.589484 
L 466.008828 292.589853 
L 465.88876 292.59 
z
" style="fill:#ff7f00;fill-opacity:0.25;"/>
   </g>
   <g id="PolyCollection_3">
    <path clip-path="url(#p1b673c62c6)" d="M 286.019567 292.59 
L 286.019567 292.59 
L 286.141355 292.59 
L 286.263143 292.59 
L 286.384931 292.59 
L 286.506719 292.59 
L 286.628507 292.59 
L 286.750295 292.59 
L 286.872083 292.59 
L 286.993871 292.59 
L 287.115659 292.59 
L 287.237447 292.59 
L 287.359236 292.59 
L 287.481024 292.59 
L 287.602812 292.59 
L 287.7246 292.59 
L 287.846388 292.59 
L 287.968176 292.59 
L 288.089964 292.59 
L 288.211752 292.59 
L 288.33354 292.59 
L 288.455328 292.59 
L 288.577116 292.59 
L 288.698904 292.59 
L 288.820693 292.59 
L 288.942481 292.59 
L 289.064269 292.59 
L 289.186057 292.59 
L 289.307845 292.59 
L 289.429633 292.59 
L 289.551421 292.59 
L 289.673209 292.59 
L 289.794997 292.59 
L 289.916785 292.59 
L 290.038573 292.59 
L 290.160361 292.59 
L 290.28215 292.59 
L 290.403938 292.59 
L 290.525726 292.59 
L 290.647514 292.59 
L 290.769302 292.59 
L 290.89109 292.59 
L 291.012878 292.59 
L 291.134666 292.59 
L 291.256454 292.59 
L 291.378242 292.59 
L 291.50003 292.59 
L 291.621818 292.59 
L 291.743607 292.59 
L 291.865395 292.59 
L 291.987183 292.59 
L 292.108971 292.59 
L 292.230759 292.59 
L 292.352547 292.59 
L 292.474335 292.59 
L 292.596123 292.59 
L 292.717911 292.59 
L 292.839699 292.59 
L 292.961487 292.59 
L 293.083275 292.59 
L 293.205064 292.59 
L 293.326852 292.59 
L 293.44864 292.59 
L 293.570428 292.59 
L 293.692216 292.59 
L 293.814004 292.59 
L 293.935792 292.59 
L 294.05758 292.59 
L 294.179368 292.59 
L 294.301156 292.59 
L 294.422944 292.59 
L 294.544732 292.59 
L 294.666521 292.59 
L 294.788309 292.59 
L 294.910097 292.59 
L 295.031885 292.59 
L 295.153673 292.59 
L 295.275461 292.59 
L 295.397249 292.59 
L 295.519037 292.59 
L 295.640825 292.59 
L 295.762613 292.59 
L 295.884401 292.59 
L 296.006189 292.59 
L 296.127978 292.59 
L 296.249766 292.59 
L 296.371554 292.59 
L 296.493342 292.59 
L 296.61513 292.59 
L 296.736918 292.59 
L 296.858706 292.59 
L 296.980494 292.59 
L 297.102282 292.59 
L 297.22407 292.59 
L 297.345858 292.59 
L 297.467646 292.59 
L 297.589435 292.59 
L 297.711223 292.59 
L 297.833011 292.59 
L 297.954799 292.59 
L 298.076587 292.59 
L 298.198375 292.59 
L 298.320163 292.59 
L 298.441951 292.59 
L 298.563739 292.59 
L 298.685527 292.59 
L 298.807315 292.59 
L 298.929103 292.59 
L 299.050892 292.59 
L 299.17268 292.59 
L 299.294468 292.59 
L 299.416256 292.59 
L 299.538044 292.59 
L 299.659832 292.59 
L 299.78162 292.59 
L 299.903408 292.59 
L 300.025196 292.59 
L 300.146984 292.59 
L 300.268772 292.59 
L 300.39056 292.59 
L 300.512349 292.59 
L 300.634137 292.59 
L 300.755925 292.59 
L 300.877713 292.59 
L 300.999501 292.59 
L 301.121289 292.59 
L 301.243077 292.59 
L 301.364865 292.59 
L 301.486653 292.59 
L 301.486653 20.790087 
L 301.486653 20.790087 
L 301.364865 20.790242 
L 301.243077 20.790644 
L 301.121289 20.791554 
L 300.999501 20.793365 
L 300.877713 20.796524 
L 300.755925 20.801361 
L 300.634137 20.807869 
L 300.512349 20.815595 
L 300.39056 20.823768 
L 300.268772 20.831651 
L 300.146984 20.838944 
L 300.025196 20.845962 
L 299.903408 20.853506 
L 299.78162 20.862526 
L 299.659832 20.873818 
L 299.538044 20.887945 
L 299.416256 20.905375 
L 299.294468 20.92672 
L 299.17268 20.952957 
L 299.050892 20.985605 
L 298.929103 21.026824 
L 298.807315 21.079305 
L 298.685527 21.145888 
L 298.563739 21.229059 
L 298.441951 21.330737 
L 298.320163 21.452612 
L 298.198375 21.596893 
L 298.076587 21.76704 
L 297.954799 21.968236 
L 297.833011 22.20775 
L 297.711223 22.495344 
L 297.589435 22.843553 
L 297.467646 23.26736 
L 297.345858 23.783003 
L 297.22407 24.406134 
L 297.102282 25.149827 
L 296.980494 26.022972 
L 296.858706 27.029514 
L 296.736918 28.168895 
L 296.61513 29.437939 
L 296.493342 30.834175 
L 296.371554 32.360345 
L 296.249766 34.029155 
L 296.127978 35.866554 
L 296.006189 37.911518 
L 295.884401 40.21134 
L 295.762613 42.813535 
L 295.640825 45.757428 
L 295.519037 49.068868 
L 295.397249 52.759845 
L 295.275461 56.831881 
L 295.153673 61.27967 
L 295.031885 66.091466 
L 294.910097 71.24619 
L 294.788309 76.711547 
L 294.666521 82.448279 
L 294.544732 88.420606 
L 294.422944 94.606388 
L 294.301156 100.999309 
L 294.179368 107.60152 
L 294.05758 114.412597 
L 293.935792 121.422455 
L 293.814004 128.611065 
L 293.692216 135.951749 
L 293.570428 143.412856 
L 293.44864 150.955926 
L 293.326852 158.533423 
L 293.205064 166.090736 
L 293.083275 173.573535 
L 292.961487 180.936226 
L 292.839699 188.145681 
L 292.717911 195.178336 
L 292.596123 202.014076 
L 292.474335 208.632365 
L 292.352547 215.013532 
L 292.230759 221.143658 
L 292.108971 227.018337 
L 291.987183 232.64094 
L 291.865395 238.015164 
L 291.743607 243.13644 
L 291.621818 247.988178 
L 291.50003 252.545305 
L 291.378242 256.782415 
L 291.256454 260.681315 
L 291.134666 264.234442 
L 291.012878 267.4444 
L 290.89109 270.322386 
L 290.769302 272.887702 
L 290.647514 275.167944 
L 290.525726 277.197566 
L 290.403938 279.013199 
L 290.28215 280.646911 
L 290.160361 282.121041 
L 290.038573 283.447917 
L 289.916785 284.634466 
L 289.794997 285.688053 
L 289.673209 286.619301 
L 289.551421 287.44083 
L 289.429633 288.16455 
L 289.307845 288.800714 
L 289.186057 289.359075 
L 289.064269 289.849866 
L 288.942481 290.282776 
L 288.820693 290.664739 
L 288.698904 290.998942 
L 288.577116 291.286315 
L 288.455328 291.528372 
L 288.33354 291.729133 
L 288.211752 291.894859 
L 288.089964 292.032188 
L 287.968176 292.146333 
L 287.846388 292.240576 
L 287.7246 292.317062 
L 287.602812 292.377961 
L 287.481024 292.426051 
L 287.359236 292.46444 
L 287.237447 292.495823 
L 287.115659 292.521897 
L 286.993871 292.543315 
L 286.872083 292.560133 
L 286.750295 292.572404 
L 286.628507 292.580563 
L 286.506719 292.585443 
L 286.384931 292.58805 
L 286.263143 292.589287 
L 286.141355 292.589807 
L 286.019567 292.59 
z
" style="fill:#1f78b4;fill-opacity:0.25;"/>
   </g>
   <g id="PolyCollection_4">
    <path clip-path="url(#p1b673c62c6)" d="M 311.238845 292.58992 
L 311.238845 292.59 
L 311.400724 292.59 
L 311.562604 292.59 
L 311.724484 292.59 
L 311.886364 292.59 
L 312.048243 292.59 
L 312.210123 292.59 
L 312.372003 292.59 
L 312.533882 292.59 
L 312.695762 292.59 
L 312.857642 292.59 
L 313.019521 292.59 
L 313.181401 292.59 
L 313.343281 292.59 
L 313.50516 292.59 
L 313.66704 292.59 
L 313.82892 292.59 
L 313.990799 292.59 
L 314.152679 292.59 
L 314.314559 292.59 
L 314.476438 292.59 
L 314.638318 292.59 
L 314.800198 292.59 
L 314.962077 292.59 
L 315.123957 292.59 
L 315.285837 292.59 
L 315.447716 292.59 
L 315.609596 292.59 
L 315.771476 292.59 
L 315.933355 292.59 
L 316.095235 292.59 
L 316.257115 292.59 
L 316.418995 292.59 
L 316.580874 292.59 
L 316.742754 292.59 
L 316.904634 292.59 
L 317.066513 292.59 
L 317.228393 292.59 
L 317.390273 292.59 
L 317.552152 292.59 
L 317.714032 292.59 
L 317.875912 292.59 
L 318.037791 292.59 
L 318.199671 292.59 
L 318.361551 292.59 
L 318.52343 292.59 
L 318.68531 292.59 
L 318.84719 292.59 
L 319.009069 292.59 
L 319.170949 292.59 
L 319.332829 292.59 
L 319.494708 292.59 
L 319.656588 292.59 
L 319.818468 292.59 
L 319.980347 292.59 
L 320.142227 292.59 
L 320.304107 292.59 
L 320.465986 292.59 
L 320.627866 292.59 
L 320.789746 292.59 
L 320.951626 292.59 
L 321.113505 292.59 
L 321.275385 292.59 
L 321.437265 292.59 
L 321.599144 292.59 
L 321.761024 292.59 
L 321.922904 292.59 
L 322.084783 292.59 
L 322.246663 292.59 
L 322.408543 292.59 
L 322.570422 292.59 
L 322.732302 292.59 
L 322.894182 292.59 
L 323.056061 292.59 
L 323.217941 292.59 
L 323.379821 292.59 
L 323.5417 292.59 
L 323.70358 292.59 
L 323.86546 292.59 
L 324.027339 292.59 
L 324.189219 292.59 
L 324.351099 292.59 
L 324.512978 292.59 
L 324.674858 292.59 
L 324.836738 292.59 
L 324.998617 292.59 
L 325.160497 292.59 
L 325.322377 292.59 
L 325.484257 292.59 
L 325.646136 292.59 
L 325.808016 292.59 
L 325.969896 292.59 
L 326.131775 292.59 
L 326.293655 292.59 
L 326.455535 292.59 
L 326.617414 292.59 
L 326.779294 292.59 
L 326.941174 292.59 
L 327.103053 292.59 
L 327.264933 292.59 
L 327.426813 292.59 
L 327.588692 292.59 
L 327.750572 292.59 
L 327.912452 292.59 
L 328.074331 292.59 
L 328.236211 292.59 
L 328.398091 292.59 
L 328.55997 292.59 
L 328.72185 292.59 
L 328.88373 292.59 
L 329.045609 292.59 
L 329.207489 292.59 
L 329.369369 292.59 
L 329.531248 292.59 
L 329.693128 292.59 
L 329.855008 292.59 
L 330.016888 292.59 
L 330.178767 292.59 
L 330.340647 292.59 
L 330.502527 292.59 
L 330.664406 292.59 
L 330.826286 292.59 
L 330.988166 292.59 
L 331.150045 292.59 
L 331.311925 292.59 
L 331.473805 292.59 
L 331.635684 292.59 
L 331.797564 292.59 
L 331.797564 20.790044 
L 331.797564 20.790044 
L 331.635684 20.790276 
L 331.473805 20.790869 
L 331.311925 20.792225 
L 331.150045 20.795021 
L 330.988166 20.80023 
L 330.826286 20.809034 
L 330.664406 20.822614 
L 330.502527 20.841868 
L 330.340647 20.867203 
L 330.178767 20.898549 
L 330.016888 20.935689 
L 329.855008 20.978834 
L 329.693128 21.029244 
L 329.531248 21.089534 
L 329.369369 21.163357 
L 329.207489 21.254414 
L 329.045609 21.3652 
L 328.88373 21.496245 
L 328.72185 21.646533 
L 328.55997 21.815169 
L 328.398091 22.003626 
L 328.236211 22.217436 
L 328.074331 22.466473 
L 327.912452 22.763699 
L 327.750572 23.122977 
L 327.588692 23.55694 
L 327.426813 24.075746 
L 327.264933 24.687063 
L 327.103053 25.396947 
L 326.941174 26.210796 
L 326.779294 27.133791 
L 326.617414 28.170951 
L 326.455535 29.327472 
L 326.293655 30.60972 
L 326.131775 32.026374 
L 325.969896 33.588677 
L 325.808016 35.309251 
L 325.646136 37.200058 
L 325.484257 39.270955 
L 325.322377 41.53023 
L 325.160497 43.987322 
L 324.998617 46.656292 
L 324.836738 49.557484 
L 324.674858 52.715352 
L 324.512978 56.15279 
L 324.351099 59.885129 
L 324.189219 63.917657 
L 324.027339 68.247988 
L 323.86546 72.870668 
L 323.70358 77.779633 
L 323.5417 82.966377 
L 323.379821 88.415886 
L 323.217941 94.104742 
L 323.056061 100.004262 
L 322.894182 106.08745 
L 322.732302 112.335311 
L 322.570422 118.738325 
L 322.408543 125.29216 
L 322.246663 131.99065 
L 322.084783 138.820304 
L 321.922904 145.758517 
L 321.761024 152.774456 
L 321.599144 159.830366 
L 321.437265 166.882634 
L 321.275385 173.883986 
L 321.113505 180.788184 
L 320.951626 187.556302 
L 320.789746 194.16168 
L 320.627866 200.590912 
L 320.465986 206.840483 
L 320.304107 212.910944 
L 320.142227 218.801219 
L 319.980347 224.504882 
L 319.818468 230.008839 
L 319.656588 235.293926 
L 319.494708 240.336734 
L 319.332829 245.112399 
L 319.170949 249.598462 
L 319.009069 253.779481 
L 318.84719 257.651003 
L 318.68531 261.220863 
L 318.52343 264.506578 
L 318.361551 267.529787 
L 318.199671 270.310428 
L 318.037791 272.863332 
L 317.875912 275.198153 
L 317.714032 277.32148 
L 317.552152 279.239177 
L 317.390273 280.957804 
L 317.228393 282.485329 
L 317.066513 283.831928 
L 316.904634 285.011019 
L 316.742754 286.039596 
L 316.580874 286.936916 
L 316.418995 287.721713 
L 316.257115 288.409491 
L 316.095235 289.011571 
L 315.933355 289.53624 
L 315.771476 289.990831 
L 315.609596 290.383041 
L 315.447716 290.720756 
L 315.285837 291.010966 
L 315.123957 291.258994 
L 314.962077 291.468782 
L 314.800198 291.643994 
L 314.638318 291.789094 
L 314.476438 291.909646 
L 314.314559 292.011707 
L 314.152679 292.100706 
L 313.990799 292.180441 
L 313.82892 292.252675 
L 313.66704 292.317492 
L 313.50516 292.374196 
L 313.343281 292.422261 
L 313.181401 292.461899 
L 313.019521 292.494046 
L 312.857642 292.51993 
L 312.695762 292.540619 
L 312.533882 292.556825 
L 312.372003 292.569012 
L 312.210123 292.57763 
L 312.048243 292.583267 
L 311.886364 292.586639 
L 311.724484 292.588469 
L 311.562604 292.589367 
L 311.400724 292.589763 
L 311.238845 292.58992 
z
" style="fill:#0000ff;fill-opacity:0.25;"/>
   </g>
   <g id="PolyCollection_5">
    <path clip-path="url(#p1b673c62c6)" d="M 243.078412 292.589927 
L 243.078412 292.59 
L 243.292448 292.59 
L 243.506484 292.59 
L 243.72052 292.59 
L 243.934557 292.59 
L 244.148593 292.59 
L 244.362629 292.59 
L 244.576665 292.59 
L 244.790701 292.59 
L 245.004737 292.59 
L 245.218773 292.59 
L 245.432809 292.59 
L 245.646845 292.59 
L 245.860882 292.59 
L 246.074918 292.59 
L 246.288954 292.59 
L 246.50299 292.59 
L 246.717026 292.59 
L 246.931062 292.59 
L 247.145098 292.59 
L 247.359134 292.59 
L 247.573171 292.59 
L 247.787207 292.59 
L 248.001243 292.59 
L 248.215279 292.59 
L 248.429315 292.59 
L 248.643351 292.59 
L 248.857387 292.59 
L 249.071423 292.59 
L 249.285459 292.59 
L 249.499496 292.59 
L 249.713532 292.59 
L 249.927568 292.59 
L 250.141604 292.59 
L 250.35564 292.59 
L 250.569676 292.59 
L 250.783712 292.59 
L 250.997748 292.59 
L 251.211784 292.59 
L 251.425821 292.59 
L 251.639857 292.59 
L 251.853893 292.59 
L 252.067929 292.59 
L 252.281965 292.59 
L 252.496001 292.59 
L 252.710037 292.59 
L 252.924073 292.59 
L 253.13811 292.59 
L 253.352146 292.59 
L 253.566182 292.59 
L 253.780218 292.59 
L 253.994254 292.59 
L 254.20829 292.59 
L 254.422326 292.59 
L 254.636362 292.59 
L 254.850398 292.59 
L 255.064435 292.59 
L 255.278471 292.59 
L 255.492507 292.59 
L 255.706543 292.59 
L 255.920579 292.59 
L 256.134615 292.59 
L 256.348651 292.59 
L 256.562687 292.59 
L 256.776723 292.59 
L 256.99076 292.59 
L 257.204796 292.59 
L 257.418832 292.59 
L 257.632868 292.59 
L 257.846904 292.59 
L 258.06094 292.59 
L 258.274976 292.59 
L 258.489012 292.59 
L 258.703048 292.59 
L 258.917085 292.59 
L 259.131121 292.59 
L 259.345157 292.59 
L 259.559193 292.59 
L 259.773229 292.59 
L 259.987265 292.59 
L 260.201301 292.59 
L 260.415337 292.59 
L 260.629374 292.59 
L 260.84341 292.59 
L 261.057446 292.59 
L 261.271482 292.59 
L 261.485518 292.59 
L 261.699554 292.59 
L 261.91359 292.59 
L 262.127626 292.59 
L 262.341662 292.59 
L 262.555699 292.59 
L 262.769735 292.59 
L 262.983771 292.59 
L 263.197807 292.59 
L 263.411843 292.59 
L 263.625879 292.59 
L 263.839915 292.59 
L 264.053951 292.59 
L 264.267987 292.59 
L 264.482024 292.59 
L 264.69606 292.59 
L 264.910096 292.59 
L 265.124132 292.59 
L 265.338168 292.59 
L 265.552204 292.59 
L 265.76624 292.59 
L 265.980276 292.59 
L 266.194313 292.59 
L 266.408349 292.59 
L 266.622385 292.59 
L 266.836421 292.59 
L 267.050457 292.59 
L 267.264493 292.59 
L 267.478529 292.59 
L 267.692565 292.59 
L 267.906601 292.59 
L 268.120638 292.59 
L 268.334674 292.59 
L 268.54871 292.59 
L 268.762746 292.59 
L 268.976782 292.59 
L 269.190818 292.59 
L 269.404854 292.59 
L 269.61889 292.59 
L 269.832926 292.59 
L 270.046963 292.59 
L 270.260999 292.59 
L 270.260999 20.79 
L 270.260999 20.79 
L 270.046963 20.790147 
L 269.832926 20.790517 
L 269.61889 20.791343 
L 269.404854 20.792973 
L 269.190818 20.795832 
L 268.976782 20.800305 
L 268.762746 20.80662 
L 268.54871 20.814852 
L 268.334674 20.825211 
L 268.120638 20.838586 
L 267.906601 20.857145 
L 267.692565 20.884574 
L 267.478529 20.92564 
L 267.264493 20.985109 
L 267.050457 21.066524 
L 266.836421 21.171614 
L 266.622385 21.300839 
L 266.408349 21.454997 
L 266.194313 21.63716 
L 265.980276 21.854157 
L 265.76624 22.117165 
L 265.552204 22.441515 
L 265.338168 22.846025 
L 265.124132 23.352191 
L 264.910096 23.983443 
L 264.69606 24.764394 
L 264.482024 25.719457 
L 264.267987 26.870085 
L 264.053951 28.231022 
L 263.839915 29.807865 
L 263.625879 31.599014 
L 263.411843 33.602877 
L 263.197807 35.827157 
L 262.983771 38.294343 
L 262.769735 41.039012 
L 262.555699 44.097249 
L 262.341662 47.493268 
L 262.127626 51.229985 
L 261.91359 55.288299 
L 261.699554 59.635415 
L 261.485518 64.238171 
L 261.271482 69.075175 
L 261.057446 74.142779 
L 260.84341 79.453284 
L 260.629374 85.027177 
L 260.415337 90.882922 
L 260.201301 97.028025 
L 259.987265 103.453966 
L 259.773229 110.135727 
L 259.559193 117.034763 
L 259.345157 124.103568 
L 259.131121 131.290401 
L 258.917085 138.543428 
L 258.703048 145.81381 
L 258.489012 153.057392 
L 258.274976 160.235194 
L 258.06094 167.313501 
L 257.846904 174.264685 
L 257.632868 181.069459 
L 257.418832 187.719919 
L 257.204796 194.220896 
L 256.99076 200.586658 
L 256.776723 206.832138 
L 256.562687 212.961448 
L 256.348651 218.958691 
L 256.134615 224.785365 
L 255.920579 230.385966 
L 255.706543 235.700455 
L 255.492507 240.679606 
L 255.278471 245.297364 
L 255.064435 249.554766 
L 254.850398 253.473705 
L 254.636362 257.084458 
L 254.422326 260.414156 
L 254.20829 263.481668 
L 253.994254 266.299261 
L 253.780218 268.877301 
L 253.566182 271.227997 
L 253.352146 273.366659 
L 253.13811 275.311083 
L 252.924073 277.079939 
L 252.710037 278.690585 
L 252.496001 280.156917 
L 252.281965 281.488387 
L 252.067929 282.690991 
L 251.853893 283.769804 
L 251.639857 284.731612 
L 251.425821 285.586398 
L 251.211784 286.347215 
L 250.997748 287.028699 
L 250.783712 287.644865 
L 250.569676 288.207165 
L 250.35564 288.723666 
L 250.141604 289.199524 
L 249.927568 289.63796 
L 249.713532 290.040872 
L 249.499496 290.408947 
L 249.285459 290.741881 
L 249.071423 291.039083 
L 248.857387 291.30055 
L 248.643351 291.527227 
L 248.429315 291.720695 
L 248.215279 291.882688 
L 248.001243 292.015108 
L 247.787207 292.120587 
L 247.573171 292.20302 
L 247.359134 292.267452 
L 247.145098 292.319209 
L 246.931062 292.362774 
L 246.717026 292.400998 
L 246.50299 292.434995 
L 246.288954 292.464658 
L 246.074918 292.489495 
L 245.860882 292.509388 
L 245.646845 292.524948 
L 245.432809 292.537361 
L 245.218773 292.547894 
L 245.004737 292.557392 
L 244.790701 292.566064 
L 244.576665 292.573638 
L 244.362629 292.579721 
L 244.148593 292.584122 
L 243.934557 292.58696 
L 243.72052 292.588585 
L 243.506484 292.58941 
L 243.292448 292.58978 
L 243.078412 292.589927 
z
" style="fill-opacity:0.25;"/>
   </g>
   <g id="PolyCollection_6">
    <path clip-path="url(#p1b673c62c6)" d="M 75.319264 292.589927 
L 75.319264 292.59 
L 75.893964 292.59 
L 76.468665 292.59 
L 77.043365 292.59 
L 77.618066 292.59 
L 78.192766 292.59 
L 78.767466 292.59 
L 79.342167 292.59 
L 79.916867 292.59 
L 80.491567 292.59 
L 81.066268 292.59 
L 81.640968 292.59 
L 82.215669 292.59 
L 82.790369 292.59 
L 83.365069 292.59 
L 83.93977 292.59 
L 84.51447 292.59 
L 85.089171 292.59 
L 85.663871 292.59 
L 86.238571 292.59 
L 86.813272 292.59 
L 87.387972 292.59 
L 87.962673 292.59 
L 88.537373 292.59 
L 89.112073 292.59 
L 89.686774 292.59 
L 90.261474 292.59 
L 90.836175 292.59 
L 91.410875 292.59 
L 91.985575 292.59 
L 92.560276 292.59 
L 93.134976 292.59 
L 93.709676 292.59 
L 94.284377 292.59 
L 94.859077 292.59 
L 95.433778 292.59 
L 96.008478 292.59 
L 96.583178 292.59 
L 97.157879 292.59 
L 97.732579 292.59 
L 98.30728 292.59 
L 98.88198 292.59 
L 99.45668 292.59 
L 100.031381 292.59 
L 100.606081 292.59 
L 101.180782 292.59 
L 101.755482 292.59 
L 102.330182 292.59 
L 102.904883 292.59 
L 103.479583 292.59 
L 104.054283 292.59 
L 104.628984 292.59 
L 105.203684 292.59 
L 105.778385 292.59 
L 106.353085 292.59 
L 106.927785 292.59 
L 107.502486 292.59 
L 108.077186 292.59 
L 108.651887 292.59 
L 109.226587 292.59 
L 109.801287 292.59 
L 110.375988 292.59 
L 110.950688 292.59 
L 111.525389 292.59 
L 112.100089 292.59 
L 112.674789 292.59 
L 113.24949 292.59 
L 113.82419 292.59 
L 114.398891 292.59 
L 114.973591 292.59 
L 115.548291 292.59 
L 116.122992 292.59 
L 116.697692 292.59 
L 117.272392 292.59 
L 117.847093 292.59 
L 118.421793 292.59 
L 118.996494 292.59 
L 119.571194 292.59 
L 120.145894 292.59 
L 120.720595 292.59 
L 121.295295 292.59 
L 121.869996 292.59 
L 122.444696 292.59 
L 123.019396 292.59 
L 123.594097 292.59 
L 124.168797 292.59 
L 124.743498 292.59 
L 125.318198 292.59 
L 125.892898 292.59 
L 126.467599 292.59 
L 127.042299 292.59 
L 127.617 292.59 
L 128.1917 292.59 
L 128.7664 292.59 
L 129.341101 292.59 
L 129.915801 292.59 
L 130.490501 292.59 
L 131.065202 292.59 
L 131.639902 292.59 
L 132.214603 292.59 
L 132.789303 292.59 
L 133.364003 292.59 
L 133.938704 292.59 
L 134.513404 292.59 
L 135.088105 292.59 
L 135.662805 292.59 
L 136.237505 292.59 
L 136.812206 292.59 
L 137.386906 292.59 
L 137.961607 292.59 
L 138.536307 292.59 
L 139.111007 292.59 
L 139.685708 292.59 
L 140.260408 292.59 
L 140.835109 292.59 
L 141.409809 292.59 
L 141.984509 292.59 
L 142.55921 292.59 
L 143.13391 292.59 
L 143.70861 292.59 
L 144.283311 292.59 
L 144.858011 292.59 
L 145.432712 292.59 
L 146.007412 292.59 
L 146.582112 292.59 
L 147.156813 292.59 
L 147.731513 292.59 
L 148.306214 292.59 
L 148.306214 20.79 
L 148.306214 20.79 
L 147.731513 20.790187 
L 147.156813 20.790719 
L 146.582112 20.792004 
L 146.007412 20.794632 
L 145.432712 20.79919 
L 144.858011 20.805903 
L 144.283311 20.814321 
L 143.70861 20.823398 
L 143.13391 20.832061 
L 142.55921 20.839956 
L 141.984509 20.84788 
L 141.409809 20.857648 
L 140.835109 20.87161 
L 140.260408 20.89222 
L 139.685708 20.921896 
L 139.111007 20.963154 
L 138.536307 21.018966 
L 137.961607 21.093489 
L 137.386906 21.193134 
L 136.812206 21.327294 
L 136.237505 21.507498 
L 135.662805 21.744724 
L 135.088105 22.046671 
L 134.513404 22.417707 
L 133.938704 22.861952 
L 133.364003 23.386694 
L 132.789303 24.002959 
L 132.214603 24.723295 
L 131.639902 25.559739 
L 131.065202 26.524483 
L 130.490501 27.632901 
L 129.915801 28.906818 
L 129.341101 30.376009 
L 128.7664 32.076556 
L 128.1917 34.045287 
L 127.617 36.311363 
L 127.042299 38.889099 
L 126.467599 41.777147 
L 125.892898 44.965414 
L 125.318198 48.444572 
L 124.743498 52.210838 
L 124.168797 56.264832 
L 123.594097 60.611653 
L 123.019396 65.268233 
L 122.444696 70.27234 
L 121.869996 75.679876 
L 121.295295 81.545571 
L 120.720595 87.89854 
L 120.145894 94.729105 
L 119.571194 101.992376 
L 118.996494 109.621304 
L 118.421793 117.539642 
L 117.847093 125.670833 
L 117.272392 133.943838 
L 116.697692 142.297787 
L 116.122992 150.685621 
L 115.548291 159.0743 
L 114.973591 167.437995 
L 114.398891 175.744367 
L 113.82419 183.94188 
L 113.24949 191.960051 
L 112.674789 199.726358 
L 112.100089 207.188281 
L 111.525389 214.322682 
L 110.950688 221.125428 
L 110.375988 227.591401 
L 109.801287 233.701959 
L 109.226587 239.428668 
L 108.651887 244.748477 
L 108.077186 249.658299 
L 107.502486 254.179198 
L 106.927785 258.347778 
L 106.353085 262.200321 
L 105.778385 265.759874 
L 105.203684 269.034146 
L 104.628984 272.023229 
L 104.054283 274.728817 
L 103.479583 277.157717 
L 102.904883 279.319396 
L 102.330182 281.222396 
L 101.755482 282.87402 
L 101.180782 284.283911 
L 100.606081 285.468677 
L 100.031381 286.45393 
L 99.45668 287.272125 
L 98.88198 287.957497 
L 98.30728 288.54076 
L 97.732579 289.045639 
L 97.157879 289.488066 
L 96.583178 289.877803 
L 96.008478 290.221273 
L 95.433778 290.523886 
L 94.859077 290.790866 
L 94.284377 291.027051 
L 93.709676 291.236549 
L 93.134976 291.422404 
L 92.560276 291.586047 
L 91.985575 291.727055 
L 91.410875 291.844199 
L 90.836175 291.937695 
L 90.261474 292.011005 
L 89.686774 292.070472 
L 89.112073 292.122935 
L 88.537373 292.173069 
L 87.962673 292.222192 
L 87.387972 292.268968 
L 86.813272 292.31126 
L 86.238571 292.3479 
L 85.663871 292.379347 
L 85.089171 292.407014 
L 84.51447 292.432097 
L 83.93977 292.454972 
L 83.365069 292.475449 
L 82.790369 292.493318 
L 82.215669 292.508639 
L 81.640968 292.521788 
L 81.066268 292.533422 
L 80.491567 292.544298 
L 79.916867 292.554869 
L 79.342167 292.564947 
L 78.767466 292.573801 
L 78.192766 292.580672 
L 77.618066 292.585279 
L 77.043365 292.587919 
L 76.468665 292.589207 
L 75.893964 292.589739 
L 75.319264 292.589927 
z
" style="fill:#e31a1c;fill-opacity:0.25;"/>
   </g>
   <g id="line2d_13">
    <path clip-path="url(#p1b673c62c6)" d="M 306.274054 292.589927 
L 309.873374 292.484398 
L 310.998162 292.267531 
L 311.673034 291.852636 
L 312.122949 291.348428 
L 312.797822 290.145583 
L 313.247737 288.928525 
L 313.697652 287.224676 
L 314.372525 283.50823 
L 315.047397 278.240445 
L 315.72227 271.070436 
L 316.397142 261.190175 
L 317.296973 243.175192 
L 318.42176 215.02553 
L 319.996463 169.491628 
L 322.246038 101.155639 
L 323.370826 74.344476 
L 324.270656 57.569879 
L 325.170486 44.759001 
L 326.070316 35.587738 
L 326.745189 30.695513 
L 327.420061 27.21311 
L 328.094934 24.867587 
L 328.769806 23.364181 
L 329.444679 22.33316 
L 330.119552 21.627272 
L 330.794424 21.227753 
L 331.694254 20.97234 
L 333.043999 20.818387 
L 334.84366 20.790001 
L 334.84366 20.790001 
" style="fill:none;stroke:#33a02c;stroke-linecap:round;stroke-width:2;"/>
   </g>
   <g id="line2d_14">
    <path clip-path="url(#p1b673c62c6)" d="M 465.88876 292.59 
L 467.329581 292.493487 
L 468.17006 292.251514 
L 468.530265 291.963904 
L 468.89047 291.417145 
L 469.370743 290.265164 
L 469.730949 288.922231 
L 470.091154 286.721582 
L 470.451359 283.183129 
L 470.931633 275.73058 
L 471.411906 264.788593 
L 472.012248 245.445494 
L 472.732658 214.302931 
L 473.573137 167.764688 
L 475.013958 87.979057 
L 475.734368 57.896459 
L 476.33471 41.576862 
L 476.935052 31.961308 
L 477.535394 26.165445 
L 478.015668 23.493786 
L 478.495941 21.994567 
L 478.856146 21.407493 
L 479.33642 21.046463 
L 480.05683 20.831692 
L 481.137446 20.790074 
L 481.137446 20.790074 
" style="fill:none;stroke:#ff7f00;stroke-linecap:round;stroke-width:2;"/>
   </g>
   <g id="line2d_15">
    <path clip-path="url(#p1b673c62c6)" d="M 286.019567 292.59 
L 287.237447 292.495823 
L 287.846388 292.240576 
L 288.33354 291.729133 
L 288.698904 290.998942 
L 289.186057 289.359075 
L 289.673209 286.619301 
L 290.160361 282.121041 
L 290.647514 275.167944 
L 291.134666 264.234442 
L 291.621818 247.988178 
L 292.352547 215.013532 
L 293.326852 158.533423 
L 294.544732 88.420606 
L 295.275461 56.831881 
L 295.762613 42.813535 
L 296.249766 34.029155 
L 296.858706 27.029514 
L 297.345858 23.783003 
L 297.711223 22.495344 
L 298.198375 21.596893 
L 298.685527 21.145888 
L 299.294468 20.92672 
L 300.512349 20.815595 
L 301.486653 20.790087 
L 301.486653 20.790087 
" style="fill:none;stroke:#1f78b4;stroke-linecap:round;stroke-width:2;"/>
   </g>
   <g id="line2d_16">
    <path clip-path="url(#p1b673c62c6)" d="M 311.238845 292.58992 
L 313.019521 292.494046 
L 313.82892 292.252675 
L 314.638318 291.789094 
L 315.123957 291.258994 
L 315.609596 290.383041 
L 316.095235 289.011571 
L 316.580874 286.936916 
L 317.066513 283.831928 
L 317.552152 279.239177 
L 318.199671 270.310428 
L 318.84719 257.651003 
L 319.494708 240.336734 
L 320.465986 206.840483 
L 321.761024 152.774456 
L 323.217941 94.104742 
L 324.027339 68.247988 
L 324.836738 49.557484 
L 325.484257 39.270955 
L 326.131775 32.026374 
L 326.779294 27.133791 
L 327.426813 24.075746 
L 327.912452 22.763699 
L 328.398091 22.003626 
L 329.045609 21.3652 
L 329.693128 21.029244 
L 330.664406 20.822614 
L 331.797564 20.790044 
L 331.797564 20.790044 
" style="fill:none;stroke:#0000ff;stroke-linecap:round;stroke-width:2;"/>
   </g>
   <g id="line2d_17">
    <path clip-path="url(#p1b673c62c6)" d="M 243.078412 292.589927 
L 246.074918 292.489495 
L 247.359134 292.267452 
L 248.001243 292.015108 
L 248.643351 291.527227 
L 249.285459 290.741881 
L 249.927568 289.63796 
L 250.783712 287.644865 
L 251.425821 285.586398 
L 252.067929 282.690991 
L 252.710037 278.690585 
L 253.352146 273.366659 
L 253.994254 266.299261 
L 254.636362 257.084458 
L 255.278471 245.297364 
L 256.134615 224.785365 
L 257.632868 181.069459 
L 261.057446 74.142779 
L 262.127626 51.229985 
L 262.769735 41.039012 
L 263.411843 33.602877 
L 264.053951 28.231022 
L 264.69606 24.764394 
L 265.124132 23.352191 
L 265.76624 22.117165 
L 266.408349 21.454997 
L 267.050457 21.066524 
L 267.906601 20.857145 
L 269.832926 20.790517 
L 270.260999 20.79 
L 270.260999 20.79 
" style="fill:none;stroke:#000000;stroke-linecap:round;stroke-width:2;"/>
   </g>
   <g id="line2d_18">
    <path clip-path="url(#p1b673c62c6)" d="M 75.319264 292.589927 
L 82.790369 292.493318 
L 87.962673 292.222192 
L 91.410875 291.844199 
L 93.134976 291.422404 
L 94.859077 290.790866 
L 96.583178 289.877803 
L 97.732579 289.045639 
L 98.88198 287.957497 
L 100.031381 286.45393 
L 101.180782 284.283911 
L 102.330182 281.222396 
L 103.479583 277.157717 
L 104.628984 272.023229 
L 105.778385 265.759874 
L 106.927785 258.347778 
L 108.077186 249.658299 
L 109.226587 239.428668 
L 110.375988 227.591401 
L 112.100089 207.188281 
L 113.82419 183.94188 
L 120.145894 94.729105 
L 121.295295 81.545571 
L 122.444696 70.27234 
L 123.594097 60.611653 
L 124.743498 52.210838 
L 125.892898 44.965414 
L 127.042299 38.889099 
L 128.1917 34.045287 
L 129.341101 30.376009 
L 130.490501 27.632901 
L 131.639902 25.559739 
L 132.789303 24.002959 
L 133.938704 22.861952 
L 135.088105 22.046671 
L 136.237505 21.507498 
L 137.386906 21.193134 
L 139.111007 20.963154 
L 141.984509 20.84788 
L 148.306214 20.79 
L 148.306214 20.79 
" style="fill:none;stroke:#e31a1c;stroke-linecap:round;stroke-width:2;"/>
   </g>
   <g id="line2d_19">
    <path clip-path="url(#p1b673c62c6)" d="M 320.456803 306.18 
L 320.456803 7.2 
" style="fill:none;stroke:#33a02c;stroke-dasharray:8.4,3.6;stroke-dashoffset:0;stroke-width:3;"/>
   </g>
   <g id="patch_3">
    <path d="M 55.028355 306.18 
L 55.028355 7.2 
" style="fill:none;"/>
   </g>
   <g id="patch_4">
    <path d="M 501.428355 306.18 
L 501.428355 7.2 
" style="fill:none;"/>
   </g>
   <g id="patch_5">
    <path d="M 55.028355 306.18 
L 501.428355 306.18 
" style="fill:none;"/>
   </g>
   <g id="patch_6">
    <path d="M 55.028355 7.2 
L 501.428355 7.2 
" style="fill:none;"/>
   </g>
   <g id="legend_1">
    <g id="line2d_20">
     <path d="M 67.628355 107.716167 
L 95.628355 107.716167 
" style="fill:none;stroke:#33a02c;stroke-linecap:round;stroke-width:2;"/>
    </g>
    <g id="line2d_21"/>
    <g id="text_15">
     <!-- actual -->
     <g style="fill:#262626;" transform="translate(106.828355 112.616167)scale(0.14 -0.14)">
      <use transform="scale(0.996264)" xlink:href="#Computer_Modern_Bright-97"/>
      <use transform="translate(46.492082 0)scale(0.996264)" xlink:href="#Computer_Modern_Bright-99"/>
      <use transform="translate(91.32375 0)scale(0.996264)" xlink:href="#Computer_Modern_Bright-116"/>
      <use transform="translate(127.438138 0)scale(0.996264)" xlink:href="#Computer_Modern_Bright-117"/>
      <use transform="translate(175.590635 0)scale(0.996264)" xlink:href="#Computer_Modern_Bright-97"/>
      <use transform="translate(222.082717 0)scale(0.996264)" xlink:href="#Computer_Modern_Bright-108"/>
     </g>
    </g>
    <g id="line2d_22">
     <path d="M 67.628355 126.840778 
L 95.628355 126.840778 
" style="fill:none;stroke:#ff7f00;stroke-linecap:round;stroke-width:2;"/>
    </g>
    <g id="line2d_23"/>
    <g id="text_16">
     <!-- Additive -->
     <defs>
      <path d="M 2.09375 0.09375 
L 6.59375 0.09375 
L 8.40625 0.296875 
C 11.40625 6.796875 13.5 14.203125 16.203125 21 
C 26.09375 21 36.90625 21 46.296875 21 
L 47.09375 19.6875 
C 48.796875 14.546875 50.796875 9.59375 52.59375 4.546875 
C 53.09375 3.015625 53.59375 1.515625 54.40625 0.296875 
C 56.59375 0 59.203125 0 61.59375 0 
C 59.90625 4.90625 36.703125 67.203125 36 68.890625 
C 35.90625 69.296875 35.703125 69.890625 35.203125 70 
C 34.59375 70.09375 34 70 33.40625 70 
L 30.09375 70 
C 28.59375 70 28 70.1875 27.59375 68.609375 
C 27.203125 67.59375 2.09375 0.09375 2.09375 0.09375 
M 31.40625 63.171875 
C 35.59375 50.71875 40.09375 38.46875 44.5 26.21875 
L 18.203125 26.21875 
L 26.90625 50.109375 
z
" id="Computer_Modern_Bright-65"/>
      <path d="M 35.59375 69.6875 
L 35.59375 41.375 
C 33.703125 43.484375 31.796875 45.484375 29.203125 46.6875 
C 20.296875 50.40625 11.703125 45.59375 7.296875 37.65625 
C 2.203125 28.21875 2.796875 15.765625 8.90625 6.921875 
C 13.203125 0.796875 20.296875 -2.203125 27.796875 0.5 
C 30.703125 1.609375 34.203125 4.515625 35.40625 7.125 
L 35.5 7.125 
L 35.5 0 
L 41.90625 0 
L 41.90625 69.6875 
z
M 35.203125 37.453125 
C 35.703125 36.546875 35.5 35.34375 35.5 34.34375 
L 35.5 13.65625 
C 35.5 11.34375 35.40625 11.140625 34.09375 9.34375 
C 32.296875 6.625 29.5 4.71875 26.203125 4.421875 
C 21.40625 4.015625 16.5 6.328125 13.703125 10.25 
C 12.09375 12.546875 11.203125 15.359375 10.703125 18.171875 
C 10.5 19.28125 10.5 20.28125 10.40625 21.390625 
C 9.796875 28.015625 11.203125 35.84375 17 40.0625 
C 18 40.765625 19.09375 41.265625 20.203125 41.765625 
C 26 43.984375 32.40625 43.375 35.203125 37.453125 
" id="Computer_Modern_Bright-100"/>
     </defs>
     <g style="fill:#262626;" transform="translate(106.828355 131.740778)scale(0.14 -0.14)">
      <use transform="scale(0.996264)" xlink:href="#Computer_Modern_Bright-65"/>
      <use transform="translate(63.511618 0)scale(0.996264)" xlink:href="#Computer_Modern_Bright-100"/>
      <use transform="translate(111.664115 0)scale(0.996264)" xlink:href="#Computer_Modern_Bright-100"/>
      <use transform="translate(159.816612 0)scale(0.996264)" xlink:href="#Computer_Modern_Bright-105"/>
      <use transform="translate(178.911571 0)scale(0.996264)" xlink:href="#Computer_Modern_Bright-116"/>
      <use transform="translate(215.025959 0)scale(0.996264)" xlink:href="#Computer_Modern_Bright-105"/>
      <use transform="translate(234.120917 0)scale(0.996264)" xlink:href="#Computer_Modern_Bright-118"/>
      <use transform="translate(276.461955 0)scale(0.996264)" xlink:href="#Computer_Modern_Bright-101"/>
     </g>
    </g>
    <g id="line2d_24">
     <path d="M 67.628355 145.965389 
L 95.628355 145.965389 
" style="fill:none;stroke:#1f78b4;stroke-linecap:round;stroke-width:2;"/>
    </g>
    <g id="line2d_25"/>
    <g id="text_17">
     <!-- Unbranched -->
     <defs>
      <path d="M 8 69.5 
L 8 32.75 
C 8 25.71875 7.203125 18.390625 10.703125 11.96875 
C 12.90625 7.84375 16.09375 4.4375 20.09375 2.125 
C 29.90625 -3.609375 43.5 -2.203125 51.296875 6.4375 
C 54.796875 10.359375 57.296875 15.171875 57.796875 21.796875 
C 57.90625 23.40625 57.796875 24.921875 57.796875 26.515625 
L 57.796875 69.5 
L 51.40625 69.5 
L 51.40625 25.90625 
C 51.40625 24.59375 51.5 23.1875 51.40625 21.890625 
C 51.203125 18.890625 50.59375 15.921875 49.40625 13.25 
C 43.90625 1 25 1 18 11.890625 
C 14.203125 17.78125 15 25.0625 15 31.65625 
L 15 69.5 
z
" id="Computer_Modern_Bright-85"/>
      <path d="M 6.40625 69.6875 
L 6.40625 0 
L 12.796875 0 
L 12.796875 6.328125 
L 12.90625 6.328125 
C 14 4.109375 16.5 2.015625 18.59375 0.90625 
C 25.796875 -2.90625 34.40625 0.90625 39.09375 7.03125 
C 48.59375 19.578125 44.796875 40.875 32.296875 46.796875 
C 27.40625 49 21.5 48 17.09375 44.984375 
C 15.40625 43.78125 14 42.375 12.703125 40.765625 
L 12.703125 69.6875 
z
M 21.90625 42.984375 
C 26.59375 43.375 31.5 41.265625 34.296875 37.453125 
C 36.203125 34.9375 37.203125 31.9375 37.703125 28.8125 
C 38.703125 21.484375 37.90625 12.25 31.40625 7.4375 
C 30.296875 6.625 29.09375 6.03125 27.796875 5.515625 
C 22.40625 3.515625 17 4.109375 14 8.84375 
C 13.09375 10.4375 12.796875 10.546875 12.796875 12.953125 
L 12.796875 33.734375 
C 12.796875 34.75 12.59375 35.953125 13 36.859375 
C 14.59375 40.171875 18.296875 42.671875 21.90625 42.984375 
" id="Computer_Modern_Bright-98"/>
      <path d="M 12.5 34.75 
L 12.40625 34.75 
L 12.40625 47.390625 
L 6.40625 47.390625 
L 6.40625 0 
L 12.703125 0 
L 12.703125 22.890625 
C 12.703125 24.40625 12.703125 25.90625 12.90625 27.40625 
C 14.296875 35.953125 21.703125 42.28125 31.40625 42.28125 
L 31.40625 48 
C 25 48 19.09375 44.890625 15.296875 39.765625 
C 14.203125 38.265625 13 36.546875 12.5 34.75 
" id="Computer_Modern_Bright-114"/>
      <path d="M 6.40625 69.6875 
L 6.40625 0 
L 12.796875 0 
L 12.796875 21.984375 
C 12.796875 26.90625 12.5 31.9375 14.703125 36.546875 
C 15.796875 38.859375 17.5 40.875 19.796875 42.078125 
C 21.703125 42.984375 23.703125 42.984375 25.796875 42.78125 
C 28.796875 42.78125 31.703125 41.984375 33.59375 39.453125 
C 35.40625 37.140625 35.5 34.140625 35.5 31.3125 
L 35.5 0 
L 41.90625 0 
L 41.90625 27.21875 
C 41.90625 32.234375 42.40625 37.75 39.90625 42.28125 
C 37.90625 45.6875 34.40625 47.296875 30.703125 47.796875 
C 28.703125 48 26.703125 48 24.703125 47.703125 
C 21.09375 47.015625 18 45.03125 15.59375 42.34375 
C 14.5 41.046875 13.203125 39.46875 12.796875 37.765625 
L 12.703125 37.765625 
L 12.703125 69.6875 
z
" id="Computer_Modern_Bright-104"/>
     </defs>
     <g style="fill:#262626;" transform="translate(106.828355 150.865389)scale(0.14 -0.14)">
      <use transform="scale(0.996264)" xlink:href="#Computer_Modern_Bright-85"/>
      <use transform="translate(65.587132 0)scale(0.996264)" xlink:href="#Computer_Modern_Bright-110"/>
      <use transform="translate(113.739629 0)scale(0.996264)" xlink:href="#Computer_Modern_Bright-98"/>
      <use transform="translate(158.986397 0)scale(0.996264)" xlink:href="#Computer_Modern_Bright-114"/>
      <use transform="translate(190.949756 0)scale(0.996264)" xlink:href="#Computer_Modern_Bright-97"/>
      <use transform="translate(237.441838 0)scale(0.996264)" xlink:href="#Computer_Modern_Bright-110"/>
      <use transform="translate(285.594335 0)scale(0.996264)" xlink:href="#Computer_Modern_Bright-99"/>
      <use transform="translate(330.426003 0)scale(0.996264)" xlink:href="#Computer_Modern_Bright-104"/>
      <use transform="translate(378.5785 0)scale(0.996264)" xlink:href="#Computer_Modern_Bright-101"/>
      <use transform="translate(423.410167 0)scale(0.996264)" xlink:href="#Computer_Modern_Bright-100"/>
     </g>
    </g>
    <g id="line2d_26">
     <path d="M 67.628355 165.09 
L 95.628355 165.09 
" style="fill:none;stroke:#0000ff;stroke-linecap:round;stroke-width:2;"/>
    </g>
    <g id="line2d_27"/>
    <g id="text_18">
     <!-- \emph{egl-9} $&gt;$ \emph{vhl-1} -->
     <defs>
      <path d="M 44.09375 10.859375 
C 42.796875 9.953125 41.5 8.9375 40.09375 8.140625 
C 34.296875 4.59375 24.09375 1.765625 18.203125 7.53125 
C 14.40625 11.375 13.203125 17.53125 14.796875 25 
L 46.40625 25 
C 46.796875 25 47.40625 24.90625 47.703125 25.203125 
C 48.5 25.8125 48.703125 31.375 48.703125 31.46875 
C 48.703125 32.6875 48.796875 33.890625 48.703125 35.109375 
C 48.296875 40.46875 45.703125 45.3125 40.703125 47.140625 
C 34.296875 49.765625 27 47.84375 21.5 43.90625 
C 13.796875 38.4375 8.40625 29.046875 8 19.453125 
C 7.59375 11.875 10.5 5.515625 15.40625 2.171875 
C 23.40625 -3.484375 34.5 -0.15625 40.90625 3.6875 
C 41.703125 4.203125 42.90625 4.703125 43.40625 5.40625 
C 43.703125 5.90625 44.09375 10.859375 44.09375 10.859375 
M 43.296875 28.953125 
L 16.203125 28.953125 
C 16.59375 30.671875 17.703125 32.390625 18.703125 33.796875 
C 21.296875 37.84375 25.09375 41.46875 29.796875 42.796875 
C 33.59375 43.90625 38.296875 43.1875 41 40.0625 
C 43.203125 37.4375 43.703125 33.390625 43.296875 28.953125 
" id="Computer_Modern_Bright_Slanted-101"/>
      <path d="M 37.90625 12.09375 
L 38 12.09375 
C 37.703125 10.1875 37.203125 8.265625 36.796875 6.34375 
C 36.203125 3.3125 35.703125 0.171875 34.703125 -2.65625 
C 33.5 -5.984375 31.203125 -9.109375 28.296875 -11.140625 
C 25.90625 -12.75 23.796875 -13.265625 19.90625 -12.953125 
C 15.09375 -12.953125 11.59375 -12.03125 7.796875 -10.265625 
C 6.703125 -9.75 5.796875 -9.125 4.703125 -8.609375 
L 3.5 -14.171875 
C 8.09375 -16.25 12.203125 -18 18.40625 -18 
C 19.796875 -18.109375 21.203125 -18.203125 22.59375 -18.109375 
C 31.703125 -17.203125 38.5 -10.21875 41.09375 -2.828125 
C 41.796875 -1 42.09375 1.015625 42.5 2.953125 
L 44.203125 11.03125 
C 44.796875 13.78125 51.90625 47.390625 52 48.5 
L 45.703125 48.5 
L 44.09375 40.265625 
C 43.703125 40.984375 43.5 41.78125 43.203125 42.5 
C 42.5 43.90625 41.5 45.21875 40.296875 46.234375 
C 34.40625 51.1875 25 46.640625 21 43.5 
C 15.09375 38.953125 11 32.296875 9.203125 25.125 
C 6.90625 16.234375 9.5 8.0625 14.90625 4.328125 
C 18.796875 1.59375 24.796875 0.78125 30 3.71875 
C 32.90625 5.4375 36.40625 8.96875 37.90625 12.09375 
M 34.59375 43.5 
C 40.296875 43.5 42.703125 39.546875 42.703125 33.890625 
C 42.59375 33.1875 42.40625 32.375 42.296875 31.671875 
C 40.703125 24.59375 39.40625 17.53125 35.59375 12.0625 
C 33.703125 9.34375 30.90625 7.125 27.5 6.8125 
C 25 6.609375 22.40625 7.515625 20.796875 8.328125 
C 15.90625 11.15625 14.296875 17.21875 15.09375 22.578125 
C 16 28.9375 19.5 35.03125 24.5 39.0625 
C 27.40625 41.4375 30.90625 43.203125 34.59375 43.5 
M 38 12.21875 
C 38 12.21875 38.09375 12.21875 38.09375 12.21875 
C 38.09375 12.125 38 12.015625 38 12.21875 
" id="Computer_Modern_Bright_Slanted-103"/>
      <path d="M 21.09375 70 
L 6.40625 0 
C 8.5 0 10.796875 0 12.59375 0.296875 
L 13 1.40625 
C 14 6.4375 15.09375 11.375 16.203125 16.40625 
L 27.40625 70 
z
" id="Computer_Modern_Bright_Slanted-108"/>
      <path d="M 5.90625 26.0625 
L 4.90625 21 
L 32.796875 21 
L 33.796875 26.0625 
z
" id="Computer_Modern_Bright_Slanted-45"/>
      <path d="M 46.5 33.03125 
L 46.59375 33.03125 
C 46.296875 31.3125 45.90625 29.59375 45.40625 27.96875 
C 42.703125 18.296875 37.09375 7.828125 26.90625 4.625 
C 21.5 3.015625 15.90625 4.03125 12.5 6.734375 
C 12.203125 6.9375 11.59375 7.640625 11.09375 7.546875 
C 10.703125 7.546875 10.296875 6.84375 10.09375 6.53125 
C 9.203125 5.421875 8.296875 4.328125 7.5 3.21875 
C 9.296875 1.796875 11.09375 0.484375 13.296875 -0.3125 
C 15.90625 -1.328125 20.5 -1.828125 23.59375 -1.234375 
C 29 -0.421875 34 2.515625 38.09375 6.03125 
C 47.5 14.375 53.09375 26.21875 54.59375 41.390625 
C 55.09375 45.90625 55.203125 50.515625 54.09375 55.046875 
C 53.203125 58.953125 51.703125 61.46875 48.90625 63.984375 
C 43.796875 68 36.296875 68 30.703125 65.453125 
C 25.40625 62.921875 19.90625 57.65625 17.203125 53.078125 
C 14.59375 48.609375 12.703125 41.40625 13.09375 34.90625 
C 13.5 30.8125 15.5 26.21875 18 23.703125 
C 20.296875 21.515625 23.09375 21 26.09375 21 
C 32.09375 21 38.203125 23.9375 42.5 28.171875 
C 43.90625 29.59375 45.59375 31.109375 46.5 33.03125 
M 43.90625 61.03125 
C 48.59375 58.484375 49.40625 52.515625 48.90625 47.640625 
C 48.703125 44.90625 48.5 42.171875 47.59375 39.53125 
C 45.796875 34.46875 42.09375 30 37.40625 27.578125 
C 32.40625 25.03125 24.59375 25.03125 21.5 29.765625 
C 18.90625 33.484375 19.296875 38 20.09375 42.234375 
C 20.796875 45.546875 21.5 48.96875 23 52.078125 
C 25 56.109375 28.59375 59.734375 32.90625 61.234375 
C 36.5 62.4375 40.59375 62.4375 43.90625 61.03125 
" id="Computer_Modern_Bright_Slanted-57"/>
      <path d="M 62.59375 26.546875 
L 62.59375 26.34375 
C 60.296875 25.546875 58 24.25 55.796875 23.140625 
L 27.09375 9.625 
L 11.09375 2 
C 10.40625 1.703125 9.40625 1.296875 8.90625 0.796875 
C 8 -0.203125 8.203125 -1.703125 9.296875 -2.296875 
C 10.5 -3 11.703125 -2.109375 12.796875 -1.609375 
L 21 2.203125 
C 25.203125 4.3125 55 18.328125 55 18.328125 
L 66 23.546875 
C 67.296875 24.140625 69.40625 24.75 69.40625 26.453125 
C 69.40625 28.15625 67.296875 28.75 66 29.359375 
L 55 34.5625 
L 33.703125 44.6875 
C 29.5 46.6875 25.203125 48.59375 21 50.703125 
L 12.796875 54.5 
C 11.703125 55 10.5 55.90625 9.296875 55.203125 
C 8.203125 54.609375 8 53.09375 8.90625 52.09375 
C 9.40625 51.59375 10.40625 51.203125 11.09375 50.890625 
L 41.59375 36.46875 
L 55.796875 29.75 
C 58 28.65625 60.296875 27.359375 62.59375 26.546875 
" id="Computer_Modern_Bright_Math_Slanted-62"/>
      <path d="M 10.703125 48 
C 12.796875 33.046875 15.09375 18.171875 17.09375 3.125 
C 17.296875 2.109375 17.296875 0.90625 17.796875 0.203125 
C 19.90625 0 22.59375 0 24.703125 0 
L 25.296875 0.703125 
L 44.703125 35.109375 
L 51.796875 48 
C 49.703125 48 47.5 48 45.703125 47.703125 
C 44.90625 46.59375 44.296875 45.484375 43.59375 44.265625 
C 36.59375 31.84375 29.40625 19.515625 22.703125 6.6875 
C 21.59375 16.984375 20 26.6875 18.59375 36.6875 
C 18 40.328125 17.90625 44.46875 16.90625 47.703125 
C 15.09375 48 12.796875 48 10.703125 48 
" id="Computer_Modern_Bright_Slanted-118"/>
      <path d="M 21.09375 70 
L 6.40625 0 
L 10.90625 0 
C 11.796875 0 13 -0.296875 13 1.015625 
C 13.203125 1.71875 13.296875 2.328125 13.40625 3.03125 
C 14.40625 7.78125 19 29.5 19.296875 30.40625 
C 20.40625 33.953125 22.40625 37.375 25.09375 39.90625 
C 28 42.4375 31.203125 43.84375 36.59375 42.9375 
C 38.796875 42.53125 40.90625 41.625 42 39.5 
C 43.5 36.46875 42.40625 32.9375 41.796875 29.90625 
L 35.5 0 
L 40.203125 0 
C 41.203125 0 42.09375 -0.203125 42.09375 1.109375 
C 42.703125 3.125 44.09375 10.625 44.09375 10.625 
L 48.59375 32 
C 49.40625 35.734375 50.296875 40.40625 48.203125 43.9375 
C 46.296875 46.984375 42.90625 48 39.59375 48.296875 
C 38.09375 48.296875 36.5 48.296875 35 48 
C 30.796875 47.3125 27.09375 45.09375 24.09375 42.09375 
C 22.90625 40.890625 21.5 39.59375 20.796875 37.984375 
L 20.703125 37.984375 
L 27.40625 70 
z
" id="Computer_Modern_Bright_Slanted-104"/>
      <path d="M 22.5 61 
L 21.5 55.9375 
C 26.296875 55.9375 31.40625 56.546875 35.703125 58.875 
L 24.5 5.046875 
C 20.296875 5.046875 15.296875 5.5625 11.5 5.046875 
C 10.90625 3.578125 10.703125 1.671875 10.296875 0 
C 21.09375 0 32.59375 0 42.796875 0 
C 43.40625 1.453125 43.703125 3.296875 44.09375 5.046875 
L 31 5.046875 
C 35.203125 26.0625 39.796875 46.59375 44.09375 67.5 
C 41.703125 67.5 42 67.09375 40 65.59375 
C 35.59375 62.59375 28.90625 61 22.5 61 
" id="Computer_Modern_Bright_Slanted-49"/>
     </defs>
     <g style="fill:#262626;" transform="translate(106.828355 169.99)scale(0.14 -0.14)">
      <use transform="scale(0.996264)" xlink:href="#Computer_Modern_Bright_Slanted-101"/>
      <use transform="translate(44.831668 0)scale(0.996264)" xlink:href="#Computer_Modern_Bright_Slanted-103"/>
      <use transform="translate(92.984165 0)scale(0.996264)" xlink:href="#Computer_Modern_Bright_Slanted-108"/>
      <use transform="translate(112.079123 0)scale(0.996264)" xlink:href="#Computer_Modern_Bright_Slanted-45"/>
      <use transform="translate(145.287797 0)scale(0.996264)" xlink:href="#Computer_Modern_Bright_Slanted-57"/>
      <use transform="translate(238.372567 0)scale(0.996264)" xlink:href="#Computer_Modern_Bright_Math_Slanted-62"/>
      <use transform="translate(347.325246 0)scale(0.996264)" xlink:href="#Computer_Modern_Bright_Slanted-118"/>
      <use transform="translate(389.666284 0)scale(0.996264)" xlink:href="#Computer_Modern_Bright_Slanted-104"/>
      <use transform="translate(437.818781 0)scale(0.996264)" xlink:href="#Computer_Modern_Bright_Slanted-108"/>
      <use transform="translate(456.91374 0)scale(0.996264)" xlink:href="#Computer_Modern_Bright_Slanted-45"/>
      <use transform="translate(490.122414 0)scale(0.996264)" xlink:href="#Computer_Modern_Bright_Slanted-49"/>
     </g>
    </g>
    <g id="line2d_28">
     <path d="M 67.628355 184.214611 
L 95.628355 184.214611 
" style="fill:none;stroke:#000000;stroke-linecap:round;stroke-width:2;"/>
    </g>
    <g id="line2d_29"/>
    <g id="text_19">
     <!-- \emph{vhl-1} $&gt;$ \emph{egl-9} -->
     <g style="fill:#262626;" transform="translate(106.828355 189.114611)scale(0.14 -0.14)">
      <use transform="scale(0.996264)" xlink:href="#Computer_Modern_Bright_Slanted-118"/>
      <use transform="translate(42.341038 0)scale(0.996264)" xlink:href="#Computer_Modern_Bright_Slanted-104"/>
      <use transform="translate(90.493535 0)scale(0.996264)" xlink:href="#Computer_Modern_Bright_Slanted-108"/>
      <use transform="translate(109.588494 0)scale(0.996264)" xlink:href="#Computer_Modern_Bright_Slanted-45"/>
      <use transform="translate(142.797167 0)scale(0.996264)" xlink:href="#Computer_Modern_Bright_Slanted-49"/>
      <use transform="translate(235.881937 0)scale(0.996264)" xlink:href="#Computer_Modern_Bright_Math_Slanted-62"/>
      <use transform="translate(344.834617 0)scale(0.996264)" xlink:href="#Computer_Modern_Bright_Slanted-101"/>
      <use transform="translate(389.666284 0)scale(0.996264)" xlink:href="#Computer_Modern_Bright_Slanted-103"/>
      <use transform="translate(437.818781 0)scale(0.996264)" xlink:href="#Computer_Modern_Bright_Slanted-108"/>
      <use transform="translate(456.91374 0)scale(0.996264)" xlink:href="#Computer_Modern_Bright_Slanted-45"/>
      <use transform="translate(490.122414 0)scale(0.996264)" xlink:href="#Computer_Modern_Bright_Slanted-57"/>
     </g>
    </g>
    <g id="line2d_30">
     <path d="M 67.628355 203.339222 
L 95.628355 203.339222 
" style="fill:none;stroke:#e31a1c;stroke-linecap:round;stroke-width:2;"/>
    </g>
    <g id="line2d_31"/>
    <g id="text_20">
     <!-- Suppression -->
     <defs>
      <path d="M 5.09375 13.015625 
C 4.90625 11.390625 4.5 9.671875 4.296875 8.046875 
C 4.09375 6.53125 3.59375 6.109375 4.90625 5.3125 
C 8.296875 3.390625 11.203125 2.0625 15.40625 0.75 
C 24.796875 -2 35.59375 -2 43.796875 4.140625 
C 45.09375 5.140625 46.296875 6.234375 47.40625 7.53125 
C 49.90625 10.890625 52.203125 14.96875 51.59375 20.53125 
C 50.90625 27.671875 46.09375 33.625 39.59375 36.609375 
C 30.703125 40.578125 16.203125 40.578125 12.203125 49.375 
C 9.09375 56.1875 14.59375 62.171875 20.796875 64.375 
C 26.90625 66.6875 34.90625 65.78125 40.09375 63.375 
C 42.5 62.265625 44.5 60.65625 46.703125 59.25 
C 46.90625 60.96875 47.296875 62.578125 47.59375 64.28125 
C 47.796875 65.375 48.09375 66.390625 46.90625 66.78125 
L 45 67.796875 
C 42.296875 69 39.5 69.90625 36.59375 70.5 
C 27.59375 72.203125 17.203125 71.203125 10.40625 64.484375 
C 7 61.0625 4.09375 56.4375 5.296875 49.515625 
C 6.703125 42.390625 12.296875 37.875 18.09375 35.65625 
C 21.5 34.359375 25.296875 33.65625 28.90625 32.75 
C 31 32.34375 33.203125 31.84375 35.296875 31.140625 
C 40.703125 29.125 45.40625 25.109375 45.40625 17.6875 
C 44.796875 11.296875 39.203125 6.625 33.296875 5.203125 
C 25.703125 3.265625 16.703125 6.015625 11.5 8.75 
C 9.203125 9.96875 7.203125 11.59375 5.09375 13.015625 
" id="Computer_Modern_Bright-83"/>
     </defs>
     <g style="fill:#262626;" transform="translate(106.828355 208.239222)scale(0.14 -0.14)">
      <use transform="scale(0.996264)" xlink:href="#Computer_Modern_Bright-83"/>
      <use transform="translate(56.454753 0)scale(0.996264)" xlink:href="#Computer_Modern_Bright-117"/>
      <use transform="translate(104.60725 0)scale(0.996264)" xlink:href="#Computer_Modern_Bright-112"/>
      <use transform="translate(152.759747 0)scale(0.996264)" xlink:href="#Computer_Modern_Bright-112"/>
      <use transform="translate(198.006514 0)scale(0.996264)" xlink:href="#Computer_Modern_Bright-114"/>
      <use transform="translate(229.969873 0)scale(0.996264)" xlink:href="#Computer_Modern_Bright-101"/>
      <use transform="translate(274.801541 0)scale(0.996264)" xlink:href="#Computer_Modern_Bright-115"/>
      <use transform="translate(313.24057 0)scale(0.996264)" xlink:href="#Computer_Modern_Bright-115"/>
      <use transform="translate(351.679599 0)scale(0.996264)" xlink:href="#Computer_Modern_Bright-105"/>
      <use transform="translate(370.774558 0)scale(0.996264)" xlink:href="#Computer_Modern_Bright-111"/>
      <use transform="translate(421.417776 0)scale(0.996264)" xlink:href="#Computer_Modern_Bright-110"/>
     </g>
    </g>
   </g>
  </g>
 </g>
 <defs>
  <clipPath id="p1b673c62c6">
   <rect height="298.98" width="446.4" x="55.028355" y="7.2"/>
  </clipPath>
 </defs>
</svg>
