<?xml version="1.0" encoding="utf-8" standalone="no"?>
<!DOCTYPE svg PUBLIC "-//W3C//DTD SVG 1.1//EN"
  "http://www.w3.org/Graphics/SVG/1.1/DTD/svg11.dtd">
<!-- Created with matplotlib (http://matplotlib.org/) -->
<svg height="353pt" version="1.1" viewBox="0 0 508 353" width="508pt" xmlns="http://www.w3.org/2000/svg" xmlns:xlink="http://www.w3.org/1999/xlink">
 <defs>
  <style type="text/css">
*{stroke-linecap:butt;stroke-linejoin:round;}
  </style>
 </defs>
 <g id="figure_1">
  <g id="patch_1">
   <path d="M 0 353.548374 
L 508.628355 353.548374 
L 508.628355 0 
L 0 0 
z
" style="fill:#ffffff;"/>
  </g>
  <g id="axes_1">
   <g id="patch_2">
    <path d="M 55.028355 306.18 
L 501.428355 306.18 
L 501.428355 7.2 
L 55.028355 7.2 
z
" style="fill:#eaeaf2;"/>
   </g>
   <g id="matplotlib.axis_1">
    <g id="xtick_1">
     <g id="line2d_1"/>
     <g id="text_1">
      <!-- $-0.6$ -->
      <defs>
       <path d="M 9.796875 28.078125 
C 8 27.484375 7.796875 24.78125 9.796875 24.28125 
C 10.296875 24.078125 10.90625 24.1875 11.5 24.1875 
L 64.703125 24.1875 
C 65.90625 24.1875 67.796875 23.78125 68.796875 24.78125 
C 69.90625 25.875 69.296875 27.875 67.703125 28.1875 
C 66.5 28.375 65.09375 28.1875 63.90625 28.1875 
L 11.40625 28.1875 
C 10.90625 28.1875 10.296875 28.28125 9.796875 28.078125 
" id="Computer_Modern_Bright_Math_Symbols-0"/>
       <path d="M 14.796875 63.859375 
C 11.90625 61.859375 9.90625 59.140625 8.40625 56.03125 
C 4.796875 49 4.40625 40.765625 4.40625 31.828125 
C 4.40625 20.578125 6.40625 10.25 12 4.3125 
C 17.296875 -1.203125 25.703125 -2.609375 32.796875 0.296875 
C 37.203125 2.015625 40.40625 5.71875 42.40625 9.734375 
C 46 16.875 46.40625 25.40625 46.40625 34.234375 
C 46.40625 37.046875 46.296875 39.859375 46 42.671875 
C 45.296875 49.40625 43 56.828125 39.296875 60.953125 
C 33.203125 67.6875 22.296875 69.1875 14.796875 63.859375 
M 34.90625 58.140625 
C 39.59375 53.125 40 43.484375 40 34.34375 
L 40 28.921875 
C 40 24.296875 39.203125 18.28125 38.203125 14.859375 
C 36.796875 10.140625 34.5 6.734375 29.90625 4.625 
C 24.296875 2.609375 18.5 4.515625 15.296875 8.9375 
C 11 14.65625 10.796875 24.796875 10.796875 33.734375 
C 10.796875 42.171875 10.90625 51.515625 15 57.03125 
C 19.5 63.0625 29.203125 64.0625 34.90625 58.140625 
" id="Computer_Modern_Bright-48"/>
       <path d="M 10.703125 7.8125 
L 10.703125 0 
L 18.5 0 
L 18.5 7.8125 
z
" id="Computer_Modern_Bright_Math_Slanted-58"/>
       <path d="M 11.296875 32.625 
L 11.203125 32.625 
C 11.203125 41.765625 12.796875 52.421875 20.59375 58.25 
C 24.90625 61.375 30.703125 62.96875 38.203125 61.171875 
C 39.796875 60.765625 41.296875 60.15625 42.796875 59.765625 
L 42.796875 63.28125 
C 42.796875 63.671875 42.90625 64.375 42.59375 64.78125 
C 41.90625 65.6875 36.296875 66.59375 36.09375 66.59375 
C 27.40625 67.59375 21.703125 65.6875 16.40625 61.171875 
C 10 55.640625 6.296875 47.515625 5.09375 39.28125 
C 4 32.65625 4.90625 22 6.203125 16.78125 
C 8.296875 9.046875 12.296875 2.21875 19.703125 -0.390625 
C 24.09375 -2 29.5 -2 33.703125 0.015625 
C 37.09375 1.640625 39.90625 4.46875 42.09375 7.5 
C 45.59375 12.34375 46.5 18.21875 46.09375 24.171875 
C 45.90625 27.109375 45.5 30.046875 44.296875 32.765625 
C 42.40625 37.125 39.203125 41.671875 35.09375 43.6875 
C 33.203125 44.5 31.203125 44.5 29.203125 44.5 
C 23.90625 44.5 18.90625 42.1875 15.203125 38.359375 
C 13.59375 36.75 12 34.71875 11.296875 32.625 
M 24.40625 39.515625 
C 28.203125 39.8125 32.203125 39.21875 35.09375 36.5 
C 38.90625 32.890625 39.59375 27.765625 39.59375 22.8125 
C 39.59375 19.46875 39.703125 16.015625 38.703125 12.859375 
C 38.09375 11.234375 37.296875 9.828125 36.40625 8.5 
C 34.203125 5.5625 31.40625 4.125 26.796875 3.515625 
C 22.296875 3.515625 17.796875 5.3125 15.203125 9.125 
C 13.59375 11.328125 12.796875 14.046875 12.296875 16.640625 
C 11.703125 19.34375 11.296875 22.140625 11.5 24.859375 
C 12 31.984375 17 38.515625 24.40625 39.515625 
" id="Computer_Modern_Bright-54"/>
      </defs>
      <g style="fill:#262626;" transform="translate(80.947879 324.249603)scale(0.16 -0.16)">
       <use transform="scale(0.996264)" xlink:href="#Computer_Modern_Bright_Math_Symbols-0"/>
       <use transform="translate(77.487468 0)scale(0.996264)" xlink:href="#Computer_Modern_Bright-48"/>
       <use transform="translate(128.130685 0)scale(0.996264)" xlink:href="#Computer_Modern_Bright_Math_Slanted-58"/>
       <use transform="translate(157.188132 0)scale(0.996264)" xlink:href="#Computer_Modern_Bright-54"/>
      </g>
     </g>
    </g>
    <g id="xtick_2">
     <g id="line2d_2"/>
     <g id="text_2">
      <!-- $-0.5$ -->
      <defs>
       <path d="M 8.40625 66.328125 
L 8.40625 30.453125 
L 12.203125 30.453125 
C 12.703125 30.453125 13.40625 30.359375 13.796875 30.5625 
C 14.296875 30.859375 14.59375 31.5625 14.90625 31.96875 
C 15.59375 32.859375 16.40625 33.5625 17.203125 34.265625 
C 20.796875 37.28125 27.703125 38.484375 32.296875 36.171875 
C 38.59375 33.171875 39.796875 25.21875 39.296875 19 
C 39 15.0625 37.796875 11.453125 35.5 9.140625 
C 30.203125 3.5 21.296875 3.5 14.796875 6.796875 
C 11.59375 8.40625 8.90625 10.921875 6.90625 13.921875 
L 6.796875 13.921875 
C 6.5 13.421875 4.203125 9.90625 4.203125 9.296875 
C 4.203125 8.890625 4.5 8.59375 4.703125 8.296875 
C 7.703125 4.78125 11.59375 2.0625 16.09375 0.5625 
C 25 -2.25 35 -0.046875 41.296875 7.1875 
C 48.796875 15.921875 47.796875 30.15625 39.09375 37.765625 
C 36.5 40.1875 32.90625 41.890625 28.59375 42.28125 
C 22.796875 43.09375 17.59375 40.28125 14.5 37.671875 
L 14.5 61 
L 42.90625 61 
L 42.90625 66.328125 
z
" id="Computer_Modern_Bright-53"/>
      </defs>
      <g style="fill:#262626;" transform="translate(142.949004 324.249603)scale(0.16 -0.16)">
       <use transform="scale(0.996264)" xlink:href="#Computer_Modern_Bright_Math_Symbols-0"/>
       <use transform="translate(77.487468 0)scale(0.996264)" xlink:href="#Computer_Modern_Bright-48"/>
       <use transform="translate(128.130685 0)scale(0.996264)" xlink:href="#Computer_Modern_Bright_Math_Slanted-58"/>
       <use transform="translate(157.188132 0)scale(0.996264)" xlink:href="#Computer_Modern_Bright-53"/>
      </g>
     </g>
    </g>
    <g id="xtick_3">
     <g id="line2d_3"/>
     <g id="text_3">
      <!-- $-0.4$ -->
      <defs>
       <path d="M 2.09375 18 
L 31 18 
L 31 0 
L 37.296875 0 
L 37.296875 18 
L 48.703125 18 
L 48.703125 23.328125 
L 37.296875 23.328125 
L 37.296875 66.46875 
L 31.90625 66.46875 
C 30.09375 66.46875 29.59375 66.578125 28.796875 65.0625 
C 24.796875 58.515625 3.703125 25.765625 3 24.859375 
C 2.203125 23.4375 2.09375 23.546875 2.09375 21.4375 
z
M 31.296875 60.875 
L 31.296875 23.328125 
L 8.59375 23.328125 
C 9.296875 24.734375 10.296875 26.03125 11.203125 27.4375 
C 16.203125 35.171875 28.09375 53.546875 30.59375 59.28125 
C 30.90625 59.78125 31 60.375 31.296875 60.875 
" id="Computer_Modern_Bright-52"/>
      </defs>
      <g style="fill:#262626;" transform="translate(204.95013 324.249603)scale(0.16 -0.16)">
       <use transform="scale(0.996264)" xlink:href="#Computer_Modern_Bright_Math_Symbols-0"/>
       <use transform="translate(77.487468 0)scale(0.996264)" xlink:href="#Computer_Modern_Bright-48"/>
       <use transform="translate(128.130685 0)scale(0.996264)" xlink:href="#Computer_Modern_Bright_Math_Slanted-58"/>
       <use transform="translate(157.188132 0)scale(0.996264)" xlink:href="#Computer_Modern_Bright-52"/>
      </g>
     </g>
    </g>
    <g id="xtick_4">
     <g id="line2d_4"/>
     <g id="text_4">
      <!-- $-0.3$ -->
      <defs>
       <path d="M 8.09375 50.71875 
C 8.90625 51.921875 9.5 53.234375 10.40625 54.4375 
C 12.5 57.25 15.40625 59.453125 18.703125 60.765625 
C 23.90625 62.875 31.5 62.875 35.59375 58.21875 
C 39.203125 54.078125 37.703125 47.609375 34.40625 43.78125 
C 31.40625 40.25 27.5 38.53125 21.703125 38.53125 
C 20 38.53125 18.40625 38.03125 16.703125 38.03125 
L 16.703125 33 
L 23.59375 33 
C 29.40625 33 33.203125 32.109375 36.40625 28.6875 
C 41.90625 22.859375 41.40625 12.515625 35.296875 7.203125 
C 32.203125 4.59375 27.90625 3.78125 23.90625 4.078125 
C 16.09375 4.6875 9.203125 8.8125 4.59375 15.234375 
C 4.09375 14.234375 4.09375 12.828125 3.90625 11.71875 
C 3.59375 10.109375 3.59375 10.109375 4.59375 8.8125 
C 7.5 4.890625 13.203125 1.28125 17.703125 -0.03125 
C 25.703125 -2.4375 35 -1.34375 41.203125 4.78125 
C 42.40625 6 43.5 7.296875 44.40625 8.703125 
C 48.09375 14.53125 48.203125 22.15625 44.09375 27.78125 
C 42.40625 30.09375 40.203125 31.90625 37.703125 33.3125 
C 36 34.3125 34 35.3125 32 35.515625 
C 37.796875 38.234375 43.203125 42.828125 44.203125 50.359375 
C 45.09375 57.375 41 61.6875 36.796875 64.1875 
C 30.296875 68 21.796875 68 15.09375 64.671875 
C 12 63.171875 9.203125 60.96875 7.09375 58.25 
C 6.703125 57.75 5.203125 56.046875 5.203125 55.234375 
C 5.203125 54.734375 5.59375 54.234375 5.90625 53.828125 
z
" id="Computer_Modern_Bright-51"/>
      </defs>
      <g style="fill:#262626;" transform="translate(266.951255 324.249603)scale(0.16 -0.16)">
       <use transform="scale(0.996264)" xlink:href="#Computer_Modern_Bright_Math_Symbols-0"/>
       <use transform="translate(77.487468 0)scale(0.996264)" xlink:href="#Computer_Modern_Bright-48"/>
       <use transform="translate(128.130685 0)scale(0.996264)" xlink:href="#Computer_Modern_Bright_Math_Slanted-58"/>
       <use transform="translate(157.188132 0)scale(0.996264)" xlink:href="#Computer_Modern_Bright-51"/>
      </g>
     </g>
    </g>
    <g id="xtick_5">
     <g id="line2d_5"/>
     <g id="text_5">
      <!-- $-0.2$ -->
      <defs>
       <path d="M 7.296875 45.96875 
C 8.703125 51.59375 11.09375 57.984375 16.796875 60.5 
C 19.203125 61.5 21.796875 61.703125 24.40625 61.5 
C 29.296875 61.09375 34.09375 59.09375 37.09375 55.09375 
C 39.296875 52.078125 40.09375 48.375 39.703125 44.78125 
C 38.5 34.34375 28.296875 26.84375 21.703125 21.234375 
C 17.90625 18.03125 7.09375 7.8125 7.09375 7.8125 
L 5.40625 6.203125 
C 4.5 5.3125 4.40625 5.3125 4.40625 3.5 
L 4.40625 0 
L 46.40625 0 
L 46.40625 5.625 
L 10.203125 5.625 
C 13.40625 8.734375 26.703125 20.515625 28.5 21.921875 
C 34.296875 26.65625 40.796875 31.375 44.296875 38.21875 
C 48.203125 46.0625 46.5 55.9375 39.90625 61.765625 
C 35.90625 65.296875 30.40625 67 25.09375 67 
C 20.203125 67 15.203125 66 11.296875 62.90625 
C 8.296875 60.390625 5.796875 56.6875 4.40625 52.875 
C 4.09375 52.28125 3.59375 51.28125 3.703125 50.578125 
C 3.796875 49.984375 4.40625 49.484375 4.703125 49.078125 
C 5.5 48.078125 6.296875 46.875 7.296875 45.96875 
" id="Computer_Modern_Bright-50"/>
      </defs>
      <g style="fill:#262626;" transform="translate(328.95238 324.249603)scale(0.16 -0.16)">
       <use transform="scale(0.996264)" xlink:href="#Computer_Modern_Bright_Math_Symbols-0"/>
       <use transform="translate(77.487468 0)scale(0.996264)" xlink:href="#Computer_Modern_Bright-48"/>
       <use transform="translate(128.130685 0)scale(0.996264)" xlink:href="#Computer_Modern_Bright_Math_Slanted-58"/>
       <use transform="translate(157.188132 0)scale(0.996264)" xlink:href="#Computer_Modern_Bright-50"/>
      </g>
     </g>
    </g>
    <g id="xtick_6">
     <g id="line2d_6"/>
     <g id="text_6">
      <!-- $-0.1$ -->
      <defs>
       <path d="M 9.703125 60.015625 
L 9.703125 55 
C 15.203125 55 19 56 23.40625 57.90625 
L 23.40625 5.015625 
L 10.296875 5.015625 
L 10.296875 0 
L 43 0 
L 43 5.015625 
L 29.90625 5.015625 
L 29.90625 67 
C 27.5 67 27.90625 66.359375 26 64.875 
C 21.90625 61.71875 16.203125 60.015625 9.703125 60.015625 
" id="Computer_Modern_Bright-49"/>
      </defs>
      <g style="fill:#262626;" transform="translate(390.953505 324.249603)scale(0.16 -0.16)">
       <use transform="scale(0.996264)" xlink:href="#Computer_Modern_Bright_Math_Symbols-0"/>
       <use transform="translate(77.487468 0)scale(0.996264)" xlink:href="#Computer_Modern_Bright-48"/>
       <use transform="translate(128.130685 0)scale(0.996264)" xlink:href="#Computer_Modern_Bright_Math_Slanted-58"/>
       <use transform="translate(157.188132 0)scale(0.996264)" xlink:href="#Computer_Modern_Bright-49"/>
      </g>
     </g>
    </g>
    <g id="xtick_7">
     <g id="line2d_7"/>
     <g id="text_7">
      <!-- $0.0$ -->
      <g style="fill:#262626;" transform="translate(459.153628 324.249603)scale(0.16 -0.16)">
       <use transform="scale(0.996264)" xlink:href="#Computer_Modern_Bright-48"/>
       <use transform="translate(50.643218 0)scale(0.996264)" xlink:href="#Computer_Modern_Bright_Math_Slanted-58"/>
       <use transform="translate(79.700665 0)scale(0.996264)" xlink:href="#Computer_Modern_Bright-48"/>
      </g>
     </g>
    </g>
    <g id="text_8">
     <!-- Epistasis Coefficient -->
     <defs>
      <path d="M 8 69.328125 
L 8 0 
L 55.40625 0 
L 55.40625 5.625 
L 15 5.625 
L 15 33.671875 
L 51.09375 33.671875 
L 51.09375 39 
L 15 39 
L 15 64 
L 54 64 
L 54 69.328125 
z
" id="Computer_Modern_Bright-69"/>
      <path d="M 12.703125 40.53125 
L 12.703125 47.15625 
L 6.40625 47.15625 
L 6.40625 -17 
L 12.796875 -17 
L 12.796875 6.09375 
C 14.203125 4.078125 15.796875 2.28125 17.90625 1.078125 
C 25 -3.25 34 0.171875 38.90625 6.59375 
C 45.40625 14.96875 46.09375 27.5 41.59375 36.984375 
C 39 42.4375 34.09375 47.5 27.796875 48 
C 22.296875 48 18.09375 45.8125 15.09375 43.125 
C 14.203125 42.328125 13.5 41.4375 12.703125 40.53125 
M 21.90625 42.875 
C 26 43.171875 30 41.265625 32.796875 38.265625 
C 34.5 36.34375 35.796875 34.140625 36.59375 31.734375 
C 40.09375 22.296875 36.90625 9.234375 26.796875 5.328125 
C 21 3.109375 15.296875 5.125 13.09375 10.546875 
C 12.59375 11.546875 12.796875 12.859375 12.796875 13.953125 
L 12.796875 34.640625 
C 12.796875 36.953125 13 37.15625 14.5 38.859375 
C 16.296875 41.0625 19 42.578125 21.90625 42.875 
" id="Computer_Modern_Bright-112"/>
      <path d="M 6.40625 70 
L 6.40625 63.671875 
L 12.703125 63.671875 
L 12.703125 70 
z
M 6.40625 47.390625 
L 6.40625 0 
L 12.703125 0 
L 12.703125 47.390625 
z
" id="Computer_Modern_Bright-105"/>
      <path d="M 3.09375 9.640625 
C 2.90625 8.234375 2.59375 6.9375 2.40625 5.53125 
C 2.203125 4.421875 1.90625 3.921875 2.90625 3.421875 
C 7 1.015625 11.90625 -0.296875 17.703125 -0.796875 
C 24.203125 -1.40625 32.40625 0.109375 35.59375 6.53125 
C 36.5 8.34375 37 10.34375 37.09375 12.359375 
C 37.5 19.578125 31.796875 24.203125 26.90625 25.90625 
C 21.40625 28.015625 13.90625 27.3125 10.09375 31.53125 
C 8.09375 33.84375 8 37.265625 9.90625 39.671875 
C 13.90625 45.296875 26.796875 42.875 31.90625 40.375 
C 32.703125 39.96875 33.40625 39.46875 34.296875 39.265625 
L 35.203125 44.6875 
C 30.5 46.796875 26.40625 48 19.90625 48 
C 14.296875 48 9.203125 46.703125 6 43.484375 
C 2.796875 40.171875 1.703125 34.640625 3.59375 30.4375 
C 5.40625 26.40625 9.203125 23.796875 13.296875 22.5 
C 19.203125 20.390625 25.90625 21.390625 29.796875 16.578125 
C 32 13.765625 31.59375 9.546875 29.09375 7.03125 
C 24.296875 2.609375 14.09375 4.21875 8.5 6.625 
C 6.59375 7.4375 4.90625 8.640625 3.09375 9.640625 
" id="Computer_Modern_Bright-115"/>
      <path d="M 10.796875 60.5 
L 10.796875 47.015625 
L 1.09375 47.015625 
L 1.09375 42 
L 10.703125 42 
L 10.703125 15.015625 
C 10.703125 10.578125 10.40625 5.234375 13.296875 1.515625 
C 15 -0.703125 17.296875 -1.296875 20.796875 -1 
C 23.703125 -1 26.59375 -0.390625 29.296875 0.65625 
C 30.203125 1.0625 33.5 2.515625 33.90625 3.234375 
C 34.09375 3.640625 32.796875 8.09375 32.796875 8.09375 
L 30.40625 6.265625 
C 27.296875 4.34375 21.09375 2.328125 18.5 5.96875 
C 16.203125 9.09375 16.796875 13.75 16.796875 17.375 
L 16.796875 42 
L 32.296875 42 
L 32.296875 47.015625 
L 16.796875 47.015625 
L 16.796875 60.5 
z
" id="Computer_Modern_Bright-116"/>
      <path d="M 7.90625 39.015625 
C 9.59375 39.859375 11 41.09375 12.703125 41.921875 
C 15.40625 43.15625 18.203125 44 21.203125 44 
C 22.59375 44.09375 24.203125 44.296875 25.59375 44 
C 28.09375 43.59375 30.296875 42.078125 31.796875 39.953125 
C 33.296875 37.515625 33.90625 35.390625 33.90625 31.46875 
L 33.90625 27.015625 
C 29.09375 27.015625 24.296875 26.609375 19.703125 25.390625 
C 13.90625 24.078125 7.59375 21.125 5.5 15.84375 
C 3.40625 10.78125 5.59375 4.078125 10.09375 1.03125 
C 12.296875 -0.5 14.90625 -0.5 17.5 -0.296875 
C 21.703125 0 25.90625 1.015625 29.5 3.25 
C 31.203125 4.25 32.90625 5.578125 33.90625 7.296875 
L 34 7.296875 
L 34 0.203125 
L 40.296875 0.203125 
L 40.296875 26.890625 
C 40.296875 29.8125 40.59375 32.953125 40 35.890625 
C 39.40625 39.921875 36.90625 43.265625 34 45.59375 
C 30.59375 48.21875 26.703125 49.109375 21.5 48.71875 
C 16.703125 48.71875 13 47.5 9.40625 45.765625 
C 8.90625 45.5625 7.90625 45.234375 7.59375 44.640625 
C 7.296875 44.21875 7.5 43.515625 7.5 43 
C 7.703125 41.671875 7.796875 40.34375 7.90625 39.015625 
M 33.90625 24 
L 33.90625 16.375 
C 33.90625 14.0625 34 11.953125 32.703125 9.953125 
C 31.59375 8.34375 30.09375 7.234375 28.5 6.4375 
C 22.796875 3.515625 14.09375 4.421875 11.59375 9.25 
C 9.59375 12.75 11.703125 16.875 14.59375 19.1875 
C 18.90625 22.5 27.296875 24 33.90625 24 
" id="Computer_Modern_Bright-97"/>
      <path d="M 60.5 10.875 
C 58.5 9.859375 56.703125 8.453125 54.703125 7.453125 
C 50 5.046875 44 4.140625 37.5 4.734375 
C 31.703125 5.546875 26.90625 8.359375 23.40625 11.875 
C 12.203125 23.15625 11.40625 42.96875 21.296875 55.34375 
C 25.5 60.875 31.90625 65 41.296875 65 
C 45.09375 65 49 64.296875 52.5 62.890625 
C 54.59375 61.96875 56.59375 60.765625 58.59375 59.765625 
L 59.796875 66.8125 
C 57.59375 67.671875 55.296875 68.5625 53 69.09375 
C 47.40625 70.625 38.90625 70.625 33.09375 69.21875 
C 22.90625 66.921875 15.5 59.828125 11.296875 51.625 
C 5.5 40.015625 6.203125 25.515625 13.203125 14.59375 
C 15 11.703125 17.296875 9.109375 19.90625 6.890625 
C 25.90625 1.6875 33.296875 -1.3125 43.59375 -0.5 
C 49.796875 -0.5 53.40625 0.515625 58.203125 3.203125 
C 58.703125 3.5 60.59375 4.515625 60.90625 4.9375 
C 61.09375 5.4375 60.59375 9.53125 60.5 10.875 
" id="Computer_Modern_Bright-67"/>
      <path d="M 10.703125 42.078125 
C 1.796875 33.234375 0.796875 17.875 8.5 7.9375 
C 9.59375 6.421875 10.90625 5.125 12.40625 4.015625 
C 16.09375 1 21.5 -1.203125 27.796875 -0.5 
C 37.796875 0.703125 44.703125 8.84375 46.796875 17.375 
C 49.59375 29.328125 43.703125 42.671875 32.703125 46.890625 
C 24.09375 50.40625 15.5 46.890625 10.703125 42.078125 
M 35.703125 39.359375 
C 40.5 35.03125 41.40625 28.109375 41 21.984375 
C 40.703125 17.265625 39.40625 12.34375 36.09375 8.828125 
C 30.703125 3 20.703125 3 14.90625 8.625 
C 11.90625 11.84375 10.09375 16.453125 9.796875 21.984375 
C 9.296875 30.109375 11.296875 38.75 19.296875 41.96875 
C 25.203125 44.578125 32 42.671875 35.703125 39.359375 
" id="Computer_Modern_Bright-111"/>
      <path d="M 41.796875 10.9375 
C 39.5 9.234375 38.796875 8.328125 35.90625 6.8125 
C 29.796875 3.5 22.59375 3.5 17.40625 7.171875 
C 12.40625 10.765625 9.5 16.640625 9.5 25 
L 42.5 25 
C 42.5 32.421875 40.796875 38.859375 36.59375 43.375 
C 32 47.890625 24.796875 49.296875 18.703125 47.390625 
C 16.40625 46.6875 14.296875 45.484375 12.40625 43.96875 
C 6.09375 38.859375 3.40625 30.71875 3.5 22.78125 
C 3.703125 12.34375 10.796875 1.90625 21.296875 -0.3125 
C 26.796875 -1.421875 32.59375 -0.203125 37.5 2.296875 
C 38.40625 2.796875 41.703125 4.609375 42.09375 5.515625 
C 42.40625 6.015625 41.796875 10.9375 41.796875 10.9375 
M 37.203125 28.90625 
L 10 28.90625 
C 11.203125 36.234375 17.203125 43.96875 25.296875 43.0625 
C 31.90625 42.46875 35.40625 37.75 36.703125 31.828125 
C 36.90625 30.8125 37 29.921875 37.203125 28.90625 
" id="Computer_Modern_Bright-101"/>
      <path d="M 10.59375 47.015625 
L 2 47.015625 
L 2 42 
L 10.59375 42 
L 10.59375 0 
L 16.90625 0 
L 16.90625 42 
L 30.09375 42 
L 30.09375 47.015625 
L 16.796875 47.015625 
L 16.796875 56.234375 
C 16.796875 57.890625 16.59375 59.65625 17.296875 61.21875 
C 19.5 65.875 25.40625 65.875 29.59375 65.078125 
C 30.59375 64.875 31.703125 64.46875 32.703125 64.265625 
L 32.703125 69.90625 
C 27.703125 70.609375 22.296875 71.21875 17.703125 68.46875 
C 15.796875 67.4375 14.203125 65.6875 13 63.921875 
C 11.09375 60.9375 10.59375 58.78125 10.59375 53.71875 
z
M 38.09375 0 
L 44.40625 0 
L 44.40625 42 
L 57.59375 42 
L 57.59375 47.015625 
L 44.296875 47.015625 
L 44.296875 55.234375 
C 44.296875 56.890625 44.09375 58.65625 44.40625 60.328125 
C 44.90625 62.296875 46.09375 63.65625 47.703125 64.671875 
C 50.796875 66.171875 54.40625 65.078125 57.59375 64.171875 
L 57.59375 70 
C 55.09375 70.1875 52.703125 70.6875 50.203125 70.5 
C 43.40625 70 38.59375 64.046875 38.09375 57.3125 
C 38 55.890625 38.09375 54.375 38.09375 52.96875 
z
M 65.59375 70 
L 65.59375 63.671875 
L 71.90625 63.671875 
L 71.90625 70 
z
M 65.59375 47.390625 
L 65.59375 0 
L 71.90625 0 
L 71.90625 47.390625 
z
" id="Computer_Modern_Bright-14"/>
      <path d="M 42.40625 11.25 
C 40.5 9.84375 38.796875 8.328125 36.703125 7.125 
C 32 4.625 24.796875 3.421875 19.40625 5.921875 
C 11.59375 9.9375 9.5 19.6875 10.59375 27.71875 
C 10.796875 29.328125 11.09375 30.921875 11.59375 32.4375 
C 13.796875 38.96875 19.296875 44.078125 28.296875 43.078125 
C 33.09375 42.671875 35.5 41.875 39.296875 39.765625 
C 40 39.359375 40.59375 38.859375 41.40625 38.65625 
C 41.5 39.859375 41.796875 41.171875 42 42.375 
C 42.296875 43.984375 42.296875 44.1875 40.796875 44.890625 
C 39.703125 45.390625 38.59375 45.984375 37.40625 46.390625 
C 32.796875 48.40625 25.203125 49 20 47.5 
C 12.90625 45.484375 7.59375 39.359375 5.296875 32.53125 
C 4.203125 29.421875 3.90625 26.109375 3.90625 22.796875 
C 4 12.25 11.203125 1.90625 21.703125 -0.203125 
C 27.5 -1.40625 34.203125 0.296875 38.203125 2.40625 
C 39.203125 2.90625 42.203125 4.71875 42.703125 5.625 
C 43 6.125 42.40625 11.25 42.40625 11.25 
" id="Computer_Modern_Bright-99"/>
      <path d="M 12.59375 37.28125 
L 12.5 37.28125 
L 12.5 47.390625 
L 6.40625 47.390625 
L 6.40625 0 
L 12.796875 0 
L 12.796875 21.9375 
C 12.796875 26.84375 12.5 31.875 14.703125 36.46875 
C 15.796875 38.78125 17.5 40.78125 19.796875 41.984375 
C 21.703125 42.890625 23.703125 42.890625 25.796875 42.6875 
C 28.796875 42.6875 31.703125 41.890625 33.59375 39.375 
C 35.40625 37.0625 35.5 34.0625 35.5 31.25 
L 35.5 0 
L 41.90625 0 
L 41.90625 26.859375 
C 41.90625 31.875 42.40625 37.375 40 41.890625 
C 38.09375 45.5 34.40625 47.203125 30.5 47.703125 
C 28.5 48 26.40625 48 24.40625 47.609375 
C 19.203125 46.5 14.40625 42.296875 12.59375 37.28125 
" id="Computer_Modern_Bright-110"/>
     </defs>
     <g style="fill:#262626;" transform="translate(205.672064 343.359582)scale(0.18 -0.18)">
      <use transform="scale(0.996264)" xlink:href="#Computer_Modern_Bright-69"/>
      <use transform="translate(58.737787 0)scale(0.996264)" xlink:href="#Computer_Modern_Bright-112"/>
      <use transform="translate(106.890284 0)scale(0.996264)" xlink:href="#Computer_Modern_Bright-105"/>
      <use transform="translate(125.985243 0)scale(0.996264)" xlink:href="#Computer_Modern_Bright-115"/>
      <use transform="translate(164.424272 0)scale(0.996264)" xlink:href="#Computer_Modern_Bright-116"/>
      <use transform="translate(200.53866 0)scale(0.996264)" xlink:href="#Computer_Modern_Bright-97"/>
      <use transform="translate(247.030742 0)scale(0.996264)" xlink:href="#Computer_Modern_Bright-115"/>
      <use transform="translate(285.469772 0)scale(0.996264)" xlink:href="#Computer_Modern_Bright-105"/>
      <use transform="translate(304.56473 0)scale(0.996264)" xlink:href="#Computer_Modern_Bright-115"/>
      <use transform="translate(374.468971 0)scale(0.996264)" xlink:href="#Computer_Modern_Bright-67"/>
      <use transform="translate(439.641004 0)scale(0.996264)" xlink:href="#Computer_Modern_Bright-111"/>
      <use transform="translate(490.284222 0)scale(0.996264)" xlink:href="#Computer_Modern_Bright-101"/>
      <use transform="translate(535.115889 0)scale(0.996264)" xlink:href="#Computer_Modern_Bright-14"/>
      <use transform="translate(613.156322 0)scale(0.996264)" xlink:href="#Computer_Modern_Bright-99"/>
      <use transform="translate(657.987989 0)scale(0.996264)" xlink:href="#Computer_Modern_Bright-105"/>
      <use transform="translate(677.082948 0)scale(0.996264)" xlink:href="#Computer_Modern_Bright-101"/>
      <use transform="translate(721.914616 0)scale(0.996264)" xlink:href="#Computer_Modern_Bright-110"/>
      <use transform="translate(770.067113 0)scale(0.996264)" xlink:href="#Computer_Modern_Bright-116"/>
     </g>
    </g>
   </g>
   <g id="matplotlib.axis_2">
    <g id="ytick_1">
     <g id="line2d_8"/>
     <g id="text_9">
      <!-- $0.0$ -->
      <g style="fill:#262626;" transform="translate(26.642062 298.124802)scale(0.16 -0.16)">
       <use transform="scale(0.996264)" xlink:href="#Computer_Modern_Bright-48"/>
       <use transform="translate(50.643218 0)scale(0.996264)" xlink:href="#Computer_Modern_Bright_Math_Slanted-58"/>
       <use transform="translate(79.700665 0)scale(0.996264)" xlink:href="#Computer_Modern_Bright-48"/>
      </g>
     </g>
    </g>
    <g id="ytick_2">
     <g id="line2d_9"/>
     <g id="text_10">
      <!-- $0.2$ -->
      <g style="fill:#262626;" transform="translate(26.642062 243.764068)scale(0.16 -0.16)">
       <use transform="scale(0.996264)" xlink:href="#Computer_Modern_Bright-48"/>
       <use transform="translate(50.643218 0)scale(0.996264)" xlink:href="#Computer_Modern_Bright_Math_Slanted-58"/>
       <use transform="translate(79.700665 0)scale(0.996264)" xlink:href="#Computer_Modern_Bright-50"/>
      </g>
     </g>
    </g>
    <g id="ytick_3">
     <g id="line2d_10"/>
     <g id="text_11">
      <!-- $0.4$ -->
      <g style="fill:#262626;" transform="translate(26.642062 189.403334)scale(0.16 -0.16)">
       <use transform="scale(0.996264)" xlink:href="#Computer_Modern_Bright-48"/>
       <use transform="translate(50.643218 0)scale(0.996264)" xlink:href="#Computer_Modern_Bright_Math_Slanted-58"/>
       <use transform="translate(79.700665 0)scale(0.996264)" xlink:href="#Computer_Modern_Bright-52"/>
      </g>
     </g>
    </g>
    <g id="ytick_4">
     <g id="line2d_11"/>
     <g id="text_12">
      <!-- $0.6$ -->
      <g style="fill:#262626;" transform="translate(26.642062 135.0426)scale(0.16 -0.16)">
       <use transform="scale(0.996264)" xlink:href="#Computer_Modern_Bright-48"/>
       <use transform="translate(50.643218 0)scale(0.996264)" xlink:href="#Computer_Modern_Bright_Math_Slanted-58"/>
       <use transform="translate(79.700665 0)scale(0.996264)" xlink:href="#Computer_Modern_Bright-54"/>
      </g>
     </g>
    </g>
    <g id="ytick_5">
     <g id="line2d_12"/>
     <g id="text_13">
      <!-- $0.8$ -->
      <defs>
       <path d="M 18.703125 36 
L 18.703125 35.90625 
C 12.5 34.09375 7.296875 30.6875 4.796875 24.84375 
C 2.203125 18.71875 4 11.28125 8.40625 6.453125 
C 13.09375 1.421875 19.5 -1 26.296875 -1 
C 36.296875 -1 45.90625 6.40625 47.09375 16.734375 
C 47.296875 18.265625 47.203125 19.890625 47 21.40625 
C 45.203125 29.21875 39.5 33.875 32.09375 35.90625 
C 32.90625 36.203125 33.796875 36.40625 34.59375 36.703125 
C 38.796875 38.421875 42.296875 40.921875 44.5 44.9375 
C 47.796875 51.375 44.59375 58.90625 39.203125 63.015625 
C 33.796875 67.140625 26.5 68.234375 19.90625 66.828125 
C 12 65.125 4.5 58.40625 5 49.765625 
C 5.203125 46.75 6.5 44.234375 8 42.4375 
C 10.296875 39.625 14.796875 36.609375 18.703125 36 
M 23.796875 62.5 
C 28.203125 62.5 33.703125 62 36.90625 58.578125 
C 40.703125 54.46875 40.90625 47.03125 37.09375 42.8125 
C 34.703125 40.203125 31.203125 38.890625 27.703125 38.59375 
C 22.796875 38.1875 17.203125 39 13.703125 42.8125 
C 9.796875 47.125 10.09375 54.96875 14.296875 58.984375 
C 16.90625 61.390625 20.40625 62.1875 23.796875 62.5 
M 23.703125 33.5 
C 28.40625 33.5 33.5 32.390625 36.90625 28.9375 
C 38.203125 27.53125 39.203125 25.8125 39.796875 24.015625 
C 41.5 18.75 40.703125 12.09375 36.796875 8.046875 
C 34.09375 5.328125 30.40625 4.3125 26.703125 4.015625 
C 22.203125 4.015625 17 5.109375 13.796875 8.5625 
C 9.40625 13.390625 8.5 23.40625 13.703125 29.0625 
C 16.296875 31.78125 20 33.203125 23.703125 33.5 
" id="Computer_Modern_Bright-56"/>
      </defs>
      <g style="fill:#262626;" transform="translate(26.642062 80.681866)scale(0.16 -0.16)">
       <use transform="scale(0.996264)" xlink:href="#Computer_Modern_Bright-48"/>
       <use transform="translate(50.643218 0)scale(0.996264)" xlink:href="#Computer_Modern_Bright_Math_Slanted-58"/>
       <use transform="translate(79.700665 0)scale(0.996264)" xlink:href="#Computer_Modern_Bright-56"/>
      </g>
     </g>
    </g>
    <g id="ytick_6">
     <g id="line2d_13"/>
     <g id="text_14">
      <!-- $1.0$ -->
      <g style="fill:#262626;" transform="translate(26.642062 26.321132)scale(0.16 -0.16)">
       <use transform="scale(0.996264)" xlink:href="#Computer_Modern_Bright-49"/>
       <use transform="translate(50.643218 0)scale(0.996264)" xlink:href="#Computer_Modern_Bright_Math_Slanted-58"/>
       <use transform="translate(79.700665 0)scale(0.996264)" xlink:href="#Computer_Modern_Bright-48"/>
      </g>
     </g>
    </g>
    <g id="text_15">
     <!-- Cumulative Density Function -->
     <defs>
      <path d="M 6.40625 47 
L 6.40625 12.96875 
C 6.40625 10.046875 6.5 7.140625 7.703125 4.421875 
C 9.59375 0.515625 13.59375 -1 17.703125 -1 
C 23.203125 -1 28.703125 0.8125 32.703125 4.734375 
C 33.796875 5.828125 34.796875 6.9375 35.5 8.34375 
L 35.59375 8.34375 
L 35.59375 -0.390625 
L 41.90625 -0.390625 
L 41.90625 47 
L 35.5 47 
L 35.5 22.90625 
C 35.5 18.6875 36.09375 14.0625 33.90625 10.25 
C 32.296875 7.4375 29.5 5.234375 26.40625 4.234375 
C 24.296875 3.625 22.09375 3.625 19.90625 3.828125 
C 17.796875 4.03125 15.5 4.234375 14.09375 6.03125 
C 12.09375 8.453125 12.796875 14.171875 12.796875 17.6875 
L 12.796875 47 
z
" id="Computer_Modern_Bright-117"/>
      <path d="M 12.59375 37.359375 
L 12.5 37.359375 
L 12.5 47.390625 
L 6.40625 47.390625 
L 6.40625 0 
L 12.796875 0 
L 12.796875 22.046875 
C 12.796875 26.953125 12.5 31.875 14.703125 36.375 
C 16.59375 40.28125 19.90625 43.390625 25.796875 42.78125 
C 28.796875 42.78125 31.796875 41.984375 33.703125 39.453125 
C 35.5 37.140625 35.59375 34.140625 35.59375 31.3125 
L 35.59375 0 
L 42 0 
L 42 22.046875 
C 42 26.953125 41.703125 31.875 43.90625 36.375 
C 45.796875 40.28125 49.09375 43.390625 55 42.78125 
C 58 42.78125 61 41.984375 62.90625 39.453125 
C 64.703125 37.140625 64.796875 34.140625 64.796875 31.3125 
L 64.796875 0 
L 71.203125 0 
L 71.203125 26.5625 
C 71.203125 31.375 71.796875 36.78125 69.703125 41.1875 
C 67.59375 45.296875 64.203125 47.5 58.703125 47.5 
C 55.5 47.796875 52.296875 47.3125 49.40625 45.84375 
C 45.90625 43.921875 43.296875 40.75 41.703125 37.265625 
C 41 40.578125 40.203125 42.828125 38 45 
C 35.703125 47.0625 32.59375 48 29.59375 48 
C 22.296875 48.59375 17.703125 45.5625 14.59375 41 
C 13.796875 39.875 13 38.671875 12.59375 37.359375 
" id="Computer_Modern_Bright-109"/>
      <path d="M 6.40625 69.6875 
L 6.40625 0 
L 12.703125 0 
L 12.703125 69.6875 
z
" id="Computer_Modern_Bright-108"/>
      <path d="M 0.703125 47.5 
C 1.203125 45.5 4.203125 37.578125 4.40625 37.078125 
C 5.40625 34.28125 17.296875 0.609375 17.59375 0.296875 
C 17.90625 -0.203125 18.796875 0 19.296875 0 
L 22.796875 0 
C 24.09375 0 24.90625 -0.296875 25.203125 0.90625 
C 28.40625 9.328125 40.09375 42.703125 41.796875 47.5 
L 35.59375 47.5 
C 30.796875 33.984375 25.90625 20.4375 21.40625 6.609375 
L 11 36.203125 
C 9.5 39.796875 8.59375 43.890625 6.90625 47.203125 
C 5.09375 47.5 2.796875 47.5 0.703125 47.5 
" id="Computer_Modern_Bright-118"/>
      <path d="M 8 70 
L 8 0 
L 28.203125 0 
C 31.40625 0 34.59375 0 37.703125 0.296875 
C 45.703125 1.109375 52.59375 5.015625 57.203125 9.828125 
C 70.09375 23.171875 70 46.125 57.296875 59.671875 
C 52.703125 64.578125 46.5 68.5 38.703125 69.5 
C 34.90625 70 31 70 27.203125 70 
z
M 14.90625 5.3125 
L 14.90625 64.5625 
L 27.796875 64.5625 
C 30.5 64.5625 33.203125 64.5625 35.90625 64.359375 
C 40.40625 63.859375 44.796875 62.359375 48.5 59.734375 
C 56.59375 54.125 60 44.171875 60 34.640625 
C 60 26.609375 57.796875 18.375 51.90625 12.640625 
C 47.90625 8.9375 42.5 6.21875 36 5.515625 
C 33.40625 5.3125 30.703125 5.3125 28.09375 5.3125 
z
" id="Computer_Modern_Bright-68"/>
      <path d="M 0.703125 47.65625 
C 1.296875 45.75 5.40625 35.609375 5.5 35.3125 
L 17.40625 4.578125 
L 18.40625 2.078125 
C 19 0.671875 19.203125 0.46875 18.59375 -1.140625 
L 17.5 -4.046875 
C 16.59375 -6.46875 15.59375 -8.96875 13.703125 -10.484375 
C 10.296875 -13.296875 4.90625 -11.6875 0.796875 -10.78125 
L 1.296875 -16.5 
C 3.203125 -16.796875 5.09375 -17 7 -17 
C 11.296875 -17.515625 14.09375 -16.5 16.703125 -14.296875 
C 20 -11.484375 21.59375 -7.5625 23.09375 -3.546875 
L 26.203125 5.078125 
L 36.40625 32.90625 
C 38.09375 37.921875 40.203125 42.640625 41.796875 47.65625 
L 37.296875 47.65625 
C 36.796875 47.65625 36 47.859375 35.59375 47.46875 
C 35.40625 47.15625 35.296875 46.765625 35.203125 46.453125 
L 34.40625 44.34375 
C 33.40625 41.734375 32.5 39.234375 31.59375 36.609375 
L 25.796875 20.25 
C 24.296875 15.828125 22.59375 11.3125 21.796875 6.6875 
C 20.703125 11.3125 19.203125 15.734375 17.59375 20.140625 
C 16.296875 23.5625 8.5 44.546875 7.5 46.5625 
C 7.09375 47.65625 6.703125 47.65625 5.203125 47.65625 
z
" id="Computer_Modern_Bright-121"/>
      <path d="M 8 69.328125 
L 8 0 
L 15 0 
L 15 32 
L 48.09375 32 
L 48.09375 37.3125 
L 15 37.3125 
L 15 64 
L 52.40625 64 
L 52.40625 69.328125 
z
" id="Computer_Modern_Bright-70"/>
     </defs>
     <g style="fill:#262626;" transform="translate(19.65327 260.669538)rotate(-90)scale(0.18 -0.18)">
      <use transform="scale(0.996264)" xlink:href="#Computer_Modern_Bright-67"/>
      <use transform="translate(65.172032 0)scale(0.996264)" xlink:href="#Computer_Modern_Bright-117"/>
      <use transform="translate(113.324529 0)scale(0.996264)" xlink:href="#Computer_Modern_Bright-109"/>
      <use transform="translate(190.534656 0)scale(0.996264)" xlink:href="#Computer_Modern_Bright-117"/>
      <use transform="translate(238.687153 0)scale(0.996264)" xlink:href="#Computer_Modern_Bright-108"/>
      <use transform="translate(257.782112 0)scale(0.996264)" xlink:href="#Computer_Modern_Bright-97"/>
      <use transform="translate(304.274194 0)scale(0.996264)" xlink:href="#Computer_Modern_Bright-116"/>
      <use transform="translate(340.388582 0)scale(0.996264)" xlink:href="#Computer_Modern_Bright-105"/>
      <use transform="translate(359.483541 0)scale(0.996264)" xlink:href="#Computer_Modern_Bright-118"/>
      <use transform="translate(401.824579 0)scale(0.996264)" xlink:href="#Computer_Modern_Bright-101"/>
      <use transform="translate(478.121458 0)scale(0.996264)" xlink:href="#Computer_Modern_Bright-68"/>
      <use transform="translate(549.727645 0)scale(0.996264)" xlink:href="#Computer_Modern_Bright-101"/>
      <use transform="translate(594.559312 0)scale(0.996264)" xlink:href="#Computer_Modern_Bright-110"/>
      <use transform="translate(642.711809 0)scale(0.996264)" xlink:href="#Computer_Modern_Bright-115"/>
      <use transform="translate(681.150839 0)scale(0.996264)" xlink:href="#Computer_Modern_Bright-105"/>
      <use transform="translate(700.245798 0)scale(0.996264)" xlink:href="#Computer_Modern_Bright-116"/>
      <use transform="translate(733.454456 0)scale(0.996264)" xlink:href="#Computer_Modern_Bright-121"/>
      <use transform="translate(807.260706 0)scale(0.996264)" xlink:href="#Computer_Modern_Bright-70"/>
      <use transform="translate(860.187034 0)scale(0.996264)" xlink:href="#Computer_Modern_Bright-117"/>
      <use transform="translate(908.339531 0)scale(0.996264)" xlink:href="#Computer_Modern_Bright-110"/>
      <use transform="translate(956.492028 0)scale(0.996264)" xlink:href="#Computer_Modern_Bright-99"/>
      <use transform="translate(1001.323695 0)scale(0.996264)" xlink:href="#Computer_Modern_Bright-116"/>
      <use transform="translate(1037.438083 0)scale(0.996264)" xlink:href="#Computer_Modern_Bright-105"/>
      <use transform="translate(1056.533042 0)scale(0.996264)" xlink:href="#Computer_Modern_Bright-111"/>
      <use transform="translate(1107.17626 0)scale(0.996264)" xlink:href="#Computer_Modern_Bright-110"/>
     </g>
    </g>
   </g>
   <g id="PolyCollection_1">
    <path clip-path="url(#p1cca288b93)" d="M 148.553616 292.586323 
L 148.553616 292.59 
L 148.741307 292.59 
L 148.928998 292.59 
L 149.116689 292.59 
L 149.30438 292.59 
L 149.492071 292.59 
L 149.679761 292.59 
L 149.867452 292.59 
L 150.055143 292.59 
L 150.242834 292.59 
L 150.430525 292.59 
L 150.618216 292.59 
L 150.805907 292.59 
L 150.993598 292.59 
L 151.181289 292.59 
L 151.36898 292.59 
L 151.556671 292.59 
L 151.744362 292.59 
L 151.932053 292.59 
L 152.119744 292.59 
L 152.307435 292.59 
L 152.495126 292.59 
L 152.682817 292.59 
L 152.870508 292.59 
L 153.058199 292.59 
L 153.24589 292.59 
L 153.433581 292.59 
L 153.621272 292.59 
L 153.808963 292.59 
L 153.996653 292.59 
L 154.184344 292.59 
L 154.372035 292.59 
L 154.559726 292.59 
L 154.747417 292.59 
L 154.935108 292.59 
L 155.122799 292.59 
L 155.31049 292.59 
L 155.498181 292.59 
L 155.685872 292.59 
L 155.873563 292.59 
L 156.061254 292.59 
L 156.248945 292.59 
L 156.436636 292.59 
L 156.624327 292.59 
L 156.812018 292.59 
L 156.999709 292.59 
L 157.1874 292.59 
L 157.375091 292.59 
L 157.562782 292.59 
L 157.750473 292.59 
L 157.938164 292.59 
L 158.125855 292.59 
L 158.313546 292.59 
L 158.501236 292.59 
L 158.688927 292.59 
L 158.876618 292.59 
L 159.064309 292.59 
L 159.252 292.59 
L 159.439691 292.59 
L 159.627382 292.59 
L 159.815073 292.59 
L 160.002764 292.59 
L 160.190455 292.59 
L 160.378146 292.59 
L 160.565837 292.59 
L 160.753528 292.59 
L 160.941219 292.59 
L 161.12891 292.59 
L 161.316601 292.59 
L 161.504292 292.59 
L 161.691983 292.59 
L 161.879674 292.59 
L 162.067365 292.59 
L 162.255056 292.59 
L 162.442747 292.59 
L 162.630438 292.59 
L 162.818128 292.59 
L 163.005819 292.59 
L 163.19351 292.59 
L 163.381201 292.59 
L 163.568892 292.59 
L 163.756583 292.59 
L 163.944274 292.59 
L 164.131965 292.59 
L 164.319656 292.59 
L 164.507347 292.59 
L 164.695038 292.59 
L 164.882729 292.59 
L 165.07042 292.59 
L 165.258111 292.59 
L 165.445802 292.59 
L 165.633493 292.59 
L 165.821184 292.59 
L 166.008875 292.59 
L 166.196566 292.59 
L 166.384257 292.59 
L 166.571948 292.59 
L 166.759639 292.59 
L 166.94733 292.59 
L 167.135021 292.59 
L 167.322711 292.59 
L 167.510402 292.59 
L 167.698093 292.59 
L 167.885784 292.59 
L 168.073475 292.59 
L 168.261166 292.59 
L 168.448857 292.59 
L 168.636548 292.59 
L 168.824239 292.59 
L 169.01193 292.59 
L 169.199621 292.59 
L 169.387312 292.59 
L 169.575003 292.59 
L 169.762694 292.59 
L 169.950385 292.59 
L 170.138076 292.59 
L 170.325767 292.59 
L 170.513458 292.59 
L 170.701149 292.59 
L 170.88884 292.59 
L 171.076531 292.59 
L 171.264222 292.59 
L 171.451913 292.59 
L 171.639603 292.59 
L 171.827294 292.59 
L 172.014985 292.59 
L 172.202676 292.59 
L 172.390367 292.59 
L 172.390367 20.790239 
L 172.390367 20.790239 
L 172.202676 20.79307 
L 172.014985 20.797668 
L 171.827294 20.80494 
L 171.639603 20.816147 
L 171.451913 20.832977 
L 171.264222 20.857615 
L 171.076531 20.892788 
L 170.88884 20.941769 
L 170.701149 21.008333 
L 170.513458 21.096645 
L 170.325767 21.21109 
L 170.138076 21.356024 
L 169.950385 21.535496 
L 169.762694 21.752937 
L 169.575003 22.010868 
L 169.387312 22.31066 
L 169.199621 22.652392 
L 169.01193 23.034846 
L 168.824239 23.455664 
L 168.636548 23.911698 
L 168.448857 24.399545 
L 168.261166 24.916255 
L 168.073475 25.460176 
L 167.885784 26.031864 
L 167.698093 26.634963 
L 167.510402 27.276966 
L 167.322711 27.969703 
L 167.135021 28.729485 
L 166.94733 29.576772 
L 166.759639 30.535364 
L 166.571948 31.631084 
L 166.384257 32.89008 
L 166.196566 34.336855 
L 166.008875 35.99225 
L 165.821184 37.871616 
L 165.633493 39.9834 
L 165.445802 42.328373 
L 165.258111 44.899645 
L 165.07042 47.683536 
L 164.882729 50.66127 
L 164.695038 53.811316 
L 164.507347 57.112154 
L 164.319656 60.545084 
L 164.131965 64.096714 
L 163.944274 67.760756 
L 163.756583 71.538799 
L 163.568892 75.439913 
L 163.381201 79.479052 
L 163.19351 83.674476 
L 163.005819 88.044537 
L 162.818128 92.604359 
L 162.630438 97.362941 
L 162.442747 102.321213 
L 162.255056 107.471382 
L 162.067365 112.797718 
L 161.879674 118.278654 
L 161.691983 123.889819 
L 161.504292 129.60746 
L 161.316601 135.411621 
L 161.12891 141.288465 
L 160.941219 147.231304 
L 160.753528 153.240108 
L 160.565837 159.319545 
L 160.378146 165.475884 
L 160.190455 171.71326 
L 160.002764 178.029963 
L 159.815073 184.415388 
L 159.627382 190.84819 
L 159.439691 197.295999 
L 159.252 203.716768 
L 159.064309 210.061581 
L 158.876618 216.27848 
L 158.688927 222.316718 
L 158.501236 228.130779 
L 158.313546 233.683566 
L 158.125855 238.948321 
L 157.938164 243.909093 
L 157.750473 248.559793 
L 157.562782 252.902169 
L 157.375091 256.943142 
L 157.1874 260.69204 
L 156.999709 264.158235 
L 156.812018 267.349526 
L 156.624327 270.271489 
L 156.436636 272.927755 
L 156.248945 275.321049 
L 156.061254 277.454681 
L 155.873563 279.334121 
L 155.685872 280.968336 
L 155.498181 282.370609 
L 155.31049 283.558721 
L 155.122799 284.55446 
L 154.935108 285.382592 
L 154.747417 286.069461 
L 154.559726 286.641454 
L 154.372035 287.123567 
L 154.184344 287.538236 
L 153.996653 287.904546 
L 153.808963 288.237869 
L 153.621272 288.549876 
L 153.433581 288.84884 
L 153.24589 289.140128 
L 153.058199 289.426756 
L 152.870508 289.709919 
L 152.682817 289.989449 
L 152.495126 290.264172 
L 152.307435 290.532181 
L 152.119744 290.79106 
L 151.932053 291.038093 
L 151.744362 291.270477 
L 151.556671 291.485556 
L 151.36898 291.681054 
L 151.181289 291.855283 
L 150.993598 292.007304 
L 150.805907 292.137005 
L 150.618216 292.245094 
L 150.430525 292.333001 
L 150.242834 292.402723 
L 150.055143 292.456617 
L 149.867452 292.497201 
L 149.679761 292.526961 
L 149.492071 292.548205 
L 149.30438 292.562965 
L 149.116689 292.572944 
L 148.928998 292.579508 
L 148.741307 292.583708 
L 148.553616 292.586323 
z
" style="fill:#1f78b4;fill-opacity:0.25;"/>
   </g>
   <g id="PolyCollection_2">
    <path clip-path="url(#p1cca288b93)" d="M 75.319264 292.585378 
L 75.319264 292.59 
L 75.712641 292.59 
L 76.106018 292.59 
L 76.499395 292.59 
L 76.892772 292.59 
L 77.286149 292.59 
L 77.679526 292.59 
L 78.072903 292.59 
L 78.466281 292.59 
L 78.859658 292.59 
L 79.253035 292.59 
L 79.646412 292.59 
L 80.039789 292.59 
L 80.433166 292.59 
L 80.826543 292.59 
L 81.21992 292.59 
L 81.613297 292.59 
L 82.006674 292.59 
L 82.400051 292.59 
L 82.793428 292.59 
L 83.186805 292.59 
L 83.580183 292.59 
L 83.97356 292.59 
L 84.366937 292.59 
L 84.760314 292.59 
L 85.153691 292.59 
L 85.547068 292.59 
L 85.940445 292.59 
L 86.333822 292.59 
L 86.727199 292.59 
L 87.120576 292.59 
L 87.513953 292.59 
L 87.90733 292.59 
L 88.300707 292.59 
L 88.694085 292.59 
L 89.087462 292.59 
L 89.480839 292.59 
L 89.874216 292.59 
L 90.267593 292.59 
L 90.66097 292.59 
L 91.054347 292.59 
L 91.447724 292.59 
L 91.841101 292.59 
L 92.234478 292.59 
L 92.627855 292.59 
L 93.021232 292.59 
L 93.414609 292.59 
L 93.807987 292.59 
L 94.201364 292.59 
L 94.594741 292.59 
L 94.988118 292.59 
L 95.381495 292.59 
L 95.774872 292.59 
L 96.168249 292.59 
L 96.561626 292.59 
L 96.955003 292.59 
L 97.34838 292.59 
L 97.741757 292.59 
L 98.135134 292.59 
L 98.528512 292.59 
L 98.921889 292.59 
L 99.315266 292.59 
L 99.708643 292.59 
L 100.10202 292.59 
L 100.495397 292.59 
L 100.888774 292.59 
L 101.282151 292.59 
L 101.675528 292.59 
L 102.068905 292.59 
L 102.462282 292.59 
L 102.855659 292.59 
L 103.249036 292.59 
L 103.642414 292.59 
L 104.035791 292.59 
L 104.429168 292.59 
L 104.822545 292.59 
L 105.215922 292.59 
L 105.609299 292.59 
L 106.002676 292.59 
L 106.396053 292.59 
L 106.78943 292.59 
L 107.182807 292.59 
L 107.576184 292.59 
L 107.969561 292.59 
L 108.362938 292.59 
L 108.756316 292.59 
L 109.149693 292.59 
L 109.54307 292.59 
L 109.936447 292.59 
L 110.329824 292.59 
L 110.723201 292.59 
L 111.116578 292.59 
L 111.509955 292.59 
L 111.903332 292.59 
L 112.296709 292.59 
L 112.690086 292.59 
L 113.083463 292.59 
L 113.47684 292.59 
L 113.870218 292.59 
L 114.263595 292.59 
L 114.656972 292.59 
L 115.050349 292.59 
L 115.443726 292.59 
L 115.837103 292.59 
L 116.23048 292.59 
L 116.623857 292.59 
L 117.017234 292.59 
L 117.410611 292.59 
L 117.803988 292.59 
L 118.197365 292.59 
L 118.590742 292.59 
L 118.98412 292.59 
L 119.377497 292.59 
L 119.770874 292.59 
L 120.164251 292.59 
L 120.557628 292.59 
L 120.951005 292.59 
L 121.344382 292.59 
L 121.737759 292.59 
L 122.131136 292.59 
L 122.524513 292.59 
L 122.91789 292.59 
L 123.311267 292.59 
L 123.704644 292.59 
L 124.098022 292.59 
L 124.491399 292.59 
L 124.884776 292.59 
L 125.278153 292.59 
L 125.278153 20.790704 
L 125.278153 20.790704 
L 124.884776 20.793331 
L 124.491399 20.797346 
L 124.098022 20.803374 
L 123.704644 20.812268 
L 123.311267 20.825164 
L 122.91789 20.843549 
L 122.524513 20.869328 
L 122.131136 20.90489 
L 121.737759 20.953176 
L 121.344382 21.017733 
L 120.951005 21.102759 
L 120.557628 21.213134 
L 120.164251 21.354421 
L 119.770874 21.532859 
L 119.377497 21.75532 
L 118.98412 22.029251 
L 118.590742 22.362584 
L 118.197365 22.763634 
L 117.803988 23.240965 
L 117.410611 23.803246 
L 117.017234 24.459088 
L 116.623857 25.216873 
L 116.23048 26.084578 
L 115.837103 27.069605 
L 115.443726 28.178632 
L 115.050349 29.417485 
L 114.656972 30.791053 
L 114.263595 32.303253 
L 113.870218 33.957041 
L 113.47684 35.754479 
L 113.083463 37.696849 
L 112.690086 39.7848 
L 112.296709 42.018524 
L 111.903332 44.397944 
L 111.509955 46.922913 
L 111.116578 49.593398 
L 110.723201 52.409667 
L 110.329824 55.372455 
L 109.936447 58.483112 
L 109.54307 61.743716 
L 109.149693 65.157134 
L 108.756316 68.727014 
L 108.362938 72.457686 
L 107.969561 76.353939 
L 107.576184 80.420698 
L 107.182807 84.662566 
L 106.78943 89.08329 
L 106.396053 93.685164 
L 106.002676 98.468427 
L 105.609299 103.430706 
L 105.215922 108.566558 
L 104.822545 113.867151 
L 104.429168 119.3201 
L 104.035791 124.909492 
L 103.642414 130.616066 
L 103.249036 136.417565 
L 102.855659 142.289214 
L 102.462282 148.20432 
L 102.068905 154.134956 
L 101.675528 160.052718 
L 101.282151 165.92951 
L 100.888774 171.738341 
L 100.495397 177.454078 
L 100.10202 183.054129 
L 99.708643 188.518989 
L 99.315266 193.832627 
L 98.921889 198.982677 
L 98.528512 203.960419 
L 98.135134 208.760559 
L 97.741757 213.380848 
L 97.34838 217.821566 
L 96.955003 222.084954 
L 96.561626 226.17463 
L 96.168249 230.095048 
L 95.774872 233.851053 
L 95.381495 237.44753 
L 94.988118 240.889171 
L 94.594741 244.180341 
L 94.201364 247.325034 
L 93.807987 250.326876 
L 93.414609 253.189182 
L 93.021232 255.91502 
L 92.627855 258.507286 
L 92.234478 260.968781 
L 91.841101 263.302285 
L 91.447724 265.510634 
L 91.054347 267.596792 
L 90.66097 269.563927 
L 90.267593 271.415478 
L 89.874216 273.155217 
L 89.480839 274.787282 
L 89.087462 276.316188 
L 88.694085 277.746794 
L 88.300707 279.084234 
L 87.90733 280.333804 
L 87.513953 281.50081 
L 87.120576 282.590399 
L 86.727199 283.607382 
L 86.333822 284.556074 
L 85.940445 285.440168 
L 85.547068 286.262663 
L 85.153691 287.025863 
L 84.760314 287.731435 
L 84.366937 288.380542 
L 83.97356 288.974023 
L 83.580183 289.512596 
L 83.186805 289.997079 
L 82.793428 290.428579 
L 82.400051 290.808652 
L 82.006674 291.139397 
L 81.613297 291.423493 
L 81.21992 291.664171 
L 80.826543 291.865124 
L 80.433166 292.03039 
L 80.039789 292.164191 
L 79.646412 292.270786 
L 79.253035 292.354314 
L 78.859658 292.418672 
L 78.466281 292.467416 
L 78.072903 292.503695 
L 77.679526 292.530225 
L 77.286149 292.549282 
L 76.892772 292.562727 
L 76.499395 292.57204 
L 76.106018 292.578375 
L 75.712641 292.582605 
L 75.319264 292.585378 
z
" style="fill-opacity:0.25;"/>
   </g>
   <g id="PolyCollection_3">
    <path clip-path="url(#p1cca288b93)" d="M 185.503455 292.586219 
L 185.503455 292.59 
L 185.92182 292.59 
L 186.340184 292.59 
L 186.758549 292.59 
L 187.176913 292.59 
L 187.595278 292.59 
L 188.013643 292.59 
L 188.432007 292.59 
L 188.850372 292.59 
L 189.268736 292.59 
L 189.687101 292.59 
L 190.105465 292.59 
L 190.52383 292.59 
L 190.942194 292.59 
L 191.360559 292.59 
L 191.778923 292.59 
L 192.197288 292.59 
L 192.615652 292.59 
L 193.034017 292.59 
L 193.452381 292.59 
L 193.870746 292.59 
L 194.28911 292.59 
L 194.707475 292.59 
L 195.12584 292.59 
L 195.544204 292.59 
L 195.962569 292.59 
L 196.380933 292.59 
L 196.799298 292.59 
L 197.217662 292.59 
L 197.636027 292.59 
L 198.054391 292.59 
L 198.472756 292.59 
L 198.89112 292.59 
L 199.309485 292.59 
L 199.727849 292.59 
L 200.146214 292.59 
L 200.564578 292.59 
L 200.982943 292.59 
L 201.401308 292.59 
L 201.819672 292.59 
L 202.238037 292.59 
L 202.656401 292.59 
L 203.074766 292.59 
L 203.49313 292.59 
L 203.911495 292.59 
L 204.329859 292.59 
L 204.748224 292.59 
L 205.166588 292.59 
L 205.584953 292.59 
L 206.003317 292.59 
L 206.421682 292.59 
L 206.840046 292.59 
L 207.258411 292.59 
L 207.676775 292.59 
L 208.09514 292.59 
L 208.513505 292.59 
L 208.931869 292.59 
L 209.350234 292.59 
L 209.768598 292.59 
L 210.186963 292.59 
L 210.605327 292.59 
L 211.023692 292.59 
L 211.442056 292.59 
L 211.860421 292.59 
L 212.278785 292.59 
L 212.69715 292.59 
L 213.115514 292.59 
L 213.533879 292.59 
L 213.952243 292.59 
L 214.370608 292.59 
L 214.788972 292.59 
L 215.207337 292.59 
L 215.625702 292.59 
L 216.044066 292.59 
L 216.462431 292.59 
L 216.880795 292.59 
L 217.29916 292.59 
L 217.717524 292.59 
L 218.135889 292.59 
L 218.554253 292.59 
L 218.972618 292.59 
L 219.390982 292.59 
L 219.809347 292.59 
L 220.227711 292.59 
L 220.646076 292.59 
L 221.06444 292.59 
L 221.482805 292.59 
L 221.90117 292.59 
L 222.319534 292.59 
L 222.737899 292.59 
L 223.156263 292.59 
L 223.574628 292.59 
L 223.992992 292.59 
L 224.411357 292.59 
L 224.829721 292.59 
L 225.248086 292.59 
L 225.66645 292.59 
L 226.084815 292.59 
L 226.503179 292.59 
L 226.921544 292.59 
L 227.339908 292.59 
L 227.758273 292.59 
L 228.176637 292.59 
L 228.595002 292.59 
L 229.013367 292.59 
L 229.431731 292.59 
L 229.850096 292.59 
L 230.26846 292.59 
L 230.686825 292.59 
L 231.105189 292.59 
L 231.523554 292.59 
L 231.941918 292.59 
L 232.360283 292.59 
L 232.778647 292.59 
L 233.197012 292.59 
L 233.615376 292.59 
L 234.033741 292.59 
L 234.452105 292.59 
L 234.87047 292.59 
L 235.288835 292.59 
L 235.707199 292.59 
L 236.125564 292.59 
L 236.543928 292.59 
L 236.962293 292.59 
L 237.380657 292.59 
L 237.799022 292.59 
L 238.217386 292.59 
L 238.635751 292.59 
L 238.635751 20.79 
L 238.635751 20.79 
L 238.217386 20.792469 
L 237.799022 20.796359 
L 237.380657 20.802331 
L 236.962293 20.811271 
L 236.543928 20.824316 
L 236.125564 20.842872 
L 235.707199 20.868608 
L 235.288835 20.903412 
L 234.87047 20.949313 
L 234.452105 21.008362 
L 234.033741 21.08248 
L 233.615376 21.173293 
L 233.197012 21.28196 
L 232.778647 21.409052 
L 232.360283 21.554477 
L 231.941918 21.7175 
L 231.523554 21.896854 
L 231.105189 22.090941 
L 230.686825 22.298108 
L 230.26846 22.516934 
L 229.850096 22.746501 
L 229.431731 22.986575 
L 229.013367 23.237669 
L 228.595002 23.500948 
L 228.176637 23.777997 
L 227.758273 24.070465 
L 227.339908 24.379673 
L 226.921544 24.706235 
L 226.503179 25.049794 
L 226.084815 25.408931 
L 225.66645 25.781286 
L 225.248086 26.163909 
L 224.829721 26.553791 
L 224.411357 26.948533 
L 223.992992 27.347028 
L 223.574628 27.750098 
L 223.156263 28.160954 
L 222.737899 28.585454 
L 222.319534 29.032091 
L 221.90117 29.511755 
L 221.482805 30.037287 
L 221.06444 30.622933 
L 220.646076 31.28377 
L 220.227711 32.035208 
L 219.809347 32.892652 
L 219.390982 33.871361 
L 218.972618 34.986523 
L 218.554253 36.253513 
L 218.135889 37.688259 
L 217.717524 39.307627 
L 217.29916 41.129717 
L 216.880795 43.173956 
L 216.462431 45.460936 
L 216.044066 48.011926 
L 215.625702 50.848092 
L 215.207337 53.989471 
L 214.788972 57.453804 
L 214.370608 61.255354 
L 213.952243 65.403841 
L 213.533879 69.903621 
L 213.115514 74.753182 
L 212.69715 79.944984 
L 212.278785 85.465636 
L 211.860421 91.296323 
L 211.442056 97.413404 
L 211.023692 103.789084 
L 210.605327 110.39208 
L 210.186963 117.188258 
L 209.768598 124.141254 
L 209.350234 131.213098 
L 208.931869 138.364923 
L 208.513505 145.55778 
L 208.09514 152.753565 
L 207.676775 159.916001 
L 207.258411 167.011577 
L 206.840046 174.010314 
L 206.421682 180.88622 
L 206.003317 187.617348 
L 205.584953 194.185438 
L 205.166588 200.575208 
L 204.748224 206.773438 
L 204.329859 212.768058 
L 203.911495 218.547434 
L 203.49313 224.100039 
L 203.074766 229.414583 
L 202.656401 234.480584 
L 202.238037 239.289258 
L 201.819672 243.834522 
L 201.401308 248.113866 
L 200.982943 252.128886 
L 200.564578 255.88533 
L 200.146214 259.392599 
L 199.727849 262.66279 
L 199.309485 265.709411 
L 198.89112 268.546013 
L 198.472756 271.184957 
L 198.054391 273.636515 
L 197.636027 275.908437 
L 197.217662 278.006016 
L 196.799298 279.932591 
L 196.380933 281.69037 
L 195.962569 283.281384 
L 195.544204 284.708399 
L 195.12584 285.975642 
L 194.707475 287.08923 
L 194.28911 288.057279 
L 193.870746 288.889719 
L 193.452381 289.597891 
L 193.034017 290.194013 
L 192.615652 290.690629 
L 192.197288 291.100107 
L 191.778923 291.434247 
L 191.360559 291.704007 
L 190.942194 291.919351 
L 190.52383 292.089195 
L 190.105465 292.221416 
L 189.687101 292.322898 
L 189.268736 292.399598 
L 188.850372 292.456612 
L 188.432007 292.498244 
L 188.013643 292.528075 
L 187.595278 292.549027 
L 187.176913 292.563439 
L 186.758549 292.573141 
L 186.340184 292.579527 
L 185.92182 292.583637 
L 185.503455 292.586219 
z
" style="fill:#33a02c;fill-opacity:0.25;"/>
   </g>
   <g id="PolyCollection_4">
    <path clip-path="url(#p1cca288b93)" d="M 456.328076 292.583595 
L 456.328076 292.59 
L 456.523426 292.59 
L 456.718775 292.59 
L 456.914124 292.59 
L 457.109474 292.59 
L 457.304823 292.59 
L 457.500172 292.59 
L 457.695522 292.59 
L 457.890871 292.59 
L 458.086221 292.59 
L 458.28157 292.59 
L 458.476919 292.59 
L 458.672269 292.59 
L 458.867618 292.59 
L 459.062967 292.59 
L 459.258317 292.59 
L 459.453666 292.59 
L 459.649015 292.59 
L 459.844365 292.59 
L 460.039714 292.59 
L 460.235064 292.59 
L 460.430413 292.59 
L 460.625762 292.59 
L 460.821112 292.59 
L 461.016461 292.59 
L 461.21181 292.59 
L 461.40716 292.59 
L 461.602509 292.59 
L 461.797859 292.59 
L 461.993208 292.59 
L 462.188557 292.59 
L 462.383907 292.59 
L 462.579256 292.59 
L 462.774605 292.59 
L 462.969955 292.59 
L 463.165304 292.59 
L 463.360653 292.59 
L 463.556003 292.59 
L 463.751352 292.59 
L 463.946702 292.59 
L 464.142051 292.59 
L 464.3374 292.59 
L 464.53275 292.59 
L 464.728099 292.59 
L 464.923448 292.59 
L 465.118798 292.59 
L 465.314147 292.59 
L 465.509496 292.59 
L 465.704846 292.59 
L 465.900195 292.59 
L 466.095545 292.59 
L 466.290894 292.59 
L 466.486243 292.59 
L 466.681593 292.59 
L 466.876942 292.59 
L 467.072291 292.59 
L 467.267641 292.59 
L 467.46299 292.59 
L 467.658339 292.59 
L 467.853689 292.59 
L 468.049038 292.59 
L 468.244388 292.59 
L 468.439737 292.59 
L 468.635086 292.59 
L 468.830436 292.59 
L 469.025785 292.59 
L 469.221134 292.59 
L 469.416484 292.59 
L 469.611833 292.59 
L 469.807183 292.59 
L 470.002532 292.59 
L 470.197881 292.59 
L 470.393231 292.59 
L 470.58858 292.59 
L 470.783929 292.59 
L 470.979279 292.59 
L 471.174628 292.59 
L 471.369977 292.59 
L 471.565327 292.59 
L 471.760676 292.59 
L 471.956026 292.59 
L 472.151375 292.59 
L 472.346724 292.59 
L 472.542074 292.59 
L 472.737423 292.59 
L 472.932772 292.59 
L 473.128122 292.59 
L 473.323471 292.59 
L 473.51882 292.59 
L 473.71417 292.59 
L 473.909519 292.59 
L 474.104869 292.59 
L 474.300218 292.59 
L 474.495567 292.59 
L 474.690917 292.59 
L 474.886266 292.59 
L 475.081615 292.59 
L 475.276965 292.59 
L 475.472314 292.59 
L 475.667664 292.59 
L 475.863013 292.59 
L 476.058362 292.59 
L 476.253712 292.59 
L 476.449061 292.59 
L 476.64441 292.59 
L 476.83976 292.59 
L 477.035109 292.59 
L 477.230458 292.59 
L 477.425808 292.59 
L 477.621157 292.59 
L 477.816507 292.59 
L 478.011856 292.59 
L 478.207205 292.59 
L 478.402555 292.59 
L 478.597904 292.59 
L 478.793253 292.59 
L 478.988603 292.59 
L 479.183952 292.59 
L 479.379301 292.59 
L 479.574651 292.59 
L 479.77 292.59 
L 479.96535 292.59 
L 480.160699 292.59 
L 480.356048 292.59 
L 480.551398 292.59 
L 480.746747 292.59 
L 480.942096 292.59 
L 481.137446 292.59 
L 481.137446 20.79144 
L 481.137446 20.79144 
L 480.942096 20.795099 
L 480.746747 20.801043 
L 480.551398 20.810471 
L 480.356048 20.825074 
L 480.160699 20.847164 
L 479.96535 20.8798 
L 479.77 20.926904 
L 479.574651 20.993323 
L 479.379301 21.084839 
L 479.183952 21.208073 
L 478.988603 21.370286 
L 478.793253 21.579055 
L 478.597904 21.841843 
L 478.402555 22.165479 
L 478.207205 22.555611 
L 478.011856 23.016206 
L 477.816507 23.549153 
L 477.621157 24.154067 
L 477.425808 24.828346 
L 477.230458 25.567504 
L 477.035109 26.365784 
L 476.83976 27.216996 
L 476.64441 28.115508 
L 476.449061 29.057282 
L 476.253712 30.040845 
L 476.058362 31.068109 
L 475.863013 32.144937 
L 475.667664 33.281424 
L 475.472314 34.491856 
L 475.276965 35.794365 
L 475.081615 37.210275 
L 474.886266 38.763209 
L 474.690917 40.477982 
L 474.495567 42.379359 
L 474.300218 44.490751 
L 474.104869 46.832962 
L 473.909519 49.423073 
L 473.71417 52.273582 
L 473.51882 55.391887 
L 473.323471 58.780168 
L 473.128122 62.435672 
L 472.932772 66.351351 
L 472.737423 70.516768 
L 472.542074 74.919116 
L 472.346724 79.544229 
L 472.151375 84.377426 
L 471.956026 89.404121 
L 471.760676 94.610148 
L 471.565327 99.981823 
L 471.369977 105.505817 
L 471.174628 111.168944 
L 470.979279 116.957945 
L 470.783929 122.859341 
L 470.58858 128.859376 
L 470.393231 134.944017 
L 470.197881 141.098929 
L 470.002532 147.309359 
L 469.807183 153.559846 
L 469.611833 159.833755 
L 469.416484 166.112687 
L 469.221134 172.375878 
L 469.025785 178.599752 
L 468.830436 184.757805 
L 468.635086 190.820941 
L 468.439737 196.758333 
L 468.244388 202.538766 
L 468.049038 208.132336 
L 467.853689 213.512304 
L 467.658339 218.656872 
L 467.46299 223.550629 
L 467.267641 228.185506 
L 467.072291 232.561082 
L 466.876942 236.684238 
L 466.681593 240.568162 
L 466.486243 244.230837 
L 466.290894 247.69315 
L 466.095545 250.976821 
L 465.900195 254.102348 
L 465.704846 257.087176 
L 465.509496 259.944262 
L 465.314147 262.681181 
L 465.118798 265.299855 
L 464.923448 267.796923 
L 464.728099 270.164672 
L 464.53275 272.392435 
L 464.3374 274.468249 
L 464.142051 276.380582 
L 463.946702 278.119939 
L 463.751352 279.680175 
L 463.556003 281.059407 
L 463.360653 282.260467 
L 463.165304 283.290911 
L 462.969955 284.162644 
L 462.774605 284.891227 
L 462.579256 285.494997 
L 462.383907 285.994076 
L 462.188557 286.409355 
L 461.993208 286.761523 
L 461.797859 287.070185 
L 461.602509 287.353075 
L 461.40716 287.625414 
L 461.21181 287.899403 
L 461.016461 288.183879 
L 460.821112 288.484164 
L 460.625762 288.802106 
L 460.430413 289.136342 
L 460.235064 289.482768 
L 460.039714 289.835186 
L 459.844365 290.186078 
L 459.649015 290.527438 
L 459.453666 290.851574 
L 459.258317 291.151798 
L 459.062967 291.422946 
L 458.867618 291.661679 
L 458.672269 291.866562 
L 458.476919 292.037939 
L 458.28157 292.17765 
L 458.086221 292.288652 
L 457.890871 292.374601 
L 457.695522 292.439458 
L 457.500172 292.487153 
L 457.304823 292.521335 
L 457.109474 292.545209 
L 456.914124 292.561459 
L 456.718775 292.572237 
L 456.523426 292.579205 
L 456.328076 292.583595 
z
" style="fill:#ff7f00;fill-opacity:0.25;"/>
   </g>
   <g id="PolyCollection_5">
    <path clip-path="url(#p1cca288b93)" d="M 185.989991 292.586239 
L 185.989991 292.59 
L 186.355336 292.59 
L 186.720681 292.59 
L 187.086026 292.59 
L 187.451371 292.59 
L 187.816716 292.59 
L 188.182061 292.59 
L 188.547406 292.59 
L 188.912751 292.59 
L 189.278096 292.59 
L 189.643442 292.59 
L 190.008787 292.59 
L 190.374132 292.59 
L 190.739477 292.59 
L 191.104822 292.59 
L 191.470167 292.59 
L 191.835512 292.59 
L 192.200857 292.59 
L 192.566202 292.59 
L 192.931547 292.59 
L 193.296892 292.59 
L 193.662237 292.59 
L 194.027582 292.59 
L 194.392927 292.59 
L 194.758273 292.59 
L 195.123618 292.59 
L 195.488963 292.59 
L 195.854308 292.59 
L 196.219653 292.59 
L 196.584998 292.59 
L 196.950343 292.59 
L 197.315688 292.59 
L 197.681033 292.59 
L 198.046378 292.59 
L 198.411723 292.59 
L 198.777068 292.59 
L 199.142413 292.59 
L 199.507758 292.59 
L 199.873104 292.59 
L 200.238449 292.59 
L 200.603794 292.59 
L 200.969139 292.59 
L 201.334484 292.59 
L 201.699829 292.59 
L 202.065174 292.59 
L 202.430519 292.59 
L 202.795864 292.59 
L 203.161209 292.59 
L 203.526554 292.59 
L 203.891899 292.59 
L 204.257244 292.59 
L 204.622589 292.59 
L 204.987935 292.59 
L 205.35328 292.59 
L 205.718625 292.59 
L 206.08397 292.59 
L 206.449315 292.59 
L 206.81466 292.59 
L 207.180005 292.59 
L 207.54535 292.59 
L 207.910695 292.59 
L 208.27604 292.59 
L 208.641385 292.59 
L 209.00673 292.59 
L 209.372075 292.59 
L 209.73742 292.59 
L 210.102766 292.59 
L 210.468111 292.59 
L 210.833456 292.59 
L 211.198801 292.59 
L 211.564146 292.59 
L 211.929491 292.59 
L 212.294836 292.59 
L 212.660181 292.59 
L 213.025526 292.59 
L 213.390871 292.59 
L 213.756216 292.59 
L 214.121561 292.59 
L 214.486906 292.59 
L 214.852251 292.59 
L 215.217597 292.59 
L 215.582942 292.59 
L 215.948287 292.59 
L 216.313632 292.59 
L 216.678977 292.59 
L 217.044322 292.59 
L 217.409667 292.59 
L 217.775012 292.59 
L 218.140357 292.59 
L 218.505702 292.59 
L 218.871047 292.59 
L 219.236392 292.59 
L 219.601737 292.59 
L 219.967082 292.59 
L 220.332428 292.59 
L 220.697773 292.59 
L 221.063118 292.59 
L 221.428463 292.59 
L 221.793808 292.59 
L 222.159153 292.59 
L 222.524498 292.59 
L 222.889843 292.59 
L 223.255188 292.59 
L 223.620533 292.59 
L 223.985878 292.59 
L 224.351223 292.59 
L 224.716568 292.59 
L 225.081913 292.59 
L 225.447258 292.59 
L 225.812604 292.59 
L 226.177949 292.59 
L 226.543294 292.59 
L 226.908639 292.59 
L 227.273984 292.59 
L 227.639329 292.59 
L 228.004674 292.59 
L 228.370019 292.59 
L 228.735364 292.59 
L 229.100709 292.59 
L 229.466054 292.59 
L 229.831399 292.59 
L 230.196744 292.59 
L 230.562089 292.59 
L 230.927435 292.59 
L 231.29278 292.59 
L 231.658125 292.59 
L 232.02347 292.59 
L 232.388815 292.59 
L 232.388815 20.790452 
L 232.388815 20.790452 
L 232.02347 20.792842 
L 231.658125 20.796452 
L 231.29278 20.801818 
L 230.927435 20.809659 
L 230.562089 20.820935 
L 230.196744 20.836892 
L 229.831399 20.859122 
L 229.466054 20.889617 
L 229.100709 20.930821 
L 228.735364 20.985677 
L 228.370019 21.057656 
L 228.004674 21.150773 
L 227.639329 21.269576 
L 227.273984 21.419109 
L 226.908639 21.604845 
L 226.543294 21.832591 
L 226.177949 22.108357 
L 225.812604 22.43821 
L 225.447258 22.828113 
L 225.081913 23.283766 
L 224.716568 23.810463 
L 224.351223 24.412998 
L 223.985878 25.095614 
L 223.620533 25.862049 
L 223.255188 26.715648 
L 222.889843 27.659575 
L 222.524498 28.697103 
L 222.159153 29.831948 
L 221.793808 31.068636 
L 221.428463 32.412837 
L 221.063118 33.871637 
L 220.697773 35.453697 
L 220.332428 37.169266 
L 219.967082 39.030036 
L 219.601737 41.04883 
L 219.236392 43.239151 
L 218.871047 45.614629 
L 218.505702 48.188399 
L 218.140357 50.972484 
L 217.775012 53.97721 
L 217.409667 57.210698 
L 217.044322 60.678472 
L 216.678977 64.383161 
L 216.313632 68.324319 
L 215.948287 72.498336 
L 215.582942 76.898419 
L 215.217597 81.514631 
L 214.852251 86.333981 
L 214.486906 91.340555 
L 214.121561 96.515708 
L 213.756216 101.838321 
L 213.390871 107.285156 
L 213.025526 112.831305 
L 212.660181 118.45076 
L 212.294836 124.117082 
L 211.929491 129.804164 
L 211.564146 135.487035 
L 211.198801 141.142675 
L 210.833456 146.750782 
L 210.468111 152.294417 
L 210.102766 157.760495 
L 209.73742 163.140055 
L 209.372075 168.428278 
L 209.00673 173.624239 
L 208.641385 178.730385 
L 208.27604 183.751781 
L 207.910695 188.695144 
L 207.54535 193.567769 
L 207.180005 198.376403 
L 206.81466 203.126185 
L 206.449315 207.819733 
L 206.08397 212.456484 
L 205.718625 217.032326 
L 205.35328 221.539581 
L 204.987935 225.967317 
L 204.622589 230.301973 
L 204.257244 234.528205 
L 203.891899 238.629874 
L 203.526554 242.591072 
L 203.161209 246.397084 
L 202.795864 250.035204 
L 202.430519 253.495332 
L 202.065174 256.770339 
L 201.699829 259.856182 
L 201.334484 262.751792 
L 200.969139 265.45879 
L 200.603794 267.981073 
L 200.238449 270.32433 
L 199.873104 272.49555 
L 199.507758 274.502553 
L 199.142413 276.353596 
L 198.777068 278.057055 
L 198.411723 279.621197 
L 198.046378 281.05405 
L 197.681033 282.36333 
L 197.315688 283.556437 
L 196.950343 284.640477 
L 196.584998 285.62231 
L 196.219653 286.508585 
L 195.854308 287.305772 
L 195.488963 288.020172 
L 195.123618 288.657907 
L 194.758273 289.2249 
L 194.392927 289.726843 
L 194.027582 290.169166 
L 193.662237 290.557017 
L 193.296892 290.895247 
L 192.931547 291.188414 
L 192.566202 291.440799 
L 192.200857 291.656428 
L 191.835512 291.839097 
L 191.470167 291.992396 
L 191.104822 292.119726 
L 190.739477 292.224304 
L 190.374132 292.30916 
L 190.008787 292.377128 
L 189.643442 292.430828 
L 189.278096 292.472648 
L 188.912751 292.504731 
L 188.547406 292.528964 
L 188.182061 292.546975 
L 187.816716 292.560143 
L 187.451371 292.56961 
L 187.086026 292.5763 
L 186.720681 292.580945 
L 186.355336 292.584115 
L 185.989991 292.586239 
z
" style="fill:#0000ff;fill-opacity:0.25;"/>
   </g>
   <g id="line2d_14">
    <path clip-path="url(#p1cca288b93)" d="M 148.553616 292.586323 
L 150.055143 292.456617 
L 150.805907 292.137005 
L 151.556671 291.485556 
L 152.495126 290.264172 
L 153.996653 287.904546 
L 154.559726 286.641454 
L 154.935108 285.382592 
L 155.31049 283.558721 
L 155.873563 279.334121 
L 156.436636 272.927755 
L 156.999709 264.158235 
L 157.750473 248.559793 
L 158.501236 228.130779 
L 159.815073 184.415388 
L 161.691983 123.889819 
L 162.818128 92.604359 
L 163.944274 67.760756 
L 165.07042 47.683536 
L 165.821184 37.871616 
L 166.384257 32.89008 
L 166.94733 29.576772 
L 167.698093 26.634963 
L 168.636548 23.911698 
L 169.387312 22.31066 
L 169.950385 21.535496 
L 170.513458 21.096645 
L 171.264222 20.857615 
L 172.390367 20.790239 
L 172.390367 20.790239 
" style="fill:none;stroke:#1f78b4;stroke-linecap:round;stroke-width:2;"/>
   </g>
   <g id="line2d_15">
    <path clip-path="url(#p1cca288b93)" d="M 75.319264 292.585378 
L 78.466281 292.467416 
L 80.039789 292.164191 
L 81.21992 291.664171 
L 82.006674 291.139397 
L 82.793428 290.428579 
L 83.97356 288.974023 
L 85.153691 287.025863 
L 86.333822 284.556074 
L 87.513953 281.50081 
L 88.694085 277.746794 
L 89.874216 273.155217 
L 91.054347 267.596792 
L 92.234478 260.968781 
L 93.414609 253.189182 
L 94.594741 244.180341 
L 96.168249 230.095048 
L 97.741757 213.380848 
L 99.315266 193.832627 
L 101.282151 165.92951 
L 105.215922 108.566558 
L 106.78943 89.08329 
L 108.362938 72.457686 
L 109.936447 58.483112 
L 111.509955 46.922913 
L 112.690086 39.7848 
L 113.870218 33.957041 
L 115.050349 29.417485 
L 115.837103 27.069605 
L 116.623857 25.216873 
L 117.410611 23.803246 
L 118.197365 22.763634 
L 118.98412 22.029251 
L 119.770874 21.532859 
L 120.951005 21.102759 
L 122.524513 20.869328 
L 125.278153 20.790704 
L 125.278153 20.790704 
" style="fill:none;stroke:#000000;stroke-linecap:round;stroke-width:2;"/>
   </g>
   <g id="line2d_16">
    <path clip-path="url(#p1cca288b93)" d="M 185.503455 292.586219 
L 188.850372 292.456612 
L 190.105465 292.221416 
L 190.942194 291.919351 
L 191.778923 291.434247 
L 192.615652 290.690629 
L 193.452381 289.597891 
L 194.28911 288.057279 
L 195.12584 285.975642 
L 195.962569 283.281384 
L 196.799298 279.932591 
L 198.054391 273.636515 
L 199.309485 265.709411 
L 200.564578 255.88533 
L 201.819672 243.834522 
L 203.074766 229.414583 
L 204.748224 206.773438 
L 206.421682 180.88622 
L 212.278785 85.465636 
L 213.533879 69.903621 
L 214.788972 57.453804 
L 215.625702 50.848092 
L 216.462431 45.460936 
L 217.29916 41.129717 
L 218.135889 37.688259 
L 218.972618 34.986523 
L 219.809347 32.892652 
L 220.646076 31.28377 
L 221.482805 30.037287 
L 222.737899 28.585454 
L 225.248086 26.163909 
L 227.339908 24.379673 
L 229.013367 23.237669 
L 231.105189 22.090941 
L 232.778647 21.409052 
L 234.452105 21.008362 
L 236.543928 20.824316 
L 238.635751 20.79 
L 238.635751 20.79 
" style="fill:none;stroke:#33a02c;stroke-linecap:round;stroke-width:2;"/>
   </g>
   <g id="line2d_17">
    <path clip-path="url(#p1cca288b93)" d="M 456.328076 292.583595 
L 457.500172 292.487153 
L 458.086221 292.288652 
L 458.672269 291.866562 
L 459.258317 291.151798 
L 460.235064 289.482768 
L 461.40716 287.625414 
L 462.188557 286.409355 
L 462.579256 285.494997 
L 462.969955 284.162644 
L 463.556003 281.059407 
L 464.142051 276.380582 
L 464.923448 267.796923 
L 465.900195 254.102348 
L 466.681593 240.568162 
L 467.46299 223.550629 
L 468.439737 196.758333 
L 472.542074 74.919116 
L 473.51882 55.391887 
L 474.300218 44.490751 
L 475.081615 37.210275 
L 475.863013 32.144937 
L 476.83976 27.216996 
L 477.621157 24.154067 
L 478.207205 22.555611 
L 478.793253 21.579055 
L 479.379301 21.084839 
L 479.96535 20.8798 
L 481.137446 20.79144 
L 481.137446 20.79144 
" style="fill:none;stroke:#ff7f00;stroke-linecap:round;stroke-width:2;"/>
   </g>
   <g id="line2d_18">
    <path clip-path="url(#p1cca288b93)" d="M 185.989991 292.586239 
L 189.278096 292.472648 
L 190.739477 292.224304 
L 191.835512 291.839097 
L 192.931547 291.188414 
L 194.027582 290.169166 
L 194.758273 289.2249 
L 195.488963 288.020172 
L 196.219653 286.508585 
L 196.950343 284.640477 
L 198.046378 281.05405 
L 199.142413 276.353596 
L 200.238449 270.32433 
L 201.334484 262.751792 
L 202.430519 253.495332 
L 203.891899 238.629874 
L 205.718625 217.032326 
L 208.27604 183.751781 
L 210.468111 152.294417 
L 215.217597 81.514631 
L 216.678977 64.383161 
L 217.775012 53.97721 
L 218.871047 45.614629 
L 219.967082 39.030036 
L 221.063118 33.871637 
L 222.159153 29.831948 
L 223.255188 26.715648 
L 224.351223 24.412998 
L 225.081913 23.283766 
L 225.812604 22.43821 
L 226.543294 21.832591 
L 227.639329 21.269576 
L 228.735364 20.985677 
L 230.562089 20.820935 
L 232.388815 20.790452 
L 232.388815 20.790452 
" style="fill:none;stroke:#0000ff;stroke-linecap:round;stroke-width:2;"/>
   </g>
   <g id="line2d_19">
    <path clip-path="url(#p1cca288b93)" d="M 207.970224 306.18 
L 207.970224 7.2 
" style="fill:none;stroke:#33a02c;stroke-dasharray:8.4,3.6;stroke-dashoffset:0;stroke-width:3;"/>
   </g>
   <g id="patch_3">
    <path d="M 55.028355 306.18 
L 55.028355 7.2 
" style="fill:none;"/>
   </g>
   <g id="patch_4">
    <path d="M 501.428355 306.18 
L 501.428355 7.2 
" style="fill:none;"/>
   </g>
   <g id="patch_5">
    <path d="M 55.028355 306.18 
L 501.428355 306.18 
" style="fill:none;"/>
   </g>
   <g id="patch_6">
    <path d="M 55.028355 7.2 
L 501.428355 7.2 
" style="fill:none;"/>
   </g>
   <g id="legend_1">
    <g id="line2d_20">
     <path d="M 218.799016 209.856945 
L 246.799016 209.856945 
" style="fill:none;stroke:#1f78b4;stroke-linecap:round;stroke-width:2;"/>
    </g>
    <g id="line2d_21"/>
    <g id="text_16">
     <!-- Unbranched -->
     <defs>
      <path d="M 8 69.5 
L 8 32.75 
C 8 25.71875 7.203125 18.390625 10.703125 11.96875 
C 12.90625 7.84375 16.09375 4.4375 20.09375 2.125 
C 29.90625 -3.609375 43.5 -2.203125 51.296875 6.4375 
C 54.796875 10.359375 57.296875 15.171875 57.796875 21.796875 
C 57.90625 23.40625 57.796875 24.921875 57.796875 26.515625 
L 57.796875 69.5 
L 51.40625 69.5 
L 51.40625 25.90625 
C 51.40625 24.59375 51.5 23.1875 51.40625 21.890625 
C 51.203125 18.890625 50.59375 15.921875 49.40625 13.25 
C 43.90625 1 25 1 18 11.890625 
C 14.203125 17.78125 15 25.0625 15 31.65625 
L 15 69.5 
z
" id="Computer_Modern_Bright-85"/>
      <path d="M 6.40625 69.6875 
L 6.40625 0 
L 12.796875 0 
L 12.796875 6.328125 
L 12.90625 6.328125 
C 14 4.109375 16.5 2.015625 18.59375 0.90625 
C 25.796875 -2.90625 34.40625 0.90625 39.09375 7.03125 
C 48.59375 19.578125 44.796875 40.875 32.296875 46.796875 
C 27.40625 49 21.5 48 17.09375 44.984375 
C 15.40625 43.78125 14 42.375 12.703125 40.765625 
L 12.703125 69.6875 
z
M 21.90625 42.984375 
C 26.59375 43.375 31.5 41.265625 34.296875 37.453125 
C 36.203125 34.9375 37.203125 31.9375 37.703125 28.8125 
C 38.703125 21.484375 37.90625 12.25 31.40625 7.4375 
C 30.296875 6.625 29.09375 6.03125 27.796875 5.515625 
C 22.40625 3.515625 17 4.109375 14 8.84375 
C 13.09375 10.4375 12.796875 10.546875 12.796875 12.953125 
L 12.796875 33.734375 
C 12.796875 34.75 12.59375 35.953125 13 36.859375 
C 14.59375 40.171875 18.296875 42.671875 21.90625 42.984375 
" id="Computer_Modern_Bright-98"/>
      <path d="M 12.5 34.75 
L 12.40625 34.75 
L 12.40625 47.390625 
L 6.40625 47.390625 
L 6.40625 0 
L 12.703125 0 
L 12.703125 22.890625 
C 12.703125 24.40625 12.703125 25.90625 12.90625 27.40625 
C 14.296875 35.953125 21.703125 42.28125 31.40625 42.28125 
L 31.40625 48 
C 25 48 19.09375 44.890625 15.296875 39.765625 
C 14.203125 38.265625 13 36.546875 12.5 34.75 
" id="Computer_Modern_Bright-114"/>
      <path d="M 6.40625 69.6875 
L 6.40625 0 
L 12.796875 0 
L 12.796875 21.984375 
C 12.796875 26.90625 12.5 31.9375 14.703125 36.546875 
C 15.796875 38.859375 17.5 40.875 19.796875 42.078125 
C 21.703125 42.984375 23.703125 42.984375 25.796875 42.78125 
C 28.796875 42.78125 31.703125 41.984375 33.59375 39.453125 
C 35.40625 37.140625 35.5 34.140625 35.5 31.3125 
L 35.5 0 
L 41.90625 0 
L 41.90625 27.21875 
C 41.90625 32.234375 42.40625 37.75 39.90625 42.28125 
C 37.90625 45.6875 34.40625 47.296875 30.703125 47.796875 
C 28.703125 48 26.703125 48 24.703125 47.703125 
C 21.09375 47.015625 18 45.03125 15.59375 42.34375 
C 14.5 41.046875 13.203125 39.46875 12.796875 37.765625 
L 12.703125 37.765625 
L 12.703125 69.6875 
z
" id="Computer_Modern_Bright-104"/>
      <path d="M 35.59375 69.6875 
L 35.59375 41.375 
C 33.703125 43.484375 31.796875 45.484375 29.203125 46.6875 
C 20.296875 50.40625 11.703125 45.59375 7.296875 37.65625 
C 2.203125 28.21875 2.796875 15.765625 8.90625 6.921875 
C 13.203125 0.796875 20.296875 -2.203125 27.796875 0.5 
C 30.703125 1.609375 34.203125 4.515625 35.40625 7.125 
L 35.5 7.125 
L 35.5 0 
L 41.90625 0 
L 41.90625 69.6875 
z
M 35.203125 37.453125 
C 35.703125 36.546875 35.5 35.34375 35.5 34.34375 
L 35.5 13.65625 
C 35.5 11.34375 35.40625 11.140625 34.09375 9.34375 
C 32.296875 6.625 29.5 4.71875 26.203125 4.421875 
C 21.40625 4.015625 16.5 6.328125 13.703125 10.25 
C 12.09375 12.546875 11.203125 15.359375 10.703125 18.171875 
C 10.5 19.28125 10.5 20.28125 10.40625 21.390625 
C 9.796875 28.015625 11.203125 35.84375 17 40.0625 
C 18 40.765625 19.09375 41.265625 20.203125 41.765625 
C 26 43.984375 32.40625 43.375 35.203125 37.453125 
" id="Computer_Modern_Bright-100"/>
     </defs>
     <g style="fill:#262626;" transform="translate(257.999016 214.756945)scale(0.14 -0.14)">
      <use transform="scale(0.996264)" xlink:href="#Computer_Modern_Bright-85"/>
      <use transform="translate(65.587132 0)scale(0.996264)" xlink:href="#Computer_Modern_Bright-110"/>
      <use transform="translate(113.739629 0)scale(0.996264)" xlink:href="#Computer_Modern_Bright-98"/>
      <use transform="translate(158.986397 0)scale(0.996264)" xlink:href="#Computer_Modern_Bright-114"/>
      <use transform="translate(190.949756 0)scale(0.996264)" xlink:href="#Computer_Modern_Bright-97"/>
      <use transform="translate(237.441838 0)scale(0.996264)" xlink:href="#Computer_Modern_Bright-110"/>
      <use transform="translate(285.594335 0)scale(0.996264)" xlink:href="#Computer_Modern_Bright-99"/>
      <use transform="translate(330.426003 0)scale(0.996264)" xlink:href="#Computer_Modern_Bright-104"/>
      <use transform="translate(378.5785 0)scale(0.996264)" xlink:href="#Computer_Modern_Bright-101"/>
      <use transform="translate(423.410167 0)scale(0.996264)" xlink:href="#Computer_Modern_Bright-100"/>
     </g>
    </g>
    <g id="line2d_22">
     <path d="M 218.799016 228.981556 
L 246.799016 228.981556 
" style="fill:none;stroke:#000000;stroke-linecap:round;stroke-width:2;"/>
    </g>
    <g id="line2d_23"/>
    <g id="text_17">
     <!-- \emph{vhl-1} $&gt;$ \emph{egl-9} -->
     <defs>
      <path d="M 10.703125 48 
C 12.796875 33.046875 15.09375 18.171875 17.09375 3.125 
C 17.296875 2.109375 17.296875 0.90625 17.796875 0.203125 
C 19.90625 0 22.59375 0 24.703125 0 
L 25.296875 0.703125 
L 44.703125 35.109375 
L 51.796875 48 
C 49.703125 48 47.5 48 45.703125 47.703125 
C 44.90625 46.59375 44.296875 45.484375 43.59375 44.265625 
C 36.59375 31.84375 29.40625 19.515625 22.703125 6.6875 
C 21.59375 16.984375 20 26.6875 18.59375 36.6875 
C 18 40.328125 17.90625 44.46875 16.90625 47.703125 
C 15.09375 48 12.796875 48 10.703125 48 
" id="Computer_Modern_Bright_Slanted-118"/>
      <path d="M 21.09375 70 
L 6.40625 0 
L 10.90625 0 
C 11.796875 0 13 -0.296875 13 1.015625 
C 13.203125 1.71875 13.296875 2.328125 13.40625 3.03125 
C 14.40625 7.78125 19 29.5 19.296875 30.40625 
C 20.40625 33.953125 22.40625 37.375 25.09375 39.90625 
C 28 42.4375 31.203125 43.84375 36.59375 42.9375 
C 38.796875 42.53125 40.90625 41.625 42 39.5 
C 43.5 36.46875 42.40625 32.9375 41.796875 29.90625 
L 35.5 0 
L 40.203125 0 
C 41.203125 0 42.09375 -0.203125 42.09375 1.109375 
C 42.703125 3.125 44.09375 10.625 44.09375 10.625 
L 48.59375 32 
C 49.40625 35.734375 50.296875 40.40625 48.203125 43.9375 
C 46.296875 46.984375 42.90625 48 39.59375 48.296875 
C 38.09375 48.296875 36.5 48.296875 35 48 
C 30.796875 47.3125 27.09375 45.09375 24.09375 42.09375 
C 22.90625 40.890625 21.5 39.59375 20.796875 37.984375 
L 20.703125 37.984375 
L 27.40625 70 
z
" id="Computer_Modern_Bright_Slanted-104"/>
      <path d="M 21.09375 70 
L 6.40625 0 
C 8.5 0 10.796875 0 12.59375 0.296875 
L 13 1.40625 
C 14 6.4375 15.09375 11.375 16.203125 16.40625 
L 27.40625 70 
z
" id="Computer_Modern_Bright_Slanted-108"/>
      <path d="M 5.90625 26.0625 
L 4.90625 21 
L 32.796875 21 
L 33.796875 26.0625 
z
" id="Computer_Modern_Bright_Slanted-45"/>
      <path d="M 22.5 61 
L 21.5 55.9375 
C 26.296875 55.9375 31.40625 56.546875 35.703125 58.875 
L 24.5 5.046875 
C 20.296875 5.046875 15.296875 5.5625 11.5 5.046875 
C 10.90625 3.578125 10.703125 1.671875 10.296875 0 
C 21.09375 0 32.59375 0 42.796875 0 
C 43.40625 1.453125 43.703125 3.296875 44.09375 5.046875 
L 31 5.046875 
C 35.203125 26.0625 39.796875 46.59375 44.09375 67.5 
C 41.703125 67.5 42 67.09375 40 65.59375 
C 35.59375 62.59375 28.90625 61 22.5 61 
" id="Computer_Modern_Bright_Slanted-49"/>
      <path d="M 62.59375 26.546875 
L 62.59375 26.34375 
C 60.296875 25.546875 58 24.25 55.796875 23.140625 
L 27.09375 9.625 
L 11.09375 2 
C 10.40625 1.703125 9.40625 1.296875 8.90625 0.796875 
C 8 -0.203125 8.203125 -1.703125 9.296875 -2.296875 
C 10.5 -3 11.703125 -2.109375 12.796875 -1.609375 
L 21 2.203125 
C 25.203125 4.3125 55 18.328125 55 18.328125 
L 66 23.546875 
C 67.296875 24.140625 69.40625 24.75 69.40625 26.453125 
C 69.40625 28.15625 67.296875 28.75 66 29.359375 
L 55 34.5625 
L 33.703125 44.6875 
C 29.5 46.6875 25.203125 48.59375 21 50.703125 
L 12.796875 54.5 
C 11.703125 55 10.5 55.90625 9.296875 55.203125 
C 8.203125 54.609375 8 53.09375 8.90625 52.09375 
C 9.40625 51.59375 10.40625 51.203125 11.09375 50.890625 
L 41.59375 36.46875 
L 55.796875 29.75 
C 58 28.65625 60.296875 27.359375 62.59375 26.546875 
" id="Computer_Modern_Bright_Math_Slanted-62"/>
      <path d="M 44.09375 10.859375 
C 42.796875 9.953125 41.5 8.9375 40.09375 8.140625 
C 34.296875 4.59375 24.09375 1.765625 18.203125 7.53125 
C 14.40625 11.375 13.203125 17.53125 14.796875 25 
L 46.40625 25 
C 46.796875 25 47.40625 24.90625 47.703125 25.203125 
C 48.5 25.8125 48.703125 31.375 48.703125 31.46875 
C 48.703125 32.6875 48.796875 33.890625 48.703125 35.109375 
C 48.296875 40.46875 45.703125 45.3125 40.703125 47.140625 
C 34.296875 49.765625 27 47.84375 21.5 43.90625 
C 13.796875 38.4375 8.40625 29.046875 8 19.453125 
C 7.59375 11.875 10.5 5.515625 15.40625 2.171875 
C 23.40625 -3.484375 34.5 -0.15625 40.90625 3.6875 
C 41.703125 4.203125 42.90625 4.703125 43.40625 5.40625 
C 43.703125 5.90625 44.09375 10.859375 44.09375 10.859375 
M 43.296875 28.953125 
L 16.203125 28.953125 
C 16.59375 30.671875 17.703125 32.390625 18.703125 33.796875 
C 21.296875 37.84375 25.09375 41.46875 29.796875 42.796875 
C 33.59375 43.90625 38.296875 43.1875 41 40.0625 
C 43.203125 37.4375 43.703125 33.390625 43.296875 28.953125 
" id="Computer_Modern_Bright_Slanted-101"/>
      <path d="M 37.90625 12.09375 
L 38 12.09375 
C 37.703125 10.1875 37.203125 8.265625 36.796875 6.34375 
C 36.203125 3.3125 35.703125 0.171875 34.703125 -2.65625 
C 33.5 -5.984375 31.203125 -9.109375 28.296875 -11.140625 
C 25.90625 -12.75 23.796875 -13.265625 19.90625 -12.953125 
C 15.09375 -12.953125 11.59375 -12.03125 7.796875 -10.265625 
C 6.703125 -9.75 5.796875 -9.125 4.703125 -8.609375 
L 3.5 -14.171875 
C 8.09375 -16.25 12.203125 -18 18.40625 -18 
C 19.796875 -18.109375 21.203125 -18.203125 22.59375 -18.109375 
C 31.703125 -17.203125 38.5 -10.21875 41.09375 -2.828125 
C 41.796875 -1 42.09375 1.015625 42.5 2.953125 
L 44.203125 11.03125 
C 44.796875 13.78125 51.90625 47.390625 52 48.5 
L 45.703125 48.5 
L 44.09375 40.265625 
C 43.703125 40.984375 43.5 41.78125 43.203125 42.5 
C 42.5 43.90625 41.5 45.21875 40.296875 46.234375 
C 34.40625 51.1875 25 46.640625 21 43.5 
C 15.09375 38.953125 11 32.296875 9.203125 25.125 
C 6.90625 16.234375 9.5 8.0625 14.90625 4.328125 
C 18.796875 1.59375 24.796875 0.78125 30 3.71875 
C 32.90625 5.4375 36.40625 8.96875 37.90625 12.09375 
M 34.59375 43.5 
C 40.296875 43.5 42.703125 39.546875 42.703125 33.890625 
C 42.59375 33.1875 42.40625 32.375 42.296875 31.671875 
C 40.703125 24.59375 39.40625 17.53125 35.59375 12.0625 
C 33.703125 9.34375 30.90625 7.125 27.5 6.8125 
C 25 6.609375 22.40625 7.515625 20.796875 8.328125 
C 15.90625 11.15625 14.296875 17.21875 15.09375 22.578125 
C 16 28.9375 19.5 35.03125 24.5 39.0625 
C 27.40625 41.4375 30.90625 43.203125 34.59375 43.5 
M 38 12.21875 
C 38 12.21875 38.09375 12.21875 38.09375 12.21875 
C 38.09375 12.125 38 12.015625 38 12.21875 
" id="Computer_Modern_Bright_Slanted-103"/>
      <path d="M 46.5 33.03125 
L 46.59375 33.03125 
C 46.296875 31.3125 45.90625 29.59375 45.40625 27.96875 
C 42.703125 18.296875 37.09375 7.828125 26.90625 4.625 
C 21.5 3.015625 15.90625 4.03125 12.5 6.734375 
C 12.203125 6.9375 11.59375 7.640625 11.09375 7.546875 
C 10.703125 7.546875 10.296875 6.84375 10.09375 6.53125 
C 9.203125 5.421875 8.296875 4.328125 7.5 3.21875 
C 9.296875 1.796875 11.09375 0.484375 13.296875 -0.3125 
C 15.90625 -1.328125 20.5 -1.828125 23.59375 -1.234375 
C 29 -0.421875 34 2.515625 38.09375 6.03125 
C 47.5 14.375 53.09375 26.21875 54.59375 41.390625 
C 55.09375 45.90625 55.203125 50.515625 54.09375 55.046875 
C 53.203125 58.953125 51.703125 61.46875 48.90625 63.984375 
C 43.796875 68 36.296875 68 30.703125 65.453125 
C 25.40625 62.921875 19.90625 57.65625 17.203125 53.078125 
C 14.59375 48.609375 12.703125 41.40625 13.09375 34.90625 
C 13.5 30.8125 15.5 26.21875 18 23.703125 
C 20.296875 21.515625 23.09375 21 26.09375 21 
C 32.09375 21 38.203125 23.9375 42.5 28.171875 
C 43.90625 29.59375 45.59375 31.109375 46.5 33.03125 
M 43.90625 61.03125 
C 48.59375 58.484375 49.40625 52.515625 48.90625 47.640625 
C 48.703125 44.90625 48.5 42.171875 47.59375 39.53125 
C 45.796875 34.46875 42.09375 30 37.40625 27.578125 
C 32.40625 25.03125 24.59375 25.03125 21.5 29.765625 
C 18.90625 33.484375 19.296875 38 20.09375 42.234375 
C 20.796875 45.546875 21.5 48.96875 23 52.078125 
C 25 56.109375 28.59375 59.734375 32.90625 61.234375 
C 36.5 62.4375 40.59375 62.4375 43.90625 61.03125 
" id="Computer_Modern_Bright_Slanted-57"/>
     </defs>
     <g style="fill:#262626;" transform="translate(257.999016 233.881556)scale(0.14 -0.14)">
      <use transform="scale(0.996264)" xlink:href="#Computer_Modern_Bright_Slanted-118"/>
      <use transform="translate(42.341038 0)scale(0.996264)" xlink:href="#Computer_Modern_Bright_Slanted-104"/>
      <use transform="translate(90.493535 0)scale(0.996264)" xlink:href="#Computer_Modern_Bright_Slanted-108"/>
      <use transform="translate(109.588494 0)scale(0.996264)" xlink:href="#Computer_Modern_Bright_Slanted-45"/>
      <use transform="translate(142.797167 0)scale(0.996264)" xlink:href="#Computer_Modern_Bright_Slanted-49"/>
      <use transform="translate(235.881937 0)scale(0.996264)" xlink:href="#Computer_Modern_Bright_Math_Slanted-62"/>
      <use transform="translate(344.834617 0)scale(0.996264)" xlink:href="#Computer_Modern_Bright_Slanted-101"/>
      <use transform="translate(389.666284 0)scale(0.996264)" xlink:href="#Computer_Modern_Bright_Slanted-103"/>
      <use transform="translate(437.818781 0)scale(0.996264)" xlink:href="#Computer_Modern_Bright_Slanted-108"/>
      <use transform="translate(456.91374 0)scale(0.996264)" xlink:href="#Computer_Modern_Bright_Slanted-45"/>
      <use transform="translate(490.122414 0)scale(0.996264)" xlink:href="#Computer_Modern_Bright_Slanted-57"/>
     </g>
    </g>
    <g id="line2d_24">
     <path d="M 218.799016 248.106167 
L 246.799016 248.106167 
" style="fill:none;stroke:#33a02c;stroke-linecap:round;stroke-width:2;"/>
    </g>
    <g id="line2d_25"/>
    <g id="text_18">
     <!-- actual -->
     <g style="fill:#262626;" transform="translate(257.999016 253.006167)scale(0.14 -0.14)">
      <use transform="scale(0.996264)" xlink:href="#Computer_Modern_Bright-97"/>
      <use transform="translate(46.492082 0)scale(0.996264)" xlink:href="#Computer_Modern_Bright-99"/>
      <use transform="translate(91.32375 0)scale(0.996264)" xlink:href="#Computer_Modern_Bright-116"/>
      <use transform="translate(127.438138 0)scale(0.996264)" xlink:href="#Computer_Modern_Bright-117"/>
      <use transform="translate(175.590635 0)scale(0.996264)" xlink:href="#Computer_Modern_Bright-97"/>
      <use transform="translate(222.082717 0)scale(0.996264)" xlink:href="#Computer_Modern_Bright-108"/>
     </g>
    </g>
    <g id="line2d_26">
     <path d="M 218.799016 267.230778 
L 246.799016 267.230778 
" style="fill:none;stroke:#ff7f00;stroke-linecap:round;stroke-width:2;"/>
    </g>
    <g id="line2d_27"/>
    <g id="text_19">
     <!-- Additive -->
     <defs>
      <path d="M 2.09375 0.09375 
L 6.59375 0.09375 
L 8.40625 0.296875 
C 11.40625 6.796875 13.5 14.203125 16.203125 21 
C 26.09375 21 36.90625 21 46.296875 21 
L 47.09375 19.6875 
C 48.796875 14.546875 50.796875 9.59375 52.59375 4.546875 
C 53.09375 3.015625 53.59375 1.515625 54.40625 0.296875 
C 56.59375 0 59.203125 0 61.59375 0 
C 59.90625 4.90625 36.703125 67.203125 36 68.890625 
C 35.90625 69.296875 35.703125 69.890625 35.203125 70 
C 34.59375 70.09375 34 70 33.40625 70 
L 30.09375 70 
C 28.59375 70 28 70.1875 27.59375 68.609375 
C 27.203125 67.59375 2.09375 0.09375 2.09375 0.09375 
M 31.40625 63.171875 
C 35.59375 50.71875 40.09375 38.46875 44.5 26.21875 
L 18.203125 26.21875 
L 26.90625 50.109375 
z
" id="Computer_Modern_Bright-65"/>
     </defs>
     <g style="fill:#262626;" transform="translate(257.999016 272.130778)scale(0.14 -0.14)">
      <use transform="scale(0.996264)" xlink:href="#Computer_Modern_Bright-65"/>
      <use transform="translate(63.511618 0)scale(0.996264)" xlink:href="#Computer_Modern_Bright-100"/>
      <use transform="translate(111.664115 0)scale(0.996264)" xlink:href="#Computer_Modern_Bright-100"/>
      <use transform="translate(159.816612 0)scale(0.996264)" xlink:href="#Computer_Modern_Bright-105"/>
      <use transform="translate(178.911571 0)scale(0.996264)" xlink:href="#Computer_Modern_Bright-116"/>
      <use transform="translate(215.025959 0)scale(0.996264)" xlink:href="#Computer_Modern_Bright-105"/>
      <use transform="translate(234.120917 0)scale(0.996264)" xlink:href="#Computer_Modern_Bright-118"/>
      <use transform="translate(276.461955 0)scale(0.996264)" xlink:href="#Computer_Modern_Bright-101"/>
     </g>
    </g>
    <g id="line2d_28">
     <path d="M 218.799016 286.355389 
L 246.799016 286.355389 
" style="fill:none;stroke:#0000ff;stroke-linecap:round;stroke-width:2;"/>
    </g>
    <g id="line2d_29"/>
    <g id="text_20">
     <!-- \emph{egl-9} $&gt;$ \emph{vhl-1} -->
     <g style="fill:#262626;" transform="translate(257.999016 291.255389)scale(0.14 -0.14)">
      <use transform="scale(0.996264)" xlink:href="#Computer_Modern_Bright_Slanted-101"/>
      <use transform="translate(44.831668 0)scale(0.996264)" xlink:href="#Computer_Modern_Bright_Slanted-103"/>
      <use transform="translate(92.984165 0)scale(0.996264)" xlink:href="#Computer_Modern_Bright_Slanted-108"/>
      <use transform="translate(112.079123 0)scale(0.996264)" xlink:href="#Computer_Modern_Bright_Slanted-45"/>
      <use transform="translate(145.287797 0)scale(0.996264)" xlink:href="#Computer_Modern_Bright_Slanted-57"/>
      <use transform="translate(238.372567 0)scale(0.996264)" xlink:href="#Computer_Modern_Bright_Math_Slanted-62"/>
      <use transform="translate(347.325246 0)scale(0.996264)" xlink:href="#Computer_Modern_Bright_Slanted-118"/>
      <use transform="translate(389.666284 0)scale(0.996264)" xlink:href="#Computer_Modern_Bright_Slanted-104"/>
      <use transform="translate(437.818781 0)scale(0.996264)" xlink:href="#Computer_Modern_Bright_Slanted-108"/>
      <use transform="translate(456.91374 0)scale(0.996264)" xlink:href="#Computer_Modern_Bright_Slanted-45"/>
      <use transform="translate(490.122414 0)scale(0.996264)" xlink:href="#Computer_Modern_Bright_Slanted-49"/>
     </g>
    </g>
   </g>
  </g>
 </g>
 <defs>
  <clipPath id="p1cca288b93">
   <rect height="298.98" width="446.4" x="55.028355" y="7.2"/>
  </clipPath>
 </defs>
</svg>
