<?xml version="1.0" encoding="utf-8" standalone="no"?>
<!DOCTYPE svg PUBLIC "-//W3C//DTD SVG 1.1//EN"
  "http://www.w3.org/Graphics/SVG/1.1/DTD/svg11.dtd">
<!-- Created with matplotlib (http://matplotlib.org/) -->
<svg height="353pt" version="1.1" viewBox="0 0 503 353" width="503pt" xmlns="http://www.w3.org/2000/svg" xmlns:xlink="http://www.w3.org/1999/xlink">
 <defs>
  <style type="text/css">
*{stroke-linecap:butt;stroke-linejoin:round;}
  </style>
 </defs>
 <g id="figure_1">
  <g id="patch_1">
   <path d="M 0 353.548374 
L 503.979163 353.548374 
L 503.979163 0 
L 0 0 
z
" style="fill:#ffffff;"/>
  </g>
  <g id="axes_1">
   <g id="patch_2">
    <path d="M 50.379163 306.18 
L 496.779163 306.18 
L 496.779163 7.2 
L 50.379163 7.2 
z
" style="fill:#eaeaf2;"/>
   </g>
   <g id="matplotlib.axis_1">
    <g id="xtick_1">
     <g id="line2d_1"/>
     <g id="text_1">
      <!-- $-1.0$ -->
      <defs>
       <path d="M 9.796875 28.078125 
C 8 27.484375 7.796875 24.78125 9.796875 24.28125 
C 10.296875 24.078125 10.90625 24.1875 11.5 24.1875 
L 64.703125 24.1875 
C 65.90625 24.1875 67.796875 23.78125 68.796875 24.78125 
C 69.90625 25.875 69.296875 27.875 67.703125 28.1875 
C 66.5 28.375 65.09375 28.1875 63.90625 28.1875 
L 11.40625 28.1875 
C 10.90625 28.1875 10.296875 28.28125 9.796875 28.078125 
" id="Computer_Modern_Bright_Math_Symbols-0"/>
       <path d="M 9.703125 60.015625 
L 9.703125 55 
C 15.203125 55 19 56 23.40625 57.90625 
L 23.40625 5.015625 
L 10.296875 5.015625 
L 10.296875 0 
L 43 0 
L 43 5.015625 
L 29.90625 5.015625 
L 29.90625 67 
C 27.5 67 27.90625 66.359375 26 64.875 
C 21.90625 61.71875 16.203125 60.015625 9.703125 60.015625 
" id="Computer_Modern_Bright-49"/>
       <path d="M 10.703125 7.8125 
L 10.703125 0 
L 18.5 0 
L 18.5 7.8125 
z
" id="Computer_Modern_Bright_Math_Slanted-58"/>
       <path d="M 14.796875 63.859375 
C 11.90625 61.859375 9.90625 59.140625 8.40625 56.03125 
C 4.796875 49 4.40625 40.765625 4.40625 31.828125 
C 4.40625 20.578125 6.40625 10.25 12 4.3125 
C 17.296875 -1.203125 25.703125 -2.609375 32.796875 0.296875 
C 37.203125 2.015625 40.40625 5.71875 42.40625 9.734375 
C 46 16.875 46.40625 25.40625 46.40625 34.234375 
C 46.40625 37.046875 46.296875 39.859375 46 42.671875 
C 45.296875 49.40625 43 56.828125 39.296875 60.953125 
C 33.203125 67.6875 22.296875 69.1875 14.796875 63.859375 
M 34.90625 58.140625 
C 39.59375 53.125 40 43.484375 40 34.34375 
L 40 28.921875 
C 40 24.296875 39.203125 18.28125 38.203125 14.859375 
C 36.796875 10.140625 34.5 6.734375 29.90625 4.625 
C 24.296875 2.609375 18.5 4.515625 15.296875 8.9375 
C 11 14.65625 10.796875 24.796875 10.796875 33.734375 
C 10.796875 42.171875 10.90625 51.515625 15 57.03125 
C 19.5 63.0625 29.203125 64.0625 34.90625 58.140625 
" id="Computer_Modern_Bright-48"/>
      </defs>
      <g style="fill:#262626;" transform="translate(80.388176 324.249603)scale(0.16 -0.16)">
       <use transform="scale(0.996264)" xlink:href="#Computer_Modern_Bright_Math_Symbols-0"/>
       <use transform="translate(77.487468 0)scale(0.996264)" xlink:href="#Computer_Modern_Bright-49"/>
       <use transform="translate(128.130685 0)scale(0.996264)" xlink:href="#Computer_Modern_Bright_Math_Slanted-58"/>
       <use transform="translate(157.188132 0)scale(0.996264)" xlink:href="#Computer_Modern_Bright-48"/>
      </g>
     </g>
    </g>
    <g id="xtick_2">
     <g id="line2d_2"/>
     <g id="text_2">
      <!-- $-0.8$ -->
      <defs>
       <path d="M 18.703125 36 
L 18.703125 35.90625 
C 12.5 34.09375 7.296875 30.6875 4.796875 24.84375 
C 2.203125 18.71875 4 11.28125 8.40625 6.453125 
C 13.09375 1.421875 19.5 -1 26.296875 -1 
C 36.296875 -1 45.90625 6.40625 47.09375 16.734375 
C 47.296875 18.265625 47.203125 19.890625 47 21.40625 
C 45.203125 29.21875 39.5 33.875 32.09375 35.90625 
C 32.90625 36.203125 33.796875 36.40625 34.59375 36.703125 
C 38.796875 38.421875 42.296875 40.921875 44.5 44.9375 
C 47.796875 51.375 44.59375 58.90625 39.203125 63.015625 
C 33.796875 67.140625 26.5 68.234375 19.90625 66.828125 
C 12 65.125 4.5 58.40625 5 49.765625 
C 5.203125 46.75 6.5 44.234375 8 42.4375 
C 10.296875 39.625 14.796875 36.609375 18.703125 36 
M 23.796875 62.5 
C 28.203125 62.5 33.703125 62 36.90625 58.578125 
C 40.703125 54.46875 40.90625 47.03125 37.09375 42.8125 
C 34.703125 40.203125 31.203125 38.890625 27.703125 38.59375 
C 22.796875 38.1875 17.203125 39 13.703125 42.8125 
C 9.796875 47.125 10.09375 54.96875 14.296875 58.984375 
C 16.90625 61.390625 20.40625 62.1875 23.796875 62.5 
M 23.703125 33.5 
C 28.40625 33.5 33.5 32.390625 36.90625 28.9375 
C 38.203125 27.53125 39.203125 25.8125 39.796875 24.015625 
C 41.5 18.75 40.703125 12.09375 36.796875 8.046875 
C 34.09375 5.328125 30.40625 4.3125 26.703125 4.015625 
C 22.203125 4.015625 17 5.109375 13.796875 8.5625 
C 9.40625 13.390625 8.5 23.40625 13.703125 29.0625 
C 16.296875 31.78125 20 33.203125 23.703125 33.5 
" id="Computer_Modern_Bright-56"/>
      </defs>
      <g style="fill:#262626;" transform="translate(153.494844 324.249603)scale(0.16 -0.16)">
       <use transform="scale(0.996264)" xlink:href="#Computer_Modern_Bright_Math_Symbols-0"/>
       <use transform="translate(77.487468 0)scale(0.996264)" xlink:href="#Computer_Modern_Bright-48"/>
       <use transform="translate(128.130685 0)scale(0.996264)" xlink:href="#Computer_Modern_Bright_Math_Slanted-58"/>
       <use transform="translate(157.188132 0)scale(0.996264)" xlink:href="#Computer_Modern_Bright-56"/>
      </g>
     </g>
    </g>
    <g id="xtick_3">
     <g id="line2d_3"/>
     <g id="text_3">
      <!-- $-0.6$ -->
      <defs>
       <path d="M 11.296875 32.625 
L 11.203125 32.625 
C 11.203125 41.765625 12.796875 52.421875 20.59375 58.25 
C 24.90625 61.375 30.703125 62.96875 38.203125 61.171875 
C 39.796875 60.765625 41.296875 60.15625 42.796875 59.765625 
L 42.796875 63.28125 
C 42.796875 63.671875 42.90625 64.375 42.59375 64.78125 
C 41.90625 65.6875 36.296875 66.59375 36.09375 66.59375 
C 27.40625 67.59375 21.703125 65.6875 16.40625 61.171875 
C 10 55.640625 6.296875 47.515625 5.09375 39.28125 
C 4 32.65625 4.90625 22 6.203125 16.78125 
C 8.296875 9.046875 12.296875 2.21875 19.703125 -0.390625 
C 24.09375 -2 29.5 -2 33.703125 0.015625 
C 37.09375 1.640625 39.90625 4.46875 42.09375 7.5 
C 45.59375 12.34375 46.5 18.21875 46.09375 24.171875 
C 45.90625 27.109375 45.5 30.046875 44.296875 32.765625 
C 42.40625 37.125 39.203125 41.671875 35.09375 43.6875 
C 33.203125 44.5 31.203125 44.5 29.203125 44.5 
C 23.90625 44.5 18.90625 42.1875 15.203125 38.359375 
C 13.59375 36.75 12 34.71875 11.296875 32.625 
M 24.40625 39.515625 
C 28.203125 39.8125 32.203125 39.21875 35.09375 36.5 
C 38.90625 32.890625 39.59375 27.765625 39.59375 22.8125 
C 39.59375 19.46875 39.703125 16.015625 38.703125 12.859375 
C 38.09375 11.234375 37.296875 9.828125 36.40625 8.5 
C 34.203125 5.5625 31.40625 4.125 26.796875 3.515625 
C 22.296875 3.515625 17.796875 5.3125 15.203125 9.125 
C 13.59375 11.328125 12.796875 14.046875 12.296875 16.640625 
C 11.703125 19.34375 11.296875 22.140625 11.5 24.859375 
C 12 31.984375 17 38.515625 24.40625 39.515625 
" id="Computer_Modern_Bright-54"/>
      </defs>
      <g style="fill:#262626;" transform="translate(226.601511 324.249603)scale(0.16 -0.16)">
       <use transform="scale(0.996264)" xlink:href="#Computer_Modern_Bright_Math_Symbols-0"/>
       <use transform="translate(77.487468 0)scale(0.996264)" xlink:href="#Computer_Modern_Bright-48"/>
       <use transform="translate(128.130685 0)scale(0.996264)" xlink:href="#Computer_Modern_Bright_Math_Slanted-58"/>
       <use transform="translate(157.188132 0)scale(0.996264)" xlink:href="#Computer_Modern_Bright-54"/>
      </g>
     </g>
    </g>
    <g id="xtick_4">
     <g id="line2d_4"/>
     <g id="text_4">
      <!-- $-0.4$ -->
      <defs>
       <path d="M 2.09375 18 
L 31 18 
L 31 0 
L 37.296875 0 
L 37.296875 18 
L 48.703125 18 
L 48.703125 23.328125 
L 37.296875 23.328125 
L 37.296875 66.46875 
L 31.90625 66.46875 
C 30.09375 66.46875 29.59375 66.578125 28.796875 65.0625 
C 24.796875 58.515625 3.703125 25.765625 3 24.859375 
C 2.203125 23.4375 2.09375 23.546875 2.09375 21.4375 
z
M 31.296875 60.875 
L 31.296875 23.328125 
L 8.59375 23.328125 
C 9.296875 24.734375 10.296875 26.03125 11.203125 27.4375 
C 16.203125 35.171875 28.09375 53.546875 30.59375 59.28125 
C 30.90625 59.78125 31 60.375 31.296875 60.875 
" id="Computer_Modern_Bright-52"/>
      </defs>
      <g style="fill:#262626;" transform="translate(299.708179 324.249603)scale(0.16 -0.16)">
       <use transform="scale(0.996264)" xlink:href="#Computer_Modern_Bright_Math_Symbols-0"/>
       <use transform="translate(77.487468 0)scale(0.996264)" xlink:href="#Computer_Modern_Bright-48"/>
       <use transform="translate(128.130685 0)scale(0.996264)" xlink:href="#Computer_Modern_Bright_Math_Slanted-58"/>
       <use transform="translate(157.188132 0)scale(0.996264)" xlink:href="#Computer_Modern_Bright-52"/>
      </g>
     </g>
    </g>
    <g id="xtick_5">
     <g id="line2d_5"/>
     <g id="text_5">
      <!-- $-0.2$ -->
      <defs>
       <path d="M 7.296875 45.96875 
C 8.703125 51.59375 11.09375 57.984375 16.796875 60.5 
C 19.203125 61.5 21.796875 61.703125 24.40625 61.5 
C 29.296875 61.09375 34.09375 59.09375 37.09375 55.09375 
C 39.296875 52.078125 40.09375 48.375 39.703125 44.78125 
C 38.5 34.34375 28.296875 26.84375 21.703125 21.234375 
C 17.90625 18.03125 7.09375 7.8125 7.09375 7.8125 
L 5.40625 6.203125 
C 4.5 5.3125 4.40625 5.3125 4.40625 3.5 
L 4.40625 0 
L 46.40625 0 
L 46.40625 5.625 
L 10.203125 5.625 
C 13.40625 8.734375 26.703125 20.515625 28.5 21.921875 
C 34.296875 26.65625 40.796875 31.375 44.296875 38.21875 
C 48.203125 46.0625 46.5 55.9375 39.90625 61.765625 
C 35.90625 65.296875 30.40625 67 25.09375 67 
C 20.203125 67 15.203125 66 11.296875 62.90625 
C 8.296875 60.390625 5.796875 56.6875 4.40625 52.875 
C 4.09375 52.28125 3.59375 51.28125 3.703125 50.578125 
C 3.796875 49.984375 4.40625 49.484375 4.703125 49.078125 
C 5.5 48.078125 6.296875 46.875 7.296875 45.96875 
" id="Computer_Modern_Bright-50"/>
      </defs>
      <g style="fill:#262626;" transform="translate(372.814846 324.249603)scale(0.16 -0.16)">
       <use transform="scale(0.996264)" xlink:href="#Computer_Modern_Bright_Math_Symbols-0"/>
       <use transform="translate(77.487468 0)scale(0.996264)" xlink:href="#Computer_Modern_Bright-48"/>
       <use transform="translate(128.130685 0)scale(0.996264)" xlink:href="#Computer_Modern_Bright_Math_Slanted-58"/>
       <use transform="translate(157.188132 0)scale(0.996264)" xlink:href="#Computer_Modern_Bright-50"/>
      </g>
     </g>
    </g>
    <g id="xtick_6">
     <g id="line2d_6"/>
     <g id="text_6">
      <!-- $0.0$ -->
      <g style="fill:#262626;" transform="translate(452.120512 324.249603)scale(0.16 -0.16)">
       <use transform="scale(0.996264)" xlink:href="#Computer_Modern_Bright-48"/>
       <use transform="translate(50.643218 0)scale(0.996264)" xlink:href="#Computer_Modern_Bright_Math_Slanted-58"/>
       <use transform="translate(79.700665 0)scale(0.996264)" xlink:href="#Computer_Modern_Bright-48"/>
      </g>
     </g>
    </g>
    <g id="text_7">
     <!-- Epistasis Coefficient -->
     <defs>
      <path d="M 8 69.328125 
L 8 0 
L 55.40625 0 
L 55.40625 5.625 
L 15 5.625 
L 15 33.671875 
L 51.09375 33.671875 
L 51.09375 39 
L 15 39 
L 15 64 
L 54 64 
L 54 69.328125 
z
" id="Computer_Modern_Bright-69"/>
      <path d="M 12.703125 40.53125 
L 12.703125 47.15625 
L 6.40625 47.15625 
L 6.40625 -17 
L 12.796875 -17 
L 12.796875 6.09375 
C 14.203125 4.078125 15.796875 2.28125 17.90625 1.078125 
C 25 -3.25 34 0.171875 38.90625 6.59375 
C 45.40625 14.96875 46.09375 27.5 41.59375 36.984375 
C 39 42.4375 34.09375 47.5 27.796875 48 
C 22.296875 48 18.09375 45.8125 15.09375 43.125 
C 14.203125 42.328125 13.5 41.4375 12.703125 40.53125 
M 21.90625 42.875 
C 26 43.171875 30 41.265625 32.796875 38.265625 
C 34.5 36.34375 35.796875 34.140625 36.59375 31.734375 
C 40.09375 22.296875 36.90625 9.234375 26.796875 5.328125 
C 21 3.109375 15.296875 5.125 13.09375 10.546875 
C 12.59375 11.546875 12.796875 12.859375 12.796875 13.953125 
L 12.796875 34.640625 
C 12.796875 36.953125 13 37.15625 14.5 38.859375 
C 16.296875 41.0625 19 42.578125 21.90625 42.875 
" id="Computer_Modern_Bright-112"/>
      <path d="M 6.40625 70 
L 6.40625 63.671875 
L 12.703125 63.671875 
L 12.703125 70 
z
M 6.40625 47.390625 
L 6.40625 0 
L 12.703125 0 
L 12.703125 47.390625 
z
" id="Computer_Modern_Bright-105"/>
      <path d="M 3.09375 9.640625 
C 2.90625 8.234375 2.59375 6.9375 2.40625 5.53125 
C 2.203125 4.421875 1.90625 3.921875 2.90625 3.421875 
C 7 1.015625 11.90625 -0.296875 17.703125 -0.796875 
C 24.203125 -1.40625 32.40625 0.109375 35.59375 6.53125 
C 36.5 8.34375 37 10.34375 37.09375 12.359375 
C 37.5 19.578125 31.796875 24.203125 26.90625 25.90625 
C 21.40625 28.015625 13.90625 27.3125 10.09375 31.53125 
C 8.09375 33.84375 8 37.265625 9.90625 39.671875 
C 13.90625 45.296875 26.796875 42.875 31.90625 40.375 
C 32.703125 39.96875 33.40625 39.46875 34.296875 39.265625 
L 35.203125 44.6875 
C 30.5 46.796875 26.40625 48 19.90625 48 
C 14.296875 48 9.203125 46.703125 6 43.484375 
C 2.796875 40.171875 1.703125 34.640625 3.59375 30.4375 
C 5.40625 26.40625 9.203125 23.796875 13.296875 22.5 
C 19.203125 20.390625 25.90625 21.390625 29.796875 16.578125 
C 32 13.765625 31.59375 9.546875 29.09375 7.03125 
C 24.296875 2.609375 14.09375 4.21875 8.5 6.625 
C 6.59375 7.4375 4.90625 8.640625 3.09375 9.640625 
" id="Computer_Modern_Bright-115"/>
      <path d="M 10.796875 60.5 
L 10.796875 47.015625 
L 1.09375 47.015625 
L 1.09375 42 
L 10.703125 42 
L 10.703125 15.015625 
C 10.703125 10.578125 10.40625 5.234375 13.296875 1.515625 
C 15 -0.703125 17.296875 -1.296875 20.796875 -1 
C 23.703125 -1 26.59375 -0.390625 29.296875 0.65625 
C 30.203125 1.0625 33.5 2.515625 33.90625 3.234375 
C 34.09375 3.640625 32.796875 8.09375 32.796875 8.09375 
L 30.40625 6.265625 
C 27.296875 4.34375 21.09375 2.328125 18.5 5.96875 
C 16.203125 9.09375 16.796875 13.75 16.796875 17.375 
L 16.796875 42 
L 32.296875 42 
L 32.296875 47.015625 
L 16.796875 47.015625 
L 16.796875 60.5 
z
" id="Computer_Modern_Bright-116"/>
      <path d="M 7.90625 39.015625 
C 9.59375 39.859375 11 41.09375 12.703125 41.921875 
C 15.40625 43.15625 18.203125 44 21.203125 44 
C 22.59375 44.09375 24.203125 44.296875 25.59375 44 
C 28.09375 43.59375 30.296875 42.078125 31.796875 39.953125 
C 33.296875 37.515625 33.90625 35.390625 33.90625 31.46875 
L 33.90625 27.015625 
C 29.09375 27.015625 24.296875 26.609375 19.703125 25.390625 
C 13.90625 24.078125 7.59375 21.125 5.5 15.84375 
C 3.40625 10.78125 5.59375 4.078125 10.09375 1.03125 
C 12.296875 -0.5 14.90625 -0.5 17.5 -0.296875 
C 21.703125 0 25.90625 1.015625 29.5 3.25 
C 31.203125 4.25 32.90625 5.578125 33.90625 7.296875 
L 34 7.296875 
L 34 0.203125 
L 40.296875 0.203125 
L 40.296875 26.890625 
C 40.296875 29.8125 40.59375 32.953125 40 35.890625 
C 39.40625 39.921875 36.90625 43.265625 34 45.59375 
C 30.59375 48.21875 26.703125 49.109375 21.5 48.71875 
C 16.703125 48.71875 13 47.5 9.40625 45.765625 
C 8.90625 45.5625 7.90625 45.234375 7.59375 44.640625 
C 7.296875 44.21875 7.5 43.515625 7.5 43 
C 7.703125 41.671875 7.796875 40.34375 7.90625 39.015625 
M 33.90625 24 
L 33.90625 16.375 
C 33.90625 14.0625 34 11.953125 32.703125 9.953125 
C 31.59375 8.34375 30.09375 7.234375 28.5 6.4375 
C 22.796875 3.515625 14.09375 4.421875 11.59375 9.25 
C 9.59375 12.75 11.703125 16.875 14.59375 19.1875 
C 18.90625 22.5 27.296875 24 33.90625 24 
" id="Computer_Modern_Bright-97"/>
      <path d="M 60.5 10.875 
C 58.5 9.859375 56.703125 8.453125 54.703125 7.453125 
C 50 5.046875 44 4.140625 37.5 4.734375 
C 31.703125 5.546875 26.90625 8.359375 23.40625 11.875 
C 12.203125 23.15625 11.40625 42.96875 21.296875 55.34375 
C 25.5 60.875 31.90625 65 41.296875 65 
C 45.09375 65 49 64.296875 52.5 62.890625 
C 54.59375 61.96875 56.59375 60.765625 58.59375 59.765625 
L 59.796875 66.8125 
C 57.59375 67.671875 55.296875 68.5625 53 69.09375 
C 47.40625 70.625 38.90625 70.625 33.09375 69.21875 
C 22.90625 66.921875 15.5 59.828125 11.296875 51.625 
C 5.5 40.015625 6.203125 25.515625 13.203125 14.59375 
C 15 11.703125 17.296875 9.109375 19.90625 6.890625 
C 25.90625 1.6875 33.296875 -1.3125 43.59375 -0.5 
C 49.796875 -0.5 53.40625 0.515625 58.203125 3.203125 
C 58.703125 3.5 60.59375 4.515625 60.90625 4.9375 
C 61.09375 5.4375 60.59375 9.53125 60.5 10.875 
" id="Computer_Modern_Bright-67"/>
      <path d="M 10.703125 42.078125 
C 1.796875 33.234375 0.796875 17.875 8.5 7.9375 
C 9.59375 6.421875 10.90625 5.125 12.40625 4.015625 
C 16.09375 1 21.5 -1.203125 27.796875 -0.5 
C 37.796875 0.703125 44.703125 8.84375 46.796875 17.375 
C 49.59375 29.328125 43.703125 42.671875 32.703125 46.890625 
C 24.09375 50.40625 15.5 46.890625 10.703125 42.078125 
M 35.703125 39.359375 
C 40.5 35.03125 41.40625 28.109375 41 21.984375 
C 40.703125 17.265625 39.40625 12.34375 36.09375 8.828125 
C 30.703125 3 20.703125 3 14.90625 8.625 
C 11.90625 11.84375 10.09375 16.453125 9.796875 21.984375 
C 9.296875 30.109375 11.296875 38.75 19.296875 41.96875 
C 25.203125 44.578125 32 42.671875 35.703125 39.359375 
" id="Computer_Modern_Bright-111"/>
      <path d="M 41.796875 10.9375 
C 39.5 9.234375 38.796875 8.328125 35.90625 6.8125 
C 29.796875 3.5 22.59375 3.5 17.40625 7.171875 
C 12.40625 10.765625 9.5 16.640625 9.5 25 
L 42.5 25 
C 42.5 32.421875 40.796875 38.859375 36.59375 43.375 
C 32 47.890625 24.796875 49.296875 18.703125 47.390625 
C 16.40625 46.6875 14.296875 45.484375 12.40625 43.96875 
C 6.09375 38.859375 3.40625 30.71875 3.5 22.78125 
C 3.703125 12.34375 10.796875 1.90625 21.296875 -0.3125 
C 26.796875 -1.421875 32.59375 -0.203125 37.5 2.296875 
C 38.40625 2.796875 41.703125 4.609375 42.09375 5.515625 
C 42.40625 6.015625 41.796875 10.9375 41.796875 10.9375 
M 37.203125 28.90625 
L 10 28.90625 
C 11.203125 36.234375 17.203125 43.96875 25.296875 43.0625 
C 31.90625 42.46875 35.40625 37.75 36.703125 31.828125 
C 36.90625 30.8125 37 29.921875 37.203125 28.90625 
" id="Computer_Modern_Bright-101"/>
      <path d="M 10.59375 47.015625 
L 2 47.015625 
L 2 42 
L 10.59375 42 
L 10.59375 0 
L 16.90625 0 
L 16.90625 42 
L 30.09375 42 
L 30.09375 47.015625 
L 16.796875 47.015625 
L 16.796875 56.234375 
C 16.796875 57.890625 16.59375 59.65625 17.296875 61.21875 
C 19.5 65.875 25.40625 65.875 29.59375 65.078125 
C 30.59375 64.875 31.703125 64.46875 32.703125 64.265625 
L 32.703125 69.90625 
C 27.703125 70.609375 22.296875 71.21875 17.703125 68.46875 
C 15.796875 67.4375 14.203125 65.6875 13 63.921875 
C 11.09375 60.9375 10.59375 58.78125 10.59375 53.71875 
z
M 38.09375 0 
L 44.40625 0 
L 44.40625 42 
L 57.59375 42 
L 57.59375 47.015625 
L 44.296875 47.015625 
L 44.296875 55.234375 
C 44.296875 56.890625 44.09375 58.65625 44.40625 60.328125 
C 44.90625 62.296875 46.09375 63.65625 47.703125 64.671875 
C 50.796875 66.171875 54.40625 65.078125 57.59375 64.171875 
L 57.59375 70 
C 55.09375 70.1875 52.703125 70.6875 50.203125 70.5 
C 43.40625 70 38.59375 64.046875 38.09375 57.3125 
C 38 55.890625 38.09375 54.375 38.09375 52.96875 
z
M 65.59375 70 
L 65.59375 63.671875 
L 71.90625 63.671875 
L 71.90625 70 
z
M 65.59375 47.390625 
L 65.59375 0 
L 71.90625 0 
L 71.90625 47.390625 
z
" id="Computer_Modern_Bright-14"/>
      <path d="M 42.40625 11.25 
C 40.5 9.84375 38.796875 8.328125 36.703125 7.125 
C 32 4.625 24.796875 3.421875 19.40625 5.921875 
C 11.59375 9.9375 9.5 19.6875 10.59375 27.71875 
C 10.796875 29.328125 11.09375 30.921875 11.59375 32.4375 
C 13.796875 38.96875 19.296875 44.078125 28.296875 43.078125 
C 33.09375 42.671875 35.5 41.875 39.296875 39.765625 
C 40 39.359375 40.59375 38.859375 41.40625 38.65625 
C 41.5 39.859375 41.796875 41.171875 42 42.375 
C 42.296875 43.984375 42.296875 44.1875 40.796875 44.890625 
C 39.703125 45.390625 38.59375 45.984375 37.40625 46.390625 
C 32.796875 48.40625 25.203125 49 20 47.5 
C 12.90625 45.484375 7.59375 39.359375 5.296875 32.53125 
C 4.203125 29.421875 3.90625 26.109375 3.90625 22.796875 
C 4 12.25 11.203125 1.90625 21.703125 -0.203125 
C 27.5 -1.40625 34.203125 0.296875 38.203125 2.40625 
C 39.203125 2.90625 42.203125 4.71875 42.703125 5.625 
C 43 6.125 42.40625 11.25 42.40625 11.25 
" id="Computer_Modern_Bright-99"/>
      <path d="M 12.59375 37.28125 
L 12.5 37.28125 
L 12.5 47.390625 
L 6.40625 47.390625 
L 6.40625 0 
L 12.796875 0 
L 12.796875 21.9375 
C 12.796875 26.84375 12.5 31.875 14.703125 36.46875 
C 15.796875 38.78125 17.5 40.78125 19.796875 41.984375 
C 21.703125 42.890625 23.703125 42.890625 25.796875 42.6875 
C 28.796875 42.6875 31.703125 41.890625 33.59375 39.375 
C 35.40625 37.0625 35.5 34.0625 35.5 31.25 
L 35.5 0 
L 41.90625 0 
L 41.90625 26.859375 
C 41.90625 31.875 42.40625 37.375 40 41.890625 
C 38.09375 45.5 34.40625 47.203125 30.5 47.703125 
C 28.5 48 26.40625 48 24.40625 47.609375 
C 19.203125 46.5 14.40625 42.296875 12.59375 37.28125 
" id="Computer_Modern_Bright-110"/>
     </defs>
     <g style="fill:#262626;" transform="translate(201.022873 343.359582)scale(0.18 -0.18)">
      <use transform="scale(0.996264)" xlink:href="#Computer_Modern_Bright-69"/>
      <use transform="translate(58.737787 0)scale(0.996264)" xlink:href="#Computer_Modern_Bright-112"/>
      <use transform="translate(106.890284 0)scale(0.996264)" xlink:href="#Computer_Modern_Bright-105"/>
      <use transform="translate(125.985243 0)scale(0.996264)" xlink:href="#Computer_Modern_Bright-115"/>
      <use transform="translate(164.424272 0)scale(0.996264)" xlink:href="#Computer_Modern_Bright-116"/>
      <use transform="translate(200.53866 0)scale(0.996264)" xlink:href="#Computer_Modern_Bright-97"/>
      <use transform="translate(247.030742 0)scale(0.996264)" xlink:href="#Computer_Modern_Bright-115"/>
      <use transform="translate(285.469772 0)scale(0.996264)" xlink:href="#Computer_Modern_Bright-105"/>
      <use transform="translate(304.56473 0)scale(0.996264)" xlink:href="#Computer_Modern_Bright-115"/>
      <use transform="translate(374.468971 0)scale(0.996264)" xlink:href="#Computer_Modern_Bright-67"/>
      <use transform="translate(439.641004 0)scale(0.996264)" xlink:href="#Computer_Modern_Bright-111"/>
      <use transform="translate(490.284222 0)scale(0.996264)" xlink:href="#Computer_Modern_Bright-101"/>
      <use transform="translate(535.115889 0)scale(0.996264)" xlink:href="#Computer_Modern_Bright-14"/>
      <use transform="translate(613.156322 0)scale(0.996264)" xlink:href="#Computer_Modern_Bright-99"/>
      <use transform="translate(657.987989 0)scale(0.996264)" xlink:href="#Computer_Modern_Bright-105"/>
      <use transform="translate(677.082948 0)scale(0.996264)" xlink:href="#Computer_Modern_Bright-101"/>
      <use transform="translate(721.914616 0)scale(0.996264)" xlink:href="#Computer_Modern_Bright-110"/>
      <use transform="translate(770.067113 0)scale(0.996264)" xlink:href="#Computer_Modern_Bright-116"/>
     </g>
    </g>
   </g>
   <g id="matplotlib.axis_2">
    <g id="ytick_1">
     <g id="line2d_7"/>
     <g id="text_8">
      <!-- $0$ -->
      <g style="fill:#262626;" transform="translate(35.010613 298.124802)scale(0.16 -0.16)">
       <use transform="scale(0.996264)" xlink:href="#Computer_Modern_Bright-48"/>
      </g>
     </g>
    </g>
    <g id="ytick_2">
     <g id="line2d_8"/>
     <g id="text_9">
      <!-- $10$ -->
      <g style="fill:#262626;" transform="translate(26.642062 256.34302)scale(0.16 -0.16)">
       <use transform="scale(0.996264)" xlink:href="#Computer_Modern_Bright-49"/>
       <use transform="translate(50.643218 0)scale(0.996264)" xlink:href="#Computer_Modern_Bright-48"/>
      </g>
     </g>
    </g>
    <g id="ytick_3">
     <g id="line2d_9"/>
     <g id="text_10">
      <!-- $20$ -->
      <g style="fill:#262626;" transform="translate(26.642062 214.561239)scale(0.16 -0.16)">
       <use transform="scale(0.996264)" xlink:href="#Computer_Modern_Bright-50"/>
       <use transform="translate(50.643218 0)scale(0.996264)" xlink:href="#Computer_Modern_Bright-48"/>
      </g>
     </g>
    </g>
    <g id="ytick_4">
     <g id="line2d_10"/>
     <g id="text_11">
      <!-- $30$ -->
      <defs>
       <path d="M 8.09375 50.71875 
C 8.90625 51.921875 9.5 53.234375 10.40625 54.4375 
C 12.5 57.25 15.40625 59.453125 18.703125 60.765625 
C 23.90625 62.875 31.5 62.875 35.59375 58.21875 
C 39.203125 54.078125 37.703125 47.609375 34.40625 43.78125 
C 31.40625 40.25 27.5 38.53125 21.703125 38.53125 
C 20 38.53125 18.40625 38.03125 16.703125 38.03125 
L 16.703125 33 
L 23.59375 33 
C 29.40625 33 33.203125 32.109375 36.40625 28.6875 
C 41.90625 22.859375 41.40625 12.515625 35.296875 7.203125 
C 32.203125 4.59375 27.90625 3.78125 23.90625 4.078125 
C 16.09375 4.6875 9.203125 8.8125 4.59375 15.234375 
C 4.09375 14.234375 4.09375 12.828125 3.90625 11.71875 
C 3.59375 10.109375 3.59375 10.109375 4.59375 8.8125 
C 7.5 4.890625 13.203125 1.28125 17.703125 -0.03125 
C 25.703125 -2.4375 35 -1.34375 41.203125 4.78125 
C 42.40625 6 43.5 7.296875 44.40625 8.703125 
C 48.09375 14.53125 48.203125 22.15625 44.09375 27.78125 
C 42.40625 30.09375 40.203125 31.90625 37.703125 33.3125 
C 36 34.3125 34 35.3125 32 35.515625 
C 37.796875 38.234375 43.203125 42.828125 44.203125 50.359375 
C 45.09375 57.375 41 61.6875 36.796875 64.1875 
C 30.296875 68 21.796875 68 15.09375 64.671875 
C 12 63.171875 9.203125 60.96875 7.09375 58.25 
C 6.703125 57.75 5.203125 56.046875 5.203125 55.234375 
C 5.203125 54.734375 5.59375 54.234375 5.90625 53.828125 
z
" id="Computer_Modern_Bright-51"/>
      </defs>
      <g style="fill:#262626;" transform="translate(26.642062 172.779458)scale(0.16 -0.16)">
       <use transform="scale(0.996264)" xlink:href="#Computer_Modern_Bright-51"/>
       <use transform="translate(50.643218 0)scale(0.996264)" xlink:href="#Computer_Modern_Bright-48"/>
      </g>
     </g>
    </g>
    <g id="ytick_5">
     <g id="line2d_11"/>
     <g id="text_12">
      <!-- $40$ -->
      <g style="fill:#262626;" transform="translate(26.642062 130.997676)scale(0.16 -0.16)">
       <use transform="scale(0.996264)" xlink:href="#Computer_Modern_Bright-52"/>
       <use transform="translate(50.643218 0)scale(0.996264)" xlink:href="#Computer_Modern_Bright-48"/>
      </g>
     </g>
    </g>
    <g id="ytick_6">
     <g id="line2d_12"/>
     <g id="text_13">
      <!-- $50$ -->
      <defs>
       <path d="M 8.40625 66.328125 
L 8.40625 30.453125 
L 12.203125 30.453125 
C 12.703125 30.453125 13.40625 30.359375 13.796875 30.5625 
C 14.296875 30.859375 14.59375 31.5625 14.90625 31.96875 
C 15.59375 32.859375 16.40625 33.5625 17.203125 34.265625 
C 20.796875 37.28125 27.703125 38.484375 32.296875 36.171875 
C 38.59375 33.171875 39.796875 25.21875 39.296875 19 
C 39 15.0625 37.796875 11.453125 35.5 9.140625 
C 30.203125 3.5 21.296875 3.5 14.796875 6.796875 
C 11.59375 8.40625 8.90625 10.921875 6.90625 13.921875 
L 6.796875 13.921875 
C 6.5 13.421875 4.203125 9.90625 4.203125 9.296875 
C 4.203125 8.890625 4.5 8.59375 4.703125 8.296875 
C 7.703125 4.78125 11.59375 2.0625 16.09375 0.5625 
C 25 -2.25 35 -0.046875 41.296875 7.1875 
C 48.796875 15.921875 47.796875 30.15625 39.09375 37.765625 
C 36.5 40.1875 32.90625 41.890625 28.59375 42.28125 
C 22.796875 43.09375 17.59375 40.28125 14.5 37.671875 
L 14.5 61 
L 42.90625 61 
L 42.90625 66.328125 
z
" id="Computer_Modern_Bright-53"/>
      </defs>
      <g style="fill:#262626;" transform="translate(26.642062 89.215895)scale(0.16 -0.16)">
       <use transform="scale(0.996264)" xlink:href="#Computer_Modern_Bright-53"/>
       <use transform="translate(50.643218 0)scale(0.996264)" xlink:href="#Computer_Modern_Bright-48"/>
      </g>
     </g>
    </g>
    <g id="ytick_7">
     <g id="line2d_13"/>
     <g id="text_14">
      <!-- $60$ -->
      <g style="fill:#262626;" transform="translate(26.642062 47.434114)scale(0.16 -0.16)">
       <use transform="scale(0.996264)" xlink:href="#Computer_Modern_Bright-54"/>
       <use transform="translate(50.643218 0)scale(0.996264)" xlink:href="#Computer_Modern_Bright-48"/>
      </g>
     </g>
    </g>
    <g id="text_15">
     <!-- Cumulative Density Function -->
     <defs>
      <path d="M 6.40625 47 
L 6.40625 12.96875 
C 6.40625 10.046875 6.5 7.140625 7.703125 4.421875 
C 9.59375 0.515625 13.59375 -1 17.703125 -1 
C 23.203125 -1 28.703125 0.8125 32.703125 4.734375 
C 33.796875 5.828125 34.796875 6.9375 35.5 8.34375 
L 35.59375 8.34375 
L 35.59375 -0.390625 
L 41.90625 -0.390625 
L 41.90625 47 
L 35.5 47 
L 35.5 22.90625 
C 35.5 18.6875 36.09375 14.0625 33.90625 10.25 
C 32.296875 7.4375 29.5 5.234375 26.40625 4.234375 
C 24.296875 3.625 22.09375 3.625 19.90625 3.828125 
C 17.796875 4.03125 15.5 4.234375 14.09375 6.03125 
C 12.09375 8.453125 12.796875 14.171875 12.796875 17.6875 
L 12.796875 47 
z
" id="Computer_Modern_Bright-117"/>
      <path d="M 12.59375 37.359375 
L 12.5 37.359375 
L 12.5 47.390625 
L 6.40625 47.390625 
L 6.40625 0 
L 12.796875 0 
L 12.796875 22.046875 
C 12.796875 26.953125 12.5 31.875 14.703125 36.375 
C 16.59375 40.28125 19.90625 43.390625 25.796875 42.78125 
C 28.796875 42.78125 31.796875 41.984375 33.703125 39.453125 
C 35.5 37.140625 35.59375 34.140625 35.59375 31.3125 
L 35.59375 0 
L 42 0 
L 42 22.046875 
C 42 26.953125 41.703125 31.875 43.90625 36.375 
C 45.796875 40.28125 49.09375 43.390625 55 42.78125 
C 58 42.78125 61 41.984375 62.90625 39.453125 
C 64.703125 37.140625 64.796875 34.140625 64.796875 31.3125 
L 64.796875 0 
L 71.203125 0 
L 71.203125 26.5625 
C 71.203125 31.375 71.796875 36.78125 69.703125 41.1875 
C 67.59375 45.296875 64.203125 47.5 58.703125 47.5 
C 55.5 47.796875 52.296875 47.3125 49.40625 45.84375 
C 45.90625 43.921875 43.296875 40.75 41.703125 37.265625 
C 41 40.578125 40.203125 42.828125 38 45 
C 35.703125 47.0625 32.59375 48 29.59375 48 
C 22.296875 48.59375 17.703125 45.5625 14.59375 41 
C 13.796875 39.875 13 38.671875 12.59375 37.359375 
" id="Computer_Modern_Bright-109"/>
      <path d="M 6.40625 69.6875 
L 6.40625 0 
L 12.703125 0 
L 12.703125 69.6875 
z
" id="Computer_Modern_Bright-108"/>
      <path d="M 0.703125 47.5 
C 1.203125 45.5 4.203125 37.578125 4.40625 37.078125 
C 5.40625 34.28125 17.296875 0.609375 17.59375 0.296875 
C 17.90625 -0.203125 18.796875 0 19.296875 0 
L 22.796875 0 
C 24.09375 0 24.90625 -0.296875 25.203125 0.90625 
C 28.40625 9.328125 40.09375 42.703125 41.796875 47.5 
L 35.59375 47.5 
C 30.796875 33.984375 25.90625 20.4375 21.40625 6.609375 
L 11 36.203125 
C 9.5 39.796875 8.59375 43.890625 6.90625 47.203125 
C 5.09375 47.5 2.796875 47.5 0.703125 47.5 
" id="Computer_Modern_Bright-118"/>
      <path d="M 8 70 
L 8 0 
L 28.203125 0 
C 31.40625 0 34.59375 0 37.703125 0.296875 
C 45.703125 1.109375 52.59375 5.015625 57.203125 9.828125 
C 70.09375 23.171875 70 46.125 57.296875 59.671875 
C 52.703125 64.578125 46.5 68.5 38.703125 69.5 
C 34.90625 70 31 70 27.203125 70 
z
M 14.90625 5.3125 
L 14.90625 64.5625 
L 27.796875 64.5625 
C 30.5 64.5625 33.203125 64.5625 35.90625 64.359375 
C 40.40625 63.859375 44.796875 62.359375 48.5 59.734375 
C 56.59375 54.125 60 44.171875 60 34.640625 
C 60 26.609375 57.796875 18.375 51.90625 12.640625 
C 47.90625 8.9375 42.5 6.21875 36 5.515625 
C 33.40625 5.3125 30.703125 5.3125 28.09375 5.3125 
z
" id="Computer_Modern_Bright-68"/>
      <path d="M 0.703125 47.65625 
C 1.296875 45.75 5.40625 35.609375 5.5 35.3125 
L 17.40625 4.578125 
L 18.40625 2.078125 
C 19 0.671875 19.203125 0.46875 18.59375 -1.140625 
L 17.5 -4.046875 
C 16.59375 -6.46875 15.59375 -8.96875 13.703125 -10.484375 
C 10.296875 -13.296875 4.90625 -11.6875 0.796875 -10.78125 
L 1.296875 -16.5 
C 3.203125 -16.796875 5.09375 -17 7 -17 
C 11.296875 -17.515625 14.09375 -16.5 16.703125 -14.296875 
C 20 -11.484375 21.59375 -7.5625 23.09375 -3.546875 
L 26.203125 5.078125 
L 36.40625 32.90625 
C 38.09375 37.921875 40.203125 42.640625 41.796875 47.65625 
L 37.296875 47.65625 
C 36.796875 47.65625 36 47.859375 35.59375 47.46875 
C 35.40625 47.15625 35.296875 46.765625 35.203125 46.453125 
L 34.40625 44.34375 
C 33.40625 41.734375 32.5 39.234375 31.59375 36.609375 
L 25.796875 20.25 
C 24.296875 15.828125 22.59375 11.3125 21.796875 6.6875 
C 20.703125 11.3125 19.203125 15.734375 17.59375 20.140625 
C 16.296875 23.5625 8.5 44.546875 7.5 46.5625 
C 7.09375 47.65625 6.703125 47.65625 5.203125 47.65625 
z
" id="Computer_Modern_Bright-121"/>
      <path d="M 8 69.328125 
L 8 0 
L 15 0 
L 15 32 
L 48.09375 32 
L 48.09375 37.3125 
L 15 37.3125 
L 15 64 
L 52.40625 64 
L 52.40625 69.328125 
z
" id="Computer_Modern_Bright-70"/>
     </defs>
     <g style="fill:#262626;" transform="translate(19.65327 260.669538)rotate(-90)scale(0.18 -0.18)">
      <use transform="scale(0.996264)" xlink:href="#Computer_Modern_Bright-67"/>
      <use transform="translate(65.172032 0)scale(0.996264)" xlink:href="#Computer_Modern_Bright-117"/>
      <use transform="translate(113.324529 0)scale(0.996264)" xlink:href="#Computer_Modern_Bright-109"/>
      <use transform="translate(190.534656 0)scale(0.996264)" xlink:href="#Computer_Modern_Bright-117"/>
      <use transform="translate(238.687153 0)scale(0.996264)" xlink:href="#Computer_Modern_Bright-108"/>
      <use transform="translate(257.782112 0)scale(0.996264)" xlink:href="#Computer_Modern_Bright-97"/>
      <use transform="translate(304.274194 0)scale(0.996264)" xlink:href="#Computer_Modern_Bright-116"/>
      <use transform="translate(340.388582 0)scale(0.996264)" xlink:href="#Computer_Modern_Bright-105"/>
      <use transform="translate(359.483541 0)scale(0.996264)" xlink:href="#Computer_Modern_Bright-118"/>
      <use transform="translate(401.824579 0)scale(0.996264)" xlink:href="#Computer_Modern_Bright-101"/>
      <use transform="translate(478.121458 0)scale(0.996264)" xlink:href="#Computer_Modern_Bright-68"/>
      <use transform="translate(549.727645 0)scale(0.996264)" xlink:href="#Computer_Modern_Bright-101"/>
      <use transform="translate(594.559312 0)scale(0.996264)" xlink:href="#Computer_Modern_Bright-110"/>
      <use transform="translate(642.711809 0)scale(0.996264)" xlink:href="#Computer_Modern_Bright-115"/>
      <use transform="translate(681.150839 0)scale(0.996264)" xlink:href="#Computer_Modern_Bright-105"/>
      <use transform="translate(700.245798 0)scale(0.996264)" xlink:href="#Computer_Modern_Bright-116"/>
      <use transform="translate(733.454456 0)scale(0.996264)" xlink:href="#Computer_Modern_Bright-121"/>
      <use transform="translate(807.260706 0)scale(0.996264)" xlink:href="#Computer_Modern_Bright-70"/>
      <use transform="translate(860.187034 0)scale(0.996264)" xlink:href="#Computer_Modern_Bright-117"/>
      <use transform="translate(908.339531 0)scale(0.996264)" xlink:href="#Computer_Modern_Bright-110"/>
      <use transform="translate(956.492028 0)scale(0.996264)" xlink:href="#Computer_Modern_Bright-99"/>
      <use transform="translate(1001.323695 0)scale(0.996264)" xlink:href="#Computer_Modern_Bright-116"/>
      <use transform="translate(1037.438083 0)scale(0.996264)" xlink:href="#Computer_Modern_Bright-105"/>
      <use transform="translate(1056.533042 0)scale(0.996264)" xlink:href="#Computer_Modern_Bright-111"/>
      <use transform="translate(1107.17626 0)scale(0.996264)" xlink:href="#Computer_Modern_Bright-110"/>
     </g>
    </g>
   </g>
   <g id="PolyCollection_1">
    <path clip-path="url(#p260fed419d)" d="M 70.670072 292.588283 
L 70.670072 292.59 
L 71.176796 292.59 
L 71.68352 292.59 
L 72.190243 292.59 
L 72.696967 292.59 
L 73.203691 292.59 
L 73.710414 292.59 
L 74.217138 292.59 
L 74.723862 292.59 
L 75.230585 292.59 
L 75.737309 292.59 
L 76.244032 292.59 
L 76.750756 292.59 
L 77.25748 292.59 
L 77.764203 292.59 
L 78.270927 292.59 
L 78.777651 292.59 
L 79.284374 292.59 
L 79.791098 292.59 
L 80.297822 292.59 
L 80.804545 292.59 
L 81.311269 292.59 
L 81.817992 292.59 
L 82.324716 292.59 
L 82.83144 292.59 
L 83.338163 292.59 
L 83.844887 292.59 
L 84.351611 292.59 
L 84.858334 292.59 
L 85.365058 292.59 
L 85.871782 292.59 
L 86.378505 292.59 
L 86.885229 292.59 
L 87.391952 292.59 
L 87.898676 292.59 
L 88.4054 292.59 
L 88.912123 292.59 
L 89.418847 292.59 
L 89.925571 292.59 
L 90.432294 292.59 
L 90.939018 292.59 
L 91.445741 292.59 
L 91.952465 292.59 
L 92.459189 292.59 
L 92.965912 292.59 
L 93.472636 292.59 
L 93.97936 292.59 
L 94.486083 292.59 
L 94.992807 292.59 
L 95.499531 292.59 
L 96.006254 292.59 
L 96.512978 292.59 
L 97.019701 292.59 
L 97.526425 292.59 
L 98.033149 292.59 
L 98.539872 292.59 
L 99.046596 292.59 
L 99.55332 292.59 
L 100.060043 292.59 
L 100.566767 292.59 
L 101.073491 292.59 
L 101.580214 292.59 
L 102.086938 292.59 
L 102.593661 292.59 
L 103.100385 292.59 
L 103.607109 292.59 
L 104.113832 292.59 
L 104.620556 292.59 
L 105.12728 292.59 
L 105.634003 292.59 
L 106.140727 292.59 
L 106.647451 292.59 
L 107.154174 292.59 
L 107.660898 292.59 
L 108.167621 292.59 
L 108.674345 292.59 
L 109.181069 292.59 
L 109.687792 292.59 
L 110.194516 292.59 
L 110.70124 292.59 
L 111.207963 292.59 
L 111.714687 292.59 
L 112.221411 292.59 
L 112.728134 292.59 
L 113.234858 292.59 
L 113.741581 292.59 
L 114.248305 292.59 
L 114.755029 292.59 
L 115.261752 292.59 
L 115.768476 292.59 
L 116.2752 292.59 
L 116.781923 292.59 
L 117.288647 292.59 
L 117.795371 292.59 
L 118.302094 292.59 
L 118.808818 292.59 
L 119.315541 292.59 
L 119.822265 292.59 
L 120.328989 292.59 
L 120.835712 292.59 
L 121.342436 292.59 
L 121.84916 292.59 
L 122.355883 292.59 
L 122.862607 292.59 
L 123.369331 292.59 
L 123.876054 292.59 
L 124.382778 292.59 
L 124.889501 292.59 
L 125.396225 292.59 
L 125.902949 292.59 
L 126.409672 292.59 
L 126.916396 292.59 
L 127.42312 292.59 
L 127.929843 292.59 
L 128.436567 292.59 
L 128.943291 292.59 
L 129.450014 292.59 
L 129.956738 292.59 
L 130.463461 292.59 
L 130.970185 292.59 
L 131.476909 292.59 
L 131.983632 292.59 
L 132.490356 292.59 
L 132.99708 292.59 
L 133.503803 292.59 
L 134.010527 292.59 
L 134.517251 292.59 
L 135.023974 292.59 
L 135.023974 292.588582 
L 135.023974 292.588582 
L 134.517251 292.587056 
L 134.010527 292.582986 
L 133.503803 292.574968 
L 132.99708 292.561793 
L 132.490356 292.543726 
L 131.983632 292.523484 
L 131.476909 292.505762 
L 130.970185 292.494887 
L 130.463461 292.491918 
L 129.956738 292.49364 
L 129.450014 292.494643 
L 128.943291 292.490907 
L 128.436567 292.481659 
L 127.929843 292.467728 
L 127.42312 292.448028 
L 126.916396 292.417744 
L 126.409672 292.37026 
L 125.902949 292.301324 
L 125.396225 292.211948 
L 124.889501 292.107708 
L 124.382778 291.994851 
L 123.876054 291.875408 
L 123.369331 291.743974 
L 122.862607 291.588086 
L 122.355883 291.392144 
L 121.84916 291.142072 
L 121.342436 290.827477 
L 120.835712 290.441053 
L 120.328989 289.978024 
L 119.822265 289.437764 
L 119.315541 288.827215 
L 118.808818 288.164599 
L 118.302094 287.480799 
L 117.795371 286.812871 
L 117.288647 286.185338 
L 116.781923 285.586356 
L 116.2752 284.958773 
L 115.768476 284.221714 
L 115.261752 283.313028 
L 114.755029 282.21998 
L 114.248305 280.971706 
L 113.741581 279.599945 
L 113.234858 278.101207 
L 112.728134 276.427005 
L 112.221411 274.500438 
L 111.714687 272.241809 
L 111.207963 269.594821 
L 110.70124 266.553953 
L 110.194516 263.182699 
L 109.687792 259.599034 
L 109.181069 255.919483 
L 108.674345 252.1926 
L 108.167621 248.374833 
L 107.660898 244.376905 
L 107.154174 240.155373 
L 106.647451 235.788335 
L 106.140727 231.48351 
L 105.634003 227.510009 
L 105.12728 224.090129 
L 104.620556 221.307547 
L 104.113832 219.077056 
L 103.607109 217.190183 
L 103.100385 215.416108 
L 102.593661 213.610169 
L 102.086938 211.775622 
L 101.580214 210.048501 
L 101.073491 208.621267 
L 100.566767 207.657223 
L 100.060043 207.246551 
L 99.55332 207.417831 
L 99.046596 208.175405 
L 98.539872 209.51748 
L 98.033149 211.415933 
L 97.526425 213.784437 
L 97.019701 216.481211 
L 96.512978 219.360935 
L 96.006254 222.337796 
L 95.499531 225.406935 
L 94.992807 228.611241 
L 94.486083 231.98784 
L 93.97936 235.534393 
L 93.472636 239.205826 
L 92.965912 242.928435 
L 92.459189 246.618397 
L 91.952465 250.198215 
L 91.445741 253.604522 
L 90.939018 256.78453 
L 90.432294 259.692851 
L 89.925571 262.306301 
L 89.418847 264.653273 
L 88.912123 266.825825 
L 88.4054 268.946252 
L 87.898676 271.101735 
L 87.391952 273.29721 
L 86.885229 275.464048 
L 86.378505 277.511736 
L 85.871782 279.376273 
L 85.365058 281.034939 
L 84.858334 282.495839 
L 84.351611 283.78521 
L 83.844887 284.939168 
L 83.338163 285.991828 
L 82.83144 286.959253 
L 82.324716 287.831907 
L 81.817992 288.584906 
L 81.311269 289.199314 
L 80.804545 289.679026 
L 80.297822 290.053187 
L 79.791098 290.364294 
L 79.284374 290.64917 
L 78.777651 290.923399 
L 78.270927 291.179154 
L 77.764203 291.398386 
L 77.25748 291.571432 
L 76.750756 291.706425 
L 76.244032 291.823517 
L 75.737309 291.941148 
L 75.230585 292.066205 
L 74.723862 292.19355 
L 74.217138 292.311978 
L 73.710414 292.411012 
L 73.203691 292.485078 
L 72.696967 292.534421 
L 72.190243 292.563574 
L 71.68352 292.578774 
L 71.176796 292.585696 
L 70.670072 292.588283 
z
" style="fill:#e31a1c;fill-opacity:0.25;"/>
   </g>
   <g id="PolyCollection_2">
    <path clip-path="url(#p260fed419d)" d="M 449.357439 292.583656 
L 449.357439 292.59 
L 449.571068 292.59 
L 449.784696 292.59 
L 449.998325 292.59 
L 450.211953 292.59 
L 450.425582 292.59 
L 450.63921 292.59 
L 450.852839 292.59 
L 451.066467 292.59 
L 451.280095 292.59 
L 451.493724 292.59 
L 451.707352 292.59 
L 451.920981 292.59 
L 452.134609 292.59 
L 452.348238 292.59 
L 452.561866 292.59 
L 452.775495 292.59 
L 452.989123 292.59 
L 453.202752 292.59 
L 453.41638 292.59 
L 453.630009 292.59 
L 453.843637 292.59 
L 454.057265 292.59 
L 454.270894 292.59 
L 454.484522 292.59 
L 454.698151 292.59 
L 454.911779 292.59 
L 455.125408 292.59 
L 455.339036 292.59 
L 455.552665 292.59 
L 455.766293 292.59 
L 455.979922 292.59 
L 456.19355 292.59 
L 456.407179 292.59 
L 456.620807 292.59 
L 456.834436 292.59 
L 457.048064 292.59 
L 457.261692 292.59 
L 457.475321 292.59 
L 457.688949 292.59 
L 457.902578 292.59 
L 458.116206 292.59 
L 458.329835 292.59 
L 458.543463 292.59 
L 458.757092 292.59 
L 458.97072 292.59 
L 459.184349 292.59 
L 459.397977 292.59 
L 459.611606 292.59 
L 459.825234 292.59 
L 460.038862 292.59 
L 460.252491 292.59 
L 460.466119 292.59 
L 460.679748 292.59 
L 460.893376 292.59 
L 461.107005 292.59 
L 461.320633 292.59 
L 461.534262 292.59 
L 461.74789 292.59 
L 461.961519 292.59 
L 462.175147 292.59 
L 462.388776 292.59 
L 462.602404 292.59 
L 462.816033 292.59 
L 463.029661 292.59 
L 463.243289 292.59 
L 463.456918 292.59 
L 463.670546 292.59 
L 463.884175 292.59 
L 464.097803 292.59 
L 464.311432 292.59 
L 464.52506 292.59 
L 464.738689 292.59 
L 464.952317 292.59 
L 465.165946 292.59 
L 465.379574 292.59 
L 465.593203 292.59 
L 465.806831 292.59 
L 466.020459 292.59 
L 466.234088 292.59 
L 466.447716 292.59 
L 466.661345 292.59 
L 466.874973 292.59 
L 467.088602 292.59 
L 467.30223 292.59 
L 467.515859 292.59 
L 467.729487 292.59 
L 467.943116 292.59 
L 468.156744 292.59 
L 468.370373 292.59 
L 468.584001 292.59 
L 468.79763 292.59 
L 469.011258 292.59 
L 469.224886 292.59 
L 469.438515 292.59 
L 469.652143 292.59 
L 469.865772 292.59 
L 470.0794 292.59 
L 470.293029 292.59 
L 470.506657 292.59 
L 470.720286 292.59 
L 470.933914 292.59 
L 471.147543 292.59 
L 471.361171 292.59 
L 471.5748 292.59 
L 471.788428 292.59 
L 472.002057 292.59 
L 472.215685 292.59 
L 472.429313 292.59 
L 472.642942 292.59 
L 472.85657 292.59 
L 473.070199 292.59 
L 473.283827 292.59 
L 473.497456 292.59 
L 473.711084 292.59 
L 473.924713 292.59 
L 474.138341 292.59 
L 474.35197 292.59 
L 474.565598 292.59 
L 474.779227 292.59 
L 474.992855 292.59 
L 475.206483 292.59 
L 475.420112 292.59 
L 475.63374 292.59 
L 475.847369 292.59 
L 476.060997 292.59 
L 476.274626 292.59 
L 476.488254 292.59 
L 476.488254 292.585891 
L 476.488254 292.585891 
L 476.274626 292.582808 
L 476.060997 292.573379 
L 475.847369 292.554615 
L 475.63374 292.523858 
L 475.420112 292.48196 
L 475.206483 292.435831 
L 474.992855 292.397752 
L 474.779227 292.380261 
L 474.565598 292.389039 
L 474.35197 292.418607 
L 474.138341 292.453787 
L 473.924713 292.475149 
L 473.711084 292.464117 
L 473.497456 292.405155 
L 473.283827 292.28604 
L 473.070199 292.098643 
L 472.85657 291.841084 
L 472.642942 291.519674 
L 472.429313 291.147878 
L 472.215685 290.740446 
L 472.002057 290.302651 
L 471.788428 289.816488 
L 471.5748 289.228637 
L 471.361171 288.450335 
L 471.147543 287.381485 
L 470.933914 285.959679 
L 470.720286 284.209727 
L 470.506657 282.253038 
L 470.293029 280.253762 
L 470.0794 278.324215 
L 469.865772 276.447849 
L 469.652143 274.470313 
L 469.438515 272.163418 
L 469.224886 269.321187 
L 469.011258 265.835698 
L 468.79763 261.724026 
L 468.584001 257.10925 
L 468.370373 252.173759 
L 468.156744 247.102737 
L 467.943116 242.032528 
L 467.729487 237.014344 
L 467.515859 231.996027 
L 467.30223 226.823273 
L 467.088602 221.271437 
L 466.874973 215.116354 
L 466.661345 208.218235 
L 466.447716 200.558748 
L 466.234088 192.196086 
L 466.020459 183.187012 
L 465.806831 173.582135 
L 465.593203 163.541472 
L 465.379574 153.471581 
L 465.165946 144.009453 
L 464.952317 135.787942 
L 464.738689 129.125017 
L 464.52506 123.868071 
L 464.311432 119.503194 
L 464.097803 115.439959 
L 463.884175 111.284735 
L 463.670546 106.95913 
L 463.456918 102.634611 
L 463.243289 98.570326 
L 463.029661 94.997792 
L 462.816033 92.134737 
L 462.602404 90.264987 
L 462.388776 89.744389 
L 462.175147 90.883042 
L 461.961519 93.804569 
L 461.74789 98.407467 
L 461.534262 104.433286 
L 461.320633 111.545702 
L 461.107005 119.360794 
L 460.893376 127.470596 
L 460.679748 135.527057 
L 460.466119 143.372853 
L 460.252491 151.118864 
L 460.038862 159.074067 
L 459.825234 167.535019 
L 459.611606 176.558432 
L 459.397977 185.876651 
L 459.184349 195.029267 
L 458.97072 203.625266 
L 458.757092 211.544694 
L 458.543463 218.936816 
L 458.329835 226.039683 
L 458.116206 232.98104 
L 457.902578 239.70469 
L 457.688949 246.037983 
L 457.475321 251.810813 
L 457.261692 256.932789 
L 457.048064 261.3985 
L 456.834436 265.248532 
L 456.620807 268.531854 
L 456.407179 271.298401 
L 456.19355 273.617684 
L 455.979922 275.594282 
L 455.766293 277.354096 
L 455.552665 279.003701 
L 455.339036 280.592367 
L 455.125408 282.107216 
L 454.911779 283.505772 
L 454.698151 284.760796 
L 454.484522 285.884992 
L 454.270894 286.921269 
L 454.057265 287.909834 
L 453.843637 288.8576 
L 453.630009 289.731599 
L 453.41638 290.480212 
L 453.202752 291.065712 
L 452.989123 291.484265 
L 452.775495 291.761924 
L 452.561866 291.935037 
L 452.348238 292.032307 
L 452.134609 292.069309 
L 451.920981 292.055242 
L 451.707352 292.004854 
L 451.493724 291.945996 
L 451.280095 291.915164 
L 451.066467 291.941577 
L 450.852839 292.030998 
L 450.63921 292.162648 
L 450.425582 292.302049 
L 450.211953 292.419539 
L 449.998325 292.501487 
L 449.784696 292.549686 
L 449.571068 292.573753 
L 449.357439 292.583656 
z
" style="fill:#ff7f00;fill-opacity:0.25;"/>
   </g>
   <g id="PolyCollection_3">
    <path clip-path="url(#p260fed419d)" d="M 297.75898 292.587477 
L 297.75898 292.59 
L 298.076279 292.59 
L 298.393578 292.59 
L 298.710878 292.59 
L 299.028177 292.59 
L 299.345476 292.59 
L 299.662775 292.59 
L 299.980074 292.59 
L 300.297373 292.59 
L 300.614672 292.59 
L 300.931971 292.59 
L 301.24927 292.59 
L 301.566569 292.59 
L 301.883868 292.59 
L 302.201168 292.59 
L 302.518467 292.59 
L 302.835766 292.59 
L 303.153065 292.59 
L 303.470364 292.59 
L 303.787663 292.59 
L 304.104962 292.59 
L 304.422261 292.59 
L 304.73956 292.59 
L 305.056859 292.59 
L 305.374159 292.59 
L 305.691458 292.59 
L 306.008757 292.59 
L 306.326056 292.59 
L 306.643355 292.59 
L 306.960654 292.59 
L 307.277953 292.59 
L 307.595252 292.59 
L 307.912551 292.59 
L 308.22985 292.59 
L 308.547149 292.59 
L 308.864449 292.59 
L 309.181748 292.59 
L 309.499047 292.59 
L 309.816346 292.59 
L 310.133645 292.59 
L 310.450944 292.59 
L 310.768243 292.59 
L 311.085542 292.59 
L 311.402841 292.59 
L 311.72014 292.59 
L 312.03744 292.59 
L 312.354739 292.59 
L 312.672038 292.59 
L 312.989337 292.59 
L 313.306636 292.59 
L 313.623935 292.59 
L 313.941234 292.59 
L 314.258533 292.59 
L 314.575832 292.59 
L 314.893131 292.59 
L 315.210431 292.59 
L 315.52773 292.59 
L 315.845029 292.59 
L 316.162328 292.59 
L 316.479627 292.59 
L 316.796926 292.59 
L 317.114225 292.59 
L 317.431524 292.59 
L 317.748823 292.59 
L 318.066122 292.59 
L 318.383421 292.59 
L 318.700721 292.59 
L 319.01802 292.59 
L 319.335319 292.59 
L 319.652618 292.59 
L 319.969917 292.59 
L 320.287216 292.59 
L 320.604515 292.59 
L 320.921814 292.59 
L 321.239113 292.59 
L 321.556412 292.59 
L 321.873712 292.59 
L 322.191011 292.59 
L 322.50831 292.59 
L 322.825609 292.59 
L 323.142908 292.59 
L 323.460207 292.59 
L 323.777506 292.59 
L 324.094805 292.59 
L 324.412104 292.59 
L 324.729403 292.59 
L 325.046702 292.59 
L 325.364002 292.59 
L 325.681301 292.59 
L 325.9986 292.59 
L 326.315899 292.59 
L 326.633198 292.59 
L 326.950497 292.59 
L 327.267796 292.59 
L 327.585095 292.59 
L 327.902394 292.59 
L 328.219693 292.59 
L 328.536993 292.59 
L 328.854292 292.59 
L 329.171591 292.59 
L 329.48889 292.59 
L 329.806189 292.59 
L 330.123488 292.59 
L 330.440787 292.59 
L 330.758086 292.59 
L 331.075385 292.59 
L 331.392684 292.59 
L 331.709983 292.59 
L 332.027283 292.59 
L 332.344582 292.59 
L 332.661881 292.59 
L 332.97918 292.59 
L 333.296479 292.59 
L 333.613778 292.59 
L 333.931077 292.59 
L 334.248376 292.59 
L 334.565675 292.59 
L 334.882974 292.59 
L 335.200274 292.59 
L 335.517573 292.59 
L 335.834872 292.59 
L 336.152171 292.59 
L 336.46947 292.59 
L 336.786769 292.59 
L 337.104068 292.59 
L 337.421367 292.59 
L 337.738666 292.59 
L 338.055965 292.59 
L 338.055965 292.587684 
L 338.055965 292.587684 
L 337.738666 292.585636 
L 337.421367 292.580375 
L 337.104068 292.569888 
L 336.786769 292.551413 
L 336.46947 292.522123 
L 336.152171 292.480203 
L 335.834872 292.425992 
L 335.517573 292.362546 
L 335.200274 292.294987 
L 334.882974 292.228425 
L 334.565675 292.165047 
L 334.248376 292.101595 
L 333.931077 292.028667 
L 333.613778 291.932494 
L 333.296479 291.798581 
L 332.97918 291.615432 
L 332.661881 291.376302 
L 332.344582 291.077878 
L 332.027283 290.716551 
L 331.709983 290.284562 
L 331.392684 289.768733 
L 331.075385 289.153246 
L 330.758086 288.425538 
L 330.440787 287.582535 
L 330.123488 286.634179 
L 329.806189 285.602468 
L 329.48889 284.515805 
L 329.171591 283.399663 
L 328.854292 282.26568 
L 328.536993 281.102698 
L 328.219693 279.874333 
L 327.902394 278.526708 
L 327.585095 277.006174 
L 327.267796 275.281169 
L 326.950497 273.358377 
L 326.633198 271.284023 
L 326.315899 269.127182 
L 325.9986 266.950456 
L 325.681301 264.780526 
L 325.364002 262.593372 
L 325.046702 260.324129 
L 324.729403 257.899464 
L 324.412104 255.27599 
L 324.094805 252.461439 
L 323.777506 249.50436 
L 323.460207 246.459309 
L 323.142908 243.352311 
L 322.825609 240.170495 
L 322.50831 236.879871 
L 322.191011 233.452464 
L 321.873712 229.877928 
L 321.556412 226.151552 
L 321.239113 222.256019 
L 320.921814 218.164483 
L 320.604515 213.874951 
L 320.287216 209.453424 
L 319.969917 205.045725 
L 319.652618 200.835118 
L 319.335319 196.96465 
L 319.01802 193.475591 
L 318.700721 190.30766 
L 318.383421 187.364102 
L 318.066122 184.596762 
L 317.748823 182.050679 
L 317.431524 179.837158 
L 317.114225 178.056691 
L 316.796926 176.729106 
L 316.479627 175.782765 
L 316.162328 175.113448 
L 315.845029 174.675504 
L 315.52773 174.543334 
L 315.210431 174.895811 
L 314.893131 175.923404 
L 314.575832 177.710648 
L 314.258533 180.169786 
L 313.941234 183.074228 
L 313.623935 186.176753 
L 313.306636 189.340086 
L 312.989337 192.598372 
L 312.672038 196.114372 
L 312.354739 200.065616 
L 312.03744 204.534405 
L 311.72014 209.46419 
L 311.402841 214.692836 
L 311.085542 220.024833 
L 310.768243 225.294283 
L 310.450944 230.395623 
L 310.133645 235.287531 
L 309.816346 239.981974 
L 309.499047 244.521241 
L 309.181748 248.943415 
L 308.864449 253.248432 
L 308.547149 257.386014 
L 308.22985 261.276283 
L 307.912551 264.849737 
L 307.595252 268.07825 
L 307.277953 270.977591 
L 306.960654 273.585602 
L 306.643355 275.937184 
L 306.326056 278.054403 
L 306.008757 279.953468 
L 305.691458 281.656264 
L 305.374159 283.193637 
L 305.056859 284.597736 
L 304.73956 285.890413 
L 304.422261 287.076347 
L 304.104962 288.144383 
L 303.787663 289.075029 
L 303.470364 289.850024 
L 303.153065 290.46076 
L 302.835766 290.913628 
L 302.518467 291.231025 
L 302.201168 291.447529 
L 301.883868 291.602194 
L 301.566569 291.729583 
L 301.24927 291.852847 
L 300.931971 291.981238 
L 300.614672 292.112354 
L 300.297373 292.237368 
L 299.980074 292.346667 
L 299.662775 292.433837 
L 299.345476 292.497176 
L 299.028177 292.539083 
L 298.710878 292.564303 
L 298.393578 292.578066 
L 298.076279 292.584787 
L 297.75898 292.587477 
z
" style="fill:#33a02c;fill-opacity:0.25;"/>
   </g>
   <g id="PolyCollection_4">
    <path clip-path="url(#p260fed419d)" d="M 271.814592 292.584874 
L 271.814592 292.59 
L 271.969152 292.59 
L 272.123712 292.59 
L 272.278273 292.59 
L 272.432833 292.59 
L 272.587393 292.59 
L 272.741954 292.59 
L 272.896514 292.59 
L 273.051074 292.59 
L 273.205635 292.59 
L 273.360195 292.59 
L 273.514755 292.59 
L 273.669316 292.59 
L 273.823876 292.59 
L 273.978436 292.59 
L 274.132997 292.59 
L 274.287557 292.59 
L 274.442117 292.59 
L 274.596678 292.59 
L 274.751238 292.59 
L 274.905799 292.59 
L 275.060359 292.59 
L 275.214919 292.59 
L 275.36948 292.59 
L 275.52404 292.59 
L 275.6786 292.59 
L 275.833161 292.59 
L 275.987721 292.59 
L 276.142281 292.59 
L 276.296842 292.59 
L 276.451402 292.59 
L 276.605962 292.59 
L 276.760523 292.59 
L 276.915083 292.59 
L 277.069643 292.59 
L 277.224204 292.59 
L 277.378764 292.59 
L 277.533325 292.59 
L 277.687885 292.59 
L 277.842445 292.59 
L 277.997006 292.59 
L 278.151566 292.59 
L 278.306126 292.59 
L 278.460687 292.59 
L 278.615247 292.59 
L 278.769807 292.59 
L 278.924368 292.59 
L 279.078928 292.59 
L 279.233488 292.59 
L 279.388049 292.59 
L 279.542609 292.59 
L 279.697169 292.59 
L 279.85173 292.59 
L 280.00629 292.59 
L 280.16085 292.59 
L 280.315411 292.59 
L 280.469971 292.59 
L 280.624532 292.59 
L 280.779092 292.59 
L 280.933652 292.59 
L 281.088213 292.59 
L 281.242773 292.59 
L 281.397333 292.59 
L 281.551894 292.59 
L 281.706454 292.59 
L 281.861014 292.59 
L 282.015575 292.59 
L 282.170135 292.59 
L 282.324695 292.59 
L 282.479256 292.59 
L 282.633816 292.59 
L 282.788376 292.59 
L 282.942937 292.59 
L 283.097497 292.59 
L 283.252058 292.59 
L 283.406618 292.59 
L 283.561178 292.59 
L 283.715739 292.59 
L 283.870299 292.59 
L 284.024859 292.59 
L 284.17942 292.59 
L 284.33398 292.59 
L 284.48854 292.59 
L 284.643101 292.59 
L 284.797661 292.59 
L 284.952221 292.59 
L 285.106782 292.59 
L 285.261342 292.59 
L 285.415902 292.59 
L 285.570463 292.59 
L 285.725023 292.59 
L 285.879583 292.59 
L 286.034144 292.59 
L 286.188704 292.59 
L 286.343265 292.59 
L 286.497825 292.59 
L 286.652385 292.59 
L 286.806946 292.59 
L 286.961506 292.59 
L 287.116066 292.59 
L 287.270627 292.59 
L 287.425187 292.59 
L 287.579747 292.59 
L 287.734308 292.59 
L 287.888868 292.59 
L 288.043428 292.59 
L 288.197989 292.59 
L 288.352549 292.59 
L 288.507109 292.59 
L 288.66167 292.59 
L 288.81623 292.59 
L 288.97079 292.59 
L 289.125351 292.59 
L 289.279911 292.59 
L 289.434472 292.59 
L 289.589032 292.59 
L 289.743592 292.59 
L 289.898153 292.59 
L 290.052713 292.59 
L 290.207273 292.59 
L 290.361834 292.59 
L 290.516394 292.59 
L 290.670954 292.59 
L 290.825515 292.59 
L 290.980075 292.59 
L 291.134635 292.59 
L 291.289196 292.59 
L 291.443756 292.59 
L 291.443756 292.58549 
L 291.443756 292.58549 
L 291.289196 292.580385 
L 291.134635 292.566989 
L 290.980075 292.54063 
L 290.825515 292.497404 
L 290.670954 292.438543 
L 290.516394 292.373995 
L 290.361834 292.321377 
L 290.207273 292.298657 
L 290.052713 292.314272 
L 289.898153 292.361843 
L 289.743592 292.423517 
L 289.589032 292.47877 
L 289.434472 292.511654 
L 289.279911 292.512499 
L 289.125351 292.476233 
L 288.97079 292.402178 
L 288.81623 292.297381 
L 288.66167 292.180122 
L 288.507109 292.077441 
L 288.352549 292.013607 
L 288.197989 291.993845 
L 288.043428 291.99338 
L 287.888868 291.959999 
L 287.734308 291.829794 
L 287.579747 291.547823 
L 287.425187 291.08437 
L 287.270627 290.4421 
L 287.116066 289.652954 
L 286.961506 288.763494 
L 286.806946 287.808108 
L 286.652385 286.776268 
L 286.497825 285.590176 
L 286.343265 284.113348 
L 286.188704 282.200616 
L 286.034144 279.772719 
L 285.879583 276.8652 
L 285.725023 273.594353 
L 285.570463 270.034589 
L 285.415902 266.092017 
L 285.261342 261.503244 
L 285.106782 256.013035 
L 284.952221 249.62527 
L 284.797661 242.720478 
L 284.643101 235.907732 
L 284.48854 229.686354 
L 284.33398 224.149453 
L 284.17942 218.922413 
L 284.024859 213.343432 
L 283.870299 206.73985 
L 283.715739 198.646842 
L 283.561178 188.907175 
L 283.406618 177.670112 
L 283.252058 165.326648 
L 283.097497 152.408152 
L 282.942937 139.470865 
L 282.788376 126.987461 
L 282.633816 115.258397 
L 282.479256 104.349754 
L 282.324695 94.074752 
L 282.170135 84.05395 
L 282.015575 73.883066 
L 281.861014 63.38113 
L 281.706454 52.804184 
L 281.551894 42.866519 
L 281.397333 34.486929 
L 281.242773 28.356027 
L 281.088213 24.57865 
L 280.933652 22.637556 
L 280.779092 21.717478 
L 280.624532 21.167438 
L 280.469971 20.79 
L 280.315411 20.812829 
L 280.16085 21.654983 
L 280.00629 23.702604 
L 279.85173 27.200883 
L 279.697169 32.226377 
L 279.542609 38.691948 
L 279.388049 46.408681 
L 279.233488 55.220815 
L 279.078928 65.11731 
L 278.924368 76.175684 
L 278.769807 88.336775 
L 278.615247 101.220064 
L 278.460687 114.209056 
L 278.306126 126.790637 
L 278.151566 138.861386 
L 277.997006 150.717849 
L 277.842445 162.735291 
L 277.687885 175.013041 
L 277.533325 187.261005 
L 277.378764 198.964248 
L 277.224204 209.648667 
L 277.069643 219.057623 
L 276.915083 227.18244 
L 276.760523 234.199501 
L 276.605962 240.37362 
L 276.451402 245.953813 
L 276.296842 251.089981 
L 276.142281 255.817134 
L 275.987721 260.122397 
L 275.833161 264.037789 
L 275.6786 267.67268 
L 275.52404 271.157587 
L 275.36948 274.555081 
L 275.214919 277.815772 
L 275.060359 280.806423 
L 274.905799 283.378643 
L 274.751238 285.432474 
L 274.596678 286.94989 
L 274.442117 287.994503 
L 274.287557 288.684639 
L 274.132997 289.154101 
L 273.978436 289.517836 
L 273.823876 289.853401 
L 273.669316 290.19861 
L 273.514755 290.559997 
L 273.360195 290.926231 
L 273.205635 291.28068 
L 273.051074 291.608297 
L 272.896514 291.896529 
L 272.741954 292.13474 
L 272.587393 292.316087 
L 272.432833 292.44082 
L 272.278273 292.517173 
L 272.123712 292.55832 
L 271.969152 292.577581 
L 271.814592 292.584874 
z
" style="fill:#1f78b4;fill-opacity:0.25;"/>
   </g>
   <g id="PolyCollection_5">
    <path clip-path="url(#p260fed419d)" d="M 281.871474 292.586784 
L 281.871474 292.59 
L 282.090996 292.59 
L 282.310518 292.59 
L 282.530041 292.59 
L 282.749563 292.59 
L 282.969086 292.59 
L 283.188608 292.59 
L 283.408131 292.59 
L 283.627653 292.59 
L 283.847176 292.59 
L 284.066698 292.59 
L 284.28622 292.59 
L 284.505743 292.59 
L 284.725265 292.59 
L 284.944788 292.59 
L 285.16431 292.59 
L 285.383833 292.59 
L 285.603355 292.59 
L 285.822878 292.59 
L 286.0424 292.59 
L 286.261923 292.59 
L 286.481445 292.59 
L 286.700967 292.59 
L 286.92049 292.59 
L 287.140012 292.59 
L 287.359535 292.59 
L 287.579057 292.59 
L 287.79858 292.59 
L 288.018102 292.59 
L 288.237625 292.59 
L 288.457147 292.59 
L 288.676669 292.59 
L 288.896192 292.59 
L 289.115714 292.59 
L 289.335237 292.59 
L 289.554759 292.59 
L 289.774282 292.59 
L 289.993804 292.59 
L 290.213327 292.59 
L 290.432849 292.59 
L 290.652372 292.59 
L 290.871894 292.59 
L 291.091416 292.59 
L 291.310939 292.59 
L 291.530461 292.59 
L 291.749984 292.59 
L 291.969506 292.59 
L 292.189029 292.59 
L 292.408551 292.59 
L 292.628074 292.59 
L 292.847596 292.59 
L 293.067118 292.59 
L 293.286641 292.59 
L 293.506163 292.59 
L 293.725686 292.59 
L 293.945208 292.59 
L 294.164731 292.59 
L 294.384253 292.59 
L 294.603776 292.59 
L 294.823298 292.59 
L 295.042821 292.59 
L 295.262343 292.59 
L 295.481865 292.59 
L 295.701388 292.59 
L 295.92091 292.59 
L 296.140433 292.59 
L 296.359955 292.59 
L 296.579478 292.59 
L 296.799 292.59 
L 297.018523 292.59 
L 297.238045 292.59 
L 297.457567 292.59 
L 297.67709 292.59 
L 297.896612 292.59 
L 298.116135 292.59 
L 298.335657 292.59 
L 298.55518 292.59 
L 298.774702 292.59 
L 298.994225 292.59 
L 299.213747 292.59 
L 299.43327 292.59 
L 299.652792 292.59 
L 299.872314 292.59 
L 300.091837 292.59 
L 300.311359 292.59 
L 300.530882 292.59 
L 300.750404 292.59 
L 300.969927 292.59 
L 301.189449 292.59 
L 301.408972 292.59 
L 301.628494 292.59 
L 301.848016 292.59 
L 302.067539 292.59 
L 302.287061 292.59 
L 302.506584 292.59 
L 302.726106 292.59 
L 302.945629 292.59 
L 303.165151 292.59 
L 303.384674 292.59 
L 303.604196 292.59 
L 303.823719 292.59 
L 304.043241 292.59 
L 304.262763 292.59 
L 304.482286 292.59 
L 304.701808 292.59 
L 304.921331 292.59 
L 305.140853 292.59 
L 305.360376 292.59 
L 305.579898 292.59 
L 305.799421 292.59 
L 306.018943 292.59 
L 306.238465 292.59 
L 306.457988 292.59 
L 306.67751 292.59 
L 306.897033 292.59 
L 307.116555 292.59 
L 307.336078 292.59 
L 307.5556 292.59 
L 307.775123 292.59 
L 307.994645 292.59 
L 308.214168 292.59 
L 308.43369 292.59 
L 308.653212 292.59 
L 308.872735 292.59 
L 309.092257 292.59 
L 309.31178 292.59 
L 309.531302 292.59 
L 309.750825 292.59 
L 309.750825 292.586781 
L 309.750825 292.586781 
L 309.531302 292.582698 
L 309.31178 292.572207 
L 309.092257 292.551449 
L 308.872735 292.517119 
L 308.653212 292.469635 
L 308.43369 292.415316 
L 308.214168 292.364762 
L 307.994645 292.327216 
L 307.775123 292.305024 
L 307.5556 292.293041 
L 307.336078 292.282331 
L 307.116555 292.262073 
L 306.897033 292.215813 
L 306.67751 292.116752 
L 306.457988 291.930939 
L 306.238465 291.631098 
L 306.018943 291.212962 
L 305.799421 290.701007 
L 305.579898 290.135819 
L 305.360376 289.547268 
L 305.140853 288.928717 
L 304.921331 288.229757 
L 304.701808 287.375116 
L 304.482286 286.299849 
L 304.262763 284.978007 
L 304.043241 283.424838 
L 303.823719 281.670756 
L 303.604196 279.724733 
L 303.384674 277.550653 
L 303.165151 275.070033 
L 302.945629 272.187273 
L 302.726106 268.819768 
L 302.506584 264.913642 
L 302.287061 260.441359 
L 302.067539 255.398173 
L 301.848016 249.81379 
L 301.628494 243.766742 
L 301.408972 237.36744 
L 301.189449 230.701765 
L 300.969927 223.782109 
L 300.750404 216.565554 
L 300.530882 209.033536 
L 300.311359 201.249604 
L 300.091837 193.320715 
L 299.872314 185.289106 
L 299.652792 177.071578 
L 299.43327 168.539765 
L 299.213747 159.703494 
L 298.994225 150.834437 
L 298.774702 142.382352 
L 298.55518 134.707548 
L 298.335657 127.832294 
L 298.116135 121.423006 
L 297.896612 115.038448 
L 297.67709 108.476039 
L 297.457567 101.98265 
L 297.238045 96.197499 
L 297.018523 91.871416 
L 296.799 89.537433 
L 296.579478 89.313839 
L 296.359955 90.91098 
L 296.140433 93.787609 
L 295.92091 97.364098 
L 295.701388 101.231871 
L 295.481865 105.301152 
L 295.262343 109.79797 
L 295.042821 115.070321 
L 294.823298 121.314688 
L 294.603776 128.425202 
L 294.384253 136.068517 
L 294.164731 143.89693 
L 293.945208 151.728643 
L 293.725686 159.596823 
L 293.506163 167.67813 
L 293.286641 176.154597 
L 293.067118 185.063692 
L 292.847596 194.20597 
L 292.628074 203.181066 
L 292.408551 211.553183 
L 292.189029 219.045661 
L 291.969506 225.641566 
L 291.749984 231.549563 
L 291.530461 237.084877 
L 291.310939 242.5342 
L 291.091416 248.04853 
L 290.871894 253.594439 
L 290.652372 258.986345 
L 290.432849 263.988829 
L 290.213327 268.432614 
L 289.993804 272.27652 
L 289.774282 275.586126 
L 289.554759 278.45674 
L 289.335237 280.941399 
L 289.115714 283.03425 
L 288.896192 284.714041 
L 288.676669 286.004212 
L 288.457147 286.995117 
L 288.237625 287.810851 
L 288.018102 288.552126 
L 287.79858 289.261351 
L 287.579057 289.929184 
L 287.359535 290.526193 
L 287.140012 291.030691 
L 286.92049 291.437369 
L 286.700967 291.751299 
L 286.481445 291.98039 
L 286.261923 292.134183 
L 286.0424 292.227429 
L 285.822878 292.281847 
L 285.603355 292.321454 
L 285.383833 292.363443 
L 285.16431 292.411531 
L 284.944788 292.457055 
L 284.725265 292.486571 
L 284.505743 292.490484 
L 284.28622 292.468522 
L 284.066698 292.430922 
L 283.847176 292.395172 
L 283.627653 292.378667 
L 283.408131 292.39029 
L 283.188608 292.426309 
L 282.969086 292.473742 
L 282.749563 292.51845 
L 282.530041 292.551823 
L 282.310518 292.572298 
L 282.090996 292.582717 
L 281.871474 292.586784 
z
" style="fill:#0000ff;fill-opacity:0.25;"/>
   </g>
   <g id="PolyCollection_6">
    <path clip-path="url(#p260fed419d)" d="M 243.917153 292.585068 
L 243.917153 292.59 
L 244.118753 292.59 
L 244.320354 292.59 
L 244.521955 292.59 
L 244.723555 292.59 
L 244.925156 292.59 
L 245.126757 292.59 
L 245.328357 292.59 
L 245.529958 292.59 
L 245.731559 292.59 
L 245.933159 292.59 
L 246.13476 292.59 
L 246.336361 292.59 
L 246.537961 292.59 
L 246.739562 292.59 
L 246.941163 292.59 
L 247.142763 292.59 
L 247.344364 292.59 
L 247.545965 292.59 
L 247.747565 292.59 
L 247.949166 292.59 
L 248.150767 292.59 
L 248.352367 292.59 
L 248.553968 292.59 
L 248.755569 292.59 
L 248.957169 292.59 
L 249.15877 292.59 
L 249.360371 292.59 
L 249.561971 292.59 
L 249.763572 292.59 
L 249.965173 292.59 
L 250.166773 292.59 
L 250.368374 292.59 
L 250.569975 292.59 
L 250.771575 292.59 
L 250.973176 292.59 
L 251.174776 292.59 
L 251.376377 292.59 
L 251.577978 292.59 
L 251.779578 292.59 
L 251.981179 292.59 
L 252.18278 292.59 
L 252.38438 292.59 
L 252.585981 292.59 
L 252.787582 292.59 
L 252.989182 292.59 
L 253.190783 292.59 
L 253.392384 292.59 
L 253.593984 292.59 
L 253.795585 292.59 
L 253.997186 292.59 
L 254.198786 292.59 
L 254.400387 292.59 
L 254.601988 292.59 
L 254.803588 292.59 
L 255.005189 292.59 
L 255.20679 292.59 
L 255.40839 292.59 
L 255.609991 292.59 
L 255.811592 292.59 
L 256.013192 292.59 
L 256.214793 292.59 
L 256.416394 292.59 
L 256.617994 292.59 
L 256.819595 292.59 
L 257.021196 292.59 
L 257.222796 292.59 
L 257.424397 292.59 
L 257.625998 292.59 
L 257.827598 292.59 
L 258.029199 292.59 
L 258.2308 292.59 
L 258.4324 292.59 
L 258.634001 292.59 
L 258.835602 292.59 
L 259.037202 292.59 
L 259.238803 292.59 
L 259.440404 292.59 
L 259.642004 292.59 
L 259.843605 292.59 
L 260.045206 292.59 
L 260.246806 292.59 
L 260.448407 292.59 
L 260.650008 292.59 
L 260.851608 292.59 
L 261.053209 292.59 
L 261.25481 292.59 
L 261.45641 292.59 
L 261.658011 292.59 
L 261.859612 292.59 
L 262.061212 292.59 
L 262.262813 292.59 
L 262.464414 292.59 
L 262.666014 292.59 
L 262.867615 292.59 
L 263.069216 292.59 
L 263.270816 292.59 
L 263.472417 292.59 
L 263.674018 292.59 
L 263.875618 292.59 
L 264.077219 292.59 
L 264.27882 292.59 
L 264.48042 292.59 
L 264.682021 292.59 
L 264.883622 292.59 
L 265.085222 292.59 
L 265.286823 292.59 
L 265.488424 292.59 
L 265.690024 292.59 
L 265.891625 292.59 
L 266.093226 292.59 
L 266.294826 292.59 
L 266.496427 292.59 
L 266.698028 292.59 
L 266.899628 292.59 
L 267.101229 292.59 
L 267.30283 292.59 
L 267.50443 292.59 
L 267.706031 292.59 
L 267.907632 292.59 
L 268.109232 292.59 
L 268.310833 292.59 
L 268.512434 292.59 
L 268.714034 292.59 
L 268.915635 292.59 
L 269.117236 292.59 
L 269.318836 292.59 
L 269.520437 292.59 
L 269.520437 292.586006 
L 269.520437 292.586006 
L 269.318836 292.58259 
L 269.117236 292.573206 
L 268.915635 292.554048 
L 268.714034 292.519684 
L 268.512434 292.464057 
L 268.310833 292.381753 
L 268.109232 292.26898 
L 267.907632 292.123919 
L 267.706031 291.946793 
L 267.50443 291.740108 
L 267.30283 291.508407 
L 267.101229 291.255566 
L 266.899628 290.978746 
L 266.698028 290.661904 
L 266.496427 290.275168 
L 266.294826 289.784486 
L 266.093226 289.16842 
L 265.891625 288.431171 
L 265.690024 287.600645 
L 265.488424 286.709928 
L 265.286823 285.77348 
L 265.085222 284.77488 
L 264.883622 283.674873 
L 264.682021 282.432061 
L 264.48042 281.017607 
L 264.27882 279.410969 
L 264.077219 277.582535 
L 263.875618 275.482684 
L 263.674018 273.048912 
L 263.472417 270.220618 
L 263.270816 266.942422 
L 263.069216 263.156182 
L 262.867615 258.806472 
L 262.666014 253.877205 
L 262.464414 248.437793 
L 262.262813 242.651256 
L 262.061212 236.722314 
L 261.859612 230.819087 
L 261.658011 225.026378 
L 261.45641 219.353957 
L 261.25481 213.769209 
L 261.053209 208.208385 
L 260.851608 202.555771 
L 260.650008 196.624365 
L 260.448407 190.181206 
L 260.246806 183.027859 
L 260.045206 175.098644 
L 259.843605 166.513734 
L 259.642004 157.544789 
L 259.440404 148.508324 
L 259.238803 139.655703 
L 259.037202 131.133988 
L 258.835602 123.039296 
L 258.634001 115.512179 
L 258.4324 108.791016 
L 258.2308 103.172585 
L 258.029199 98.900127 
L 257.827598 96.051772 
L 257.625998 94.502864 
L 257.424397 93.992815 
L 257.222796 94.268012 
L 257.021196 95.223265 
L 256.819595 96.951886 
L 256.617994 99.658193 
L 256.416394 103.473029 
L 256.214793 108.288352 
L 256.013192 113.729749 
L 255.811592 119.302501 
L 255.609991 124.631231 
L 255.40839 129.647163 
L 255.20679 134.60657 
L 255.005189 139.928416 
L 254.803588 145.950949 
L 254.601988 152.755499 
L 254.400387 160.156897 
L 254.198786 167.842801 
L 253.997186 175.543862 
L 253.795585 183.113788 
L 253.593984 190.492586 
L 253.392384 197.62733 
L 253.190783 204.439986 
L 252.989182 210.861363 
L 252.787582 216.879419 
L 252.585981 222.549514 
L 252.38438 227.965837 
L 252.18278 233.227788 
L 251.981179 238.420061 
L 251.779578 243.59438 
L 251.577978 248.740081 
L 251.376377 253.759188 
L 251.174776 258.478894 
L 250.973176 262.713105 
L 250.771575 266.342923 
L 250.569975 269.365288 
L 250.368374 271.880588 
L 250.166773 274.034304 
L 249.965173 275.955768 
L 249.763572 277.728264 
L 249.561971 279.392791 
L 249.360371 280.963909 
L 249.15877 282.437993 
L 248.957169 283.792903 
L 248.755569 284.991526 
L 248.553968 285.997921 
L 248.352367 286.800646 
L 248.150767 287.428147 
L 247.949166 287.944202 
L 247.747565 288.423967 
L 247.545965 288.923329 
L 247.344364 289.458147 
L 247.142763 290.003622 
L 246.941163 290.5122 
L 246.739562 290.938795 
L 246.537961 291.260457 
L 246.336361 291.48315 
L 246.13476 291.635718 
L 245.933159 291.755873 
L 245.731559 291.874786 
L 245.529958 292.006693 
L 245.328357 292.147608 
L 245.126757 292.282519 
L 244.925156 292.395895 
L 244.723555 292.479307 
L 244.521955 292.533149 
L 244.320354 292.563706 
L 244.118753 292.57887 
L 243.917153 292.585068 
z
" style="fill-opacity:0.25;"/>
   </g>
   <g id="line2d_14">
    <path clip-path="url(#p260fed419d)" d="M 70.670072 292.588283 
L 73.203691 292.485078 
L 74.723862 292.19355 
L 77.764203 291.398386 
L 79.284374 290.64917 
L 80.804545 289.679026 
L 81.817992 288.584906 
L 82.83144 286.959253 
L 83.844887 284.939168 
L 84.858334 282.495839 
L 85.871782 279.376273 
L 86.885229 275.464048 
L 89.925571 262.306301 
L 90.939018 256.78453 
L 92.459189 246.618397 
L 94.992807 228.611241 
L 97.019701 216.481211 
L 98.033149 211.415933 
L 98.539872 209.51748 
L 99.046596 208.175405 
L 99.55332 207.417831 
L 100.060043 207.246551 
L 100.566767 207.657223 
L 101.073491 208.621267 
L 102.086938 211.775622 
L 104.620556 221.307547 
L 105.12728 224.090129 
L 106.140727 231.48351 
L 108.674345 252.1926 
L 110.70124 266.553953 
L 111.714687 272.241809 
L 112.728134 276.427005 
L 113.741581 279.599945 
L 114.755029 282.21998 
L 115.768476 284.221714 
L 116.781923 285.586356 
L 118.302094 287.480799 
L 119.822265 289.437764 
L 120.835712 290.441053 
L 121.84916 291.142072 
L 122.862607 291.588086 
L 124.889501 292.107708 
L 126.916396 292.417744 
L 129.956738 292.49364 
L 134.517251 292.587056 
L 135.023974 292.588582 
L 135.023974 292.588582 
" style="fill:none;stroke:#e31a1c;stroke-linecap:round;stroke-width:2;"/>
   </g>
   <g id="line2d_15">
    <path clip-path="url(#p260fed419d)" d="M 449.357439 292.583656 
L 449.998325 292.501487 
L 450.63921 292.162648 
L 451.066467 291.941577 
L 451.493724 291.945996 
L 452.134609 292.069309 
L 452.561866 291.935037 
L 452.989123 291.484265 
L 453.41638 290.480212 
L 454.057265 287.909834 
L 454.911779 283.505772 
L 455.766293 277.354096 
L 456.407179 271.298401 
L 456.834436 265.248532 
L 457.475321 251.810813 
L 458.329835 226.039683 
L 459.184349 195.029267 
L 460.679748 135.527057 
L 461.74789 98.407467 
L 462.175147 90.883042 
L 462.388776 89.744389 
L 462.602404 90.264987 
L 462.816033 92.134737 
L 463.243289 98.570326 
L 464.738689 129.125017 
L 465.165946 144.009453 
L 466.874973 215.116354 
L 467.729487 237.014344 
L 469.011258 265.835698 
L 469.438515 272.163418 
L 470.293029 280.253762 
L 471.147543 287.381485 
L 471.5748 289.228637 
L 472.215685 290.740446 
L 472.85657 291.841084 
L 473.283827 292.28604 
L 473.711084 292.464117 
L 474.35197 292.418607 
L 474.992855 292.397752 
L 476.488254 292.585891 
L 476.488254 292.585891 
" style="fill:none;stroke:#ff7f00;stroke-linecap:round;stroke-width:2;"/>
   </g>
   <g id="line2d_16">
    <path clip-path="url(#p260fed419d)" d="M 297.75898 292.587477 
L 299.345476 292.497176 
L 300.297373 292.237368 
L 302.201168 291.447529 
L 302.835766 290.913628 
L 303.470364 289.850024 
L 304.104962 288.144383 
L 305.056859 284.597736 
L 306.008757 279.953468 
L 306.960654 273.585602 
L 307.912551 264.849737 
L 308.864449 253.248432 
L 310.450944 230.395623 
L 312.672038 196.114372 
L 313.941234 183.074228 
L 314.575832 177.710648 
L 314.893131 175.923404 
L 315.210431 174.895811 
L 315.52773 174.543334 
L 315.845029 174.675504 
L 316.162328 175.113448 
L 316.479627 175.782765 
L 316.796926 176.729106 
L 317.431524 179.837158 
L 318.066122 184.596762 
L 319.01802 193.475591 
L 319.969917 205.045725 
L 321.556412 226.151552 
L 322.825609 240.170495 
L 324.412104 255.27599 
L 325.364002 262.593372 
L 327.267796 275.281169 
L 328.219693 279.874333 
L 329.806189 285.602468 
L 330.758086 288.425538 
L 331.392684 289.768733 
L 332.027283 290.716551 
L 332.661881 291.376302 
L 333.296479 291.798581 
L 334.248376 292.101595 
L 337.104068 292.569888 
L 338.055965 292.587684 
L 338.055965 292.587684 
" style="fill:none;stroke:#33a02c;stroke-linecap:round;stroke-width:2;"/>
   </g>
   <g id="line2d_17">
    <path clip-path="url(#p260fed419d)" d="M 271.814592 292.584874 
L 272.278273 292.517173 
L 272.587393 292.316087 
L 273.051074 291.608297 
L 274.132997 289.154101 
L 274.442117 287.994503 
L 274.751238 285.432474 
L 275.214919 277.815772 
L 275.987721 260.122397 
L 276.605962 240.37362 
L 277.069643 219.057623 
L 277.687885 175.013041 
L 279.388049 46.408681 
L 279.85173 27.200883 
L 280.16085 21.654983 
L 280.315411 20.812829 
L 280.469971 20.79 
L 280.779092 21.717478 
L 280.933652 22.637556 
L 281.088213 24.57865 
L 281.397333 34.486929 
L 282.015575 73.883066 
L 282.942937 139.470865 
L 283.715739 198.646842 
L 284.17942 218.922413 
L 284.797661 242.720478 
L 285.415902 266.092017 
L 286.034144 279.772719 
L 286.497825 285.590176 
L 287.116066 289.652954 
L 287.579747 291.547823 
L 287.888868 291.959999 
L 288.66167 292.180122 
L 289.279911 292.512499 
L 289.743592 292.423517 
L 290.207273 292.298657 
L 290.825515 292.497404 
L 291.443756 292.58549 
L 291.443756 292.58549 
" style="fill:none;stroke:#1f78b4;stroke-linecap:round;stroke-width:2;"/>
   </g>
   <g id="line2d_18">
    <path clip-path="url(#p260fed419d)" d="M 281.871474 292.586784 
L 282.969086 292.473742 
L 283.847176 292.395172 
L 284.725265 292.486571 
L 286.0424 292.227429 
L 286.481445 291.98039 
L 286.92049 291.437369 
L 287.359535 290.526193 
L 288.018102 288.552126 
L 288.676669 286.004212 
L 289.115714 283.03425 
L 289.554759 278.45674 
L 290.213327 268.432614 
L 290.871894 253.594439 
L 292.189029 219.045661 
L 292.847596 194.20597 
L 294.164731 143.89693 
L 295.042821 115.070321 
L 295.701388 101.231871 
L 296.359955 90.91098 
L 296.579478 89.313839 
L 296.799 89.537433 
L 297.018523 91.871416 
L 297.457567 101.98265 
L 298.774702 142.382352 
L 300.969927 223.782109 
L 302.067539 255.398173 
L 302.726106 268.819768 
L 303.384674 277.550653 
L 304.043241 283.424838 
L 304.701808 287.375116 
L 305.360376 289.547268 
L 306.238465 291.631098 
L 306.67751 292.116752 
L 307.116555 292.262073 
L 309.750825 292.586781 
L 309.750825 292.586781 
" style="fill:none;stroke:#0000ff;stroke-linecap:round;stroke-width:2;"/>
   </g>
   <g id="line2d_19">
    <path clip-path="url(#p260fed419d)" d="M 243.917153 292.585068 
L 244.723555 292.479307 
L 245.328357 292.147608 
L 246.537961 291.260457 
L 246.941163 290.5122 
L 248.352367 286.800646 
L 248.755569 284.991526 
L 249.360371 280.963909 
L 250.166773 274.034304 
L 250.569975 269.365288 
L 250.973176 262.713105 
L 251.779578 243.59438 
L 252.989182 210.861363 
L 253.997186 175.543862 
L 255.005189 139.928416 
L 256.617994 99.658193 
L 257.021196 95.223265 
L 257.222796 94.268012 
L 257.424397 93.992815 
L 257.625998 94.502864 
L 257.827598 96.051772 
L 258.2308 103.172585 
L 258.835602 123.039296 
L 261.053209 208.208385 
L 263.270816 266.942422 
L 263.875618 275.482684 
L 264.48042 281.017607 
L 265.085222 284.77488 
L 265.891625 288.431171 
L 266.496427 290.275168 
L 267.101229 291.255566 
L 267.907632 292.123919 
L 268.512434 292.464057 
L 269.318836 292.58259 
L 269.520437 292.586006 
L 269.520437 292.586006 
" style="fill:none;stroke:#000000;stroke-linecap:round;stroke-width:2;"/>
   </g>
   <g id="line2d_20">
    <path clip-path="url(#p260fed419d)" d="M 316.637235 306.18 
L 316.637235 7.2 
" style="fill:none;stroke:#33a02c;stroke-dasharray:8.4,3.6;stroke-dashoffset:0;stroke-width:3;"/>
   </g>
   <g id="patch_3">
    <path d="M 50.379163 306.18 
L 50.379163 7.2 
" style="fill:none;"/>
   </g>
   <g id="patch_4">
    <path d="M 496.779163 306.18 
L 496.779163 7.2 
" style="fill:none;"/>
   </g>
   <g id="patch_5">
    <path d="M 50.379163 306.18 
L 496.779163 306.18 
" style="fill:none;"/>
   </g>
   <g id="patch_6">
    <path d="M 50.379163 7.2 
L 496.779163 7.2 
" style="fill:none;"/>
   </g>
   <g id="legend_1">
    <g id="line2d_21">
     <path d="M 62.979163 24.7 
L 90.979163 24.7 
" style="fill:none;stroke:#e31a1c;stroke-linecap:round;stroke-width:2;"/>
    </g>
    <g id="line2d_22"/>
    <g id="text_16">
     <!-- Suppression -->
     <defs>
      <path d="M 5.09375 13.015625 
C 4.90625 11.390625 4.5 9.671875 4.296875 8.046875 
C 4.09375 6.53125 3.59375 6.109375 4.90625 5.3125 
C 8.296875 3.390625 11.203125 2.0625 15.40625 0.75 
C 24.796875 -2 35.59375 -2 43.796875 4.140625 
C 45.09375 5.140625 46.296875 6.234375 47.40625 7.53125 
C 49.90625 10.890625 52.203125 14.96875 51.59375 20.53125 
C 50.90625 27.671875 46.09375 33.625 39.59375 36.609375 
C 30.703125 40.578125 16.203125 40.578125 12.203125 49.375 
C 9.09375 56.1875 14.59375 62.171875 20.796875 64.375 
C 26.90625 66.6875 34.90625 65.78125 40.09375 63.375 
C 42.5 62.265625 44.5 60.65625 46.703125 59.25 
C 46.90625 60.96875 47.296875 62.578125 47.59375 64.28125 
C 47.796875 65.375 48.09375 66.390625 46.90625 66.78125 
L 45 67.796875 
C 42.296875 69 39.5 69.90625 36.59375 70.5 
C 27.59375 72.203125 17.203125 71.203125 10.40625 64.484375 
C 7 61.0625 4.09375 56.4375 5.296875 49.515625 
C 6.703125 42.390625 12.296875 37.875 18.09375 35.65625 
C 21.5 34.359375 25.296875 33.65625 28.90625 32.75 
C 31 32.34375 33.203125 31.84375 35.296875 31.140625 
C 40.703125 29.125 45.40625 25.109375 45.40625 17.6875 
C 44.796875 11.296875 39.203125 6.625 33.296875 5.203125 
C 25.703125 3.265625 16.703125 6.015625 11.5 8.75 
C 9.203125 9.96875 7.203125 11.59375 5.09375 13.015625 
" id="Computer_Modern_Bright-83"/>
      <path d="M 12.5 34.75 
L 12.40625 34.75 
L 12.40625 47.390625 
L 6.40625 47.390625 
L 6.40625 0 
L 12.703125 0 
L 12.703125 22.890625 
C 12.703125 24.40625 12.703125 25.90625 12.90625 27.40625 
C 14.296875 35.953125 21.703125 42.28125 31.40625 42.28125 
L 31.40625 48 
C 25 48 19.09375 44.890625 15.296875 39.765625 
C 14.203125 38.265625 13 36.546875 12.5 34.75 
" id="Computer_Modern_Bright-114"/>
     </defs>
     <g style="fill:#262626;" transform="translate(102.179163 29.6)scale(0.14 -0.14)">
      <use transform="scale(0.996264)" xlink:href="#Computer_Modern_Bright-83"/>
      <use transform="translate(56.454753 0)scale(0.996264)" xlink:href="#Computer_Modern_Bright-117"/>
      <use transform="translate(104.60725 0)scale(0.996264)" xlink:href="#Computer_Modern_Bright-112"/>
      <use transform="translate(152.759747 0)scale(0.996264)" xlink:href="#Computer_Modern_Bright-112"/>
      <use transform="translate(198.006514 0)scale(0.996264)" xlink:href="#Computer_Modern_Bright-114"/>
      <use transform="translate(229.969873 0)scale(0.996264)" xlink:href="#Computer_Modern_Bright-101"/>
      <use transform="translate(274.801541 0)scale(0.996264)" xlink:href="#Computer_Modern_Bright-115"/>
      <use transform="translate(313.24057 0)scale(0.996264)" xlink:href="#Computer_Modern_Bright-115"/>
      <use transform="translate(351.679599 0)scale(0.996264)" xlink:href="#Computer_Modern_Bright-105"/>
      <use transform="translate(370.774558 0)scale(0.996264)" xlink:href="#Computer_Modern_Bright-111"/>
      <use transform="translate(421.417776 0)scale(0.996264)" xlink:href="#Computer_Modern_Bright-110"/>
     </g>
    </g>
    <g id="line2d_23">
     <path d="M 62.979163 43.824611 
L 90.979163 43.824611 
" style="fill:none;stroke:#ff7f00;stroke-linecap:round;stroke-width:2;"/>
    </g>
    <g id="line2d_24"/>
    <g id="text_17">
     <!-- Additive -->
     <defs>
      <path d="M 2.09375 0.09375 
L 6.59375 0.09375 
L 8.40625 0.296875 
C 11.40625 6.796875 13.5 14.203125 16.203125 21 
C 26.09375 21 36.90625 21 46.296875 21 
L 47.09375 19.6875 
C 48.796875 14.546875 50.796875 9.59375 52.59375 4.546875 
C 53.09375 3.015625 53.59375 1.515625 54.40625 0.296875 
C 56.59375 0 59.203125 0 61.59375 0 
C 59.90625 4.90625 36.703125 67.203125 36 68.890625 
C 35.90625 69.296875 35.703125 69.890625 35.203125 70 
C 34.59375 70.09375 34 70 33.40625 70 
L 30.09375 70 
C 28.59375 70 28 70.1875 27.59375 68.609375 
C 27.203125 67.59375 2.09375 0.09375 2.09375 0.09375 
M 31.40625 63.171875 
C 35.59375 50.71875 40.09375 38.46875 44.5 26.21875 
L 18.203125 26.21875 
L 26.90625 50.109375 
z
" id="Computer_Modern_Bright-65"/>
      <path d="M 35.59375 69.6875 
L 35.59375 41.375 
C 33.703125 43.484375 31.796875 45.484375 29.203125 46.6875 
C 20.296875 50.40625 11.703125 45.59375 7.296875 37.65625 
C 2.203125 28.21875 2.796875 15.765625 8.90625 6.921875 
C 13.203125 0.796875 20.296875 -2.203125 27.796875 0.5 
C 30.703125 1.609375 34.203125 4.515625 35.40625 7.125 
L 35.5 7.125 
L 35.5 0 
L 41.90625 0 
L 41.90625 69.6875 
z
M 35.203125 37.453125 
C 35.703125 36.546875 35.5 35.34375 35.5 34.34375 
L 35.5 13.65625 
C 35.5 11.34375 35.40625 11.140625 34.09375 9.34375 
C 32.296875 6.625 29.5 4.71875 26.203125 4.421875 
C 21.40625 4.015625 16.5 6.328125 13.703125 10.25 
C 12.09375 12.546875 11.203125 15.359375 10.703125 18.171875 
C 10.5 19.28125 10.5 20.28125 10.40625 21.390625 
C 9.796875 28.015625 11.203125 35.84375 17 40.0625 
C 18 40.765625 19.09375 41.265625 20.203125 41.765625 
C 26 43.984375 32.40625 43.375 35.203125 37.453125 
" id="Computer_Modern_Bright-100"/>
     </defs>
     <g style="fill:#262626;" transform="translate(102.179163 48.724611)scale(0.14 -0.14)">
      <use transform="scale(0.996264)" xlink:href="#Computer_Modern_Bright-65"/>
      <use transform="translate(63.511618 0)scale(0.996264)" xlink:href="#Computer_Modern_Bright-100"/>
      <use transform="translate(111.664115 0)scale(0.996264)" xlink:href="#Computer_Modern_Bright-100"/>
      <use transform="translate(159.816612 0)scale(0.996264)" xlink:href="#Computer_Modern_Bright-105"/>
      <use transform="translate(178.911571 0)scale(0.996264)" xlink:href="#Computer_Modern_Bright-116"/>
      <use transform="translate(215.025959 0)scale(0.996264)" xlink:href="#Computer_Modern_Bright-105"/>
      <use transform="translate(234.120917 0)scale(0.996264)" xlink:href="#Computer_Modern_Bright-118"/>
      <use transform="translate(276.461955 0)scale(0.996264)" xlink:href="#Computer_Modern_Bright-101"/>
     </g>
    </g>
    <g id="line2d_25">
     <path d="M 62.979163 62.949222 
L 90.979163 62.949222 
" style="fill:none;stroke:#33a02c;stroke-linecap:round;stroke-width:2;"/>
    </g>
    <g id="line2d_26"/>
    <g id="text_18">
     <!-- actual -->
     <g style="fill:#262626;" transform="translate(102.179163 67.849222)scale(0.14 -0.14)">
      <use transform="scale(0.996264)" xlink:href="#Computer_Modern_Bright-97"/>
      <use transform="translate(46.492082 0)scale(0.996264)" xlink:href="#Computer_Modern_Bright-99"/>
      <use transform="translate(91.32375 0)scale(0.996264)" xlink:href="#Computer_Modern_Bright-116"/>
      <use transform="translate(127.438138 0)scale(0.996264)" xlink:href="#Computer_Modern_Bright-117"/>
      <use transform="translate(175.590635 0)scale(0.996264)" xlink:href="#Computer_Modern_Bright-97"/>
      <use transform="translate(222.082717 0)scale(0.996264)" xlink:href="#Computer_Modern_Bright-108"/>
     </g>
    </g>
    <g id="line2d_27">
     <path d="M 62.979163 82.073833 
L 90.979163 82.073833 
" style="fill:none;stroke:#1f78b4;stroke-linecap:round;stroke-width:2;"/>
    </g>
    <g id="line2d_28"/>
    <g id="text_19">
     <!-- Unbranched -->
     <defs>
      <path d="M 8 69.5 
L 8 32.75 
C 8 25.71875 7.203125 18.390625 10.703125 11.96875 
C 12.90625 7.84375 16.09375 4.4375 20.09375 2.125 
C 29.90625 -3.609375 43.5 -2.203125 51.296875 6.4375 
C 54.796875 10.359375 57.296875 15.171875 57.796875 21.796875 
C 57.90625 23.40625 57.796875 24.921875 57.796875 26.515625 
L 57.796875 69.5 
L 51.40625 69.5 
L 51.40625 25.90625 
C 51.40625 24.59375 51.5 23.1875 51.40625 21.890625 
C 51.203125 18.890625 50.59375 15.921875 49.40625 13.25 
C 43.90625 1 25 1 18 11.890625 
C 14.203125 17.78125 15 25.0625 15 31.65625 
L 15 69.5 
z
" id="Computer_Modern_Bright-85"/>
      <path d="M 6.40625 69.6875 
L 6.40625 0 
L 12.796875 0 
L 12.796875 6.328125 
L 12.90625 6.328125 
C 14 4.109375 16.5 2.015625 18.59375 0.90625 
C 25.796875 -2.90625 34.40625 0.90625 39.09375 7.03125 
C 48.59375 19.578125 44.796875 40.875 32.296875 46.796875 
C 27.40625 49 21.5 48 17.09375 44.984375 
C 15.40625 43.78125 14 42.375 12.703125 40.765625 
L 12.703125 69.6875 
z
M 21.90625 42.984375 
C 26.59375 43.375 31.5 41.265625 34.296875 37.453125 
C 36.203125 34.9375 37.203125 31.9375 37.703125 28.8125 
C 38.703125 21.484375 37.90625 12.25 31.40625 7.4375 
C 30.296875 6.625 29.09375 6.03125 27.796875 5.515625 
C 22.40625 3.515625 17 4.109375 14 8.84375 
C 13.09375 10.4375 12.796875 10.546875 12.796875 12.953125 
L 12.796875 33.734375 
C 12.796875 34.75 12.59375 35.953125 13 36.859375 
C 14.59375 40.171875 18.296875 42.671875 21.90625 42.984375 
" id="Computer_Modern_Bright-98"/>
      <path d="M 6.40625 69.6875 
L 6.40625 0 
L 12.796875 0 
L 12.796875 21.984375 
C 12.796875 26.90625 12.5 31.9375 14.703125 36.546875 
C 15.796875 38.859375 17.5 40.875 19.796875 42.078125 
C 21.703125 42.984375 23.703125 42.984375 25.796875 42.78125 
C 28.796875 42.78125 31.703125 41.984375 33.59375 39.453125 
C 35.40625 37.140625 35.5 34.140625 35.5 31.3125 
L 35.5 0 
L 41.90625 0 
L 41.90625 27.21875 
C 41.90625 32.234375 42.40625 37.75 39.90625 42.28125 
C 37.90625 45.6875 34.40625 47.296875 30.703125 47.796875 
C 28.703125 48 26.703125 48 24.703125 47.703125 
C 21.09375 47.015625 18 45.03125 15.59375 42.34375 
C 14.5 41.046875 13.203125 39.46875 12.796875 37.765625 
L 12.703125 37.765625 
L 12.703125 69.6875 
z
" id="Computer_Modern_Bright-104"/>
     </defs>
     <g style="fill:#262626;" transform="translate(102.179163 86.973833)scale(0.14 -0.14)">
      <use transform="scale(0.996264)" xlink:href="#Computer_Modern_Bright-85"/>
      <use transform="translate(65.587132 0)scale(0.996264)" xlink:href="#Computer_Modern_Bright-110"/>
      <use transform="translate(113.739629 0)scale(0.996264)" xlink:href="#Computer_Modern_Bright-98"/>
      <use transform="translate(158.986397 0)scale(0.996264)" xlink:href="#Computer_Modern_Bright-114"/>
      <use transform="translate(190.949756 0)scale(0.996264)" xlink:href="#Computer_Modern_Bright-97"/>
      <use transform="translate(237.441838 0)scale(0.996264)" xlink:href="#Computer_Modern_Bright-110"/>
      <use transform="translate(285.594335 0)scale(0.996264)" xlink:href="#Computer_Modern_Bright-99"/>
      <use transform="translate(330.426003 0)scale(0.996264)" xlink:href="#Computer_Modern_Bright-104"/>
      <use transform="translate(378.5785 0)scale(0.996264)" xlink:href="#Computer_Modern_Bright-101"/>
      <use transform="translate(423.410167 0)scale(0.996264)" xlink:href="#Computer_Modern_Bright-100"/>
     </g>
    </g>
    <g id="line2d_29">
     <path d="M 62.979163 101.198444 
L 90.979163 101.198444 
" style="fill:none;stroke:#0000ff;stroke-linecap:round;stroke-width:2;"/>
    </g>
    <g id="line2d_30"/>
    <g id="text_20">
     <!-- \emph{rhy-1} $&gt;$ \emph{vhl-1} -->
     <defs>
      <path d="M 19.90625 35.53125 
L 19.796875 35.53125 
L 22.40625 48.15625 
L 16.40625 48.15625 
L 6.40625 0.5 
L 10.90625 0.5 
C 11.40625 0.5 12.203125 0.296875 12.59375 0.703125 
C 12.90625 0.90625 13.5 4.4375 13.796875 5.65625 
L 16.703125 19.578125 
C 17.5 23.109375 18 26.859375 19.59375 30.1875 
C 23.40625 37.84375 31.90625 43 40.40625 43 
L 41.5 48.765625 
C 34.90625 48.765625 28.59375 45.421875 24 40.78125 
C 22.5 39.265625 20.90625 37.453125 19.90625 35.53125 
M 19.703125 34.953125 
C 19.703125 34.953125 19.796875 34.953125 19.796875 34.953125 
C 19.796875 34.859375 19.703125 34.75 19.703125 34.953125 
" id="Computer_Modern_Bright_Slanted-114"/>
      <path d="M 21.09375 70 
L 6.40625 0 
L 10.90625 0 
C 11.796875 0 13 -0.296875 13 1.015625 
C 13.203125 1.71875 13.296875 2.328125 13.40625 3.03125 
C 14.40625 7.78125 19 29.5 19.296875 30.40625 
C 20.40625 33.953125 22.40625 37.375 25.09375 39.90625 
C 28 42.4375 31.203125 43.84375 36.59375 42.9375 
C 38.796875 42.53125 40.90625 41.625 42 39.5 
C 43.5 36.46875 42.40625 32.9375 41.796875 29.90625 
L 35.5 0 
L 40.203125 0 
C 41.203125 0 42.09375 -0.203125 42.09375 1.109375 
C 42.703125 3.125 44.09375 10.625 44.09375 10.625 
L 48.59375 32 
C 49.40625 35.734375 50.296875 40.40625 48.203125 43.9375 
C 46.296875 46.984375 42.90625 48 39.59375 48.296875 
C 38.09375 48.296875 36.5 48.296875 35 48 
C 30.796875 47.3125 27.09375 45.09375 24.09375 42.09375 
C 22.90625 40.890625 21.5 39.59375 20.796875 37.984375 
L 20.703125 37.984375 
L 27.40625 70 
z
" id="Computer_Modern_Bright_Slanted-104"/>
      <path d="M 10.703125 48 
C 11.203125 44.265625 12 40.625 12.703125 36.890625 
C 13.09375 34.359375 19 0.8125 19 0.515625 
C 19 -0.09375 18.59375 -0.59375 18.296875 -1.109375 
L 16.59375 -4.140625 
C 14.703125 -7.265625 12.796875 -10.5 9 -11.8125 
C 6 -12.71875 0.5 -11.40625 -1.5 -10.796875 
C -1.796875 -12.625 -2 -14.53125 -2.203125 -16.453125 
C 0.5 -16.859375 5.40625 -17.46875 8.09375 -16.96875 
C 15.203125 -15.34375 19.203125 -8.671875 22.5 -3.21875 
L 44.09375 34.359375 
L 49.203125 43.359375 
C 50.09375 44.859375 51.203125 46.375 51.796875 48 
C 49.703125 48 47.40625 48 45.59375 47.703125 
C 43.203125 44.078125 41.203125 40.046875 38.90625 36.21875 
C 33.59375 26.4375 27.703125 17.359375 23.203125 6.78125 
L 23.09375 6.78125 
C 23.40625 8.390625 23.09375 10.109375 22.90625 11.734375 
C 21.796875 22.546875 18.59375 39.71875 17.09375 48 
z
" id="Computer_Modern_Bright_Slanted-121"/>
      <path d="M 5.90625 26.0625 
L 4.90625 21 
L 32.796875 21 
L 33.796875 26.0625 
z
" id="Computer_Modern_Bright_Slanted-45"/>
      <path d="M 22.5 61 
L 21.5 55.9375 
C 26.296875 55.9375 31.40625 56.546875 35.703125 58.875 
L 24.5 5.046875 
C 20.296875 5.046875 15.296875 5.5625 11.5 5.046875 
C 10.90625 3.578125 10.703125 1.671875 10.296875 0 
C 21.09375 0 32.59375 0 42.796875 0 
C 43.40625 1.453125 43.703125 3.296875 44.09375 5.046875 
L 31 5.046875 
C 35.203125 26.0625 39.796875 46.59375 44.09375 67.5 
C 41.703125 67.5 42 67.09375 40 65.59375 
C 35.59375 62.59375 28.90625 61 22.5 61 
" id="Computer_Modern_Bright_Slanted-49"/>
      <path d="M 62.59375 26.546875 
L 62.59375 26.34375 
C 60.296875 25.546875 58 24.25 55.796875 23.140625 
L 27.09375 9.625 
L 11.09375 2 
C 10.40625 1.703125 9.40625 1.296875 8.90625 0.796875 
C 8 -0.203125 8.203125 -1.703125 9.296875 -2.296875 
C 10.5 -3 11.703125 -2.109375 12.796875 -1.609375 
L 21 2.203125 
C 25.203125 4.3125 55 18.328125 55 18.328125 
L 66 23.546875 
C 67.296875 24.140625 69.40625 24.75 69.40625 26.453125 
C 69.40625 28.15625 67.296875 28.75 66 29.359375 
L 55 34.5625 
L 33.703125 44.6875 
C 29.5 46.6875 25.203125 48.59375 21 50.703125 
L 12.796875 54.5 
C 11.703125 55 10.5 55.90625 9.296875 55.203125 
C 8.203125 54.609375 8 53.09375 8.90625 52.09375 
C 9.40625 51.59375 10.40625 51.203125 11.09375 50.890625 
L 41.59375 36.46875 
L 55.796875 29.75 
C 58 28.65625 60.296875 27.359375 62.59375 26.546875 
" id="Computer_Modern_Bright_Math_Slanted-62"/>
      <path d="M 10.703125 48 
C 12.796875 33.046875 15.09375 18.171875 17.09375 3.125 
C 17.296875 2.109375 17.296875 0.90625 17.796875 0.203125 
C 19.90625 0 22.59375 0 24.703125 0 
L 25.296875 0.703125 
L 44.703125 35.109375 
L 51.796875 48 
C 49.703125 48 47.5 48 45.703125 47.703125 
C 44.90625 46.59375 44.296875 45.484375 43.59375 44.265625 
C 36.59375 31.84375 29.40625 19.515625 22.703125 6.6875 
C 21.59375 16.984375 20 26.6875 18.59375 36.6875 
C 18 40.328125 17.90625 44.46875 16.90625 47.703125 
C 15.09375 48 12.796875 48 10.703125 48 
" id="Computer_Modern_Bright_Slanted-118"/>
      <path d="M 21.09375 70 
L 6.40625 0 
C 8.5 0 10.796875 0 12.59375 0.296875 
L 13 1.40625 
C 14 6.4375 15.09375 11.375 16.203125 16.40625 
L 27.40625 70 
z
" id="Computer_Modern_Bright_Slanted-108"/>
     </defs>
     <g style="fill:#262626;" transform="translate(102.179163 106.098444)scale(0.14 -0.14)">
      <use transform="scale(0.996264)" xlink:href="#Computer_Modern_Bright_Slanted-114"/>
      <use transform="translate(31.963359 0)scale(0.996264)" xlink:href="#Computer_Modern_Bright_Slanted-104"/>
      <use transform="translate(80.115856 0)scale(0.996264)" xlink:href="#Computer_Modern_Bright_Slanted-121"/>
      <use transform="translate(122.456894 0)scale(0.996264)" xlink:href="#Computer_Modern_Bright_Slanted-45"/>
      <use transform="translate(155.665567 0)scale(0.996264)" xlink:href="#Computer_Modern_Bright_Slanted-49"/>
      <use transform="translate(248.750337 0)scale(0.996264)" xlink:href="#Computer_Modern_Bright_Math_Slanted-62"/>
      <use transform="translate(357.703017 0)scale(0.996264)" xlink:href="#Computer_Modern_Bright_Slanted-118"/>
      <use transform="translate(400.044055 0)scale(0.996264)" xlink:href="#Computer_Modern_Bright_Slanted-104"/>
      <use transform="translate(448.196552 0)scale(0.996264)" xlink:href="#Computer_Modern_Bright_Slanted-108"/>
      <use transform="translate(467.291511 0)scale(0.996264)" xlink:href="#Computer_Modern_Bright_Slanted-45"/>
      <use transform="translate(500.500184 0)scale(0.996264)" xlink:href="#Computer_Modern_Bright_Slanted-49"/>
     </g>
    </g>
    <g id="line2d_31">
     <path d="M 62.979163 120.323055 
L 90.979163 120.323055 
" style="fill:none;stroke:#000000;stroke-linecap:round;stroke-width:2;"/>
    </g>
    <g id="line2d_32"/>
    <g id="text_21">
     <!-- \emph{vhl-1} $&gt;$ \emph{rhy-1} -->
     <g style="fill:#262626;" transform="translate(102.179163 125.223055)scale(0.14 -0.14)">
      <use transform="scale(0.996264)" xlink:href="#Computer_Modern_Bright_Slanted-118"/>
      <use transform="translate(42.341038 0)scale(0.996264)" xlink:href="#Computer_Modern_Bright_Slanted-104"/>
      <use transform="translate(90.493535 0)scale(0.996264)" xlink:href="#Computer_Modern_Bright_Slanted-108"/>
      <use transform="translate(109.588494 0)scale(0.996264)" xlink:href="#Computer_Modern_Bright_Slanted-45"/>
      <use transform="translate(142.797167 0)scale(0.996264)" xlink:href="#Computer_Modern_Bright_Slanted-49"/>
      <use transform="translate(235.881937 0)scale(0.996264)" xlink:href="#Computer_Modern_Bright_Math_Slanted-62"/>
      <use transform="translate(344.834617 0)scale(0.996264)" xlink:href="#Computer_Modern_Bright_Slanted-114"/>
      <use transform="translate(376.797976 0)scale(0.996264)" xlink:href="#Computer_Modern_Bright_Slanted-104"/>
      <use transform="translate(424.950473 0)scale(0.996264)" xlink:href="#Computer_Modern_Bright_Slanted-121"/>
      <use transform="translate(467.291511 0)scale(0.996264)" xlink:href="#Computer_Modern_Bright_Slanted-45"/>
      <use transform="translate(500.500184 0)scale(0.996264)" xlink:href="#Computer_Modern_Bright_Slanted-49"/>
     </g>
    </g>
   </g>
  </g>
 </g>
 <defs>
  <clipPath id="p260fed419d">
   <rect height="298.98" width="446.4" x="50.379163" y="7.2"/>
  </clipPath>
 </defs>
</svg>
