<?xml version="1.0" encoding="utf-8" standalone="no"?>
<!DOCTYPE svg PUBLIC "-//W3C//DTD SVG 1.1//EN"
  "http://www.w3.org/Graphics/SVG/1.1/DTD/svg11.dtd">
<!-- Created with matplotlib (http://matplotlib.org/) -->
<svg height="353pt" version="1.1" viewBox="0 0 508 353" width="508pt" xmlns="http://www.w3.org/2000/svg" xmlns:xlink="http://www.w3.org/1999/xlink">
 <defs>
  <style type="text/css">
*{stroke-linecap:butt;stroke-linejoin:round;}
  </style>
 </defs>
 <g id="figure_1">
  <g id="patch_1">
   <path d="M 0 353.548374 
L 508.628355 353.548374 
L 508.628355 0 
L 0 0 
z
" style="fill:#ffffff;"/>
  </g>
  <g id="axes_1">
   <g id="patch_2">
    <path d="M 55.028355 306.18 
L 501.428355 306.18 
L 501.428355 7.2 
L 55.028355 7.2 
z
" style="fill:#eaeaf2;"/>
   </g>
   <g id="matplotlib.axis_1">
    <g id="xtick_1">
     <g id="line2d_1"/>
     <g id="text_1">
      <!-- $-1.2$ -->
      <defs>
       <path d="M 9.796875 28.078125 
C 8 27.484375 7.796875 24.78125 9.796875 24.28125 
C 10.296875 24.078125 10.90625 24.1875 11.5 24.1875 
L 64.703125 24.1875 
C 65.90625 24.1875 67.796875 23.78125 68.796875 24.78125 
C 69.90625 25.875 69.296875 27.875 67.703125 28.1875 
C 66.5 28.375 65.09375 28.1875 63.90625 28.1875 
L 11.40625 28.1875 
C 10.90625 28.1875 10.296875 28.28125 9.796875 28.078125 
" id="Computer_Modern_Bright_Math_Symbols-0"/>
       <path d="M 9.703125 60.015625 
L 9.703125 55 
C 15.203125 55 19 56 23.40625 57.90625 
L 23.40625 5.015625 
L 10.296875 5.015625 
L 10.296875 0 
L 43 0 
L 43 5.015625 
L 29.90625 5.015625 
L 29.90625 67 
C 27.5 67 27.90625 66.359375 26 64.875 
C 21.90625 61.71875 16.203125 60.015625 9.703125 60.015625 
" id="Computer_Modern_Bright-49"/>
       <path d="M 10.703125 7.8125 
L 10.703125 0 
L 18.5 0 
L 18.5 7.8125 
z
" id="Computer_Modern_Bright_Math_Slanted-58"/>
       <path d="M 7.296875 45.96875 
C 8.703125 51.59375 11.09375 57.984375 16.796875 60.5 
C 19.203125 61.5 21.796875 61.703125 24.40625 61.5 
C 29.296875 61.09375 34.09375 59.09375 37.09375 55.09375 
C 39.296875 52.078125 40.09375 48.375 39.703125 44.78125 
C 38.5 34.34375 28.296875 26.84375 21.703125 21.234375 
C 17.90625 18.03125 7.09375 7.8125 7.09375 7.8125 
L 5.40625 6.203125 
C 4.5 5.3125 4.40625 5.3125 4.40625 3.5 
L 4.40625 0 
L 46.40625 0 
L 46.40625 5.625 
L 10.203125 5.625 
C 13.40625 8.734375 26.703125 20.515625 28.5 21.921875 
C 34.296875 26.65625 40.796875 31.375 44.296875 38.21875 
C 48.203125 46.0625 46.5 55.9375 39.90625 61.765625 
C 35.90625 65.296875 30.40625 67 25.09375 67 
C 20.203125 67 15.203125 66 11.296875 62.90625 
C 8.296875 60.390625 5.796875 56.6875 4.40625 52.875 
C 4.09375 52.28125 3.59375 51.28125 3.703125 50.578125 
C 3.796875 49.984375 4.40625 49.484375 4.703125 49.078125 
C 5.5 48.078125 6.296875 46.875 7.296875 45.96875 
" id="Computer_Modern_Bright-50"/>
      </defs>
      <g style="fill:#262626;" transform="translate(39.627804 324.249603)scale(0.16 -0.16)">
       <use transform="scale(0.996264)" xlink:href="#Computer_Modern_Bright_Math_Symbols-0"/>
       <use transform="translate(77.487468 0)scale(0.996264)" xlink:href="#Computer_Modern_Bright-49"/>
       <use transform="translate(128.130685 0)scale(0.996264)" xlink:href="#Computer_Modern_Bright_Math_Slanted-58"/>
       <use transform="translate(157.188132 0)scale(0.996264)" xlink:href="#Computer_Modern_Bright-50"/>
      </g>
     </g>
    </g>
    <g id="xtick_2">
     <g id="line2d_2"/>
     <g id="text_2">
      <!-- $-1.0$ -->
      <defs>
       <path d="M 14.796875 63.859375 
C 11.90625 61.859375 9.90625 59.140625 8.40625 56.03125 
C 4.796875 49 4.40625 40.765625 4.40625 31.828125 
C 4.40625 20.578125 6.40625 10.25 12 4.3125 
C 17.296875 -1.203125 25.703125 -2.609375 32.796875 0.296875 
C 37.203125 2.015625 40.40625 5.71875 42.40625 9.734375 
C 46 16.875 46.40625 25.40625 46.40625 34.234375 
C 46.40625 37.046875 46.296875 39.859375 46 42.671875 
C 45.296875 49.40625 43 56.828125 39.296875 60.953125 
C 33.203125 67.6875 22.296875 69.1875 14.796875 63.859375 
M 34.90625 58.140625 
C 39.59375 53.125 40 43.484375 40 34.34375 
L 40 28.921875 
C 40 24.296875 39.203125 18.28125 38.203125 14.859375 
C 36.796875 10.140625 34.5 6.734375 29.90625 4.625 
C 24.296875 2.609375 18.5 4.515625 15.296875 8.9375 
C 11 14.65625 10.796875 24.796875 10.796875 33.734375 
C 10.796875 42.171875 10.90625 51.515625 15 57.03125 
C 19.5 63.0625 29.203125 64.0625 34.90625 58.140625 
" id="Computer_Modern_Bright-48"/>
      </defs>
      <g style="fill:#262626;" transform="translate(107.947322 324.249603)scale(0.16 -0.16)">
       <use transform="scale(0.996264)" xlink:href="#Computer_Modern_Bright_Math_Symbols-0"/>
       <use transform="translate(77.487468 0)scale(0.996264)" xlink:href="#Computer_Modern_Bright-49"/>
       <use transform="translate(128.130685 0)scale(0.996264)" xlink:href="#Computer_Modern_Bright_Math_Slanted-58"/>
       <use transform="translate(157.188132 0)scale(0.996264)" xlink:href="#Computer_Modern_Bright-48"/>
      </g>
     </g>
    </g>
    <g id="xtick_3">
     <g id="line2d_3"/>
     <g id="text_3">
      <!-- $-0.8$ -->
      <defs>
       <path d="M 18.703125 36 
L 18.703125 35.90625 
C 12.5 34.09375 7.296875 30.6875 4.796875 24.84375 
C 2.203125 18.71875 4 11.28125 8.40625 6.453125 
C 13.09375 1.421875 19.5 -1 26.296875 -1 
C 36.296875 -1 45.90625 6.40625 47.09375 16.734375 
C 47.296875 18.265625 47.203125 19.890625 47 21.40625 
C 45.203125 29.21875 39.5 33.875 32.09375 35.90625 
C 32.90625 36.203125 33.796875 36.40625 34.59375 36.703125 
C 38.796875 38.421875 42.296875 40.921875 44.5 44.9375 
C 47.796875 51.375 44.59375 58.90625 39.203125 63.015625 
C 33.796875 67.140625 26.5 68.234375 19.90625 66.828125 
C 12 65.125 4.5 58.40625 5 49.765625 
C 5.203125 46.75 6.5 44.234375 8 42.4375 
C 10.296875 39.625 14.796875 36.609375 18.703125 36 
M 23.796875 62.5 
C 28.203125 62.5 33.703125 62 36.90625 58.578125 
C 40.703125 54.46875 40.90625 47.03125 37.09375 42.8125 
C 34.703125 40.203125 31.203125 38.890625 27.703125 38.59375 
C 22.796875 38.1875 17.203125 39 13.703125 42.8125 
C 9.796875 47.125 10.09375 54.96875 14.296875 58.984375 
C 16.90625 61.390625 20.40625 62.1875 23.796875 62.5 
M 23.703125 33.5 
C 28.40625 33.5 33.5 32.390625 36.90625 28.9375 
C 38.203125 27.53125 39.203125 25.8125 39.796875 24.015625 
C 41.5 18.75 40.703125 12.09375 36.796875 8.046875 
C 34.09375 5.328125 30.40625 4.3125 26.703125 4.015625 
C 22.203125 4.015625 17 5.109375 13.796875 8.5625 
C 9.40625 13.390625 8.5 23.40625 13.703125 29.0625 
C 16.296875 31.78125 20 33.203125 23.703125 33.5 
" id="Computer_Modern_Bright-56"/>
      </defs>
      <g style="fill:#262626;" transform="translate(176.26684 324.249603)scale(0.16 -0.16)">
       <use transform="scale(0.996264)" xlink:href="#Computer_Modern_Bright_Math_Symbols-0"/>
       <use transform="translate(77.487468 0)scale(0.996264)" xlink:href="#Computer_Modern_Bright-48"/>
       <use transform="translate(128.130685 0)scale(0.996264)" xlink:href="#Computer_Modern_Bright_Math_Slanted-58"/>
       <use transform="translate(157.188132 0)scale(0.996264)" xlink:href="#Computer_Modern_Bright-56"/>
      </g>
     </g>
    </g>
    <g id="xtick_4">
     <g id="line2d_4"/>
     <g id="text_4">
      <!-- $-0.6$ -->
      <defs>
       <path d="M 11.296875 32.625 
L 11.203125 32.625 
C 11.203125 41.765625 12.796875 52.421875 20.59375 58.25 
C 24.90625 61.375 30.703125 62.96875 38.203125 61.171875 
C 39.796875 60.765625 41.296875 60.15625 42.796875 59.765625 
L 42.796875 63.28125 
C 42.796875 63.671875 42.90625 64.375 42.59375 64.78125 
C 41.90625 65.6875 36.296875 66.59375 36.09375 66.59375 
C 27.40625 67.59375 21.703125 65.6875 16.40625 61.171875 
C 10 55.640625 6.296875 47.515625 5.09375 39.28125 
C 4 32.65625 4.90625 22 6.203125 16.78125 
C 8.296875 9.046875 12.296875 2.21875 19.703125 -0.390625 
C 24.09375 -2 29.5 -2 33.703125 0.015625 
C 37.09375 1.640625 39.90625 4.46875 42.09375 7.5 
C 45.59375 12.34375 46.5 18.21875 46.09375 24.171875 
C 45.90625 27.109375 45.5 30.046875 44.296875 32.765625 
C 42.40625 37.125 39.203125 41.671875 35.09375 43.6875 
C 33.203125 44.5 31.203125 44.5 29.203125 44.5 
C 23.90625 44.5 18.90625 42.1875 15.203125 38.359375 
C 13.59375 36.75 12 34.71875 11.296875 32.625 
M 24.40625 39.515625 
C 28.203125 39.8125 32.203125 39.21875 35.09375 36.5 
C 38.90625 32.890625 39.59375 27.765625 39.59375 22.8125 
C 39.59375 19.46875 39.703125 16.015625 38.703125 12.859375 
C 38.09375 11.234375 37.296875 9.828125 36.40625 8.5 
C 34.203125 5.5625 31.40625 4.125 26.796875 3.515625 
C 22.296875 3.515625 17.796875 5.3125 15.203125 9.125 
C 13.59375 11.328125 12.796875 14.046875 12.296875 16.640625 
C 11.703125 19.34375 11.296875 22.140625 11.5 24.859375 
C 12 31.984375 17 38.515625 24.40625 39.515625 
" id="Computer_Modern_Bright-54"/>
      </defs>
      <g style="fill:#262626;" transform="translate(244.586359 324.249603)scale(0.16 -0.16)">
       <use transform="scale(0.996264)" xlink:href="#Computer_Modern_Bright_Math_Symbols-0"/>
       <use transform="translate(77.487468 0)scale(0.996264)" xlink:href="#Computer_Modern_Bright-48"/>
       <use transform="translate(128.130685 0)scale(0.996264)" xlink:href="#Computer_Modern_Bright_Math_Slanted-58"/>
       <use transform="translate(157.188132 0)scale(0.996264)" xlink:href="#Computer_Modern_Bright-54"/>
      </g>
     </g>
    </g>
    <g id="xtick_5">
     <g id="line2d_5"/>
     <g id="text_5">
      <!-- $-0.4$ -->
      <defs>
       <path d="M 2.09375 18 
L 31 18 
L 31 0 
L 37.296875 0 
L 37.296875 18 
L 48.703125 18 
L 48.703125 23.328125 
L 37.296875 23.328125 
L 37.296875 66.46875 
L 31.90625 66.46875 
C 30.09375 66.46875 29.59375 66.578125 28.796875 65.0625 
C 24.796875 58.515625 3.703125 25.765625 3 24.859375 
C 2.203125 23.4375 2.09375 23.546875 2.09375 21.4375 
z
M 31.296875 60.875 
L 31.296875 23.328125 
L 8.59375 23.328125 
C 9.296875 24.734375 10.296875 26.03125 11.203125 27.4375 
C 16.203125 35.171875 28.09375 53.546875 30.59375 59.28125 
C 30.90625 59.78125 31 60.375 31.296875 60.875 
" id="Computer_Modern_Bright-52"/>
      </defs>
      <g style="fill:#262626;" transform="translate(312.905877 324.249603)scale(0.16 -0.16)">
       <use transform="scale(0.996264)" xlink:href="#Computer_Modern_Bright_Math_Symbols-0"/>
       <use transform="translate(77.487468 0)scale(0.996264)" xlink:href="#Computer_Modern_Bright-48"/>
       <use transform="translate(128.130685 0)scale(0.996264)" xlink:href="#Computer_Modern_Bright_Math_Slanted-58"/>
       <use transform="translate(157.188132 0)scale(0.996264)" xlink:href="#Computer_Modern_Bright-52"/>
      </g>
     </g>
    </g>
    <g id="xtick_6">
     <g id="line2d_6"/>
     <g id="text_6">
      <!-- $-0.2$ -->
      <g style="fill:#262626;" transform="translate(381.225395 324.249603)scale(0.16 -0.16)">
       <use transform="scale(0.996264)" xlink:href="#Computer_Modern_Bright_Math_Symbols-0"/>
       <use transform="translate(77.487468 0)scale(0.996264)" xlink:href="#Computer_Modern_Bright-48"/>
       <use transform="translate(128.130685 0)scale(0.996264)" xlink:href="#Computer_Modern_Bright_Math_Slanted-58"/>
       <use transform="translate(157.188132 0)scale(0.996264)" xlink:href="#Computer_Modern_Bright-50"/>
      </g>
     </g>
    </g>
    <g id="xtick_7">
     <g id="line2d_7"/>
     <g id="text_7">
      <!-- $0.0$ -->
      <g style="fill:#262626;" transform="translate(455.743911 324.249603)scale(0.16 -0.16)">
       <use transform="scale(0.996264)" xlink:href="#Computer_Modern_Bright-48"/>
       <use transform="translate(50.643218 0)scale(0.996264)" xlink:href="#Computer_Modern_Bright_Math_Slanted-58"/>
       <use transform="translate(79.700665 0)scale(0.996264)" xlink:href="#Computer_Modern_Bright-48"/>
      </g>
     </g>
    </g>
    <g id="text_8">
     <!-- Epistasis Coefficient -->
     <defs>
      <path d="M 8 69.328125 
L 8 0 
L 55.40625 0 
L 55.40625 5.625 
L 15 5.625 
L 15 33.671875 
L 51.09375 33.671875 
L 51.09375 39 
L 15 39 
L 15 64 
L 54 64 
L 54 69.328125 
z
" id="Computer_Modern_Bright-69"/>
      <path d="M 12.703125 40.53125 
L 12.703125 47.15625 
L 6.40625 47.15625 
L 6.40625 -17 
L 12.796875 -17 
L 12.796875 6.09375 
C 14.203125 4.078125 15.796875 2.28125 17.90625 1.078125 
C 25 -3.25 34 0.171875 38.90625 6.59375 
C 45.40625 14.96875 46.09375 27.5 41.59375 36.984375 
C 39 42.4375 34.09375 47.5 27.796875 48 
C 22.296875 48 18.09375 45.8125 15.09375 43.125 
C 14.203125 42.328125 13.5 41.4375 12.703125 40.53125 
M 21.90625 42.875 
C 26 43.171875 30 41.265625 32.796875 38.265625 
C 34.5 36.34375 35.796875 34.140625 36.59375 31.734375 
C 40.09375 22.296875 36.90625 9.234375 26.796875 5.328125 
C 21 3.109375 15.296875 5.125 13.09375 10.546875 
C 12.59375 11.546875 12.796875 12.859375 12.796875 13.953125 
L 12.796875 34.640625 
C 12.796875 36.953125 13 37.15625 14.5 38.859375 
C 16.296875 41.0625 19 42.578125 21.90625 42.875 
" id="Computer_Modern_Bright-112"/>
      <path d="M 6.40625 70 
L 6.40625 63.671875 
L 12.703125 63.671875 
L 12.703125 70 
z
M 6.40625 47.390625 
L 6.40625 0 
L 12.703125 0 
L 12.703125 47.390625 
z
" id="Computer_Modern_Bright-105"/>
      <path d="M 3.09375 9.640625 
C 2.90625 8.234375 2.59375 6.9375 2.40625 5.53125 
C 2.203125 4.421875 1.90625 3.921875 2.90625 3.421875 
C 7 1.015625 11.90625 -0.296875 17.703125 -0.796875 
C 24.203125 -1.40625 32.40625 0.109375 35.59375 6.53125 
C 36.5 8.34375 37 10.34375 37.09375 12.359375 
C 37.5 19.578125 31.796875 24.203125 26.90625 25.90625 
C 21.40625 28.015625 13.90625 27.3125 10.09375 31.53125 
C 8.09375 33.84375 8 37.265625 9.90625 39.671875 
C 13.90625 45.296875 26.796875 42.875 31.90625 40.375 
C 32.703125 39.96875 33.40625 39.46875 34.296875 39.265625 
L 35.203125 44.6875 
C 30.5 46.796875 26.40625 48 19.90625 48 
C 14.296875 48 9.203125 46.703125 6 43.484375 
C 2.796875 40.171875 1.703125 34.640625 3.59375 30.4375 
C 5.40625 26.40625 9.203125 23.796875 13.296875 22.5 
C 19.203125 20.390625 25.90625 21.390625 29.796875 16.578125 
C 32 13.765625 31.59375 9.546875 29.09375 7.03125 
C 24.296875 2.609375 14.09375 4.21875 8.5 6.625 
C 6.59375 7.4375 4.90625 8.640625 3.09375 9.640625 
" id="Computer_Modern_Bright-115"/>
      <path d="M 10.796875 60.5 
L 10.796875 47.015625 
L 1.09375 47.015625 
L 1.09375 42 
L 10.703125 42 
L 10.703125 15.015625 
C 10.703125 10.578125 10.40625 5.234375 13.296875 1.515625 
C 15 -0.703125 17.296875 -1.296875 20.796875 -1 
C 23.703125 -1 26.59375 -0.390625 29.296875 0.65625 
C 30.203125 1.0625 33.5 2.515625 33.90625 3.234375 
C 34.09375 3.640625 32.796875 8.09375 32.796875 8.09375 
L 30.40625 6.265625 
C 27.296875 4.34375 21.09375 2.328125 18.5 5.96875 
C 16.203125 9.09375 16.796875 13.75 16.796875 17.375 
L 16.796875 42 
L 32.296875 42 
L 32.296875 47.015625 
L 16.796875 47.015625 
L 16.796875 60.5 
z
" id="Computer_Modern_Bright-116"/>
      <path d="M 7.90625 39.015625 
C 9.59375 39.859375 11 41.09375 12.703125 41.921875 
C 15.40625 43.15625 18.203125 44 21.203125 44 
C 22.59375 44.09375 24.203125 44.296875 25.59375 44 
C 28.09375 43.59375 30.296875 42.078125 31.796875 39.953125 
C 33.296875 37.515625 33.90625 35.390625 33.90625 31.46875 
L 33.90625 27.015625 
C 29.09375 27.015625 24.296875 26.609375 19.703125 25.390625 
C 13.90625 24.078125 7.59375 21.125 5.5 15.84375 
C 3.40625 10.78125 5.59375 4.078125 10.09375 1.03125 
C 12.296875 -0.5 14.90625 -0.5 17.5 -0.296875 
C 21.703125 0 25.90625 1.015625 29.5 3.25 
C 31.203125 4.25 32.90625 5.578125 33.90625 7.296875 
L 34 7.296875 
L 34 0.203125 
L 40.296875 0.203125 
L 40.296875 26.890625 
C 40.296875 29.8125 40.59375 32.953125 40 35.890625 
C 39.40625 39.921875 36.90625 43.265625 34 45.59375 
C 30.59375 48.21875 26.703125 49.109375 21.5 48.71875 
C 16.703125 48.71875 13 47.5 9.40625 45.765625 
C 8.90625 45.5625 7.90625 45.234375 7.59375 44.640625 
C 7.296875 44.21875 7.5 43.515625 7.5 43 
C 7.703125 41.671875 7.796875 40.34375 7.90625 39.015625 
M 33.90625 24 
L 33.90625 16.375 
C 33.90625 14.0625 34 11.953125 32.703125 9.953125 
C 31.59375 8.34375 30.09375 7.234375 28.5 6.4375 
C 22.796875 3.515625 14.09375 4.421875 11.59375 9.25 
C 9.59375 12.75 11.703125 16.875 14.59375 19.1875 
C 18.90625 22.5 27.296875 24 33.90625 24 
" id="Computer_Modern_Bright-97"/>
      <path d="M 60.5 10.875 
C 58.5 9.859375 56.703125 8.453125 54.703125 7.453125 
C 50 5.046875 44 4.140625 37.5 4.734375 
C 31.703125 5.546875 26.90625 8.359375 23.40625 11.875 
C 12.203125 23.15625 11.40625 42.96875 21.296875 55.34375 
C 25.5 60.875 31.90625 65 41.296875 65 
C 45.09375 65 49 64.296875 52.5 62.890625 
C 54.59375 61.96875 56.59375 60.765625 58.59375 59.765625 
L 59.796875 66.8125 
C 57.59375 67.671875 55.296875 68.5625 53 69.09375 
C 47.40625 70.625 38.90625 70.625 33.09375 69.21875 
C 22.90625 66.921875 15.5 59.828125 11.296875 51.625 
C 5.5 40.015625 6.203125 25.515625 13.203125 14.59375 
C 15 11.703125 17.296875 9.109375 19.90625 6.890625 
C 25.90625 1.6875 33.296875 -1.3125 43.59375 -0.5 
C 49.796875 -0.5 53.40625 0.515625 58.203125 3.203125 
C 58.703125 3.5 60.59375 4.515625 60.90625 4.9375 
C 61.09375 5.4375 60.59375 9.53125 60.5 10.875 
" id="Computer_Modern_Bright-67"/>
      <path d="M 10.703125 42.078125 
C 1.796875 33.234375 0.796875 17.875 8.5 7.9375 
C 9.59375 6.421875 10.90625 5.125 12.40625 4.015625 
C 16.09375 1 21.5 -1.203125 27.796875 -0.5 
C 37.796875 0.703125 44.703125 8.84375 46.796875 17.375 
C 49.59375 29.328125 43.703125 42.671875 32.703125 46.890625 
C 24.09375 50.40625 15.5 46.890625 10.703125 42.078125 
M 35.703125 39.359375 
C 40.5 35.03125 41.40625 28.109375 41 21.984375 
C 40.703125 17.265625 39.40625 12.34375 36.09375 8.828125 
C 30.703125 3 20.703125 3 14.90625 8.625 
C 11.90625 11.84375 10.09375 16.453125 9.796875 21.984375 
C 9.296875 30.109375 11.296875 38.75 19.296875 41.96875 
C 25.203125 44.578125 32 42.671875 35.703125 39.359375 
" id="Computer_Modern_Bright-111"/>
      <path d="M 41.796875 10.9375 
C 39.5 9.234375 38.796875 8.328125 35.90625 6.8125 
C 29.796875 3.5 22.59375 3.5 17.40625 7.171875 
C 12.40625 10.765625 9.5 16.640625 9.5 25 
L 42.5 25 
C 42.5 32.421875 40.796875 38.859375 36.59375 43.375 
C 32 47.890625 24.796875 49.296875 18.703125 47.390625 
C 16.40625 46.6875 14.296875 45.484375 12.40625 43.96875 
C 6.09375 38.859375 3.40625 30.71875 3.5 22.78125 
C 3.703125 12.34375 10.796875 1.90625 21.296875 -0.3125 
C 26.796875 -1.421875 32.59375 -0.203125 37.5 2.296875 
C 38.40625 2.796875 41.703125 4.609375 42.09375 5.515625 
C 42.40625 6.015625 41.796875 10.9375 41.796875 10.9375 
M 37.203125 28.90625 
L 10 28.90625 
C 11.203125 36.234375 17.203125 43.96875 25.296875 43.0625 
C 31.90625 42.46875 35.40625 37.75 36.703125 31.828125 
C 36.90625 30.8125 37 29.921875 37.203125 28.90625 
" id="Computer_Modern_Bright-101"/>
      <path d="M 10.59375 47.015625 
L 2 47.015625 
L 2 42 
L 10.59375 42 
L 10.59375 0 
L 16.90625 0 
L 16.90625 42 
L 30.09375 42 
L 30.09375 47.015625 
L 16.796875 47.015625 
L 16.796875 56.234375 
C 16.796875 57.890625 16.59375 59.65625 17.296875 61.21875 
C 19.5 65.875 25.40625 65.875 29.59375 65.078125 
C 30.59375 64.875 31.703125 64.46875 32.703125 64.265625 
L 32.703125 69.90625 
C 27.703125 70.609375 22.296875 71.21875 17.703125 68.46875 
C 15.796875 67.4375 14.203125 65.6875 13 63.921875 
C 11.09375 60.9375 10.59375 58.78125 10.59375 53.71875 
z
M 38.09375 0 
L 44.40625 0 
L 44.40625 42 
L 57.59375 42 
L 57.59375 47.015625 
L 44.296875 47.015625 
L 44.296875 55.234375 
C 44.296875 56.890625 44.09375 58.65625 44.40625 60.328125 
C 44.90625 62.296875 46.09375 63.65625 47.703125 64.671875 
C 50.796875 66.171875 54.40625 65.078125 57.59375 64.171875 
L 57.59375 70 
C 55.09375 70.1875 52.703125 70.6875 50.203125 70.5 
C 43.40625 70 38.59375 64.046875 38.09375 57.3125 
C 38 55.890625 38.09375 54.375 38.09375 52.96875 
z
M 65.59375 70 
L 65.59375 63.671875 
L 71.90625 63.671875 
L 71.90625 70 
z
M 65.59375 47.390625 
L 65.59375 0 
L 71.90625 0 
L 71.90625 47.390625 
z
" id="Computer_Modern_Bright-14"/>
      <path d="M 42.40625 11.25 
C 40.5 9.84375 38.796875 8.328125 36.703125 7.125 
C 32 4.625 24.796875 3.421875 19.40625 5.921875 
C 11.59375 9.9375 9.5 19.6875 10.59375 27.71875 
C 10.796875 29.328125 11.09375 30.921875 11.59375 32.4375 
C 13.796875 38.96875 19.296875 44.078125 28.296875 43.078125 
C 33.09375 42.671875 35.5 41.875 39.296875 39.765625 
C 40 39.359375 40.59375 38.859375 41.40625 38.65625 
C 41.5 39.859375 41.796875 41.171875 42 42.375 
C 42.296875 43.984375 42.296875 44.1875 40.796875 44.890625 
C 39.703125 45.390625 38.59375 45.984375 37.40625 46.390625 
C 32.796875 48.40625 25.203125 49 20 47.5 
C 12.90625 45.484375 7.59375 39.359375 5.296875 32.53125 
C 4.203125 29.421875 3.90625 26.109375 3.90625 22.796875 
C 4 12.25 11.203125 1.90625 21.703125 -0.203125 
C 27.5 -1.40625 34.203125 0.296875 38.203125 2.40625 
C 39.203125 2.90625 42.203125 4.71875 42.703125 5.625 
C 43 6.125 42.40625 11.25 42.40625 11.25 
" id="Computer_Modern_Bright-99"/>
      <path d="M 12.59375 37.28125 
L 12.5 37.28125 
L 12.5 47.390625 
L 6.40625 47.390625 
L 6.40625 0 
L 12.796875 0 
L 12.796875 21.9375 
C 12.796875 26.84375 12.5 31.875 14.703125 36.46875 
C 15.796875 38.78125 17.5 40.78125 19.796875 41.984375 
C 21.703125 42.890625 23.703125 42.890625 25.796875 42.6875 
C 28.796875 42.6875 31.703125 41.890625 33.59375 39.375 
C 35.40625 37.0625 35.5 34.0625 35.5 31.25 
L 35.5 0 
L 41.90625 0 
L 41.90625 26.859375 
C 41.90625 31.875 42.40625 37.375 40 41.890625 
C 38.09375 45.5 34.40625 47.203125 30.5 47.703125 
C 28.5 48 26.40625 48 24.40625 47.609375 
C 19.203125 46.5 14.40625 42.296875 12.59375 37.28125 
" id="Computer_Modern_Bright-110"/>
     </defs>
     <g style="fill:#262626;" transform="translate(205.672064 343.359582)scale(0.18 -0.18)">
      <use transform="scale(0.996264)" xlink:href="#Computer_Modern_Bright-69"/>
      <use transform="translate(58.737787 0)scale(0.996264)" xlink:href="#Computer_Modern_Bright-112"/>
      <use transform="translate(106.890284 0)scale(0.996264)" xlink:href="#Computer_Modern_Bright-105"/>
      <use transform="translate(125.985243 0)scale(0.996264)" xlink:href="#Computer_Modern_Bright-115"/>
      <use transform="translate(164.424272 0)scale(0.996264)" xlink:href="#Computer_Modern_Bright-116"/>
      <use transform="translate(200.53866 0)scale(0.996264)" xlink:href="#Computer_Modern_Bright-97"/>
      <use transform="translate(247.030742 0)scale(0.996264)" xlink:href="#Computer_Modern_Bright-115"/>
      <use transform="translate(285.469772 0)scale(0.996264)" xlink:href="#Computer_Modern_Bright-105"/>
      <use transform="translate(304.56473 0)scale(0.996264)" xlink:href="#Computer_Modern_Bright-115"/>
      <use transform="translate(374.468971 0)scale(0.996264)" xlink:href="#Computer_Modern_Bright-67"/>
      <use transform="translate(439.641004 0)scale(0.996264)" xlink:href="#Computer_Modern_Bright-111"/>
      <use transform="translate(490.284222 0)scale(0.996264)" xlink:href="#Computer_Modern_Bright-101"/>
      <use transform="translate(535.115889 0)scale(0.996264)" xlink:href="#Computer_Modern_Bright-14"/>
      <use transform="translate(613.156322 0)scale(0.996264)" xlink:href="#Computer_Modern_Bright-99"/>
      <use transform="translate(657.987989 0)scale(0.996264)" xlink:href="#Computer_Modern_Bright-105"/>
      <use transform="translate(677.082948 0)scale(0.996264)" xlink:href="#Computer_Modern_Bright-101"/>
      <use transform="translate(721.914616 0)scale(0.996264)" xlink:href="#Computer_Modern_Bright-110"/>
      <use transform="translate(770.067113 0)scale(0.996264)" xlink:href="#Computer_Modern_Bright-116"/>
     </g>
    </g>
   </g>
   <g id="matplotlib.axis_2">
    <g id="ytick_1">
     <g id="line2d_8"/>
     <g id="text_9">
      <!-- $0.0$ -->
      <g style="fill:#262626;" transform="translate(26.642062 298.124802)scale(0.16 -0.16)">
       <use transform="scale(0.996264)" xlink:href="#Computer_Modern_Bright-48"/>
       <use transform="translate(50.643218 0)scale(0.996264)" xlink:href="#Computer_Modern_Bright_Math_Slanted-58"/>
       <use transform="translate(79.700665 0)scale(0.996264)" xlink:href="#Computer_Modern_Bright-48"/>
      </g>
     </g>
    </g>
    <g id="ytick_2">
     <g id="line2d_9"/>
     <g id="text_10">
      <!-- $0.2$ -->
      <g style="fill:#262626;" transform="translate(26.642062 243.764067)scale(0.16 -0.16)">
       <use transform="scale(0.996264)" xlink:href="#Computer_Modern_Bright-48"/>
       <use transform="translate(50.643218 0)scale(0.996264)" xlink:href="#Computer_Modern_Bright_Math_Slanted-58"/>
       <use transform="translate(79.700665 0)scale(0.996264)" xlink:href="#Computer_Modern_Bright-50"/>
      </g>
     </g>
    </g>
    <g id="ytick_3">
     <g id="line2d_10"/>
     <g id="text_11">
      <!-- $0.4$ -->
      <g style="fill:#262626;" transform="translate(26.642062 189.403333)scale(0.16 -0.16)">
       <use transform="scale(0.996264)" xlink:href="#Computer_Modern_Bright-48"/>
       <use transform="translate(50.643218 0)scale(0.996264)" xlink:href="#Computer_Modern_Bright_Math_Slanted-58"/>
       <use transform="translate(79.700665 0)scale(0.996264)" xlink:href="#Computer_Modern_Bright-52"/>
      </g>
     </g>
    </g>
    <g id="ytick_4">
     <g id="line2d_11"/>
     <g id="text_12">
      <!-- $0.6$ -->
      <g style="fill:#262626;" transform="translate(26.642062 135.042599)scale(0.16 -0.16)">
       <use transform="scale(0.996264)" xlink:href="#Computer_Modern_Bright-48"/>
       <use transform="translate(50.643218 0)scale(0.996264)" xlink:href="#Computer_Modern_Bright_Math_Slanted-58"/>
       <use transform="translate(79.700665 0)scale(0.996264)" xlink:href="#Computer_Modern_Bright-54"/>
      </g>
     </g>
    </g>
    <g id="ytick_5">
     <g id="line2d_12"/>
     <g id="text_13">
      <!-- $0.8$ -->
      <g style="fill:#262626;" transform="translate(26.642062 80.681864)scale(0.16 -0.16)">
       <use transform="scale(0.996264)" xlink:href="#Computer_Modern_Bright-48"/>
       <use transform="translate(50.643218 0)scale(0.996264)" xlink:href="#Computer_Modern_Bright_Math_Slanted-58"/>
       <use transform="translate(79.700665 0)scale(0.996264)" xlink:href="#Computer_Modern_Bright-56"/>
      </g>
     </g>
    </g>
    <g id="ytick_6">
     <g id="line2d_13"/>
     <g id="text_14">
      <!-- $1.0$ -->
      <g style="fill:#262626;" transform="translate(26.642062 26.32113)scale(0.16 -0.16)">
       <use transform="scale(0.996264)" xlink:href="#Computer_Modern_Bright-49"/>
       <use transform="translate(50.643218 0)scale(0.996264)" xlink:href="#Computer_Modern_Bright_Math_Slanted-58"/>
       <use transform="translate(79.700665 0)scale(0.996264)" xlink:href="#Computer_Modern_Bright-48"/>
      </g>
     </g>
    </g>
    <g id="text_15">
     <!-- Cumulative Density Function -->
     <defs>
      <path d="M 6.40625 47 
L 6.40625 12.96875 
C 6.40625 10.046875 6.5 7.140625 7.703125 4.421875 
C 9.59375 0.515625 13.59375 -1 17.703125 -1 
C 23.203125 -1 28.703125 0.8125 32.703125 4.734375 
C 33.796875 5.828125 34.796875 6.9375 35.5 8.34375 
L 35.59375 8.34375 
L 35.59375 -0.390625 
L 41.90625 -0.390625 
L 41.90625 47 
L 35.5 47 
L 35.5 22.90625 
C 35.5 18.6875 36.09375 14.0625 33.90625 10.25 
C 32.296875 7.4375 29.5 5.234375 26.40625 4.234375 
C 24.296875 3.625 22.09375 3.625 19.90625 3.828125 
C 17.796875 4.03125 15.5 4.234375 14.09375 6.03125 
C 12.09375 8.453125 12.796875 14.171875 12.796875 17.6875 
L 12.796875 47 
z
" id="Computer_Modern_Bright-117"/>
      <path d="M 12.59375 37.359375 
L 12.5 37.359375 
L 12.5 47.390625 
L 6.40625 47.390625 
L 6.40625 0 
L 12.796875 0 
L 12.796875 22.046875 
C 12.796875 26.953125 12.5 31.875 14.703125 36.375 
C 16.59375 40.28125 19.90625 43.390625 25.796875 42.78125 
C 28.796875 42.78125 31.796875 41.984375 33.703125 39.453125 
C 35.5 37.140625 35.59375 34.140625 35.59375 31.3125 
L 35.59375 0 
L 42 0 
L 42 22.046875 
C 42 26.953125 41.703125 31.875 43.90625 36.375 
C 45.796875 40.28125 49.09375 43.390625 55 42.78125 
C 58 42.78125 61 41.984375 62.90625 39.453125 
C 64.703125 37.140625 64.796875 34.140625 64.796875 31.3125 
L 64.796875 0 
L 71.203125 0 
L 71.203125 26.5625 
C 71.203125 31.375 71.796875 36.78125 69.703125 41.1875 
C 67.59375 45.296875 64.203125 47.5 58.703125 47.5 
C 55.5 47.796875 52.296875 47.3125 49.40625 45.84375 
C 45.90625 43.921875 43.296875 40.75 41.703125 37.265625 
C 41 40.578125 40.203125 42.828125 38 45 
C 35.703125 47.0625 32.59375 48 29.59375 48 
C 22.296875 48.59375 17.703125 45.5625 14.59375 41 
C 13.796875 39.875 13 38.671875 12.59375 37.359375 
" id="Computer_Modern_Bright-109"/>
      <path d="M 6.40625 69.6875 
L 6.40625 0 
L 12.703125 0 
L 12.703125 69.6875 
z
" id="Computer_Modern_Bright-108"/>
      <path d="M 0.703125 47.5 
C 1.203125 45.5 4.203125 37.578125 4.40625 37.078125 
C 5.40625 34.28125 17.296875 0.609375 17.59375 0.296875 
C 17.90625 -0.203125 18.796875 0 19.296875 0 
L 22.796875 0 
C 24.09375 0 24.90625 -0.296875 25.203125 0.90625 
C 28.40625 9.328125 40.09375 42.703125 41.796875 47.5 
L 35.59375 47.5 
C 30.796875 33.984375 25.90625 20.4375 21.40625 6.609375 
L 11 36.203125 
C 9.5 39.796875 8.59375 43.890625 6.90625 47.203125 
C 5.09375 47.5 2.796875 47.5 0.703125 47.5 
" id="Computer_Modern_Bright-118"/>
      <path d="M 8 70 
L 8 0 
L 28.203125 0 
C 31.40625 0 34.59375 0 37.703125 0.296875 
C 45.703125 1.109375 52.59375 5.015625 57.203125 9.828125 
C 70.09375 23.171875 70 46.125 57.296875 59.671875 
C 52.703125 64.578125 46.5 68.5 38.703125 69.5 
C 34.90625 70 31 70 27.203125 70 
z
M 14.90625 5.3125 
L 14.90625 64.5625 
L 27.796875 64.5625 
C 30.5 64.5625 33.203125 64.5625 35.90625 64.359375 
C 40.40625 63.859375 44.796875 62.359375 48.5 59.734375 
C 56.59375 54.125 60 44.171875 60 34.640625 
C 60 26.609375 57.796875 18.375 51.90625 12.640625 
C 47.90625 8.9375 42.5 6.21875 36 5.515625 
C 33.40625 5.3125 30.703125 5.3125 28.09375 5.3125 
z
" id="Computer_Modern_Bright-68"/>
      <path d="M 0.703125 47.65625 
C 1.296875 45.75 5.40625 35.609375 5.5 35.3125 
L 17.40625 4.578125 
L 18.40625 2.078125 
C 19 0.671875 19.203125 0.46875 18.59375 -1.140625 
L 17.5 -4.046875 
C 16.59375 -6.46875 15.59375 -8.96875 13.703125 -10.484375 
C 10.296875 -13.296875 4.90625 -11.6875 0.796875 -10.78125 
L 1.296875 -16.5 
C 3.203125 -16.796875 5.09375 -17 7 -17 
C 11.296875 -17.515625 14.09375 -16.5 16.703125 -14.296875 
C 20 -11.484375 21.59375 -7.5625 23.09375 -3.546875 
L 26.203125 5.078125 
L 36.40625 32.90625 
C 38.09375 37.921875 40.203125 42.640625 41.796875 47.65625 
L 37.296875 47.65625 
C 36.796875 47.65625 36 47.859375 35.59375 47.46875 
C 35.40625 47.15625 35.296875 46.765625 35.203125 46.453125 
L 34.40625 44.34375 
C 33.40625 41.734375 32.5 39.234375 31.59375 36.609375 
L 25.796875 20.25 
C 24.296875 15.828125 22.59375 11.3125 21.796875 6.6875 
C 20.703125 11.3125 19.203125 15.734375 17.59375 20.140625 
C 16.296875 23.5625 8.5 44.546875 7.5 46.5625 
C 7.09375 47.65625 6.703125 47.65625 5.203125 47.65625 
z
" id="Computer_Modern_Bright-121"/>
      <path d="M 8 69.328125 
L 8 0 
L 15 0 
L 15 32 
L 48.09375 32 
L 48.09375 37.3125 
L 15 37.3125 
L 15 64 
L 52.40625 64 
L 52.40625 69.328125 
z
" id="Computer_Modern_Bright-70"/>
     </defs>
     <g style="fill:#262626;" transform="translate(19.65327 260.669538)rotate(-90)scale(0.18 -0.18)">
      <use transform="scale(0.996264)" xlink:href="#Computer_Modern_Bright-67"/>
      <use transform="translate(65.172032 0)scale(0.996264)" xlink:href="#Computer_Modern_Bright-117"/>
      <use transform="translate(113.324529 0)scale(0.996264)" xlink:href="#Computer_Modern_Bright-109"/>
      <use transform="translate(190.534656 0)scale(0.996264)" xlink:href="#Computer_Modern_Bright-117"/>
      <use transform="translate(238.687153 0)scale(0.996264)" xlink:href="#Computer_Modern_Bright-108"/>
      <use transform="translate(257.782112 0)scale(0.996264)" xlink:href="#Computer_Modern_Bright-97"/>
      <use transform="translate(304.274194 0)scale(0.996264)" xlink:href="#Computer_Modern_Bright-116"/>
      <use transform="translate(340.388582 0)scale(0.996264)" xlink:href="#Computer_Modern_Bright-105"/>
      <use transform="translate(359.483541 0)scale(0.996264)" xlink:href="#Computer_Modern_Bright-118"/>
      <use transform="translate(401.824579 0)scale(0.996264)" xlink:href="#Computer_Modern_Bright-101"/>
      <use transform="translate(478.121458 0)scale(0.996264)" xlink:href="#Computer_Modern_Bright-68"/>
      <use transform="translate(549.727645 0)scale(0.996264)" xlink:href="#Computer_Modern_Bright-101"/>
      <use transform="translate(594.559312 0)scale(0.996264)" xlink:href="#Computer_Modern_Bright-110"/>
      <use transform="translate(642.711809 0)scale(0.996264)" xlink:href="#Computer_Modern_Bright-115"/>
      <use transform="translate(681.150839 0)scale(0.996264)" xlink:href="#Computer_Modern_Bright-105"/>
      <use transform="translate(700.245798 0)scale(0.996264)" xlink:href="#Computer_Modern_Bright-116"/>
      <use transform="translate(733.454456 0)scale(0.996264)" xlink:href="#Computer_Modern_Bright-121"/>
      <use transform="translate(807.260706 0)scale(0.996264)" xlink:href="#Computer_Modern_Bright-70"/>
      <use transform="translate(860.187034 0)scale(0.996264)" xlink:href="#Computer_Modern_Bright-117"/>
      <use transform="translate(908.339531 0)scale(0.996264)" xlink:href="#Computer_Modern_Bright-110"/>
      <use transform="translate(956.492028 0)scale(0.996264)" xlink:href="#Computer_Modern_Bright-99"/>
      <use transform="translate(1001.323695 0)scale(0.996264)" xlink:href="#Computer_Modern_Bright-116"/>
      <use transform="translate(1037.438083 0)scale(0.996264)" xlink:href="#Computer_Modern_Bright-105"/>
      <use transform="translate(1056.533042 0)scale(0.996264)" xlink:href="#Computer_Modern_Bright-111"/>
      <use transform="translate(1107.17626 0)scale(0.996264)" xlink:href="#Computer_Modern_Bright-110"/>
     </g>
    </g>
   </g>
   <g id="PolyCollection_1">
    <path clip-path="url(#p7e4cb4eff2)" d="M 282.73767 292.5862 
L 282.73767 292.59 
L 282.952782 292.59 
L 283.167894 292.59 
L 283.383005 292.59 
L 283.598117 292.59 
L 283.813229 292.59 
L 284.028341 292.59 
L 284.243452 292.59 
L 284.458564 292.59 
L 284.673676 292.59 
L 284.888788 292.59 
L 285.1039 292.59 
L 285.319011 292.59 
L 285.534123 292.59 
L 285.749235 292.59 
L 285.964347 292.59 
L 286.179458 292.59 
L 286.39457 292.59 
L 286.609682 292.59 
L 286.824794 292.59 
L 287.039905 292.59 
L 287.255017 292.59 
L 287.470129 292.59 
L 287.685241 292.59 
L 287.900352 292.59 
L 288.115464 292.59 
L 288.330576 292.59 
L 288.545688 292.59 
L 288.760799 292.59 
L 288.975911 292.59 
L 289.191023 292.59 
L 289.406135 292.59 
L 289.621246 292.59 
L 289.836358 292.59 
L 290.05147 292.59 
L 290.266582 292.59 
L 290.481693 292.59 
L 290.696805 292.59 
L 290.911917 292.59 
L 291.127029 292.59 
L 291.34214 292.59 
L 291.557252 292.59 
L 291.772364 292.59 
L 291.987476 292.59 
L 292.202588 292.59 
L 292.417699 292.59 
L 292.632811 292.59 
L 292.847923 292.59 
L 293.063035 292.59 
L 293.278146 292.59 
L 293.493258 292.59 
L 293.70837 292.59 
L 293.923482 292.59 
L 294.138593 292.59 
L 294.353705 292.59 
L 294.568817 292.59 
L 294.783929 292.59 
L 294.99904 292.59 
L 295.214152 292.59 
L 295.429264 292.59 
L 295.644376 292.59 
L 295.859487 292.59 
L 296.074599 292.59 
L 296.289711 292.59 
L 296.504823 292.59 
L 296.719934 292.59 
L 296.935046 292.59 
L 297.150158 292.59 
L 297.36527 292.59 
L 297.580381 292.59 
L 297.795493 292.59 
L 298.010605 292.59 
L 298.225717 292.59 
L 298.440828 292.59 
L 298.65594 292.59 
L 298.871052 292.59 
L 299.086164 292.59 
L 299.301275 292.59 
L 299.516387 292.59 
L 299.731499 292.59 
L 299.946611 292.59 
L 300.161723 292.59 
L 300.376834 292.59 
L 300.591946 292.59 
L 300.807058 292.59 
L 301.02217 292.59 
L 301.237281 292.59 
L 301.452393 292.59 
L 301.667505 292.59 
L 301.882617 292.59 
L 302.097728 292.59 
L 302.31284 292.59 
L 302.527952 292.59 
L 302.743064 292.59 
L 302.958175 292.59 
L 303.173287 292.59 
L 303.388399 292.59 
L 303.603511 292.59 
L 303.818622 292.59 
L 304.033734 292.59 
L 304.248846 292.59 
L 304.463958 292.59 
L 304.679069 292.59 
L 304.894181 292.59 
L 305.109293 292.59 
L 305.324405 292.59 
L 305.539516 292.59 
L 305.754628 292.59 
L 305.96974 292.59 
L 306.184852 292.59 
L 306.399963 292.59 
L 306.615075 292.59 
L 306.830187 292.59 
L 307.045299 292.59 
L 307.26041 292.59 
L 307.475522 292.59 
L 307.690634 292.59 
L 307.905746 292.59 
L 308.120858 292.59 
L 308.335969 292.59 
L 308.551081 292.59 
L 308.766193 292.59 
L 308.981305 292.59 
L 309.196416 292.59 
L 309.411528 292.59 
L 309.62664 292.59 
L 309.841752 292.59 
L 310.056863 292.59 
L 310.056863 20.790078 
L 310.056863 20.790078 
L 309.841752 20.79229 
L 309.62664 20.795637 
L 309.411528 20.800604 
L 309.196416 20.807836 
L 308.981305 20.81817 
L 308.766193 20.832666 
L 308.551081 20.852636 
L 308.335969 20.879664 
L 308.120858 20.915619 
L 307.905746 20.96266 
L 307.690634 21.023222 
L 307.475522 21.099997 
L 307.26041 21.195908 
L 307.045299 21.314077 
L 306.830187 21.457785 
L 306.615075 21.630445 
L 306.399963 21.835575 
L 306.184852 22.076773 
L 305.96974 22.357703 
L 305.754628 22.682073 
L 305.539516 23.053617 
L 305.324405 23.476066 
L 305.109293 23.953112 
L 304.894181 24.488366 
L 304.679069 25.085326 
L 304.463958 25.747343 
L 304.248846 26.477617 
L 304.033734 27.279223 
L 303.818622 28.15517 
L 303.603511 29.108502 
L 303.388399 30.142425 
L 303.173287 31.260463 
L 302.958175 32.466614 
L 302.743064 33.765505 
L 302.527952 35.162519 
L 302.31284 36.663896 
L 302.097728 38.276783 
L 301.882617 40.009254 
L 301.667505 41.87027 
L 301.452393 43.869597 
L 301.237281 46.01766 
L 301.02217 48.32534 
L 300.807058 50.803694 
L 300.591946 53.463599 
L 300.376834 56.315327 
L 300.161723 59.368057 
L 299.946611 62.629363 
L 299.731499 66.104711 
L 299.516387 69.797013 
L 299.301275 73.706291 
L 299.086164 77.829499 
L 298.871052 82.160517 
L 298.65594 86.690341 
L 298.440828 91.407438 
L 298.225717 96.298251 
L 298.010605 101.347776 
L 297.795493 106.540188 
L 297.580381 111.85944 
L 297.36527 117.2898 
L 297.150158 122.816308 
L 296.935046 128.425113 
L 296.719934 134.103703 
L 296.504823 139.841025 
L 296.289711 145.627472 
L 296.074599 151.454753 
L 295.859487 157.315621 
L 295.644376 163.20346 
L 295.429264 169.111725 
L 295.214152 175.03326 
L 294.99904 180.959528 
L 294.783929 186.879827 
L 294.568817 192.780576 
L 294.353705 198.644775 
L 294.138593 204.451749 
L 293.923482 210.177247 
L 293.70837 215.79397 
L 293.493258 221.272506 
L 293.278146 226.582641 
L 293.063035 231.694928 
L 292.847923 236.582361 
L 292.632811 241.221984 
L 292.417699 245.596242 
L 292.202588 249.69393 
L 291.987476 253.510626 
L 291.772364 257.048558 
L 291.557252 260.315945 
L 291.34214 263.325881 
L 291.127029 266.094934 
L 290.911917 268.641611 
L 290.696805 270.984876 
L 290.481693 273.142884 
L 290.266582 275.132032 
L 290.05147 276.966395 
L 289.836358 278.65755 
L 289.621246 280.21473 
L 289.406135 281.645235 
L 289.191023 282.954976 
L 288.975911 284.149065 
L 288.760799 285.232343 
L 288.545688 286.209782 
L 288.330576 287.08674 
L 288.115464 287.869059 
L 287.900352 288.563024 
L 287.685241 289.175232 
L 287.470129 289.71241 
L 287.255017 290.181232 
L 287.039905 290.588152 
L 286.824794 290.939291 
L 286.609682 291.240372 
L 286.39457 291.496702 
L 286.179458 291.71319 
L 285.964347 291.894381 
L 285.749235 292.0445 
L 285.534123 292.167481 
L 285.319011 292.266996 
L 285.1039 292.346451 
L 284.888788 292.408989 
L 284.673676 292.45747 
L 284.458564 292.49446 
L 284.243452 292.522219 
L 284.028341 292.542695 
L 283.813229 292.557536 
L 283.598117 292.5681 
L 283.383005 292.575481 
L 283.167894 292.580544 
L 282.952782 292.583951 
L 282.73767 292.5862 
z
" style="fill:#1f78b4;fill-opacity:0.25;"/>
   </g>
   <g id="PolyCollection_2">
    <path clip-path="url(#p7e4cb4eff2)" d="M 117.558358 292.583585 
L 117.558358 292.59 
L 119.032611 292.59 
L 120.506864 292.59 
L 121.981117 292.59 
L 123.45537 292.59 
L 124.929623 292.59 
L 126.403876 292.59 
L 127.878129 292.59 
L 129.352381 292.59 
L 130.826634 292.59 
L 132.300887 292.59 
L 133.77514 292.59 
L 135.249393 292.59 
L 136.723646 292.59 
L 138.197899 292.59 
L 139.672152 292.59 
L 141.146405 292.59 
L 142.620657 292.59 
L 144.09491 292.59 
L 145.569163 292.59 
L 147.043416 292.59 
L 148.517669 292.59 
L 149.991922 292.59 
L 151.466175 292.59 
L 152.940428 292.59 
L 154.414681 292.59 
L 155.888934 292.59 
L 157.363186 292.59 
L 158.837439 292.59 
L 160.311692 292.59 
L 161.785945 292.59 
L 163.260198 292.59 
L 164.734451 292.59 
L 166.208704 292.59 
L 167.682957 292.59 
L 169.15721 292.59 
L 170.631462 292.59 
L 172.105715 292.59 
L 173.579968 292.59 
L 175.054221 292.59 
L 176.528474 292.59 
L 178.002727 292.59 
L 179.47698 292.59 
L 180.951233 292.59 
L 182.425486 292.59 
L 183.899739 292.59 
L 185.373991 292.59 
L 186.848244 292.59 
L 188.322497 292.59 
L 189.79675 292.59 
L 191.271003 292.59 
L 192.745256 292.59 
L 194.219509 292.59 
L 195.693762 292.59 
L 197.168015 292.59 
L 198.642267 292.59 
L 200.11652 292.59 
L 201.590773 292.59 
L 203.065026 292.59 
L 204.539279 292.59 
L 206.013532 292.59 
L 207.487785 292.59 
L 208.962038 292.59 
L 210.436291 292.59 
L 211.910544 292.59 
L 213.384796 292.59 
L 214.859049 292.59 
L 216.333302 292.59 
L 217.807555 292.59 
L 219.281808 292.59 
L 220.756061 292.59 
L 222.230314 292.59 
L 223.704567 292.59 
L 225.17882 292.59 
L 226.653072 292.59 
L 228.127325 292.59 
L 229.601578 292.59 
L 231.075831 292.59 
L 232.550084 292.59 
L 234.024337 292.59 
L 235.49859 292.59 
L 236.972843 292.59 
L 238.447096 292.59 
L 239.921349 292.59 
L 241.395601 292.59 
L 242.869854 292.59 
L 244.344107 292.59 
L 245.81836 292.59 
L 247.292613 292.59 
L 248.766866 292.59 
L 250.241119 292.59 
L 251.715372 292.59 
L 253.189625 292.59 
L 254.663877 292.59 
L 256.13813 292.59 
L 257.612383 292.59 
L 259.086636 292.59 
L 260.560889 292.59 
L 262.035142 292.59 
L 263.509395 292.59 
L 264.983648 292.59 
L 266.457901 292.59 
L 267.932154 292.59 
L 269.406406 292.59 
L 270.880659 292.59 
L 272.354912 292.59 
L 273.829165 292.59 
L 275.303418 292.59 
L 276.777671 292.59 
L 278.251924 292.59 
L 279.726177 292.59 
L 281.20043 292.59 
L 282.674682 292.59 
L 284.148935 292.59 
L 285.623188 292.59 
L 287.097441 292.59 
L 288.571694 292.59 
L 290.045947 292.59 
L 291.5202 292.59 
L 292.994453 292.59 
L 294.468706 292.59 
L 295.942959 292.59 
L 297.417211 292.59 
L 298.891464 292.59 
L 300.365717 292.59 
L 301.83997 292.59 
L 303.314223 292.59 
L 304.788476 292.59 
L 304.788476 20.79161 
L 304.788476 20.79161 
L 303.314223 20.794601 
L 301.83997 20.799082 
L 300.365717 20.805681 
L 298.891464 20.81524 
L 297.417211 20.828861 
L 295.942959 20.847955 
L 294.468706 20.874297 
L 292.994453 20.91007 
L 291.5202 20.957909 
L 290.045947 21.02093 
L 288.571694 21.102756 
L 287.097441 21.207526 
L 285.623188 21.339897 
L 284.148935 21.505053 
L 282.674682 21.708709 
L 281.20043 21.957149 
L 279.726177 22.257276 
L 278.251924 22.616716 
L 276.777671 23.043958 
L 275.303418 23.548534 
L 273.829165 24.14123 
L 272.354912 24.8343 
L 270.880659 25.641657 
L 269.406406 26.578986 
L 267.932154 27.663745 
L 266.457901 28.915016 
L 264.983648 30.353149 
L 263.509395 31.999211 
L 262.035142 33.874228 
L 260.560889 35.998252 
L 259.086636 38.389321 
L 257.612383 41.062384 
L 256.13813 44.02829 
L 254.663877 47.292935 
L 253.189625 50.856665 
L 251.715372 54.713991 
L 250.241119 58.853667 
L 248.766866 63.259123 
L 247.292613 67.909207 
L 245.81836 72.779174 
L 244.344107 77.841824 
L 242.869854 83.068664 
L 241.395601 88.431007 
L 239.921349 93.90092 
L 238.447096 99.451939 
L 236.972843 105.059564 
L 235.49859 110.701507 
L 234.024337 116.35775 
L 232.550084 122.010467 
L 231.075831 127.643863 
L 229.601578 133.243993 
L 228.127325 138.798607 
L 226.653072 144.297024 
L 225.17882 149.730065 
L 223.704567 155.090009 
L 222.230314 160.370551 
L 220.756061 165.56674 
L 219.281808 170.674882 
L 217.807555 175.69238 
L 216.333302 180.617531 
L 214.859049 185.449298 
L 213.384796 190.187058 
L 211.910544 194.830377 
L 210.436291 199.378818 
L 208.962038 203.831798 
L 207.487785 208.188498 
L 206.013532 212.44782 
L 204.539279 216.608372 
L 203.065026 220.668472 
L 201.590773 224.626143 
L 200.11652 228.479105 
L 198.642267 232.224746 
L 197.168015 235.860087 
L 195.693762 239.381761 
L 194.219509 242.786002 
L 192.745256 246.068688 
L 191.271003 249.225435 
L 189.79675 252.251746 
L 188.322497 255.143227 
L 186.848244 257.895846 
L 185.373991 260.506215 
L 183.899739 262.971873 
L 182.425486 265.291539 
L 180.951233 267.465306 
L 179.47698 269.494767 
L 178.002727 271.383034 
L 176.528474 273.134682 
L 175.054221 274.755599 
L 173.579968 276.252766 
L 172.105715 277.633996 
L 170.631462 278.907641 
L 169.15721 280.08231 
L 167.682957 281.166597 
L 166.208704 282.168845 
L 164.734451 283.096949 
L 163.260198 283.958203 
L 161.785945 284.759183 
L 160.311692 285.505663 
L 158.837439 286.202568 
L 157.363186 286.853956 
L 155.888934 287.463023 
L 154.414681 288.032153 
L 152.940428 288.562992 
L 151.466175 289.056562 
L 149.991922 289.5134 
L 148.517669 289.933728 
L 147.043416 290.31763 
L 145.569163 290.665229 
L 144.09491 290.976847 
L 142.620657 291.25313 
L 141.146405 291.495141 
L 139.672152 291.704394 
L 138.197899 291.882846 
L 136.723646 292.032847 
L 135.249393 292.15705 
L 133.77514 292.258307 
L 132.300887 292.339551 
L 130.826634 292.403684 
L 129.352381 292.453476 
L 127.878129 292.49149 
L 126.403876 292.52002 
L 124.929623 292.541067 
L 123.45537 292.556327 
L 121.981117 292.5672 
L 120.506864 292.574811 
L 119.032611 292.580047 
L 117.558358 292.583585 
z
" style="fill-opacity:0.25;"/>
   </g>
   <g id="PolyCollection_3">
    <path clip-path="url(#p7e4cb4eff2)" d="M 75.319264 292.584175 
L 75.319264 292.59 
L 76.942263 292.59 
L 78.565262 292.59 
L 80.188261 292.59 
L 81.81126 292.59 
L 83.434259 292.59 
L 85.057259 292.59 
L 86.680258 292.59 
L 88.303257 292.59 
L 89.926256 292.59 
L 91.549255 292.59 
L 93.172254 292.59 
L 94.795253 292.59 
L 96.418252 292.59 
L 98.041251 292.59 
L 99.664251 292.59 
L 101.28725 292.59 
L 102.910249 292.59 
L 104.533248 292.59 
L 106.156247 292.59 
L 107.779246 292.59 
L 109.402245 292.59 
L 111.025244 292.59 
L 112.648243 292.59 
L 114.271242 292.59 
L 115.894242 292.59 
L 117.517241 292.59 
L 119.14024 292.59 
L 120.763239 292.59 
L 122.386238 292.59 
L 124.009237 292.59 
L 125.632236 292.59 
L 127.255235 292.59 
L 128.878234 292.59 
L 130.501233 292.59 
L 132.124233 292.59 
L 133.747232 292.59 
L 135.370231 292.59 
L 136.99323 292.59 
L 138.616229 292.59 
L 140.239228 292.59 
L 141.862227 292.59 
L 143.485226 292.59 
L 145.108225 292.59 
L 146.731225 292.59 
L 148.354224 292.59 
L 149.977223 292.59 
L 151.600222 292.59 
L 153.223221 292.59 
L 154.84622 292.59 
L 156.469219 292.59 
L 158.092218 292.59 
L 159.715217 292.59 
L 161.338216 292.59 
L 162.961216 292.59 
L 164.584215 292.59 
L 166.207214 292.59 
L 167.830213 292.59 
L 169.453212 292.59 
L 171.076211 292.59 
L 172.69921 292.59 
L 174.322209 292.59 
L 175.945208 292.59 
L 177.568208 292.59 
L 179.191207 292.59 
L 180.814206 292.59 
L 182.437205 292.59 
L 184.060204 292.59 
L 185.683203 292.59 
L 187.306202 292.59 
L 188.929201 292.59 
L 190.5522 292.59 
L 192.175199 292.59 
L 193.798199 292.59 
L 195.421198 292.59 
L 197.044197 292.59 
L 198.667196 292.59 
L 200.290195 292.59 
L 201.913194 292.59 
L 203.536193 292.59 
L 205.159192 292.59 
L 206.782191 292.59 
L 208.40519 292.59 
L 210.02819 292.59 
L 211.651189 292.59 
L 213.274188 292.59 
L 214.897187 292.59 
L 216.520186 292.59 
L 218.143185 292.59 
L 219.766184 292.59 
L 221.389183 292.59 
L 223.012182 292.59 
L 224.635182 292.59 
L 226.258181 292.59 
L 227.88118 292.59 
L 229.504179 292.59 
L 231.127178 292.59 
L 232.750177 292.59 
L 234.373176 292.59 
L 235.996175 292.59 
L 237.619174 292.59 
L 239.242173 292.59 
L 240.865173 292.59 
L 242.488172 292.59 
L 244.111171 292.59 
L 245.73417 292.59 
L 247.357169 292.59 
L 248.980168 292.59 
L 250.603167 292.59 
L 252.226166 292.59 
L 253.849165 292.59 
L 255.472165 292.59 
L 257.095164 292.59 
L 258.718163 292.59 
L 260.341162 292.59 
L 261.964161 292.59 
L 263.58716 292.59 
L 265.210159 292.59 
L 266.833158 292.59 
L 268.456157 292.59 
L 270.079156 292.59 
L 271.702156 292.59 
L 273.325155 292.59 
L 274.948154 292.59 
L 276.571153 292.59 
L 278.194152 292.59 
L 279.817151 292.59 
L 281.44015 292.59 
L 281.44015 20.793818 
L 281.44015 20.793818 
L 279.817151 20.797874 
L 278.194152 20.80389 
L 276.571153 20.812691 
L 274.948154 20.825386 
L 273.325155 20.843445 
L 271.702156 20.868787 
L 270.079156 20.903866 
L 268.456157 20.951771 
L 266.833158 21.016326 
L 265.210159 21.102171 
L 263.58716 21.214846 
L 261.964161 21.360842 
L 260.341162 21.547618 
L 258.718163 21.783591 
L 257.095164 22.078066 
L 255.472165 22.441123 
L 253.849165 22.883454 
L 252.226166 23.416134 
L 250.603167 24.050365 
L 248.980168 24.79717 
L 247.357169 25.667063 
L 245.73417 26.669713 
L 244.111171 27.813614 
L 242.488172 29.105775 
L 240.865173 30.551453 
L 239.242173 32.153953 
L 237.619174 33.914488 
L 235.996175 35.832134 
L 234.373176 37.903889 
L 232.750177 40.124817 
L 231.127178 42.488315 
L 229.504179 44.986464 
L 227.88118 47.61048 
L 226.258181 50.351224 
L 224.635182 53.199757 
L 223.012182 56.147902 
L 221.389183 59.188767 
L 219.766184 62.317196 
L 218.143185 65.530099 
L 216.520186 68.82662 
L 214.897187 72.208128 
L 213.274188 75.678008 
L 211.651189 79.241263 
L 210.02819 82.903947 
L 208.40519 86.672479 
L 206.782191 90.552885 
L 205.159192 94.550047 
L 203.536193 98.667013 
L 201.913194 102.904452 
L 200.290195 107.260293 
L 198.667196 111.729576 
L 197.044197 116.304547 
L 195.421198 120.974961 
L 193.798199 125.72857 
L 192.175199 130.55174 
L 190.5522 135.430125 
L 188.929201 140.349347 
L 187.306202 145.295589 
L 185.683203 150.256083 
L 184.060204 155.219421 
L 182.437205 160.175705 
L 180.814206 165.116517 
L 179.191207 170.034736 
L 177.568208 174.924247 
L 175.945208 179.779575 
L 174.322209 184.595494 
L 172.69921 189.36666 
L 171.076211 194.087304 
L 169.453212 198.751008 
L 167.830213 203.350587 
L 166.207214 207.878084 
L 164.584215 212.324859 
L 162.961216 216.681769 
L 161.338216 220.939414 
L 159.715217 225.088423 
L 158.092218 229.119755 
L 156.469219 233.024987 
L 154.84622 236.796577 
L 153.223221 240.428082 
L 151.600222 243.914313 
L 149.977223 247.25144 
L 148.354224 250.437036 
L 146.731225 253.470063 
L 145.108225 256.350822 
L 143.485226 259.080855 
L 141.862227 261.66283 
L 140.239228 264.100394 
L 138.616229 266.398016 
L 136.99323 268.560817 
L 135.370231 270.594385 
L 133.747232 272.504593 
L 132.124233 274.297408 
L 130.501233 275.978706 
L 128.878234 277.554103 
L 127.255235 279.028807 
L 125.632236 280.407501 
L 124.009237 281.694277 
L 122.386238 282.892612 
L 120.763239 284.005398 
L 119.14024 285.035033 
L 117.517241 285.98354 
L 115.894242 286.85273 
L 114.271242 287.644378 
L 112.648243 288.360393 
L 111.025244 289.002977 
L 109.402245 289.574742 
L 107.779246 290.078797 
L 106.156247 290.518767 
L 104.533248 290.898782 
L 102.910249 291.223406 
L 101.28725 291.497541 
L 99.664251 291.726296 
L 98.041251 291.914855 
L 96.418252 292.068337 
L 94.795253 292.191673 
L 93.172254 292.289494 
L 91.549255 292.366054 
L 89.926256 292.425173 
L 88.303257 292.470205 
L 86.680258 292.504039 
L 85.057259 292.529109 
L 83.434259 292.547426 
L 81.81126 292.560623 
L 80.188261 292.569996 
L 78.565262 292.57656 
L 76.942263 292.581092 
L 75.319264 292.584175 
z
" style="fill:#33a02c;fill-opacity:0.25;"/>
   </g>
   <g id="PolyCollection_4">
    <path clip-path="url(#p7e4cb4eff2)" d="M 452.878645 292.582828 
L 452.878645 292.59 
L 453.101155 292.59 
L 453.323665 292.59 
L 453.546175 292.59 
L 453.768686 292.59 
L 453.991196 292.59 
L 454.213706 292.59 
L 454.436216 292.59 
L 454.658727 292.59 
L 454.881237 292.59 
L 455.103747 292.59 
L 455.326257 292.59 
L 455.548768 292.59 
L 455.771278 292.59 
L 455.993788 292.59 
L 456.216298 292.59 
L 456.438809 292.59 
L 456.661319 292.59 
L 456.883829 292.59 
L 457.106339 292.59 
L 457.32885 292.59 
L 457.55136 292.59 
L 457.77387 292.59 
L 457.99638 292.59 
L 458.218891 292.59 
L 458.441401 292.59 
L 458.663911 292.59 
L 458.886421 292.59 
L 459.108932 292.59 
L 459.331442 292.59 
L 459.553952 292.59 
L 459.776462 292.59 
L 459.998973 292.59 
L 460.221483 292.59 
L 460.443993 292.59 
L 460.666503 292.59 
L 460.889013 292.59 
L 461.111524 292.59 
L 461.334034 292.59 
L 461.556544 292.59 
L 461.779054 292.59 
L 462.001565 292.59 
L 462.224075 292.59 
L 462.446585 292.59 
L 462.669095 292.59 
L 462.891606 292.59 
L 463.114116 292.59 
L 463.336626 292.59 
L 463.559136 292.59 
L 463.781647 292.59 
L 464.004157 292.59 
L 464.226667 292.59 
L 464.449177 292.59 
L 464.671688 292.59 
L 464.894198 292.59 
L 465.116708 292.59 
L 465.339218 292.59 
L 465.561729 292.59 
L 465.784239 292.59 
L 466.006749 292.59 
L 466.229259 292.59 
L 466.45177 292.59 
L 466.67428 292.59 
L 466.89679 292.59 
L 467.1193 292.59 
L 467.341811 292.59 
L 467.564321 292.59 
L 467.786831 292.59 
L 468.009341 292.59 
L 468.231852 292.59 
L 468.454362 292.59 
L 468.676872 292.59 
L 468.899382 292.59 
L 469.121893 292.59 
L 469.344403 292.59 
L 469.566913 292.59 
L 469.789423 292.59 
L 470.011934 292.59 
L 470.234444 292.59 
L 470.456954 292.59 
L 470.679464 292.59 
L 470.901974 292.59 
L 471.124485 292.59 
L 471.346995 292.59 
L 471.569505 292.59 
L 471.792015 292.59 
L 472.014526 292.59 
L 472.237036 292.59 
L 472.459546 292.59 
L 472.682056 292.59 
L 472.904567 292.59 
L 473.127077 292.59 
L 473.349587 292.59 
L 473.572097 292.59 
L 473.794608 292.59 
L 474.017118 292.59 
L 474.239628 292.59 
L 474.462138 292.59 
L 474.684649 292.59 
L 474.907159 292.59 
L 475.129669 292.59 
L 475.352179 292.59 
L 475.57469 292.59 
L 475.7972 292.59 
L 476.01971 292.59 
L 476.24222 292.59 
L 476.464731 292.59 
L 476.687241 292.59 
L 476.909751 292.59 
L 477.132261 292.59 
L 477.354772 292.59 
L 477.577282 292.59 
L 477.799792 292.59 
L 478.022302 292.59 
L 478.244813 292.59 
L 478.467323 292.59 
L 478.689833 292.59 
L 478.912343 292.59 
L 479.134854 292.59 
L 479.357364 292.59 
L 479.579874 292.59 
L 479.802384 292.59 
L 480.024895 292.59 
L 480.247405 292.59 
L 480.469915 292.59 
L 480.692425 292.59 
L 480.914936 292.59 
L 481.137446 292.59 
L 481.137446 20.790001 
L 481.137446 20.790001 
L 480.914936 20.792044 
L 480.692425 20.795072 
L 480.469915 20.799475 
L 480.247405 20.805758 
L 480.024895 20.81456 
L 479.802384 20.826663 
L 479.579874 20.843003 
L 479.357364 20.86466 
L 479.134854 20.892848 
L 478.912343 20.928883 
L 478.689833 20.974139 
L 478.467323 21.029996 
L 478.244813 21.097778 
L 478.022302 21.178695 
L 477.799792 21.273793 
L 477.577282 21.383928 
L 477.354772 21.509775 
L 477.132261 21.651873 
L 476.909751 21.810729 
L 476.687241 21.986959 
L 476.464731 22.181495 
L 476.24222 22.395807 
L 476.01971 22.632171 
L 475.7972 22.893917 
L 475.57469 23.185672 
L 475.352179 23.513552 
L 475.129669 23.885295 
L 474.907159 24.310307 
L 474.684649 24.799619 
L 474.462138 25.365736 
L 474.239628 26.022391 
L 474.017118 26.784202 
L 473.794608 27.666242 
L 473.572097 28.683556 
L 473.349587 29.850633 
L 473.127077 31.180871 
L 472.904567 32.68607 
L 472.682056 34.375991 
L 472.459546 36.258007 
L 472.237036 38.336881 
L 472.014526 40.6147 
L 471.792015 43.090955 
L 471.569505 45.762774 
L 471.346995 48.625274 
L 471.124485 51.672002 
L 470.901974 54.895409 
L 470.679464 58.287306 
L 470.456954 61.839262 
L 470.234444 65.54289 
L 470.011934 69.390022 
L 469.789423 73.372763 
L 469.566913 77.483439 
L 469.344403 81.714488 
L 469.121893 86.058329 
L 468.899382 90.507252 
L 468.676872 95.053366 
L 468.454362 99.688635 
L 468.231852 104.404993 
L 468.009341 109.19453 
L 467.786831 114.049729 
L 467.564321 118.963704 
L 467.341811 123.930403 
L 467.1193 128.944738 
L 466.89679 134.002609 
L 466.67428 139.100809 
L 466.45177 144.236792 
L 466.229259 149.408339 
L 466.006749 154.613123 
L 465.784239 159.848227 
L 465.561729 165.109656 
L 465.339218 170.391892 
L 465.116708 175.687544 
L 464.894198 180.987134 
L 464.671688 186.279056 
L 464.449177 191.549712 
L 464.226667 196.783828 
L 464.004157 201.964926 
L 463.781647 207.075896 
L 463.559136 212.099628 
L 463.336626 217.019622 
L 463.114116 221.820533 
L 462.891606 226.488587 
L 462.669095 231.011846 
L 462.446585 235.38031 
L 462.224075 239.585871 
L 462.001565 243.62215 
L 461.779054 247.484271 
L 461.556544 251.168609 
L 461.334034 254.672572 
L 461.111524 257.994438 
L 460.889013 261.133267 
L 460.666503 264.088896 
L 460.443993 266.861975 
L 460.221483 269.454045 
L 459.998973 271.867604 
L 459.776462 274.106148 
L 459.553952 276.174156 
L 459.331442 278.077011 
L 459.108932 279.820878 
L 458.886421 281.412528 
L 458.663911 282.859154 
L 458.441401 284.168186 
L 458.218891 285.347135 
L 457.99638 286.403485 
L 457.77387 287.344623 
L 457.55136 288.17783 
L 457.32885 288.910292 
L 457.106339 289.549149 
L 456.883829 290.101533 
L 456.661319 290.574602 
L 456.438809 290.975548 
L 456.216298 291.311569 
L 455.993788 291.589814 
L 455.771278 291.817299 
L 455.548768 292.000805 
L 455.326257 292.146772 
L 455.103747 292.261198 
L 454.881237 292.349557 
L 454.658727 292.416738 
L 454.436216 292.46701 
L 454.213706 292.504024 
L 453.991196 292.530829 
L 453.768686 292.549917 
L 453.546175 292.563281 
L 453.323665 292.572477 
L 453.101155 292.578696 
L 452.878645 292.582828 
z
" style="fill:#ff7f00;fill-opacity:0.25;"/>
   </g>
   <g id="PolyCollection_5">
    <path clip-path="url(#p7e4cb4eff2)" d="M 293.790906 292.582724 
L 293.790906 292.59 
L 294.950266 292.59 
L 296.109627 292.59 
L 297.268987 292.59 
L 298.428347 292.59 
L 299.587707 292.59 
L 300.747068 292.59 
L 301.906428 292.59 
L 303.065788 292.59 
L 304.225148 292.59 
L 305.384509 292.59 
L 306.543869 292.59 
L 307.703229 292.59 
L 308.862589 292.59 
L 310.02195 292.59 
L 311.18131 292.59 
L 312.34067 292.59 
L 313.50003 292.59 
L 314.659391 292.59 
L 315.818751 292.59 
L 316.978111 292.59 
L 318.137471 292.59 
L 319.296832 292.59 
L 320.456192 292.59 
L 321.615552 292.59 
L 322.774912 292.59 
L 323.934273 292.59 
L 325.093633 292.59 
L 326.252993 292.59 
L 327.412353 292.59 
L 328.571714 292.59 
L 329.731074 292.59 
L 330.890434 292.59 
L 332.049794 292.59 
L 333.209155 292.59 
L 334.368515 292.59 
L 335.527875 292.59 
L 336.687235 292.59 
L 337.846596 292.59 
L 339.005956 292.59 
L 340.165316 292.59 
L 341.324676 292.59 
L 342.484037 292.59 
L 343.643397 292.59 
L 344.802757 292.59 
L 345.962118 292.59 
L 347.121478 292.59 
L 348.280838 292.59 
L 349.440198 292.59 
L 350.599559 292.59 
L 351.758919 292.59 
L 352.918279 292.59 
L 354.077639 292.59 
L 355.237 292.59 
L 356.39636 292.59 
L 357.55572 292.59 
L 358.71508 292.59 
L 359.874441 292.59 
L 361.033801 292.59 
L 362.193161 292.59 
L 363.352521 292.59 
L 364.511882 292.59 
L 365.671242 292.59 
L 366.830602 292.59 
L 367.989962 292.59 
L 369.149323 292.59 
L 370.308683 292.59 
L 371.468043 292.59 
L 372.627403 292.59 
L 373.786764 292.59 
L 374.946124 292.59 
L 376.105484 292.59 
L 377.264844 292.59 
L 378.424205 292.59 
L 379.583565 292.59 
L 380.742925 292.59 
L 381.902285 292.59 
L 383.061646 292.59 
L 384.221006 292.59 
L 385.380366 292.59 
L 386.539726 292.59 
L 387.699087 292.59 
L 388.858447 292.59 
L 390.017807 292.59 
L 391.177167 292.59 
L 392.336528 292.59 
L 393.495888 292.59 
L 394.655248 292.59 
L 395.814609 292.59 
L 396.973969 292.59 
L 398.133329 292.59 
L 399.292689 292.59 
L 400.45205 292.59 
L 401.61141 292.59 
L 402.77077 292.59 
L 403.93013 292.59 
L 405.089491 292.59 
L 406.248851 292.59 
L 407.408211 292.59 
L 408.567571 292.59 
L 409.726932 292.59 
L 410.886292 292.59 
L 412.045652 292.59 
L 413.205012 292.59 
L 414.364373 292.59 
L 415.523733 292.59 
L 416.683093 292.59 
L 417.842453 292.59 
L 419.001814 292.59 
L 420.161174 292.59 
L 421.320534 292.59 
L 422.479894 292.59 
L 423.639255 292.59 
L 424.798615 292.59 
L 425.957975 292.59 
L 427.117335 292.59 
L 428.276696 292.59 
L 429.436056 292.59 
L 430.595416 292.59 
L 431.754776 292.59 
L 432.914137 292.59 
L 434.073497 292.59 
L 435.232857 292.59 
L 436.392217 292.59 
L 437.551578 292.59 
L 438.710938 292.59 
L 439.870298 292.59 
L 441.029658 292.59 
L 441.029658 20.79 
L 441.029658 20.79 
L 439.870298 20.792137 
L 438.710938 20.795346 
L 437.551578 20.800071 
L 436.392217 20.806889 
L 435.232857 20.81653 
L 434.073497 20.829894 
L 432.914137 20.848054 
L 431.754776 20.872245 
L 430.595416 20.903841 
L 429.436056 20.944313 
L 428.276696 20.995163 
L 427.117335 21.057849 
L 425.957975 21.133702 
L 424.798615 21.223839 
L 423.639255 21.329095 
L 422.479894 21.449978 
L 421.320534 21.586663 
L 420.161174 21.739025 
L 419.001814 21.906732 
L 417.842453 22.089375 
L 416.683093 22.286631 
L 415.523733 22.49845 
L 414.364373 22.725234 
L 413.205012 22.967992 
L 412.045652 23.228452 
L 410.886292 23.509119 
L 409.726932 23.81326 
L 408.567571 24.144846 
L 407.408211 24.508438 
L 406.248851 24.909057 
L 405.089491 25.352042 
L 403.93013 25.842934 
L 402.77077 26.387386 
L 401.61141 26.991106 
L 400.45205 27.659829 
L 399.292689 28.399302 
L 398.133329 29.215251 
L 396.973969 30.113318 
L 395.814609 31.098933 
L 394.655248 32.17713 
L 393.495888 33.352298 
L 392.336528 34.6279 
L 391.177167 36.006199 
L 390.017807 37.488038 
L 388.858447 39.072723 
L 387.699087 40.758065 
L 386.539726 42.540598 
L 385.380366 44.415989 
L 384.221006 46.379603 
L 383.061646 48.427187 
L 381.902285 50.555589 
L 380.742925 52.763427 
L 379.583565 55.05162 
L 378.424205 57.423698 
L 377.264844 59.885845 
L 376.105484 62.446645 
L 374.946124 65.116543 
L 373.786764 67.907083 
L 372.627403 70.829995 
L 371.468043 73.896246 
L 370.308683 77.115162 
L 369.149323 80.493726 
L 367.989962 84.036155 
L 366.830602 87.743796 
L 365.671242 91.615365 
L 364.511882 95.647496 
L 363.352521 99.835532 
L 362.193161 104.174438 
L 361.033801 108.659723 
L 359.874441 113.288212 
L 358.71508 118.05857 
L 357.55572 122.971461 
L 356.39636 128.02932 
L 355.237 133.235716 
L 354.077639 138.594406 
L 352.918279 144.108146 
L 351.758919 149.777439 
L 350.599559 155.599344 
L 349.440198 161.566501 
L 348.280838 167.666478 
L 347.121478 173.881502 
L 345.962118 180.188589 
L 344.802757 186.560037 
L 343.643397 192.964204 
L 342.484037 199.366481 
L 341.324676 205.730352 
L 340.165316 212.018464 
L 339.005956 218.193643 
L 337.846596 224.219817 
L 336.687235 230.062844 
L 335.527875 235.691248 
L 334.368515 241.076867 
L 333.209155 246.195425 
L 332.049794 251.027011 
L 330.890434 255.556448 
L 329.731074 259.773514 
L 328.571714 263.672991 
L 327.412353 267.254514 
L 326.252993 270.522221 
L 325.093633 273.484233 
L 323.934273 276.151998 
L 322.774912 278.53956 
L 321.615552 280.662827 
L 320.456192 282.538899 
L 319.296832 284.185487 
L 318.137471 285.620472 
L 316.978111 286.861591 
L 315.818751 287.926236 
L 314.659391 288.831342 
L 313.50003 289.593322 
L 312.34067 290.228016 
L 311.18131 290.750633 
L 310.02195 291.175676 
L 308.862589 291.516835 
L 307.703229 291.786874 
L 306.543869 291.99751 
L 305.384509 292.159321 
L 304.225148 292.281669 
L 303.065788 292.372681 
L 301.906428 292.439254 
L 300.747068 292.487123 
L 299.587707 292.520946 
L 298.428347 292.544423 
L 297.268987 292.560428 
L 296.109627 292.571141 
L 294.950266 292.578182 
L 293.790906 292.582724 
z
" style="fill:#0000ff;fill-opacity:0.25;"/>
   </g>
   <g id="line2d_14">
    <path clip-path="url(#p7e4cb4eff2)" d="M 282.73767 292.5862 
L 284.673676 292.45747 
L 285.534123 292.167481 
L 286.179458 291.71319 
L 286.824794 290.939291 
L 287.470129 289.71241 
L 288.115464 287.869059 
L 288.760799 285.232343 
L 289.406135 281.645235 
L 290.05147 276.966395 
L 290.696805 270.984876 
L 291.34214 263.325881 
L 291.987476 253.510626 
L 292.847923 236.582361 
L 293.923482 210.177247 
L 298.65594 86.690341 
L 299.731499 66.104711 
L 300.591946 53.463599 
L 301.452393 43.869597 
L 302.31284 36.663896 
L 303.173287 31.260463 
L 304.033734 27.279223 
L 304.894181 24.488366 
L 305.539516 23.053617 
L 306.184852 22.076773 
L 306.830187 21.457785 
L 307.475522 21.099997 
L 308.335969 20.879664 
L 309.841752 20.79229 
L 310.056863 20.790078 
L 310.056863 20.790078 
" style="fill:none;stroke:#1f78b4;stroke-linecap:round;stroke-width:2;"/>
   </g>
   <g id="line2d_15">
    <path clip-path="url(#p7e4cb4eff2)" d="M 117.558358 292.583585 
L 129.352381 292.453476 
L 135.249393 292.15705 
L 139.672152 291.704394 
L 144.09491 290.976847 
L 148.517669 289.933728 
L 152.940428 288.562992 
L 157.363186 286.853956 
L 160.311692 285.505663 
L 163.260198 283.958203 
L 166.208704 282.168845 
L 169.15721 280.08231 
L 172.105715 277.633996 
L 175.054221 274.755599 
L 178.002727 271.383034 
L 180.951233 267.465306 
L 183.899739 262.971873 
L 186.848244 257.895846 
L 189.79675 252.251746 
L 192.745256 246.068688 
L 195.693762 239.381761 
L 198.642267 232.224746 
L 201.590773 224.626143 
L 206.013532 212.44782 
L 210.436291 199.378818 
L 214.859049 185.449298 
L 219.281808 170.674882 
L 223.704567 155.090009 
L 229.601578 133.243993 
L 242.869854 83.068664 
L 245.81836 72.779174 
L 248.766866 63.259123 
L 251.715372 54.713991 
L 254.663877 47.292935 
L 256.13813 44.02829 
L 257.612383 41.062384 
L 259.086636 38.389321 
L 260.560889 35.998252 
L 262.035142 33.874228 
L 263.509395 31.999211 
L 264.983648 30.353149 
L 266.457901 28.915016 
L 267.932154 27.663745 
L 269.406406 26.578986 
L 272.354912 24.8343 
L 275.303418 23.548534 
L 278.251924 22.616716 
L 281.20043 21.957149 
L 284.148935 21.505053 
L 288.571694 21.102756 
L 294.468706 20.874297 
L 304.788476 20.79161 
L 304.788476 20.79161 
" style="fill:none;stroke:#000000;stroke-linecap:round;stroke-width:2;"/>
   </g>
   <g id="line2d_16">
    <path clip-path="url(#p7e4cb4eff2)" d="M 75.319264 292.584175 
L 88.303257 292.470205 
L 94.795253 292.191673 
L 99.664251 291.726296 
L 102.910249 291.223406 
L 106.156247 290.518767 
L 109.402245 289.574742 
L 112.648243 288.360393 
L 115.894242 286.85273 
L 119.14024 285.035033 
L 122.386238 282.892612 
L 125.632236 280.407501 
L 128.878234 277.554103 
L 132.124233 274.297408 
L 135.370231 270.594385 
L 138.616229 266.398016 
L 141.862227 261.66283 
L 145.108225 256.350822 
L 148.354224 250.437036 
L 151.600222 243.914313 
L 154.84622 236.796577 
L 158.092218 229.119755 
L 161.338216 220.939414 
L 166.207214 207.878084 
L 171.076211 194.087304 
L 177.568208 174.924247 
L 188.929201 140.349347 
L 195.421198 120.974961 
L 200.290195 107.260293 
L 203.536193 98.667013 
L 206.782191 90.552885 
L 210.02819 82.903947 
L 213.274188 75.678008 
L 218.143185 65.530099 
L 221.389183 59.188767 
L 224.635182 53.199757 
L 227.88118 47.61048 
L 231.127178 42.488315 
L 234.373176 37.903889 
L 237.619174 33.914488 
L 240.865173 30.551453 
L 242.488172 29.105775 
L 244.111171 27.813614 
L 245.73417 26.669713 
L 247.357169 25.667063 
L 250.603167 24.050365 
L 253.849165 22.883454 
L 257.095164 22.078066 
L 260.341162 21.547618 
L 263.58716 21.214846 
L 268.456157 20.951771 
L 276.571153 20.812691 
L 281.44015 20.793818 
L 281.44015 20.793818 
" style="fill:none;stroke:#33a02c;stroke-linecap:round;stroke-width:2;"/>
   </g>
   <g id="line2d_17">
    <path clip-path="url(#p7e4cb4eff2)" d="M 452.878645 292.582828 
L 454.436216 292.46701 
L 455.103747 292.261198 
L 455.771278 291.817299 
L 456.216298 291.311569 
L 456.661319 290.574602 
L 457.32885 288.910292 
L 457.99638 286.403485 
L 458.663911 282.859154 
L 459.331442 278.077011 
L 459.998973 271.867604 
L 460.889013 261.133267 
L 461.779054 247.484271 
L 462.891606 226.488587 
L 464.449177 191.549712 
L 468.231852 104.404993 
L 469.789423 73.372763 
L 470.901974 54.895409 
L 471.792015 43.090955 
L 472.682056 34.375991 
L 473.349587 29.850633 
L 474.017118 26.784202 
L 474.684649 24.799619 
L 475.352179 23.513552 
L 476.24222 22.395807 
L 477.132261 21.651873 
L 478.022302 21.178695 
L 478.912343 20.928883 
L 480.247405 20.805758 
L 481.137446 20.790001 
L 481.137446 20.790001 
" style="fill:none;stroke:#ff7f00;stroke-linecap:round;stroke-width:2;"/>
   </g>
   <g id="line2d_18">
    <path clip-path="url(#p7e4cb4eff2)" d="M 293.790906 292.582724 
L 300.747068 292.487123 
L 304.225148 292.281669 
L 306.543869 291.99751 
L 308.862589 291.516835 
L 311.18131 290.750633 
L 313.50003 289.593322 
L 314.659391 288.831342 
L 315.818751 287.926236 
L 316.978111 286.861591 
L 318.137471 285.620472 
L 319.296832 284.185487 
L 320.456192 282.538899 
L 321.615552 280.662827 
L 322.774912 278.53956 
L 323.934273 276.151998 
L 325.093633 273.484233 
L 326.252993 270.522221 
L 328.571714 263.672991 
L 330.890434 255.556448 
L 333.209155 246.195425 
L 335.527875 235.691248 
L 337.846596 224.219817 
L 341.324676 205.730352 
L 349.440198 161.566501 
L 352.918279 144.108146 
L 356.39636 128.02932 
L 359.874441 113.288212 
L 363.352521 99.835532 
L 365.671242 91.615365 
L 367.989962 84.036155 
L 370.308683 77.115162 
L 372.627403 70.829995 
L 374.946124 65.116543 
L 377.264844 59.885845 
L 379.583565 55.05162 
L 383.061646 48.427187 
L 385.380366 44.415989 
L 387.699087 40.758065 
L 390.017807 37.488038 
L 392.336528 34.6279 
L 394.655248 32.17713 
L 396.973969 30.113318 
L 399.292689 28.399302 
L 401.61141 26.991106 
L 403.93013 25.842934 
L 406.248851 24.909057 
L 409.726932 23.81326 
L 413.205012 22.967992 
L 417.842453 22.089375 
L 422.479894 21.449978 
L 427.117335 21.057849 
L 432.914137 20.848054 
L 441.029658 20.79 
L 441.029658 20.79 
" style="fill:none;stroke:#0000ff;stroke-linecap:round;stroke-width:2;"/>
   </g>
   <g id="line2d_19">
    <path clip-path="url(#p7e4cb4eff2)" d="M 183.331623 306.18 
L 183.331623 7.2 
" style="fill:none;stroke:#33a02c;stroke-dasharray:8.4,3.6;stroke-dashoffset:0;stroke-width:3;"/>
   </g>
   <g id="patch_3">
    <path d="M 55.028355 306.18 
L 55.028355 7.2 
" style="fill:none;"/>
   </g>
   <g id="patch_4">
    <path d="M 501.428355 306.18 
L 501.428355 7.2 
" style="fill:none;"/>
   </g>
   <g id="patch_5">
    <path d="M 55.028355 306.18 
L 501.428355 306.18 
" style="fill:none;"/>
   </g>
   <g id="patch_6">
    <path d="M 55.028355 7.2 
L 501.428355 7.2 
" style="fill:none;"/>
   </g>
   <g id="legend_1">
    <g id="line2d_20">
     <path d="M 67.628355 24.7 
L 95.628355 24.7 
" style="fill:none;stroke:#1f78b4;stroke-linecap:round;stroke-width:2;"/>
    </g>
    <g id="line2d_21"/>
    <g id="text_16">
     <!-- Unbranched -->
     <defs>
      <path d="M 8 69.5 
L 8 32.75 
C 8 25.71875 7.203125 18.390625 10.703125 11.96875 
C 12.90625 7.84375 16.09375 4.4375 20.09375 2.125 
C 29.90625 -3.609375 43.5 -2.203125 51.296875 6.4375 
C 54.796875 10.359375 57.296875 15.171875 57.796875 21.796875 
C 57.90625 23.40625 57.796875 24.921875 57.796875 26.515625 
L 57.796875 69.5 
L 51.40625 69.5 
L 51.40625 25.90625 
C 51.40625 24.59375 51.5 23.1875 51.40625 21.890625 
C 51.203125 18.890625 50.59375 15.921875 49.40625 13.25 
C 43.90625 1 25 1 18 11.890625 
C 14.203125 17.78125 15 25.0625 15 31.65625 
L 15 69.5 
z
" id="Computer_Modern_Bright-85"/>
      <path d="M 6.40625 69.6875 
L 6.40625 0 
L 12.796875 0 
L 12.796875 6.328125 
L 12.90625 6.328125 
C 14 4.109375 16.5 2.015625 18.59375 0.90625 
C 25.796875 -2.90625 34.40625 0.90625 39.09375 7.03125 
C 48.59375 19.578125 44.796875 40.875 32.296875 46.796875 
C 27.40625 49 21.5 48 17.09375 44.984375 
C 15.40625 43.78125 14 42.375 12.703125 40.765625 
L 12.703125 69.6875 
z
M 21.90625 42.984375 
C 26.59375 43.375 31.5 41.265625 34.296875 37.453125 
C 36.203125 34.9375 37.203125 31.9375 37.703125 28.8125 
C 38.703125 21.484375 37.90625 12.25 31.40625 7.4375 
C 30.296875 6.625 29.09375 6.03125 27.796875 5.515625 
C 22.40625 3.515625 17 4.109375 14 8.84375 
C 13.09375 10.4375 12.796875 10.546875 12.796875 12.953125 
L 12.796875 33.734375 
C 12.796875 34.75 12.59375 35.953125 13 36.859375 
C 14.59375 40.171875 18.296875 42.671875 21.90625 42.984375 
" id="Computer_Modern_Bright-98"/>
      <path d="M 12.5 34.75 
L 12.40625 34.75 
L 12.40625 47.390625 
L 6.40625 47.390625 
L 6.40625 0 
L 12.703125 0 
L 12.703125 22.890625 
C 12.703125 24.40625 12.703125 25.90625 12.90625 27.40625 
C 14.296875 35.953125 21.703125 42.28125 31.40625 42.28125 
L 31.40625 48 
C 25 48 19.09375 44.890625 15.296875 39.765625 
C 14.203125 38.265625 13 36.546875 12.5 34.75 
" id="Computer_Modern_Bright-114"/>
      <path d="M 6.40625 69.6875 
L 6.40625 0 
L 12.796875 0 
L 12.796875 21.984375 
C 12.796875 26.90625 12.5 31.9375 14.703125 36.546875 
C 15.796875 38.859375 17.5 40.875 19.796875 42.078125 
C 21.703125 42.984375 23.703125 42.984375 25.796875 42.78125 
C 28.796875 42.78125 31.703125 41.984375 33.59375 39.453125 
C 35.40625 37.140625 35.5 34.140625 35.5 31.3125 
L 35.5 0 
L 41.90625 0 
L 41.90625 27.21875 
C 41.90625 32.234375 42.40625 37.75 39.90625 42.28125 
C 37.90625 45.6875 34.40625 47.296875 30.703125 47.796875 
C 28.703125 48 26.703125 48 24.703125 47.703125 
C 21.09375 47.015625 18 45.03125 15.59375 42.34375 
C 14.5 41.046875 13.203125 39.46875 12.796875 37.765625 
L 12.703125 37.765625 
L 12.703125 69.6875 
z
" id="Computer_Modern_Bright-104"/>
      <path d="M 35.59375 69.6875 
L 35.59375 41.375 
C 33.703125 43.484375 31.796875 45.484375 29.203125 46.6875 
C 20.296875 50.40625 11.703125 45.59375 7.296875 37.65625 
C 2.203125 28.21875 2.796875 15.765625 8.90625 6.921875 
C 13.203125 0.796875 20.296875 -2.203125 27.796875 0.5 
C 30.703125 1.609375 34.203125 4.515625 35.40625 7.125 
L 35.5 7.125 
L 35.5 0 
L 41.90625 0 
L 41.90625 69.6875 
z
M 35.203125 37.453125 
C 35.703125 36.546875 35.5 35.34375 35.5 34.34375 
L 35.5 13.65625 
C 35.5 11.34375 35.40625 11.140625 34.09375 9.34375 
C 32.296875 6.625 29.5 4.71875 26.203125 4.421875 
C 21.40625 4.015625 16.5 6.328125 13.703125 10.25 
C 12.09375 12.546875 11.203125 15.359375 10.703125 18.171875 
C 10.5 19.28125 10.5 20.28125 10.40625 21.390625 
C 9.796875 28.015625 11.203125 35.84375 17 40.0625 
C 18 40.765625 19.09375 41.265625 20.203125 41.765625 
C 26 43.984375 32.40625 43.375 35.203125 37.453125 
" id="Computer_Modern_Bright-100"/>
     </defs>
     <g style="fill:#262626;" transform="translate(106.828355 29.6)scale(0.14 -0.14)">
      <use transform="scale(0.996264)" xlink:href="#Computer_Modern_Bright-85"/>
      <use transform="translate(65.587132 0)scale(0.996264)" xlink:href="#Computer_Modern_Bright-110"/>
      <use transform="translate(113.739629 0)scale(0.996264)" xlink:href="#Computer_Modern_Bright-98"/>
      <use transform="translate(158.986397 0)scale(0.996264)" xlink:href="#Computer_Modern_Bright-114"/>
      <use transform="translate(190.949756 0)scale(0.996264)" xlink:href="#Computer_Modern_Bright-97"/>
      <use transform="translate(237.441838 0)scale(0.996264)" xlink:href="#Computer_Modern_Bright-110"/>
      <use transform="translate(285.594335 0)scale(0.996264)" xlink:href="#Computer_Modern_Bright-99"/>
      <use transform="translate(330.426003 0)scale(0.996264)" xlink:href="#Computer_Modern_Bright-104"/>
      <use transform="translate(378.5785 0)scale(0.996264)" xlink:href="#Computer_Modern_Bright-101"/>
      <use transform="translate(423.410167 0)scale(0.996264)" xlink:href="#Computer_Modern_Bright-100"/>
     </g>
    </g>
    <g id="line2d_22">
     <path d="M 67.628355 43.824611 
L 95.628355 43.824611 
" style="fill:none;stroke:#000000;stroke-linecap:round;stroke-width:2;"/>
    </g>
    <g id="line2d_23"/>
    <g id="text_17">
     <!-- \emph{hif-1} $&gt;$ \emph{egl-9} -->
     <defs>
      <path d="M 21.09375 70 
L 6.40625 0 
L 10.90625 0 
C 11.796875 0 13 -0.296875 13 1.015625 
C 13.203125 1.71875 13.296875 2.328125 13.40625 3.03125 
C 14.40625 7.78125 19 29.5 19.296875 30.40625 
C 20.40625 33.953125 22.40625 37.375 25.09375 39.90625 
C 28 42.4375 31.203125 43.84375 36.59375 42.9375 
C 38.796875 42.53125 40.90625 41.625 42 39.5 
C 43.5 36.46875 42.40625 32.9375 41.796875 29.90625 
L 35.5 0 
L 40.203125 0 
C 41.203125 0 42.09375 -0.203125 42.09375 1.109375 
C 42.703125 3.125 44.09375 10.625 44.09375 10.625 
L 48.59375 32 
C 49.40625 35.734375 50.296875 40.40625 48.203125 43.9375 
C 46.296875 46.984375 42.90625 48 39.59375 48.296875 
C 38.09375 48.296875 36.5 48.296875 35 48 
C 30.796875 47.3125 27.09375 45.09375 24.09375 42.09375 
C 22.90625 40.890625 21.5 39.59375 20.796875 37.984375 
L 20.703125 37.984375 
L 27.40625 70 
z
" id="Computer_Modern_Bright_Slanted-104"/>
      <path d="M 19.796875 64 
L 26.09375 64 
L 27.40625 70.359375 
C 25.296875 70.359375 23 70.359375 21.203125 70.046875 
C 20.5 68.265625 20.203125 66.09375 19.796875 64 
M 16.40625 47.890625 
L 6.40625 0 
C 8.5 0 10.796875 0 12.59375 0.296875 
L 13 1.40625 
L 22.703125 47.890625 
z
" id="Computer_Modern_Bright_Slanted-105"/>
      <path d="M 12 48.046875 
L 11 43 
L 19.59375 43 
C 16.5 29 13.59375 14.59375 10.59375 0.5 
C 12.703125 0.5 15 0.5 16.796875 0.796875 
L 17.09375 1.5 
C 19.296875 12.25 21.703125 22.703125 23.90625 33.4375 
C 24.703125 36.453125 25 39.984375 26 42.796875 
L 27 43 
L 38.296875 43 
L 39.296875 48.046875 
L 26.796875 48.046875 
C 27.703125 50.9375 28.09375 54.03125 28.703125 56.921875 
C 29 58.21875 29.09375 59.703125 29.796875 60.90625 
C 30.703125 62.609375 32.5 63.703125 34.203125 64.5 
C 37.703125 66 41.5 66 45.203125 65.4375 
C 46.59375 65.265625 47.90625 64.796875 49.203125 64.609375 
L 50.296875 70.234375 
C 46.703125 70.75 42.90625 71.15625 39.296875 70.75 
C 34.203125 70.03125 29.5 67.546875 26.09375 63.734375 
C 23.40625 60.640625 22.703125 58.046875 21.703125 53.34375 
C 21.59375 52.4375 21 48.546875 20.40625 48.25 
C 19.90625 47.84375 18.703125 48.046875 18.09375 48.046875 
z
" id="Computer_Modern_Bright_Slanted-102"/>
      <path d="M 5.90625 26.0625 
L 4.90625 21 
L 32.796875 21 
L 33.796875 26.0625 
z
" id="Computer_Modern_Bright_Slanted-45"/>
      <path d="M 22.5 61 
L 21.5 55.9375 
C 26.296875 55.9375 31.40625 56.546875 35.703125 58.875 
L 24.5 5.046875 
C 20.296875 5.046875 15.296875 5.5625 11.5 5.046875 
C 10.90625 3.578125 10.703125 1.671875 10.296875 0 
C 21.09375 0 32.59375 0 42.796875 0 
C 43.40625 1.453125 43.703125 3.296875 44.09375 5.046875 
L 31 5.046875 
C 35.203125 26.0625 39.796875 46.59375 44.09375 67.5 
C 41.703125 67.5 42 67.09375 40 65.59375 
C 35.59375 62.59375 28.90625 61 22.5 61 
" id="Computer_Modern_Bright_Slanted-49"/>
      <path d="M 62.59375 26.546875 
L 62.59375 26.34375 
C 60.296875 25.546875 58 24.25 55.796875 23.140625 
L 27.09375 9.625 
L 11.09375 2 
C 10.40625 1.703125 9.40625 1.296875 8.90625 0.796875 
C 8 -0.203125 8.203125 -1.703125 9.296875 -2.296875 
C 10.5 -3 11.703125 -2.109375 12.796875 -1.609375 
L 21 2.203125 
C 25.203125 4.3125 55 18.328125 55 18.328125 
L 66 23.546875 
C 67.296875 24.140625 69.40625 24.75 69.40625 26.453125 
C 69.40625 28.15625 67.296875 28.75 66 29.359375 
L 55 34.5625 
L 33.703125 44.6875 
C 29.5 46.6875 25.203125 48.59375 21 50.703125 
L 12.796875 54.5 
C 11.703125 55 10.5 55.90625 9.296875 55.203125 
C 8.203125 54.609375 8 53.09375 8.90625 52.09375 
C 9.40625 51.59375 10.40625 51.203125 11.09375 50.890625 
L 41.59375 36.46875 
L 55.796875 29.75 
C 58 28.65625 60.296875 27.359375 62.59375 26.546875 
" id="Computer_Modern_Bright_Math_Slanted-62"/>
      <path d="M 44.09375 10.859375 
C 42.796875 9.953125 41.5 8.9375 40.09375 8.140625 
C 34.296875 4.59375 24.09375 1.765625 18.203125 7.53125 
C 14.40625 11.375 13.203125 17.53125 14.796875 25 
L 46.40625 25 
C 46.796875 25 47.40625 24.90625 47.703125 25.203125 
C 48.5 25.8125 48.703125 31.375 48.703125 31.46875 
C 48.703125 32.6875 48.796875 33.890625 48.703125 35.109375 
C 48.296875 40.46875 45.703125 45.3125 40.703125 47.140625 
C 34.296875 49.765625 27 47.84375 21.5 43.90625 
C 13.796875 38.4375 8.40625 29.046875 8 19.453125 
C 7.59375 11.875 10.5 5.515625 15.40625 2.171875 
C 23.40625 -3.484375 34.5 -0.15625 40.90625 3.6875 
C 41.703125 4.203125 42.90625 4.703125 43.40625 5.40625 
C 43.703125 5.90625 44.09375 10.859375 44.09375 10.859375 
M 43.296875 28.953125 
L 16.203125 28.953125 
C 16.59375 30.671875 17.703125 32.390625 18.703125 33.796875 
C 21.296875 37.84375 25.09375 41.46875 29.796875 42.796875 
C 33.59375 43.90625 38.296875 43.1875 41 40.0625 
C 43.203125 37.4375 43.703125 33.390625 43.296875 28.953125 
" id="Computer_Modern_Bright_Slanted-101"/>
      <path d="M 37.90625 12.09375 
L 38 12.09375 
C 37.703125 10.1875 37.203125 8.265625 36.796875 6.34375 
C 36.203125 3.3125 35.703125 0.171875 34.703125 -2.65625 
C 33.5 -5.984375 31.203125 -9.109375 28.296875 -11.140625 
C 25.90625 -12.75 23.796875 -13.265625 19.90625 -12.953125 
C 15.09375 -12.953125 11.59375 -12.03125 7.796875 -10.265625 
C 6.703125 -9.75 5.796875 -9.125 4.703125 -8.609375 
L 3.5 -14.171875 
C 8.09375 -16.25 12.203125 -18 18.40625 -18 
C 19.796875 -18.109375 21.203125 -18.203125 22.59375 -18.109375 
C 31.703125 -17.203125 38.5 -10.21875 41.09375 -2.828125 
C 41.796875 -1 42.09375 1.015625 42.5 2.953125 
L 44.203125 11.03125 
C 44.796875 13.78125 51.90625 47.390625 52 48.5 
L 45.703125 48.5 
L 44.09375 40.265625 
C 43.703125 40.984375 43.5 41.78125 43.203125 42.5 
C 42.5 43.90625 41.5 45.21875 40.296875 46.234375 
C 34.40625 51.1875 25 46.640625 21 43.5 
C 15.09375 38.953125 11 32.296875 9.203125 25.125 
C 6.90625 16.234375 9.5 8.0625 14.90625 4.328125 
C 18.796875 1.59375 24.796875 0.78125 30 3.71875 
C 32.90625 5.4375 36.40625 8.96875 37.90625 12.09375 
M 34.59375 43.5 
C 40.296875 43.5 42.703125 39.546875 42.703125 33.890625 
C 42.59375 33.1875 42.40625 32.375 42.296875 31.671875 
C 40.703125 24.59375 39.40625 17.53125 35.59375 12.0625 
C 33.703125 9.34375 30.90625 7.125 27.5 6.8125 
C 25 6.609375 22.40625 7.515625 20.796875 8.328125 
C 15.90625 11.15625 14.296875 17.21875 15.09375 22.578125 
C 16 28.9375 19.5 35.03125 24.5 39.0625 
C 27.40625 41.4375 30.90625 43.203125 34.59375 43.5 
M 38 12.21875 
C 38 12.21875 38.09375 12.21875 38.09375 12.21875 
C 38.09375 12.125 38 12.015625 38 12.21875 
" id="Computer_Modern_Bright_Slanted-103"/>
      <path d="M 21.09375 70 
L 6.40625 0 
C 8.5 0 10.796875 0 12.59375 0.296875 
L 13 1.40625 
C 14 6.4375 15.09375 11.375 16.203125 16.40625 
L 27.40625 70 
z
" id="Computer_Modern_Bright_Slanted-108"/>
      <path d="M 46.5 33.03125 
L 46.59375 33.03125 
C 46.296875 31.3125 45.90625 29.59375 45.40625 27.96875 
C 42.703125 18.296875 37.09375 7.828125 26.90625 4.625 
C 21.5 3.015625 15.90625 4.03125 12.5 6.734375 
C 12.203125 6.9375 11.59375 7.640625 11.09375 7.546875 
C 10.703125 7.546875 10.296875 6.84375 10.09375 6.53125 
C 9.203125 5.421875 8.296875 4.328125 7.5 3.21875 
C 9.296875 1.796875 11.09375 0.484375 13.296875 -0.3125 
C 15.90625 -1.328125 20.5 -1.828125 23.59375 -1.234375 
C 29 -0.421875 34 2.515625 38.09375 6.03125 
C 47.5 14.375 53.09375 26.21875 54.59375 41.390625 
C 55.09375 45.90625 55.203125 50.515625 54.09375 55.046875 
C 53.203125 58.953125 51.703125 61.46875 48.90625 63.984375 
C 43.796875 68 36.296875 68 30.703125 65.453125 
C 25.40625 62.921875 19.90625 57.65625 17.203125 53.078125 
C 14.59375 48.609375 12.703125 41.40625 13.09375 34.90625 
C 13.5 30.8125 15.5 26.21875 18 23.703125 
C 20.296875 21.515625 23.09375 21 26.09375 21 
C 32.09375 21 38.203125 23.9375 42.5 28.171875 
C 43.90625 29.59375 45.59375 31.109375 46.5 33.03125 
M 43.90625 61.03125 
C 48.59375 58.484375 49.40625 52.515625 48.90625 47.640625 
C 48.703125 44.90625 48.5 42.171875 47.59375 39.53125 
C 45.796875 34.46875 42.09375 30 37.40625 27.578125 
C 32.40625 25.03125 24.59375 25.03125 21.5 29.765625 
C 18.90625 33.484375 19.296875 38 20.09375 42.234375 
C 20.796875 45.546875 21.5 48.96875 23 52.078125 
C 25 56.109375 28.59375 59.734375 32.90625 61.234375 
C 36.5 62.4375 40.59375 62.4375 43.90625 61.03125 
" id="Computer_Modern_Bright_Slanted-57"/>
     </defs>
     <g style="fill:#262626;" transform="translate(106.828355 48.724611)scale(0.14 -0.14)">
      <use transform="scale(0.996264)" xlink:href="#Computer_Modern_Bright_Slanted-104"/>
      <use transform="translate(48.152497 0)scale(0.996264)" xlink:href="#Computer_Modern_Bright_Slanted-105"/>
      <use transform="translate(67.247456 0)scale(0.996264)" xlink:href="#Computer_Modern_Bright_Slanted-102"/>
      <use transform="translate(97.5504 0)scale(0.996264)" xlink:href="#Computer_Modern_Bright_Slanted-45"/>
      <use transform="translate(130.759074 0)scale(0.996264)" xlink:href="#Computer_Modern_Bright_Slanted-49"/>
      <use transform="translate(223.843844 0)scale(0.996264)" xlink:href="#Computer_Modern_Bright_Math_Slanted-62"/>
      <use transform="translate(332.796523 0)scale(0.996264)" xlink:href="#Computer_Modern_Bright_Slanted-101"/>
      <use transform="translate(377.628191 0)scale(0.996264)" xlink:href="#Computer_Modern_Bright_Slanted-103"/>
      <use transform="translate(425.780688 0)scale(0.996264)" xlink:href="#Computer_Modern_Bright_Slanted-108"/>
      <use transform="translate(444.875646 0)scale(0.996264)" xlink:href="#Computer_Modern_Bright_Slanted-45"/>
      <use transform="translate(478.08432 0)scale(0.996264)" xlink:href="#Computer_Modern_Bright_Slanted-57"/>
     </g>
    </g>
    <g id="line2d_24">
     <path d="M 67.628355 62.949222 
L 95.628355 62.949222 
" style="fill:none;stroke:#33a02c;stroke-linecap:round;stroke-width:2;"/>
    </g>
    <g id="line2d_25"/>
    <g id="text_18">
     <!-- actual -->
     <g style="fill:#262626;" transform="translate(106.828355 67.849222)scale(0.14 -0.14)">
      <use transform="scale(0.996264)" xlink:href="#Computer_Modern_Bright-97"/>
      <use transform="translate(46.492082 0)scale(0.996264)" xlink:href="#Computer_Modern_Bright-99"/>
      <use transform="translate(91.32375 0)scale(0.996264)" xlink:href="#Computer_Modern_Bright-116"/>
      <use transform="translate(127.438138 0)scale(0.996264)" xlink:href="#Computer_Modern_Bright-117"/>
      <use transform="translate(175.590635 0)scale(0.996264)" xlink:href="#Computer_Modern_Bright-97"/>
      <use transform="translate(222.082717 0)scale(0.996264)" xlink:href="#Computer_Modern_Bright-108"/>
     </g>
    </g>
    <g id="line2d_26">
     <path d="M 67.628355 82.073833 
L 95.628355 82.073833 
" style="fill:none;stroke:#ff7f00;stroke-linecap:round;stroke-width:2;"/>
    </g>
    <g id="line2d_27"/>
    <g id="text_19">
     <!-- Additive -->
     <defs>
      <path d="M 2.09375 0.09375 
L 6.59375 0.09375 
L 8.40625 0.296875 
C 11.40625 6.796875 13.5 14.203125 16.203125 21 
C 26.09375 21 36.90625 21 46.296875 21 
L 47.09375 19.6875 
C 48.796875 14.546875 50.796875 9.59375 52.59375 4.546875 
C 53.09375 3.015625 53.59375 1.515625 54.40625 0.296875 
C 56.59375 0 59.203125 0 61.59375 0 
C 59.90625 4.90625 36.703125 67.203125 36 68.890625 
C 35.90625 69.296875 35.703125 69.890625 35.203125 70 
C 34.59375 70.09375 34 70 33.40625 70 
L 30.09375 70 
C 28.59375 70 28 70.1875 27.59375 68.609375 
C 27.203125 67.59375 2.09375 0.09375 2.09375 0.09375 
M 31.40625 63.171875 
C 35.59375 50.71875 40.09375 38.46875 44.5 26.21875 
L 18.203125 26.21875 
L 26.90625 50.109375 
z
" id="Computer_Modern_Bright-65"/>
     </defs>
     <g style="fill:#262626;" transform="translate(106.828355 86.973833)scale(0.14 -0.14)">
      <use transform="scale(0.996264)" xlink:href="#Computer_Modern_Bright-65"/>
      <use transform="translate(63.511618 0)scale(0.996264)" xlink:href="#Computer_Modern_Bright-100"/>
      <use transform="translate(111.664115 0)scale(0.996264)" xlink:href="#Computer_Modern_Bright-100"/>
      <use transform="translate(159.816612 0)scale(0.996264)" xlink:href="#Computer_Modern_Bright-105"/>
      <use transform="translate(178.911571 0)scale(0.996264)" xlink:href="#Computer_Modern_Bright-116"/>
      <use transform="translate(215.025959 0)scale(0.996264)" xlink:href="#Computer_Modern_Bright-105"/>
      <use transform="translate(234.120917 0)scale(0.996264)" xlink:href="#Computer_Modern_Bright-118"/>
      <use transform="translate(276.461955 0)scale(0.996264)" xlink:href="#Computer_Modern_Bright-101"/>
     </g>
    </g>
    <g id="line2d_28">
     <path d="M 67.628355 101.198444 
L 95.628355 101.198444 
" style="fill:none;stroke:#0000ff;stroke-linecap:round;stroke-width:2;"/>
    </g>
    <g id="line2d_29"/>
    <g id="text_20">
     <!-- \emph{egl-9} $&gt;$ \emph{hif-1} -->
     <g style="fill:#262626;" transform="translate(106.828355 106.098444)scale(0.14 -0.14)">
      <use transform="scale(0.996264)" xlink:href="#Computer_Modern_Bright_Slanted-101"/>
      <use transform="translate(44.831668 0)scale(0.996264)" xlink:href="#Computer_Modern_Bright_Slanted-103"/>
      <use transform="translate(92.984165 0)scale(0.996264)" xlink:href="#Computer_Modern_Bright_Slanted-108"/>
      <use transform="translate(112.079123 0)scale(0.996264)" xlink:href="#Computer_Modern_Bright_Slanted-45"/>
      <use transform="translate(145.287797 0)scale(0.996264)" xlink:href="#Computer_Modern_Bright_Slanted-57"/>
      <use transform="translate(238.372567 0)scale(0.996264)" xlink:href="#Computer_Modern_Bright_Math_Slanted-62"/>
      <use transform="translate(347.325246 0)scale(0.996264)" xlink:href="#Computer_Modern_Bright_Slanted-104"/>
      <use transform="translate(395.477743 0)scale(0.996264)" xlink:href="#Computer_Modern_Bright_Slanted-105"/>
      <use transform="translate(414.572702 0)scale(0.996264)" xlink:href="#Computer_Modern_Bright_Slanted-102"/>
      <use transform="translate(444.875646 0)scale(0.996264)" xlink:href="#Computer_Modern_Bright_Slanted-45"/>
      <use transform="translate(478.08432 0)scale(0.996264)" xlink:href="#Computer_Modern_Bright_Slanted-49"/>
     </g>
    </g>
   </g>
  </g>
 </g>
 <defs>
  <clipPath id="p7e4cb4eff2">
   <rect height="298.98" width="446.4" x="55.028355" y="7.2"/>
  </clipPath>
 </defs>
</svg>
