<?xml version="1.0" encoding="utf-8" standalone="no"?>
<!DOCTYPE svg PUBLIC "-//W3C//DTD SVG 1.1//EN"
  "http://www.w3.org/Graphics/SVG/1.1/DTD/svg11.dtd">
<!-- Created with matplotlib (http://matplotlib.org/) -->
<svg height="353pt" version="1.1" viewBox="0 0 508 353" width="508pt" xmlns="http://www.w3.org/2000/svg" xmlns:xlink="http://www.w3.org/1999/xlink">
 <defs>
  <style type="text/css">
*{stroke-linecap:butt;stroke-linejoin:round;}
  </style>
 </defs>
 <g id="figure_1">
  <g id="patch_1">
   <path d="M 0 353.548374 
L 508.628355 353.548374 
L 508.628355 0 
L 0 0 
z
" style="fill:#ffffff;"/>
  </g>
  <g id="axes_1">
   <g id="patch_2">
    <path d="M 55.028355 306.18 
L 501.428355 306.18 
L 501.428355 7.2 
L 55.028355 7.2 
z
" style="fill:#eaeaf2;"/>
   </g>
   <g id="matplotlib.axis_1">
    <g id="xtick_1">
     <g id="line2d_1"/>
     <g id="text_1">
      <!-- $-1.4$ -->
      <defs>
       <path d="M 9.796875 28.078125 
C 8 27.484375 7.796875 24.78125 9.796875 24.28125 
C 10.296875 24.078125 10.90625 24.1875 11.5 24.1875 
L 64.703125 24.1875 
C 65.90625 24.1875 67.796875 23.78125 68.796875 24.78125 
C 69.90625 25.875 69.296875 27.875 67.703125 28.1875 
C 66.5 28.375 65.09375 28.1875 63.90625 28.1875 
L 11.40625 28.1875 
C 10.90625 28.1875 10.296875 28.28125 9.796875 28.078125 
" id="Computer_Modern_Bright_Math_Symbols-0"/>
       <path d="M 9.703125 60.015625 
L 9.703125 55 
C 15.203125 55 19 56 23.40625 57.90625 
L 23.40625 5.015625 
L 10.296875 5.015625 
L 10.296875 0 
L 43 0 
L 43 5.015625 
L 29.90625 5.015625 
L 29.90625 67 
C 27.5 67 27.90625 66.359375 26 64.875 
C 21.90625 61.71875 16.203125 60.015625 9.703125 60.015625 
" id="Computer_Modern_Bright-49"/>
       <path d="M 10.703125 7.8125 
L 10.703125 0 
L 18.5 0 
L 18.5 7.8125 
z
" id="Computer_Modern_Bright_Math_Slanted-58"/>
       <path d="M 2.09375 18 
L 31 18 
L 31 0 
L 37.296875 0 
L 37.296875 18 
L 48.703125 18 
L 48.703125 23.328125 
L 37.296875 23.328125 
L 37.296875 66.46875 
L 31.90625 66.46875 
C 30.09375 66.46875 29.59375 66.578125 28.796875 65.0625 
C 24.796875 58.515625 3.703125 25.765625 3 24.859375 
C 2.203125 23.4375 2.09375 23.546875 2.09375 21.4375 
z
M 31.296875 60.875 
L 31.296875 23.328125 
L 8.59375 23.328125 
C 9.296875 24.734375 10.296875 26.03125 11.203125 27.4375 
C 16.203125 35.171875 28.09375 53.546875 30.59375 59.28125 
C 30.90625 59.78125 31 60.375 31.296875 60.875 
" id="Computer_Modern_Bright-52"/>
      </defs>
      <g style="fill:#262626;" transform="translate(42.690187 324.249603)scale(0.16 -0.16)">
       <use transform="scale(0.996264)" xlink:href="#Computer_Modern_Bright_Math_Symbols-0"/>
       <use transform="translate(77.487468 0)scale(0.996264)" xlink:href="#Computer_Modern_Bright-49"/>
       <use transform="translate(128.130685 0)scale(0.996264)" xlink:href="#Computer_Modern_Bright_Math_Slanted-58"/>
       <use transform="translate(157.188132 0)scale(0.996264)" xlink:href="#Computer_Modern_Bright-52"/>
      </g>
     </g>
    </g>
    <g id="xtick_2">
     <g id="line2d_2"/>
     <g id="text_2">
      <!-- $-1.2$ -->
      <defs>
       <path d="M 7.296875 45.96875 
C 8.703125 51.59375 11.09375 57.984375 16.796875 60.5 
C 19.203125 61.5 21.796875 61.703125 24.40625 61.5 
C 29.296875 61.09375 34.09375 59.09375 37.09375 55.09375 
C 39.296875 52.078125 40.09375 48.375 39.703125 44.78125 
C 38.5 34.34375 28.296875 26.84375 21.703125 21.234375 
C 17.90625 18.03125 7.09375 7.8125 7.09375 7.8125 
L 5.40625 6.203125 
C 4.5 5.3125 4.40625 5.3125 4.40625 3.5 
L 4.40625 0 
L 46.40625 0 
L 46.40625 5.625 
L 10.203125 5.625 
C 13.40625 8.734375 26.703125 20.515625 28.5 21.921875 
C 34.296875 26.65625 40.796875 31.375 44.296875 38.21875 
C 48.203125 46.0625 46.5 55.9375 39.90625 61.765625 
C 35.90625 65.296875 30.40625 67 25.09375 67 
C 20.203125 67 15.203125 66 11.296875 62.90625 
C 8.296875 60.390625 5.796875 56.6875 4.40625 52.875 
C 4.09375 52.28125 3.59375 51.28125 3.703125 50.578125 
C 3.796875 49.984375 4.40625 49.484375 4.703125 49.078125 
C 5.5 48.078125 6.296875 46.875 7.296875 45.96875 
" id="Computer_Modern_Bright-50"/>
      </defs>
      <g style="fill:#262626;" transform="translate(99.887097 324.249603)scale(0.16 -0.16)">
       <use transform="scale(0.996264)" xlink:href="#Computer_Modern_Bright_Math_Symbols-0"/>
       <use transform="translate(77.487468 0)scale(0.996264)" xlink:href="#Computer_Modern_Bright-49"/>
       <use transform="translate(128.130685 0)scale(0.996264)" xlink:href="#Computer_Modern_Bright_Math_Slanted-58"/>
       <use transform="translate(157.188132 0)scale(0.996264)" xlink:href="#Computer_Modern_Bright-50"/>
      </g>
     </g>
    </g>
    <g id="xtick_3">
     <g id="line2d_3"/>
     <g id="text_3">
      <!-- $-1.0$ -->
      <defs>
       <path d="M 14.796875 63.859375 
C 11.90625 61.859375 9.90625 59.140625 8.40625 56.03125 
C 4.796875 49 4.40625 40.765625 4.40625 31.828125 
C 4.40625 20.578125 6.40625 10.25 12 4.3125 
C 17.296875 -1.203125 25.703125 -2.609375 32.796875 0.296875 
C 37.203125 2.015625 40.40625 5.71875 42.40625 9.734375 
C 46 16.875 46.40625 25.40625 46.40625 34.234375 
C 46.40625 37.046875 46.296875 39.859375 46 42.671875 
C 45.296875 49.40625 43 56.828125 39.296875 60.953125 
C 33.203125 67.6875 22.296875 69.1875 14.796875 63.859375 
M 34.90625 58.140625 
C 39.59375 53.125 40 43.484375 40 34.34375 
L 40 28.921875 
C 40 24.296875 39.203125 18.28125 38.203125 14.859375 
C 36.796875 10.140625 34.5 6.734375 29.90625 4.625 
C 24.296875 2.609375 18.5 4.515625 15.296875 8.9375 
C 11 14.65625 10.796875 24.796875 10.796875 33.734375 
C 10.796875 42.171875 10.90625 51.515625 15 57.03125 
C 19.5 63.0625 29.203125 64.0625 34.90625 58.140625 
" id="Computer_Modern_Bright-48"/>
      </defs>
      <g style="fill:#262626;" transform="translate(157.084008 324.249603)scale(0.16 -0.16)">
       <use transform="scale(0.996264)" xlink:href="#Computer_Modern_Bright_Math_Symbols-0"/>
       <use transform="translate(77.487468 0)scale(0.996264)" xlink:href="#Computer_Modern_Bright-49"/>
       <use transform="translate(128.130685 0)scale(0.996264)" xlink:href="#Computer_Modern_Bright_Math_Slanted-58"/>
       <use transform="translate(157.188132 0)scale(0.996264)" xlink:href="#Computer_Modern_Bright-48"/>
      </g>
     </g>
    </g>
    <g id="xtick_4">
     <g id="line2d_4"/>
     <g id="text_4">
      <!-- $-0.8$ -->
      <defs>
       <path d="M 18.703125 36 
L 18.703125 35.90625 
C 12.5 34.09375 7.296875 30.6875 4.796875 24.84375 
C 2.203125 18.71875 4 11.28125 8.40625 6.453125 
C 13.09375 1.421875 19.5 -1 26.296875 -1 
C 36.296875 -1 45.90625 6.40625 47.09375 16.734375 
C 47.296875 18.265625 47.203125 19.890625 47 21.40625 
C 45.203125 29.21875 39.5 33.875 32.09375 35.90625 
C 32.90625 36.203125 33.796875 36.40625 34.59375 36.703125 
C 38.796875 38.421875 42.296875 40.921875 44.5 44.9375 
C 47.796875 51.375 44.59375 58.90625 39.203125 63.015625 
C 33.796875 67.140625 26.5 68.234375 19.90625 66.828125 
C 12 65.125 4.5 58.40625 5 49.765625 
C 5.203125 46.75 6.5 44.234375 8 42.4375 
C 10.296875 39.625 14.796875 36.609375 18.703125 36 
M 23.796875 62.5 
C 28.203125 62.5 33.703125 62 36.90625 58.578125 
C 40.703125 54.46875 40.90625 47.03125 37.09375 42.8125 
C 34.703125 40.203125 31.203125 38.890625 27.703125 38.59375 
C 22.796875 38.1875 17.203125 39 13.703125 42.8125 
C 9.796875 47.125 10.09375 54.96875 14.296875 58.984375 
C 16.90625 61.390625 20.40625 62.1875 23.796875 62.5 
M 23.703125 33.5 
C 28.40625 33.5 33.5 32.390625 36.90625 28.9375 
C 38.203125 27.53125 39.203125 25.8125 39.796875 24.015625 
C 41.5 18.75 40.703125 12.09375 36.796875 8.046875 
C 34.09375 5.328125 30.40625 4.3125 26.703125 4.015625 
C 22.203125 4.015625 17 5.109375 13.796875 8.5625 
C 9.40625 13.390625 8.5 23.40625 13.703125 29.0625 
C 16.296875 31.78125 20 33.203125 23.703125 33.5 
" id="Computer_Modern_Bright-56"/>
      </defs>
      <g style="fill:#262626;" transform="translate(214.280919 324.249603)scale(0.16 -0.16)">
       <use transform="scale(0.996264)" xlink:href="#Computer_Modern_Bright_Math_Symbols-0"/>
       <use transform="translate(77.487468 0)scale(0.996264)" xlink:href="#Computer_Modern_Bright-48"/>
       <use transform="translate(128.130685 0)scale(0.996264)" xlink:href="#Computer_Modern_Bright_Math_Slanted-58"/>
       <use transform="translate(157.188132 0)scale(0.996264)" xlink:href="#Computer_Modern_Bright-56"/>
      </g>
     </g>
    </g>
    <g id="xtick_5">
     <g id="line2d_5"/>
     <g id="text_5">
      <!-- $-0.6$ -->
      <defs>
       <path d="M 11.296875 32.625 
L 11.203125 32.625 
C 11.203125 41.765625 12.796875 52.421875 20.59375 58.25 
C 24.90625 61.375 30.703125 62.96875 38.203125 61.171875 
C 39.796875 60.765625 41.296875 60.15625 42.796875 59.765625 
L 42.796875 63.28125 
C 42.796875 63.671875 42.90625 64.375 42.59375 64.78125 
C 41.90625 65.6875 36.296875 66.59375 36.09375 66.59375 
C 27.40625 67.59375 21.703125 65.6875 16.40625 61.171875 
C 10 55.640625 6.296875 47.515625 5.09375 39.28125 
C 4 32.65625 4.90625 22 6.203125 16.78125 
C 8.296875 9.046875 12.296875 2.21875 19.703125 -0.390625 
C 24.09375 -2 29.5 -2 33.703125 0.015625 
C 37.09375 1.640625 39.90625 4.46875 42.09375 7.5 
C 45.59375 12.34375 46.5 18.21875 46.09375 24.171875 
C 45.90625 27.109375 45.5 30.046875 44.296875 32.765625 
C 42.40625 37.125 39.203125 41.671875 35.09375 43.6875 
C 33.203125 44.5 31.203125 44.5 29.203125 44.5 
C 23.90625 44.5 18.90625 42.1875 15.203125 38.359375 
C 13.59375 36.75 12 34.71875 11.296875 32.625 
M 24.40625 39.515625 
C 28.203125 39.8125 32.203125 39.21875 35.09375 36.5 
C 38.90625 32.890625 39.59375 27.765625 39.59375 22.8125 
C 39.59375 19.46875 39.703125 16.015625 38.703125 12.859375 
C 38.09375 11.234375 37.296875 9.828125 36.40625 8.5 
C 34.203125 5.5625 31.40625 4.125 26.796875 3.515625 
C 22.296875 3.515625 17.796875 5.3125 15.203125 9.125 
C 13.59375 11.328125 12.796875 14.046875 12.296875 16.640625 
C 11.703125 19.34375 11.296875 22.140625 11.5 24.859375 
C 12 31.984375 17 38.515625 24.40625 39.515625 
" id="Computer_Modern_Bright-54"/>
      </defs>
      <g style="fill:#262626;" transform="translate(271.47783 324.249603)scale(0.16 -0.16)">
       <use transform="scale(0.996264)" xlink:href="#Computer_Modern_Bright_Math_Symbols-0"/>
       <use transform="translate(77.487468 0)scale(0.996264)" xlink:href="#Computer_Modern_Bright-48"/>
       <use transform="translate(128.130685 0)scale(0.996264)" xlink:href="#Computer_Modern_Bright_Math_Slanted-58"/>
       <use transform="translate(157.188132 0)scale(0.996264)" xlink:href="#Computer_Modern_Bright-54"/>
      </g>
     </g>
    </g>
    <g id="xtick_6">
     <g id="line2d_6"/>
     <g id="text_6">
      <!-- $-0.4$ -->
      <g style="fill:#262626;" transform="translate(328.674741 324.249603)scale(0.16 -0.16)">
       <use transform="scale(0.996264)" xlink:href="#Computer_Modern_Bright_Math_Symbols-0"/>
       <use transform="translate(77.487468 0)scale(0.996264)" xlink:href="#Computer_Modern_Bright-48"/>
       <use transform="translate(128.130685 0)scale(0.996264)" xlink:href="#Computer_Modern_Bright_Math_Slanted-58"/>
       <use transform="translate(157.188132 0)scale(0.996264)" xlink:href="#Computer_Modern_Bright-52"/>
      </g>
     </g>
    </g>
    <g id="xtick_7">
     <g id="line2d_7"/>
     <g id="text_7">
      <!-- $-0.2$ -->
      <g style="fill:#262626;" transform="translate(385.871652 324.249603)scale(0.16 -0.16)">
       <use transform="scale(0.996264)" xlink:href="#Computer_Modern_Bright_Math_Symbols-0"/>
       <use transform="translate(77.487468 0)scale(0.996264)" xlink:href="#Computer_Modern_Bright-48"/>
       <use transform="translate(128.130685 0)scale(0.996264)" xlink:href="#Computer_Modern_Bright_Math_Slanted-58"/>
       <use transform="translate(157.188132 0)scale(0.996264)" xlink:href="#Computer_Modern_Bright-50"/>
      </g>
     </g>
    </g>
    <g id="xtick_8">
     <g id="line2d_8"/>
     <g id="text_8">
      <!-- $0.0$ -->
      <g style="fill:#262626;" transform="translate(449.267561 324.249603)scale(0.16 -0.16)">
       <use transform="scale(0.996264)" xlink:href="#Computer_Modern_Bright-48"/>
       <use transform="translate(50.643218 0)scale(0.996264)" xlink:href="#Computer_Modern_Bright_Math_Slanted-58"/>
       <use transform="translate(79.700665 0)scale(0.996264)" xlink:href="#Computer_Modern_Bright-48"/>
      </g>
     </g>
    </g>
    <g id="text_9">
     <!-- Epistasis Coefficient -->
     <defs>
      <path d="M 8 69.328125 
L 8 0 
L 55.40625 0 
L 55.40625 5.625 
L 15 5.625 
L 15 33.671875 
L 51.09375 33.671875 
L 51.09375 39 
L 15 39 
L 15 64 
L 54 64 
L 54 69.328125 
z
" id="Computer_Modern_Bright-69"/>
      <path d="M 12.703125 40.53125 
L 12.703125 47.15625 
L 6.40625 47.15625 
L 6.40625 -17 
L 12.796875 -17 
L 12.796875 6.09375 
C 14.203125 4.078125 15.796875 2.28125 17.90625 1.078125 
C 25 -3.25 34 0.171875 38.90625 6.59375 
C 45.40625 14.96875 46.09375 27.5 41.59375 36.984375 
C 39 42.4375 34.09375 47.5 27.796875 48 
C 22.296875 48 18.09375 45.8125 15.09375 43.125 
C 14.203125 42.328125 13.5 41.4375 12.703125 40.53125 
M 21.90625 42.875 
C 26 43.171875 30 41.265625 32.796875 38.265625 
C 34.5 36.34375 35.796875 34.140625 36.59375 31.734375 
C 40.09375 22.296875 36.90625 9.234375 26.796875 5.328125 
C 21 3.109375 15.296875 5.125 13.09375 10.546875 
C 12.59375 11.546875 12.796875 12.859375 12.796875 13.953125 
L 12.796875 34.640625 
C 12.796875 36.953125 13 37.15625 14.5 38.859375 
C 16.296875 41.0625 19 42.578125 21.90625 42.875 
" id="Computer_Modern_Bright-112"/>
      <path d="M 6.40625 70 
L 6.40625 63.671875 
L 12.703125 63.671875 
L 12.703125 70 
z
M 6.40625 47.390625 
L 6.40625 0 
L 12.703125 0 
L 12.703125 47.390625 
z
" id="Computer_Modern_Bright-105"/>
      <path d="M 3.09375 9.640625 
C 2.90625 8.234375 2.59375 6.9375 2.40625 5.53125 
C 2.203125 4.421875 1.90625 3.921875 2.90625 3.421875 
C 7 1.015625 11.90625 -0.296875 17.703125 -0.796875 
C 24.203125 -1.40625 32.40625 0.109375 35.59375 6.53125 
C 36.5 8.34375 37 10.34375 37.09375 12.359375 
C 37.5 19.578125 31.796875 24.203125 26.90625 25.90625 
C 21.40625 28.015625 13.90625 27.3125 10.09375 31.53125 
C 8.09375 33.84375 8 37.265625 9.90625 39.671875 
C 13.90625 45.296875 26.796875 42.875 31.90625 40.375 
C 32.703125 39.96875 33.40625 39.46875 34.296875 39.265625 
L 35.203125 44.6875 
C 30.5 46.796875 26.40625 48 19.90625 48 
C 14.296875 48 9.203125 46.703125 6 43.484375 
C 2.796875 40.171875 1.703125 34.640625 3.59375 30.4375 
C 5.40625 26.40625 9.203125 23.796875 13.296875 22.5 
C 19.203125 20.390625 25.90625 21.390625 29.796875 16.578125 
C 32 13.765625 31.59375 9.546875 29.09375 7.03125 
C 24.296875 2.609375 14.09375 4.21875 8.5 6.625 
C 6.59375 7.4375 4.90625 8.640625 3.09375 9.640625 
" id="Computer_Modern_Bright-115"/>
      <path d="M 10.796875 60.5 
L 10.796875 47.015625 
L 1.09375 47.015625 
L 1.09375 42 
L 10.703125 42 
L 10.703125 15.015625 
C 10.703125 10.578125 10.40625 5.234375 13.296875 1.515625 
C 15 -0.703125 17.296875 -1.296875 20.796875 -1 
C 23.703125 -1 26.59375 -0.390625 29.296875 0.65625 
C 30.203125 1.0625 33.5 2.515625 33.90625 3.234375 
C 34.09375 3.640625 32.796875 8.09375 32.796875 8.09375 
L 30.40625 6.265625 
C 27.296875 4.34375 21.09375 2.328125 18.5 5.96875 
C 16.203125 9.09375 16.796875 13.75 16.796875 17.375 
L 16.796875 42 
L 32.296875 42 
L 32.296875 47.015625 
L 16.796875 47.015625 
L 16.796875 60.5 
z
" id="Computer_Modern_Bright-116"/>
      <path d="M 7.90625 39.015625 
C 9.59375 39.859375 11 41.09375 12.703125 41.921875 
C 15.40625 43.15625 18.203125 44 21.203125 44 
C 22.59375 44.09375 24.203125 44.296875 25.59375 44 
C 28.09375 43.59375 30.296875 42.078125 31.796875 39.953125 
C 33.296875 37.515625 33.90625 35.390625 33.90625 31.46875 
L 33.90625 27.015625 
C 29.09375 27.015625 24.296875 26.609375 19.703125 25.390625 
C 13.90625 24.078125 7.59375 21.125 5.5 15.84375 
C 3.40625 10.78125 5.59375 4.078125 10.09375 1.03125 
C 12.296875 -0.5 14.90625 -0.5 17.5 -0.296875 
C 21.703125 0 25.90625 1.015625 29.5 3.25 
C 31.203125 4.25 32.90625 5.578125 33.90625 7.296875 
L 34 7.296875 
L 34 0.203125 
L 40.296875 0.203125 
L 40.296875 26.890625 
C 40.296875 29.8125 40.59375 32.953125 40 35.890625 
C 39.40625 39.921875 36.90625 43.265625 34 45.59375 
C 30.59375 48.21875 26.703125 49.109375 21.5 48.71875 
C 16.703125 48.71875 13 47.5 9.40625 45.765625 
C 8.90625 45.5625 7.90625 45.234375 7.59375 44.640625 
C 7.296875 44.21875 7.5 43.515625 7.5 43 
C 7.703125 41.671875 7.796875 40.34375 7.90625 39.015625 
M 33.90625 24 
L 33.90625 16.375 
C 33.90625 14.0625 34 11.953125 32.703125 9.953125 
C 31.59375 8.34375 30.09375 7.234375 28.5 6.4375 
C 22.796875 3.515625 14.09375 4.421875 11.59375 9.25 
C 9.59375 12.75 11.703125 16.875 14.59375 19.1875 
C 18.90625 22.5 27.296875 24 33.90625 24 
" id="Computer_Modern_Bright-97"/>
      <path d="M 60.5 10.875 
C 58.5 9.859375 56.703125 8.453125 54.703125 7.453125 
C 50 5.046875 44 4.140625 37.5 4.734375 
C 31.703125 5.546875 26.90625 8.359375 23.40625 11.875 
C 12.203125 23.15625 11.40625 42.96875 21.296875 55.34375 
C 25.5 60.875 31.90625 65 41.296875 65 
C 45.09375 65 49 64.296875 52.5 62.890625 
C 54.59375 61.96875 56.59375 60.765625 58.59375 59.765625 
L 59.796875 66.8125 
C 57.59375 67.671875 55.296875 68.5625 53 69.09375 
C 47.40625 70.625 38.90625 70.625 33.09375 69.21875 
C 22.90625 66.921875 15.5 59.828125 11.296875 51.625 
C 5.5 40.015625 6.203125 25.515625 13.203125 14.59375 
C 15 11.703125 17.296875 9.109375 19.90625 6.890625 
C 25.90625 1.6875 33.296875 -1.3125 43.59375 -0.5 
C 49.796875 -0.5 53.40625 0.515625 58.203125 3.203125 
C 58.703125 3.5 60.59375 4.515625 60.90625 4.9375 
C 61.09375 5.4375 60.59375 9.53125 60.5 10.875 
" id="Computer_Modern_Bright-67"/>
      <path d="M 10.703125 42.078125 
C 1.796875 33.234375 0.796875 17.875 8.5 7.9375 
C 9.59375 6.421875 10.90625 5.125 12.40625 4.015625 
C 16.09375 1 21.5 -1.203125 27.796875 -0.5 
C 37.796875 0.703125 44.703125 8.84375 46.796875 17.375 
C 49.59375 29.328125 43.703125 42.671875 32.703125 46.890625 
C 24.09375 50.40625 15.5 46.890625 10.703125 42.078125 
M 35.703125 39.359375 
C 40.5 35.03125 41.40625 28.109375 41 21.984375 
C 40.703125 17.265625 39.40625 12.34375 36.09375 8.828125 
C 30.703125 3 20.703125 3 14.90625 8.625 
C 11.90625 11.84375 10.09375 16.453125 9.796875 21.984375 
C 9.296875 30.109375 11.296875 38.75 19.296875 41.96875 
C 25.203125 44.578125 32 42.671875 35.703125 39.359375 
" id="Computer_Modern_Bright-111"/>
      <path d="M 41.796875 10.9375 
C 39.5 9.234375 38.796875 8.328125 35.90625 6.8125 
C 29.796875 3.5 22.59375 3.5 17.40625 7.171875 
C 12.40625 10.765625 9.5 16.640625 9.5 25 
L 42.5 25 
C 42.5 32.421875 40.796875 38.859375 36.59375 43.375 
C 32 47.890625 24.796875 49.296875 18.703125 47.390625 
C 16.40625 46.6875 14.296875 45.484375 12.40625 43.96875 
C 6.09375 38.859375 3.40625 30.71875 3.5 22.78125 
C 3.703125 12.34375 10.796875 1.90625 21.296875 -0.3125 
C 26.796875 -1.421875 32.59375 -0.203125 37.5 2.296875 
C 38.40625 2.796875 41.703125 4.609375 42.09375 5.515625 
C 42.40625 6.015625 41.796875 10.9375 41.796875 10.9375 
M 37.203125 28.90625 
L 10 28.90625 
C 11.203125 36.234375 17.203125 43.96875 25.296875 43.0625 
C 31.90625 42.46875 35.40625 37.75 36.703125 31.828125 
C 36.90625 30.8125 37 29.921875 37.203125 28.90625 
" id="Computer_Modern_Bright-101"/>
      <path d="M 10.59375 47.015625 
L 2 47.015625 
L 2 42 
L 10.59375 42 
L 10.59375 0 
L 16.90625 0 
L 16.90625 42 
L 30.09375 42 
L 30.09375 47.015625 
L 16.796875 47.015625 
L 16.796875 56.234375 
C 16.796875 57.890625 16.59375 59.65625 17.296875 61.21875 
C 19.5 65.875 25.40625 65.875 29.59375 65.078125 
C 30.59375 64.875 31.703125 64.46875 32.703125 64.265625 
L 32.703125 69.90625 
C 27.703125 70.609375 22.296875 71.21875 17.703125 68.46875 
C 15.796875 67.4375 14.203125 65.6875 13 63.921875 
C 11.09375 60.9375 10.59375 58.78125 10.59375 53.71875 
z
M 38.09375 0 
L 44.40625 0 
L 44.40625 42 
L 57.59375 42 
L 57.59375 47.015625 
L 44.296875 47.015625 
L 44.296875 55.234375 
C 44.296875 56.890625 44.09375 58.65625 44.40625 60.328125 
C 44.90625 62.296875 46.09375 63.65625 47.703125 64.671875 
C 50.796875 66.171875 54.40625 65.078125 57.59375 64.171875 
L 57.59375 70 
C 55.09375 70.1875 52.703125 70.6875 50.203125 70.5 
C 43.40625 70 38.59375 64.046875 38.09375 57.3125 
C 38 55.890625 38.09375 54.375 38.09375 52.96875 
z
M 65.59375 70 
L 65.59375 63.671875 
L 71.90625 63.671875 
L 71.90625 70 
z
M 65.59375 47.390625 
L 65.59375 0 
L 71.90625 0 
L 71.90625 47.390625 
z
" id="Computer_Modern_Bright-14"/>
      <path d="M 42.40625 11.25 
C 40.5 9.84375 38.796875 8.328125 36.703125 7.125 
C 32 4.625 24.796875 3.421875 19.40625 5.921875 
C 11.59375 9.9375 9.5 19.6875 10.59375 27.71875 
C 10.796875 29.328125 11.09375 30.921875 11.59375 32.4375 
C 13.796875 38.96875 19.296875 44.078125 28.296875 43.078125 
C 33.09375 42.671875 35.5 41.875 39.296875 39.765625 
C 40 39.359375 40.59375 38.859375 41.40625 38.65625 
C 41.5 39.859375 41.796875 41.171875 42 42.375 
C 42.296875 43.984375 42.296875 44.1875 40.796875 44.890625 
C 39.703125 45.390625 38.59375 45.984375 37.40625 46.390625 
C 32.796875 48.40625 25.203125 49 20 47.5 
C 12.90625 45.484375 7.59375 39.359375 5.296875 32.53125 
C 4.203125 29.421875 3.90625 26.109375 3.90625 22.796875 
C 4 12.25 11.203125 1.90625 21.703125 -0.203125 
C 27.5 -1.40625 34.203125 0.296875 38.203125 2.40625 
C 39.203125 2.90625 42.203125 4.71875 42.703125 5.625 
C 43 6.125 42.40625 11.25 42.40625 11.25 
" id="Computer_Modern_Bright-99"/>
      <path d="M 12.59375 37.28125 
L 12.5 37.28125 
L 12.5 47.390625 
L 6.40625 47.390625 
L 6.40625 0 
L 12.796875 0 
L 12.796875 21.9375 
C 12.796875 26.84375 12.5 31.875 14.703125 36.46875 
C 15.796875 38.78125 17.5 40.78125 19.796875 41.984375 
C 21.703125 42.890625 23.703125 42.890625 25.796875 42.6875 
C 28.796875 42.6875 31.703125 41.890625 33.59375 39.375 
C 35.40625 37.0625 35.5 34.0625 35.5 31.25 
L 35.5 0 
L 41.90625 0 
L 41.90625 26.859375 
C 41.90625 31.875 42.40625 37.375 40 41.890625 
C 38.09375 45.5 34.40625 47.203125 30.5 47.703125 
C 28.5 48 26.40625 48 24.40625 47.609375 
C 19.203125 46.5 14.40625 42.296875 12.59375 37.28125 
" id="Computer_Modern_Bright-110"/>
     </defs>
     <g style="fill:#262626;" transform="translate(205.672064 343.359582)scale(0.18 -0.18)">
      <use transform="scale(0.996264)" xlink:href="#Computer_Modern_Bright-69"/>
      <use transform="translate(58.737787 0)scale(0.996264)" xlink:href="#Computer_Modern_Bright-112"/>
      <use transform="translate(106.890284 0)scale(0.996264)" xlink:href="#Computer_Modern_Bright-105"/>
      <use transform="translate(125.985243 0)scale(0.996264)" xlink:href="#Computer_Modern_Bright-115"/>
      <use transform="translate(164.424272 0)scale(0.996264)" xlink:href="#Computer_Modern_Bright-116"/>
      <use transform="translate(200.53866 0)scale(0.996264)" xlink:href="#Computer_Modern_Bright-97"/>
      <use transform="translate(247.030742 0)scale(0.996264)" xlink:href="#Computer_Modern_Bright-115"/>
      <use transform="translate(285.469772 0)scale(0.996264)" xlink:href="#Computer_Modern_Bright-105"/>
      <use transform="translate(304.56473 0)scale(0.996264)" xlink:href="#Computer_Modern_Bright-115"/>
      <use transform="translate(374.468971 0)scale(0.996264)" xlink:href="#Computer_Modern_Bright-67"/>
      <use transform="translate(439.641004 0)scale(0.996264)" xlink:href="#Computer_Modern_Bright-111"/>
      <use transform="translate(490.284222 0)scale(0.996264)" xlink:href="#Computer_Modern_Bright-101"/>
      <use transform="translate(535.115889 0)scale(0.996264)" xlink:href="#Computer_Modern_Bright-14"/>
      <use transform="translate(613.156322 0)scale(0.996264)" xlink:href="#Computer_Modern_Bright-99"/>
      <use transform="translate(657.987989 0)scale(0.996264)" xlink:href="#Computer_Modern_Bright-105"/>
      <use transform="translate(677.082948 0)scale(0.996264)" xlink:href="#Computer_Modern_Bright-101"/>
      <use transform="translate(721.914616 0)scale(0.996264)" xlink:href="#Computer_Modern_Bright-110"/>
      <use transform="translate(770.067113 0)scale(0.996264)" xlink:href="#Computer_Modern_Bright-116"/>
     </g>
    </g>
   </g>
   <g id="matplotlib.axis_2">
    <g id="ytick_1">
     <g id="line2d_9"/>
     <g id="text_10">
      <!-- $0.0$ -->
      <g style="fill:#262626;" transform="translate(26.642062 298.124802)scale(0.16 -0.16)">
       <use transform="scale(0.996264)" xlink:href="#Computer_Modern_Bright-48"/>
       <use transform="translate(50.643218 0)scale(0.996264)" xlink:href="#Computer_Modern_Bright_Math_Slanted-58"/>
       <use transform="translate(79.700665 0)scale(0.996264)" xlink:href="#Computer_Modern_Bright-48"/>
      </g>
     </g>
    </g>
    <g id="ytick_2">
     <g id="line2d_10"/>
     <g id="text_11">
      <!-- $0.2$ -->
      <g style="fill:#262626;" transform="translate(26.642062 243.764787)scale(0.16 -0.16)">
       <use transform="scale(0.996264)" xlink:href="#Computer_Modern_Bright-48"/>
       <use transform="translate(50.643218 0)scale(0.996264)" xlink:href="#Computer_Modern_Bright_Math_Slanted-58"/>
       <use transform="translate(79.700665 0)scale(0.996264)" xlink:href="#Computer_Modern_Bright-50"/>
      </g>
     </g>
    </g>
    <g id="ytick_3">
     <g id="line2d_11"/>
     <g id="text_12">
      <!-- $0.4$ -->
      <g style="fill:#262626;" transform="translate(26.642062 189.404772)scale(0.16 -0.16)">
       <use transform="scale(0.996264)" xlink:href="#Computer_Modern_Bright-48"/>
       <use transform="translate(50.643218 0)scale(0.996264)" xlink:href="#Computer_Modern_Bright_Math_Slanted-58"/>
       <use transform="translate(79.700665 0)scale(0.996264)" xlink:href="#Computer_Modern_Bright-52"/>
      </g>
     </g>
    </g>
    <g id="ytick_4">
     <g id="line2d_12"/>
     <g id="text_13">
      <!-- $0.6$ -->
      <g style="fill:#262626;" transform="translate(26.642062 135.044758)scale(0.16 -0.16)">
       <use transform="scale(0.996264)" xlink:href="#Computer_Modern_Bright-48"/>
       <use transform="translate(50.643218 0)scale(0.996264)" xlink:href="#Computer_Modern_Bright_Math_Slanted-58"/>
       <use transform="translate(79.700665 0)scale(0.996264)" xlink:href="#Computer_Modern_Bright-54"/>
      </g>
     </g>
    </g>
    <g id="ytick_5">
     <g id="line2d_13"/>
     <g id="text_14">
      <!-- $0.8$ -->
      <g style="fill:#262626;" transform="translate(26.642062 80.684743)scale(0.16 -0.16)">
       <use transform="scale(0.996264)" xlink:href="#Computer_Modern_Bright-48"/>
       <use transform="translate(50.643218 0)scale(0.996264)" xlink:href="#Computer_Modern_Bright_Math_Slanted-58"/>
       <use transform="translate(79.700665 0)scale(0.996264)" xlink:href="#Computer_Modern_Bright-56"/>
      </g>
     </g>
    </g>
    <g id="ytick_6">
     <g id="line2d_14"/>
     <g id="text_15">
      <!-- $1.0$ -->
      <g style="fill:#262626;" transform="translate(26.642062 26.324728)scale(0.16 -0.16)">
       <use transform="scale(0.996264)" xlink:href="#Computer_Modern_Bright-49"/>
       <use transform="translate(50.643218 0)scale(0.996264)" xlink:href="#Computer_Modern_Bright_Math_Slanted-58"/>
       <use transform="translate(79.700665 0)scale(0.996264)" xlink:href="#Computer_Modern_Bright-48"/>
      </g>
     </g>
    </g>
    <g id="text_16">
     <!-- Cumulative Density Function -->
     <defs>
      <path d="M 6.40625 47 
L 6.40625 12.96875 
C 6.40625 10.046875 6.5 7.140625 7.703125 4.421875 
C 9.59375 0.515625 13.59375 -1 17.703125 -1 
C 23.203125 -1 28.703125 0.8125 32.703125 4.734375 
C 33.796875 5.828125 34.796875 6.9375 35.5 8.34375 
L 35.59375 8.34375 
L 35.59375 -0.390625 
L 41.90625 -0.390625 
L 41.90625 47 
L 35.5 47 
L 35.5 22.90625 
C 35.5 18.6875 36.09375 14.0625 33.90625 10.25 
C 32.296875 7.4375 29.5 5.234375 26.40625 4.234375 
C 24.296875 3.625 22.09375 3.625 19.90625 3.828125 
C 17.796875 4.03125 15.5 4.234375 14.09375 6.03125 
C 12.09375 8.453125 12.796875 14.171875 12.796875 17.6875 
L 12.796875 47 
z
" id="Computer_Modern_Bright-117"/>
      <path d="M 12.59375 37.359375 
L 12.5 37.359375 
L 12.5 47.390625 
L 6.40625 47.390625 
L 6.40625 0 
L 12.796875 0 
L 12.796875 22.046875 
C 12.796875 26.953125 12.5 31.875 14.703125 36.375 
C 16.59375 40.28125 19.90625 43.390625 25.796875 42.78125 
C 28.796875 42.78125 31.796875 41.984375 33.703125 39.453125 
C 35.5 37.140625 35.59375 34.140625 35.59375 31.3125 
L 35.59375 0 
L 42 0 
L 42 22.046875 
C 42 26.953125 41.703125 31.875 43.90625 36.375 
C 45.796875 40.28125 49.09375 43.390625 55 42.78125 
C 58 42.78125 61 41.984375 62.90625 39.453125 
C 64.703125 37.140625 64.796875 34.140625 64.796875 31.3125 
L 64.796875 0 
L 71.203125 0 
L 71.203125 26.5625 
C 71.203125 31.375 71.796875 36.78125 69.703125 41.1875 
C 67.59375 45.296875 64.203125 47.5 58.703125 47.5 
C 55.5 47.796875 52.296875 47.3125 49.40625 45.84375 
C 45.90625 43.921875 43.296875 40.75 41.703125 37.265625 
C 41 40.578125 40.203125 42.828125 38 45 
C 35.703125 47.0625 32.59375 48 29.59375 48 
C 22.296875 48.59375 17.703125 45.5625 14.59375 41 
C 13.796875 39.875 13 38.671875 12.59375 37.359375 
" id="Computer_Modern_Bright-109"/>
      <path d="M 6.40625 69.6875 
L 6.40625 0 
L 12.703125 0 
L 12.703125 69.6875 
z
" id="Computer_Modern_Bright-108"/>
      <path d="M 0.703125 47.5 
C 1.203125 45.5 4.203125 37.578125 4.40625 37.078125 
C 5.40625 34.28125 17.296875 0.609375 17.59375 0.296875 
C 17.90625 -0.203125 18.796875 0 19.296875 0 
L 22.796875 0 
C 24.09375 0 24.90625 -0.296875 25.203125 0.90625 
C 28.40625 9.328125 40.09375 42.703125 41.796875 47.5 
L 35.59375 47.5 
C 30.796875 33.984375 25.90625 20.4375 21.40625 6.609375 
L 11 36.203125 
C 9.5 39.796875 8.59375 43.890625 6.90625 47.203125 
C 5.09375 47.5 2.796875 47.5 0.703125 47.5 
" id="Computer_Modern_Bright-118"/>
      <path d="M 8 70 
L 8 0 
L 28.203125 0 
C 31.40625 0 34.59375 0 37.703125 0.296875 
C 45.703125 1.109375 52.59375 5.015625 57.203125 9.828125 
C 70.09375 23.171875 70 46.125 57.296875 59.671875 
C 52.703125 64.578125 46.5 68.5 38.703125 69.5 
C 34.90625 70 31 70 27.203125 70 
z
M 14.90625 5.3125 
L 14.90625 64.5625 
L 27.796875 64.5625 
C 30.5 64.5625 33.203125 64.5625 35.90625 64.359375 
C 40.40625 63.859375 44.796875 62.359375 48.5 59.734375 
C 56.59375 54.125 60 44.171875 60 34.640625 
C 60 26.609375 57.796875 18.375 51.90625 12.640625 
C 47.90625 8.9375 42.5 6.21875 36 5.515625 
C 33.40625 5.3125 30.703125 5.3125 28.09375 5.3125 
z
" id="Computer_Modern_Bright-68"/>
      <path d="M 0.703125 47.65625 
C 1.296875 45.75 5.40625 35.609375 5.5 35.3125 
L 17.40625 4.578125 
L 18.40625 2.078125 
C 19 0.671875 19.203125 0.46875 18.59375 -1.140625 
L 17.5 -4.046875 
C 16.59375 -6.46875 15.59375 -8.96875 13.703125 -10.484375 
C 10.296875 -13.296875 4.90625 -11.6875 0.796875 -10.78125 
L 1.296875 -16.5 
C 3.203125 -16.796875 5.09375 -17 7 -17 
C 11.296875 -17.515625 14.09375 -16.5 16.703125 -14.296875 
C 20 -11.484375 21.59375 -7.5625 23.09375 -3.546875 
L 26.203125 5.078125 
L 36.40625 32.90625 
C 38.09375 37.921875 40.203125 42.640625 41.796875 47.65625 
L 37.296875 47.65625 
C 36.796875 47.65625 36 47.859375 35.59375 47.46875 
C 35.40625 47.15625 35.296875 46.765625 35.203125 46.453125 
L 34.40625 44.34375 
C 33.40625 41.734375 32.5 39.234375 31.59375 36.609375 
L 25.796875 20.25 
C 24.296875 15.828125 22.59375 11.3125 21.796875 6.6875 
C 20.703125 11.3125 19.203125 15.734375 17.59375 20.140625 
C 16.296875 23.5625 8.5 44.546875 7.5 46.5625 
C 7.09375 47.65625 6.703125 47.65625 5.203125 47.65625 
z
" id="Computer_Modern_Bright-121"/>
      <path d="M 8 69.328125 
L 8 0 
L 15 0 
L 15 32 
L 48.09375 32 
L 48.09375 37.3125 
L 15 37.3125 
L 15 64 
L 52.40625 64 
L 52.40625 69.328125 
z
" id="Computer_Modern_Bright-70"/>
     </defs>
     <g style="fill:#262626;" transform="translate(19.65327 260.669538)rotate(-90)scale(0.18 -0.18)">
      <use transform="scale(0.996264)" xlink:href="#Computer_Modern_Bright-67"/>
      <use transform="translate(65.172032 0)scale(0.996264)" xlink:href="#Computer_Modern_Bright-117"/>
      <use transform="translate(113.324529 0)scale(0.996264)" xlink:href="#Computer_Modern_Bright-109"/>
      <use transform="translate(190.534656 0)scale(0.996264)" xlink:href="#Computer_Modern_Bright-117"/>
      <use transform="translate(238.687153 0)scale(0.996264)" xlink:href="#Computer_Modern_Bright-108"/>
      <use transform="translate(257.782112 0)scale(0.996264)" xlink:href="#Computer_Modern_Bright-97"/>
      <use transform="translate(304.274194 0)scale(0.996264)" xlink:href="#Computer_Modern_Bright-116"/>
      <use transform="translate(340.388582 0)scale(0.996264)" xlink:href="#Computer_Modern_Bright-105"/>
      <use transform="translate(359.483541 0)scale(0.996264)" xlink:href="#Computer_Modern_Bright-118"/>
      <use transform="translate(401.824579 0)scale(0.996264)" xlink:href="#Computer_Modern_Bright-101"/>
      <use transform="translate(478.121458 0)scale(0.996264)" xlink:href="#Computer_Modern_Bright-68"/>
      <use transform="translate(549.727645 0)scale(0.996264)" xlink:href="#Computer_Modern_Bright-101"/>
      <use transform="translate(594.559312 0)scale(0.996264)" xlink:href="#Computer_Modern_Bright-110"/>
      <use transform="translate(642.711809 0)scale(0.996264)" xlink:href="#Computer_Modern_Bright-115"/>
      <use transform="translate(681.150839 0)scale(0.996264)" xlink:href="#Computer_Modern_Bright-105"/>
      <use transform="translate(700.245798 0)scale(0.996264)" xlink:href="#Computer_Modern_Bright-116"/>
      <use transform="translate(733.454456 0)scale(0.996264)" xlink:href="#Computer_Modern_Bright-121"/>
      <use transform="translate(807.260706 0)scale(0.996264)" xlink:href="#Computer_Modern_Bright-70"/>
      <use transform="translate(860.187034 0)scale(0.996264)" xlink:href="#Computer_Modern_Bright-117"/>
      <use transform="translate(908.339531 0)scale(0.996264)" xlink:href="#Computer_Modern_Bright-110"/>
      <use transform="translate(956.492028 0)scale(0.996264)" xlink:href="#Computer_Modern_Bright-99"/>
      <use transform="translate(1001.323695 0)scale(0.996264)" xlink:href="#Computer_Modern_Bright-116"/>
      <use transform="translate(1037.438083 0)scale(0.996264)" xlink:href="#Computer_Modern_Bright-105"/>
      <use transform="translate(1056.533042 0)scale(0.996264)" xlink:href="#Computer_Modern_Bright-111"/>
      <use transform="translate(1107.17626 0)scale(0.996264)" xlink:href="#Computer_Modern_Bright-110"/>
     </g>
    </g>
   </g>
   <g id="PolyCollection_1">
    <path clip-path="url(#p75d362129f)" d="M 118.716121 292.58992 
L 118.716121 292.59 
L 120.291592 292.59 
L 121.867062 292.59 
L 123.442532 292.59 
L 125.018002 292.59 
L 126.593473 292.59 
L 128.168943 292.59 
L 129.744413 292.59 
L 131.319883 292.59 
L 132.895354 292.59 
L 134.470824 292.59 
L 136.046294 292.59 
L 137.621764 292.59 
L 139.197235 292.59 
L 140.772705 292.59 
L 142.348175 292.59 
L 143.923645 292.59 
L 145.499115 292.59 
L 147.074586 292.59 
L 148.650056 292.59 
L 150.225526 292.59 
L 151.800996 292.59 
L 153.376467 292.59 
L 154.951937 292.59 
L 156.527407 292.59 
L 158.102877 292.59 
L 159.678348 292.59 
L 161.253818 292.59 
L 162.829288 292.59 
L 164.404758 292.59 
L 165.980229 292.59 
L 167.555699 292.59 
L 169.131169 292.59 
L 170.706639 292.59 
L 172.282109 292.59 
L 173.85758 292.59 
L 175.43305 292.59 
L 177.00852 292.59 
L 178.58399 292.59 
L 180.159461 292.59 
L 181.734931 292.59 
L 183.310401 292.59 
L 184.885871 292.59 
L 186.461342 292.59 
L 188.036812 292.59 
L 189.612282 292.59 
L 191.187752 292.59 
L 192.763223 292.59 
L 194.338693 292.59 
L 195.914163 292.59 
L 197.489633 292.59 
L 199.065103 292.59 
L 200.640574 292.59 
L 202.216044 292.59 
L 203.791514 292.59 
L 205.366984 292.59 
L 206.942455 292.59 
L 208.517925 292.59 
L 210.093395 292.59 
L 211.668865 292.59 
L 213.244336 292.59 
L 214.819806 292.59 
L 216.395276 292.59 
L 217.970746 292.59 
L 219.546217 292.59 
L 221.121687 292.59 
L 222.697157 292.59 
L 224.272627 292.59 
L 225.848097 292.59 
L 227.423568 292.59 
L 228.999038 292.59 
L 230.574508 292.59 
L 232.149978 292.59 
L 233.725449 292.59 
L 235.300919 292.59 
L 236.876389 292.59 
L 238.451859 292.59 
L 240.02733 292.59 
L 241.6028 292.59 
L 243.17827 292.59 
L 244.75374 292.59 
L 246.32921 292.59 
L 247.904681 292.59 
L 249.480151 292.59 
L 251.055621 292.59 
L 252.631091 292.59 
L 254.206562 292.59 
L 255.782032 292.59 
L 257.357502 292.59 
L 258.932972 292.59 
L 260.508443 292.59 
L 262.083913 292.59 
L 263.659383 292.59 
L 265.234853 292.59 
L 266.810324 292.59 
L 268.385794 292.59 
L 269.961264 292.59 
L 271.536734 292.59 
L 273.112204 292.59 
L 274.687675 292.59 
L 276.263145 292.59 
L 277.838615 292.59 
L 279.414085 292.59 
L 280.989556 292.59 
L 282.565026 292.59 
L 284.140496 292.59 
L 285.715966 292.59 
L 287.291437 292.59 
L 288.866907 292.59 
L 290.442377 292.59 
L 292.017847 292.59 
L 293.593318 292.59 
L 295.168788 292.59 
L 296.744258 292.59 
L 298.319728 292.59 
L 299.895198 292.59 
L 301.470669 292.59 
L 303.046139 292.59 
L 304.621609 292.59 
L 306.197079 292.59 
L 307.77255 292.59 
L 309.34802 292.59 
L 310.92349 292.59 
L 312.49896 292.59 
L 314.074431 292.59 
L 315.649901 292.59 
L 317.225371 292.59 
L 318.800841 292.59 
L 318.800841 20.790003 
L 318.800841 20.790003 
L 317.225371 20.79011 
L 315.649901 20.79034 
L 314.074431 20.790804 
L 312.49896 20.791683 
L 310.92349 20.793253 
L 309.34802 20.795924 
L 307.77255 20.80028 
L 306.197079 20.80716 
L 304.621609 20.817783 
L 303.046139 20.833957 
L 301.470669 20.858367 
L 299.895198 20.894937 
L 298.319728 20.94923 
L 296.744258 21.028836 
L 295.168788 21.1437 
L 293.593318 21.306303 
L 292.017847 21.531639 
L 290.442377 21.836873 
L 288.866907 22.240627 
L 287.291437 22.76194 
L 285.715966 23.419143 
L 284.140496 24.229041 
L 282.565026 25.206809 
L 280.989556 26.36676 
L 279.414085 27.723669 
L 277.838615 29.293946 
L 276.263145 31.095758 
L 274.687675 33.147563 
L 273.112204 35.465111 
L 271.536734 38.057716 
L 269.961264 40.924864 
L 268.385794 44.054189 
L 266.810324 47.421309 
L 265.234853 50.99144 
L 263.659383 54.722331 
L 262.083913 58.56787 
L 260.508443 62.481761 
L 258.932972 66.42075 
L 257.357502 70.346982 
L 255.782032 74.229228 
L 254.206562 78.042998 
L 252.631091 81.769922 
L 251.055621 85.397077 
L 249.480151 88.916955 
L 247.904681 92.328466 
L 246.32921 95.638792 
L 244.75374 98.865335 
L 243.17827 102.036741 
L 241.6028 105.192105 
L 240.02733 108.378072 
L 238.451859 111.644306 
L 236.876389 115.038405 
L 235.300919 118.601467 
L 233.725449 122.365132 
L 232.149978 126.350305 
L 230.574508 130.567216 
L 228.999038 135.016311 
L 227.423568 139.689559 
L 225.848097 144.571942 
L 224.272627 149.642856 
L 222.697157 154.877145 
L 221.121687 160.245495 
L 219.546217 165.714306 
L 217.970746 171.245637 
L 216.395276 176.798118 
L 214.819806 182.329452 
L 213.244336 187.80043 
L 211.668865 193.179497 
L 210.093395 198.44644 
L 208.517925 203.593871 
L 206.942455 208.625864 
L 205.366984 213.553996 
L 203.791514 218.391854 
L 202.216044 223.149465 
L 200.640574 227.82914 
L 199.065103 232.423741 
L 197.489633 236.917633 
L 195.914163 241.289715 
L 194.338693 245.517347 
L 192.763223 249.579902 
L 191.187752 253.461044 
L 189.612282 257.149438 
L 188.036812 260.638133 
L 186.461342 263.923135 
L 184.885871 267.001758 
L 183.310401 269.871316 
L 181.734931 272.528558 
L 180.159461 274.970075 
L 178.58399 277.193579 
L 177.00852 279.199666 
L 175.43305 280.993384 
L 173.85758 282.585001 
L 172.282109 283.989551 
L 170.706639 285.225244 
L 169.131169 286.311229 
L 167.555699 287.265436 
L 165.980229 288.103136 
L 164.404758 288.836485 
L 162.829288 289.474967 
L 161.253818 290.026337 
L 159.678348 290.497645 
L 158.102877 290.896014 
L 156.527407 291.229003 
L 154.951937 291.504547 
L 153.376467 291.7306 
L 151.800996 291.914647 
L 150.225526 292.063326 
L 148.650056 292.182286 
L 147.074586 292.27631 
L 145.499115 292.349583 
L 143.923645 292.405935 
L 142.348175 292.44893 
L 140.772705 292.48179 
L 139.197235 292.50722 
L 137.621764 292.527273 
L 136.046294 292.543333 
L 134.470824 292.55623 
L 132.895354 292.566433 
L 131.319883 292.574254 
L 129.744413 292.579985 
L 128.168943 292.583964 
L 126.593473 292.586564 
L 125.018002 292.588158 
L 123.442532 292.589072 
L 121.867062 292.589562 
L 120.291592 292.589806 
L 118.716121 292.58992 
z
" style="fill:#33a02c;fill-opacity:0.25;"/>
   </g>
   <g id="PolyCollection_2">
    <path clip-path="url(#p75d362129f)" d="M 441.168958 292.589925 
L 441.168958 292.59 
L 441.483671 292.59 
L 441.798383 292.59 
L 442.113096 292.59 
L 442.427808 292.59 
L 442.742521 292.59 
L 443.057233 292.59 
L 443.371946 292.59 
L 443.686658 292.59 
L 444.001371 292.59 
L 444.316083 292.59 
L 444.630796 292.59 
L 444.945508 292.59 
L 445.260221 292.59 
L 445.574933 292.59 
L 445.889646 292.59 
L 446.204358 292.59 
L 446.519071 292.59 
L 446.833783 292.59 
L 447.148496 292.59 
L 447.463208 292.59 
L 447.777921 292.59 
L 448.092633 292.59 
L 448.407346 292.59 
L 448.722058 292.59 
L 449.036771 292.59 
L 449.351483 292.59 
L 449.666196 292.59 
L 449.980908 292.59 
L 450.295621 292.59 
L 450.610333 292.59 
L 450.925046 292.59 
L 451.239758 292.59 
L 451.554471 292.59 
L 451.869183 292.59 
L 452.183896 292.59 
L 452.498608 292.59 
L 452.813321 292.59 
L 453.128033 292.59 
L 453.442746 292.59 
L 453.757458 292.59 
L 454.072171 292.59 
L 454.386883 292.59 
L 454.701596 292.59 
L 455.016308 292.59 
L 455.331021 292.59 
L 455.645733 292.59 
L 455.960446 292.59 
L 456.275158 292.59 
L 456.589871 292.59 
L 456.904583 292.59 
L 457.219296 292.59 
L 457.534008 292.59 
L 457.848721 292.59 
L 458.163433 292.59 
L 458.478146 292.59 
L 458.792858 292.59 
L 459.107571 292.59 
L 459.422283 292.59 
L 459.736996 292.59 
L 460.051708 292.59 
L 460.366421 292.59 
L 460.681133 292.59 
L 460.995846 292.59 
L 461.310558 292.59 
L 461.625271 292.59 
L 461.939983 292.59 
L 462.254696 292.59 
L 462.569408 292.59 
L 462.884121 292.59 
L 463.198833 292.59 
L 463.513546 292.59 
L 463.828258 292.59 
L 464.142971 292.59 
L 464.457683 292.59 
L 464.772396 292.59 
L 465.087108 292.59 
L 465.401821 292.59 
L 465.716533 292.59 
L 466.031246 292.59 
L 466.345958 292.59 
L 466.660671 292.59 
L 466.975383 292.59 
L 467.290096 292.59 
L 467.604808 292.59 
L 467.919521 292.59 
L 468.234233 292.59 
L 468.548946 292.59 
L 468.863658 292.59 
L 469.178371 292.59 
L 469.493083 292.59 
L 469.807796 292.59 
L 470.122508 292.59 
L 470.437221 292.59 
L 470.751933 292.59 
L 471.066646 292.59 
L 471.381358 292.59 
L 471.696071 292.59 
L 472.010783 292.59 
L 472.325496 292.59 
L 472.640208 292.59 
L 472.954921 292.59 
L 473.269633 292.59 
L 473.584346 292.59 
L 473.899058 292.59 
L 474.213771 292.59 
L 474.528483 292.59 
L 474.843196 292.59 
L 475.157908 292.59 
L 475.472621 292.59 
L 475.787333 292.59 
L 476.102046 292.59 
L 476.416758 292.59 
L 476.731471 292.59 
L 477.046183 292.59 
L 477.360896 292.59 
L 477.675608 292.59 
L 477.990321 292.59 
L 478.305033 292.59 
L 478.619746 292.59 
L 478.934458 292.59 
L 479.249171 292.59 
L 479.563883 292.59 
L 479.878596 292.59 
L 480.193308 292.59 
L 480.508021 292.59 
L 480.822733 292.59 
L 481.137446 292.59 
L 481.137446 20.790004 
L 481.137446 20.790004 
L 480.822733 20.790176 
L 480.508021 20.79064 
L 480.193308 20.791742 
L 479.878596 20.794058 
L 479.563883 20.798383 
L 479.249171 20.805604 
L 478.934458 20.816466 
L 478.619746 20.831324 
L 478.305033 20.850016 
L 477.990321 20.871935 
L 477.675608 20.896267 
L 477.360896 20.922324 
L 477.046183 20.949879 
L 476.731471 20.979433 
L 476.416758 21.012289 
L 476.102046 21.050337 
L 475.787333 21.095547 
L 475.472621 21.149394 
L 475.157908 21.212582 
L 474.843196 21.28531 
L 474.528483 21.367967 
L 474.213771 21.461731 
L 473.899058 21.568605 
L 473.584346 21.690865 
L 473.269633 21.830513 
L 472.954921 21.989396 
L 472.640208 22.170104 
L 472.325496 22.377157 
L 472.010783 22.617725 
L 471.696071 22.901513 
L 471.381358 23.239825 
L 471.066646 23.644133 
L 470.751933 24.124485 
L 470.437221 24.68832 
L 470.122508 25.340335 
L 469.807796 26.083652 
L 469.493083 26.921749 
L 469.178371 27.860144 
L 468.863658 28.907493 
L 468.548946 30.07652 
L 468.234233 31.385224 
L 467.919521 32.85793 
L 467.604808 34.525072 
L 467.290096 36.420741 
L 466.975383 38.577717 
L 466.660671 41.02073 
L 466.345958 43.760084 
L 466.031246 46.788849 
L 465.716533 50.086559 
L 465.401821 53.629656 
L 465.087108 57.404883 
L 464.772396 61.419008 
L 464.457683 65.699075 
L 464.142971 70.281778 
L 463.828258 75.196423 
L 463.513546 80.450192 
L 463.198833 86.024226 
L 462.884121 91.883208 
L 462.569408 97.992173 
L 462.254696 104.329134 
L 461.939983 110.885739 
L 461.625271 117.65781 
L 461.310558 124.634301 
L 460.995846 131.79185 
L 460.681133 139.09596 
L 460.366421 146.505991 
L 460.051708 153.981739 
L 459.736996 161.490681 
L 459.422283 169.01345 
L 459.107571 176.542842 
L 458.792858 184.073301 
L 458.478146 191.584278 
L 458.163433 199.026818 
L 457.848721 206.322543 
L 457.534008 213.377307 
L 457.219296 220.10318 
L 456.904583 226.438051 
L 456.589871 232.354503 
L 456.275158 237.856357 
L 455.960446 242.967185 
L 455.645733 247.716978 
L 455.331021 252.131671 
L 455.016308 256.228056 
L 454.701596 260.014669 
L 454.386883 263.497028 
L 454.072171 266.683708 
L 453.757458 269.589555 
L 453.442746 272.234501 
L 453.128033 274.639164 
L 452.813321 276.820237 
L 452.498608 278.788655 
L 452.183896 280.551686 
L 451.869183 282.117429 
L 451.554471 283.498462 
L 451.239758 284.712126 
L 450.925046 285.777414 
L 450.610333 286.71089 
L 450.295621 287.524581 
L 449.980908 288.227284 
L 449.666196 288.828182 
L 449.351483 289.340039 
L 449.036771 289.779574 
L 448.722058 290.164671 
L 448.407346 290.510188 
L 448.092633 290.824953 
L 447.777921 291.111624 
L 447.463208 291.369185 
L 447.148496 291.596215 
L 446.833783 291.792822 
L 446.519071 291.960548 
L 446.204358 292.10126 
L 445.889646 292.216579 
L 445.574933 292.308348 
L 445.260221 292.379373 
L 444.945508 292.433481 
L 444.630796 292.474775 
L 444.316083 292.506707 
L 444.001371 292.531626 
L 443.686658 292.550895 
L 443.371946 292.565305 
L 443.057233 292.575491 
L 442.742521 292.582164 
L 442.427808 292.586149 
L 442.113096 292.588294 
L 441.798383 292.589323 
L 441.483671 292.589761 
L 441.168958 292.589925 
z
" style="fill:#ff7f00;fill-opacity:0.25;"/>
   </g>
   <g id="PolyCollection_3">
    <path clip-path="url(#p75d362129f)" d="M 292.402708 292.589927 
L 292.402708 292.59 
L 292.753596 292.59 
L 293.104484 292.59 
L 293.455372 292.59 
L 293.80626 292.59 
L 294.157147 292.59 
L 294.508035 292.59 
L 294.858923 292.59 
L 295.209811 292.59 
L 295.560699 292.59 
L 295.911587 292.59 
L 296.262474 292.59 
L 296.613362 292.59 
L 296.96425 292.59 
L 297.315138 292.59 
L 297.666026 292.59 
L 298.016913 292.59 
L 298.367801 292.59 
L 298.718689 292.59 
L 299.069577 292.59 
L 299.420465 292.59 
L 299.771353 292.59 
L 300.12224 292.59 
L 300.473128 292.59 
L 300.824016 292.59 
L 301.174904 292.59 
L 301.525792 292.59 
L 301.876679 292.59 
L 302.227567 292.59 
L 302.578455 292.59 
L 302.929343 292.59 
L 303.280231 292.59 
L 303.631119 292.59 
L 303.982006 292.59 
L 304.332894 292.59 
L 304.683782 292.59 
L 305.03467 292.59 
L 305.385558 292.59 
L 305.736446 292.59 
L 306.087333 292.59 
L 306.438221 292.59 
L 306.789109 292.59 
L 307.139997 292.59 
L 307.490885 292.59 
L 307.841772 292.59 
L 308.19266 292.59 
L 308.543548 292.59 
L 308.894436 292.59 
L 309.245324 292.59 
L 309.596212 292.59 
L 309.947099 292.59 
L 310.297987 292.59 
L 310.648875 292.59 
L 310.999763 292.59 
L 311.350651 292.59 
L 311.701538 292.59 
L 312.052426 292.59 
L 312.403314 292.59 
L 312.754202 292.59 
L 313.10509 292.59 
L 313.455978 292.59 
L 313.806865 292.59 
L 314.157753 292.59 
L 314.508641 292.59 
L 314.859529 292.59 
L 315.210417 292.59 
L 315.561304 292.59 
L 315.912192 292.59 
L 316.26308 292.59 
L 316.613968 292.59 
L 316.964856 292.59 
L 317.315744 292.59 
L 317.666631 292.59 
L 318.017519 292.59 
L 318.368407 292.59 
L 318.719295 292.59 
L 319.070183 292.59 
L 319.42107 292.59 
L 319.771958 292.59 
L 320.122846 292.59 
L 320.473734 292.59 
L 320.824622 292.59 
L 321.17551 292.59 
L 321.526397 292.59 
L 321.877285 292.59 
L 322.228173 292.59 
L 322.579061 292.59 
L 322.929949 292.59 
L 323.280837 292.59 
L 323.631724 292.59 
L 323.982612 292.59 
L 324.3335 292.59 
L 324.684388 292.59 
L 325.035276 292.59 
L 325.386163 292.59 
L 325.737051 292.59 
L 326.087939 292.59 
L 326.438827 292.59 
L 326.789715 292.59 
L 327.140603 292.59 
L 327.49149 292.59 
L 327.842378 292.59 
L 328.193266 292.59 
L 328.544154 292.59 
L 328.895042 292.59 
L 329.245929 292.59 
L 329.596817 292.59 
L 329.947705 292.59 
L 330.298593 292.59 
L 330.649481 292.59 
L 331.000369 292.59 
L 331.351256 292.59 
L 331.702144 292.59 
L 332.053032 292.59 
L 332.40392 292.59 
L 332.754808 292.59 
L 333.105695 292.59 
L 333.456583 292.59 
L 333.807471 292.59 
L 334.158359 292.59 
L 334.509247 292.59 
L 334.860135 292.59 
L 335.211022 292.59 
L 335.56191 292.59 
L 335.912798 292.59 
L 336.263686 292.59 
L 336.614574 292.59 
L 336.965462 292.59 
L 336.965462 20.79 
L 336.965462 20.79 
L 336.614574 20.790314 
L 336.263686 20.791485 
L 335.912798 20.794819 
L 335.56191 20.802121 
L 335.211022 20.814646 
L 334.860135 20.831867 
L 334.509247 20.851284 
L 334.158359 20.869448 
L 333.807471 20.883454 
L 333.456583 20.89219 
L 333.105695 20.896604 
L 332.754808 20.898915 
L 332.40392 20.902 
L 332.053032 20.90986 
L 331.702144 20.928224 
L 331.351256 20.963576 
L 331.000369 21.020421 
L 330.649481 21.098753 
L 330.298593 21.194236 
L 329.947705 21.301231 
L 329.596817 21.415754 
L 329.245929 21.536761 
L 328.895042 21.66778 
L 328.544154 21.818616 
L 328.193266 22.003403 
L 327.842378 22.235486 
L 327.49149 22.524525 
L 327.140603 22.87824 
L 326.789715 23.305463 
L 326.438827 23.816079 
L 326.087939 24.417398 
L 325.737051 25.111748 
L 325.386163 25.901839 
L 325.035276 26.804162 
L 324.684388 27.858873 
L 324.3335 29.123446 
L 323.982612 30.653261 
L 323.631724 32.484792 
L 323.280837 34.63101 
L 322.929949 37.087173 
L 322.579061 39.84561 
L 322.228173 42.925208 
L 321.877285 46.405122 
L 321.526397 50.419744 
L 321.17551 55.096329 
L 320.824622 60.497706 
L 320.473734 66.639952 
L 320.122846 73.550173 
L 319.771958 81.272557 
L 319.42107 89.818466 
L 319.070183 99.135241 
L 318.719295 109.116234 
L 318.368407 119.619518 
L 318.017519 130.486207 
L 317.666631 141.56011 
L 317.315744 152.702064 
L 316.964856 163.800995 
L 316.613968 174.77315 
L 316.26308 185.540047 
L 315.912192 196.017009 
L 315.561304 206.1366 
L 315.210417 215.860955 
L 314.859529 225.140604 
L 314.508641 233.870089 
L 314.157753 241.915454 
L 313.806865 249.190087 
L 313.455978 255.683028 
L 313.10509 261.415255 
L 312.754202 266.397229 
L 312.403314 270.63895 
L 312.052426 274.185723 
L 311.701538 277.131293 
L 311.350651 279.592154 
L 310.999763 281.667545 
L 310.648875 283.422581 
L 310.297987 284.903606 
L 309.947099 286.158424 
L 309.596212 287.23274 
L 309.245324 288.150805 
L 308.894436 288.91453 
L 308.543548 289.527228 
L 308.19266 290.010008 
L 307.841772 290.394393 
L 307.490885 290.709118 
L 307.139997 290.975427 
L 306.789109 291.206432 
L 306.438221 291.407816 
L 306.087333 291.581778 
L 305.736446 291.730684 
L 305.385558 291.85772 
L 305.03467 291.967538 
L 304.683782 292.066472 
L 304.332894 292.158526 
L 303.982006 292.240761 
L 303.631119 292.306191 
L 303.280231 292.352481 
L 302.929343 292.385446 
L 302.578455 292.413057 
L 302.227567 292.438189 
L 301.876679 292.458509 
L 301.525792 292.471602 
L 301.174904 292.478212 
L 300.824016 292.48131 
L 300.473128 292.484121 
L 300.12224 292.489219 
L 299.771353 292.497885 
L 299.420465 292.509201 
L 299.069577 292.520312 
L 298.718689 292.528497 
L 298.367801 292.53302 
L 298.016913 292.534895 
L 297.666026 292.535477 
L 297.315138 292.535613 
L 296.96425 292.535638 
L 296.613362 292.535652 
L 296.262474 292.535721 
L 295.911587 292.536053 
L 295.560699 292.537255 
L 295.209811 292.540518 
L 294.858923 292.547163 
L 294.508035 292.557312 
L 294.157147 292.568939 
L 293.80626 292.578932 
L 293.455372 292.585374 
L 293.104484 292.58849 
L 292.753596 292.589619 
L 292.402708 292.589927 
z
" style="fill:#1f78b4;fill-opacity:0.25;"/>
   </g>
   <g id="PolyCollection_4">
    <path clip-path="url(#p75d362129f)" d="M 310.331032 292.589885 
L 310.331032 292.59 
L 311.365487 292.59 
L 312.399942 292.59 
L 313.434397 292.59 
L 314.468852 292.59 
L 315.503307 292.59 
L 316.537762 292.59 
L 317.572217 292.59 
L 318.606672 292.59 
L 319.641127 292.59 
L 320.675582 292.59 
L 321.710037 292.59 
L 322.744492 292.59 
L 323.778947 292.59 
L 324.813402 292.59 
L 325.847857 292.59 
L 326.882312 292.59 
L 327.916768 292.59 
L 328.951223 292.59 
L 329.985678 292.59 
L 331.020133 292.59 
L 332.054588 292.59 
L 333.089043 292.59 
L 334.123498 292.59 
L 335.157953 292.59 
L 336.192408 292.59 
L 337.226863 292.59 
L 338.261318 292.59 
L 339.295773 292.59 
L 340.330228 292.59 
L 341.364683 292.59 
L 342.399138 292.59 
L 343.433593 292.59 
L 344.468048 292.59 
L 345.502503 292.59 
L 346.536958 292.59 
L 347.571413 292.59 
L 348.605869 292.59 
L 349.640324 292.59 
L 350.674779 292.59 
L 351.709234 292.59 
L 352.743689 292.59 
L 353.778144 292.59 
L 354.812599 292.59 
L 355.847054 292.59 
L 356.881509 292.59 
L 357.915964 292.59 
L 358.950419 292.59 
L 359.984874 292.59 
L 361.019329 292.59 
L 362.053784 292.59 
L 363.088239 292.59 
L 364.122694 292.59 
L 365.157149 292.59 
L 366.191604 292.59 
L 367.226059 292.59 
L 368.260515 292.59 
L 369.29497 292.59 
L 370.329425 292.59 
L 371.36388 292.59 
L 372.398335 292.59 
L 373.43279 292.59 
L 374.467245 292.59 
L 375.5017 292.59 
L 376.536155 292.59 
L 377.57061 292.59 
L 378.605065 292.59 
L 379.63952 292.59 
L 380.673975 292.59 
L 381.70843 292.59 
L 382.742885 292.59 
L 383.77734 292.59 
L 384.811795 292.59 
L 385.84625 292.59 
L 386.880705 292.59 
L 387.91516 292.59 
L 388.949616 292.59 
L 389.984071 292.59 
L 391.018526 292.59 
L 392.052981 292.59 
L 393.087436 292.59 
L 394.121891 292.59 
L 395.156346 292.59 
L 396.190801 292.59 
L 397.225256 292.59 
L 398.259711 292.59 
L 399.294166 292.59 
L 400.328621 292.59 
L 401.363076 292.59 
L 402.397531 292.59 
L 403.431986 292.59 
L 404.466441 292.59 
L 405.500896 292.59 
L 406.535351 292.59 
L 407.569806 292.59 
L 408.604262 292.59 
L 409.638717 292.59 
L 410.673172 292.59 
L 411.707627 292.59 
L 412.742082 292.59 
L 413.776537 292.59 
L 414.810992 292.59 
L 415.845447 292.59 
L 416.879902 292.59 
L 417.914357 292.59 
L 418.948812 292.59 
L 419.983267 292.59 
L 421.017722 292.59 
L 422.052177 292.59 
L 423.086632 292.59 
L 424.121087 292.59 
L 425.155542 292.59 
L 426.189997 292.59 
L 427.224452 292.59 
L 428.258908 292.59 
L 429.293363 292.59 
L 430.327818 292.59 
L 431.362273 292.59 
L 432.396728 292.59 
L 433.431183 292.59 
L 434.465638 292.59 
L 435.500093 292.59 
L 436.534548 292.59 
L 437.569003 292.59 
L 438.603458 292.59 
L 439.637913 292.59 
L 440.672368 292.59 
L 441.706823 292.59 
L 441.706823 20.790009 
L 441.706823 20.790009 
L 440.672368 20.790137 
L 439.637913 20.79043 
L 438.603458 20.791047 
L 437.569003 20.79226 
L 436.534548 20.794483 
L 435.500093 20.798297 
L 434.465638 20.804438 
L 433.431183 20.813766 
L 432.396728 20.827186 
L 431.362273 20.845567 
L 430.327818 20.869663 
L 429.293363 20.900066 
L 428.258908 20.937168 
L 427.224452 20.981145 
L 426.189997 21.031906 
L 425.155542 21.089027 
L 424.121087 21.151717 
L 423.086632 21.218897 
L 422.052177 21.289489 
L 421.017722 21.362906 
L 419.983267 21.439651 
L 418.948812 21.521802 
L 417.914357 21.613179 
L 416.879902 21.719069 
L 415.845447 21.845561 
L 414.810992 21.998688 
L 413.776537 22.183639 
L 412.742082 22.404269 
L 411.707627 22.662966 
L 410.673172 22.960853 
L 409.638717 23.298198 
L 408.604262 23.675009 
L 407.569806 24.091776 
L 406.535351 24.550324 
L 405.500896 25.054528 
L 404.466441 25.610568 
L 403.431986 26.226431 
L 402.397531 26.910684 
L 401.363076 27.670907 
L 400.328621 28.51243 
L 399.294166 29.437857 
L 398.259711 30.447519 
L 397.225256 31.54052 
L 396.190801 32.715879 
L 395.156346 33.973459 
L 394.121891 35.31465 
L 393.087436 36.742991 
L 392.052981 38.264738 
L 391.018526 39.889103 
L 389.984071 41.627671 
L 388.949616 43.492809 
L 387.91516 45.495458 
L 386.880705 47.643272 
L 385.84625 49.940082 
L 384.811795 52.386999 
L 383.77734 54.984445 
L 382.742885 57.733776 
L 381.70843 60.637295 
L 380.673975 63.696397 
L 379.63952 66.908779 
L 378.605065 70.266276 
L 377.57061 73.754703 
L 376.536155 77.356147 
L 375.5017 81.053052 
L 374.467245 84.832804 
L 373.43279 88.691464 
L 372.398335 92.635729 
L 371.36388 96.682664 
L 370.329425 100.857154 
L 369.29497 105.187346 
L 368.260515 109.698894 
L 367.226059 114.409359 
L 366.191604 119.324251 
L 365.157149 124.43577 
L 364.122694 129.724225 
L 363.088239 135.16123 
L 362.053784 140.713351 
L 361.019329 146.345271 
L 359.984874 152.022125 
L 358.950419 157.711242 
L 357.915964 163.383617 
L 356.881509 169.015336 
L 355.847054 174.588824 
L 354.812599 180.093681 
L 353.778144 185.526876 
L 352.743689 190.8923 
L 351.709234 196.199949 
L 350.674779 201.465009 
L 349.640324 206.706872 
L 348.605869 211.947712 
L 347.571413 217.209864 
L 346.536958 222.511523 
L 345.502503 227.861036 
L 344.468048 233.251229 
L 343.433593 238.655864 
L 342.399138 244.030011 
L 341.364683 249.314705 
L 340.330228 254.444534 
L 339.295773 259.355679 
L 338.261318 263.992072 
L 337.226863 268.308434 
L 336.192408 272.270495 
L 335.157953 275.853671 
L 334.123498 279.041765 
L 333.089043 281.826695 
L 332.054588 284.209381 
L 331.020133 286.201132 
L 329.985678 287.824474 
L 328.951223 289.112572 
L 327.916768 290.106944 
L 326.882312 290.853867 
L 325.847857 291.400315 
L 324.813402 291.790328 
L 323.778947 292.062451 
L 322.744492 292.248466 
L 321.710037 292.373258 
L 320.675582 292.455484 
L 319.641127 292.50865 
L 318.606672 292.542287 
L 317.572217 292.56301 
L 316.537762 292.57536 
L 315.503307 292.58243 
L 314.468852 292.586289 
L 313.434397 292.588284 
L 312.399942 292.589254 
L 311.365487 292.589697 
L 310.331032 292.589885 
z
" style="fill:#0000ff;fill-opacity:0.25;"/>
   </g>
   <g id="PolyCollection_5">
    <path clip-path="url(#p75d362129f)" d="M 156.602548 292.589878 
L 156.602548 292.59 
L 157.896642 292.59 
L 159.190735 292.59 
L 160.484828 292.59 
L 161.778922 292.59 
L 163.073015 292.59 
L 164.367108 292.59 
L 165.661202 292.59 
L 166.955295 292.59 
L 168.249388 292.59 
L 169.543482 292.59 
L 170.837575 292.59 
L 172.131668 292.59 
L 173.425762 292.59 
L 174.719855 292.59 
L 176.013948 292.59 
L 177.308041 292.59 
L 178.602135 292.59 
L 179.896228 292.59 
L 181.190321 292.59 
L 182.484415 292.59 
L 183.778508 292.59 
L 185.072601 292.59 
L 186.366695 292.59 
L 187.660788 292.59 
L 188.954881 292.59 
L 190.248975 292.59 
L 191.543068 292.59 
L 192.837161 292.59 
L 194.131255 292.59 
L 195.425348 292.59 
L 196.719441 292.59 
L 198.013535 292.59 
L 199.307628 292.59 
L 200.601721 292.59 
L 201.895815 292.59 
L 203.189908 292.59 
L 204.484001 292.59 
L 205.778094 292.59 
L 207.072188 292.59 
L 208.366281 292.59 
L 209.660374 292.59 
L 210.954468 292.59 
L 212.248561 292.59 
L 213.542654 292.59 
L 214.836748 292.59 
L 216.130841 292.59 
L 217.424934 292.59 
L 218.719028 292.59 
L 220.013121 292.59 
L 221.307214 292.59 
L 222.601308 292.59 
L 223.895401 292.59 
L 225.189494 292.59 
L 226.483588 292.59 
L 227.777681 292.59 
L 229.071774 292.59 
L 230.365868 292.59 
L 231.659961 292.59 
L 232.954054 292.59 
L 234.248147 292.59 
L 235.542241 292.59 
L 236.836334 292.59 
L 238.130427 292.59 
L 239.424521 292.59 
L 240.718614 292.59 
L 242.012707 292.59 
L 243.306801 292.59 
L 244.600894 292.59 
L 245.894987 292.59 
L 247.189081 292.59 
L 248.483174 292.59 
L 249.777267 292.59 
L 251.071361 292.59 
L 252.365454 292.59 
L 253.659547 292.59 
L 254.953641 292.59 
L 256.247734 292.59 
L 257.541827 292.59 
L 258.83592 292.59 
L 260.130014 292.59 
L 261.424107 292.59 
L 262.7182 292.59 
L 264.012294 292.59 
L 265.306387 292.59 
L 266.60048 292.59 
L 267.894574 292.59 
L 269.188667 292.59 
L 270.48276 292.59 
L 271.776854 292.59 
L 273.070947 292.59 
L 274.36504 292.59 
L 275.659134 292.59 
L 276.953227 292.59 
L 278.24732 292.59 
L 279.541414 292.59 
L 280.835507 292.59 
L 282.1296 292.59 
L 283.423694 292.59 
L 284.717787 292.59 
L 286.01188 292.59 
L 287.305973 292.59 
L 288.600067 292.59 
L 289.89416 292.59 
L 291.188253 292.59 
L 292.482347 292.59 
L 293.77644 292.59 
L 295.070533 292.59 
L 296.364627 292.59 
L 297.65872 292.59 
L 298.952813 292.59 
L 300.246907 292.59 
L 301.541 292.59 
L 302.835093 292.59 
L 304.129187 292.59 
L 305.42328 292.59 
L 306.717373 292.59 
L 308.011467 292.59 
L 309.30556 292.59 
L 310.599653 292.59 
L 311.893747 292.59 
L 313.18784 292.59 
L 314.481933 292.59 
L 315.776026 292.59 
L 317.07012 292.59 
L 318.364213 292.59 
L 319.658306 292.59 
L 320.9524 292.59 
L 320.9524 20.790023 
L 320.9524 20.790023 
L 319.658306 20.790171 
L 318.364213 20.790511 
L 317.07012 20.791245 
L 315.776026 20.792737 
L 314.481933 20.795616 
L 313.18784 20.800915 
L 311.893747 20.810273 
L 310.599653 20.826234 
L 309.30556 20.85267 
L 308.011467 20.895383 
L 306.717373 20.96287 
L 305.42328 21.067188 
L 304.129187 21.22475 
L 302.835093 21.456792 
L 301.541 21.789248 
L 300.246907 22.251847 
L 298.952813 22.876475 
L 297.65872 23.69504 
L 296.364627 24.737271 
L 295.070533 26.028851 
L 293.77644 27.590165 
L 292.482347 29.435711 
L 291.188253 31.574023 
L 289.89416 34.007876 
L 288.600067 36.734502 
L 287.305973 39.745628 
L 286.01188 43.027247 
L 284.717787 46.559223 
L 283.423694 50.315019 
L 282.1296 54.261998 
L 280.835507 58.362642 
L 279.541414 62.5768 
L 278.24732 66.864633 
L 276.953227 71.189635 
L 275.659134 75.521099 
L 274.36504 79.835621 
L 273.070947 84.11773 
L 271.776854 88.36006 
L 270.48276 92.563523 
L 269.188667 96.737692 
L 267.894574 100.901125 
L 266.60048 105.081025 
L 265.306387 109.311554 
L 264.012294 113.630459 
L 262.7182 118.074319 
L 261.424107 122.67331 
L 260.130014 127.446747 
L 258.83592 132.40046 
L 257.541827 137.526414 
L 256.247734 142.804241 
L 254.953641 148.203946 
L 253.659547 153.689036 
L 252.365454 159.219669 
L 251.071361 164.755692 
L 249.777267 170.259494 
L 248.483174 175.698487 
L 247.189081 181.046915 
L 245.894987 186.286785 
L 244.600894 191.40787 
L 243.306801 196.406846 
L 242.012707 201.285652 
L 240.718614 206.049193 
L 239.424521 210.702613 
L 238.130427 215.248625 
L 236.836334 219.685543 
L 235.542241 224.006619 
L 234.248147 228.200933 
L 232.954054 232.25563 
L 231.659961 236.15883 
L 230.365868 239.902304 
L 229.071774 243.483103 
L 227.777681 246.903609 
L 226.483588 250.170045 
L 225.189494 253.289896 
L 223.895401 256.269118 
L 222.601308 259.110074 
L 221.307214 261.810926 
L 220.013121 264.366757 
L 218.719028 266.771982 
L 217.424934 269.023102 
L 216.130841 271.120683 
L 214.836748 273.069822 
L 213.542654 274.879143 
L 212.248561 276.559027 
L 210.954468 278.120004 
L 209.660374 279.57185 
L 208.366281 280.923309 
L 207.072188 282.181979 
L 205.778094 283.353938 
L 204.484001 284.443181 
L 203.189908 285.451307 
L 201.895815 286.377891 
L 200.601721 287.221604 
L 199.307628 287.981633 
L 198.013535 288.658773 
L 196.719441 289.25577 
L 195.425348 289.776978 
L 194.131255 290.227701 
L 192.837161 290.613689 
L 191.543068 290.94098 
L 190.248975 291.215981 
L 188.954881 291.445517 
L 187.660788 291.636645 
L 186.366695 291.79619 
L 185.072601 291.930179 
L 183.778508 292.043402 
L 182.484415 292.139291 
L 181.190321 292.220152 
L 179.896228 292.287636 
L 178.602135 292.343229 
L 177.308041 292.388587 
L 176.013948 292.425588 
L 174.719855 292.456155 
L 173.425762 292.481978 
L 172.131668 292.504278 
L 170.837575 292.523719 
L 169.543482 292.540504 
L 168.249388 292.55458 
L 166.955295 292.565867 
L 165.661202 292.574427 
L 164.367108 292.580522 
L 163.073015 292.584578 
L 161.778922 292.587092 
L 160.484828 292.588541 
L 159.190735 292.589316 
L 157.896642 292.589701 
L 156.602548 292.589878 
z
" style="fill-opacity:0.25;"/>
   </g>
   <g id="PolyCollection_6">
    <path clip-path="url(#p75d362129f)" d="M 75.319264 292.589927 
L 75.319264 292.59 
L 76.726499 292.59 
L 78.133734 292.59 
L 79.540969 292.59 
L 80.948204 292.59 
L 82.355438 292.59 
L 83.762673 292.59 
L 85.169908 292.59 
L 86.577143 292.59 
L 87.984378 292.59 
L 89.391613 292.59 
L 90.798848 292.59 
L 92.206083 292.59 
L 93.613318 292.59 
L 95.020553 292.59 
L 96.427788 292.59 
L 97.835022 292.59 
L 99.242257 292.59 
L 100.649492 292.59 
L 102.056727 292.59 
L 103.463962 292.59 
L 104.871197 292.59 
L 106.278432 292.59 
L 107.685667 292.59 
L 109.092902 292.59 
L 110.500137 292.59 
L 111.907372 292.59 
L 113.314606 292.59 
L 114.721841 292.59 
L 116.129076 292.59 
L 117.536311 292.59 
L 118.943546 292.59 
L 120.350781 292.59 
L 121.758016 292.59 
L 123.165251 292.59 
L 124.572486 292.59 
L 125.979721 292.59 
L 127.386956 292.59 
L 128.79419 292.59 
L 130.201425 292.59 
L 131.60866 292.59 
L 133.015895 292.59 
L 134.42313 292.59 
L 135.830365 292.59 
L 137.2376 292.59 
L 138.644835 292.59 
L 140.05207 292.59 
L 141.459305 292.59 
L 142.866539 292.59 
L 144.273774 292.59 
L 145.681009 292.59 
L 147.088244 292.59 
L 148.495479 292.59 
L 149.902714 292.59 
L 151.309949 292.59 
L 152.717184 292.59 
L 154.124419 292.59 
L 155.531654 292.59 
L 156.938889 292.59 
L 158.346123 292.59 
L 159.753358 292.59 
L 161.160593 292.59 
L 162.567828 292.59 
L 163.975063 292.59 
L 165.382298 292.59 
L 166.789533 292.59 
L 168.196768 292.59 
L 169.604003 292.59 
L 171.011238 292.59 
L 172.418473 292.59 
L 173.825707 292.59 
L 175.232942 292.59 
L 176.640177 292.59 
L 178.047412 292.59 
L 179.454647 292.59 
L 180.861882 292.59 
L 182.269117 292.59 
L 183.676352 292.59 
L 185.083587 292.59 
L 186.490822 292.59 
L 187.898057 292.59 
L 189.305291 292.59 
L 190.712526 292.59 
L 192.119761 292.59 
L 193.526996 292.59 
L 194.934231 292.59 
L 196.341466 292.59 
L 197.748701 292.59 
L 199.155936 292.59 
L 200.563171 292.59 
L 201.970406 292.59 
L 203.377641 292.59 
L 204.784875 292.59 
L 206.19211 292.59 
L 207.599345 292.59 
L 209.00658 292.59 
L 210.413815 292.59 
L 211.82105 292.59 
L 213.228285 292.59 
L 214.63552 292.59 
L 216.042755 292.59 
L 217.44999 292.59 
L 218.857225 292.59 
L 220.264459 292.59 
L 221.671694 292.59 
L 223.078929 292.59 
L 224.486164 292.59 
L 225.893399 292.59 
L 227.300634 292.59 
L 228.707869 292.59 
L 230.115104 292.59 
L 231.522339 292.59 
L 232.929574 292.59 
L 234.336808 292.59 
L 235.744043 292.59 
L 237.151278 292.59 
L 238.558513 292.59 
L 239.965748 292.59 
L 241.372983 292.59 
L 242.780218 292.59 
L 244.187453 292.59 
L 245.594688 292.59 
L 247.001923 292.59 
L 248.409158 292.59 
L 249.816392 292.59 
L 251.223627 292.59 
L 252.630862 292.59 
L 254.038097 292.59 
L 254.038097 20.79 
L 254.038097 20.79 
L 252.630862 20.790172 
L 251.223627 20.790643 
L 249.816392 20.791759 
L 248.409158 20.794059 
L 247.001923 20.798215 
L 245.594688 20.804893 
L 244.187453 20.814653 
L 242.780218 20.828065 
L 241.372983 20.846043 
L 239.965748 20.87018 
L 238.558513 20.902825 
L 237.151278 20.946942 
L 235.744043 21.005996 
L 234.336808 21.083928 
L 232.929574 21.184911 
L 231.522339 21.312661 
L 230.115104 21.469689 
L 228.707869 21.657201 
L 227.300634 21.875897 
L 225.893399 22.127141 
L 224.486164 22.413787 
L 223.078929 22.740471 
L 221.671694 23.113837 
L 220.264459 23.543415 
L 218.857225 24.043367 
L 217.44999 24.634264 
L 216.042755 25.343273 
L 214.63552 26.201604 
L 213.228285 27.239815 
L 211.82105 28.483229 
L 210.413815 29.949661 
L 209.00658 31.650086 
L 207.599345 33.591281 
L 206.19211 35.779338 
L 204.784875 38.223549 
L 203.377641 40.939893 
L 201.970406 43.952017 
L 200.563171 47.287742 
L 199.155936 50.972469 
L 197.748701 55.024504 
L 196.341466 59.45594 
L 194.934231 64.276184 
L 193.526996 69.491043 
L 192.119761 75.09521 
L 190.712526 81.065891 
L 189.305291 87.367862 
L 187.898057 93.969796 
L 186.490822 100.858164 
L 185.083587 108.033918 
L 183.676352 115.49142 
L 182.269117 123.195352 
L 180.861882 131.074274 
L 179.454647 139.037128 
L 178.047412 147.002679 
L 176.640177 154.923662 
L 175.232942 162.791191 
L 173.825707 170.616947 
L 172.418473 178.404002 
L 171.011238 186.12448 
L 169.604003 193.718041 
L 168.196768 201.110659 
L 166.789533 208.239233 
L 165.382298 215.065904 
L 163.975063 221.57673 
L 162.567828 227.770808 
L 161.160593 233.648589 
L 159.753358 239.204006 
L 158.346123 244.421459 
L 156.938889 249.278162 
L 155.531654 253.751752 
L 154.124419 257.830236 
L 152.717184 261.51877 
L 151.309949 264.838902 
L 149.902714 267.821007 
L 148.495479 270.495823 
L 147.088244 272.89127 
L 145.681009 275.035363 
L 144.273774 276.959986 
L 142.866539 278.69971 
L 141.459305 280.285311 
L 140.05207 281.737373 
L 138.644835 283.065332 
L 137.2376 284.272108 
L 135.830365 285.3598 
L 134.42313 286.332193 
L 133.015895 287.193902 
L 131.60866 287.949063 
L 130.201425 288.601924 
L 128.79419 289.159001 
L 127.386956 289.630738 
L 125.979721 290.031043 
L 124.572486 290.374791 
L 123.165251 290.674683 
L 121.758016 290.939134 
L 120.350781 291.172021 
L 118.943546 291.374064 
L 117.536311 291.544862 
L 116.129076 291.684711 
L 114.721841 291.795754 
L 113.314606 291.882368 
L 111.907372 291.950658 
L 110.500137 292.007193 
L 109.092902 292.057514 
L 107.685667 292.105295 
L 106.278432 292.152644 
L 104.871197 292.201015 
L 103.463962 292.251636 
L 102.056727 292.304833 
L 100.649492 292.358964 
L 99.242257 292.410292 
L 97.835022 292.454371 
L 96.427788 292.488101 
L 95.020553 292.511003 
L 93.613318 292.525046 
L 92.206083 292.533463 
L 90.798848 292.53947 
L 89.391613 292.54542 
L 87.984378 292.552468 
L 86.577143 292.560592 
L 85.169908 292.568942 
L 83.762673 292.576403 
L 82.355438 292.582163 
L 80.948204 292.585999 
L 79.540969 292.588201 
L 78.133734 292.589291 
L 76.726499 292.589756 
L 75.319264 292.589927 
z
" style="fill:#e31a1c;fill-opacity:0.25;"/>
   </g>
   <g id="line2d_15">
    <path clip-path="url(#p75d362129f)" d="M 118.716121 292.58992 
L 140.772705 292.48179 
L 147.074586 292.27631 
L 151.800996 291.914647 
L 154.951937 291.504547 
L 158.102877 290.896014 
L 161.253818 290.026337 
L 164.404758 288.836485 
L 167.555699 287.265436 
L 169.131169 286.311229 
L 170.706639 285.225244 
L 172.282109 283.989551 
L 173.85758 282.585001 
L 175.43305 280.993384 
L 177.00852 279.199666 
L 178.58399 277.193579 
L 180.159461 274.970075 
L 181.734931 272.528558 
L 184.885871 267.001758 
L 188.036812 260.638133 
L 191.187752 253.461044 
L 194.338693 245.517347 
L 197.489633 236.917633 
L 202.216044 223.149465 
L 206.942455 208.625864 
L 211.668865 193.179497 
L 216.395276 176.798118 
L 222.697157 154.877145 
L 225.848097 144.571942 
L 228.999038 135.016311 
L 232.149978 126.350305 
L 235.300919 118.601467 
L 238.451859 111.644306 
L 243.17827 102.036741 
L 247.904681 92.328466 
L 251.055621 85.397077 
L 254.206562 78.042998 
L 258.932972 66.42075 
L 263.659383 54.722331 
L 266.810324 47.421309 
L 269.961264 40.924864 
L 271.536734 38.057716 
L 273.112204 35.465111 
L 274.687675 33.147563 
L 276.263145 31.095758 
L 277.838615 29.293946 
L 279.414085 27.723669 
L 280.989556 26.36676 
L 282.565026 25.206809 
L 284.140496 24.229041 
L 285.715966 23.419143 
L 287.291437 22.76194 
L 288.866907 22.240627 
L 292.017847 21.531639 
L 295.168788 21.1437 
L 299.895198 20.894937 
L 307.77255 20.80028 
L 318.800841 20.790003 
L 318.800841 20.790003 
" style="fill:none;stroke:#33a02c;stroke-linecap:round;stroke-width:2;"/>
   </g>
   <g id="line2d_16">
    <path clip-path="url(#p75d362129f)" d="M 441.168958 292.589925 
L 444.316083 292.506707 
L 445.574933 292.308348 
L 446.519071 291.960548 
L 447.463208 291.369185 
L 448.407346 290.510188 
L 449.351483 289.340039 
L 449.980908 288.227284 
L 450.610333 286.71089 
L 451.239758 284.712126 
L 451.869183 282.117429 
L 452.498608 278.788655 
L 453.442746 272.234501 
L 454.386883 263.497028 
L 455.331021 252.131671 
L 456.275158 237.856357 
L 457.219296 220.10318 
L 458.478146 191.584278 
L 461.939983 110.885739 
L 463.198833 86.024226 
L 464.457683 65.699075 
L 465.716533 50.086559 
L 466.660671 41.02073 
L 467.604808 34.525072 
L 468.548946 30.07652 
L 469.493083 26.921749 
L 470.437221 24.68832 
L 471.066646 23.644133 
L 471.696071 22.901513 
L 472.640208 22.170104 
L 473.899058 21.568605 
L 475.472621 21.149394 
L 477.360896 20.922324 
L 480.193308 20.791742 
L 481.137446 20.790004 
L 481.137446 20.790004 
" style="fill:none;stroke:#ff7f00;stroke-linecap:round;stroke-width:2;"/>
   </g>
   <g id="line2d_17">
    <path clip-path="url(#p75d362129f)" d="M 292.402708 292.589927 
L 301.525792 292.471602 
L 303.631119 292.306191 
L 305.03467 291.967538 
L 306.087333 291.581778 
L 307.139997 290.975427 
L 307.841772 290.394393 
L 308.543548 289.527228 
L 309.245324 288.150805 
L 309.947099 286.158424 
L 310.648875 283.422581 
L 311.350651 279.592154 
L 312.052426 274.185723 
L 312.754202 266.397229 
L 313.455978 255.683028 
L 314.157753 241.915454 
L 315.210417 215.860955 
L 316.613968 174.77315 
L 319.42107 89.818466 
L 320.473734 66.639952 
L 321.17551 55.096329 
L 321.877285 46.405122 
L 322.579061 39.84561 
L 323.280837 34.63101 
L 323.982612 30.653261 
L 324.684388 27.858873 
L 325.386163 25.901839 
L 326.087939 24.417398 
L 326.789715 23.305463 
L 327.49149 22.524525 
L 328.193266 22.003403 
L 329.245929 21.536761 
L 331.000369 21.020421 
L 332.40392 20.902 
L 336.965462 20.79 
L 336.965462 20.79 
" style="fill:none;stroke:#1f78b4;stroke-linecap:round;stroke-width:2;"/>
   </g>
   <g id="line2d_18">
    <path clip-path="url(#p75d362129f)" d="M 310.331032 292.589885 
L 319.641127 292.50865 
L 322.744492 292.248466 
L 324.813402 291.790328 
L 325.847857 291.400315 
L 326.882312 290.853867 
L 327.916768 290.106944 
L 328.951223 289.112572 
L 329.985678 287.824474 
L 331.020133 286.201132 
L 332.054588 284.209381 
L 333.089043 281.826695 
L 334.123498 279.041765 
L 335.157953 275.853671 
L 337.226863 268.308434 
L 339.295773 259.355679 
L 341.364683 249.314705 
L 354.812599 180.093681 
L 359.984874 152.022125 
L 364.122694 129.724225 
L 367.226059 114.409359 
L 369.29497 105.187346 
L 372.398335 92.635729 
L 375.5017 81.053052 
L 378.605065 70.266276 
L 380.673975 63.696397 
L 382.742885 57.733776 
L 384.811795 52.386999 
L 386.880705 47.643272 
L 388.949616 43.492809 
L 391.018526 39.889103 
L 393.087436 36.742991 
L 395.156346 33.973459 
L 397.225256 31.54052 
L 399.294166 29.437857 
L 401.363076 27.670907 
L 403.431986 26.226431 
L 405.500896 25.054528 
L 407.569806 24.091776 
L 410.673172 22.960853 
L 412.742082 22.404269 
L 415.845447 21.845561 
L 419.983267 21.439651 
L 427.224452 20.981145 
L 433.431183 20.813766 
L 441.706823 20.790009 
L 441.706823 20.790009 
" style="fill:none;stroke:#0000ff;stroke-linecap:round;stroke-width:2;"/>
   </g>
   <g id="line2d_19">
    <path clip-path="url(#p75d362129f)" d="M 156.602548 292.589878 
L 173.425762 292.481978 
L 181.190321 292.220152 
L 186.366695 291.79619 
L 190.248975 291.215981 
L 192.837161 290.613689 
L 195.425348 289.776978 
L 198.013535 288.658773 
L 200.601721 287.221604 
L 203.189908 285.451307 
L 205.778094 283.353938 
L 208.366281 280.923309 
L 210.954468 278.120004 
L 213.542654 274.879143 
L 216.130841 271.120683 
L 218.719028 266.771982 
L 221.307214 261.810926 
L 223.895401 256.269118 
L 226.483588 250.170045 
L 229.071774 243.483103 
L 231.659961 236.15883 
L 234.248147 228.200933 
L 238.130427 215.248625 
L 242.012707 201.285652 
L 245.894987 186.286785 
L 249.777267 170.259494 
L 257.541827 137.526414 
L 260.130014 127.446747 
L 262.7182 118.074319 
L 266.60048 105.081025 
L 275.659134 75.521099 
L 280.835507 58.362642 
L 283.423694 50.315019 
L 286.01188 43.027247 
L 288.600067 36.734502 
L 289.89416 34.007876 
L 291.188253 31.574023 
L 292.482347 29.435711 
L 293.77644 27.590165 
L 295.070533 26.028851 
L 296.364627 24.737271 
L 297.65872 23.69504 
L 298.952813 22.876475 
L 300.246907 22.251847 
L 301.541 21.789248 
L 304.129187 21.22475 
L 306.717373 20.96287 
L 310.599653 20.826234 
L 320.9524 20.790023 
L 320.9524 20.790023 
" style="fill:none;stroke:#000000;stroke-linecap:round;stroke-width:2;"/>
   </g>
   <g id="line2d_20">
    <path clip-path="url(#p75d362129f)" d="M 75.319264 292.589927 
L 96.427788 292.488101 
L 106.278432 292.152644 
L 114.721841 291.795754 
L 118.943546 291.374064 
L 123.165251 290.674683 
L 125.979721 290.031043 
L 128.79419 289.159001 
L 131.60866 287.949063 
L 134.42313 286.332193 
L 137.2376 284.272108 
L 140.05207 281.737373 
L 142.866539 278.69971 
L 144.273774 276.959986 
L 145.681009 275.035363 
L 147.088244 272.89127 
L 148.495479 270.495823 
L 149.902714 267.821007 
L 151.309949 264.838902 
L 152.717184 261.51877 
L 154.124419 257.830236 
L 155.531654 253.751752 
L 156.938889 249.278162 
L 159.753358 239.204006 
L 162.567828 227.770808 
L 165.382298 215.065904 
L 168.196768 201.110659 
L 172.418473 178.404002 
L 180.861882 131.074274 
L 185.083587 108.033918 
L 187.898057 93.969796 
L 190.712526 81.065891 
L 193.526996 69.491043 
L 196.341466 59.45594 
L 197.748701 55.024504 
L 199.155936 50.972469 
L 200.563171 47.287742 
L 201.970406 43.952017 
L 203.377641 40.939893 
L 204.784875 38.223549 
L 206.19211 35.779338 
L 207.599345 33.591281 
L 209.00658 31.650086 
L 210.413815 29.949661 
L 211.82105 28.483229 
L 213.228285 27.239815 
L 214.63552 26.201604 
L 216.042755 25.343273 
L 218.857225 24.043367 
L 221.671694 23.113837 
L 224.486164 22.413787 
L 228.707869 21.657201 
L 232.929574 21.184911 
L 237.151278 20.946942 
L 244.187453 20.814653 
L 254.038097 20.79 
L 254.038097 20.79 
" style="fill:none;stroke:#e31a1c;stroke-linecap:round;stroke-width:2;"/>
   </g>
   <g id="line2d_21">
    <path clip-path="url(#p75d362129f)" d="M 224.563419 306.18 
L 224.563419 7.2 
" style="fill:none;stroke:#33a02c;stroke-dasharray:8.4,3.6;stroke-dashoffset:0;stroke-width:3;"/>
   </g>
   <g id="patch_3">
    <path d="M 55.028355 306.18 
L 55.028355 7.2 
" style="fill:none;"/>
   </g>
   <g id="patch_4">
    <path d="M 501.428355 306.18 
L 501.428355 7.2 
" style="fill:none;"/>
   </g>
   <g id="patch_5">
    <path d="M 55.028355 306.18 
L 501.428355 306.18 
" style="fill:none;"/>
   </g>
   <g id="patch_6">
    <path d="M 55.028355 7.2 
L 501.428355 7.2 
" style="fill:none;"/>
   </g>
   <g id="legend_1">
    <g id="line2d_22">
     <path d="M 67.628355 24.7 
L 95.628355 24.7 
" style="fill:none;stroke:#33a02c;stroke-linecap:round;stroke-width:2;"/>
    </g>
    <g id="line2d_23"/>
    <g id="text_17">
     <!-- actual -->
     <g style="fill:#262626;" transform="translate(106.828355 29.6)scale(0.14 -0.14)">
      <use transform="scale(0.996264)" xlink:href="#Computer_Modern_Bright-97"/>
      <use transform="translate(46.492082 0)scale(0.996264)" xlink:href="#Computer_Modern_Bright-99"/>
      <use transform="translate(91.32375 0)scale(0.996264)" xlink:href="#Computer_Modern_Bright-116"/>
      <use transform="translate(127.438138 0)scale(0.996264)" xlink:href="#Computer_Modern_Bright-117"/>
      <use transform="translate(175.590635 0)scale(0.996264)" xlink:href="#Computer_Modern_Bright-97"/>
      <use transform="translate(222.082717 0)scale(0.996264)" xlink:href="#Computer_Modern_Bright-108"/>
     </g>
    </g>
    <g id="line2d_24">
     <path d="M 67.628355 43.824611 
L 95.628355 43.824611 
" style="fill:none;stroke:#ff7f00;stroke-linecap:round;stroke-width:2;"/>
    </g>
    <g id="line2d_25"/>
    <g id="text_18">
     <!-- Additive -->
     <defs>
      <path d="M 2.09375 0.09375 
L 6.59375 0.09375 
L 8.40625 0.296875 
C 11.40625 6.796875 13.5 14.203125 16.203125 21 
C 26.09375 21 36.90625 21 46.296875 21 
L 47.09375 19.6875 
C 48.796875 14.546875 50.796875 9.59375 52.59375 4.546875 
C 53.09375 3.015625 53.59375 1.515625 54.40625 0.296875 
C 56.59375 0 59.203125 0 61.59375 0 
C 59.90625 4.90625 36.703125 67.203125 36 68.890625 
C 35.90625 69.296875 35.703125 69.890625 35.203125 70 
C 34.59375 70.09375 34 70 33.40625 70 
L 30.09375 70 
C 28.59375 70 28 70.1875 27.59375 68.609375 
C 27.203125 67.59375 2.09375 0.09375 2.09375 0.09375 
M 31.40625 63.171875 
C 35.59375 50.71875 40.09375 38.46875 44.5 26.21875 
L 18.203125 26.21875 
L 26.90625 50.109375 
z
" id="Computer_Modern_Bright-65"/>
      <path d="M 35.59375 69.6875 
L 35.59375 41.375 
C 33.703125 43.484375 31.796875 45.484375 29.203125 46.6875 
C 20.296875 50.40625 11.703125 45.59375 7.296875 37.65625 
C 2.203125 28.21875 2.796875 15.765625 8.90625 6.921875 
C 13.203125 0.796875 20.296875 -2.203125 27.796875 0.5 
C 30.703125 1.609375 34.203125 4.515625 35.40625 7.125 
L 35.5 7.125 
L 35.5 0 
L 41.90625 0 
L 41.90625 69.6875 
z
M 35.203125 37.453125 
C 35.703125 36.546875 35.5 35.34375 35.5 34.34375 
L 35.5 13.65625 
C 35.5 11.34375 35.40625 11.140625 34.09375 9.34375 
C 32.296875 6.625 29.5 4.71875 26.203125 4.421875 
C 21.40625 4.015625 16.5 6.328125 13.703125 10.25 
C 12.09375 12.546875 11.203125 15.359375 10.703125 18.171875 
C 10.5 19.28125 10.5 20.28125 10.40625 21.390625 
C 9.796875 28.015625 11.203125 35.84375 17 40.0625 
C 18 40.765625 19.09375 41.265625 20.203125 41.765625 
C 26 43.984375 32.40625 43.375 35.203125 37.453125 
" id="Computer_Modern_Bright-100"/>
     </defs>
     <g style="fill:#262626;" transform="translate(106.828355 48.724611)scale(0.14 -0.14)">
      <use transform="scale(0.996264)" xlink:href="#Computer_Modern_Bright-65"/>
      <use transform="translate(63.511618 0)scale(0.996264)" xlink:href="#Computer_Modern_Bright-100"/>
      <use transform="translate(111.664115 0)scale(0.996264)" xlink:href="#Computer_Modern_Bright-100"/>
      <use transform="translate(159.816612 0)scale(0.996264)" xlink:href="#Computer_Modern_Bright-105"/>
      <use transform="translate(178.911571 0)scale(0.996264)" xlink:href="#Computer_Modern_Bright-116"/>
      <use transform="translate(215.025959 0)scale(0.996264)" xlink:href="#Computer_Modern_Bright-105"/>
      <use transform="translate(234.120917 0)scale(0.996264)" xlink:href="#Computer_Modern_Bright-118"/>
      <use transform="translate(276.461955 0)scale(0.996264)" xlink:href="#Computer_Modern_Bright-101"/>
     </g>
    </g>
    <g id="line2d_26">
     <path d="M 67.628355 62.949222 
L 95.628355 62.949222 
" style="fill:none;stroke:#1f78b4;stroke-linecap:round;stroke-width:2;"/>
    </g>
    <g id="line2d_27"/>
    <g id="text_19">
     <!-- Unbranched -->
     <defs>
      <path d="M 8 69.5 
L 8 32.75 
C 8 25.71875 7.203125 18.390625 10.703125 11.96875 
C 12.90625 7.84375 16.09375 4.4375 20.09375 2.125 
C 29.90625 -3.609375 43.5 -2.203125 51.296875 6.4375 
C 54.796875 10.359375 57.296875 15.171875 57.796875 21.796875 
C 57.90625 23.40625 57.796875 24.921875 57.796875 26.515625 
L 57.796875 69.5 
L 51.40625 69.5 
L 51.40625 25.90625 
C 51.40625 24.59375 51.5 23.1875 51.40625 21.890625 
C 51.203125 18.890625 50.59375 15.921875 49.40625 13.25 
C 43.90625 1 25 1 18 11.890625 
C 14.203125 17.78125 15 25.0625 15 31.65625 
L 15 69.5 
z
" id="Computer_Modern_Bright-85"/>
      <path d="M 6.40625 69.6875 
L 6.40625 0 
L 12.796875 0 
L 12.796875 6.328125 
L 12.90625 6.328125 
C 14 4.109375 16.5 2.015625 18.59375 0.90625 
C 25.796875 -2.90625 34.40625 0.90625 39.09375 7.03125 
C 48.59375 19.578125 44.796875 40.875 32.296875 46.796875 
C 27.40625 49 21.5 48 17.09375 44.984375 
C 15.40625 43.78125 14 42.375 12.703125 40.765625 
L 12.703125 69.6875 
z
M 21.90625 42.984375 
C 26.59375 43.375 31.5 41.265625 34.296875 37.453125 
C 36.203125 34.9375 37.203125 31.9375 37.703125 28.8125 
C 38.703125 21.484375 37.90625 12.25 31.40625 7.4375 
C 30.296875 6.625 29.09375 6.03125 27.796875 5.515625 
C 22.40625 3.515625 17 4.109375 14 8.84375 
C 13.09375 10.4375 12.796875 10.546875 12.796875 12.953125 
L 12.796875 33.734375 
C 12.796875 34.75 12.59375 35.953125 13 36.859375 
C 14.59375 40.171875 18.296875 42.671875 21.90625 42.984375 
" id="Computer_Modern_Bright-98"/>
      <path d="M 12.5 34.75 
L 12.40625 34.75 
L 12.40625 47.390625 
L 6.40625 47.390625 
L 6.40625 0 
L 12.703125 0 
L 12.703125 22.890625 
C 12.703125 24.40625 12.703125 25.90625 12.90625 27.40625 
C 14.296875 35.953125 21.703125 42.28125 31.40625 42.28125 
L 31.40625 48 
C 25 48 19.09375 44.890625 15.296875 39.765625 
C 14.203125 38.265625 13 36.546875 12.5 34.75 
" id="Computer_Modern_Bright-114"/>
      <path d="M 6.40625 69.6875 
L 6.40625 0 
L 12.796875 0 
L 12.796875 21.984375 
C 12.796875 26.90625 12.5 31.9375 14.703125 36.546875 
C 15.796875 38.859375 17.5 40.875 19.796875 42.078125 
C 21.703125 42.984375 23.703125 42.984375 25.796875 42.78125 
C 28.796875 42.78125 31.703125 41.984375 33.59375 39.453125 
C 35.40625 37.140625 35.5 34.140625 35.5 31.3125 
L 35.5 0 
L 41.90625 0 
L 41.90625 27.21875 
C 41.90625 32.234375 42.40625 37.75 39.90625 42.28125 
C 37.90625 45.6875 34.40625 47.296875 30.703125 47.796875 
C 28.703125 48 26.703125 48 24.703125 47.703125 
C 21.09375 47.015625 18 45.03125 15.59375 42.34375 
C 14.5 41.046875 13.203125 39.46875 12.796875 37.765625 
L 12.703125 37.765625 
L 12.703125 69.6875 
z
" id="Computer_Modern_Bright-104"/>
     </defs>
     <g style="fill:#262626;" transform="translate(106.828355 67.849222)scale(0.14 -0.14)">
      <use transform="scale(0.996264)" xlink:href="#Computer_Modern_Bright-85"/>
      <use transform="translate(65.587132 0)scale(0.996264)" xlink:href="#Computer_Modern_Bright-110"/>
      <use transform="translate(113.739629 0)scale(0.996264)" xlink:href="#Computer_Modern_Bright-98"/>
      <use transform="translate(158.986397 0)scale(0.996264)" xlink:href="#Computer_Modern_Bright-114"/>
      <use transform="translate(190.949756 0)scale(0.996264)" xlink:href="#Computer_Modern_Bright-97"/>
      <use transform="translate(237.441838 0)scale(0.996264)" xlink:href="#Computer_Modern_Bright-110"/>
      <use transform="translate(285.594335 0)scale(0.996264)" xlink:href="#Computer_Modern_Bright-99"/>
      <use transform="translate(330.426003 0)scale(0.996264)" xlink:href="#Computer_Modern_Bright-104"/>
      <use transform="translate(378.5785 0)scale(0.996264)" xlink:href="#Computer_Modern_Bright-101"/>
      <use transform="translate(423.410167 0)scale(0.996264)" xlink:href="#Computer_Modern_Bright-100"/>
     </g>
    </g>
    <g id="line2d_28">
     <path d="M 67.628355 82.073833 
L 95.628355 82.073833 
" style="fill:none;stroke:#0000ff;stroke-linecap:round;stroke-width:2;"/>
    </g>
    <g id="line2d_29"/>
    <g id="text_20">
     <!-- \emph{rhy-1} $&gt;$ \emph{hif-1} -->
     <defs>
      <path d="M 19.90625 35.53125 
L 19.796875 35.53125 
L 22.40625 48.15625 
L 16.40625 48.15625 
L 6.40625 0.5 
L 10.90625 0.5 
C 11.40625 0.5 12.203125 0.296875 12.59375 0.703125 
C 12.90625 0.90625 13.5 4.4375 13.796875 5.65625 
L 16.703125 19.578125 
C 17.5 23.109375 18 26.859375 19.59375 30.1875 
C 23.40625 37.84375 31.90625 43 40.40625 43 
L 41.5 48.765625 
C 34.90625 48.765625 28.59375 45.421875 24 40.78125 
C 22.5 39.265625 20.90625 37.453125 19.90625 35.53125 
M 19.703125 34.953125 
C 19.703125 34.953125 19.796875 34.953125 19.796875 34.953125 
C 19.796875 34.859375 19.703125 34.75 19.703125 34.953125 
" id="Computer_Modern_Bright_Slanted-114"/>
      <path d="M 21.09375 70 
L 6.40625 0 
L 10.90625 0 
C 11.796875 0 13 -0.296875 13 1.015625 
C 13.203125 1.71875 13.296875 2.328125 13.40625 3.03125 
C 14.40625 7.78125 19 29.5 19.296875 30.40625 
C 20.40625 33.953125 22.40625 37.375 25.09375 39.90625 
C 28 42.4375 31.203125 43.84375 36.59375 42.9375 
C 38.796875 42.53125 40.90625 41.625 42 39.5 
C 43.5 36.46875 42.40625 32.9375 41.796875 29.90625 
L 35.5 0 
L 40.203125 0 
C 41.203125 0 42.09375 -0.203125 42.09375 1.109375 
C 42.703125 3.125 44.09375 10.625 44.09375 10.625 
L 48.59375 32 
C 49.40625 35.734375 50.296875 40.40625 48.203125 43.9375 
C 46.296875 46.984375 42.90625 48 39.59375 48.296875 
C 38.09375 48.296875 36.5 48.296875 35 48 
C 30.796875 47.3125 27.09375 45.09375 24.09375 42.09375 
C 22.90625 40.890625 21.5 39.59375 20.796875 37.984375 
L 20.703125 37.984375 
L 27.40625 70 
z
" id="Computer_Modern_Bright_Slanted-104"/>
      <path d="M 10.703125 48 
C 11.203125 44.265625 12 40.625 12.703125 36.890625 
C 13.09375 34.359375 19 0.8125 19 0.515625 
C 19 -0.09375 18.59375 -0.59375 18.296875 -1.109375 
L 16.59375 -4.140625 
C 14.703125 -7.265625 12.796875 -10.5 9 -11.8125 
C 6 -12.71875 0.5 -11.40625 -1.5 -10.796875 
C -1.796875 -12.625 -2 -14.53125 -2.203125 -16.453125 
C 0.5 -16.859375 5.40625 -17.46875 8.09375 -16.96875 
C 15.203125 -15.34375 19.203125 -8.671875 22.5 -3.21875 
L 44.09375 34.359375 
L 49.203125 43.359375 
C 50.09375 44.859375 51.203125 46.375 51.796875 48 
C 49.703125 48 47.40625 48 45.59375 47.703125 
C 43.203125 44.078125 41.203125 40.046875 38.90625 36.21875 
C 33.59375 26.4375 27.703125 17.359375 23.203125 6.78125 
L 23.09375 6.78125 
C 23.40625 8.390625 23.09375 10.109375 22.90625 11.734375 
C 21.796875 22.546875 18.59375 39.71875 17.09375 48 
z
" id="Computer_Modern_Bright_Slanted-121"/>
      <path d="M 5.90625 26.0625 
L 4.90625 21 
L 32.796875 21 
L 33.796875 26.0625 
z
" id="Computer_Modern_Bright_Slanted-45"/>
      <path d="M 22.5 61 
L 21.5 55.9375 
C 26.296875 55.9375 31.40625 56.546875 35.703125 58.875 
L 24.5 5.046875 
C 20.296875 5.046875 15.296875 5.5625 11.5 5.046875 
C 10.90625 3.578125 10.703125 1.671875 10.296875 0 
C 21.09375 0 32.59375 0 42.796875 0 
C 43.40625 1.453125 43.703125 3.296875 44.09375 5.046875 
L 31 5.046875 
C 35.203125 26.0625 39.796875 46.59375 44.09375 67.5 
C 41.703125 67.5 42 67.09375 40 65.59375 
C 35.59375 62.59375 28.90625 61 22.5 61 
" id="Computer_Modern_Bright_Slanted-49"/>
      <path d="M 62.59375 26.546875 
L 62.59375 26.34375 
C 60.296875 25.546875 58 24.25 55.796875 23.140625 
L 27.09375 9.625 
L 11.09375 2 
C 10.40625 1.703125 9.40625 1.296875 8.90625 0.796875 
C 8 -0.203125 8.203125 -1.703125 9.296875 -2.296875 
C 10.5 -3 11.703125 -2.109375 12.796875 -1.609375 
L 21 2.203125 
C 25.203125 4.3125 55 18.328125 55 18.328125 
L 66 23.546875 
C 67.296875 24.140625 69.40625 24.75 69.40625 26.453125 
C 69.40625 28.15625 67.296875 28.75 66 29.359375 
L 55 34.5625 
L 33.703125 44.6875 
C 29.5 46.6875 25.203125 48.59375 21 50.703125 
L 12.796875 54.5 
C 11.703125 55 10.5 55.90625 9.296875 55.203125 
C 8.203125 54.609375 8 53.09375 8.90625 52.09375 
C 9.40625 51.59375 10.40625 51.203125 11.09375 50.890625 
L 41.59375 36.46875 
L 55.796875 29.75 
C 58 28.65625 60.296875 27.359375 62.59375 26.546875 
" id="Computer_Modern_Bright_Math_Slanted-62"/>
      <path d="M 19.796875 64 
L 26.09375 64 
L 27.40625 70.359375 
C 25.296875 70.359375 23 70.359375 21.203125 70.046875 
C 20.5 68.265625 20.203125 66.09375 19.796875 64 
M 16.40625 47.890625 
L 6.40625 0 
C 8.5 0 10.796875 0 12.59375 0.296875 
L 13 1.40625 
L 22.703125 47.890625 
z
" id="Computer_Modern_Bright_Slanted-105"/>
      <path d="M 12 48.046875 
L 11 43 
L 19.59375 43 
C 16.5 29 13.59375 14.59375 10.59375 0.5 
C 12.703125 0.5 15 0.5 16.796875 0.796875 
L 17.09375 1.5 
C 19.296875 12.25 21.703125 22.703125 23.90625 33.4375 
C 24.703125 36.453125 25 39.984375 26 42.796875 
L 27 43 
L 38.296875 43 
L 39.296875 48.046875 
L 26.796875 48.046875 
C 27.703125 50.9375 28.09375 54.03125 28.703125 56.921875 
C 29 58.21875 29.09375 59.703125 29.796875 60.90625 
C 30.703125 62.609375 32.5 63.703125 34.203125 64.5 
C 37.703125 66 41.5 66 45.203125 65.4375 
C 46.59375 65.265625 47.90625 64.796875 49.203125 64.609375 
L 50.296875 70.234375 
C 46.703125 70.75 42.90625 71.15625 39.296875 70.75 
C 34.203125 70.03125 29.5 67.546875 26.09375 63.734375 
C 23.40625 60.640625 22.703125 58.046875 21.703125 53.34375 
C 21.59375 52.4375 21 48.546875 20.40625 48.25 
C 19.90625 47.84375 18.703125 48.046875 18.09375 48.046875 
z
" id="Computer_Modern_Bright_Slanted-102"/>
     </defs>
     <g style="fill:#262626;" transform="translate(106.828355 86.973833)scale(0.14 -0.14)">
      <use transform="scale(0.996264)" xlink:href="#Computer_Modern_Bright_Slanted-114"/>
      <use transform="translate(31.963359 0)scale(0.996264)" xlink:href="#Computer_Modern_Bright_Slanted-104"/>
      <use transform="translate(80.115856 0)scale(0.996264)" xlink:href="#Computer_Modern_Bright_Slanted-121"/>
      <use transform="translate(122.456894 0)scale(0.996264)" xlink:href="#Computer_Modern_Bright_Slanted-45"/>
      <use transform="translate(155.665567 0)scale(0.996264)" xlink:href="#Computer_Modern_Bright_Slanted-49"/>
      <use transform="translate(248.750337 0)scale(0.996264)" xlink:href="#Computer_Modern_Bright_Math_Slanted-62"/>
      <use transform="translate(357.703017 0)scale(0.996264)" xlink:href="#Computer_Modern_Bright_Slanted-104"/>
      <use transform="translate(405.855514 0)scale(0.996264)" xlink:href="#Computer_Modern_Bright_Slanted-105"/>
      <use transform="translate(424.950473 0)scale(0.996264)" xlink:href="#Computer_Modern_Bright_Slanted-102"/>
      <use transform="translate(455.253417 0)scale(0.996264)" xlink:href="#Computer_Modern_Bright_Slanted-45"/>
      <use transform="translate(488.46209 0)scale(0.996264)" xlink:href="#Computer_Modern_Bright_Slanted-49"/>
     </g>
    </g>
    <g id="line2d_30">
     <path d="M 67.628355 101.198444 
L 95.628355 101.198444 
" style="fill:none;stroke:#000000;stroke-linecap:round;stroke-width:2;"/>
    </g>
    <g id="line2d_31"/>
    <g id="text_21">
     <!-- \emph{hif-1} $&gt;$ \emph{rhy-1} -->
     <g style="fill:#262626;" transform="translate(106.828355 106.098444)scale(0.14 -0.14)">
      <use transform="scale(0.996264)" xlink:href="#Computer_Modern_Bright_Slanted-104"/>
      <use transform="translate(48.152497 0)scale(0.996264)" xlink:href="#Computer_Modern_Bright_Slanted-105"/>
      <use transform="translate(67.247456 0)scale(0.996264)" xlink:href="#Computer_Modern_Bright_Slanted-102"/>
      <use transform="translate(97.5504 0)scale(0.996264)" xlink:href="#Computer_Modern_Bright_Slanted-45"/>
      <use transform="translate(130.759074 0)scale(0.996264)" xlink:href="#Computer_Modern_Bright_Slanted-49"/>
      <use transform="translate(223.843844 0)scale(0.996264)" xlink:href="#Computer_Modern_Bright_Math_Slanted-62"/>
      <use transform="translate(332.796523 0)scale(0.996264)" xlink:href="#Computer_Modern_Bright_Slanted-114"/>
      <use transform="translate(364.759882 0)scale(0.996264)" xlink:href="#Computer_Modern_Bright_Slanted-104"/>
      <use transform="translate(412.912379 0)scale(0.996264)" xlink:href="#Computer_Modern_Bright_Slanted-121"/>
      <use transform="translate(455.253417 0)scale(0.996264)" xlink:href="#Computer_Modern_Bright_Slanted-45"/>
      <use transform="translate(488.46209 0)scale(0.996264)" xlink:href="#Computer_Modern_Bright_Slanted-49"/>
     </g>
    </g>
    <g id="line2d_32">
     <path d="M 67.628355 120.323055 
L 95.628355 120.323055 
" style="fill:none;stroke:#e31a1c;stroke-linecap:round;stroke-width:2;"/>
    </g>
    <g id="line2d_33"/>
    <g id="text_22">
     <!-- Suppression -->
     <defs>
      <path d="M 5.09375 13.015625 
C 4.90625 11.390625 4.5 9.671875 4.296875 8.046875 
C 4.09375 6.53125 3.59375 6.109375 4.90625 5.3125 
C 8.296875 3.390625 11.203125 2.0625 15.40625 0.75 
C 24.796875 -2 35.59375 -2 43.796875 4.140625 
C 45.09375 5.140625 46.296875 6.234375 47.40625 7.53125 
C 49.90625 10.890625 52.203125 14.96875 51.59375 20.53125 
C 50.90625 27.671875 46.09375 33.625 39.59375 36.609375 
C 30.703125 40.578125 16.203125 40.578125 12.203125 49.375 
C 9.09375 56.1875 14.59375 62.171875 20.796875 64.375 
C 26.90625 66.6875 34.90625 65.78125 40.09375 63.375 
C 42.5 62.265625 44.5 60.65625 46.703125 59.25 
C 46.90625 60.96875 47.296875 62.578125 47.59375 64.28125 
C 47.796875 65.375 48.09375 66.390625 46.90625 66.78125 
L 45 67.796875 
C 42.296875 69 39.5 69.90625 36.59375 70.5 
C 27.59375 72.203125 17.203125 71.203125 10.40625 64.484375 
C 7 61.0625 4.09375 56.4375 5.296875 49.515625 
C 6.703125 42.390625 12.296875 37.875 18.09375 35.65625 
C 21.5 34.359375 25.296875 33.65625 28.90625 32.75 
C 31 32.34375 33.203125 31.84375 35.296875 31.140625 
C 40.703125 29.125 45.40625 25.109375 45.40625 17.6875 
C 44.796875 11.296875 39.203125 6.625 33.296875 5.203125 
C 25.703125 3.265625 16.703125 6.015625 11.5 8.75 
C 9.203125 9.96875 7.203125 11.59375 5.09375 13.015625 
" id="Computer_Modern_Bright-83"/>
     </defs>
     <g style="fill:#262626;" transform="translate(106.828355 125.223055)scale(0.14 -0.14)">
      <use transform="scale(0.996264)" xlink:href="#Computer_Modern_Bright-83"/>
      <use transform="translate(56.454753 0)scale(0.996264)" xlink:href="#Computer_Modern_Bright-117"/>
      <use transform="translate(104.60725 0)scale(0.996264)" xlink:href="#Computer_Modern_Bright-112"/>
      <use transform="translate(152.759747 0)scale(0.996264)" xlink:href="#Computer_Modern_Bright-112"/>
      <use transform="translate(198.006514 0)scale(0.996264)" xlink:href="#Computer_Modern_Bright-114"/>
      <use transform="translate(229.969873 0)scale(0.996264)" xlink:href="#Computer_Modern_Bright-101"/>
      <use transform="translate(274.801541 0)scale(0.996264)" xlink:href="#Computer_Modern_Bright-115"/>
      <use transform="translate(313.24057 0)scale(0.996264)" xlink:href="#Computer_Modern_Bright-115"/>
      <use transform="translate(351.679599 0)scale(0.996264)" xlink:href="#Computer_Modern_Bright-105"/>
      <use transform="translate(370.774558 0)scale(0.996264)" xlink:href="#Computer_Modern_Bright-111"/>
      <use transform="translate(421.417776 0)scale(0.996264)" xlink:href="#Computer_Modern_Bright-110"/>
     </g>
    </g>
   </g>
  </g>
 </g>
 <defs>
  <clipPath id="p75d362129f">
   <rect height="298.98" width="446.4" x="55.028355" y="7.2"/>
  </clipPath>
 </defs>
</svg>
