<?xml version="1.0" encoding="utf-8" standalone="no"?>
<!DOCTYPE svg PUBLIC "-//W3C//DTD SVG 1.1//EN"
  "http://www.w3.org/Graphics/SVG/1.1/DTD/svg11.dtd">
<!-- Created with matplotlib (http://matplotlib.org/) -->
<svg height="353pt" version="1.1" viewBox="0 0 503 353" width="503pt" xmlns="http://www.w3.org/2000/svg" xmlns:xlink="http://www.w3.org/1999/xlink">
 <defs>
  <style type="text/css">
*{stroke-linecap:butt;stroke-linejoin:round;}
  </style>
 </defs>
 <g id="figure_1">
  <g id="patch_1">
   <path d="M 0 353.548374 
L 503.979163 353.548374 
L 503.979163 0 
L 0 0 
z
" style="fill:#ffffff;"/>
  </g>
  <g id="axes_1">
   <g id="patch_2">
    <path d="M 50.379163 306.18 
L 496.779163 306.18 
L 496.779163 7.2 
L 50.379163 7.2 
z
" style="fill:#eaeaf2;"/>
   </g>
   <g id="matplotlib.axis_1">
    <g id="xtick_1">
     <g id="line2d_1"/>
     <g id="text_1">
      <!-- $-1.0$ -->
      <defs>
       <path d="M 9.796875 28.078125 
C 8 27.484375 7.796875 24.78125 9.796875 24.28125 
C 10.296875 24.078125 10.90625 24.1875 11.5 24.1875 
L 64.703125 24.1875 
C 65.90625 24.1875 67.796875 23.78125 68.796875 24.78125 
C 69.90625 25.875 69.296875 27.875 67.703125 28.1875 
C 66.5 28.375 65.09375 28.1875 63.90625 28.1875 
L 11.40625 28.1875 
C 10.90625 28.1875 10.296875 28.28125 9.796875 28.078125 
" id="Computer_Modern_Bright_Math_Symbols-0"/>
       <path d="M 9.703125 60.015625 
L 9.703125 55 
C 15.203125 55 19 56 23.40625 57.90625 
L 23.40625 5.015625 
L 10.296875 5.015625 
L 10.296875 0 
L 43 0 
L 43 5.015625 
L 29.90625 5.015625 
L 29.90625 67 
C 27.5 67 27.90625 66.359375 26 64.875 
C 21.90625 61.71875 16.203125 60.015625 9.703125 60.015625 
" id="Computer_Modern_Bright-49"/>
       <path d="M 10.703125 7.8125 
L 10.703125 0 
L 18.5 0 
L 18.5 7.8125 
z
" id="Computer_Modern_Bright_Math_Slanted-58"/>
       <path d="M 14.796875 63.859375 
C 11.90625 61.859375 9.90625 59.140625 8.40625 56.03125 
C 4.796875 49 4.40625 40.765625 4.40625 31.828125 
C 4.40625 20.578125 6.40625 10.25 12 4.3125 
C 17.296875 -1.203125 25.703125 -2.609375 32.796875 0.296875 
C 37.203125 2.015625 40.40625 5.71875 42.40625 9.734375 
C 46 16.875 46.40625 25.40625 46.40625 34.234375 
C 46.40625 37.046875 46.296875 39.859375 46 42.671875 
C 45.296875 49.40625 43 56.828125 39.296875 60.953125 
C 33.203125 67.6875 22.296875 69.1875 14.796875 63.859375 
M 34.90625 58.140625 
C 39.59375 53.125 40 43.484375 40 34.34375 
L 40 28.921875 
C 40 24.296875 39.203125 18.28125 38.203125 14.859375 
C 36.796875 10.140625 34.5 6.734375 29.90625 4.625 
C 24.296875 2.609375 18.5 4.515625 15.296875 8.9375 
C 11 14.65625 10.796875 24.796875 10.796875 33.734375 
C 10.796875 42.171875 10.90625 51.515625 15 57.03125 
C 19.5 63.0625 29.203125 64.0625 34.90625 58.140625 
" id="Computer_Modern_Bright-48"/>
      </defs>
      <g style="fill:#262626;" transform="translate(73.31225 324.249603)scale(0.16 -0.16)">
       <use transform="scale(0.996264)" xlink:href="#Computer_Modern_Bright_Math_Symbols-0"/>
       <use transform="translate(77.487468 0)scale(0.996264)" xlink:href="#Computer_Modern_Bright-49"/>
       <use transform="translate(128.130685 0)scale(0.996264)" xlink:href="#Computer_Modern_Bright_Math_Slanted-58"/>
       <use transform="translate(157.188132 0)scale(0.996264)" xlink:href="#Computer_Modern_Bright-48"/>
      </g>
     </g>
    </g>
    <g id="xtick_2">
     <g id="line2d_2"/>
     <g id="text_2">
      <!-- $-0.8$ -->
      <defs>
       <path d="M 18.703125 36 
L 18.703125 35.90625 
C 12.5 34.09375 7.296875 30.6875 4.796875 24.84375 
C 2.203125 18.71875 4 11.28125 8.40625 6.453125 
C 13.09375 1.421875 19.5 -1 26.296875 -1 
C 36.296875 -1 45.90625 6.40625 47.09375 16.734375 
C 47.296875 18.265625 47.203125 19.890625 47 21.40625 
C 45.203125 29.21875 39.5 33.875 32.09375 35.90625 
C 32.90625 36.203125 33.796875 36.40625 34.59375 36.703125 
C 38.796875 38.421875 42.296875 40.921875 44.5 44.9375 
C 47.796875 51.375 44.59375 58.90625 39.203125 63.015625 
C 33.796875 67.140625 26.5 68.234375 19.90625 66.828125 
C 12 65.125 4.5 58.40625 5 49.765625 
C 5.203125 46.75 6.5 44.234375 8 42.4375 
C 10.296875 39.625 14.796875 36.609375 18.703125 36 
M 23.796875 62.5 
C 28.203125 62.5 33.703125 62 36.90625 58.578125 
C 40.703125 54.46875 40.90625 47.03125 37.09375 42.8125 
C 34.703125 40.203125 31.203125 38.890625 27.703125 38.59375 
C 22.796875 38.1875 17.203125 39 13.703125 42.8125 
C 9.796875 47.125 10.09375 54.96875 14.296875 58.984375 
C 16.90625 61.390625 20.40625 62.1875 23.796875 62.5 
M 23.703125 33.5 
C 28.40625 33.5 33.5 32.390625 36.90625 28.9375 
C 38.203125 27.53125 39.203125 25.8125 39.796875 24.015625 
C 41.5 18.75 40.703125 12.09375 36.796875 8.046875 
C 34.09375 5.328125 30.40625 4.3125 26.703125 4.015625 
C 22.203125 4.015625 17 5.109375 13.796875 8.5625 
C 9.40625 13.390625 8.5 23.40625 13.703125 29.0625 
C 16.296875 31.78125 20 33.203125 23.703125 33.5 
" id="Computer_Modern_Bright-56"/>
      </defs>
      <g style="fill:#262626;" transform="translate(149.148268 324.249603)scale(0.16 -0.16)">
       <use transform="scale(0.996264)" xlink:href="#Computer_Modern_Bright_Math_Symbols-0"/>
       <use transform="translate(77.487468 0)scale(0.996264)" xlink:href="#Computer_Modern_Bright-48"/>
       <use transform="translate(128.130685 0)scale(0.996264)" xlink:href="#Computer_Modern_Bright_Math_Slanted-58"/>
       <use transform="translate(157.188132 0)scale(0.996264)" xlink:href="#Computer_Modern_Bright-56"/>
      </g>
     </g>
    </g>
    <g id="xtick_3">
     <g id="line2d_3"/>
     <g id="text_3">
      <!-- $-0.6$ -->
      <defs>
       <path d="M 11.296875 32.625 
L 11.203125 32.625 
C 11.203125 41.765625 12.796875 52.421875 20.59375 58.25 
C 24.90625 61.375 30.703125 62.96875 38.203125 61.171875 
C 39.796875 60.765625 41.296875 60.15625 42.796875 59.765625 
L 42.796875 63.28125 
C 42.796875 63.671875 42.90625 64.375 42.59375 64.78125 
C 41.90625 65.6875 36.296875 66.59375 36.09375 66.59375 
C 27.40625 67.59375 21.703125 65.6875 16.40625 61.171875 
C 10 55.640625 6.296875 47.515625 5.09375 39.28125 
C 4 32.65625 4.90625 22 6.203125 16.78125 
C 8.296875 9.046875 12.296875 2.21875 19.703125 -0.390625 
C 24.09375 -2 29.5 -2 33.703125 0.015625 
C 37.09375 1.640625 39.90625 4.46875 42.09375 7.5 
C 45.59375 12.34375 46.5 18.21875 46.09375 24.171875 
C 45.90625 27.109375 45.5 30.046875 44.296875 32.765625 
C 42.40625 37.125 39.203125 41.671875 35.09375 43.6875 
C 33.203125 44.5 31.203125 44.5 29.203125 44.5 
C 23.90625 44.5 18.90625 42.1875 15.203125 38.359375 
C 13.59375 36.75 12 34.71875 11.296875 32.625 
M 24.40625 39.515625 
C 28.203125 39.8125 32.203125 39.21875 35.09375 36.5 
C 38.90625 32.890625 39.59375 27.765625 39.59375 22.8125 
C 39.59375 19.46875 39.703125 16.015625 38.703125 12.859375 
C 38.09375 11.234375 37.296875 9.828125 36.40625 8.5 
C 34.203125 5.5625 31.40625 4.125 26.796875 3.515625 
C 22.296875 3.515625 17.796875 5.3125 15.203125 9.125 
C 13.59375 11.328125 12.796875 14.046875 12.296875 16.640625 
C 11.703125 19.34375 11.296875 22.140625 11.5 24.859375 
C 12 31.984375 17 38.515625 24.40625 39.515625 
" id="Computer_Modern_Bright-54"/>
      </defs>
      <g style="fill:#262626;" transform="translate(224.984286 324.249603)scale(0.16 -0.16)">
       <use transform="scale(0.996264)" xlink:href="#Computer_Modern_Bright_Math_Symbols-0"/>
       <use transform="translate(77.487468 0)scale(0.996264)" xlink:href="#Computer_Modern_Bright-48"/>
       <use transform="translate(128.130685 0)scale(0.996264)" xlink:href="#Computer_Modern_Bright_Math_Slanted-58"/>
       <use transform="translate(157.188132 0)scale(0.996264)" xlink:href="#Computer_Modern_Bright-54"/>
      </g>
     </g>
    </g>
    <g id="xtick_4">
     <g id="line2d_4"/>
     <g id="text_4">
      <!-- $-0.4$ -->
      <defs>
       <path d="M 2.09375 18 
L 31 18 
L 31 0 
L 37.296875 0 
L 37.296875 18 
L 48.703125 18 
L 48.703125 23.328125 
L 37.296875 23.328125 
L 37.296875 66.46875 
L 31.90625 66.46875 
C 30.09375 66.46875 29.59375 66.578125 28.796875 65.0625 
C 24.796875 58.515625 3.703125 25.765625 3 24.859375 
C 2.203125 23.4375 2.09375 23.546875 2.09375 21.4375 
z
M 31.296875 60.875 
L 31.296875 23.328125 
L 8.59375 23.328125 
C 9.296875 24.734375 10.296875 26.03125 11.203125 27.4375 
C 16.203125 35.171875 28.09375 53.546875 30.59375 59.28125 
C 30.90625 59.78125 31 60.375 31.296875 60.875 
" id="Computer_Modern_Bright-52"/>
      </defs>
      <g style="fill:#262626;" transform="translate(300.820304 324.249603)scale(0.16 -0.16)">
       <use transform="scale(0.996264)" xlink:href="#Computer_Modern_Bright_Math_Symbols-0"/>
       <use transform="translate(77.487468 0)scale(0.996264)" xlink:href="#Computer_Modern_Bright-48"/>
       <use transform="translate(128.130685 0)scale(0.996264)" xlink:href="#Computer_Modern_Bright_Math_Slanted-58"/>
       <use transform="translate(157.188132 0)scale(0.996264)" xlink:href="#Computer_Modern_Bright-52"/>
      </g>
     </g>
    </g>
    <g id="xtick_5">
     <g id="line2d_5"/>
     <g id="text_5">
      <!-- $-0.2$ -->
      <defs>
       <path d="M 7.296875 45.96875 
C 8.703125 51.59375 11.09375 57.984375 16.796875 60.5 
C 19.203125 61.5 21.796875 61.703125 24.40625 61.5 
C 29.296875 61.09375 34.09375 59.09375 37.09375 55.09375 
C 39.296875 52.078125 40.09375 48.375 39.703125 44.78125 
C 38.5 34.34375 28.296875 26.84375 21.703125 21.234375 
C 17.90625 18.03125 7.09375 7.8125 7.09375 7.8125 
L 5.40625 6.203125 
C 4.5 5.3125 4.40625 5.3125 4.40625 3.5 
L 4.40625 0 
L 46.40625 0 
L 46.40625 5.625 
L 10.203125 5.625 
C 13.40625 8.734375 26.703125 20.515625 28.5 21.921875 
C 34.296875 26.65625 40.796875 31.375 44.296875 38.21875 
C 48.203125 46.0625 46.5 55.9375 39.90625 61.765625 
C 35.90625 65.296875 30.40625 67 25.09375 67 
C 20.203125 67 15.203125 66 11.296875 62.90625 
C 8.296875 60.390625 5.796875 56.6875 4.40625 52.875 
C 4.09375 52.28125 3.59375 51.28125 3.703125 50.578125 
C 3.796875 49.984375 4.40625 49.484375 4.703125 49.078125 
C 5.5 48.078125 6.296875 46.875 7.296875 45.96875 
" id="Computer_Modern_Bright-50"/>
      </defs>
      <g style="fill:#262626;" transform="translate(376.656321 324.249603)scale(0.16 -0.16)">
       <use transform="scale(0.996264)" xlink:href="#Computer_Modern_Bright_Math_Symbols-0"/>
       <use transform="translate(77.487468 0)scale(0.996264)" xlink:href="#Computer_Modern_Bright-48"/>
       <use transform="translate(128.130685 0)scale(0.996264)" xlink:href="#Computer_Modern_Bright_Math_Slanted-58"/>
       <use transform="translate(157.188132 0)scale(0.996264)" xlink:href="#Computer_Modern_Bright-50"/>
      </g>
     </g>
    </g>
    <g id="xtick_6">
     <g id="line2d_6"/>
     <g id="text_6">
      <!-- $0.0$ -->
      <g style="fill:#262626;" transform="translate(458.691337 324.249603)scale(0.16 -0.16)">
       <use transform="scale(0.996264)" xlink:href="#Computer_Modern_Bright-48"/>
       <use transform="translate(50.643218 0)scale(0.996264)" xlink:href="#Computer_Modern_Bright_Math_Slanted-58"/>
       <use transform="translate(79.700665 0)scale(0.996264)" xlink:href="#Computer_Modern_Bright-48"/>
      </g>
     </g>
    </g>
    <g id="text_7">
     <!-- Epistasis Coefficient -->
     <defs>
      <path d="M 8 69.328125 
L 8 0 
L 55.40625 0 
L 55.40625 5.625 
L 15 5.625 
L 15 33.671875 
L 51.09375 33.671875 
L 51.09375 39 
L 15 39 
L 15 64 
L 54 64 
L 54 69.328125 
z
" id="Computer_Modern_Bright-69"/>
      <path d="M 12.703125 40.53125 
L 12.703125 47.15625 
L 6.40625 47.15625 
L 6.40625 -17 
L 12.796875 -17 
L 12.796875 6.09375 
C 14.203125 4.078125 15.796875 2.28125 17.90625 1.078125 
C 25 -3.25 34 0.171875 38.90625 6.59375 
C 45.40625 14.96875 46.09375 27.5 41.59375 36.984375 
C 39 42.4375 34.09375 47.5 27.796875 48 
C 22.296875 48 18.09375 45.8125 15.09375 43.125 
C 14.203125 42.328125 13.5 41.4375 12.703125 40.53125 
M 21.90625 42.875 
C 26 43.171875 30 41.265625 32.796875 38.265625 
C 34.5 36.34375 35.796875 34.140625 36.59375 31.734375 
C 40.09375 22.296875 36.90625 9.234375 26.796875 5.328125 
C 21 3.109375 15.296875 5.125 13.09375 10.546875 
C 12.59375 11.546875 12.796875 12.859375 12.796875 13.953125 
L 12.796875 34.640625 
C 12.796875 36.953125 13 37.15625 14.5 38.859375 
C 16.296875 41.0625 19 42.578125 21.90625 42.875 
" id="Computer_Modern_Bright-112"/>
      <path d="M 6.40625 70 
L 6.40625 63.671875 
L 12.703125 63.671875 
L 12.703125 70 
z
M 6.40625 47.390625 
L 6.40625 0 
L 12.703125 0 
L 12.703125 47.390625 
z
" id="Computer_Modern_Bright-105"/>
      <path d="M 3.09375 9.640625 
C 2.90625 8.234375 2.59375 6.9375 2.40625 5.53125 
C 2.203125 4.421875 1.90625 3.921875 2.90625 3.421875 
C 7 1.015625 11.90625 -0.296875 17.703125 -0.796875 
C 24.203125 -1.40625 32.40625 0.109375 35.59375 6.53125 
C 36.5 8.34375 37 10.34375 37.09375 12.359375 
C 37.5 19.578125 31.796875 24.203125 26.90625 25.90625 
C 21.40625 28.015625 13.90625 27.3125 10.09375 31.53125 
C 8.09375 33.84375 8 37.265625 9.90625 39.671875 
C 13.90625 45.296875 26.796875 42.875 31.90625 40.375 
C 32.703125 39.96875 33.40625 39.46875 34.296875 39.265625 
L 35.203125 44.6875 
C 30.5 46.796875 26.40625 48 19.90625 48 
C 14.296875 48 9.203125 46.703125 6 43.484375 
C 2.796875 40.171875 1.703125 34.640625 3.59375 30.4375 
C 5.40625 26.40625 9.203125 23.796875 13.296875 22.5 
C 19.203125 20.390625 25.90625 21.390625 29.796875 16.578125 
C 32 13.765625 31.59375 9.546875 29.09375 7.03125 
C 24.296875 2.609375 14.09375 4.21875 8.5 6.625 
C 6.59375 7.4375 4.90625 8.640625 3.09375 9.640625 
" id="Computer_Modern_Bright-115"/>
      <path d="M 10.796875 60.5 
L 10.796875 47.015625 
L 1.09375 47.015625 
L 1.09375 42 
L 10.703125 42 
L 10.703125 15.015625 
C 10.703125 10.578125 10.40625 5.234375 13.296875 1.515625 
C 15 -0.703125 17.296875 -1.296875 20.796875 -1 
C 23.703125 -1 26.59375 -0.390625 29.296875 0.65625 
C 30.203125 1.0625 33.5 2.515625 33.90625 3.234375 
C 34.09375 3.640625 32.796875 8.09375 32.796875 8.09375 
L 30.40625 6.265625 
C 27.296875 4.34375 21.09375 2.328125 18.5 5.96875 
C 16.203125 9.09375 16.796875 13.75 16.796875 17.375 
L 16.796875 42 
L 32.296875 42 
L 32.296875 47.015625 
L 16.796875 47.015625 
L 16.796875 60.5 
z
" id="Computer_Modern_Bright-116"/>
      <path d="M 7.90625 39.015625 
C 9.59375 39.859375 11 41.09375 12.703125 41.921875 
C 15.40625 43.15625 18.203125 44 21.203125 44 
C 22.59375 44.09375 24.203125 44.296875 25.59375 44 
C 28.09375 43.59375 30.296875 42.078125 31.796875 39.953125 
C 33.296875 37.515625 33.90625 35.390625 33.90625 31.46875 
L 33.90625 27.015625 
C 29.09375 27.015625 24.296875 26.609375 19.703125 25.390625 
C 13.90625 24.078125 7.59375 21.125 5.5 15.84375 
C 3.40625 10.78125 5.59375 4.078125 10.09375 1.03125 
C 12.296875 -0.5 14.90625 -0.5 17.5 -0.296875 
C 21.703125 0 25.90625 1.015625 29.5 3.25 
C 31.203125 4.25 32.90625 5.578125 33.90625 7.296875 
L 34 7.296875 
L 34 0.203125 
L 40.296875 0.203125 
L 40.296875 26.890625 
C 40.296875 29.8125 40.59375 32.953125 40 35.890625 
C 39.40625 39.921875 36.90625 43.265625 34 45.59375 
C 30.59375 48.21875 26.703125 49.109375 21.5 48.71875 
C 16.703125 48.71875 13 47.5 9.40625 45.765625 
C 8.90625 45.5625 7.90625 45.234375 7.59375 44.640625 
C 7.296875 44.21875 7.5 43.515625 7.5 43 
C 7.703125 41.671875 7.796875 40.34375 7.90625 39.015625 
M 33.90625 24 
L 33.90625 16.375 
C 33.90625 14.0625 34 11.953125 32.703125 9.953125 
C 31.59375 8.34375 30.09375 7.234375 28.5 6.4375 
C 22.796875 3.515625 14.09375 4.421875 11.59375 9.25 
C 9.59375 12.75 11.703125 16.875 14.59375 19.1875 
C 18.90625 22.5 27.296875 24 33.90625 24 
" id="Computer_Modern_Bright-97"/>
      <path d="M 60.5 10.875 
C 58.5 9.859375 56.703125 8.453125 54.703125 7.453125 
C 50 5.046875 44 4.140625 37.5 4.734375 
C 31.703125 5.546875 26.90625 8.359375 23.40625 11.875 
C 12.203125 23.15625 11.40625 42.96875 21.296875 55.34375 
C 25.5 60.875 31.90625 65 41.296875 65 
C 45.09375 65 49 64.296875 52.5 62.890625 
C 54.59375 61.96875 56.59375 60.765625 58.59375 59.765625 
L 59.796875 66.8125 
C 57.59375 67.671875 55.296875 68.5625 53 69.09375 
C 47.40625 70.625 38.90625 70.625 33.09375 69.21875 
C 22.90625 66.921875 15.5 59.828125 11.296875 51.625 
C 5.5 40.015625 6.203125 25.515625 13.203125 14.59375 
C 15 11.703125 17.296875 9.109375 19.90625 6.890625 
C 25.90625 1.6875 33.296875 -1.3125 43.59375 -0.5 
C 49.796875 -0.5 53.40625 0.515625 58.203125 3.203125 
C 58.703125 3.5 60.59375 4.515625 60.90625 4.9375 
C 61.09375 5.4375 60.59375 9.53125 60.5 10.875 
" id="Computer_Modern_Bright-67"/>
      <path d="M 10.703125 42.078125 
C 1.796875 33.234375 0.796875 17.875 8.5 7.9375 
C 9.59375 6.421875 10.90625 5.125 12.40625 4.015625 
C 16.09375 1 21.5 -1.203125 27.796875 -0.5 
C 37.796875 0.703125 44.703125 8.84375 46.796875 17.375 
C 49.59375 29.328125 43.703125 42.671875 32.703125 46.890625 
C 24.09375 50.40625 15.5 46.890625 10.703125 42.078125 
M 35.703125 39.359375 
C 40.5 35.03125 41.40625 28.109375 41 21.984375 
C 40.703125 17.265625 39.40625 12.34375 36.09375 8.828125 
C 30.703125 3 20.703125 3 14.90625 8.625 
C 11.90625 11.84375 10.09375 16.453125 9.796875 21.984375 
C 9.296875 30.109375 11.296875 38.75 19.296875 41.96875 
C 25.203125 44.578125 32 42.671875 35.703125 39.359375 
" id="Computer_Modern_Bright-111"/>
      <path d="M 41.796875 10.9375 
C 39.5 9.234375 38.796875 8.328125 35.90625 6.8125 
C 29.796875 3.5 22.59375 3.5 17.40625 7.171875 
C 12.40625 10.765625 9.5 16.640625 9.5 25 
L 42.5 25 
C 42.5 32.421875 40.796875 38.859375 36.59375 43.375 
C 32 47.890625 24.796875 49.296875 18.703125 47.390625 
C 16.40625 46.6875 14.296875 45.484375 12.40625 43.96875 
C 6.09375 38.859375 3.40625 30.71875 3.5 22.78125 
C 3.703125 12.34375 10.796875 1.90625 21.296875 -0.3125 
C 26.796875 -1.421875 32.59375 -0.203125 37.5 2.296875 
C 38.40625 2.796875 41.703125 4.609375 42.09375 5.515625 
C 42.40625 6.015625 41.796875 10.9375 41.796875 10.9375 
M 37.203125 28.90625 
L 10 28.90625 
C 11.203125 36.234375 17.203125 43.96875 25.296875 43.0625 
C 31.90625 42.46875 35.40625 37.75 36.703125 31.828125 
C 36.90625 30.8125 37 29.921875 37.203125 28.90625 
" id="Computer_Modern_Bright-101"/>
      <path d="M 10.59375 47.015625 
L 2 47.015625 
L 2 42 
L 10.59375 42 
L 10.59375 0 
L 16.90625 0 
L 16.90625 42 
L 30.09375 42 
L 30.09375 47.015625 
L 16.796875 47.015625 
L 16.796875 56.234375 
C 16.796875 57.890625 16.59375 59.65625 17.296875 61.21875 
C 19.5 65.875 25.40625 65.875 29.59375 65.078125 
C 30.59375 64.875 31.703125 64.46875 32.703125 64.265625 
L 32.703125 69.90625 
C 27.703125 70.609375 22.296875 71.21875 17.703125 68.46875 
C 15.796875 67.4375 14.203125 65.6875 13 63.921875 
C 11.09375 60.9375 10.59375 58.78125 10.59375 53.71875 
z
M 38.09375 0 
L 44.40625 0 
L 44.40625 42 
L 57.59375 42 
L 57.59375 47.015625 
L 44.296875 47.015625 
L 44.296875 55.234375 
C 44.296875 56.890625 44.09375 58.65625 44.40625 60.328125 
C 44.90625 62.296875 46.09375 63.65625 47.703125 64.671875 
C 50.796875 66.171875 54.40625 65.078125 57.59375 64.171875 
L 57.59375 70 
C 55.09375 70.1875 52.703125 70.6875 50.203125 70.5 
C 43.40625 70 38.59375 64.046875 38.09375 57.3125 
C 38 55.890625 38.09375 54.375 38.09375 52.96875 
z
M 65.59375 70 
L 65.59375 63.671875 
L 71.90625 63.671875 
L 71.90625 70 
z
M 65.59375 47.390625 
L 65.59375 0 
L 71.90625 0 
L 71.90625 47.390625 
z
" id="Computer_Modern_Bright-14"/>
      <path d="M 42.40625 11.25 
C 40.5 9.84375 38.796875 8.328125 36.703125 7.125 
C 32 4.625 24.796875 3.421875 19.40625 5.921875 
C 11.59375 9.9375 9.5 19.6875 10.59375 27.71875 
C 10.796875 29.328125 11.09375 30.921875 11.59375 32.4375 
C 13.796875 38.96875 19.296875 44.078125 28.296875 43.078125 
C 33.09375 42.671875 35.5 41.875 39.296875 39.765625 
C 40 39.359375 40.59375 38.859375 41.40625 38.65625 
C 41.5 39.859375 41.796875 41.171875 42 42.375 
C 42.296875 43.984375 42.296875 44.1875 40.796875 44.890625 
C 39.703125 45.390625 38.59375 45.984375 37.40625 46.390625 
C 32.796875 48.40625 25.203125 49 20 47.5 
C 12.90625 45.484375 7.59375 39.359375 5.296875 32.53125 
C 4.203125 29.421875 3.90625 26.109375 3.90625 22.796875 
C 4 12.25 11.203125 1.90625 21.703125 -0.203125 
C 27.5 -1.40625 34.203125 0.296875 38.203125 2.40625 
C 39.203125 2.90625 42.203125 4.71875 42.703125 5.625 
C 43 6.125 42.40625 11.25 42.40625 11.25 
" id="Computer_Modern_Bright-99"/>
      <path d="M 12.59375 37.28125 
L 12.5 37.28125 
L 12.5 47.390625 
L 6.40625 47.390625 
L 6.40625 0 
L 12.796875 0 
L 12.796875 21.9375 
C 12.796875 26.84375 12.5 31.875 14.703125 36.46875 
C 15.796875 38.78125 17.5 40.78125 19.796875 41.984375 
C 21.703125 42.890625 23.703125 42.890625 25.796875 42.6875 
C 28.796875 42.6875 31.703125 41.890625 33.59375 39.375 
C 35.40625 37.0625 35.5 34.0625 35.5 31.25 
L 35.5 0 
L 41.90625 0 
L 41.90625 26.859375 
C 41.90625 31.875 42.40625 37.375 40 41.890625 
C 38.09375 45.5 34.40625 47.203125 30.5 47.703125 
C 28.5 48 26.40625 48 24.40625 47.609375 
C 19.203125 46.5 14.40625 42.296875 12.59375 37.28125 
" id="Computer_Modern_Bright-110"/>
     </defs>
     <g style="fill:#262626;" transform="translate(201.022873 343.359582)scale(0.18 -0.18)">
      <use transform="scale(0.996264)" xlink:href="#Computer_Modern_Bright-69"/>
      <use transform="translate(58.737787 0)scale(0.996264)" xlink:href="#Computer_Modern_Bright-112"/>
      <use transform="translate(106.890284 0)scale(0.996264)" xlink:href="#Computer_Modern_Bright-105"/>
      <use transform="translate(125.985243 0)scale(0.996264)" xlink:href="#Computer_Modern_Bright-115"/>
      <use transform="translate(164.424272 0)scale(0.996264)" xlink:href="#Computer_Modern_Bright-116"/>
      <use transform="translate(200.53866 0)scale(0.996264)" xlink:href="#Computer_Modern_Bright-97"/>
      <use transform="translate(247.030742 0)scale(0.996264)" xlink:href="#Computer_Modern_Bright-115"/>
      <use transform="translate(285.469772 0)scale(0.996264)" xlink:href="#Computer_Modern_Bright-105"/>
      <use transform="translate(304.56473 0)scale(0.996264)" xlink:href="#Computer_Modern_Bright-115"/>
      <use transform="translate(374.468971 0)scale(0.996264)" xlink:href="#Computer_Modern_Bright-67"/>
      <use transform="translate(439.641004 0)scale(0.996264)" xlink:href="#Computer_Modern_Bright-111"/>
      <use transform="translate(490.284222 0)scale(0.996264)" xlink:href="#Computer_Modern_Bright-101"/>
      <use transform="translate(535.115889 0)scale(0.996264)" xlink:href="#Computer_Modern_Bright-14"/>
      <use transform="translate(613.156322 0)scale(0.996264)" xlink:href="#Computer_Modern_Bright-99"/>
      <use transform="translate(657.987989 0)scale(0.996264)" xlink:href="#Computer_Modern_Bright-105"/>
      <use transform="translate(677.082948 0)scale(0.996264)" xlink:href="#Computer_Modern_Bright-101"/>
      <use transform="translate(721.914616 0)scale(0.996264)" xlink:href="#Computer_Modern_Bright-110"/>
      <use transform="translate(770.067113 0)scale(0.996264)" xlink:href="#Computer_Modern_Bright-116"/>
     </g>
    </g>
   </g>
   <g id="matplotlib.axis_2">
    <g id="ytick_1">
     <g id="line2d_7"/>
     <g id="text_8">
      <!-- $0$ -->
      <g style="fill:#262626;" transform="translate(35.010613 298.124802)scale(0.16 -0.16)">
       <use transform="scale(0.996264)" xlink:href="#Computer_Modern_Bright-48"/>
      </g>
     </g>
    </g>
    <g id="ytick_2">
     <g id="line2d_8"/>
     <g id="text_9">
      <!-- $20$ -->
      <g style="fill:#262626;" transform="translate(26.642062 234.159984)scale(0.16 -0.16)">
       <use transform="scale(0.996264)" xlink:href="#Computer_Modern_Bright-50"/>
       <use transform="translate(50.643218 0)scale(0.996264)" xlink:href="#Computer_Modern_Bright-48"/>
      </g>
     </g>
    </g>
    <g id="ytick_3">
     <g id="line2d_9"/>
     <g id="text_10">
      <!-- $40$ -->
      <g style="fill:#262626;" transform="translate(26.642062 170.195167)scale(0.16 -0.16)">
       <use transform="scale(0.996264)" xlink:href="#Computer_Modern_Bright-52"/>
       <use transform="translate(50.643218 0)scale(0.996264)" xlink:href="#Computer_Modern_Bright-48"/>
      </g>
     </g>
    </g>
    <g id="ytick_4">
     <g id="line2d_10"/>
     <g id="text_11">
      <!-- $60$ -->
      <g style="fill:#262626;" transform="translate(26.642062 106.23035)scale(0.16 -0.16)">
       <use transform="scale(0.996264)" xlink:href="#Computer_Modern_Bright-54"/>
       <use transform="translate(50.643218 0)scale(0.996264)" xlink:href="#Computer_Modern_Bright-48"/>
      </g>
     </g>
    </g>
    <g id="ytick_5">
     <g id="line2d_11"/>
     <g id="text_12">
      <!-- $80$ -->
      <g style="fill:#262626;" transform="translate(26.642062 42.265532)scale(0.16 -0.16)">
       <use transform="scale(0.996264)" xlink:href="#Computer_Modern_Bright-56"/>
       <use transform="translate(50.643218 0)scale(0.996264)" xlink:href="#Computer_Modern_Bright-48"/>
      </g>
     </g>
    </g>
    <g id="text_13">
     <!-- Cumulative Density Function -->
     <defs>
      <path d="M 6.40625 47 
L 6.40625 12.96875 
C 6.40625 10.046875 6.5 7.140625 7.703125 4.421875 
C 9.59375 0.515625 13.59375 -1 17.703125 -1 
C 23.203125 -1 28.703125 0.8125 32.703125 4.734375 
C 33.796875 5.828125 34.796875 6.9375 35.5 8.34375 
L 35.59375 8.34375 
L 35.59375 -0.390625 
L 41.90625 -0.390625 
L 41.90625 47 
L 35.5 47 
L 35.5 22.90625 
C 35.5 18.6875 36.09375 14.0625 33.90625 10.25 
C 32.296875 7.4375 29.5 5.234375 26.40625 4.234375 
C 24.296875 3.625 22.09375 3.625 19.90625 3.828125 
C 17.796875 4.03125 15.5 4.234375 14.09375 6.03125 
C 12.09375 8.453125 12.796875 14.171875 12.796875 17.6875 
L 12.796875 47 
z
" id="Computer_Modern_Bright-117"/>
      <path d="M 12.59375 37.359375 
L 12.5 37.359375 
L 12.5 47.390625 
L 6.40625 47.390625 
L 6.40625 0 
L 12.796875 0 
L 12.796875 22.046875 
C 12.796875 26.953125 12.5 31.875 14.703125 36.375 
C 16.59375 40.28125 19.90625 43.390625 25.796875 42.78125 
C 28.796875 42.78125 31.796875 41.984375 33.703125 39.453125 
C 35.5 37.140625 35.59375 34.140625 35.59375 31.3125 
L 35.59375 0 
L 42 0 
L 42 22.046875 
C 42 26.953125 41.703125 31.875 43.90625 36.375 
C 45.796875 40.28125 49.09375 43.390625 55 42.78125 
C 58 42.78125 61 41.984375 62.90625 39.453125 
C 64.703125 37.140625 64.796875 34.140625 64.796875 31.3125 
L 64.796875 0 
L 71.203125 0 
L 71.203125 26.5625 
C 71.203125 31.375 71.796875 36.78125 69.703125 41.1875 
C 67.59375 45.296875 64.203125 47.5 58.703125 47.5 
C 55.5 47.796875 52.296875 47.3125 49.40625 45.84375 
C 45.90625 43.921875 43.296875 40.75 41.703125 37.265625 
C 41 40.578125 40.203125 42.828125 38 45 
C 35.703125 47.0625 32.59375 48 29.59375 48 
C 22.296875 48.59375 17.703125 45.5625 14.59375 41 
C 13.796875 39.875 13 38.671875 12.59375 37.359375 
" id="Computer_Modern_Bright-109"/>
      <path d="M 6.40625 69.6875 
L 6.40625 0 
L 12.703125 0 
L 12.703125 69.6875 
z
" id="Computer_Modern_Bright-108"/>
      <path d="M 0.703125 47.5 
C 1.203125 45.5 4.203125 37.578125 4.40625 37.078125 
C 5.40625 34.28125 17.296875 0.609375 17.59375 0.296875 
C 17.90625 -0.203125 18.796875 0 19.296875 0 
L 22.796875 0 
C 24.09375 0 24.90625 -0.296875 25.203125 0.90625 
C 28.40625 9.328125 40.09375 42.703125 41.796875 47.5 
L 35.59375 47.5 
C 30.796875 33.984375 25.90625 20.4375 21.40625 6.609375 
L 11 36.203125 
C 9.5 39.796875 8.59375 43.890625 6.90625 47.203125 
C 5.09375 47.5 2.796875 47.5 0.703125 47.5 
" id="Computer_Modern_Bright-118"/>
      <path d="M 8 70 
L 8 0 
L 28.203125 0 
C 31.40625 0 34.59375 0 37.703125 0.296875 
C 45.703125 1.109375 52.59375 5.015625 57.203125 9.828125 
C 70.09375 23.171875 70 46.125 57.296875 59.671875 
C 52.703125 64.578125 46.5 68.5 38.703125 69.5 
C 34.90625 70 31 70 27.203125 70 
z
M 14.90625 5.3125 
L 14.90625 64.5625 
L 27.796875 64.5625 
C 30.5 64.5625 33.203125 64.5625 35.90625 64.359375 
C 40.40625 63.859375 44.796875 62.359375 48.5 59.734375 
C 56.59375 54.125 60 44.171875 60 34.640625 
C 60 26.609375 57.796875 18.375 51.90625 12.640625 
C 47.90625 8.9375 42.5 6.21875 36 5.515625 
C 33.40625 5.3125 30.703125 5.3125 28.09375 5.3125 
z
" id="Computer_Modern_Bright-68"/>
      <path d="M 0.703125 47.65625 
C 1.296875 45.75 5.40625 35.609375 5.5 35.3125 
L 17.40625 4.578125 
L 18.40625 2.078125 
C 19 0.671875 19.203125 0.46875 18.59375 -1.140625 
L 17.5 -4.046875 
C 16.59375 -6.46875 15.59375 -8.96875 13.703125 -10.484375 
C 10.296875 -13.296875 4.90625 -11.6875 0.796875 -10.78125 
L 1.296875 -16.5 
C 3.203125 -16.796875 5.09375 -17 7 -17 
C 11.296875 -17.515625 14.09375 -16.5 16.703125 -14.296875 
C 20 -11.484375 21.59375 -7.5625 23.09375 -3.546875 
L 26.203125 5.078125 
L 36.40625 32.90625 
C 38.09375 37.921875 40.203125 42.640625 41.796875 47.65625 
L 37.296875 47.65625 
C 36.796875 47.65625 36 47.859375 35.59375 47.46875 
C 35.40625 47.15625 35.296875 46.765625 35.203125 46.453125 
L 34.40625 44.34375 
C 33.40625 41.734375 32.5 39.234375 31.59375 36.609375 
L 25.796875 20.25 
C 24.296875 15.828125 22.59375 11.3125 21.796875 6.6875 
C 20.703125 11.3125 19.203125 15.734375 17.59375 20.140625 
C 16.296875 23.5625 8.5 44.546875 7.5 46.5625 
C 7.09375 47.65625 6.703125 47.65625 5.203125 47.65625 
z
" id="Computer_Modern_Bright-121"/>
      <path d="M 8 69.328125 
L 8 0 
L 15 0 
L 15 32 
L 48.09375 32 
L 48.09375 37.3125 
L 15 37.3125 
L 15 64 
L 52.40625 64 
L 52.40625 69.328125 
z
" id="Computer_Modern_Bright-70"/>
     </defs>
     <g style="fill:#262626;" transform="translate(19.65327 260.669538)rotate(-90)scale(0.18 -0.18)">
      <use transform="scale(0.996264)" xlink:href="#Computer_Modern_Bright-67"/>
      <use transform="translate(65.172032 0)scale(0.996264)" xlink:href="#Computer_Modern_Bright-117"/>
      <use transform="translate(113.324529 0)scale(0.996264)" xlink:href="#Computer_Modern_Bright-109"/>
      <use transform="translate(190.534656 0)scale(0.996264)" xlink:href="#Computer_Modern_Bright-117"/>
      <use transform="translate(238.687153 0)scale(0.996264)" xlink:href="#Computer_Modern_Bright-108"/>
      <use transform="translate(257.782112 0)scale(0.996264)" xlink:href="#Computer_Modern_Bright-97"/>
      <use transform="translate(304.274194 0)scale(0.996264)" xlink:href="#Computer_Modern_Bright-116"/>
      <use transform="translate(340.388582 0)scale(0.996264)" xlink:href="#Computer_Modern_Bright-105"/>
      <use transform="translate(359.483541 0)scale(0.996264)" xlink:href="#Computer_Modern_Bright-118"/>
      <use transform="translate(401.824579 0)scale(0.996264)" xlink:href="#Computer_Modern_Bright-101"/>
      <use transform="translate(478.121458 0)scale(0.996264)" xlink:href="#Computer_Modern_Bright-68"/>
      <use transform="translate(549.727645 0)scale(0.996264)" xlink:href="#Computer_Modern_Bright-101"/>
      <use transform="translate(594.559312 0)scale(0.996264)" xlink:href="#Computer_Modern_Bright-110"/>
      <use transform="translate(642.711809 0)scale(0.996264)" xlink:href="#Computer_Modern_Bright-115"/>
      <use transform="translate(681.150839 0)scale(0.996264)" xlink:href="#Computer_Modern_Bright-105"/>
      <use transform="translate(700.245798 0)scale(0.996264)" xlink:href="#Computer_Modern_Bright-116"/>
      <use transform="translate(733.454456 0)scale(0.996264)" xlink:href="#Computer_Modern_Bright-121"/>
      <use transform="translate(807.260706 0)scale(0.996264)" xlink:href="#Computer_Modern_Bright-70"/>
      <use transform="translate(860.187034 0)scale(0.996264)" xlink:href="#Computer_Modern_Bright-117"/>
      <use transform="translate(908.339531 0)scale(0.996264)" xlink:href="#Computer_Modern_Bright-110"/>
      <use transform="translate(956.492028 0)scale(0.996264)" xlink:href="#Computer_Modern_Bright-99"/>
      <use transform="translate(1001.323695 0)scale(0.996264)" xlink:href="#Computer_Modern_Bright-116"/>
      <use transform="translate(1037.438083 0)scale(0.996264)" xlink:href="#Computer_Modern_Bright-105"/>
      <use transform="translate(1056.533042 0)scale(0.996264)" xlink:href="#Computer_Modern_Bright-111"/>
      <use transform="translate(1107.17626 0)scale(0.996264)" xlink:href="#Computer_Modern_Bright-110"/>
     </g>
    </g>
   </g>
   <g id="PolyCollection_1">
    <path clip-path="url(#pd08e97dc97)" d="M 70.670072 292.588252 
L 70.670072 292.59 
L 70.965692 292.59 
L 71.261312 292.59 
L 71.556932 292.59 
L 71.852552 292.59 
L 72.148172 292.59 
L 72.443792 292.59 
L 72.739412 292.59 
L 73.035032 292.59 
L 73.330652 292.59 
L 73.626272 292.59 
L 73.921892 292.59 
L 74.217512 292.59 
L 74.513132 292.59 
L 74.808752 292.59 
L 75.104372 292.59 
L 75.399992 292.59 
L 75.695612 292.59 
L 75.991232 292.59 
L 76.286852 292.59 
L 76.582472 292.59 
L 76.878092 292.59 
L 77.173712 292.59 
L 77.469332 292.59 
L 77.764952 292.59 
L 78.060572 292.59 
L 78.356192 292.59 
L 78.651812 292.59 
L 78.947432 292.59 
L 79.243052 292.59 
L 79.538672 292.59 
L 79.834292 292.59 
L 80.129912 292.59 
L 80.425532 292.59 
L 80.721152 292.59 
L 81.016772 292.59 
L 81.312392 292.59 
L 81.608012 292.59 
L 81.903632 292.59 
L 82.199252 292.59 
L 82.494872 292.59 
L 82.790492 292.59 
L 83.086112 292.59 
L 83.381732 292.59 
L 83.677352 292.59 
L 83.972972 292.59 
L 84.268592 292.59 
L 84.564212 292.59 
L 84.859832 292.59 
L 85.155452 292.59 
L 85.451072 292.59 
L 85.746692 292.59 
L 86.042312 292.59 
L 86.337932 292.59 
L 86.633552 292.59 
L 86.929172 292.59 
L 87.224792 292.59 
L 87.520412 292.59 
L 87.816032 292.59 
L 88.111652 292.59 
L 88.407272 292.59 
L 88.702892 292.59 
L 88.998512 292.59 
L 89.294132 292.59 
L 89.589752 292.59 
L 89.885372 292.59 
L 90.180992 292.59 
L 90.476612 292.59 
L 90.772232 292.59 
L 91.067852 292.59 
L 91.363472 292.59 
L 91.659092 292.59 
L 91.954711 292.59 
L 92.250331 292.59 
L 92.545951 292.59 
L 92.841571 292.59 
L 93.137191 292.59 
L 93.432811 292.59 
L 93.728431 292.59 
L 94.024051 292.59 
L 94.319671 292.59 
L 94.615291 292.59 
L 94.910911 292.59 
L 95.206531 292.59 
L 95.502151 292.59 
L 95.797771 292.59 
L 96.093391 292.59 
L 96.389011 292.59 
L 96.684631 292.59 
L 96.980251 292.59 
L 97.275871 292.59 
L 97.571491 292.59 
L 97.867111 292.59 
L 98.162731 292.59 
L 98.458351 292.59 
L 98.753971 292.59 
L 99.049591 292.59 
L 99.345211 292.59 
L 99.640831 292.59 
L 99.936451 292.59 
L 100.232071 292.59 
L 100.527691 292.59 
L 100.823311 292.59 
L 101.118931 292.59 
L 101.414551 292.59 
L 101.710171 292.59 
L 102.005791 292.59 
L 102.301411 292.59 
L 102.597031 292.59 
L 102.892651 292.59 
L 103.188271 292.59 
L 103.483891 292.59 
L 103.779511 292.59 
L 104.075131 292.59 
L 104.370751 292.59 
L 104.666371 292.59 
L 104.961991 292.59 
L 105.257611 292.59 
L 105.553231 292.59 
L 105.848851 292.59 
L 106.144471 292.59 
L 106.440091 292.59 
L 106.735711 292.59 
L 107.031331 292.59 
L 107.326951 292.59 
L 107.622571 292.59 
L 107.918191 292.59 
L 108.213811 292.59 
L 108.213811 292.588251 
L 108.213811 292.588251 
L 107.918191 292.586021 
L 107.622571 292.580243 
L 107.326951 292.568609 
L 107.031331 292.548736 
L 106.735711 292.519515 
L 106.440091 292.481884 
L 106.144471 292.437711 
L 105.848851 292.38702 
L 105.553231 292.326277 
L 105.257611 292.250634 
L 104.961991 292.159292 
L 104.666371 292.058848 
L 104.370751 291.959981 
L 104.075131 291.868739 
L 103.779511 291.779019 
L 103.483891 291.672301 
L 103.188271 291.52491 
L 102.892651 291.317133 
L 102.597031 291.036786 
L 102.301411 290.674369 
L 102.005791 290.215883 
L 101.710171 289.644759 
L 101.414551 288.956681 
L 101.118931 288.173809 
L 100.823311 287.337512 
L 100.527691 286.47521 
L 100.232071 285.563978 
L 99.936451 284.522355 
L 99.640831 283.241924 
L 99.345211 281.640591 
L 99.049591 279.704589 
L 98.753971 277.494535 
L 98.458351 275.114207 
L 98.162731 272.663332 
L 97.867111 270.200919 
L 97.571491 267.72993 
L 97.275871 265.195489 
L 96.980251 262.489079 
L 96.684631 259.46602 
L 96.389011 255.987203 
L 96.093391 251.976908 
L 95.797771 247.466424 
L 95.502151 242.594379 
L 95.206531 237.561521 
L 94.910911 232.565721 
L 94.615291 227.746674 
L 94.319671 223.150558 
L 94.024051 218.712298 
L 93.728431 214.26494 
L 93.432811 209.597398 
L 93.137191 204.557878 
L 92.841571 199.154227 
L 92.545951 193.590182 
L 92.250331 188.220965 
L 91.954711 183.464805 
L 91.659092 179.710373 
L 91.363472 177.227451 
L 91.067852 176.084597 
L 90.772232 176.114922 
L 90.476612 176.978597 
L 90.180992 178.306473 
L 89.885372 179.837497 
L 89.589752 181.468849 
L 89.294132 183.214801 
L 88.998512 185.139278 
L 88.702892 187.329402 
L 88.407272 189.914959 
L 88.111652 193.069483 
L 87.816032 196.929646 
L 87.520412 201.458423 
L 87.224792 206.367006 
L 86.929172 211.195086 
L 86.633552 215.529839 
L 86.337932 219.228091 
L 86.042312 222.493563 
L 85.746692 225.758221 
L 85.451072 229.445863 
L 85.155452 233.763418 
L 84.859832 238.630795 
L 84.564212 243.76133 
L 84.268592 248.817818 
L 83.972972 253.544553 
L 83.677352 257.813132 
L 83.381732 261.585681 
L 83.086112 264.852506 
L 82.790492 267.607725 
L 82.494872 269.879702 
L 82.199252 271.772803 
L 81.903632 273.462759 
L 81.608012 275.134891 
L 81.312392 276.910579 
L 81.016772 278.813641 
L 80.721152 280.787704 
L 80.425532 282.738426 
L 80.129912 284.571317 
L 79.834292 286.213569 
L 79.538672 287.621918 
L 79.243052 288.781818 
L 78.947432 289.702009 
L 78.651812 290.407309 
L 78.356192 290.931438 
L 78.060572 291.310944 
L 77.764952 291.581081 
L 77.469332 291.773822 
L 77.173712 291.916559 
L 76.878092 292.029525 
L 76.582472 292.122517 
L 76.286852 292.194737 
L 75.991232 292.24049 
L 75.695612 292.258086 
L 75.399992 292.255295 
L 75.104372 292.247149 
L 74.808752 292.248144 
L 74.513132 292.265032 
L 74.217512 292.295073 
L 73.921892 292.330162 
L 73.626272 292.363331 
L 73.330652 292.392962 
L 73.035032 292.422067 
L 72.739412 292.453975 
L 72.443792 292.488526 
L 72.148172 292.521897 
L 71.852552 292.549486 
L 71.556932 292.568816 
L 71.261312 292.580293 
L 70.965692 292.586031 
L 70.670072 292.588252 
z
" style="fill:#e31a1c;fill-opacity:0.25;"/>
   </g>
   <g id="PolyCollection_2">
    <path clip-path="url(#pd08e97dc97)" d="M 289.717618 292.586957 
L 289.717618 292.59 
L 289.920762 292.59 
L 290.123906 292.59 
L 290.327049 292.59 
L 290.530193 292.59 
L 290.733337 292.59 
L 290.936481 292.59 
L 291.139624 292.59 
L 291.342768 292.59 
L 291.545912 292.59 
L 291.749056 292.59 
L 291.952199 292.59 
L 292.155343 292.59 
L 292.358487 292.59 
L 292.56163 292.59 
L 292.764774 292.59 
L 292.967918 292.59 
L 293.171062 292.59 
L 293.374205 292.59 
L 293.577349 292.59 
L 293.780493 292.59 
L 293.983637 292.59 
L 294.18678 292.59 
L 294.389924 292.59 
L 294.593068 292.59 
L 294.796211 292.59 
L 294.999355 292.59 
L 295.202499 292.59 
L 295.405643 292.59 
L 295.608786 292.59 
L 295.81193 292.59 
L 296.015074 292.59 
L 296.218217 292.59 
L 296.421361 292.59 
L 296.624505 292.59 
L 296.827649 292.59 
L 297.030792 292.59 
L 297.233936 292.59 
L 297.43708 292.59 
L 297.640224 292.59 
L 297.843367 292.59 
L 298.046511 292.59 
L 298.249655 292.59 
L 298.452798 292.59 
L 298.655942 292.59 
L 298.859086 292.59 
L 299.06223 292.59 
L 299.265373 292.59 
L 299.468517 292.59 
L 299.671661 292.59 
L 299.874805 292.59 
L 300.077948 292.59 
L 300.281092 292.59 
L 300.484236 292.59 
L 300.687379 292.59 
L 300.890523 292.59 
L 301.093667 292.59 
L 301.296811 292.59 
L 301.499954 292.59 
L 301.703098 292.59 
L 301.906242 292.59 
L 302.109385 292.59 
L 302.312529 292.59 
L 302.515673 292.59 
L 302.718817 292.59 
L 302.92196 292.59 
L 303.125104 292.59 
L 303.328248 292.59 
L 303.531392 292.59 
L 303.734535 292.59 
L 303.937679 292.59 
L 304.140823 292.59 
L 304.343966 292.59 
L 304.54711 292.59 
L 304.750254 292.59 
L 304.953398 292.59 
L 305.156541 292.59 
L 305.359685 292.59 
L 305.562829 292.59 
L 305.765973 292.59 
L 305.969116 292.59 
L 306.17226 292.59 
L 306.375404 292.59 
L 306.578547 292.59 
L 306.781691 292.59 
L 306.984835 292.59 
L 307.187979 292.59 
L 307.391122 292.59 
L 307.594266 292.59 
L 307.79741 292.59 
L 308.000553 292.59 
L 308.203697 292.59 
L 308.406841 292.59 
L 308.609985 292.59 
L 308.813128 292.59 
L 309.016272 292.59 
L 309.219416 292.59 
L 309.42256 292.59 
L 309.625703 292.59 
L 309.828847 292.59 
L 310.031991 292.59 
L 310.235134 292.59 
L 310.438278 292.59 
L 310.641422 292.59 
L 310.844566 292.59 
L 311.047709 292.59 
L 311.250853 292.59 
L 311.453997 292.59 
L 311.657141 292.59 
L 311.860284 292.59 
L 312.063428 292.59 
L 312.266572 292.59 
L 312.469715 292.59 
L 312.672859 292.59 
L 312.876003 292.59 
L 313.079147 292.59 
L 313.28229 292.59 
L 313.485434 292.59 
L 313.688578 292.59 
L 313.891721 292.59 
L 314.094865 292.59 
L 314.298009 292.59 
L 314.501153 292.59 
L 314.704296 292.59 
L 314.90744 292.59 
L 315.110584 292.59 
L 315.313728 292.59 
L 315.516871 292.59 
L 315.516871 292.586958 
L 315.516871 292.586958 
L 315.313728 292.582704 
L 315.110584 292.571665 
L 314.90744 292.549959 
L 314.704296 292.515312 
L 314.501153 292.471157 
L 314.298009 292.42867 
L 314.094865 292.403125 
L 313.891721 292.405259 
L 313.688578 292.434106 
L 313.485434 292.477661 
L 313.28229 292.520716 
L 313.079147 292.552827 
L 312.876003 292.570585 
L 312.672859 292.574432 
L 312.469715 292.564345 
L 312.266572 292.538259 
L 312.063428 292.494327 
L 311.860284 292.434837 
L 311.657141 292.367551 
L 311.453997 292.301462 
L 311.250853 292.238884 
L 311.047709 292.169637 
L 310.844566 292.072087 
L 310.641422 291.922406 
L 310.438278 291.710951 
L 310.235134 291.459823 
L 310.031991 291.227586 
L 309.828847 291.087379 
L 309.625703 291.083392 
L 309.42256 291.194513 
L 309.219416 291.334015 
L 309.016272 291.384545 
L 308.813128 291.239333 
L 308.609985 290.823958 
L 308.406841 290.099774 
L 308.203697 289.065845 
L 308.000553 287.764226 
L 307.79741 286.272888 
L 307.594266 284.673176 
L 307.391122 283.005337 
L 307.187979 281.242796 
L 306.984835 279.302827 
L 306.781691 277.087439 
L 306.578547 274.534625 
L 306.375404 271.653592 
L 306.17226 268.522515 
L 305.969116 265.254103 
L 305.765973 261.955593 
L 305.562829 258.692818 
L 305.359685 255.448767 
L 305.156541 252.096489 
L 304.953398 248.437991 
L 304.750254 244.312991 
L 304.54711 239.692533 
L 304.343966 234.666714 
L 304.140823 229.338293 
L 303.937679 223.727917 
L 303.734535 217.774065 
L 303.531392 211.406857 
L 303.328248 204.618362 
L 303.125104 197.489717 
L 302.92196 190.181579 
L 302.718817 182.889132 
L 302.515673 175.762831 
L 302.312529 168.838602 
L 302.109385 162.038491 
L 301.906242 155.247074 
L 301.703098 148.400374 
L 301.499954 141.518073 
L 301.296811 134.670567 
L 301.093667 127.946729 
L 300.890523 121.501018 
L 300.687379 115.661549 
L 300.484236 110.946075 
L 300.281092 107.853306 
L 300.077948 106.545211 
L 299.874805 106.747948 
L 299.671661 108.041458 
L 299.468517 110.290759 
L 299.265373 113.787529 
L 299.06223 118.947192 
L 298.859086 125.834205 
L 298.655942 133.945087 
L 298.452798 142.45576 
L 298.249655 150.743227 
L 298.046511 158.755537 
L 297.843367 166.941911 
L 297.640224 175.834042 
L 297.43708 185.622703 
L 297.233936 196.008115 
L 297.030792 206.361407 
L 296.827649 216.045911 
L 296.624505 224.695368 
L 296.421361 232.307385 
L 296.218217 239.13318 
L 296.015074 245.460588 
L 295.81193 251.438171 
L 295.608786 257.04818 
L 295.405643 262.216118 
L 295.202499 266.92643 
L 294.999355 271.222562 
L 294.796211 275.114564 
L 294.593068 278.529665 
L 294.389924 281.378273 
L 294.18678 283.656602 
L 293.983637 285.466879 
L 293.780493 286.942875 
L 293.577349 288.169752 
L 293.374205 289.170364 
L 293.171062 289.947208 
L 292.967918 290.524609 
L 292.764774 290.955759 
L 292.56163 291.300051 
L 292.358487 291.596561 
L 292.155343 291.853907 
L 291.952199 292.060263 
L 291.749056 292.203842 
L 291.545912 292.288994 
L 291.342768 292.33739 
L 291.139624 292.37532 
L 290.936481 292.418751 
L 290.733337 292.468089 
L 290.530193 292.514493 
L 290.327049 292.54977 
L 290.123906 292.571628 
L 289.920762 292.582698 
L 289.717618 292.586957 
z
" style="fill:#0000ff;fill-opacity:0.25;"/>
   </g>
   <g id="PolyCollection_3">
    <path clip-path="url(#pd08e97dc97)" d="M 267.507493 292.587051 
L 267.507493 292.59 
L 267.687528 292.59 
L 267.867562 292.59 
L 268.047596 292.59 
L 268.227631 292.59 
L 268.407665 292.59 
L 268.587699 292.59 
L 268.767734 292.59 
L 268.947768 292.59 
L 269.127802 292.59 
L 269.307837 292.59 
L 269.487871 292.59 
L 269.667905 292.59 
L 269.84794 292.59 
L 270.027974 292.59 
L 270.208009 292.59 
L 270.388043 292.59 
L 270.568077 292.59 
L 270.748112 292.59 
L 270.928146 292.59 
L 271.10818 292.59 
L 271.288215 292.59 
L 271.468249 292.59 
L 271.648283 292.59 
L 271.828318 292.59 
L 272.008352 292.59 
L 272.188386 292.59 
L 272.368421 292.59 
L 272.548455 292.59 
L 272.728489 292.59 
L 272.908524 292.59 
L 273.088558 292.59 
L 273.268592 292.59 
L 273.448627 292.59 
L 273.628661 292.59 
L 273.808696 292.59 
L 273.98873 292.59 
L 274.168764 292.59 
L 274.348799 292.59 
L 274.528833 292.59 
L 274.708867 292.59 
L 274.888902 292.59 
L 275.068936 292.59 
L 275.24897 292.59 
L 275.429005 292.59 
L 275.609039 292.59 
L 275.789073 292.59 
L 275.969108 292.59 
L 276.149142 292.59 
L 276.329176 292.59 
L 276.509211 292.59 
L 276.689245 292.59 
L 276.869279 292.59 
L 277.049314 292.59 
L 277.229348 292.59 
L 277.409383 292.59 
L 277.589417 292.59 
L 277.769451 292.59 
L 277.949486 292.59 
L 278.12952 292.59 
L 278.309554 292.59 
L 278.489589 292.59 
L 278.669623 292.59 
L 278.849657 292.59 
L 279.029692 292.59 
L 279.209726 292.59 
L 279.38976 292.59 
L 279.569795 292.59 
L 279.749829 292.59 
L 279.929863 292.59 
L 280.109898 292.59 
L 280.289932 292.59 
L 280.469966 292.59 
L 280.650001 292.59 
L 280.830035 292.59 
L 281.010069 292.59 
L 281.190104 292.59 
L 281.370138 292.59 
L 281.550173 292.59 
L 281.730207 292.59 
L 281.910241 292.59 
L 282.090276 292.59 
L 282.27031 292.59 
L 282.450344 292.59 
L 282.630379 292.59 
L 282.810413 292.59 
L 282.990447 292.59 
L 283.170482 292.59 
L 283.350516 292.59 
L 283.53055 292.59 
L 283.710585 292.59 
L 283.890619 292.59 
L 284.070653 292.59 
L 284.250688 292.59 
L 284.430722 292.59 
L 284.610756 292.59 
L 284.790791 292.59 
L 284.970825 292.59 
L 285.15086 292.59 
L 285.330894 292.59 
L 285.510928 292.59 
L 285.690963 292.59 
L 285.870997 292.59 
L 286.051031 292.59 
L 286.231066 292.59 
L 286.4111 292.59 
L 286.591134 292.59 
L 286.771169 292.59 
L 286.951203 292.59 
L 287.131237 292.59 
L 287.311272 292.59 
L 287.491306 292.59 
L 287.67134 292.59 
L 287.851375 292.59 
L 288.031409 292.59 
L 288.211443 292.59 
L 288.391478 292.59 
L 288.571512 292.59 
L 288.751547 292.59 
L 288.931581 292.59 
L 289.111615 292.59 
L 289.29165 292.59 
L 289.471684 292.59 
L 289.651718 292.59 
L 289.831753 292.59 
L 290.011787 292.59 
L 290.191821 292.59 
L 290.371856 292.59 
L 290.371856 292.587036 
L 290.371856 292.587036 
L 290.191821 292.583384 
L 290.011787 292.574009 
L 289.831753 292.555301 
L 289.651718 292.52361 
L 289.471684 292.477634 
L 289.29165 292.420269 
L 289.111615 292.3577 
L 288.931581 292.294734 
L 288.751547 292.228422 
L 288.571512 292.144028 
L 288.391478 292.016621 
L 288.211443 291.818992 
L 288.031409 291.533934 
L 287.851375 291.165935 
L 287.67134 290.744617 
L 287.491306 290.313535 
L 287.311272 289.905818 
L 287.131237 289.518081 
L 286.951203 289.097403 
L 286.771169 288.549107 
L 286.591134 287.76105 
L 286.4111 286.63286 
L 286.231066 285.100778 
L 286.051031 283.155124 
L 285.870997 280.848404 
L 285.690963 278.286419 
L 285.510928 275.592477 
L 285.330894 272.846882 
L 285.15086 270.0275 
L 284.970825 266.992954 
L 284.790791 263.53557 
L 284.610756 259.485624 
L 284.430722 254.803972 
L 284.250688 249.599579 
L 284.070653 244.05994 
L 283.890619 238.34492 
L 283.710585 232.516833 
L 283.53055 226.548086 
L 283.350516 220.389243 
L 283.170482 214.033925 
L 282.990447 207.515962 
L 282.810413 200.832484 
L 282.630379 193.870034 
L 282.450344 186.437979 
L 282.27031 178.429981 
L 282.090276 169.998691 
L 281.910241 161.579263 
L 281.730207 153.702629 
L 281.550173 146.711873 
L 281.370138 140.580588 
L 281.190104 134.964577 
L 281.010069 129.457499 
L 280.830035 123.881998 
L 280.650001 118.424881 
L 280.469966 113.539053 
L 280.289932 109.700489 
L 280.109898 107.187979 
L 279.929863 105.995225 
L 279.749829 105.876716 
L 279.569795 106.47782 
L 279.38976 107.503714 
L 279.209726 108.874106 
L 279.029692 110.784985 
L 278.849657 113.618702 
L 278.669623 117.733668 
L 278.489589 123.255871 
L 278.309554 130.000394 
L 278.12952 137.56444 
L 277.949486 145.522821 
L 277.769451 153.598218 
L 277.589417 161.70473 
L 277.409383 169.856604 
L 277.229348 178.032052 
L 277.049314 186.107671 
L 276.869279 193.907569 
L 276.689245 201.307726 
L 276.509211 208.29762 
L 276.329176 214.956366 
L 276.149142 221.383792 
L 275.969108 227.653664 
L 275.789073 233.811665 
L 275.609039 239.885062 
L 275.429005 245.866735 
L 275.24897 251.681126 
L 275.068936 257.176966 
L 274.888902 262.175769 
L 274.708867 266.551024 
L 274.528833 270.278577 
L 274.348799 273.422217 
L 274.168764 276.075446 
L 273.98873 278.311863 
L 273.808696 280.17631 
L 273.628661 281.707023 
L 273.448627 282.958601 
L 273.268592 284.005717 
L 273.088558 284.927776 
L 272.908524 285.78707 
L 272.728489 286.614045 
L 272.548455 287.407054 
L 272.368421 288.14522 
L 272.188386 288.806826 
L 272.008352 289.384235 
L 271.828318 289.888615 
L 271.648283 290.342384 
L 271.468249 290.764122 
L 271.288215 291.156455 
L 271.10818 291.506044 
L 270.928146 291.795548 
L 270.748112 292.017567 
L 270.568077 292.179514 
L 270.388043 292.297036 
L 270.208009 292.383309 
L 270.027974 292.443263 
L 269.84794 292.475636 
L 269.667905 292.479338 
L 269.487871 292.459051 
L 269.307837 292.426933 
L 269.127802 292.399536 
L 268.947768 292.391204 
L 268.767734 292.407578 
L 268.587699 292.443586 
L 268.407665 292.487384 
L 268.227631 292.52723 
L 268.047596 292.556488 
L 267.867562 292.574352 
L 267.687528 292.58347 
L 267.507493 292.587051 
z
" style="fill:#1f78b4;fill-opacity:0.25;"/>
   </g>
   <g id="PolyCollection_4">
    <path clip-path="url(#pd08e97dc97)" d="M 462.173111 292.583883 
L 462.173111 292.59 
L 462.285829 292.59 
L 462.398546 292.59 
L 462.511264 292.59 
L 462.623982 292.59 
L 462.736699 292.59 
L 462.849417 292.59 
L 462.962135 292.59 
L 463.074852 292.59 
L 463.18757 292.59 
L 463.300288 292.59 
L 463.413005 292.59 
L 463.525723 292.59 
L 463.638441 292.59 
L 463.751158 292.59 
L 463.863876 292.59 
L 463.976594 292.59 
L 464.089311 292.59 
L 464.202029 292.59 
L 464.314747 292.59 
L 464.427464 292.59 
L 464.540182 292.59 
L 464.6529 292.59 
L 464.765617 292.59 
L 464.878335 292.59 
L 464.991053 292.59 
L 465.10377 292.59 
L 465.216488 292.59 
L 465.329206 292.59 
L 465.441923 292.59 
L 465.554641 292.59 
L 465.667359 292.59 
L 465.780076 292.59 
L 465.892794 292.59 
L 466.005511 292.59 
L 466.118229 292.59 
L 466.230947 292.59 
L 466.343664 292.59 
L 466.456382 292.59 
L 466.5691 292.59 
L 466.681817 292.59 
L 466.794535 292.59 
L 466.907253 292.59 
L 467.01997 292.59 
L 467.132688 292.59 
L 467.245406 292.59 
L 467.358123 292.59 
L 467.470841 292.59 
L 467.583559 292.59 
L 467.696276 292.59 
L 467.808994 292.59 
L 467.921712 292.59 
L 468.034429 292.59 
L 468.147147 292.59 
L 468.259865 292.59 
L 468.372582 292.59 
L 468.4853 292.59 
L 468.598018 292.59 
L 468.710735 292.59 
L 468.823453 292.59 
L 468.936171 292.59 
L 469.048888 292.59 
L 469.161606 292.59 
L 469.274324 292.59 
L 469.387041 292.59 
L 469.499759 292.59 
L 469.612477 292.59 
L 469.725194 292.59 
L 469.837912 292.59 
L 469.95063 292.59 
L 470.063347 292.59 
L 470.176065 292.59 
L 470.288783 292.59 
L 470.4015 292.59 
L 470.514218 292.59 
L 470.626936 292.59 
L 470.739653 292.59 
L 470.852371 292.59 
L 470.965089 292.59 
L 471.077806 292.59 
L 471.190524 292.59 
L 471.303242 292.59 
L 471.415959 292.59 
L 471.528677 292.59 
L 471.641395 292.59 
L 471.754112 292.59 
L 471.86683 292.59 
L 471.979548 292.59 
L 472.092265 292.59 
L 472.204983 292.59 
L 472.317701 292.59 
L 472.430418 292.59 
L 472.543136 292.59 
L 472.655854 292.59 
L 472.768571 292.59 
L 472.881289 292.59 
L 472.994007 292.59 
L 473.106724 292.59 
L 473.219442 292.59 
L 473.33216 292.59 
L 473.444877 292.59 
L 473.557595 292.59 
L 473.670313 292.59 
L 473.78303 292.59 
L 473.895748 292.59 
L 474.008466 292.59 
L 474.121183 292.59 
L 474.233901 292.59 
L 474.346619 292.59 
L 474.459336 292.59 
L 474.572054 292.59 
L 474.684772 292.59 
L 474.797489 292.59 
L 474.910207 292.59 
L 475.022925 292.59 
L 475.135642 292.59 
L 475.24836 292.59 
L 475.361078 292.59 
L 475.473795 292.59 
L 475.586513 292.59 
L 475.699231 292.59 
L 475.811948 292.59 
L 475.924666 292.59 
L 476.037384 292.59 
L 476.150101 292.59 
L 476.262819 292.59 
L 476.375537 292.59 
L 476.488254 292.59 
L 476.488254 292.580436 
L 476.488254 292.580436 
L 476.375537 292.566711 
L 476.262819 292.53363 
L 476.150101 292.465682 
L 476.037384 292.342618 
L 475.924666 292.14566 
L 475.811948 291.867991 
L 475.699231 291.525037 
L 475.586513 291.156959 
L 475.473795 290.818064 
L 475.361078 290.555811 
L 475.24836 290.390084 
L 475.135642 290.304063 
L 475.022925 290.250284 
L 474.910207 290.166204 
L 474.797489 289.99016 
L 474.684772 289.671888 
L 474.572054 289.176746 
L 474.459336 288.485598 
L 474.346619 287.592241 
L 474.233901 286.499257 
L 474.121183 285.212705 
L 474.008466 283.736994 
L 473.895748 282.071823 
L 473.78303 280.211121 
L 473.670313 278.140469 
L 473.557595 275.829335 
L 473.444877 273.220394 
L 473.33216 270.225526 
L 473.219442 266.738972 
L 473.106724 262.66938 
L 472.994007 257.979533 
L 472.881289 252.714699 
L 472.768571 247.003756 
L 472.655854 241.028873 
L 472.543136 234.970821 
L 472.430418 228.943027 
L 472.317701 222.932586 
L 472.204983 216.774363 
L 472.092265 210.184279 
L 471.979548 202.853476 
L 471.86683 194.562418 
L 471.754112 185.249678 
L 471.641395 174.996631 
L 471.528677 163.953115 
L 471.415959 152.275387 
L 471.303242 140.131289 
L 471.190524 127.7598 
L 471.077806 115.513233 
L 470.965089 103.815671 
L 470.852371 93.03973 
L 470.739653 83.377385 
L 470.626936 74.794446 
L 470.514218 67.098157 
L 470.4015 60.063493 
L 470.288783 53.52863 
L 470.176065 47.412903 
L 470.063347 41.687399 
L 469.95063 36.362014 
L 469.837912 31.512942 
L 469.725194 27.310796 
L 469.612477 23.994785 
L 469.499759 21.786028 
L 469.387041 20.79 
L 469.274324 20.951637 
L 469.161606 22.094739 
L 469.048888 24.031107 
L 468.936171 26.688821 
L 468.823453 30.193373 
L 468.710735 34.847446 
L 468.598018 40.997428 
L 468.4853 48.83395 
L 468.372582 58.222224 
L 468.259865 68.666447 
L 468.147147 79.461045 
L 468.034429 89.977362 
L 467.921712 99.93338 
L 467.808994 109.481156 
L 467.696276 119.057097 
L 467.583559 129.098139 
L 467.470841 139.801668 
L 467.358123 151.045634 
L 467.245406 162.462948 
L 467.132688 173.590152 
L 467.01997 184.013741 
L 466.907253 193.4711 
L 466.794535 201.887386 
L 466.681817 209.349759 
L 466.5691 216.045038 
L 466.456382 222.198993 
L 466.343664 228.037812 
L 466.230947 233.761742 
L 466.118229 239.511395 
L 466.005511 245.327625 
L 465.892794 251.130411 
L 465.780076 256.74163 
L 465.667359 261.950557 
L 465.554641 266.592547 
L 465.441923 270.602311 
L 465.329206 274.017256 
L 465.216488 276.933255 
L 465.10377 279.440839 
L 464.991053 281.580454 
L 464.878335 283.343063 
L 464.765617 284.711979 
L 464.6529 285.713418 
L 464.540182 286.438218 
L 464.427464 287.019384 
L 464.314747 287.581915 
L 464.202029 288.198158 
L 464.089311 288.873632 
L 463.976594 289.564988 
L 463.863876 290.212889 
L 463.751158 290.769845 
L 463.638441 291.213095 
L 463.525723 291.54419 
L 463.413005 291.781821 
L 463.300288 291.952904 
L 463.18757 292.084053 
L 463.074852 292.194799 
L 462.962135 292.294336 
L 462.849417 292.382863 
L 462.736699 292.456312 
L 462.623982 292.511363 
L 462.511264 292.548097 
L 462.398546 292.569707 
L 462.285829 292.580525 
L 462.173111 292.583883 
z
" style="fill:#ff7f00;fill-opacity:0.25;"/>
   </g>
   <g id="PolyCollection_5">
    <path clip-path="url(#pd08e97dc97)" d="M 224.092757 292.586563 
L 224.092757 292.59 
L 224.383913 292.59 
L 224.675069 292.59 
L 224.966224 292.59 
L 225.25738 292.59 
L 225.548536 292.59 
L 225.839691 292.59 
L 226.130847 292.59 
L 226.422002 292.59 
L 226.713158 292.59 
L 227.004314 292.59 
L 227.295469 292.59 
L 227.586625 292.59 
L 227.877781 292.59 
L 228.168936 292.59 
L 228.460092 292.59 
L 228.751248 292.59 
L 229.042403 292.59 
L 229.333559 292.59 
L 229.624715 292.59 
L 229.91587 292.59 
L 230.207026 292.59 
L 230.498181 292.59 
L 230.789337 292.59 
L 231.080493 292.59 
L 231.371648 292.59 
L 231.662804 292.59 
L 231.95396 292.59 
L 232.245115 292.59 
L 232.536271 292.59 
L 232.827427 292.59 
L 233.118582 292.59 
L 233.409738 292.59 
L 233.700894 292.59 
L 233.992049 292.59 
L 234.283205 292.59 
L 234.57436 292.59 
L 234.865516 292.59 
L 235.156672 292.59 
L 235.447827 292.59 
L 235.738983 292.59 
L 236.030139 292.59 
L 236.321294 292.59 
L 236.61245 292.59 
L 236.903606 292.59 
L 237.194761 292.59 
L 237.485917 292.59 
L 237.777073 292.59 
L 238.068228 292.59 
L 238.359384 292.59 
L 238.65054 292.59 
L 238.941695 292.59 
L 239.232851 292.59 
L 239.524006 292.59 
L 239.815162 292.59 
L 240.106318 292.59 
L 240.397473 292.59 
L 240.688629 292.59 
L 240.979785 292.59 
L 241.27094 292.59 
L 241.562096 292.59 
L 241.853252 292.59 
L 242.144407 292.59 
L 242.435563 292.59 
L 242.726719 292.59 
L 243.017874 292.59 
L 243.30903 292.59 
L 243.600185 292.59 
L 243.891341 292.59 
L 244.182497 292.59 
L 244.473652 292.59 
L 244.764808 292.59 
L 245.055964 292.59 
L 245.347119 292.59 
L 245.638275 292.59 
L 245.929431 292.59 
L 246.220586 292.59 
L 246.511742 292.59 
L 246.802898 292.59 
L 247.094053 292.59 
L 247.385209 292.59 
L 247.676364 292.59 
L 247.96752 292.59 
L 248.258676 292.59 
L 248.549831 292.59 
L 248.840987 292.59 
L 249.132143 292.59 
L 249.423298 292.59 
L 249.714454 292.59 
L 250.00561 292.59 
L 250.296765 292.59 
L 250.587921 292.59 
L 250.879077 292.59 
L 251.170232 292.59 
L 251.461388 292.59 
L 251.752544 292.59 
L 252.043699 292.59 
L 252.334855 292.59 
L 252.62601 292.59 
L 252.917166 292.59 
L 253.208322 292.59 
L 253.499477 292.59 
L 253.790633 292.59 
L 254.081789 292.59 
L 254.372944 292.59 
L 254.6641 292.59 
L 254.955256 292.59 
L 255.246411 292.59 
L 255.537567 292.59 
L 255.828723 292.59 
L 256.119878 292.59 
L 256.411034 292.59 
L 256.702189 292.59 
L 256.993345 292.59 
L 257.284501 292.59 
L 257.575656 292.59 
L 257.866812 292.59 
L 258.157968 292.59 
L 258.449123 292.59 
L 258.740279 292.59 
L 259.031435 292.59 
L 259.32259 292.59 
L 259.613746 292.59 
L 259.904902 292.59 
L 260.196057 292.59 
L 260.487213 292.59 
L 260.778368 292.59 
L 261.069524 292.59 
L 261.069524 292.585739 
L 261.069524 292.585739 
L 260.778368 292.58039 
L 260.487213 292.567134 
L 260.196057 292.539625 
L 259.904902 292.488617 
L 259.613746 292.403001 
L 259.32259 292.271817 
L 259.031435 292.086355 
L 258.740279 291.841048 
L 258.449123 291.532467 
L 258.157968 291.156906 
L 257.866812 290.707317 
L 257.575656 290.16915 
L 257.284501 289.513714 
L 256.993345 288.689472 
L 256.702189 287.615925 
L 256.411034 286.186937 
L 256.119878 284.286537 
L 255.828723 281.811847 
L 255.537567 278.692119 
L 255.246411 274.896107 
L 254.955256 270.430101 
L 254.6641 265.337014 
L 254.372944 259.704667 
L 254.081789 253.679449 
L 253.790633 247.468811 
L 253.499477 241.314745 
L 253.208322 235.435904 
L 252.917166 229.96124 
L 252.62601 224.893906 
L 252.334855 220.133039 
L 252.043699 215.545173 
L 251.752544 211.042548 
L 251.461388 206.62252 
L 251.170232 202.354562 
L 250.879077 198.340222 
L 250.587921 194.682719 
L 250.296765 191.480345 
L 250.00561 188.82817 
L 249.714454 186.805664 
L 249.423298 185.44729 
L 249.132143 184.716198 
L 248.840987 184.505204 
L 248.549831 184.673054 
L 248.258676 185.103061 
L 247.96752 185.758428 
L 247.676364 186.706532 
L 247.385209 188.093217 
L 247.094053 190.070074 
L 246.802898 192.706883 
L 246.511742 195.937762 
L 246.220586 199.573925 
L 245.929431 203.374327 
L 245.638275 207.129449 
L 245.347119 210.71138 
L 245.055964 214.073697 
L 244.764808 217.219779 
L 244.473652 220.171566 
L 244.182497 222.958484 
L 243.891341 225.624826 
L 243.600185 228.241241 
L 243.30903 230.906507 
L 243.017874 233.732596 
L 242.726719 236.813645 
L 242.435563 240.188223 
L 242.144407 243.812905 
L 241.853252 247.565126 
L 241.562096 251.278271 
L 241.27094 254.790762 
L 240.979785 257.982242 
L 240.688629 260.78282 
L 240.397473 263.163723 
L 240.106318 265.129143 
L 239.815162 266.720626 
L 239.524006 268.026904 
L 239.232851 269.180946 
L 238.941695 270.331881 
L 238.65054 271.59821 
L 238.359384 273.025925 
L 238.068228 274.577082 
L 237.777073 276.15762 
L 237.485917 277.669088 
L 237.194761 279.054905 
L 236.903606 280.317405 
L 236.61245 281.501336 
L 236.321294 282.657966 
L 236.030139 283.811074 
L 235.738983 284.941189 
L 235.447827 285.993339 
L 235.156672 286.902193 
L 234.865516 287.621107 
L 234.57436 288.140984 
L 234.283205 288.491498 
L 233.992049 288.727362 
L 233.700894 288.90946 
L 233.409738 289.090149 
L 233.118582 289.305644 
L 232.827427 289.572829 
L 232.536271 289.887795 
L 232.245115 290.227386 
L 231.95396 290.556804 
L 231.662804 290.842815 
L 231.371648 291.066646 
L 231.080493 291.229396 
L 230.789337 291.347637 
L 230.498181 291.443363 
L 230.207026 291.534844 
L 229.91587 291.63213 
L 229.624715 291.736634 
L 229.333559 291.842656 
L 229.042403 291.939828 
L 228.751248 292.016815 
L 228.460092 292.066012 
L 228.168936 292.087496 
L 227.877781 292.090091 
L 227.586625 292.088664 
L 227.295469 292.098805 
L 227.004314 292.13123 
L 226.713158 292.188268 
L 226.422002 292.263733 
L 226.130847 292.346044 
L 225.839691 292.422953 
L 225.548536 292.485676 
L 225.25738 292.530769 
L 224.966224 292.559491 
L 224.675069 292.575707 
L 224.383913 292.583674 
L 224.092757 292.586563 
z
" style="fill-opacity:0.25;"/>
   </g>
   <g id="PolyCollection_6">
    <path clip-path="url(#pd08e97dc97)" d="M 304.367743 292.588034 
L 304.367743 292.59 
L 304.674212 292.59 
L 304.980682 292.59 
L 305.287151 292.59 
L 305.59362 292.59 
L 305.90009 292.59 
L 306.206559 292.59 
L 306.513028 292.59 
L 306.819498 292.59 
L 307.125967 292.59 
L 307.432437 292.59 
L 307.738906 292.59 
L 308.045375 292.59 
L 308.351845 292.59 
L 308.658314 292.59 
L 308.964783 292.59 
L 309.271253 292.59 
L 309.577722 292.59 
L 309.884192 292.59 
L 310.190661 292.59 
L 310.49713 292.59 
L 310.8036 292.59 
L 311.110069 292.59 
L 311.416538 292.59 
L 311.723008 292.59 
L 312.029477 292.59 
L 312.335946 292.59 
L 312.642416 292.59 
L 312.948885 292.59 
L 313.255355 292.59 
L 313.561824 292.59 
L 313.868293 292.59 
L 314.174763 292.59 
L 314.481232 292.59 
L 314.787701 292.59 
L 315.094171 292.59 
L 315.40064 292.59 
L 315.70711 292.59 
L 316.013579 292.59 
L 316.320048 292.59 
L 316.626518 292.59 
L 316.932987 292.59 
L 317.239456 292.59 
L 317.545926 292.59 
L 317.852395 292.59 
L 318.158865 292.59 
L 318.465334 292.59 
L 318.771803 292.59 
L 319.078273 292.59 
L 319.384742 292.59 
L 319.691211 292.59 
L 319.997681 292.59 
L 320.30415 292.59 
L 320.610619 292.59 
L 320.917089 292.59 
L 321.223558 292.59 
L 321.530028 292.59 
L 321.836497 292.59 
L 322.142966 292.59 
L 322.449436 292.59 
L 322.755905 292.59 
L 323.062374 292.59 
L 323.368844 292.59 
L 323.675313 292.59 
L 323.981783 292.59 
L 324.288252 292.59 
L 324.594721 292.59 
L 324.901191 292.59 
L 325.20766 292.59 
L 325.514129 292.59 
L 325.820599 292.59 
L 326.127068 292.59 
L 326.433538 292.59 
L 326.740007 292.59 
L 327.046476 292.59 
L 327.352946 292.59 
L 327.659415 292.59 
L 327.965884 292.59 
L 328.272354 292.59 
L 328.578823 292.59 
L 328.885293 292.59 
L 329.191762 292.59 
L 329.498231 292.59 
L 329.804701 292.59 
L 330.11117 292.59 
L 330.417639 292.59 
L 330.724109 292.59 
L 331.030578 292.59 
L 331.337047 292.59 
L 331.643517 292.59 
L 331.949986 292.59 
L 332.256456 292.59 
L 332.562925 292.59 
L 332.869394 292.59 
L 333.175864 292.59 
L 333.482333 292.59 
L 333.788802 292.59 
L 334.095272 292.59 
L 334.401741 292.59 
L 334.708211 292.59 
L 335.01468 292.59 
L 335.321149 292.59 
L 335.627619 292.59 
L 335.934088 292.59 
L 336.240557 292.59 
L 336.547027 292.59 
L 336.853496 292.59 
L 337.159966 292.59 
L 337.466435 292.59 
L 337.772904 292.59 
L 338.079374 292.59 
L 338.385843 292.59 
L 338.692312 292.59 
L 338.998782 292.59 
L 339.305251 292.59 
L 339.61172 292.59 
L 339.91819 292.59 
L 340.224659 292.59 
L 340.531129 292.59 
L 340.837598 292.59 
L 341.144067 292.59 
L 341.450537 292.59 
L 341.757006 292.59 
L 342.063475 292.59 
L 342.369945 292.59 
L 342.676414 292.59 
L 342.982884 292.59 
L 343.289353 292.59 
L 343.289353 292.588138 
L 343.289353 292.588138 
L 342.982884 292.586383 
L 342.676414 292.581937 
L 342.369945 292.573161 
L 342.063475 292.558006 
L 341.757006 292.534846 
L 341.450537 292.503642 
L 341.144067 292.466946 
L 340.837598 292.429931 
L 340.531129 292.398923 
L 340.224659 292.378724 
L 339.91819 292.369881 
L 339.61172 292.367302 
L 339.305251 292.360787 
L 338.998782 292.33692 
L 338.692312 292.28128 
L 338.385843 292.180501 
L 338.079374 292.024424 
L 337.772904 291.808335 
L 337.466435 291.534012 
L 337.159966 291.207678 
L 336.853496 290.83459 
L 336.547027 290.412977 
L 336.240557 289.931921 
L 335.934088 289.375868 
L 335.627619 288.733765 
L 335.321149 288.006688 
L 335.01468 287.208143 
L 334.708211 286.355999 
L 334.401741 285.460627 
L 334.095272 284.515588 
L 333.788802 283.494481 
L 333.482333 282.353936 
L 333.175864 281.041968 
L 332.869394 279.512016 
L 332.562925 277.741844 
L 332.256456 275.751099 
L 331.949986 273.606092 
L 331.643517 271.401711 
L 331.337047 269.22122 
L 331.030578 267.089755 
L 330.724109 264.946434 
L 330.417639 262.654605 
L 330.11117 260.050843 
L 329.804701 257.012371 
L 329.498231 253.512823 
L 329.191762 249.642254 
L 328.885293 245.582959 
L 328.578823 241.549526 
L 328.272354 237.715142 
L 327.965884 234.153602 
L 327.659415 230.823937 
L 327.352946 227.608909 
L 327.046476 224.393131 
L 326.740007 221.143167 
L 326.433538 217.94566 
L 326.127068 214.978611 
L 325.820599 212.427373 
L 325.514129 210.389709 
L 325.20766 208.822547 
L 324.901191 207.560846 
L 324.594721 206.398824 
L 324.288252 205.188623 
L 323.981783 203.902346 
L 323.675313 202.626661 
L 323.368844 201.500635 
L 323.062374 200.639783 
L 322.755905 200.091175 
L 322.449436 199.837317 
L 322.142966 199.832984 
L 321.836497 200.043291 
L 321.530028 200.460153 
L 321.223558 201.095544 
L 320.917089 201.965628 
L 320.610619 203.08081 
L 320.30415 204.447772 
L 319.997681 206.080901 
L 319.691211 208.01674 
L 319.384742 210.322685 
L 319.078273 213.088119 
L 318.771803 216.389051 
L 318.465334 220.23336 
L 318.158865 224.515849 
L 317.852395 229.019773 
L 317.545926 233.479755 
L 317.239456 237.680668 
L 316.932987 241.538229 
L 316.626518 245.113938 
L 316.320048 248.557181 
L 316.013579 252.012389 
L 315.70711 255.546682 
L 315.40064 259.132552 
L 315.094171 262.679975 
L 314.787701 266.085067 
L 314.481232 269.264638 
L 314.174763 272.167192 
L 313.868293 274.768882 
L 313.561824 277.065943 
L 313.255355 279.068613 
L 312.948885 280.795816 
L 312.642416 282.269698 
L 312.335946 283.511889 
L 312.029477 284.544625 
L 311.723008 285.397079 
L 311.416538 286.112266 
L 311.110069 286.747149 
L 310.8036 287.361852 
L 310.49713 288.001477 
L 310.190661 288.680174 
L 309.884192 289.376861 
L 309.577722 290.045585 
L 309.271253 290.63548 
L 308.964783 291.110766 
L 308.658314 291.462147 
L 308.351845 291.706096 
L 308.045375 291.87449 
L 307.738906 292.000854 
L 307.432437 292.109652 
L 307.125967 292.212192 
L 306.819498 292.308825 
L 306.513028 292.394457 
L 306.206559 292.463911 
L 305.90009 292.514998 
L 305.59362 292.548994 
L 305.287151 292.569448 
L 304.980682 292.580552 
L 304.674212 292.585923 
L 304.367743 292.588034 
z
" style="fill:#33a02c;fill-opacity:0.25;"/>
   </g>
   <g id="line2d_12">
    <path clip-path="url(#pd08e97dc97)" d="M 70.670072 292.588252 
L 72.443792 292.488526 
L 75.104372 292.247149 
L 76.286852 292.194737 
L 77.173712 291.916559 
L 77.764952 291.581081 
L 78.356192 290.931438 
L 78.947432 289.702009 
L 79.538672 287.621918 
L 80.129912 284.571317 
L 82.790492 267.607725 
L 83.381732 261.585681 
L 83.972972 253.544553 
L 85.746692 225.758221 
L 86.633552 215.529839 
L 88.407272 189.914959 
L 88.998512 185.139278 
L 89.885372 179.837497 
L 90.476612 176.978597 
L 90.772232 176.114922 
L 91.067852 176.084597 
L 91.363472 177.227451 
L 91.659092 179.710373 
L 92.250331 188.220965 
L 94.024051 218.712298 
L 95.206531 237.561521 
L 96.389011 255.987203 
L 97.275871 265.195489 
L 99.049591 279.704589 
L 99.640831 283.241924 
L 100.232071 285.563978 
L 101.414551 288.956681 
L 102.005791 290.215883 
L 102.597031 291.036786 
L 103.188271 291.52491 
L 104.075131 291.868739 
L 106.144471 292.437711 
L 107.622571 292.580243 
L 108.213811 292.588251 
L 108.213811 292.588251 
" style="fill:none;stroke:#e31a1c;stroke-linecap:round;stroke-width:2;"/>
   </g>
   <g id="line2d_13">
    <path clip-path="url(#pd08e97dc97)" d="M 289.717618 292.586957 
L 290.733337 292.468089 
L 291.952199 292.060263 
L 292.56163 291.300051 
L 292.967918 290.524609 
L 293.374205 289.170364 
L 293.780493 286.942875 
L 294.18678 283.656602 
L 294.593068 278.529665 
L 295.202499 266.92643 
L 295.81193 251.438171 
L 296.624505 224.695368 
L 297.43708 185.622703 
L 298.249655 150.743227 
L 299.265373 113.787529 
L 299.671661 108.041458 
L 299.874805 106.747948 
L 300.077948 106.545211 
L 300.281092 107.853306 
L 300.687379 115.661549 
L 301.499954 141.518073 
L 304.343966 234.666714 
L 305.156541 252.096489 
L 306.781691 277.087439 
L 307.391122 283.005337 
L 308.203697 289.065845 
L 308.609985 290.823958 
L 308.813128 291.239333 
L 309.016272 291.384545 
L 309.42256 291.194513 
L 309.828847 291.087379 
L 310.235134 291.459823 
L 310.844566 292.072087 
L 311.657141 292.367551 
L 312.469715 292.564345 
L 313.28229 292.520716 
L 314.094865 292.403125 
L 315.516871 292.586958 
L 315.516871 292.586958 
" style="fill:none;stroke:#0000ff;stroke-linecap:round;stroke-width:2;"/>
   </g>
   <g id="line2d_14">
    <path clip-path="url(#pd08e97dc97)" d="M 267.507493 292.587051 
L 268.407665 292.487384 
L 269.127802 292.399536 
L 270.027974 292.443263 
L 270.568077 292.179514 
L 270.928146 291.795548 
L 271.468249 290.764122 
L 272.188386 288.806826 
L 272.908524 285.78707 
L 273.448627 282.958601 
L 273.808696 280.17631 
L 274.168764 276.075446 
L 274.708867 266.551024 
L 275.24897 251.681126 
L 276.509211 208.29762 
L 277.409383 169.856604 
L 278.669623 117.733668 
L 279.029692 110.784985 
L 279.38976 107.503714 
L 279.749829 105.876716 
L 279.929863 105.995225 
L 280.109898 107.187979 
L 280.469966 113.539053 
L 281.370138 140.580588 
L 281.910241 161.579263 
L 282.990447 207.515962 
L 284.250688 249.599579 
L 284.790791 263.53557 
L 285.510928 275.592477 
L 286.231066 285.100778 
L 286.591134 287.76105 
L 286.951203 289.097403 
L 288.211443 291.818992 
L 288.571512 292.144028 
L 289.471684 292.477634 
L 290.191821 292.583384 
L 290.371856 292.587036 
L 290.371856 292.587036 
" style="fill:none;stroke:#1f78b4;stroke-linecap:round;stroke-width:2;"/>
   </g>
   <g id="line2d_15">
    <path clip-path="url(#pd08e97dc97)" d="M 462.173111 292.583883 
L 462.736699 292.456312 
L 463.18757 292.084053 
L 463.525723 291.54419 
L 463.863876 290.212889 
L 464.765617 284.711979 
L 465.10377 279.440839 
L 465.441923 270.602311 
L 465.892794 251.130411 
L 466.907253 193.4711 
L 468.034429 89.977362 
L 468.710735 34.847446 
L 469.048888 24.031107 
L 469.274324 20.951637 
L 469.387041 20.79 
L 469.499759 21.786028 
L 469.725194 27.310796 
L 470.176065 47.412903 
L 470.739653 83.377385 
L 471.303242 140.131289 
L 471.979548 202.853476 
L 472.768571 247.003756 
L 473.33216 270.225526 
L 473.78303 280.211121 
L 474.233901 286.499257 
L 474.572054 289.176746 
L 474.910207 290.166204 
L 475.361078 290.555811 
L 476.262819 292.53363 
L 476.488254 292.580436 
L 476.488254 292.580436 
" style="fill:none;stroke:#ff7f00;stroke-linecap:round;stroke-width:2;"/>
   </g>
   <g id="line2d_16">
    <path clip-path="url(#pd08e97dc97)" d="M 224.092757 292.586563 
L 225.548536 292.485676 
L 227.877781 292.090091 
L 228.751248 292.016815 
L 230.498181 291.443363 
L 231.371648 291.066646 
L 231.95396 290.556804 
L 233.118582 289.305644 
L 234.57436 288.140984 
L 235.156672 286.902193 
L 235.738983 284.941189 
L 237.194761 279.054905 
L 240.106318 265.129143 
L 240.688629 260.78282 
L 241.27094 254.790762 
L 243.30903 230.906507 
L 245.055964 214.073697 
L 246.220586 199.573925 
L 246.802898 192.706883 
L 247.385209 188.093217 
L 247.96752 185.758428 
L 248.549831 184.673054 
L 248.840987 184.505204 
L 249.132143 184.716198 
L 249.423298 185.44729 
L 249.714454 186.805664 
L 250.296765 191.480345 
L 250.879077 198.340222 
L 252.043699 215.545173 
L 253.208322 235.435904 
L 255.246411 274.896107 
L 255.828723 281.811847 
L 256.411034 286.186937 
L 256.993345 288.689472 
L 257.575656 290.16915 
L 258.157968 291.156906 
L 258.740279 291.841048 
L 259.32259 292.271817 
L 259.904902 292.488617 
L 261.069524 292.585739 
L 261.069524 292.585739 
" style="fill:none;stroke:#000000;stroke-linecap:round;stroke-width:2;"/>
   </g>
   <g id="line2d_17">
    <path clip-path="url(#pd08e97dc97)" d="M 304.367743 292.588034 
L 305.90009 292.514998 
L 307.125967 292.212192 
L 308.351845 291.706096 
L 308.964783 291.110766 
L 309.577722 290.045585 
L 312.029477 284.544625 
L 312.642416 282.269698 
L 313.255355 279.068613 
L 313.868293 274.768882 
L 314.787701 266.085067 
L 317.239456 237.680668 
L 319.078273 213.088119 
L 319.691211 208.01674 
L 320.30415 204.447772 
L 320.917089 201.965628 
L 321.530028 200.460153 
L 321.836497 200.043291 
L 322.142966 199.832984 
L 322.449436 199.837317 
L 322.755905 200.091175 
L 323.062374 200.639783 
L 323.675313 202.626661 
L 325.514129 210.389709 
L 326.127068 214.978611 
L 327.659415 230.823937 
L 328.578823 241.549526 
L 329.804701 257.012371 
L 330.417639 262.654605 
L 332.256456 275.751099 
L 333.175864 281.041968 
L 334.095272 284.515588 
L 335.321149 288.006688 
L 336.240557 289.931921 
L 337.159966 291.207678 
L 338.079374 292.024424 
L 338.692312 292.28128 
L 339.61172 292.367302 
L 341.144067 292.466946 
L 342.982884 292.586383 
L 343.289353 292.588138 
L 343.289353 292.588138 
" style="fill:none;stroke:#33a02c;stroke-linecap:round;stroke-width:2;"/>
   </g>
   <g id="line2d_18">
    <path clip-path="url(#pd08e97dc97)" d="M 322.811747 306.18 
L 322.811747 7.2 
" style="fill:none;stroke:#33a02c;stroke-dasharray:8.4,3.6;stroke-dashoffset:0;stroke-width:3;"/>
   </g>
   <g id="patch_3">
    <path d="M 50.379163 306.18 
L 50.379163 7.2 
" style="fill:none;"/>
   </g>
   <g id="patch_4">
    <path d="M 496.779163 306.18 
L 496.779163 7.2 
" style="fill:none;"/>
   </g>
   <g id="patch_5">
    <path d="M 50.379163 306.18 
L 496.779163 306.18 
" style="fill:none;"/>
   </g>
   <g id="patch_6">
    <path d="M 50.379163 7.2 
L 496.779163 7.2 
" style="fill:none;"/>
   </g>
   <g id="legend_1">
    <g id="line2d_19">
     <path d="M 62.979163 24.7 
L 90.979163 24.7 
" style="fill:none;stroke:#e31a1c;stroke-linecap:round;stroke-width:2;"/>
    </g>
    <g id="line2d_20"/>
    <g id="text_14">
     <!-- Suppression -->
     <defs>
      <path d="M 5.09375 13.015625 
C 4.90625 11.390625 4.5 9.671875 4.296875 8.046875 
C 4.09375 6.53125 3.59375 6.109375 4.90625 5.3125 
C 8.296875 3.390625 11.203125 2.0625 15.40625 0.75 
C 24.796875 -2 35.59375 -2 43.796875 4.140625 
C 45.09375 5.140625 46.296875 6.234375 47.40625 7.53125 
C 49.90625 10.890625 52.203125 14.96875 51.59375 20.53125 
C 50.90625 27.671875 46.09375 33.625 39.59375 36.609375 
C 30.703125 40.578125 16.203125 40.578125 12.203125 49.375 
C 9.09375 56.1875 14.59375 62.171875 20.796875 64.375 
C 26.90625 66.6875 34.90625 65.78125 40.09375 63.375 
C 42.5 62.265625 44.5 60.65625 46.703125 59.25 
C 46.90625 60.96875 47.296875 62.578125 47.59375 64.28125 
C 47.796875 65.375 48.09375 66.390625 46.90625 66.78125 
L 45 67.796875 
C 42.296875 69 39.5 69.90625 36.59375 70.5 
C 27.59375 72.203125 17.203125 71.203125 10.40625 64.484375 
C 7 61.0625 4.09375 56.4375 5.296875 49.515625 
C 6.703125 42.390625 12.296875 37.875 18.09375 35.65625 
C 21.5 34.359375 25.296875 33.65625 28.90625 32.75 
C 31 32.34375 33.203125 31.84375 35.296875 31.140625 
C 40.703125 29.125 45.40625 25.109375 45.40625 17.6875 
C 44.796875 11.296875 39.203125 6.625 33.296875 5.203125 
C 25.703125 3.265625 16.703125 6.015625 11.5 8.75 
C 9.203125 9.96875 7.203125 11.59375 5.09375 13.015625 
" id="Computer_Modern_Bright-83"/>
      <path d="M 12.5 34.75 
L 12.40625 34.75 
L 12.40625 47.390625 
L 6.40625 47.390625 
L 6.40625 0 
L 12.703125 0 
L 12.703125 22.890625 
C 12.703125 24.40625 12.703125 25.90625 12.90625 27.40625 
C 14.296875 35.953125 21.703125 42.28125 31.40625 42.28125 
L 31.40625 48 
C 25 48 19.09375 44.890625 15.296875 39.765625 
C 14.203125 38.265625 13 36.546875 12.5 34.75 
" id="Computer_Modern_Bright-114"/>
     </defs>
     <g style="fill:#262626;" transform="translate(102.179163 29.6)scale(0.14 -0.14)">
      <use transform="scale(0.996264)" xlink:href="#Computer_Modern_Bright-83"/>
      <use transform="translate(56.454753 0)scale(0.996264)" xlink:href="#Computer_Modern_Bright-117"/>
      <use transform="translate(104.60725 0)scale(0.996264)" xlink:href="#Computer_Modern_Bright-112"/>
      <use transform="translate(152.759747 0)scale(0.996264)" xlink:href="#Computer_Modern_Bright-112"/>
      <use transform="translate(198.006514 0)scale(0.996264)" xlink:href="#Computer_Modern_Bright-114"/>
      <use transform="translate(229.969873 0)scale(0.996264)" xlink:href="#Computer_Modern_Bright-101"/>
      <use transform="translate(274.801541 0)scale(0.996264)" xlink:href="#Computer_Modern_Bright-115"/>
      <use transform="translate(313.24057 0)scale(0.996264)" xlink:href="#Computer_Modern_Bright-115"/>
      <use transform="translate(351.679599 0)scale(0.996264)" xlink:href="#Computer_Modern_Bright-105"/>
      <use transform="translate(370.774558 0)scale(0.996264)" xlink:href="#Computer_Modern_Bright-111"/>
      <use transform="translate(421.417776 0)scale(0.996264)" xlink:href="#Computer_Modern_Bright-110"/>
     </g>
    </g>
    <g id="line2d_21">
     <path d="M 62.979163 43.824611 
L 90.979163 43.824611 
" style="fill:none;stroke:#0000ff;stroke-linecap:round;stroke-width:2;"/>
    </g>
    <g id="line2d_22"/>
    <g id="text_15">
     <!-- \emph{rhy-1} $&gt;$ \emph{vhl-1} -->
     <defs>
      <path d="M 19.90625 35.53125 
L 19.796875 35.53125 
L 22.40625 48.15625 
L 16.40625 48.15625 
L 6.40625 0.5 
L 10.90625 0.5 
C 11.40625 0.5 12.203125 0.296875 12.59375 0.703125 
C 12.90625 0.90625 13.5 4.4375 13.796875 5.65625 
L 16.703125 19.578125 
C 17.5 23.109375 18 26.859375 19.59375 30.1875 
C 23.40625 37.84375 31.90625 43 40.40625 43 
L 41.5 48.765625 
C 34.90625 48.765625 28.59375 45.421875 24 40.78125 
C 22.5 39.265625 20.90625 37.453125 19.90625 35.53125 
M 19.703125 34.953125 
C 19.703125 34.953125 19.796875 34.953125 19.796875 34.953125 
C 19.796875 34.859375 19.703125 34.75 19.703125 34.953125 
" id="Computer_Modern_Bright_Slanted-114"/>
      <path d="M 21.09375 70 
L 6.40625 0 
L 10.90625 0 
C 11.796875 0 13 -0.296875 13 1.015625 
C 13.203125 1.71875 13.296875 2.328125 13.40625 3.03125 
C 14.40625 7.78125 19 29.5 19.296875 30.40625 
C 20.40625 33.953125 22.40625 37.375 25.09375 39.90625 
C 28 42.4375 31.203125 43.84375 36.59375 42.9375 
C 38.796875 42.53125 40.90625 41.625 42 39.5 
C 43.5 36.46875 42.40625 32.9375 41.796875 29.90625 
L 35.5 0 
L 40.203125 0 
C 41.203125 0 42.09375 -0.203125 42.09375 1.109375 
C 42.703125 3.125 44.09375 10.625 44.09375 10.625 
L 48.59375 32 
C 49.40625 35.734375 50.296875 40.40625 48.203125 43.9375 
C 46.296875 46.984375 42.90625 48 39.59375 48.296875 
C 38.09375 48.296875 36.5 48.296875 35 48 
C 30.796875 47.3125 27.09375 45.09375 24.09375 42.09375 
C 22.90625 40.890625 21.5 39.59375 20.796875 37.984375 
L 20.703125 37.984375 
L 27.40625 70 
z
" id="Computer_Modern_Bright_Slanted-104"/>
      <path d="M 10.703125 48 
C 11.203125 44.265625 12 40.625 12.703125 36.890625 
C 13.09375 34.359375 19 0.8125 19 0.515625 
C 19 -0.09375 18.59375 -0.59375 18.296875 -1.109375 
L 16.59375 -4.140625 
C 14.703125 -7.265625 12.796875 -10.5 9 -11.8125 
C 6 -12.71875 0.5 -11.40625 -1.5 -10.796875 
C -1.796875 -12.625 -2 -14.53125 -2.203125 -16.453125 
C 0.5 -16.859375 5.40625 -17.46875 8.09375 -16.96875 
C 15.203125 -15.34375 19.203125 -8.671875 22.5 -3.21875 
L 44.09375 34.359375 
L 49.203125 43.359375 
C 50.09375 44.859375 51.203125 46.375 51.796875 48 
C 49.703125 48 47.40625 48 45.59375 47.703125 
C 43.203125 44.078125 41.203125 40.046875 38.90625 36.21875 
C 33.59375 26.4375 27.703125 17.359375 23.203125 6.78125 
L 23.09375 6.78125 
C 23.40625 8.390625 23.09375 10.109375 22.90625 11.734375 
C 21.796875 22.546875 18.59375 39.71875 17.09375 48 
z
" id="Computer_Modern_Bright_Slanted-121"/>
      <path d="M 5.90625 26.0625 
L 4.90625 21 
L 32.796875 21 
L 33.796875 26.0625 
z
" id="Computer_Modern_Bright_Slanted-45"/>
      <path d="M 22.5 61 
L 21.5 55.9375 
C 26.296875 55.9375 31.40625 56.546875 35.703125 58.875 
L 24.5 5.046875 
C 20.296875 5.046875 15.296875 5.5625 11.5 5.046875 
C 10.90625 3.578125 10.703125 1.671875 10.296875 0 
C 21.09375 0 32.59375 0 42.796875 0 
C 43.40625 1.453125 43.703125 3.296875 44.09375 5.046875 
L 31 5.046875 
C 35.203125 26.0625 39.796875 46.59375 44.09375 67.5 
C 41.703125 67.5 42 67.09375 40 65.59375 
C 35.59375 62.59375 28.90625 61 22.5 61 
" id="Computer_Modern_Bright_Slanted-49"/>
      <path d="M 62.59375 26.546875 
L 62.59375 26.34375 
C 60.296875 25.546875 58 24.25 55.796875 23.140625 
L 27.09375 9.625 
L 11.09375 2 
C 10.40625 1.703125 9.40625 1.296875 8.90625 0.796875 
C 8 -0.203125 8.203125 -1.703125 9.296875 -2.296875 
C 10.5 -3 11.703125 -2.109375 12.796875 -1.609375 
L 21 2.203125 
C 25.203125 4.3125 55 18.328125 55 18.328125 
L 66 23.546875 
C 67.296875 24.140625 69.40625 24.75 69.40625 26.453125 
C 69.40625 28.15625 67.296875 28.75 66 29.359375 
L 55 34.5625 
L 33.703125 44.6875 
C 29.5 46.6875 25.203125 48.59375 21 50.703125 
L 12.796875 54.5 
C 11.703125 55 10.5 55.90625 9.296875 55.203125 
C 8.203125 54.609375 8 53.09375 8.90625 52.09375 
C 9.40625 51.59375 10.40625 51.203125 11.09375 50.890625 
L 41.59375 36.46875 
L 55.796875 29.75 
C 58 28.65625 60.296875 27.359375 62.59375 26.546875 
" id="Computer_Modern_Bright_Math_Slanted-62"/>
      <path d="M 10.703125 48 
C 12.796875 33.046875 15.09375 18.171875 17.09375 3.125 
C 17.296875 2.109375 17.296875 0.90625 17.796875 0.203125 
C 19.90625 0 22.59375 0 24.703125 0 
L 25.296875 0.703125 
L 44.703125 35.109375 
L 51.796875 48 
C 49.703125 48 47.5 48 45.703125 47.703125 
C 44.90625 46.59375 44.296875 45.484375 43.59375 44.265625 
C 36.59375 31.84375 29.40625 19.515625 22.703125 6.6875 
C 21.59375 16.984375 20 26.6875 18.59375 36.6875 
C 18 40.328125 17.90625 44.46875 16.90625 47.703125 
C 15.09375 48 12.796875 48 10.703125 48 
" id="Computer_Modern_Bright_Slanted-118"/>
      <path d="M 21.09375 70 
L 6.40625 0 
C 8.5 0 10.796875 0 12.59375 0.296875 
L 13 1.40625 
C 14 6.4375 15.09375 11.375 16.203125 16.40625 
L 27.40625 70 
z
" id="Computer_Modern_Bright_Slanted-108"/>
     </defs>
     <g style="fill:#262626;" transform="translate(102.179163 48.724611)scale(0.14 -0.14)">
      <use transform="scale(0.996264)" xlink:href="#Computer_Modern_Bright_Slanted-114"/>
      <use transform="translate(31.963359 0)scale(0.996264)" xlink:href="#Computer_Modern_Bright_Slanted-104"/>
      <use transform="translate(80.115856 0)scale(0.996264)" xlink:href="#Computer_Modern_Bright_Slanted-121"/>
      <use transform="translate(122.456894 0)scale(0.996264)" xlink:href="#Computer_Modern_Bright_Slanted-45"/>
      <use transform="translate(155.665567 0)scale(0.996264)" xlink:href="#Computer_Modern_Bright_Slanted-49"/>
      <use transform="translate(248.750337 0)scale(0.996264)" xlink:href="#Computer_Modern_Bright_Math_Slanted-62"/>
      <use transform="translate(357.703017 0)scale(0.996264)" xlink:href="#Computer_Modern_Bright_Slanted-118"/>
      <use transform="translate(400.044055 0)scale(0.996264)" xlink:href="#Computer_Modern_Bright_Slanted-104"/>
      <use transform="translate(448.196552 0)scale(0.996264)" xlink:href="#Computer_Modern_Bright_Slanted-108"/>
      <use transform="translate(467.291511 0)scale(0.996264)" xlink:href="#Computer_Modern_Bright_Slanted-45"/>
      <use transform="translate(500.500184 0)scale(0.996264)" xlink:href="#Computer_Modern_Bright_Slanted-49"/>
     </g>
    </g>
    <g id="line2d_23">
     <path d="M 62.979163 62.949222 
L 90.979163 62.949222 
" style="fill:none;stroke:#1f78b4;stroke-linecap:round;stroke-width:2;"/>
    </g>
    <g id="line2d_24"/>
    <g id="text_16">
     <!-- Unbranched -->
     <defs>
      <path d="M 8 69.5 
L 8 32.75 
C 8 25.71875 7.203125 18.390625 10.703125 11.96875 
C 12.90625 7.84375 16.09375 4.4375 20.09375 2.125 
C 29.90625 -3.609375 43.5 -2.203125 51.296875 6.4375 
C 54.796875 10.359375 57.296875 15.171875 57.796875 21.796875 
C 57.90625 23.40625 57.796875 24.921875 57.796875 26.515625 
L 57.796875 69.5 
L 51.40625 69.5 
L 51.40625 25.90625 
C 51.40625 24.59375 51.5 23.1875 51.40625 21.890625 
C 51.203125 18.890625 50.59375 15.921875 49.40625 13.25 
C 43.90625 1 25 1 18 11.890625 
C 14.203125 17.78125 15 25.0625 15 31.65625 
L 15 69.5 
z
" id="Computer_Modern_Bright-85"/>
      <path d="M 6.40625 69.6875 
L 6.40625 0 
L 12.796875 0 
L 12.796875 6.328125 
L 12.90625 6.328125 
C 14 4.109375 16.5 2.015625 18.59375 0.90625 
C 25.796875 -2.90625 34.40625 0.90625 39.09375 7.03125 
C 48.59375 19.578125 44.796875 40.875 32.296875 46.796875 
C 27.40625 49 21.5 48 17.09375 44.984375 
C 15.40625 43.78125 14 42.375 12.703125 40.765625 
L 12.703125 69.6875 
z
M 21.90625 42.984375 
C 26.59375 43.375 31.5 41.265625 34.296875 37.453125 
C 36.203125 34.9375 37.203125 31.9375 37.703125 28.8125 
C 38.703125 21.484375 37.90625 12.25 31.40625 7.4375 
C 30.296875 6.625 29.09375 6.03125 27.796875 5.515625 
C 22.40625 3.515625 17 4.109375 14 8.84375 
C 13.09375 10.4375 12.796875 10.546875 12.796875 12.953125 
L 12.796875 33.734375 
C 12.796875 34.75 12.59375 35.953125 13 36.859375 
C 14.59375 40.171875 18.296875 42.671875 21.90625 42.984375 
" id="Computer_Modern_Bright-98"/>
      <path d="M 6.40625 69.6875 
L 6.40625 0 
L 12.796875 0 
L 12.796875 21.984375 
C 12.796875 26.90625 12.5 31.9375 14.703125 36.546875 
C 15.796875 38.859375 17.5 40.875 19.796875 42.078125 
C 21.703125 42.984375 23.703125 42.984375 25.796875 42.78125 
C 28.796875 42.78125 31.703125 41.984375 33.59375 39.453125 
C 35.40625 37.140625 35.5 34.140625 35.5 31.3125 
L 35.5 0 
L 41.90625 0 
L 41.90625 27.21875 
C 41.90625 32.234375 42.40625 37.75 39.90625 42.28125 
C 37.90625 45.6875 34.40625 47.296875 30.703125 47.796875 
C 28.703125 48 26.703125 48 24.703125 47.703125 
C 21.09375 47.015625 18 45.03125 15.59375 42.34375 
C 14.5 41.046875 13.203125 39.46875 12.796875 37.765625 
L 12.703125 37.765625 
L 12.703125 69.6875 
z
" id="Computer_Modern_Bright-104"/>
      <path d="M 35.59375 69.6875 
L 35.59375 41.375 
C 33.703125 43.484375 31.796875 45.484375 29.203125 46.6875 
C 20.296875 50.40625 11.703125 45.59375 7.296875 37.65625 
C 2.203125 28.21875 2.796875 15.765625 8.90625 6.921875 
C 13.203125 0.796875 20.296875 -2.203125 27.796875 0.5 
C 30.703125 1.609375 34.203125 4.515625 35.40625 7.125 
L 35.5 7.125 
L 35.5 0 
L 41.90625 0 
L 41.90625 69.6875 
z
M 35.203125 37.453125 
C 35.703125 36.546875 35.5 35.34375 35.5 34.34375 
L 35.5 13.65625 
C 35.5 11.34375 35.40625 11.140625 34.09375 9.34375 
C 32.296875 6.625 29.5 4.71875 26.203125 4.421875 
C 21.40625 4.015625 16.5 6.328125 13.703125 10.25 
C 12.09375 12.546875 11.203125 15.359375 10.703125 18.171875 
C 10.5 19.28125 10.5 20.28125 10.40625 21.390625 
C 9.796875 28.015625 11.203125 35.84375 17 40.0625 
C 18 40.765625 19.09375 41.265625 20.203125 41.765625 
C 26 43.984375 32.40625 43.375 35.203125 37.453125 
" id="Computer_Modern_Bright-100"/>
     </defs>
     <g style="fill:#262626;" transform="translate(102.179163 67.849222)scale(0.14 -0.14)">
      <use transform="scale(0.996264)" xlink:href="#Computer_Modern_Bright-85"/>
      <use transform="translate(65.587132 0)scale(0.996264)" xlink:href="#Computer_Modern_Bright-110"/>
      <use transform="translate(113.739629 0)scale(0.996264)" xlink:href="#Computer_Modern_Bright-98"/>
      <use transform="translate(158.986397 0)scale(0.996264)" xlink:href="#Computer_Modern_Bright-114"/>
      <use transform="translate(190.949756 0)scale(0.996264)" xlink:href="#Computer_Modern_Bright-97"/>
      <use transform="translate(237.441838 0)scale(0.996264)" xlink:href="#Computer_Modern_Bright-110"/>
      <use transform="translate(285.594335 0)scale(0.996264)" xlink:href="#Computer_Modern_Bright-99"/>
      <use transform="translate(330.426003 0)scale(0.996264)" xlink:href="#Computer_Modern_Bright-104"/>
      <use transform="translate(378.5785 0)scale(0.996264)" xlink:href="#Computer_Modern_Bright-101"/>
      <use transform="translate(423.410167 0)scale(0.996264)" xlink:href="#Computer_Modern_Bright-100"/>
     </g>
    </g>
    <g id="line2d_25">
     <path d="M 62.979163 82.073833 
L 90.979163 82.073833 
" style="fill:none;stroke:#ff7f00;stroke-linecap:round;stroke-width:2;"/>
    </g>
    <g id="line2d_26"/>
    <g id="text_17">
     <!-- log-Additive -->
     <defs>
      <path d="M 35.40625 11.984375 
L 35.5 11.984375 
L 35.5 2.65625 
C 35.5 -0.15625 35.5 -2.859375 34.59375 -5.5625 
C 33.09375 -9.1875 30.5 -12.5 26.203125 -13.09375 
C 25 -13.203125 23.703125 -13.09375 22.5 -13 
C 16 -13 11.703125 -11.046875 6.5 -8.671875 
L 6.5 -12.484375 
C 6.5 -14.40625 6.796875 -14.5 8.703125 -15.109375 
C 13.796875 -17.21875 23 -19.3125 29.296875 -17.71875 
C 36.296875 -15.90625 41.40625 -9.28125 41.90625 -1.21875 
C 42 0.1875 41.90625 1.703125 41.90625 3.125 
L 41.90625 48 
L 35.59375 48 
L 35.59375 39.984375 
C 34.09375 42.484375 32.5 44.796875 29.90625 46.40625 
C 22.90625 50.625 13.40625 46 9.5 40.578125 
C 3.09375 32.640625 1.90625 20.34375 7 11.484375 
C 8 9.78125 9.203125 8.171875 10.59375 6.765625 
C 15.40625 2.046875 23.59375 -0.46875 29.5 3.75 
C 31.90625 5.359375 34.703125 9.078125 35.40625 11.984375 
M 25.5 43 
C 26.40625 43 27.40625 43 28.296875 42.796875 
C 31.90625 42.09375 33.90625 38.875 35.09375 35.65625 
C 35.796875 33.453125 35.59375 31.046875 35.59375 28.734375 
C 35.59375 23.71875 35.5 18.5 33.796875 13.765625 
C 32.59375 10.265625 30.09375 7.140625 26.203125 6.75 
C 24.90625 6.640625 23.59375 6.84375 22.296875 7.140625 
C 16.203125 8.546875 12 13.765625 10.703125 19.796875 
C 8.90625 28.53125 13.203125 39.171875 22 42.1875 
C 23.09375 42.59375 24.296875 42.890625 25.5 43 
" id="Computer_Modern_Bright-103"/>
      <path d="M 0.40625 26.015625 
L 0.40625 21 
L 28.296875 21 
L 28.296875 26.015625 
z
" id="Computer_Modern_Bright-45"/>
      <path d="M 2.09375 0.09375 
L 6.59375 0.09375 
L 8.40625 0.296875 
C 11.40625 6.796875 13.5 14.203125 16.203125 21 
C 26.09375 21 36.90625 21 46.296875 21 
L 47.09375 19.6875 
C 48.796875 14.546875 50.796875 9.59375 52.59375 4.546875 
C 53.09375 3.015625 53.59375 1.515625 54.40625 0.296875 
C 56.59375 0 59.203125 0 61.59375 0 
C 59.90625 4.90625 36.703125 67.203125 36 68.890625 
C 35.90625 69.296875 35.703125 69.890625 35.203125 70 
C 34.59375 70.09375 34 70 33.40625 70 
L 30.09375 70 
C 28.59375 70 28 70.1875 27.59375 68.609375 
C 27.203125 67.59375 2.09375 0.09375 2.09375 0.09375 
M 31.40625 63.171875 
C 35.59375 50.71875 40.09375 38.46875 44.5 26.21875 
L 18.203125 26.21875 
L 26.90625 50.109375 
z
" id="Computer_Modern_Bright-65"/>
     </defs>
     <g style="fill:#262626;" transform="translate(102.179163 86.973833)scale(0.14 -0.14)">
      <use transform="scale(0.996264)" xlink:href="#Computer_Modern_Bright-108"/>
      <use transform="translate(19.094959 0)scale(0.996264)" xlink:href="#Computer_Modern_Bright-111"/>
      <use transform="translate(69.738177 0)scale(0.996264)" xlink:href="#Computer_Modern_Bright-103"/>
      <use transform="translate(117.890674 0)scale(0.996264)" xlink:href="#Computer_Modern_Bright-45"/>
      <use transform="translate(151.099347 0)scale(0.996264)" xlink:href="#Computer_Modern_Bright-65"/>
      <use transform="translate(214.610965 0)scale(0.996264)" xlink:href="#Computer_Modern_Bright-100"/>
      <use transform="translate(262.763462 0)scale(0.996264)" xlink:href="#Computer_Modern_Bright-100"/>
      <use transform="translate(310.915959 0)scale(0.996264)" xlink:href="#Computer_Modern_Bright-105"/>
      <use transform="translate(330.010918 0)scale(0.996264)" xlink:href="#Computer_Modern_Bright-116"/>
      <use transform="translate(366.125306 0)scale(0.996264)" xlink:href="#Computer_Modern_Bright-105"/>
      <use transform="translate(385.220265 0)scale(0.996264)" xlink:href="#Computer_Modern_Bright-118"/>
      <use transform="translate(427.561303 0)scale(0.996264)" xlink:href="#Computer_Modern_Bright-101"/>
     </g>
    </g>
    <g id="line2d_27">
     <path d="M 62.979163 101.198444 
L 90.979163 101.198444 
" style="fill:none;stroke:#000000;stroke-linecap:round;stroke-width:2;"/>
    </g>
    <g id="line2d_28"/>
    <g id="text_18">
     <!-- \emph{vhl-1} $&gt;$ \emph{rhy-1} -->
     <g style="fill:#262626;" transform="translate(102.179163 106.098444)scale(0.14 -0.14)">
      <use transform="scale(0.996264)" xlink:href="#Computer_Modern_Bright_Slanted-118"/>
      <use transform="translate(42.341038 0)scale(0.996264)" xlink:href="#Computer_Modern_Bright_Slanted-104"/>
      <use transform="translate(90.493535 0)scale(0.996264)" xlink:href="#Computer_Modern_Bright_Slanted-108"/>
      <use transform="translate(109.588494 0)scale(0.996264)" xlink:href="#Computer_Modern_Bright_Slanted-45"/>
      <use transform="translate(142.797167 0)scale(0.996264)" xlink:href="#Computer_Modern_Bright_Slanted-49"/>
      <use transform="translate(235.881937 0)scale(0.996264)" xlink:href="#Computer_Modern_Bright_Math_Slanted-62"/>
      <use transform="translate(344.834617 0)scale(0.996264)" xlink:href="#Computer_Modern_Bright_Slanted-114"/>
      <use transform="translate(376.797976 0)scale(0.996264)" xlink:href="#Computer_Modern_Bright_Slanted-104"/>
      <use transform="translate(424.950473 0)scale(0.996264)" xlink:href="#Computer_Modern_Bright_Slanted-121"/>
      <use transform="translate(467.291511 0)scale(0.996264)" xlink:href="#Computer_Modern_Bright_Slanted-45"/>
      <use transform="translate(500.500184 0)scale(0.996264)" xlink:href="#Computer_Modern_Bright_Slanted-49"/>
     </g>
    </g>
    <g id="line2d_29">
     <path d="M 62.979163 120.323055 
L 90.979163 120.323055 
" style="fill:none;stroke:#33a02c;stroke-linecap:round;stroke-width:2;"/>
    </g>
    <g id="line2d_30"/>
    <g id="text_19">
     <!-- data -->
     <g style="fill:#262626;" transform="translate(102.179163 125.223055)scale(0.14 -0.14)">
      <use transform="scale(0.996264)" xlink:href="#Computer_Modern_Bright-100"/>
      <use transform="translate(48.152497 0)scale(0.996264)" xlink:href="#Computer_Modern_Bright-97"/>
      <use transform="translate(94.644579 0)scale(0.996264)" xlink:href="#Computer_Modern_Bright-116"/>
      <use transform="translate(130.758967 0)scale(0.996264)" xlink:href="#Computer_Modern_Bright-97"/>
     </g>
    </g>
   </g>
  </g>
 </g>
 <defs>
  <clipPath id="pd08e97dc97">
   <rect height="298.98" width="446.4" x="50.379163" y="7.2"/>
  </clipPath>
 </defs>
</svg>
