<?xml version="1.0" encoding="utf-8" standalone="no"?>
<!DOCTYPE svg PUBLIC "-//W3C//DTD SVG 1.1//EN"
  "http://www.w3.org/Graphics/SVG/1.1/DTD/svg11.dtd">
<!-- Created with matplotlib (http://matplotlib.org/) -->
<svg height="353pt" version="1.1" viewBox="0 0 508 353" width="508pt" xmlns="http://www.w3.org/2000/svg" xmlns:xlink="http://www.w3.org/1999/xlink">
 <defs>
  <style type="text/css">
*{stroke-linecap:butt;stroke-linejoin:round;}
  </style>
 </defs>
 <g id="figure_1">
  <g id="patch_1">
   <path d="M 0 353.548374 
L 508.628355 353.548374 
L 508.628355 0 
L 0 0 
z
" style="fill:#ffffff;"/>
  </g>
  <g id="axes_1">
   <g id="patch_2">
    <path d="M 55.028355 306.18 
L 501.428355 306.18 
L 501.428355 7.2 
L 55.028355 7.2 
z
" style="fill:#eaeaf2;"/>
   </g>
   <g id="matplotlib.axis_1">
    <g id="xtick_1">
     <g id="line2d_1"/>
     <g id="text_1">
      <!-- $-0.6$ -->
      <defs>
       <path d="M 9.796875 28.078125 
C 8 27.484375 7.796875 24.78125 9.796875 24.28125 
C 10.296875 24.078125 10.90625 24.1875 11.5 24.1875 
L 64.703125 24.1875 
C 65.90625 24.1875 67.796875 23.78125 68.796875 24.78125 
C 69.90625 25.875 69.296875 27.875 67.703125 28.1875 
C 66.5 28.375 65.09375 28.1875 63.90625 28.1875 
L 11.40625 28.1875 
C 10.90625 28.1875 10.296875 28.28125 9.796875 28.078125 
" id="Computer_Modern_Bright_Math_Symbols-0"/>
       <path d="M 14.796875 63.859375 
C 11.90625 61.859375 9.90625 59.140625 8.40625 56.03125 
C 4.796875 49 4.40625 40.765625 4.40625 31.828125 
C 4.40625 20.578125 6.40625 10.25 12 4.3125 
C 17.296875 -1.203125 25.703125 -2.609375 32.796875 0.296875 
C 37.203125 2.015625 40.40625 5.71875 42.40625 9.734375 
C 46 16.875 46.40625 25.40625 46.40625 34.234375 
C 46.40625 37.046875 46.296875 39.859375 46 42.671875 
C 45.296875 49.40625 43 56.828125 39.296875 60.953125 
C 33.203125 67.6875 22.296875 69.1875 14.796875 63.859375 
M 34.90625 58.140625 
C 39.59375 53.125 40 43.484375 40 34.34375 
L 40 28.921875 
C 40 24.296875 39.203125 18.28125 38.203125 14.859375 
C 36.796875 10.140625 34.5 6.734375 29.90625 4.625 
C 24.296875 2.609375 18.5 4.515625 15.296875 8.9375 
C 11 14.65625 10.796875 24.796875 10.796875 33.734375 
C 10.796875 42.171875 10.90625 51.515625 15 57.03125 
C 19.5 63.0625 29.203125 64.0625 34.90625 58.140625 
" id="Computer_Modern_Bright-48"/>
       <path d="M 10.703125 7.8125 
L 10.703125 0 
L 18.5 0 
L 18.5 7.8125 
z
" id="Computer_Modern_Bright_Math_Slanted-58"/>
       <path d="M 11.296875 32.625 
L 11.203125 32.625 
C 11.203125 41.765625 12.796875 52.421875 20.59375 58.25 
C 24.90625 61.375 30.703125 62.96875 38.203125 61.171875 
C 39.796875 60.765625 41.296875 60.15625 42.796875 59.765625 
L 42.796875 63.28125 
C 42.796875 63.671875 42.90625 64.375 42.59375 64.78125 
C 41.90625 65.6875 36.296875 66.59375 36.09375 66.59375 
C 27.40625 67.59375 21.703125 65.6875 16.40625 61.171875 
C 10 55.640625 6.296875 47.515625 5.09375 39.28125 
C 4 32.65625 4.90625 22 6.203125 16.78125 
C 8.296875 9.046875 12.296875 2.21875 19.703125 -0.390625 
C 24.09375 -2 29.5 -2 33.703125 0.015625 
C 37.09375 1.640625 39.90625 4.46875 42.09375 7.5 
C 45.59375 12.34375 46.5 18.21875 46.09375 24.171875 
C 45.90625 27.109375 45.5 30.046875 44.296875 32.765625 
C 42.40625 37.125 39.203125 41.671875 35.09375 43.6875 
C 33.203125 44.5 31.203125 44.5 29.203125 44.5 
C 23.90625 44.5 18.90625 42.1875 15.203125 38.359375 
C 13.59375 36.75 12 34.71875 11.296875 32.625 
M 24.40625 39.515625 
C 28.203125 39.8125 32.203125 39.21875 35.09375 36.5 
C 38.90625 32.890625 39.59375 27.765625 39.59375 22.8125 
C 39.59375 19.46875 39.703125 16.015625 38.703125 12.859375 
C 38.09375 11.234375 37.296875 9.828125 36.40625 8.5 
C 34.203125 5.5625 31.40625 4.125 26.796875 3.515625 
C 22.296875 3.515625 17.796875 5.3125 15.203125 9.125 
C 13.59375 11.328125 12.796875 14.046875 12.296875 16.640625 
C 11.703125 19.34375 11.296875 22.140625 11.5 24.859375 
C 12 31.984375 17 38.515625 24.40625 39.515625 
" id="Computer_Modern_Bright-54"/>
      </defs>
      <g style="fill:#262626;" transform="translate(60.020309 324.249603)scale(0.16 -0.16)">
       <use transform="scale(0.996264)" xlink:href="#Computer_Modern_Bright_Math_Symbols-0"/>
       <use transform="translate(77.487468 0)scale(0.996264)" xlink:href="#Computer_Modern_Bright-48"/>
       <use transform="translate(128.130685 0)scale(0.996264)" xlink:href="#Computer_Modern_Bright_Math_Slanted-58"/>
       <use transform="translate(157.188132 0)scale(0.996264)" xlink:href="#Computer_Modern_Bright-54"/>
      </g>
     </g>
    </g>
    <g id="xtick_2">
     <g id="line2d_2"/>
     <g id="text_2">
      <!-- $-0.5$ -->
      <defs>
       <path d="M 8.40625 66.328125 
L 8.40625 30.453125 
L 12.203125 30.453125 
C 12.703125 30.453125 13.40625 30.359375 13.796875 30.5625 
C 14.296875 30.859375 14.59375 31.5625 14.90625 31.96875 
C 15.59375 32.859375 16.40625 33.5625 17.203125 34.265625 
C 20.796875 37.28125 27.703125 38.484375 32.296875 36.171875 
C 38.59375 33.171875 39.796875 25.21875 39.296875 19 
C 39 15.0625 37.796875 11.453125 35.5 9.140625 
C 30.203125 3.5 21.296875 3.5 14.796875 6.796875 
C 11.59375 8.40625 8.90625 10.921875 6.90625 13.921875 
L 6.796875 13.921875 
C 6.5 13.421875 4.203125 9.90625 4.203125 9.296875 
C 4.203125 8.890625 4.5 8.59375 4.703125 8.296875 
C 7.703125 4.78125 11.59375 2.0625 16.09375 0.5625 
C 25 -2.25 35 -0.046875 41.296875 7.1875 
C 48.796875 15.921875 47.796875 30.15625 39.09375 37.765625 
C 36.5 40.1875 32.90625 41.890625 28.59375 42.28125 
C 22.796875 43.09375 17.59375 40.28125 14.5 37.671875 
L 14.5 61 
L 42.90625 61 
L 42.90625 66.328125 
z
" id="Computer_Modern_Bright-53"/>
      </defs>
      <g style="fill:#262626;" transform="translate(125.265034 324.249603)scale(0.16 -0.16)">
       <use transform="scale(0.996264)" xlink:href="#Computer_Modern_Bright_Math_Symbols-0"/>
       <use transform="translate(77.487468 0)scale(0.996264)" xlink:href="#Computer_Modern_Bright-48"/>
       <use transform="translate(128.130685 0)scale(0.996264)" xlink:href="#Computer_Modern_Bright_Math_Slanted-58"/>
       <use transform="translate(157.188132 0)scale(0.996264)" xlink:href="#Computer_Modern_Bright-53"/>
      </g>
     </g>
    </g>
    <g id="xtick_3">
     <g id="line2d_3"/>
     <g id="text_3">
      <!-- $-0.4$ -->
      <defs>
       <path d="M 2.09375 18 
L 31 18 
L 31 0 
L 37.296875 0 
L 37.296875 18 
L 48.703125 18 
L 48.703125 23.328125 
L 37.296875 23.328125 
L 37.296875 66.46875 
L 31.90625 66.46875 
C 30.09375 66.46875 29.59375 66.578125 28.796875 65.0625 
C 24.796875 58.515625 3.703125 25.765625 3 24.859375 
C 2.203125 23.4375 2.09375 23.546875 2.09375 21.4375 
z
M 31.296875 60.875 
L 31.296875 23.328125 
L 8.59375 23.328125 
C 9.296875 24.734375 10.296875 26.03125 11.203125 27.4375 
C 16.203125 35.171875 28.09375 53.546875 30.59375 59.28125 
C 30.90625 59.78125 31 60.375 31.296875 60.875 
" id="Computer_Modern_Bright-52"/>
      </defs>
      <g style="fill:#262626;" transform="translate(190.50976 324.249603)scale(0.16 -0.16)">
       <use transform="scale(0.996264)" xlink:href="#Computer_Modern_Bright_Math_Symbols-0"/>
       <use transform="translate(77.487468 0)scale(0.996264)" xlink:href="#Computer_Modern_Bright-48"/>
       <use transform="translate(128.130685 0)scale(0.996264)" xlink:href="#Computer_Modern_Bright_Math_Slanted-58"/>
       <use transform="translate(157.188132 0)scale(0.996264)" xlink:href="#Computer_Modern_Bright-52"/>
      </g>
     </g>
    </g>
    <g id="xtick_4">
     <g id="line2d_4"/>
     <g id="text_4">
      <!-- $-0.3$ -->
      <defs>
       <path d="M 8.09375 50.71875 
C 8.90625 51.921875 9.5 53.234375 10.40625 54.4375 
C 12.5 57.25 15.40625 59.453125 18.703125 60.765625 
C 23.90625 62.875 31.5 62.875 35.59375 58.21875 
C 39.203125 54.078125 37.703125 47.609375 34.40625 43.78125 
C 31.40625 40.25 27.5 38.53125 21.703125 38.53125 
C 20 38.53125 18.40625 38.03125 16.703125 38.03125 
L 16.703125 33 
L 23.59375 33 
C 29.40625 33 33.203125 32.109375 36.40625 28.6875 
C 41.90625 22.859375 41.40625 12.515625 35.296875 7.203125 
C 32.203125 4.59375 27.90625 3.78125 23.90625 4.078125 
C 16.09375 4.6875 9.203125 8.8125 4.59375 15.234375 
C 4.09375 14.234375 4.09375 12.828125 3.90625 11.71875 
C 3.59375 10.109375 3.59375 10.109375 4.59375 8.8125 
C 7.5 4.890625 13.203125 1.28125 17.703125 -0.03125 
C 25.703125 -2.4375 35 -1.34375 41.203125 4.78125 
C 42.40625 6 43.5 7.296875 44.40625 8.703125 
C 48.09375 14.53125 48.203125 22.15625 44.09375 27.78125 
C 42.40625 30.09375 40.203125 31.90625 37.703125 33.3125 
C 36 34.3125 34 35.3125 32 35.515625 
C 37.796875 38.234375 43.203125 42.828125 44.203125 50.359375 
C 45.09375 57.375 41 61.6875 36.796875 64.1875 
C 30.296875 68 21.796875 68 15.09375 64.671875 
C 12 63.171875 9.203125 60.96875 7.09375 58.25 
C 6.703125 57.75 5.203125 56.046875 5.203125 55.234375 
C 5.203125 54.734375 5.59375 54.234375 5.90625 53.828125 
z
" id="Computer_Modern_Bright-51"/>
      </defs>
      <g style="fill:#262626;" transform="translate(255.754485 324.249603)scale(0.16 -0.16)">
       <use transform="scale(0.996264)" xlink:href="#Computer_Modern_Bright_Math_Symbols-0"/>
       <use transform="translate(77.487468 0)scale(0.996264)" xlink:href="#Computer_Modern_Bright-48"/>
       <use transform="translate(128.130685 0)scale(0.996264)" xlink:href="#Computer_Modern_Bright_Math_Slanted-58"/>
       <use transform="translate(157.188132 0)scale(0.996264)" xlink:href="#Computer_Modern_Bright-51"/>
      </g>
     </g>
    </g>
    <g id="xtick_5">
     <g id="line2d_5"/>
     <g id="text_5">
      <!-- $-0.2$ -->
      <defs>
       <path d="M 7.296875 45.96875 
C 8.703125 51.59375 11.09375 57.984375 16.796875 60.5 
C 19.203125 61.5 21.796875 61.703125 24.40625 61.5 
C 29.296875 61.09375 34.09375 59.09375 37.09375 55.09375 
C 39.296875 52.078125 40.09375 48.375 39.703125 44.78125 
C 38.5 34.34375 28.296875 26.84375 21.703125 21.234375 
C 17.90625 18.03125 7.09375 7.8125 7.09375 7.8125 
L 5.40625 6.203125 
C 4.5 5.3125 4.40625 5.3125 4.40625 3.5 
L 4.40625 0 
L 46.40625 0 
L 46.40625 5.625 
L 10.203125 5.625 
C 13.40625 8.734375 26.703125 20.515625 28.5 21.921875 
C 34.296875 26.65625 40.796875 31.375 44.296875 38.21875 
C 48.203125 46.0625 46.5 55.9375 39.90625 61.765625 
C 35.90625 65.296875 30.40625 67 25.09375 67 
C 20.203125 67 15.203125 66 11.296875 62.90625 
C 8.296875 60.390625 5.796875 56.6875 4.40625 52.875 
C 4.09375 52.28125 3.59375 51.28125 3.703125 50.578125 
C 3.796875 49.984375 4.40625 49.484375 4.703125 49.078125 
C 5.5 48.078125 6.296875 46.875 7.296875 45.96875 
" id="Computer_Modern_Bright-50"/>
      </defs>
      <g style="fill:#262626;" transform="translate(320.999211 324.249603)scale(0.16 -0.16)">
       <use transform="scale(0.996264)" xlink:href="#Computer_Modern_Bright_Math_Symbols-0"/>
       <use transform="translate(77.487468 0)scale(0.996264)" xlink:href="#Computer_Modern_Bright-48"/>
       <use transform="translate(128.130685 0)scale(0.996264)" xlink:href="#Computer_Modern_Bright_Math_Slanted-58"/>
       <use transform="translate(157.188132 0)scale(0.996264)" xlink:href="#Computer_Modern_Bright-50"/>
      </g>
     </g>
    </g>
    <g id="xtick_6">
     <g id="line2d_6"/>
     <g id="text_6">
      <!-- $-0.1$ -->
      <defs>
       <path d="M 9.703125 60.015625 
L 9.703125 55 
C 15.203125 55 19 56 23.40625 57.90625 
L 23.40625 5.015625 
L 10.296875 5.015625 
L 10.296875 0 
L 43 0 
L 43 5.015625 
L 29.90625 5.015625 
L 29.90625 67 
C 27.5 67 27.90625 66.359375 26 64.875 
C 21.90625 61.71875 16.203125 60.015625 9.703125 60.015625 
" id="Computer_Modern_Bright-49"/>
      </defs>
      <g style="fill:#262626;" transform="translate(386.243936 324.249603)scale(0.16 -0.16)">
       <use transform="scale(0.996264)" xlink:href="#Computer_Modern_Bright_Math_Symbols-0"/>
       <use transform="translate(77.487468 0)scale(0.996264)" xlink:href="#Computer_Modern_Bright-48"/>
       <use transform="translate(128.130685 0)scale(0.996264)" xlink:href="#Computer_Modern_Bright_Math_Slanted-58"/>
       <use transform="translate(157.188132 0)scale(0.996264)" xlink:href="#Computer_Modern_Bright-49"/>
      </g>
     </g>
    </g>
    <g id="xtick_7">
     <g id="line2d_7"/>
     <g id="text_7">
      <!-- $0.0$ -->
      <g style="fill:#262626;" transform="translate(457.687659 324.249603)scale(0.16 -0.16)">
       <use transform="scale(0.996264)" xlink:href="#Computer_Modern_Bright-48"/>
       <use transform="translate(50.643218 0)scale(0.996264)" xlink:href="#Computer_Modern_Bright_Math_Slanted-58"/>
       <use transform="translate(79.700665 0)scale(0.996264)" xlink:href="#Computer_Modern_Bright-48"/>
      </g>
     </g>
    </g>
    <g id="text_8">
     <!-- Epistasis Coefficient -->
     <defs>
      <path d="M 8 69.328125 
L 8 0 
L 55.40625 0 
L 55.40625 5.625 
L 15 5.625 
L 15 33.671875 
L 51.09375 33.671875 
L 51.09375 39 
L 15 39 
L 15 64 
L 54 64 
L 54 69.328125 
z
" id="Computer_Modern_Bright-69"/>
      <path d="M 12.703125 40.53125 
L 12.703125 47.15625 
L 6.40625 47.15625 
L 6.40625 -17 
L 12.796875 -17 
L 12.796875 6.09375 
C 14.203125 4.078125 15.796875 2.28125 17.90625 1.078125 
C 25 -3.25 34 0.171875 38.90625 6.59375 
C 45.40625 14.96875 46.09375 27.5 41.59375 36.984375 
C 39 42.4375 34.09375 47.5 27.796875 48 
C 22.296875 48 18.09375 45.8125 15.09375 43.125 
C 14.203125 42.328125 13.5 41.4375 12.703125 40.53125 
M 21.90625 42.875 
C 26 43.171875 30 41.265625 32.796875 38.265625 
C 34.5 36.34375 35.796875 34.140625 36.59375 31.734375 
C 40.09375 22.296875 36.90625 9.234375 26.796875 5.328125 
C 21 3.109375 15.296875 5.125 13.09375 10.546875 
C 12.59375 11.546875 12.796875 12.859375 12.796875 13.953125 
L 12.796875 34.640625 
C 12.796875 36.953125 13 37.15625 14.5 38.859375 
C 16.296875 41.0625 19 42.578125 21.90625 42.875 
" id="Computer_Modern_Bright-112"/>
      <path d="M 6.40625 70 
L 6.40625 63.671875 
L 12.703125 63.671875 
L 12.703125 70 
z
M 6.40625 47.390625 
L 6.40625 0 
L 12.703125 0 
L 12.703125 47.390625 
z
" id="Computer_Modern_Bright-105"/>
      <path d="M 3.09375 9.640625 
C 2.90625 8.234375 2.59375 6.9375 2.40625 5.53125 
C 2.203125 4.421875 1.90625 3.921875 2.90625 3.421875 
C 7 1.015625 11.90625 -0.296875 17.703125 -0.796875 
C 24.203125 -1.40625 32.40625 0.109375 35.59375 6.53125 
C 36.5 8.34375 37 10.34375 37.09375 12.359375 
C 37.5 19.578125 31.796875 24.203125 26.90625 25.90625 
C 21.40625 28.015625 13.90625 27.3125 10.09375 31.53125 
C 8.09375 33.84375 8 37.265625 9.90625 39.671875 
C 13.90625 45.296875 26.796875 42.875 31.90625 40.375 
C 32.703125 39.96875 33.40625 39.46875 34.296875 39.265625 
L 35.203125 44.6875 
C 30.5 46.796875 26.40625 48 19.90625 48 
C 14.296875 48 9.203125 46.703125 6 43.484375 
C 2.796875 40.171875 1.703125 34.640625 3.59375 30.4375 
C 5.40625 26.40625 9.203125 23.796875 13.296875 22.5 
C 19.203125 20.390625 25.90625 21.390625 29.796875 16.578125 
C 32 13.765625 31.59375 9.546875 29.09375 7.03125 
C 24.296875 2.609375 14.09375 4.21875 8.5 6.625 
C 6.59375 7.4375 4.90625 8.640625 3.09375 9.640625 
" id="Computer_Modern_Bright-115"/>
      <path d="M 10.796875 60.5 
L 10.796875 47.015625 
L 1.09375 47.015625 
L 1.09375 42 
L 10.703125 42 
L 10.703125 15.015625 
C 10.703125 10.578125 10.40625 5.234375 13.296875 1.515625 
C 15 -0.703125 17.296875 -1.296875 20.796875 -1 
C 23.703125 -1 26.59375 -0.390625 29.296875 0.65625 
C 30.203125 1.0625 33.5 2.515625 33.90625 3.234375 
C 34.09375 3.640625 32.796875 8.09375 32.796875 8.09375 
L 30.40625 6.265625 
C 27.296875 4.34375 21.09375 2.328125 18.5 5.96875 
C 16.203125 9.09375 16.796875 13.75 16.796875 17.375 
L 16.796875 42 
L 32.296875 42 
L 32.296875 47.015625 
L 16.796875 47.015625 
L 16.796875 60.5 
z
" id="Computer_Modern_Bright-116"/>
      <path d="M 7.90625 39.015625 
C 9.59375 39.859375 11 41.09375 12.703125 41.921875 
C 15.40625 43.15625 18.203125 44 21.203125 44 
C 22.59375 44.09375 24.203125 44.296875 25.59375 44 
C 28.09375 43.59375 30.296875 42.078125 31.796875 39.953125 
C 33.296875 37.515625 33.90625 35.390625 33.90625 31.46875 
L 33.90625 27.015625 
C 29.09375 27.015625 24.296875 26.609375 19.703125 25.390625 
C 13.90625 24.078125 7.59375 21.125 5.5 15.84375 
C 3.40625 10.78125 5.59375 4.078125 10.09375 1.03125 
C 12.296875 -0.5 14.90625 -0.5 17.5 -0.296875 
C 21.703125 0 25.90625 1.015625 29.5 3.25 
C 31.203125 4.25 32.90625 5.578125 33.90625 7.296875 
L 34 7.296875 
L 34 0.203125 
L 40.296875 0.203125 
L 40.296875 26.890625 
C 40.296875 29.8125 40.59375 32.953125 40 35.890625 
C 39.40625 39.921875 36.90625 43.265625 34 45.59375 
C 30.59375 48.21875 26.703125 49.109375 21.5 48.71875 
C 16.703125 48.71875 13 47.5 9.40625 45.765625 
C 8.90625 45.5625 7.90625 45.234375 7.59375 44.640625 
C 7.296875 44.21875 7.5 43.515625 7.5 43 
C 7.703125 41.671875 7.796875 40.34375 7.90625 39.015625 
M 33.90625 24 
L 33.90625 16.375 
C 33.90625 14.0625 34 11.953125 32.703125 9.953125 
C 31.59375 8.34375 30.09375 7.234375 28.5 6.4375 
C 22.796875 3.515625 14.09375 4.421875 11.59375 9.25 
C 9.59375 12.75 11.703125 16.875 14.59375 19.1875 
C 18.90625 22.5 27.296875 24 33.90625 24 
" id="Computer_Modern_Bright-97"/>
      <path d="M 60.5 10.875 
C 58.5 9.859375 56.703125 8.453125 54.703125 7.453125 
C 50 5.046875 44 4.140625 37.5 4.734375 
C 31.703125 5.546875 26.90625 8.359375 23.40625 11.875 
C 12.203125 23.15625 11.40625 42.96875 21.296875 55.34375 
C 25.5 60.875 31.90625 65 41.296875 65 
C 45.09375 65 49 64.296875 52.5 62.890625 
C 54.59375 61.96875 56.59375 60.765625 58.59375 59.765625 
L 59.796875 66.8125 
C 57.59375 67.671875 55.296875 68.5625 53 69.09375 
C 47.40625 70.625 38.90625 70.625 33.09375 69.21875 
C 22.90625 66.921875 15.5 59.828125 11.296875 51.625 
C 5.5 40.015625 6.203125 25.515625 13.203125 14.59375 
C 15 11.703125 17.296875 9.109375 19.90625 6.890625 
C 25.90625 1.6875 33.296875 -1.3125 43.59375 -0.5 
C 49.796875 -0.5 53.40625 0.515625 58.203125 3.203125 
C 58.703125 3.5 60.59375 4.515625 60.90625 4.9375 
C 61.09375 5.4375 60.59375 9.53125 60.5 10.875 
" id="Computer_Modern_Bright-67"/>
      <path d="M 10.703125 42.078125 
C 1.796875 33.234375 0.796875 17.875 8.5 7.9375 
C 9.59375 6.421875 10.90625 5.125 12.40625 4.015625 
C 16.09375 1 21.5 -1.203125 27.796875 -0.5 
C 37.796875 0.703125 44.703125 8.84375 46.796875 17.375 
C 49.59375 29.328125 43.703125 42.671875 32.703125 46.890625 
C 24.09375 50.40625 15.5 46.890625 10.703125 42.078125 
M 35.703125 39.359375 
C 40.5 35.03125 41.40625 28.109375 41 21.984375 
C 40.703125 17.265625 39.40625 12.34375 36.09375 8.828125 
C 30.703125 3 20.703125 3 14.90625 8.625 
C 11.90625 11.84375 10.09375 16.453125 9.796875 21.984375 
C 9.296875 30.109375 11.296875 38.75 19.296875 41.96875 
C 25.203125 44.578125 32 42.671875 35.703125 39.359375 
" id="Computer_Modern_Bright-111"/>
      <path d="M 41.796875 10.9375 
C 39.5 9.234375 38.796875 8.328125 35.90625 6.8125 
C 29.796875 3.5 22.59375 3.5 17.40625 7.171875 
C 12.40625 10.765625 9.5 16.640625 9.5 25 
L 42.5 25 
C 42.5 32.421875 40.796875 38.859375 36.59375 43.375 
C 32 47.890625 24.796875 49.296875 18.703125 47.390625 
C 16.40625 46.6875 14.296875 45.484375 12.40625 43.96875 
C 6.09375 38.859375 3.40625 30.71875 3.5 22.78125 
C 3.703125 12.34375 10.796875 1.90625 21.296875 -0.3125 
C 26.796875 -1.421875 32.59375 -0.203125 37.5 2.296875 
C 38.40625 2.796875 41.703125 4.609375 42.09375 5.515625 
C 42.40625 6.015625 41.796875 10.9375 41.796875 10.9375 
M 37.203125 28.90625 
L 10 28.90625 
C 11.203125 36.234375 17.203125 43.96875 25.296875 43.0625 
C 31.90625 42.46875 35.40625 37.75 36.703125 31.828125 
C 36.90625 30.8125 37 29.921875 37.203125 28.90625 
" id="Computer_Modern_Bright-101"/>
      <path d="M 10.59375 47.015625 
L 2 47.015625 
L 2 42 
L 10.59375 42 
L 10.59375 0 
L 16.90625 0 
L 16.90625 42 
L 30.09375 42 
L 30.09375 47.015625 
L 16.796875 47.015625 
L 16.796875 56.234375 
C 16.796875 57.890625 16.59375 59.65625 17.296875 61.21875 
C 19.5 65.875 25.40625 65.875 29.59375 65.078125 
C 30.59375 64.875 31.703125 64.46875 32.703125 64.265625 
L 32.703125 69.90625 
C 27.703125 70.609375 22.296875 71.21875 17.703125 68.46875 
C 15.796875 67.4375 14.203125 65.6875 13 63.921875 
C 11.09375 60.9375 10.59375 58.78125 10.59375 53.71875 
z
M 38.09375 0 
L 44.40625 0 
L 44.40625 42 
L 57.59375 42 
L 57.59375 47.015625 
L 44.296875 47.015625 
L 44.296875 55.234375 
C 44.296875 56.890625 44.09375 58.65625 44.40625 60.328125 
C 44.90625 62.296875 46.09375 63.65625 47.703125 64.671875 
C 50.796875 66.171875 54.40625 65.078125 57.59375 64.171875 
L 57.59375 70 
C 55.09375 70.1875 52.703125 70.6875 50.203125 70.5 
C 43.40625 70 38.59375 64.046875 38.09375 57.3125 
C 38 55.890625 38.09375 54.375 38.09375 52.96875 
z
M 65.59375 70 
L 65.59375 63.671875 
L 71.90625 63.671875 
L 71.90625 70 
z
M 65.59375 47.390625 
L 65.59375 0 
L 71.90625 0 
L 71.90625 47.390625 
z
" id="Computer_Modern_Bright-14"/>
      <path d="M 42.40625 11.25 
C 40.5 9.84375 38.796875 8.328125 36.703125 7.125 
C 32 4.625 24.796875 3.421875 19.40625 5.921875 
C 11.59375 9.9375 9.5 19.6875 10.59375 27.71875 
C 10.796875 29.328125 11.09375 30.921875 11.59375 32.4375 
C 13.796875 38.96875 19.296875 44.078125 28.296875 43.078125 
C 33.09375 42.671875 35.5 41.875 39.296875 39.765625 
C 40 39.359375 40.59375 38.859375 41.40625 38.65625 
C 41.5 39.859375 41.796875 41.171875 42 42.375 
C 42.296875 43.984375 42.296875 44.1875 40.796875 44.890625 
C 39.703125 45.390625 38.59375 45.984375 37.40625 46.390625 
C 32.796875 48.40625 25.203125 49 20 47.5 
C 12.90625 45.484375 7.59375 39.359375 5.296875 32.53125 
C 4.203125 29.421875 3.90625 26.109375 3.90625 22.796875 
C 4 12.25 11.203125 1.90625 21.703125 -0.203125 
C 27.5 -1.40625 34.203125 0.296875 38.203125 2.40625 
C 39.203125 2.90625 42.203125 4.71875 42.703125 5.625 
C 43 6.125 42.40625 11.25 42.40625 11.25 
" id="Computer_Modern_Bright-99"/>
      <path d="M 12.59375 37.28125 
L 12.5 37.28125 
L 12.5 47.390625 
L 6.40625 47.390625 
L 6.40625 0 
L 12.796875 0 
L 12.796875 21.9375 
C 12.796875 26.84375 12.5 31.875 14.703125 36.46875 
C 15.796875 38.78125 17.5 40.78125 19.796875 41.984375 
C 21.703125 42.890625 23.703125 42.890625 25.796875 42.6875 
C 28.796875 42.6875 31.703125 41.890625 33.59375 39.375 
C 35.40625 37.0625 35.5 34.0625 35.5 31.25 
L 35.5 0 
L 41.90625 0 
L 41.90625 26.859375 
C 41.90625 31.875 42.40625 37.375 40 41.890625 
C 38.09375 45.5 34.40625 47.203125 30.5 47.703125 
C 28.5 48 26.40625 48 24.40625 47.609375 
C 19.203125 46.5 14.40625 42.296875 12.59375 37.28125 
" id="Computer_Modern_Bright-110"/>
     </defs>
     <g style="fill:#262626;" transform="translate(205.672064 343.359582)scale(0.18 -0.18)">
      <use transform="scale(0.996264)" xlink:href="#Computer_Modern_Bright-69"/>
      <use transform="translate(58.737787 0)scale(0.996264)" xlink:href="#Computer_Modern_Bright-112"/>
      <use transform="translate(106.890284 0)scale(0.996264)" xlink:href="#Computer_Modern_Bright-105"/>
      <use transform="translate(125.985243 0)scale(0.996264)" xlink:href="#Computer_Modern_Bright-115"/>
      <use transform="translate(164.424272 0)scale(0.996264)" xlink:href="#Computer_Modern_Bright-116"/>
      <use transform="translate(200.53866 0)scale(0.996264)" xlink:href="#Computer_Modern_Bright-97"/>
      <use transform="translate(247.030742 0)scale(0.996264)" xlink:href="#Computer_Modern_Bright-115"/>
      <use transform="translate(285.469772 0)scale(0.996264)" xlink:href="#Computer_Modern_Bright-105"/>
      <use transform="translate(304.56473 0)scale(0.996264)" xlink:href="#Computer_Modern_Bright-115"/>
      <use transform="translate(374.468971 0)scale(0.996264)" xlink:href="#Computer_Modern_Bright-67"/>
      <use transform="translate(439.641004 0)scale(0.996264)" xlink:href="#Computer_Modern_Bright-111"/>
      <use transform="translate(490.284222 0)scale(0.996264)" xlink:href="#Computer_Modern_Bright-101"/>
      <use transform="translate(535.115889 0)scale(0.996264)" xlink:href="#Computer_Modern_Bright-14"/>
      <use transform="translate(613.156322 0)scale(0.996264)" xlink:href="#Computer_Modern_Bright-99"/>
      <use transform="translate(657.987989 0)scale(0.996264)" xlink:href="#Computer_Modern_Bright-105"/>
      <use transform="translate(677.082948 0)scale(0.996264)" xlink:href="#Computer_Modern_Bright-101"/>
      <use transform="translate(721.914616 0)scale(0.996264)" xlink:href="#Computer_Modern_Bright-110"/>
      <use transform="translate(770.067113 0)scale(0.996264)" xlink:href="#Computer_Modern_Bright-116"/>
     </g>
    </g>
   </g>
   <g id="matplotlib.axis_2">
    <g id="ytick_1">
     <g id="line2d_8"/>
     <g id="text_9">
      <!-- $0.0$ -->
      <g style="fill:#262626;" transform="translate(26.642062 298.124802)scale(0.16 -0.16)">
       <use transform="scale(0.996264)" xlink:href="#Computer_Modern_Bright-48"/>
       <use transform="translate(50.643218 0)scale(0.996264)" xlink:href="#Computer_Modern_Bright_Math_Slanted-58"/>
       <use transform="translate(79.700665 0)scale(0.996264)" xlink:href="#Computer_Modern_Bright-48"/>
      </g>
     </g>
    </g>
    <g id="ytick_2">
     <g id="line2d_9"/>
     <g id="text_10">
      <!-- $0.2$ -->
      <g style="fill:#262626;" transform="translate(26.642062 243.764064)scale(0.16 -0.16)">
       <use transform="scale(0.996264)" xlink:href="#Computer_Modern_Bright-48"/>
       <use transform="translate(50.643218 0)scale(0.996264)" xlink:href="#Computer_Modern_Bright_Math_Slanted-58"/>
       <use transform="translate(79.700665 0)scale(0.996264)" xlink:href="#Computer_Modern_Bright-50"/>
      </g>
     </g>
    </g>
    <g id="ytick_3">
     <g id="line2d_10"/>
     <g id="text_11">
      <!-- $0.4$ -->
      <g style="fill:#262626;" transform="translate(26.642062 189.403327)scale(0.16 -0.16)">
       <use transform="scale(0.996264)" xlink:href="#Computer_Modern_Bright-48"/>
       <use transform="translate(50.643218 0)scale(0.996264)" xlink:href="#Computer_Modern_Bright_Math_Slanted-58"/>
       <use transform="translate(79.700665 0)scale(0.996264)" xlink:href="#Computer_Modern_Bright-52"/>
      </g>
     </g>
    </g>
    <g id="ytick_4">
     <g id="line2d_11"/>
     <g id="text_12">
      <!-- $0.6$ -->
      <g style="fill:#262626;" transform="translate(26.642062 135.042589)scale(0.16 -0.16)">
       <use transform="scale(0.996264)" xlink:href="#Computer_Modern_Bright-48"/>
       <use transform="translate(50.643218 0)scale(0.996264)" xlink:href="#Computer_Modern_Bright_Math_Slanted-58"/>
       <use transform="translate(79.700665 0)scale(0.996264)" xlink:href="#Computer_Modern_Bright-54"/>
      </g>
     </g>
    </g>
    <g id="ytick_5">
     <g id="line2d_12"/>
     <g id="text_13">
      <!-- $0.8$ -->
      <defs>
       <path d="M 18.703125 36 
L 18.703125 35.90625 
C 12.5 34.09375 7.296875 30.6875 4.796875 24.84375 
C 2.203125 18.71875 4 11.28125 8.40625 6.453125 
C 13.09375 1.421875 19.5 -1 26.296875 -1 
C 36.296875 -1 45.90625 6.40625 47.09375 16.734375 
C 47.296875 18.265625 47.203125 19.890625 47 21.40625 
C 45.203125 29.21875 39.5 33.875 32.09375 35.90625 
C 32.90625 36.203125 33.796875 36.40625 34.59375 36.703125 
C 38.796875 38.421875 42.296875 40.921875 44.5 44.9375 
C 47.796875 51.375 44.59375 58.90625 39.203125 63.015625 
C 33.796875 67.140625 26.5 68.234375 19.90625 66.828125 
C 12 65.125 4.5 58.40625 5 49.765625 
C 5.203125 46.75 6.5 44.234375 8 42.4375 
C 10.296875 39.625 14.796875 36.609375 18.703125 36 
M 23.796875 62.5 
C 28.203125 62.5 33.703125 62 36.90625 58.578125 
C 40.703125 54.46875 40.90625 47.03125 37.09375 42.8125 
C 34.703125 40.203125 31.203125 38.890625 27.703125 38.59375 
C 22.796875 38.1875 17.203125 39 13.703125 42.8125 
C 9.796875 47.125 10.09375 54.96875 14.296875 58.984375 
C 16.90625 61.390625 20.40625 62.1875 23.796875 62.5 
M 23.703125 33.5 
C 28.40625 33.5 33.5 32.390625 36.90625 28.9375 
C 38.203125 27.53125 39.203125 25.8125 39.796875 24.015625 
C 41.5 18.75 40.703125 12.09375 36.796875 8.046875 
C 34.09375 5.328125 30.40625 4.3125 26.703125 4.015625 
C 22.203125 4.015625 17 5.109375 13.796875 8.5625 
C 9.40625 13.390625 8.5 23.40625 13.703125 29.0625 
C 16.296875 31.78125 20 33.203125 23.703125 33.5 
" id="Computer_Modern_Bright-56"/>
      </defs>
      <g style="fill:#262626;" transform="translate(26.642062 80.681852)scale(0.16 -0.16)">
       <use transform="scale(0.996264)" xlink:href="#Computer_Modern_Bright-48"/>
       <use transform="translate(50.643218 0)scale(0.996264)" xlink:href="#Computer_Modern_Bright_Math_Slanted-58"/>
       <use transform="translate(79.700665 0)scale(0.996264)" xlink:href="#Computer_Modern_Bright-56"/>
      </g>
     </g>
    </g>
    <g id="ytick_6">
     <g id="line2d_13"/>
     <g id="text_14">
      <!-- $1.0$ -->
      <g style="fill:#262626;" transform="translate(26.642062 26.321114)scale(0.16 -0.16)">
       <use transform="scale(0.996264)" xlink:href="#Computer_Modern_Bright-49"/>
       <use transform="translate(50.643218 0)scale(0.996264)" xlink:href="#Computer_Modern_Bright_Math_Slanted-58"/>
       <use transform="translate(79.700665 0)scale(0.996264)" xlink:href="#Computer_Modern_Bright-48"/>
      </g>
     </g>
    </g>
    <g id="text_15">
     <!-- Cumulative Density Function -->
     <defs>
      <path d="M 6.40625 47 
L 6.40625 12.96875 
C 6.40625 10.046875 6.5 7.140625 7.703125 4.421875 
C 9.59375 0.515625 13.59375 -1 17.703125 -1 
C 23.203125 -1 28.703125 0.8125 32.703125 4.734375 
C 33.796875 5.828125 34.796875 6.9375 35.5 8.34375 
L 35.59375 8.34375 
L 35.59375 -0.390625 
L 41.90625 -0.390625 
L 41.90625 47 
L 35.5 47 
L 35.5 22.90625 
C 35.5 18.6875 36.09375 14.0625 33.90625 10.25 
C 32.296875 7.4375 29.5 5.234375 26.40625 4.234375 
C 24.296875 3.625 22.09375 3.625 19.90625 3.828125 
C 17.796875 4.03125 15.5 4.234375 14.09375 6.03125 
C 12.09375 8.453125 12.796875 14.171875 12.796875 17.6875 
L 12.796875 47 
z
" id="Computer_Modern_Bright-117"/>
      <path d="M 12.59375 37.359375 
L 12.5 37.359375 
L 12.5 47.390625 
L 6.40625 47.390625 
L 6.40625 0 
L 12.796875 0 
L 12.796875 22.046875 
C 12.796875 26.953125 12.5 31.875 14.703125 36.375 
C 16.59375 40.28125 19.90625 43.390625 25.796875 42.78125 
C 28.796875 42.78125 31.796875 41.984375 33.703125 39.453125 
C 35.5 37.140625 35.59375 34.140625 35.59375 31.3125 
L 35.59375 0 
L 42 0 
L 42 22.046875 
C 42 26.953125 41.703125 31.875 43.90625 36.375 
C 45.796875 40.28125 49.09375 43.390625 55 42.78125 
C 58 42.78125 61 41.984375 62.90625 39.453125 
C 64.703125 37.140625 64.796875 34.140625 64.796875 31.3125 
L 64.796875 0 
L 71.203125 0 
L 71.203125 26.5625 
C 71.203125 31.375 71.796875 36.78125 69.703125 41.1875 
C 67.59375 45.296875 64.203125 47.5 58.703125 47.5 
C 55.5 47.796875 52.296875 47.3125 49.40625 45.84375 
C 45.90625 43.921875 43.296875 40.75 41.703125 37.265625 
C 41 40.578125 40.203125 42.828125 38 45 
C 35.703125 47.0625 32.59375 48 29.59375 48 
C 22.296875 48.59375 17.703125 45.5625 14.59375 41 
C 13.796875 39.875 13 38.671875 12.59375 37.359375 
" id="Computer_Modern_Bright-109"/>
      <path d="M 6.40625 69.6875 
L 6.40625 0 
L 12.703125 0 
L 12.703125 69.6875 
z
" id="Computer_Modern_Bright-108"/>
      <path d="M 0.703125 47.5 
C 1.203125 45.5 4.203125 37.578125 4.40625 37.078125 
C 5.40625 34.28125 17.296875 0.609375 17.59375 0.296875 
C 17.90625 -0.203125 18.796875 0 19.296875 0 
L 22.796875 0 
C 24.09375 0 24.90625 -0.296875 25.203125 0.90625 
C 28.40625 9.328125 40.09375 42.703125 41.796875 47.5 
L 35.59375 47.5 
C 30.796875 33.984375 25.90625 20.4375 21.40625 6.609375 
L 11 36.203125 
C 9.5 39.796875 8.59375 43.890625 6.90625 47.203125 
C 5.09375 47.5 2.796875 47.5 0.703125 47.5 
" id="Computer_Modern_Bright-118"/>
      <path d="M 8 70 
L 8 0 
L 28.203125 0 
C 31.40625 0 34.59375 0 37.703125 0.296875 
C 45.703125 1.109375 52.59375 5.015625 57.203125 9.828125 
C 70.09375 23.171875 70 46.125 57.296875 59.671875 
C 52.703125 64.578125 46.5 68.5 38.703125 69.5 
C 34.90625 70 31 70 27.203125 70 
z
M 14.90625 5.3125 
L 14.90625 64.5625 
L 27.796875 64.5625 
C 30.5 64.5625 33.203125 64.5625 35.90625 64.359375 
C 40.40625 63.859375 44.796875 62.359375 48.5 59.734375 
C 56.59375 54.125 60 44.171875 60 34.640625 
C 60 26.609375 57.796875 18.375 51.90625 12.640625 
C 47.90625 8.9375 42.5 6.21875 36 5.515625 
C 33.40625 5.3125 30.703125 5.3125 28.09375 5.3125 
z
" id="Computer_Modern_Bright-68"/>
      <path d="M 0.703125 47.65625 
C 1.296875 45.75 5.40625 35.609375 5.5 35.3125 
L 17.40625 4.578125 
L 18.40625 2.078125 
C 19 0.671875 19.203125 0.46875 18.59375 -1.140625 
L 17.5 -4.046875 
C 16.59375 -6.46875 15.59375 -8.96875 13.703125 -10.484375 
C 10.296875 -13.296875 4.90625 -11.6875 0.796875 -10.78125 
L 1.296875 -16.5 
C 3.203125 -16.796875 5.09375 -17 7 -17 
C 11.296875 -17.515625 14.09375 -16.5 16.703125 -14.296875 
C 20 -11.484375 21.59375 -7.5625 23.09375 -3.546875 
L 26.203125 5.078125 
L 36.40625 32.90625 
C 38.09375 37.921875 40.203125 42.640625 41.796875 47.65625 
L 37.296875 47.65625 
C 36.796875 47.65625 36 47.859375 35.59375 47.46875 
C 35.40625 47.15625 35.296875 46.765625 35.203125 46.453125 
L 34.40625 44.34375 
C 33.40625 41.734375 32.5 39.234375 31.59375 36.609375 
L 25.796875 20.25 
C 24.296875 15.828125 22.59375 11.3125 21.796875 6.6875 
C 20.703125 11.3125 19.203125 15.734375 17.59375 20.140625 
C 16.296875 23.5625 8.5 44.546875 7.5 46.5625 
C 7.09375 47.65625 6.703125 47.65625 5.203125 47.65625 
z
" id="Computer_Modern_Bright-121"/>
      <path d="M 8 69.328125 
L 8 0 
L 15 0 
L 15 32 
L 48.09375 32 
L 48.09375 37.3125 
L 15 37.3125 
L 15 64 
L 52.40625 64 
L 52.40625 69.328125 
z
" id="Computer_Modern_Bright-70"/>
     </defs>
     <g style="fill:#262626;" transform="translate(19.65327 260.669538)rotate(-90)scale(0.18 -0.18)">
      <use transform="scale(0.996264)" xlink:href="#Computer_Modern_Bright-67"/>
      <use transform="translate(65.172032 0)scale(0.996264)" xlink:href="#Computer_Modern_Bright-117"/>
      <use transform="translate(113.324529 0)scale(0.996264)" xlink:href="#Computer_Modern_Bright-109"/>
      <use transform="translate(190.534656 0)scale(0.996264)" xlink:href="#Computer_Modern_Bright-117"/>
      <use transform="translate(238.687153 0)scale(0.996264)" xlink:href="#Computer_Modern_Bright-108"/>
      <use transform="translate(257.782112 0)scale(0.996264)" xlink:href="#Computer_Modern_Bright-97"/>
      <use transform="translate(304.274194 0)scale(0.996264)" xlink:href="#Computer_Modern_Bright-116"/>
      <use transform="translate(340.388582 0)scale(0.996264)" xlink:href="#Computer_Modern_Bright-105"/>
      <use transform="translate(359.483541 0)scale(0.996264)" xlink:href="#Computer_Modern_Bright-118"/>
      <use transform="translate(401.824579 0)scale(0.996264)" xlink:href="#Computer_Modern_Bright-101"/>
      <use transform="translate(478.121458 0)scale(0.996264)" xlink:href="#Computer_Modern_Bright-68"/>
      <use transform="translate(549.727645 0)scale(0.996264)" xlink:href="#Computer_Modern_Bright-101"/>
      <use transform="translate(594.559312 0)scale(0.996264)" xlink:href="#Computer_Modern_Bright-110"/>
      <use transform="translate(642.711809 0)scale(0.996264)" xlink:href="#Computer_Modern_Bright-115"/>
      <use transform="translate(681.150839 0)scale(0.996264)" xlink:href="#Computer_Modern_Bright-105"/>
      <use transform="translate(700.245798 0)scale(0.996264)" xlink:href="#Computer_Modern_Bright-116"/>
      <use transform="translate(733.454456 0)scale(0.996264)" xlink:href="#Computer_Modern_Bright-121"/>
      <use transform="translate(807.260706 0)scale(0.996264)" xlink:href="#Computer_Modern_Bright-70"/>
      <use transform="translate(860.187034 0)scale(0.996264)" xlink:href="#Computer_Modern_Bright-117"/>
      <use transform="translate(908.339531 0)scale(0.996264)" xlink:href="#Computer_Modern_Bright-110"/>
      <use transform="translate(956.492028 0)scale(0.996264)" xlink:href="#Computer_Modern_Bright-99"/>
      <use transform="translate(1001.323695 0)scale(0.996264)" xlink:href="#Computer_Modern_Bright-116"/>
      <use transform="translate(1037.438083 0)scale(0.996264)" xlink:href="#Computer_Modern_Bright-105"/>
      <use transform="translate(1056.533042 0)scale(0.996264)" xlink:href="#Computer_Modern_Bright-111"/>
      <use transform="translate(1107.17626 0)scale(0.996264)" xlink:href="#Computer_Modern_Bright-110"/>
     </g>
    </g>
   </g>
   <g id="PolyCollection_1">
    <path clip-path="url(#p026dd58208)" d="M 124.196804 292.586331 
L 124.196804 292.59 
L 124.45942 292.59 
L 124.722037 292.59 
L 124.984653 292.59 
L 125.247269 292.59 
L 125.509885 292.59 
L 125.772501 292.59 
L 126.035118 292.59 
L 126.297734 292.59 
L 126.56035 292.59 
L 126.822966 292.59 
L 127.085582 292.59 
L 127.348198 292.59 
L 127.610815 292.59 
L 127.873431 292.59 
L 128.136047 292.59 
L 128.398663 292.59 
L 128.661279 292.59 
L 128.923896 292.59 
L 129.186512 292.59 
L 129.449128 292.59 
L 129.711744 292.59 
L 129.97436 292.59 
L 130.236977 292.59 
L 130.499593 292.59 
L 130.762209 292.59 
L 131.024825 292.59 
L 131.287441 292.59 
L 131.550058 292.59 
L 131.812674 292.59 
L 132.07529 292.59 
L 132.337906 292.59 
L 132.600522 292.59 
L 132.863139 292.59 
L 133.125755 292.59 
L 133.388371 292.59 
L 133.650987 292.59 
L 133.913603 292.59 
L 134.17622 292.59 
L 134.438836 292.59 
L 134.701452 292.59 
L 134.964068 292.59 
L 135.226684 292.59 
L 135.489301 292.59 
L 135.751917 292.59 
L 136.014533 292.59 
L 136.277149 292.59 
L 136.539765 292.59 
L 136.802382 292.59 
L 137.064998 292.59 
L 137.327614 292.59 
L 137.59023 292.59 
L 137.852846 292.59 
L 138.115463 292.59 
L 138.378079 292.59 
L 138.640695 292.59 
L 138.903311 292.59 
L 139.165927 292.59 
L 139.428544 292.59 
L 139.69116 292.59 
L 139.953776 292.59 
L 140.216392 292.59 
L 140.479008 292.59 
L 140.741625 292.59 
L 141.004241 292.59 
L 141.266857 292.59 
L 141.529473 292.59 
L 141.792089 292.59 
L 142.054706 292.59 
L 142.317322 292.59 
L 142.579938 292.59 
L 142.842554 292.59 
L 143.10517 292.59 
L 143.367787 292.59 
L 143.630403 292.59 
L 143.893019 292.59 
L 144.155635 292.59 
L 144.418251 292.59 
L 144.680868 292.59 
L 144.943484 292.59 
L 145.2061 292.59 
L 145.468716 292.59 
L 145.731332 292.59 
L 145.993949 292.59 
L 146.256565 292.59 
L 146.519181 292.59 
L 146.781797 292.59 
L 147.044413 292.59 
L 147.30703 292.59 
L 147.569646 292.59 
L 147.832262 292.59 
L 148.094878 292.59 
L 148.357494 292.59 
L 148.620111 292.59 
L 148.882727 292.59 
L 149.145343 292.59 
L 149.407959 292.59 
L 149.670575 292.59 
L 149.933192 292.59 
L 150.195808 292.59 
L 150.458424 292.59 
L 150.72104 292.59 
L 150.983656 292.59 
L 151.246273 292.59 
L 151.508889 292.59 
L 151.771505 292.59 
L 152.034121 292.59 
L 152.296737 292.59 
L 152.559354 292.59 
L 152.82197 292.59 
L 153.084586 292.59 
L 153.347202 292.59 
L 153.609818 292.59 
L 153.872435 292.59 
L 154.135051 292.59 
L 154.397667 292.59 
L 154.660283 292.59 
L 154.922899 292.59 
L 155.185516 292.59 
L 155.448132 292.59 
L 155.710748 292.59 
L 155.973364 292.59 
L 156.23598 292.59 
L 156.498597 292.59 
L 156.761213 292.59 
L 157.023829 292.59 
L 157.286445 292.59 
L 157.549061 292.59 
L 157.549061 20.79159 
L 157.549061 20.79159 
L 157.286445 20.795206 
L 157.023829 20.800986 
L 156.761213 20.810026 
L 156.498597 20.823852 
L 156.23598 20.84454 
L 155.973364 20.874828 
L 155.710748 20.918219 
L 155.448132 20.979058 
L 155.185516 21.062563 
L 154.922899 21.174785 
L 154.660283 21.322491 
L 154.397667 21.51295 
L 154.135051 21.753635 
L 153.872435 22.051851 
L 153.609818 22.414333 
L 153.347202 22.846855 
L 153.084586 23.353923 
L 152.82197 23.938607 
L 152.559354 24.602568 
L 152.296737 25.346337 
L 152.034121 26.169832 
L 151.771505 27.073098 
L 151.508889 28.05721 
L 151.246273 29.125226 
L 150.983656 30.283068 
L 150.72104 31.540197 
L 150.458424 32.909948 
L 150.195808 34.409423 
L 149.933192 36.058901 
L 149.670575 37.880752 
L 149.407959 39.89794 
L 149.145343 42.132251 
L 148.882727 44.602414 
L 148.620111 47.322353 
L 148.357494 50.299763 
L 148.094878 53.535235 
L 147.832262 57.022052 
L 147.569646 60.746733 
L 147.30703 64.690318 
L 147.044413 68.83027 
L 146.781797 73.14281 
L 146.519181 77.605442 
L 146.256565 82.199364 
L 145.993949 86.911508 
L 145.731332 91.735937 
L 145.468716 96.674432 
L 145.2061 101.736174 
L 144.943484 106.936498 
L 144.680868 112.294834 
L 144.418251 117.831985 
L 144.155635 123.566998 
L 143.893019 129.51391 
L 143.630403 135.678684 
L 143.367787 142.056651 
L 143.10517 148.630742 
L 142.842554 155.37074 
L 142.579938 162.233696 
L 142.317322 169.165547 
L 142.054706 176.103832 
L 141.792089 182.981289 
L 141.529473 189.730003 
L 141.266857 196.285683 
L 141.004241 202.591647 
L 140.741625 208.602099 
L 140.479008 214.284383 
L 140.216392 219.620035 
L 139.953776 224.604575 
L 139.69116 229.246156 
L 139.428544 233.563307 
L 139.165927 237.582074 
L 138.903311 241.332921 
L 138.640695 244.847732 
L 138.378079 248.15718 
L 138.115463 251.288699 
L 137.852846 254.265121 
L 137.59023 257.104024 
L 137.327614 259.8177 
L 137.064998 262.413604 
L 136.802382 264.895148 
L 136.539765 267.262646 
L 136.277149 269.51429 
L 136.014533 271.647036 
L 135.751917 273.657339 
L 135.489301 275.54173 
L 135.226684 277.297228 
L 134.964068 278.921643 
L 134.701452 280.413788 
L 134.438836 281.773654 
L 134.17622 283.00255 
L 133.913603 284.103217 
L 133.650987 285.079915 
L 133.388371 285.93845 
L 133.125755 286.686144 
L 132.863139 287.331717 
L 132.600522 287.885086 
L 132.337906 288.357086 
L 132.07529 288.759121 
L 131.812674 289.10277 
L 131.550058 289.399365 
L 131.287441 289.659578 
L 131.024825 289.893025 
L 130.762209 290.107948 
L 130.499593 290.310961 
L 130.236977 290.506913 
L 129.97436 290.698866 
L 129.711744 290.888194 
L 129.449128 291.074797 
L 129.186512 291.25741 
L 128.923896 291.43397 
L 128.661279 291.602008 
L 128.398663 291.759022 
L 128.136047 291.902803 
L 127.873431 292.031675 
L 127.610815 292.144637 
L 127.348198 292.241415 
L 127.085582 292.322422 
L 126.822966 292.388652 
L 126.56035 292.441533 
L 126.297734 292.482761 
L 126.035118 292.514145 
L 125.772501 292.53747 
L 125.509885 292.554394 
L 125.247269 292.566382 
L 124.984653 292.574672 
L 124.722037 292.580269 
L 124.45942 292.583958 
L 124.196804 292.586331 
z
" style="fill:#1f78b4;fill-opacity:0.25;"/>
   </g>
   <g id="PolyCollection_2">
    <path clip-path="url(#p026dd58208)" d="M 75.319264 292.586235 
L 75.319264 292.59 
L 75.728355 292.59 
L 76.137446 292.59 
L 76.546537 292.59 
L 76.955628 292.59 
L 77.364719 292.59 
L 77.77381 292.59 
L 78.182901 292.59 
L 78.591992 292.59 
L 79.001082 292.59 
L 79.410173 292.59 
L 79.819264 292.59 
L 80.228355 292.59 
L 80.637446 292.59 
L 81.046537 292.59 
L 81.455628 292.59 
L 81.864719 292.59 
L 82.27381 292.59 
L 82.682901 292.59 
L 83.091992 292.59 
L 83.501083 292.59 
L 83.910174 292.59 
L 84.319265 292.59 
L 84.728356 292.59 
L 85.137447 292.59 
L 85.546538 292.59 
L 85.955629 292.59 
L 86.36472 292.59 
L 86.77381 292.59 
L 87.182901 292.59 
L 87.591992 292.59 
L 88.001083 292.59 
L 88.410174 292.59 
L 88.819265 292.59 
L 89.228356 292.59 
L 89.637447 292.59 
L 90.046538 292.59 
L 90.455629 292.59 
L 90.86472 292.59 
L 91.273811 292.59 
L 91.682902 292.59 
L 92.091993 292.59 
L 92.501084 292.59 
L 92.910175 292.59 
L 93.319266 292.59 
L 93.728357 292.59 
L 94.137448 292.59 
L 94.546539 292.59 
L 94.955629 292.59 
L 95.36472 292.59 
L 95.773811 292.59 
L 96.182902 292.59 
L 96.591993 292.59 
L 97.001084 292.59 
L 97.410175 292.59 
L 97.819266 292.59 
L 98.228357 292.59 
L 98.637448 292.59 
L 99.046539 292.59 
L 99.45563 292.59 
L 99.864721 292.59 
L 100.273812 292.59 
L 100.682903 292.59 
L 101.091994 292.59 
L 101.501085 292.59 
L 101.910176 292.59 
L 102.319267 292.59 
L 102.728357 292.59 
L 103.137448 292.59 
L 103.546539 292.59 
L 103.95563 292.59 
L 104.364721 292.59 
L 104.773812 292.59 
L 105.182903 292.59 
L 105.591994 292.59 
L 106.001085 292.59 
L 106.410176 292.59 
L 106.819267 292.59 
L 107.228358 292.59 
L 107.637449 292.59 
L 108.04654 292.59 
L 108.455631 292.59 
L 108.864722 292.59 
L 109.273813 292.59 
L 109.682904 292.59 
L 110.091995 292.59 
L 110.501085 292.59 
L 110.910176 292.59 
L 111.319267 292.59 
L 111.728358 292.59 
L 112.137449 292.59 
L 112.54654 292.59 
L 112.955631 292.59 
L 113.364722 292.59 
L 113.773813 292.59 
L 114.182904 292.59 
L 114.591995 292.59 
L 115.001086 292.59 
L 115.410177 292.59 
L 115.819268 292.59 
L 116.228359 292.59 
L 116.63745 292.59 
L 117.046541 292.59 
L 117.455632 292.59 
L 117.864723 292.59 
L 118.273813 292.59 
L 118.682904 292.59 
L 119.091995 292.59 
L 119.501086 292.59 
L 119.910177 292.59 
L 120.319268 292.59 
L 120.728359 292.59 
L 121.13745 292.59 
L 121.546541 292.59 
L 121.955632 292.59 
L 122.364723 292.59 
L 122.773814 292.59 
L 123.182905 292.59 
L 123.591996 292.59 
L 124.001087 292.59 
L 124.410178 292.59 
L 124.819269 292.59 
L 125.22836 292.59 
L 125.637451 292.59 
L 126.046542 292.59 
L 126.455632 292.59 
L 126.864723 292.59 
L 127.273814 292.59 
L 127.273814 20.79 
L 127.273814 20.79 
L 126.864723 20.792391 
L 126.455632 20.796115 
L 126.046542 20.801779 
L 125.637451 20.810197 
L 125.22836 20.82242 
L 124.819269 20.839767 
L 124.410178 20.863835 
L 124.001087 20.896499 
L 123.591996 20.93988 
L 123.182905 20.9963 
L 122.773814 21.068216 
L 122.364723 21.158157 
L 121.955632 21.268661 
L 121.546541 21.402252 
L 121.13745 21.561462 
L 120.728359 21.748912 
L 120.319268 21.967464 
L 119.910177 22.220429 
L 119.501086 22.511812 
L 119.091995 22.846557 
L 118.682904 23.230763 
L 118.273813 23.671806 
L 117.864723 24.178355 
L 117.455632 24.760251 
L 117.046541 25.428244 
L 116.63745 26.193623 
L 116.228359 27.067755 
L 115.819268 28.061604 
L 115.410177 29.185264 
L 115.001086 30.447571 
L 114.591995 31.855811 
L 114.182904 33.415555 
L 113.773813 35.130619 
L 113.364722 37.003141 
L 112.955631 39.033747 
L 112.54654 41.221795 
L 112.137449 43.565677 
L 111.728358 46.063148 
L 111.319267 48.711693 
L 110.910176 51.508911 
L 110.501085 54.452896 
L 110.091995 57.542609 
L 109.682904 60.778212 
L 109.273813 64.161323 
L 108.864722 67.695165 
L 108.455631 71.384569 
L 108.04654 75.235817 
L 107.637449 79.25631 
L 107.228358 83.454063 
L 106.819267 87.837057 
L 106.410176 92.41248 
L 106.001085 97.1859 
L 105.591994 102.16041 
L 105.182903 107.335815 
L 104.773812 112.707903 
L 104.364721 118.267879 
L 103.95563 124.002014 
L 103.546539 129.891589 
L 103.137448 135.913164 
L 102.728357 142.039215 
L 102.319267 148.239086 
L 101.910176 154.480201 
L 101.501085 160.729388 
L 101.091994 166.954178 
L 100.682903 173.123892 
L 100.273812 179.21039 
L 99.864721 185.188401 
L 99.45563 191.035441 
L 99.046539 196.731393 
L 98.637448 202.257925 
L 98.228357 207.597914 
L 97.819266 212.735083 
L 97.410175 217.653981 
L 97.001084 222.340368 
L 96.591993 226.78197 
L 96.182902 230.969505 
L 95.773811 234.897769 
L 95.36472 238.566609 
L 94.955629 241.981559 
L 94.546539 245.154016 
L 94.137448 248.100877 
L 93.728357 250.843632 
L 93.319266 253.407031 
L 92.910175 255.817431 
L 92.501084 258.101043 
L 92.091993 260.282231 
L 91.682902 262.382063 
L 91.273811 264.417227 
L 90.86472 266.399405 
L 90.455629 268.335119 
L 90.046538 270.226035 
L 89.637447 272.06963 
L 89.228356 273.860133 
L 88.819265 275.589609 
L 88.410174 277.249063 
L 88.001083 278.829459 
L 87.591992 280.322568 
L 87.182901 281.721613 
L 86.77381 283.021669 
L 86.36472 284.219853 
L 85.955629 285.315314 
L 85.546538 286.309087 
L 85.137447 287.203834 
L 84.728356 288.003541 
L 84.319265 288.713184 
L 83.910174 289.338421 
L 83.501083 289.885311 
L 83.091992 290.360088 
L 82.682901 290.768992 
L 82.27381 291.118147 
L 81.864719 291.413495 
L 81.455628 291.660757 
L 81.046537 291.865412 
L 80.637446 292.032692 
L 80.228355 292.16756 
L 79.819264 292.274692 
L 79.410173 292.358445 
L 79.001082 292.422815 
L 78.591992 292.471408 
L 78.182901 292.507405 
L 77.77381 292.533554 
L 77.364719 292.552168 
L 76.955628 292.565144 
L 76.546537 292.573998 
L 76.137446 292.57991 
L 75.728355 292.58377 
L 75.319264 292.586235 
z
" style="fill-opacity:0.25;"/>
   </g>
   <g id="PolyCollection_3">
    <path clip-path="url(#p026dd58208)" d="M 168.541328 292.58633 
L 168.541328 292.59 
L 169.127893 292.59 
L 169.714459 292.59 
L 170.301024 292.59 
L 170.88759 292.59 
L 171.474155 292.59 
L 172.060721 292.59 
L 172.647286 292.59 
L 173.233852 292.59 
L 173.820417 292.59 
L 174.406983 292.59 
L 174.993548 292.59 
L 175.580114 292.59 
L 176.166679 292.59 
L 176.753245 292.59 
L 177.33981 292.59 
L 177.926376 292.59 
L 178.512941 292.59 
L 179.099506 292.59 
L 179.686072 292.59 
L 180.272637 292.59 
L 180.859203 292.59 
L 181.445768 292.59 
L 182.032334 292.59 
L 182.618899 292.59 
L 183.205465 292.59 
L 183.79203 292.59 
L 184.378596 292.59 
L 184.965161 292.59 
L 185.551727 292.59 
L 186.138292 292.59 
L 186.724858 292.59 
L 187.311423 292.59 
L 187.897989 292.59 
L 188.484554 292.59 
L 189.071119 292.59 
L 189.657685 292.59 
L 190.24425 292.59 
L 190.830816 292.59 
L 191.417381 292.59 
L 192.003947 292.59 
L 192.590512 292.59 
L 193.177078 292.59 
L 193.763643 292.59 
L 194.350209 292.59 
L 194.936774 292.59 
L 195.52334 292.59 
L 196.109905 292.59 
L 196.696471 292.59 
L 197.283036 292.59 
L 197.869602 292.59 
L 198.456167 292.59 
L 199.042732 292.59 
L 199.629298 292.59 
L 200.215863 292.59 
L 200.802429 292.59 
L 201.388994 292.59 
L 201.97556 292.59 
L 202.562125 292.59 
L 203.148691 292.59 
L 203.735256 292.59 
L 204.321822 292.59 
L 204.908387 292.59 
L 205.494953 292.59 
L 206.081518 292.59 
L 206.668084 292.59 
L 207.254649 292.59 
L 207.841215 292.59 
L 208.42778 292.59 
L 209.014346 292.59 
L 209.600911 292.59 
L 210.187476 292.59 
L 210.774042 292.59 
L 211.360607 292.59 
L 211.947173 292.59 
L 212.533738 292.59 
L 213.120304 292.59 
L 213.706869 292.59 
L 214.293435 292.59 
L 214.88 292.59 
L 215.466566 292.59 
L 216.053131 292.59 
L 216.639697 292.59 
L 217.226262 292.59 
L 217.812828 292.59 
L 218.399393 292.59 
L 218.985959 292.59 
L 219.572524 292.59 
L 220.159089 292.59 
L 220.745655 292.59 
L 221.33222 292.59 
L 221.918786 292.59 
L 222.505351 292.59 
L 223.091917 292.59 
L 223.678482 292.59 
L 224.265048 292.59 
L 224.851613 292.59 
L 225.438179 292.59 
L 226.024744 292.59 
L 226.61131 292.59 
L 227.197875 292.59 
L 227.784441 292.59 
L 228.371006 292.59 
L 228.957572 292.59 
L 229.544137 292.59 
L 230.130702 292.59 
L 230.717268 292.59 
L 231.303833 292.59 
L 231.890399 292.59 
L 232.476964 292.59 
L 233.06353 292.59 
L 233.650095 292.59 
L 234.236661 292.59 
L 234.823226 292.59 
L 235.409792 292.59 
L 235.996357 292.59 
L 236.582923 292.59 
L 237.169488 292.59 
L 237.756054 292.59 
L 238.342619 292.59 
L 238.929185 292.59 
L 239.51575 292.59 
L 240.102315 292.59 
L 240.688881 292.59 
L 241.275446 292.59 
L 241.862012 292.59 
L 242.448577 292.59 
L 243.035143 292.59 
L 243.035143 20.790014 
L 243.035143 20.790014 
L 242.448577 20.792489 
L 241.862012 20.796386 
L 241.275446 20.802374 
L 240.688881 20.811358 
L 240.102315 20.824517 
L 239.51575 20.843345 
L 238.929185 20.869673 
L 238.342619 20.905669 
L 237.756054 20.953824 
L 237.169488 21.016914 
L 236.582923 21.097944 
L 235.996357 21.200095 
L 235.409792 21.326687 
L 234.823226 21.48116 
L 234.236661 21.667119 
L 233.650095 21.888417 
L 233.06353 22.149293 
L 232.476964 22.454545 
L 231.890399 22.809697 
L 231.303833 23.221144 
L 230.717268 23.69622 
L 230.130702 24.243187 
L 229.544137 24.871105 
L 228.957572 25.589625 
L 228.371006 26.408716 
L 227.784441 27.338363 
L 227.197875 28.388303 
L 226.61131 29.567797 
L 226.024744 30.885488 
L 225.438179 32.349308 
L 224.851613 33.96643 
L 224.265048 35.743224 
L 223.678482 37.685194 
L 223.091917 39.796879 
L 222.505351 42.081754 
L 221.918786 44.542142 
L 221.33222 47.179203 
L 220.745655 49.993034 
L 220.159089 52.982896 
L 219.572524 56.147562 
L 218.985959 59.48572 
L 218.399393 62.99639 
L 217.812828 66.67925 
L 217.226262 70.534839 
L 216.639697 74.564603 
L 216.053131 78.770807 
L 215.466566 83.156341 
L 214.88 87.724483 
L 214.293435 92.478644 
L 213.706869 97.42211 
L 213.120304 102.557745 
L 212.533738 107.887621 
L 211.947173 113.412517 
L 211.360607 119.131268 
L 210.774042 125.039974 
L 210.187476 131.131145 
L 209.600911 137.392879 
L 209.014346 143.808191 
L 208.42778 150.354623 
L 207.841215 157.004223 
L 207.254649 163.723927 
L 206.668084 170.476378 
L 206.081518 177.221112 
L 205.494953 183.91606 
L 204.908387 190.51926 
L 204.321822 196.990662 
L 203.735256 203.293878 
L 203.148691 209.397749 
L 202.562125 215.277554 
L 201.97556 220.915745 
L 201.388994 226.302078 
L 200.802429 231.433126 
L 200.215863 236.31118 
L 199.629298 240.94266 
L 199.042732 245.33624 
L 198.456167 249.500902 
L 197.869602 253.44422 
L 197.283036 257.171065 
L 196.696471 260.682937 
L 196.109905 263.977976 
L 195.52334 267.051633 
L 194.936774 269.897856 
L 194.350209 272.510601 
L 193.763643 274.885411 
L 193.177078 277.020826 
L 192.590512 278.919432 
L 192.003947 280.588406 
L 191.417381 282.039525 
L 190.830816 283.288671 
L 190.24425 284.354935 
L 189.657685 285.259467 
L 189.071119 286.024255 
L 188.484554 286.670964 
L 187.897989 287.219976 
L 187.311423 287.689709 
L 186.724858 288.096228 
L 186.138292 288.453136 
L 185.551727 288.771683 
L 184.965161 289.061011 
L 184.378596 289.328454 
L 183.79203 289.579827 
L 183.205465 289.819643 
L 182.618899 290.051266 
L 182.032334 290.27698 
L 181.445768 290.498036 
L 180.859203 290.71469 
L 180.272637 290.926284 
L 179.686072 291.131384 
L 179.099506 291.327994 
L 178.512941 291.513815 
L 177.926376 291.686533 
L 177.33981 291.844099 
L 176.753245 291.984956 
L 176.166679 292.108196 
L 175.580114 292.213631 
L 174.993548 292.301768 
L 174.406983 292.373723 
L 173.820417 292.431069 
L 173.233852 292.475672 
L 172.647286 292.509521 
L 172.060721 292.534582 
L 171.474155 292.552681 
L 170.88759 292.565429 
L 170.301024 292.574186 
L 169.714459 292.580054 
L 169.127893 292.583887 
L 168.541328 292.58633 
z
" style="fill:#33a02c;fill-opacity:0.25;"/>
   </g>
   <g id="PolyCollection_4">
    <path clip-path="url(#p026dd58208)" d="M 456.570248 292.586109 
L 456.570248 292.59 
L 456.76369 292.59 
L 456.957133 292.59 
L 457.150575 292.59 
L 457.344018 292.59 
L 457.53746 292.59 
L 457.730903 292.59 
L 457.924345 292.59 
L 458.117788 292.59 
L 458.31123 292.59 
L 458.504673 292.59 
L 458.698115 292.59 
L 458.891558 292.59 
L 459.085 292.59 
L 459.278443 292.59 
L 459.471885 292.59 
L 459.665328 292.59 
L 459.85877 292.59 
L 460.052213 292.59 
L 460.245655 292.59 
L 460.439098 292.59 
L 460.63254 292.59 
L 460.825983 292.59 
L 461.019425 292.59 
L 461.212868 292.59 
L 461.40631 292.59 
L 461.599753 292.59 
L 461.793195 292.59 
L 461.986638 292.59 
L 462.18008 292.59 
L 462.373523 292.59 
L 462.566965 292.59 
L 462.760408 292.59 
L 462.95385 292.59 
L 463.147293 292.59 
L 463.340735 292.59 
L 463.534178 292.59 
L 463.72762 292.59 
L 463.921063 292.59 
L 464.114505 292.59 
L 464.307948 292.59 
L 464.50139 292.59 
L 464.694833 292.59 
L 464.888275 292.59 
L 465.081718 292.59 
L 465.27516 292.59 
L 465.468603 292.59 
L 465.662045 292.59 
L 465.855488 292.59 
L 466.04893 292.59 
L 466.242373 292.59 
L 466.435815 292.59 
L 466.629258 292.59 
L 466.8227 292.59 
L 467.016143 292.59 
L 467.209585 292.59 
L 467.403028 292.59 
L 467.59647 292.59 
L 467.789913 292.59 
L 467.983355 292.59 
L 468.176798 292.59 
L 468.37024 292.59 
L 468.563683 292.59 
L 468.757125 292.59 
L 468.950568 292.59 
L 469.144011 292.59 
L 469.337453 292.59 
L 469.530896 292.59 
L 469.724338 292.59 
L 469.917781 292.59 
L 470.111223 292.59 
L 470.304666 292.59 
L 470.498108 292.59 
L 470.691551 292.59 
L 470.884993 292.59 
L 471.078436 292.59 
L 471.271878 292.59 
L 471.465321 292.59 
L 471.658763 292.59 
L 471.852206 292.59 
L 472.045648 292.59 
L 472.239091 292.59 
L 472.432533 292.59 
L 472.625976 292.59 
L 472.819418 292.59 
L 473.012861 292.59 
L 473.206303 292.59 
L 473.399746 292.59 
L 473.593188 292.59 
L 473.786631 292.59 
L 473.980073 292.59 
L 474.173516 292.59 
L 474.366958 292.59 
L 474.560401 292.59 
L 474.753843 292.59 
L 474.947286 292.59 
L 475.140728 292.59 
L 475.334171 292.59 
L 475.527613 292.59 
L 475.721056 292.59 
L 475.914498 292.59 
L 476.107941 292.59 
L 476.301383 292.59 
L 476.494826 292.59 
L 476.688268 292.59 
L 476.881711 292.59 
L 477.075153 292.59 
L 477.268596 292.59 
L 477.462038 292.59 
L 477.655481 292.59 
L 477.848923 292.59 
L 478.042366 292.59 
L 478.235808 292.59 
L 478.429251 292.59 
L 478.622693 292.59 
L 478.816136 292.59 
L 479.009578 292.59 
L 479.203021 292.59 
L 479.396463 292.59 
L 479.589906 292.59 
L 479.783348 292.59 
L 479.976791 292.59 
L 480.170233 292.59 
L 480.363676 292.59 
L 480.557118 292.59 
L 480.750561 292.59 
L 480.944003 292.59 
L 481.137446 292.59 
L 481.137446 20.799978 
L 481.137446 20.799978 
L 480.944003 20.807291 
L 480.750561 20.818032 
L 480.557118 20.833556 
L 480.363676 20.855636 
L 480.170233 20.886546 
L 479.976791 20.929137 
L 479.783348 20.98691 
L 479.589906 21.064069 
L 479.396463 21.165551 
L 479.203021 21.297014 
L 479.009578 21.464791 
L 478.816136 21.675794 
L 478.622693 21.937369 
L 478.429251 22.257107 
L 478.235808 22.642619 
L 478.042366 23.101296 
L 477.848923 23.640053 
L 477.655481 24.265093 
L 477.462038 24.981705 
L 477.268596 25.794105 
L 477.075153 26.70534 
L 476.881711 27.717242 
L 476.688268 28.830458 
L 476.494826 30.044514 
L 476.301383 31.357918 
L 476.107941 32.768287 
L 475.914498 34.272472 
L 475.721056 35.866682 
L 475.527613 37.546597 
L 475.334171 39.307481 
L 475.140728 41.144289 
L 474.947286 43.051802 
L 474.753843 45.024789 
L 474.560401 47.058219 
L 474.366958 49.147518 
L 474.173516 51.288875 
L 473.980073 53.479581 
L 473.786631 55.718363 
L 473.593188 58.005693 
L 473.399746 60.344025 
L 473.206303 62.737914 
L 473.012861 65.194004 
L 472.819418 67.720845 
L 472.625976 70.328554 
L 472.432533 73.028324 
L 472.239091 75.831823 
L 472.045648 78.750532 
L 471.852206 81.795078 
L 471.658763 84.974628 
L 471.465321 88.296393 
L 471.271878 91.765302 
L 471.078436 95.383847 
L 470.884993 99.15213 
L 470.691551 103.068071 
L 470.498108 107.127754 
L 470.304666 111.325859 
L 470.111223 115.65612 
L 469.917781 120.111751 
L 469.724338 124.685798 
L 469.530896 129.371371 
L 469.337453 134.161746 
L 469.144011 139.050323 
L 468.950568 144.03046 
L 468.757125 149.09521 
L 468.563683 154.236993 
L 468.37024 159.447237 
L 468.176798 164.716053 
L 467.983355 170.031954 
L 467.789913 175.381672 
L 467.59647 180.750097 
L 467.403028 186.12035 
L 467.209585 191.473996 
L 467.016143 196.791398 
L 466.8227 202.052188 
L 466.629258 207.235836 
L 466.435815 212.322267 
L 466.242373 217.292494 
L 466.04893 222.12921 
L 465.855488 226.817301 
L 465.662045 231.344225 
L 465.468603 235.700242 
L 465.27516 239.878469 
L 465.081718 243.874754 
L 464.888275 247.687395 
L 464.694833 251.316733 
L 464.50139 254.764654 
L 464.307948 258.034064 
L 464.114505 261.128376 
L 463.921063 264.051076 
L 463.72762 266.805386 
L 463.534178 269.394066 
L 463.340735 271.819361 
L 463.147293 274.083071 
L 462.95385 276.186748 
L 462.760408 278.131956 
L 462.566965 279.920573 
L 462.373523 281.55509 
L 462.18008 283.038862 
L 461.986638 284.376288 
L 461.793195 285.572899 
L 461.599753 286.635356 
L 461.40631 287.57135 
L 461.212868 288.389434 
L 461.019425 289.098796 
L 460.825983 289.709014 
L 460.63254 290.2298 
L 460.439098 290.670758 
L 460.245655 291.041182 
L 460.052213 291.34989 
L 459.85877 291.605103 
L 459.665328 291.814367 
L 459.471885 291.984514 
L 459.278443 292.121651 
L 459.085 292.231182 
L 458.891558 292.317834 
L 458.698115 292.385705 
L 458.504673 292.438311 
L 458.31123 292.478638 
L 458.117788 292.509198 
L 457.924345 292.532079 
L 457.730903 292.548999 
L 457.53746 292.561348 
L 457.344018 292.570241 
L 457.150575 292.576557 
L 456.957133 292.58098 
L 456.76369 292.584033 
L 456.570248 292.586109 
z
" style="fill:#ff7f00;fill-opacity:0.25;"/>
   </g>
   <g id="PolyCollection_5">
    <path clip-path="url(#p026dd58208)" d="M 142.078032 292.58633 
L 142.078032 292.59 
L 142.511947 292.59 
L 142.945862 292.59 
L 143.379776 292.59 
L 143.813691 292.59 
L 144.247606 292.59 
L 144.68152 292.59 
L 145.115435 292.59 
L 145.54935 292.59 
L 145.983265 292.59 
L 146.417179 292.59 
L 146.851094 292.59 
L 147.285009 292.59 
L 147.718923 292.59 
L 148.152838 292.59 
L 148.586753 292.59 
L 149.020667 292.59 
L 149.454582 292.59 
L 149.888497 292.59 
L 150.322411 292.59 
L 150.756326 292.59 
L 151.190241 292.59 
L 151.624156 292.59 
L 152.05807 292.59 
L 152.491985 292.59 
L 152.9259 292.59 
L 153.359814 292.59 
L 153.793729 292.59 
L 154.227644 292.59 
L 154.661558 292.59 
L 155.095473 292.59 
L 155.529388 292.59 
L 155.963303 292.59 
L 156.397217 292.59 
L 156.831132 292.59 
L 157.265047 292.59 
L 157.698961 292.59 
L 158.132876 292.59 
L 158.566791 292.59 
L 159.000705 292.59 
L 159.43462 292.59 
L 159.868535 292.59 
L 160.302449 292.59 
L 160.736364 292.59 
L 161.170279 292.59 
L 161.604194 292.59 
L 162.038108 292.59 
L 162.472023 292.59 
L 162.905938 292.59 
L 163.339852 292.59 
L 163.773767 292.59 
L 164.207682 292.59 
L 164.641596 292.59 
L 165.075511 292.59 
L 165.509426 292.59 
L 165.94334 292.59 
L 166.377255 292.59 
L 166.81117 292.59 
L 167.245085 292.59 
L 167.678999 292.59 
L 168.112914 292.59 
L 168.546829 292.59 
L 168.980743 292.59 
L 169.414658 292.59 
L 169.848573 292.59 
L 170.282487 292.59 
L 170.716402 292.59 
L 171.150317 292.59 
L 171.584231 292.59 
L 172.018146 292.59 
L 172.452061 292.59 
L 172.885976 292.59 
L 173.31989 292.59 
L 173.753805 292.59 
L 174.18772 292.59 
L 174.621634 292.59 
L 175.055549 292.59 
L 175.489464 292.59 
L 175.923378 292.59 
L 176.357293 292.59 
L 176.791208 292.59 
L 177.225123 292.59 
L 177.659037 292.59 
L 178.092952 292.59 
L 178.526867 292.59 
L 178.960781 292.59 
L 179.394696 292.59 
L 179.828611 292.59 
L 180.262525 292.59 
L 180.69644 292.59 
L 181.130355 292.59 
L 181.564269 292.59 
L 181.998184 292.59 
L 182.432099 292.59 
L 182.866014 292.59 
L 183.299928 292.59 
L 183.733843 292.59 
L 184.167758 292.59 
L 184.601672 292.59 
L 185.035587 292.59 
L 185.469502 292.59 
L 185.903416 292.59 
L 186.337331 292.59 
L 186.771246 292.59 
L 187.20516 292.59 
L 187.639075 292.59 
L 188.07299 292.59 
L 188.506905 292.59 
L 188.940819 292.59 
L 189.374734 292.59 
L 189.808649 292.59 
L 190.242563 292.59 
L 190.676478 292.59 
L 191.110393 292.59 
L 191.544307 292.59 
L 191.978222 292.59 
L 192.412137 292.59 
L 192.846051 292.59 
L 193.279966 292.59 
L 193.713881 292.59 
L 194.147796 292.59 
L 194.58171 292.59 
L 195.015625 292.59 
L 195.44954 292.59 
L 195.883454 292.59 
L 196.317369 292.59 
L 196.751284 292.59 
L 197.185198 292.59 
L 197.185198 20.793299 
L 197.185198 20.793299 
L 196.751284 20.797615 
L 196.317369 20.80426 
L 195.883454 20.814292 
L 195.44954 20.82914 
L 195.015625 20.850692 
L 194.58171 20.881376 
L 194.147796 20.924229 
L 193.713881 20.982952 
L 193.279966 21.061929 
L 192.846051 21.1662 
L 192.412137 21.301394 
L 191.978222 21.473591 
L 191.544307 21.689154 
L 191.110393 21.954501 
L 190.676478 22.275869 
L 190.242563 22.659075 
L 189.808649 23.109312 
L 189.374734 23.631001 
L 188.940819 24.227739 
L 188.506905 24.902343 
L 188.07299 25.657013 
L 187.639075 26.493607 
L 187.20516 27.414 
L 186.771246 28.420529 
L 186.337331 29.516454 
L 185.903416 30.706435 
L 185.469502 31.996958 
L 185.035587 33.39668 
L 184.601672 34.916666 
L 184.167758 36.570464 
L 183.733843 38.374019 
L 183.299928 40.345372 
L 182.866014 42.504156 
L 182.432099 44.870872 
L 181.998184 47.465966 
L 181.564269 50.308727 
L 181.130355 53.416069 
L 180.69644 56.801266 
L 180.262525 60.472735 
L 179.828611 64.432974 
L 179.394696 68.677768 
L 178.960781 73.195772 
L 178.526867 77.968545 
L 178.092952 82.971087 
L 177.659037 88.172872 
L 177.225123 93.539332 
L 176.791208 99.03367 
L 176.357293 104.618866 
L 175.923378 110.259699 
L 175.489464 115.924591 
L 175.055549 121.587134 
L 174.621634 127.227147 
L 174.18772 132.8312 
L 173.753805 138.392577 
L 173.31989 143.91072 
L 172.885976 149.390216 
L 172.452061 154.839457 
L 172.018146 160.269077 
L 171.584231 165.69031 
L 171.150317 171.113365 
L 170.716402 176.545947 
L 170.282487 181.991982 
L 169.848573 187.45064 
L 169.414658 192.915713 
L 168.980743 198.375375 
L 168.546829 203.812379 
L 168.112914 209.204671 
L 167.678999 214.526406 
L 167.245085 219.749298 
L 166.81117 224.844205 
L 166.377255 229.782809 
L 165.94334 234.539249 
L 165.509426 239.091539 
L 165.075511 243.42263 
L 164.641596 247.521026 
L 164.207682 251.380894 
L 163.773767 255.001679 
L 163.339852 258.387309 
L 162.905938 261.545101 
L 162.472023 264.484525 
L 162.038108 267.215992 
L 161.604194 269.749805 
L 161.170279 272.095385 
L 160.736364 274.260837 
L 160.302449 276.25286 
L 159.868535 278.076957 
L 159.43462 279.737876 
L 159.000705 281.240167 
L 158.566791 282.588768 
L 158.132876 283.789511 
L 157.698961 284.849495 
L 157.265047 285.777273 
L 156.831132 286.58285 
L 156.397217 287.277508 
L 155.963303 287.873485 
L 155.529388 288.383561 
L 155.095473 288.820591 
L 154.661558 289.197037 
L 154.227644 289.524536 
L 153.793729 289.813534 
L 153.359814 290.073003 
L 152.9259 290.310276 
L 152.491985 290.530975 
L 152.05807 290.739055 
L 151.624156 290.936939 
L 151.190241 291.125737 
L 150.756326 291.305516 
L 150.322411 291.475608 
L 149.888497 291.634917 
L 149.454582 291.782207 
L 149.020667 291.916345 
L 148.586753 292.036486 
L 148.152838 292.142188 
L 147.718923 292.233469 
L 147.285009 292.310793 
L 146.851094 292.375018 
L 146.417179 292.427306 
L 145.983265 292.469026 
L 145.54935 292.501641 
L 145.115435 292.526622 
L 144.68152 292.545367 
L 144.247606 292.559145 
L 143.813691 292.569065 
L 143.379776 292.576061 
L 142.945862 292.580893 
L 142.511947 292.584163 
L 142.078032 292.58633 
z
" style="fill:#0000ff;fill-opacity:0.25;"/>
   </g>
   <g id="line2d_14">
    <path clip-path="url(#p026dd58208)" d="M 124.196804 292.586331 
L 126.297734 292.482761 
L 127.348198 292.241415 
L 128.398663 291.759022 
L 129.97436 290.698866 
L 131.287441 289.659578 
L 132.07529 288.759121 
L 132.600522 287.885086 
L 133.125755 286.686144 
L 133.650987 285.079915 
L 134.438836 281.773654 
L 135.226684 277.297228 
L 136.014533 271.647036 
L 137.064998 262.413604 
L 138.115463 251.288699 
L 139.165927 237.582074 
L 139.953776 224.604575 
L 141.004241 202.591647 
L 142.579938 162.233696 
L 144.155635 123.566998 
L 145.468716 96.674432 
L 147.044413 68.83027 
L 148.094878 53.535235 
L 148.882727 44.602414 
L 149.670575 37.880752 
L 150.458424 32.909948 
L 151.246273 29.125226 
L 152.034121 26.169832 
L 152.82197 23.938607 
L 153.609818 22.414333 
L 154.397667 21.51295 
L 155.185516 21.062563 
L 156.23598 20.84454 
L 157.549061 20.79159 
L 157.549061 20.79159 
" style="fill:none;stroke:#1f78b4;stroke-linecap:round;stroke-width:2;"/>
   </g>
   <g id="line2d_15">
    <path clip-path="url(#p026dd58208)" d="M 75.319264 292.586235 
L 78.591992 292.471408 
L 80.228355 292.16756 
L 81.455628 291.660757 
L 82.27381 291.118147 
L 83.091992 290.360088 
L 83.910174 289.338421 
L 84.728356 288.003541 
L 85.546538 286.309087 
L 86.36472 284.219853 
L 87.591992 280.322568 
L 88.819265 275.589609 
L 90.455629 268.335119 
L 92.091993 260.282231 
L 93.319266 253.407031 
L 94.546539 245.154016 
L 95.773811 234.897769 
L 97.001084 222.340368 
L 98.228357 207.597914 
L 99.864721 185.188401 
L 105.591994 102.16041 
L 107.228358 83.454063 
L 108.864722 67.695165 
L 110.501085 54.452896 
L 111.728358 46.063148 
L 112.955631 39.033747 
L 114.182904 33.415555 
L 115.001086 30.447571 
L 115.819268 28.061604 
L 116.63745 26.193623 
L 117.455632 24.760251 
L 118.273813 23.671806 
L 119.501086 22.511812 
L 120.728359 21.748912 
L 121.955632 21.268661 
L 123.591996 20.93988 
L 125.637451 20.810197 
L 127.273814 20.79 
L 127.273814 20.79 
" style="fill:none;stroke:#000000;stroke-linecap:round;stroke-width:2;"/>
   </g>
   <g id="line2d_16">
    <path clip-path="url(#p026dd58208)" d="M 168.541328 292.58633 
L 173.233852 292.475672 
L 175.580114 292.213631 
L 177.926376 291.686533 
L 180.859203 290.71469 
L 184.378596 289.328454 
L 186.138292 288.453136 
L 187.311423 287.689709 
L 188.484554 286.670964 
L 189.657685 285.259467 
L 190.830816 283.288671 
L 192.003947 280.588406 
L 193.177078 277.020826 
L 194.350209 272.510601 
L 195.52334 267.051633 
L 196.696471 260.682937 
L 198.456167 249.500902 
L 200.215863 236.31118 
L 201.97556 220.915745 
L 203.735256 203.293878 
L 206.081518 177.221112 
L 210.187476 131.131145 
L 212.533738 107.887621 
L 214.293435 92.478644 
L 216.053131 78.770807 
L 217.812828 66.67925 
L 219.572524 56.147562 
L 221.33222 47.179203 
L 222.505351 42.081754 
L 223.678482 37.685194 
L 224.851613 33.96643 
L 226.024744 30.885488 
L 227.197875 28.388303 
L 228.371006 26.408716 
L 229.544137 24.871105 
L 230.717268 23.69622 
L 231.890399 22.809697 
L 233.06353 22.149293 
L 234.823226 21.48116 
L 236.582923 21.097944 
L 238.929185 20.869673 
L 243.035143 20.790014 
L 243.035143 20.790014 
" style="fill:none;stroke:#33a02c;stroke-linecap:round;stroke-width:2;"/>
   </g>
   <g id="line2d_17">
    <path clip-path="url(#p026dd58208)" d="M 456.570248 292.586109 
L 458.31123 292.478638 
L 459.085 292.231182 
L 459.665328 291.814367 
L 460.245655 291.041182 
L 460.825983 289.709014 
L 461.40631 287.57135 
L 461.986638 284.376288 
L 462.566965 279.920573 
L 463.340735 271.819361 
L 464.114505 261.128376 
L 464.888275 247.687395 
L 465.855488 226.817301 
L 467.209585 191.473996 
L 469.724338 124.685798 
L 470.884993 99.15213 
L 471.852206 81.795078 
L 473.012861 65.194004 
L 474.366958 49.147518 
L 475.527613 37.546597 
L 476.494826 30.044514 
L 477.268596 25.794105 
L 477.848923 23.640053 
L 478.429251 22.257107 
L 479.009578 21.464791 
L 479.589906 21.064069 
L 480.363676 20.855636 
L 481.137446 20.799978 
L 481.137446 20.799978 
" style="fill:none;stroke:#ff7f00;stroke-linecap:round;stroke-width:2;"/>
   </g>
   <g id="line2d_18">
    <path clip-path="url(#p026dd58208)" d="M 142.078032 292.58633 
L 145.983265 292.469026 
L 147.718923 292.233469 
L 149.454582 291.782207 
L 151.624156 290.936939 
L 153.359814 290.073003 
L 154.661558 289.197037 
L 155.529388 288.383561 
L 156.397217 287.277508 
L 157.265047 285.777273 
L 158.132876 283.789511 
L 159.000705 281.240167 
L 159.868535 278.076957 
L 160.736364 274.260837 
L 162.038108 267.215992 
L 163.339852 258.387309 
L 164.641596 247.521026 
L 165.94334 234.539249 
L 167.678999 214.526406 
L 172.885976 149.390216 
L 178.960781 73.195772 
L 180.262525 60.472735 
L 181.564269 50.308727 
L 182.866014 42.504156 
L 184.167758 36.570464 
L 185.469502 31.996958 
L 186.771246 28.420529 
L 188.07299 25.657013 
L 188.940819 24.227739 
L 189.808649 23.109312 
L 190.676478 22.275869 
L 191.544307 21.689154 
L 192.846051 21.1662 
L 194.147796 20.924229 
L 196.317369 20.80426 
L 197.185198 20.793299 
L 197.185198 20.793299 
" style="fill:none;stroke:#0000ff;stroke-linecap:round;stroke-width:2;"/>
   </g>
   <g id="line2d_19">
    <path clip-path="url(#p026dd58208)" d="M 208.134728 306.18 
L 208.134728 7.2 
" style="fill:none;stroke:#33a02c;stroke-dasharray:8.4,3.6;stroke-dashoffset:0;stroke-width:3;"/>
   </g>
   <g id="patch_3">
    <path d="M 55.028355 306.18 
L 55.028355 7.2 
" style="fill:none;"/>
   </g>
   <g id="patch_4">
    <path d="M 501.428355 306.18 
L 501.428355 7.2 
" style="fill:none;"/>
   </g>
   <g id="patch_5">
    <path d="M 55.028355 306.18 
L 501.428355 306.18 
" style="fill:none;"/>
   </g>
   <g id="patch_6">
    <path d="M 55.028355 7.2 
L 501.428355 7.2 
" style="fill:none;"/>
   </g>
   <g id="legend_1">
    <g id="line2d_20">
     <path d="M 218.01446 209.856945 
L 246.01446 209.856945 
" style="fill:none;stroke:#1f78b4;stroke-linecap:round;stroke-width:2;"/>
    </g>
    <g id="line2d_21"/>
    <g id="text_16">
     <!-- Unbranched -->
     <defs>
      <path d="M 8 69.5 
L 8 32.75 
C 8 25.71875 7.203125 18.390625 10.703125 11.96875 
C 12.90625 7.84375 16.09375 4.4375 20.09375 2.125 
C 29.90625 -3.609375 43.5 -2.203125 51.296875 6.4375 
C 54.796875 10.359375 57.296875 15.171875 57.796875 21.796875 
C 57.90625 23.40625 57.796875 24.921875 57.796875 26.515625 
L 57.796875 69.5 
L 51.40625 69.5 
L 51.40625 25.90625 
C 51.40625 24.59375 51.5 23.1875 51.40625 21.890625 
C 51.203125 18.890625 50.59375 15.921875 49.40625 13.25 
C 43.90625 1 25 1 18 11.890625 
C 14.203125 17.78125 15 25.0625 15 31.65625 
L 15 69.5 
z
" id="Computer_Modern_Bright-85"/>
      <path d="M 6.40625 69.6875 
L 6.40625 0 
L 12.796875 0 
L 12.796875 6.328125 
L 12.90625 6.328125 
C 14 4.109375 16.5 2.015625 18.59375 0.90625 
C 25.796875 -2.90625 34.40625 0.90625 39.09375 7.03125 
C 48.59375 19.578125 44.796875 40.875 32.296875 46.796875 
C 27.40625 49 21.5 48 17.09375 44.984375 
C 15.40625 43.78125 14 42.375 12.703125 40.765625 
L 12.703125 69.6875 
z
M 21.90625 42.984375 
C 26.59375 43.375 31.5 41.265625 34.296875 37.453125 
C 36.203125 34.9375 37.203125 31.9375 37.703125 28.8125 
C 38.703125 21.484375 37.90625 12.25 31.40625 7.4375 
C 30.296875 6.625 29.09375 6.03125 27.796875 5.515625 
C 22.40625 3.515625 17 4.109375 14 8.84375 
C 13.09375 10.4375 12.796875 10.546875 12.796875 12.953125 
L 12.796875 33.734375 
C 12.796875 34.75 12.59375 35.953125 13 36.859375 
C 14.59375 40.171875 18.296875 42.671875 21.90625 42.984375 
" id="Computer_Modern_Bright-98"/>
      <path d="M 12.5 34.75 
L 12.40625 34.75 
L 12.40625 47.390625 
L 6.40625 47.390625 
L 6.40625 0 
L 12.703125 0 
L 12.703125 22.890625 
C 12.703125 24.40625 12.703125 25.90625 12.90625 27.40625 
C 14.296875 35.953125 21.703125 42.28125 31.40625 42.28125 
L 31.40625 48 
C 25 48 19.09375 44.890625 15.296875 39.765625 
C 14.203125 38.265625 13 36.546875 12.5 34.75 
" id="Computer_Modern_Bright-114"/>
      <path d="M 6.40625 69.6875 
L 6.40625 0 
L 12.796875 0 
L 12.796875 21.984375 
C 12.796875 26.90625 12.5 31.9375 14.703125 36.546875 
C 15.796875 38.859375 17.5 40.875 19.796875 42.078125 
C 21.703125 42.984375 23.703125 42.984375 25.796875 42.78125 
C 28.796875 42.78125 31.703125 41.984375 33.59375 39.453125 
C 35.40625 37.140625 35.5 34.140625 35.5 31.3125 
L 35.5 0 
L 41.90625 0 
L 41.90625 27.21875 
C 41.90625 32.234375 42.40625 37.75 39.90625 42.28125 
C 37.90625 45.6875 34.40625 47.296875 30.703125 47.796875 
C 28.703125 48 26.703125 48 24.703125 47.703125 
C 21.09375 47.015625 18 45.03125 15.59375 42.34375 
C 14.5 41.046875 13.203125 39.46875 12.796875 37.765625 
L 12.703125 37.765625 
L 12.703125 69.6875 
z
" id="Computer_Modern_Bright-104"/>
      <path d="M 35.59375 69.6875 
L 35.59375 41.375 
C 33.703125 43.484375 31.796875 45.484375 29.203125 46.6875 
C 20.296875 50.40625 11.703125 45.59375 7.296875 37.65625 
C 2.203125 28.21875 2.796875 15.765625 8.90625 6.921875 
C 13.203125 0.796875 20.296875 -2.203125 27.796875 0.5 
C 30.703125 1.609375 34.203125 4.515625 35.40625 7.125 
L 35.5 7.125 
L 35.5 0 
L 41.90625 0 
L 41.90625 69.6875 
z
M 35.203125 37.453125 
C 35.703125 36.546875 35.5 35.34375 35.5 34.34375 
L 35.5 13.65625 
C 35.5 11.34375 35.40625 11.140625 34.09375 9.34375 
C 32.296875 6.625 29.5 4.71875 26.203125 4.421875 
C 21.40625 4.015625 16.5 6.328125 13.703125 10.25 
C 12.09375 12.546875 11.203125 15.359375 10.703125 18.171875 
C 10.5 19.28125 10.5 20.28125 10.40625 21.390625 
C 9.796875 28.015625 11.203125 35.84375 17 40.0625 
C 18 40.765625 19.09375 41.265625 20.203125 41.765625 
C 26 43.984375 32.40625 43.375 35.203125 37.453125 
" id="Computer_Modern_Bright-100"/>
     </defs>
     <g style="fill:#262626;" transform="translate(257.21446 214.756945)scale(0.14 -0.14)">
      <use transform="scale(0.996264)" xlink:href="#Computer_Modern_Bright-85"/>
      <use transform="translate(65.587132 0)scale(0.996264)" xlink:href="#Computer_Modern_Bright-110"/>
      <use transform="translate(113.739629 0)scale(0.996264)" xlink:href="#Computer_Modern_Bright-98"/>
      <use transform="translate(158.986397 0)scale(0.996264)" xlink:href="#Computer_Modern_Bright-114"/>
      <use transform="translate(190.949756 0)scale(0.996264)" xlink:href="#Computer_Modern_Bright-97"/>
      <use transform="translate(237.441838 0)scale(0.996264)" xlink:href="#Computer_Modern_Bright-110"/>
      <use transform="translate(285.594335 0)scale(0.996264)" xlink:href="#Computer_Modern_Bright-99"/>
      <use transform="translate(330.426003 0)scale(0.996264)" xlink:href="#Computer_Modern_Bright-104"/>
      <use transform="translate(378.5785 0)scale(0.996264)" xlink:href="#Computer_Modern_Bright-101"/>
      <use transform="translate(423.410167 0)scale(0.996264)" xlink:href="#Computer_Modern_Bright-100"/>
     </g>
    </g>
    <g id="line2d_22">
     <path d="M 218.01446 228.981556 
L 246.01446 228.981556 
" style="fill:none;stroke:#000000;stroke-linecap:round;stroke-width:2;"/>
    </g>
    <g id="line2d_23"/>
    <g id="text_17">
     <!-- \emph{vhl-1} $&gt;$ \emph{rhy-1} -->
     <defs>
      <path d="M 10.703125 48 
C 12.796875 33.046875 15.09375 18.171875 17.09375 3.125 
C 17.296875 2.109375 17.296875 0.90625 17.796875 0.203125 
C 19.90625 0 22.59375 0 24.703125 0 
L 25.296875 0.703125 
L 44.703125 35.109375 
L 51.796875 48 
C 49.703125 48 47.5 48 45.703125 47.703125 
C 44.90625 46.59375 44.296875 45.484375 43.59375 44.265625 
C 36.59375 31.84375 29.40625 19.515625 22.703125 6.6875 
C 21.59375 16.984375 20 26.6875 18.59375 36.6875 
C 18 40.328125 17.90625 44.46875 16.90625 47.703125 
C 15.09375 48 12.796875 48 10.703125 48 
" id="Computer_Modern_Bright_Slanted-118"/>
      <path d="M 21.09375 70 
L 6.40625 0 
L 10.90625 0 
C 11.796875 0 13 -0.296875 13 1.015625 
C 13.203125 1.71875 13.296875 2.328125 13.40625 3.03125 
C 14.40625 7.78125 19 29.5 19.296875 30.40625 
C 20.40625 33.953125 22.40625 37.375 25.09375 39.90625 
C 28 42.4375 31.203125 43.84375 36.59375 42.9375 
C 38.796875 42.53125 40.90625 41.625 42 39.5 
C 43.5 36.46875 42.40625 32.9375 41.796875 29.90625 
L 35.5 0 
L 40.203125 0 
C 41.203125 0 42.09375 -0.203125 42.09375 1.109375 
C 42.703125 3.125 44.09375 10.625 44.09375 10.625 
L 48.59375 32 
C 49.40625 35.734375 50.296875 40.40625 48.203125 43.9375 
C 46.296875 46.984375 42.90625 48 39.59375 48.296875 
C 38.09375 48.296875 36.5 48.296875 35 48 
C 30.796875 47.3125 27.09375 45.09375 24.09375 42.09375 
C 22.90625 40.890625 21.5 39.59375 20.796875 37.984375 
L 20.703125 37.984375 
L 27.40625 70 
z
" id="Computer_Modern_Bright_Slanted-104"/>
      <path d="M 21.09375 70 
L 6.40625 0 
C 8.5 0 10.796875 0 12.59375 0.296875 
L 13 1.40625 
C 14 6.4375 15.09375 11.375 16.203125 16.40625 
L 27.40625 70 
z
" id="Computer_Modern_Bright_Slanted-108"/>
      <path d="M 5.90625 26.0625 
L 4.90625 21 
L 32.796875 21 
L 33.796875 26.0625 
z
" id="Computer_Modern_Bright_Slanted-45"/>
      <path d="M 22.5 61 
L 21.5 55.9375 
C 26.296875 55.9375 31.40625 56.546875 35.703125 58.875 
L 24.5 5.046875 
C 20.296875 5.046875 15.296875 5.5625 11.5 5.046875 
C 10.90625 3.578125 10.703125 1.671875 10.296875 0 
C 21.09375 0 32.59375 0 42.796875 0 
C 43.40625 1.453125 43.703125 3.296875 44.09375 5.046875 
L 31 5.046875 
C 35.203125 26.0625 39.796875 46.59375 44.09375 67.5 
C 41.703125 67.5 42 67.09375 40 65.59375 
C 35.59375 62.59375 28.90625 61 22.5 61 
" id="Computer_Modern_Bright_Slanted-49"/>
      <path d="M 62.59375 26.546875 
L 62.59375 26.34375 
C 60.296875 25.546875 58 24.25 55.796875 23.140625 
L 27.09375 9.625 
L 11.09375 2 
C 10.40625 1.703125 9.40625 1.296875 8.90625 0.796875 
C 8 -0.203125 8.203125 -1.703125 9.296875 -2.296875 
C 10.5 -3 11.703125 -2.109375 12.796875 -1.609375 
L 21 2.203125 
C 25.203125 4.3125 55 18.328125 55 18.328125 
L 66 23.546875 
C 67.296875 24.140625 69.40625 24.75 69.40625 26.453125 
C 69.40625 28.15625 67.296875 28.75 66 29.359375 
L 55 34.5625 
L 33.703125 44.6875 
C 29.5 46.6875 25.203125 48.59375 21 50.703125 
L 12.796875 54.5 
C 11.703125 55 10.5 55.90625 9.296875 55.203125 
C 8.203125 54.609375 8 53.09375 8.90625 52.09375 
C 9.40625 51.59375 10.40625 51.203125 11.09375 50.890625 
L 41.59375 36.46875 
L 55.796875 29.75 
C 58 28.65625 60.296875 27.359375 62.59375 26.546875 
" id="Computer_Modern_Bright_Math_Slanted-62"/>
      <path d="M 19.90625 35.53125 
L 19.796875 35.53125 
L 22.40625 48.15625 
L 16.40625 48.15625 
L 6.40625 0.5 
L 10.90625 0.5 
C 11.40625 0.5 12.203125 0.296875 12.59375 0.703125 
C 12.90625 0.90625 13.5 4.4375 13.796875 5.65625 
L 16.703125 19.578125 
C 17.5 23.109375 18 26.859375 19.59375 30.1875 
C 23.40625 37.84375 31.90625 43 40.40625 43 
L 41.5 48.765625 
C 34.90625 48.765625 28.59375 45.421875 24 40.78125 
C 22.5 39.265625 20.90625 37.453125 19.90625 35.53125 
M 19.703125 34.953125 
C 19.703125 34.953125 19.796875 34.953125 19.796875 34.953125 
C 19.796875 34.859375 19.703125 34.75 19.703125 34.953125 
" id="Computer_Modern_Bright_Slanted-114"/>
      <path d="M 10.703125 48 
C 11.203125 44.265625 12 40.625 12.703125 36.890625 
C 13.09375 34.359375 19 0.8125 19 0.515625 
C 19 -0.09375 18.59375 -0.59375 18.296875 -1.109375 
L 16.59375 -4.140625 
C 14.703125 -7.265625 12.796875 -10.5 9 -11.8125 
C 6 -12.71875 0.5 -11.40625 -1.5 -10.796875 
C -1.796875 -12.625 -2 -14.53125 -2.203125 -16.453125 
C 0.5 -16.859375 5.40625 -17.46875 8.09375 -16.96875 
C 15.203125 -15.34375 19.203125 -8.671875 22.5 -3.21875 
L 44.09375 34.359375 
L 49.203125 43.359375 
C 50.09375 44.859375 51.203125 46.375 51.796875 48 
C 49.703125 48 47.40625 48 45.59375 47.703125 
C 43.203125 44.078125 41.203125 40.046875 38.90625 36.21875 
C 33.59375 26.4375 27.703125 17.359375 23.203125 6.78125 
L 23.09375 6.78125 
C 23.40625 8.390625 23.09375 10.109375 22.90625 11.734375 
C 21.796875 22.546875 18.59375 39.71875 17.09375 48 
z
" id="Computer_Modern_Bright_Slanted-121"/>
     </defs>
     <g style="fill:#262626;" transform="translate(257.21446 233.881556)scale(0.14 -0.14)">
      <use transform="scale(0.996264)" xlink:href="#Computer_Modern_Bright_Slanted-118"/>
      <use transform="translate(42.341038 0)scale(0.996264)" xlink:href="#Computer_Modern_Bright_Slanted-104"/>
      <use transform="translate(90.493535 0)scale(0.996264)" xlink:href="#Computer_Modern_Bright_Slanted-108"/>
      <use transform="translate(109.588494 0)scale(0.996264)" xlink:href="#Computer_Modern_Bright_Slanted-45"/>
      <use transform="translate(142.797167 0)scale(0.996264)" xlink:href="#Computer_Modern_Bright_Slanted-49"/>
      <use transform="translate(235.881937 0)scale(0.996264)" xlink:href="#Computer_Modern_Bright_Math_Slanted-62"/>
      <use transform="translate(344.834617 0)scale(0.996264)" xlink:href="#Computer_Modern_Bright_Slanted-114"/>
      <use transform="translate(376.797976 0)scale(0.996264)" xlink:href="#Computer_Modern_Bright_Slanted-104"/>
      <use transform="translate(424.950473 0)scale(0.996264)" xlink:href="#Computer_Modern_Bright_Slanted-121"/>
      <use transform="translate(467.291511 0)scale(0.996264)" xlink:href="#Computer_Modern_Bright_Slanted-45"/>
      <use transform="translate(500.500184 0)scale(0.996264)" xlink:href="#Computer_Modern_Bright_Slanted-49"/>
     </g>
    </g>
    <g id="line2d_24">
     <path d="M 218.01446 248.106167 
L 246.01446 248.106167 
" style="fill:none;stroke:#33a02c;stroke-linecap:round;stroke-width:2;"/>
    </g>
    <g id="line2d_25"/>
    <g id="text_18">
     <!-- actual -->
     <g style="fill:#262626;" transform="translate(257.21446 253.006167)scale(0.14 -0.14)">
      <use transform="scale(0.996264)" xlink:href="#Computer_Modern_Bright-97"/>
      <use transform="translate(46.492082 0)scale(0.996264)" xlink:href="#Computer_Modern_Bright-99"/>
      <use transform="translate(91.32375 0)scale(0.996264)" xlink:href="#Computer_Modern_Bright-116"/>
      <use transform="translate(127.438138 0)scale(0.996264)" xlink:href="#Computer_Modern_Bright-117"/>
      <use transform="translate(175.590635 0)scale(0.996264)" xlink:href="#Computer_Modern_Bright-97"/>
      <use transform="translate(222.082717 0)scale(0.996264)" xlink:href="#Computer_Modern_Bright-108"/>
     </g>
    </g>
    <g id="line2d_26">
     <path d="M 218.01446 267.230778 
L 246.01446 267.230778 
" style="fill:none;stroke:#ff7f00;stroke-linecap:round;stroke-width:2;"/>
    </g>
    <g id="line2d_27"/>
    <g id="text_19">
     <!-- Additive -->
     <defs>
      <path d="M 2.09375 0.09375 
L 6.59375 0.09375 
L 8.40625 0.296875 
C 11.40625 6.796875 13.5 14.203125 16.203125 21 
C 26.09375 21 36.90625 21 46.296875 21 
L 47.09375 19.6875 
C 48.796875 14.546875 50.796875 9.59375 52.59375 4.546875 
C 53.09375 3.015625 53.59375 1.515625 54.40625 0.296875 
C 56.59375 0 59.203125 0 61.59375 0 
C 59.90625 4.90625 36.703125 67.203125 36 68.890625 
C 35.90625 69.296875 35.703125 69.890625 35.203125 70 
C 34.59375 70.09375 34 70 33.40625 70 
L 30.09375 70 
C 28.59375 70 28 70.1875 27.59375 68.609375 
C 27.203125 67.59375 2.09375 0.09375 2.09375 0.09375 
M 31.40625 63.171875 
C 35.59375 50.71875 40.09375 38.46875 44.5 26.21875 
L 18.203125 26.21875 
L 26.90625 50.109375 
z
" id="Computer_Modern_Bright-65"/>
     </defs>
     <g style="fill:#262626;" transform="translate(257.21446 272.130778)scale(0.14 -0.14)">
      <use transform="scale(0.996264)" xlink:href="#Computer_Modern_Bright-65"/>
      <use transform="translate(63.511618 0)scale(0.996264)" xlink:href="#Computer_Modern_Bright-100"/>
      <use transform="translate(111.664115 0)scale(0.996264)" xlink:href="#Computer_Modern_Bright-100"/>
      <use transform="translate(159.816612 0)scale(0.996264)" xlink:href="#Computer_Modern_Bright-105"/>
      <use transform="translate(178.911571 0)scale(0.996264)" xlink:href="#Computer_Modern_Bright-116"/>
      <use transform="translate(215.025959 0)scale(0.996264)" xlink:href="#Computer_Modern_Bright-105"/>
      <use transform="translate(234.120917 0)scale(0.996264)" xlink:href="#Computer_Modern_Bright-118"/>
      <use transform="translate(276.461955 0)scale(0.996264)" xlink:href="#Computer_Modern_Bright-101"/>
     </g>
    </g>
    <g id="line2d_28">
     <path d="M 218.01446 286.355389 
L 246.01446 286.355389 
" style="fill:none;stroke:#0000ff;stroke-linecap:round;stroke-width:2;"/>
    </g>
    <g id="line2d_29"/>
    <g id="text_20">
     <!-- \emph{rhy-1} $&gt;$ \emph{vhl-1} -->
     <g style="fill:#262626;" transform="translate(257.21446 291.255389)scale(0.14 -0.14)">
      <use transform="scale(0.996264)" xlink:href="#Computer_Modern_Bright_Slanted-114"/>
      <use transform="translate(31.963359 0)scale(0.996264)" xlink:href="#Computer_Modern_Bright_Slanted-104"/>
      <use transform="translate(80.115856 0)scale(0.996264)" xlink:href="#Computer_Modern_Bright_Slanted-121"/>
      <use transform="translate(122.456894 0)scale(0.996264)" xlink:href="#Computer_Modern_Bright_Slanted-45"/>
      <use transform="translate(155.665567 0)scale(0.996264)" xlink:href="#Computer_Modern_Bright_Slanted-49"/>
      <use transform="translate(248.750337 0)scale(0.996264)" xlink:href="#Computer_Modern_Bright_Math_Slanted-62"/>
      <use transform="translate(357.703017 0)scale(0.996264)" xlink:href="#Computer_Modern_Bright_Slanted-118"/>
      <use transform="translate(400.044055 0)scale(0.996264)" xlink:href="#Computer_Modern_Bright_Slanted-104"/>
      <use transform="translate(448.196552 0)scale(0.996264)" xlink:href="#Computer_Modern_Bright_Slanted-108"/>
      <use transform="translate(467.291511 0)scale(0.996264)" xlink:href="#Computer_Modern_Bright_Slanted-45"/>
      <use transform="translate(500.500184 0)scale(0.996264)" xlink:href="#Computer_Modern_Bright_Slanted-49"/>
     </g>
    </g>
   </g>
  </g>
 </g>
 <defs>
  <clipPath id="p026dd58208">
   <rect height="298.98" width="446.4" x="55.028355" y="7.2"/>
  </clipPath>
 </defs>
</svg>
