<?xml version="1.0" encoding="utf-8" standalone="no"?>
<!DOCTYPE svg PUBLIC "-//W3C//DTD SVG 1.1//EN"
  "http://www.w3.org/Graphics/SVG/1.1/DTD/svg11.dtd">
<!-- Created with matplotlib (http://matplotlib.org/) -->
<svg height="353pt" version="1.1" viewBox="0 0 512 353" width="512pt" xmlns="http://www.w3.org/2000/svg" xmlns:xlink="http://www.w3.org/1999/xlink">
 <defs>
  <style type="text/css">
*{stroke-linecap:butt;stroke-linejoin:round;}
  </style>
 </defs>
 <g id="figure_1">
  <g id="patch_1">
   <path d="M 0 353.548374 
L 512.347714 353.548374 
L 512.347714 0 
L 0 0 
z
" style="fill:#ffffff;"/>
  </g>
  <g id="axes_1">
   <g id="patch_2">
    <path d="M 58.747714 306.18 
L 505.147714 306.18 
L 505.147714 7.2 
L 58.747714 7.2 
z
" style="fill:#eaeaf2;"/>
   </g>
   <g id="matplotlib.axis_1">
    <g id="xtick_1">
     <g id="line2d_1"/>
     <g id="text_1">
      <!-- $-1.0$ -->
      <defs>
       <path d="M 9.796875 28.078125 
C 8 27.484375 7.796875 24.78125 9.796875 24.28125 
C 10.296875 24.078125 10.90625 24.1875 11.5 24.1875 
L 64.703125 24.1875 
C 65.90625 24.1875 67.796875 23.78125 68.796875 24.78125 
C 69.90625 25.875 69.296875 27.875 67.703125 28.1875 
C 66.5 28.375 65.09375 28.1875 63.90625 28.1875 
L 11.40625 28.1875 
C 10.90625 28.1875 10.296875 28.28125 9.796875 28.078125 
" id="Computer_Modern_Bright_Math_Symbols-0"/>
       <path d="M 9.703125 60.015625 
L 9.703125 55 
C 15.203125 55 19 56 23.40625 57.90625 
L 23.40625 5.015625 
L 10.296875 5.015625 
L 10.296875 0 
L 43 0 
L 43 5.015625 
L 29.90625 5.015625 
L 29.90625 67 
C 27.5 67 27.90625 66.359375 26 64.875 
C 21.90625 61.71875 16.203125 60.015625 9.703125 60.015625 
" id="Computer_Modern_Bright-49"/>
       <path d="M 10.703125 7.8125 
L 10.703125 0 
L 18.5 0 
L 18.5 7.8125 
z
" id="Computer_Modern_Bright_Math_Slanted-58"/>
       <path d="M 14.796875 63.859375 
C 11.90625 61.859375 9.90625 59.140625 8.40625 56.03125 
C 4.796875 49 4.40625 40.765625 4.40625 31.828125 
C 4.40625 20.578125 6.40625 10.25 12 4.3125 
C 17.296875 -1.203125 25.703125 -2.609375 32.796875 0.296875 
C 37.203125 2.015625 40.40625 5.71875 42.40625 9.734375 
C 46 16.875 46.40625 25.40625 46.40625 34.234375 
C 46.40625 37.046875 46.296875 39.859375 46 42.671875 
C 45.296875 49.40625 43 56.828125 39.296875 60.953125 
C 33.203125 67.6875 22.296875 69.1875 14.796875 63.859375 
M 34.90625 58.140625 
C 39.59375 53.125 40 43.484375 40 34.34375 
L 40 28.921875 
C 40 24.296875 39.203125 18.28125 38.203125 14.859375 
C 36.796875 10.140625 34.5 6.734375 29.90625 4.625 
C 24.296875 2.609375 18.5 4.515625 15.296875 8.9375 
C 11 14.65625 10.796875 24.796875 10.796875 33.734375 
C 10.796875 42.171875 10.90625 51.515625 15 57.03125 
C 19.5 63.0625 29.203125 64.0625 34.90625 58.140625 
" id="Computer_Modern_Bright-48"/>
      </defs>
      <g style="fill:#262626;" transform="translate(83.562102 324.249603)scale(0.16 -0.16)">
       <use transform="scale(0.996264)" xlink:href="#Computer_Modern_Bright_Math_Symbols-0"/>
       <use transform="translate(77.487468 0)scale(0.996264)" xlink:href="#Computer_Modern_Bright-49"/>
       <use transform="translate(128.130685 0)scale(0.996264)" xlink:href="#Computer_Modern_Bright_Math_Slanted-58"/>
       <use transform="translate(157.188132 0)scale(0.996264)" xlink:href="#Computer_Modern_Bright-48"/>
      </g>
     </g>
    </g>
    <g id="xtick_2">
     <g id="line2d_2"/>
     <g id="text_2">
      <!-- $-0.8$ -->
      <defs>
       <path d="M 18.703125 36 
L 18.703125 35.90625 
C 12.5 34.09375 7.296875 30.6875 4.796875 24.84375 
C 2.203125 18.71875 4 11.28125 8.40625 6.453125 
C 13.09375 1.421875 19.5 -1 26.296875 -1 
C 36.296875 -1 45.90625 6.40625 47.09375 16.734375 
C 47.296875 18.265625 47.203125 19.890625 47 21.40625 
C 45.203125 29.21875 39.5 33.875 32.09375 35.90625 
C 32.90625 36.203125 33.796875 36.40625 34.59375 36.703125 
C 38.796875 38.421875 42.296875 40.921875 44.5 44.9375 
C 47.796875 51.375 44.59375 58.90625 39.203125 63.015625 
C 33.796875 67.140625 26.5 68.234375 19.90625 66.828125 
C 12 65.125 4.5 58.40625 5 49.765625 
C 5.203125 46.75 6.5 44.234375 8 42.4375 
C 10.296875 39.625 14.796875 36.609375 18.703125 36 
M 23.796875 62.5 
C 28.203125 62.5 33.703125 62 36.90625 58.578125 
C 40.703125 54.46875 40.90625 47.03125 37.09375 42.8125 
C 34.703125 40.203125 31.203125 38.890625 27.703125 38.59375 
C 22.796875 38.1875 17.203125 39 13.703125 42.8125 
C 9.796875 47.125 10.09375 54.96875 14.296875 58.984375 
C 16.90625 61.390625 20.40625 62.1875 23.796875 62.5 
M 23.703125 33.5 
C 28.40625 33.5 33.5 32.390625 36.90625 28.9375 
C 38.203125 27.53125 39.203125 25.8125 39.796875 24.015625 
C 41.5 18.75 40.703125 12.09375 36.796875 8.046875 
C 34.09375 5.328125 30.40625 4.3125 26.703125 4.015625 
C 22.203125 4.015625 17 5.109375 13.796875 8.5625 
C 9.40625 13.390625 8.5 23.40625 13.703125 29.0625 
C 16.296875 31.78125 20 33.203125 23.703125 33.5 
" id="Computer_Modern_Bright-56"/>
      </defs>
      <g style="fill:#262626;" transform="translate(158.955641 324.249603)scale(0.16 -0.16)">
       <use transform="scale(0.996264)" xlink:href="#Computer_Modern_Bright_Math_Symbols-0"/>
       <use transform="translate(77.487468 0)scale(0.996264)" xlink:href="#Computer_Modern_Bright-48"/>
       <use transform="translate(128.130685 0)scale(0.996264)" xlink:href="#Computer_Modern_Bright_Math_Slanted-58"/>
       <use transform="translate(157.188132 0)scale(0.996264)" xlink:href="#Computer_Modern_Bright-56"/>
      </g>
     </g>
    </g>
    <g id="xtick_3">
     <g id="line2d_3"/>
     <g id="text_3">
      <!-- $-0.6$ -->
      <defs>
       <path d="M 11.296875 32.625 
L 11.203125 32.625 
C 11.203125 41.765625 12.796875 52.421875 20.59375 58.25 
C 24.90625 61.375 30.703125 62.96875 38.203125 61.171875 
C 39.796875 60.765625 41.296875 60.15625 42.796875 59.765625 
L 42.796875 63.28125 
C 42.796875 63.671875 42.90625 64.375 42.59375 64.78125 
C 41.90625 65.6875 36.296875 66.59375 36.09375 66.59375 
C 27.40625 67.59375 21.703125 65.6875 16.40625 61.171875 
C 10 55.640625 6.296875 47.515625 5.09375 39.28125 
C 4 32.65625 4.90625 22 6.203125 16.78125 
C 8.296875 9.046875 12.296875 2.21875 19.703125 -0.390625 
C 24.09375 -2 29.5 -2 33.703125 0.015625 
C 37.09375 1.640625 39.90625 4.46875 42.09375 7.5 
C 45.59375 12.34375 46.5 18.21875 46.09375 24.171875 
C 45.90625 27.109375 45.5 30.046875 44.296875 32.765625 
C 42.40625 37.125 39.203125 41.671875 35.09375 43.6875 
C 33.203125 44.5 31.203125 44.5 29.203125 44.5 
C 23.90625 44.5 18.90625 42.1875 15.203125 38.359375 
C 13.59375 36.75 12 34.71875 11.296875 32.625 
M 24.40625 39.515625 
C 28.203125 39.8125 32.203125 39.21875 35.09375 36.5 
C 38.90625 32.890625 39.59375 27.765625 39.59375 22.8125 
C 39.59375 19.46875 39.703125 16.015625 38.703125 12.859375 
C 38.09375 11.234375 37.296875 9.828125 36.40625 8.5 
C 34.203125 5.5625 31.40625 4.125 26.796875 3.515625 
C 22.296875 3.515625 17.796875 5.3125 15.203125 9.125 
C 13.59375 11.328125 12.796875 14.046875 12.296875 16.640625 
C 11.703125 19.34375 11.296875 22.140625 11.5 24.859375 
C 12 31.984375 17 38.515625 24.40625 39.515625 
" id="Computer_Modern_Bright-54"/>
      </defs>
      <g style="fill:#262626;" transform="translate(234.34918 324.249603)scale(0.16 -0.16)">
       <use transform="scale(0.996264)" xlink:href="#Computer_Modern_Bright_Math_Symbols-0"/>
       <use transform="translate(77.487468 0)scale(0.996264)" xlink:href="#Computer_Modern_Bright-48"/>
       <use transform="translate(128.130685 0)scale(0.996264)" xlink:href="#Computer_Modern_Bright_Math_Slanted-58"/>
       <use transform="translate(157.188132 0)scale(0.996264)" xlink:href="#Computer_Modern_Bright-54"/>
      </g>
     </g>
    </g>
    <g id="xtick_4">
     <g id="line2d_4"/>
     <g id="text_4">
      <!-- $-0.4$ -->
      <defs>
       <path d="M 2.09375 18 
L 31 18 
L 31 0 
L 37.296875 0 
L 37.296875 18 
L 48.703125 18 
L 48.703125 23.328125 
L 37.296875 23.328125 
L 37.296875 66.46875 
L 31.90625 66.46875 
C 30.09375 66.46875 29.59375 66.578125 28.796875 65.0625 
C 24.796875 58.515625 3.703125 25.765625 3 24.859375 
C 2.203125 23.4375 2.09375 23.546875 2.09375 21.4375 
z
M 31.296875 60.875 
L 31.296875 23.328125 
L 8.59375 23.328125 
C 9.296875 24.734375 10.296875 26.03125 11.203125 27.4375 
C 16.203125 35.171875 28.09375 53.546875 30.59375 59.28125 
C 30.90625 59.78125 31 60.375 31.296875 60.875 
" id="Computer_Modern_Bright-52"/>
      </defs>
      <g style="fill:#262626;" transform="translate(309.742718 324.249603)scale(0.16 -0.16)">
       <use transform="scale(0.996264)" xlink:href="#Computer_Modern_Bright_Math_Symbols-0"/>
       <use transform="translate(77.487468 0)scale(0.996264)" xlink:href="#Computer_Modern_Bright-48"/>
       <use transform="translate(128.130685 0)scale(0.996264)" xlink:href="#Computer_Modern_Bright_Math_Slanted-58"/>
       <use transform="translate(157.188132 0)scale(0.996264)" xlink:href="#Computer_Modern_Bright-52"/>
      </g>
     </g>
    </g>
    <g id="xtick_5">
     <g id="line2d_5"/>
     <g id="text_5">
      <!-- $-0.2$ -->
      <defs>
       <path d="M 7.296875 45.96875 
C 8.703125 51.59375 11.09375 57.984375 16.796875 60.5 
C 19.203125 61.5 21.796875 61.703125 24.40625 61.5 
C 29.296875 61.09375 34.09375 59.09375 37.09375 55.09375 
C 39.296875 52.078125 40.09375 48.375 39.703125 44.78125 
C 38.5 34.34375 28.296875 26.84375 21.703125 21.234375 
C 17.90625 18.03125 7.09375 7.8125 7.09375 7.8125 
L 5.40625 6.203125 
C 4.5 5.3125 4.40625 5.3125 4.40625 3.5 
L 4.40625 0 
L 46.40625 0 
L 46.40625 5.625 
L 10.203125 5.625 
C 13.40625 8.734375 26.703125 20.515625 28.5 21.921875 
C 34.296875 26.65625 40.796875 31.375 44.296875 38.21875 
C 48.203125 46.0625 46.5 55.9375 39.90625 61.765625 
C 35.90625 65.296875 30.40625 67 25.09375 67 
C 20.203125 67 15.203125 66 11.296875 62.90625 
C 8.296875 60.390625 5.796875 56.6875 4.40625 52.875 
C 4.09375 52.28125 3.59375 51.28125 3.703125 50.578125 
C 3.796875 49.984375 4.40625 49.484375 4.703125 49.078125 
C 5.5 48.078125 6.296875 46.875 7.296875 45.96875 
" id="Computer_Modern_Bright-50"/>
      </defs>
      <g style="fill:#262626;" transform="translate(385.136257 324.249603)scale(0.16 -0.16)">
       <use transform="scale(0.996264)" xlink:href="#Computer_Modern_Bright_Math_Symbols-0"/>
       <use transform="translate(77.487468 0)scale(0.996264)" xlink:href="#Computer_Modern_Bright-48"/>
       <use transform="translate(128.130685 0)scale(0.996264)" xlink:href="#Computer_Modern_Bright_Math_Slanted-58"/>
       <use transform="translate(157.188132 0)scale(0.996264)" xlink:href="#Computer_Modern_Bright-50"/>
      </g>
     </g>
    </g>
    <g id="xtick_6">
     <g id="line2d_6"/>
     <g id="text_6">
      <!-- $0.0$ -->
      <g style="fill:#262626;" transform="translate(466.728794 324.249603)scale(0.16 -0.16)">
       <use transform="scale(0.996264)" xlink:href="#Computer_Modern_Bright-48"/>
       <use transform="translate(50.643218 0)scale(0.996264)" xlink:href="#Computer_Modern_Bright_Math_Slanted-58"/>
       <use transform="translate(79.700665 0)scale(0.996264)" xlink:href="#Computer_Modern_Bright-48"/>
      </g>
     </g>
    </g>
    <g id="text_7">
     <!-- Epistasis Coefficient -->
     <defs>
      <path d="M 8 69.328125 
L 8 0 
L 55.40625 0 
L 55.40625 5.625 
L 15 5.625 
L 15 33.671875 
L 51.09375 33.671875 
L 51.09375 39 
L 15 39 
L 15 64 
L 54 64 
L 54 69.328125 
z
" id="Computer_Modern_Bright-69"/>
      <path d="M 12.703125 40.53125 
L 12.703125 47.15625 
L 6.40625 47.15625 
L 6.40625 -17 
L 12.796875 -17 
L 12.796875 6.09375 
C 14.203125 4.078125 15.796875 2.28125 17.90625 1.078125 
C 25 -3.25 34 0.171875 38.90625 6.59375 
C 45.40625 14.96875 46.09375 27.5 41.59375 36.984375 
C 39 42.4375 34.09375 47.5 27.796875 48 
C 22.296875 48 18.09375 45.8125 15.09375 43.125 
C 14.203125 42.328125 13.5 41.4375 12.703125 40.53125 
M 21.90625 42.875 
C 26 43.171875 30 41.265625 32.796875 38.265625 
C 34.5 36.34375 35.796875 34.140625 36.59375 31.734375 
C 40.09375 22.296875 36.90625 9.234375 26.796875 5.328125 
C 21 3.109375 15.296875 5.125 13.09375 10.546875 
C 12.59375 11.546875 12.796875 12.859375 12.796875 13.953125 
L 12.796875 34.640625 
C 12.796875 36.953125 13 37.15625 14.5 38.859375 
C 16.296875 41.0625 19 42.578125 21.90625 42.875 
" id="Computer_Modern_Bright-112"/>
      <path d="M 6.40625 70 
L 6.40625 63.671875 
L 12.703125 63.671875 
L 12.703125 70 
z
M 6.40625 47.390625 
L 6.40625 0 
L 12.703125 0 
L 12.703125 47.390625 
z
" id="Computer_Modern_Bright-105"/>
      <path d="M 3.09375 9.640625 
C 2.90625 8.234375 2.59375 6.9375 2.40625 5.53125 
C 2.203125 4.421875 1.90625 3.921875 2.90625 3.421875 
C 7 1.015625 11.90625 -0.296875 17.703125 -0.796875 
C 24.203125 -1.40625 32.40625 0.109375 35.59375 6.53125 
C 36.5 8.34375 37 10.34375 37.09375 12.359375 
C 37.5 19.578125 31.796875 24.203125 26.90625 25.90625 
C 21.40625 28.015625 13.90625 27.3125 10.09375 31.53125 
C 8.09375 33.84375 8 37.265625 9.90625 39.671875 
C 13.90625 45.296875 26.796875 42.875 31.90625 40.375 
C 32.703125 39.96875 33.40625 39.46875 34.296875 39.265625 
L 35.203125 44.6875 
C 30.5 46.796875 26.40625 48 19.90625 48 
C 14.296875 48 9.203125 46.703125 6 43.484375 
C 2.796875 40.171875 1.703125 34.640625 3.59375 30.4375 
C 5.40625 26.40625 9.203125 23.796875 13.296875 22.5 
C 19.203125 20.390625 25.90625 21.390625 29.796875 16.578125 
C 32 13.765625 31.59375 9.546875 29.09375 7.03125 
C 24.296875 2.609375 14.09375 4.21875 8.5 6.625 
C 6.59375 7.4375 4.90625 8.640625 3.09375 9.640625 
" id="Computer_Modern_Bright-115"/>
      <path d="M 10.796875 60.5 
L 10.796875 47.015625 
L 1.09375 47.015625 
L 1.09375 42 
L 10.703125 42 
L 10.703125 15.015625 
C 10.703125 10.578125 10.40625 5.234375 13.296875 1.515625 
C 15 -0.703125 17.296875 -1.296875 20.796875 -1 
C 23.703125 -1 26.59375 -0.390625 29.296875 0.65625 
C 30.203125 1.0625 33.5 2.515625 33.90625 3.234375 
C 34.09375 3.640625 32.796875 8.09375 32.796875 8.09375 
L 30.40625 6.265625 
C 27.296875 4.34375 21.09375 2.328125 18.5 5.96875 
C 16.203125 9.09375 16.796875 13.75 16.796875 17.375 
L 16.796875 42 
L 32.296875 42 
L 32.296875 47.015625 
L 16.796875 47.015625 
L 16.796875 60.5 
z
" id="Computer_Modern_Bright-116"/>
      <path d="M 7.90625 39.015625 
C 9.59375 39.859375 11 41.09375 12.703125 41.921875 
C 15.40625 43.15625 18.203125 44 21.203125 44 
C 22.59375 44.09375 24.203125 44.296875 25.59375 44 
C 28.09375 43.59375 30.296875 42.078125 31.796875 39.953125 
C 33.296875 37.515625 33.90625 35.390625 33.90625 31.46875 
L 33.90625 27.015625 
C 29.09375 27.015625 24.296875 26.609375 19.703125 25.390625 
C 13.90625 24.078125 7.59375 21.125 5.5 15.84375 
C 3.40625 10.78125 5.59375 4.078125 10.09375 1.03125 
C 12.296875 -0.5 14.90625 -0.5 17.5 -0.296875 
C 21.703125 0 25.90625 1.015625 29.5 3.25 
C 31.203125 4.25 32.90625 5.578125 33.90625 7.296875 
L 34 7.296875 
L 34 0.203125 
L 40.296875 0.203125 
L 40.296875 26.890625 
C 40.296875 29.8125 40.59375 32.953125 40 35.890625 
C 39.40625 39.921875 36.90625 43.265625 34 45.59375 
C 30.59375 48.21875 26.703125 49.109375 21.5 48.71875 
C 16.703125 48.71875 13 47.5 9.40625 45.765625 
C 8.90625 45.5625 7.90625 45.234375 7.59375 44.640625 
C 7.296875 44.21875 7.5 43.515625 7.5 43 
C 7.703125 41.671875 7.796875 40.34375 7.90625 39.015625 
M 33.90625 24 
L 33.90625 16.375 
C 33.90625 14.0625 34 11.953125 32.703125 9.953125 
C 31.59375 8.34375 30.09375 7.234375 28.5 6.4375 
C 22.796875 3.515625 14.09375 4.421875 11.59375 9.25 
C 9.59375 12.75 11.703125 16.875 14.59375 19.1875 
C 18.90625 22.5 27.296875 24 33.90625 24 
" id="Computer_Modern_Bright-97"/>
      <path d="M 60.5 10.875 
C 58.5 9.859375 56.703125 8.453125 54.703125 7.453125 
C 50 5.046875 44 4.140625 37.5 4.734375 
C 31.703125 5.546875 26.90625 8.359375 23.40625 11.875 
C 12.203125 23.15625 11.40625 42.96875 21.296875 55.34375 
C 25.5 60.875 31.90625 65 41.296875 65 
C 45.09375 65 49 64.296875 52.5 62.890625 
C 54.59375 61.96875 56.59375 60.765625 58.59375 59.765625 
L 59.796875 66.8125 
C 57.59375 67.671875 55.296875 68.5625 53 69.09375 
C 47.40625 70.625 38.90625 70.625 33.09375 69.21875 
C 22.90625 66.921875 15.5 59.828125 11.296875 51.625 
C 5.5 40.015625 6.203125 25.515625 13.203125 14.59375 
C 15 11.703125 17.296875 9.109375 19.90625 6.890625 
C 25.90625 1.6875 33.296875 -1.3125 43.59375 -0.5 
C 49.796875 -0.5 53.40625 0.515625 58.203125 3.203125 
C 58.703125 3.5 60.59375 4.515625 60.90625 4.9375 
C 61.09375 5.4375 60.59375 9.53125 60.5 10.875 
" id="Computer_Modern_Bright-67"/>
      <path d="M 10.703125 42.078125 
C 1.796875 33.234375 0.796875 17.875 8.5 7.9375 
C 9.59375 6.421875 10.90625 5.125 12.40625 4.015625 
C 16.09375 1 21.5 -1.203125 27.796875 -0.5 
C 37.796875 0.703125 44.703125 8.84375 46.796875 17.375 
C 49.59375 29.328125 43.703125 42.671875 32.703125 46.890625 
C 24.09375 50.40625 15.5 46.890625 10.703125 42.078125 
M 35.703125 39.359375 
C 40.5 35.03125 41.40625 28.109375 41 21.984375 
C 40.703125 17.265625 39.40625 12.34375 36.09375 8.828125 
C 30.703125 3 20.703125 3 14.90625 8.625 
C 11.90625 11.84375 10.09375 16.453125 9.796875 21.984375 
C 9.296875 30.109375 11.296875 38.75 19.296875 41.96875 
C 25.203125 44.578125 32 42.671875 35.703125 39.359375 
" id="Computer_Modern_Bright-111"/>
      <path d="M 41.796875 10.9375 
C 39.5 9.234375 38.796875 8.328125 35.90625 6.8125 
C 29.796875 3.5 22.59375 3.5 17.40625 7.171875 
C 12.40625 10.765625 9.5 16.640625 9.5 25 
L 42.5 25 
C 42.5 32.421875 40.796875 38.859375 36.59375 43.375 
C 32 47.890625 24.796875 49.296875 18.703125 47.390625 
C 16.40625 46.6875 14.296875 45.484375 12.40625 43.96875 
C 6.09375 38.859375 3.40625 30.71875 3.5 22.78125 
C 3.703125 12.34375 10.796875 1.90625 21.296875 -0.3125 
C 26.796875 -1.421875 32.59375 -0.203125 37.5 2.296875 
C 38.40625 2.796875 41.703125 4.609375 42.09375 5.515625 
C 42.40625 6.015625 41.796875 10.9375 41.796875 10.9375 
M 37.203125 28.90625 
L 10 28.90625 
C 11.203125 36.234375 17.203125 43.96875 25.296875 43.0625 
C 31.90625 42.46875 35.40625 37.75 36.703125 31.828125 
C 36.90625 30.8125 37 29.921875 37.203125 28.90625 
" id="Computer_Modern_Bright-101"/>
      <path d="M 10.59375 47.015625 
L 2 47.015625 
L 2 42 
L 10.59375 42 
L 10.59375 0 
L 16.90625 0 
L 16.90625 42 
L 30.09375 42 
L 30.09375 47.015625 
L 16.796875 47.015625 
L 16.796875 56.234375 
C 16.796875 57.890625 16.59375 59.65625 17.296875 61.21875 
C 19.5 65.875 25.40625 65.875 29.59375 65.078125 
C 30.59375 64.875 31.703125 64.46875 32.703125 64.265625 
L 32.703125 69.90625 
C 27.703125 70.609375 22.296875 71.21875 17.703125 68.46875 
C 15.796875 67.4375 14.203125 65.6875 13 63.921875 
C 11.09375 60.9375 10.59375 58.78125 10.59375 53.71875 
z
M 38.09375 0 
L 44.40625 0 
L 44.40625 42 
L 57.59375 42 
L 57.59375 47.015625 
L 44.296875 47.015625 
L 44.296875 55.234375 
C 44.296875 56.890625 44.09375 58.65625 44.40625 60.328125 
C 44.90625 62.296875 46.09375 63.65625 47.703125 64.671875 
C 50.796875 66.171875 54.40625 65.078125 57.59375 64.171875 
L 57.59375 70 
C 55.09375 70.1875 52.703125 70.6875 50.203125 70.5 
C 43.40625 70 38.59375 64.046875 38.09375 57.3125 
C 38 55.890625 38.09375 54.375 38.09375 52.96875 
z
M 65.59375 70 
L 65.59375 63.671875 
L 71.90625 63.671875 
L 71.90625 70 
z
M 65.59375 47.390625 
L 65.59375 0 
L 71.90625 0 
L 71.90625 47.390625 
z
" id="Computer_Modern_Bright-14"/>
      <path d="M 42.40625 11.25 
C 40.5 9.84375 38.796875 8.328125 36.703125 7.125 
C 32 4.625 24.796875 3.421875 19.40625 5.921875 
C 11.59375 9.9375 9.5 19.6875 10.59375 27.71875 
C 10.796875 29.328125 11.09375 30.921875 11.59375 32.4375 
C 13.796875 38.96875 19.296875 44.078125 28.296875 43.078125 
C 33.09375 42.671875 35.5 41.875 39.296875 39.765625 
C 40 39.359375 40.59375 38.859375 41.40625 38.65625 
C 41.5 39.859375 41.796875 41.171875 42 42.375 
C 42.296875 43.984375 42.296875 44.1875 40.796875 44.890625 
C 39.703125 45.390625 38.59375 45.984375 37.40625 46.390625 
C 32.796875 48.40625 25.203125 49 20 47.5 
C 12.90625 45.484375 7.59375 39.359375 5.296875 32.53125 
C 4.203125 29.421875 3.90625 26.109375 3.90625 22.796875 
C 4 12.25 11.203125 1.90625 21.703125 -0.203125 
C 27.5 -1.40625 34.203125 0.296875 38.203125 2.40625 
C 39.203125 2.90625 42.203125 4.71875 42.703125 5.625 
C 43 6.125 42.40625 11.25 42.40625 11.25 
" id="Computer_Modern_Bright-99"/>
      <path d="M 12.59375 37.28125 
L 12.5 37.28125 
L 12.5 47.390625 
L 6.40625 47.390625 
L 6.40625 0 
L 12.796875 0 
L 12.796875 21.9375 
C 12.796875 26.84375 12.5 31.875 14.703125 36.46875 
C 15.796875 38.78125 17.5 40.78125 19.796875 41.984375 
C 21.703125 42.890625 23.703125 42.890625 25.796875 42.6875 
C 28.796875 42.6875 31.703125 41.890625 33.59375 39.375 
C 35.40625 37.0625 35.5 34.0625 35.5 31.25 
L 35.5 0 
L 41.90625 0 
L 41.90625 26.859375 
C 41.90625 31.875 42.40625 37.375 40 41.890625 
C 38.09375 45.5 34.40625 47.203125 30.5 47.703125 
C 28.5 48 26.40625 48 24.40625 47.609375 
C 19.203125 46.5 14.40625 42.296875 12.59375 37.28125 
" id="Computer_Modern_Bright-110"/>
     </defs>
     <g style="fill:#262626;" transform="translate(209.391423 343.359582)scale(0.18 -0.18)">
      <use transform="scale(0.996264)" xlink:href="#Computer_Modern_Bright-69"/>
      <use transform="translate(58.737787 0)scale(0.996264)" xlink:href="#Computer_Modern_Bright-112"/>
      <use transform="translate(106.890284 0)scale(0.996264)" xlink:href="#Computer_Modern_Bright-105"/>
      <use transform="translate(125.985243 0)scale(0.996264)" xlink:href="#Computer_Modern_Bright-115"/>
      <use transform="translate(164.424272 0)scale(0.996264)" xlink:href="#Computer_Modern_Bright-116"/>
      <use transform="translate(200.53866 0)scale(0.996264)" xlink:href="#Computer_Modern_Bright-97"/>
      <use transform="translate(247.030742 0)scale(0.996264)" xlink:href="#Computer_Modern_Bright-115"/>
      <use transform="translate(285.469772 0)scale(0.996264)" xlink:href="#Computer_Modern_Bright-105"/>
      <use transform="translate(304.56473 0)scale(0.996264)" xlink:href="#Computer_Modern_Bright-115"/>
      <use transform="translate(374.468971 0)scale(0.996264)" xlink:href="#Computer_Modern_Bright-67"/>
      <use transform="translate(439.641004 0)scale(0.996264)" xlink:href="#Computer_Modern_Bright-111"/>
      <use transform="translate(490.284222 0)scale(0.996264)" xlink:href="#Computer_Modern_Bright-101"/>
      <use transform="translate(535.115889 0)scale(0.996264)" xlink:href="#Computer_Modern_Bright-14"/>
      <use transform="translate(613.156322 0)scale(0.996264)" xlink:href="#Computer_Modern_Bright-99"/>
      <use transform="translate(657.987989 0)scale(0.996264)" xlink:href="#Computer_Modern_Bright-105"/>
      <use transform="translate(677.082948 0)scale(0.996264)" xlink:href="#Computer_Modern_Bright-101"/>
      <use transform="translate(721.914616 0)scale(0.996264)" xlink:href="#Computer_Modern_Bright-110"/>
      <use transform="translate(770.067113 0)scale(0.996264)" xlink:href="#Computer_Modern_Bright-116"/>
     </g>
    </g>
   </g>
   <g id="matplotlib.axis_2">
    <g id="ytick_1">
     <g id="line2d_7"/>
     <g id="text_8">
      <!-- $0$ -->
      <g style="fill:#262626;" transform="translate(43.379163 298.124802)scale(0.16 -0.16)">
       <use transform="scale(0.996264)" xlink:href="#Computer_Modern_Bright-48"/>
      </g>
     </g>
    </g>
    <g id="ytick_2">
     <g id="line2d_8"/>
     <g id="text_9">
      <!-- $20$ -->
      <g style="fill:#262626;" transform="translate(35.010613 247.051654)scale(0.16 -0.16)">
       <use transform="scale(0.996264)" xlink:href="#Computer_Modern_Bright-50"/>
       <use transform="translate(50.643218 0)scale(0.996264)" xlink:href="#Computer_Modern_Bright-48"/>
      </g>
     </g>
    </g>
    <g id="ytick_3">
     <g id="line2d_9"/>
     <g id="text_10">
      <!-- $40$ -->
      <g style="fill:#262626;" transform="translate(35.010613 195.978506)scale(0.16 -0.16)">
       <use transform="scale(0.996264)" xlink:href="#Computer_Modern_Bright-52"/>
       <use transform="translate(50.643218 0)scale(0.996264)" xlink:href="#Computer_Modern_Bright-48"/>
      </g>
     </g>
    </g>
    <g id="ytick_4">
     <g id="line2d_10"/>
     <g id="text_11">
      <!-- $60$ -->
      <g style="fill:#262626;" transform="translate(35.010613 144.905358)scale(0.16 -0.16)">
       <use transform="scale(0.996264)" xlink:href="#Computer_Modern_Bright-54"/>
       <use transform="translate(50.643218 0)scale(0.996264)" xlink:href="#Computer_Modern_Bright-48"/>
      </g>
     </g>
    </g>
    <g id="ytick_5">
     <g id="line2d_11"/>
     <g id="text_12">
      <!-- $80$ -->
      <g style="fill:#262626;" transform="translate(35.010613 93.83221)scale(0.16 -0.16)">
       <use transform="scale(0.996264)" xlink:href="#Computer_Modern_Bright-56"/>
       <use transform="translate(50.643218 0)scale(0.996264)" xlink:href="#Computer_Modern_Bright-48"/>
      </g>
     </g>
    </g>
    <g id="ytick_6">
     <g id="line2d_12"/>
     <g id="text_13">
      <!-- $100$ -->
      <g style="fill:#262626;" transform="translate(26.642062 42.759062)scale(0.16 -0.16)">
       <use transform="scale(0.996264)" xlink:href="#Computer_Modern_Bright-49"/>
       <use transform="translate(50.643218 0)scale(0.996264)" xlink:href="#Computer_Modern_Bright-48"/>
       <use transform="translate(101.286436 0)scale(0.996264)" xlink:href="#Computer_Modern_Bright-48"/>
      </g>
     </g>
    </g>
    <g id="text_14">
     <!-- Probability Density -->
     <defs>
      <path d="M 8 70 
L 8 0.5 
L 15 0.5 
L 15 30 
L 29.09375 30 
C 31.296875 30 33.5 30 35.59375 30 
C 43 30.609375 49.203125 33.640625 53.40625 38.171875 
C 57.703125 42.90625 59.59375 50.15625 56.796875 56.296875 
C 53.59375 64.046875 46 68.984375 36.296875 70 
C 33.40625 70 30.40625 70 27.5 70 
z
M 14.90625 35.21875 
L 14.90625 64.671875 
L 28.59375 64.671875 
C 37.296875 64.671875 45.203125 63.671875 49.203125 57.65625 
C 51.90625 53.625 52.296875 48 50.09375 43.671875 
C 48.90625 41.34375 47.09375 39.546875 44.90625 38.234375 
C 40 35.21875 34.296875 35.21875 28.796875 35.21875 
z
" id="Computer_Modern_Bright-80"/>
      <path d="M 12.5 34.75 
L 12.40625 34.75 
L 12.40625 47.390625 
L 6.40625 47.390625 
L 6.40625 0 
L 12.703125 0 
L 12.703125 22.890625 
C 12.703125 24.40625 12.703125 25.90625 12.90625 27.40625 
C 14.296875 35.953125 21.703125 42.28125 31.40625 42.28125 
L 31.40625 48 
C 25 48 19.09375 44.890625 15.296875 39.765625 
C 14.203125 38.265625 13 36.546875 12.5 34.75 
" id="Computer_Modern_Bright-114"/>
      <path d="M 6.40625 69.6875 
L 6.40625 0 
L 12.796875 0 
L 12.796875 6.328125 
L 12.90625 6.328125 
C 14 4.109375 16.5 2.015625 18.59375 0.90625 
C 25.796875 -2.90625 34.40625 0.90625 39.09375 7.03125 
C 48.59375 19.578125 44.796875 40.875 32.296875 46.796875 
C 27.40625 49 21.5 48 17.09375 44.984375 
C 15.40625 43.78125 14 42.375 12.703125 40.765625 
L 12.703125 69.6875 
z
M 21.90625 42.984375 
C 26.59375 43.375 31.5 41.265625 34.296875 37.453125 
C 36.203125 34.9375 37.203125 31.9375 37.703125 28.8125 
C 38.703125 21.484375 37.90625 12.25 31.40625 7.4375 
C 30.296875 6.625 29.09375 6.03125 27.796875 5.515625 
C 22.40625 3.515625 17 4.109375 14 8.84375 
C 13.09375 10.4375 12.796875 10.546875 12.796875 12.953125 
L 12.796875 33.734375 
C 12.796875 34.75 12.59375 35.953125 13 36.859375 
C 14.59375 40.171875 18.296875 42.671875 21.90625 42.984375 
" id="Computer_Modern_Bright-98"/>
      <path d="M 6.40625 69.6875 
L 6.40625 0 
L 12.703125 0 
L 12.703125 69.6875 
z
" id="Computer_Modern_Bright-108"/>
      <path d="M 0.703125 47.65625 
C 1.296875 45.75 5.40625 35.609375 5.5 35.3125 
L 17.40625 4.578125 
L 18.40625 2.078125 
C 19 0.671875 19.203125 0.46875 18.59375 -1.140625 
L 17.5 -4.046875 
C 16.59375 -6.46875 15.59375 -8.96875 13.703125 -10.484375 
C 10.296875 -13.296875 4.90625 -11.6875 0.796875 -10.78125 
L 1.296875 -16.5 
C 3.203125 -16.796875 5.09375 -17 7 -17 
C 11.296875 -17.515625 14.09375 -16.5 16.703125 -14.296875 
C 20 -11.484375 21.59375 -7.5625 23.09375 -3.546875 
L 26.203125 5.078125 
L 36.40625 32.90625 
C 38.09375 37.921875 40.203125 42.640625 41.796875 47.65625 
L 37.296875 47.65625 
C 36.796875 47.65625 36 47.859375 35.59375 47.46875 
C 35.40625 47.15625 35.296875 46.765625 35.203125 46.453125 
L 34.40625 44.34375 
C 33.40625 41.734375 32.5 39.234375 31.59375 36.609375 
L 25.796875 20.25 
C 24.296875 15.828125 22.59375 11.3125 21.796875 6.6875 
C 20.703125 11.3125 19.203125 15.734375 17.59375 20.140625 
C 16.296875 23.5625 8.5 44.546875 7.5 46.5625 
C 7.09375 47.65625 6.703125 47.65625 5.203125 47.65625 
z
" id="Computer_Modern_Bright-121"/>
      <path d="M 8 70 
L 8 0 
L 28.203125 0 
C 31.40625 0 34.59375 0 37.703125 0.296875 
C 45.703125 1.109375 52.59375 5.015625 57.203125 9.828125 
C 70.09375 23.171875 70 46.125 57.296875 59.671875 
C 52.703125 64.578125 46.5 68.5 38.703125 69.5 
C 34.90625 70 31 70 27.203125 70 
z
M 14.90625 5.3125 
L 14.90625 64.5625 
L 27.796875 64.5625 
C 30.5 64.5625 33.203125 64.5625 35.90625 64.359375 
C 40.40625 63.859375 44.796875 62.359375 48.5 59.734375 
C 56.59375 54.125 60 44.171875 60 34.640625 
C 60 26.609375 57.796875 18.375 51.90625 12.640625 
C 47.90625 8.9375 42.5 6.21875 36 5.515625 
C 33.40625 5.3125 30.703125 5.3125 28.09375 5.3125 
z
" id="Computer_Modern_Bright-68"/>
     </defs>
     <g style="fill:#262626;" transform="translate(19.65327 224.213938)rotate(-90)scale(0.18 -0.18)">
      <use transform="scale(0.996264)" xlink:href="#Computer_Modern_Bright-80"/>
      <use transform="translate(62.888907 0)scale(0.996264)" xlink:href="#Computer_Modern_Bright-114"/>
      <use transform="translate(94.852266 0)scale(0.996264)" xlink:href="#Computer_Modern_Bright-111"/>
      <use transform="translate(145.495484 0)scale(0.996264)" xlink:href="#Computer_Modern_Bright-98"/>
      <use transform="translate(193.647981 0)scale(0.996264)" xlink:href="#Computer_Modern_Bright-97"/>
      <use transform="translate(240.140063 0)scale(0.996264)" xlink:href="#Computer_Modern_Bright-98"/>
      <use transform="translate(288.29256 0)scale(0.996264)" xlink:href="#Computer_Modern_Bright-105"/>
      <use transform="translate(307.387519 0)scale(0.996264)" xlink:href="#Computer_Modern_Bright-108"/>
      <use transform="translate(326.482478 0)scale(0.996264)" xlink:href="#Computer_Modern_Bright-105"/>
      <use transform="translate(345.577437 0)scale(0.996264)" xlink:href="#Computer_Modern_Bright-116"/>
      <use transform="translate(378.786095 0)scale(0.996264)" xlink:href="#Computer_Modern_Bright-121"/>
      <use transform="translate(452.592345 0)scale(0.996264)" xlink:href="#Computer_Modern_Bright-68"/>
      <use transform="translate(524.198532 0)scale(0.996264)" xlink:href="#Computer_Modern_Bright-101"/>
      <use transform="translate(569.030199 0)scale(0.996264)" xlink:href="#Computer_Modern_Bright-110"/>
      <use transform="translate(617.182696 0)scale(0.996264)" xlink:href="#Computer_Modern_Bright-115"/>
      <use transform="translate(655.621726 0)scale(0.996264)" xlink:href="#Computer_Modern_Bright-105"/>
      <use transform="translate(674.716684 0)scale(0.996264)" xlink:href="#Computer_Modern_Bright-116"/>
      <use transform="translate(707.925343 0)scale(0.996264)" xlink:href="#Computer_Modern_Bright-121"/>
     </g>
    </g>
   </g>
   <g id="PolyCollection_1">
    <path clip-path="url(#pd9577df852)" d="M 299.824127 292.582292 
L 299.824127 292.59 
L 300.067767 292.59 
L 300.311407 292.59 
L 300.555047 292.59 
L 300.798686 292.59 
L 301.042326 292.59 
L 301.285966 292.59 
L 301.529605 292.59 
L 301.773245 292.59 
L 302.016885 292.59 
L 302.260524 292.59 
L 302.504164 292.59 
L 302.747804 292.59 
L 302.991444 292.59 
L 303.235083 292.59 
L 303.478723 292.59 
L 303.722363 292.59 
L 303.966002 292.59 
L 304.209642 292.59 
L 304.453282 292.59 
L 304.696921 292.59 
L 304.940561 292.59 
L 305.184201 292.59 
L 305.427841 292.59 
L 305.67148 292.59 
L 305.91512 292.59 
L 306.15876 292.59 
L 306.402399 292.59 
L 306.646039 292.59 
L 306.889679 292.59 
L 307.133319 292.59 
L 307.376958 292.59 
L 307.620598 292.59 
L 307.864238 292.59 
L 308.107877 292.59 
L 308.351517 292.59 
L 308.595157 292.59 
L 308.838796 292.59 
L 309.082436 292.59 
L 309.326076 292.59 
L 309.569716 292.59 
L 309.813355 292.59 
L 310.056995 292.59 
L 310.300635 292.59 
L 310.544274 292.59 
L 310.787914 292.59 
L 311.031554 292.59 
L 311.275193 292.59 
L 311.518833 292.59 
L 311.762473 292.59 
L 312.006113 292.59 
L 312.249752 292.59 
L 312.493392 292.59 
L 312.737032 292.59 
L 312.980671 292.59 
L 313.224311 292.59 
L 313.467951 292.59 
L 313.71159 292.59 
L 313.95523 292.59 
L 314.19887 292.59 
L 314.44251 292.59 
L 314.686149 292.59 
L 314.929789 292.59 
L 315.173429 292.59 
L 315.417068 292.59 
L 315.660708 292.59 
L 315.904348 292.59 
L 316.147987 292.59 
L 316.391627 292.59 
L 316.635267 292.59 
L 316.878907 292.59 
L 317.122546 292.59 
L 317.366186 292.59 
L 317.609826 292.59 
L 317.853465 292.59 
L 318.097105 292.59 
L 318.340745 292.59 
L 318.584385 292.59 
L 318.828024 292.59 
L 319.071664 292.59 
L 319.315304 292.59 
L 319.558943 292.59 
L 319.802583 292.59 
L 320.046223 292.59 
L 320.289862 292.59 
L 320.533502 292.59 
L 320.777142 292.59 
L 321.020782 292.59 
L 321.264421 292.59 
L 321.508061 292.59 
L 321.751701 292.59 
L 321.99534 292.59 
L 322.23898 292.59 
L 322.48262 292.59 
L 322.726259 292.59 
L 322.969899 292.59 
L 323.213539 292.59 
L 323.457179 292.59 
L 323.700818 292.59 
L 323.944458 292.59 
L 324.188098 292.59 
L 324.431737 292.59 
L 324.675377 292.59 
L 324.919017 292.59 
L 325.162656 292.59 
L 325.406296 292.59 
L 325.649936 292.59 
L 325.893576 292.59 
L 326.137215 292.59 
L 326.380855 292.59 
L 326.624495 292.59 
L 326.868134 292.59 
L 327.111774 292.59 
L 327.355414 292.59 
L 327.599054 292.59 
L 327.842693 292.59 
L 328.086333 292.59 
L 328.329973 292.59 
L 328.573612 292.59 
L 328.817252 292.59 
L 329.060892 292.59 
L 329.304531 292.59 
L 329.548171 292.59 
L 329.791811 292.59 
L 330.035451 292.59 
L 330.27909 292.59 
L 330.52273 292.59 
L 330.76637 292.59 
L 330.76637 292.581053 
L 330.76637 292.581053 
L 330.52273 292.575526 
L 330.27909 292.56413 
L 330.035451 292.544241 
L 329.791811 292.512346 
L 329.548171 292.464467 
L 329.304531 292.396891 
L 329.060892 292.307159 
L 328.817252 292.195077 
L 328.573612 292.063371 
L 328.329973 291.917589 
L 328.086333 291.764993 
L 327.842693 291.612489 
L 327.599054 291.464078 
L 327.355414 291.318589 
L 327.111774 291.168546 
L 326.868134 291.000744 
L 326.624495 290.79864 
L 326.380855 290.546048 
L 326.137215 290.231197 
L 325.893576 289.85 
L 325.649936 289.407526 
L 325.406296 288.917034 
L 325.162656 288.396488 
L 324.919017 287.863027 
L 324.675377 287.326428 
L 324.431737 286.782993 
L 324.188098 286.211494 
L 323.944458 285.572617 
L 323.700818 284.812766 
L 323.457179 283.872086 
L 323.213539 282.695507 
L 322.969899 281.244658 
L 322.726259 279.508125 
L 322.48262 277.507679 
L 322.23898 275.29874 
L 321.99534 272.964334 
L 321.751701 270.602907 
L 321.508061 268.311706 
L 321.264421 266.168692 
L 321.020782 264.216988 
L 320.777142 262.455916 
L 320.533502 260.841505 
L 320.289862 259.296779 
L 320.046223 257.729061 
L 319.802583 256.049079 
L 319.558943 254.186009 
L 319.315304 252.094245 
L 319.071664 249.750973 
L 318.828024 247.1473 
L 318.584385 244.278027 
L 318.340745 241.135344 
L 318.097105 237.709716 
L 317.853465 233.9981 
L 317.609826 230.01666 
L 317.366186 225.813377 
L 317.122546 221.475779 
L 316.878907 217.130229 
L 316.635267 212.931476 
L 316.391627 209.043877 
L 316.147987 205.618365 
L 315.904348 202.770894 
L 315.660708 200.568075 
L 315.417068 199.023535 
L 315.173429 198.104907 
L 314.929789 197.747678 
L 314.686149 197.870096 
L 314.44251 198.384016 
L 314.19887 199.199623 
L 313.95523 200.225815 
L 313.71159 201.3707 
L 313.467951 202.54675 
L 313.224311 203.682487 
L 312.980671 204.738537 
L 312.737032 205.722341 
L 312.493392 206.694669 
L 312.249752 207.763018 
L 312.006113 209.061364 
L 311.762473 210.720865 
L 311.518833 212.839739 
L 311.275193 215.461208 
L 311.031554 218.565751 
L 310.787914 222.079096 
L 310.544274 225.892324 
L 310.300635 229.887158 
L 310.056995 233.958838 
L 309.813355 238.030919 
L 309.569716 242.059646 
L 309.326076 246.028904 
L 309.082436 249.939052 
L 308.838796 253.793725 
L 308.595157 257.588271 
L 308.351517 261.302323 
L 308.107877 264.897657 
L 307.864238 268.321311 
L 307.620598 271.512925 
L 307.376958 274.414564 
L 307.133319 276.980777 
L 306.889679 279.186668 
L 306.646039 281.03226 
L 306.402399 282.542341 
L 306.15876 283.762168 
L 305.91512 284.750191 
L 305.67148 285.569465 
L 305.427841 286.279298 
L 305.184201 286.928413 
L 304.940561 287.550477 
L 304.696921 288.162478 
L 304.453282 288.766051 
L 304.209642 289.351336 
L 303.966002 289.902439 
L 303.722363 290.403146 
L 303.478723 290.84151 
L 303.235083 291.212334 
L 302.991444 291.517293 
L 302.747804 291.763201 
L 302.504164 291.959406 
L 302.260524 292.11537 
L 302.016885 292.239106 
L 301.773245 292.336678 
L 301.529605 292.41249 
L 301.285966 292.469929 
L 301.042326 292.51195 
L 300.798686 292.541379 
L 300.555047 292.560939 
L 300.311407 292.573084 
L 300.067767 292.579778 
L 299.824127 292.582292 
z
" style="fill:#33a02c;fill-opacity:0.25;"/>
   </g>
   <g id="PolyCollection_2">
    <path clip-path="url(#pd9577df852)" d="M 237.90513 292.582031 
L 237.90513 292.59 
L 238.105745 292.59 
L 238.306361 292.59 
L 238.506976 292.59 
L 238.707591 292.59 
L 238.908207 292.59 
L 239.108822 292.59 
L 239.309438 292.59 
L 239.510053 292.59 
L 239.710669 292.59 
L 239.911284 292.59 
L 240.1119 292.59 
L 240.312515 292.59 
L 240.51313 292.59 
L 240.713746 292.59 
L 240.914361 292.59 
L 241.114977 292.59 
L 241.315592 292.59 
L 241.516208 292.59 
L 241.716823 292.59 
L 241.917439 292.59 
L 242.118054 292.59 
L 242.31867 292.59 
L 242.519285 292.59 
L 242.7199 292.59 
L 242.920516 292.59 
L 243.121131 292.59 
L 243.321747 292.59 
L 243.522362 292.59 
L 243.722978 292.59 
L 243.923593 292.59 
L 244.124209 292.59 
L 244.324824 292.59 
L 244.525439 292.59 
L 244.726055 292.59 
L 244.92667 292.59 
L 245.127286 292.59 
L 245.327901 292.59 
L 245.528517 292.59 
L 245.729132 292.59 
L 245.929748 292.59 
L 246.130363 292.59 
L 246.330979 292.59 
L 246.531594 292.59 
L 246.732209 292.59 
L 246.932825 292.59 
L 247.13344 292.59 
L 247.334056 292.59 
L 247.534671 292.59 
L 247.735287 292.59 
L 247.935902 292.59 
L 248.136518 292.59 
L 248.337133 292.59 
L 248.537748 292.59 
L 248.738364 292.59 
L 248.938979 292.59 
L 249.139595 292.59 
L 249.34021 292.59 
L 249.540826 292.59 
L 249.741441 292.59 
L 249.942057 292.59 
L 250.142672 292.59 
L 250.343288 292.59 
L 250.543903 292.59 
L 250.744518 292.59 
L 250.945134 292.59 
L 251.145749 292.59 
L 251.346365 292.59 
L 251.54698 292.59 
L 251.747596 292.59 
L 251.948211 292.59 
L 252.148827 292.59 
L 252.349442 292.59 
L 252.550057 292.59 
L 252.750673 292.59 
L 252.951288 292.59 
L 253.151904 292.59 
L 253.352519 292.59 
L 253.553135 292.59 
L 253.75375 292.59 
L 253.954366 292.59 
L 254.154981 292.59 
L 254.355597 292.59 
L 254.556212 292.59 
L 254.756827 292.59 
L 254.957443 292.59 
L 255.158058 292.59 
L 255.358674 292.59 
L 255.559289 292.59 
L 255.759905 292.59 
L 255.96052 292.59 
L 256.161136 292.59 
L 256.361751 292.59 
L 256.562366 292.59 
L 256.762982 292.59 
L 256.963597 292.59 
L 257.164213 292.59 
L 257.364828 292.59 
L 257.565444 292.59 
L 257.766059 292.59 
L 257.966675 292.59 
L 258.16729 292.59 
L 258.367906 292.59 
L 258.568521 292.59 
L 258.769136 292.59 
L 258.969752 292.59 
L 259.170367 292.59 
L 259.370983 292.59 
L 259.571598 292.59 
L 259.772214 292.59 
L 259.972829 292.59 
L 260.173445 292.59 
L 260.37406 292.59 
L 260.574675 292.59 
L 260.775291 292.59 
L 260.975906 292.59 
L 261.176522 292.59 
L 261.377137 292.59 
L 261.577753 292.59 
L 261.778368 292.59 
L 261.978984 292.59 
L 262.179599 292.59 
L 262.380215 292.59 
L 262.58083 292.59 
L 262.781445 292.59 
L 262.982061 292.59 
L 263.182676 292.59 
L 263.383292 292.59 
L 263.383292 292.582153 
L 263.383292 292.582153 
L 263.182676 292.579008 
L 262.982061 292.571989 
L 262.781445 292.559867 
L 262.58083 292.540923 
L 262.380215 292.513143 
L 262.179599 292.474487 
L 261.978984 292.423153 
L 261.778368 292.357729 
L 261.577753 292.277095 
L 261.377137 292.179961 
L 261.176522 292.064058 
L 260.975906 291.925102 
L 260.775291 291.755837 
L 260.574675 291.54547 
L 260.37406 291.279745 
L 260.173445 290.941749 
L 259.972829 290.513314 
L 259.772214 289.976794 
L 259.571598 289.316958 
L 259.370983 288.522839 
L 259.170367 287.589361 
L 258.969752 286.518522 
L 258.769136 285.31969 
L 258.568521 284.00844 
L 258.367906 282.603549 
L 258.16729 281.122292 
L 257.966675 279.575086 
L 257.766059 277.961292 
L 257.565444 276.26815 
L 257.364828 274.474084 
L 257.164213 272.555952 
L 256.963597 270.497994 
L 256.762982 268.298993 
L 256.562366 265.974408 
L 256.361751 263.551925 
L 256.161136 261.061545 
L 255.96052 258.523636 
L 255.759905 255.939365 
L 255.559289 253.287078 
L 255.358674 250.525957 
L 255.158058 247.605645 
L 254.957443 244.478691 
L 254.756827 241.112154 
L 254.556212 237.495559 
L 254.355597 233.643912 
L 254.154981 229.596028 
L 253.954366 225.409378 
L 253.75375 221.153081 
L 253.553135 216.90054 
L 253.352519 212.722956 
L 253.151904 208.684633 
L 252.951288 204.840616 
L 252.750673 201.236762 
L 252.550057 197.911799 
L 252.349442 194.90037 
L 252.148827 192.235694 
L 251.948211 189.950509 
L 251.747596 188.075447 
L 251.54698 186.634949 
L 251.346365 185.641874 
L 251.145749 185.092793 
L 250.945134 184.966099 
L 250.744518 185.224291 
L 250.543903 185.820325 
L 250.343288 186.706225 
L 250.142672 187.841081 
L 249.942057 189.195583 
L 249.741441 190.751611 
L 249.540826 192.497456 
L 249.34021 194.421112 
L 249.139595 196.504943 
L 248.938979 198.724334 
L 248.738364 201.051165 
L 248.537748 203.460817 
L 248.337133 205.939865 
L 248.136518 208.491232 
L 247.935902 211.134405 
L 247.735287 213.900029 
L 247.534671 216.820048 
L 247.334056 219.916138 
L 247.13344 223.189854 
L 246.932825 226.617557 
L 246.732209 230.151845 
L 246.531594 233.729223 
L 246.330979 237.281813 
L 246.130363 240.749714 
L 245.929748 244.090608 
L 245.729132 247.284337 
L 245.528517 250.331901 
L 245.327901 253.25002 
L 245.127286 256.063322 
L 244.92667 258.796328 
L 244.726055 261.46691 
L 244.525439 264.082111 
L 244.324824 266.636642 
L 244.124209 269.113947 
L 243.923593 271.48949 
L 243.722978 273.735616 
L 243.522362 275.827055 
L 243.321747 277.745911 
L 243.121131 279.484971 
L 242.920516 281.048564 
L 242.7199 282.450839 
L 242.519285 283.712026 
L 242.31867 284.853803 
L 242.118054 285.895042 
L 241.917439 286.848984 
L 241.716823 287.722368 
L 241.516208 288.516434 
L 241.315592 289.22919 
L 241.114977 289.858086 
L 240.914361 290.402262 
L 240.713746 290.863816 
L 240.51313 291.247965 
L 240.312515 291.562314 
L 240.1119 291.815707 
L 239.911284 292.017114 
L 239.710669 292.174866 
L 239.510053 292.296322 
L 239.309438 292.387873 
L 239.108822 292.45511 
L 238.908207 292.502973 
L 238.707591 292.535825 
L 238.506976 292.557429 
L 238.306361 292.570884 
L 238.105745 292.578552 
L 237.90513 292.582031 
z
" style="fill-opacity:0.25;"/>
   </g>
   <g id="PolyCollection_3">
    <path clip-path="url(#pd9577df852)" d="M 468.624193 292.576448 
L 468.624193 292.59 
L 468.752009 292.59 
L 468.879825 292.59 
L 469.00764 292.59 
L 469.135456 292.59 
L 469.263272 292.59 
L 469.391088 292.59 
L 469.518904 292.59 
L 469.64672 292.59 
L 469.774535 292.59 
L 469.902351 292.59 
L 470.030167 292.59 
L 470.157983 292.59 
L 470.285799 292.59 
L 470.413615 292.59 
L 470.54143 292.59 
L 470.669246 292.59 
L 470.797062 292.59 
L 470.924878 292.59 
L 471.052694 292.59 
L 471.18051 292.59 
L 471.308326 292.59 
L 471.436141 292.59 
L 471.563957 292.59 
L 471.691773 292.59 
L 471.819589 292.59 
L 471.947405 292.59 
L 472.075221 292.59 
L 472.203036 292.59 
L 472.330852 292.59 
L 472.458668 292.59 
L 472.586484 292.59 
L 472.7143 292.59 
L 472.842116 292.59 
L 472.969932 292.59 
L 473.097747 292.59 
L 473.225563 292.59 
L 473.353379 292.59 
L 473.481195 292.59 
L 473.609011 292.59 
L 473.736827 292.59 
L 473.864642 292.59 
L 473.992458 292.59 
L 474.120274 292.59 
L 474.24809 292.59 
L 474.375906 292.59 
L 474.503722 292.59 
L 474.631538 292.59 
L 474.759353 292.59 
L 474.887169 292.59 
L 475.014985 292.59 
L 475.142801 292.59 
L 475.270617 292.59 
L 475.398433 292.59 
L 475.526248 292.59 
L 475.654064 292.59 
L 475.78188 292.59 
L 475.909696 292.59 
L 476.037512 292.59 
L 476.165328 292.59 
L 476.293143 292.59 
L 476.420959 292.59 
L 476.548775 292.59 
L 476.676591 292.59 
L 476.804407 292.59 
L 476.932223 292.59 
L 477.060039 292.59 
L 477.187854 292.59 
L 477.31567 292.59 
L 477.443486 292.59 
L 477.571302 292.59 
L 477.699118 292.59 
L 477.826934 292.59 
L 477.954749 292.59 
L 478.082565 292.59 
L 478.210381 292.59 
L 478.338197 292.59 
L 478.466013 292.59 
L 478.593829 292.59 
L 478.721645 292.59 
L 478.84946 292.59 
L 478.977276 292.59 
L 479.105092 292.59 
L 479.232908 292.59 
L 479.360724 292.59 
L 479.48854 292.59 
L 479.616355 292.59 
L 479.744171 292.59 
L 479.871987 292.59 
L 479.999803 292.59 
L 480.127619 292.59 
L 480.255435 292.59 
L 480.38325 292.59 
L 480.511066 292.59 
L 480.638882 292.59 
L 480.766698 292.59 
L 480.894514 292.59 
L 481.02233 292.59 
L 481.150146 292.59 
L 481.277961 292.59 
L 481.405777 292.59 
L 481.533593 292.59 
L 481.661409 292.59 
L 481.789225 292.59 
L 481.917041 292.59 
L 482.044856 292.59 
L 482.172672 292.59 
L 482.300488 292.59 
L 482.428304 292.59 
L 482.55612 292.59 
L 482.683936 292.59 
L 482.811752 292.59 
L 482.939567 292.59 
L 483.067383 292.59 
L 483.195199 292.59 
L 483.323015 292.59 
L 483.450831 292.59 
L 483.578647 292.59 
L 483.706462 292.59 
L 483.834278 292.59 
L 483.962094 292.59 
L 484.08991 292.59 
L 484.217726 292.59 
L 484.345542 292.59 
L 484.473358 292.59 
L 484.601173 292.59 
L 484.728989 292.59 
L 484.856805 292.59 
L 484.856805 292.575973 
L 484.856805 292.575973 
L 484.728989 292.568257 
L 484.601173 292.551029 
L 484.473358 292.520012 
L 484.345542 292.469028 
L 484.217726 292.390359 
L 484.08991 292.275381 
L 483.962094 292.115373 
L 483.834278 291.902159 
L 483.706462 291.628228 
L 483.578647 291.286068 
L 483.450831 290.866847 
L 483.323015 290.358997 
L 483.195199 289.74753 
L 483.067383 289.014676 
L 482.939567 288.141805 
L 482.811752 287.111789 
L 482.683936 285.910608 
L 482.55612 284.527379 
L 482.428304 282.952939 
L 482.300488 281.178113 
L 482.172672 279.192986 
L 482.044856 276.987781 
L 481.917041 274.554727 
L 481.789225 271.889556 
L 481.661409 268.991491 
L 481.533593 265.86156 
L 481.405777 262.499788 
L 481.277961 258.901631 
L 481.150146 255.053213 
L 481.02233 250.924911 
L 480.894514 246.464734 
L 480.766698 241.596229 
L 480.638882 236.227892 
L 480.511066 230.27893 
L 480.38325 223.718643 
L 480.255435 216.606416 
L 480.127619 209.112471 
L 479.999803 201.50211 
L 479.871987 194.0795 
L 479.744171 187.105987 
L 479.616355 180.722721 
L 479.48854 174.909319 
L 479.360724 169.497195 
L 479.232908 164.233635 
L 479.105092 158.871653 
L 478.977276 153.251135 
L 478.84946 147.3427 
L 478.721645 141.243422 
L 478.593829 135.13409 
L 478.466013 129.221435 
L 478.338197 123.690517 
L 478.210381 118.68294 
L 478.082565 114.301929 
L 477.954749 110.632984 
L 477.826934 107.76414 
L 477.699118 105.793509 
L 477.571302 104.820339 
L 477.443486 104.924363 
L 477.31567 106.142915 
L 477.187854 108.455141 
L 477.060039 111.778836 
L 476.932223 115.980449 
L 476.804407 120.894554 
L 476.676591 126.346729 
L 476.548775 132.173676 
L 476.420959 138.236259 
L 476.293143 144.424119 
L 476.165328 150.653463 
L 476.037512 156.861277 
L 475.909696 162.999128 
L 475.78188 169.028563 
L 475.654064 174.918885 
L 475.526248 180.647602 
L 475.398433 186.203639 
L 475.270617 191.592603 
L 475.142801 196.841703 
L 475.014985 202.000387 
L 474.887169 207.133136 
L 474.759353 212.303911 
L 474.631538 217.556366 
L 474.503722 222.897275 
L 474.375906 228.290378 
L 474.24809 233.663557 
L 474.120274 238.926333 
L 473.992458 243.990205 
L 473.864642 248.783939 
L 473.736827 253.259347 
L 473.609011 257.388292 
L 473.481195 261.155563 
L 473.353379 264.55293 
L 473.225563 267.577285 
L 473.097747 270.232203 
L 472.969932 272.530089 
L 472.842116 274.492387 
L 472.7143 276.147604 
L 472.586484 277.529064 
L 472.458668 278.674624 
L 472.330852 279.628682 
L 472.203036 280.444243 
L 472.075221 281.181587 
L 471.947405 281.901421 
L 471.819589 282.65372 
L 471.691773 283.466625 
L 471.563957 284.340607 
L 471.436141 285.250985 
L 471.308326 286.157985 
L 471.18051 287.020096 
L 471.052694 287.805492 
L 470.924878 288.497891 
L 470.797062 289.096262 
L 470.669246 289.610325 
L 470.54143 290.054777 
L 470.413615 290.444478 
L 470.285799 290.791543 
L 470.157983 291.104148 
L 470.030167 291.386495 
L 469.902351 291.63949 
L 469.774535 291.861873 
L 469.64672 292.051653 
L 469.518904 292.20751 
L 469.391088 292.329831 
L 469.263272 292.421087 
L 469.135456 292.48553 
L 469.00764 292.528413 
L 468.879825 292.555049 
L 468.752009 292.569989 
L 468.624193 292.576448 
z
" style="fill:#ff7f00;fill-opacity:0.25;"/>
   </g>
   <g id="PolyCollection_4">
    <path clip-path="url(#pd9577df852)" d="M 283.533485 292.546508 
L 283.533485 292.59 
L 283.617453 292.59 
L 283.701421 292.59 
L 283.78539 292.59 
L 283.869358 292.59 
L 283.953326 292.59 
L 284.037295 292.59 
L 284.121263 292.59 
L 284.205231 292.59 
L 284.289199 292.59 
L 284.373168 292.59 
L 284.457136 292.59 
L 284.541104 292.59 
L 284.625073 292.59 
L 284.709041 292.59 
L 284.793009 292.59 
L 284.876978 292.59 
L 284.960946 292.59 
L 285.044914 292.59 
L 285.128883 292.59 
L 285.212851 292.59 
L 285.296819 292.59 
L 285.380788 292.59 
L 285.464756 292.59 
L 285.548724 292.59 
L 285.632692 292.59 
L 285.716661 292.59 
L 285.800629 292.59 
L 285.884597 292.59 
L 285.968566 292.59 
L 286.052534 292.59 
L 286.136502 292.59 
L 286.220471 292.59 
L 286.304439 292.59 
L 286.388407 292.59 
L 286.472376 292.59 
L 286.556344 292.59 
L 286.640312 292.59 
L 286.724281 292.59 
L 286.808249 292.59 
L 286.892217 292.59 
L 286.976186 292.59 
L 287.060154 292.59 
L 287.144122 292.59 
L 287.22809 292.59 
L 287.312059 292.59 
L 287.396027 292.59 
L 287.479995 292.59 
L 287.563964 292.59 
L 287.647932 292.59 
L 287.7319 292.59 
L 287.815869 292.59 
L 287.899837 292.59 
L 287.983805 292.59 
L 288.067774 292.59 
L 288.151742 292.59 
L 288.23571 292.59 
L 288.319679 292.59 
L 288.403647 292.59 
L 288.487615 292.59 
L 288.571584 292.59 
L 288.655552 292.59 
L 288.73952 292.59 
L 288.823488 292.59 
L 288.907457 292.59 
L 288.991425 292.59 
L 289.075393 292.59 
L 289.159362 292.59 
L 289.24333 292.59 
L 289.327298 292.59 
L 289.411267 292.59 
L 289.495235 292.59 
L 289.579203 292.59 
L 289.663172 292.59 
L 289.74714 292.59 
L 289.831108 292.59 
L 289.915077 292.59 
L 289.999045 292.59 
L 290.083013 292.59 
L 290.166982 292.59 
L 290.25095 292.59 
L 290.334918 292.59 
L 290.418886 292.59 
L 290.502855 292.59 
L 290.586823 292.59 
L 290.670791 292.59 
L 290.75476 292.59 
L 290.838728 292.59 
L 290.922696 292.59 
L 291.006665 292.59 
L 291.090633 292.59 
L 291.174601 292.59 
L 291.25857 292.59 
L 291.342538 292.59 
L 291.426506 292.59 
L 291.510475 292.59 
L 291.594443 292.59 
L 291.678411 292.59 
L 291.76238 292.59 
L 291.846348 292.59 
L 291.930316 292.59 
L 292.014284 292.59 
L 292.098253 292.59 
L 292.182221 292.59 
L 292.266189 292.59 
L 292.350158 292.59 
L 292.434126 292.59 
L 292.518094 292.59 
L 292.602063 292.59 
L 292.686031 292.59 
L 292.769999 292.59 
L 292.853968 292.59 
L 292.937936 292.59 
L 293.021904 292.59 
L 293.105873 292.59 
L 293.189841 292.59 
L 293.273809 292.59 
L 293.357778 292.59 
L 293.441746 292.59 
L 293.525714 292.59 
L 293.609682 292.59 
L 293.693651 292.59 
L 293.777619 292.59 
L 293.861587 292.59 
L 293.945556 292.59 
L 294.029524 292.59 
L 294.113492 292.59 
L 294.197461 292.59 
L 294.197461 292.544955 
L 294.197461 292.544955 
L 294.113492 292.52132 
L 294.029524 292.468939 
L 293.945556 292.375402 
L 293.861587 292.223093 
L 293.777619 291.990802 
L 293.693651 291.656771 
L 293.609682 291.203098 
L 293.525714 290.620721 
L 293.441746 289.913522 
L 293.357778 289.099794 
L 293.273809 288.209812 
L 293.189841 287.279461 
L 293.105873 286.341575 
L 293.021904 285.417953 
L 292.937936 284.515223 
L 292.853968 283.626514 
L 292.769999 282.738421 
L 292.686031 281.840166 
L 292.602063 280.930202 
L 292.518094 280.015884 
L 292.434126 279.104256 
L 292.350158 278.185843 
L 292.266189 277.217012 
L 292.182221 276.108345 
L 292.098253 274.725478 
L 292.014284 272.905014 
L 291.930316 270.482723 
L 291.846348 267.32646 
L 291.76238 263.36409 
L 291.678411 258.598215 
L 291.594443 253.10397 
L 291.510475 247.011664 
L 291.426506 240.480129 
L 291.342538 233.667815 
L 291.25857 226.707031 
L 291.174601 219.683802 
L 291.090633 212.623839 
L 291.006665 205.485222 
L 290.922696 198.160158 
L 290.838728 190.489636 
L 290.75476 182.293615 
L 290.670791 173.414903 
L 290.586823 163.768278 
L 290.502855 153.381142 
L 290.418886 142.411188 
L 290.334918 131.131851 
L 290.25095 119.886082 
L 290.166982 109.019657 
L 290.083013 98.812389 
L 289.999045 89.426556 
L 289.915077 80.886545 
L 289.831108 73.094297 
L 289.74714 65.875059 
L 289.663172 59.040217 
L 289.579203 52.450263 
L 289.495235 46.061865 
L 289.411267 39.947804 
L 289.327298 34.285958 
L 289.24333 29.321654 
L 289.159362 25.314412 
L 289.075393 22.483382 
L 288.991425 20.964795 
L 288.907457 20.79 
L 288.823488 21.886051 
L 288.73952 24.094884 
L 288.655552 27.203767 
L 288.571584 30.979546 
L 288.487615 35.201375 
L 288.403647 39.689275 
L 288.319679 44.327362 
L 288.23571 49.080215 
L 288.151742 53.999326 
L 288.067774 59.215623 
L 287.983805 64.915354 
L 287.899837 71.300736 
L 287.815869 78.54239 
L 287.7319 86.735242 
L 287.647932 95.870656 
L 287.563964 105.83382 
L 287.479995 116.427805 
L 287.396027 127.416973 
L 287.312059 138.575882 
L 287.22809 149.728048 
L 287.144122 160.762792 
L 287.060154 171.626403 
L 286.976186 182.293306 
L 286.892217 192.730165 
L 286.808249 202.868048 
L 286.724281 212.594031 
L 286.640312 221.765123 
L 286.556344 230.237959 
L 286.472376 237.901282 
L 286.388407 244.697947 
L 286.304439 250.628844 
L 286.220471 255.740006 
L 286.136502 260.101629 
L 286.052534 263.790123 
L 285.968566 266.88091 
L 285.884597 269.452476 
L 285.800629 271.595463 
L 285.716661 273.417684 
L 285.632692 275.038342 
L 285.548724 276.570817 
L 285.464756 278.099947 
L 285.380788 279.663351 
L 285.296819 281.245367 
L 285.212851 282.787198 
L 285.128883 284.210202 
L 285.044914 285.444114 
L 284.960946 286.450322 
L 284.876978 287.232706 
L 284.793009 287.833626 
L 284.709041 288.318138 
L 284.625073 288.753246 
L 284.541104 289.189743 
L 284.457136 289.652083 
L 284.373168 290.138023 
L 284.289199 290.626127 
L 284.205231 291.086995 
L 284.121263 291.493856 
L 284.037295 291.829491 
L 283.953326 292.088493 
L 283.869358 292.275665 
L 283.78539 292.402272 
L 283.701421 292.481883 
L 283.617453 292.526944 
L 283.533485 292.546508 
z
" style="fill:#1f78b4;fill-opacity:0.25;"/>
   </g>
   <g id="PolyCollection_5">
    <path clip-path="url(#pd9577df852)" d="M 79.038623 292.583243 
L 79.038623 292.59 
L 79.357354 292.59 
L 79.676084 292.59 
L 79.994815 292.59 
L 80.313545 292.59 
L 80.632276 292.59 
L 80.951006 292.59 
L 81.269737 292.59 
L 81.588467 292.59 
L 81.907198 292.59 
L 82.225928 292.59 
L 82.544659 292.59 
L 82.863389 292.59 
L 83.18212 292.59 
L 83.50085 292.59 
L 83.819581 292.59 
L 84.138311 292.59 
L 84.457042 292.59 
L 84.775772 292.59 
L 85.094503 292.59 
L 85.413233 292.59 
L 85.731964 292.59 
L 86.050694 292.59 
L 86.369425 292.59 
L 86.688156 292.59 
L 87.006886 292.59 
L 87.325617 292.59 
L 87.644347 292.59 
L 87.963078 292.59 
L 88.281808 292.59 
L 88.600539 292.59 
L 88.919269 292.59 
L 89.238 292.59 
L 89.55673 292.59 
L 89.875461 292.59 
L 90.194191 292.59 
L 90.512922 292.59 
L 90.831652 292.59 
L 91.150383 292.59 
L 91.469113 292.59 
L 91.787844 292.59 
L 92.106574 292.59 
L 92.425305 292.59 
L 92.744035 292.59 
L 93.062766 292.59 
L 93.381496 292.59 
L 93.700227 292.59 
L 94.018957 292.59 
L 94.337688 292.59 
L 94.656418 292.59 
L 94.975149 292.59 
L 95.293879 292.59 
L 95.61261 292.59 
L 95.93134 292.59 
L 96.250071 292.59 
L 96.568801 292.59 
L 96.887532 292.59 
L 97.206262 292.59 
L 97.524993 292.59 
L 97.843723 292.59 
L 98.162454 292.59 
L 98.481184 292.59 
L 98.799915 292.59 
L 99.118645 292.59 
L 99.437376 292.59 
L 99.756106 292.59 
L 100.074837 292.59 
L 100.393568 292.59 
L 100.712298 292.59 
L 101.031029 292.59 
L 101.349759 292.59 
L 101.66849 292.59 
L 101.98722 292.59 
L 102.305951 292.59 
L 102.624681 292.59 
L 102.943412 292.59 
L 103.262142 292.59 
L 103.580873 292.59 
L 103.899603 292.59 
L 104.218334 292.59 
L 104.537064 292.59 
L 104.855795 292.59 
L 105.174525 292.59 
L 105.493256 292.59 
L 105.811986 292.59 
L 106.130717 292.59 
L 106.449447 292.59 
L 106.768178 292.59 
L 107.086908 292.59 
L 107.405639 292.59 
L 107.724369 292.59 
L 108.0431 292.59 
L 108.36183 292.59 
L 108.680561 292.59 
L 108.999291 292.59 
L 109.318022 292.59 
L 109.636752 292.59 
L 109.955483 292.59 
L 110.274213 292.59 
L 110.592944 292.59 
L 110.911674 292.59 
L 111.230405 292.59 
L 111.549135 292.59 
L 111.867866 292.59 
L 112.186596 292.59 
L 112.505327 292.59 
L 112.824057 292.59 
L 113.142788 292.59 
L 113.461518 292.59 
L 113.780249 292.59 
L 114.09898 292.59 
L 114.41771 292.59 
L 114.736441 292.59 
L 115.055171 292.59 
L 115.373902 292.59 
L 115.692632 292.59 
L 116.011363 292.59 
L 116.330093 292.59 
L 116.648824 292.59 
L 116.967554 292.59 
L 117.286285 292.59 
L 117.605015 292.59 
L 117.923746 292.59 
L 118.242476 292.59 
L 118.561207 292.59 
L 118.879937 292.59 
L 119.198668 292.59 
L 119.517398 292.59 
L 119.517398 292.583919 
L 119.517398 292.583919 
L 119.198668 292.581426 
L 118.879937 292.575156 
L 118.561207 292.563662 
L 118.242476 292.544743 
L 117.923746 292.515613 
L 117.605015 292.473203 
L 117.286285 292.414582 
L 116.967554 292.337469 
L 116.648824 292.240714 
L 116.330093 292.124619 
L 116.011363 291.990953 
L 115.692632 291.842495 
L 115.373902 291.682034 
L 115.055171 291.510839 
L 114.736441 291.326853 
L 114.41771 291.123094 
L 114.09898 290.886919 
L 113.780249 290.600697 
L 113.461518 290.244031 
L 113.142788 289.797081 
L 112.824057 289.24402 
L 112.505327 288.575549 
L 112.186596 287.789793 
L 111.867866 286.891529 
L 111.549135 285.890279 
L 111.230405 284.797998 
L 110.911674 283.626871 
L 110.592944 282.387295 
L 110.274213 281.085756 
L 109.955483 279.72223 
L 109.636752 278.287074 
L 109.318022 276.757911 
L 108.999291 275.09781 
L 108.680561 273.256523 
L 108.36183 271.176479 
L 108.0431 268.80409 
L 107.724369 266.104904 
L 107.405639 263.078789 
L 107.086908 259.76984 
L 106.768178 256.266169 
L 106.449447 252.687494 
L 106.130717 249.162737 
L 105.811986 245.803908 
L 105.493256 242.684476 
L 105.174525 239.829296 
L 104.855795 237.219205 
L 104.537064 234.808297 
L 104.218334 232.547553 
L 103.899603 230.406602 
L 103.580873 228.3865 
L 103.262142 226.51997 
L 102.943412 224.860256 
L 102.624681 223.463653 
L 102.305951 222.372401 
L 101.98722 221.603422 
L 101.66849 221.145112 
L 101.349759 220.960889 
L 101.031029 220.996378 
L 100.712298 221.187575 
L 100.393568 221.46932 
L 100.074837 221.784978 
L 99.756106 222.098003 
L 99.437376 222.40397 
L 99.118645 222.739172 
L 98.799915 223.181033 
L 98.481184 223.837312 
L 98.162454 224.825077 
L 97.843723 226.244596 
L 97.524993 228.155774 
L 97.206262 230.564047 
L 96.887532 233.419156 
L 96.568801 236.62561 
L 96.250071 240.060135 
L 95.93134 243.590437 
L 95.61261 247.091254 
L 95.293879 250.456336 
L 94.975149 253.606954 
L 94.656418 256.497699 
L 94.337688 259.119101 
L 94.018957 261.495431 
L 93.700227 263.676278 
L 93.381496 265.722445 
L 93.062766 267.689376 
L 92.744035 269.613081 
L 92.425305 271.503139 
L 92.106574 273.344737 
L 91.787844 275.108031 
L 91.469113 276.760368 
L 91.150383 278.276301 
L 90.831652 279.642205 
L 90.512922 280.855401 
L 90.194191 281.92023 
L 89.875461 282.84432 
L 89.55673 283.637071 
L 89.238 284.310367 
L 88.919269 284.87997 
L 88.600539 285.365901 
L 88.281808 285.791139 
L 87.963078 286.179197 
L 87.644347 286.551738 
L 87.325617 286.92699 
L 87.006886 287.318902 
L 86.688156 287.736429 
L 86.369425 288.182491 
L 86.050694 288.652889 
L 85.731964 289.136 
L 85.413233 289.614155 
L 85.094503 290.066916 
L 84.775772 290.475544 
L 84.457042 290.827256 
L 84.138311 291.117856 
L 83.819581 291.351868 
L 83.50085 291.540257 
L 83.18212 291.696668 
L 82.863389 291.833553 
L 82.544659 291.959408 
L 82.225928 292.077798 
L 81.907198 292.188113 
L 81.588467 292.287397 
L 81.269737 292.372387 
L 80.951006 292.441025 
L 80.632276 292.493124 
L 80.313545 292.530228 
L 79.994815 292.554983 
L 79.676084 292.570378 
L 79.357354 292.579121 
L 79.038623 292.583243 
z
" style="fill:#e31a1c;fill-opacity:0.25;"/>
   </g>
   <g id="PolyCollection_6">
    <path clip-path="url(#pd9577df852)" d="M 308.654185 292.579235 
L 308.654185 292.59 
L 308.82066 292.59 
L 308.987135 292.59 
L 309.15361 292.59 
L 309.320084 292.59 
L 309.486559 292.59 
L 309.653034 292.59 
L 309.819509 292.59 
L 309.985983 292.59 
L 310.152458 292.59 
L 310.318933 292.59 
L 310.485408 292.59 
L 310.651882 292.59 
L 310.818357 292.59 
L 310.984832 292.59 
L 311.151307 292.59 
L 311.317781 292.59 
L 311.484256 292.59 
L 311.650731 292.59 
L 311.817206 292.59 
L 311.98368 292.59 
L 312.150155 292.59 
L 312.31663 292.59 
L 312.483105 292.59 
L 312.649579 292.59 
L 312.816054 292.59 
L 312.982529 292.59 
L 313.149003 292.59 
L 313.315478 292.59 
L 313.481953 292.59 
L 313.648428 292.59 
L 313.814902 292.59 
L 313.981377 292.59 
L 314.147852 292.59 
L 314.314327 292.59 
L 314.480801 292.59 
L 314.647276 292.59 
L 314.813751 292.59 
L 314.980226 292.59 
L 315.1467 292.59 
L 315.313175 292.59 
L 315.47965 292.59 
L 315.646125 292.59 
L 315.812599 292.59 
L 315.979074 292.59 
L 316.145549 292.59 
L 316.312024 292.59 
L 316.478498 292.59 
L 316.644973 292.59 
L 316.811448 292.59 
L 316.977923 292.59 
L 317.144397 292.59 
L 317.310872 292.59 
L 317.477347 292.59 
L 317.643822 292.59 
L 317.810296 292.59 
L 317.976771 292.59 
L 318.143246 292.59 
L 318.309721 292.59 
L 318.476195 292.59 
L 318.64267 292.59 
L 318.809145 292.59 
L 318.97562 292.59 
L 319.142094 292.59 
L 319.308569 292.59 
L 319.475044 292.59 
L 319.641518 292.59 
L 319.807993 292.59 
L 319.974468 292.59 
L 320.140943 292.59 
L 320.307417 292.59 
L 320.473892 292.59 
L 320.640367 292.59 
L 320.806842 292.59 
L 320.973316 292.59 
L 321.139791 292.59 
L 321.306266 292.59 
L 321.472741 292.59 
L 321.639215 292.59 
L 321.80569 292.59 
L 321.972165 292.59 
L 322.13864 292.59 
L 322.305114 292.59 
L 322.471589 292.59 
L 322.638064 292.59 
L 322.804539 292.59 
L 322.971013 292.59 
L 323.137488 292.59 
L 323.303963 292.59 
L 323.470438 292.59 
L 323.636912 292.59 
L 323.803387 292.59 
L 323.969862 292.59 
L 324.136337 292.59 
L 324.302811 292.59 
L 324.469286 292.59 
L 324.635761 292.59 
L 324.802236 292.59 
L 324.96871 292.59 
L 325.135185 292.59 
L 325.30166 292.59 
L 325.468135 292.59 
L 325.634609 292.59 
L 325.801084 292.59 
L 325.967559 292.59 
L 326.134033 292.59 
L 326.300508 292.59 
L 326.466983 292.59 
L 326.633458 292.59 
L 326.799932 292.59 
L 326.966407 292.59 
L 327.132882 292.59 
L 327.299357 292.59 
L 327.465831 292.59 
L 327.632306 292.59 
L 327.798781 292.59 
L 327.965256 292.59 
L 328.13173 292.59 
L 328.298205 292.59 
L 328.46468 292.59 
L 328.631155 292.59 
L 328.797629 292.59 
L 328.964104 292.59 
L 329.130579 292.59 
L 329.297054 292.59 
L 329.463528 292.59 
L 329.630003 292.59 
L 329.796478 292.59 
L 329.796478 292.577928 
L 329.796478 292.577928 
L 329.630003 292.570122 
L 329.463528 292.553131 
L 329.297054 292.522218 
L 329.130579 292.470617 
L 328.964104 292.390017 
L 328.797629 292.271732 
L 328.631155 292.108643 
L 328.46468 291.897703 
L 328.298205 291.642428 
L 328.13173 291.354488 
L 327.965256 291.053506 
L 327.798781 290.764493 
L 327.632306 290.513101 
L 327.465831 290.319651 
L 327.299357 290.193479 
L 327.132882 290.12912 
L 326.966407 290.105141 
L 326.799932 290.085437 
L 326.633458 290.021965 
L 326.466983 289.857756 
L 326.300508 289.52974 
L 326.134033 288.971949 
L 325.967559 288.120296 
L 325.801084 286.919766 
L 325.634609 285.333475 
L 325.468135 283.351334 
L 325.30166 280.995123 
L 325.135185 278.317155 
L 324.96871 275.391615 
L 324.802236 272.300008 
L 324.635761 269.114239 
L 324.469286 265.881729 
L 324.302811 262.616782 
L 324.136337 259.301232 
L 323.969862 255.895421 
L 323.803387 252.357887 
L 323.636912 248.668925 
L 323.470438 244.850535 
L 323.303963 240.974732 
L 323.137488 237.154841 
L 322.971013 233.52006 
L 322.804539 230.17993 
L 322.638064 227.189647 
L 322.471589 224.527139 
L 322.305114 222.088733 
L 322.13864 219.704052 
L 321.972165 217.165404 
L 321.80569 214.264105 
L 321.639215 210.826096 
L 321.472741 206.740671 
L 321.306266 201.978003 
L 321.139791 196.592976 
L 320.973316 190.715008 
L 320.806842 184.526283 
L 320.640367 178.233713 
L 320.473892 172.041689 
L 320.307417 166.132261 
L 320.140943 160.656491 
L 319.974468 155.73668 
L 319.807993 151.4755 
L 319.641518 147.96625 
L 319.475044 145.29871 
L 319.308569 143.556858 
L 319.142094 142.8074 
L 318.97562 143.08119 
L 318.809145 144.353003 
L 318.64267 146.52785 
L 318.476195 149.442481 
L 318.309721 152.887347 
L 318.143246 156.646938 
L 317.976771 160.547639 
L 317.810296 164.496428 
L 317.643822 168.494883 
L 317.477347 172.62182 
L 317.310872 176.990936 
L 317.144397 181.700647 
L 316.977923 186.796163 
L 316.811448 192.257131 
L 316.644973 198.011418 
L 316.478498 203.963688 
L 316.312024 210.022336 
L 316.145549 216.11219 
L 315.979074 222.17022 
L 315.812599 228.131494 
L 315.646125 233.917398 
L 315.47965 239.43576 
L 315.313175 244.594961 
L 315.1467 249.325912 
L 314.980226 253.601264 
L 314.813751 257.442393 
L 314.647276 260.910541 
L 314.480801 264.085774 
L 314.314327 267.042489 
L 314.147852 269.830903 
L 313.981377 272.470423 
L 313.814902 274.955088 
L 313.648428 277.26642 
L 313.481953 279.386929 
L 313.315478 281.30885 
L 313.149003 283.036021 
L 312.982529 284.580276 
L 312.816054 285.95563 
L 312.649579 287.173454 
L 312.483105 288.240373 
L 312.31663 289.158899 
L 312.150155 289.929786 
L 311.98368 290.554862 
L 311.817206 291.039504 
L 311.650731 291.394324 
L 311.484256 291.635866 
L 311.317781 291.786144 
L 311.151307 291.870922 
L 310.984832 291.916867 
L 310.818357 291.948091 
L 310.651882 291.982962 
L 310.485408 292.032081 
L 310.318933 292.098042 
L 310.152458 292.17697 
L 309.985983 292.261251 
L 309.819509 292.342517 
L 309.653034 292.414019 
L 309.486559 292.471867 
L 309.320084 292.51512 
L 309.15361 292.54506 
L 308.987135 292.564122 
L 308.82066 292.574876 
L 308.654185 292.579235 
z
" style="fill:#0000ff;fill-opacity:0.25;"/>
   </g>
   <g id="line2d_13">
    <path clip-path="url(#pd9577df852)" d="M 299.824127 292.582292 
L 301.285966 292.469929 
L 302.016885 292.239106 
L 302.747804 291.763201 
L 303.235083 291.212334 
L 303.966002 289.902439 
L 305.184201 286.928413 
L 305.91512 284.750191 
L 306.402399 282.542341 
L 306.889679 279.186668 
L 307.376958 274.414564 
L 308.107877 264.897657 
L 309.569716 242.059646 
L 311.275193 215.461208 
L 311.762473 210.720865 
L 312.249752 207.763018 
L 314.44251 198.384016 
L 314.686149 197.870096 
L 314.929789 197.747678 
L 315.173429 198.104907 
L 315.417068 199.023535 
L 315.904348 202.770894 
L 316.391627 209.043877 
L 318.828024 247.1473 
L 319.558943 254.186009 
L 320.533502 260.841505 
L 321.264421 266.168692 
L 323.213539 282.695507 
L 323.700818 284.812766 
L 324.431737 286.782993 
L 325.893576 289.85 
L 326.624495 290.79864 
L 327.599054 291.464078 
L 329.304531 292.396891 
L 330.27909 292.56413 
L 330.76637 292.581053 
L 330.76637 292.581053 
" style="fill:none;stroke:#33a02c;stroke-linecap:round;stroke-width:2;"/>
   </g>
   <g id="line2d_14">
    <path clip-path="url(#pd9577df852)" d="M 237.90513 292.582031 
L 239.108822 292.45511 
L 239.710669 292.174866 
L 240.312515 291.562314 
L 240.713746 290.863816 
L 241.315592 289.22919 
L 241.917439 286.848984 
L 242.519285 283.712026 
L 243.121131 279.484971 
L 243.722978 273.735616 
L 244.726055 261.46691 
L 245.929748 244.090608 
L 248.136518 208.491232 
L 249.34021 194.421112 
L 249.942057 189.195583 
L 250.543903 185.820325 
L 250.945134 184.966099 
L 251.145749 185.092793 
L 251.346365 185.641874 
L 251.747596 188.075447 
L 252.148827 192.235694 
L 252.750673 201.236762 
L 253.75375 221.153081 
L 254.957443 244.478691 
L 255.96052 258.523636 
L 257.164213 272.555952 
L 258.16729 281.122292 
L 258.969752 286.518522 
L 259.571598 289.316958 
L 260.173445 290.941749 
L 260.775291 291.755837 
L 261.377137 292.179961 
L 262.179599 292.474487 
L 263.182676 292.579008 
L 263.383292 292.582153 
L 263.383292 292.582153 
" style="fill:none;stroke:#000000;stroke-linecap:round;stroke-width:2;"/>
   </g>
   <g id="line2d_15">
    <path clip-path="url(#pd9577df852)" d="M 468.624193 292.576448 
L 469.135456 292.48553 
L 469.518904 292.20751 
L 469.902351 291.63949 
L 470.413615 290.444478 
L 470.797062 289.096262 
L 471.18051 287.020096 
L 472.7143 276.147604 
L 473.097747 270.232203 
L 473.609011 257.388292 
L 474.24809 233.663557 
L 476.420959 138.236259 
L 477.060039 111.778836 
L 477.31567 106.142915 
L 477.443486 104.924363 
L 477.571302 104.820339 
L 477.699118 105.793509 
L 477.954749 110.632984 
L 478.338197 123.690517 
L 479.871987 194.0795 
L 480.766698 241.596229 
L 481.405777 262.499788 
L 482.044856 276.987781 
L 482.55612 284.527379 
L 483.067383 289.014676 
L 483.450831 290.866847 
L 483.834278 291.902159 
L 484.217726 292.390359 
L 484.601173 292.551029 
L 484.856805 292.575973 
L 484.856805 292.575973 
" style="fill:none;stroke:#ff7f00;stroke-linecap:round;stroke-width:2;"/>
   </g>
   <g id="line2d_16">
    <path clip-path="url(#pd9577df852)" d="M 283.533485 292.546508 
L 283.78539 292.402272 
L 284.037295 291.829491 
L 284.373168 290.138023 
L 284.960946 286.450322 
L 285.296819 281.245367 
L 285.968566 266.88091 
L 286.304439 250.628844 
L 286.640312 221.765123 
L 287.396027 127.416973 
L 287.983805 64.915354 
L 288.571584 30.979546 
L 288.907457 20.79 
L 288.991425 20.964795 
L 289.159362 25.314412 
L 289.495235 46.061865 
L 290.083013 98.812389 
L 291.174601 219.683802 
L 291.846348 267.32646 
L 292.182221 276.108345 
L 292.853968 283.626514 
L 293.693651 291.656771 
L 293.945556 292.375402 
L 294.197461 292.544955 
L 294.197461 292.544955 
" style="fill:none;stroke:#1f78b4;stroke-linecap:round;stroke-width:2;"/>
   </g>
   <g id="line2d_17">
    <path clip-path="url(#pd9577df852)" d="M 79.038623 292.583243 
L 80.632276 292.493124 
L 81.907198 292.188113 
L 83.50085 291.540257 
L 84.138311 291.117856 
L 84.775772 290.475544 
L 85.731964 289.136 
L 87.006886 287.318902 
L 88.919269 284.87997 
L 89.55673 283.637071 
L 90.194191 281.92023 
L 90.831652 279.642205 
L 91.787844 275.108031 
L 93.381496 265.722445 
L 94.337688 259.119101 
L 95.293879 250.456336 
L 97.206262 230.564047 
L 97.843723 226.244596 
L 98.481184 223.837312 
L 99.118645 222.739172 
L 100.712298 221.187575 
L 101.031029 220.996378 
L 101.349759 220.960889 
L 101.66849 221.145112 
L 101.98722 221.603422 
L 102.305951 222.372401 
L 102.943412 224.860256 
L 103.899603 230.406602 
L 104.855795 237.219205 
L 105.811986 245.803908 
L 108.0431 268.80409 
L 108.999291 275.09781 
L 109.955483 279.72223 
L 111.230405 284.797998 
L 112.186596 287.789793 
L 112.824057 289.24402 
L 113.461518 290.244031 
L 114.09898 290.886919 
L 115.055171 291.510839 
L 116.648824 292.240714 
L 117.923746 292.515613 
L 119.517398 292.583919 
L 119.517398 292.583919 
" style="fill:none;stroke:#e31a1c;stroke-linecap:round;stroke-width:2;"/>
   </g>
   <g id="line2d_18">
    <path clip-path="url(#pd9577df852)" d="M 308.654185 292.579235 
L 309.486559 292.471867 
L 311.317781 291.786144 
L 311.650731 291.394324 
L 311.98368 290.554862 
L 312.31663 289.158899 
L 312.816054 285.95563 
L 313.315478 281.30885 
L 313.981377 272.470423 
L 314.647276 260.910541 
L 315.1467 249.325912 
L 315.812599 228.131494 
L 317.310872 176.990936 
L 318.309721 152.887347 
L 318.809145 144.353003 
L 318.97562 143.08119 
L 319.142094 142.8074 
L 319.308569 143.556858 
L 319.641518 147.96625 
L 320.140943 160.656491 
L 321.80569 214.264105 
L 323.470438 244.850535 
L 324.635761 269.114239 
L 325.468135 283.351334 
L 325.967559 288.120296 
L 326.300508 289.52974 
L 326.633458 290.021965 
L 327.632306 290.513101 
L 328.964104 292.390017 
L 329.463528 292.553131 
L 329.796478 292.577928 
L 329.796478 292.577928 
" style="fill:none;stroke:#0000ff;stroke-linecap:round;stroke-width:2;"/>
   </g>
   <g id="line2d_19">
    <path clip-path="url(#pd9577df852)" d="M 314.480626 306.18 
L 314.480626 7.2 
" style="fill:none;stroke:#33a02c;stroke-dasharray:8.4,3.6;stroke-dashoffset:0;stroke-width:3;"/>
   </g>
   <g id="patch_3">
    <path d="M 58.747714 306.18 
L 58.747714 7.2 
" style="fill:none;"/>
   </g>
   <g id="patch_4">
    <path d="M 505.147714 306.18 
L 505.147714 7.2 
" style="fill:none;"/>
   </g>
   <g id="patch_5">
    <path d="M 58.747714 306.18 
L 505.147714 306.18 
" style="fill:none;"/>
   </g>
   <g id="patch_6">
    <path d="M 58.747714 7.2 
L 505.147714 7.2 
" style="fill:none;"/>
   </g>
   <g id="legend_1">
    <g id="line2d_20">
     <path d="M 71.347714 24.7 
L 99.347714 24.7 
" style="fill:none;stroke:#33a02c;stroke-linecap:round;stroke-width:2;"/>
    </g>
    <g id="line2d_21"/>
    <g id="text_15">
     <!-- actual -->
     <defs>
      <path d="M 6.40625 47 
L 6.40625 12.96875 
C 6.40625 10.046875 6.5 7.140625 7.703125 4.421875 
C 9.59375 0.515625 13.59375 -1 17.703125 -1 
C 23.203125 -1 28.703125 0.8125 32.703125 4.734375 
C 33.796875 5.828125 34.796875 6.9375 35.5 8.34375 
L 35.59375 8.34375 
L 35.59375 -0.390625 
L 41.90625 -0.390625 
L 41.90625 47 
L 35.5 47 
L 35.5 22.90625 
C 35.5 18.6875 36.09375 14.0625 33.90625 10.25 
C 32.296875 7.4375 29.5 5.234375 26.40625 4.234375 
C 24.296875 3.625 22.09375 3.625 19.90625 3.828125 
C 17.796875 4.03125 15.5 4.234375 14.09375 6.03125 
C 12.09375 8.453125 12.796875 14.171875 12.796875 17.6875 
L 12.796875 47 
z
" id="Computer_Modern_Bright-117"/>
     </defs>
     <g style="fill:#262626;" transform="translate(110.547714 29.6)scale(0.14 -0.14)">
      <use transform="scale(0.996264)" xlink:href="#Computer_Modern_Bright-97"/>
      <use transform="translate(46.492082 0)scale(0.996264)" xlink:href="#Computer_Modern_Bright-99"/>
      <use transform="translate(91.32375 0)scale(0.996264)" xlink:href="#Computer_Modern_Bright-116"/>
      <use transform="translate(127.438138 0)scale(0.996264)" xlink:href="#Computer_Modern_Bright-117"/>
      <use transform="translate(175.590635 0)scale(0.996264)" xlink:href="#Computer_Modern_Bright-97"/>
      <use transform="translate(222.082717 0)scale(0.996264)" xlink:href="#Computer_Modern_Bright-108"/>
     </g>
    </g>
    <g id="line2d_22">
     <path d="M 71.347714 43.824611 
L 99.347714 43.824611 
" style="fill:none;stroke:#000000;stroke-linecap:round;stroke-width:2;"/>
    </g>
    <g id="line2d_23"/>
    <g id="text_16">
     <!-- \emph{vhl-1} $&gt;$ \emph{egl-9} -->
     <defs>
      <path d="M 10.703125 48 
C 12.796875 33.046875 15.09375 18.171875 17.09375 3.125 
C 17.296875 2.109375 17.296875 0.90625 17.796875 0.203125 
C 19.90625 0 22.59375 0 24.703125 0 
L 25.296875 0.703125 
L 44.703125 35.109375 
L 51.796875 48 
C 49.703125 48 47.5 48 45.703125 47.703125 
C 44.90625 46.59375 44.296875 45.484375 43.59375 44.265625 
C 36.59375 31.84375 29.40625 19.515625 22.703125 6.6875 
C 21.59375 16.984375 20 26.6875 18.59375 36.6875 
C 18 40.328125 17.90625 44.46875 16.90625 47.703125 
C 15.09375 48 12.796875 48 10.703125 48 
" id="Computer_Modern_Bright_Slanted-118"/>
      <path d="M 21.09375 70 
L 6.40625 0 
L 10.90625 0 
C 11.796875 0 13 -0.296875 13 1.015625 
C 13.203125 1.71875 13.296875 2.328125 13.40625 3.03125 
C 14.40625 7.78125 19 29.5 19.296875 30.40625 
C 20.40625 33.953125 22.40625 37.375 25.09375 39.90625 
C 28 42.4375 31.203125 43.84375 36.59375 42.9375 
C 38.796875 42.53125 40.90625 41.625 42 39.5 
C 43.5 36.46875 42.40625 32.9375 41.796875 29.90625 
L 35.5 0 
L 40.203125 0 
C 41.203125 0 42.09375 -0.203125 42.09375 1.109375 
C 42.703125 3.125 44.09375 10.625 44.09375 10.625 
L 48.59375 32 
C 49.40625 35.734375 50.296875 40.40625 48.203125 43.9375 
C 46.296875 46.984375 42.90625 48 39.59375 48.296875 
C 38.09375 48.296875 36.5 48.296875 35 48 
C 30.796875 47.3125 27.09375 45.09375 24.09375 42.09375 
C 22.90625 40.890625 21.5 39.59375 20.796875 37.984375 
L 20.703125 37.984375 
L 27.40625 70 
z
" id="Computer_Modern_Bright_Slanted-104"/>
      <path d="M 21.09375 70 
L 6.40625 0 
C 8.5 0 10.796875 0 12.59375 0.296875 
L 13 1.40625 
C 14 6.4375 15.09375 11.375 16.203125 16.40625 
L 27.40625 70 
z
" id="Computer_Modern_Bright_Slanted-108"/>
      <path d="M 5.90625 26.0625 
L 4.90625 21 
L 32.796875 21 
L 33.796875 26.0625 
z
" id="Computer_Modern_Bright_Slanted-45"/>
      <path d="M 22.5 61 
L 21.5 55.9375 
C 26.296875 55.9375 31.40625 56.546875 35.703125 58.875 
L 24.5 5.046875 
C 20.296875 5.046875 15.296875 5.5625 11.5 5.046875 
C 10.90625 3.578125 10.703125 1.671875 10.296875 0 
C 21.09375 0 32.59375 0 42.796875 0 
C 43.40625 1.453125 43.703125 3.296875 44.09375 5.046875 
L 31 5.046875 
C 35.203125 26.0625 39.796875 46.59375 44.09375 67.5 
C 41.703125 67.5 42 67.09375 40 65.59375 
C 35.59375 62.59375 28.90625 61 22.5 61 
" id="Computer_Modern_Bright_Slanted-49"/>
      <path d="M 62.59375 26.546875 
L 62.59375 26.34375 
C 60.296875 25.546875 58 24.25 55.796875 23.140625 
L 27.09375 9.625 
L 11.09375 2 
C 10.40625 1.703125 9.40625 1.296875 8.90625 0.796875 
C 8 -0.203125 8.203125 -1.703125 9.296875 -2.296875 
C 10.5 -3 11.703125 -2.109375 12.796875 -1.609375 
L 21 2.203125 
C 25.203125 4.3125 55 18.328125 55 18.328125 
L 66 23.546875 
C 67.296875 24.140625 69.40625 24.75 69.40625 26.453125 
C 69.40625 28.15625 67.296875 28.75 66 29.359375 
L 55 34.5625 
L 33.703125 44.6875 
C 29.5 46.6875 25.203125 48.59375 21 50.703125 
L 12.796875 54.5 
C 11.703125 55 10.5 55.90625 9.296875 55.203125 
C 8.203125 54.609375 8 53.09375 8.90625 52.09375 
C 9.40625 51.59375 10.40625 51.203125 11.09375 50.890625 
L 41.59375 36.46875 
L 55.796875 29.75 
C 58 28.65625 60.296875 27.359375 62.59375 26.546875 
" id="Computer_Modern_Bright_Math_Slanted-62"/>
      <path d="M 44.09375 10.859375 
C 42.796875 9.953125 41.5 8.9375 40.09375 8.140625 
C 34.296875 4.59375 24.09375 1.765625 18.203125 7.53125 
C 14.40625 11.375 13.203125 17.53125 14.796875 25 
L 46.40625 25 
C 46.796875 25 47.40625 24.90625 47.703125 25.203125 
C 48.5 25.8125 48.703125 31.375 48.703125 31.46875 
C 48.703125 32.6875 48.796875 33.890625 48.703125 35.109375 
C 48.296875 40.46875 45.703125 45.3125 40.703125 47.140625 
C 34.296875 49.765625 27 47.84375 21.5 43.90625 
C 13.796875 38.4375 8.40625 29.046875 8 19.453125 
C 7.59375 11.875 10.5 5.515625 15.40625 2.171875 
C 23.40625 -3.484375 34.5 -0.15625 40.90625 3.6875 
C 41.703125 4.203125 42.90625 4.703125 43.40625 5.40625 
C 43.703125 5.90625 44.09375 10.859375 44.09375 10.859375 
M 43.296875 28.953125 
L 16.203125 28.953125 
C 16.59375 30.671875 17.703125 32.390625 18.703125 33.796875 
C 21.296875 37.84375 25.09375 41.46875 29.796875 42.796875 
C 33.59375 43.90625 38.296875 43.1875 41 40.0625 
C 43.203125 37.4375 43.703125 33.390625 43.296875 28.953125 
" id="Computer_Modern_Bright_Slanted-101"/>
      <path d="M 37.90625 12.09375 
L 38 12.09375 
C 37.703125 10.1875 37.203125 8.265625 36.796875 6.34375 
C 36.203125 3.3125 35.703125 0.171875 34.703125 -2.65625 
C 33.5 -5.984375 31.203125 -9.109375 28.296875 -11.140625 
C 25.90625 -12.75 23.796875 -13.265625 19.90625 -12.953125 
C 15.09375 -12.953125 11.59375 -12.03125 7.796875 -10.265625 
C 6.703125 -9.75 5.796875 -9.125 4.703125 -8.609375 
L 3.5 -14.171875 
C 8.09375 -16.25 12.203125 -18 18.40625 -18 
C 19.796875 -18.109375 21.203125 -18.203125 22.59375 -18.109375 
C 31.703125 -17.203125 38.5 -10.21875 41.09375 -2.828125 
C 41.796875 -1 42.09375 1.015625 42.5 2.953125 
L 44.203125 11.03125 
C 44.796875 13.78125 51.90625 47.390625 52 48.5 
L 45.703125 48.5 
L 44.09375 40.265625 
C 43.703125 40.984375 43.5 41.78125 43.203125 42.5 
C 42.5 43.90625 41.5 45.21875 40.296875 46.234375 
C 34.40625 51.1875 25 46.640625 21 43.5 
C 15.09375 38.953125 11 32.296875 9.203125 25.125 
C 6.90625 16.234375 9.5 8.0625 14.90625 4.328125 
C 18.796875 1.59375 24.796875 0.78125 30 3.71875 
C 32.90625 5.4375 36.40625 8.96875 37.90625 12.09375 
M 34.59375 43.5 
C 40.296875 43.5 42.703125 39.546875 42.703125 33.890625 
C 42.59375 33.1875 42.40625 32.375 42.296875 31.671875 
C 40.703125 24.59375 39.40625 17.53125 35.59375 12.0625 
C 33.703125 9.34375 30.90625 7.125 27.5 6.8125 
C 25 6.609375 22.40625 7.515625 20.796875 8.328125 
C 15.90625 11.15625 14.296875 17.21875 15.09375 22.578125 
C 16 28.9375 19.5 35.03125 24.5 39.0625 
C 27.40625 41.4375 30.90625 43.203125 34.59375 43.5 
M 38 12.21875 
C 38 12.21875 38.09375 12.21875 38.09375 12.21875 
C 38.09375 12.125 38 12.015625 38 12.21875 
" id="Computer_Modern_Bright_Slanted-103"/>
      <path d="M 46.5 33.03125 
L 46.59375 33.03125 
C 46.296875 31.3125 45.90625 29.59375 45.40625 27.96875 
C 42.703125 18.296875 37.09375 7.828125 26.90625 4.625 
C 21.5 3.015625 15.90625 4.03125 12.5 6.734375 
C 12.203125 6.9375 11.59375 7.640625 11.09375 7.546875 
C 10.703125 7.546875 10.296875 6.84375 10.09375 6.53125 
C 9.203125 5.421875 8.296875 4.328125 7.5 3.21875 
C 9.296875 1.796875 11.09375 0.484375 13.296875 -0.3125 
C 15.90625 -1.328125 20.5 -1.828125 23.59375 -1.234375 
C 29 -0.421875 34 2.515625 38.09375 6.03125 
C 47.5 14.375 53.09375 26.21875 54.59375 41.390625 
C 55.09375 45.90625 55.203125 50.515625 54.09375 55.046875 
C 53.203125 58.953125 51.703125 61.46875 48.90625 63.984375 
C 43.796875 68 36.296875 68 30.703125 65.453125 
C 25.40625 62.921875 19.90625 57.65625 17.203125 53.078125 
C 14.59375 48.609375 12.703125 41.40625 13.09375 34.90625 
C 13.5 30.8125 15.5 26.21875 18 23.703125 
C 20.296875 21.515625 23.09375 21 26.09375 21 
C 32.09375 21 38.203125 23.9375 42.5 28.171875 
C 43.90625 29.59375 45.59375 31.109375 46.5 33.03125 
M 43.90625 61.03125 
C 48.59375 58.484375 49.40625 52.515625 48.90625 47.640625 
C 48.703125 44.90625 48.5 42.171875 47.59375 39.53125 
C 45.796875 34.46875 42.09375 30 37.40625 27.578125 
C 32.40625 25.03125 24.59375 25.03125 21.5 29.765625 
C 18.90625 33.484375 19.296875 38 20.09375 42.234375 
C 20.796875 45.546875 21.5 48.96875 23 52.078125 
C 25 56.109375 28.59375 59.734375 32.90625 61.234375 
C 36.5 62.4375 40.59375 62.4375 43.90625 61.03125 
" id="Computer_Modern_Bright_Slanted-57"/>
     </defs>
     <g style="fill:#262626;" transform="translate(110.547714 48.724611)scale(0.14 -0.14)">
      <use transform="scale(0.996264)" xlink:href="#Computer_Modern_Bright_Slanted-118"/>
      <use transform="translate(42.341038 0)scale(0.996264)" xlink:href="#Computer_Modern_Bright_Slanted-104"/>
      <use transform="translate(90.493535 0)scale(0.996264)" xlink:href="#Computer_Modern_Bright_Slanted-108"/>
      <use transform="translate(109.588494 0)scale(0.996264)" xlink:href="#Computer_Modern_Bright_Slanted-45"/>
      <use transform="translate(142.797167 0)scale(0.996264)" xlink:href="#Computer_Modern_Bright_Slanted-49"/>
      <use transform="translate(235.881937 0)scale(0.996264)" xlink:href="#Computer_Modern_Bright_Math_Slanted-62"/>
      <use transform="translate(344.834617 0)scale(0.996264)" xlink:href="#Computer_Modern_Bright_Slanted-101"/>
      <use transform="translate(389.666284 0)scale(0.996264)" xlink:href="#Computer_Modern_Bright_Slanted-103"/>
      <use transform="translate(437.818781 0)scale(0.996264)" xlink:href="#Computer_Modern_Bright_Slanted-108"/>
      <use transform="translate(456.91374 0)scale(0.996264)" xlink:href="#Computer_Modern_Bright_Slanted-45"/>
      <use transform="translate(490.122414 0)scale(0.996264)" xlink:href="#Computer_Modern_Bright_Slanted-57"/>
     </g>
    </g>
    <g id="line2d_24">
     <path d="M 71.347714 62.949222 
L 99.347714 62.949222 
" style="fill:none;stroke:#ff7f00;stroke-linecap:round;stroke-width:2;"/>
    </g>
    <g id="line2d_25"/>
    <g id="text_17">
     <!-- Additive -->
     <defs>
      <path d="M 2.09375 0.09375 
L 6.59375 0.09375 
L 8.40625 0.296875 
C 11.40625 6.796875 13.5 14.203125 16.203125 21 
C 26.09375 21 36.90625 21 46.296875 21 
L 47.09375 19.6875 
C 48.796875 14.546875 50.796875 9.59375 52.59375 4.546875 
C 53.09375 3.015625 53.59375 1.515625 54.40625 0.296875 
C 56.59375 0 59.203125 0 61.59375 0 
C 59.90625 4.90625 36.703125 67.203125 36 68.890625 
C 35.90625 69.296875 35.703125 69.890625 35.203125 70 
C 34.59375 70.09375 34 70 33.40625 70 
L 30.09375 70 
C 28.59375 70 28 70.1875 27.59375 68.609375 
C 27.203125 67.59375 2.09375 0.09375 2.09375 0.09375 
M 31.40625 63.171875 
C 35.59375 50.71875 40.09375 38.46875 44.5 26.21875 
L 18.203125 26.21875 
L 26.90625 50.109375 
z
" id="Computer_Modern_Bright-65"/>
      <path d="M 35.59375 69.6875 
L 35.59375 41.375 
C 33.703125 43.484375 31.796875 45.484375 29.203125 46.6875 
C 20.296875 50.40625 11.703125 45.59375 7.296875 37.65625 
C 2.203125 28.21875 2.796875 15.765625 8.90625 6.921875 
C 13.203125 0.796875 20.296875 -2.203125 27.796875 0.5 
C 30.703125 1.609375 34.203125 4.515625 35.40625 7.125 
L 35.5 7.125 
L 35.5 0 
L 41.90625 0 
L 41.90625 69.6875 
z
M 35.203125 37.453125 
C 35.703125 36.546875 35.5 35.34375 35.5 34.34375 
L 35.5 13.65625 
C 35.5 11.34375 35.40625 11.140625 34.09375 9.34375 
C 32.296875 6.625 29.5 4.71875 26.203125 4.421875 
C 21.40625 4.015625 16.5 6.328125 13.703125 10.25 
C 12.09375 12.546875 11.203125 15.359375 10.703125 18.171875 
C 10.5 19.28125 10.5 20.28125 10.40625 21.390625 
C 9.796875 28.015625 11.203125 35.84375 17 40.0625 
C 18 40.765625 19.09375 41.265625 20.203125 41.765625 
C 26 43.984375 32.40625 43.375 35.203125 37.453125 
" id="Computer_Modern_Bright-100"/>
      <path d="M 0.703125 47.5 
C 1.203125 45.5 4.203125 37.578125 4.40625 37.078125 
C 5.40625 34.28125 17.296875 0.609375 17.59375 0.296875 
C 17.90625 -0.203125 18.796875 0 19.296875 0 
L 22.796875 0 
C 24.09375 0 24.90625 -0.296875 25.203125 0.90625 
C 28.40625 9.328125 40.09375 42.703125 41.796875 47.5 
L 35.59375 47.5 
C 30.796875 33.984375 25.90625 20.4375 21.40625 6.609375 
L 11 36.203125 
C 9.5 39.796875 8.59375 43.890625 6.90625 47.203125 
C 5.09375 47.5 2.796875 47.5 0.703125 47.5 
" id="Computer_Modern_Bright-118"/>
     </defs>
     <g style="fill:#262626;" transform="translate(110.547714 67.849222)scale(0.14 -0.14)">
      <use transform="scale(0.996264)" xlink:href="#Computer_Modern_Bright-65"/>
      <use transform="translate(63.511618 0)scale(0.996264)" xlink:href="#Computer_Modern_Bright-100"/>
      <use transform="translate(111.664115 0)scale(0.996264)" xlink:href="#Computer_Modern_Bright-100"/>
      <use transform="translate(159.816612 0)scale(0.996264)" xlink:href="#Computer_Modern_Bright-105"/>
      <use transform="translate(178.911571 0)scale(0.996264)" xlink:href="#Computer_Modern_Bright-116"/>
      <use transform="translate(215.025959 0)scale(0.996264)" xlink:href="#Computer_Modern_Bright-105"/>
      <use transform="translate(234.120917 0)scale(0.996264)" xlink:href="#Computer_Modern_Bright-118"/>
      <use transform="translate(276.461955 0)scale(0.996264)" xlink:href="#Computer_Modern_Bright-101"/>
     </g>
    </g>
    <g id="line2d_26">
     <path d="M 71.347714 82.073833 
L 99.347714 82.073833 
" style="fill:none;stroke:#1f78b4;stroke-linecap:round;stroke-width:2;"/>
    </g>
    <g id="line2d_27"/>
    <g id="text_18">
     <!-- Unbranched -->
     <defs>
      <path d="M 8 69.5 
L 8 32.75 
C 8 25.71875 7.203125 18.390625 10.703125 11.96875 
C 12.90625 7.84375 16.09375 4.4375 20.09375 2.125 
C 29.90625 -3.609375 43.5 -2.203125 51.296875 6.4375 
C 54.796875 10.359375 57.296875 15.171875 57.796875 21.796875 
C 57.90625 23.40625 57.796875 24.921875 57.796875 26.515625 
L 57.796875 69.5 
L 51.40625 69.5 
L 51.40625 25.90625 
C 51.40625 24.59375 51.5 23.1875 51.40625 21.890625 
C 51.203125 18.890625 50.59375 15.921875 49.40625 13.25 
C 43.90625 1 25 1 18 11.890625 
C 14.203125 17.78125 15 25.0625 15 31.65625 
L 15 69.5 
z
" id="Computer_Modern_Bright-85"/>
      <path d="M 6.40625 69.6875 
L 6.40625 0 
L 12.796875 0 
L 12.796875 21.984375 
C 12.796875 26.90625 12.5 31.9375 14.703125 36.546875 
C 15.796875 38.859375 17.5 40.875 19.796875 42.078125 
C 21.703125 42.984375 23.703125 42.984375 25.796875 42.78125 
C 28.796875 42.78125 31.703125 41.984375 33.59375 39.453125 
C 35.40625 37.140625 35.5 34.140625 35.5 31.3125 
L 35.5 0 
L 41.90625 0 
L 41.90625 27.21875 
C 41.90625 32.234375 42.40625 37.75 39.90625 42.28125 
C 37.90625 45.6875 34.40625 47.296875 30.703125 47.796875 
C 28.703125 48 26.703125 48 24.703125 47.703125 
C 21.09375 47.015625 18 45.03125 15.59375 42.34375 
C 14.5 41.046875 13.203125 39.46875 12.796875 37.765625 
L 12.703125 37.765625 
L 12.703125 69.6875 
z
" id="Computer_Modern_Bright-104"/>
     </defs>
     <g style="fill:#262626;" transform="translate(110.547714 86.973833)scale(0.14 -0.14)">
      <use transform="scale(0.996264)" xlink:href="#Computer_Modern_Bright-85"/>
      <use transform="translate(65.587132 0)scale(0.996264)" xlink:href="#Computer_Modern_Bright-110"/>
      <use transform="translate(113.739629 0)scale(0.996264)" xlink:href="#Computer_Modern_Bright-98"/>
      <use transform="translate(158.986397 0)scale(0.996264)" xlink:href="#Computer_Modern_Bright-114"/>
      <use transform="translate(190.949756 0)scale(0.996264)" xlink:href="#Computer_Modern_Bright-97"/>
      <use transform="translate(237.441838 0)scale(0.996264)" xlink:href="#Computer_Modern_Bright-110"/>
      <use transform="translate(285.594335 0)scale(0.996264)" xlink:href="#Computer_Modern_Bright-99"/>
      <use transform="translate(330.426003 0)scale(0.996264)" xlink:href="#Computer_Modern_Bright-104"/>
      <use transform="translate(378.5785 0)scale(0.996264)" xlink:href="#Computer_Modern_Bright-101"/>
      <use transform="translate(423.410167 0)scale(0.996264)" xlink:href="#Computer_Modern_Bright-100"/>
     </g>
    </g>
    <g id="line2d_28">
     <path d="M 71.347714 101.198444 
L 99.347714 101.198444 
" style="fill:none;stroke:#e31a1c;stroke-linecap:round;stroke-width:2;"/>
    </g>
    <g id="line2d_29"/>
    <g id="text_19">
     <!-- Suppression -->
     <defs>
      <path d="M 5.09375 13.015625 
C 4.90625 11.390625 4.5 9.671875 4.296875 8.046875 
C 4.09375 6.53125 3.59375 6.109375 4.90625 5.3125 
C 8.296875 3.390625 11.203125 2.0625 15.40625 0.75 
C 24.796875 -2 35.59375 -2 43.796875 4.140625 
C 45.09375 5.140625 46.296875 6.234375 47.40625 7.53125 
C 49.90625 10.890625 52.203125 14.96875 51.59375 20.53125 
C 50.90625 27.671875 46.09375 33.625 39.59375 36.609375 
C 30.703125 40.578125 16.203125 40.578125 12.203125 49.375 
C 9.09375 56.1875 14.59375 62.171875 20.796875 64.375 
C 26.90625 66.6875 34.90625 65.78125 40.09375 63.375 
C 42.5 62.265625 44.5 60.65625 46.703125 59.25 
C 46.90625 60.96875 47.296875 62.578125 47.59375 64.28125 
C 47.796875 65.375 48.09375 66.390625 46.90625 66.78125 
L 45 67.796875 
C 42.296875 69 39.5 69.90625 36.59375 70.5 
C 27.59375 72.203125 17.203125 71.203125 10.40625 64.484375 
C 7 61.0625 4.09375 56.4375 5.296875 49.515625 
C 6.703125 42.390625 12.296875 37.875 18.09375 35.65625 
C 21.5 34.359375 25.296875 33.65625 28.90625 32.75 
C 31 32.34375 33.203125 31.84375 35.296875 31.140625 
C 40.703125 29.125 45.40625 25.109375 45.40625 17.6875 
C 44.796875 11.296875 39.203125 6.625 33.296875 5.203125 
C 25.703125 3.265625 16.703125 6.015625 11.5 8.75 
C 9.203125 9.96875 7.203125 11.59375 5.09375 13.015625 
" id="Computer_Modern_Bright-83"/>
     </defs>
     <g style="fill:#262626;" transform="translate(110.547714 106.098444)scale(0.14 -0.14)">
      <use transform="scale(0.996264)" xlink:href="#Computer_Modern_Bright-83"/>
      <use transform="translate(56.454753 0)scale(0.996264)" xlink:href="#Computer_Modern_Bright-117"/>
      <use transform="translate(104.60725 0)scale(0.996264)" xlink:href="#Computer_Modern_Bright-112"/>
      <use transform="translate(152.759747 0)scale(0.996264)" xlink:href="#Computer_Modern_Bright-112"/>
      <use transform="translate(198.006514 0)scale(0.996264)" xlink:href="#Computer_Modern_Bright-114"/>
      <use transform="translate(229.969873 0)scale(0.996264)" xlink:href="#Computer_Modern_Bright-101"/>
      <use transform="translate(274.801541 0)scale(0.996264)" xlink:href="#Computer_Modern_Bright-115"/>
      <use transform="translate(313.24057 0)scale(0.996264)" xlink:href="#Computer_Modern_Bright-115"/>
      <use transform="translate(351.679599 0)scale(0.996264)" xlink:href="#Computer_Modern_Bright-105"/>
      <use transform="translate(370.774558 0)scale(0.996264)" xlink:href="#Computer_Modern_Bright-111"/>
      <use transform="translate(421.417776 0)scale(0.996264)" xlink:href="#Computer_Modern_Bright-110"/>
     </g>
    </g>
    <g id="line2d_30">
     <path d="M 71.347714 120.323055 
L 99.347714 120.323055 
" style="fill:none;stroke:#0000ff;stroke-linecap:round;stroke-width:2;"/>
    </g>
    <g id="line2d_31"/>
    <g id="text_20">
     <!-- \emph{egl-9} $&gt;$ \emph{vhl-1} -->
     <g style="fill:#262626;" transform="translate(110.547714 125.223055)scale(0.14 -0.14)">
      <use transform="scale(0.996264)" xlink:href="#Computer_Modern_Bright_Slanted-101"/>
      <use transform="translate(44.831668 0)scale(0.996264)" xlink:href="#Computer_Modern_Bright_Slanted-103"/>
      <use transform="translate(92.984165 0)scale(0.996264)" xlink:href="#Computer_Modern_Bright_Slanted-108"/>
      <use transform="translate(112.079123 0)scale(0.996264)" xlink:href="#Computer_Modern_Bright_Slanted-45"/>
      <use transform="translate(145.287797 0)scale(0.996264)" xlink:href="#Computer_Modern_Bright_Slanted-57"/>
      <use transform="translate(238.372567 0)scale(0.996264)" xlink:href="#Computer_Modern_Bright_Math_Slanted-62"/>
      <use transform="translate(347.325246 0)scale(0.996264)" xlink:href="#Computer_Modern_Bright_Slanted-118"/>
      <use transform="translate(389.666284 0)scale(0.996264)" xlink:href="#Computer_Modern_Bright_Slanted-104"/>
      <use transform="translate(437.818781 0)scale(0.996264)" xlink:href="#Computer_Modern_Bright_Slanted-108"/>
      <use transform="translate(456.91374 0)scale(0.996264)" xlink:href="#Computer_Modern_Bright_Slanted-45"/>
      <use transform="translate(490.122414 0)scale(0.996264)" xlink:href="#Computer_Modern_Bright_Slanted-49"/>
     </g>
    </g>
   </g>
  </g>
 </g>
 <defs>
  <clipPath id="pd9577df852">
   <rect height="298.98" width="446.4" x="58.747714" y="7.2"/>
  </clipPath>
 </defs>
</svg>
