<?xml version="1.0" encoding="utf-8" standalone="no"?>
<!DOCTYPE svg PUBLIC "-//W3C//DTD SVG 1.1//EN"
  "http://www.w3.org/Graphics/SVG/1.1/DTD/svg11.dtd">
<!-- Created with matplotlib (http://matplotlib.org/) -->
<svg height="353pt" version="1.1" viewBox="0 0 508 353" width="508pt" xmlns="http://www.w3.org/2000/svg" xmlns:xlink="http://www.w3.org/1999/xlink">
 <defs>
  <style type="text/css">
*{stroke-linecap:butt;stroke-linejoin:round;}
  </style>
 </defs>
 <g id="figure_1">
  <g id="patch_1">
   <path d="M 0 353.548374 
L 508.628355 353.548374 
L 508.628355 0 
L 0 0 
z
" style="fill:#ffffff;"/>
  </g>
  <g id="axes_1">
   <g id="patch_2">
    <path d="M 55.028355 306.18 
L 501.428355 306.18 
L 501.428355 7.2 
L 55.028355 7.2 
z
" style="fill:#eaeaf2;"/>
   </g>
   <g id="matplotlib.axis_1">
    <g id="xtick_1">
     <g id="line2d_1"/>
     <g id="text_1">
      <!-- $-1.2$ -->
      <defs>
       <path d="M 9.796875 28.078125 
C 8 27.484375 7.796875 24.78125 9.796875 24.28125 
C 10.296875 24.078125 10.90625 24.1875 11.5 24.1875 
L 64.703125 24.1875 
C 65.90625 24.1875 67.796875 23.78125 68.796875 24.78125 
C 69.90625 25.875 69.296875 27.875 67.703125 28.1875 
C 66.5 28.375 65.09375 28.1875 63.90625 28.1875 
L 11.40625 28.1875 
C 10.90625 28.1875 10.296875 28.28125 9.796875 28.078125 
" id="Computer_Modern_Bright_Math_Symbols-0"/>
       <path d="M 9.703125 60.015625 
L 9.703125 55 
C 15.203125 55 19 56 23.40625 57.90625 
L 23.40625 5.015625 
L 10.296875 5.015625 
L 10.296875 0 
L 43 0 
L 43 5.015625 
L 29.90625 5.015625 
L 29.90625 67 
C 27.5 67 27.90625 66.359375 26 64.875 
C 21.90625 61.71875 16.203125 60.015625 9.703125 60.015625 
" id="Computer_Modern_Bright-49"/>
       <path d="M 10.703125 7.8125 
L 10.703125 0 
L 18.5 0 
L 18.5 7.8125 
z
" id="Computer_Modern_Bright_Math_Slanted-58"/>
       <path d="M 7.296875 45.96875 
C 8.703125 51.59375 11.09375 57.984375 16.796875 60.5 
C 19.203125 61.5 21.796875 61.703125 24.40625 61.5 
C 29.296875 61.09375 34.09375 59.09375 37.09375 55.09375 
C 39.296875 52.078125 40.09375 48.375 39.703125 44.78125 
C 38.5 34.34375 28.296875 26.84375 21.703125 21.234375 
C 17.90625 18.03125 7.09375 7.8125 7.09375 7.8125 
L 5.40625 6.203125 
C 4.5 5.3125 4.40625 5.3125 4.40625 3.5 
L 4.40625 0 
L 46.40625 0 
L 46.40625 5.625 
L 10.203125 5.625 
C 13.40625 8.734375 26.703125 20.515625 28.5 21.921875 
C 34.296875 26.65625 40.796875 31.375 44.296875 38.21875 
C 48.203125 46.0625 46.5 55.9375 39.90625 61.765625 
C 35.90625 65.296875 30.40625 67 25.09375 67 
C 20.203125 67 15.203125 66 11.296875 62.90625 
C 8.296875 60.390625 5.796875 56.6875 4.40625 52.875 
C 4.09375 52.28125 3.59375 51.28125 3.703125 50.578125 
C 3.796875 49.984375 4.40625 49.484375 4.703125 49.078125 
C 5.5 48.078125 6.296875 46.875 7.296875 45.96875 
" id="Computer_Modern_Bright-50"/>
      </defs>
      <g style="fill:#262626;" transform="translate(43.666692 324.249603)scale(0.16 -0.16)">
       <use transform="scale(0.996264)" xlink:href="#Computer_Modern_Bright_Math_Symbols-0"/>
       <use transform="translate(77.487468 0)scale(0.996264)" xlink:href="#Computer_Modern_Bright-49"/>
       <use transform="translate(128.130685 0)scale(0.996264)" xlink:href="#Computer_Modern_Bright_Math_Slanted-58"/>
       <use transform="translate(157.188132 0)scale(0.996264)" xlink:href="#Computer_Modern_Bright-50"/>
      </g>
     </g>
    </g>
    <g id="xtick_2">
     <g id="line2d_2"/>
     <g id="text_2">
      <!-- $-1.0$ -->
      <defs>
       <path d="M 14.796875 63.859375 
C 11.90625 61.859375 9.90625 59.140625 8.40625 56.03125 
C 4.796875 49 4.40625 40.765625 4.40625 31.828125 
C 4.40625 20.578125 6.40625 10.25 12 4.3125 
C 17.296875 -1.203125 25.703125 -2.609375 32.796875 0.296875 
C 37.203125 2.015625 40.40625 5.71875 42.40625 9.734375 
C 46 16.875 46.40625 25.40625 46.40625 34.234375 
C 46.40625 37.046875 46.296875 39.859375 46 42.671875 
C 45.296875 49.40625 43 56.828125 39.296875 60.953125 
C 33.203125 67.6875 22.296875 69.1875 14.796875 63.859375 
M 34.90625 58.140625 
C 39.59375 53.125 40 43.484375 40 34.34375 
L 40 28.921875 
C 40 24.296875 39.203125 18.28125 38.203125 14.859375 
C 36.796875 10.140625 34.5 6.734375 29.90625 4.625 
C 24.296875 2.609375 18.5 4.515625 15.296875 8.9375 
C 11 14.65625 10.796875 24.796875 10.796875 33.734375 
C 10.796875 42.171875 10.90625 51.515625 15 57.03125 
C 19.5 63.0625 29.203125 64.0625 34.90625 58.140625 
" id="Computer_Modern_Bright-48"/>
      </defs>
      <g style="fill:#262626;" transform="translate(110.551658 324.249603)scale(0.16 -0.16)">
       <use transform="scale(0.996264)" xlink:href="#Computer_Modern_Bright_Math_Symbols-0"/>
       <use transform="translate(77.487468 0)scale(0.996264)" xlink:href="#Computer_Modern_Bright-49"/>
       <use transform="translate(128.130685 0)scale(0.996264)" xlink:href="#Computer_Modern_Bright_Math_Slanted-58"/>
       <use transform="translate(157.188132 0)scale(0.996264)" xlink:href="#Computer_Modern_Bright-48"/>
      </g>
     </g>
    </g>
    <g id="xtick_3">
     <g id="line2d_3"/>
     <g id="text_3">
      <!-- $-0.8$ -->
      <defs>
       <path d="M 18.703125 36 
L 18.703125 35.90625 
C 12.5 34.09375 7.296875 30.6875 4.796875 24.84375 
C 2.203125 18.71875 4 11.28125 8.40625 6.453125 
C 13.09375 1.421875 19.5 -1 26.296875 -1 
C 36.296875 -1 45.90625 6.40625 47.09375 16.734375 
C 47.296875 18.265625 47.203125 19.890625 47 21.40625 
C 45.203125 29.21875 39.5 33.875 32.09375 35.90625 
C 32.90625 36.203125 33.796875 36.40625 34.59375 36.703125 
C 38.796875 38.421875 42.296875 40.921875 44.5 44.9375 
C 47.796875 51.375 44.59375 58.90625 39.203125 63.015625 
C 33.796875 67.140625 26.5 68.234375 19.90625 66.828125 
C 12 65.125 4.5 58.40625 5 49.765625 
C 5.203125 46.75 6.5 44.234375 8 42.4375 
C 10.296875 39.625 14.796875 36.609375 18.703125 36 
M 23.796875 62.5 
C 28.203125 62.5 33.703125 62 36.90625 58.578125 
C 40.703125 54.46875 40.90625 47.03125 37.09375 42.8125 
C 34.703125 40.203125 31.203125 38.890625 27.703125 38.59375 
C 22.796875 38.1875 17.203125 39 13.703125 42.8125 
C 9.796875 47.125 10.09375 54.96875 14.296875 58.984375 
C 16.90625 61.390625 20.40625 62.1875 23.796875 62.5 
M 23.703125 33.5 
C 28.40625 33.5 33.5 32.390625 36.90625 28.9375 
C 38.203125 27.53125 39.203125 25.8125 39.796875 24.015625 
C 41.5 18.75 40.703125 12.09375 36.796875 8.046875 
C 34.09375 5.328125 30.40625 4.3125 26.703125 4.015625 
C 22.203125 4.015625 17 5.109375 13.796875 8.5625 
C 9.40625 13.390625 8.5 23.40625 13.703125 29.0625 
C 16.296875 31.78125 20 33.203125 23.703125 33.5 
" id="Computer_Modern_Bright-56"/>
      </defs>
      <g style="fill:#262626;" transform="translate(177.436625 324.249603)scale(0.16 -0.16)">
       <use transform="scale(0.996264)" xlink:href="#Computer_Modern_Bright_Math_Symbols-0"/>
       <use transform="translate(77.487468 0)scale(0.996264)" xlink:href="#Computer_Modern_Bright-48"/>
       <use transform="translate(128.130685 0)scale(0.996264)" xlink:href="#Computer_Modern_Bright_Math_Slanted-58"/>
       <use transform="translate(157.188132 0)scale(0.996264)" xlink:href="#Computer_Modern_Bright-56"/>
      </g>
     </g>
    </g>
    <g id="xtick_4">
     <g id="line2d_4"/>
     <g id="text_4">
      <!-- $-0.6$ -->
      <defs>
       <path d="M 11.296875 32.625 
L 11.203125 32.625 
C 11.203125 41.765625 12.796875 52.421875 20.59375 58.25 
C 24.90625 61.375 30.703125 62.96875 38.203125 61.171875 
C 39.796875 60.765625 41.296875 60.15625 42.796875 59.765625 
L 42.796875 63.28125 
C 42.796875 63.671875 42.90625 64.375 42.59375 64.78125 
C 41.90625 65.6875 36.296875 66.59375 36.09375 66.59375 
C 27.40625 67.59375 21.703125 65.6875 16.40625 61.171875 
C 10 55.640625 6.296875 47.515625 5.09375 39.28125 
C 4 32.65625 4.90625 22 6.203125 16.78125 
C 8.296875 9.046875 12.296875 2.21875 19.703125 -0.390625 
C 24.09375 -2 29.5 -2 33.703125 0.015625 
C 37.09375 1.640625 39.90625 4.46875 42.09375 7.5 
C 45.59375 12.34375 46.5 18.21875 46.09375 24.171875 
C 45.90625 27.109375 45.5 30.046875 44.296875 32.765625 
C 42.40625 37.125 39.203125 41.671875 35.09375 43.6875 
C 33.203125 44.5 31.203125 44.5 29.203125 44.5 
C 23.90625 44.5 18.90625 42.1875 15.203125 38.359375 
C 13.59375 36.75 12 34.71875 11.296875 32.625 
M 24.40625 39.515625 
C 28.203125 39.8125 32.203125 39.21875 35.09375 36.5 
C 38.90625 32.890625 39.59375 27.765625 39.59375 22.8125 
C 39.59375 19.46875 39.703125 16.015625 38.703125 12.859375 
C 38.09375 11.234375 37.296875 9.828125 36.40625 8.5 
C 34.203125 5.5625 31.40625 4.125 26.796875 3.515625 
C 22.296875 3.515625 17.796875 5.3125 15.203125 9.125 
C 13.59375 11.328125 12.796875 14.046875 12.296875 16.640625 
C 11.703125 19.34375 11.296875 22.140625 11.5 24.859375 
C 12 31.984375 17 38.515625 24.40625 39.515625 
" id="Computer_Modern_Bright-54"/>
      </defs>
      <g style="fill:#262626;" transform="translate(244.321591 324.249603)scale(0.16 -0.16)">
       <use transform="scale(0.996264)" xlink:href="#Computer_Modern_Bright_Math_Symbols-0"/>
       <use transform="translate(77.487468 0)scale(0.996264)" xlink:href="#Computer_Modern_Bright-48"/>
       <use transform="translate(128.130685 0)scale(0.996264)" xlink:href="#Computer_Modern_Bright_Math_Slanted-58"/>
       <use transform="translate(157.188132 0)scale(0.996264)" xlink:href="#Computer_Modern_Bright-54"/>
      </g>
     </g>
    </g>
    <g id="xtick_5">
     <g id="line2d_5"/>
     <g id="text_5">
      <!-- $-0.4$ -->
      <defs>
       <path d="M 2.09375 18 
L 31 18 
L 31 0 
L 37.296875 0 
L 37.296875 18 
L 48.703125 18 
L 48.703125 23.328125 
L 37.296875 23.328125 
L 37.296875 66.46875 
L 31.90625 66.46875 
C 30.09375 66.46875 29.59375 66.578125 28.796875 65.0625 
C 24.796875 58.515625 3.703125 25.765625 3 24.859375 
C 2.203125 23.4375 2.09375 23.546875 2.09375 21.4375 
z
M 31.296875 60.875 
L 31.296875 23.328125 
L 8.59375 23.328125 
C 9.296875 24.734375 10.296875 26.03125 11.203125 27.4375 
C 16.203125 35.171875 28.09375 53.546875 30.59375 59.28125 
C 30.90625 59.78125 31 60.375 31.296875 60.875 
" id="Computer_Modern_Bright-52"/>
      </defs>
      <g style="fill:#262626;" transform="translate(311.206557 324.249603)scale(0.16 -0.16)">
       <use transform="scale(0.996264)" xlink:href="#Computer_Modern_Bright_Math_Symbols-0"/>
       <use transform="translate(77.487468 0)scale(0.996264)" xlink:href="#Computer_Modern_Bright-48"/>
       <use transform="translate(128.130685 0)scale(0.996264)" xlink:href="#Computer_Modern_Bright_Math_Slanted-58"/>
       <use transform="translate(157.188132 0)scale(0.996264)" xlink:href="#Computer_Modern_Bright-52"/>
      </g>
     </g>
    </g>
    <g id="xtick_6">
     <g id="line2d_6"/>
     <g id="text_6">
      <!-- $-0.2$ -->
      <g style="fill:#262626;" transform="translate(378.091524 324.249603)scale(0.16 -0.16)">
       <use transform="scale(0.996264)" xlink:href="#Computer_Modern_Bright_Math_Symbols-0"/>
       <use transform="translate(77.487468 0)scale(0.996264)" xlink:href="#Computer_Modern_Bright-48"/>
       <use transform="translate(128.130685 0)scale(0.996264)" xlink:href="#Computer_Modern_Bright_Math_Slanted-58"/>
       <use transform="translate(157.188132 0)scale(0.996264)" xlink:href="#Computer_Modern_Bright-50"/>
      </g>
     </g>
    </g>
    <g id="xtick_7">
     <g id="line2d_7"/>
     <g id="text_7">
      <!-- $0.0$ -->
      <g style="fill:#262626;" transform="translate(451.175488 324.249603)scale(0.16 -0.16)">
       <use transform="scale(0.996264)" xlink:href="#Computer_Modern_Bright-48"/>
       <use transform="translate(50.643218 0)scale(0.996264)" xlink:href="#Computer_Modern_Bright_Math_Slanted-58"/>
       <use transform="translate(79.700665 0)scale(0.996264)" xlink:href="#Computer_Modern_Bright-48"/>
      </g>
     </g>
    </g>
    <g id="text_8">
     <!-- Epistasis Coefficient -->
     <defs>
      <path d="M 8 69.328125 
L 8 0 
L 55.40625 0 
L 55.40625 5.625 
L 15 5.625 
L 15 33.671875 
L 51.09375 33.671875 
L 51.09375 39 
L 15 39 
L 15 64 
L 54 64 
L 54 69.328125 
z
" id="Computer_Modern_Bright-69"/>
      <path d="M 12.703125 40.53125 
L 12.703125 47.15625 
L 6.40625 47.15625 
L 6.40625 -17 
L 12.796875 -17 
L 12.796875 6.09375 
C 14.203125 4.078125 15.796875 2.28125 17.90625 1.078125 
C 25 -3.25 34 0.171875 38.90625 6.59375 
C 45.40625 14.96875 46.09375 27.5 41.59375 36.984375 
C 39 42.4375 34.09375 47.5 27.796875 48 
C 22.296875 48 18.09375 45.8125 15.09375 43.125 
C 14.203125 42.328125 13.5 41.4375 12.703125 40.53125 
M 21.90625 42.875 
C 26 43.171875 30 41.265625 32.796875 38.265625 
C 34.5 36.34375 35.796875 34.140625 36.59375 31.734375 
C 40.09375 22.296875 36.90625 9.234375 26.796875 5.328125 
C 21 3.109375 15.296875 5.125 13.09375 10.546875 
C 12.59375 11.546875 12.796875 12.859375 12.796875 13.953125 
L 12.796875 34.640625 
C 12.796875 36.953125 13 37.15625 14.5 38.859375 
C 16.296875 41.0625 19 42.578125 21.90625 42.875 
" id="Computer_Modern_Bright-112"/>
      <path d="M 6.40625 70 
L 6.40625 63.671875 
L 12.703125 63.671875 
L 12.703125 70 
z
M 6.40625 47.390625 
L 6.40625 0 
L 12.703125 0 
L 12.703125 47.390625 
z
" id="Computer_Modern_Bright-105"/>
      <path d="M 3.09375 9.640625 
C 2.90625 8.234375 2.59375 6.9375 2.40625 5.53125 
C 2.203125 4.421875 1.90625 3.921875 2.90625 3.421875 
C 7 1.015625 11.90625 -0.296875 17.703125 -0.796875 
C 24.203125 -1.40625 32.40625 0.109375 35.59375 6.53125 
C 36.5 8.34375 37 10.34375 37.09375 12.359375 
C 37.5 19.578125 31.796875 24.203125 26.90625 25.90625 
C 21.40625 28.015625 13.90625 27.3125 10.09375 31.53125 
C 8.09375 33.84375 8 37.265625 9.90625 39.671875 
C 13.90625 45.296875 26.796875 42.875 31.90625 40.375 
C 32.703125 39.96875 33.40625 39.46875 34.296875 39.265625 
L 35.203125 44.6875 
C 30.5 46.796875 26.40625 48 19.90625 48 
C 14.296875 48 9.203125 46.703125 6 43.484375 
C 2.796875 40.171875 1.703125 34.640625 3.59375 30.4375 
C 5.40625 26.40625 9.203125 23.796875 13.296875 22.5 
C 19.203125 20.390625 25.90625 21.390625 29.796875 16.578125 
C 32 13.765625 31.59375 9.546875 29.09375 7.03125 
C 24.296875 2.609375 14.09375 4.21875 8.5 6.625 
C 6.59375 7.4375 4.90625 8.640625 3.09375 9.640625 
" id="Computer_Modern_Bright-115"/>
      <path d="M 10.796875 60.5 
L 10.796875 47.015625 
L 1.09375 47.015625 
L 1.09375 42 
L 10.703125 42 
L 10.703125 15.015625 
C 10.703125 10.578125 10.40625 5.234375 13.296875 1.515625 
C 15 -0.703125 17.296875 -1.296875 20.796875 -1 
C 23.703125 -1 26.59375 -0.390625 29.296875 0.65625 
C 30.203125 1.0625 33.5 2.515625 33.90625 3.234375 
C 34.09375 3.640625 32.796875 8.09375 32.796875 8.09375 
L 30.40625 6.265625 
C 27.296875 4.34375 21.09375 2.328125 18.5 5.96875 
C 16.203125 9.09375 16.796875 13.75 16.796875 17.375 
L 16.796875 42 
L 32.296875 42 
L 32.296875 47.015625 
L 16.796875 47.015625 
L 16.796875 60.5 
z
" id="Computer_Modern_Bright-116"/>
      <path d="M 7.90625 39.015625 
C 9.59375 39.859375 11 41.09375 12.703125 41.921875 
C 15.40625 43.15625 18.203125 44 21.203125 44 
C 22.59375 44.09375 24.203125 44.296875 25.59375 44 
C 28.09375 43.59375 30.296875 42.078125 31.796875 39.953125 
C 33.296875 37.515625 33.90625 35.390625 33.90625 31.46875 
L 33.90625 27.015625 
C 29.09375 27.015625 24.296875 26.609375 19.703125 25.390625 
C 13.90625 24.078125 7.59375 21.125 5.5 15.84375 
C 3.40625 10.78125 5.59375 4.078125 10.09375 1.03125 
C 12.296875 -0.5 14.90625 -0.5 17.5 -0.296875 
C 21.703125 0 25.90625 1.015625 29.5 3.25 
C 31.203125 4.25 32.90625 5.578125 33.90625 7.296875 
L 34 7.296875 
L 34 0.203125 
L 40.296875 0.203125 
L 40.296875 26.890625 
C 40.296875 29.8125 40.59375 32.953125 40 35.890625 
C 39.40625 39.921875 36.90625 43.265625 34 45.59375 
C 30.59375 48.21875 26.703125 49.109375 21.5 48.71875 
C 16.703125 48.71875 13 47.5 9.40625 45.765625 
C 8.90625 45.5625 7.90625 45.234375 7.59375 44.640625 
C 7.296875 44.21875 7.5 43.515625 7.5 43 
C 7.703125 41.671875 7.796875 40.34375 7.90625 39.015625 
M 33.90625 24 
L 33.90625 16.375 
C 33.90625 14.0625 34 11.953125 32.703125 9.953125 
C 31.59375 8.34375 30.09375 7.234375 28.5 6.4375 
C 22.796875 3.515625 14.09375 4.421875 11.59375 9.25 
C 9.59375 12.75 11.703125 16.875 14.59375 19.1875 
C 18.90625 22.5 27.296875 24 33.90625 24 
" id="Computer_Modern_Bright-97"/>
      <path d="M 60.5 10.875 
C 58.5 9.859375 56.703125 8.453125 54.703125 7.453125 
C 50 5.046875 44 4.140625 37.5 4.734375 
C 31.703125 5.546875 26.90625 8.359375 23.40625 11.875 
C 12.203125 23.15625 11.40625 42.96875 21.296875 55.34375 
C 25.5 60.875 31.90625 65 41.296875 65 
C 45.09375 65 49 64.296875 52.5 62.890625 
C 54.59375 61.96875 56.59375 60.765625 58.59375 59.765625 
L 59.796875 66.8125 
C 57.59375 67.671875 55.296875 68.5625 53 69.09375 
C 47.40625 70.625 38.90625 70.625 33.09375 69.21875 
C 22.90625 66.921875 15.5 59.828125 11.296875 51.625 
C 5.5 40.015625 6.203125 25.515625 13.203125 14.59375 
C 15 11.703125 17.296875 9.109375 19.90625 6.890625 
C 25.90625 1.6875 33.296875 -1.3125 43.59375 -0.5 
C 49.796875 -0.5 53.40625 0.515625 58.203125 3.203125 
C 58.703125 3.5 60.59375 4.515625 60.90625 4.9375 
C 61.09375 5.4375 60.59375 9.53125 60.5 10.875 
" id="Computer_Modern_Bright-67"/>
      <path d="M 10.703125 42.078125 
C 1.796875 33.234375 0.796875 17.875 8.5 7.9375 
C 9.59375 6.421875 10.90625 5.125 12.40625 4.015625 
C 16.09375 1 21.5 -1.203125 27.796875 -0.5 
C 37.796875 0.703125 44.703125 8.84375 46.796875 17.375 
C 49.59375 29.328125 43.703125 42.671875 32.703125 46.890625 
C 24.09375 50.40625 15.5 46.890625 10.703125 42.078125 
M 35.703125 39.359375 
C 40.5 35.03125 41.40625 28.109375 41 21.984375 
C 40.703125 17.265625 39.40625 12.34375 36.09375 8.828125 
C 30.703125 3 20.703125 3 14.90625 8.625 
C 11.90625 11.84375 10.09375 16.453125 9.796875 21.984375 
C 9.296875 30.109375 11.296875 38.75 19.296875 41.96875 
C 25.203125 44.578125 32 42.671875 35.703125 39.359375 
" id="Computer_Modern_Bright-111"/>
      <path d="M 41.796875 10.9375 
C 39.5 9.234375 38.796875 8.328125 35.90625 6.8125 
C 29.796875 3.5 22.59375 3.5 17.40625 7.171875 
C 12.40625 10.765625 9.5 16.640625 9.5 25 
L 42.5 25 
C 42.5 32.421875 40.796875 38.859375 36.59375 43.375 
C 32 47.890625 24.796875 49.296875 18.703125 47.390625 
C 16.40625 46.6875 14.296875 45.484375 12.40625 43.96875 
C 6.09375 38.859375 3.40625 30.71875 3.5 22.78125 
C 3.703125 12.34375 10.796875 1.90625 21.296875 -0.3125 
C 26.796875 -1.421875 32.59375 -0.203125 37.5 2.296875 
C 38.40625 2.796875 41.703125 4.609375 42.09375 5.515625 
C 42.40625 6.015625 41.796875 10.9375 41.796875 10.9375 
M 37.203125 28.90625 
L 10 28.90625 
C 11.203125 36.234375 17.203125 43.96875 25.296875 43.0625 
C 31.90625 42.46875 35.40625 37.75 36.703125 31.828125 
C 36.90625 30.8125 37 29.921875 37.203125 28.90625 
" id="Computer_Modern_Bright-101"/>
      <path d="M 10.59375 47.015625 
L 2 47.015625 
L 2 42 
L 10.59375 42 
L 10.59375 0 
L 16.90625 0 
L 16.90625 42 
L 30.09375 42 
L 30.09375 47.015625 
L 16.796875 47.015625 
L 16.796875 56.234375 
C 16.796875 57.890625 16.59375 59.65625 17.296875 61.21875 
C 19.5 65.875 25.40625 65.875 29.59375 65.078125 
C 30.59375 64.875 31.703125 64.46875 32.703125 64.265625 
L 32.703125 69.90625 
C 27.703125 70.609375 22.296875 71.21875 17.703125 68.46875 
C 15.796875 67.4375 14.203125 65.6875 13 63.921875 
C 11.09375 60.9375 10.59375 58.78125 10.59375 53.71875 
z
M 38.09375 0 
L 44.40625 0 
L 44.40625 42 
L 57.59375 42 
L 57.59375 47.015625 
L 44.296875 47.015625 
L 44.296875 55.234375 
C 44.296875 56.890625 44.09375 58.65625 44.40625 60.328125 
C 44.90625 62.296875 46.09375 63.65625 47.703125 64.671875 
C 50.796875 66.171875 54.40625 65.078125 57.59375 64.171875 
L 57.59375 70 
C 55.09375 70.1875 52.703125 70.6875 50.203125 70.5 
C 43.40625 70 38.59375 64.046875 38.09375 57.3125 
C 38 55.890625 38.09375 54.375 38.09375 52.96875 
z
M 65.59375 70 
L 65.59375 63.671875 
L 71.90625 63.671875 
L 71.90625 70 
z
M 65.59375 47.390625 
L 65.59375 0 
L 71.90625 0 
L 71.90625 47.390625 
z
" id="Computer_Modern_Bright-14"/>
      <path d="M 42.40625 11.25 
C 40.5 9.84375 38.796875 8.328125 36.703125 7.125 
C 32 4.625 24.796875 3.421875 19.40625 5.921875 
C 11.59375 9.9375 9.5 19.6875 10.59375 27.71875 
C 10.796875 29.328125 11.09375 30.921875 11.59375 32.4375 
C 13.796875 38.96875 19.296875 44.078125 28.296875 43.078125 
C 33.09375 42.671875 35.5 41.875 39.296875 39.765625 
C 40 39.359375 40.59375 38.859375 41.40625 38.65625 
C 41.5 39.859375 41.796875 41.171875 42 42.375 
C 42.296875 43.984375 42.296875 44.1875 40.796875 44.890625 
C 39.703125 45.390625 38.59375 45.984375 37.40625 46.390625 
C 32.796875 48.40625 25.203125 49 20 47.5 
C 12.90625 45.484375 7.59375 39.359375 5.296875 32.53125 
C 4.203125 29.421875 3.90625 26.109375 3.90625 22.796875 
C 4 12.25 11.203125 1.90625 21.703125 -0.203125 
C 27.5 -1.40625 34.203125 0.296875 38.203125 2.40625 
C 39.203125 2.90625 42.203125 4.71875 42.703125 5.625 
C 43 6.125 42.40625 11.25 42.40625 11.25 
" id="Computer_Modern_Bright-99"/>
      <path d="M 12.59375 37.28125 
L 12.5 37.28125 
L 12.5 47.390625 
L 6.40625 47.390625 
L 6.40625 0 
L 12.796875 0 
L 12.796875 21.9375 
C 12.796875 26.84375 12.5 31.875 14.703125 36.46875 
C 15.796875 38.78125 17.5 40.78125 19.796875 41.984375 
C 21.703125 42.890625 23.703125 42.890625 25.796875 42.6875 
C 28.796875 42.6875 31.703125 41.890625 33.59375 39.375 
C 35.40625 37.0625 35.5 34.0625 35.5 31.25 
L 35.5 0 
L 41.90625 0 
L 41.90625 26.859375 
C 41.90625 31.875 42.40625 37.375 40 41.890625 
C 38.09375 45.5 34.40625 47.203125 30.5 47.703125 
C 28.5 48 26.40625 48 24.40625 47.609375 
C 19.203125 46.5 14.40625 42.296875 12.59375 37.28125 
" id="Computer_Modern_Bright-110"/>
     </defs>
     <g style="fill:#262626;" transform="translate(205.672064 343.359582)scale(0.18 -0.18)">
      <use transform="scale(0.996264)" xlink:href="#Computer_Modern_Bright-69"/>
      <use transform="translate(58.737787 0)scale(0.996264)" xlink:href="#Computer_Modern_Bright-112"/>
      <use transform="translate(106.890284 0)scale(0.996264)" xlink:href="#Computer_Modern_Bright-105"/>
      <use transform="translate(125.985243 0)scale(0.996264)" xlink:href="#Computer_Modern_Bright-115"/>
      <use transform="translate(164.424272 0)scale(0.996264)" xlink:href="#Computer_Modern_Bright-116"/>
      <use transform="translate(200.53866 0)scale(0.996264)" xlink:href="#Computer_Modern_Bright-97"/>
      <use transform="translate(247.030742 0)scale(0.996264)" xlink:href="#Computer_Modern_Bright-115"/>
      <use transform="translate(285.469772 0)scale(0.996264)" xlink:href="#Computer_Modern_Bright-105"/>
      <use transform="translate(304.56473 0)scale(0.996264)" xlink:href="#Computer_Modern_Bright-115"/>
      <use transform="translate(374.468971 0)scale(0.996264)" xlink:href="#Computer_Modern_Bright-67"/>
      <use transform="translate(439.641004 0)scale(0.996264)" xlink:href="#Computer_Modern_Bright-111"/>
      <use transform="translate(490.284222 0)scale(0.996264)" xlink:href="#Computer_Modern_Bright-101"/>
      <use transform="translate(535.115889 0)scale(0.996264)" xlink:href="#Computer_Modern_Bright-14"/>
      <use transform="translate(613.156322 0)scale(0.996264)" xlink:href="#Computer_Modern_Bright-99"/>
      <use transform="translate(657.987989 0)scale(0.996264)" xlink:href="#Computer_Modern_Bright-105"/>
      <use transform="translate(677.082948 0)scale(0.996264)" xlink:href="#Computer_Modern_Bright-101"/>
      <use transform="translate(721.914616 0)scale(0.996264)" xlink:href="#Computer_Modern_Bright-110"/>
      <use transform="translate(770.067113 0)scale(0.996264)" xlink:href="#Computer_Modern_Bright-116"/>
     </g>
    </g>
   </g>
   <g id="matplotlib.axis_2">
    <g id="ytick_1">
     <g id="line2d_8"/>
     <g id="text_9">
      <!-- $0.0$ -->
      <g style="fill:#262626;" transform="translate(26.642062 298.124802)scale(0.16 -0.16)">
       <use transform="scale(0.996264)" xlink:href="#Computer_Modern_Bright-48"/>
       <use transform="translate(50.643218 0)scale(0.996264)" xlink:href="#Computer_Modern_Bright_Math_Slanted-58"/>
       <use transform="translate(79.700665 0)scale(0.996264)" xlink:href="#Computer_Modern_Bright-48"/>
      </g>
     </g>
    </g>
    <g id="ytick_2">
     <g id="line2d_9"/>
     <g id="text_10">
      <!-- $0.2$ -->
      <g style="fill:#262626;" transform="translate(26.642062 243.764068)scale(0.16 -0.16)">
       <use transform="scale(0.996264)" xlink:href="#Computer_Modern_Bright-48"/>
       <use transform="translate(50.643218 0)scale(0.996264)" xlink:href="#Computer_Modern_Bright_Math_Slanted-58"/>
       <use transform="translate(79.700665 0)scale(0.996264)" xlink:href="#Computer_Modern_Bright-50"/>
      </g>
     </g>
    </g>
    <g id="ytick_3">
     <g id="line2d_10"/>
     <g id="text_11">
      <!-- $0.4$ -->
      <g style="fill:#262626;" transform="translate(26.642062 189.403334)scale(0.16 -0.16)">
       <use transform="scale(0.996264)" xlink:href="#Computer_Modern_Bright-48"/>
       <use transform="translate(50.643218 0)scale(0.996264)" xlink:href="#Computer_Modern_Bright_Math_Slanted-58"/>
       <use transform="translate(79.700665 0)scale(0.996264)" xlink:href="#Computer_Modern_Bright-52"/>
      </g>
     </g>
    </g>
    <g id="ytick_4">
     <g id="line2d_11"/>
     <g id="text_12">
      <!-- $0.6$ -->
      <g style="fill:#262626;" transform="translate(26.642062 135.0426)scale(0.16 -0.16)">
       <use transform="scale(0.996264)" xlink:href="#Computer_Modern_Bright-48"/>
       <use transform="translate(50.643218 0)scale(0.996264)" xlink:href="#Computer_Modern_Bright_Math_Slanted-58"/>
       <use transform="translate(79.700665 0)scale(0.996264)" xlink:href="#Computer_Modern_Bright-54"/>
      </g>
     </g>
    </g>
    <g id="ytick_5">
     <g id="line2d_12"/>
     <g id="text_13">
      <!-- $0.8$ -->
      <g style="fill:#262626;" transform="translate(26.642062 80.681866)scale(0.16 -0.16)">
       <use transform="scale(0.996264)" xlink:href="#Computer_Modern_Bright-48"/>
       <use transform="translate(50.643218 0)scale(0.996264)" xlink:href="#Computer_Modern_Bright_Math_Slanted-58"/>
       <use transform="translate(79.700665 0)scale(0.996264)" xlink:href="#Computer_Modern_Bright-56"/>
      </g>
     </g>
    </g>
    <g id="ytick_6">
     <g id="line2d_13"/>
     <g id="text_14">
      <!-- $1.0$ -->
      <g style="fill:#262626;" transform="translate(26.642062 26.321132)scale(0.16 -0.16)">
       <use transform="scale(0.996264)" xlink:href="#Computer_Modern_Bright-49"/>
       <use transform="translate(50.643218 0)scale(0.996264)" xlink:href="#Computer_Modern_Bright_Math_Slanted-58"/>
       <use transform="translate(79.700665 0)scale(0.996264)" xlink:href="#Computer_Modern_Bright-48"/>
      </g>
     </g>
    </g>
    <g id="text_15">
     <!-- Cumulative Density Function -->
     <defs>
      <path d="M 6.40625 47 
L 6.40625 12.96875 
C 6.40625 10.046875 6.5 7.140625 7.703125 4.421875 
C 9.59375 0.515625 13.59375 -1 17.703125 -1 
C 23.203125 -1 28.703125 0.8125 32.703125 4.734375 
C 33.796875 5.828125 34.796875 6.9375 35.5 8.34375 
L 35.59375 8.34375 
L 35.59375 -0.390625 
L 41.90625 -0.390625 
L 41.90625 47 
L 35.5 47 
L 35.5 22.90625 
C 35.5 18.6875 36.09375 14.0625 33.90625 10.25 
C 32.296875 7.4375 29.5 5.234375 26.40625 4.234375 
C 24.296875 3.625 22.09375 3.625 19.90625 3.828125 
C 17.796875 4.03125 15.5 4.234375 14.09375 6.03125 
C 12.09375 8.453125 12.796875 14.171875 12.796875 17.6875 
L 12.796875 47 
z
" id="Computer_Modern_Bright-117"/>
      <path d="M 12.59375 37.359375 
L 12.5 37.359375 
L 12.5 47.390625 
L 6.40625 47.390625 
L 6.40625 0 
L 12.796875 0 
L 12.796875 22.046875 
C 12.796875 26.953125 12.5 31.875 14.703125 36.375 
C 16.59375 40.28125 19.90625 43.390625 25.796875 42.78125 
C 28.796875 42.78125 31.796875 41.984375 33.703125 39.453125 
C 35.5 37.140625 35.59375 34.140625 35.59375 31.3125 
L 35.59375 0 
L 42 0 
L 42 22.046875 
C 42 26.953125 41.703125 31.875 43.90625 36.375 
C 45.796875 40.28125 49.09375 43.390625 55 42.78125 
C 58 42.78125 61 41.984375 62.90625 39.453125 
C 64.703125 37.140625 64.796875 34.140625 64.796875 31.3125 
L 64.796875 0 
L 71.203125 0 
L 71.203125 26.5625 
C 71.203125 31.375 71.796875 36.78125 69.703125 41.1875 
C 67.59375 45.296875 64.203125 47.5 58.703125 47.5 
C 55.5 47.796875 52.296875 47.3125 49.40625 45.84375 
C 45.90625 43.921875 43.296875 40.75 41.703125 37.265625 
C 41 40.578125 40.203125 42.828125 38 45 
C 35.703125 47.0625 32.59375 48 29.59375 48 
C 22.296875 48.59375 17.703125 45.5625 14.59375 41 
C 13.796875 39.875 13 38.671875 12.59375 37.359375 
" id="Computer_Modern_Bright-109"/>
      <path d="M 6.40625 69.6875 
L 6.40625 0 
L 12.703125 0 
L 12.703125 69.6875 
z
" id="Computer_Modern_Bright-108"/>
      <path d="M 0.703125 47.5 
C 1.203125 45.5 4.203125 37.578125 4.40625 37.078125 
C 5.40625 34.28125 17.296875 0.609375 17.59375 0.296875 
C 17.90625 -0.203125 18.796875 0 19.296875 0 
L 22.796875 0 
C 24.09375 0 24.90625 -0.296875 25.203125 0.90625 
C 28.40625 9.328125 40.09375 42.703125 41.796875 47.5 
L 35.59375 47.5 
C 30.796875 33.984375 25.90625 20.4375 21.40625 6.609375 
L 11 36.203125 
C 9.5 39.796875 8.59375 43.890625 6.90625 47.203125 
C 5.09375 47.5 2.796875 47.5 0.703125 47.5 
" id="Computer_Modern_Bright-118"/>
      <path d="M 8 70 
L 8 0 
L 28.203125 0 
C 31.40625 0 34.59375 0 37.703125 0.296875 
C 45.703125 1.109375 52.59375 5.015625 57.203125 9.828125 
C 70.09375 23.171875 70 46.125 57.296875 59.671875 
C 52.703125 64.578125 46.5 68.5 38.703125 69.5 
C 34.90625 70 31 70 27.203125 70 
z
M 14.90625 5.3125 
L 14.90625 64.5625 
L 27.796875 64.5625 
C 30.5 64.5625 33.203125 64.5625 35.90625 64.359375 
C 40.40625 63.859375 44.796875 62.359375 48.5 59.734375 
C 56.59375 54.125 60 44.171875 60 34.640625 
C 60 26.609375 57.796875 18.375 51.90625 12.640625 
C 47.90625 8.9375 42.5 6.21875 36 5.515625 
C 33.40625 5.3125 30.703125 5.3125 28.09375 5.3125 
z
" id="Computer_Modern_Bright-68"/>
      <path d="M 0.703125 47.65625 
C 1.296875 45.75 5.40625 35.609375 5.5 35.3125 
L 17.40625 4.578125 
L 18.40625 2.078125 
C 19 0.671875 19.203125 0.46875 18.59375 -1.140625 
L 17.5 -4.046875 
C 16.59375 -6.46875 15.59375 -8.96875 13.703125 -10.484375 
C 10.296875 -13.296875 4.90625 -11.6875 0.796875 -10.78125 
L 1.296875 -16.5 
C 3.203125 -16.796875 5.09375 -17 7 -17 
C 11.296875 -17.515625 14.09375 -16.5 16.703125 -14.296875 
C 20 -11.484375 21.59375 -7.5625 23.09375 -3.546875 
L 26.203125 5.078125 
L 36.40625 32.90625 
C 38.09375 37.921875 40.203125 42.640625 41.796875 47.65625 
L 37.296875 47.65625 
C 36.796875 47.65625 36 47.859375 35.59375 47.46875 
C 35.40625 47.15625 35.296875 46.765625 35.203125 46.453125 
L 34.40625 44.34375 
C 33.40625 41.734375 32.5 39.234375 31.59375 36.609375 
L 25.796875 20.25 
C 24.296875 15.828125 22.59375 11.3125 21.796875 6.6875 
C 20.703125 11.3125 19.203125 15.734375 17.59375 20.140625 
C 16.296875 23.5625 8.5 44.546875 7.5 46.5625 
C 7.09375 47.65625 6.703125 47.65625 5.203125 47.65625 
z
" id="Computer_Modern_Bright-121"/>
      <path d="M 8 69.328125 
L 8 0 
L 15 0 
L 15 32 
L 48.09375 32 
L 48.09375 37.3125 
L 15 37.3125 
L 15 64 
L 52.40625 64 
L 52.40625 69.328125 
z
" id="Computer_Modern_Bright-70"/>
     </defs>
     <g style="fill:#262626;" transform="translate(19.65327 260.669538)rotate(-90)scale(0.18 -0.18)">
      <use transform="scale(0.996264)" xlink:href="#Computer_Modern_Bright-67"/>
      <use transform="translate(65.172032 0)scale(0.996264)" xlink:href="#Computer_Modern_Bright-117"/>
      <use transform="translate(113.324529 0)scale(0.996264)" xlink:href="#Computer_Modern_Bright-109"/>
      <use transform="translate(190.534656 0)scale(0.996264)" xlink:href="#Computer_Modern_Bright-117"/>
      <use transform="translate(238.687153 0)scale(0.996264)" xlink:href="#Computer_Modern_Bright-108"/>
      <use transform="translate(257.782112 0)scale(0.996264)" xlink:href="#Computer_Modern_Bright-97"/>
      <use transform="translate(304.274194 0)scale(0.996264)" xlink:href="#Computer_Modern_Bright-116"/>
      <use transform="translate(340.388582 0)scale(0.996264)" xlink:href="#Computer_Modern_Bright-105"/>
      <use transform="translate(359.483541 0)scale(0.996264)" xlink:href="#Computer_Modern_Bright-118"/>
      <use transform="translate(401.824579 0)scale(0.996264)" xlink:href="#Computer_Modern_Bright-101"/>
      <use transform="translate(478.121458 0)scale(0.996264)" xlink:href="#Computer_Modern_Bright-68"/>
      <use transform="translate(549.727645 0)scale(0.996264)" xlink:href="#Computer_Modern_Bright-101"/>
      <use transform="translate(594.559312 0)scale(0.996264)" xlink:href="#Computer_Modern_Bright-110"/>
      <use transform="translate(642.711809 0)scale(0.996264)" xlink:href="#Computer_Modern_Bright-115"/>
      <use transform="translate(681.150839 0)scale(0.996264)" xlink:href="#Computer_Modern_Bright-105"/>
      <use transform="translate(700.245798 0)scale(0.996264)" xlink:href="#Computer_Modern_Bright-116"/>
      <use transform="translate(733.454456 0)scale(0.996264)" xlink:href="#Computer_Modern_Bright-121"/>
      <use transform="translate(807.260706 0)scale(0.996264)" xlink:href="#Computer_Modern_Bright-70"/>
      <use transform="translate(860.187034 0)scale(0.996264)" xlink:href="#Computer_Modern_Bright-117"/>
      <use transform="translate(908.339531 0)scale(0.996264)" xlink:href="#Computer_Modern_Bright-110"/>
      <use transform="translate(956.492028 0)scale(0.996264)" xlink:href="#Computer_Modern_Bright-99"/>
      <use transform="translate(1001.323695 0)scale(0.996264)" xlink:href="#Computer_Modern_Bright-116"/>
      <use transform="translate(1037.438083 0)scale(0.996264)" xlink:href="#Computer_Modern_Bright-105"/>
      <use transform="translate(1056.533042 0)scale(0.996264)" xlink:href="#Computer_Modern_Bright-111"/>
      <use transform="translate(1107.17626 0)scale(0.996264)" xlink:href="#Computer_Modern_Bright-110"/>
     </g>
    </g>
   </g>
   <g id="PolyCollection_1">
    <path clip-path="url(#p9b872f73f5)" d="M 272.785811 292.586325 
L 272.785811 292.59 
L 273.077289 292.59 
L 273.368766 292.59 
L 273.660244 292.59 
L 273.951722 292.59 
L 274.2432 292.59 
L 274.534678 292.59 
L 274.826155 292.59 
L 275.117633 292.59 
L 275.409111 292.59 
L 275.700589 292.59 
L 275.992067 292.59 
L 276.283545 292.59 
L 276.575022 292.59 
L 276.8665 292.59 
L 277.157978 292.59 
L 277.449456 292.59 
L 277.740934 292.59 
L 278.032412 292.59 
L 278.323889 292.59 
L 278.615367 292.59 
L 278.906845 292.59 
L 279.198323 292.59 
L 279.489801 292.59 
L 279.781279 292.59 
L 280.072756 292.59 
L 280.364234 292.59 
L 280.655712 292.59 
L 280.94719 292.59 
L 281.238668 292.59 
L 281.530146 292.59 
L 281.821623 292.59 
L 282.113101 292.59 
L 282.404579 292.59 
L 282.696057 292.59 
L 282.987535 292.59 
L 283.279013 292.59 
L 283.57049 292.59 
L 283.861968 292.59 
L 284.153446 292.59 
L 284.444924 292.59 
L 284.736402 292.59 
L 285.02788 292.59 
L 285.319357 292.59 
L 285.610835 292.59 
L 285.902313 292.59 
L 286.193791 292.59 
L 286.485269 292.59 
L 286.776746 292.59 
L 287.068224 292.59 
L 287.359702 292.59 
L 287.65118 292.59 
L 287.942658 292.59 
L 288.234136 292.59 
L 288.525613 292.59 
L 288.817091 292.59 
L 289.108569 292.59 
L 289.400047 292.59 
L 289.691525 292.59 
L 289.983003 292.59 
L 290.27448 292.59 
L 290.565958 292.59 
L 290.857436 292.59 
L 291.148914 292.59 
L 291.440392 292.59 
L 291.73187 292.59 
L 292.023347 292.59 
L 292.314825 292.59 
L 292.606303 292.59 
L 292.897781 292.59 
L 293.189259 292.59 
L 293.480737 292.59 
L 293.772214 292.59 
L 294.063692 292.59 
L 294.35517 292.59 
L 294.646648 292.59 
L 294.938126 292.59 
L 295.229604 292.59 
L 295.521081 292.59 
L 295.812559 292.59 
L 296.104037 292.59 
L 296.395515 292.59 
L 296.686993 292.59 
L 296.978471 292.59 
L 297.269948 292.59 
L 297.561426 292.59 
L 297.852904 292.59 
L 298.144382 292.59 
L 298.43586 292.59 
L 298.727337 292.59 
L 299.018815 292.59 
L 299.310293 292.59 
L 299.601771 292.59 
L 299.893249 292.59 
L 300.184727 292.59 
L 300.476204 292.59 
L 300.767682 292.59 
L 301.05916 292.59 
L 301.350638 292.59 
L 301.642116 292.59 
L 301.933594 292.59 
L 302.225071 292.59 
L 302.516549 292.59 
L 302.808027 292.59 
L 303.099505 292.59 
L 303.390983 292.59 
L 303.682461 292.59 
L 303.973938 292.59 
L 304.265416 292.59 
L 304.556894 292.59 
L 304.848372 292.59 
L 305.13985 292.59 
L 305.431328 292.59 
L 305.722805 292.59 
L 306.014283 292.59 
L 306.305761 292.59 
L 306.597239 292.59 
L 306.888717 292.59 
L 307.180195 292.59 
L 307.471672 292.59 
L 307.76315 292.59 
L 308.054628 292.59 
L 308.346106 292.59 
L 308.637584 292.59 
L 308.929062 292.59 
L 309.220539 292.59 
L 309.512017 292.59 
L 309.803495 292.59 
L 309.803495 20.791392 
L 309.803495 20.791392 
L 309.512017 20.794945 
L 309.220539 20.800657 
L 308.929062 20.809617 
L 308.637584 20.823332 
L 308.346106 20.843822 
L 308.054628 20.873708 
L 307.76315 20.916272 
L 307.471672 20.975488 
L 307.180195 21.055988 
L 306.888717 21.162979 
L 306.597239 21.302077 
L 306.305761 21.479103 
L 306.014283 21.699835 
L 305.722805 21.969777 
L 305.431328 22.293982 
L 305.13985 22.676968 
L 304.848372 23.122797 
L 304.556894 23.635313 
L 304.265416 24.218554 
L 303.973938 24.877308 
L 303.682461 25.617746 
L 303.390983 26.44806 
L 303.099505 27.378997 
L 302.808027 28.424216 
L 302.516549 29.600372 
L 302.225071 30.926905 
L 301.933594 32.425521 
L 301.642116 34.119409 
L 301.350638 36.032284 
L 301.05916 38.18737 
L 300.767682 40.606443 
L 300.476204 43.309054 
L 300.184727 46.311997 
L 299.893249 49.629063 
L 299.601771 53.27103 
L 299.310293 57.245798 
L 299.018815 61.558535 
L 298.727337 66.211693 
L 298.43586 71.204783 
L 298.144382 76.533853 
L 297.852904 82.190703 
L 297.561426 88.161938 
L 297.269948 94.42805 
L 296.978471 100.962704 
L 296.686993 107.732439 
L 296.395515 114.696919 
L 296.104037 121.809784 
L 295.812559 129.020091 
L 295.521081 136.274233 
L 295.229604 143.518185 
L 294.938126 150.699862 
L 294.646648 157.771409 
L 294.35517 164.691188 
L 294.063692 171.425311 
L 293.772214 177.948556 
L 293.480737 184.24457 
L 293.189259 190.305328 
L 292.897781 196.129887 
L 292.606303 201.722557 
L 292.314825 207.090726 
L 292.023347 212.242593 
L 291.73187 217.185139 
L 291.440392 221.92262 
L 291.148914 226.455776 
L 290.857436 230.781883 
L 290.565958 234.895559 
L 290.27448 238.790181 
L 289.983003 242.459594 
L 289.691525 245.899811 
L 289.400047 249.110382 
L 289.108569 252.0952 
L 288.817091 254.862651 
L 288.525613 257.425113 
L 288.234136 259.797943 
L 287.942658 261.998175 
L 287.65118 264.043153 
L 287.359702 265.949328 
L 287.068224 267.731384 
L 286.776746 269.401751 
L 286.485269 270.970519 
L 286.193791 272.445676 
L 285.902313 273.833551 
L 285.610835 275.139347 
L 285.319357 276.367637 
L 285.02788 277.522748 
L 284.736402 278.608986 
L 284.444924 279.630691 
L 284.153446 280.592158 
L 283.861968 281.497472 
L 283.57049 282.350318 
L 283.279013 283.153818 
L 282.987535 283.910443 
L 282.696057 284.622032 
L 282.404579 285.289895 
L 282.113101 285.915015 
L 281.821623 286.498284 
L 281.530146 287.04075 
L 281.238668 287.543828 
L 280.94719 288.009429 
L 280.655712 288.439996 
L 280.364234 288.838429 
L 280.072756 289.207922 
L 279.781279 289.551722 
L 279.489801 289.872861 
L 279.198323 290.173902 
L 278.906845 290.456739 
L 278.615367 290.72249 
L 278.323889 290.971493 
L 278.032412 291.203421 
L 277.740934 291.417477 
L 277.449456 291.612652 
L 277.157978 291.787991 
L 276.8665 291.94284 
L 276.575022 292.07702 
L 276.283545 292.190931 
L 275.992067 292.285558 
L 275.700589 292.362404 
L 275.409111 292.423366 
L 275.117633 292.470584 
L 274.826155 292.506273 
L 274.534678 292.532589 
L 274.2432 292.551514 
L 273.951722 292.564786 
L 273.660244 292.57386 
L 273.368766 292.579908 
L 273.077289 292.583837 
L 272.785811 292.586325 
z
" style="fill:#1f78b4;fill-opacity:0.25;"/>
   </g>
   <g id="PolyCollection_2">
    <path clip-path="url(#p9b872f73f5)" d="M 119.184988 292.586316 
L 119.184988 292.59 
L 120.652436 292.59 
L 122.119885 292.59 
L 123.587333 292.59 
L 125.054782 292.59 
L 126.52223 292.59 
L 127.989679 292.59 
L 129.457127 292.59 
L 130.924576 292.59 
L 132.392024 292.59 
L 133.859473 292.59 
L 135.326921 292.59 
L 136.79437 292.59 
L 138.261818 292.59 
L 139.729267 292.59 
L 141.196715 292.59 
L 142.664164 292.59 
L 144.131612 292.59 
L 145.599061 292.59 
L 147.066509 292.59 
L 148.533958 292.59 
L 150.001406 292.59 
L 151.468855 292.59 
L 152.936303 292.59 
L 154.403752 292.59 
L 155.8712 292.59 
L 157.338649 292.59 
L 158.806097 292.59 
L 160.273546 292.59 
L 161.740994 292.59 
L 163.208442 292.59 
L 164.675891 292.59 
L 166.143339 292.59 
L 167.610788 292.59 
L 169.078236 292.59 
L 170.545685 292.59 
L 172.013133 292.59 
L 173.480582 292.59 
L 174.94803 292.59 
L 176.415479 292.59 
L 177.882927 292.59 
L 179.350376 292.59 
L 180.817824 292.59 
L 182.285273 292.59 
L 183.752721 292.59 
L 185.22017 292.59 
L 186.687618 292.59 
L 188.155067 292.59 
L 189.622515 292.59 
L 191.089964 292.59 
L 192.557412 292.59 
L 194.024861 292.59 
L 195.492309 292.59 
L 196.959758 292.59 
L 198.427206 292.59 
L 199.894655 292.59 
L 201.362103 292.59 
L 202.829552 292.59 
L 204.297 292.59 
L 205.764449 292.59 
L 207.231897 292.59 
L 208.699345 292.59 
L 210.166794 292.59 
L 211.634242 292.59 
L 213.101691 292.59 
L 214.569139 292.59 
L 216.036588 292.59 
L 217.504036 292.59 
L 218.971485 292.59 
L 220.438933 292.59 
L 221.906382 292.59 
L 223.37383 292.59 
L 224.841279 292.59 
L 226.308727 292.59 
L 227.776176 292.59 
L 229.243624 292.59 
L 230.711073 292.59 
L 232.178521 292.59 
L 233.64597 292.59 
L 235.113418 292.59 
L 236.580867 292.59 
L 238.048315 292.59 
L 239.515764 292.59 
L 240.983212 292.59 
L 242.450661 292.59 
L 243.918109 292.59 
L 245.385558 292.59 
L 246.853006 292.59 
L 248.320455 292.59 
L 249.787903 292.59 
L 251.255352 292.59 
L 252.7228 292.59 
L 254.190248 292.59 
L 255.657697 292.59 
L 257.125145 292.59 
L 258.592594 292.59 
L 260.060042 292.59 
L 261.527491 292.59 
L 262.994939 292.59 
L 264.462388 292.59 
L 265.929836 292.59 
L 267.397285 292.59 
L 268.864733 292.59 
L 270.332182 292.59 
L 271.79963 292.59 
L 273.267079 292.59 
L 274.734527 292.59 
L 276.201976 292.59 
L 277.669424 292.59 
L 279.136873 292.59 
L 280.604321 292.59 
L 282.07177 292.59 
L 283.539218 292.59 
L 285.006667 292.59 
L 286.474115 292.59 
L 287.941564 292.59 
L 289.409012 292.59 
L 290.876461 292.59 
L 292.343909 292.59 
L 293.811358 292.59 
L 295.278806 292.59 
L 296.746255 292.59 
L 298.213703 292.59 
L 299.681151 292.59 
L 301.1486 292.59 
L 302.616048 292.59 
L 304.083497 292.59 
L 305.550945 292.59 
L 305.550945 20.801135 
L 305.550945 20.801135 
L 304.083497 20.809759 
L 302.616048 20.822805 
L 301.1486 20.8422 
L 299.681151 20.870542 
L 298.213703 20.911252 
L 296.746255 20.968742 
L 295.278806 21.048568 
L 293.811358 21.15757 
L 292.343909 21.303968 
L 290.876461 21.497401 
L 289.409012 21.748894 
L 287.941564 22.070729 
L 286.474115 22.476223 
L 285.006667 22.97941 
L 283.539218 23.594646 
L 282.07177 24.336154 
L 280.604321 25.217559 
L 279.136873 26.251443 
L 277.669424 27.448971 
L 276.201976 28.819623 
L 274.734527 30.371062 
L 273.267079 32.109142 
L 271.79963 34.038049 
L 270.332182 36.160542 
L 268.864733 38.478239 
L 267.397285 40.991898 
L 265.929836 43.701627 
L 264.462388 46.606966 
L 262.994939 49.706831 
L 261.527491 52.999289 
L 260.060042 56.481212 
L 258.592594 60.147843 
L 257.125145 63.992368 
L 255.657697 68.005552 
L 254.190248 72.175541 
L 252.7228 76.487877 
L 251.255352 80.925773 
L 249.787903 85.470634 
L 248.320455 90.102809 
L 246.853006 94.802483 
L 245.385558 99.550641 
L 243.918109 104.32999 
L 242.450661 109.125745 
L 240.983212 113.926214 
L 239.515764 118.723112 
L 238.048315 123.511605 
L 236.580867 128.290098 
L 235.113418 133.0598 
L 233.64597 137.824153 
L 232.178521 142.588167 
L 230.711073 147.357755 
L 229.243624 152.139096 
L 227.776176 156.938081 
L 226.308727 161.759838 
L 224.841279 166.608355 
L 223.37383 171.486165 
L 221.906382 176.394097 
L 220.438933 181.331081 
L 218.971485 186.293986 
L 217.504036 191.277519 
L 216.036588 196.274173 
L 214.569139 201.274256 
L 213.101691 206.265992 
L 211.634242 211.235707 
L 210.166794 216.168089 
L 208.699345 221.046494 
L 207.231897 225.85329 
L 205.764449 230.570196 
L 204.297 235.178617 
L 202.829552 239.659938 
L 201.362103 243.995806 
L 199.894655 248.168397 
L 198.427206 252.160683 
L 196.959758 255.956744 
L 195.492309 259.542109 
L 194.024861 262.904158 
L 192.557412 266.032553 
L 191.089964 268.919691 
L 189.622515 271.56112 
L 188.155067 273.955878 
L 186.687618 276.106716 
L 185.22017 278.020152 
L 183.752721 279.706336 
L 182.285273 281.178725 
L 180.817824 282.453575 
L 179.350376 283.549293 
L 177.882927 284.485693 
L 176.415479 285.28321 
L 174.94803 285.962141 
L 173.480582 286.541959 
L 172.013133 287.040744 
L 170.545685 287.474753 
L 169.078236 287.858148 
L 167.610788 288.202876 
L 166.143339 288.518673 
L 164.675891 288.813179 
L 163.208442 289.092128 
L 161.740994 289.35958 
L 160.273546 289.618174 
L 158.806097 289.869377 
L 157.338649 290.113721 
L 155.8712 290.351016 
L 154.403752 290.580541 
L 152.936303 290.801212 
L 151.468855 291.011736 
L 150.001406 291.210747 
L 148.533958 291.396929 
L 147.066509 291.569122 
L 145.599061 291.726412 
L 144.131612 291.868198 
L 142.664164 291.994233 
L 141.196715 292.104639 
L 139.729267 292.199895 
L 138.261818 292.2808 
L 136.79437 292.348415 
L 135.326921 292.404 
L 133.859473 292.448932 
L 132.392024 292.484638 
L 130.924576 292.512524 
L 129.457127 292.533925 
L 127.989679 292.550062 
L 126.52223 292.562013 
L 125.054782 292.570708 
L 123.587333 292.576921 
L 122.119885 292.58128 
L 120.652436 292.584284 
L 119.184988 292.586316 
z
" style="fill-opacity:0.25;"/>
   </g>
   <g id="PolyCollection_3">
    <path clip-path="url(#p9b872f73f5)" d="M 75.319264 292.585814 
L 75.319264 292.59 
L 77.287497 292.59 
L 79.25573 292.59 
L 81.223962 292.59 
L 83.192195 292.59 
L 85.160428 292.59 
L 87.128661 292.59 
L 89.096894 292.59 
L 91.065126 292.59 
L 93.033359 292.59 
L 95.001592 292.59 
L 96.969825 292.59 
L 98.938058 292.59 
L 100.90629 292.59 
L 102.874523 292.59 
L 104.842756 292.59 
L 106.810989 292.59 
L 108.779222 292.59 
L 110.747455 292.59 
L 112.715687 292.59 
L 114.68392 292.59 
L 116.652153 292.59 
L 118.620386 292.59 
L 120.588619 292.59 
L 122.556851 292.59 
L 124.525084 292.59 
L 126.493317 292.59 
L 128.46155 292.59 
L 130.429783 292.59 
L 132.398015 292.59 
L 134.366248 292.59 
L 136.334481 292.59 
L 138.302714 292.59 
L 140.270947 292.59 
L 142.23918 292.59 
L 144.207412 292.59 
L 146.175645 292.59 
L 148.143878 292.59 
L 150.112111 292.59 
L 152.080344 292.59 
L 154.048576 292.59 
L 156.016809 292.59 
L 157.985042 292.59 
L 159.953275 292.59 
L 161.921508 292.59 
L 163.88974 292.59 
L 165.857973 292.59 
L 167.826206 292.59 
L 169.794439 292.59 
L 171.762672 292.59 
L 173.730905 292.59 
L 175.699137 292.59 
L 177.66737 292.59 
L 179.635603 292.59 
L 181.603836 292.59 
L 183.572069 292.59 
L 185.540301 292.59 
L 187.508534 292.59 
L 189.476767 292.59 
L 191.445 292.59 
L 193.413233 292.59 
L 195.381465 292.59 
L 197.349698 292.59 
L 199.317931 292.59 
L 201.286164 292.59 
L 203.254397 292.59 
L 205.22263 292.59 
L 207.190862 292.59 
L 209.159095 292.59 
L 211.127328 292.59 
L 213.095561 292.59 
L 215.063794 292.59 
L 217.032026 292.59 
L 219.000259 292.59 
L 220.968492 292.59 
L 222.936725 292.59 
L 224.904958 292.59 
L 226.87319 292.59 
L 228.841423 292.59 
L 230.809656 292.59 
L 232.777889 292.59 
L 234.746122 292.59 
L 236.714355 292.59 
L 238.682587 292.59 
L 240.65082 292.59 
L 242.619053 292.59 
L 244.587286 292.59 
L 246.555519 292.59 
L 248.523751 292.59 
L 250.491984 292.59 
L 252.460217 292.59 
L 254.42845 292.59 
L 256.396683 292.59 
L 258.364915 292.59 
L 260.333148 292.59 
L 262.301381 292.59 
L 264.269614 292.59 
L 266.237847 292.59 
L 268.206079 292.59 
L 270.174312 292.59 
L 272.142545 292.59 
L 274.110778 292.59 
L 276.079011 292.59 
L 278.047244 292.59 
L 280.015476 292.59 
L 281.983709 292.59 
L 283.951942 292.59 
L 285.920175 292.59 
L 287.888408 292.59 
L 289.85664 292.59 
L 291.824873 292.59 
L 293.793106 292.59 
L 295.761339 292.59 
L 297.729572 292.59 
L 299.697804 292.59 
L 301.666037 292.59 
L 303.63427 292.59 
L 305.602503 292.59 
L 307.570736 292.59 
L 309.538969 292.59 
L 311.507201 292.59 
L 313.475434 292.59 
L 315.443667 292.59 
L 317.4119 292.59 
L 319.380133 292.59 
L 321.348365 292.59 
L 323.316598 292.59 
L 325.284831 292.59 
L 325.284831 20.791659 
L 325.284831 20.791659 
L 323.316598 20.794449 
L 321.348365 20.79852 
L 319.380133 20.804369 
L 317.4119 20.812643 
L 315.443667 20.824171 
L 313.475434 20.839988 
L 311.507201 20.861365 
L 309.538969 20.889829 
L 307.570736 20.927177 
L 305.602503 20.975474 
L 303.63427 21.037049 
L 301.666037 21.114471 
L 299.697804 21.210513 
L 297.729572 21.328107 
L 295.761339 21.470299 
L 293.793106 21.640198 
L 291.824873 21.840946 
L 289.85664 22.075691 
L 287.888408 22.347606 
L 285.920175 22.659924 
L 283.951942 23.016019 
L 281.983709 23.419523 
L 280.015476 23.874473 
L 278.047244 24.385474 
L 276.079011 24.957878 
L 274.110778 25.597942 
L 272.142545 26.31296 
L 270.174312 27.111332 
L 268.206079 28.002568 
L 266.237847 28.997195 
L 264.269614 30.106566 
L 262.301381 31.342569 
L 260.333148 32.717232 
L 258.364915 34.242256 
L 256.396683 35.928489 
L 254.42845 37.785376 
L 252.460217 39.820425 
L 250.491984 42.038729 
L 248.523751 44.442584 
L 246.555519 47.031233 
L 244.587286 49.800762 
L 242.619053 52.744172 
L 240.65082 55.851605 
L 238.682587 59.11073 
L 236.714355 62.507252 
L 234.746122 66.025513 
L 232.777889 69.649136 
L 230.809656 73.36168 
L 228.841423 77.147254 
L 226.87319 80.991064 
L 224.904958 84.879876 
L 222.936725 88.802359 
L 220.968492 92.749326 
L 219.000259 96.713874 
L 217.032026 100.69141 
L 215.063794 104.679614 
L 213.095561 108.678306 
L 211.127328 112.689272 
L 209.159095 116.716022 
L 207.190862 120.763507 
L 205.22263 124.837789 
L 203.254397 128.945672 
L 201.286164 133.094297 
L 199.317931 137.290712 
L 197.349698 141.541424 
L 195.381465 145.851951 
L 193.413233 150.226404 
L 191.445 154.667111 
L 189.476767 159.174316 
L 187.508534 163.74598 
L 185.540301 168.377699 
L 183.572069 173.062763 
L 181.603836 177.792348 
L 179.635603 182.555843 
L 177.66737 187.341282 
L 175.699137 192.13586 
L 173.730905 196.926467 
L 171.762672 201.700213 
L 169.794439 206.444868 
L 167.826206 211.149186 
L 165.857973 215.803068 
L 163.88974 220.397544 
L 161.921508 224.924585 
L 159.953275 229.376756 
L 157.985042 233.746767 
L 156.016809 238.026979 
L 154.048576 242.208935 
L 152.080344 246.282995 
L 150.112111 250.238122 
L 148.143878 254.06188 
L 146.175645 257.740655 
L 144.207412 261.260082 
L 142.23918 264.605669 
L 140.270947 267.763529 
L 138.302714 270.721169 
L 136.334481 273.468255 
L 134.366248 275.997265 
L 132.398015 278.303985 
L 130.429783 280.387799 
L 128.46155 282.251742 
L 126.493317 283.902349 
L 124.525084 285.349293 
L 122.556851 286.604885 
L 120.588619 287.68346 
L 118.620386 288.60073 
L 116.652153 289.373136 
L 114.68392 290.01725 
L 112.715687 290.549263 
L 110.747455 290.984573 
L 108.779222 291.337475 
L 106.810989 291.62097 
L 104.842756 291.846657 
L 102.874523 292.024709 
L 100.90629 292.163915 
L 98.938058 292.271758 
L 96.969825 292.35453 
L 95.001592 292.417458 
L 93.033359 292.464831 
L 91.065126 292.500135 
L 89.096894 292.526171 
L 87.128661 292.545164 
L 85.160428 292.558864 
L 83.192195 292.568631 
L 81.223962 292.575511 
L 79.25573 292.580298 
L 77.287497 292.583586 
L 75.319264 292.585814 
z
" style="fill:#33a02c;fill-opacity:0.25;"/>
   </g>
   <g id="PolyCollection_4">
    <path clip-path="url(#p9b872f73f5)" d="M 441.37295 292.585928 
L 441.37295 292.59 
L 441.686056 292.59 
L 441.999163 292.59 
L 442.312269 292.59 
L 442.625375 292.59 
L 442.938481 292.59 
L 443.251588 292.59 
L 443.564694 292.59 
L 443.8778 292.59 
L 444.190907 292.59 
L 444.504013 292.59 
L 444.817119 292.59 
L 445.130225 292.59 
L 445.443332 292.59 
L 445.756438 292.59 
L 446.069544 292.59 
L 446.38265 292.59 
L 446.695757 292.59 
L 447.008863 292.59 
L 447.321969 292.59 
L 447.635075 292.59 
L 447.948182 292.59 
L 448.261288 292.59 
L 448.574394 292.59 
L 448.8875 292.59 
L 449.200607 292.59 
L 449.513713 292.59 
L 449.826819 292.59 
L 450.139926 292.59 
L 450.453032 292.59 
L 450.766138 292.59 
L 451.079244 292.59 
L 451.392351 292.59 
L 451.705457 292.59 
L 452.018563 292.59 
L 452.331669 292.59 
L 452.644776 292.59 
L 452.957882 292.59 
L 453.270988 292.59 
L 453.584094 292.59 
L 453.897201 292.59 
L 454.210307 292.59 
L 454.523413 292.59 
L 454.83652 292.59 
L 455.149626 292.59 
L 455.462732 292.59 
L 455.775838 292.59 
L 456.088945 292.59 
L 456.402051 292.59 
L 456.715157 292.59 
L 457.028263 292.59 
L 457.34137 292.59 
L 457.654476 292.59 
L 457.967582 292.59 
L 458.280688 292.59 
L 458.593795 292.59 
L 458.906901 292.59 
L 459.220007 292.59 
L 459.533113 292.59 
L 459.84622 292.59 
L 460.159326 292.59 
L 460.472432 292.59 
L 460.785539 292.59 
L 461.098645 292.59 
L 461.411751 292.59 
L 461.724857 292.59 
L 462.037964 292.59 
L 462.35107 292.59 
L 462.664176 292.59 
L 462.977282 292.59 
L 463.290389 292.59 
L 463.603495 292.59 
L 463.916601 292.59 
L 464.229707 292.59 
L 464.542814 292.59 
L 464.85592 292.59 
L 465.169026 292.59 
L 465.482133 292.59 
L 465.795239 292.59 
L 466.108345 292.59 
L 466.421451 292.59 
L 466.734558 292.59 
L 467.047664 292.59 
L 467.36077 292.59 
L 467.673876 292.59 
L 467.986983 292.59 
L 468.300089 292.59 
L 468.613195 292.59 
L 468.926301 292.59 
L 469.239408 292.59 
L 469.552514 292.59 
L 469.86562 292.59 
L 470.178726 292.59 
L 470.491833 292.59 
L 470.804939 292.59 
L 471.118045 292.59 
L 471.431152 292.59 
L 471.744258 292.59 
L 472.057364 292.59 
L 472.37047 292.59 
L 472.683577 292.59 
L 472.996683 292.59 
L 473.309789 292.59 
L 473.622895 292.59 
L 473.936002 292.59 
L 474.249108 292.59 
L 474.562214 292.59 
L 474.87532 292.59 
L 475.188427 292.59 
L 475.501533 292.59 
L 475.814639 292.59 
L 476.127746 292.59 
L 476.440852 292.59 
L 476.753958 292.59 
L 477.067064 292.59 
L 477.380171 292.59 
L 477.693277 292.59 
L 478.006383 292.59 
L 478.319489 292.59 
L 478.632596 292.59 
L 478.945702 292.59 
L 479.258808 292.59 
L 479.571914 292.59 
L 479.885021 292.59 
L 480.198127 292.59 
L 480.511233 292.59 
L 480.824339 292.59 
L 481.137446 292.59 
L 481.137446 20.790793 
L 481.137446 20.790793 
L 480.824339 20.793337 
L 480.511233 20.797153 
L 480.198127 20.802781 
L 479.885021 20.810939 
L 479.571914 20.822566 
L 479.258808 20.838864 
L 478.945702 20.861331 
L 478.632596 20.891805 
L 478.319489 20.932479 
L 478.006383 20.98592 
L 477.693277 21.055068 
L 477.380171 21.143211 
L 477.067064 21.253958 
L 476.753958 21.391195 
L 476.440852 21.559028 
L 476.127746 21.761748 
L 475.814639 22.003793 
L 475.501533 22.289746 
L 475.188427 22.624364 
L 474.87532 23.012646 
L 474.562214 23.459947 
L 474.249108 23.972121 
L 473.936002 24.555695 
L 473.622895 25.218043 
L 473.309789 25.967554 
L 472.996683 26.813752 
L 472.683577 27.767363 
L 472.37047 28.840302 
L 472.057364 30.045565 
L 471.744258 31.397032 
L 471.431152 32.909176 
L 471.118045 34.596694 
L 470.804939 36.474076 
L 470.491833 38.555128 
L 470.178726 40.852481 
L 469.86562 43.3771 
L 469.552514 46.13781 
L 469.239408 49.140868 
L 468.926301 52.389589 
L 468.613195 55.884044 
L 468.300089 59.620854 
L 467.986983 63.593086 
L 467.673876 67.790278 
L 467.36077 72.198605 
L 467.047664 76.801193 
L 466.734558 81.578586 
L 466.421451 86.509355 
L 466.108345 91.570832 
L 465.795239 96.739926 
L 465.482133 101.993977 
L 465.169026 107.311588 
L 464.85592 112.673375 
L 464.542814 118.062564 
L 464.229707 123.465391 
L 463.916601 128.87126 
L 463.603495 134.272638 
L 463.290389 139.6647 
L 462.977282 145.044745 
L 462.664176 150.411448 
L 462.35107 155.764007 
L 462.037964 161.101285 
L 461.724857 166.421015 
L 461.411751 171.71916 
L 461.098645 176.989486 
L 460.785539 182.223376 
L 460.472432 187.409911 
L 460.159326 192.536182 
L 459.84622 197.587803 
L 459.533113 202.549545 
L 459.220007 207.406046 
L 458.906901 212.142498 
L 458.593795 216.745267 
L 458.280688 221.202392 
L 457.967582 225.503944 
L 457.654476 229.642231 
L 457.34137 233.611859 
L 457.028263 237.409677 
L 456.715157 241.034636 
L 456.402051 244.487572 
L 456.088945 247.770969 
L 455.775838 250.888685 
L 455.462732 253.845682 
L 455.149626 256.647758 
L 454.83652 259.301273 
L 454.523413 261.812894 
L 454.210307 264.18935 
L 453.897201 266.437206 
L 453.584094 268.562671 
L 453.270988 270.571446 
L 452.957882 272.468615 
L 452.644776 274.258597 
L 452.331669 275.945146 
L 452.018563 277.531407 
L 451.705457 279.020006 
L 451.392351 280.413176 
L 451.079244 281.712895 
L 450.766138 282.921021 
L 450.453032 284.039426 
L 450.139926 285.0701 
L 449.826819 286.01524 
L 449.513713 286.877304 
L 449.200607 287.659055 
L 448.8875 288.363569 
L 448.574394 288.994243 
L 448.261288 289.554775 
L 447.948182 290.049145 
L 447.635075 290.481586 
L 447.321969 290.856539 
L 447.008863 291.178608 
L 446.695757 291.452506 
L 446.38265 291.682989 
L 446.069544 291.874786 
L 445.756438 292.032531 
L 445.443332 292.160685 
L 445.130225 292.263475 
L 444.817119 292.344831 
L 444.504013 292.408342 
L 444.190907 292.457222 
L 443.8778 292.494296 
L 443.564694 292.521998 
L 443.251588 292.542382 
L 442.938481 292.557148 
L 442.625375 292.567677 
L 442.312269 292.575062 
L 441.999163 292.58016 
L 441.686056 292.583619 
L 441.37295 292.585928 
z
" style="fill:#ff7f00;fill-opacity:0.25;"/>
   </g>
   <g id="PolyCollection_5">
    <path clip-path="url(#p9b872f73f5)" d="M 268.998594 292.584127 
L 268.998594 292.59 
L 270.363285 292.59 
L 271.727976 292.59 
L 273.092667 292.59 
L 274.457358 292.59 
L 275.822049 292.59 
L 277.18674 292.59 
L 278.551431 292.59 
L 279.916122 292.59 
L 281.280813 292.59 
L 282.645504 292.59 
L 284.010195 292.59 
L 285.374886 292.59 
L 286.739577 292.59 
L 288.104268 292.59 
L 289.468959 292.59 
L 290.83365 292.59 
L 292.198341 292.59 
L 293.563032 292.59 
L 294.927723 292.59 
L 296.292414 292.59 
L 297.657105 292.59 
L 299.021796 292.59 
L 300.386487 292.59 
L 301.751178 292.59 
L 303.115869 292.59 
L 304.48056 292.59 
L 305.845251 292.59 
L 307.209942 292.59 
L 308.574633 292.59 
L 309.939324 292.59 
L 311.304015 292.59 
L 312.668706 292.59 
L 314.033397 292.59 
L 315.398088 292.59 
L 316.762779 292.59 
L 318.12747 292.59 
L 319.492161 292.59 
L 320.856852 292.59 
L 322.221543 292.59 
L 323.586234 292.59 
L 324.950925 292.59 
L 326.315616 292.59 
L 327.680307 292.59 
L 329.044998 292.59 
L 330.409689 292.59 
L 331.77438 292.59 
L 333.139071 292.59 
L 334.503762 292.59 
L 335.868453 292.59 
L 337.233144 292.59 
L 338.597835 292.59 
L 339.962526 292.59 
L 341.327217 292.59 
L 342.691908 292.59 
L 344.056599 292.59 
L 345.42129 292.59 
L 346.785981 292.59 
L 348.150672 292.59 
L 349.515363 292.59 
L 350.880054 292.59 
L 352.244745 292.59 
L 353.609436 292.59 
L 354.974127 292.59 
L 356.338818 292.59 
L 357.703509 292.59 
L 359.0682 292.59 
L 360.432891 292.59 
L 361.797582 292.59 
L 363.162273 292.59 
L 364.526964 292.59 
L 365.891655 292.59 
L 367.256346 292.59 
L 368.621037 292.59 
L 369.985728 292.59 
L 371.350419 292.59 
L 372.71511 292.59 
L 374.079801 292.59 
L 375.444492 292.59 
L 376.809183 292.59 
L 378.173874 292.59 
L 379.538565 292.59 
L 380.903256 292.59 
L 382.267947 292.59 
L 383.632638 292.59 
L 384.997329 292.59 
L 386.36202 292.59 
L 387.726711 292.59 
L 389.091402 292.59 
L 390.456093 292.59 
L 391.820784 292.59 
L 393.185475 292.59 
L 394.550166 292.59 
L 395.914857 292.59 
L 397.279548 292.59 
L 398.644239 292.59 
L 400.00893 292.59 
L 401.373621 292.59 
L 402.738312 292.59 
L 404.103003 292.59 
L 405.467693 292.59 
L 406.832384 292.59 
L 408.197075 292.59 
L 409.561766 292.59 
L 410.926457 292.59 
L 412.291148 292.59 
L 413.655839 292.59 
L 415.02053 292.59 
L 416.385221 292.59 
L 417.749912 292.59 
L 419.114603 292.59 
L 420.479294 292.59 
L 421.843985 292.59 
L 423.208676 292.59 
L 424.573367 292.59 
L 425.938058 292.59 
L 427.302749 292.59 
L 428.66744 292.59 
L 430.032131 292.59 
L 431.396822 292.59 
L 432.761513 292.59 
L 434.126204 292.59 
L 435.490895 292.59 
L 436.855586 292.59 
L 438.220277 292.59 
L 439.584968 292.59 
L 440.949659 292.59 
L 442.31435 292.59 
L 442.31435 20.79 
L 442.31435 20.79 
L 440.949659 20.792081 
L 439.584968 20.795181 
L 438.220277 20.799712 
L 436.855586 20.806205 
L 435.490895 20.815332 
L 434.126204 20.827917 
L 432.761513 20.844937 
L 431.396822 20.867518 
L 430.032131 20.896909 
L 428.66744 20.934442 
L 427.302749 20.981476 
L 425.938058 21.039323 
L 424.573367 21.109173 
L 423.208676 21.192007 
L 421.843985 21.288533 
L 420.479294 21.399136 
L 419.114603 21.52387 
L 417.749912 21.662496 
L 416.385221 21.814577 
L 415.02053 21.979624 
L 413.655839 22.157304 
L 412.291148 22.347686 
L 410.926457 22.551511 
L 409.561766 22.770478 
L 408.197075 23.007501 
L 406.832384 23.26694 
L 405.467693 23.55476 
L 404.103003 23.878635 
L 402.738312 24.247956 
L 401.373621 24.673762 
L 400.00893 25.168582 
L 398.644239 25.746205 
L 397.279548 26.42136 
L 395.914857 27.209339 
L 394.550166 28.125548 
L 393.185475 29.185004 
L 391.820784 30.40178 
L 390.456093 31.788422 
L 389.091402 33.355354 
L 387.726711 35.110311 
L 386.36202 37.057827 
L 384.997329 39.198847 
L 383.632638 41.530494 
L 382.267947 44.046051 
L 380.903256 46.735183 
L 379.538565 49.584428 
L 378.173874 52.577941 
L 376.809183 55.698461 
L 375.444492 58.928446 
L 374.079801 62.251283 
L 372.71511 65.652482 
L 371.350419 69.120732 
L 369.985728 72.648735 
L 368.621037 76.233703 
L 367.256346 79.877494 
L 365.891655 83.586324 
L 364.526964 87.370116 
L 363.162273 91.241509 
L 361.797582 95.214663 
L 360.432891 99.303951 
L 359.0682 103.522697 
L 357.703509 107.882084 
L 356.338818 112.390317 
L 354.974127 117.052124 
L 353.609436 121.868606 
L 352.244745 126.837375 
L 350.880054 131.952941 
L 349.515363 137.20721 
L 348.150672 142.58999 
L 346.785981 148.089418 
L 345.42129 153.692217 
L 344.056599 159.383776 
L 342.691908 165.148069 
L 341.327217 170.967474 
L 339.962526 176.822572 
L 338.597835 182.692044 
L 337.233144 188.552721 
L 335.868453 194.379866 
L 334.503762 200.147681 
L 333.139071 205.830037 
L 331.77438 211.401327 
L 330.409689 216.837382 
L 329.044998 222.11632 
L 327.680307 227.219255 
L 326.315616 232.130763 
L 324.950925 236.839097 
L 323.586234 241.336109 
L 322.221543 245.616941 
L 320.856852 249.679527 
L 319.492161 253.523981 
L 318.12747 257.151974 
L 316.762779 260.56616 
L 315.398088 263.769708 
L 314.033397 266.766002 
L 312.668706 269.558486 
L 311.304015 272.150671 
L 309.939324 274.546245 
L 308.574633 276.749264 
L 307.209942 278.764357 
L 305.845251 280.596914 
L 304.48056 282.253217 
L 303.115869 283.740501 
L 301.751178 285.066933 
L 300.386487 286.24152 
L 299.021796 287.273965 
L 297.657105 288.174487 
L 296.292414 288.95363 
L 294.927723 289.622074 
L 293.563032 290.19046 
L 292.198341 290.669235 
L 290.83365 291.068525 
L 289.468959 291.398025 
L 288.104268 291.666903 
L 286.739577 291.883728 
L 285.374886 292.056403 
L 284.010195 292.192123 
L 282.645504 292.297337 
L 281.280813 292.377741 
L 279.916122 292.438275 
L 278.551431 292.483153 
L 277.18674 292.5159 
L 275.822049 292.53941 
L 274.457358 292.556008 
L 273.092667 292.567529 
L 271.727976 292.575389 
L 270.363285 292.580657 
L 268.998594 292.584127 
z
" style="fill:#0000ff;fill-opacity:0.25;"/>
   </g>
   <g id="line2d_14">
    <path clip-path="url(#p9b872f73f5)" d="M 272.785811 292.586325 
L 275.117633 292.470584 
L 276.283545 292.190931 
L 277.157978 291.787991 
L 278.323889 290.971493 
L 279.489801 289.872861 
L 280.655712 288.439996 
L 281.530146 287.04075 
L 282.404579 285.289895 
L 283.57049 282.350318 
L 284.736402 278.608986 
L 285.610835 275.139347 
L 286.485269 270.970519 
L 287.359702 265.949328 
L 288.234136 259.797943 
L 289.108569 252.0952 
L 289.983003 242.459594 
L 291.148914 226.455776 
L 292.314825 207.090726 
L 293.480737 184.24457 
L 294.938126 150.699862 
L 297.561426 88.161938 
L 298.727337 66.211693 
L 299.601771 53.27103 
L 300.476204 43.309054 
L 301.350638 36.032284 
L 302.225071 30.926905 
L 303.099505 27.378997 
L 303.973938 24.877308 
L 304.848372 23.122797 
L 305.722805 21.969777 
L 306.597239 21.302077 
L 307.471672 20.975488 
L 308.637584 20.823332 
L 309.803495 20.791392 
L 309.803495 20.791392 
" style="fill:none;stroke:#1f78b4;stroke-linecap:round;stroke-width:2;"/>
   </g>
   <g id="line2d_15">
    <path clip-path="url(#p9b872f73f5)" d="M 119.184988 292.586316 
L 132.392024 292.484638 
L 139.729267 292.199895 
L 145.599061 291.726412 
L 151.468855 291.011736 
L 158.806097 289.869377 
L 166.143339 288.518673 
L 170.545685 287.474753 
L 173.480582 286.541959 
L 176.415479 285.28321 
L 177.882927 284.485693 
L 179.350376 283.549293 
L 180.817824 282.453575 
L 182.285273 281.178725 
L 183.752721 279.706336 
L 185.22017 278.020152 
L 186.687618 276.106716 
L 188.155067 273.955878 
L 189.622515 271.56112 
L 191.089964 268.919691 
L 194.024861 262.904158 
L 196.959758 255.956744 
L 199.894655 248.168397 
L 202.829552 239.659938 
L 205.764449 230.570196 
L 210.166794 216.168089 
L 230.711073 147.357755 
L 251.255352 80.925773 
L 254.190248 72.175541 
L 257.125145 63.992368 
L 260.060042 56.481212 
L 262.994939 49.706831 
L 265.929836 43.701627 
L 268.864733 38.478239 
L 271.79963 34.038049 
L 273.267079 32.109142 
L 274.734527 30.371062 
L 276.201976 28.819623 
L 277.669424 27.448971 
L 279.136873 26.251443 
L 280.604321 25.217559 
L 282.07177 24.336154 
L 283.539218 23.594646 
L 286.474115 22.476223 
L 289.409012 21.748894 
L 292.343909 21.303968 
L 296.746255 20.968742 
L 302.616048 20.822805 
L 305.550945 20.801135 
L 305.550945 20.801135 
" style="fill:none;stroke:#000000;stroke-linecap:round;stroke-width:2;"/>
   </g>
   <g id="line2d_16">
    <path clip-path="url(#p9b872f73f5)" d="M 75.319264 292.585814 
L 93.033359 292.464831 
L 98.938058 292.271758 
L 104.842756 291.846657 
L 108.779222 291.337475 
L 112.715687 290.549263 
L 116.652153 289.373136 
L 118.620386 288.60073 
L 120.588619 287.68346 
L 122.556851 286.604885 
L 124.525084 285.349293 
L 126.493317 283.902349 
L 128.46155 282.251742 
L 130.429783 280.387799 
L 132.398015 278.303985 
L 134.366248 275.997265 
L 136.334481 273.468255 
L 138.302714 270.721169 
L 142.23918 264.605669 
L 146.175645 257.740655 
L 150.112111 250.238122 
L 154.048576 242.208935 
L 157.985042 233.746767 
L 163.88974 220.397544 
L 169.794439 206.444868 
L 189.476767 159.174316 
L 195.381465 145.851951 
L 201.286164 133.094297 
L 209.159095 116.716022 
L 220.968492 92.749326 
L 228.841423 77.147254 
L 234.746122 66.025513 
L 238.682587 59.11073 
L 242.619053 52.744172 
L 246.555519 47.031233 
L 248.523751 44.442584 
L 250.491984 42.038729 
L 252.460217 39.820425 
L 254.42845 37.785376 
L 256.396683 35.928489 
L 258.364915 34.242256 
L 260.333148 32.717232 
L 262.301381 31.342569 
L 266.237847 28.997195 
L 270.174312 27.111332 
L 274.110778 25.597942 
L 278.047244 24.385474 
L 281.983709 23.419523 
L 285.920175 22.659924 
L 289.85664 22.075691 
L 295.761339 21.470299 
L 301.666037 21.114471 
L 309.538969 20.889829 
L 323.316598 20.794449 
L 325.284831 20.791659 
L 325.284831 20.791659 
" style="fill:none;stroke:#33a02c;stroke-linecap:round;stroke-width:2;"/>
   </g>
   <g id="line2d_17">
    <path clip-path="url(#p9b872f73f5)" d="M 441.37295 292.585928 
L 444.190907 292.457222 
L 445.443332 292.160685 
L 446.38265 291.682989 
L 447.321969 290.856539 
L 447.948182 290.049145 
L 448.8875 288.363569 
L 449.826819 286.01524 
L 450.766138 282.921021 
L 451.705457 279.020006 
L 452.644776 274.258597 
L 453.584094 268.562671 
L 454.83652 259.301273 
L 456.088945 247.770969 
L 457.34137 233.611859 
L 458.593795 216.745267 
L 460.159326 192.536182 
L 463.290389 139.6647 
L 467.047664 76.801193 
L 468.300089 59.620854 
L 469.239408 49.140868 
L 470.178726 40.852481 
L 471.118045 34.596694 
L 472.057364 30.045565 
L 472.996683 26.813752 
L 473.936002 24.555695 
L 474.87532 23.012646 
L 475.814639 22.003793 
L 476.753958 21.391195 
L 477.693277 21.055068 
L 478.945702 20.861331 
L 481.137446 20.790793 
L 481.137446 20.790793 
" style="fill:none;stroke:#ff7f00;stroke-linecap:round;stroke-width:2;"/>
   </g>
   <g id="line2d_18">
    <path clip-path="url(#p9b872f73f5)" d="M 268.998594 292.584127 
L 278.551431 292.483153 
L 282.645504 292.297337 
L 286.739577 291.883728 
L 289.468959 291.398025 
L 292.198341 290.669235 
L 294.927723 289.622074 
L 297.657105 288.174487 
L 300.386487 286.24152 
L 301.751178 285.066933 
L 303.115869 283.740501 
L 304.48056 282.253217 
L 305.845251 280.596914 
L 308.574633 276.749264 
L 311.304015 272.150671 
L 314.033397 266.766002 
L 316.762779 260.56616 
L 319.492161 253.523981 
L 322.221543 245.616941 
L 324.950925 236.839097 
L 327.680307 227.219255 
L 330.409689 216.837382 
L 334.503762 200.147681 
L 348.150672 142.58999 
L 352.244745 126.837375 
L 354.974127 117.052124 
L 357.703509 107.882084 
L 360.432891 99.303951 
L 364.526964 87.370116 
L 368.621037 76.233703 
L 372.71511 65.652482 
L 376.809183 55.698461 
L 379.538565 49.584428 
L 382.267947 44.046051 
L 384.997329 39.198847 
L 387.726711 35.110311 
L 389.091402 33.355354 
L 390.456093 31.788422 
L 391.820784 30.40178 
L 393.185475 29.185004 
L 394.550166 28.125548 
L 397.279548 26.42136 
L 400.00893 25.168582 
L 402.738312 24.247956 
L 405.467693 23.55476 
L 409.561766 22.770478 
L 415.02053 21.979624 
L 420.479294 21.399136 
L 425.938058 21.039323 
L 432.761513 20.844937 
L 442.31435 20.79 
L 442.31435 20.79 
" style="fill:none;stroke:#0000ff;stroke-linecap:round;stroke-width:2;"/>
   </g>
   <g id="line2d_19">
    <path clip-path="url(#p9b872f73f5)" d="M 192.732392 306.18 
L 192.732392 7.2 
" style="fill:none;stroke:#33a02c;stroke-dasharray:8.4,3.6;stroke-dashoffset:0;stroke-width:3;"/>
   </g>
   <g id="patch_3">
    <path d="M 55.028355 306.18 
L 55.028355 7.2 
" style="fill:none;"/>
   </g>
   <g id="patch_4">
    <path d="M 501.428355 306.18 
L 501.428355 7.2 
" style="fill:none;"/>
   </g>
   <g id="patch_5">
    <path d="M 55.028355 306.18 
L 501.428355 306.18 
" style="fill:none;"/>
   </g>
   <g id="patch_6">
    <path d="M 55.028355 7.2 
L 501.428355 7.2 
" style="fill:none;"/>
   </g>
   <g id="legend_1">
    <g id="line2d_20">
     <path d="M 67.628355 24.7 
L 95.628355 24.7 
" style="fill:none;stroke:#1f78b4;stroke-linecap:round;stroke-width:2;"/>
    </g>
    <g id="line2d_21"/>
    <g id="text_16">
     <!-- Unbranched -->
     <defs>
      <path d="M 8 69.5 
L 8 32.75 
C 8 25.71875 7.203125 18.390625 10.703125 11.96875 
C 12.90625 7.84375 16.09375 4.4375 20.09375 2.125 
C 29.90625 -3.609375 43.5 -2.203125 51.296875 6.4375 
C 54.796875 10.359375 57.296875 15.171875 57.796875 21.796875 
C 57.90625 23.40625 57.796875 24.921875 57.796875 26.515625 
L 57.796875 69.5 
L 51.40625 69.5 
L 51.40625 25.90625 
C 51.40625 24.59375 51.5 23.1875 51.40625 21.890625 
C 51.203125 18.890625 50.59375 15.921875 49.40625 13.25 
C 43.90625 1 25 1 18 11.890625 
C 14.203125 17.78125 15 25.0625 15 31.65625 
L 15 69.5 
z
" id="Computer_Modern_Bright-85"/>
      <path d="M 6.40625 69.6875 
L 6.40625 0 
L 12.796875 0 
L 12.796875 6.328125 
L 12.90625 6.328125 
C 14 4.109375 16.5 2.015625 18.59375 0.90625 
C 25.796875 -2.90625 34.40625 0.90625 39.09375 7.03125 
C 48.59375 19.578125 44.796875 40.875 32.296875 46.796875 
C 27.40625 49 21.5 48 17.09375 44.984375 
C 15.40625 43.78125 14 42.375 12.703125 40.765625 
L 12.703125 69.6875 
z
M 21.90625 42.984375 
C 26.59375 43.375 31.5 41.265625 34.296875 37.453125 
C 36.203125 34.9375 37.203125 31.9375 37.703125 28.8125 
C 38.703125 21.484375 37.90625 12.25 31.40625 7.4375 
C 30.296875 6.625 29.09375 6.03125 27.796875 5.515625 
C 22.40625 3.515625 17 4.109375 14 8.84375 
C 13.09375 10.4375 12.796875 10.546875 12.796875 12.953125 
L 12.796875 33.734375 
C 12.796875 34.75 12.59375 35.953125 13 36.859375 
C 14.59375 40.171875 18.296875 42.671875 21.90625 42.984375 
" id="Computer_Modern_Bright-98"/>
      <path d="M 12.5 34.75 
L 12.40625 34.75 
L 12.40625 47.390625 
L 6.40625 47.390625 
L 6.40625 0 
L 12.703125 0 
L 12.703125 22.890625 
C 12.703125 24.40625 12.703125 25.90625 12.90625 27.40625 
C 14.296875 35.953125 21.703125 42.28125 31.40625 42.28125 
L 31.40625 48 
C 25 48 19.09375 44.890625 15.296875 39.765625 
C 14.203125 38.265625 13 36.546875 12.5 34.75 
" id="Computer_Modern_Bright-114"/>
      <path d="M 6.40625 69.6875 
L 6.40625 0 
L 12.796875 0 
L 12.796875 21.984375 
C 12.796875 26.90625 12.5 31.9375 14.703125 36.546875 
C 15.796875 38.859375 17.5 40.875 19.796875 42.078125 
C 21.703125 42.984375 23.703125 42.984375 25.796875 42.78125 
C 28.796875 42.78125 31.703125 41.984375 33.59375 39.453125 
C 35.40625 37.140625 35.5 34.140625 35.5 31.3125 
L 35.5 0 
L 41.90625 0 
L 41.90625 27.21875 
C 41.90625 32.234375 42.40625 37.75 39.90625 42.28125 
C 37.90625 45.6875 34.40625 47.296875 30.703125 47.796875 
C 28.703125 48 26.703125 48 24.703125 47.703125 
C 21.09375 47.015625 18 45.03125 15.59375 42.34375 
C 14.5 41.046875 13.203125 39.46875 12.796875 37.765625 
L 12.703125 37.765625 
L 12.703125 69.6875 
z
" id="Computer_Modern_Bright-104"/>
      <path d="M 35.59375 69.6875 
L 35.59375 41.375 
C 33.703125 43.484375 31.796875 45.484375 29.203125 46.6875 
C 20.296875 50.40625 11.703125 45.59375 7.296875 37.65625 
C 2.203125 28.21875 2.796875 15.765625 8.90625 6.921875 
C 13.203125 0.796875 20.296875 -2.203125 27.796875 0.5 
C 30.703125 1.609375 34.203125 4.515625 35.40625 7.125 
L 35.5 7.125 
L 35.5 0 
L 41.90625 0 
L 41.90625 69.6875 
z
M 35.203125 37.453125 
C 35.703125 36.546875 35.5 35.34375 35.5 34.34375 
L 35.5 13.65625 
C 35.5 11.34375 35.40625 11.140625 34.09375 9.34375 
C 32.296875 6.625 29.5 4.71875 26.203125 4.421875 
C 21.40625 4.015625 16.5 6.328125 13.703125 10.25 
C 12.09375 12.546875 11.203125 15.359375 10.703125 18.171875 
C 10.5 19.28125 10.5 20.28125 10.40625 21.390625 
C 9.796875 28.015625 11.203125 35.84375 17 40.0625 
C 18 40.765625 19.09375 41.265625 20.203125 41.765625 
C 26 43.984375 32.40625 43.375 35.203125 37.453125 
" id="Computer_Modern_Bright-100"/>
     </defs>
     <g style="fill:#262626;" transform="translate(106.828355 29.6)scale(0.14 -0.14)">
      <use transform="scale(0.996264)" xlink:href="#Computer_Modern_Bright-85"/>
      <use transform="translate(65.587132 0)scale(0.996264)" xlink:href="#Computer_Modern_Bright-110"/>
      <use transform="translate(113.739629 0)scale(0.996264)" xlink:href="#Computer_Modern_Bright-98"/>
      <use transform="translate(158.986397 0)scale(0.996264)" xlink:href="#Computer_Modern_Bright-114"/>
      <use transform="translate(190.949756 0)scale(0.996264)" xlink:href="#Computer_Modern_Bright-97"/>
      <use transform="translate(237.441838 0)scale(0.996264)" xlink:href="#Computer_Modern_Bright-110"/>
      <use transform="translate(285.594335 0)scale(0.996264)" xlink:href="#Computer_Modern_Bright-99"/>
      <use transform="translate(330.426003 0)scale(0.996264)" xlink:href="#Computer_Modern_Bright-104"/>
      <use transform="translate(378.5785 0)scale(0.996264)" xlink:href="#Computer_Modern_Bright-101"/>
      <use transform="translate(423.410167 0)scale(0.996264)" xlink:href="#Computer_Modern_Bright-100"/>
     </g>
    </g>
    <g id="line2d_22">
     <path d="M 67.628355 43.824611 
L 95.628355 43.824611 
" style="fill:none;stroke:#000000;stroke-linecap:round;stroke-width:2;"/>
    </g>
    <g id="line2d_23"/>
    <g id="text_17">
     <!-- \emph{hif-1} $&gt;$ \emph{rhy-1} -->
     <defs>
      <path d="M 21.09375 70 
L 6.40625 0 
L 10.90625 0 
C 11.796875 0 13 -0.296875 13 1.015625 
C 13.203125 1.71875 13.296875 2.328125 13.40625 3.03125 
C 14.40625 7.78125 19 29.5 19.296875 30.40625 
C 20.40625 33.953125 22.40625 37.375 25.09375 39.90625 
C 28 42.4375 31.203125 43.84375 36.59375 42.9375 
C 38.796875 42.53125 40.90625 41.625 42 39.5 
C 43.5 36.46875 42.40625 32.9375 41.796875 29.90625 
L 35.5 0 
L 40.203125 0 
C 41.203125 0 42.09375 -0.203125 42.09375 1.109375 
C 42.703125 3.125 44.09375 10.625 44.09375 10.625 
L 48.59375 32 
C 49.40625 35.734375 50.296875 40.40625 48.203125 43.9375 
C 46.296875 46.984375 42.90625 48 39.59375 48.296875 
C 38.09375 48.296875 36.5 48.296875 35 48 
C 30.796875 47.3125 27.09375 45.09375 24.09375 42.09375 
C 22.90625 40.890625 21.5 39.59375 20.796875 37.984375 
L 20.703125 37.984375 
L 27.40625 70 
z
" id="Computer_Modern_Bright_Slanted-104"/>
      <path d="M 19.796875 64 
L 26.09375 64 
L 27.40625 70.359375 
C 25.296875 70.359375 23 70.359375 21.203125 70.046875 
C 20.5 68.265625 20.203125 66.09375 19.796875 64 
M 16.40625 47.890625 
L 6.40625 0 
C 8.5 0 10.796875 0 12.59375 0.296875 
L 13 1.40625 
L 22.703125 47.890625 
z
" id="Computer_Modern_Bright_Slanted-105"/>
      <path d="M 12 48.046875 
L 11 43 
L 19.59375 43 
C 16.5 29 13.59375 14.59375 10.59375 0.5 
C 12.703125 0.5 15 0.5 16.796875 0.796875 
L 17.09375 1.5 
C 19.296875 12.25 21.703125 22.703125 23.90625 33.4375 
C 24.703125 36.453125 25 39.984375 26 42.796875 
L 27 43 
L 38.296875 43 
L 39.296875 48.046875 
L 26.796875 48.046875 
C 27.703125 50.9375 28.09375 54.03125 28.703125 56.921875 
C 29 58.21875 29.09375 59.703125 29.796875 60.90625 
C 30.703125 62.609375 32.5 63.703125 34.203125 64.5 
C 37.703125 66 41.5 66 45.203125 65.4375 
C 46.59375 65.265625 47.90625 64.796875 49.203125 64.609375 
L 50.296875 70.234375 
C 46.703125 70.75 42.90625 71.15625 39.296875 70.75 
C 34.203125 70.03125 29.5 67.546875 26.09375 63.734375 
C 23.40625 60.640625 22.703125 58.046875 21.703125 53.34375 
C 21.59375 52.4375 21 48.546875 20.40625 48.25 
C 19.90625 47.84375 18.703125 48.046875 18.09375 48.046875 
z
" id="Computer_Modern_Bright_Slanted-102"/>
      <path d="M 5.90625 26.0625 
L 4.90625 21 
L 32.796875 21 
L 33.796875 26.0625 
z
" id="Computer_Modern_Bright_Slanted-45"/>
      <path d="M 22.5 61 
L 21.5 55.9375 
C 26.296875 55.9375 31.40625 56.546875 35.703125 58.875 
L 24.5 5.046875 
C 20.296875 5.046875 15.296875 5.5625 11.5 5.046875 
C 10.90625 3.578125 10.703125 1.671875 10.296875 0 
C 21.09375 0 32.59375 0 42.796875 0 
C 43.40625 1.453125 43.703125 3.296875 44.09375 5.046875 
L 31 5.046875 
C 35.203125 26.0625 39.796875 46.59375 44.09375 67.5 
C 41.703125 67.5 42 67.09375 40 65.59375 
C 35.59375 62.59375 28.90625 61 22.5 61 
" id="Computer_Modern_Bright_Slanted-49"/>
      <path d="M 62.59375 26.546875 
L 62.59375 26.34375 
C 60.296875 25.546875 58 24.25 55.796875 23.140625 
L 27.09375 9.625 
L 11.09375 2 
C 10.40625 1.703125 9.40625 1.296875 8.90625 0.796875 
C 8 -0.203125 8.203125 -1.703125 9.296875 -2.296875 
C 10.5 -3 11.703125 -2.109375 12.796875 -1.609375 
L 21 2.203125 
C 25.203125 4.3125 55 18.328125 55 18.328125 
L 66 23.546875 
C 67.296875 24.140625 69.40625 24.75 69.40625 26.453125 
C 69.40625 28.15625 67.296875 28.75 66 29.359375 
L 55 34.5625 
L 33.703125 44.6875 
C 29.5 46.6875 25.203125 48.59375 21 50.703125 
L 12.796875 54.5 
C 11.703125 55 10.5 55.90625 9.296875 55.203125 
C 8.203125 54.609375 8 53.09375 8.90625 52.09375 
C 9.40625 51.59375 10.40625 51.203125 11.09375 50.890625 
L 41.59375 36.46875 
L 55.796875 29.75 
C 58 28.65625 60.296875 27.359375 62.59375 26.546875 
" id="Computer_Modern_Bright_Math_Slanted-62"/>
      <path d="M 19.90625 35.53125 
L 19.796875 35.53125 
L 22.40625 48.15625 
L 16.40625 48.15625 
L 6.40625 0.5 
L 10.90625 0.5 
C 11.40625 0.5 12.203125 0.296875 12.59375 0.703125 
C 12.90625 0.90625 13.5 4.4375 13.796875 5.65625 
L 16.703125 19.578125 
C 17.5 23.109375 18 26.859375 19.59375 30.1875 
C 23.40625 37.84375 31.90625 43 40.40625 43 
L 41.5 48.765625 
C 34.90625 48.765625 28.59375 45.421875 24 40.78125 
C 22.5 39.265625 20.90625 37.453125 19.90625 35.53125 
M 19.703125 34.953125 
C 19.703125 34.953125 19.796875 34.953125 19.796875 34.953125 
C 19.796875 34.859375 19.703125 34.75 19.703125 34.953125 
" id="Computer_Modern_Bright_Slanted-114"/>
      <path d="M 10.703125 48 
C 11.203125 44.265625 12 40.625 12.703125 36.890625 
C 13.09375 34.359375 19 0.8125 19 0.515625 
C 19 -0.09375 18.59375 -0.59375 18.296875 -1.109375 
L 16.59375 -4.140625 
C 14.703125 -7.265625 12.796875 -10.5 9 -11.8125 
C 6 -12.71875 0.5 -11.40625 -1.5 -10.796875 
C -1.796875 -12.625 -2 -14.53125 -2.203125 -16.453125 
C 0.5 -16.859375 5.40625 -17.46875 8.09375 -16.96875 
C 15.203125 -15.34375 19.203125 -8.671875 22.5 -3.21875 
L 44.09375 34.359375 
L 49.203125 43.359375 
C 50.09375 44.859375 51.203125 46.375 51.796875 48 
C 49.703125 48 47.40625 48 45.59375 47.703125 
C 43.203125 44.078125 41.203125 40.046875 38.90625 36.21875 
C 33.59375 26.4375 27.703125 17.359375 23.203125 6.78125 
L 23.09375 6.78125 
C 23.40625 8.390625 23.09375 10.109375 22.90625 11.734375 
C 21.796875 22.546875 18.59375 39.71875 17.09375 48 
z
" id="Computer_Modern_Bright_Slanted-121"/>
     </defs>
     <g style="fill:#262626;" transform="translate(106.828355 48.724611)scale(0.14 -0.14)">
      <use transform="scale(0.996264)" xlink:href="#Computer_Modern_Bright_Slanted-104"/>
      <use transform="translate(48.152497 0)scale(0.996264)" xlink:href="#Computer_Modern_Bright_Slanted-105"/>
      <use transform="translate(67.247456 0)scale(0.996264)" xlink:href="#Computer_Modern_Bright_Slanted-102"/>
      <use transform="translate(97.5504 0)scale(0.996264)" xlink:href="#Computer_Modern_Bright_Slanted-45"/>
      <use transform="translate(130.759074 0)scale(0.996264)" xlink:href="#Computer_Modern_Bright_Slanted-49"/>
      <use transform="translate(223.843844 0)scale(0.996264)" xlink:href="#Computer_Modern_Bright_Math_Slanted-62"/>
      <use transform="translate(332.796523 0)scale(0.996264)" xlink:href="#Computer_Modern_Bright_Slanted-114"/>
      <use transform="translate(364.759882 0)scale(0.996264)" xlink:href="#Computer_Modern_Bright_Slanted-104"/>
      <use transform="translate(412.912379 0)scale(0.996264)" xlink:href="#Computer_Modern_Bright_Slanted-121"/>
      <use transform="translate(455.253417 0)scale(0.996264)" xlink:href="#Computer_Modern_Bright_Slanted-45"/>
      <use transform="translate(488.46209 0)scale(0.996264)" xlink:href="#Computer_Modern_Bright_Slanted-49"/>
     </g>
    </g>
    <g id="line2d_24">
     <path d="M 67.628355 62.949222 
L 95.628355 62.949222 
" style="fill:none;stroke:#33a02c;stroke-linecap:round;stroke-width:2;"/>
    </g>
    <g id="line2d_25"/>
    <g id="text_18">
     <!-- actual -->
     <g style="fill:#262626;" transform="translate(106.828355 67.849222)scale(0.14 -0.14)">
      <use transform="scale(0.996264)" xlink:href="#Computer_Modern_Bright-97"/>
      <use transform="translate(46.492082 0)scale(0.996264)" xlink:href="#Computer_Modern_Bright-99"/>
      <use transform="translate(91.32375 0)scale(0.996264)" xlink:href="#Computer_Modern_Bright-116"/>
      <use transform="translate(127.438138 0)scale(0.996264)" xlink:href="#Computer_Modern_Bright-117"/>
      <use transform="translate(175.590635 0)scale(0.996264)" xlink:href="#Computer_Modern_Bright-97"/>
      <use transform="translate(222.082717 0)scale(0.996264)" xlink:href="#Computer_Modern_Bright-108"/>
     </g>
    </g>
    <g id="line2d_26">
     <path d="M 67.628355 82.073833 
L 95.628355 82.073833 
" style="fill:none;stroke:#ff7f00;stroke-linecap:round;stroke-width:2;"/>
    </g>
    <g id="line2d_27"/>
    <g id="text_19">
     <!-- Additive -->
     <defs>
      <path d="M 2.09375 0.09375 
L 6.59375 0.09375 
L 8.40625 0.296875 
C 11.40625 6.796875 13.5 14.203125 16.203125 21 
C 26.09375 21 36.90625 21 46.296875 21 
L 47.09375 19.6875 
C 48.796875 14.546875 50.796875 9.59375 52.59375 4.546875 
C 53.09375 3.015625 53.59375 1.515625 54.40625 0.296875 
C 56.59375 0 59.203125 0 61.59375 0 
C 59.90625 4.90625 36.703125 67.203125 36 68.890625 
C 35.90625 69.296875 35.703125 69.890625 35.203125 70 
C 34.59375 70.09375 34 70 33.40625 70 
L 30.09375 70 
C 28.59375 70 28 70.1875 27.59375 68.609375 
C 27.203125 67.59375 2.09375 0.09375 2.09375 0.09375 
M 31.40625 63.171875 
C 35.59375 50.71875 40.09375 38.46875 44.5 26.21875 
L 18.203125 26.21875 
L 26.90625 50.109375 
z
" id="Computer_Modern_Bright-65"/>
     </defs>
     <g style="fill:#262626;" transform="translate(106.828355 86.973833)scale(0.14 -0.14)">
      <use transform="scale(0.996264)" xlink:href="#Computer_Modern_Bright-65"/>
      <use transform="translate(63.511618 0)scale(0.996264)" xlink:href="#Computer_Modern_Bright-100"/>
      <use transform="translate(111.664115 0)scale(0.996264)" xlink:href="#Computer_Modern_Bright-100"/>
      <use transform="translate(159.816612 0)scale(0.996264)" xlink:href="#Computer_Modern_Bright-105"/>
      <use transform="translate(178.911571 0)scale(0.996264)" xlink:href="#Computer_Modern_Bright-116"/>
      <use transform="translate(215.025959 0)scale(0.996264)" xlink:href="#Computer_Modern_Bright-105"/>
      <use transform="translate(234.120917 0)scale(0.996264)" xlink:href="#Computer_Modern_Bright-118"/>
      <use transform="translate(276.461955 0)scale(0.996264)" xlink:href="#Computer_Modern_Bright-101"/>
     </g>
    </g>
    <g id="line2d_28">
     <path d="M 67.628355 101.198444 
L 95.628355 101.198444 
" style="fill:none;stroke:#0000ff;stroke-linecap:round;stroke-width:2;"/>
    </g>
    <g id="line2d_29"/>
    <g id="text_20">
     <!-- \emph{rhy-1} $&gt;$ \emph{hif-1} -->
     <g style="fill:#262626;" transform="translate(106.828355 106.098444)scale(0.14 -0.14)">
      <use transform="scale(0.996264)" xlink:href="#Computer_Modern_Bright_Slanted-114"/>
      <use transform="translate(31.963359 0)scale(0.996264)" xlink:href="#Computer_Modern_Bright_Slanted-104"/>
      <use transform="translate(80.115856 0)scale(0.996264)" xlink:href="#Computer_Modern_Bright_Slanted-121"/>
      <use transform="translate(122.456894 0)scale(0.996264)" xlink:href="#Computer_Modern_Bright_Slanted-45"/>
      <use transform="translate(155.665567 0)scale(0.996264)" xlink:href="#Computer_Modern_Bright_Slanted-49"/>
      <use transform="translate(248.750337 0)scale(0.996264)" xlink:href="#Computer_Modern_Bright_Math_Slanted-62"/>
      <use transform="translate(357.703017 0)scale(0.996264)" xlink:href="#Computer_Modern_Bright_Slanted-104"/>
      <use transform="translate(405.855514 0)scale(0.996264)" xlink:href="#Computer_Modern_Bright_Slanted-105"/>
      <use transform="translate(424.950473 0)scale(0.996264)" xlink:href="#Computer_Modern_Bright_Slanted-102"/>
      <use transform="translate(455.253417 0)scale(0.996264)" xlink:href="#Computer_Modern_Bright_Slanted-45"/>
      <use transform="translate(488.46209 0)scale(0.996264)" xlink:href="#Computer_Modern_Bright_Slanted-49"/>
     </g>
    </g>
   </g>
  </g>
 </g>
 <defs>
  <clipPath id="p9b872f73f5">
   <rect height="298.98" width="446.4" x="55.028355" y="7.2"/>
  </clipPath>
 </defs>
</svg>
