<?xml version="1.0" encoding="utf-8" standalone="no"?>
<!DOCTYPE svg PUBLIC "-//W3C//DTD SVG 1.1//EN"
  "http://www.w3.org/Graphics/SVG/1.1/DTD/svg11.dtd">
<!-- Created with matplotlib (http://matplotlib.org/) -->
<svg height="353pt" version="1.1" viewBox="0 0 628 353" width="628pt" xmlns="http://www.w3.org/2000/svg" xmlns:xlink="http://www.w3.org/1999/xlink">
 <defs>
  <style type="text/css">
*{stroke-linecap:butt;stroke-linejoin:round;}
  </style>
 </defs>
 <g id="figure_1">
  <g id="patch_1">
   <path d="M 0 353.548374 
L 628.843848 353.548374 
L 628.843848 0 
L 0 0 
z
" style="fill:#ffffff;"/>
  </g>
  <g id="axes_1">
   <g id="patch_2">
    <path d="M 62.777159 306.18 
L 509.177159 306.18 
L 509.177159 7.2 
L 62.777159 7.2 
z
" style="fill:#eaeaf2;"/>
   </g>
   <g id="matplotlib.axis_1">
    <g id="xtick_1">
     <g id="line2d_1"/>
     <g id="text_1">
      <!-- $-40$ -->
      <defs>
       <path d="M 9.796875 28.078125 
C 8 27.484375 7.796875 24.78125 9.796875 24.28125 
C 10.296875 24.078125 10.90625 24.1875 11.5 24.1875 
L 64.703125 24.1875 
C 65.90625 24.1875 67.796875 23.78125 68.796875 24.78125 
C 69.90625 25.875 69.296875 27.875 67.703125 28.1875 
C 66.5 28.375 65.09375 28.1875 63.90625 28.1875 
L 11.40625 28.1875 
C 10.90625 28.1875 10.296875 28.28125 9.796875 28.078125 
" id="Computer_Modern_Bright_Math_Symbols-0"/>
       <path d="M 2.09375 18 
L 31 18 
L 31 0 
L 37.296875 0 
L 37.296875 18 
L 48.703125 18 
L 48.703125 23.328125 
L 37.296875 23.328125 
L 37.296875 66.46875 
L 31.90625 66.46875 
C 30.09375 66.46875 29.59375 66.578125 28.796875 65.0625 
C 24.796875 58.515625 3.703125 25.765625 3 24.859375 
C 2.203125 23.4375 2.09375 23.546875 2.09375 21.4375 
z
M 31.296875 60.875 
L 31.296875 23.328125 
L 8.59375 23.328125 
C 9.296875 24.734375 10.296875 26.03125 11.203125 27.4375 
C 16.203125 35.171875 28.09375 53.546875 30.59375 59.28125 
C 30.90625 59.78125 31 60.375 31.296875 60.875 
" id="Computer_Modern_Bright-52"/>
       <path d="M 14.796875 63.859375 
C 11.90625 61.859375 9.90625 59.140625 8.40625 56.03125 
C 4.796875 49 4.40625 40.765625 4.40625 31.828125 
C 4.40625 20.578125 6.40625 10.25 12 4.3125 
C 17.296875 -1.203125 25.703125 -2.609375 32.796875 0.296875 
C 37.203125 2.015625 40.40625 5.71875 42.40625 9.734375 
C 46 16.875 46.40625 25.40625 46.40625 34.234375 
C 46.40625 37.046875 46.296875 39.859375 46 42.671875 
C 45.296875 49.40625 43 56.828125 39.296875 60.953125 
C 33.203125 67.6875 22.296875 69.1875 14.796875 63.859375 
M 34.90625 58.140625 
C 39.59375 53.125 40 43.484375 40 34.34375 
L 40 28.921875 
C 40 24.296875 39.203125 18.28125 38.203125 14.859375 
C 36.796875 10.140625 34.5 6.734375 29.90625 4.625 
C 24.296875 2.609375 18.5 4.515625 15.296875 8.9375 
C 11 14.65625 10.796875 24.796875 10.796875 33.734375 
C 10.796875 42.171875 10.90625 51.515625 15 57.03125 
C 19.5 63.0625 29.203125 64.0625 34.90625 58.140625 
" id="Computer_Modern_Bright-48"/>
      </defs>
      <g style="fill:#262626;" transform="translate(53.969979 324.249603)scale(0.16 -0.16)">
       <use transform="scale(0.996264)" xlink:href="#Computer_Modern_Bright_Math_Symbols-0"/>
       <use transform="translate(77.487468 0)scale(0.996264)" xlink:href="#Computer_Modern_Bright-52"/>
       <use transform="translate(128.130685 0)scale(0.996264)" xlink:href="#Computer_Modern_Bright-48"/>
      </g>
     </g>
    </g>
    <g id="xtick_2">
     <g id="line2d_2"/>
     <g id="text_2">
      <!-- $-20$ -->
      <defs>
       <path d="M 7.296875 45.96875 
C 8.703125 51.59375 11.09375 57.984375 16.796875 60.5 
C 19.203125 61.5 21.796875 61.703125 24.40625 61.5 
C 29.296875 61.09375 34.09375 59.09375 37.09375 55.09375 
C 39.296875 52.078125 40.09375 48.375 39.703125 44.78125 
C 38.5 34.34375 28.296875 26.84375 21.703125 21.234375 
C 17.90625 18.03125 7.09375 7.8125 7.09375 7.8125 
L 5.40625 6.203125 
C 4.5 5.3125 4.40625 5.3125 4.40625 3.5 
L 4.40625 0 
L 46.40625 0 
L 46.40625 5.625 
L 10.203125 5.625 
C 13.40625 8.734375 26.703125 20.515625 28.5 21.921875 
C 34.296875 26.65625 40.796875 31.375 44.296875 38.21875 
C 48.203125 46.0625 46.5 55.9375 39.90625 61.765625 
C 35.90625 65.296875 30.40625 67 25.09375 67 
C 20.203125 67 15.203125 66 11.296875 62.90625 
C 8.296875 60.390625 5.796875 56.6875 4.40625 52.875 
C 4.09375 52.28125 3.59375 51.28125 3.703125 50.578125 
C 3.796875 49.984375 4.40625 49.484375 4.703125 49.078125 
C 5.5 48.078125 6.296875 46.875 7.296875 45.96875 
" id="Computer_Modern_Bright-50"/>
      </defs>
      <g style="fill:#262626;" transform="translate(152.462645 324.249603)scale(0.16 -0.16)">
       <use transform="scale(0.996264)" xlink:href="#Computer_Modern_Bright_Math_Symbols-0"/>
       <use transform="translate(77.487468 0)scale(0.996264)" xlink:href="#Computer_Modern_Bright-50"/>
       <use transform="translate(128.130685 0)scale(0.996264)" xlink:href="#Computer_Modern_Bright-48"/>
      </g>
     </g>
    </g>
    <g id="xtick_3">
     <g id="line2d_3"/>
     <g id="text_3">
      <!-- $0$ -->
      <g style="fill:#262626;" transform="translate(261.338584 324.249603)scale(0.16 -0.16)">
       <use transform="scale(0.996264)" xlink:href="#Computer_Modern_Bright-48"/>
      </g>
     </g>
    </g>
    <g id="xtick_4">
     <g id="line2d_4"/>
     <g id="text_4">
      <!-- $20$ -->
      <g style="fill:#262626;" transform="translate(355.646975 324.249603)scale(0.16 -0.16)">
       <use transform="scale(0.996264)" xlink:href="#Computer_Modern_Bright-50"/>
       <use transform="translate(50.643218 0)scale(0.996264)" xlink:href="#Computer_Modern_Bright-48"/>
      </g>
     </g>
    </g>
    <g id="xtick_5">
     <g id="line2d_5"/>
     <g id="text_5">
      <!-- $40$ -->
      <g style="fill:#262626;" transform="translate(454.139641 324.249603)scale(0.16 -0.16)">
       <use transform="scale(0.996264)" xlink:href="#Computer_Modern_Bright-52"/>
       <use transform="translate(50.643218 0)scale(0.996264)" xlink:href="#Computer_Modern_Bright-48"/>
      </g>
     </g>
    </g>
    <g id="text_6">
     <!-- PCA Dimension 1 -->
     <defs>
      <path d="M 8 70 
L 8 0.5 
L 15 0.5 
L 15 30 
L 29.09375 30 
C 31.296875 30 33.5 30 35.59375 30 
C 43 30.609375 49.203125 33.640625 53.40625 38.171875 
C 57.703125 42.90625 59.59375 50.15625 56.796875 56.296875 
C 53.59375 64.046875 46 68.984375 36.296875 70 
C 33.40625 70 30.40625 70 27.5 70 
z
M 14.90625 35.21875 
L 14.90625 64.671875 
L 28.59375 64.671875 
C 37.296875 64.671875 45.203125 63.671875 49.203125 57.65625 
C 51.90625 53.625 52.296875 48 50.09375 43.671875 
C 48.90625 41.34375 47.09375 39.546875 44.90625 38.234375 
C 40 35.21875 34.296875 35.21875 28.796875 35.21875 
z
" id="Computer_Modern_Bright-80"/>
      <path d="M 60.5 10.875 
C 58.5 9.859375 56.703125 8.453125 54.703125 7.453125 
C 50 5.046875 44 4.140625 37.5 4.734375 
C 31.703125 5.546875 26.90625 8.359375 23.40625 11.875 
C 12.203125 23.15625 11.40625 42.96875 21.296875 55.34375 
C 25.5 60.875 31.90625 65 41.296875 65 
C 45.09375 65 49 64.296875 52.5 62.890625 
C 54.59375 61.96875 56.59375 60.765625 58.59375 59.765625 
L 59.796875 66.8125 
C 57.59375 67.671875 55.296875 68.5625 53 69.09375 
C 47.40625 70.625 38.90625 70.625 33.09375 69.21875 
C 22.90625 66.921875 15.5 59.828125 11.296875 51.625 
C 5.5 40.015625 6.203125 25.515625 13.203125 14.59375 
C 15 11.703125 17.296875 9.109375 19.90625 6.890625 
C 25.90625 1.6875 33.296875 -1.3125 43.59375 -0.5 
C 49.796875 -0.5 53.40625 0.515625 58.203125 3.203125 
C 58.703125 3.5 60.59375 4.515625 60.90625 4.9375 
C 61.09375 5.4375 60.59375 9.53125 60.5 10.875 
" id="Computer_Modern_Bright-67"/>
      <path d="M 2.09375 0.09375 
L 6.59375 0.09375 
L 8.40625 0.296875 
C 11.40625 6.796875 13.5 14.203125 16.203125 21 
C 26.09375 21 36.90625 21 46.296875 21 
L 47.09375 19.6875 
C 48.796875 14.546875 50.796875 9.59375 52.59375 4.546875 
C 53.09375 3.015625 53.59375 1.515625 54.40625 0.296875 
C 56.59375 0 59.203125 0 61.59375 0 
C 59.90625 4.90625 36.703125 67.203125 36 68.890625 
C 35.90625 69.296875 35.703125 69.890625 35.203125 70 
C 34.59375 70.09375 34 70 33.40625 70 
L 30.09375 70 
C 28.59375 70 28 70.1875 27.59375 68.609375 
C 27.203125 67.59375 2.09375 0.09375 2.09375 0.09375 
M 31.40625 63.171875 
C 35.59375 50.71875 40.09375 38.46875 44.5 26.21875 
L 18.203125 26.21875 
L 26.90625 50.109375 
z
" id="Computer_Modern_Bright-65"/>
      <path d="M 8 70 
L 8 0 
L 28.203125 0 
C 31.40625 0 34.59375 0 37.703125 0.296875 
C 45.703125 1.109375 52.59375 5.015625 57.203125 9.828125 
C 70.09375 23.171875 70 46.125 57.296875 59.671875 
C 52.703125 64.578125 46.5 68.5 38.703125 69.5 
C 34.90625 70 31 70 27.203125 70 
z
M 14.90625 5.3125 
L 14.90625 64.5625 
L 27.796875 64.5625 
C 30.5 64.5625 33.203125 64.5625 35.90625 64.359375 
C 40.40625 63.859375 44.796875 62.359375 48.5 59.734375 
C 56.59375 54.125 60 44.171875 60 34.640625 
C 60 26.609375 57.796875 18.375 51.90625 12.640625 
C 47.90625 8.9375 42.5 6.21875 36 5.515625 
C 33.40625 5.3125 30.703125 5.3125 28.09375 5.3125 
z
" id="Computer_Modern_Bright-68"/>
      <path d="M 6.40625 70 
L 6.40625 63.671875 
L 12.703125 63.671875 
L 12.703125 70 
z
M 6.40625 47.390625 
L 6.40625 0 
L 12.703125 0 
L 12.703125 47.390625 
z
" id="Computer_Modern_Bright-105"/>
      <path d="M 12.59375 37.359375 
L 12.5 37.359375 
L 12.5 47.390625 
L 6.40625 47.390625 
L 6.40625 0 
L 12.796875 0 
L 12.796875 22.046875 
C 12.796875 26.953125 12.5 31.875 14.703125 36.375 
C 16.59375 40.28125 19.90625 43.390625 25.796875 42.78125 
C 28.796875 42.78125 31.796875 41.984375 33.703125 39.453125 
C 35.5 37.140625 35.59375 34.140625 35.59375 31.3125 
L 35.59375 0 
L 42 0 
L 42 22.046875 
C 42 26.953125 41.703125 31.875 43.90625 36.375 
C 45.796875 40.28125 49.09375 43.390625 55 42.78125 
C 58 42.78125 61 41.984375 62.90625 39.453125 
C 64.703125 37.140625 64.796875 34.140625 64.796875 31.3125 
L 64.796875 0 
L 71.203125 0 
L 71.203125 26.5625 
C 71.203125 31.375 71.796875 36.78125 69.703125 41.1875 
C 67.59375 45.296875 64.203125 47.5 58.703125 47.5 
C 55.5 47.796875 52.296875 47.3125 49.40625 45.84375 
C 45.90625 43.921875 43.296875 40.75 41.703125 37.265625 
C 41 40.578125 40.203125 42.828125 38 45 
C 35.703125 47.0625 32.59375 48 29.59375 48 
C 22.296875 48.59375 17.703125 45.5625 14.59375 41 
C 13.796875 39.875 13 38.671875 12.59375 37.359375 
" id="Computer_Modern_Bright-109"/>
      <path d="M 41.796875 10.9375 
C 39.5 9.234375 38.796875 8.328125 35.90625 6.8125 
C 29.796875 3.5 22.59375 3.5 17.40625 7.171875 
C 12.40625 10.765625 9.5 16.640625 9.5 25 
L 42.5 25 
C 42.5 32.421875 40.796875 38.859375 36.59375 43.375 
C 32 47.890625 24.796875 49.296875 18.703125 47.390625 
C 16.40625 46.6875 14.296875 45.484375 12.40625 43.96875 
C 6.09375 38.859375 3.40625 30.71875 3.5 22.78125 
C 3.703125 12.34375 10.796875 1.90625 21.296875 -0.3125 
C 26.796875 -1.421875 32.59375 -0.203125 37.5 2.296875 
C 38.40625 2.796875 41.703125 4.609375 42.09375 5.515625 
C 42.40625 6.015625 41.796875 10.9375 41.796875 10.9375 
M 37.203125 28.90625 
L 10 28.90625 
C 11.203125 36.234375 17.203125 43.96875 25.296875 43.0625 
C 31.90625 42.46875 35.40625 37.75 36.703125 31.828125 
C 36.90625 30.8125 37 29.921875 37.203125 28.90625 
" id="Computer_Modern_Bright-101"/>
      <path d="M 12.59375 37.28125 
L 12.5 37.28125 
L 12.5 47.390625 
L 6.40625 47.390625 
L 6.40625 0 
L 12.796875 0 
L 12.796875 21.9375 
C 12.796875 26.84375 12.5 31.875 14.703125 36.46875 
C 15.796875 38.78125 17.5 40.78125 19.796875 41.984375 
C 21.703125 42.890625 23.703125 42.890625 25.796875 42.6875 
C 28.796875 42.6875 31.703125 41.890625 33.59375 39.375 
C 35.40625 37.0625 35.5 34.0625 35.5 31.25 
L 35.5 0 
L 41.90625 0 
L 41.90625 26.859375 
C 41.90625 31.875 42.40625 37.375 40 41.890625 
C 38.09375 45.5 34.40625 47.203125 30.5 47.703125 
C 28.5 48 26.40625 48 24.40625 47.609375 
C 19.203125 46.5 14.40625 42.296875 12.59375 37.28125 
" id="Computer_Modern_Bright-110"/>
      <path d="M 3.09375 9.640625 
C 2.90625 8.234375 2.59375 6.9375 2.40625 5.53125 
C 2.203125 4.421875 1.90625 3.921875 2.90625 3.421875 
C 7 1.015625 11.90625 -0.296875 17.703125 -0.796875 
C 24.203125 -1.40625 32.40625 0.109375 35.59375 6.53125 
C 36.5 8.34375 37 10.34375 37.09375 12.359375 
C 37.5 19.578125 31.796875 24.203125 26.90625 25.90625 
C 21.40625 28.015625 13.90625 27.3125 10.09375 31.53125 
C 8.09375 33.84375 8 37.265625 9.90625 39.671875 
C 13.90625 45.296875 26.796875 42.875 31.90625 40.375 
C 32.703125 39.96875 33.40625 39.46875 34.296875 39.265625 
L 35.203125 44.6875 
C 30.5 46.796875 26.40625 48 19.90625 48 
C 14.296875 48 9.203125 46.703125 6 43.484375 
C 2.796875 40.171875 1.703125 34.640625 3.59375 30.4375 
C 5.40625 26.40625 9.203125 23.796875 13.296875 22.5 
C 19.203125 20.390625 25.90625 21.390625 29.796875 16.578125 
C 32 13.765625 31.59375 9.546875 29.09375 7.03125 
C 24.296875 2.609375 14.09375 4.21875 8.5 6.625 
C 6.59375 7.4375 4.90625 8.640625 3.09375 9.640625 
" id="Computer_Modern_Bright-115"/>
      <path d="M 10.703125 42.078125 
C 1.796875 33.234375 0.796875 17.875 8.5 7.9375 
C 9.59375 6.421875 10.90625 5.125 12.40625 4.015625 
C 16.09375 1 21.5 -1.203125 27.796875 -0.5 
C 37.796875 0.703125 44.703125 8.84375 46.796875 17.375 
C 49.59375 29.328125 43.703125 42.671875 32.703125 46.890625 
C 24.09375 50.40625 15.5 46.890625 10.703125 42.078125 
M 35.703125 39.359375 
C 40.5 35.03125 41.40625 28.109375 41 21.984375 
C 40.703125 17.265625 39.40625 12.34375 36.09375 8.828125 
C 30.703125 3 20.703125 3 14.90625 8.625 
C 11.90625 11.84375 10.09375 16.453125 9.796875 21.984375 
C 9.296875 30.109375 11.296875 38.75 19.296875 41.96875 
C 25.203125 44.578125 32 42.671875 35.703125 39.359375 
" id="Computer_Modern_Bright-111"/>
      <path d="M 9.703125 60.015625 
L 9.703125 55 
C 15.203125 55 19 56 23.40625 57.90625 
L 23.40625 5.015625 
L 10.296875 5.015625 
L 10.296875 0 
L 43 0 
L 43 5.015625 
L 29.90625 5.015625 
L 29.90625 67 
C 27.5 67 27.90625 66.359375 26 64.875 
C 21.90625 61.71875 16.203125 60.015625 9.703125 60.015625 
" id="Computer_Modern_Bright-49"/>
     </defs>
     <g style="fill:#262626;" transform="translate(220.963773 343.359582)scale(0.18 -0.18)">
      <use transform="scale(0.996264)" xlink:href="#Computer_Modern_Bright-80"/>
      <use transform="translate(62.888907 0)scale(0.996264)" xlink:href="#Computer_Modern_Bright-67"/>
      <use transform="translate(128.06094 0)scale(0.996264)" xlink:href="#Computer_Modern_Bright-65"/>
      <use transform="translate(223.037769 0)scale(0.996264)" xlink:href="#Computer_Modern_Bright-68"/>
      <use transform="translate(294.643956 0)scale(0.996264)" xlink:href="#Computer_Modern_Bright-105"/>
      <use transform="translate(313.738915 0)scale(0.996264)" xlink:href="#Computer_Modern_Bright-109"/>
      <use transform="translate(390.949041 0)scale(0.996264)" xlink:href="#Computer_Modern_Bright-101"/>
      <use transform="translate(435.780709 0)scale(0.996264)" xlink:href="#Computer_Modern_Bright-110"/>
      <use transform="translate(483.933206 0)scale(0.996264)" xlink:href="#Computer_Modern_Bright-115"/>
      <use transform="translate(522.372235 0)scale(0.996264)" xlink:href="#Computer_Modern_Bright-105"/>
      <use transform="translate(541.467194 0)scale(0.996264)" xlink:href="#Computer_Modern_Bright-111"/>
      <use transform="translate(592.110412 0)scale(0.996264)" xlink:href="#Computer_Modern_Bright-110"/>
      <use transform="translate(671.72812 0)scale(0.996264)" xlink:href="#Computer_Modern_Bright-49"/>
     </g>
    </g>
   </g>
   <g id="matplotlib.axis_2">
    <g id="ytick_1">
     <g id="line2d_6"/>
     <g id="text_7">
      <!-- $-40$ -->
      <g style="fill:#262626;" transform="translate(26.642062 312.16049)scale(0.16 -0.16)">
       <use transform="scale(0.996264)" xlink:href="#Computer_Modern_Bright_Math_Symbols-0"/>
       <use transform="translate(77.487468 0)scale(0.996264)" xlink:href="#Computer_Modern_Bright-52"/>
       <use transform="translate(128.130685 0)scale(0.996264)" xlink:href="#Computer_Modern_Bright-48"/>
      </g>
     </g>
    </g>
    <g id="ytick_2">
     <g id="line2d_7"/>
     <g id="text_8">
      <!-- $-20$ -->
      <g style="fill:#262626;" transform="translate(26.642062 255.232501)scale(0.16 -0.16)">
       <use transform="scale(0.996264)" xlink:href="#Computer_Modern_Bright_Math_Symbols-0"/>
       <use transform="translate(77.487468 0)scale(0.996264)" xlink:href="#Computer_Modern_Bright-50"/>
       <use transform="translate(128.130685 0)scale(0.996264)" xlink:href="#Computer_Modern_Bright-48"/>
      </g>
     </g>
    </g>
    <g id="ytick_3">
     <g id="line2d_8"/>
     <g id="text_9">
      <!-- $0$ -->
      <g style="fill:#262626;" transform="translate(47.408609 198.304513)scale(0.16 -0.16)">
       <use transform="scale(0.996264)" xlink:href="#Computer_Modern_Bright-48"/>
      </g>
     </g>
    </g>
    <g id="ytick_4">
     <g id="line2d_9"/>
     <g id="text_10">
      <!-- $20$ -->
      <g style="fill:#262626;" transform="translate(39.040058 141.376524)scale(0.16 -0.16)">
       <use transform="scale(0.996264)" xlink:href="#Computer_Modern_Bright-50"/>
       <use transform="translate(50.643218 0)scale(0.996264)" xlink:href="#Computer_Modern_Bright-48"/>
      </g>
     </g>
    </g>
    <g id="ytick_5">
     <g id="line2d_10"/>
     <g id="text_11">
      <!-- $40$ -->
      <g style="fill:#262626;" transform="translate(39.040058 84.448535)scale(0.16 -0.16)">
       <use transform="scale(0.996264)" xlink:href="#Computer_Modern_Bright-52"/>
       <use transform="translate(50.643218 0)scale(0.996264)" xlink:href="#Computer_Modern_Bright-48"/>
      </g>
     </g>
    </g>
    <g id="ytick_6">
     <g id="line2d_11"/>
     <g id="text_12">
      <!-- $60$ -->
      <defs>
       <path d="M 11.296875 32.625 
L 11.203125 32.625 
C 11.203125 41.765625 12.796875 52.421875 20.59375 58.25 
C 24.90625 61.375 30.703125 62.96875 38.203125 61.171875 
C 39.796875 60.765625 41.296875 60.15625 42.796875 59.765625 
L 42.796875 63.28125 
C 42.796875 63.671875 42.90625 64.375 42.59375 64.78125 
C 41.90625 65.6875 36.296875 66.59375 36.09375 66.59375 
C 27.40625 67.59375 21.703125 65.6875 16.40625 61.171875 
C 10 55.640625 6.296875 47.515625 5.09375 39.28125 
C 4 32.65625 4.90625 22 6.203125 16.78125 
C 8.296875 9.046875 12.296875 2.21875 19.703125 -0.390625 
C 24.09375 -2 29.5 -2 33.703125 0.015625 
C 37.09375 1.640625 39.90625 4.46875 42.09375 7.5 
C 45.59375 12.34375 46.5 18.21875 46.09375 24.171875 
C 45.90625 27.109375 45.5 30.046875 44.296875 32.765625 
C 42.40625 37.125 39.203125 41.671875 35.09375 43.6875 
C 33.203125 44.5 31.203125 44.5 29.203125 44.5 
C 23.90625 44.5 18.90625 42.1875 15.203125 38.359375 
C 13.59375 36.75 12 34.71875 11.296875 32.625 
M 24.40625 39.515625 
C 28.203125 39.8125 32.203125 39.21875 35.09375 36.5 
C 38.90625 32.890625 39.59375 27.765625 39.59375 22.8125 
C 39.59375 19.46875 39.703125 16.015625 38.703125 12.859375 
C 38.09375 11.234375 37.296875 9.828125 36.40625 8.5 
C 34.203125 5.5625 31.40625 4.125 26.796875 3.515625 
C 22.296875 3.515625 17.796875 5.3125 15.203125 9.125 
C 13.59375 11.328125 12.796875 14.046875 12.296875 16.640625 
C 11.703125 19.34375 11.296875 22.140625 11.5 24.859375 
C 12 31.984375 17 38.515625 24.40625 39.515625 
" id="Computer_Modern_Bright-54"/>
      </defs>
      <g style="fill:#262626;" transform="translate(39.040058 27.520547)scale(0.16 -0.16)">
       <use transform="scale(0.996264)" xlink:href="#Computer_Modern_Bright-54"/>
       <use transform="translate(50.643218 0)scale(0.996264)" xlink:href="#Computer_Modern_Bright-48"/>
      </g>
     </g>
    </g>
    <g id="text_13">
     <!-- PCA Dimension 2 -->
     <g style="fill:#262626;" transform="translate(19.65327 221.703387)rotate(-90)scale(0.18 -0.18)">
      <use transform="scale(0.996264)" xlink:href="#Computer_Modern_Bright-80"/>
      <use transform="translate(62.888907 0)scale(0.996264)" xlink:href="#Computer_Modern_Bright-67"/>
      <use transform="translate(128.06094 0)scale(0.996264)" xlink:href="#Computer_Modern_Bright-65"/>
      <use transform="translate(223.037769 0)scale(0.996264)" xlink:href="#Computer_Modern_Bright-68"/>
      <use transform="translate(294.643956 0)scale(0.996264)" xlink:href="#Computer_Modern_Bright-105"/>
      <use transform="translate(313.738915 0)scale(0.996264)" xlink:href="#Computer_Modern_Bright-109"/>
      <use transform="translate(390.949041 0)scale(0.996264)" xlink:href="#Computer_Modern_Bright-101"/>
      <use transform="translate(435.780709 0)scale(0.996264)" xlink:href="#Computer_Modern_Bright-110"/>
      <use transform="translate(483.933206 0)scale(0.996264)" xlink:href="#Computer_Modern_Bright-115"/>
      <use transform="translate(522.372235 0)scale(0.996264)" xlink:href="#Computer_Modern_Bright-105"/>
      <use transform="translate(541.467194 0)scale(0.996264)" xlink:href="#Computer_Modern_Bright-111"/>
      <use transform="translate(592.110412 0)scale(0.996264)" xlink:href="#Computer_Modern_Bright-110"/>
      <use transform="translate(671.72812 0)scale(0.996264)" xlink:href="#Computer_Modern_Bright-50"/>
     </g>
    </g>
   </g>
   <g id="line2d_12">
    <defs>
     <path d="M -0 12.020815 
L 12.020815 0 
L 0 -12.020815 
L -12.020815 -0 
z
" id="m611d6c07a6"/>
    </defs>
    <g clip-path="url(#p80d029ce08)">
     <use style="fill:#e41a1c;" x="106.345008" xlink:href="#m611d6c07a6" y="186.615283"/>
    </g>
   </g>
   <g id="line2d_13">
    <defs>
     <path d="M -0 12.020815 
L 12.020815 0 
L 0 -12.020815 
L -12.020815 -0 
z
" id="m06bc9ffd04"/>
    </defs>
    <g clip-path="url(#p80d029ce08)">
     <use style="fill:#377eb8;" x="83.068068" xlink:href="#m06bc9ffd04" y="174.112357"/>
    </g>
   </g>
   <g id="line2d_14">
    <defs>
     <path d="M -0 8.5 
L 8.5 -8.5 
L -8.5 -8.5 
z
" id="m077d0cc32d"/>
    </defs>
    <g clip-path="url(#p80d029ce08)">
     <use style="fill:#4daf4a;" x="434.6023" xlink:href="#m077d0cc32d" y="292.59"/>
    </g>
   </g>
   <g id="line2d_15">
    <defs>
     <path d="M -3.252809 -7.852976 
L -7.852976 -3.252809 
L -7.852976 3.252809 
L -3.252809 7.852976 
L 3.252809 7.852976 
L 7.852976 3.252809 
L 7.852976 -3.252809 
L 3.252809 -7.852976 
z
" id="m9411704342"/>
    </defs>
    <g clip-path="url(#p80d029ce08)">
     <use style="fill:#984ea3;" x="219.666135" xlink:href="#m9411704342" y="218.953826"/>
    </g>
   </g>
   <g id="line2d_16">
    <defs>
     <path d="M -0 12.020815 
L 12.020815 0 
L 0 -12.020815 
L -12.020815 -0 
z
" id="m77de33eaaf"/>
    </defs>
    <g clip-path="url(#p80d029ce08)">
     <use style="fill:#ff7f00;" x="97.773303" xlink:href="#m77de33eaaf" y="172.108428"/>
    </g>
   </g>
   <g id="line2d_17">
    <defs>
     <path d="M -0 8.5 
L 8.5 -8.5 
L -8.5 -8.5 
z
" id="m166dbe2199"/>
    </defs>
    <g clip-path="url(#p80d029ce08)">
     <use style="fill:#a65628;" x="428.318951" xlink:href="#m166dbe2199" y="284.218081"/>
    </g>
   </g>
   <g id="line2d_18">
    <defs>
     <path d="M 0 8.5 
C 2.254226 8.5 4.416429 7.604386 6.010408 6.010408 
C 7.604386 4.416429 8.5 2.254226 8.5 0 
C 8.5 -2.254226 7.604386 -4.416429 6.010408 -6.010408 
C 4.416429 -7.604386 2.254226 -8.5 0 -8.5 
C -2.254226 -8.5 -4.416429 -7.604386 -6.010408 -6.010408 
C -7.604386 -4.416429 -8.5 -2.254226 -8.5 0 
C -8.5 2.254226 -7.604386 4.416429 -6.010408 6.010408 
C -4.416429 7.604386 -2.254226 8.5 0 8.5 
z
" id="m11b19211cf"/>
    </defs>
    <g clip-path="url(#p80d029ce08)">
     <use x="488.88625" xlink:href="#m11b19211cf" y="20.79"/>
    </g>
   </g>
   <g id="patch_3">
    <path d="M 62.777159 306.18 
L 62.777159 7.2 
" style="fill:none;"/>
   </g>
   <g id="patch_4">
    <path d="M 509.177159 306.18 
L 509.177159 7.2 
" style="fill:none;"/>
   </g>
   <g id="patch_5">
    <path d="M 62.777159 306.18 
L 509.177159 306.18 
" style="fill:none;"/>
   </g>
   <g id="patch_6">
    <path d="M 62.777159 7.2 
L 509.177159 7.2 
" style="fill:none;"/>
   </g>
   <g id="legend_1">
    <g id="line2d_19"/>
    <g id="line2d_20">
     <g>
      <use style="fill:#e41a1c;" x="528.777159" xlink:href="#m611d6c07a6" y="103.862723"/>
     </g>
    </g>
    <g id="text_14">
     <!-- \emph{egl-9;vhl-1} -->
     <defs>
      <path d="M 44.09375 10.859375 
C 42.796875 9.953125 41.5 8.9375 40.09375 8.140625 
C 34.296875 4.59375 24.09375 1.765625 18.203125 7.53125 
C 14.40625 11.375 13.203125 17.53125 14.796875 25 
L 46.40625 25 
C 46.796875 25 47.40625 24.90625 47.703125 25.203125 
C 48.5 25.8125 48.703125 31.375 48.703125 31.46875 
C 48.703125 32.6875 48.796875 33.890625 48.703125 35.109375 
C 48.296875 40.46875 45.703125 45.3125 40.703125 47.140625 
C 34.296875 49.765625 27 47.84375 21.5 43.90625 
C 13.796875 38.4375 8.40625 29.046875 8 19.453125 
C 7.59375 11.875 10.5 5.515625 15.40625 2.171875 
C 23.40625 -3.484375 34.5 -0.15625 40.90625 3.6875 
C 41.703125 4.203125 42.90625 4.703125 43.40625 5.40625 
C 43.703125 5.90625 44.09375 10.859375 44.09375 10.859375 
M 43.296875 28.953125 
L 16.203125 28.953125 
C 16.59375 30.671875 17.703125 32.390625 18.703125 33.796875 
C 21.296875 37.84375 25.09375 41.46875 29.796875 42.796875 
C 33.59375 43.90625 38.296875 43.1875 41 40.0625 
C 43.203125 37.4375 43.703125 33.390625 43.296875 28.953125 
" id="Computer_Modern_Bright_Slanted-101"/>
      <path d="M 37.90625 12.09375 
L 38 12.09375 
C 37.703125 10.1875 37.203125 8.265625 36.796875 6.34375 
C 36.203125 3.3125 35.703125 0.171875 34.703125 -2.65625 
C 33.5 -5.984375 31.203125 -9.109375 28.296875 -11.140625 
C 25.90625 -12.75 23.796875 -13.265625 19.90625 -12.953125 
C 15.09375 -12.953125 11.59375 -12.03125 7.796875 -10.265625 
C 6.703125 -9.75 5.796875 -9.125 4.703125 -8.609375 
L 3.5 -14.171875 
C 8.09375 -16.25 12.203125 -18 18.40625 -18 
C 19.796875 -18.109375 21.203125 -18.203125 22.59375 -18.109375 
C 31.703125 -17.203125 38.5 -10.21875 41.09375 -2.828125 
C 41.796875 -1 42.09375 1.015625 42.5 2.953125 
L 44.203125 11.03125 
C 44.796875 13.78125 51.90625 47.390625 52 48.5 
L 45.703125 48.5 
L 44.09375 40.265625 
C 43.703125 40.984375 43.5 41.78125 43.203125 42.5 
C 42.5 43.90625 41.5 45.21875 40.296875 46.234375 
C 34.40625 51.1875 25 46.640625 21 43.5 
C 15.09375 38.953125 11 32.296875 9.203125 25.125 
C 6.90625 16.234375 9.5 8.0625 14.90625 4.328125 
C 18.796875 1.59375 24.796875 0.78125 30 3.71875 
C 32.90625 5.4375 36.40625 8.96875 37.90625 12.09375 
M 34.59375 43.5 
C 40.296875 43.5 42.703125 39.546875 42.703125 33.890625 
C 42.59375 33.1875 42.40625 32.375 42.296875 31.671875 
C 40.703125 24.59375 39.40625 17.53125 35.59375 12.0625 
C 33.703125 9.34375 30.90625 7.125 27.5 6.8125 
C 25 6.609375 22.40625 7.515625 20.796875 8.328125 
C 15.90625 11.15625 14.296875 17.21875 15.09375 22.578125 
C 16 28.9375 19.5 35.03125 24.5 39.0625 
C 27.40625 41.4375 30.90625 43.203125 34.59375 43.5 
M 38 12.21875 
C 38 12.21875 38.09375 12.21875 38.09375 12.21875 
C 38.09375 12.125 38 12.015625 38 12.21875 
" id="Computer_Modern_Bright_Slanted-103"/>
      <path d="M 21.09375 70 
L 6.40625 0 
C 8.5 0 10.796875 0 12.59375 0.296875 
L 13 1.40625 
C 14 6.4375 15.09375 11.375 16.203125 16.40625 
L 27.40625 70 
z
" id="Computer_Modern_Bright_Slanted-108"/>
      <path d="M 5.90625 26.0625 
L 4.90625 21 
L 32.796875 21 
L 33.796875 26.0625 
z
" id="Computer_Modern_Bright_Slanted-45"/>
      <path d="M 46.5 33.03125 
L 46.59375 33.03125 
C 46.296875 31.3125 45.90625 29.59375 45.40625 27.96875 
C 42.703125 18.296875 37.09375 7.828125 26.90625 4.625 
C 21.5 3.015625 15.90625 4.03125 12.5 6.734375 
C 12.203125 6.9375 11.59375 7.640625 11.09375 7.546875 
C 10.703125 7.546875 10.296875 6.84375 10.09375 6.53125 
C 9.203125 5.421875 8.296875 4.328125 7.5 3.21875 
C 9.296875 1.796875 11.09375 0.484375 13.296875 -0.3125 
C 15.90625 -1.328125 20.5 -1.828125 23.59375 -1.234375 
C 29 -0.421875 34 2.515625 38.09375 6.03125 
C 47.5 14.375 53.09375 26.21875 54.59375 41.390625 
C 55.09375 45.90625 55.203125 50.515625 54.09375 55.046875 
C 53.203125 58.953125 51.703125 61.46875 48.90625 63.984375 
C 43.796875 68 36.296875 68 30.703125 65.453125 
C 25.40625 62.921875 19.90625 57.65625 17.203125 53.078125 
C 14.59375 48.609375 12.703125 41.40625 13.09375 34.90625 
C 13.5 30.8125 15.5 26.21875 18 23.703125 
C 20.296875 21.515625 23.09375 21 26.09375 21 
C 32.09375 21 38.203125 23.9375 42.5 28.171875 
C 43.90625 29.59375 45.59375 31.109375 46.5 33.03125 
M 43.90625 61.03125 
C 48.59375 58.484375 49.40625 52.515625 48.90625 47.640625 
C 48.703125 44.90625 48.5 42.171875 47.59375 39.53125 
C 45.796875 34.46875 42.09375 30 37.40625 27.578125 
C 32.40625 25.03125 24.59375 25.03125 21.5 29.765625 
C 18.90625 33.484375 19.296875 38 20.09375 42.234375 
C 20.796875 45.546875 21.5 48.96875 23 52.078125 
C 25 56.109375 28.59375 59.734375 32.90625 61.234375 
C 36.5 62.4375 40.59375 62.4375 43.90625 61.03125 
" id="Computer_Modern_Bright_Slanted-57"/>
      <path d="M 19.90625 47.875 
L 18.296875 40 
L 26.09375 40 
L 27.703125 47.875 
z
M 11.5 7.875 
L 9.90625 0 
L 12.296875 0 
C 10.703125 -3.65625 9 -7.234375 7.5 -11 
C 8.796875 -11 10.203125 -11.09375 11.296875 -10.796875 
L 12.296875 -9.5 
L 17.59375 0 
C 18.203125 2.59375 18.796875 5.1875 19.296875 7.875 
z
" id="Computer_Modern_Bright_Slanted-59"/>
      <path d="M 10.703125 48 
C 12.796875 33.046875 15.09375 18.171875 17.09375 3.125 
C 17.296875 2.109375 17.296875 0.90625 17.796875 0.203125 
C 19.90625 0 22.59375 0 24.703125 0 
L 25.296875 0.703125 
L 44.703125 35.109375 
L 51.796875 48 
C 49.703125 48 47.5 48 45.703125 47.703125 
C 44.90625 46.59375 44.296875 45.484375 43.59375 44.265625 
C 36.59375 31.84375 29.40625 19.515625 22.703125 6.6875 
C 21.59375 16.984375 20 26.6875 18.59375 36.6875 
C 18 40.328125 17.90625 44.46875 16.90625 47.703125 
C 15.09375 48 12.796875 48 10.703125 48 
" id="Computer_Modern_Bright_Slanted-118"/>
      <path d="M 21.09375 70 
L 6.40625 0 
L 10.90625 0 
C 11.796875 0 13 -0.296875 13 1.015625 
C 13.203125 1.71875 13.296875 2.328125 13.40625 3.03125 
C 14.40625 7.78125 19 29.5 19.296875 30.40625 
C 20.40625 33.953125 22.40625 37.375 25.09375 39.90625 
C 28 42.4375 31.203125 43.84375 36.59375 42.9375 
C 38.796875 42.53125 40.90625 41.625 42 39.5 
C 43.5 36.46875 42.40625 32.9375 41.796875 29.90625 
L 35.5 0 
L 40.203125 0 
C 41.203125 0 42.09375 -0.203125 42.09375 1.109375 
C 42.703125 3.125 44.09375 10.625 44.09375 10.625 
L 48.59375 32 
C 49.40625 35.734375 50.296875 40.40625 48.203125 43.9375 
C 46.296875 46.984375 42.90625 48 39.59375 48.296875 
C 38.09375 48.296875 36.5 48.296875 35 48 
C 30.796875 47.3125 27.09375 45.09375 24.09375 42.09375 
C 22.90625 40.890625 21.5 39.59375 20.796875 37.984375 
L 20.703125 37.984375 
L 27.40625 70 
z
" id="Computer_Modern_Bright_Slanted-104"/>
      <path d="M 22.5 61 
L 21.5 55.9375 
C 26.296875 55.9375 31.40625 56.546875 35.703125 58.875 
L 24.5 5.046875 
C 20.296875 5.046875 15.296875 5.5625 11.5 5.046875 
C 10.90625 3.578125 10.703125 1.671875 10.296875 0 
C 21.09375 0 32.59375 0 42.796875 0 
C 43.40625 1.453125 43.703125 3.296875 44.09375 5.046875 
L 31 5.046875 
C 35.203125 26.0625 39.796875 46.59375 44.09375 67.5 
C 41.703125 67.5 42 67.09375 40 65.59375 
C 35.59375 62.59375 28.90625 61 22.5 61 
" id="Computer_Modern_Bright_Slanted-49"/>
     </defs>
     <g style="fill:#262626;" transform="translate(553.977159 108.762723)scale(0.14 -0.14)">
      <use transform="scale(0.996264)" xlink:href="#Computer_Modern_Bright_Slanted-101"/>
      <use transform="translate(44.831668 0)scale(0.996264)" xlink:href="#Computer_Modern_Bright_Slanted-103"/>
      <use transform="translate(92.984165 0)scale(0.996264)" xlink:href="#Computer_Modern_Bright_Slanted-108"/>
      <use transform="translate(112.079123 0)scale(0.996264)" xlink:href="#Computer_Modern_Bright_Slanted-45"/>
      <use transform="translate(145.287797 0)scale(0.996264)" xlink:href="#Computer_Modern_Bright_Slanted-57"/>
      <use transform="translate(195.931015 0)scale(0.996264)" xlink:href="#Computer_Modern_Bright_Slanted-59"/>
      <use transform="translate(223.328138 0)scale(0.996264)" xlink:href="#Computer_Modern_Bright_Slanted-118"/>
      <use transform="translate(265.669176 0)scale(0.996264)" xlink:href="#Computer_Modern_Bright_Slanted-104"/>
      <use transform="translate(313.821673 0)scale(0.996264)" xlink:href="#Computer_Modern_Bright_Slanted-108"/>
      <use transform="translate(332.916632 0)scale(0.996264)" xlink:href="#Computer_Modern_Bright_Slanted-45"/>
      <use transform="translate(366.125306 0)scale(0.996264)" xlink:href="#Computer_Modern_Bright_Slanted-49"/>
     </g>
    </g>
    <g id="line2d_21"/>
    <g id="line2d_22">
     <g>
      <use style="fill:#377eb8;" x="528.777159" xlink:href="#m06bc9ffd04" y="122.987334"/>
     </g>
    </g>
    <g id="text_15">
     <!-- \emph{egl-9} -->
     <g style="fill:#262626;" transform="translate(553.977159 127.887334)scale(0.14 -0.14)">
      <use transform="scale(0.996264)" xlink:href="#Computer_Modern_Bright_Slanted-101"/>
      <use transform="translate(44.831668 0)scale(0.996264)" xlink:href="#Computer_Modern_Bright_Slanted-103"/>
      <use transform="translate(92.984165 0)scale(0.996264)" xlink:href="#Computer_Modern_Bright_Slanted-108"/>
      <use transform="translate(112.079123 0)scale(0.996264)" xlink:href="#Computer_Modern_Bright_Slanted-45"/>
      <use transform="translate(145.287797 0)scale(0.996264)" xlink:href="#Computer_Modern_Bright_Slanted-57"/>
     </g>
    </g>
    <g id="line2d_23"/>
    <g id="line2d_24">
     <g>
      <use style="fill:#4daf4a;" x="528.777159" xlink:href="#m077d0cc32d" y="142.111945"/>
     </g>
    </g>
    <g id="text_16">
     <!-- \emph{hif-1} -->
     <defs>
      <path d="M 19.796875 64 
L 26.09375 64 
L 27.40625 70.359375 
C 25.296875 70.359375 23 70.359375 21.203125 70.046875 
C 20.5 68.265625 20.203125 66.09375 19.796875 64 
M 16.40625 47.890625 
L 6.40625 0 
C 8.5 0 10.796875 0 12.59375 0.296875 
L 13 1.40625 
L 22.703125 47.890625 
z
" id="Computer_Modern_Bright_Slanted-105"/>
      <path d="M 12 48.046875 
L 11 43 
L 19.59375 43 
C 16.5 29 13.59375 14.59375 10.59375 0.5 
C 12.703125 0.5 15 0.5 16.796875 0.796875 
L 17.09375 1.5 
C 19.296875 12.25 21.703125 22.703125 23.90625 33.4375 
C 24.703125 36.453125 25 39.984375 26 42.796875 
L 27 43 
L 38.296875 43 
L 39.296875 48.046875 
L 26.796875 48.046875 
C 27.703125 50.9375 28.09375 54.03125 28.703125 56.921875 
C 29 58.21875 29.09375 59.703125 29.796875 60.90625 
C 30.703125 62.609375 32.5 63.703125 34.203125 64.5 
C 37.703125 66 41.5 66 45.203125 65.4375 
C 46.59375 65.265625 47.90625 64.796875 49.203125 64.609375 
L 50.296875 70.234375 
C 46.703125 70.75 42.90625 71.15625 39.296875 70.75 
C 34.203125 70.03125 29.5 67.546875 26.09375 63.734375 
C 23.40625 60.640625 22.703125 58.046875 21.703125 53.34375 
C 21.59375 52.4375 21 48.546875 20.40625 48.25 
C 19.90625 47.84375 18.703125 48.046875 18.09375 48.046875 
z
" id="Computer_Modern_Bright_Slanted-102"/>
     </defs>
     <g style="fill:#262626;" transform="translate(553.977159 147.011945)scale(0.14 -0.14)">
      <use transform="scale(0.996264)" xlink:href="#Computer_Modern_Bright_Slanted-104"/>
      <use transform="translate(48.152497 0)scale(0.996264)" xlink:href="#Computer_Modern_Bright_Slanted-105"/>
      <use transform="translate(67.247456 0)scale(0.996264)" xlink:href="#Computer_Modern_Bright_Slanted-102"/>
      <use transform="translate(97.5504 0)scale(0.996264)" xlink:href="#Computer_Modern_Bright_Slanted-45"/>
      <use transform="translate(130.759074 0)scale(0.996264)" xlink:href="#Computer_Modern_Bright_Slanted-49"/>
     </g>
    </g>
    <g id="line2d_25"/>
    <g id="line2d_26">
     <g>
      <use style="fill:#984ea3;" x="528.777159" xlink:href="#m9411704342" y="161.236556"/>
     </g>
    </g>
    <g id="text_17">
     <!-- \emph{vhl-1} -->
     <g style="fill:#262626;" transform="translate(553.977159 166.136556)scale(0.14 -0.14)">
      <use transform="scale(0.996264)" xlink:href="#Computer_Modern_Bright_Slanted-118"/>
      <use transform="translate(42.341038 0)scale(0.996264)" xlink:href="#Computer_Modern_Bright_Slanted-104"/>
      <use transform="translate(90.493535 0)scale(0.996264)" xlink:href="#Computer_Modern_Bright_Slanted-108"/>
      <use transform="translate(109.588494 0)scale(0.996264)" xlink:href="#Computer_Modern_Bright_Slanted-45"/>
      <use transform="translate(142.797167 0)scale(0.996264)" xlink:href="#Computer_Modern_Bright_Slanted-49"/>
     </g>
    </g>
    <g id="line2d_27"/>
    <g id="line2d_28">
     <g>
      <use style="fill:#ff7f00;" x="528.777159" xlink:href="#m77de33eaaf" y="180.361167"/>
     </g>
    </g>
    <g id="text_18">
     <!-- \emph{rhy-1} -->
     <defs>
      <path d="M 19.90625 35.53125 
L 19.796875 35.53125 
L 22.40625 48.15625 
L 16.40625 48.15625 
L 6.40625 0.5 
L 10.90625 0.5 
C 11.40625 0.5 12.203125 0.296875 12.59375 0.703125 
C 12.90625 0.90625 13.5 4.4375 13.796875 5.65625 
L 16.703125 19.578125 
C 17.5 23.109375 18 26.859375 19.59375 30.1875 
C 23.40625 37.84375 31.90625 43 40.40625 43 
L 41.5 48.765625 
C 34.90625 48.765625 28.59375 45.421875 24 40.78125 
C 22.5 39.265625 20.90625 37.453125 19.90625 35.53125 
M 19.703125 34.953125 
C 19.703125 34.953125 19.796875 34.953125 19.796875 34.953125 
C 19.796875 34.859375 19.703125 34.75 19.703125 34.953125 
" id="Computer_Modern_Bright_Slanted-114"/>
      <path d="M 10.703125 48 
C 11.203125 44.265625 12 40.625 12.703125 36.890625 
C 13.09375 34.359375 19 0.8125 19 0.515625 
C 19 -0.09375 18.59375 -0.59375 18.296875 -1.109375 
L 16.59375 -4.140625 
C 14.703125 -7.265625 12.796875 -10.5 9 -11.8125 
C 6 -12.71875 0.5 -11.40625 -1.5 -10.796875 
C -1.796875 -12.625 -2 -14.53125 -2.203125 -16.453125 
C 0.5 -16.859375 5.40625 -17.46875 8.09375 -16.96875 
C 15.203125 -15.34375 19.203125 -8.671875 22.5 -3.21875 
L 44.09375 34.359375 
L 49.203125 43.359375 
C 50.09375 44.859375 51.203125 46.375 51.796875 48 
C 49.703125 48 47.40625 48 45.59375 47.703125 
C 43.203125 44.078125 41.203125 40.046875 38.90625 36.21875 
C 33.59375 26.4375 27.703125 17.359375 23.203125 6.78125 
L 23.09375 6.78125 
C 23.40625 8.390625 23.09375 10.109375 22.90625 11.734375 
C 21.796875 22.546875 18.59375 39.71875 17.09375 48 
z
" id="Computer_Modern_Bright_Slanted-121"/>
     </defs>
     <g style="fill:#262626;" transform="translate(553.977159 185.261167)scale(0.14 -0.14)">
      <use transform="scale(0.996264)" xlink:href="#Computer_Modern_Bright_Slanted-114"/>
      <use transform="translate(31.963359 0)scale(0.996264)" xlink:href="#Computer_Modern_Bright_Slanted-104"/>
      <use transform="translate(80.115856 0)scale(0.996264)" xlink:href="#Computer_Modern_Bright_Slanted-121"/>
      <use transform="translate(122.456894 0)scale(0.996264)" xlink:href="#Computer_Modern_Bright_Slanted-45"/>
      <use transform="translate(155.665567 0)scale(0.996264)" xlink:href="#Computer_Modern_Bright_Slanted-49"/>
     </g>
    </g>
    <g id="line2d_29"/>
    <g id="line2d_30">
     <g>
      <use style="fill:#a65628;" x="528.777159" xlink:href="#m166dbe2199" y="199.485778"/>
     </g>
    </g>
    <g id="text_19">
     <!-- \emph{egl-9;hif-1} -->
     <g style="fill:#262626;" transform="translate(553.977159 204.385778)scale(0.14 -0.14)">
      <use transform="scale(0.996264)" xlink:href="#Computer_Modern_Bright_Slanted-101"/>
      <use transform="translate(44.831668 0)scale(0.996264)" xlink:href="#Computer_Modern_Bright_Slanted-103"/>
      <use transform="translate(92.984165 0)scale(0.996264)" xlink:href="#Computer_Modern_Bright_Slanted-108"/>
      <use transform="translate(112.079123 0)scale(0.996264)" xlink:href="#Computer_Modern_Bright_Slanted-45"/>
      <use transform="translate(145.287797 0)scale(0.996264)" xlink:href="#Computer_Modern_Bright_Slanted-57"/>
      <use transform="translate(195.931015 0)scale(0.996264)" xlink:href="#Computer_Modern_Bright_Slanted-59"/>
      <use transform="translate(223.328138 0)scale(0.996264)" xlink:href="#Computer_Modern_Bright_Slanted-104"/>
      <use transform="translate(271.480635 0)scale(0.996264)" xlink:href="#Computer_Modern_Bright_Slanted-105"/>
      <use transform="translate(290.575594 0)scale(0.996264)" xlink:href="#Computer_Modern_Bright_Slanted-102"/>
      <use transform="translate(320.878538 0)scale(0.996264)" xlink:href="#Computer_Modern_Bright_Slanted-45"/>
      <use transform="translate(354.087212 0)scale(0.996264)" xlink:href="#Computer_Modern_Bright_Slanted-49"/>
     </g>
    </g>
    <g id="line2d_31"/>
    <g id="line2d_32">
     <g>
      <use x="528.777159" xlink:href="#m11b19211cf" y="218.610389"/>
     </g>
    </g>
    <g id="text_20">
     <!-- \emph{fog-2} -->
     <defs>
      <path d="M 28.5 47.4375 
C 18.203125 43.890625 10.203125 34.09375 8.203125 23.390625 
C 6.90625 16.609375 8.09375 9.03125 13.203125 4.09375 
C 15.40625 2.0625 17.40625 0.859375 20.90625 -0.046875 
C 27.5 -1.5625 33.40625 0.546875 37.90625 3.171875 
C 46.09375 8.125 51.90625 17.015625 53 26.625 
C 53.796875 34.296875 51.09375 42.78125 44 46.625 
C 39.59375 49.046875 34 49.046875 28.5 47.4375 
M 41.09375 41.890625 
C 42 41.390625 42.796875 40.875 43.5 40.171875 
C 47 36.875 47.296875 31.734375 46.796875 27.21875 
C 45.59375 18.171875 40.796875 8.515625 31.703125 5.5 
C 27.59375 4 22.90625 4 19.59375 6.125 
C 14.5 9.1875 13.703125 15.640625 14.296875 21.03125 
C 15.296875 29.921875 19.5 39.3125 28.296875 42.578125 
C 32.203125 44 37.59375 44 41.09375 41.890625 
" id="Computer_Modern_Bright_Slanted-111"/>
      <path d="M 17.09375 46.46875 
C 19.796875 53.140625 25.09375 60.3125 32 61.828125 
C 38.40625 63.234375 46.796875 61.109375 49.40625 54.34375 
C 50.296875 51.515625 50.203125 48.484375 49.203125 45.453125 
C 45.5 34.234375 33.796875 27.171875 25.09375 20.703125 
L 9.296875 8.375 
L 6.90625 6.5625 
C 6.5 6.15625 5.90625 5.859375 5.59375 5.453125 
C 5.203125 4.828125 4.40625 0 4.40625 0 
C 18.203125 0 33 0 46.203125 0 
C 46.90625 1.6875 47.203125 3.765625 47.59375 5.75 
L 11.40625 5.75 
L 19.796875 12.109375 
L 34.59375 23.125 
C 41.59375 28.078125 49.296875 33.03125 53.703125 40.609375 
C 57.5 47.078125 58.296875 55.859375 53.203125 61.828125 
C 50.703125 64.546875 47.5 66.171875 43.5 67.078125 
C 37.703125 68.296875 31.40625 67.484375 26.203125 64.546875 
C 21.59375 61.71875 18.5 58.078125 15.59375 53.4375 
C 15.203125 52.828125 14.5 51.921875 14.5 51.109375 
C 14.5 50.609375 14.796875 50.109375 15.09375 49.703125 
C 15.703125 48.59375 16.296875 47.375 17.09375 46.46875 
" id="Computer_Modern_Bright_Slanted-50"/>
     </defs>
     <g style="fill:#262626;" transform="translate(553.977159 223.510389)scale(0.14 -0.14)">
      <use transform="scale(0.996264)" xlink:href="#Computer_Modern_Bright_Slanted-102"/>
      <use transform="translate(30.302944 0)scale(0.996264)" xlink:href="#Computer_Modern_Bright_Slanted-111"/>
      <use transform="translate(80.946162 0)scale(0.996264)" xlink:href="#Computer_Modern_Bright_Slanted-103"/>
      <use transform="translate(129.098659 0)scale(0.996264)" xlink:href="#Computer_Modern_Bright_Slanted-45"/>
      <use transform="translate(162.307333 0)scale(0.996264)" xlink:href="#Computer_Modern_Bright_Slanted-50"/>
     </g>
    </g>
   </g>
  </g>
 </g>
 <defs>
  <clipPath id="p80d029ce08">
   <rect height="298.98" width="446.4" x="62.777159" y="7.2"/>
  </clipPath>
 </defs>
</svg>
